<svg width="71" height="71" viewBox="0 0 71 71" fill="none" xmlns="http://www.w3.org/2000/svg">
<path fill-rule="evenodd" clip-rule="evenodd" d="M5.33449 0.23015C2.81288 0.909452 0.894298 2.84819 0.233878 5.38441C-0.0779595 6.582 -0.0779595 59.7451 0.233878 60.9427C0.902063 63.5087 2.82841 65.4355 5.39383 66.1039C6.07546 66.2814 8.61357 66.3104 23.4964 66.3104C42.1358 66.3104 41.3766 66.3389 41.7588 65.6246C41.9418 65.2827 41.9422 64.5652 41.7597 64.2241C41.4202 63.5894 41.9608 63.6097 23.4603 63.5366L5.92031 63.4672L5.2757 63.1692C4.45166 62.7882 3.54873 61.8851 3.16784 61.0608L2.86987 60.4161L2.83354 37.7056L2.79735 14.9952H35.5217H68.2463V37.3822C68.2463 49.6951 68.2062 59.8738 68.1571 60.0015C68.0875 60.1832 67.6959 59.8624 66.3587 58.5282L64.6495 56.8226L65.6074 55.8345C66.6179 54.7921 66.8281 54.3577 66.6219 53.7387C66.4406 53.1946 65.9712 52.9003 64.7105 52.54L63.6013 52.2231L63.532 49.2694L63.4626 46.3158L63.0087 45.9102L62.5547 45.5048L35.4539 45.5406L8.35303 45.5763L7.96868 45.9609L7.58418 46.3453V51.3319V56.3185L7.96868 56.7029L8.35303 57.0875L29.346 57.1236L50.339 57.1595L50.4833 57.609C50.5628 57.8561 51.1296 59.8058 51.7431 61.9417C52.3567 64.0775 52.9734 65.9804 53.1137 66.1706C53.4505 66.6266 54.1122 66.8138 54.6297 66.5995C54.8479 66.5091 55.4247 66.0331 55.9116 65.5419L56.7966 64.6486L59.9232 67.7569C61.894 69.7163 63.19 70.9005 63.4295 70.9605C63.6383 71.0129 63.9793 71.0132 64.1871 70.9611C64.5837 70.8615 69.8855 65.7257 70.6205 64.7293C71.1095 64.0662 71.1237 63.6158 70.6761 62.9569L70.3326 62.4515L70.6414 61.6418L70.9501 60.8321L70.9869 33.5796C71.0123 14.7933 70.9781 6.10657 70.8769 5.617C70.3439 3.04097 68.2771 0.906817 65.653 0.223215C64.4935 -0.0788511 6.45663 -0.072194 5.33449 0.23015ZM65.7711 3.15789C66.5951 3.53887 67.4981 4.44202 67.879 5.26625C68.1512 5.85527 68.1807 6.18424 68.221 9.06621L68.265 12.2214H35.5328H2.80054V9.33097C2.80054 6.18091 2.90343 5.54571 3.56939 4.58431C4.05857 3.87838 4.7861 3.33583 5.64189 3.03903C6.29371 2.81297 8.13548 2.80007 35.7314 2.82906L65.1265 2.85984L65.7711 3.15789ZM8.11898 6.25663C7.38285 6.55371 7.13244 7.71329 7.65947 8.38358C8.02885 8.85332 8.73239 8.98743 9.29645 8.69563C9.80795 8.43115 10.0107 8.0933 10.0107 7.50595C10.0107 6.92567 9.80864 6.58117 9.32016 6.32847C8.87049 6.09603 8.56254 6.07758 8.11898 6.25663ZM14.2849 6.34942C13.3982 6.91666 13.41 8.13158 14.3076 8.66193C14.9251 9.02682 15.385 8.95387 15.935 8.40369C16.3675 7.97111 16.4144 7.85586 16.3414 7.40568C16.1793 6.40697 15.0787 5.84167 14.2849 6.34942ZM20.7367 6.25663C20.0006 6.55371 19.7502 7.71329 20.2772 8.38358C20.6466 8.85332 21.3501 8.98743 21.9142 8.69563C22.4257 8.43115 22.6284 8.0933 22.6284 7.50595C22.6284 6.92567 22.4264 6.58117 21.9379 6.32847C21.4882 6.09603 21.1803 6.07758 20.7367 6.25663ZM31.5717 6.28007C30.5519 6.84093 30.5662 8.21049 31.5972 8.73793C31.8149 8.8493 36.2303 8.89285 47.2978 8.89285H62.6956L63.1452 8.49092C63.5174 8.15835 63.595 7.98859 63.595 7.50595C63.595 7.02331 63.5174 6.85355 63.1452 6.52098L62.6956 6.11905L47.2723 6.12321C36.3244 6.12626 31.7686 6.17175 31.5717 6.28007ZM8.41612 20.1191C8.2636 20.1816 8.01402 20.3714 7.86149 20.541C7.58931 20.8436 7.58418 21.0446 7.58418 31.3719V41.8948L7.96868 42.2792L8.35303 42.6638L22.0423 42.7007C32.1642 42.728 35.8325 42.6958 36.1192 42.5771C36.9337 42.2402 36.91 42.5761 36.91 31.374C36.91 23.7121 36.868 21.0183 36.7443 20.7469C36.384 19.956 36.9875 19.9873 22.254 19.9968C14.7957 20.0016 8.56864 20.0567 8.41612 20.1191ZM41.6936 20.1191C41.5411 20.1816 41.2915 20.3714 41.139 20.541C40.8757 20.8338 40.8617 21.0446 40.8617 24.7148V28.5805L41.2459 28.965L41.6301 29.3496L45.3263 29.3909C49.3469 29.4357 49.6699 29.3891 50.0195 28.7129C50.285 28.1993 50.3159 21.319 50.0553 20.7469C49.7316 20.0366 49.4356 19.9873 45.5482 19.9968C43.5807 20.0016 41.8461 20.0567 41.6936 20.1191ZM55.0046 20.1191C54.8521 20.1816 54.6025 20.3714 54.45 20.541C54.1867 20.8338 54.1727 21.0446 54.1727 24.7148V28.5805L54.5569 28.965L54.9411 29.3496L58.6373 29.3909C62.6579 29.4357 62.9809 29.3891 63.3305 28.7129C63.596 28.1993 63.6269 21.319 63.3663 20.7469C63.0426 20.0366 62.7466 19.9873 58.8592 19.9968C56.8917 20.0016 55.1571 20.0567 55.0046 20.1191ZM34.1368 31.3606V39.9593H22.2124H10.288V31.3606V22.7618H22.2124H34.1368V31.3606ZM47.4478 24.7035V26.6451H45.5067H43.5655V24.7035V22.7618H45.5067H47.4478V24.7035ZM60.7588 24.7035V26.6451H58.8176H56.8765V24.7035V22.7618H58.8176H60.7588V24.7035ZM19.3252 25.2819C18.5542 25.456 17.7083 26.2802 17.4978 27.0624C17.3969 27.4373 17.3586 29.0298 17.3865 31.7042L17.4288 35.7753L17.8447 36.3641C18.6173 37.4575 20.0154 37.8115 21.1913 37.2113C21.9571 36.8205 26.9198 33.6183 27.3263 33.2526C27.7691 32.8544 28.1685 31.9569 28.1685 31.3606C28.1685 30.7642 27.7691 29.8668 27.3263 29.4686C26.9331 29.1149 21.9624 25.9024 21.2518 25.5428C20.5673 25.1962 20.0279 25.1233 19.3252 25.2819ZM22.7125 29.7136C24.0389 30.5623 25.1242 31.3034 25.1242 31.3606C25.1242 31.4643 20.3765 34.5504 20.2167 34.5504C20.1704 34.5504 20.1326 33.115 20.1326 31.3606C20.1326 29.6062 20.1704 28.1707 20.2167 28.1707C20.263 28.1707 21.3862 28.865 22.7125 29.7136ZM41.6936 33.4333C41.5411 33.4958 41.2915 33.6856 41.139 33.8552C40.8757 34.148 40.8617 34.3588 40.8617 38.0291V41.8948L41.2459 42.2792L41.6301 42.6638L45.3263 42.7051C49.3469 42.7499 49.6699 42.7033 50.0195 42.0271C50.285 41.5135 50.3159 34.6332 50.0553 34.0611C49.7316 33.3508 49.4356 33.3015 45.5482 33.311C43.5807 33.3158 41.8461 33.3709 41.6936 33.4333ZM55.0046 33.4333C54.8521 33.4958 54.6025 33.6856 54.45 33.8552C54.1867 34.148 54.1727 34.3588 54.1727 38.0291V41.8948L54.5569 42.2792L54.9411 42.6638L58.6373 42.7051C62.6579 42.7499 62.9809 42.7033 63.3305 42.0271C63.596 41.5135 63.6269 34.6332 63.3663 34.0611C63.0426 33.3508 62.7466 33.3015 58.8592 33.311C56.8917 33.3158 55.1571 33.3709 55.0046 33.4333ZM47.4478 38.0177V39.9593H45.5067H43.5655V38.0177V36.076H45.5067H47.4478V38.0177ZM60.7588 38.0177V39.9593H58.8176H56.8765V38.0177V36.076H58.8176H60.7588V38.0177ZM20.8258 51.3319V54.3831H15.5569H10.288V51.3319V48.2807H15.5569H20.8258V51.3319ZM34.1368 51.3319V54.3831H28.8679H23.599V51.3319V48.2807H28.8679H34.1368V51.3319ZM49.0226 48.4183C48.6105 48.5846 48.2798 49.0987 48.2798 49.5728C48.2798 49.7917 48.5606 50.9233 48.9037 52.0872C49.2469 53.2512 49.5277 54.244 49.5277 54.2933C49.5277 54.3427 46.6887 54.3831 43.2188 54.3831H36.91V51.3319V48.2807L43.1148 48.2895C46.7508 48.2947 49.1967 48.348 49.0226 48.4183ZM60.7588 49.8213V51.362L60.3775 51.2682C59.5371 51.0619 50.2864 48.3885 50.2325 48.3365C50.2007 48.3058 52.5562 48.2807 55.4667 48.2807H60.7588V49.8213ZM57.1981 53.2613C60.0822 54.0924 62.4783 54.8086 62.5227 54.8529C62.5671 54.8972 62.313 55.2439 61.9583 55.6232C61.4026 56.2175 61.3135 56.3934 61.3135 56.8957C61.3135 57.4702 61.3584 57.5237 64.4643 60.6492L67.615 63.8201L65.7151 65.7203L63.8154 67.6206L60.6453 64.4691C57.5205 61.3625 57.467 61.3176 56.8927 61.3176C56.3905 61.3176 56.2147 61.4067 55.6205 61.9626C55.2413 62.3174 54.8946 62.5714 54.8504 62.5271C54.771 62.4476 51.7499 52.0542 51.7474 51.852C51.7467 51.7947 51.7929 51.7485 51.8502 51.7492C51.9074 51.7499 54.314 52.4303 57.1981 53.2613ZM46.2693 63.6625C45.3856 64.0409 45.152 65.1866 45.8218 65.8564C46.1075 66.1423 46.3355 66.2348 46.7546 66.2348C48.367 66.2348 48.5539 63.8775 46.9625 63.6129C46.7338 63.5747 46.4218 63.5971 46.2693 63.6625Z" fill="#E49B00"/>
</svg>
