<svg width="83" height="71" viewBox="0 0 83 71" fill="none" xmlns="http://www.w3.org/2000/svg">
<path fill-rule="evenodd" clip-rule="evenodd" d="M3.29581 0.258202C2.25632 0.619509 1.53758 1.13847 0.949684 1.95226C0.0193123 3.23999 0 3.45171 0 12.3346C0 21.0446 0.0046671 21.0962 0.828016 21.5232C1.38936 21.8143 1.82936 21.8143 2.39071 21.5232C3.21325 21.0967 3.21872 21.036 3.21872 12.4587C3.21872 3.79333 3.21905 3.79059 4.09937 3.38845C4.71189 3.10864 77.6874 3.10864 78.2999 3.38845C79.2285 3.81269 79.1806 2.55933 79.1806 26.4248V48.3792H41.1997H3.21872V40.5447C3.21872 32.0463 3.21711 32.0297 2.33808 31.6282C1.48769 31.2396 0.504374 31.5723 0.179766 32.3581C0.0411996 32.6934 0.00370153 36.0579 0.0363716 45.235C0.0798243 57.4783 0.0852962 57.6686 0.4194 58.3923C0.914761 59.4659 1.67068 60.2478 2.70662 60.7579L3.62106 61.2081L18.081 61.2518C29.4355 61.286 32.5254 61.3381 32.4682 61.4939C32.4283 61.6029 31.9444 63.0538 31.3929 64.7179L30.3902 67.7436H24.3604C19.4565 67.7436 18.2479 67.7865 17.8872 67.9735C16.8162 68.5289 16.8162 70.1856 17.8872 70.741C18.5532 71.0863 63.8461 71.0863 64.5121 70.741C65.5982 70.1778 65.5657 68.4418 64.4594 67.9364C64.1562 67.7979 62.3433 67.7436 58.0233 67.7436H52.0091L51.0065 64.7179C50.4549 63.0538 49.971 61.6029 49.9311 61.4939C49.874 61.3381 52.9638 61.286 64.3183 61.2518L78.7782 61.2081L79.6927 60.7579C80.7286 60.2478 81.4845 59.4659 81.9799 58.3923L82.3188 57.6579V30.6285V3.59904L81.8698 2.68214C81.3611 1.6434 80.5814 0.885446 79.5107 0.38875L78.7782 0.0489049L41.4411 0.0130808C6.32189 -0.0204842 4.05591 -0.00596074 3.29581 0.258202ZM20.355 6.71364C18.1793 7.46804 17.0592 9.20858 17.0592 11.835V12.9929L15.6274 14.0045C13.9009 15.2244 13.5637 15.8036 14.0092 16.7838C14.1019 16.9879 14.818 17.6268 15.6005 18.2033L17.0233 19.2519L17.0914 20.7042C17.1679 22.3347 17.4939 23.2558 18.3345 24.2158C19.3189 25.3399 21.4768 26.0638 22.5344 25.6246C23.0501 25.4104 23.4967 24.7443 23.4967 24.1893C23.4967 23.3494 22.7169 22.56 21.8873 22.56C21.4175 22.56 20.6648 22.1451 20.5076 21.7995C20.4355 21.6408 20.3362 20.6518 20.287 19.6018C20.1883 17.4962 20.2593 17.6398 18.7376 16.4686L18.2663 16.1058L18.6686 15.8275C18.8899 15.6743 19.3426 15.2835 19.6744 14.9587L20.278 14.3681V12.6467C20.278 11.4724 20.3509 10.784 20.5073 10.4807C20.7482 10.0137 21.3588 9.65041 21.9029 9.65041C22.7105 9.65041 23.4967 8.85437 23.4967 8.03671C23.4967 7.50564 23.1294 6.89179 22.6687 6.65297C22.0853 6.35056 21.3467 6.36992 20.355 6.71364ZM59.725 6.63796C58.3265 7.45255 58.912 9.65041 60.5276 9.65041C61.0455 9.65041 61.7213 10.0763 61.929 10.5334C62.0394 10.7763 62.1214 11.6835 62.1214 12.6624V14.3681L62.7249 14.9587C63.0569 15.2835 63.5094 15.6743 63.7307 15.8275L64.1331 16.1058L63.6617 16.4686C62.14 17.6398 62.211 17.4962 62.1123 19.6018C62.0631 20.6518 61.9638 21.6408 61.8917 21.7995C61.7345 22.1451 60.9818 22.56 60.512 22.56C59.6824 22.56 58.9026 23.3494 58.9026 24.1893C58.9026 24.7443 59.3492 25.4104 59.8649 25.6246C60.9225 26.0638 63.0804 25.3399 64.0648 24.2158C64.9057 23.2553 65.2316 22.3347 65.3074 20.7042L65.375 19.2519L66.7853 18.2322C67.5608 17.6713 68.2772 17.0324 68.3771 16.8126C68.8372 15.8001 68.4991 15.204 66.7845 14.0045L65.3776 13.0205L65.3087 11.5371C65.2314 9.87359 64.911 8.96104 64.0648 7.99459C63.0543 6.84048 60.6615 6.09253 59.725 6.63796ZM24.3191 17.9442C23.2405 18.5435 23.2759 20.2503 24.3773 20.7535C24.9382 21.0097 28.4926 21.0097 29.0535 20.7535C29.5147 20.5427 29.9341 19.8661 29.9341 19.3326C29.9341 18.7991 29.5147 18.1225 29.0535 17.9117C28.4577 17.6395 24.8225 17.6644 24.3191 17.9442ZM33.9752 17.9442C32.8966 18.5435 32.932 20.2503 34.0335 20.7535C34.5944 21.0097 38.1488 21.0097 38.7097 20.7535C39.1709 20.5427 39.5903 19.8661 39.5903 19.3326C39.5903 18.7991 39.1709 18.1225 38.7097 17.9117C38.1139 17.6395 34.4786 17.6644 33.9752 17.9442ZM43.6314 17.9442C42.5528 18.5435 42.5882 20.2503 43.6897 20.7535C44.2505 21.0097 47.805 21.0097 48.3658 20.7535C48.8271 20.5427 49.2465 19.8661 49.2465 19.3326C49.2465 18.7991 48.8271 18.1225 48.3658 17.9117C47.77 17.6395 44.1348 17.6644 43.6314 17.9442ZM53.2876 17.9442C52.209 18.5435 52.2444 20.2503 53.3458 20.7535C53.9067 21.0097 57.4611 21.0097 58.022 20.7535C58.4832 20.5427 58.9026 19.8661 58.9026 19.3326C58.9026 18.7991 58.4832 18.1225 58.022 17.9117C57.4262 17.6395 53.791 17.6644 53.2876 17.9442ZM0.822384 25.2058C-0.572772 25.9812 0.0109436 28.2079 1.60936 28.2079C2.42483 28.2079 3.21872 27.4196 3.21872 26.6099C3.21872 25.3983 1.88344 24.616 0.822384 25.2058ZM10.4786 29.2401C9.39996 29.8394 9.43537 31.5462 10.5368 32.0493C11.1918 32.3487 18.8628 32.3166 19.4499 32.0122C20.521 31.4568 20.521 29.8002 19.4499 29.2447C18.8299 28.9233 11.0558 28.9191 10.4786 29.2401ZM24.3191 29.2401C23.2405 29.8394 23.2759 31.5462 24.3773 32.0493C24.6982 32.196 30.3856 32.2422 48.1355 32.2422C68.0181 32.2422 71.5373 32.2081 71.9151 32.0122C72.9862 31.4568 72.9862 29.8002 71.9151 29.2447C71.2765 28.9136 24.9147 28.9089 24.3191 29.2401ZM10.4786 35.6949C9.39996 36.2942 9.43537 38.001 10.5368 38.5041C11.1918 38.8035 18.8628 38.7714 19.4499 38.467C20.521 37.9116 20.521 36.255 19.4499 35.6995C18.8299 35.3781 11.0558 35.3739 10.4786 35.6949ZM24.3191 35.6949C23.2405 36.2942 23.2759 38.001 24.3773 38.5041C24.9821 38.7806 44.5423 38.7806 45.1471 38.5041C45.6083 38.2934 46.0277 37.6168 46.0277 37.0833C46.0277 36.5498 45.6083 35.8732 45.1471 35.6624C44.5029 35.3681 24.8519 35.3986 24.3191 35.6949ZM50.0688 35.6949C48.9902 36.2942 49.0257 38.001 50.1271 38.5041C50.4404 38.6473 53.239 38.697 60.9948 38.697C68.7506 38.697 71.5492 38.6473 71.8625 38.5041C72.3237 38.2934 72.7431 37.6168 72.7431 37.0833C72.7431 36.5498 72.3237 35.8732 71.8625 35.6624C71.2178 35.3678 50.602 35.3984 50.0688 35.6949ZM10.4786 42.1497C9.39996 42.749 9.43537 44.4558 10.5368 44.9589C11.1918 45.2583 18.8628 45.2262 19.4499 44.9218C20.521 44.3664 20.521 42.7098 19.4499 42.1543C18.8299 41.8329 11.0558 41.8287 10.4786 42.1497ZM24.3191 42.1497C23.2405 42.749 23.2759 44.4558 24.3773 44.9589C24.6982 45.1056 30.3856 45.1518 48.1355 45.1518C68.0181 45.1518 71.5373 45.1177 71.9151 44.9218C72.9862 44.3664 72.9862 42.7098 71.9151 42.1543C71.2765 41.8232 24.9147 41.8185 24.3191 42.1497ZM79.1806 54.1966C79.1806 57.0263 79.0621 57.5204 78.2999 57.8685C77.9768 58.0162 69.2903 58.0614 41.184 58.0614C1.25917 58.0614 3.83961 58.1217 3.41104 57.1784C3.2876 56.9068 3.21872 55.8332 3.21872 54.1809V51.6066H41.1997H79.1806V54.1966ZM47.4865 64.3144C48.038 65.9786 48.5224 67.431 48.5631 67.5418C48.6217 67.7014 47.0819 67.7436 41.1997 67.7436C35.3174 67.7436 33.7776 67.7014 33.8362 67.5418C33.8769 67.431 34.3613 65.9786 34.9128 64.3144L35.9155 61.2888H41.1997H46.4838L47.4865 64.3144Z" fill="#E49B00"/>
</svg>
