<svg width="59" height="71" viewBox="0 0 59 71" fill="none" xmlns="http://www.w3.org/2000/svg">
<path fill-rule="evenodd" clip-rule="evenodd" d="M0.887844 0.0953851C0.726481 0.161028 0.4606 0.384465 0.297153 0.591942L0 0.969148V35.5046V70.04L0.405562 70.4933L0.811123 70.9465L25.7124 70.9823C52.9607 71.0216 51.3051 71.0689 51.6835 70.2394C51.7869 70.0131 51.8418 68.8136 51.8418 66.7864V63.6803L54.8417 63.6357L57.8416 63.5912L58.2469 63.1379L58.6522 62.6846V52.6969V42.7091L58.2469 42.2558L57.8416 41.8026L54.8417 41.7603L51.8418 41.7179V27.3995V13.0811L45.3107 6.55535L38.7796 0.0296031L19.9805 0.00295721C9.64106 -0.0117535 1.04935 0.0298807 0.887844 0.0953851ZM36.7981 8.50536L36.8344 14.2056L37.2589 14.6117L37.6832 15.0179L43.3727 15.0584L49.0621 15.099V28.4144V41.7299L32.665 41.7662L16.2676 41.8026L15.8824 42.1873L15.497 42.5721L15.4628 52.5265C15.4361 60.3105 15.4668 62.5565 15.6037 62.8279C15.7 63.0187 15.9969 63.284 16.2633 63.4174C16.7163 63.6443 17.8005 63.6601 32.9085 63.6603L49.0691 63.6605L49.0309 65.9157L48.9926 68.1709H25.9209H2.84922L2.81364 35.6268C2.79404 17.7276 2.8078 3.00451 2.84421 2.90875C2.89689 2.77024 6.36876 2.74193 19.8361 2.76997L36.7618 2.80522L36.7981 8.50536ZM43.3637 8.49523L47.0449 12.1729H43.328H39.6111V8.49523C39.6111 6.4725 39.6272 4.81754 39.6468 4.81754C39.6664 4.81754 41.3391 6.4725 43.3637 8.49523ZM55.8388 52.6622L55.8747 60.7462H37.0409H18.2072V52.72C18.2072 48.3056 18.2492 44.652 18.3003 44.6008C18.3516 44.5496 26.8106 44.5237 37.0982 44.543L55.803 44.5782L55.8388 52.6622ZM5.98711 46.8788C5.60656 47.2588 5.55945 47.3957 5.55945 48.1213C5.55945 49.1036 5.76251 49.5979 6.27453 49.8623C6.99406 50.2338 7.86481 49.9762 8.17308 49.3006C8.3824 48.8421 8.38865 47.6403 8.18392 47.2406C7.72972 46.3538 6.68524 46.1817 5.98711 46.8788ZM24.7743 47.1641C24.6413 47.2987 24.6006 48.6162 24.6006 52.7892C24.6006 58.0345 24.6106 58.2437 24.8694 58.382C25.2535 58.5873 26.03 58.5594 26.3461 58.329C26.5869 58.1535 26.6207 57.9224 26.6612 56.1779L26.7063 54.2235H27.9247C30.6975 54.2235 31.9355 53.2252 32.0762 50.8762C32.1757 49.2125 31.6623 48.0547 30.5403 47.4129C29.9868 47.0965 29.8013 47.0736 27.4498 47.0323C25.5658 46.9991 24.9051 47.0316 24.7743 47.1641ZM33.5731 47.3154C33.3866 47.5811 33.3567 48.3394 33.3567 52.7972C33.3567 57.7855 33.3667 57.9805 33.6347 58.2481C33.9401 58.5531 34.7246 58.6214 35.1727 58.382C35.4227 58.2484 35.4415 58.0688 35.4415 55.8146V53.3908H37.2483H39.0551V55.7285C39.0551 58.3937 39.1054 58.5257 40.1217 58.5257C41.1702 58.5257 41.1399 58.6977 41.1399 52.7421C41.1399 46.7782 41.1829 47.0069 40.0618 47.0069C39.1068 47.0069 39.0551 47.1391 39.0551 49.5842V51.7254H37.2483H35.4415V49.5098C35.4415 47.0106 35.4398 47.0069 34.3465 47.0069C33.9283 47.0069 33.7354 47.0837 33.5731 47.3154ZM43.2595 47.1641C43.1264 47.2987 43.0857 48.6162 43.0857 52.7892C43.0857 58.0345 43.0957 58.2437 43.3545 58.382C43.7231 58.579 44.5119 58.5626 44.794 58.3522C44.9889 58.207 45.0328 57.8623 45.0639 56.2358L45.101 54.2929L46.6299 54.2096C48.2549 54.1212 48.7206 53.9943 49.445 53.4425C50.1344 52.9175 50.4877 52.1053 50.5614 50.8762C50.6609 49.2125 50.1475 48.0547 49.0254 47.4129C48.472 47.0965 48.2864 47.0736 45.9349 47.0323C44.051 46.9991 43.3902 47.0316 43.2595 47.1641ZM29.3059 49.0088C29.8089 49.2686 30.021 49.7654 30.021 50.6846C30.021 52.1677 29.5592 52.5581 27.8042 52.5581H26.6853V50.6846V48.811H27.8042C28.5006 48.811 29.0676 48.8857 29.3059 49.0088ZM47.7456 48.9769C48.252 49.2071 48.5062 49.7736 48.5062 50.6711C48.5062 52.1862 48.0556 52.5581 46.2199 52.5581H45.0315V50.6846V48.811H46.2064C46.8525 48.811 47.5452 48.8857 47.7456 48.9769ZM6.57182 52.5202C6.4024 52.551 6.10538 52.7642 5.91164 52.9941L5.55945 53.412V58.8768C5.55945 62.6676 5.60795 64.4476 5.71775 64.6882C5.9272 65.1472 6.704 65.5101 7.23006 65.3948C7.45369 65.3456 7.79476 65.118 7.98795 64.8888L8.33917 64.472V58.9335V53.3952L7.95696 52.99C7.56474 52.5743 7.11442 52.4215 6.57182 52.5202Z" fill="#E49B00"/>
</svg>
