<svg width="71" height="71" viewBox="0 0 71 71" fill="none" xmlns="http://www.w3.org/2000/svg">
<path fill-rule="evenodd" clip-rule="evenodd" d="M45.8332 0.247215C44.4573 0.641175 43.7715 1.14962 41.1497 3.71972C38.2228 6.58887 37.8677 7.07025 37.8709 8.16485C37.8741 9.22877 38.2841 9.91692 39.2602 10.4967C40.79 11.4055 41.3335 12.1637 41.4443 13.543C41.6145 15.6642 40.0701 17.3308 37.9381 17.3265C36.5108 17.3236 35.646 16.7742 34.7659 15.3109C34.0535 14.1266 33.4374 13.7286 32.3108 13.7252C31.6974 13.7234 31.414 13.8039 30.9232 14.1189C29.9864 14.7199 25.3782 19.4949 24.9339 20.3249C24.4543 21.2206 24.1314 22.4565 24.1314 23.3965V24.1306L23.4029 24.1339C22.4184 24.1385 21.605 24.3413 20.5475 24.846C19.8255 25.1907 19.1931 25.7285 17.1257 27.7554L14.5895 30.242L14.1472 29.5526C13.0006 27.7658 11.1032 26.7671 8.85499 26.7671C5.31619 26.7671 2.62354 29.4624 2.62354 33.0043C2.62354 35.087 3.48927 36.8215 5.15314 38.0725L6.07035 38.7621L3.60153 41.2804C0.849908 44.0872 0.405042 44.7598 0.0997688 46.5761C-0.0331636 47.3663 -0.0331636 47.7981 0.0992138 48.5882C0.399908 50.3824 0.875439 51.0983 3.64676 53.9276C6.59889 56.9417 7.07525 57.2968 8.163 57.2937C9.23159 57.2905 9.91831 56.8817 10.4965 55.9043C11.4222 54.3399 12.3556 53.6965 13.7083 53.691C14.8734 53.6863 15.5141 53.942 16.2962 54.724C17.0781 55.5061 17.3338 56.1467 17.3291 57.312C17.3235 58.6647 16.6802 59.5982 15.1159 60.5239C14.1386 61.1021 13.7298 61.7889 13.7266 62.8575C13.7234 63.9453 14.0785 64.4217 17.0925 67.374C19.1083 69.3486 19.8082 69.9459 20.525 70.3036C22.3693 71.2241 24.4905 71.2324 26.3303 70.3267C27.0738 69.9606 27.7234 69.407 29.802 67.3676C32.7992 64.427 33.1518 63.9514 33.1486 62.854C33.1454 61.7901 32.7354 61.102 31.7593 60.5222C30.1719 59.5791 29.5504 58.6532 29.5475 57.2265C29.5414 54.2084 32.9885 52.5827 35.3517 54.4889C35.532 54.6342 35.9378 55.1829 36.2536 55.708C36.9669 56.8936 37.5819 57.2903 38.7122 57.2937C39.343 57.2955 39.6029 57.2186 40.1173 56.8779C41.0849 56.2369 45.6459 51.509 46.0857 50.6911C46.5648 49.8 46.8881 48.5634 46.8881 47.6224V46.8883H47.6221C48.5631 46.8883 49.7996 46.565 50.6907 46.0859C51.121 45.8545 52.3651 44.7561 53.9109 43.2428L56.43 40.7769L56.8723 41.4663C58.7264 44.3557 62.7655 45.1463 65.705 43.1951C66.6239 42.585 67.3154 41.7408 67.8752 40.5454C68.4789 39.2557 68.579 37.4952 68.1277 36.0969C67.7162 34.8212 66.9601 33.7686 65.8623 32.9434L64.941 32.2506L66.2457 30.9226C66.9634 30.1922 67.6193 29.4136 67.7034 29.1922C68.1338 28.0603 66.879 26.9436 65.811 27.5083C65.2517 27.8041 62.5089 30.621 62.2091 31.2077C62.0636 31.492 61.9634 31.9824 61.9672 32.3908C61.9775 33.4959 62.4653 34.2084 63.6087 34.7881C64.3189 35.1482 65.1307 35.9892 65.4058 36.6498C65.524 36.9336 65.6208 37.5445 65.6208 38.0073C65.6208 39.0311 65.3556 39.7084 64.6773 40.4175C63.9533 41.1745 63.2418 41.4698 62.1329 41.4734C60.8749 41.4775 59.903 40.9808 59.2782 40.0142C58.312 38.5197 58.1473 38.3257 57.6411 38.0855C56.9391 37.7523 55.9544 37.7669 55.2742 38.1204C54.9738 38.2765 53.6041 39.5369 52.2304 40.9214C50.8566 42.3058 49.4829 43.5732 49.1776 43.7379C48.3937 44.1606 46.7702 44.1607 45.9862 43.7379C45.6809 43.5733 44.3867 42.3883 43.1101 41.1045L40.7889 38.7705L41.7141 38.0766C45.1035 35.535 45.135 30.5437 41.7778 27.9866C39.0082 25.8771 34.8764 26.5311 32.8539 29.3993L32.2587 30.2432L29.9199 27.9154C28.6335 26.6352 27.4462 25.3378 27.2817 25.0325C27.0511 24.6049 26.9824 24.2387 26.9824 23.4367C26.9824 22.6348 27.0511 22.2686 27.2817 21.8409C27.4462 21.5356 28.6339 20.2379 29.9209 18.957L32.2607 16.6282L32.812 17.4303C33.5496 18.5035 34.7832 19.4166 36.0426 19.8217C36.8914 20.0947 37.2423 20.1334 38.3434 20.0758C39.9841 19.9899 41.1092 19.5049 42.2978 18.3712C43.7339 17.0013 44.3439 15.4086 44.2164 13.3628C44.0964 11.4391 43.1396 9.74957 41.5503 8.65497L40.7707 8.11794L43.1009 5.77639C44.3825 4.48849 45.6809 3.30009 45.9862 3.13551C46.7702 2.71269 48.3937 2.71283 49.1776 3.13551C49.4829 3.30023 50.8566 4.56759 52.2304 5.95207C55.2165 8.96151 55.8039 9.33174 57.0562 8.99453C57.9216 8.76155 58.3426 8.39728 58.951 7.35556C59.7656 5.96081 60.6907 5.397 62.1652 5.397C63.1637 5.397 63.741 5.62014 64.4872 6.29427C65.285 7.01502 65.6214 7.78324 65.6177 8.87533C65.6127 10.3599 64.9325 11.4212 63.531 12.1314C62.7477 12.5284 62.2387 13.1453 62.0219 13.9607C61.7099 15.1329 62.1126 15.8729 64.1391 17.8513C65.6568 19.3332 65.7673 19.4125 66.3144 19.4125C67.4237 19.4125 68.0779 18.2363 67.4745 17.3272C67.3492 17.1385 66.7265 16.4533 66.0907 15.8045L64.9347 14.625L65.8591 13.9312C66.9601 13.105 67.7155 12.0546 68.1277 10.7766C68.3739 10.0139 68.4189 9.60497 68.3728 8.55145C68.3235 7.42355 68.2537 7.12881 67.8201 6.21572C67.1656 4.83721 66.1816 3.85266 64.8057 3.19921C63.9165 2.77694 63.5857 2.69604 62.5433 2.64622C61.1875 2.58142 60.3583 2.74072 59.3072 3.26817C58.3184 3.76454 57.4895 4.48488 56.9191 5.34399L56.4251 6.08806L53.8837 3.60371C51.8664 1.63183 51.1619 1.03111 50.4681 0.691686C48.9676 -0.0423919 47.3775 -0.194897 45.8332 0.247215ZM68.7459 22.3613C67.9634 23.0412 68.1888 24.2198 69.1807 24.6341C69.6195 24.8176 69.7152 24.8131 70.1758 24.5879C71.5269 23.9274 71.1259 22.049 69.6338 22.049C69.2846 22.049 68.9833 22.1551 68.7459 22.3613ZM25.0374 27.294C25.3404 27.4515 26.6811 28.6804 28.0167 30.0251C29.3523 31.3696 30.6518 32.5991 30.9044 32.7573C32.3097 33.6365 33.974 33.1487 34.7424 31.6323C35.4555 30.2248 36.5152 29.5486 38.0074 29.5486C39.0962 29.5486 39.811 29.8465 40.533 30.6014C41.2177 31.3172 41.4771 31.9905 41.4734 33.0419C41.4683 34.5039 40.7801 35.5708 39.3867 36.2768C37.8703 37.0453 37.3826 38.7097 38.2618 40.115C38.42 40.3677 39.6494 41.6672 40.9938 43.0029C42.3384 44.3385 43.5731 45.6811 43.7378 45.9864C44.1605 46.7704 44.1605 48.394 43.7378 49.178C43.5733 49.4833 42.3839 50.7827 41.095 52.0656L38.7513 54.398L38.2511 53.6445C37.6747 52.7765 36.8485 52.057 35.8567 51.5591C34.7847 51.0212 33.9666 50.8671 32.5973 50.9452C31.6075 51.0017 31.1893 51.099 30.4504 51.4448C26.0825 53.4888 25.461 59.3392 29.3054 62.2221L30.2306 62.9159L27.9094 65.25C26.6328 66.5337 25.3386 67.7188 25.0333 67.8834C24.6057 68.114 24.2395 68.1827 23.4376 68.1827C22.6357 68.1827 22.2695 68.114 21.8419 67.8834C21.5366 67.7188 20.2372 66.5294 18.9544 65.2404L16.6221 62.8967L17.3756 62.3964C18.2435 61.82 18.963 60.9937 19.4609 60.0018C20.0011 58.9251 20.1529 58.1128 20.0736 56.7235C20.0127 55.6547 19.9314 55.3313 19.5089 54.4761C18.866 53.1753 17.8407 52.155 16.5183 51.4997C15.6094 51.0494 15.3522 50.9871 14.1917 50.9363C13.1234 50.8896 12.7179 50.9338 11.9528 51.1808C10.674 51.5934 9.62442 52.3486 8.79838 53.4502L8.10458 54.3755L5.77063 52.0542C4.48696 50.7776 3.30194 49.4833 3.13737 49.178C2.71471 48.394 2.71471 46.7704 3.13737 45.9864C3.30208 45.6811 4.53677 44.3385 5.88136 43.0029C7.22581 41.6672 8.45522 40.3677 8.61341 40.115C9.50009 38.6979 9.01762 37.0518 7.48848 36.2768C6.09505 35.5708 5.40694 34.5039 5.4018 33.0419C5.39806 31.9905 5.65754 31.3172 6.34218 30.6014C7.06623 29.8444 7.77766 29.5491 8.88663 29.5455C10.1446 29.5414 11.1165 30.0381 11.7413 31.0047C12.7075 32.4992 12.8722 32.6932 13.3784 32.9334C14.0441 33.2494 15.0647 33.2525 15.6777 32.9409C15.9388 32.8079 17.3753 31.4895 18.8696 30.0108C20.3639 28.5321 21.6128 27.3212 21.6448 27.3201C21.6769 27.319 21.9529 27.2242 22.2581 27.1095C22.993 26.8335 24.3207 26.9216 25.0374 27.294Z" fill="#E49B00"/>
</svg>
