<svg width="71" height="72" viewBox="0 0 71 72" fill="none" xmlns="http://www.w3.org/2000/svg">
<path fill-rule="evenodd" clip-rule="evenodd" d="M1.41472 0.499507C0.897712 0.757108 0.591898 1.02874 0.345274 1.4496L0 2.03886V28.6566V55.2744L0.427528 55.6341C0.66262 55.832 1.00956 55.9939 1.19852 55.9939C1.65176 55.9939 2.31785 55.6414 2.49681 55.3068C2.59324 55.1269 2.63992 48.1365 2.63992 33.9111V12.7825H35.4305H68.2211V40.6406V68.4988H35.4305H2.63992V66.8902C2.63992 65.2976 2.63589 65.2776 2.23379 64.8755C1.95813 64.5999 1.68816 64.4694 1.39318 64.4694C0.87048 64.4694 0.205358 64.7908 0.0862838 65.1009C0.0389041 65.2246 0 66.2344 0 67.345C0 69.6746 0.149364 70.1183 1.15212 70.7685L1.7229 71.1387H35.4114H69.0998L69.6891 70.7934C70.1099 70.5468 70.3816 70.241 70.6392 69.724L71 68.9999V35.8012C71 9.99058 70.9621 2.47584 70.8297 2.03386C70.6117 1.30607 69.8326 0.527018 69.1048 0.309016C68.6628 0.176603 61.1481 0.138672 35.3374 0.138672H2.13875L1.41472 0.499507ZM68.2211 6.39112V9.8647H35.4305H2.63992V6.39112V2.91754H35.4305H68.2211V6.39112ZM53.8405 5.163C52.983 5.63457 52.8101 6.70207 53.4825 7.37442L53.8886 7.78055H59.3288H64.769L65.1751 7.37442C65.6087 6.94078 65.7214 6.21813 65.4381 5.68876C65.0862 5.03086 64.8211 5.00141 59.301 5.00585C55.8009 5.00877 54.0282 5.05976 53.8405 5.163ZM5.49215 5.59525C4.9486 6.1388 4.87385 6.57411 5.21176 7.22756C5.85785 8.47693 7.78082 7.96868 7.78082 6.54854C7.78082 5.78296 7.34065 5.28721 6.56868 5.1837C6.03486 5.11215 5.93843 5.14897 5.49215 5.59525ZM9.88123 5.36725C9.47051 5.65486 9.16067 6.38667 9.26585 6.82073C9.31045 7.00483 9.50636 7.32718 9.70143 7.5374C9.97668 7.83418 10.1829 7.91949 10.6243 7.91949C11.3374 7.91949 11.7429 7.64091 11.9519 7.00775C12.3603 5.77046 10.9269 4.63474 9.88123 5.36725ZM14.1409 5.35724C12.9113 6.02445 13.4483 7.91949 14.8669 7.91949C15.3196 7.91949 15.5316 7.83182 15.8502 7.51336C16.4375 6.92605 16.4136 6.24273 15.784 5.61304C15.2599 5.08894 14.7745 5.01336 14.1409 5.35724ZM7.86933 15.4863C7.18406 15.7316 6.56521 16.3133 6.238 17.0203C5.99082 17.5542 5.98067 18.4833 5.98067 40.6406C5.98067 62.6533 5.99221 63.7306 6.23369 64.2622C6.55006 64.9585 7.3362 65.6606 8.02161 65.8587C8.39328 65.9661 16.4794 65.9981 35.9168 65.9692L63.2887 65.9283L63.8444 65.6381C64.1501 65.4784 64.5878 65.0823 64.817 64.7577L65.2339 64.1676L65.2698 40.7917L65.3057 17.4158L64.9811 16.8013C64.7676 16.3967 64.4265 16.0441 63.9835 15.7698L63.3105 15.353L35.8583 15.3236C12.7933 15.2989 8.32034 15.3249 7.86933 15.4863ZM62.5245 40.6406V63.2189H35.6389H8.75343V40.6406V18.0624H35.6389H62.5245V40.6406ZM13.0759 22.9804C12.3708 23.3711 12.3761 23.3097 12.3708 31.1716L12.3659 38.5148L12.8424 38.9912L13.3187 39.4675L19.856 39.4289L26.3931 39.3901L26.7783 39.0049L27.1634 38.6197V31.1084V23.5973L26.7096 23.1919L26.2558 22.7864L19.8319 22.7913C14.7669 22.7952 13.3377 22.8352 13.0759 22.9804ZM30.2461 25.3992C29.4692 26.2101 29.8953 27.5137 31.0035 27.7164C31.2604 27.7635 33.9823 27.7832 37.052 27.7605L42.6335 27.7189L42.9897 27.3841C43.6493 26.7642 43.5473 25.5514 42.8022 25.1526C42.6308 25.0608 40.3976 25.0095 36.5772 25.0095H30.6195L30.2461 25.3992ZM24.4208 31.0883L24.3845 36.6113L19.7647 36.6478L15.1448 36.6845V31.1248V25.5653H19.8009H24.4572L24.4208 31.0883ZM30.2789 30.1397C29.7459 30.6727 29.7161 31.4811 30.2081 32.0531L30.5435 32.443H44.5313H58.5191L58.8546 32.0531C59.3466 31.4811 59.3167 30.6727 58.7837 30.1397L58.3776 29.7336H44.5313H30.6851L30.2789 30.1397ZM30.5363 34.6743C30.0479 34.9394 29.8728 35.2796 29.8728 35.9645C29.8728 36.4109 29.9549 36.5861 30.3003 36.8768L30.7277 37.2365H44.5527H58.3776L58.7837 36.8304C59.458 36.1561 59.3172 35.0912 58.4979 34.6675C57.892 34.3541 31.1143 34.3607 30.5363 34.6743ZM12.9727 41.0953C12.8097 41.2274 12.6065 41.4719 12.5211 41.6388C12.4126 41.851 12.3659 44.1399 12.3659 49.2437V56.5452L12.7712 56.999L13.1767 57.4528L19.5599 57.4915C23.5928 57.516 26.0784 57.4789 26.3102 57.3908C26.5119 57.3141 26.8027 57.0465 26.9564 56.7963C27.2284 56.3534 27.235 56.1448 27.1997 49.0004L27.1634 41.6598L26.7096 41.2543L26.2558 40.849L19.7625 40.8521C13.8199 40.855 13.2439 40.8756 12.9727 41.0953ZM30.8908 43.027C30.7248 43.0609 30.4277 43.2498 30.2309 43.4467C29.4732 44.2044 29.9212 45.5481 31.0037 45.7646C31.2414 45.8121 33.8509 45.8509 36.8026 45.8507C41.6337 45.8506 42.2178 45.8263 42.6554 45.6076C43.6048 45.1332 43.7275 43.9168 42.8887 43.2939C42.5068 43.0102 42.3505 43.0022 36.8447 42.9839C33.7361 42.9736 31.0569 42.9931 30.8908 43.027ZM24.4208 49.1509L24.3845 54.6739L19.7647 54.7104L15.1448 54.7471V49.1874V43.6279H19.8009H24.4572L24.4208 49.1509ZM30.2789 48.2023C29.8453 48.636 29.7326 49.3586 30.0159 49.888C30.3947 50.5959 29.9537 50.5751 44.5313 50.5751C59.109 50.5751 58.668 50.5959 59.0467 49.888C59.33 49.3586 59.2173 48.636 58.7837 48.2023L58.3776 47.7962H44.5313H30.6851L30.2789 48.2023ZM30.6171 52.6581C29.7937 52.9903 29.6074 54.2215 30.2789 54.893L30.6851 55.2991H35.4963C40.7152 55.2991 40.9041 55.2741 41.2391 54.5388C41.5215 53.9189 41.4382 53.4982 40.9327 52.9927L40.4603 52.5203L35.6876 52.529C33.0625 52.5339 30.7809 52.592 30.6171 52.6581ZM44.729 52.9264C43.8649 53.7905 44.445 55.2991 45.6413 55.2991C46.2926 55.2991 46.6309 55.112 46.892 54.6072C47.2264 53.9603 47.1546 53.5179 46.6294 52.9927C45.9997 52.363 45.3163 52.3391 44.729 52.9264ZM50.7639 52.6581C49.9405 52.9903 49.7542 54.2215 50.4257 54.893L50.8318 55.2991H54.6047H58.3776L58.7837 54.893C59.2173 54.4594 59.33 53.7367 59.0467 53.2074C58.7117 52.5811 58.3068 52.5197 54.5769 52.529C52.6435 52.5339 50.9277 52.592 50.7639 52.6581ZM0.923 58.9257C0.221337 59.118 0 59.4334 0 60.2408C0 60.8858 0.0500196 61.0132 0.427528 61.3308C0.913691 61.74 1.36137 61.784 1.94798 61.4807C3.35298 60.7542 2.45138 58.5068 0.923 58.9257Z" fill="#E49B00"/>
</svg>
