<svg width="71" height="71" viewBox="0 0 71 71" fill="none" xmlns="http://www.w3.org/2000/svg">
<path fill-rule="evenodd" clip-rule="evenodd" d="M49.3875 0.0920905C48.8251 0.32712 48.701 0.651639 48.6293 2.07611L48.5599 3.45382L47.5887 3.8337C47.0546 4.04265 46.4302 4.31472 46.2013 4.4382L45.7851 4.66283L44.8692 3.75961C44.1079 3.00874 43.8545 2.84308 43.3669 2.77773L42.7805 2.69906L40.2245 5.25498C38.1712 7.30837 37.6686 7.88457 37.6686 8.1855V8.56025L20.9082 8.59757L4.14771 8.63503L3.09937 9.15323C1.83668 9.7773 1.05014 10.5808 0.43912 11.8705L0 12.7973V33.2691V53.7408L0.518204 54.7892C1.14227 56.052 1.94559 56.8385 3.23548 57.4495L4.16228 57.8887L15.8513 57.9271L27.5404 57.9657V60.3085V62.6514L25.2858 62.698C23.1566 62.742 22.9851 62.7663 22.1988 63.1334C20.8149 63.7798 19.8548 64.8755 19.4356 66.2865C19.171 67.1775 19.1365 69.7027 19.3817 70.2407C19.7413 71.0301 19.1802 70.9998 33.4439 70.9998H46.5759L47.064 70.5117L47.552 70.0238L47.4949 68.2572C47.4451 66.7169 47.3913 66.39 47.0748 65.7033C46.5691 64.6066 45.7154 63.7321 44.6264 63.1956C43.7247 62.7513 43.678 62.744 41.453 62.698L39.1948 62.6514V60.3047V57.958L50.537 57.9564C62.6245 57.9546 62.5327 57.9593 63.8756 57.2728C65.2171 56.587 66.3631 54.9934 66.6639 53.3954C66.7519 52.9281 66.8046 48.3307 66.8046 41.1299V29.6119L67.5152 28.8605C68.1834 28.154 68.2214 28.0752 68.15 27.543C68.088 27.08 67.9097 26.8103 67.1709 26.0612L66.2676 25.1454L66.4923 24.7292C66.6158 24.5002 66.8878 23.8759 67.0968 23.3417L67.4766 22.3706L68.8717 22.3012C71.0093 22.1949 70.8975 22.4324 70.8975 18.0002C70.8975 13.5679 71.0093 13.8054 68.8717 13.6991L67.4766 13.6298L67.0968 12.6586C66.8878 12.1244 66.6158 11.5001 66.4923 11.2711L66.2676 10.8549L67.1709 9.93907C67.9217 9.17779 68.0874 8.92431 68.1527 8.43677L68.2314 7.8503L65.6558 5.27468L63.0802 2.69906L62.4937 2.77773C62.0062 2.84308 61.7527 3.00874 60.9914 3.75961L60.0756 4.66283L59.6593 4.4382C59.4304 4.31472 58.8061 4.04265 58.2719 3.8337L57.3007 3.45382L57.2313 2.05877C57.1258 -0.0646888 57.336 0.0399232 53.1001 0.00357264C51.2135 -0.0125215 49.5428 0.0272976 49.3875 0.0920905ZM54.477 3.83897C54.5417 5.25998 54.7893 5.62473 55.9258 5.972C57.0877 6.32705 58.4384 6.89062 59.2145 7.34445C60.2748 7.96421 60.6995 7.88984 61.7251 6.90505L62.5876 6.07689L63.7195 7.21722L64.8515 8.35754L64.0245 9.21081C63.3721 9.88385 63.1973 10.1559 63.1973 10.4983C63.1973 10.7385 63.5315 11.6278 63.9454 12.4892C64.3569 13.3455 64.7712 14.3582 64.8659 14.7397C65.2046 16.1024 65.7231 16.474 67.2857 16.474H68.192V17.9828V19.4915L67.0135 19.5534C65.5058 19.6325 65.2992 19.8087 64.7938 21.4465C64.5898 22.1074 64.1471 23.1701 63.8101 23.8083C62.9566 25.4244 62.977 25.7088 64.0245 26.7895L64.8515 27.6428L63.7195 28.7831L62.5876 29.9234L61.7251 29.0953C60.6341 28.0476 60.3526 28.0274 58.7385 28.8801C58.1003 29.2172 57.0422 29.6548 56.3871 29.8527C54.7512 30.3467 54.5632 30.5669 54.4835 32.0834L54.4217 33.2618H52.9303H51.439L51.3771 32.0834C51.2975 30.5669 51.1095 30.3467 49.4735 29.8527C48.8184 29.6548 47.7603 29.2172 47.1221 28.8801C45.508 28.0274 45.2265 28.0476 44.1356 29.0953L43.273 29.9234L42.1411 28.7831L41.0091 27.6428L41.8362 26.7895C42.8837 25.7088 42.9041 25.4244 42.0504 23.8083C41.7133 23.1701 41.2757 22.1121 41.0778 21.4569C40.5837 19.821 40.3636 19.633 38.8471 19.5534L37.6686 19.4915V18.0002V16.5088L38.8471 16.4469C40.3636 16.3673 40.5837 16.1793 41.0778 14.5434C41.2757 13.8882 41.7133 12.8302 42.0504 12.192C42.9031 10.5778 42.8829 10.2963 41.8352 9.2054L41.0071 8.34284L42.1474 7.21098L43.2877 6.07897L44.141 6.90602C45.2022 7.93466 45.5498 7.97295 46.925 7.21292C47.4426 6.92683 48.5159 6.47286 49.3101 6.20426C51.1385 5.58588 51.3133 5.38637 51.3836 3.83897L51.4336 2.73847H52.9303H54.4271L54.477 3.83897ZM51.6123 9.47886C50.4128 9.76856 49.9898 9.90661 49.3141 10.2293C46.9594 11.3538 45.4643 13.129 44.5804 15.8496C44.3433 16.5794 44.3433 19.4209 44.5804 20.1507C45.1165 21.8006 45.9906 23.2677 46.9808 24.1792C49.965 26.926 54.0878 27.3554 57.4604 25.2705C60.4808 23.4034 62.1127 19.5777 61.3212 16.2198C60.382 12.2362 57.2512 9.60609 53.2772 9.46207C52.5141 9.43446 51.7649 9.4421 51.6123 9.47886ZM38.8507 12.4851L38.3895 13.6298L36.9917 13.6991C34.8501 13.8054 34.9631 13.5648 34.9631 18.016V21.6315L35.3525 21.9664C35.7046 22.2693 35.8668 22.3012 37.055 22.3012C38.2869 22.3012 38.3761 22.3205 38.4948 22.6133C38.5645 22.7851 38.8348 23.4348 39.0955 24.0575L39.5695 25.1895L38.6784 26.0807C37.9345 26.8245 37.7742 27.0692 37.7082 27.5609L37.6292 28.15L40.2048 30.7256L42.7805 33.3013L43.3696 33.2223C43.8613 33.1563 44.106 32.996 44.8498 32.2521L45.741 31.3609L46.873 31.835C47.4956 32.0957 48.1454 32.366 48.3171 32.4356C48.61 32.5544 48.6293 32.6436 48.6293 33.8755C48.6293 35.0637 48.6612 35.2259 48.9641 35.578L49.299 35.9673H52.9303H56.5616L56.8966 35.578C57.1996 35.2258 57.2313 35.0638 57.2313 33.8741C57.2313 32.7477 57.2662 32.5469 57.4741 32.4723C57.6076 32.4244 58.2576 32.1548 58.9186 31.8733L60.1201 31.3615L61.0111 32.2524C61.7319 32.9733 62.007 33.1574 62.4524 33.217C62.9063 33.2779 63.078 33.2276 63.4322 32.9296C63.6684 32.7307 63.8995 32.5681 63.9457 32.5681C64.1015 32.5681 64.0385 52.5793 63.881 53.1466C63.8 53.4381 63.5154 53.9183 63.2486 54.2137C62.2893 55.2755 64.9035 55.1941 33.08 55.1518L4.55825 55.1138L3.99579 54.7416C3.68639 54.5369 3.28515 54.1311 3.10409 53.8397C2.80371 53.3566 2.77069 53.1308 2.7274 51.2637L2.68009 49.2173H28.7049H54.7295L55.1795 48.8152C55.7868 48.2727 55.8156 47.461 55.248 46.8933L54.8665 46.5118L28.7859 46.476L2.70548 46.4402V44.5035V42.5666L8.33663 42.5275L13.9679 42.4882L14.3026 42.0989C14.7567 41.571 14.7567 40.7694 14.3026 40.2414L13.9679 39.8521L8.33663 39.8129L2.70548 39.7737L2.70631 26.7711C2.70673 18.045 2.75543 13.5944 2.85407 13.2392C3.03375 12.5921 3.92003 11.6754 4.53841 11.4972C4.81409 11.4177 11.7902 11.3606 22.1533 11.353L39.3119 11.3405L38.8507 12.4851ZM54.3927 12.3869C58.7169 13.506 60.1928 18.9396 57.0313 22.1011C53.6927 25.4398 48.0052 23.5954 47.2033 18.9141C46.5024 14.8216 50.3393 11.338 54.3927 12.3869ZM19.6009 16.5515C19.061 16.8446 18.9384 17.1601 18.9384 18.2571V19.226L18.2229 19.639L17.5074 20.0522L16.6505 19.5811C15.6092 19.0088 15.1879 18.9899 14.6454 19.4916C14.2253 19.8803 11.9154 23.7764 11.7761 24.3314C11.6338 24.898 12.0903 25.5511 12.9772 26.0499L13.8049 26.5155V27.3207V28.126L13.0612 28.5457C11.387 29.4905 11.3856 29.8227 13.0444 32.7069C13.7246 33.8897 14.4209 34.9978 14.5917 35.1696C15.04 35.6202 15.7601 35.5793 16.6985 35.0497L17.464 34.6176L18.2007 35.015L18.9374 35.4124L18.938 36.4289C18.9384 37.3672 18.9696 37.4767 19.3439 37.851L19.7495 38.2566H22.6549H25.5601L25.9089 37.9078C26.2944 37.5225 26.4305 37.0325 26.4305 36.0312C26.4305 35.3834 26.447 35.3573 27.0895 34.9931L27.7485 34.6193L28.5364 35.0505C29.4886 35.5716 30.1577 35.6092 30.6476 35.1696C31.1512 34.7174 33.3873 30.7824 33.466 30.2095C33.5509 29.5918 33.2047 29.13 32.2384 28.5721L31.5293 28.1626L31.5287 27.3478L31.528 26.5328L32.2745 26.0875C33.086 25.6031 33.5044 25.0683 33.5057 24.514C33.5066 24.0151 30.8879 19.552 30.4528 19.3113C29.9132 19.0126 29.4798 19.0758 28.5896 19.5828L27.7657 20.052L27.1 19.6852L26.4345 19.3182L26.4324 18.516C26.4302 17.5799 26.1752 16.8799 25.7205 16.5615C25.2668 16.2437 20.1833 16.2354 19.6009 16.5515ZM23.6556 19.9116C23.6556 20.9096 23.851 21.2008 24.7914 21.6054C25.1936 21.7784 25.9214 22.193 26.4088 22.5268C26.8964 22.8606 27.4347 23.1336 27.6052 23.1336C27.7757 23.1336 28.2089 22.9776 28.5677 22.7868C28.9265 22.596 29.242 22.4399 29.2687 22.4399C29.3226 22.4399 30.1765 23.9267 30.1765 24.0202C30.1765 24.0522 29.8967 24.2425 29.5547 24.4428C29.2128 24.6433 28.8772 24.9145 28.8089 25.0456C28.7408 25.1769 28.6838 26.1894 28.6823 27.2959C28.6794 29.542 28.7299 29.7066 29.5798 30.218C29.8699 30.3924 30.1292 30.5515 30.1561 30.5716C30.183 30.5916 29.9993 30.9822 29.7479 31.4396L29.2908 32.2711L28.7156 31.9341C27.9039 31.4583 27.1855 31.4841 26.5451 32.0121C26.0409 32.4277 24.7743 33.1231 24.5215 33.1231C24.4477 33.1231 24.2225 33.2877 24.0213 33.4888C23.7093 33.8009 23.6556 33.9742 23.6556 34.6681V35.4817H22.6844H21.7132V34.8505C21.7132 33.8417 21.4237 33.4519 20.284 32.9272C19.7348 32.6741 19.0426 32.2714 18.7458 32.032C18.094 31.5062 17.3878 31.4569 16.6594 31.8868C16.3893 32.0462 16.103 32.1548 16.0234 32.1283C15.9437 32.1018 15.6918 31.753 15.4634 31.3532L15.0483 30.6264L15.7377 30.2022C16.1169 29.9689 16.4708 29.6409 16.5242 29.4735C16.5777 29.306 16.6226 28.2803 16.6243 27.1944C16.6276 24.9897 16.6037 24.9251 15.582 24.3507L15.0554 24.0547L15.4878 23.282C15.7256 22.857 15.9374 22.4897 15.9582 22.4657C15.9791 22.4419 16.3166 22.5898 16.7081 22.7945C17.5741 23.2474 17.9608 23.1984 18.9117 22.5151C19.2865 22.246 19.9297 21.8765 20.3411 21.694C21.3854 21.2309 21.6149 20.9314 21.6867 19.9374L21.7465 19.1101H22.7011H23.6556V19.9116ZM22.0601 26.0696C21.2038 26.5405 21.0312 27.6064 21.7025 28.2778C22.2287 28.8039 22.9095 28.8264 23.4911 28.3369C24.0114 27.899 24.1311 27.4288 23.8771 26.8207C23.5688 26.0829 22.6936 25.721 22.0601 26.0696ZM18.1212 39.9764C16.8679 40.671 17.4294 42.5576 18.8894 42.5576C19.4151 42.5576 20.1871 41.7322 20.1871 41.1702C20.1871 40.8502 20.0553 40.5944 19.7153 40.2545C19.2021 39.7413 18.7025 39.6541 18.1212 39.9764ZM59.2431 46.5964C58.3836 47.0907 58.2142 48.1403 58.8856 48.8117C59.4382 49.3643 60.1133 49.3656 60.7292 48.8152C61.6045 48.0331 61.174 46.6715 59.9987 46.5047C59.7358 46.4674 59.3957 46.5087 59.2431 46.5964ZM32.6892 50.7984C31.4359 51.4929 31.9974 53.3795 33.4574 53.3795C33.9831 53.3795 34.755 52.5542 34.755 51.9921C34.755 51.6722 34.6232 51.4163 34.2833 51.0764C33.7701 50.5632 33.2705 50.4761 32.6892 50.7984ZM36.4199 60.3167V62.6753H33.3676H30.3153V60.3167V57.958H33.3676H36.4199V60.3167ZM43.448 65.6778C44.1532 66.0125 44.6353 66.7205 44.7137 67.5371L44.7797 68.225H33.3852H21.9907V67.7484C21.9907 66.8199 22.5018 66.0046 23.3088 65.646C23.6422 65.4977 25.6384 65.4599 33.3467 65.4556C41.9857 65.4507 43.0173 65.4734 43.448 65.6778Z" fill="#E49B00"/>
</svg>
