<svg width="71" height="71" viewBox="0 0 71 71" fill="none" xmlns="http://www.w3.org/2000/svg">
<path fill-rule="evenodd" clip-rule="evenodd" d="M0.886702 0.135892C0.725546 0.200926 0.460008 0.423899 0.29677 0.631204L0 1.0081V29.9682V58.9282L0.40504 59.3811L0.809941 59.834L9.84395 59.8716L18.8778 59.9093V64.9653V70.0214L19.2829 70.4743L19.6879 70.9272L35.4498 70.9637L51.2116 71L51.6669 70.5938L52.1222 70.1876L52.1618 65.0454L52.2013 59.9033H61.1473H70.0933L70.5467 59.4987L71 59.0941V29.9517V0.809249L70.5467 0.404625L70.0933 0L35.6366 0.0087359C16.6853 0.0135892 1.048 0.0708579 0.886702 0.135892ZM23.4564 4.15579L24.1508 5.53828L18.0472 5.57711L11.9435 5.61594L11.562 5.99727C11.0294 6.52946 11.0294 7.33705 11.562 7.86924L11.9435 8.25057L18.7426 8.28898L25.5417 8.32753L26.183 9.60325C26.9481 11.1251 28.2345 12.5018 29.4272 13.0751C31.151 13.9038 30.1799 13.8665 50.0692 13.8665H68.2933V35.4983V57.13H60.247H52.2006L52.1615 51.5026L52.1222 45.8751L51.6688 45.4706L51.2155 45.0662H48.6008H45.9861L45.9022 43.4368C45.856 42.5408 45.7311 41.4955 45.6245 41.1142C44.5806 37.3802 41.6242 34.485 37.8944 33.5445C36.9033 33.2945 34.1661 33.2945 33.175 33.5445C29.4452 34.485 26.4888 37.3802 25.4449 41.1142C25.3383 41.4955 25.2135 42.537 25.1676 43.4288L25.084 45.0501L22.3856 45.0928L19.6873 45.1355L19.2826 45.5884L18.8778 46.0413V51.5856V57.13H10.827H2.77615V29.9517V2.7733H12.769H22.7619L23.4564 4.15579ZM68.2933 6.9352V11.0972L49.936 11.0605L31.5787 11.0239L30.7842 10.6341C30.3471 10.4197 29.7648 9.98292 29.4901 9.66343C29.2154 9.34395 28.2754 7.66305 27.4013 5.92793L25.8118 2.7733H47.0525H68.2933V6.9352ZM6.45455 5.67251C5.56993 6.05079 5.33604 7.1963 6.00661 7.86606C6.84945 8.70817 8.2528 8.12536 8.2528 6.93325C8.2528 6.02014 7.26338 5.3264 6.45455 5.67251ZM52.5231 5.6825C52.0861 5.85888 51.6364 6.50159 51.6364 6.94976C51.6364 7.50483 52.2743 8.17098 52.9013 8.2704C53.324 8.33752 53.4761 8.28455 53.8698 7.93317C54.2597 7.58512 54.3369 7.42011 54.3369 6.93325C54.3369 6.4507 54.2591 6.28097 53.8866 5.94845C53.4306 5.54133 53.0546 5.46798 52.5231 5.6825ZM58.0754 5.6825C57.6384 5.85888 57.1887 6.50159 57.1887 6.94976C57.1887 7.50483 57.8266 8.17098 58.4536 8.2704C58.8763 8.33752 59.0284 8.28455 59.4221 7.93317C59.812 7.58512 59.8892 7.42011 59.8892 6.93325C59.8892 6.4507 59.8114 6.28097 59.4389 5.94845C58.9829 5.54133 58.6069 5.46798 58.0754 5.6825ZM63.6277 5.6825C63.1907 5.85888 62.741 6.50159 62.741 6.94976C62.741 7.50483 63.3789 8.17098 64.0059 8.2704C64.4286 8.33752 64.5807 8.28455 64.9744 7.93317C65.3643 7.58512 65.4415 7.42011 65.4415 6.93325C65.4415 6.4507 65.3637 6.28097 64.9912 5.94845C64.5352 5.54133 64.1592 5.46798 63.6277 5.6825ZM14.783 16.7708C14.6303 16.8334 14.3805 17.0231 14.2278 17.1927C13.959 17.4911 13.9501 17.6962 13.9501 23.5844V29.6681L14.3351 30.0525L14.7198 30.437L35.4647 30.473L56.2097 30.509L56.6644 30.1031L57.1193 29.6971V23.5731V17.4491L56.6659 17.0444L56.2126 16.6398L35.6366 16.6485C24.3198 16.6534 14.9357 16.7085 14.783 16.7708ZM54.4125 23.5731V27.733H35.5347H16.6569V23.5731V19.4131H35.5347H54.4125V23.5731ZM21.1526 22.3223C20.7156 22.4987 20.2659 23.1414 20.2659 23.5896C20.2659 24.1446 20.9038 24.8108 21.5308 24.9102C21.9535 24.9773 22.1056 24.9244 22.4993 24.573C22.8892 24.2249 22.9664 24.0599 22.9664 23.5731C22.9664 23.0905 22.8887 22.9208 22.5161 22.5883C22.0601 22.1811 21.6841 22.1078 21.1526 22.3223ZM26.7049 22.3223C26.2679 22.4987 25.8182 23.1414 25.8182 23.5896C25.8182 24.1446 26.4561 24.8108 27.0831 24.9102C27.5058 24.9773 27.6579 24.9244 28.0516 24.573C28.4415 24.2249 28.5187 24.0599 28.5187 23.5731C28.5187 23.0905 28.4409 22.9208 28.0684 22.5883C27.6124 22.1811 27.2364 22.1078 26.7049 22.3223ZM32.2572 22.3223C31.8202 22.4987 31.3705 23.1414 31.3705 23.5896C31.3705 24.1446 32.0084 24.8108 32.6354 24.9102C33.0581 24.9773 33.2102 24.9244 33.6039 24.573C33.9938 24.2249 34.071 24.0599 34.071 23.5731C34.071 23.0905 33.9932 22.9208 33.6207 22.5883C33.1647 22.1811 32.7887 22.1078 32.2572 22.3223ZM37.8095 22.3223C37.3725 22.4987 36.9228 23.1414 36.9228 23.5896C36.9228 24.1446 37.5607 24.8108 38.1877 24.9102C38.6104 24.9773 38.7625 24.9244 39.1562 24.573C39.5461 24.2249 39.6233 24.0599 39.6233 23.5731C39.6233 23.0905 39.5455 22.9208 39.173 22.5883C38.717 22.1811 38.341 22.1078 37.8095 22.3223ZM43.3618 22.3223C42.9248 22.4987 42.4751 23.1414 42.4751 23.5896C42.4751 24.1446 43.113 24.8108 43.74 24.9102C44.1627 24.9773 44.3148 24.9244 44.7085 24.573C45.0984 24.2249 45.1756 24.0599 45.1756 23.5731C45.1756 23.0905 45.0978 22.9208 44.7253 22.5883C44.2693 22.1811 43.8933 22.1078 43.3618 22.3223ZM48.9141 22.3223C48.4771 22.4987 48.0274 23.1414 48.0274 23.5896C48.0274 24.1446 48.6653 24.8108 49.2923 24.9102C49.715 24.9773 49.8671 24.9244 50.2608 24.573C50.6507 24.2249 50.7279 24.0599 50.7279 23.5731C50.7279 23.0905 50.6501 22.9208 50.2776 22.5883C49.8216 22.1811 49.4456 22.1078 48.9141 22.3223ZM6.45455 35.0746C5.57104 35.4359 5.33604 36.593 6.00939 37.2662C6.37431 37.6311 6.45954 37.6497 7.98615 37.6942L9.58146 37.7409L10.0655 37.2574C10.7184 36.6051 10.7219 36.0589 10.0774 35.4151L9.60547 34.9436L8.16882 34.9523C7.37859 34.9572 6.60723 35.0122 6.45455 35.0746ZM14.2278 35.0746C13.3443 35.436 13.1093 36.593 13.7827 37.2662L14.1642 37.6476L17.4131 37.6893L20.6622 37.731L21.1202 37.3221C21.5009 36.9824 21.5783 36.8148 21.5783 36.3303C21.5783 35.8477 21.5006 35.678 21.128 35.3455L20.6779 34.9436L17.5916 34.9523C15.8941 34.9572 14.3805 35.0122 14.2278 35.0746ZM50.3177 35.0717C49.4322 35.4432 49.1992 36.5932 49.8728 37.2662L50.2545 37.6476H54.6901H59.1257L59.5074 37.2662C60.04 36.7342 60.04 35.9265 59.5076 35.3943L59.126 35.0129L54.8607 34.9841C52.5147 34.9683 50.4704 35.0077 50.3177 35.0717ZM63.6432 35.0695C62.7586 35.4478 62.5247 36.5933 63.1953 37.2631C63.4812 37.5488 63.7096 37.6413 64.129 37.6413C65.7432 37.6413 65.9303 35.2844 64.3372 35.0199C64.1082 34.9817 63.7959 35.0041 63.6432 35.0695ZM37.9527 36.4605C39.0697 36.8507 39.908 37.3607 40.7708 38.1749C42.2998 39.618 43.0182 41.2598 43.134 43.5755L43.2084 45.0662H41.8196H40.4309L40.363 43.7714C40.2803 42.1908 39.8865 41.225 38.9391 40.2786C37.9565 39.2969 36.9791 38.9015 35.5347 38.9015C34.0903 38.9015 33.1129 39.2969 32.1303 40.2786C31.183 41.225 30.7892 42.1908 30.7064 43.7714L30.6385 45.0662H29.2498H27.861L27.9383 43.5755C28.052 41.3827 28.6297 39.9396 29.9727 38.4943C31.0423 37.3431 32.6767 36.4508 34.2854 36.1395C35.0394 35.9936 37.1432 36.1777 37.9527 36.4605ZM6.45455 40.6212C5.5709 40.9826 5.33604 42.1396 6.00953 42.8128L6.39111 43.1942L10.7688 43.2345L15.1465 43.2747L15.624 42.7977C16.2703 42.1521 16.2721 41.6034 15.6297 40.9617L15.1578 40.4902L10.945 40.4989C8.62799 40.5038 6.60723 40.5588 6.45455 40.6212ZM61.4067 40.6261C60.9698 40.8025 60.52 41.4452 60.52 41.8934C60.52 42.1338 60.6784 42.4656 60.9248 42.7413L61.3294 43.1942L62.9224 43.2404L64.5152 43.2867L64.9783 42.8733C65.3641 42.5289 65.4415 42.3627 65.4415 41.8769C65.4415 41.3943 65.3637 41.2246 64.9912 40.8921C64.5549 40.5026 64.4973 40.4905 63.1205 40.4989C62.3391 40.5038 61.568 40.5611 61.4067 40.6261ZM36.51 41.8787C37.2662 42.2641 37.6168 42.9866 37.6168 44.1593V45.0662H35.5347H33.4526V44.1593C33.4526 43.0102 33.8041 42.2683 34.5299 41.8855C35.1996 41.5323 35.8261 41.5302 36.51 41.8787ZM12.0068 46.1679C11.1233 46.5291 10.8883 47.6862 11.5617 48.3595C11.9266 48.7243 12.0118 48.7429 13.5384 48.7874L15.1338 48.8341L15.6178 48.3506C16.2707 47.6983 16.2742 47.1521 15.6297 46.5083L15.1578 46.0368L13.7211 46.0455C12.9309 46.0504 12.1595 46.1055 12.0068 46.1679ZM55.8544 46.1727C55.4175 46.3491 54.9677 46.9918 54.9677 47.44C54.9677 47.6805 55.1261 48.0122 55.3726 48.2879L55.7775 48.7408L60.153 48.781L64.5287 48.8212L64.9851 48.4138C65.364 48.0756 65.4415 47.9075 65.4415 47.4235C65.4415 46.9409 65.3637 46.7712 64.9912 46.4387L64.541 46.0368L60.3443 46.0455C58.0361 46.0504 56.0157 46.1077 55.8544 46.1727ZM49.4154 58.0313V68.2232H35.5347H21.654V58.0313V47.8395H35.5347H49.4154V58.0313ZM25.3168 50.7487C25.1557 50.8137 24.8901 51.0367 24.7269 51.244C24.4587 51.5845 24.4301 51.7924 24.4301 53.4026C24.4301 55.1513 24.4372 55.1922 24.8118 55.6073C25.0517 55.873 25.38 56.0599 25.6951 56.1099C26.1173 56.177 26.2699 56.124 26.6612 55.7747C27.091 55.391 27.1302 55.2858 27.1818 54.3729L27.2376 53.3861H29.51H31.7825L32.2326 52.9842C32.6052 52.6517 32.6829 52.482 32.6829 51.9994C32.6829 51.5169 32.6052 51.3471 32.2326 51.0146L31.7825 50.6128L28.6962 50.6215C26.9987 50.6263 25.4781 50.6836 25.3168 50.7487ZM39.1976 50.7487C38.7606 50.925 38.3109 51.5677 38.3109 52.0159C38.3109 52.2564 38.4692 52.5883 38.7156 52.8638L39.1202 53.3167L41.4918 53.3605L43.8631 53.4044V54.2943C43.8631 55.0703 43.912 55.2385 44.2449 55.6073C44.4847 55.873 44.813 56.0599 45.1281 56.1099C45.5513 56.1771 45.7029 56.124 46.0998 55.7699L46.5699 55.3501V53.3861V51.422L46.1166 51.0174L45.6632 50.6128L42.577 50.6215C40.8795 50.6263 39.3588 50.6836 39.1976 50.7487ZM6.45455 51.7145C5.5709 52.0758 5.33604 53.2328 6.00953 53.9061L6.39111 54.2874L10.7688 54.3277L15.1465 54.3679L15.624 53.8909C16.2703 53.2453 16.2721 52.6966 15.6297 52.0549L15.1578 51.5834L10.945 51.5921C8.62799 51.597 6.60723 51.6521 6.45455 51.7145ZM55.8544 51.7193C55.4175 51.8957 54.9677 52.5384 54.9677 52.9866C54.9677 53.2271 55.1261 53.5588 55.3726 53.8345L55.7775 54.2874L60.153 54.3276L64.5287 54.3678L64.9851 53.9604C65.364 53.6222 65.4415 53.4541 65.4415 52.9701C65.4415 52.4875 65.3637 52.3178 64.9912 51.9853L64.541 51.5834L60.3443 51.5921C58.0361 51.597 56.0157 51.6543 55.8544 51.7193ZM25.3168 60.0392C25.1557 60.1042 24.8901 60.3272 24.7269 60.5345C24.4587 60.8751 24.4301 61.0829 24.4301 62.6931C24.4301 64.4655 24.4322 64.4773 24.8349 64.9277L25.2396 65.3806L28.5033 65.4223L31.7668 65.4641L32.2248 65.0551C32.6054 64.7154 32.6829 64.5478 32.6829 64.0633C32.6829 63.5807 32.6052 63.411 32.2326 63.0785L31.7825 62.6766H29.51H27.2376L27.1818 61.6897C27.1306 60.7851 27.0885 60.6694 26.6781 60.3031C26.2241 59.8979 25.8477 59.825 25.3168 60.0392ZM44.7499 60.0392C44.1508 60.281 43.8631 60.8474 43.8631 61.7849V62.6583L41.4918 62.7021L39.1202 62.746L38.7156 63.1988C38.1851 63.7923 38.1852 64.3344 38.7156 64.9277L39.1204 65.3806L42.384 65.4223L45.6475 65.4641L46.1086 65.0524L46.5699 64.6407V62.6766V60.7126L46.1166 60.3079C45.6575 59.8982 45.2822 59.8244 44.7499 60.0392Z" fill="#E49B00"/>
</svg>
