<svg width="74" height="71" viewBox="0 0 74 71" fill="none" xmlns="http://www.w3.org/2000/svg">
<path fill-rule="evenodd" clip-rule="evenodd" d="M38.2735 0.191251C37.2752 0.464327 36.7145 0.814412 35.9546 1.63869C33.9808 3.77995 34.3025 7.12664 36.6483 8.85756C37.0192 9.13136 37.5665 9.43088 37.8644 9.52335L38.4062 9.69167V11.5275V13.3635L37.3587 13.6173C34.0034 14.4305 29.9425 16.4187 26.9197 18.7284C25.815 19.5727 23.4109 21.8857 22.469 23.0107L21.7433 23.8776L16.2158 23.9498L10.6882 24.0221L10.3178 24.3703C9.58885 25.0553 9.75168 26.2854 10.6236 26.6827C10.8466 26.7843 12.4915 26.8395 15.2955 26.8395C17.6758 26.8395 19.6233 26.8635 19.6233 26.8927C19.6233 26.922 19.2748 27.6209 18.849 28.4459C18.4231 29.2709 17.8593 30.5149 17.596 31.2102L17.1173 32.4744H8.98693H0.856508L0.482293 32.7995C-0.0114096 33.2285 -0.152571 34.0667 0.182922 34.5787C0.692084 35.3558 0.783254 35.3641 8.87148 35.3641H16.3338L16.2465 35.6892C16.1447 36.0687 15.7595 38.8196 15.6396 40.0237L15.5569 40.8545H12.237C8.62846 40.8545 8.2791 40.9189 7.94823 41.6451C7.72991 42.1242 7.72991 42.4744 7.94823 42.9535C8.27997 43.6817 8.62369 43.7442 12.2989 43.7442H15.6806L15.7773 44.9022C15.8693 46.0065 16.3852 48.877 16.5351 49.1196C16.5742 49.1828 14.4872 49.2346 11.8973 49.2346C6.78918 49.2346 6.44733 49.2798 5.96229 50.02C5.6268 50.5319 5.76796 51.3702 6.26167 51.7992C6.6353 52.1238 6.64238 52.1243 12.0535 52.1243H17.471L17.6311 52.5833C17.923 53.4207 19.2953 56.1119 20.0546 57.3362C22.8641 61.8661 27.0894 65.6539 31.9767 68.024C39.0703 71.4639 46.6832 71.927 54.3718 69.3858C55.6278 68.9707 59.1509 67.2903 60.2696 66.5728C61.442 65.8209 61.6496 64.7802 60.7744 64.0438C60.1906 63.5524 59.5777 63.5785 58.7048 64.1321C57.3428 64.9959 54.8717 66.1511 53.184 66.713C45.3892 69.3079 36.8711 68.1632 30.0984 63.6105C19.2885 56.3439 15.4523 42.3061 21.0563 30.5239C24.63 23.0105 31.3093 17.8228 39.7036 16.0409C41.3557 15.6901 41.7945 15.6568 44.7636 15.6568C47.7349 15.6568 48.1705 15.6899 49.829 16.042C52.4806 16.6048 54.1046 17.1721 56.539 18.3862C58.9705 19.5987 60.67 20.7612 62.561 22.5051C71.633 30.8715 73.6679 44.6349 67.3962 55.2073C66.5915 56.5634 66.4912 56.9054 66.7292 57.4799C67.0256 58.1952 68.0642 58.5584 68.7556 58.1885C69.1246 57.991 69.8771 56.796 70.8256 54.9014C75.7703 45.0242 74.7388 33.2494 68.1521 24.3833C67.0393 22.8853 64.5799 20.327 63.1131 19.1418C60.015 16.6383 56.1457 14.664 52.3848 13.6677L51.1209 13.3328L51.1233 11.5255L51.1258 9.71811L51.9274 9.37106C52.963 8.92258 53.9312 7.97303 54.4138 6.93246C54.9568 5.76155 54.9595 4.14449 54.4205 2.98225C53.8922 1.84372 53.1272 1.05801 52.0117 0.508683L51.0556 0.0376645L45.056 0.00732281C40.1324 -0.0175285 38.916 0.0154139 38.2735 0.191251ZM50.397 2.94873C51.0157 3.07241 51.8051 3.87777 51.9229 4.50512C52.047 5.16657 51.7918 5.89043 51.2526 6.40725L50.8133 6.82843L44.8872 6.86917C39.1298 6.9089 38.9476 6.90154 38.4824 6.61416C37.5594 6.04373 37.2703 4.7454 37.8673 3.85176C38.5273 2.86378 38.5822 2.85554 44.5649 2.8554C47.5151 2.85525 50.1395 2.8973 50.397 2.94873ZM48.2312 11.2713V12.7523H44.7636H41.2959V11.2713V9.79035H44.7636H48.2312V11.2713ZM42.0184 19.568C39.034 20.0467 36.8299 20.7431 34.5052 21.9419C28.4547 25.0619 24.2482 30.6181 22.7733 37.4377C22.3082 39.5878 22.3129 44.0162 22.7821 46.2004C24.0938 52.3031 27.5761 57.3893 32.6991 60.6844C40.0214 65.3941 49.5057 65.3941 56.828 60.6844C61.951 57.3893 65.4333 52.3031 66.745 46.2004C67.2142 44.0162 67.2189 39.5878 66.7538 37.4377C64.7639 28.2368 57.6264 21.3042 48.545 19.7517C47.0123 19.4896 43.1796 19.3818 42.0184 19.568ZM47.87 22.575C56.3041 23.9591 62.7582 30.5208 64.0734 39.0484C64.3433 40.799 64.2681 44.0041 63.9188 45.6225C63.0683 49.5649 61.3154 52.7897 58.4988 55.5948C55.6432 58.4384 52.5279 60.1307 48.6262 60.9577C46.667 61.373 43.1312 61.4105 41.2569 61.036C38.548 60.4948 35.876 59.3787 33.6383 57.8533C33.0423 57.4471 31.8677 56.4308 31.0283 55.5948C28.2117 52.7897 26.4588 49.5649 25.6083 45.6225C25.259 44.0041 25.1838 40.799 25.4537 39.0484C26.7594 30.5824 33.2177 23.9823 41.5735 22.5746C43.0979 22.3177 46.3036 22.318 47.87 22.575ZM44.057 25.1629C43.5243 25.4581 43.3294 25.9555 43.3238 27.034C43.3181 28.1319 43.5695 28.7327 44.144 28.9945C44.6081 29.2059 44.9885 29.1917 45.465 28.9454C46.0246 28.656 46.2084 28.1488 46.2084 26.8938C46.2084 25.884 46.1781 25.7755 45.7861 25.3835C45.3169 24.9144 44.6571 24.8302 44.057 25.1629ZM54.3718 30.3703C54.1334 30.4786 52.3196 32.1931 50.3411 34.18L46.744 37.7926L46.1691 37.5897C45.4617 37.3402 43.9984 37.3441 43.3187 37.5972L42.813 37.7858L40.9945 35.9969C39.3233 34.353 39.1324 34.2082 38.6371 34.2082C37.9475 34.2082 37.5968 34.4004 37.3241 34.9277C36.8718 35.8024 36.9771 36.0039 38.9079 37.9551L40.7098 39.7762L40.4972 40.4829C40.0389 42.0056 40.3907 43.601 41.4504 44.8048C43.1921 46.7837 46.335 46.7837 48.0767 44.8048C49.1369 43.6003 49.4882 42.0056 49.0292 40.4803L48.8158 39.7713L52.569 36.0082C56.246 32.3217 56.3223 32.2331 56.3223 31.657C56.3223 31.2143 56.2281 30.9748 55.9414 30.688C55.7319 30.4785 55.4771 30.3071 55.3752 30.3071C55.2733 30.3071 55.1034 30.2769 54.9977 30.2401C54.8918 30.2034 54.6102 30.2619 54.3718 30.3703ZM45.8616 40.7678C46.439 41.3451 46.5085 41.97 46.0746 42.6818C45.258 44.0209 43.1765 43.3471 43.1748 41.7431C43.1739 41.0023 43.9601 40.2765 44.7636 40.2765C45.261 40.2765 45.459 40.3651 45.8616 40.7678ZM28.3639 40.7698C27.6976 41.436 27.7447 42.3824 28.4714 42.9248C28.8888 43.2364 30.027 43.397 30.7965 43.2526C32.0082 43.0252 32.4695 41.6863 31.6266 40.8434C31.2251 40.4418 31.1427 40.421 29.9584 40.421C28.8342 40.421 28.6787 40.455 28.3639 40.7698ZM57.9005 40.8434C57.5883 41.1556 57.4782 41.4029 57.4782 41.792C57.4782 42.9404 58.1292 43.3678 59.7539 43.2857C60.7557 43.2351 60.8608 43.1984 61.2498 42.7631C61.6994 42.2599 61.7701 41.814 61.4956 41.2116C61.2336 40.6366 60.6691 40.421 59.4248 40.421C58.3995 40.421 58.2935 40.4504 57.9005 40.8434ZM0.887283 49.4465C-0.545424 50.0661 -0.146069 52.1243 1.40685 52.1243C2.79101 52.1243 3.39611 50.3381 2.25569 49.6185C1.71807 49.2792 1.37434 49.236 0.887283 49.4465ZM44.3711 54.5392C44.195 54.5722 43.8862 54.795 43.6848 55.0345C43.3606 55.4198 43.3187 55.6001 43.3187 56.6121C43.3187 57.6662 43.3508 57.7905 43.7338 58.2192C44.2187 58.7619 44.9163 58.8432 45.5459 58.4307C46.0444 58.104 46.2084 57.6518 46.2084 56.6033C46.2084 56.1369 46.1463 55.5917 46.0704 55.3921C45.8492 54.8107 45.0531 54.4109 44.3711 54.5392ZM63.3909 60.4932C62.8374 61.0467 62.8193 61.7497 63.3426 62.3715C63.6507 62.7376 63.8235 62.8161 64.3218 62.8161C65.0396 62.8161 65.4631 62.5543 65.7102 61.9577C66.294 60.5483 64.4807 59.4034 63.3909 60.4932Z" fill="#E49B00"/>
</svg>
