<svg width="95" height="71" viewBox="0 0 95 71" fill="none" xmlns="http://www.w3.org/2000/svg">
<path fill-rule="evenodd" clip-rule="evenodd" d="M8.69183 0.641266C6.03982 2.9754 0.581207 8.1194 0.307618 8.54237C-0.143787 9.23994 -0.0979413 9.92871 0.442185 10.5622C1.42444 11.714 8.95725 18.5812 9.48475 18.8055C9.91351 18.9877 10.1882 18.9951 10.6727 18.8373C11.4992 18.5681 11.8609 18.0258 11.8609 17.0564C11.8609 16.5867 11.9565 16.231 12.097 16.1777C12.2268 16.1286 14.2277 16.1105 16.5435 16.1377L20.7541 16.187L19.7162 17.7441C17.5529 20.9896 15.8159 25.2327 14.9792 29.3151C14.6108 31.1131 14.5536 31.9438 14.553 35.513C14.5525 39.0887 14.6087 39.9096 14.9785 41.7108C17.6782 54.862 27.7106 64.8001 41.117 67.6038C43.1361 68.026 43.1383 68.0262 63.0894 68.1187L83.0425 68.2114L83.1391 69.1579C83.1955 69.7122 83.3792 70.261 83.5821 70.4823C84.0061 70.9447 84.928 71.1376 85.5501 70.8943C86.0969 70.6805 94.4286 63.0009 94.7679 62.398C95.1607 61.6997 95.0562 61.0351 94.445 60.3484C93.2357 58.9891 86.0455 52.4453 85.5141 52.2205C85.0835 52.0382 84.8081 52.0309 84.3236 52.1886C83.4971 52.4579 83.1353 53.0001 83.1353 53.9695C83.1353 54.4392 83.0398 54.795 82.8992 54.8483C82.7695 54.8974 80.7686 54.9155 78.4528 54.8882L74.2422 54.8389L75.2801 53.2819C77.4265 50.0617 79.1779 45.7995 79.9937 41.8107C80.627 38.7139 80.7081 33.445 80.1706 30.314C79.4907 26.3532 78.0686 22.235 77.2274 21.7908C76.5003 21.4067 75.5396 21.5486 74.9542 22.1264C74.2442 22.8271 74.2609 23.2832 75.0786 25.5294C76.2993 28.8837 76.6587 30.8119 76.7685 34.597C76.853 37.5113 76.8118 38.3042 76.4736 40.258C75.5699 45.48 73.2161 50.4896 69.906 54.2353C68.0083 56.3828 67.8641 56.9316 68.9233 57.9771L69.56 58.6054L77.6277 58.5541C85.1503 58.5061 85.7207 58.4799 86.0713 58.1665C86.4416 57.8358 86.4776 57.8587 88.3644 59.6319C89.4188 60.6228 90.3044 61.4808 90.3324 61.5387C90.3604 61.5964 89.5073 62.4453 88.4369 63.4251L86.4904 65.2064L85.9813 64.8771C85.501 64.5664 84.2692 64.542 64.3042 64.4482L43.1363 64.3488L41.1874 63.8684C35.12 62.3733 31.0328 60.1242 26.79 55.9455C22.4921 51.7129 20.0454 47.3003 18.6944 41.3463C18.3178 39.6863 18.2645 38.9632 18.2645 35.513C18.2645 32.0627 18.3178 31.3397 18.6944 29.6796C19.8225 24.708 22.0365 20.2466 25.0903 16.7906C26.8197 14.8337 26.9873 14.4085 26.4401 13.3643C25.954 12.4365 25.7429 12.416 17.2102 12.4717C9.84131 12.5199 9.27538 12.5462 8.92495 12.8595C8.55466 13.1901 8.51865 13.1672 6.63192 11.394C5.57747 10.4032 4.69192 9.54513 4.66389 9.48724C4.63587 9.42954 5.48893 8.58066 6.55935 7.60081L8.50584 5.81952L9.01497 6.14889C9.49533 6.45957 10.727 6.48393 30.692 6.57772L51.86 6.67719L53.8089 7.1553C57.6076 8.08698 60.6498 9.36689 63.6986 11.3162C64.6582 11.9298 65.6293 12.4317 65.8563 12.4317C67.228 12.4317 68.18 10.8565 67.5313 9.66016C67.4219 9.45885 66.5659 8.79627 65.6288 8.18773C62.7631 6.32713 59.888 5.02249 56.5862 4.08513C52.6978 2.98108 53.7695 3.03182 31.9997 2.9188L11.9537 2.81456L11.8557 1.85285C11.7366 0.682848 11.2818 0.169749 10.2417 0.0319946C9.57255 -0.0564834 9.41366 0.0059825 8.69183 0.641266ZM44.0643 12.7018C38.9159 13.512 34.6119 15.6618 30.9979 19.2284C22.2789 27.8337 21.8082 41.5524 29.9188 50.6863C40.0984 62.1505 58.5089 60.8966 67.0223 48.1593C69.6192 44.2738 70.7874 40.3501 70.7874 35.513C70.7874 30.6753 69.6186 26.7502 67.0218 22.8667C62.0068 15.3669 52.8606 11.3172 44.0643 12.7018ZM71.0306 14.7556C69.9973 15.4074 69.8863 17.0081 70.8242 17.7362C72.0267 18.6697 73.8548 17.7424 73.8548 16.1989C73.8548 15.0057 72.0757 14.0965 71.0306 14.7556ZM50.5839 16.368C57.742 17.5138 63.6537 22.4083 66.0466 29.1702C70.0661 40.5286 62.6605 52.7188 50.5607 54.6609C45.4215 55.4857 40.0585 54.193 35.8767 51.1214C26.3053 44.0904 25.0992 30.6822 33.2744 22.1865C37.7634 17.5213 44.2236 15.3499 50.5839 16.368ZM46.4552 22.8568C45.8991 23.1913 45.4564 24.0216 45.4564 24.73C45.4564 24.9394 45.2187 25.1645 44.8272 25.3259C43.0765 26.0478 41.8901 27.8582 41.775 29.9828C41.6845 31.6569 42.0345 32.6423 43.0908 33.6846C43.8555 34.4395 46.1953 35.6592 48.2148 36.3558C49.8875 36.9328 50.4536 37.9955 49.8422 39.4115C49.7023 39.7357 49.3615 40.2071 49.0849 40.459C48.6497 40.8554 48.3783 40.925 47.0657 40.9768C45.6667 41.0321 45.4668 40.9931 44.4855 40.4731C43.297 39.8433 42.887 39.7903 42.1424 40.1704C41.2577 40.622 40.9593 41.6903 41.4539 42.6344C41.747 43.1939 43.4043 44.1477 44.6518 44.4751C45.3569 44.6601 45.4356 44.7409 45.5479 45.397C45.7244 46.4284 46.4218 47.0536 47.3959 47.0536C48.454 47.0536 49.1686 46.3421 49.1686 45.2888C49.1686 44.5802 49.2059 44.5344 50.1282 44.1082C53.8633 42.3822 54.9712 37.582 52.3001 34.6978C51.4047 33.731 50.9963 33.5044 47.8293 32.2186C45.8707 31.4234 45.4564 31.0759 45.4564 30.2281C45.4564 28.3342 47.5895 27.8927 50.4399 29.1968C51.7934 29.8159 52.5796 29.7934 53.2664 29.1156C53.9323 28.4584 53.993 27.5501 53.4193 26.8304C52.9542 26.2466 51.6825 25.5835 50.2279 25.1662C49.2436 24.8839 49.1686 24.8234 49.1686 24.3136C49.1686 23.5717 48.8923 23.1143 48.2443 22.7835C47.5319 22.4201 47.1551 22.4354 46.4552 22.8568Z" fill="#E49B00"/>
</svg>
