<svg width="39" height="71" viewBox="0 0 39 71" fill="none" xmlns="http://www.w3.org/2000/svg">
<path fill-rule="evenodd" clip-rule="evenodd" d="M4.6883 0.177174C2.43019 0.803508 0.821217 2.46476 0.230164 4.77996C-0.0767213 5.98183 -0.0767213 65.006 0.230164 66.2079C0.843118 68.6087 2.65478 70.3889 4.98852 70.8831C5.45837 70.9826 10.3156 71.0177 20.0287 70.9918L34.375 70.9533L35.1341 70.6308C36.6746 69.9763 38.0845 68.5505 38.6794 67.0457L39 66.2346V35.4939V4.75317L38.6794 3.94212C38.0845 2.43728 36.6746 1.01155 35.1341 0.357038L34.375 0.0345036L19.8877 0.00702433C7.71974 -0.0158751 5.28643 0.0113266 4.6883 0.177174ZM33.9295 2.88597C35.3164 3.27887 36.3474 4.73666 36.3474 6.30464V7.1819H27.2355H18.1236L17.6947 7.57272C17.3377 7.8983 17.266 8.06498 17.266 8.56974C17.266 9.0745 17.3377 9.24118 17.6947 9.56677L18.1236 9.95759H27.2355H36.3474V34.8V59.6424H19.5476H2.74782V34.8097V9.97715L4.8684 9.9326L6.98898 9.88819L7.31696 9.49876C7.76178 8.97069 7.76178 8.16879 7.31696 7.64072L6.98898 7.25129L4.8684 7.20688L2.74782 7.16233V6.42955C2.74782 4.93748 3.41287 3.81097 4.67279 3.16853L5.51183 2.7408L19.4674 2.74163C28.6613 2.74205 33.5956 2.79132 33.9295 2.88597ZM11.5023 7.31957C10.744 7.6317 10.5263 8.81608 11.1019 9.49876C11.3745 9.82213 11.5381 9.88819 12.0659 9.88819C12.5937 9.88819 12.7574 9.82213 13.03 9.49876C13.9801 8.3717 12.853 6.76346 11.5023 7.31957ZM6.25279 19.1058L5.80851 19.5107L5.76988 24.7936C5.72662 30.6897 5.73505 30.7519 6.62932 31.1332C7.30702 31.422 16.5528 31.422 17.2305 31.1332C18.1247 30.7519 18.1332 30.6897 18.0899 24.7936L18.0513 19.5107L17.607 19.1058L17.1627 18.701H11.9299H6.69706L6.25279 19.1058ZM21.8407 18.8387C21.1151 19.1373 21.112 19.1637 21.112 25.0262V30.4571L21.4372 30.8152C21.6162 31.0121 21.9681 31.2121 22.2194 31.2596C22.4708 31.3071 24.9004 31.3268 27.6187 31.3035L32.5611 31.261L32.9579 30.8077L33.3547 30.3544V25.0894C33.3547 21.3029 33.309 19.7222 33.1922 19.4604C32.8611 18.7189 32.7124 18.7003 27.2061 18.7097C24.4155 18.7146 22.0011 18.7726 21.8407 18.8387ZM15.367 24.981L15.3307 28.4853H11.9299H8.52913L8.4928 24.981L8.45648 21.4767H11.9299H15.4033L15.367 24.981ZM30.6341 25.0157V28.5547H27.2333H23.8326V25.0157V21.4767H27.2333H30.6341V25.0157ZM6.59953 34.3092C5.73859 34.6912 5.72689 34.7803 5.76988 40.6282L5.80851 45.8968L6.18559 46.2813L6.56267 46.666L11.8577 46.7053L17.1527 46.7447L17.602 46.3352L18.0513 45.9258L18.0858 40.6058C18.1238 34.7492 18.1266 34.7715 17.3012 34.3492C16.8754 34.1313 16.3271 34.107 11.9299 34.1118C8.06499 34.1158 6.94151 34.1574 6.59953 34.3092ZM21.8369 34.3059C21.5996 34.4125 21.3394 34.6257 21.2587 34.7796C21.1609 34.966 21.112 36.8659 21.112 40.4732V45.8872L21.4402 46.2766L21.7683 46.666L26.9777 46.7056C30.7395 46.7342 32.2945 46.6998 32.5734 46.582C33.3385 46.2586 33.3547 46.1299 33.3547 40.3604V35.082L32.9579 34.6287L32.5611 34.1755L27.4147 34.1437C23.252 34.118 22.1858 34.1489 21.8369 34.3059ZM15.3987 40.4208V43.9598H11.9299H8.46111V40.5133C8.46111 38.6177 8.50192 37.0251 8.55184 36.9743C8.60163 36.9234 10.1626 36.8818 12.0206 36.8818H15.3987V40.4208ZM30.6341 40.4208V43.9598H27.2333H23.8326V40.4208V36.8818H27.2333H30.6341V40.4208ZM14.495 50.2039C13.7368 50.5161 13.5191 51.7005 14.0945 52.3831L14.4227 52.7726L19.4603 52.8121L24.4978 52.8517L24.9442 52.4446C25.3149 52.1068 25.3908 51.9385 25.3908 51.4541C25.3908 50.9711 25.3146 50.8013 24.9495 50.4685L24.5084 50.0663L19.6475 50.075C16.9739 50.0799 14.6554 50.1379 14.495 50.2039ZM36.3474 63.9893C36.3474 65.4282 36.316 65.6236 35.9733 66.3129C35.5564 67.1515 34.7297 67.8751 33.9295 68.1019C33.5955 68.1965 28.6691 68.2452 19.4796 68.2449L5.53645 68.2442L4.85344 67.9198C4.04814 67.5373 3.43151 66.9445 3.07416 66.2097C2.87623 65.8026 2.80577 65.301 2.77067 64.0488L2.7251 62.4181H19.5362H36.3474V63.9893Z" fill="#E49B00"/>
</svg>
