<svg width="95" height="71" viewBox="0 0 95 71" fill="none" xmlns="http://www.w3.org/2000/svg">
<path fill-rule="evenodd" clip-rule="evenodd" d="M9.04782 0.281376C7.95625 0.68281 6.74129 1.60908 6.12082 2.51212C4.93777 4.23439 5.00977 2.43556 5.00977 30.2999V55.721L3.04594 55.7843C1.09473 55.8473 1.07877 55.8516 0.541055 56.4547L0 57.0617V60.8489C0 64.1286 0.0504688 64.7999 0.376289 65.8564C0.992676 67.8552 2.28779 69.3374 4.26758 70.3094L5.47363 70.9015L22.6887 70.9508L39.9037 71L40.3546 70.5486C40.9439 69.9583 41.104 69.2642 40.8129 68.5604C40.2917 67.3001 41.4167 67.3802 22.8013 67.2774L5.97164 67.1845L5.25877 66.6162C4.86671 66.3036 4.35794 65.6795 4.12842 65.2294C3.75732 64.5022 3.71094 64.136 3.71094 61.9413V59.4718L17.1167 59.4785L30.5225 59.485L31.2646 60.7017C31.6729 61.371 32.2323 62.037 32.5078 62.182C33.2556 62.5751 61.7444 62.5751 62.4922 62.182C62.7677 62.037 63.3271 61.371 63.7354 60.7017L64.4775 59.485L77.8833 59.4785L91.2891 59.4718V61.9413C91.2891 64.136 91.2427 64.5022 90.8716 65.2294C90.6419 65.6795 90.1333 66.3036 89.7412 66.6162L89.0284 67.1845L72.1987 67.2774C53.5833 67.3802 54.7083 67.3001 54.1871 68.5604C53.896 69.2642 54.0561 69.9583 54.6454 70.5486L55.0963 71L72.3113 70.9508L89.5264 70.9015L90.7324 70.3239C92.0275 69.7035 93.2789 68.5672 93.9852 67.3704C94.8067 65.9787 95 64.715 95 60.7367V57.0617L94.4589 56.4547C93.9214 55.8516 93.9051 55.8473 91.9559 55.7843L89.9941 55.7211L89.9457 30.0442L89.8975 4.36746L89.4423 3.43821C88.8059 2.13857 87.4356 0.855835 86.1817 0.385822L85.1521 0L47.4466 0.0130094C15.9676 0.0239745 9.62673 0.0683925 9.04782 0.281376ZM85.559 4.43845L86.2793 5.16011V26.6474V48.135H73.894H61.5088V37.7739C61.5088 27.6585 61.4995 27.3929 61.1214 26.5744C60.6295 25.51 59.7632 24.6412 58.6102 24.056L57.7051 23.5965V21.164C57.7051 17.2148 56.9646 15.2179 54.6469 12.9165C50.5207 8.81948 44.3823 8.85219 40.2477 12.9935C37.9169 15.3281 37.1187 17.5169 37.1125 21.5905L37.1094 23.7599L36.4253 23.9861C36.049 24.1104 35.3513 24.6027 34.8748 25.08C33.3552 26.6021 33.3849 26.3347 33.4417 37.9709L33.4912 48.135H21.106H8.7207V26.7445C8.7207 3.24642 8.64853 4.75217 9.81042 4.02996C10.2567 3.75248 13.4416 3.72646 47.5683 3.722L84.8385 3.71699L85.559 4.43845ZM49.7266 14.0255C51.5176 14.6451 53.2993 16.5517 53.811 18.3965C53.9106 18.7557 53.9925 20.074 53.993 21.3262L53.9941 23.6029H47.3857H40.7773L40.8526 21.1404C40.9188 18.9752 40.986 18.5517 41.4094 17.6334C42.9174 14.3626 46.3708 12.8645 49.7266 14.0255ZM57.506 27.8096C57.8836 28.2903 57.8906 28.4706 57.8906 37.7274C57.8906 46.9842 57.8836 47.1645 57.506 47.6452L57.1215 48.135H47.4865C38.0989 48.135 37.8421 48.1255 37.4805 47.7633C37.1188 47.401 37.1094 47.1438 37.1094 37.7274C37.1094 28.311 37.1188 28.0538 37.4805 27.6915C37.8421 27.3293 38.0989 27.3198 47.4865 27.3198H57.1215L57.506 27.8096ZM44.5793 34.8443C43.8449 35.1642 43.3124 36.1659 43.4933 36.8876C43.6801 37.6334 44.4197 38.285 45.0795 38.285C45.6369 38.285 45.6445 38.2981 45.6486 39.2607C45.6568 41.1799 47.3176 42.1004 48.6389 40.9181C49.1369 40.4724 49.2404 40.2304 49.3143 39.3383C49.3946 38.3677 49.4371 38.285 49.8566 38.285C50.1123 38.285 50.5495 38.0469 50.8541 37.7417C51.8049 36.7894 51.4781 35.1989 50.2433 34.7678C49.3904 34.4698 45.3126 34.525 44.5793 34.8443ZM86.2793 53.8034V55.7548L74.729 55.7576C65.9237 55.7596 63.0685 55.815 62.7148 55.9904C62.4597 56.117 61.8773 56.7849 61.4205 57.4744L60.5898 58.7284H47.5H34.4102L33.5795 57.4744C33.1227 56.7849 32.5403 56.117 32.2852 55.9904C31.9315 55.815 29.0763 55.7596 20.271 55.7576L8.7207 55.7548V53.8034V51.8519H47.5H86.2793V53.8034ZM46.8059 67.5584C45.0088 68.3273 45.5521 70.9944 47.5058 70.9944C49.1369 70.9944 49.9455 69.2118 48.8452 68.0416C48.2147 67.3713 47.5894 67.223 46.8059 67.5584Z" fill="#E49B00"/>
</svg>
