<svg width="75" height="71" viewBox="0 0 75 71" fill="none" xmlns="http://www.w3.org/2000/svg">
<path fill-rule="evenodd" clip-rule="evenodd" d="M4.1865 0.195976C3.74457 0.314664 3.10934 0.571481 2.775 0.766468C1.87896 1.2896 0.731947 2.61534 0.340656 3.58048L0 4.42051V27.7342V51.0479L0.33229 51.8518C0.807241 53.0006 1.56796 53.962 2.47808 54.5638C4.06248 55.6115 3.49476 55.5656 15.521 55.6186L26.3454 55.6662V58.8018V61.9374H23.0513C19.8411 61.9374 19.7478 61.9457 19.3921 62.2663C19.1913 62.4472 17.9988 64.0356 16.742 65.7961C14.3648 69.1262 14.1885 69.4963 14.6081 70.277C15.0153 71.0345 13.9123 70.9998 37.4831 70.9998C51.0247 70.9998 59.4901 70.9466 59.7186 70.8602C59.9215 70.7833 60.2028 70.545 60.3437 70.3307C60.8799 69.5159 60.7359 69.2018 58.2233 65.7046C56.9313 63.9061 55.7589 62.3392 55.618 62.2225C55.4171 62.0562 54.6455 61.9947 52.0449 61.9374L48.728 61.8643L48.6884 58.7582L48.6487 55.6522L58.8889 55.6493C64.5211 55.6477 69.5535 55.5852 70.0722 55.5105C72.0719 55.2227 73.6427 54.0473 74.5355 52.1705L75 51.1941V27.8073V4.42051L74.6464 3.5435C74.158 2.33163 72.6944 0.874047 71.4775 0.387602L70.5969 0.0354848L37.7935 0.00771302C9.26184 -0.0164046 4.88557 0.0081514 4.1865 0.195976ZM70.1153 3.03835C70.8454 3.24035 71.5333 3.83978 71.862 4.56068C72.1189 5.12357 72.1317 6.01534 72.1347 23.5319L72.138 41.9124H37.5H2.86204L2.86526 23.5319C2.86835 5.97441 2.88068 5.12518 3.13943 4.56667C3.28841 4.24511 3.57798 3.82838 3.78273 3.6407C4.63635 2.85827 2.80274 2.89905 37.4266 2.89291C59.1035 2.88926 69.7472 2.93647 70.1153 3.03835ZM47.8466 7.76979C47.3473 8.26705 47.245 8.80714 47.5355 9.41373C47.9764 10.3343 48.0276 10.3403 55.4795 10.3403C62.9739 10.3403 63.0182 10.335 63.4129 9.39429C63.6756 8.76796 63.5742 8.28298 63.0771 7.78777L62.7046 7.41694H55.4527H48.2009L47.8466 7.76979ZM65.7665 7.8667C64.7614 9.05621 65.9234 10.7316 67.3435 10.1406C67.9347 9.89462 68.1751 9.52979 68.1751 8.87861C68.1751 7.94723 67.6703 7.42848 66.7572 7.42162C66.2524 7.41781 66.0806 7.49499 65.7665 7.8667ZM11.7336 7.99196C9.99159 8.26661 8.49159 9.38874 7.76125 10.9638C7.40005 11.7425 7.33855 12.0563 7.33885 13.121C7.33899 14.2317 7.39095 14.472 7.81717 15.3344C8.37373 16.4602 9.16967 17.2334 10.3297 17.7751C11.0348 18.1043 11.3921 18.1673 12.7898 18.2089C14.4233 18.2576 14.4254 18.2573 14.9106 17.8255C15.476 17.3224 15.5624 16.6236 15.1391 15.9802C14.7916 15.4521 14.346 15.31 13.0364 15.31C11.6451 15.31 10.9275 14.9593 10.4941 14.0676C10.1285 13.3154 10.1222 12.7481 10.4724 12.092C10.933 11.2288 11.5394 10.9263 12.8275 10.9168C14.346 10.9055 14.9034 10.6963 15.2392 10.0123C15.4661 9.54967 15.4811 9.38494 15.3361 8.94746C15.2417 8.66272 15.0032 8.32449 14.8061 8.19586C14.3874 7.92253 12.829 7.81919 11.7336 7.99196ZM17.9937 8.2574C17.3273 8.80407 17.3614 10.1218 18.0534 10.5734C18.6167 10.9409 19.4169 10.8754 19.8694 10.4246C20.3968 9.89945 20.4107 8.92173 19.8986 8.37887C19.4632 7.91727 18.4845 7.85486 17.9937 8.2574ZM26.7979 8.2574C26.319 8.64781 23.652 16.3788 23.7599 17.064C23.9156 18.0535 24.9408 18.5108 25.8982 18.0176C26.3737 17.7728 26.4787 17.5262 28.1015 12.8405C28.6694 11.2009 29.1341 9.61486 29.1341 9.31594C29.1341 8.53249 28.5693 8.00161 27.7359 8.00161C27.3589 8.00161 26.9875 8.1029 26.7979 8.2574ZM18.4722 15.4481C17.6 15.8175 17.4059 17.0998 18.1149 17.8061C19.0204 18.7076 20.4746 18.0822 20.4746 16.7911C20.4746 15.7496 19.424 15.045 18.4722 15.4481ZM7.42911 22.7106C7.2411 22.8417 6.99437 23.1706 6.88077 23.4414C6.70318 23.8649 6.70318 24.0028 6.88077 24.4263C7.28293 25.3847 7.33664 25.3955 11.7082 25.3955C15.9832 25.3955 16.2866 25.3463 16.6299 24.5957C16.8517 24.111 16.8517 23.7567 16.6299 23.272C16.2866 22.5214 15.9832 22.4722 11.7082 22.4722C8.30563 22.4722 7.72441 22.5045 7.42911 22.7106ZM21.6157 22.7001C20.8261 23.1269 20.6573 24.204 21.269 24.9123L21.6232 25.3224L34.344 25.3613L47.0646 25.4004L47.5662 24.9009C48.2457 24.2241 48.2464 23.6443 47.5685 22.9691L47.0695 22.4722L34.5426 22.478C23.7735 22.483 21.9596 22.5143 21.6157 22.7001ZM52.1658 22.8994C51.8294 23.2346 51.7368 23.4576 51.7368 23.9339C51.7368 24.4101 51.8294 24.6331 52.1658 24.9683L52.5948 25.3955H59.9121C68.03 25.3955 67.6961 25.435 68.1192 24.4263C68.2968 24.0028 68.2968 23.8649 68.1192 23.4414C67.6961 22.4327 68.03 22.4722 59.9121 22.4722H52.5948L52.1658 22.8994ZM7.30201 29.1631C6.59927 29.7018 6.63919 31.0186 7.37275 31.4973C7.73997 31.7369 8.59711 31.7538 20.3278 31.7538C32.0585 31.7538 32.9156 31.7369 33.2828 31.4973C33.6966 31.2272 33.9655 30.5147 33.8604 29.9669C33.826 29.7879 33.6311 29.4755 33.4274 29.2725L33.0568 28.9035L20.3445 28.9068C8.51727 28.9098 7.60905 28.9277 7.30201 29.1631ZM37.7454 29.2022C36.9451 29.8292 37.1269 31.0908 38.0872 31.5733C38.5635 31.8126 39.2329 31.8285 47.3092 31.7925L56.0174 31.7538L56.4456 31.2764C57.0308 30.6241 57.0304 29.9141 56.4448 29.3308L56.0158 28.9035H47.0712C38.2857 28.9035 38.12 28.9088 37.7454 29.2022ZM7.25284 35.5957C6.50328 36.2626 6.65724 37.4286 7.55577 37.8914C7.93239 38.0852 10.5809 38.1121 29.3542 38.1121C48.1275 38.1121 50.776 38.0852 51.1526 37.8914C51.6951 37.6119 51.8836 37.2602 51.8836 36.5269C51.8836 36.0573 51.7968 35.873 51.4319 35.5672L50.9805 35.1887H29.3453H7.71018L7.25284 35.5957ZM54.7587 35.6385C53.5377 37.0835 55.4746 38.9341 56.813 37.6012C57.3719 37.0446 57.2571 35.8839 56.593 35.3761C56.4649 35.2782 56.0853 35.1959 55.7494 35.1934C55.2446 35.1896 55.0728 35.2668 54.7587 35.6385ZM60.4926 35.3544C60.1091 35.5764 59.7966 36.4047 59.9008 36.9235C60.2024 38.4259 62.3966 38.3791 62.6819 36.8641C62.7838 36.3233 62.4577 35.573 62.0188 35.3393C61.6551 35.1453 60.8397 35.1534 60.4926 35.3544ZM65.7665 35.6385C65.123 36.4 65.3219 37.5083 66.175 37.9133C67.6079 38.5939 68.8358 36.87 67.7952 35.6385C67.4789 35.264 67.3091 35.1887 66.7808 35.1887C66.2526 35.1887 66.0828 35.264 65.7665 35.6385ZM72.0646 47.8322C72.0646 50.6419 72.0512 50.7769 71.7216 51.305C71.533 51.6071 71.0978 52.0183 70.7547 52.2186L70.1307 52.5827H37.5925C10.596 52.5827 4.97334 52.549 4.57955 52.3852C3.95225 52.1241 3.20915 51.2639 3.01761 50.5768C2.85015 49.9761 2.80039 45.092 2.96023 44.933C3.01424 44.8792 18.5847 44.8517 37.5615 44.872L72.0646 44.9089V47.8322ZM33.6727 47.7479C33.1098 48.3084 33.0781 49.1588 33.5977 49.7608L33.9517 50.1709L37.403 50.2149L40.8545 50.2589L41.3388 49.8279C41.7412 49.4697 41.8231 49.293 41.8231 48.7823C41.8231 48.2736 41.741 48.0947 41.347 47.7442L40.871 47.3206H37.4864H34.1017L33.6727 47.7479ZM45.7192 58.7948V61.9374H37.5H29.2808V58.7948V55.6522H37.5H45.7192V58.7948ZM55.1407 66.432L56.2573 68.0033L37.6082 68.0405C27.3512 68.0608 18.9294 68.048 18.8931 68.0119C18.8569 67.9758 19.3135 67.2545 19.9077 66.4091L20.9883 64.8718L37.5062 64.8663L54.0242 64.8607L55.1407 66.432Z" fill="#E49B00"/>
</svg>
