<svg width="45" height="71" viewBox="0 0 45 71" fill="none" xmlns="http://www.w3.org/2000/svg">
<path fill-rule="evenodd" clip-rule="evenodd" d="M5.40371 0.228582C2.84949 0.907402 0.906079 2.84477 0.237115 5.37918C-0.0790383 6.57675 -0.0790383 64.4125 0.237115 65.6101C0.913944 68.1743 2.86522 70.0997 5.46383 70.7676C6.66987 71.0775 38.3301 71.0775 39.5362 70.7676C42.1348 70.0997 44.0861 68.1743 44.7629 65.6101C45.079 64.4125 45.079 6.57675 44.7629 5.37918C44.0861 2.81497 42.1348 0.889523 39.5362 0.221653C38.3693 -0.0782584 6.53377 -0.0717447 5.40371 0.228582ZM10.3072 5.33622C11.2491 7.19847 11.6995 7.94534 11.9786 8.10804C12.32 8.30706 13.4398 8.33076 22.5 8.33076C31.5602 8.33076 32.68 8.30706 33.0214 8.10804C33.3006 7.94534 33.7523 7.1957 34.7005 5.32111L35.9975 2.7569L37.5002 2.81303C38.6362 2.85558 39.1623 2.94039 39.6558 3.16062C40.4863 3.53135 41.4032 4.43316 41.791 5.2611L42.0928 5.90541V35.4946V65.0838L41.791 65.7281C41.4051 66.5518 40.4905 67.4543 39.6558 67.835L39.0029 68.1328H22.5H5.99711L5.34416 67.835C4.50947 67.4543 3.59486 66.5518 3.20904 65.7281L2.90721 65.0838L2.86437 35.9104C2.83362 14.9827 2.86536 6.53503 2.97673 6.02252C3.16367 5.16243 3.78109 4.20241 4.49065 3.66841C5.31102 3.05099 6.24683 2.79681 7.71805 2.79169L9.01777 2.78711L10.3072 5.33622ZM32.1911 4.17302L31.4863 5.55894H22.5H13.5137L12.8089 4.17302L12.1042 2.78711H22.5H32.8958L32.1911 4.17302ZM6.68363 12.9015C6.52057 12.9665 6.25189 13.1893 6.08672 13.3965C5.79992 13.7563 5.78644 13.9149 5.78644 16.9399V20.1066L6.19599 20.5592L6.60554 21.0118L9.9078 21.0536L13.2099 21.0953L13.6765 20.6838L14.1432 20.2723V16.9234V13.5745L13.6845 13.1701L13.2258 12.7657L10.103 12.7744C8.38547 12.7793 6.84684 12.8365 6.68363 12.9015ZM17.9354 12.8915C17.0403 13.2696 16.8036 14.4145 17.4821 15.0839C18.335 15.9256 19.7549 15.3431 19.7549 14.1516C19.7549 13.239 18.7538 12.5456 17.9354 12.8915ZM23.5534 12.8948C22.6581 13.2624 22.4216 14.4144 23.1032 15.0871L23.4895 15.4682H31.0675H38.6454L39.0317 15.0871C39.5706 14.5552 39.5706 13.748 39.0317 13.2161L38.6456 12.835L31.2399 12.8073C27.1669 12.792 23.7079 12.8314 23.5534 12.8948ZM11.4044 16.9234V18.3093H9.99994H8.59544V16.9234V15.5375H9.99994H11.4044V16.9234ZM17.9196 18.4451C17.4775 18.6214 17.0224 19.2638 17.0224 19.7117C17.0224 19.9522 17.1827 20.2837 17.4321 20.5592L17.8417 21.0118L21.8472 21.0526L25.8527 21.0932L26.315 20.6856C26.699 20.347 26.7774 20.1792 26.7774 19.6952C26.7774 19.2129 26.6988 19.0433 26.3218 18.711L25.8663 18.3093L22.0413 18.3181C19.9375 18.3229 18.0828 18.3801 17.9196 18.4451ZM30.5601 18.4451C30.118 18.6214 29.663 19.2638 29.663 19.7117C29.663 19.9522 29.8232 20.2837 30.0726 20.5592L30.4822 21.0118L34.4877 21.0526L38.4932 21.0932L38.9556 20.6856C39.3395 20.347 39.4179 20.1792 39.4179 19.6952C39.4179 19.2129 39.3393 19.0433 38.9623 18.711L38.5068 18.3093L34.6818 18.3181C32.578 18.3229 30.7234 18.3801 30.5601 18.4451ZM6.68363 23.9888C6.52057 24.0538 6.25189 24.2766 6.08672 24.4838C5.79992 24.8436 5.78644 25.0022 5.78644 28.0272V31.1939L6.19599 31.6465L6.60554 32.0991L9.9078 32.1409L13.2099 32.1826L13.6765 31.7711L14.1432 31.3596V28.0107V24.6618L13.6845 24.2574L13.2258 23.853L10.103 23.8617C8.38547 23.8665 6.84684 23.9238 6.68363 23.9888ZM17.9354 23.9788C17.0403 24.3569 16.8036 25.5018 17.4821 26.1712C18.335 27.0128 19.7549 26.4303 19.7549 25.2389C19.7549 24.3263 18.7538 23.6329 17.9354 23.9788ZM23.5534 23.9821C22.6581 24.3497 22.4216 25.5016 23.1032 26.1744L23.4895 26.5555H31.0675H38.6454L39.0317 26.1744C39.5706 25.6425 39.5706 24.8353 39.0317 24.3034L38.6456 23.9223L31.2399 23.8945C27.1669 23.8793 23.7079 23.9187 23.5534 23.9821ZM11.4044 28.0107V29.3966H9.99994H8.59544V28.0107V26.6248H9.99994H11.4044V28.0107ZM17.9196 29.5324C17.4775 29.7087 17.0224 30.3511 17.0224 30.799C17.0224 31.0395 17.1827 31.3708 17.4323 31.6465L17.842 32.0991L28.1715 32.1364L38.5009 32.1737L38.9593 31.7694C39.3394 31.4345 39.4179 31.2655 39.4179 30.7825C39.4179 30.3002 39.3393 30.1306 38.9623 29.7982L38.5068 29.3966L28.3615 29.4053C22.7816 29.4102 18.0828 29.4674 17.9196 29.5324ZM6.68363 35.0761C6.52057 35.1411 6.25189 35.3639 6.08672 35.5711C5.79992 35.9309 5.78644 36.0895 5.78644 39.1145V42.2811L6.19599 42.7338L6.60554 43.1864L9.9078 43.2281L13.2099 43.2699L13.6765 42.8584L14.1432 42.4469V39.098V35.7491L13.6845 35.3447L13.2258 34.9403L10.103 34.949C8.38547 34.9538 6.84684 35.0111 6.68363 35.0761ZM17.9354 35.0661C17.0403 35.4442 16.8036 36.5891 17.4821 37.2585C18.335 38.1001 19.7549 37.5176 19.7549 36.3262C19.7549 35.4135 18.7538 34.7202 17.9354 35.0661ZM23.5534 35.0694C22.6581 35.437 22.4216 36.5889 23.1032 37.2617L23.4895 37.6428H31.0675H38.6454L39.0317 37.2617C39.5706 36.7297 39.5706 35.9226 39.0317 35.3907L38.6456 35.0096L31.2399 34.9818C27.1669 34.9666 23.7079 35.0059 23.5534 35.0694ZM11.4044 39.098V40.4839H9.99994H8.59544V39.098V37.7121H9.99994H11.4044V39.098ZM17.9354 40.6118C17.0394 40.9835 16.8036 42.1326 17.4852 42.8053L17.8715 43.1864H22.0786H26.2858L26.6721 42.8053C27.211 42.2735 27.211 41.4662 26.6722 40.9343L26.2861 40.5532L22.2513 40.5242C20.032 40.5083 18.0899 40.5476 17.9354 40.6118ZM30.8568 40.6097C29.9617 40.9878 29.725 42.1327 30.4035 42.8021C30.6929 43.0877 30.9239 43.1802 31.3484 43.1802C32.9816 43.1802 33.171 40.8246 31.559 40.5601C31.3273 40.522 31.0113 40.5443 30.8568 40.6097ZM36.4748 40.6077C35.5763 40.9938 35.343 42.1327 36.0246 42.8053C36.3814 43.1572 36.4967 43.1864 37.5282 43.1864C38.5596 43.1864 38.6749 43.1572 39.0317 42.8053C39.5685 42.2755 39.5706 41.4661 39.0363 40.9389C38.7074 40.6144 38.5235 40.5572 37.7053 40.5246C37.1829 40.504 36.6293 40.5413 36.4748 40.6077ZM6.68363 46.1634C6.52057 46.2284 6.25189 46.4512 6.08672 46.6584C5.79992 47.0182 5.78644 47.1767 5.78644 50.2018V53.3684L6.19599 53.8211L6.60554 54.2737L9.9078 54.3154L13.2099 54.3571L13.6765 53.9457L14.1432 53.5342V50.1853V46.8364L13.6845 46.432L13.2258 46.0275L10.103 46.0363C8.38547 46.0411 6.84684 46.0984 6.68363 46.1634ZM17.9354 46.1534C17.0403 46.5315 16.8036 47.6764 17.4821 48.3458C18.335 49.1874 19.7549 48.6049 19.7549 47.4135C19.7549 46.5008 18.7538 45.8075 17.9354 46.1534ZM23.5534 46.1567C22.6581 46.5243 22.4216 47.6762 23.1032 48.3489L23.4895 48.7301H31.0675H38.6454L39.0317 48.3489C39.5706 47.817 39.5706 47.0099 39.0317 46.478L38.6456 46.0968L31.2399 46.0691C27.1669 46.0539 23.7079 46.0932 23.5534 46.1567ZM11.4044 50.1853V51.5712H9.99994H8.59544V50.1853V48.7994H9.99994H11.4044V50.1853ZM17.9196 51.707C17.4775 51.8833 17.0224 52.5257 17.0224 52.9736C17.0224 53.214 17.1827 53.5454 17.4323 53.8211L17.842 54.2737L28.1715 54.311L38.5009 54.3483L38.9593 53.944C39.3394 53.609 39.4179 53.4401 39.4179 52.9571C39.4179 52.4748 39.3393 52.3052 38.9623 51.9728L38.5068 51.5712L28.3615 51.5799C22.7816 51.5848 18.0828 51.642 17.9196 51.707ZM6.68363 57.2507C6.52057 57.3157 6.25189 57.5385 6.08672 57.7457C5.79992 58.1055 5.78644 58.264 5.78644 61.2891V64.4557L6.19599 64.9084L6.60554 65.361L9.9078 65.4027L13.2099 65.4444L13.6765 65.033L14.1432 64.6215V61.2726V57.9237L13.6845 57.5192L13.2258 57.1148L10.103 57.1236C8.38547 57.1284 6.84684 57.1857 6.68363 57.2507ZM17.9354 57.2407C17.4892 57.4292 17.1574 57.8725 17.0715 58.3953C17.0052 58.7979 17.0623 58.9563 17.4142 59.3448C17.7636 59.7306 17.9358 59.8111 18.4126 59.8111C20.0584 59.8111 20.2605 57.4573 18.6376 57.1911C18.4059 57.1529 18.0899 57.1753 17.9354 57.2407ZM23.5534 57.2458C23.1105 57.4247 22.7758 57.8702 22.6895 58.3953C22.6232 58.7983 22.6805 58.9563 23.035 59.348L23.46 59.8174L30.9794 59.8555L38.4989 59.8937L38.9584 59.4886C39.3394 59.1527 39.4179 58.984 39.4179 58.5007C39.4179 58.0184 39.3393 57.8488 38.9623 57.5165L38.5068 57.1148L31.1705 57.1236C27.1356 57.1284 23.7079 57.1834 23.5534 57.2458ZM11.4044 61.2726V62.6585H9.99994H8.59544V61.2726V59.8867H9.99994H11.4044V61.2726ZM17.9196 62.7943C17.4775 62.9706 17.0224 63.613 17.0224 64.0609C17.0224 64.3013 17.1827 64.6329 17.4321 64.9084L17.842 65.361L25.3614 65.3991L32.8809 65.4374L33.3404 65.0323C33.7214 64.6963 33.7999 64.5277 33.7999 64.0444C33.7999 63.5621 33.7213 63.3925 33.3443 63.0601L32.8888 62.6585L25.5525 62.6672C21.5176 62.6721 18.0828 62.7293 17.9196 62.7943Z" fill="#E49B00"/>
</svg>
