<svg width="1454" height="132" viewBox="0 0 1454 132" fill="none" xmlns="http://www.w3.org/2000/svg">
<path d="M31.3486 97.8652L31.1589 98.3278L31.1589 98.3278L31.3486 97.8652ZM19.7255 89.0886L19.3225 89.3846L19.3265 89.3899L19.7255 89.0886ZM15.2186 75.0934V74.5934H14.7039L14.7188 75.1079L15.2186 75.0934ZM36.8043 75.0934L37.3017 75.0424L37.2556 74.5934H36.8043V75.0934ZM40.0066 82.2096L39.6693 82.579L39.6785 82.5869L40.0066 82.2096ZM54.2389 82.5654L54.5447 82.9612L54.5555 82.9524L54.2389 82.5654ZM54.7133 71.654L54.3597 72.0075L54.3648 72.0126L54.37 72.0175L54.7133 71.654ZM49.6134 68.3331L49.412 68.7908L49.4185 68.7936L49.6134 68.3331ZM41.074 65.368L40.9264 65.8458L40.9312 65.8472L41.074 65.368ZM19.1325 53.0334L19.5313 52.7318L19.5313 52.7318L19.1325 53.0334ZM23.8766 22.1967L24.1828 22.592L24.1862 22.5893L23.8766 22.1967ZM67.9968 22.1967L67.6871 22.5893L67.6906 22.5919L67.9968 22.1967ZM77.0106 40.4615V40.9615H77.5365L77.5099 40.4363L77.0106 40.4615ZM55.0691 40.4615L54.5699 40.4908L54.5976 40.9615H55.0691V40.4615ZM52.104 34.1755L51.7758 34.553L51.7856 34.561L52.104 34.1755ZM39.1763 33.8197L39.4984 34.2022L39.5041 34.1974L39.5097 34.1923L39.1763 33.8197ZM40.7182 45.68L40.9734 45.2501L40.9734 45.2501L40.7182 45.68ZM52.5784 50.5427L52.7386 50.069L52.7323 50.067L52.5784 50.5427ZM65.6247 55.7612L65.4011 56.2084L65.4053 56.2105L65.6247 55.7612ZM74.4013 62.996L74.0061 63.3023L74.0061 63.3023L74.4013 62.996ZM74.4013 88.1397L73.9787 87.8724L73.9749 87.8787L74.4013 88.1397ZM63.9643 97.3907L63.7407 96.9435L63.7407 96.9435L63.9643 97.3907ZM47.7157 100.33C41.6817 100.33 36.2919 99.3508 31.5382 97.4025L31.1589 98.3278C36.0515 100.333 41.5732 101.33 47.7157 101.33V100.33ZM31.5382 97.4025C26.7917 95.4572 22.992 92.5847 20.1245 88.7873L19.3265 89.3899C22.3101 93.3411 26.2591 96.3197 31.1589 98.3278L31.5382 97.4025ZM20.1284 88.7925C17.35 85.0108 15.874 80.4474 15.7184 75.079L14.7188 75.1079C14.8795 80.6509 16.4081 85.4176 19.3226 89.3846L20.1284 88.7925ZM15.2186 75.5934H36.8043V74.5934H15.2186V75.5934ZM36.3069 75.1445C36.6323 78.3175 37.7385 80.8158 39.6694 82.5788L40.3437 81.8404C38.6375 80.2825 37.6088 78.0367 37.3017 75.0424L36.3069 75.1445ZM39.6785 82.5869C41.6065 84.2634 44.1035 85.0817 47.1227 85.0817V84.0817C44.2908 84.0817 42.0438 83.3185 40.3346 81.8323L39.6785 82.5869ZM47.1227 85.0817C50.1979 85.0817 52.6904 84.3939 54.5446 82.9611L53.9331 82.1698C52.3084 83.4253 50.0568 84.0817 47.1227 84.0817V85.0817ZM54.5555 82.9524C56.4225 81.4248 57.3481 79.3395 57.3481 76.7539H56.3481C56.3481 79.0705 55.5342 80.8595 53.9222 82.1784L54.5555 82.9524ZM57.3481 76.7539C57.3481 74.5683 56.5853 72.7343 55.0566 71.2905L54.37 72.0175C55.6877 73.262 56.3481 74.8279 56.3481 76.7539H57.3481ZM55.0668 71.3004C53.6699 69.9035 51.9131 68.7632 49.8082 67.8726L49.4185 68.7936C51.4252 69.6425 53.0683 70.7161 54.3597 72.0075L55.0668 71.3004ZM49.8147 67.8754C47.8096 66.9932 44.9399 65.9979 41.2167 64.8888L40.9312 65.8472C44.6405 66.9521 47.4637 67.9335 49.412 68.7908L49.8147 67.8754ZM41.2215 64.8903C35.8589 63.2342 31.497 61.5825 28.1285 59.9374L27.6897 60.836C31.121 62.5118 35.5358 64.181 40.9264 65.8458L41.2215 64.8903ZM28.1285 59.9374C24.8043 58.314 21.9387 55.9157 19.5313 52.7318L18.7337 53.3349C21.2286 56.6346 24.214 59.1386 27.6897 60.836L28.1285 59.9374ZM19.5313 52.7318C17.1624 49.5988 15.9558 45.4837 15.9558 40.3429H14.9558C14.9558 45.6391 16.2003 49.9844 18.7337 53.3349L19.5313 52.7318ZM15.9558 40.3429C15.9558 32.7326 18.7035 26.8365 24.1828 22.5919L23.5704 21.8014C17.822 26.2544 14.9558 32.4557 14.9558 40.3429H15.9558ZM24.1862 22.5893C29.691 18.2475 36.8868 16.0549 45.8181 16.0549V15.0549C36.7218 15.0549 29.2899 17.2902 23.5669 21.8041L24.1862 22.5893ZM45.8181 16.0549C54.9098 16.0549 62.1838 18.2486 67.6871 22.5893L68.3064 21.8041C62.582 17.2891 55.0702 15.0549 45.8181 15.0549V16.0549ZM67.6906 22.5919C73.1764 26.8415 76.1224 32.7875 76.5112 40.4867L77.5099 40.4363C77.1081 32.4799 74.0449 26.2494 68.303 21.8014L67.6906 22.5919ZM77.0106 39.9615L55.0691 39.9615V40.9615L77.0106 40.9615V39.9615ZM55.5682 40.4321C55.4032 37.6267 54.3637 35.3937 52.4225 33.7901L51.7856 34.561C53.4815 35.962 54.4187 37.9196 54.5699 40.4908L55.5682 40.4321ZM52.4321 33.7982C50.5066 32.1238 48.0505 31.3035 45.1065 31.3035V32.3035C47.8554 32.3035 50.0643 33.0645 51.7759 34.5528L52.4321 33.7982ZM45.1065 31.3035C42.5602 31.3035 40.4557 32.0041 38.8429 33.4471L39.5097 34.1923C40.9015 32.9471 42.7505 32.3035 45.1065 32.3035V31.3035ZM38.8543 33.4373C37.2119 34.8203 36.4229 36.8352 36.4229 39.3941H37.4229C37.4229 37.0506 38.1362 35.3493 39.4984 34.2022L38.8543 33.4373ZM36.4229 39.3941C36.4229 42.2781 37.7983 44.5278 40.4629 46.1099L40.9734 45.2501C38.5776 43.8276 37.4229 41.8867 37.4229 39.3941H36.4229ZM40.4629 46.1099C43.0422 47.6414 47.0385 49.2759 52.4245 51.0184L52.7323 50.067C47.365 48.3305 43.4545 46.7232 40.9734 45.2501L40.4629 46.1099ZM52.4182 51.0163C57.7832 52.831 62.1084 54.5621 65.4011 56.2084L65.8483 55.314C62.4992 53.6395 58.1269 51.8916 52.7386 50.0691L52.4182 51.0163ZM65.4053 56.2105C68.7325 57.8354 71.5991 60.1964 74.0061 63.3023L74.7965 62.6897C72.3013 59.47 69.3168 57.0079 65.8441 55.3119L65.4053 56.2105ZM74.0061 63.3023C76.3741 66.3577 77.578 70.3139 77.578 75.212H78.578C78.578 70.1476 77.3308 65.9597 74.7965 62.6897L74.0061 63.3023ZM77.578 75.212C77.578 79.865 76.3775 84.0809 73.9788 87.8724L74.8239 88.4071C77.3274 84.4498 78.578 80.0473 78.578 75.212H77.578ZM73.9749 87.8787C71.6578 91.6633 68.254 94.6869 63.7407 96.9435L64.1879 97.838C68.8465 95.5087 72.4008 92.3649 74.8277 88.4008L73.9749 87.8787ZM63.7407 96.9435C59.2377 99.195 53.9012 100.33 47.7157 100.33V101.33C54.0231 101.33 59.519 100.172 64.1879 97.838L63.7407 96.9435ZM151.877 40.6987L151.506 41.0345L151.509 41.0373L151.877 40.6987ZM158.756 100V100.5H159.256V100H158.756ZM138.593 100H138.093V100.5H138.593V100ZM135.154 53.745L134.789 54.0866L134.789 54.0866L135.154 53.745ZM116.652 53.745L117.017 54.0866L117.017 54.0866L116.652 53.745ZM113.212 100V100.5H113.712V100H113.212ZM92.9311 100H92.4311V100.5H92.9311V100ZM92.9311 12.2341V11.7341H92.4311V12.2341H92.9311ZM113.212 12.2341H113.712V11.7341H113.212V12.2341ZM113.212 42.7149H112.712L112.712 44.2961L113.621 43.0024L113.212 42.7149ZM121.633 35.7174L121.413 35.2682L121.413 35.2682L121.633 35.7174ZM133.612 33.6081C141.079 33.6081 147.026 36.091 151.506 41.0344L152.247 40.3629C147.555 35.1856 141.326 32.6081 133.612 32.6081V33.6081ZM151.509 41.0373C155.987 45.9016 158.256 52.6461 158.256 61.3355H159.256C159.256 52.4718 156.938 45.4584 152.244 40.36L151.509 41.0373ZM158.256 61.3355L158.256 100H159.256L159.256 61.3355H158.256ZM158.756 99.5H138.593V100.5H158.756V99.5ZM139.093 100L139.093 64.0634H138.093L138.093 100H139.093ZM139.093 64.0634C139.093 59.5503 137.923 55.9736 135.519 53.4034L134.789 54.0866C136.97 56.4186 138.093 59.7208 138.093 64.0634H139.093ZM135.519 53.4034C133.116 50.8353 129.892 49.5683 125.903 49.5683V50.5683C129.662 50.5683 132.605 51.7524 134.789 54.0866L135.519 53.4034ZM125.903 49.5683C121.913 49.5683 118.689 50.8353 116.287 53.4034L117.017 54.0866C119.2 51.7524 122.143 50.5683 125.903 50.5683V49.5683ZM116.287 53.4034C113.882 55.9736 112.712 59.5503 112.712 64.0634H113.712C113.712 59.7208 114.835 56.4186 117.017 54.0866L116.287 53.4034ZM112.712 64.0634V100H113.712V64.0634H112.712ZM113.212 99.5H92.9311V100.5H113.212V99.5ZM93.4311 100L93.4311 12.2341H92.4311L92.4311 100H93.4311ZM92.9311 12.7341L113.212 12.7341V11.7341L92.9311 11.7341V12.7341ZM112.712 12.2341V42.7149H113.712V12.2341H112.712ZM113.621 43.0024C115.623 40.1531 118.362 37.8731 121.853 36.1666L121.413 35.2682C117.788 37.0407 114.912 39.4257 112.803 42.4275L113.621 43.0024ZM121.853 36.1666C125.335 34.4643 129.251 33.6081 133.612 33.6081V32.6081C129.117 32.6081 125.048 33.4915 121.413 35.2682L121.853 36.1666ZM187.793 96.7977L187.556 97.238L187.559 97.2395L187.793 96.7977ZM175.577 84.9375L175.142 85.1848L175.145 85.1898L175.577 84.9375ZM175.695 49.0009L176.127 49.2532L176.129 49.2504L175.695 49.0009ZM188.03 37.022L188.264 37.4637L188.264 37.4637L188.03 37.022ZM223.136 37.022L222.902 37.4637L222.902 37.4637L223.136 37.022ZM235.471 49.0009L235.038 49.2504L235.039 49.2532L235.471 49.0009ZM235.352 84.9375L234.922 84.6831L234.921 84.6851L235.352 84.9375ZM222.899 96.7977L222.668 96.3545L222.665 96.356L222.899 96.7977ZM215.19 79.1259L214.832 78.7774L214.827 78.7826L215.19 79.1259ZM215.309 54.6938L214.94 55.0317L214.945 55.0371L215.309 54.6938ZM195.739 54.6938L196.103 55.0368L196.108 55.0317L195.739 54.6938ZM195.621 79.1259L195.247 79.4582L195.252 79.4638L195.621 79.1259ZM205.346 100.449C198.936 100.449 193.167 99.0815 188.027 96.356L187.559 97.2395C192.856 100.049 198.789 101.449 205.346 101.449V100.449ZM188.03 96.3575C182.973 93.6346 178.968 89.7469 176.008 84.6851L175.145 85.1898C178.195 90.4069 182.334 94.4261 187.556 97.238L188.03 96.3575ZM176.011 84.6901C173.135 79.6376 171.688 73.7164 171.688 66.9099H170.688C170.688 73.8613 172.167 79.9585 175.142 85.1848L176.011 84.6901ZM171.688 66.9099C171.688 60.1858 173.173 54.3057 176.127 49.2532L175.264 48.7485C172.208 53.9749 170.688 60.0341 170.688 66.9099H171.688ZM176.129 49.2504C179.087 44.1117 183.131 40.1862 188.264 37.4637L187.796 36.5803C182.492 39.3926 178.313 43.453 175.262 48.7514L176.129 49.2504ZM188.264 37.4637C193.404 34.7382 199.173 33.3709 205.583 33.3709V32.3709C199.026 32.3709 193.093 33.771 187.796 36.5803L188.264 37.4637ZM205.583 33.3709C211.993 33.3709 217.763 34.7382 222.902 37.4637L223.371 36.5803C218.073 33.771 212.14 32.3709 205.583 32.3709V33.3709ZM222.902 37.4637C228.036 40.1862 232.079 44.1117 235.038 49.2504L235.904 48.7514C232.854 43.453 228.674 39.3926 223.371 36.5803L222.902 37.4637ZM235.039 49.2532C237.993 54.3057 239.478 60.1858 239.478 66.9099H240.478C240.478 60.0341 238.958 53.9749 235.903 48.7485L235.039 49.2532ZM239.478 66.9099C239.478 73.6314 237.955 79.5507 234.922 84.6831L235.783 85.1918C238.918 79.8872 240.478 73.7881 240.478 66.9099H239.478ZM234.921 84.6851C231.964 89.7431 227.882 93.6305 222.668 96.3546L223.131 97.2409C228.511 94.4302 232.732 90.4108 235.784 85.1898L234.921 84.6851ZM222.665 96.356C217.525 99.0815 211.756 100.449 205.346 100.449V101.449C211.903 101.449 217.836 100.049 223.133 97.2395L222.665 96.356ZM205.346 83.8956C209.36 83.8956 212.772 82.4145 215.554 79.4692L214.827 78.7826C212.232 81.5303 209.081 82.8956 205.346 82.8956V83.8956ZM215.549 79.4745C218.434 76.5069 219.841 72.2929 219.841 66.9099H218.841C218.841 72.122 217.481 76.0521 214.832 78.7774L215.549 79.4745ZM219.841 66.9099C219.841 61.5305 218.475 57.3185 215.672 54.3505L214.945 55.0371C217.519 57.762 218.841 61.694 218.841 66.9099H219.841ZM215.677 54.3559C212.973 51.4058 209.597 49.9241 205.583 49.9241V50.9241C209.318 50.9241 212.426 52.2889 214.94 55.0317L215.677 54.3559ZM205.583 49.9241C201.493 49.9241 198.077 51.4034 195.371 54.3559L196.108 55.0317C198.62 52.2913 201.766 50.9241 205.583 50.9241V49.9241ZM195.375 54.3508C192.648 57.2434 191.325 61.4586 191.325 66.9099H192.325C192.325 61.6079 193.612 57.679 196.103 55.0368L195.375 54.3508ZM191.325 66.9099C191.325 72.282 192.608 76.4898 195.247 79.4581L195.994 78.7938C193.572 76.0692 192.325 72.1329 192.325 66.9099H191.325ZM195.252 79.4638C197.956 82.414 201.332 83.8956 205.346 83.8956V82.8956C201.611 82.8956 198.503 81.5308 195.989 78.7881L195.252 79.4638ZM273.391 43.1893H272.891V44.8958L273.812 43.4592L273.391 43.1893ZM281.574 35.7174L281.335 35.2784L281.335 35.2784L281.574 35.7174ZM308.616 37.022L308.351 37.446L308.351 37.446L308.616 37.022ZM319.053 48.8823L318.604 49.1031L318.607 49.1086L319.053 48.8823ZM319.053 84.8189L318.605 84.5953L318.604 84.598L319.053 84.8189ZM308.616 96.7977L308.881 97.2218L308.886 97.2183L308.616 96.7977ZM281.574 98.1024L281.335 98.5413L281.339 98.5435L281.574 98.1024ZM273.391 90.749L273.808 90.4742L272.891 89.0793V90.749H273.391ZM273.391 131.548V132.048H273.891V131.548H273.391ZM253.11 131.548H252.61V132.048H253.11V131.548ZM253.11 33.8197V33.3197H252.61V33.8197H253.11ZM273.391 33.8197H273.891V33.3197H273.391V33.8197ZM298.06 54.931L297.697 55.2747L297.706 55.2846L298.06 54.931ZM277.423 54.931L277.065 54.5823L277.06 54.5874L277.423 54.931ZM277.423 78.8887L277.06 79.2324L277.065 79.2374L277.423 78.8887ZM298.06 78.8887L298.418 79.2374L298.423 79.2326L298.06 78.8887ZM273.812 43.4592C275.739 40.452 278.402 38.0171 281.814 36.1563L281.335 35.2784C277.788 37.2129 274.995 39.7594 272.97 42.9195L273.812 43.4592ZM281.814 36.1563C285.207 34.3053 289.194 33.3709 293.79 33.3709V32.3709C289.056 32.3709 284.899 33.3342 281.335 35.2784L281.814 36.1563ZM293.79 33.3709C299.157 33.3709 304.006 34.7306 308.351 37.446L308.881 36.598C304.37 33.7787 299.335 32.3709 293.79 32.3709V33.3709ZM308.351 37.446C312.692 40.1593 316.111 44.0388 318.604 49.1031L319.501 48.6614C316.934 43.4469 313.395 39.4194 308.881 36.598L308.351 37.446ZM318.607 49.1086C321.175 54.1664 322.466 60.056 322.466 66.7913H323.466C323.466 59.9268 322.149 53.8771 319.498 48.6559L318.607 49.1086ZM322.466 66.7913C322.466 73.5264 321.175 79.4568 318.605 84.5953L319.5 85.0425C322.149 79.7439 323.466 73.6559 323.466 66.7913H322.466ZM318.604 84.598C316.11 89.6634 312.69 93.5841 308.345 96.3771L308.886 97.2183C313.397 94.3184 316.935 90.2532 319.501 85.0397L318.604 84.598ZM308.351 96.3737C304.006 99.0892 299.157 100.449 293.79 100.449V101.449C299.335 101.449 304.37 100.041 308.881 97.2217L308.351 96.3737ZM293.79 100.449C289.275 100.449 285.286 99.5152 281.809 97.6612L281.339 98.5435C284.979 100.485 289.134 101.449 293.79 101.449V100.449ZM281.814 97.6634C278.399 95.801 275.735 93.4035 273.808 90.4742L272.973 91.0238C274.999 94.1037 277.791 96.6085 281.335 98.5413L281.814 97.6634ZM272.891 90.749V131.548H273.891V90.749H272.891ZM273.391 131.048L253.11 131.048V132.048L273.391 132.048V131.048ZM253.61 131.548L253.61 33.8197H252.61L252.61 131.548H253.61ZM253.11 34.3197H273.391V33.3197H253.11V34.3197ZM272.891 33.8197V43.1893H273.891V33.8197H272.891ZM302.83 66.7913C302.83 61.6342 301.376 57.5404 298.413 54.5774L297.706 55.2846C300.436 58.0146 301.83 61.8276 301.83 66.7913H302.83ZM298.423 54.5874C295.559 51.5597 291.987 50.0427 287.741 50.0427V51.0427C291.719 51.0427 295.026 52.4512 297.697 55.2746L298.423 54.5874ZM287.741 50.0427C283.572 50.0427 280.004 51.5614 277.065 54.5823L277.781 55.2797C280.535 52.4496 283.846 51.0427 287.741 51.0427V50.0427ZM277.06 54.5874C274.184 57.628 272.772 61.756 272.772 66.9099H273.772C273.772 61.943 275.128 58.0851 277.786 55.2746L277.06 54.5874ZM272.772 66.9099C272.772 72.0638 274.184 76.1917 277.06 79.2323L277.786 78.5451C275.128 75.7347 273.772 71.8767 273.772 66.9099H272.772ZM277.065 79.2374C280.004 82.2584 283.572 83.777 287.741 83.777V82.777C283.846 82.777 280.535 81.3702 277.781 78.5401L277.065 79.2374ZM287.741 83.777C291.911 83.777 295.479 82.2584 298.418 79.2374L297.702 78.5401C294.948 81.3702 291.637 82.777 287.741 82.777V83.777ZM298.423 79.2326C301.376 76.1154 302.83 71.9495 302.83 66.7913H301.83C301.83 71.7538 300.437 75.6529 297.697 78.5449L298.423 79.2326ZM337.402 23.8571L337.055 24.217L337.061 24.2233L337.068 24.2294L337.402 23.8571ZM337.402 8.20156L337.742 8.56796L337.742 8.56751L337.402 8.20156ZM354.718 8.20156L354.371 8.56148L354.377 8.56778L354.384 8.57384L354.718 8.20156ZM354.718 23.8571L355.058 24.2235L355.058 24.2231L354.718 23.8571ZM356.26 33.8197H356.76V33.3197H356.26V33.8197ZM356.26 100V100.5H356.76V100H356.26ZM335.978 100H335.478V100.5H335.978V100ZM335.978 33.8197V33.3197H335.478V33.8197H335.978ZM346.178 26.4408C342.723 26.4408 339.923 25.4457 337.735 23.4848L337.068 24.2294C339.467 26.3801 342.517 27.4408 346.178 27.4408V26.4408ZM337.749 23.4972C335.633 21.4569 334.581 18.9776 334.581 16.0293H333.581C333.581 19.2484 334.743 21.9877 337.055 24.217L337.749 23.4972ZM334.581 16.0293C334.581 12.9983 335.635 10.5242 337.742 8.56795L337.061 7.83516C334.74 9.99043 333.581 12.7349 333.581 16.0293H334.581ZM337.742 8.56751C339.93 6.53062 342.728 5.49929 346.178 5.49929V4.49929C342.512 4.49929 339.459 5.6028 337.061 7.83561L337.742 8.56751ZM346.178 5.49929C349.546 5.49929 352.262 6.52851 354.371 8.56148L355.065 7.84164C352.745 5.60491 349.768 4.49929 346.178 4.49929V5.49929ZM354.384 8.57384C356.568 10.5319 357.657 13.0043 357.657 16.0293H358.657C358.657 12.7289 357.453 9.98277 355.051 7.82927L354.384 8.57384ZM357.657 16.0293C357.657 18.9717 356.57 21.4492 354.377 23.4912L355.058 24.2231C357.451 21.9953 358.657 19.2543 358.657 16.0293H357.657ZM354.377 23.4907C352.27 25.4476 349.552 26.4408 346.178 26.4408V27.4408C349.763 27.4408 352.738 26.3782 355.058 24.2235L354.377 23.4907ZM355.76 33.8197V100H356.76V33.8197H355.76ZM356.26 99.5H335.978V100.5H356.26V99.5ZM336.478 100V33.8197H335.478V100H336.478ZM335.978 34.3197H356.26V33.3197H335.978V34.3197ZM406.538 50.6613V51.1613H407.038V50.6613H406.538ZM395.626 50.6613V50.1613H395.126V50.6613H395.626ZM395.626 100V100.5H396.126V100H395.626ZM375.345 100H374.845V100.5H375.345V100ZM375.345 50.6613L375.845 50.6613V50.1613L375.345 50.1613V50.6613ZM367.992 50.6613H367.492V51.1613H367.992V50.6613ZM367.992 33.8197V33.3197H367.492V33.8197H367.992ZM375.345 33.8197V34.3197L375.845 34.3197V33.8197L375.345 33.8197ZM382.343 13.4201L382.677 13.7921L382.68 13.7889L382.343 13.4201ZM406.182 7.13413H406.682V6.68661L406.237 6.63719L406.182 7.13413ZM406.182 24.3315L406.151 24.8306L406.682 24.8631V24.3315H406.182ZM397.998 25.992L398.322 26.3729L398.322 26.3729L397.998 25.992ZM395.626 33.8197H395.126V34.3197H395.626V33.8197ZM406.538 33.8197H407.038V33.3197H406.538V33.8197ZM406.538 50.1613H395.626V51.1613H406.538V50.1613ZM395.126 50.6613V100H396.126V50.6613H395.126ZM395.626 99.5H375.345V100.5H395.626V99.5ZM375.845 100V50.6613L374.845 50.6613V100H375.845ZM375.345 50.1613H367.992V51.1613H375.345V50.1613ZM368.492 50.6613V33.8197H367.492V50.6613H368.492ZM367.992 34.3197H375.345V33.3197H367.992V34.3197ZM375.845 33.8197V31.9221H374.845V33.8197L375.845 33.8197ZM375.845 31.9221C375.845 23.875 378.147 17.8614 382.677 13.792L382.009 13.0481C377.209 17.36 374.845 23.6811 374.845 31.9221H375.845ZM382.68 13.7889C387.221 9.63354 393.919 7.51553 402.861 7.51553V6.51553C393.775 6.51553 386.795 8.66722 382.005 13.0512L382.68 13.7889ZM402.861 7.51553C404.36 7.51553 405.444 7.55524 406.127 7.63108L406.237 6.63719C405.497 6.5549 404.366 6.51553 402.861 6.51553V7.51553ZM405.682 7.13413V24.3315H406.682V7.13413L405.682 7.13413ZM406.213 23.8325C402.309 23.5935 399.411 24.1353 397.675 25.611L398.322 26.3729C399.749 25.1603 402.306 24.5951 406.151 24.8306L406.213 23.8325ZM397.675 25.611C395.925 27.0984 395.126 29.697 395.126 33.2267H396.126C396.126 29.7984 396.909 27.5738 398.322 26.3729L397.675 25.611ZM395.126 33.2267V33.8197H396.126V33.2267H395.126ZM395.626 34.3197H406.538V33.3197H395.626V34.3197ZM406.038 33.8197V50.6613H407.038V33.8197H406.038ZM486.043 33.8197L486.503 34.0154L486.799 33.3197H486.043V33.8197ZM444.532 131.43V131.93H444.863L444.992 131.625L444.532 131.43ZM422.709 131.43L422.254 131.224L421.936 131.93H422.709V131.43ZM437.891 97.7465L438.346 97.952L438.436 97.7533L438.351 97.5525L437.891 97.7465ZM410.968 33.8197V33.3197H410.215L410.507 34.0138L410.968 33.8197ZM433.621 33.8197L434.09 33.6464L433.969 33.3197H433.621V33.8197ZM448.921 75.212L448.452 75.3854L448.922 76.6592L449.39 75.3842L448.921 75.212ZM464.102 33.8197V33.3197L463.753 33.3197L463.632 33.6476L464.102 33.8197ZM485.583 33.6241L444.072 131.234L444.992 131.625L486.503 34.0154L485.583 33.6241ZM444.532 130.93L422.709 130.93V131.93L444.532 131.93V130.93ZM423.165 131.635L438.346 97.952L437.435 97.5411L422.254 131.224L423.165 131.635ZM438.351 97.5525L411.429 33.6257L410.507 34.0138L437.43 97.9406L438.351 97.5525ZM410.968 34.3197L433.621 34.3197V33.3197L410.968 33.3197V34.3197ZM433.152 33.9931L448.452 75.3854L449.39 75.0387L434.09 33.6464L433.152 33.9931ZM449.39 75.3842L464.571 33.9919L463.632 33.6476L448.451 75.0399L449.39 75.3842ZM464.102 34.3197H486.043V33.3197H464.102V34.3197Z" fill="#F2B125"/>
<path d="M508.834 97.8652L508.644 98.3278L508.644 98.3278L508.834 97.8652ZM497.211 89.0886L496.808 89.3846L496.812 89.3899L497.211 89.0886ZM492.704 75.0934V74.5934H492.189L492.204 75.1079L492.704 75.0934ZM514.29 75.0934L514.787 75.0424L514.741 74.5934H514.29V75.0934ZM517.492 82.2096L517.155 82.579L517.164 82.5869L517.492 82.2096ZM531.724 82.5654L532.03 82.9612L532.041 82.9524L531.724 82.5654ZM532.199 71.654L531.845 72.0075L531.85 72.0126L531.855 72.0175L532.199 71.654ZM527.099 68.3331L526.897 68.7908L526.904 68.7936L527.099 68.3331ZM518.559 65.368L518.412 65.8458L518.417 65.8472L518.559 65.368ZM496.618 53.0334L497.017 52.7318L497.017 52.7318L496.618 53.0334ZM501.362 22.1967L501.668 22.592L501.672 22.5893L501.362 22.1967ZM545.482 22.1967L545.172 22.5893L545.176 22.5919L545.482 22.1967ZM554.496 40.4615V40.9615H555.022L554.995 40.4363L554.496 40.4615ZM532.554 40.4615L532.055 40.4908L532.083 40.9615H532.554V40.4615ZM529.589 34.1755L529.261 34.553L529.271 34.561L529.589 34.1755ZM516.662 33.8197L516.984 34.2022L516.989 34.1974L516.995 34.1923L516.662 33.8197ZM518.204 45.68L518.459 45.2501L518.459 45.2501L518.204 45.68ZM530.064 50.5427L530.224 50.069L530.218 50.067L530.064 50.5427ZM543.11 55.7612L542.886 56.2084L542.891 56.2105L543.11 55.7612ZM551.887 62.996L551.491 63.3023L551.491 63.3023L551.887 62.996ZM551.887 88.1397L551.464 87.8724L551.46 87.8787L551.887 88.1397ZM541.45 97.3907L541.226 96.9435L541.226 96.9435L541.45 97.3907ZM525.201 100.33C519.167 100.33 513.777 99.3508 509.024 97.4025L508.644 98.3278C513.537 100.333 519.059 101.33 525.201 101.33V100.33ZM509.024 97.4025C504.277 95.4572 500.477 92.5847 497.61 88.7873L496.812 89.3899C499.795 93.3411 503.744 96.3197 508.644 98.3278L509.024 97.4025ZM497.614 88.7925C494.835 85.0108 493.359 80.4474 493.204 75.079L492.204 75.1079C492.365 80.6509 493.893 85.4176 496.808 89.3846L497.614 88.7925ZM492.704 75.5934H514.29V74.5934H492.704V75.5934ZM513.792 75.1445C514.118 78.3175 515.224 80.8158 517.155 82.5788L517.829 81.8404C516.123 80.2825 515.094 78.0367 514.787 75.0424L513.792 75.1445ZM517.164 82.5869C519.092 84.2634 521.589 85.0817 524.608 85.0817V84.0817C521.776 84.0817 519.529 83.3185 517.82 81.8323L517.164 82.5869ZM524.608 85.0817C527.683 85.0817 530.176 84.3939 532.03 82.9611L531.418 82.1698C529.794 83.4253 527.542 84.0817 524.608 84.0817V85.0817ZM532.041 82.9524C533.908 81.4248 534.833 79.3395 534.833 76.7539H533.833C533.833 79.0705 533.02 80.8595 531.408 82.1784L532.041 82.9524ZM534.833 76.7539C534.833 74.5683 534.071 72.7343 532.542 71.2905L531.855 72.0175C533.173 73.262 533.833 74.8279 533.833 76.7539H534.833ZM532.552 71.3004C531.155 69.9035 529.398 68.7632 527.294 67.8726L526.904 68.7936C528.911 69.6425 530.554 70.7161 531.845 72.0075L532.552 71.3004ZM527.3 67.8754C525.295 66.9932 522.425 65.9979 518.702 64.8888L518.417 65.8472C522.126 66.9521 524.949 67.9335 526.897 68.7908L527.3 67.8754ZM518.707 64.8903C513.344 63.2342 508.982 61.5825 505.614 59.9374L505.175 60.836C508.606 62.5118 513.021 64.181 518.412 65.8458L518.707 64.8903ZM505.614 59.9374C502.29 58.314 499.424 55.9157 497.017 52.7318L496.219 53.3349C498.714 56.6346 501.699 59.1386 505.175 60.836L505.614 59.9374ZM497.017 52.7318C494.648 49.5988 493.441 45.4837 493.441 40.3429H492.441C492.441 45.6391 493.686 49.9844 496.219 53.3349L497.017 52.7318ZM493.441 40.3429C493.441 32.7326 496.189 26.8365 501.668 22.5919L501.056 21.8014C495.307 26.2544 492.441 32.4557 492.441 40.3429H493.441ZM501.672 22.5893C507.176 18.2475 514.372 16.0549 523.303 16.0549V15.0549C514.207 15.0549 506.775 17.2902 501.052 21.8041L501.672 22.5893ZM523.303 16.0549C532.395 16.0549 539.669 18.2486 545.172 22.5893L545.792 21.8041C540.067 17.2891 532.556 15.0549 523.303 15.0549V16.0549ZM545.176 22.5919C550.662 26.8415 553.608 32.7875 553.997 40.4867L554.995 40.4363C554.593 32.4799 551.53 26.2494 545.788 21.8014L545.176 22.5919ZM554.496 39.9615L532.554 39.9615V40.9615L554.496 40.9615V39.9615ZM533.054 40.4321C532.889 37.6267 531.849 35.3937 529.908 33.7901L529.271 34.561C530.967 35.962 531.904 37.9196 532.055 40.4908L533.054 40.4321ZM529.917 33.7982C527.992 32.1238 525.536 31.3035 522.592 31.3035V32.3035C525.341 32.3035 527.55 33.0645 529.261 34.5528L529.917 33.7982ZM522.592 31.3035C520.046 31.3035 517.941 32.0041 516.328 33.4471L516.995 34.1923C518.387 32.9471 520.236 32.3035 522.592 32.3035V31.3035ZM516.34 33.4373C514.697 34.8203 513.908 36.8352 513.908 39.3941H514.908C514.908 37.0506 515.622 35.3493 516.984 34.2022L516.34 33.4373ZM513.908 39.3941C513.908 42.2781 515.284 44.5278 517.948 46.1099L518.459 45.2501C516.063 43.8276 514.908 41.8867 514.908 39.3941H513.908ZM517.948 46.1099C520.528 47.6414 524.524 49.2759 529.91 51.0184L530.218 50.067C524.85 48.3305 520.94 46.7232 518.459 45.2501L517.948 46.1099ZM529.904 51.0163C535.269 52.831 539.594 54.5621 542.886 56.2084L543.334 55.314C539.985 53.6395 535.612 51.8916 530.224 50.0691L529.904 51.0163ZM542.891 56.2105C546.218 57.8354 549.084 60.1964 551.491 63.3023L552.282 62.6897C549.787 59.47 546.802 57.0079 543.329 55.3119L542.891 56.2105ZM551.491 63.3023C553.859 66.3577 555.063 70.3139 555.063 75.212H556.063C556.063 70.1476 554.816 65.9597 552.282 62.6897L551.491 63.3023ZM555.063 75.212C555.063 79.865 553.863 84.0809 551.464 87.8724L552.309 88.4071C554.813 84.4498 556.063 80.0473 556.063 75.212H555.063ZM551.46 87.8787C549.143 91.6633 545.739 94.6869 541.226 96.9435L541.673 97.838C546.332 95.5087 549.886 92.3649 552.313 88.4008L551.46 87.8787ZM541.226 96.9435C536.723 99.195 531.387 100.33 525.201 100.33V101.33C531.508 101.33 537.004 100.172 541.673 97.838L541.226 96.9435ZM629.362 40.6987L628.991 41.0345L628.994 41.0373L629.362 40.6987ZM636.241 100V100.5H636.741V100H636.241ZM616.078 100H615.578V100.5H616.078V100ZM612.639 53.745L612.274 54.0866L612.274 54.0866L612.639 53.745ZM594.137 53.745L594.502 54.0866L594.502 54.0866L594.137 53.745ZM590.698 100V100.5H591.198V100H590.698ZM570.416 100H569.916V100.5H570.416V100ZM570.416 12.2341V11.7341H569.916V12.2341H570.416ZM590.698 12.2341H591.198V11.7341H590.698V12.2341ZM590.698 42.7149H590.198V44.2961L591.107 43.0024L590.698 42.7149ZM599.118 35.7174L598.899 35.2682L598.899 35.2682L599.118 35.7174ZM611.097 33.6081C618.564 33.6081 624.511 36.091 628.991 41.0344L629.732 40.3629C625.041 35.1856 618.811 32.6081 611.097 32.6081V33.6081ZM628.994 41.0373C633.472 45.9016 635.741 52.6461 635.741 61.3355H636.741C636.741 52.4718 634.424 45.4584 629.73 40.36L628.994 41.0373ZM635.741 61.3355V100H636.741V61.3355H635.741ZM636.241 99.5H616.078V100.5H636.241V99.5ZM616.578 100V64.0634H615.578V100H616.578ZM616.578 64.0634C616.578 59.5503 615.409 55.9736 613.004 53.4034L612.274 54.0866C614.455 56.4186 615.578 59.7208 615.578 64.0634H616.578ZM613.004 53.4034C610.602 50.8353 607.377 49.5683 603.388 49.5683V50.5683C607.147 50.5683 610.09 51.7524 612.274 54.0866L613.004 53.4034ZM603.388 49.5683C599.399 49.5683 596.174 50.8353 593.772 53.4034L594.502 54.0866C596.686 51.7524 599.629 50.5683 603.388 50.5683V49.5683ZM593.772 53.4034C591.367 55.9736 590.198 59.5503 590.198 64.0634H591.198C591.198 59.7208 592.321 56.4186 594.502 54.0866L593.772 53.4034ZM590.198 64.0634V100H591.198V64.0634H590.198ZM590.698 99.5H570.416V100.5H590.698V99.5ZM570.916 100V12.2341H569.916V100H570.916ZM570.416 12.7341L590.698 12.7341V11.7341L570.416 11.7341V12.7341ZM590.198 12.2341V42.7149H591.198V12.2341H590.198ZM591.107 43.0024C593.109 40.1531 595.847 37.8731 599.338 36.1666L598.899 35.2682C595.273 37.0407 592.398 39.4257 590.288 42.4275L591.107 43.0024ZM599.338 36.1666C602.82 34.4643 606.736 33.6081 611.097 33.6081V32.6081C606.602 32.6081 602.533 33.4915 598.899 35.2682L599.338 36.1666ZM665.278 96.7977L665.041 97.238L665.044 97.2395L665.278 96.7977ZM653.062 84.9375L652.628 85.1848L652.63 85.1898L653.062 84.9375ZM653.181 49.0009L653.612 49.2532L653.614 49.2504L653.181 49.0009ZM665.515 37.022L665.75 37.4637L665.75 37.4637L665.515 37.022ZM700.622 37.022L700.388 37.4637L700.388 37.4637L700.622 37.022ZM712.956 49.0009L712.523 49.2504L712.525 49.2532L712.956 49.0009ZM712.838 84.9375L712.407 84.6831L712.406 84.6851L712.838 84.9375ZM700.385 96.7977L700.153 96.3545L700.15 96.356L700.385 96.7977ZM692.675 79.1259L692.317 78.7774L692.312 78.7826L692.675 79.1259ZM692.794 54.6938L692.425 55.0317L692.43 55.0371L692.794 54.6938ZM673.225 54.6938L673.588 55.0368L673.593 55.0317L673.225 54.6938ZM673.106 79.1259L672.732 79.4582L672.737 79.4638L673.106 79.1259ZM682.831 100.449C676.421 100.449 670.652 99.0815 665.512 96.356L665.044 97.2395C670.341 100.049 676.274 101.449 682.831 101.449V100.449ZM665.515 96.3575C660.458 93.6346 656.453 89.7469 653.494 84.6851L652.63 85.1898C655.68 90.4069 659.819 94.4261 665.041 97.238L665.515 96.3575ZM653.497 84.6901C650.621 79.6376 649.174 73.7164 649.174 66.9099H648.174C648.174 73.8613 649.653 79.9585 652.628 85.1848L653.497 84.6901ZM649.174 66.9099C649.174 60.1858 650.659 54.3057 653.612 49.2532L652.749 48.7485C649.694 53.9749 648.174 60.0341 648.174 66.9099H649.174ZM653.614 49.2504C656.573 44.1117 660.616 40.1862 665.75 37.4637L665.281 36.5803C659.978 39.3926 655.798 43.453 652.747 48.7514L653.614 49.2504ZM665.75 37.4637C670.889 34.7382 676.659 33.3709 683.069 33.3709V32.3709C676.511 32.3709 670.579 33.771 665.281 36.5803L665.75 37.4637ZM683.069 33.3709C689.479 33.3709 695.248 34.7382 700.388 37.4637L700.856 36.5803C695.558 33.771 689.626 32.3709 683.069 32.3709V33.3709ZM700.388 37.4637C705.521 40.1862 709.565 44.1117 712.523 49.2504L713.39 48.7514C710.339 43.453 706.159 39.3926 700.856 36.5803L700.388 37.4637ZM712.525 49.2532C715.479 54.3057 716.963 60.1858 716.963 66.9099H717.963C717.963 60.0341 716.444 53.9749 713.388 48.7485L712.525 49.2532ZM716.963 66.9099C716.963 73.6314 715.44 79.5507 712.407 84.6831L713.268 85.1918C716.403 79.8872 717.963 73.7881 717.963 66.9099H716.963ZM712.406 84.6851C709.449 89.7431 705.368 93.6305 700.153 96.3546L700.616 97.2409C705.997 94.4302 710.217 90.4108 713.269 85.1898L712.406 84.6851ZM700.15 96.356C695.011 99.0815 689.241 100.449 682.831 100.449V101.449C689.389 101.449 695.321 100.049 700.619 97.2395L700.15 96.356ZM682.831 83.8956C686.845 83.8956 690.257 82.4145 693.039 79.4692L692.312 78.7826C689.717 81.5303 686.567 82.8956 682.831 82.8956V83.8956ZM693.034 79.4745C695.919 76.5069 697.326 72.2929 697.326 66.9099H696.326C696.326 72.122 694.967 76.0521 692.317 78.7774L693.034 79.4745ZM697.326 66.9099C697.326 61.5305 695.961 57.3185 693.158 54.3505L692.43 55.0371C695.004 57.762 696.326 61.694 696.326 66.9099H697.326ZM693.163 54.3559C690.458 51.4058 687.083 49.9241 683.069 49.9241V50.9241C686.803 50.9241 689.911 52.2889 692.425 55.0317L693.163 54.3559ZM683.069 49.9241C678.979 49.9241 675.562 51.4034 672.856 54.3559L673.593 55.0317C676.105 52.2913 679.252 50.9241 683.069 50.9241V49.9241ZM672.861 54.3508C670.133 57.2434 668.811 61.4586 668.811 66.9099H669.811C669.811 61.6079 671.097 57.679 673.588 55.0368L672.861 54.3508ZM668.811 66.9099C668.811 72.282 670.094 76.4898 672.732 79.4581L673.48 78.7938C671.058 76.0692 669.811 72.1329 669.811 66.9099H668.811ZM672.737 79.4638C675.442 82.414 678.817 83.8956 682.831 83.8956V82.8956C679.097 82.8956 675.989 81.5308 673.475 78.7881L672.737 79.4638ZM750.876 43.1893H750.376V44.8958L751.297 43.4592L750.876 43.1893ZM759.06 35.7174L758.82 35.2784L758.82 35.2784L759.06 35.7174ZM786.101 37.022L785.836 37.446L785.836 37.446L786.101 37.022ZM796.538 48.8823L796.089 49.1031L796.092 49.1086L796.538 48.8823ZM796.538 84.8189L796.091 84.5953L796.089 84.598L796.538 84.8189ZM786.101 96.7977L786.366 97.2218L786.371 97.2183L786.101 96.7977ZM759.06 98.1024L758.82 98.5413L758.824 98.5435L759.06 98.1024ZM750.876 90.749L751.294 90.4742L750.376 89.0793V90.749H750.876ZM750.876 131.548V132.048H751.376V131.548H750.876ZM730.595 131.548H730.095V132.048H730.595V131.548ZM730.595 33.8197V33.3197H730.095V33.8197H730.595ZM750.876 33.8197H751.376V33.3197H750.876V33.8197ZM775.545 54.931L775.182 55.2747L775.192 55.2846L775.545 54.931ZM754.908 54.931L754.55 54.5823L754.545 54.5874L754.908 54.931ZM754.908 78.8887L754.545 79.2324L754.55 79.2374L754.908 78.8887ZM775.545 78.8887L775.904 79.2374L775.908 79.2326L775.545 78.8887ZM751.297 43.4592C753.225 40.452 755.887 38.0171 759.299 36.1563L758.82 35.2784C755.274 37.2129 752.481 39.7594 750.455 42.9195L751.297 43.4592ZM759.299 36.1563C762.692 34.3053 766.679 33.3709 771.276 33.3709V32.3709C766.542 32.3709 762.385 33.3342 758.82 35.2784L759.299 36.1563ZM771.276 33.3709C776.642 33.3709 781.491 34.7306 785.836 37.446L786.366 36.598C781.855 33.7787 776.821 32.3709 771.276 32.3709V33.3709ZM785.836 37.446C790.177 40.1593 793.596 44.0388 796.089 49.1031L796.987 48.6614C794.419 43.4469 790.88 39.4194 786.366 36.598L785.836 37.446ZM796.092 49.1086C798.66 54.1664 799.952 60.056 799.952 66.7913H800.952C800.952 59.9268 799.635 53.8771 796.984 48.6559L796.092 49.1086ZM799.952 66.7913C799.952 73.5264 798.66 79.4568 796.091 84.5953L796.985 85.0425C799.634 79.7439 800.952 73.6559 800.952 66.7913H799.952ZM796.089 84.598C793.596 89.6634 790.175 93.5841 785.831 96.3771L786.371 97.2183C790.882 94.3184 794.42 90.2532 796.987 85.0397L796.089 84.598ZM785.836 96.3737C781.491 99.0892 776.642 100.449 771.276 100.449V101.449C776.821 101.449 781.855 100.041 786.366 97.2217L785.836 96.3737ZM771.276 100.449C766.76 100.449 762.771 99.5152 759.295 97.6612L758.824 98.5435C762.464 100.485 766.619 101.449 771.276 101.449V100.449ZM759.299 97.6634C755.884 95.801 753.221 93.4035 751.294 90.4742L750.458 91.0238C752.484 94.1037 755.277 96.6085 758.82 98.5413L759.299 97.6634ZM750.376 90.749V131.548H751.376V90.749H750.376ZM750.876 131.048L730.595 131.048V132.048L750.876 132.048V131.048ZM731.095 131.548V33.8197H730.095V131.548H731.095ZM730.595 34.3197H750.876V33.3197H730.595V34.3197ZM750.376 33.8197V43.1893H751.376V33.8197H750.376ZM780.315 66.7913C780.315 61.6342 778.862 57.5404 775.899 54.5774L775.192 55.2846C777.922 58.0146 779.315 61.8276 779.315 66.7913H780.315ZM775.909 54.5874C773.044 51.5597 769.473 50.0427 765.227 50.0427V51.0427C769.204 51.0427 772.511 52.4512 775.182 55.2746L775.909 54.5874ZM765.227 50.0427C761.058 50.0427 757.489 51.5614 754.55 54.5823L755.267 55.2797C758.02 52.4496 761.331 51.0427 765.227 51.0427V50.0427ZM754.545 54.5874C751.669 57.628 750.257 61.756 750.257 66.9099H751.257C751.257 61.943 752.613 58.0851 755.272 55.2746L754.545 54.5874ZM750.257 66.9099C750.257 72.0638 751.669 76.1917 754.545 79.2323L755.272 78.5451C752.613 75.7347 751.257 71.8767 751.257 66.9099H750.257ZM754.55 79.2374C757.489 82.2584 761.058 83.777 765.227 83.777V82.777C761.331 82.777 758.02 81.3702 755.267 78.5401L754.55 79.2374ZM765.227 83.777C769.396 83.777 772.964 82.2584 775.904 79.2374L775.187 78.5401C772.433 81.3702 769.123 82.777 765.227 82.777V83.777ZM775.908 79.2326C778.861 76.1154 780.315 71.9495 780.315 66.7913H779.315C779.315 71.7538 777.922 75.6529 775.182 78.5449L775.908 79.2326ZM814.887 23.8571L814.54 24.217L814.547 24.2233L814.553 24.2294L814.887 23.8571ZM814.887 8.20156L815.227 8.56796L815.228 8.56751L814.887 8.20156ZM832.203 8.20156L831.856 8.56148L831.863 8.56778L831.869 8.57384L832.203 8.20156ZM832.203 23.8571L832.543 24.2235L832.544 24.2231L832.203 23.8571ZM833.745 33.8197H834.245V33.3197H833.745V33.8197ZM833.745 100V100.5H834.245V100H833.745ZM813.464 100H812.964V100.5H813.464V100ZM813.464 33.8197V33.3197H812.964V33.8197H813.464ZM823.664 26.4408C820.208 26.4408 817.408 25.4457 815.221 23.4848L814.553 24.2294C816.952 26.3801 820.003 27.4408 823.664 27.4408V26.4408ZM815.234 23.4972C813.118 21.4569 812.066 18.9776 812.066 16.0293H811.066C811.066 19.2484 812.228 21.9877 814.54 24.217L815.234 23.4972ZM812.066 16.0293C812.066 12.9983 813.121 10.5242 815.227 8.56795L814.547 7.83516C812.226 9.99043 811.066 12.7349 811.066 16.0293H812.066ZM815.228 8.56751C817.416 6.53062 820.214 5.49929 823.664 5.49929V4.49929C819.998 4.49929 816.945 5.6028 814.546 7.83561L815.228 8.56751ZM823.664 5.49929C827.032 5.49929 829.748 6.52851 831.856 8.56148L832.55 7.84164C830.231 5.60491 827.254 4.49929 823.664 4.49929V5.49929ZM831.869 8.57384C834.053 10.5319 835.143 13.0043 835.143 16.0293H836.143C836.143 12.7289 834.939 9.98277 832.537 7.82927L831.869 8.57384ZM835.143 16.0293C835.143 18.9717 834.056 21.4492 831.862 23.4912L832.544 24.2231C834.936 21.9953 836.143 19.2543 836.143 16.0293H835.143ZM831.863 23.4907C829.755 25.4476 827.037 26.4408 823.664 26.4408V27.4408C827.248 27.4408 830.223 26.3782 832.543 24.2235L831.863 23.4907ZM833.245 33.8197V100H834.245V33.8197H833.245ZM833.745 99.5H813.464V100.5H833.745V99.5ZM813.964 100V33.8197H812.964V100H813.964ZM813.464 34.3197H833.745V33.3197H813.464V34.3197ZM884.023 50.6613V51.1613H884.523V50.6613H884.023ZM873.112 50.6613V50.1613H872.612V50.6613H873.112ZM873.112 100V100.5H873.612V100H873.112ZM852.831 100H852.331V100.5H852.831V100ZM852.831 50.6613L853.331 50.6613V50.1613L852.831 50.1613V50.6613ZM845.477 50.6613H844.977V51.1613H845.477V50.6613ZM845.477 33.8197V33.3197H844.977V33.8197H845.477ZM852.831 33.8197V34.3197L853.331 34.3197V33.8197L852.831 33.8197ZM859.828 13.4201L860.162 13.7921L860.166 13.7889L859.828 13.4201ZM883.667 7.13413H884.167V6.68661L883.723 6.63719L883.667 7.13413ZM883.667 24.3315L883.637 24.8306L884.167 24.8631V24.3315H883.667ZM875.484 25.992L875.808 26.3729L875.808 26.3729L875.484 25.992ZM873.112 33.8197H872.612V34.3197H873.112V33.8197ZM884.023 33.8197H884.523V33.3197H884.023V33.8197ZM884.023 50.1613H873.112V51.1613H884.023V50.1613ZM872.612 50.6613V100H873.612V50.6613H872.612ZM873.112 99.5H852.831V100.5H873.112V99.5ZM853.331 100V50.6613L852.331 50.6613V100H853.331ZM852.831 50.1613H845.477V51.1613H852.831V50.1613ZM845.977 50.6613V33.8197H844.977V50.6613H845.977ZM845.477 34.3197H852.831V33.3197H845.477V34.3197ZM853.331 33.8197V31.9221H852.331V33.8197L853.331 33.8197ZM853.331 31.9221C853.331 23.875 855.632 17.8614 860.162 13.792L859.494 13.0481C854.694 17.36 852.331 23.6811 852.331 31.9221H853.331ZM860.166 13.7889C864.706 9.63354 871.405 7.51553 880.346 7.51553V6.51553C871.261 6.51553 864.281 8.66722 859.491 13.0512L860.166 13.7889ZM880.346 7.51553C881.846 7.51553 882.93 7.55524 883.612 7.63108L883.723 6.63719C882.982 6.5549 881.852 6.51553 880.346 6.51553V7.51553ZM883.167 7.13413V24.3315H884.167V7.13413L883.167 7.13413ZM883.698 23.8325C879.795 23.5935 876.896 24.1353 875.16 25.611L875.808 26.3729C877.234 25.1603 879.791 24.5951 883.637 24.8306L883.698 23.8325ZM875.16 25.611C873.41 27.0984 872.612 29.697 872.612 33.2267H873.612C873.612 29.7984 874.395 27.5738 875.808 26.3729L875.16 25.611ZM872.612 33.2267V33.8197H873.612V33.2267H872.612ZM873.112 34.3197H884.023V33.3197H873.112V34.3197ZM883.523 33.8197V50.6613H884.523V33.8197H883.523ZM963.529 33.8197L963.989 34.0154L964.285 33.3197H963.529V33.8197ZM922.018 131.43V131.93H922.348L922.478 131.625L922.018 131.43ZM900.195 131.43L899.739 131.224L899.421 131.93H900.195V131.43ZM915.376 97.7465L915.832 97.952L915.921 97.7533L915.837 97.5525L915.376 97.7465ZM888.453 33.8197V33.3197H887.7L887.992 34.0138L888.453 33.8197ZM911.106 33.8197L911.575 33.6464L911.454 33.3197H911.106V33.8197ZM926.406 75.212L925.937 75.3854L926.408 76.6592L926.875 75.3842L926.406 75.212ZM941.587 33.8197V33.3197L941.238 33.3197L941.118 33.6476L941.587 33.8197ZM963.068 33.6241L921.558 131.234L922.478 131.625L963.989 34.0154L963.068 33.6241ZM922.018 130.93L900.195 130.93V131.93L922.018 131.93V130.93ZM900.651 131.635L915.832 97.952L914.92 97.5411L899.739 131.224L900.651 131.635ZM915.837 97.5525L888.914 33.6257L887.992 34.0138L914.915 97.9406L915.837 97.5525ZM888.453 34.3197L911.106 34.3197V33.3197L888.453 33.3197V34.3197ZM910.637 33.9931L925.937 75.3854L926.875 75.0387L911.575 33.6464L910.637 33.9931ZM926.875 75.3842L942.057 33.9919L941.118 33.6476L925.937 75.0399L926.875 75.3842ZM941.587 34.3197H963.529V33.3197H941.587V34.3197Z" fill="#F2B125"/>
<path d="M989.088 97.8652L988.898 98.3278L988.898 98.3278L989.088 97.8652ZM977.465 89.0886L977.062 89.3846L977.066 89.3899L977.465 89.0886ZM972.958 75.0934V74.5934H972.443L972.458 75.1079L972.958 75.0934ZM994.544 75.0934L995.041 75.0424L994.995 74.5934H994.544V75.0934ZM997.746 82.2096L997.409 82.579L997.418 82.5869L997.746 82.2096ZM1011.98 82.5654L1012.28 82.9612L1012.29 82.9524L1011.98 82.5654ZM1012.45 71.654L1012.1 72.0075L1012.1 72.0126L1012.11 72.0175L1012.45 71.654ZM1007.35 68.3331L1007.15 68.7908L1007.16 68.7936L1007.35 68.3331ZM998.813 65.368L998.666 65.8458L998.67 65.8472L998.813 65.368ZM976.872 53.0334L977.271 52.7318L977.271 52.7318L976.872 53.0334ZM981.616 22.1967L981.922 22.592L981.925 22.5893L981.616 22.1967ZM1025.74 22.1967L1025.43 22.5893L1025.43 22.5919L1025.74 22.1967ZM1034.75 40.4615V40.9615H1035.28L1035.25 40.4363L1034.75 40.4615ZM1012.81 40.4615L1012.31 40.4908L1012.34 40.9615H1012.81V40.4615ZM1009.84 34.1755L1009.52 34.553L1009.52 34.561L1009.84 34.1755ZM996.916 33.8197L997.238 34.2022L997.243 34.1974L997.249 34.1923L996.916 33.8197ZM998.457 45.68L998.713 45.2501L998.713 45.2501L998.457 45.68ZM1010.32 50.5427L1010.48 50.069L1010.47 50.067L1010.32 50.5427ZM1023.36 55.7612L1023.14 56.2084L1023.14 56.2105L1023.36 55.7612ZM1032.14 62.996L1031.75 63.3023L1031.75 63.3023L1032.14 62.996ZM1032.14 88.1397L1031.72 87.8724L1031.71 87.8787L1032.14 88.1397ZM1021.7 97.3907L1021.48 96.9435L1021.48 96.9435L1021.7 97.3907ZM1005.45 100.33C999.421 100.33 994.031 99.3508 989.277 97.4025L988.898 98.3278C993.791 100.333 999.312 101.33 1005.45 101.33V100.33ZM989.277 97.4025C984.531 95.4572 980.731 92.5847 977.864 88.7873L977.066 89.3899C980.049 93.3411 983.998 96.3197 988.898 98.3278L989.277 97.4025ZM977.868 88.7925C975.089 85.0108 973.613 80.4474 973.458 75.079L972.458 75.1079C972.619 80.6509 974.147 85.4176 977.062 89.3846L977.868 88.7925ZM972.958 75.5934H994.544V74.5934H972.958V75.5934ZM994.046 75.1445C994.372 78.3175 995.478 80.8158 997.409 82.5788L998.083 81.8404C996.377 80.2825 995.348 78.0367 995.041 75.0424L994.046 75.1445ZM997.418 82.5869C999.346 84.2634 1001.84 85.0817 1004.86 85.0817V84.0817C1002.03 84.0817 999.783 83.3185 998.074 81.8323L997.418 82.5869ZM1004.86 85.0817C1007.94 85.0817 1010.43 84.3939 1012.28 82.9611L1011.67 82.1698C1010.05 83.4253 1007.8 84.0817 1004.86 84.0817V85.0817ZM1012.29 82.9524C1014.16 81.4248 1015.09 79.3395 1015.09 76.7539H1014.09C1014.09 79.0705 1013.27 80.8595 1011.66 82.1784L1012.29 82.9524ZM1015.09 76.7539C1015.09 74.5683 1014.32 72.7343 1012.8 71.2905L1012.11 72.0175C1013.43 73.262 1014.09 74.8279 1014.09 76.7539H1015.09ZM1012.81 71.3004C1011.41 69.9035 1009.65 68.7632 1007.55 67.8726L1007.16 68.7936C1009.16 69.6425 1010.81 70.7161 1012.1 72.0075L1012.81 71.3004ZM1007.55 67.8754C1005.55 66.9932 1002.68 65.9979 998.956 64.8888L998.67 65.8472C1002.38 66.9521 1005.2 67.9335 1007.15 68.7908L1007.55 67.8754ZM998.961 64.8903C993.598 63.2342 989.236 61.5825 985.868 59.9374L985.429 60.836C988.86 62.5118 993.275 64.181 998.666 65.8458L998.961 64.8903ZM985.868 59.9374C982.544 58.314 979.678 55.9157 977.271 52.7318L976.473 53.3349C978.968 56.6346 981.953 59.1386 985.429 60.836L985.868 59.9374ZM977.271 52.7318C974.902 49.5988 973.695 45.4837 973.695 40.3429H972.695C972.695 45.6391 973.94 49.9844 976.473 53.3349L977.271 52.7318ZM973.695 40.3429C973.695 32.7326 976.443 26.8365 981.922 22.5919L981.31 21.8014C975.561 26.2544 972.695 32.4557 972.695 40.3429H973.695ZM981.925 22.5893C987.43 18.2475 994.626 16.0549 1003.56 16.0549V15.0549C994.461 15.0549 987.029 17.2902 981.306 21.8041L981.925 22.5893ZM1003.56 16.0549C1012.65 16.0549 1019.92 18.2486 1025.43 22.5893L1026.05 21.8041C1020.32 17.2891 1012.81 15.0549 1003.56 15.0549V16.0549ZM1025.43 22.5919C1030.92 26.8415 1033.86 32.7875 1034.25 40.4867L1035.25 40.4363C1034.85 32.4799 1031.78 26.2494 1026.04 21.8014L1025.43 22.5919ZM1034.75 39.9615L1012.81 39.9615V40.9615L1034.75 40.9615V39.9615ZM1013.31 40.4321C1013.14 37.6267 1012.1 35.3937 1010.16 33.7901L1009.52 34.561C1011.22 35.962 1012.16 37.9196 1012.31 40.4908L1013.31 40.4321ZM1010.17 33.7982C1008.25 32.1238 1005.79 31.3035 1002.85 31.3035V32.3035C1005.59 32.3035 1007.8 33.0645 1009.52 34.5528L1010.17 33.7982ZM1002.85 31.3035C1000.3 31.3035 998.195 32.0041 996.582 33.4471L997.249 34.1923C998.641 32.9471 1000.49 32.3035 1002.85 32.3035V31.3035ZM996.594 33.4373C994.951 34.8203 994.162 36.8352 994.162 39.3941H995.162C995.162 37.0506 995.875 35.3493 997.238 34.2022L996.594 33.4373ZM994.162 39.3941C994.162 42.2781 995.538 44.5278 998.202 46.1099L998.713 45.2501C996.317 43.8276 995.162 41.8867 995.162 39.3941H994.162ZM998.202 46.1099C1000.78 47.6414 1004.78 49.2759 1010.16 51.0184L1010.47 50.067C1005.1 48.3305 1001.19 46.7232 998.713 45.2501L998.202 46.1099ZM1010.16 51.0163C1015.52 52.831 1019.85 54.5621 1023.14 56.2084L1023.59 55.314C1020.24 53.6395 1015.87 51.8916 1010.48 50.0691L1010.16 51.0163ZM1023.14 56.2105C1026.47 57.8354 1029.34 60.1964 1031.75 63.3023L1032.54 62.6897C1030.04 59.47 1027.06 57.0079 1023.58 55.3119L1023.14 56.2105ZM1031.75 63.3023C1034.11 66.3577 1035.32 70.3139 1035.32 75.212H1036.32C1036.32 70.1476 1035.07 65.9597 1032.54 62.6897L1031.75 63.3023ZM1035.32 75.212C1035.32 79.865 1034.12 84.0809 1031.72 87.8724L1032.56 88.4071C1035.07 84.4498 1036.32 80.0473 1036.32 75.212H1035.32ZM1031.71 87.8787C1029.4 91.6633 1025.99 94.6869 1021.48 96.9435L1021.93 97.838C1026.59 95.5087 1030.14 92.3649 1032.57 88.4008L1031.71 87.8787ZM1021.48 96.9435C1016.98 99.195 1011.64 100.33 1005.45 100.33V101.33C1011.76 101.33 1017.26 100.172 1021.93 97.838L1021.48 96.9435ZM1109.62 40.6987L1109.25 41.0345L1109.25 41.0373L1109.62 40.6987ZM1116.49 100V100.5H1116.99V100H1116.49ZM1096.33 100H1095.83V100.5H1096.33V100ZM1092.89 53.745L1092.53 54.0866L1092.53 54.0866L1092.89 53.745ZM1074.39 53.745L1074.76 54.0866L1074.76 54.0866L1074.39 53.745ZM1070.95 100V100.5H1071.45V100H1070.95ZM1050.67 100H1050.17V100.5H1050.67V100ZM1050.67 12.2341V11.7341H1050.17V12.2341H1050.67ZM1070.95 12.2341H1071.45V11.7341H1070.95V12.2341ZM1070.95 42.7149H1070.45V44.2961L1071.36 43.0024L1070.95 42.7149ZM1079.37 35.7174L1079.15 35.2682L1079.15 35.2682L1079.37 35.7174ZM1091.35 33.6081C1098.82 33.6081 1104.77 36.091 1109.25 41.0344L1109.99 40.3629C1105.29 35.1856 1099.07 32.6081 1091.35 32.6081V33.6081ZM1109.25 41.0373C1113.73 45.9016 1115.99 52.6461 1115.99 61.3355H1116.99C1116.99 52.4718 1114.68 45.4584 1109.98 40.36L1109.25 41.0373ZM1115.99 61.3355V100H1116.99V61.3355H1115.99ZM1116.49 99.5H1096.33V100.5H1116.49V99.5ZM1096.83 100V64.0634H1095.83V100H1096.83ZM1096.83 64.0634C1096.83 59.5503 1095.66 55.9736 1093.26 53.4034L1092.53 54.0866C1094.71 56.4186 1095.83 59.7208 1095.83 64.0634H1096.83ZM1093.26 53.4034C1090.86 50.8353 1087.63 49.5683 1083.64 49.5683V50.5683C1087.4 50.5683 1090.34 51.7524 1092.53 54.0866L1093.26 53.4034ZM1083.64 49.5683C1079.65 49.5683 1076.43 50.8353 1074.03 53.4034L1074.76 54.0866C1076.94 51.7524 1079.88 50.5683 1083.64 50.5683V49.5683ZM1074.03 53.4034C1071.62 55.9736 1070.45 59.5503 1070.45 64.0634H1071.45C1071.45 59.7208 1072.57 56.4186 1074.76 54.0866L1074.03 53.4034ZM1070.45 64.0634V100H1071.45V64.0634H1070.45ZM1070.95 99.5H1050.67V100.5H1070.95V99.5ZM1051.17 100V12.2341H1050.17V100H1051.17ZM1050.67 12.7341L1070.95 12.7341V11.7341L1050.67 11.7341V12.7341ZM1070.45 12.2341V42.7149H1071.45V12.2341H1070.45ZM1071.36 43.0024C1073.36 40.1531 1076.1 37.8731 1079.59 36.1666L1079.15 35.2682C1075.53 37.0407 1072.65 39.4257 1070.54 42.4275L1071.36 43.0024ZM1079.59 36.1666C1083.07 34.4643 1086.99 33.6081 1091.35 33.6081V32.6081C1086.86 32.6081 1082.79 33.4915 1079.15 35.2682L1079.59 36.1666ZM1145.53 96.7977L1145.3 97.238L1145.3 97.2395L1145.53 96.7977ZM1133.32 84.9375L1132.88 85.1848L1132.88 85.1898L1133.32 84.9375ZM1133.43 49.0009L1133.87 49.2532L1133.87 49.2504L1133.43 49.0009ZM1145.77 37.022L1146 37.4637L1146 37.4637L1145.77 37.022ZM1180.88 37.022L1180.64 37.4637L1180.64 37.4637L1180.88 37.022ZM1193.21 49.0009L1192.78 49.2504L1192.78 49.2532L1193.21 49.0009ZM1193.09 84.9375L1192.66 84.6831L1192.66 84.6851L1193.09 84.9375ZM1180.64 96.7977L1180.41 96.3545L1180.4 96.356L1180.64 96.7977ZM1172.93 79.1259L1172.57 78.7774L1172.57 78.7826L1172.93 79.1259ZM1173.05 54.6938L1172.68 55.0317L1172.68 55.0371L1173.05 54.6938ZM1153.48 54.6938L1153.84 55.0368L1153.85 55.0317L1153.48 54.6938ZM1153.36 79.1259L1152.99 79.4582L1152.99 79.4638L1153.36 79.1259ZM1163.09 100.449C1156.68 100.449 1150.91 99.0815 1145.77 96.356L1145.3 97.2395C1150.6 100.049 1156.53 101.449 1163.09 101.449V100.449ZM1145.77 96.3575C1140.71 93.6346 1136.71 89.7469 1133.75 84.6851L1132.88 85.1898C1135.93 90.4069 1140.07 94.4261 1145.3 97.238L1145.77 96.3575ZM1133.75 84.6901C1130.87 79.6376 1129.43 73.7164 1129.43 66.9099H1128.43C1128.43 73.8613 1129.91 79.9585 1132.88 85.1848L1133.75 84.6901ZM1129.43 66.9099C1129.43 60.1858 1130.91 54.3057 1133.87 49.2532L1133 48.7485C1129.95 53.9749 1128.43 60.0341 1128.43 66.9099H1129.43ZM1133.87 49.2504C1136.83 44.1117 1140.87 40.1862 1146 37.4637L1145.54 36.5803C1140.23 39.3926 1136.05 43.453 1133 48.7514L1133.87 49.2504ZM1146 37.4637C1151.14 34.7382 1156.91 33.3709 1163.32 33.3709V32.3709C1156.77 32.3709 1150.83 33.771 1145.54 36.5803L1146 37.4637ZM1163.32 33.3709C1169.73 33.3709 1175.5 34.7382 1180.64 37.4637L1181.11 36.5803C1175.81 33.771 1169.88 32.3709 1163.32 32.3709V33.3709ZM1180.64 37.4637C1185.78 40.1862 1189.82 44.1117 1192.78 49.2504L1193.64 48.7514C1190.59 43.453 1186.41 39.3926 1181.11 36.5803L1180.64 37.4637ZM1192.78 49.2532C1195.73 54.3057 1197.22 60.1858 1197.22 66.9099H1198.22C1198.22 60.0341 1196.7 53.9749 1193.64 48.7485L1192.78 49.2532ZM1197.22 66.9099C1197.22 73.6314 1195.69 79.5507 1192.66 84.6831L1193.52 85.1918C1196.66 79.8872 1198.22 73.7881 1198.22 66.9099H1197.22ZM1192.66 84.6851C1189.7 89.7431 1185.62 93.6305 1180.41 96.3546L1180.87 97.2409C1186.25 94.4302 1190.47 90.4108 1193.52 85.1898L1192.66 84.6851ZM1180.4 96.356C1175.26 99.0815 1169.5 100.449 1163.09 100.449V101.449C1169.64 101.449 1175.58 100.049 1180.87 97.2395L1180.4 96.356ZM1163.09 83.8956C1167.1 83.8956 1170.51 82.4145 1173.29 79.4692L1172.57 78.7826C1169.97 81.5303 1166.82 82.8956 1163.09 82.8956V83.8956ZM1173.29 79.4745C1176.17 76.5069 1177.58 72.2929 1177.58 66.9099H1176.58C1176.58 72.122 1175.22 76.0521 1172.57 78.7774L1173.29 79.4745ZM1177.58 66.9099C1177.58 61.5305 1176.21 57.3185 1173.41 54.3505L1172.68 55.0371C1175.26 57.762 1176.58 61.694 1176.58 66.9099H1177.58ZM1173.42 54.3559C1170.71 51.4058 1167.34 49.9241 1163.32 49.9241V50.9241C1167.06 50.9241 1170.17 52.2889 1172.68 55.0317L1173.42 54.3559ZM1163.32 49.9241C1159.23 49.9241 1155.82 51.4034 1153.11 54.3559L1153.85 55.0317C1156.36 52.2913 1159.51 50.9241 1163.32 50.9241V49.9241ZM1153.11 54.3508C1150.39 57.2434 1149.06 61.4586 1149.06 66.9099H1150.06C1150.06 61.6079 1151.35 57.679 1153.84 55.0368L1153.11 54.3508ZM1149.06 66.9099C1149.06 72.282 1150.35 76.4898 1152.99 79.4581L1153.73 78.7938C1151.31 76.0692 1150.06 72.1329 1150.06 66.9099H1149.06ZM1152.99 79.4638C1155.7 82.414 1159.07 83.8956 1163.09 83.8956V82.8956C1159.35 82.8956 1156.24 81.5308 1153.73 78.7881L1152.99 79.4638ZM1231.13 43.1893H1230.63V44.8958L1231.55 43.4592L1231.13 43.1893ZM1239.31 35.7174L1239.07 35.2784L1239.07 35.2784L1239.31 35.7174ZM1266.35 37.022L1266.09 37.446L1266.09 37.446L1266.35 37.022ZM1276.79 48.8823L1276.34 49.1031L1276.35 49.1086L1276.79 48.8823ZM1276.79 84.8189L1276.34 84.5953L1276.34 84.598L1276.79 84.8189ZM1266.35 96.7977L1266.62 97.2218L1266.63 97.2183L1266.35 96.7977ZM1239.31 98.1024L1239.07 98.5413L1239.08 98.5435L1239.31 98.1024ZM1231.13 90.749L1231.55 90.4742L1230.63 89.0793V90.749H1231.13ZM1231.13 131.548V132.048H1231.63V131.548H1231.13ZM1210.85 131.548H1210.35V132.048H1210.85V131.548ZM1210.85 33.8197V33.3197H1210.35V33.8197H1210.85ZM1231.13 33.8197H1231.63V33.3197H1231.13V33.8197ZM1255.8 54.931L1255.44 55.2747L1255.45 55.2846L1255.8 54.931ZM1235.16 54.931L1234.8 54.5823L1234.8 54.5874L1235.16 54.931ZM1235.16 78.8887L1234.8 79.2324L1234.8 79.2374L1235.16 78.8887ZM1255.8 78.8887L1256.16 79.2374L1256.16 79.2326L1255.8 78.8887ZM1231.55 43.4592C1233.48 40.452 1236.14 38.0171 1239.55 36.1563L1239.07 35.2784C1235.53 37.2129 1232.73 39.7594 1230.71 42.9195L1231.55 43.4592ZM1239.55 36.1563C1242.95 34.3053 1246.93 33.3709 1251.53 33.3709V32.3709C1246.8 32.3709 1242.64 33.3342 1239.07 35.2784L1239.55 36.1563ZM1251.53 33.3709C1256.9 33.3709 1261.75 34.7306 1266.09 37.446L1266.62 36.598C1262.11 33.7787 1257.07 32.3709 1251.53 32.3709V33.3709ZM1266.09 37.446C1270.43 40.1593 1273.85 44.0388 1276.34 49.1031L1277.24 48.6614C1274.67 43.4469 1271.13 39.4194 1266.62 36.598L1266.09 37.446ZM1276.35 49.1086C1278.91 54.1664 1280.21 60.056 1280.21 66.7913H1281.21C1281.21 59.9268 1279.89 53.8771 1277.24 48.6559L1276.35 49.1086ZM1280.21 66.7913C1280.21 73.5264 1278.91 79.4568 1276.34 84.5953L1277.24 85.0425C1279.89 79.7439 1281.21 73.6559 1281.21 66.7913H1280.21ZM1276.34 84.598C1273.85 89.6634 1270.43 93.5841 1266.08 96.3771L1266.63 97.2183C1271.14 94.3184 1274.67 90.2532 1277.24 85.0397L1276.34 84.598ZM1266.09 96.3737C1261.75 99.0892 1256.9 100.449 1251.53 100.449V101.449C1257.07 101.449 1262.11 100.041 1266.62 97.2217L1266.09 96.3737ZM1251.53 100.449C1247.01 100.449 1243.02 99.5152 1239.55 97.6612L1239.08 98.5435C1242.72 100.485 1246.87 101.449 1251.53 101.449V100.449ZM1239.55 97.6634C1236.14 95.801 1233.47 93.4035 1231.55 90.4742L1230.71 91.0238C1232.74 94.1037 1235.53 96.6085 1239.07 98.5413L1239.55 97.6634ZM1230.63 90.749V131.548H1231.63V90.749H1230.63ZM1231.13 131.048L1210.85 131.048V132.048L1231.13 132.048V131.048ZM1211.35 131.548V33.8197H1210.35V131.548H1211.35ZM1210.85 34.3197H1231.13V33.3197H1210.85V34.3197ZM1230.63 33.8197V43.1893H1231.63V33.8197H1230.63ZM1260.57 66.7913C1260.57 61.6342 1259.12 57.5404 1256.15 54.5774L1255.45 55.2846C1258.18 58.0146 1259.57 61.8276 1259.57 66.7913H1260.57ZM1256.16 54.5874C1253.3 51.5597 1249.73 50.0427 1245.48 50.0427V51.0427C1249.46 51.0427 1252.77 52.4512 1255.44 55.2746L1256.16 54.5874ZM1245.48 50.0427C1241.31 50.0427 1237.74 51.5614 1234.8 54.5823L1235.52 55.2797C1238.27 52.4496 1241.59 51.0427 1245.48 51.0427V50.0427ZM1234.8 54.5874C1231.92 57.628 1230.51 61.756 1230.51 66.9099H1231.51C1231.51 61.943 1232.87 58.0851 1235.53 55.2746L1234.8 54.5874ZM1230.51 66.9099C1230.51 72.0638 1231.92 76.1917 1234.8 79.2323L1235.53 78.5451C1232.87 75.7347 1231.51 71.8767 1231.51 66.9099H1230.51ZM1234.8 79.2374C1237.74 82.2584 1241.31 83.777 1245.48 83.777V82.777C1241.59 82.777 1238.27 81.3702 1235.52 78.5401L1234.8 79.2374ZM1245.48 83.777C1249.65 83.777 1253.22 82.2584 1256.16 79.2374L1255.44 78.5401C1252.69 81.3702 1249.38 82.777 1245.48 82.777V83.777ZM1256.16 79.2326C1259.12 76.1154 1260.57 71.9495 1260.57 66.7913H1259.57C1259.57 71.7538 1258.18 75.6529 1255.44 78.5449L1256.16 79.2326ZM1295.14 23.8571L1294.79 24.217L1294.8 24.2233L1294.81 24.2294L1295.14 23.8571ZM1295.14 8.20156L1295.48 8.56796L1295.48 8.56751L1295.14 8.20156ZM1312.46 8.20156L1312.11 8.56148L1312.12 8.56778L1312.12 8.57384L1312.46 8.20156ZM1312.46 23.8571L1312.8 24.2235L1312.8 24.2231L1312.46 23.8571ZM1314 33.8197H1314.5V33.3197H1314V33.8197ZM1314 100V100.5H1314.5V100H1314ZM1293.72 100H1293.22V100.5H1293.72V100ZM1293.72 33.8197V33.3197H1293.22V33.8197H1293.72ZM1303.92 26.4408C1300.46 26.4408 1297.66 25.4457 1295.47 23.4848L1294.81 24.2294C1297.21 26.3801 1300.26 27.4408 1303.92 27.4408V26.4408ZM1295.49 23.4972C1293.37 21.4569 1292.32 18.9776 1292.32 16.0293H1291.32C1291.32 19.2484 1292.48 21.9877 1294.79 24.217L1295.49 23.4972ZM1292.32 16.0293C1292.32 12.9983 1293.37 10.5242 1295.48 8.56795L1294.8 7.83516C1292.48 9.99043 1291.32 12.7349 1291.32 16.0293H1292.32ZM1295.48 8.56751C1297.67 6.53062 1300.47 5.49929 1303.92 5.49929V4.49929C1300.25 4.49929 1297.2 5.6028 1294.8 7.83561L1295.48 8.56751ZM1303.92 5.49929C1307.29 5.49929 1310 6.52851 1312.11 8.56148L1312.8 7.84164C1310.48 5.60491 1307.51 4.49929 1303.92 4.49929V5.49929ZM1312.12 8.57384C1314.31 10.5319 1315.4 13.0043 1315.4 16.0293H1316.4C1316.4 12.7289 1315.19 9.98277 1312.79 7.82927L1312.12 8.57384ZM1315.4 16.0293C1315.4 18.9717 1314.31 21.4492 1312.12 23.4912L1312.8 24.2231C1315.19 21.9953 1316.4 19.2543 1316.4 16.0293H1315.4ZM1312.12 23.4907C1310.01 25.4476 1307.29 26.4408 1303.92 26.4408V27.4408C1307.5 27.4408 1310.48 26.3782 1312.8 24.2235L1312.12 23.4907ZM1313.5 33.8197V100H1314.5V33.8197H1313.5ZM1314 99.5H1293.72V100.5H1314V99.5ZM1294.22 100V33.8197H1293.22V100H1294.22ZM1293.72 34.3197H1314V33.3197H1293.72V34.3197ZM1364.28 50.6613V51.1613H1364.78V50.6613H1364.28ZM1353.37 50.6613V50.1613H1352.87V50.6613H1353.37ZM1353.37 100V100.5H1353.87V100H1353.37ZM1333.08 100H1332.58V100.5H1333.08V100ZM1333.08 50.6613L1333.58 50.6613V50.1613L1333.08 50.1613V50.6613ZM1325.73 50.6613H1325.23V51.1613H1325.73V50.6613ZM1325.73 33.8197V33.3197H1325.23V33.8197H1325.73ZM1333.08 33.8197V34.3197L1333.58 34.3197V33.8197L1333.08 33.8197ZM1340.08 13.4201L1340.42 13.7921L1340.42 13.7889L1340.08 13.4201ZM1363.92 7.13413H1364.42V6.68661L1363.98 6.63719L1363.92 7.13413ZM1363.92 24.3315L1363.89 24.8306L1364.42 24.8631V24.3315H1363.92ZM1355.74 25.992L1356.06 26.3729L1356.06 26.3729L1355.74 25.992ZM1353.37 33.8197H1352.87V34.3197H1353.37V33.8197ZM1364.28 33.8197H1364.78V33.3197H1364.28V33.8197ZM1364.28 50.1613H1353.37V51.1613H1364.28V50.1613ZM1352.87 50.6613V100H1353.87V50.6613H1352.87ZM1353.37 99.5H1333.08V100.5H1353.37V99.5ZM1333.58 100V50.6613L1332.58 50.6613V100H1333.58ZM1333.08 50.1613H1325.73V51.1613H1333.08V50.1613ZM1326.23 50.6613V33.8197H1325.23V50.6613H1326.23ZM1325.73 34.3197H1333.08V33.3197H1325.73V34.3197ZM1333.58 33.8197V31.9221H1332.58V33.8197L1333.58 33.8197ZM1333.58 31.9221C1333.58 23.875 1335.89 17.8614 1340.42 13.792L1339.75 13.0481C1334.95 17.36 1332.58 23.6811 1332.58 31.9221H1333.58ZM1340.42 13.7889C1344.96 9.63354 1351.66 7.51553 1360.6 7.51553V6.51553C1351.51 6.51553 1344.53 8.66722 1339.74 13.0512L1340.42 13.7889ZM1360.6 7.51553C1362.1 7.51553 1363.18 7.55524 1363.87 7.63108L1363.98 6.63719C1363.24 6.5549 1362.11 6.51553 1360.6 6.51553V7.51553ZM1363.42 7.13413V24.3315H1364.42V7.13413L1363.42 7.13413ZM1363.95 23.8325C1360.05 23.5935 1357.15 24.1353 1355.41 25.611L1356.06 26.3729C1357.49 25.1603 1360.05 24.5951 1363.89 24.8306L1363.95 23.8325ZM1355.41 25.611C1353.66 27.0984 1352.87 29.697 1352.87 33.2267H1353.87C1353.87 29.7984 1354.65 27.5738 1356.06 26.3729L1355.41 25.611ZM1352.87 33.2267V33.8197H1353.87V33.2267H1352.87ZM1353.37 34.3197H1364.28V33.3197H1353.37V34.3197ZM1363.78 33.8197V50.6613H1364.78V33.8197H1363.78ZM1443.78 33.8197L1444.24 34.0154L1444.54 33.3197H1443.78V33.8197ZM1402.27 131.43V131.93H1402.6L1402.73 131.625L1402.27 131.43ZM1380.45 131.43L1379.99 131.224L1379.67 131.93H1380.45V131.43ZM1395.63 97.7465L1396.09 97.952L1396.18 97.7533L1396.09 97.5525L1395.63 97.7465ZM1368.71 33.8197V33.3197H1367.95L1368.25 34.0138L1368.71 33.8197ZM1391.36 33.8197L1391.83 33.6464L1391.71 33.3197H1391.36V33.8197ZM1406.66 75.212L1406.19 75.3854L1406.66 76.6592L1407.13 75.3842L1406.66 75.212ZM1421.84 33.8197V33.3197L1421.49 33.3197L1421.37 33.6476L1421.84 33.8197ZM1443.32 33.6241L1401.81 131.234L1402.73 131.625L1444.24 34.0154L1443.32 33.6241ZM1402.27 130.93L1380.45 130.93V131.93L1402.27 131.93V130.93ZM1380.9 131.635L1396.09 97.952L1395.17 97.5411L1379.99 131.224L1380.9 131.635ZM1396.09 97.5525L1369.17 33.6257L1368.25 34.0138L1395.17 97.9406L1396.09 97.5525ZM1368.71 34.3197L1391.36 34.3197V33.3197L1368.71 33.3197V34.3197ZM1390.89 33.9931L1406.19 75.3854L1407.13 75.0387L1391.83 33.6464L1390.89 33.9931ZM1407.13 75.3842L1422.31 33.9919L1421.37 33.6476L1406.19 75.0399L1407.13 75.3842ZM1421.84 34.3197H1443.78V33.3197H1421.84V34.3197Z" fill="#F2B125"/>
</svg>
