<svg width="101" height="115" viewBox="0 0 101 115" fill="none" xmlns="http://www.w3.org/2000/svg">
<path d="M31.4948 78.0373C26.1514 78.0373 21.3109 76.5914 16.9733 73.6996C12.6356 70.8079 9.20957 66.7846 6.69501 61.6298C4.24331 56.4121 3.01747 50.4086 3.01747 43.6193C3.01747 36.7671 4.24331 30.795 6.69501 25.703C9.1467 20.5482 12.5099 16.5563 16.7847 13.7275C21.0594 10.8357 25.8999 9.38985 31.3062 9.38985C36.7754 9.38985 41.6474 10.8357 45.9221 13.7275C50.1968 16.5563 53.5601 20.5482 56.0118 25.703C58.5263 30.8579 59.7836 36.8614 59.7836 43.7136C59.7836 50.5657 58.5263 56.5692 56.0118 61.7241C53.5601 66.8789 50.1968 70.9022 45.9221 73.7939C41.7102 76.6228 36.9011 78.0373 31.4948 78.0373ZM31.4005 64.9301C34.1665 64.9301 36.5554 64.1443 38.567 62.5727C40.5787 60.9383 42.1188 58.5494 43.1875 55.4062C44.3191 52.2002 44.8848 48.3026 44.8848 43.7136C44.8848 39.0616 44.3191 35.1641 43.1875 32.0209C42.1188 28.8777 40.5787 26.5203 38.567 24.9487C36.5554 23.3142 34.1351 22.497 31.3062 22.497C28.6031 22.497 26.2143 23.2828 24.1397 24.8544C22.1281 26.426 20.5879 28.7834 19.5192 31.9266C18.4506 35.0698 17.9162 38.9673 17.9162 43.6193C17.9162 48.2712 18.4506 52.1688 19.5192 55.3119C20.5879 58.4551 22.1281 60.844 24.1397 62.4784C26.2143 64.1129 28.6345 64.9301 31.4005 64.9301ZM77.5127 77L77.5127 10.4271L92.2228 10.4271L92.2228 77H77.5127ZM64.6884 22.9685V10.4271L91.2799 10.4271V22.9685L64.6884 22.9685Z" fill="#E49B00" fill-opacity="0.08"/>
<path d="M2.48 106.248V104.728H5.312C5.87733 104.728 6.31467 104.584 6.624 104.296C6.944 103.997 7.104 103.587 7.104 103.064C7.104 102.595 6.94933 102.2 6.64 101.88C6.33067 101.56 5.89333 101.4 5.328 101.4H2.48V99.8H5.408C6.112 99.8 6.73067 99.944 7.264 100.232C7.79733 100.509 8.208 100.893 8.496 101.384C8.79467 101.864 8.944 102.413 8.944 103.032C8.944 103.683 8.79467 104.248 8.496 104.728C8.208 105.208 7.79733 105.581 7.264 105.848C6.73067 106.115 6.112 106.248 5.408 106.248H2.48ZM1.216 111L1.216 99.8H3.056L3.056 111H1.216ZM7.36 111L3.44 106.136L5.152 105.512L9.68 111H7.36ZM14.1378 111.16C13.3698 111.16 12.6764 110.989 12.0578 110.648C11.4498 110.296 10.9644 109.816 10.6018 109.208C10.2498 108.6 10.0738 107.917 10.0738 107.16C10.0738 106.403 10.2498 105.725 10.6018 105.128C10.9538 104.52 11.4284 104.04 12.0258 103.688C12.6338 103.336 13.3058 103.16 14.0418 103.16C14.7564 103.16 15.3858 103.325 15.9298 103.656C16.4844 103.987 16.9164 104.44 17.2258 105.016C17.5458 105.592 17.7058 106.248 17.7058 106.984C17.7058 107.112 17.6951 107.245 17.6737 107.384C17.6631 107.512 17.6418 107.656 17.6098 107.816H11.3058V106.376H16.6978L16.0418 106.952C16.0204 106.483 15.9298 106.088 15.7698 105.768C15.6098 105.448 15.3804 105.203 15.0818 105.032C14.7938 104.861 14.4364 104.776 14.0098 104.776C13.5618 104.776 13.1724 104.872 12.8418 105.064C12.5111 105.256 12.2551 105.528 12.0738 105.88C11.8924 106.221 11.8018 106.632 11.8018 107.112C11.8018 107.592 11.8978 108.013 12.0898 108.376C12.2818 108.739 12.5538 109.021 12.9058 109.224C13.2578 109.416 13.6631 109.512 14.1218 109.512C14.5164 109.512 14.8791 109.443 15.2098 109.304C15.5511 109.165 15.8391 108.963 16.0738 108.696L17.1938 109.832C16.8204 110.269 16.3671 110.6 15.8338 110.824C15.3004 111.048 14.7351 111.16 14.1378 111.16ZM21.5836 111L18.0796 103.32H20.0316L22.7036 109.576H21.5516L24.2396 103.32H26.1116L22.6076 111H21.5836ZM27.1639 111L27.1639 103.32H28.9239L28.9239 111H27.1639ZM28.0439 101.912C27.7452 101.912 27.4945 101.811 27.2919 101.608C27.0999 101.405 27.0039 101.155 27.0039 100.856C27.0039 100.557 27.0999 100.307 27.2919 100.104C27.4945 99.9013 27.7452 99.8 28.0439 99.8C28.3532 99.8 28.6039 99.9013 28.7959 100.104C28.9879 100.307 29.0839 100.557 29.0839 100.856C29.0839 101.155 28.9879 101.405 28.7959 101.608C28.6039 101.811 28.3532 101.912 28.0439 101.912ZM34.4659 111.16C33.6979 111.16 33.0045 110.989 32.3859 110.648C31.7779 110.296 31.2925 109.816 30.9299 109.208C30.5779 108.6 30.4019 107.917 30.4019 107.16C30.4019 106.403 30.5779 105.725 30.9299 105.128C31.2819 104.52 31.7565 104.04 32.3539 103.688C32.9619 103.336 33.6339 103.16 34.3699 103.16C35.0845 103.16 35.7139 103.325 36.2579 103.656C36.8125 103.987 37.2445 104.44 37.5539 105.016C37.8739 105.592 38.0339 106.248 38.0339 106.984C38.0339 107.112 38.0232 107.245 38.0019 107.384C37.9912 107.512 37.9699 107.656 37.9379 107.816H31.6339V106.376H37.0259L36.3699 106.952C36.3485 106.483 36.2579 106.088 36.0979 105.768C35.9379 105.448 35.7085 105.203 35.4099 105.032C35.1219 104.861 34.7645 104.776 34.3379 104.776C33.8899 104.776 33.5005 104.872 33.1699 105.064C32.8392 105.256 32.5832 105.528 32.4019 105.88C32.2205 106.221 32.1299 106.632 32.1299 107.112C32.1299 107.592 32.2259 108.013 32.4179 108.376C32.6099 108.739 32.8819 109.021 33.2339 109.224C33.5859 109.416 33.9912 109.512 34.4499 109.512C34.8445 109.512 35.2072 109.443 35.5379 109.304C35.8792 109.165 36.1672 108.963 36.4019 108.696L37.5219 109.832C37.1485 110.269 36.6952 110.6 36.1619 110.824C35.6285 111.048 35.0632 111.16 34.4659 111.16ZM41.591 111L38.503 103.32H40.327L42.407 108.904L41.863 108.92L43.895 103.32H44.919L46.951 108.92L46.407 108.904L48.487 103.32L50.311 103.32L47.223 111H46.199L44.119 105.688H44.695L42.615 111H41.591ZM56.1206 106.776V105.176H58.9206C59.3046 105.176 59.6406 105.101 59.9286 104.952C60.2273 104.792 60.462 104.573 60.6326 104.296C60.8033 104.008 60.8886 103.672 60.8886 103.288C60.8886 102.904 60.8033 102.573 60.6326 102.296C60.462 102.008 60.2273 101.789 59.9286 101.64C59.6406 101.48 59.3046 101.4 58.9206 101.4H56.1206V99.8H59.0166C59.7206 99.8 60.35 99.944 60.9046 100.232C61.47 100.52 61.9126 100.925 62.2326 101.448C62.5633 101.971 62.7286 102.584 62.7286 103.288C62.7286 103.992 62.5633 104.605 62.2326 105.128C61.9126 105.651 61.47 106.056 60.9046 106.344C60.35 106.632 59.7206 106.776 59.0166 106.776H56.1206ZM54.8566 111V99.8H56.6966V111L54.8566 111ZM64.2729 111V103.32H66.0329V111H64.2729ZM66.0329 106.728L65.4249 106.424C65.4249 105.453 65.6382 104.669 66.0649 104.072C66.5022 103.464 67.1582 103.16 68.0329 103.16C68.4169 103.16 68.7635 103.229 69.0729 103.368C69.3822 103.507 69.6702 103.731 69.9369 104.04L68.7849 105.224C68.6462 105.075 68.4915 104.968 68.3209 104.904C68.1502 104.84 67.9529 104.808 67.7289 104.808C67.2382 104.808 66.8329 104.963 66.5129 105.272C66.1929 105.581 66.0329 106.067 66.0329 106.728ZM74.0741 111.16C73.3275 111.16 72.6501 110.984 72.0421 110.632C71.4341 110.269 70.9488 109.784 70.5861 109.176C70.2341 108.568 70.0581 107.891 70.0581 107.144C70.0581 106.397 70.2341 105.725 70.5861 105.128C70.9488 104.531 71.4341 104.056 72.0421 103.704C72.6501 103.341 73.3275 103.16 74.0741 103.16C74.8315 103.16 75.5141 103.336 76.1221 103.688C76.7301 104.04 77.2101 104.52 77.5621 105.128C77.9248 105.725 78.1061 106.397 78.1061 107.144C78.1061 107.891 77.9248 108.568 77.5621 109.176C77.2101 109.784 76.7301 110.269 76.1221 110.632C75.5141 110.984 74.8315 111.16 74.0741 111.16ZM74.0741 109.464C74.5115 109.464 74.8955 109.368 75.2261 109.176C75.5675 108.973 75.8288 108.696 76.0101 108.344C76.2021 107.992 76.2981 107.592 76.2981 107.144C76.2981 106.696 76.2021 106.301 76.0101 105.96C75.8181 105.619 75.5568 105.352 75.2261 105.16C74.8955 104.957 74.5115 104.856 74.0741 104.856C73.6475 104.856 73.2635 104.957 72.9221 105.16C72.5915 105.352 72.3301 105.619 72.1381 105.96C71.9568 106.301 71.8661 106.696 71.8661 107.144C71.8661 107.592 71.9568 107.992 72.1381 108.344C72.3301 108.696 72.5915 108.973 72.9221 109.176C73.2635 109.368 73.6475 109.464 74.0741 109.464ZM80.407 111V101.992C80.407 101.48 80.519 101.027 80.743 100.632C80.9777 100.227 81.2977 99.9067 81.703 99.672C82.1083 99.4373 82.583 99.32 83.127 99.32C83.5323 99.32 83.8843 99.3893 84.183 99.528C84.4923 99.656 84.7803 99.8427 85.047 100.088L83.895 101.24C83.7883 101.155 83.671 101.091 83.543 101.048C83.4257 100.995 83.287 100.968 83.127 100.968C82.8177 100.968 82.5777 101.059 82.407 101.24C82.247 101.421 82.167 101.667 82.167 101.976V111H80.407ZM78.567 104.92V103.32H86.055V104.92H78.567ZM85.047 111V103.32H86.807V111H85.047ZM85.927 102.648C85.6283 102.648 85.3777 102.547 85.175 102.344C84.983 102.141 84.887 101.891 84.887 101.592C84.887 101.293 84.983 101.043 85.175 100.84C85.3777 100.637 85.6283 100.536 85.927 100.536C86.2363 100.536 86.487 100.637 86.679 100.84C86.871 101.043 86.967 101.293 86.967 101.592C86.967 101.891 86.871 102.141 86.679 102.344C86.487 102.547 86.2363 102.648 85.927 102.648ZM88.7729 111V99.48H90.5329V111H88.7729ZM96.0596 111.16C95.2916 111.16 94.5983 110.989 93.9796 110.648C93.3716 110.296 92.8863 109.816 92.5236 109.208C92.1716 108.6 91.9956 107.917 91.9956 107.16C91.9956 106.403 92.1716 105.725 92.5236 105.128C92.8756 104.52 93.3503 104.04 93.9476 103.688C94.5556 103.336 95.2276 103.16 95.9636 103.16C96.6783 103.16 97.3076 103.325 97.8516 103.656C98.4063 103.987 98.8383 104.44 99.1476 105.016C99.4676 105.592 99.6276 106.248 99.6276 106.984C99.6276 107.112 99.617 107.245 99.5956 107.384C99.585 107.512 99.5636 107.656 99.5316 107.816H93.2276V106.376H98.6196L97.9636 106.952C97.9423 106.483 97.8516 106.088 97.6916 105.768C97.5316 105.448 97.3023 105.203 97.0036 105.032C96.7156 104.861 96.3583 104.776 95.9316 104.776C95.4836 104.776 95.0943 104.872 94.7636 105.064C94.433 105.256 94.177 105.528 93.9956 105.88C93.8143 106.221 93.7236 106.632 93.7236 107.112C93.7236 107.592 93.8196 108.013 94.0116 108.376C94.2036 108.739 94.4756 109.021 94.8276 109.224C95.1796 109.416 95.585 109.512 96.0436 109.512C96.4383 109.512 96.801 109.443 97.1316 109.304C97.473 109.165 97.761 108.963 97.9956 108.696L99.1156 109.832C98.7423 110.269 98.289 110.6 97.7556 110.824C97.2223 111.048 96.657 111.16 96.0596 111.16Z" fill="#E49B00"/>
<path fill-rule="evenodd" clip-rule="evenodd" d="M8.79986 31.5215C8.15769 31.7541 7.71373 32.0879 7.3507 32.6111C6.8981 33.2634 6.76409 33.899 6.76409 35.3943V36.7175L4.45287 36.7504C2.27683 36.7813 2.11708 36.7969 1.72194 37.0173C1.06366 37.3846 0.632133 37.8375 0.331425 38.4766L0.0540776 39.0662L0.0270388 47.9209L0 56.7755L0.340173 57.1306C0.838304 57.6506 1.48038 57.5804 1.82701 56.9679C1.97781 56.7014 1.99253 55.9179 1.99253 48.151C1.99253 38.895 1.97463 39.198 2.53649 38.9308C2.735 38.8364 6.44867 38.8068 18.1062 38.8068C34.752 38.8068 33.8196 38.7737 34.0818 39.3746C34.2541 39.7694 34.2541 81.4283 34.0818 81.8231C33.8195 82.4241 34.7529 82.3909 18.0966 82.3909C1.44022 82.3909 2.37366 82.4241 2.11132 81.8231C2.02225 81.6192 1.99253 79.418 1.99253 73.0414C1.99253 63.8015 2.01032 64.1032 1.44857 63.836C0.923596 63.5862 0.315917 63.8 0.115611 64.305C0.0300209 64.5204 0.00695847 66.8789 0.0270388 73.3639C0.0537795 82.0295 0.0565627 82.137 0.26343 82.6038C0.569407 83.2942 1.03632 83.7969 1.67621 84.125L2.24105 84.4145H18.0966H33.9521L34.5169 84.125C35.1578 83.7964 35.6252 83.2925 35.928 82.6038C36.1015 82.2091 36.1414 81.881 36.1712 80.6077L36.2067 79.0838L38.5089 79.0511C40.6757 79.0203 40.8359 79.0045 41.2309 78.7842C41.8892 78.417 42.3207 77.9641 42.6214 77.325L42.8988 76.7354V55.2027V33.6701L42.6894 33.1978C42.3834 32.5074 41.9165 32.0046 41.2766 31.6766L40.7118 31.3871L25.0054 31.3639C10.2959 31.3422 9.26728 31.3521 8.79986 31.5215ZM40.4489 33.5585C40.5996 33.6399 40.7762 33.8289 40.8415 33.9785C41.0138 34.3732 41.0138 76.0322 40.8415 76.427C40.6187 76.9377 40.3514 76.9948 38.1829 76.9948H36.1908L36.165 58.0305L36.1391 39.0662L35.9297 38.5939C35.6362 37.9315 35.1492 37.3878 34.5575 37.062L34.0515 36.7832L21.4019 36.7557L8.75225 36.7282L8.75573 35.4586C8.7595 34.0982 8.83873 33.7993 9.26022 33.5555C9.62823 33.3425 40.0542 33.3455 40.4489 33.5585ZM16.4066 43.0135C11.964 43.7466 8.5089 47.2655 7.54584 52.0377C7.3838 52.8407 7.3838 55.2818 7.54584 56.0848C8.29398 59.7919 10.4542 62.6765 13.642 64.2245C17.5748 66.1344 22.275 65.3223 25.4639 62.182C25.8446 61.8071 26.3803 61.1924 26.6543 60.8161C27.3483 59.8629 28.1841 58.0497 28.5003 56.8112C28.7365 55.8864 28.7653 55.5872 28.7653 54.0612C28.7653 52.5438 28.7358 52.2336 28.5057 51.3344C28.0285 49.4685 27.1117 47.7382 25.8758 46.3705C23.46 43.6972 19.9034 42.4363 16.4066 43.0135ZM20.2338 45.2254C23.3857 46.1046 25.7303 48.5342 26.5552 51.7761C27.1613 54.158 26.7321 56.9353 25.4412 58.985L25.006 59.6759L24.7088 59.2813C23.7961 58.0698 22.6341 57.058 21.6016 56.5753L21.2041 56.3896L21.5838 55.7341C22.0712 54.8927 22.207 54.1905 22.152 52.7973C22.1115 51.7706 22.0799 51.6255 21.741 50.9097C20.0078 47.2488 14.9101 47.9673 14.1101 51.9854C14.0461 52.3069 14.018 52.9859 14.0455 53.542C14.0991 54.6229 14.3239 55.3846 14.7691 55.994C14.9153 56.1941 15.0193 56.3687 15.0001 56.382C14.9809 56.3953 14.6604 56.5641 14.2881 56.7571C13.259 57.2906 11.8288 58.6398 11.3546 59.5242C11.2619 59.6973 11.2404 59.6923 11.0501 59.4542C10.6764 58.9867 9.84444 57.135 9.62952 56.2923C9.32891 55.1138 9.32951 53.0044 9.63081 51.8301C10.0943 50.0233 11.2406 48.1424 12.5547 47.0322C13.7147 46.0521 15.3889 45.2678 16.8356 45.0267C17.6099 44.8976 19.4428 45.0048 20.2338 45.2254ZM19.1674 50.9135C19.401 51.053 19.7141 51.3594 19.8632 51.5945C20.1006 51.9687 20.1387 52.1429 20.169 52.9938C20.2002 53.8719 20.1786 54.0192 19.9441 54.5194C19.591 55.2729 19.0535 55.6452 18.2375 55.7017C17.7697 55.734 17.5448 55.6963 17.2434 55.5345C16.3649 55.0629 16.009 54.3759 16.009 53.151C16.009 52.4815 16.055 52.2414 16.2697 51.7916C16.8218 50.6353 18.0685 50.2575 19.1674 50.9135ZM19.2397 57.9522C20.1867 58.1283 21.4015 58.7285 22.1136 59.3721C22.6212 59.8308 23.4646 60.9464 23.4646 61.159C23.4646 61.339 22.2793 62.1211 21.4948 62.4589C20.2197 63.0077 19.5623 63.1355 18.0469 63.1287C16.834 63.1234 16.5428 63.087 15.7807 62.8456C14.5478 62.4551 12.727 61.4559 12.7295 61.1713C12.73 61.1133 12.9618 60.7443 13.2446 60.3514C13.8202 59.5511 14.6697 58.8419 15.5617 58.4167C16.0792 58.1701 16.3771 58.0826 17.4504 57.862C17.8591 57.7779 18.4682 57.8086 19.2397 57.9522ZM0.512347 59.706C-0.0741582 60.0453 -0.151994 60.7677 0.34236 61.2838C0.838305 61.8015 1.48107 61.7301 1.82701 61.1188C2.34433 60.2045 1.40165 59.1914 0.512347 59.706ZM7.20029 67.5488C7.08488 67.5979 6.89472 67.765 6.77781 67.9202C6.57502 68.1892 6.56528 68.3092 6.56528 70.5283C6.56528 72.9914 6.61886 73.3225 7.05685 73.5672C7.32237 73.7156 28.8708 73.7156 29.1363 73.5672C29.5747 73.3223 29.6279 72.9923 29.6279 70.5158V68.1775L29.3378 67.8386L29.0477 67.4997L18.229 67.4796C12.2786 67.4686 7.31581 67.4997 7.20029 67.5488ZM27.6397 70.561V71.5987H18.0966H8.55343V70.561V69.5232H18.0966H27.6397V70.561ZM11.8704 76.4523C11.3618 76.8823 11.3062 77.4622 11.7263 77.953L12.0164 78.2919H18.0966H24.1767L24.478 77.94C24.7397 77.6342 24.7721 77.532 24.7245 77.1619C24.6881 76.8783 24.5827 76.6575 24.4095 76.5021L24.1493 76.2684L18.1159 76.2707C12.5493 76.2729 12.066 76.2869 11.8704 76.4523Z" fill="#E49B00"/>
</svg>
