<svg width="142" height="115" viewBox="0 0 142 115" fill="none" xmlns="http://www.w3.org/2000/svg">
<path d="M44.7517 78.0373C39.4082 78.0373 34.5677 76.5914 30.2301 73.6996C25.8925 70.8079 22.4664 66.7846 19.9518 61.6298C17.5002 56.4121 16.2743 50.4086 16.2743 43.6193C16.2743 36.7671 17.5002 30.795 19.9518 25.703C22.4035 20.5482 25.7668 16.5563 30.0415 13.7275C34.3163 10.8357 39.1568 9.38985 44.5631 9.38985C50.0322 9.38985 54.9042 10.8357 59.1789 13.7275C63.4537 16.5563 66.8169 20.5482 69.2686 25.703C71.7831 30.8579 73.0404 36.8614 73.0404 43.7136C73.0404 50.5657 71.7831 56.5692 69.2686 61.7241C66.8169 66.8789 63.4537 70.9022 59.1789 73.7939C54.967 76.6228 50.158 78.0373 44.7517 78.0373ZM44.6574 64.9301C47.4234 64.9301 49.8122 64.1443 51.8239 62.5727C53.8355 60.9383 55.3757 58.5494 56.4444 55.4062C57.5759 52.2002 58.1417 48.3026 58.1417 43.7136C58.1417 39.0616 57.5759 35.1641 56.4444 32.0209C55.3757 28.8777 53.8355 26.5203 51.8239 24.9487C49.8122 23.3142 47.3919 22.497 44.5631 22.497C41.8599 22.497 39.4711 23.2828 37.3966 24.8544C35.3849 26.426 33.8448 28.7834 32.7761 31.9266C31.7074 35.0698 31.1731 38.9673 31.1731 43.6193C31.1731 48.2712 31.7074 52.1688 32.7761 55.3119C33.8448 58.4551 35.3849 60.844 37.3966 62.4784C39.4711 64.1129 41.8914 64.9301 44.6574 64.9301ZM78.3225 68.702L103.877 42.2991C105.448 40.7275 106.706 39.2816 107.648 37.9615C108.591 36.6414 109.283 35.4155 109.723 34.284C110.163 33.0895 110.383 31.8951 110.383 30.7007C110.383 28.1233 109.534 26.1117 107.837 24.6658C106.203 23.157 104.034 22.4027 101.331 22.4027C98.6904 22.4027 96.3016 23.1256 94.1642 24.5715C92.0897 25.9545 90.078 28.249 88.1292 31.4551L78.2282 22.8742C80.8685 18.4108 84.2317 15.0476 88.3178 12.7845C92.404 10.5214 97.0874 9.38985 102.368 9.38985C106.957 9.38985 110.917 10.2385 114.249 11.9358C117.644 13.6332 120.253 16.0534 122.076 19.1966C123.962 22.3398 124.905 26.0174 124.905 30.2292C124.905 32.8695 124.559 35.3212 123.867 37.5843C123.176 39.7846 122.044 41.9848 120.473 44.185C118.964 46.3224 116.921 48.6798 114.343 51.2572L96.6159 68.8906L78.3225 68.702ZM78.3225 77V68.702L90.8638 64.3644H126.225V77H78.3225Z" fill="#E49B00" fill-opacity="0.08"/>
<path d="M2.05584 111L2.05584 99.8H3.33584L7.99184 107.464H7.15984L11.8158 99.8H13.0958L13.0958 111H11.2558V103.032L11.6718 103.144L8.21584 108.824H6.93584L3.47984 103.144L3.89584 103.032L3.89584 111H2.05584ZM18.8526 111.16C18.0846 111.16 17.3913 110.989 16.7726 110.648C16.1646 110.296 15.6793 109.816 15.3166 109.208C14.9646 108.6 14.7886 107.917 14.7886 107.16C14.7886 106.403 14.9646 105.725 15.3166 105.128C15.6686 104.52 16.1433 104.04 16.7406 103.688C17.3486 103.336 18.0206 103.16 18.7566 103.16C19.4713 103.16 20.1006 103.325 20.6446 103.656C21.1993 103.987 21.6313 104.44 21.9406 105.016C22.2606 105.592 22.4206 106.248 22.4206 106.984C22.4206 107.112 22.4099 107.245 22.3886 107.384C22.3779 107.512 22.3566 107.656 22.3246 107.816H16.0206V106.376H21.4126L20.7566 106.952C20.7353 106.483 20.6446 106.088 20.4846 105.768C20.3246 105.448 20.0953 105.203 19.7966 105.032C19.5086 104.861 19.1513 104.776 18.7246 104.776C18.2766 104.776 17.8873 104.872 17.5566 105.064C17.2259 105.256 16.9699 105.528 16.7886 105.88C16.6073 106.221 16.5166 106.632 16.5166 107.112C16.5166 107.592 16.6126 108.013 16.8046 108.376C16.9966 108.739 17.2686 109.021 17.6206 109.224C17.9726 109.416 18.3779 109.512 18.8366 109.512C19.2313 109.512 19.5939 109.443 19.9246 109.304C20.2659 109.165 20.5539 108.963 20.7886 108.696L21.9086 109.832C21.5353 110.269 21.0819 110.6 20.5486 110.824C20.0153 111.048 19.4499 111.16 18.8526 111.16ZM27.3995 111.16C26.6315 111.16 25.9381 110.989 25.3195 110.648C24.7115 110.296 24.2261 109.816 23.8635 109.208C23.5115 108.6 23.3355 107.917 23.3355 107.16C23.3355 106.403 23.5115 105.725 23.8635 105.128C24.2155 104.52 24.6901 104.04 25.2875 103.688C25.8955 103.336 26.5675 103.16 27.3035 103.16C28.0181 103.16 28.6475 103.325 29.1915 103.656C29.7461 103.987 30.1781 104.44 30.4875 105.016C30.8075 105.592 30.9675 106.248 30.9675 106.984C30.9675 107.112 30.9568 107.245 30.9355 107.384C30.9248 107.512 30.9035 107.656 30.8715 107.816H24.5675V106.376H29.9595L29.3035 106.952C29.2821 106.483 29.1915 106.088 29.0315 105.768C28.8715 105.448 28.6421 105.203 28.3435 105.032C28.0555 104.861 27.6981 104.776 27.2715 104.776C26.8235 104.776 26.4341 104.872 26.1035 105.064C25.7728 105.256 25.5168 105.528 25.3355 105.88C25.1541 106.221 25.0635 106.632 25.0635 107.112C25.0635 107.592 25.1595 108.013 25.3515 108.376C25.5435 108.739 25.8155 109.021 26.1675 109.224C26.5195 109.416 26.9248 109.512 27.3835 109.512C27.7781 109.512 28.1408 109.443 28.4715 109.304C28.8128 109.165 29.1008 108.963 29.3355 108.696L30.4555 109.832C30.0821 110.269 29.6288 110.6 29.0955 110.824C28.5621 111.048 27.9968 111.16 27.3995 111.16ZM33.3588 111V100.12H35.1188V111H33.3588ZM31.5188 104.92V103.32H36.9588V104.92H31.5188ZM42.6088 111V100.12H44.3688V111H42.6088ZM40.7688 104.92V103.32H46.2088V104.92H40.7688ZM52.7517 111V106.568C52.7517 106.056 52.5864 105.635 52.2557 105.304C51.9357 104.973 51.5197 104.808 51.0077 104.808C50.6664 104.808 50.3624 104.883 50.0957 105.032C49.8291 105.181 49.6211 105.389 49.4717 105.656C49.3224 105.923 49.2477 106.227 49.2477 106.568L48.5597 106.184C48.5597 105.597 48.6877 105.08 48.9437 104.632C49.1997 104.173 49.5517 103.816 49.9997 103.56C50.4584 103.293 50.9704 103.16 51.5357 103.16C52.1117 103.16 52.6237 103.288 53.0717 103.544C53.5197 103.8 53.8717 104.157 54.1277 104.616C54.3837 105.064 54.5117 105.587 54.5117 106.184V111H52.7517ZM47.4877 111V99.48L49.2477 99.48V111H47.4877ZM59.8682 111.16C59.1002 111.16 58.4069 110.989 57.7882 110.648C57.1802 110.296 56.6949 109.816 56.3322 109.208C55.9802 108.6 55.8042 107.917 55.8042 107.16C55.8042 106.403 55.9802 105.725 56.3322 105.128C56.6842 104.52 57.1589 104.04 57.7562 103.688C58.3642 103.336 59.0362 103.16 59.7722 103.16C60.4869 103.16 61.1162 103.325 61.6602 103.656C62.2149 103.987 62.6469 104.44 62.9562 105.016C63.2762 105.592 63.4362 106.248 63.4362 106.984C63.4362 107.112 63.4256 107.245 63.4042 107.384C63.3936 107.512 63.3722 107.656 63.3402 107.816H57.0362V106.376H62.4282L61.7722 106.952C61.7509 106.483 61.6602 106.088 61.5002 105.768C61.3402 105.448 61.1109 105.203 60.8122 105.032C60.5242 104.861 60.1669 104.776 59.7402 104.776C59.2922 104.776 58.9029 104.872 58.5722 105.064C58.2416 105.256 57.9856 105.528 57.8042 105.88C57.6229 106.221 57.5322 106.632 57.5322 107.112C57.5322 107.592 57.6282 108.013 57.8202 108.376C58.0122 108.739 58.2842 109.021 58.6362 109.224C58.9882 109.416 59.3936 109.512 59.8522 109.512C60.2469 109.512 60.6096 109.443 60.9402 109.304C61.2816 109.165 61.5696 108.963 61.8042 108.696L62.9242 109.832C62.5509 110.269 62.0976 110.6 61.5642 110.824C61.0309 111.048 60.4656 111.16 59.8682 111.16ZM73.3782 111.16C72.5676 111.16 71.8156 111.016 71.1222 110.728C70.4396 110.429 69.8422 110.019 69.3302 109.496C68.8182 108.963 68.4236 108.349 68.1462 107.656C67.8689 106.952 67.7302 106.2 67.7302 105.4C67.7302 104.6 67.8689 103.853 68.1462 103.16C68.4236 102.456 68.8182 101.843 69.3302 101.32C69.8422 100.797 70.4396 100.387 71.1222 100.088C71.8156 99.7893 72.5676 99.64 73.3782 99.64C74.2849 99.64 75.0689 99.7893 75.7302 100.088C76.3916 100.387 76.9782 100.792 77.4902 101.304L76.2422 102.552C75.9116 102.189 75.5062 101.907 75.0262 101.704C74.5569 101.501 74.0076 101.4 73.3782 101.4C72.8236 101.4 72.3169 101.496 71.8582 101.688C71.3996 101.88 70.9996 102.157 70.6582 102.52C70.3276 102.872 70.0716 103.293 69.8902 103.784C69.7089 104.275 69.6182 104.813 69.6182 105.4C69.6182 105.987 69.7089 106.525 69.8902 107.016C70.0716 107.507 70.3276 107.933 70.6582 108.296C70.9996 108.648 71.3996 108.92 71.8582 109.112C72.3169 109.304 72.8236 109.4 73.3782 109.4C74.0609 109.4 74.6369 109.299 75.1062 109.096C75.5862 108.883 75.9916 108.595 76.3222 108.232L77.5702 109.48C77.0582 110.003 76.4556 110.413 75.7622 110.712C75.0689 111.011 74.2742 111.16 73.3782 111.16ZM81.9693 111.16C81.276 111.16 80.6467 110.984 80.0813 110.632C79.5267 110.28 79.084 109.805 78.7533 109.208C78.4333 108.6 78.2733 107.923 78.2733 107.176C78.2733 106.419 78.4333 105.741 78.7533 105.144C79.084 104.536 79.5267 104.056 80.0813 103.704C80.6467 103.341 81.276 103.16 81.9693 103.16C82.556 103.16 83.0733 103.288 83.5213 103.544C83.98 103.789 84.3427 104.131 84.6093 104.568C84.876 105.005 85.0093 105.501 85.0093 106.056V108.264C85.0093 108.819 84.876 109.315 84.6093 109.752C84.3533 110.189 83.996 110.536 83.5373 110.792C83.0787 111.037 82.556 111.16 81.9693 111.16ZM82.2573 109.496C82.908 109.496 83.4307 109.277 83.8253 108.84C84.2307 108.403 84.4333 107.843 84.4333 107.16C84.4333 106.701 84.3427 106.296 84.1613 105.944C83.98 105.592 83.724 105.32 83.3933 105.128C83.0733 104.925 82.6947 104.824 82.2573 104.824C81.8307 104.824 81.452 104.925 81.1213 105.128C80.8013 105.32 80.5453 105.592 80.3533 105.944C80.172 106.296 80.0813 106.701 80.0813 107.16C80.0813 107.619 80.172 108.024 80.3533 108.376C80.5453 108.728 80.8013 109.005 81.1213 109.208C81.452 109.4 81.8307 109.496 82.2573 109.496ZM84.3213 111V108.936L84.6253 107.064L84.3213 105.208V103.32H86.0813V111H84.3213ZM93.2986 111V106.568C93.2986 106.056 93.1333 105.635 92.8026 105.304C92.4826 104.973 92.0666 104.808 91.5546 104.808C91.2133 104.808 90.9093 104.883 90.6426 105.032C90.3759 105.181 90.1679 105.389 90.0186 105.656C89.8693 105.923 89.7946 106.227 89.7946 106.568L89.1066 106.184C89.1066 105.597 89.2346 105.08 89.4906 104.632C89.7466 104.173 90.0986 103.816 90.5466 103.56C91.0053 103.293 91.5173 103.16 92.0826 103.16C92.6586 103.16 93.1706 103.309 93.6186 103.608C94.0666 103.896 94.4186 104.275 94.6746 104.744C94.9306 105.203 95.0586 105.683 95.0586 106.184V111H93.2986ZM88.0346 111V103.32H89.7946V111H88.0346ZM100.063 111.16C99.3698 111.16 98.7404 110.984 98.1751 110.632C97.6204 110.28 97.1778 109.805 96.8471 109.208C96.5271 108.6 96.3671 107.923 96.3671 107.176C96.3671 106.419 96.5271 105.741 96.8471 105.144C97.1778 104.536 97.6204 104.056 98.1751 103.704C98.7404 103.341 99.3698 103.16 100.063 103.16C100.65 103.16 101.167 103.288 101.615 103.544C102.074 103.789 102.436 104.131 102.703 104.568C102.97 105.005 103.103 105.501 103.103 106.056V108.264C103.103 108.819 102.97 109.315 102.703 109.752C102.447 110.189 102.09 110.536 101.631 110.792C101.172 111.037 100.65 111.16 100.063 111.16ZM100.351 109.496C100.788 109.496 101.167 109.4 101.487 109.208C101.818 109.005 102.074 108.728 102.255 108.376C102.436 108.024 102.527 107.619 102.527 107.16C102.527 106.701 102.436 106.296 102.255 105.944C102.074 105.592 101.818 105.32 101.487 105.128C101.167 104.925 100.794 104.824 100.367 104.824C99.9298 104.824 99.5458 104.925 99.2151 105.128C98.8951 105.32 98.6391 105.592 98.4471 105.944C98.2658 106.296 98.1751 106.701 98.1751 107.16C98.1751 107.619 98.2658 108.024 98.4471 108.376C98.6391 108.728 98.8951 109.005 99.2151 109.208C99.5458 109.4 99.9244 109.496 100.351 109.496ZM104.175 111H102.415V108.936L102.719 107.064L102.415 105.208V99.48H104.175V111ZM106.144 111V103.32H107.904V111H106.144ZM107.024 101.912C106.726 101.912 106.475 101.811 106.272 101.608C106.08 101.405 105.984 101.155 105.984 100.856C105.984 100.557 106.08 100.307 106.272 100.104C106.475 99.9013 106.726 99.8 107.024 99.8C107.334 99.8 107.584 99.9013 107.776 100.104C107.968 100.307 108.064 100.557 108.064 100.856C108.064 101.155 107.968 101.405 107.776 101.608C107.584 101.811 107.334 101.912 107.024 101.912ZM113.094 111.16C112.401 111.16 111.772 110.984 111.206 110.632C110.652 110.28 110.209 109.805 109.878 109.208C109.558 108.6 109.398 107.923 109.398 107.176C109.398 106.419 109.558 105.741 109.878 105.144C110.209 104.536 110.652 104.056 111.206 103.704C111.772 103.341 112.401 103.16 113.094 103.16C113.681 103.16 114.198 103.288 114.646 103.544C115.105 103.789 115.468 104.131 115.734 104.568C116.001 105.005 116.134 105.501 116.134 106.056V108.264C116.134 108.819 116.001 109.315 115.734 109.752C115.478 110.189 115.121 110.536 114.662 110.792C114.204 111.037 113.681 111.16 113.094 111.16ZM113.382 109.496C113.82 109.496 114.198 109.4 114.518 109.208C114.849 109.005 115.105 108.728 115.286 108.376C115.468 108.024 115.558 107.619 115.558 107.16C115.558 106.701 115.468 106.296 115.286 105.944C115.105 105.592 114.849 105.32 114.518 105.128C114.198 104.925 113.825 104.824 113.398 104.824C112.961 104.824 112.577 104.925 112.246 105.128C111.926 105.32 111.67 105.592 111.478 105.944C111.297 106.296 111.206 106.701 111.206 107.16C111.206 107.619 111.297 108.024 111.478 108.376C111.67 108.728 111.926 109.005 112.246 109.208C112.577 109.4 112.956 109.496 113.382 109.496ZM117.206 111H115.446V108.936L115.75 107.064L115.446 105.208V99.48H117.206V111ZM122.376 111.16C121.682 111.16 121.053 110.984 120.488 110.632C119.933 110.28 119.49 109.805 119.16 109.208C118.84 108.6 118.68 107.923 118.68 107.176C118.68 106.419 118.84 105.741 119.16 105.144C119.49 104.536 119.933 104.056 120.488 103.704C121.053 103.341 121.682 103.16 122.376 103.16C122.962 103.16 123.48 103.288 123.928 103.544C124.386 103.789 124.749 104.131 125.016 104.568C125.282 105.005 125.416 105.501 125.416 106.056V108.264C125.416 108.819 125.282 109.315 125.016 109.752C124.76 110.189 124.402 110.536 123.944 110.792C123.485 111.037 122.962 111.16 122.376 111.16ZM122.664 109.496C123.314 109.496 123.837 109.277 124.232 108.84C124.637 108.403 124.84 107.843 124.84 107.16C124.84 106.701 124.749 106.296 124.568 105.944C124.386 105.592 124.13 105.32 123.8 105.128C123.48 104.925 123.101 104.824 122.664 104.824C122.237 104.824 121.858 104.925 121.528 105.128C121.208 105.32 120.952 105.592 120.76 105.944C120.578 106.296 120.488 106.701 120.488 107.16C120.488 107.619 120.578 108.024 120.76 108.376C120.952 108.728 121.208 109.005 121.528 109.208C121.858 109.4 122.237 109.496 122.664 109.496ZM124.728 111V108.936L125.032 107.064L124.728 105.208V103.32H126.488V111H124.728ZM129.609 111V100.12L131.369 100.12V111H129.609ZM127.769 104.92V103.32L133.209 103.32V104.92L127.769 104.92ZM137.837 111.16C137.069 111.16 136.376 110.989 135.757 110.648C135.149 110.296 134.664 109.816 134.301 109.208C133.949 108.6 133.773 107.917 133.773 107.16C133.773 106.403 133.949 105.725 134.301 105.128C134.653 104.52 135.128 104.04 135.725 103.688C136.333 103.336 137.005 103.16 137.741 103.16C138.456 103.16 139.085 103.325 139.629 103.656C140.184 103.987 140.616 104.44 140.925 105.016C141.245 105.592 141.405 106.248 141.405 106.984C141.405 107.112 141.394 107.245 141.373 107.384C141.362 107.512 141.341 107.656 141.309 107.816H135.005V106.376H140.397L139.741 106.952C139.72 106.483 139.629 106.088 139.469 105.768C139.309 105.448 139.08 105.203 138.781 105.032C138.493 104.861 138.136 104.776 137.709 104.776C137.261 104.776 136.872 104.872 136.541 105.064C136.21 105.256 135.954 105.528 135.773 105.88C135.592 106.221 135.501 106.632 135.501 107.112C135.501 107.592 135.597 108.013 135.789 108.376C135.981 108.739 136.253 109.021 136.605 109.224C136.957 109.416 137.362 109.512 137.821 109.512C138.216 109.512 138.578 109.443 138.909 109.304C139.25 109.165 139.538 108.963 139.773 108.696L140.893 109.832C140.52 110.269 140.066 110.6 139.533 110.824C139 111.048 138.434 111.16 137.837 111.16Z" fill="#E49B00"/>
<path fill-rule="evenodd" clip-rule="evenodd" d="M8.04987 31.5332C5.80943 32.077 3.9213 34.0242 3.45232 36.2744C3.3569 36.7327 3.31591 41.6898 3.31591 52.7973V68.6656H2.58103C1.69814 68.6656 1.25867 68.8449 1.02288 69.3012C0.802405 69.7279 0.771297 75.0848 0.983379 76.1026C1.46581 78.4177 3.44665 80.4 5.76005 80.8827C6.68664 81.0761 58.2123 81.0761 59.1389 80.8827C61.4523 80.4 63.4331 78.4177 63.9156 76.1026C64.1276 75.0848 64.0965 69.7279 63.8761 69.3012C63.6403 68.8449 63.2008 68.6656 62.3179 68.6656H61.583V52.7973C61.583 41.6898 61.542 36.7327 61.4466 36.2744C60.9642 33.9593 58.9833 31.977 56.6699 31.4943C55.6708 31.2857 8.91499 31.3232 8.04987 31.5332ZM56.6812 34.0765C57.5796 34.4129 58.2888 35.0521 58.7053 35.9009L59.0524 36.608L59.0851 52.6368L59.1177 68.6656H57.6346H56.1513V53.2175C56.1513 36.4274 56.186 37.2648 55.4758 36.941C55.2346 36.831 52.9337 36.7933 46.4488 36.7933C37.0016 36.7933 37.2328 36.7769 36.9176 37.4693C36.7311 37.879 36.7311 38.1784 36.9176 38.5881C37.2312 39.2768 37.066 39.2641 45.7139 39.2641H53.6824V53.9649V68.6656H49.8579H46.0334L45.9758 68.3877C45.9441 68.2347 45.8819 67.7768 45.8374 67.3698C45.7291 66.3774 45.2491 64.7557 44.7323 63.6367C43.4532 60.8659 41.0449 58.4239 38.2842 57.098L37.127 56.5422L37.5718 56.0494C38.2769 55.2685 38.8389 54.3061 39.175 53.3042C39.4502 52.4839 39.4858 52.1733 39.4845 50.6076C39.4835 49.4571 39.4203 48.6024 39.3039 48.1642C38.631 45.6342 36.4671 43.5592 33.9431 43.0238C30.2574 42.2419 26.5655 44.5153 25.5951 48.1642C25.4786 48.6024 25.4154 49.4571 25.4145 50.6076C25.4131 52.1815 25.4479 52.4814 25.7295 53.3207C26.0521 54.2822 26.8637 55.6391 27.4392 56.1791C27.7907 56.5088 27.8449 56.6826 27.5964 56.6826C27.5073 56.6826 26.9585 56.9256 26.377 57.2225C23.6784 58.6004 21.4102 60.9432 20.1666 63.6367C19.6498 64.7557 19.1699 66.3774 19.0615 67.3698C19.017 67.7768 18.9548 68.2347 18.9231 68.3877L18.8656 68.6656H15.0411H11.2165V53.9649V39.2641H19.1731C25.0789 39.2641 27.2131 39.226 27.4533 39.1164C27.8071 38.9551 28.1288 38.4371 28.1288 38.0287C28.1288 37.6203 27.8071 37.1023 27.4533 36.941C27.2121 36.831 24.9112 36.7933 18.4262 36.7933C8.97906 36.7933 9.21027 36.7769 8.89511 37.4693C8.78327 37.7149 8.74759 41.5248 8.74759 53.2294V68.6656H7.26438H5.78128L5.81387 52.6368L5.84658 36.608L6.19359 35.9009C6.60282 35.0668 7.31338 34.4172 8.1827 34.0826C8.79623 33.8464 9.30397 33.8412 32.4139 33.8349C55.7558 33.8286 56.026 33.8312 56.6812 34.0765ZM31.8458 36.9658C30.7756 37.5594 31.2234 39.2641 32.4495 39.2641C33.075 39.2641 33.6839 38.6606 33.6839 38.0407C33.6839 37.1132 32.6597 36.5143 31.8458 36.9658ZM33.8253 45.565C35.2372 46.0106 36.2478 46.9773 36.7767 48.3878C37.0055 48.9985 37.0329 49.2926 36.9966 50.7529C36.959 52.2715 36.9253 52.4818 36.6198 53.1042C36.4353 53.4802 36.0206 54.0518 35.6981 54.3745C33.4525 56.6216 29.6891 55.9773 28.2792 53.1042C27.9736 52.4818 27.9399 52.2715 27.9023 50.7529C27.866 49.2926 27.8934 48.9985 28.1223 48.3878C28.6437 46.997 29.6543 46.0183 31.0298 45.5717C31.9907 45.2598 32.8517 45.2577 33.8253 45.565ZM31.215 60.0894V61.8902L31.5758 62.2513C32.0493 62.725 32.7675 62.7517 33.2758 62.3145L33.6222 62.0167L33.662 60.1526L33.7017 58.2885L34.2175 58.3668C35.7943 58.6059 37.8762 59.52 39.2173 60.5623C41.5112 62.3448 43.0866 65.0723 43.416 67.8318L43.5155 68.6656H32.4495H21.3834L21.4829 67.8318C21.9683 63.7658 25.0099 60.1109 29.0015 58.7973C29.7283 58.558 30.6389 58.3391 31.0607 58.3022C31.1777 58.2918 31.215 58.724 31.215 60.0894ZM61.5618 73.4527C61.5225 75.6978 61.5107 75.7905 61.1769 76.4709C60.7867 77.2661 60.1886 77.8463 59.3673 78.2266L58.8055 78.4868L32.6114 78.5188C6.60579 78.5505 6.41259 78.549 5.7519 78.3016C4.85049 77.9641 4.14153 77.3258 3.72465 76.4761C3.38764 75.7893 3.37653 75.7021 3.33715 73.4527L3.29666 71.1364H32.4495H61.6023L61.5618 73.4527ZM27.0619 73.7275C26.3296 74.0288 26.1649 75.1197 26.7614 75.7167L27.1222 76.0778H32.4495H37.7767L38.1375 75.7167C38.6111 75.2428 38.6376 74.5241 38.2005 74.0155L37.9028 73.6689L32.6145 73.6438C29.7061 73.6301 27.2074 73.6677 27.0619 73.7275Z" fill="#E49B00"/>
</svg>
