<svg width="134" height="114" viewBox="0 0 134 114" fill="none" xmlns="http://www.w3.org/2000/svg">
<path d="M31.4948 78.9865C26.1514 78.9865 21.3109 77.5406 16.9733 74.6489C12.6356 71.7571 9.20957 67.7338 6.69501 62.579C4.24331 57.3613 3.01747 51.3578 3.01747 44.5685C3.01747 37.7163 4.24331 31.7442 6.69501 26.6523C9.1467 21.4974 12.5099 17.5056 16.7847 14.6767C21.0594 11.7849 25.8999 10.3391 31.3062 10.3391C36.7754 10.3391 41.6474 11.7849 45.9221 14.6767C50.1968 17.5056 53.5601 21.4974 56.0118 26.6523C58.5263 31.8071 59.7836 37.8106 59.7836 44.6628C59.7836 51.5149 58.5263 57.5184 56.0118 62.6733C53.5601 67.8281 50.1968 71.8514 45.9221 74.7432C41.7102 77.572 36.9011 78.9865 31.4948 78.9865ZM31.4005 65.8793C34.1665 65.8793 36.5554 65.0935 38.567 63.5219C40.5787 61.8875 42.1188 59.4987 43.1875 56.3555C44.3191 53.1494 44.8848 49.2518 44.8848 44.6628C44.8848 40.0108 44.3191 36.1133 43.1875 32.9701C42.1188 29.8269 40.5787 27.4695 38.567 25.8979C36.5554 24.2634 34.1351 23.4462 31.3062 23.4462C28.6031 23.4462 26.2143 24.232 24.1397 25.8036C22.1281 27.3752 20.5879 29.7326 19.5192 32.8758C18.4506 36.019 17.9162 39.9165 17.9162 44.5685C17.9162 49.2204 18.4506 53.118 19.5192 56.2612C20.5879 59.4044 22.1281 61.7932 24.1397 63.4277C26.2143 65.0621 28.6345 65.8793 31.4005 65.8793ZM86.6594 78.9865C82.0703 78.9865 77.8584 78.2007 74.0237 76.6291C70.189 74.9946 66.9516 72.6686 64.3113 69.6512L73.8352 60.1273C75.0296 61.8875 76.7583 63.3334 79.0214 64.4649C81.3474 65.5336 83.7991 66.0679 86.3765 66.0679C88.7025 66.0679 90.7141 65.6593 92.4114 64.8421C94.1088 64.0249 95.4289 62.8619 96.3719 61.3531C97.3777 59.8444 97.8806 58.0528 97.8806 55.9783C97.8806 53.9038 97.3777 52.1436 96.3719 50.6977C95.4289 49.189 94.0145 48.026 92.1286 47.2088C90.3055 46.3915 88.1053 45.9829 85.5278 45.9829C84.3334 45.9829 83.0761 46.0772 81.756 46.2658C80.4987 46.3915 79.43 46.6116 78.5499 46.9259L85.0564 38.7221C86.8166 38.2192 88.4824 37.8106 90.054 37.4963C91.6885 37.1191 93.1972 36.9305 94.5802 36.9305C97.9749 36.9305 101.024 37.7477 103.727 39.3822C106.43 40.9538 108.567 43.2169 110.139 46.1715C111.774 49.0632 112.591 52.5208 112.591 56.5441C112.591 60.9445 111.491 64.8421 109.29 68.2367C107.153 71.6314 104.136 74.2717 100.238 76.1576C96.4033 78.0435 91.8771 78.9865 86.6594 78.9865ZM78.5499 46.9259L78.5499 38.7221L94.7688 19.6744L111.365 19.5801L94.486 38.8164L78.5499 46.9259ZM68.4603 23.9177V11.3763L111.365 11.3763V19.5801L99.7665 23.9177L68.4603 23.9177Z" fill="#E49B00" fill-opacity="0.08"/>
<path d="M5.86672 105.776V104.176H8.66672C9.05072 104.176 9.38672 104.101 9.67472 103.952C9.97339 103.792 10.2081 103.573 10.3787 103.296C10.5494 103.008 10.6347 102.672 10.6347 102.288C10.6347 101.904 10.5494 101.573 10.3787 101.296C10.2081 101.008 9.97339 100.789 9.67472 100.64C9.38672 100.48 9.05072 100.4 8.66672 100.4H5.86672V98.8H8.76272C9.46672 98.8 10.0961 98.944 10.6507 99.232C11.2161 99.52 11.6587 99.9253 11.9787 100.448C12.3094 100.971 12.4747 101.584 12.4747 102.288C12.4747 102.992 12.3094 103.605 11.9787 104.128C11.6587 104.651 11.2161 105.056 10.6507 105.344C10.0961 105.632 9.46672 105.776 8.76272 105.776H5.86672ZM4.60272 110L4.60272 98.8H6.44272L6.44272 110H4.60272ZM14.019 110V102.32H15.779V110H14.019ZM15.779 105.728L15.171 105.424C15.171 104.453 15.3843 103.669 15.811 103.072C16.2483 102.464 16.9043 102.16 17.779 102.16C18.163 102.16 18.5096 102.229 18.819 102.368C19.1283 102.507 19.4163 102.731 19.683 103.04L18.531 104.224C18.3923 104.075 18.2376 103.968 18.067 103.904C17.8963 103.84 17.699 103.808 17.475 103.808C16.9843 103.808 16.579 103.963 16.259 104.272C15.939 104.581 15.779 105.067 15.779 105.728ZM20.5506 110L20.5506 102.32H22.3106L22.3106 110H20.5506ZM21.4306 100.912C21.1319 100.912 20.8813 100.811 20.6786 100.608C20.4866 100.405 20.3906 100.155 20.3906 99.856C20.3906 99.5573 20.4866 99.3067 20.6786 99.104C20.8813 98.9013 21.1319 98.8 21.4306 98.8C21.7399 98.8 21.9906 98.9013 22.1826 99.104C22.3746 99.3067 22.4706 99.5573 22.4706 99.856C22.4706 100.155 22.3746 100.405 22.1826 100.608C21.9906 100.811 21.7399 100.912 21.4306 100.912ZM27.8206 110.16C27.0633 110.16 26.3753 109.984 25.7566 109.632C25.1486 109.28 24.6686 108.8 24.3166 108.192C23.9646 107.584 23.7886 106.907 23.7886 106.16C23.7886 105.403 23.9646 104.725 24.3166 104.128C24.6686 103.52 25.1486 103.04 25.7566 102.688C26.3753 102.336 27.0633 102.16 27.8206 102.16C28.4179 102.16 28.9726 102.277 29.4846 102.512C30.0073 102.736 30.4499 103.061 30.8126 103.488L29.6606 104.656C29.4366 104.389 29.1646 104.192 28.8446 104.064C28.5353 103.925 28.1939 103.856 27.8206 103.856C27.3833 103.856 26.9939 103.957 26.6526 104.16C26.3219 104.352 26.0606 104.619 25.8686 104.96C25.6873 105.301 25.5966 105.701 25.5966 106.16C25.5966 106.608 25.6873 107.008 25.8686 107.36C26.0606 107.701 26.3219 107.973 26.6526 108.176C26.9939 108.368 27.3833 108.464 27.8206 108.464C28.1939 108.464 28.5353 108.4 28.8446 108.272C29.1646 108.133 29.4366 107.931 29.6606 107.664L30.8126 108.832C30.4499 109.259 30.0073 109.589 29.4846 109.824C28.9726 110.048 28.4179 110.16 27.8206 110.16ZM32.0975 110V102.32H33.8575V110H32.0975ZM32.9775 100.912C32.6788 100.912 32.4281 100.811 32.2255 100.608C32.0335 100.405 31.9375 100.155 31.9375 99.856C31.9375 99.5573 32.0335 99.3067 32.2255 99.104C32.4281 98.9013 32.6788 98.8 32.9775 98.8C33.2868 98.8 33.5375 98.9013 33.7295 99.104C33.9215 99.3067 34.0175 99.5573 34.0175 99.856C34.0175 100.155 33.9215 100.405 33.7295 100.608C33.5375 100.811 33.2868 100.912 32.9775 100.912ZM41.0955 110V105.568C41.0955 105.056 40.9301 104.635 40.5995 104.304C40.2795 103.973 39.8635 103.808 39.3515 103.808C39.0101 103.808 38.7061 103.883 38.4395 104.032C38.1728 104.181 37.9648 104.389 37.8155 104.656C37.6661 104.923 37.5915 105.227 37.5915 105.568L36.9035 105.184C36.9035 104.597 37.0315 104.08 37.2875 103.632C37.5435 103.173 37.8955 102.816 38.3435 102.56C38.8021 102.293 39.3141 102.16 39.8795 102.16C40.4555 102.16 40.9675 102.309 41.4155 102.608C41.8635 102.896 42.2155 103.275 42.4715 103.744C42.7275 104.203 42.8555 104.683 42.8555 105.184V110H41.0955ZM35.8315 110V102.32H37.5915V110H35.8315ZM47.844 113.36C47.0333 113.36 46.324 113.211 45.716 112.912C45.108 112.624 44.6173 112.213 44.244 111.68L45.396 110.528C45.7053 110.912 46.0573 111.2 46.452 111.392C46.8466 111.584 47.3213 111.68 47.876 111.68C48.5693 111.68 49.1186 111.499 49.524 111.136C49.9293 110.784 50.132 110.299 50.132 109.68V107.792L50.436 106.096L50.132 104.384V102.32H51.892V109.68C51.892 110.416 51.7213 111.056 51.38 111.6C51.0386 112.155 50.564 112.587 49.956 112.896C49.348 113.205 48.644 113.36 47.844 113.36ZM47.764 109.84C47.0813 109.84 46.4626 109.675 45.908 109.344C45.364 109.003 44.932 108.539 44.612 107.952C44.3026 107.365 44.148 106.709 44.148 105.984C44.148 105.259 44.3026 104.608 44.612 104.032C44.932 103.456 45.364 103.003 45.908 102.672C46.4626 102.331 47.0813 102.16 47.764 102.16C48.372 102.16 48.9053 102.283 49.364 102.528C49.8226 102.773 50.18 103.115 50.436 103.552C50.692 103.979 50.82 104.48 50.82 105.056V106.944C50.82 107.509 50.6866 108.011 50.42 108.448C50.164 108.885 49.8066 109.227 49.348 109.472C48.8893 109.717 48.3613 109.84 47.764 109.84ZM48.116 108.176C48.5426 108.176 48.916 108.085 49.236 107.904C49.556 107.723 49.8013 107.472 49.972 107.152C50.1533 106.821 50.244 106.437 50.244 106C50.244 105.563 50.1533 105.184 49.972 104.864C49.8013 104.533 49.556 104.277 49.236 104.096C48.916 103.915 48.5426 103.824 48.116 103.824C47.6893 103.824 47.3106 103.915 46.98 104.096C46.66 104.277 46.4093 104.533 46.228 104.864C46.0466 105.184 45.956 105.563 45.956 106C45.956 106.427 46.0466 106.805 46.228 107.136C46.4093 107.467 46.66 107.723 46.98 107.904C47.3106 108.085 47.6893 108.176 48.116 108.176ZM64.5062 110L59.1942 104.192C58.7996 103.755 58.5009 103.339 58.2982 102.944C58.1062 102.549 58.0102 102.112 58.0102 101.632C58.0102 101.067 58.1489 100.56 58.4262 100.112C58.7036 99.6533 59.0822 99.2907 59.5622 99.024C60.0422 98.7573 60.5916 98.624 61.2102 98.624C61.6796 98.624 62.1062 98.704 62.4902 98.864C62.8742 99.0133 63.2102 99.216 63.4982 99.472C63.7969 99.7173 64.0422 99.9893 64.2342 100.288L62.9702 101.408C62.7356 101.088 62.4796 100.827 62.2022 100.624C61.9356 100.421 61.6049 100.32 61.2102 100.32C60.8049 100.32 60.4636 100.443 60.1862 100.688C59.9089 100.923 59.7702 101.221 59.7702 101.584C59.7702 101.947 59.8449 102.245 59.9942 102.48C60.1436 102.715 60.3516 102.987 60.6182 103.296L66.6182 110H64.5062ZM60.6822 110.16C59.9142 110.16 59.2422 110.016 58.6662 109.728C58.1009 109.429 57.6582 109.024 57.3382 108.512C57.0289 107.989 56.8742 107.397 56.8742 106.736C56.8742 106.064 57.0556 105.461 57.4182 104.928C57.7916 104.395 58.3356 103.963 59.0502 103.632L59.8662 104.704C59.4716 104.917 59.1676 105.184 58.9542 105.504C58.7409 105.813 58.6342 106.208 58.6342 106.688C58.6342 107.072 58.7196 107.397 58.8902 107.664C59.0716 107.931 59.3222 108.139 59.6422 108.288C59.9622 108.427 60.3302 108.496 60.7462 108.496C61.2902 108.496 61.7382 108.384 62.0902 108.16C62.4529 107.936 62.7249 107.669 62.9062 107.36L64.0582 108.704C63.8342 108.981 63.5462 109.232 63.1942 109.456C62.8422 109.669 62.4529 109.84 62.0262 109.968C61.5996 110.096 61.1516 110.16 60.6822 110.16ZM75.6751 110.16C74.8644 110.16 74.1124 110.016 73.4191 109.728C72.7364 109.429 72.1391 109.019 71.6271 108.496C71.1151 107.963 70.7204 107.349 70.4431 106.656C70.1658 105.952 70.0271 105.2 70.0271 104.4C70.0271 103.6 70.1658 102.853 70.4431 102.16C70.7204 101.456 71.1151 100.843 71.6271 100.32C72.1391 99.7973 72.7364 99.3867 73.4191 99.088C74.1124 98.7893 74.8644 98.64 75.6751 98.64C76.5818 98.64 77.3658 98.7893 78.0271 99.088C78.6884 99.3867 79.2751 99.792 79.7871 100.304L78.5391 101.552C78.2084 101.189 77.8031 100.907 77.3231 100.704C76.8538 100.501 76.3044 100.4 75.6751 100.4C75.1204 100.4 74.6138 100.496 74.1551 100.688C73.6964 100.88 73.2964 101.157 72.9551 101.52C72.6244 101.872 72.3684 102.293 72.1871 102.784C72.0058 103.275 71.9151 103.813 71.9151 104.4C71.9151 104.987 72.0058 105.525 72.1871 106.016C72.3684 106.507 72.6244 106.933 72.9551 107.296C73.2964 107.648 73.6964 107.92 74.1551 108.112C74.6138 108.304 75.1204 108.4 75.6751 108.4C76.3578 108.4 76.9338 108.299 77.4031 108.096C77.8831 107.883 78.2884 107.595 78.6191 107.232L79.8671 108.48C79.3551 109.003 78.7524 109.413 78.0591 109.712C77.3658 110.011 76.5711 110.16 75.6751 110.16ZM84.5702 110.16C83.8236 110.16 83.1462 109.984 82.5382 109.632C81.9302 109.269 81.4449 108.784 81.0822 108.176C80.7302 107.568 80.5542 106.891 80.5542 106.144C80.5542 105.397 80.7302 104.725 81.0822 104.128C81.4449 103.531 81.9302 103.056 82.5382 102.704C83.1462 102.341 83.8236 102.16 84.5702 102.16C85.3276 102.16 86.0102 102.336 86.6182 102.688C87.2262 103.04 87.7062 103.52 88.0582 104.128C88.4209 104.725 88.6022 105.397 88.6022 106.144C88.6022 106.891 88.4209 107.568 88.0582 108.176C87.7062 108.784 87.2262 109.269 86.6182 109.632C86.0102 109.984 85.3276 110.16 84.5702 110.16ZM84.5702 108.464C85.0076 108.464 85.3916 108.368 85.7222 108.176C86.0636 107.973 86.3249 107.696 86.5062 107.344C86.6982 106.992 86.7942 106.592 86.7942 106.144C86.7942 105.696 86.6982 105.301 86.5062 104.96C86.3142 104.619 86.0529 104.352 85.7222 104.16C85.3916 103.957 85.0076 103.856 84.5702 103.856C84.1436 103.856 83.7596 103.957 83.4182 104.16C83.0876 104.352 82.8262 104.619 82.6342 104.96C82.4529 105.301 82.3622 105.696 82.3622 106.144C82.3622 106.592 82.4529 106.992 82.6342 107.344C82.8262 107.696 83.0876 107.973 83.4182 108.176C83.7596 108.368 84.1436 108.464 84.5702 108.464ZM95.3298 110V105.568C95.3298 105.056 95.1645 104.635 94.8338 104.304C94.5138 103.973 94.0978 103.808 93.5858 103.808C93.2445 103.808 92.9405 103.883 92.6738 104.032C92.4072 104.181 92.1992 104.389 92.0498 104.656C91.9005 104.923 91.8258 105.227 91.8258 105.568L91.1378 105.184C91.1378 104.597 91.2658 104.08 91.5218 103.632C91.7778 103.173 92.1298 102.816 92.5778 102.56C93.0365 102.293 93.5485 102.16 94.1138 102.16C94.6898 102.16 95.2018 102.309 95.6498 102.608C96.0978 102.896 96.4498 103.275 96.7058 103.744C96.9618 104.203 97.0898 104.683 97.0898 105.184V110H95.3298ZM90.0658 110V102.32H91.8258V110H90.0658ZM99.9526 110V99.12H101.713V110H99.9526ZM98.1126 103.92V102.32H103.553V103.92H98.1126ZM104.831 110V102.32H106.591V110H104.831ZM106.591 105.728L105.983 105.424C105.983 104.453 106.197 103.669 106.623 103.072C107.061 102.464 107.717 102.16 108.591 102.16C108.975 102.16 109.322 102.229 109.631 102.368C109.941 102.507 110.229 102.731 110.495 103.04L109.343 104.224C109.205 104.075 109.05 103.968 108.879 103.904C108.709 103.84 108.511 103.808 108.287 103.808C107.797 103.808 107.391 103.963 107.071 104.272C106.751 104.581 106.591 105.067 106.591 105.728ZM114.329 110.16C113.635 110.16 113.006 109.984 112.441 109.632C111.886 109.28 111.443 108.805 111.113 108.208C110.793 107.6 110.633 106.923 110.633 106.176C110.633 105.419 110.793 104.741 111.113 104.144C111.443 103.536 111.886 103.056 112.441 102.704C113.006 102.341 113.635 102.16 114.329 102.16C114.915 102.16 115.433 102.288 115.881 102.544C116.339 102.789 116.702 103.131 116.969 103.568C117.235 104.005 117.369 104.501 117.369 105.056V107.264C117.369 107.819 117.235 108.315 116.969 108.752C116.713 109.189 116.355 109.536 115.897 109.792C115.438 110.037 114.915 110.16 114.329 110.16ZM114.617 108.496C115.267 108.496 115.79 108.277 116.185 107.84C116.59 107.403 116.793 106.843 116.793 106.16C116.793 105.701 116.702 105.296 116.521 104.944C116.339 104.592 116.083 104.32 115.753 104.128C115.433 103.925 115.054 103.824 114.617 103.824C114.19 103.824 113.811 103.925 113.481 104.128C113.161 104.32 112.905 104.592 112.713 104.944C112.531 105.296 112.441 105.701 112.441 106.16C112.441 106.619 112.531 107.024 112.713 107.376C112.905 107.728 113.161 108.005 113.481 108.208C113.811 108.4 114.19 108.496 114.617 108.496ZM116.681 110V107.936L116.985 106.064L116.681 104.208V102.32H118.441V110H116.681ZM123.93 110.16C123.173 110.16 122.485 109.984 121.866 109.632C121.258 109.28 120.778 108.8 120.426 108.192C120.074 107.584 119.898 106.907 119.898 106.16C119.898 105.403 120.074 104.725 120.426 104.128C120.778 103.52 121.258 103.04 121.866 102.688C122.485 102.336 123.173 102.16 123.93 102.16C124.527 102.16 125.082 102.277 125.594 102.512C126.117 102.736 126.559 103.061 126.922 103.488L125.77 104.656C125.546 104.389 125.274 104.192 124.954 104.064C124.645 103.925 124.303 103.856 123.93 103.856C123.493 103.856 123.103 103.957 122.762 104.16C122.431 104.352 122.17 104.619 121.978 104.96C121.797 105.301 121.706 105.701 121.706 106.16C121.706 106.608 121.797 107.008 121.978 107.36C122.17 107.701 122.431 107.973 122.762 108.176C123.103 108.368 123.493 108.464 123.93 108.464C124.303 108.464 124.645 108.4 124.954 108.272C125.274 108.133 125.546 107.931 125.77 107.664L126.922 108.832C126.559 109.259 126.117 109.589 125.594 109.824C125.082 110.048 124.527 110.16 123.93 110.16ZM129.234 110V99.12H130.994V110H129.234ZM127.394 103.92V102.32L132.834 102.32V103.92L127.394 103.92Z" fill="#E49B00"/>
<path fill-rule="evenodd" clip-rule="evenodd" d="M20.9136 31.3113C19.2601 31.7137 17.8518 33.0712 17.3599 34.7368L17.227 35.1866H15.3547C13.3119 35.1866 12.7485 35.2863 12.1313 35.7569C11.5914 36.1686 11.2251 36.993 11.2251 37.7966V38.4599L7.63608 38.4903C3.6167 38.5245 3.71898 38.5044 3.49673 39.3041C3.34807 39.8391 3.35103 83.9982 3.4998 84.5335C3.55973 84.7492 3.73412 85.0242 3.88734 85.1446L4.16592 85.3637L22.8634 85.3304C41.5199 85.2971 41.5631 85.2966 42.4611 85.0721C45.0907 84.4149 47.1064 83.3313 48.8994 81.611C51.633 78.9883 53.058 75.6669 53.059 71.9159C53.0595 69.5669 52.6179 67.7224 51.5663 65.6826C49.6041 61.876 45.7482 59.1211 41.5876 58.5529L40.6611 58.4264V56.2217C40.6611 53.823 40.606 53.5461 40.0817 53.3073C39.6396 53.1059 39.3134 53.158 38.9421 53.4895L38.5963 53.7981L38.5642 56.1092L38.5323 58.4203L37.4366 58.5994C32.7577 59.3641 28.6592 62.7556 26.9719 67.2586C26.3906 68.8099 26.2189 69.828 26.2132 71.7571C26.206 74.2365 26.5638 75.82 27.5966 77.8792C28.5405 79.761 29.9633 81.474 31.5972 82.6955L32.3277 83.2417H18.9176H5.50737V61.9133V40.5849H8.36626H11.2251V41.1283C11.2251 42.2305 11.7362 43.1042 12.6353 43.5393C13.0874 43.7581 13.1819 43.7603 22.0324 43.7593L30.9726 43.7582L31.5144 43.5061C32.3906 43.0982 32.9315 42.1587 32.9315 41.0444V40.5849H35.7374H38.5434V42.8708C38.5434 44.8134 38.5698 45.2014 38.7197 45.4549C39.077 46.0598 39.8604 46.1648 40.3516 45.6737L40.6611 45.3643L40.6587 42.2601C40.6566 39.4789 40.6373 39.1324 40.4734 38.9301C40.1126 38.4848 39.963 38.4679 36.3939 38.4679H32.96L32.9087 37.7526C32.8315 36.6745 32.3797 35.9409 31.502 35.4686C31.1213 35.2637 30.8667 35.2352 28.9813 35.1871L26.884 35.1337L26.6517 34.4428C25.8654 32.1047 23.3325 30.7225 20.9136 31.3113ZM23.3903 33.6557C24.2829 34.1415 24.7046 34.8421 24.821 36.0334C24.8781 36.6176 24.9361 36.7653 25.2056 37.0125L25.523 37.3036H28.0413C29.8588 37.3036 30.595 37.3389 30.6867 37.4306C30.8329 37.5767 30.8686 41.2872 30.7261 41.5117C30.6593 41.6169 28.8471 41.639 22.0187 41.6175L13.3958 41.5904L13.3669 39.5931C13.347 38.2094 13.3753 37.5507 13.4593 37.4496C13.5562 37.3329 14.09 37.3036 16.1169 37.3036H18.6534L18.9629 36.9942C19.2111 36.7461 19.2724 36.5926 19.2724 36.2195C19.2724 35.9636 19.3474 35.5016 19.4391 35.1929C19.6451 34.4996 20.3914 33.7096 21.0781 33.4578C21.7682 33.2047 22.7095 33.2854 23.3903 33.6557ZM38.9134 48.779C38.5532 49.1391 38.4794 49.5302 38.689 49.9695C38.8886 50.3878 39.3966 50.6504 39.8416 50.5653C40.2572 50.4859 40.6611 49.9671 40.6611 49.5127C40.6611 48.663 39.5121 48.1805 38.9134 48.779ZM12.1133 50.7433C11.4237 51.0245 11.2286 51.9304 11.7464 52.448L12.0559 52.7574H22.1813C33.385 52.7574 32.7982 52.7939 33.0332 52.0819C33.1834 51.6269 33.0939 51.2597 32.7552 50.9416L32.4909 50.6934L22.414 50.6728C16.8715 50.6615 12.2363 50.6933 12.1133 50.7433ZM12.1133 58.4711C11.4241 58.7495 11.2286 59.6573 11.7464 60.1749L12.0559 60.4843H19.8018H27.5477L27.8572 60.1749C28.3694 59.6628 28.2306 58.8399 27.5801 58.5312C27.278 58.3879 26.3 58.3682 19.7858 58.374C15.6889 58.3777 12.2363 58.4214 12.1133 58.4711ZM40.9258 60.6017C45.9683 61.2194 49.9402 64.9917 50.8282 70.0065C51.0002 70.9777 50.9715 72.9781 50.7707 74.0234C49.9457 78.3173 46.7119 81.7454 42.4082 82.8887C41.4658 83.139 41.1571 83.17 39.6022 83.17C38.0606 83.17 37.7354 83.1379 36.8366 82.8979C31.9655 81.5967 28.5309 77.3848 28.3016 72.4313C28.2043 70.3306 28.5761 68.633 29.5507 66.7294C31.4383 63.0424 35.3105 60.6164 39.4963 60.4984C39.7584 60.491 40.4016 60.5375 40.9258 60.6017ZM39.307 62.9426C38.916 63.0439 38.5444 63.5492 38.5438 63.9802C38.5435 64.2076 38.4417 64.292 37.8665 64.5425C37.4942 64.7047 36.9996 64.9999 36.7674 65.1986C35.6155 66.1842 35.0987 67.9055 35.5246 69.339C35.8223 70.3411 36.5937 71.124 37.9288 71.7788L38.5319 72.0747L38.5377 74.8664L38.5434 77.6582L38.1992 77.5905C38.0099 77.5534 37.4687 77.3305 36.9965 77.0953C36.041 76.6193 35.7765 76.616 35.3178 77.0744C34.9082 77.484 34.9423 78.0882 35.3994 78.5189C35.8891 78.9802 37.013 79.5034 37.8428 79.6563C38.514 79.7799 38.5434 79.798 38.5434 80.0898C38.5434 80.5327 38.816 80.9902 39.1976 81.1875C39.4705 81.3285 39.602 81.3383 39.9254 81.2415C40.4195 81.0934 40.6611 80.7343 40.6611 80.1477C40.6611 79.6942 40.663 79.6918 41.217 79.4959C43.3194 78.7525 44.6532 76.56 44.3503 74.3453C44.1235 72.6879 43.1612 71.6752 40.9522 70.7697L40.6611 70.6503V68.531C40.6611 66.9243 40.6926 66.4118 40.7913 66.4118C40.863 66.4118 41.2008 66.584 41.542 66.7946C42.0574 67.1126 42.2279 67.1669 42.5499 67.1157C43.3224 66.9928 43.6907 66.051 43.2067 65.436C42.9545 65.1154 41.687 64.4346 41.1251 64.3178C40.7561 64.2412 40.7099 64.1943 40.652 63.8382C40.5795 63.3929 40.2287 62.962 39.885 62.8964C39.7586 62.8723 39.4985 62.893 39.307 62.9426ZM12.1133 66.1965C11.4233 66.4799 11.2286 67.3842 11.7464 67.9018L12.0559 68.2112H17.3665H22.677L22.9865 67.9018C23.409 67.4794 23.4092 66.9653 22.9871 66.4929L22.6782 66.1472L17.5076 66.1259C14.6637 66.1142 12.2363 66.1459 12.1133 66.1965ZM38.5213 68.9152L38.4904 69.725L38.1425 69.4318C37.2742 68.7003 37.2751 67.6248 38.1446 66.8115L38.4904 66.488L38.5213 67.2967C38.5384 67.7415 38.5384 68.4698 38.5213 68.9152ZM41.2578 73.2419C42.3768 73.8974 42.5992 75.5329 41.7211 76.6488C41.4893 76.9433 40.8868 77.42 40.7464 77.42C40.6995 77.42 40.6611 76.4198 40.6611 75.1972C40.6611 73.9747 40.6926 72.9744 40.7312 72.9744C40.7697 72.9744 41.0067 73.0948 41.2578 73.2419ZM12.2082 73.8935C12.0791 73.9195 11.8528 74.0842 11.7052 74.2596C11.3276 74.7082 11.3432 75.2257 11.7464 75.6288L12.0559 75.9381H17.3665H22.677L22.9865 75.6288C23.409 75.2063 23.4092 74.6922 22.9871 74.2198L22.6783 73.8741L17.5605 73.8601C14.7458 73.8525 12.3372 73.8674 12.2082 73.8935Z" fill="#E49B00"/>
</svg>
