<svg width="135" height="114" viewBox="0 0 135 114" fill="none" xmlns="http://www.w3.org/2000/svg">
<path d="M44.7517 78.9865C39.4082 78.9865 34.5677 77.5406 30.2301 74.6489C25.8925 71.7571 22.4664 67.7338 19.9518 62.579C17.5002 57.3613 16.2743 51.3578 16.2743 44.5685C16.2743 37.7163 17.5002 31.7442 19.9518 26.6523C22.4035 21.4974 25.7668 17.5056 30.0415 14.6767C34.3163 11.7849 39.1568 10.3391 44.5631 10.3391C50.0322 10.3391 54.9042 11.7849 59.1789 14.6767C63.4537 17.5056 66.8169 21.4974 69.2686 26.6523C71.7831 31.8071 73.0404 37.8106 73.0404 44.6628C73.0404 51.5149 71.7831 57.5184 69.2686 62.6733C66.8169 67.8281 63.4537 71.8514 59.1789 74.7432C54.967 77.572 50.158 78.9865 44.7517 78.9865ZM44.6574 65.8793C47.4234 65.8793 49.8122 65.0935 51.8239 63.5219C53.8355 61.8875 55.3757 59.4987 56.4444 56.3555C57.5759 53.1494 58.1417 49.2518 58.1417 44.6628C58.1417 40.0108 57.5759 36.1133 56.4444 32.9701C55.3757 29.8269 53.8355 27.4695 51.8239 25.8979C49.8122 24.2634 47.3919 23.4462 44.5631 23.4462C41.8599 23.4462 39.4711 24.232 37.3966 25.8036C35.3849 27.3752 33.8448 29.7326 32.7761 32.8758C31.7074 36.019 31.1731 39.9165 31.1731 44.5685C31.1731 49.2204 31.7074 53.118 32.7761 56.2612C33.8448 59.4044 35.3849 61.7932 37.3966 63.4277C39.4711 65.0621 41.8914 65.8793 44.6574 65.8793ZM78.0396 54.8467L99.9162 11.3763L116.041 11.3763L93.6927 54.8467L78.0396 54.8467ZM78.0396 63.1448V54.8467L82.943 50.6034L131.411 50.6034V63.1448L78.0396 63.1448ZM109.44 77.9492L109.44 36.7419L123.962 36.7419L123.962 77.9492H109.44Z" fill="#E49B00" fill-opacity="0.08"/>
<path d="M5.17584 110.16C4.29051 110.16 3.53851 110 2.91984 109.68C2.30118 109.36 1.74651 108.891 1.25584 108.272L2.50384 107.024C2.81318 107.472 3.18118 107.824 3.60784 108.08C4.03451 108.325 4.57851 108.448 5.23984 108.448C5.85851 108.448 6.34918 108.32 6.71184 108.064C7.08518 107.808 7.27184 107.456 7.27184 107.008C7.27184 106.635 7.17584 106.331 6.98384 106.096C6.79184 105.861 6.53584 105.669 6.21584 105.52C5.90651 105.36 5.55984 105.221 5.17584 105.104C4.80251 104.976 4.42384 104.837 4.03984 104.688C3.66651 104.528 3.31984 104.331 2.99984 104.096C2.69051 103.861 2.43984 103.557 2.24784 103.184C2.05584 102.811 1.95984 102.336 1.95984 101.76C1.95984 101.099 2.11984 100.539 2.43984 100.08C2.77051 99.6107 3.21318 99.2533 3.76784 99.008C4.32251 98.7627 4.94118 98.64 5.62384 98.64C6.35984 98.64 7.01584 98.784 7.59184 99.072C8.17851 99.36 8.65318 99.728 9.01584 100.176L7.76784 101.424C7.44784 101.061 7.11184 100.795 6.75984 100.624C6.41851 100.443 6.02384 100.352 5.57584 100.352C5.02118 100.352 4.58384 100.464 4.26384 100.688C3.95451 100.912 3.79984 101.227 3.79984 101.632C3.79984 101.973 3.89584 102.251 4.08784 102.464C4.27984 102.667 4.53051 102.843 4.83984 102.992C5.15984 103.131 5.50651 103.264 5.87984 103.392C6.26384 103.52 6.64251 103.664 7.01584 103.824C7.39984 103.984 7.74651 104.192 8.05584 104.448C8.37584 104.693 8.63184 105.013 8.82384 105.408C9.01584 105.803 9.11184 106.299 9.11184 106.896C9.11184 107.899 8.75451 108.693 8.03984 109.28C7.33584 109.867 6.38118 110.16 5.17584 110.16ZM10.7225 110V102.32H12.4825V110H10.7225ZM11.6025 100.912C11.3038 100.912 11.0531 100.811 10.8505 100.608C10.6585 100.405 10.5625 100.155 10.5625 99.856C10.5625 99.5573 10.6585 99.3067 10.8505 99.104C11.0531 98.9013 11.3038 98.8 11.6025 98.8C11.9118 98.8 12.1625 98.9013 12.3545 99.104C12.5465 99.3067 12.6425 99.5573 12.6425 99.856C12.6425 100.155 12.5465 100.405 12.3545 100.608C12.1625 100.811 11.9118 100.912 11.6025 100.912ZM17.6565 113.36C16.8458 113.36 16.1365 113.211 15.5285 112.912C14.9205 112.624 14.4298 112.213 14.0565 111.68L15.2085 110.528C15.5178 110.912 15.8698 111.2 16.2645 111.392C16.6591 111.584 17.1338 111.68 17.6885 111.68C18.3818 111.68 18.9311 111.499 19.3365 111.136C19.7418 110.784 19.9445 110.299 19.9445 109.68V107.792L20.2485 106.096L19.9445 104.384V102.32H21.7045L21.7045 109.68C21.7045 110.416 21.5338 111.056 21.1925 111.6C20.8511 112.155 20.3765 112.587 19.7685 112.896C19.1605 113.205 18.4565 113.36 17.6565 113.36ZM17.5765 109.84C16.8938 109.84 16.2751 109.675 15.7205 109.344C15.1765 109.003 14.7445 108.539 14.4245 107.952C14.1151 107.365 13.9605 106.709 13.9605 105.984C13.9605 105.259 14.1151 104.608 14.4245 104.032C14.7445 103.456 15.1765 103.003 15.7205 102.672C16.2751 102.331 16.8938 102.16 17.5765 102.16C18.1845 102.16 18.7178 102.283 19.1765 102.528C19.6351 102.773 19.9925 103.115 20.2485 103.552C20.5045 103.979 20.6325 104.48 20.6325 105.056V106.944C20.6325 107.509 20.4991 108.011 20.2325 108.448C19.9765 108.885 19.6191 109.227 19.1605 109.472C18.7018 109.717 18.1738 109.84 17.5765 109.84ZM17.9285 108.176C18.3551 108.176 18.7285 108.085 19.0485 107.904C19.3685 107.723 19.6138 107.472 19.7845 107.152C19.9658 106.821 20.0565 106.437 20.0565 106C20.0565 105.563 19.9658 105.184 19.7845 104.864C19.6138 104.533 19.3685 104.277 19.0485 104.096C18.7285 103.915 18.3551 103.824 17.9285 103.824C17.5018 103.824 17.1231 103.915 16.7925 104.096C16.4725 104.277 16.2218 104.533 16.0405 104.864C15.8591 105.184 15.7685 105.563 15.7685 106C15.7685 106.427 15.8591 106.805 16.0405 107.136C16.2218 107.467 16.4725 107.723 16.7925 107.904C17.1231 108.085 17.5018 108.176 17.9285 108.176ZM28.9236 110V105.568C28.9236 105.056 28.7583 104.635 28.4276 104.304C28.1076 103.973 27.6916 103.808 27.1796 103.808C26.8383 103.808 26.5343 103.883 26.2676 104.032C26.0009 104.181 25.7929 104.389 25.6436 104.656C25.4943 104.923 25.4196 105.227 25.4196 105.568L24.7316 105.184C24.7316 104.597 24.8596 104.08 25.1156 103.632C25.3716 103.173 25.7236 102.816 26.1716 102.56C26.6303 102.293 27.1423 102.16 27.7076 102.16C28.2836 102.16 28.7956 102.309 29.2436 102.608C29.6916 102.896 30.0436 103.275 30.2996 103.744C30.5556 104.203 30.6836 104.683 30.6836 105.184V110H28.9236ZM23.6596 110L23.6596 102.32H25.4196L25.4196 110H23.6596ZM36.8432 110V99.12H38.6032V110H36.8432ZM35.0032 103.92V102.32H40.4432V103.92H35.0032ZM46.9861 110V105.568C46.9861 105.056 46.8208 104.635 46.4901 104.304C46.1701 103.973 45.7541 103.808 45.2421 103.808C44.9008 103.808 44.5968 103.883 44.3301 104.032C44.0634 104.181 43.8554 104.389 43.7061 104.656C43.5568 104.923 43.4821 105.227 43.4821 105.568L42.7941 105.184C42.7941 104.597 42.9221 104.08 43.1781 103.632C43.4341 103.173 43.7861 102.816 44.2341 102.56C44.6928 102.293 45.2048 102.16 45.7701 102.16C46.3461 102.16 46.8581 102.288 47.3061 102.544C47.7541 102.8 48.1061 103.157 48.3621 103.616C48.6181 104.064 48.7461 104.587 48.7461 105.184V110H46.9861ZM41.7221 110V98.48H43.4821V110H41.7221ZM54.1026 110.16C53.3346 110.16 52.6413 109.989 52.0226 109.648C51.4146 109.296 50.9293 108.816 50.5666 108.208C50.2146 107.6 50.0386 106.917 50.0386 106.16C50.0386 105.403 50.2146 104.725 50.5666 104.128C50.9186 103.52 51.3933 103.04 51.9906 102.688C52.5986 102.336 53.2706 102.16 54.0066 102.16C54.7213 102.16 55.3506 102.325 55.8946 102.656C56.4493 102.987 56.8813 103.44 57.1906 104.016C57.5106 104.592 57.6706 105.248 57.6706 105.984C57.6706 106.112 57.6599 106.245 57.6386 106.384C57.6279 106.512 57.6066 106.656 57.5746 106.816H51.2706V105.376H56.6626L56.0066 105.952C55.9853 105.483 55.8946 105.088 55.7346 104.768C55.5746 104.448 55.3453 104.203 55.0466 104.032C54.7586 103.861 54.4013 103.776 53.9746 103.776C53.5266 103.776 53.1373 103.872 52.8066 104.064C52.4759 104.256 52.2199 104.528 52.0386 104.88C51.8573 105.221 51.7666 105.632 51.7666 106.112C51.7666 106.592 51.8626 107.013 52.0546 107.376C52.2466 107.739 52.5186 108.021 52.8706 108.224C53.2226 108.416 53.6279 108.512 54.0866 108.512C54.4813 108.512 54.8439 108.443 55.1746 108.304C55.5159 108.165 55.8039 107.963 56.0386 107.696L57.1586 108.832C56.7853 109.269 56.3319 109.6 55.7986 109.824C55.2653 110.048 54.6999 110.16 54.1026 110.16ZM67.6126 110.16C66.8019 110.16 66.0499 110.016 65.3566 109.728C64.6739 109.429 64.0766 109.019 63.5646 108.496C63.0526 107.963 62.6579 107.349 62.3806 106.656C62.1033 105.952 61.9646 105.2 61.9646 104.4C61.9646 103.6 62.1033 102.853 62.3806 102.16C62.6579 101.456 63.0526 100.843 63.5646 100.32C64.0766 99.7973 64.6739 99.3867 65.3566 99.088C66.0499 98.7893 66.8019 98.64 67.6126 98.64C68.5193 98.64 69.3033 98.7893 69.9646 99.088C70.6259 99.3867 71.2126 99.792 71.7246 100.304L70.4766 101.552C70.1459 101.189 69.7406 100.907 69.2606 100.704C68.7913 100.501 68.2419 100.4 67.6126 100.4C67.0579 100.4 66.5513 100.496 66.0926 100.688C65.6339 100.88 65.2339 101.157 64.8926 101.52C64.5619 101.872 64.3059 102.293 64.1246 102.784C63.9433 103.275 63.8526 103.813 63.8526 104.4C63.8526 104.987 63.9433 105.525 64.1246 106.016C64.3059 106.507 64.5619 106.933 64.8926 107.296C65.2339 107.648 65.6339 107.92 66.0926 108.112C66.5513 108.304 67.0579 108.4 67.6126 108.4C68.2953 108.4 68.8713 108.299 69.3406 108.096C69.8206 107.883 70.2259 107.595 70.5566 107.232L71.8046 108.48C71.2926 109.003 70.6899 109.413 69.9966 109.712C69.3033 110.011 68.5086 110.16 67.6126 110.16ZM76.5077 110.16C75.7611 110.16 75.0837 109.984 74.4757 109.632C73.8677 109.269 73.3824 108.784 73.0197 108.176C72.6677 107.568 72.4917 106.891 72.4917 106.144C72.4917 105.397 72.6677 104.725 73.0197 104.128C73.3824 103.531 73.8677 103.056 74.4757 102.704C75.0837 102.341 75.7611 102.16 76.5077 102.16C77.2651 102.16 77.9477 102.336 78.5557 102.688C79.1637 103.04 79.6437 103.52 79.9957 104.128C80.3584 104.725 80.5397 105.397 80.5397 106.144C80.5397 106.891 80.3584 107.568 79.9957 108.176C79.6437 108.784 79.1637 109.269 78.5557 109.632C77.9477 109.984 77.2651 110.16 76.5077 110.16ZM76.5077 108.464C76.9451 108.464 77.3291 108.368 77.6597 108.176C78.0011 107.973 78.2624 107.696 78.4437 107.344C78.6357 106.992 78.7317 106.592 78.7317 106.144C78.7317 105.696 78.6357 105.301 78.4437 104.96C78.2517 104.619 77.9904 104.352 77.6597 104.16C77.3291 103.957 76.9451 103.856 76.5077 103.856C76.0811 103.856 75.6971 103.957 75.3557 104.16C75.0251 104.352 74.7637 104.619 74.5717 104.96C74.3904 105.301 74.2997 105.696 74.2997 106.144C74.2997 106.592 74.3904 106.992 74.5717 107.344C74.7637 107.696 75.0251 107.973 75.3557 108.176C75.6971 108.368 76.0811 108.464 76.5077 108.464ZM87.2673 110V105.568C87.2673 105.056 87.102 104.635 86.7713 104.304C86.4513 103.973 86.0353 103.808 85.5233 103.808C85.182 103.808 84.878 103.883 84.6113 104.032C84.3447 104.181 84.1367 104.389 83.9873 104.656C83.838 104.923 83.7633 105.227 83.7633 105.568L83.0753 105.184C83.0753 104.597 83.2033 104.08 83.4593 103.632C83.7153 103.173 84.0673 102.816 84.5153 102.56C84.974 102.293 85.486 102.16 86.0513 102.16C86.6273 102.16 87.1393 102.309 87.5873 102.608C88.0353 102.896 88.3873 103.275 88.6433 103.744C88.8993 104.203 89.0273 104.683 89.0273 105.184V110H87.2673ZM82.0033 110V102.32H83.7633V110H82.0033ZM91.8901 110V99.12H93.6501V110H91.8901ZM90.0501 103.92V102.32H95.4901V103.92H90.0501ZM96.769 110V102.32H98.529V110H96.769ZM98.529 105.728L97.921 105.424C97.921 104.453 98.1343 103.669 98.561 103.072C98.9983 102.464 99.6543 102.16 100.529 102.16C100.913 102.16 101.26 102.229 101.569 102.368C101.878 102.507 102.166 102.731 102.433 103.04L101.281 104.224C101.142 104.075 100.988 103.968 100.817 103.904C100.646 103.84 100.449 103.808 100.225 103.808C99.7343 103.808 99.329 103.963 99.009 104.272C98.689 104.581 98.529 105.067 98.529 105.728ZM106.266 110.16C105.573 110.16 104.944 109.984 104.378 109.632C103.824 109.28 103.381 108.805 103.05 108.208C102.73 107.6 102.57 106.923 102.57 106.176C102.57 105.419 102.73 104.741 103.05 104.144C103.381 103.536 103.824 103.056 104.378 102.704C104.944 102.341 105.573 102.16 106.266 102.16C106.853 102.16 107.37 102.288 107.818 102.544C108.277 102.789 108.64 103.131 108.906 103.568C109.173 104.005 109.306 104.501 109.306 105.056V107.264C109.306 107.819 109.173 108.315 108.906 108.752C108.65 109.189 108.293 109.536 107.834 109.792C107.376 110.037 106.853 110.16 106.266 110.16ZM106.554 108.496C107.205 108.496 107.728 108.277 108.122 107.84C108.528 107.403 108.73 106.843 108.73 106.16C108.73 105.701 108.64 105.296 108.458 104.944C108.277 104.592 108.021 104.32 107.69 104.128C107.37 103.925 106.992 103.824 106.554 103.824C106.128 103.824 105.749 103.925 105.418 104.128C105.098 104.32 104.842 104.592 104.65 104.944C104.469 105.296 104.378 105.701 104.378 106.16C104.378 106.619 104.469 107.024 104.65 107.376C104.842 107.728 105.098 108.005 105.418 108.208C105.749 108.4 106.128 108.496 106.554 108.496ZM108.618 110V107.936L108.922 106.064L108.618 104.208V102.32H110.378V110H108.618ZM115.867 110.16C115.11 110.16 114.422 109.984 113.803 109.632C113.195 109.28 112.715 108.8 112.363 108.192C112.011 107.584 111.835 106.907 111.835 106.16C111.835 105.403 112.011 104.725 112.363 104.128C112.715 103.52 113.195 103.04 113.803 102.688C114.422 102.336 115.11 102.16 115.867 102.16C116.465 102.16 117.019 102.277 117.531 102.512C118.054 102.736 118.497 103.061 118.859 103.488L117.707 104.656C117.483 104.389 117.211 104.192 116.891 104.064C116.582 103.925 116.241 103.856 115.867 103.856C115.43 103.856 115.041 103.957 114.699 104.16C114.369 104.352 114.107 104.619 113.915 104.96C113.734 105.301 113.643 105.701 113.643 106.16C113.643 106.608 113.734 107.008 113.915 107.36C114.107 107.701 114.369 107.973 114.699 108.176C115.041 108.368 115.43 108.464 115.867 108.464C116.241 108.464 116.582 108.4 116.891 108.272C117.211 108.133 117.483 107.931 117.707 107.664L118.859 108.832C118.497 109.259 118.054 109.589 117.531 109.824C117.019 110.048 116.465 110.16 115.867 110.16ZM121.171 110V99.12H122.931V110L121.171 110ZM119.331 103.92V102.32H124.771V103.92H119.331Z" fill="#E49B00"/>
<path fill-rule="evenodd" clip-rule="evenodd" d="M1.46285 31.2704C1.34863 31.3172 1.16173 31.4591 1.04751 31.586C0.840986 31.8153 0.839844 31.9627 0.839844 57.738V83.6596L1.12777 83.9471L1.4156 84.2348H21.7623H42.1091L42.3969 83.9471L42.6848 83.6596V74.8983V66.137L42.3993 65.8518C41.9744 65.4274 41.367 65.4489 40.961 65.903L40.6601 66.2394V74.2257V82.2119H21.7623H2.8646V57.7295V33.2472H15.5842H28.3039L28.305 38.7194C28.3056 41.7292 28.335 44.3664 28.3704 44.5799C28.4057 44.7935 28.5518 45.0853 28.6949 45.2283L28.9552 45.4884H34.8076H40.6601V51.5121C40.6601 55.7442 40.6945 57.6031 40.776 57.7623C40.9633 58.1281 41.3089 58.3474 41.6984 58.3474C42.0879 58.3474 42.4335 58.1281 42.6208 57.7623C42.7026 57.6025 42.7367 55.5925 42.7367 50.9363C42.7367 45.4015 42.7126 44.2917 42.5877 44.0568C42.4076 43.7182 30.1126 31.4497 29.7903 31.2869C29.5191 31.15 1.79688 31.1339 1.46285 31.2704ZM49.0475 31.3531C48.8268 31.4897 48.3826 32.3369 47.0228 35.2146L45.2807 38.9009V60.7461V82.5913L45.5949 83.0991C45.7897 83.4138 46.1024 83.7263 46.4174 83.9209L46.9257 84.2348H49.5898H52.2538L52.7621 83.9209C53.0771 83.7263 53.3899 83.4138 53.5847 83.0991L53.8989 82.5913V60.7461V38.9009L52.1543 35.2116C50.7329 32.2052 50.3551 31.4897 50.1136 31.3473C49.7407 31.1273 49.4091 31.129 49.0475 31.3531ZM34.8454 39.1084L39.1535 43.4136H34.8189H30.4844V39.1084C30.4844 36.7406 30.4963 34.8033 30.5108 34.8033C30.5254 34.8033 32.4759 36.7406 34.8454 39.1084ZM50.4499 36.489L51.2372 38.1748L50.4135 38.2049C49.9604 38.2215 49.2191 38.2215 48.766 38.2049L47.9423 38.1748L48.7296 36.489C49.1626 35.5619 49.5497 34.8033 49.5898 34.8033C49.6298 34.8033 50.0169 35.5619 50.4499 36.489ZM51.8741 58.0926V75.8838H49.5898H47.3054V58.0926V40.3014H49.5898H51.8741V58.0926ZM8.93887 42.2668C8.27787 42.5371 8.10218 43.4027 8.60598 43.9063L8.89142 44.1916L12.1339 44.2221C13.9174 44.2388 15.4857 44.2253 15.619 44.1919C15.7524 44.1586 15.9743 44.0098 16.1122 43.8611C16.5588 43.3797 16.391 42.6005 15.7728 42.2846C15.5052 42.1479 9.26937 42.1317 8.93887 42.2668ZM18.9588 42.3008C18.568 42.4949 18.3021 43.1038 18.4445 43.4782C18.6986 44.146 19.2886 44.4003 19.8776 44.096C20.2607 43.8981 20.4125 43.6454 20.4125 43.2061C20.4125 42.7721 20.2612 42.5144 19.8954 42.3254C19.529 42.1361 19.3022 42.1301 18.9588 42.3008ZM8.93887 48.4911C8.27787 48.7614 8.10218 49.6271 8.60608 50.1307L8.89163 50.416L21.7098 50.4431L34.5279 50.4702L34.8659 50.1684C35.1461 49.9184 35.2041 49.7918 35.2041 49.4304C35.2041 49.0694 35.146 48.9424 34.8673 48.6937L34.5305 48.393L21.8385 48.3996C14.8579 48.4032 9.05309 48.4444 8.93887 48.4911ZM8.93887 54.7154C8.27787 54.9858 8.10218 55.8514 8.60608 56.355L8.89163 56.6403L21.7098 56.6675L34.5279 56.6945L34.8659 56.3928C35.1461 56.1427 35.2041 56.0161 35.2041 55.6548C35.2041 55.2938 35.146 55.1668 34.8673 54.918L34.5305 54.6174L21.8385 54.6239C14.8579 54.6275 9.05309 54.6687 8.93887 54.7154ZM8.93887 60.9397C8.27787 61.2101 8.10218 62.0758 8.60608 62.5793L8.89163 62.8646L21.7098 62.8918L34.5279 62.9189L34.8659 62.6171C35.1461 62.3671 35.2041 62.2404 35.2041 61.8791C35.2041 61.5181 35.146 61.3911 34.8673 61.1423L34.5305 60.8417L21.8385 60.8482C14.8579 60.8519 9.05309 60.8931 8.93887 60.9397ZM41.3234 60.9394C40.9942 61.0782 40.6601 61.5578 40.6601 61.8914C40.6601 62.071 40.7782 62.3191 40.961 62.5234C41.5856 63.222 42.6801 62.8118 42.6801 61.8791C42.6801 61.1901 41.9418 60.6787 41.3234 60.9394ZM8.93887 67.1641C8.27787 67.4344 8.10218 68.3001 8.60608 68.8037L8.89163 69.0889L21.7098 69.1161L34.5279 69.1432L34.8659 68.8414C35.1461 68.5914 35.2041 68.4647 35.2041 68.1034C35.2041 67.7424 35.146 67.6154 34.8673 67.3667L34.5305 67.066L21.8385 67.0726C14.8579 67.0762 9.05309 67.1174 8.93887 67.1641ZM8.93887 73.3884C8.27787 73.6587 8.10218 74.5244 8.60608 75.028L8.89163 75.3133L21.7098 75.3404L34.5279 75.3675L34.8659 75.0657C35.1461 74.8157 35.2041 74.6891 35.2041 74.3277C35.2041 73.9667 35.146 73.8398 34.8673 73.591L34.5305 73.2904L21.8385 73.2969C14.8579 73.3005 9.05309 73.3417 8.93887 73.3884ZM51.8741 79.9608C51.8741 81.3797 51.8378 81.9992 51.7495 82.0874C51.5735 82.2632 47.606 82.2632 47.43 82.0874C47.3418 81.9992 47.3054 81.3797 47.3054 79.9608V77.9586H49.5898H51.8741V79.9608Z" fill="#E49B00"/>
</svg>
