<svg width="40" height="71" viewBox="0 0 40 71" fill="none" xmlns="http://www.w3.org/2000/svg">
<path fill-rule="evenodd" clip-rule="evenodd" d="M4.80851 0.177174C2.4925 0.803508 0.842274 2.46476 0.236066 4.77996C-0.0786885 5.98183 -0.0786885 65.006 0.236066 66.2079C0.864737 68.6087 2.72285 70.3889 5.11643 70.8831C5.59833 70.9826 10.5801 71.0177 20.5423 70.9918L35.2564 70.9533L36.035 70.6308C37.6149 69.9763 39.061 68.5505 39.6712 67.0457L40 66.2346V35.4939V4.75317L39.6712 3.94212C39.061 2.43728 37.6149 1.01155 36.035 0.357038L35.2564 0.0345036L20.3976 0.00702433C7.91768 -0.0158751 5.42197 0.0113266 4.80851 0.177174ZM34.7994 2.88597C36.222 3.27887 37.2794 4.73666 37.2794 6.30464V7.1819H27.9339H18.5883L18.1484 7.57272C17.7822 7.8983 17.7087 8.06498 17.7087 8.56974C17.7087 9.0745 17.7822 9.24118 18.1484 9.56677L18.5883 9.95759H27.9339H37.2794V34.8V59.6424H20.0488H2.81828V34.8097V9.97715L4.99323 9.9326L7.16819 9.88819L7.50457 9.49876C7.9608 8.97069 7.9608 8.16879 7.50457 7.64072L7.16819 7.25129L4.99323 7.20688L2.81828 7.16233V6.42955C2.81828 4.93748 3.50038 3.81097 4.79261 3.16853L5.65316 2.7408L19.9665 2.74163C29.3962 2.74205 34.4571 2.79132 34.7994 2.88597ZM11.7973 7.31957C11.0195 7.6317 10.7962 8.81608 11.3865 9.49876C11.6661 9.82213 11.834 9.88819 12.3753 9.88819C12.9166 9.88819 13.0845 9.82213 13.3641 9.49876C14.3386 8.3717 13.1826 6.76346 11.7973 7.31957ZM6.41312 19.1058L5.95745 19.5107L5.91782 24.7936C5.87346 30.6897 5.88211 30.7519 6.7993 31.1332C7.49438 31.422 16.9772 31.422 17.6723 31.1332C18.5895 30.7519 18.5981 30.6897 18.5537 24.7936L18.5141 19.5107L18.0585 19.1058L17.6028 18.701H12.2358H6.86878L6.41312 19.1058ZM22.4007 18.8387C21.6565 19.1373 21.6533 19.1637 21.6533 25.0262V30.4571L21.9869 30.8152C22.1705 31.0121 22.5314 31.2121 22.7891 31.2596C23.0469 31.3071 25.5389 31.3268 28.3269 31.3035L33.396 31.261L33.803 30.8077L34.21 30.3544V25.0894C34.21 21.3029 34.1631 19.7222 34.0432 19.4604C33.7037 18.7189 33.5512 18.7003 27.9037 18.7097C25.0415 18.7146 22.5652 18.7726 22.4007 18.8387ZM15.761 24.981L15.7238 28.4853H12.2358H8.74782L8.71057 24.981L8.67332 21.4767H12.2358H15.7983L15.761 24.981ZM31.4196 25.0157V28.5547H27.9316H24.4437V25.0157V21.4767H27.9316H31.4196V25.0157ZM6.76875 34.3092C5.88573 34.6912 5.87374 34.7803 5.91782 40.6282L5.95745 45.8968L6.34419 46.2813L6.73094 46.666L12.1617 46.7053L17.5925 46.7447L18.0533 46.3352L18.5141 45.9258L18.5496 40.6058C18.5885 34.7492 18.5914 34.7715 17.7448 34.3492C17.3081 34.1313 16.7457 34.107 12.2358 34.1118C8.27178 34.1158 7.1195 34.1574 6.76875 34.3092ZM22.3968 34.3059C22.1535 34.4125 21.8866 34.6257 21.8038 34.7796C21.7035 34.966 21.6533 36.8659 21.6533 40.4732V45.8872L21.99 46.2766L22.3265 46.666L27.6695 46.7056C31.5277 46.7342 33.1226 46.6998 33.4086 46.582C34.1934 46.2586 34.21 46.1299 34.21 40.3604V35.082L33.803 34.6287L33.396 34.1755L28.1176 34.1437C23.8482 34.118 22.7547 34.1489 22.3968 34.3059ZM15.7935 40.4208V43.9598H12.2358H8.67806V40.5133C8.67806 38.6177 8.71992 37.0251 8.77112 36.9743C8.82218 36.9234 10.4232 36.8818 12.3288 36.8818H15.7935V40.4208ZM31.4196 40.4208V43.9598H27.9316H24.4437V40.4208V36.8818H27.9316H31.4196V40.4208ZM14.8667 50.2039C14.089 50.5161 13.8658 51.7005 14.4559 52.3831L14.7925 52.7726L19.9593 52.8121L25.1259 52.8517L25.5838 52.4446C25.964 52.1068 26.0419 51.9385 26.0419 51.4541C26.0419 50.9711 25.9637 50.8013 25.5893 50.4685L25.1368 50.0663L20.1512 50.075C17.4091 50.0799 15.0312 50.1379 14.8667 50.2039ZM37.2794 63.9893C37.2794 65.4282 37.2472 65.6236 36.8957 66.3129C36.4681 67.1515 35.6202 67.8751 34.7994 68.1019C34.4569 68.1965 29.4043 68.2452 19.9791 68.2449L5.67841 68.2442L4.97789 67.9198C4.15194 67.5373 3.5195 66.9445 3.15298 66.2097C2.94998 65.8026 2.87771 65.301 2.84172 64.0488L2.79498 62.4181H20.0371H37.2794V63.9893ZM17.437 64.3479C17.0511 64.6909 16.9858 64.8399 16.9991 65.3466C17.0118 65.8281 17.0986 66.0163 17.4528 66.3311L17.8908 66.7204H19.9747C22.2524 66.7204 22.6693 66.6216 22.9892 66.0063C23.3627 65.2879 23.1037 64.4184 22.4246 64.1105C22.1931 64.0056 21.2933 63.9447 19.9747 63.9447H17.8908L17.437 64.3479Z" fill="#E49B00"/>
</svg>
