<svg width="172" height="115" viewBox="0 0 172 115" fill="none" xmlns="http://www.w3.org/2000/svg">
<path d="M31.4948 78.0373C26.1514 78.0373 21.3109 76.5914 16.9733 73.6996C12.6356 70.8079 9.20957 66.7846 6.69501 61.6298C4.24331 56.4121 3.01747 50.4086 3.01747 43.6193C3.01747 36.7671 4.24331 30.795 6.69501 25.703C9.1467 20.5482 12.5099 16.5563 16.7847 13.7275C21.0594 10.8357 25.8999 9.38985 31.3062 9.38985C36.7754 9.38985 41.6474 10.8357 45.9221 13.7275C50.1968 16.5563 53.5601 20.5482 56.0118 25.703C58.5263 30.8579 59.7836 36.8614 59.7836 43.7136C59.7836 50.5657 58.5263 56.5692 56.0118 61.7241C53.5601 66.8789 50.1968 70.9022 45.9221 73.7939C41.7102 76.6228 36.9011 78.0373 31.4948 78.0373ZM31.4005 64.9301C34.1665 64.9301 36.5554 64.1443 38.567 62.5727C40.5787 60.9383 42.1188 58.5494 43.1875 55.4062C44.3191 52.2002 44.8848 48.3026 44.8848 43.7136C44.8848 39.0616 44.3191 35.1641 43.1875 32.0209C42.1188 28.8777 40.5787 26.5203 38.567 24.9487C36.5554 23.3142 34.1351 22.497 31.3062 22.497C28.6031 22.497 26.2143 23.2828 24.1397 24.8544C22.1281 26.426 20.5879 28.7834 19.5192 31.9266C18.4506 35.0698 17.9162 38.9673 17.9162 43.6193C17.9162 48.2712 18.4506 52.1688 19.5192 55.3119C20.5879 58.4551 22.1281 60.844 24.1397 62.4784C26.2143 64.1129 28.6345 64.9301 31.4005 64.9301ZM77.5127 77L77.5127 10.4271L92.2228 10.4271L92.2228 77H77.5127ZM64.6884 22.9685V10.4271L91.2799 10.4271V22.9685L64.6884 22.9685Z" fill="#E49B00" fill-opacity="0.08"/>
<path d="M4.336 110.734C3.45067 110.734 2.69867 110.574 2.08 110.254C1.46133 109.934 0.906667 109.465 0.416 108.846L1.664 107.598C1.97333 108.046 2.34133 108.398 2.768 108.654C3.19467 108.9 3.73867 109.022 4.4 109.022C5.01867 109.022 5.50933 108.894 5.872 108.638C6.24533 108.382 6.432 108.03 6.432 107.582C6.432 107.209 6.336 106.905 6.144 106.67C5.952 106.436 5.696 106.244 5.376 106.094C5.06667 105.934 4.72 105.796 4.336 105.678C3.96267 105.55 3.584 105.412 3.2 105.262C2.82667 105.102 2.48 104.905 2.16 104.67C1.85067 104.436 1.6 104.132 1.408 103.758C1.216 103.385 1.12 102.91 1.12 102.334C1.12 101.673 1.28 101.113 1.6 100.654C1.93067 100.185 2.37333 99.8276 2.928 99.5822C3.48267 99.3369 4.10133 99.2142 4.784 99.2142C5.52 99.2142 6.176 99.3582 6.752 99.6462C7.33867 99.9342 7.81333 100.302 8.176 100.75L6.928 101.998C6.608 101.636 6.272 101.369 5.92 101.198C5.57867 101.017 5.184 100.926 4.736 100.926C4.18133 100.926 3.744 101.038 3.424 101.262C3.11467 101.486 2.96 101.801 2.96 102.206C2.96 102.548 3.056 102.825 3.248 103.038C3.44 103.241 3.69067 103.417 4 103.566C4.32 103.705 4.66667 103.838 5.04 103.966C5.424 104.094 5.80267 104.238 6.176 104.398C6.56 104.558 6.90667 104.766 7.216 105.022C7.536 105.268 7.792 105.588 7.984 105.982C8.176 106.377 8.272 106.873 8.272 107.47C8.272 108.473 7.91467 109.268 7.2 109.854C6.496 110.441 5.54133 110.734 4.336 110.734ZM15.1306 110.574V106.142C15.1306 105.63 14.9653 105.209 14.6346 104.878C14.3146 104.548 13.8986 104.382 13.3866 104.382C13.0453 104.382 12.7413 104.457 12.4746 104.606C12.208 104.756 12 104.964 11.8506 105.23C11.7013 105.497 11.6266 105.801 11.6266 106.142L10.9386 105.758C10.9386 105.172 11.0666 104.654 11.3226 104.206C11.5786 103.748 11.9306 103.39 12.3786 103.134C12.8373 102.868 13.3493 102.734 13.9146 102.734C14.4906 102.734 15.0026 102.862 15.4506 103.118C15.8986 103.374 16.2506 103.732 16.5066 104.19C16.7626 104.638 16.8906 105.161 16.8906 105.758V110.574H15.1306ZM9.86663 110.574L9.86663 99.0542H11.6266L11.6266 110.574H9.86663ZM21.8951 110.734C21.2018 110.734 20.5725 110.558 20.0071 110.206C19.4525 109.854 19.0098 109.38 18.6791 108.782C18.3591 108.174 18.1991 107.497 18.1991 106.75C18.1991 105.993 18.3591 105.316 18.6791 104.718C19.0098 104.11 19.4525 103.63 20.0071 103.278C20.5725 102.916 21.2018 102.734 21.8951 102.734C22.4818 102.734 22.9991 102.862 23.4471 103.118C23.9058 103.364 24.2685 103.705 24.5351 104.142C24.8018 104.58 24.9351 105.076 24.9351 105.63V107.838C24.9351 108.393 24.8018 108.889 24.5351 109.326C24.2791 109.764 23.9218 110.11 23.4631 110.366C23.0045 110.612 22.4818 110.734 21.8951 110.734ZM22.1831 109.07C22.8338 109.07 23.3565 108.852 23.7511 108.414C24.1565 107.977 24.3591 107.417 24.3591 106.734C24.3591 106.276 24.2685 105.87 24.0871 105.518C23.9058 105.166 23.6498 104.894 23.3191 104.702C22.9991 104.5 22.6205 104.398 22.1831 104.398C21.7565 104.398 21.3778 104.5 21.0471 104.702C20.7271 104.894 20.4711 105.166 20.2791 105.518C20.0978 105.87 20.0071 106.276 20.0071 106.734C20.0071 107.193 20.0978 107.598 20.2791 107.95C20.4711 108.302 20.7271 108.58 21.0471 108.782C21.3778 108.974 21.7565 109.07 22.1831 109.07ZM24.2471 110.574V108.51L24.5511 106.638L24.2471 104.782V102.894H26.0071L26.0071 110.574H24.2471ZM27.9604 110.574L27.9604 102.894H29.7204L29.7204 110.574H27.9604ZM29.7204 106.302L29.1124 105.998C29.1124 105.028 29.3257 104.244 29.7524 103.646C30.1897 103.038 30.8457 102.734 31.7204 102.734C32.1044 102.734 32.451 102.804 32.7604 102.942C33.0697 103.081 33.3577 103.305 33.6244 103.614L32.4724 104.798C32.3337 104.649 32.179 104.542 32.0084 104.478C31.8377 104.414 31.6404 104.382 31.4164 104.382C30.9257 104.382 30.5204 104.537 30.2004 104.846C29.8804 105.156 29.7204 105.641 29.7204 106.302ZM37.8096 110.734C37.0416 110.734 36.3483 110.564 35.7296 110.222C35.1216 109.87 34.6363 109.39 34.2736 108.782C33.9216 108.174 33.7456 107.492 33.7456 106.734C33.7456 105.977 33.9216 105.3 34.2736 104.702C34.6256 104.094 35.1003 103.614 35.6976 103.262C36.3056 102.91 36.9776 102.734 37.7136 102.734C38.4283 102.734 39.0576 102.9 39.6016 103.23C40.1563 103.561 40.5883 104.014 40.8976 104.59C41.2176 105.166 41.3776 105.822 41.3776 106.558C41.3776 106.686 41.367 106.82 41.3456 106.958C41.335 107.086 41.3136 107.23 41.2816 107.39H34.9776V105.95H40.3696L39.7136 106.526C39.6923 106.057 39.6016 105.662 39.4416 105.342C39.2816 105.022 39.0523 104.777 38.7536 104.606C38.4656 104.436 38.1083 104.35 37.6816 104.35C37.2336 104.35 36.8443 104.446 36.5136 104.638C36.183 104.83 35.927 105.102 35.7456 105.454C35.5643 105.796 35.4736 106.206 35.4736 106.686C35.4736 107.166 35.5696 107.588 35.7616 107.95C35.9536 108.313 36.2256 108.596 36.5776 108.798C36.9296 108.99 37.335 109.086 37.7936 109.086C38.1883 109.086 38.551 109.017 38.8816 108.878C39.223 108.74 39.511 108.537 39.7456 108.27L40.8656 109.406C40.4923 109.844 40.039 110.174 39.5056 110.398C38.9723 110.622 38.407 110.734 37.8096 110.734ZM48.4716 110.654L45.1916 102.894H47.1276L49.3676 108.59H48.8076L51.1756 102.894H53.1276L49.5596 110.654H48.4716ZM46.1836 113.774L48.5676 108.862L49.5596 110.654L48.1356 113.774H46.1836ZM57.4023 110.734C56.6556 110.734 55.9783 110.558 55.3703 110.206C54.7623 109.844 54.2769 109.358 53.9143 108.75C53.5623 108.142 53.3863 107.465 53.3863 106.718C53.3863 105.972 53.5623 105.3 53.9143 104.702C54.2769 104.105 54.7623 103.63 55.3703 103.278C55.9783 102.916 56.6556 102.734 57.4023 102.734C58.1596 102.734 58.8423 102.91 59.4503 103.262C60.0583 103.614 60.5383 104.094 60.8903 104.702C61.2529 105.3 61.4343 105.972 61.4343 106.718C61.4343 107.465 61.2529 108.142 60.8903 108.75C60.5383 109.358 60.0583 109.844 59.4503 110.206C58.8423 110.558 58.1596 110.734 57.4023 110.734ZM57.4023 109.038C57.8396 109.038 58.2236 108.942 58.5543 108.75C58.8956 108.548 59.1569 108.27 59.3383 107.918C59.5303 107.566 59.6263 107.166 59.6263 106.718C59.6263 106.27 59.5303 105.876 59.3383 105.534C59.1463 105.193 58.8849 104.926 58.5543 104.734C58.2236 104.532 57.8396 104.43 57.4023 104.43C56.9756 104.43 56.5916 104.532 56.2503 104.734C55.9196 104.926 55.6583 105.193 55.4663 105.534C55.2849 105.876 55.1943 106.27 55.1943 106.718C55.1943 107.166 55.2849 107.566 55.4663 107.918C55.6583 108.27 55.9196 108.548 56.2503 108.75C56.5916 108.942 56.9756 109.038 57.4023 109.038ZM66.0499 110.734C65.3992 110.734 64.8179 110.59 64.3059 110.302C63.8045 110.014 63.4099 109.62 63.1219 109.118C62.8445 108.606 62.7059 108.02 62.7059 107.358V102.894H64.4659V107.278C64.4659 107.652 64.5245 107.972 64.6419 108.238C64.7699 108.494 64.9512 108.692 65.1859 108.83C65.4312 108.969 65.7192 109.038 66.0499 109.038C66.5619 109.038 66.9512 108.889 67.2179 108.59C67.4952 108.281 67.6339 107.844 67.6339 107.278V102.894H69.3939V107.358C69.3939 108.03 69.2499 108.622 68.9619 109.134C68.6845 109.636 68.2952 110.03 67.7939 110.318C67.2925 110.596 66.7112 110.734 66.0499 110.734ZM71.1635 110.574V102.894H72.9235V110.574H71.1635ZM72.9235 106.302L72.3155 105.998C72.3155 105.028 72.5288 104.244 72.9555 103.646C73.3928 103.038 74.0488 102.734 74.9235 102.734C75.3075 102.734 75.6542 102.804 75.9635 102.942C76.2728 103.081 76.5608 103.305 76.8275 103.614L75.6755 104.798C75.5368 104.649 75.3822 104.542 75.2115 104.478C75.0408 104.414 74.8435 104.382 74.6195 104.382C74.1288 104.382 73.7235 104.537 73.4035 104.846C73.0835 105.156 72.9235 105.641 72.9235 106.302ZM82.6675 105.822V104.302H85.4995C86.0648 104.302 86.5022 104.158 86.8115 103.87C87.1315 103.572 87.2915 103.161 87.2915 102.638C87.2915 102.169 87.1368 101.774 86.8275 101.454C86.5182 101.134 86.0808 100.974 85.5155 100.974H82.6675V99.3742H85.5955C86.2995 99.3742 86.9182 99.5182 87.4515 99.8062C87.9848 100.084 88.3955 100.468 88.6835 100.958C88.9822 101.438 89.1315 101.988 89.1315 102.606C89.1315 103.257 88.9822 103.822 88.6835 104.302C88.3955 104.782 87.9848 105.156 87.4515 105.422C86.9182 105.689 86.2995 105.822 85.5955 105.822H82.6675ZM81.4035 110.574V99.3742H83.2435V110.574H81.4035ZM87.5475 110.574L83.6275 105.71L85.3395 105.086L89.8675 110.574H87.5475ZM94.3253 110.734C93.5573 110.734 92.8639 110.564 92.2453 110.222C91.6373 109.87 91.1519 109.39 90.7893 108.782C90.4373 108.174 90.2613 107.492 90.2613 106.734C90.2613 105.977 90.4373 105.3 90.7893 104.702C91.1413 104.094 91.6159 103.614 92.2133 103.262C92.8213 102.91 93.4933 102.734 94.2293 102.734C94.9439 102.734 95.5733 102.9 96.1173 103.23C96.6719 103.561 97.1039 104.014 97.4133 104.59C97.7333 105.166 97.8933 105.822 97.8933 106.558C97.8933 106.686 97.8826 106.82 97.8612 106.958C97.8506 107.086 97.8293 107.23 97.7973 107.39H91.4933V105.95H96.8853L96.2293 106.526C96.2079 106.057 96.1173 105.662 95.9573 105.342C95.7973 105.022 95.5679 104.777 95.2693 104.606C94.9813 104.436 94.6239 104.35 94.1973 104.35C93.7493 104.35 93.3599 104.446 93.0293 104.638C92.6986 104.83 92.4426 105.102 92.2613 105.454C92.0799 105.796 91.9893 106.206 91.9893 106.686C91.9893 107.166 92.0853 107.588 92.2773 107.95C92.4693 108.313 92.7413 108.596 93.0933 108.798C93.4453 108.99 93.8506 109.086 94.3093 109.086C94.7039 109.086 95.0666 109.017 95.3973 108.878C95.7386 108.74 96.0266 108.537 96.2613 108.27L97.3813 109.406C97.0079 109.844 96.5546 110.174 96.0213 110.398C95.4879 110.622 94.9226 110.734 94.3253 110.734ZM102.52 110.734C101.827 110.734 101.197 110.558 100.632 110.206C100.077 109.854 99.6348 109.38 99.3041 108.782C98.9841 108.174 98.8241 107.497 98.8241 106.75C98.8241 105.993 98.9841 105.316 99.3041 104.718C99.6348 104.11 100.077 103.63 100.632 103.278C101.197 102.916 101.827 102.734 102.52 102.734C103.107 102.734 103.624 102.862 104.072 103.118C104.531 103.364 104.893 103.705 105.16 104.142C105.427 104.58 105.56 105.076 105.56 105.63V107.838C105.56 108.393 105.427 108.889 105.16 109.326C104.904 109.764 104.547 110.11 104.088 110.366C103.629 110.612 103.107 110.734 102.52 110.734ZM102.808 109.07C103.459 109.07 103.981 108.852 104.376 108.414C104.781 107.977 104.984 107.417 104.984 106.734C104.984 106.276 104.893 105.87 104.712 105.518C104.531 105.166 104.275 104.894 103.944 104.702C103.624 104.5 103.245 104.398 102.808 104.398C102.381 104.398 102.003 104.5 101.672 104.702C101.352 104.894 101.096 105.166 100.904 105.518C100.723 105.87 100.632 106.276 100.632 106.734C100.632 107.193 100.723 107.598 100.904 107.95C101.096 108.302 101.352 108.58 101.672 108.782C102.003 108.974 102.381 109.07 102.808 109.07ZM104.872 113.774V108.686L105.176 106.83L104.872 104.958V102.894H106.632V113.774H104.872ZM111.737 110.734C111.087 110.734 110.505 110.59 109.993 110.302C109.492 110.014 109.097 109.62 108.809 109.118C108.532 108.606 108.393 108.02 108.393 107.358V102.894H110.153V107.278C110.153 107.652 110.212 107.972 110.329 108.238C110.457 108.494 110.639 108.692 110.873 108.83C111.119 108.969 111.407 109.038 111.737 109.038C112.249 109.038 112.639 108.889 112.905 108.59C113.183 108.281 113.321 107.844 113.321 107.278V102.894H115.081V107.358C115.081 108.03 114.937 108.622 114.649 109.134C114.372 109.636 113.983 110.03 113.481 110.318C112.98 110.596 112.399 110.734 111.737 110.734ZM116.867 110.574V102.894H118.627V110.574H116.867ZM117.747 101.486C117.448 101.486 117.198 101.385 116.995 101.182C116.803 100.98 116.707 100.729 116.707 100.43C116.707 100.132 116.803 99.8809 116.995 99.6782C117.198 99.4756 117.448 99.3742 117.747 99.3742C118.056 99.3742 118.307 99.4756 118.499 99.6782C118.691 99.8809 118.787 100.132 118.787 100.43C118.787 100.729 118.691 100.98 118.499 101.182C118.307 101.385 118.056 101.486 117.747 101.486ZM120.601 110.574V102.894H122.361V110.574L120.601 110.574ZM122.361 106.302L121.753 105.998C121.753 105.028 121.966 104.244 122.393 103.646C122.83 103.038 123.486 102.734 124.361 102.734C124.745 102.734 125.092 102.804 125.401 102.942C125.71 103.081 125.998 103.305 126.265 103.614L125.113 104.798C124.974 104.649 124.82 104.542 124.649 104.478C124.478 104.414 124.281 104.382 124.057 104.382C123.566 104.382 123.161 104.537 122.841 104.846C122.521 105.156 122.361 105.641 122.361 106.302ZM130.45 110.734C129.682 110.734 128.989 110.564 128.37 110.222C127.762 109.87 127.277 109.39 126.914 108.782C126.562 108.174 126.386 107.492 126.386 106.734C126.386 105.977 126.562 105.3 126.914 104.702C127.266 104.094 127.741 103.614 128.338 103.262C128.946 102.91 129.618 102.734 130.354 102.734C131.069 102.734 131.698 102.9 132.242 103.23C132.797 103.561 133.229 104.014 133.538 104.59C133.858 105.166 134.018 105.822 134.018 106.558C134.018 106.686 134.008 106.82 133.986 106.958C133.976 107.086 133.954 107.23 133.922 107.39H127.618V105.95H133.01L132.354 106.526C132.333 106.057 132.242 105.662 132.082 105.342C131.922 105.022 131.693 104.777 131.394 104.606C131.106 104.436 130.749 104.35 130.322 104.35C129.874 104.35 129.485 104.446 129.154 104.638C128.824 104.83 128.568 105.102 128.386 105.454C128.205 105.796 128.114 106.206 128.114 106.686C128.114 107.166 128.21 107.588 128.402 107.95C128.594 108.313 128.866 108.596 129.218 108.798C129.57 108.99 129.976 109.086 130.434 109.086C130.829 109.086 131.192 109.017 131.522 108.878C131.864 108.74 132.152 108.537 132.386 108.27L133.506 109.406C133.133 109.844 132.68 110.174 132.146 110.398C131.613 110.622 131.048 110.734 130.45 110.734ZM135.429 110.574V102.894H137.189V110.574H135.429ZM140.533 110.574V105.998C140.533 105.486 140.373 105.092 140.053 104.814C139.733 104.526 139.338 104.382 138.869 104.382C138.549 104.382 138.261 104.446 138.005 104.574C137.76 104.702 137.562 104.889 137.413 105.134C137.264 105.369 137.189 105.657 137.189 105.998L136.501 105.614C136.501 105.028 136.629 104.521 136.885 104.094C137.141 103.668 137.488 103.337 137.925 103.102C138.362 102.857 138.853 102.734 139.397 102.734C139.941 102.734 140.432 102.852 140.869 103.086C141.306 103.321 141.653 103.652 141.909 104.078C142.165 104.505 142.293 105.017 142.293 105.614V110.574H140.533ZM145.637 110.574V105.998C145.637 105.486 145.477 105.092 145.157 104.814C144.837 104.526 144.442 104.382 143.973 104.382C143.664 104.382 143.381 104.446 143.125 104.574C142.869 104.702 142.666 104.889 142.517 105.134C142.368 105.369 142.293 105.657 142.293 105.998L141.301 105.614C141.354 105.028 141.525 104.521 141.813 104.094C142.101 103.668 142.469 103.337 142.917 103.102C143.376 102.857 143.877 102.734 144.421 102.734C144.976 102.734 145.477 102.852 145.925 103.086C146.373 103.321 146.73 103.652 146.997 104.078C147.264 104.505 147.397 105.017 147.397 105.614V110.574H145.637ZM152.778 110.734C152.01 110.734 151.317 110.564 150.698 110.222C150.09 109.87 149.605 109.39 149.242 108.782C148.89 108.174 148.714 107.492 148.714 106.734C148.714 105.977 148.89 105.3 149.242 104.702C149.594 104.094 150.069 103.614 150.666 103.262C151.274 102.91 151.946 102.734 152.682 102.734C153.397 102.734 154.026 102.9 154.57 103.23C155.125 103.561 155.557 104.014 155.866 104.59C156.186 105.166 156.346 105.822 156.346 106.558C156.346 106.686 156.336 106.82 156.314 106.958C156.304 107.086 156.282 107.23 156.25 107.39H149.946V105.95H155.338L154.682 106.526C154.661 106.057 154.57 105.662 154.41 105.342C154.25 105.022 154.021 104.777 153.722 104.606C153.434 104.436 153.077 104.35 152.65 104.35C152.202 104.35 151.813 104.446 151.482 104.638C151.152 104.83 150.896 105.102 150.714 105.454C150.533 105.796 150.442 106.206 150.442 106.686C150.442 107.166 150.538 107.588 150.73 107.95C150.922 108.313 151.194 108.596 151.546 108.798C151.898 108.99 152.304 109.086 152.762 109.086C153.157 109.086 153.52 109.017 153.85 108.878C154.192 108.74 154.48 108.537 154.714 108.27L155.834 109.406C155.461 109.844 155.008 110.174 154.474 110.398C153.941 110.622 153.376 110.734 152.778 110.734ZM163.021 110.574V106.142C163.021 105.63 162.856 105.209 162.525 104.878C162.205 104.548 161.789 104.382 161.277 104.382C160.936 104.382 160.632 104.457 160.365 104.606C160.099 104.756 159.891 104.964 159.741 105.23C159.592 105.497 159.517 105.801 159.517 106.142L158.829 105.758C158.829 105.172 158.957 104.654 159.213 104.206C159.469 103.748 159.821 103.39 160.269 103.134C160.728 102.868 161.24 102.734 161.805 102.734C162.381 102.734 162.893 102.884 163.341 103.182C163.789 103.47 164.141 103.849 164.397 104.318C164.653 104.777 164.781 105.257 164.781 105.758V110.574H163.021ZM157.757 110.574V102.894H159.517V110.574H157.757ZM167.644 110.574V99.6942H169.404V110.574H167.644ZM165.804 104.494V102.894H171.244V104.494H165.804Z" fill="#E49B00"/>
<path fill-rule="evenodd" clip-rule="evenodd" d="M5.76692 44.1504C3.86951 44.6106 2.27047 46.2585 1.8733 48.1628C1.79238 48.5507 1.75778 52.774 1.75778 62.2504V75.784H1.28209C0.260676 75.784 -0.0929002 76.2578 0.020219 77.4751C0.272176 80.1865 2.08449 82.441 4.77959 83.3959L5.57372 83.6773L13.8809 83.7071C20.0668 83.7291 22.2638 83.7054 22.4848 83.6139C22.8018 83.4826 23.0852 83.0436 23.0852 82.6841C23.0852 82.3384 22.8128 81.9001 22.5132 81.7635C22.3083 81.6702 20.2471 81.6386 14.3649 81.6386C9.67967 81.6386 6.27293 81.5973 5.9526 81.5366C4.31645 81.2263 2.68385 79.7243 2.22824 78.1102L2.16185 77.8749H26.7289H51.2959L51.1898 78.267C50.7862 79.7585 49.1463 81.2341 47.561 81.5326C47.2118 81.5984 44.0023 81.6386 39.1136 81.6386C30.5543 81.6386 30.7964 81.6225 30.5284 82.2107C30.2761 82.7643 30.4923 83.402 31.0039 83.6139C31.2249 83.7054 33.4219 83.7291 39.6078 83.7071L47.915 83.6773L48.7503 83.382C50.8987 82.6229 52.4393 81.0768 53.1465 78.9703C53.4694 78.0081 53.5857 76.8507 53.4036 76.411C53.2346 76.003 52.8163 75.784 52.2066 75.784H51.7309V62.2504C51.7309 52.774 51.6963 48.5507 51.6154 48.1628C51.2068 46.2036 49.5293 44.526 47.5701 44.1175C46.7237 43.941 6.49969 43.9727 5.76692 44.1504ZM47.7635 46.3653C48.459 46.6871 48.9656 47.1782 49.296 47.8511L49.5877 48.4452L49.6154 62.1146L49.643 75.784H26.7459H3.84871V62.3166C3.84871 47.5606 3.81943 48.2705 4.46563 47.3783C4.84754 46.8511 5.31445 46.5148 5.98971 46.2806C6.48254 46.1097 7.75937 46.1 26.9012 46.1218L47.2877 46.1451L47.7635 46.3653ZM34.453 48.2914C33.4041 48.5549 32.4482 49.3432 31.9494 50.3563C31.6385 50.9876 31.6048 51.1478 31.5958 52.0367L31.586 53.0192L27.9367 55.1318L24.2875 57.2445L23.7725 56.7851C20.9479 54.2652 16.5871 55.0924 14.9321 58.4621C14.1186 60.1182 14.1182 61.7291 14.9307 63.4079C16.5621 66.7783 20.9462 67.6132 23.7725 65.0918L24.2875 64.6324L27.9367 66.745L31.586 68.8577L31.5958 69.8401C31.6048 70.7291 31.6385 70.8893 31.9494 71.5206C32.3483 72.3309 33.0024 72.9648 33.8535 73.3663C34.3403 73.5959 34.5729 73.6374 35.3694 73.6366C36.6115 73.6354 37.3684 73.3102 38.1866 72.4264C38.8849 71.6722 39.1946 70.9085 39.1976 69.9329C39.2004 69.0574 39.131 68.7692 38.7353 68.014C37.9849 66.5816 36.354 65.7784 34.7768 66.0645C34.095 66.188 33.2555 66.5581 33.0239 66.8372C32.9486 66.9279 32.8145 67.0021 32.7259 67.0021C32.6373 67.0021 30.9323 66.0605 28.9369 64.9095L25.3089 62.8168L25.45 62.2175C25.5276 61.8877 25.5911 61.3122 25.5911 60.9384C25.5911 60.5647 25.5276 59.9892 25.45 59.6594L25.3089 59.0601L28.9369 56.9674C30.9323 55.8164 32.6373 54.8748 32.7259 54.8748C32.8145 54.8748 32.9486 54.949 33.0239 55.0397C33.2555 55.3188 34.095 55.6889 34.7768 55.8124C36.354 56.0985 37.9849 55.2952 38.7353 53.8628C39.131 53.1077 39.2004 52.8195 39.1976 51.944C39.1913 49.9616 37.5819 48.3066 35.579 48.2231C35.1762 48.2063 34.6696 48.237 34.453 48.2914ZM36.4106 50.6303C36.9008 51.0042 37.1151 51.4452 37.1103 52.0702C37.0988 53.559 35.4165 54.306 34.2622 53.3348C33.3224 52.544 33.4911 51.0669 34.5857 50.5031C35.2049 50.1843 35.8883 50.2319 36.4106 50.6303ZM21.4378 57.724C22.1767 58.0623 22.8214 58.7065 23.1743 59.4593C23.4057 59.9529 23.4511 60.1956 23.4511 60.9384C23.4511 61.6812 23.4057 61.924 23.1743 62.4176C22.8218 63.1695 22.1799 63.8114 21.428 64.1639C20.9339 64.3956 20.6924 64.4406 19.9488 64.4402C19.189 64.4397 18.9739 64.3974 18.4653 64.148C17.6937 63.7699 16.8921 62.8995 16.6417 62.1681C16.4006 61.4635 16.4 60.4152 16.6404 59.7132C16.8478 59.1073 17.5471 58.2603 18.1448 57.8908C19.0655 57.3218 20.4105 57.2537 21.4378 57.724ZM37.759 57.9058C37.1763 58.1409 37.009 59.0331 37.4513 59.5473L37.7034 59.8407L41.7595 59.8705C46.1408 59.9026 46.2888 59.8869 46.5608 59.3607C46.7454 59.0038 46.7527 58.7361 46.5878 58.3741C46.333 57.8148 46.2234 57.8015 41.9349 57.8086C39.7614 57.8123 37.8823 57.856 37.759 57.9058ZM19.2995 60.196C19.0189 60.4467 18.9604 60.5746 18.9604 60.9384C18.9604 61.693 19.7476 62.2008 20.4001 61.8671C21.4004 61.3556 21.0336 59.893 19.9051 59.893C19.7585 59.893 19.4859 60.0293 19.2995 60.196ZM37.759 62.0827C37.1745 62.3313 37.0092 63.2154 37.4513 63.7292C37.6608 63.9728 37.7865 64.0226 38.1922 64.0226C38.8171 64.0226 39.1854 63.6542 39.1854 63.0294C39.1854 62.2985 38.4301 61.7973 37.759 62.0827ZM42.4636 62.0876C41.881 62.3227 41.7136 63.2148 42.1556 63.7292L42.4077 64.0226L44.1026 64.0561C45.2626 64.079 45.8939 64.0496 46.1032 63.963C46.4281 63.8283 46.7127 63.3925 46.7127 63.0294C46.7127 62.6837 46.4403 62.2454 46.1406 62.1088C45.8206 61.963 42.8153 61.9456 42.4636 62.0876ZM7.06612 66.7469C6.7161 66.9369 6.56691 67.2007 6.56691 67.6294C6.56691 68.0668 6.71924 68.3265 7.08755 68.517C7.52539 68.7433 13.4345 68.7512 13.87 68.5259C14.5658 68.166 14.5658 67.0928 13.87 66.7329C13.4402 66.5107 7.47887 66.5229 7.06612 66.7469ZM36.3313 68.3752C37.0449 68.8139 37.3372 69.8885 36.9477 70.6418C36.3264 71.8431 34.5371 71.885 33.8818 70.7135C32.9971 69.1321 34.7852 67.4251 36.3313 68.3752ZM7.06612 70.9288C6.7161 71.1187 6.56691 71.3825 6.56691 71.8113C6.56691 72.2487 6.71924 72.5084 7.08755 72.6989C7.54222 72.9339 7.88346 72.8917 8.26171 72.5537C8.54231 72.303 8.60086 72.1751 8.60086 71.8113C8.60086 71.4474 8.54231 71.3195 8.26171 71.0688C7.8843 70.7315 7.51034 70.6877 7.06612 70.9288ZM11.7707 70.9288C11.4207 71.1187 11.2715 71.3825 11.2715 71.8113C11.2715 72.2487 11.4238 72.5084 11.7921 72.6989C12.0482 72.8312 12.7148 72.8567 15.917 72.8567H19.7364L20.0754 72.5537C20.3561 72.303 20.4146 72.1751 20.4146 71.8113C20.4146 71.4474 20.3561 71.3195 20.0754 71.0688L19.7364 70.7658L15.896 70.77C12.7108 70.7734 12.007 70.8005 11.7707 70.9288ZM26.2331 81.7846C25.3268 82.2869 25.706 83.7295 26.7444 83.7295C27.2741 83.7295 27.7898 83.2188 27.7898 82.6942C27.7898 81.9093 26.9224 81.4024 26.2331 81.7846Z" fill="#E49B00"/>
</svg>
