<svg width="131" height="115" viewBox="0 0 131 115" fill="none" xmlns="http://www.w3.org/2000/svg">
<path d="M44.7517 78.0373C39.4082 78.0373 34.5677 76.5914 30.2301 73.6996C25.8925 70.8079 22.4664 66.7846 19.9518 61.6298C17.5002 56.4121 16.2743 50.4086 16.2743 43.6193C16.2743 36.7671 17.5002 30.795 19.9518 25.703C22.4035 20.5482 25.7668 16.5563 30.0415 13.7275C34.3163 10.8357 39.1568 9.38985 44.5631 9.38985C50.0322 9.38985 54.9042 10.8357 59.1789 13.7275C63.4537 16.5563 66.8169 20.5482 69.2686 25.703C71.7831 30.8579 73.0404 36.8614 73.0404 43.7136C73.0404 50.5657 71.7831 56.5692 69.2686 61.7241C66.8169 66.8789 63.4537 70.9022 59.1789 73.7939C54.967 76.6228 50.158 78.0373 44.7517 78.0373ZM44.6574 64.9301C47.4234 64.9301 49.8122 64.1443 51.8239 62.5727C53.8355 60.9383 55.3757 58.5494 56.4444 55.4062C57.5759 52.2002 58.1417 48.3026 58.1417 43.7136C58.1417 39.0616 57.5759 35.1641 56.4444 32.0209C55.3757 28.8777 53.8355 26.5203 51.8239 24.9487C49.8122 23.3142 47.3919 22.497 44.5631 22.497C41.8599 22.497 39.4711 23.2828 37.3966 24.8544C35.3849 26.426 33.8448 28.7834 32.7761 31.9266C31.7074 35.0698 31.1731 38.9673 31.1731 43.6193C31.1731 48.2712 31.7074 52.1688 32.7761 55.3119C33.8448 58.4551 35.3849 60.844 37.3966 62.4784C39.4711 64.1129 41.8914 64.9301 44.6574 64.9301ZM78.3225 68.702L103.877 42.2991C105.448 40.7275 106.706 39.2816 107.648 37.9615C108.591 36.6414 109.283 35.4155 109.723 34.284C110.163 33.0895 110.383 31.8951 110.383 30.7007C110.383 28.1233 109.534 26.1117 107.837 24.6658C106.203 23.157 104.034 22.4027 101.331 22.4027C98.6904 22.4027 96.3016 23.1256 94.1642 24.5715C92.0897 25.9545 90.078 28.249 88.1292 31.4551L78.2282 22.8742C80.8685 18.4108 84.2317 15.0476 88.3178 12.7845C92.404 10.5214 97.0874 9.38985 102.368 9.38985C106.957 9.38985 110.917 10.2385 114.249 11.9358C117.644 13.6332 120.253 16.0534 122.076 19.1966C123.962 22.3398 124.905 26.0174 124.905 30.2292C124.905 32.8695 124.559 35.3212 123.867 37.5843C123.176 39.7846 122.044 41.9848 120.473 44.185C118.964 46.3224 116.921 48.6798 114.343 51.2572L96.6159 68.8906L78.3225 68.702ZM78.3225 77V68.702L90.8638 64.3644H126.225V77H78.3225Z" fill="#E49B00" fill-opacity="0.08"/>
<path d="M2.05584 110.574L2.05584 99.3742H3.89584L3.89584 110.574H2.05584ZM3.31984 105.774L3.31984 104.094H9.01584V105.774H3.31984ZM3.31984 101.054V99.3742H9.28784L9.28784 101.054H3.31984ZM10.8943 110.574V102.894H12.6543V110.574H10.8943ZM11.7743 101.486C11.4757 101.486 11.225 101.385 11.0223 101.182C10.8303 100.98 10.7343 100.729 10.7343 100.43C10.7343 100.132 10.8303 99.8809 11.0223 99.6782C11.225 99.4756 11.4757 99.3742 11.7743 99.3742C12.0837 99.3742 12.3343 99.4756 12.5263 99.6782C12.7183 99.8809 12.8143 100.132 12.8143 100.43C12.8143 100.729 12.7183 100.98 12.5263 101.182C12.3343 101.385 12.0837 101.486 11.7743 101.486ZM19.8923 110.574V106.142C19.8923 105.63 19.727 105.209 19.3963 104.878C19.0763 104.548 18.6603 104.382 18.1483 104.382C17.807 104.382 17.503 104.457 17.2363 104.606C16.9697 104.756 16.7617 104.964 16.6123 105.23C16.463 105.497 16.3883 105.801 16.3883 106.142L15.7003 105.758C15.7003 105.172 15.8283 104.654 16.0843 104.206C16.3403 103.748 16.6923 103.39 17.1403 103.134C17.599 102.868 18.111 102.734 18.6763 102.734C19.2523 102.734 19.7643 102.884 20.2123 103.182C20.6603 103.47 21.0123 103.849 21.2683 104.318C21.5243 104.777 21.6523 105.257 21.6523 105.758V110.574H19.8923ZM14.6283 110.574V102.894H16.3883V110.574H14.6283ZM26.6568 110.734C25.9635 110.734 25.3342 110.558 24.7688 110.206C24.2142 109.854 23.7715 109.38 23.4408 108.782C23.1208 108.174 22.9608 107.497 22.9608 106.75C22.9608 105.993 23.1208 105.316 23.4408 104.718C23.7715 104.11 24.2142 103.63 24.7688 103.278C25.3342 102.916 25.9635 102.734 26.6568 102.734C27.2435 102.734 27.7608 102.862 28.2088 103.118C28.6675 103.364 29.0302 103.705 29.2968 104.142C29.5635 104.58 29.6968 105.076 29.6968 105.63V107.838C29.6968 108.393 29.5635 108.889 29.2968 109.326C29.0408 109.764 28.6835 110.11 28.2248 110.366C27.7662 110.612 27.2435 110.734 26.6568 110.734ZM26.9448 109.07C27.5955 109.07 28.1182 108.852 28.5128 108.414C28.9182 107.977 29.1208 107.417 29.1208 106.734C29.1208 106.276 29.0302 105.87 28.8488 105.518C28.6675 105.166 28.4115 104.894 28.0808 104.702C27.7608 104.5 27.3822 104.398 26.9448 104.398C26.5182 104.398 26.1395 104.5 25.8088 104.702C25.4888 104.894 25.2328 105.166 25.0408 105.518C24.8595 105.87 24.7688 106.276 24.7688 106.734C24.7688 107.193 24.8595 107.598 25.0408 107.95C25.2328 108.302 25.4888 108.58 25.8088 108.782C26.1395 108.974 26.5182 109.07 26.9448 109.07ZM29.0088 110.574V108.51L29.3128 106.638L29.0088 104.782V102.894H30.7688L30.7688 110.574H29.0088ZM32.7221 110.574V99.0542H34.4821V110.574H32.7221ZM36.4568 110.574V102.894H38.2168V110.574H36.4568ZM37.3368 101.486C37.0382 101.486 36.7875 101.385 36.5848 101.182C36.3928 100.98 36.2968 100.729 36.2968 100.43C36.2968 100.132 36.3928 99.8809 36.5848 99.6782C36.7875 99.4756 37.0382 99.3742 37.3368 99.3742C37.6462 99.3742 37.8968 99.4756 38.0888 99.6782C38.2808 99.8809 38.3768 100.132 38.3768 100.43C38.3768 100.729 38.2808 100.98 38.0888 101.182C37.8968 101.385 37.6462 101.486 37.3368 101.486ZM39.6148 109.614L43.9028 103.854H45.9668L41.6788 109.614H39.6148ZM39.6148 110.574V109.614L41.2148 108.974H45.8708V110.574H39.6148ZM39.9028 104.494V102.894H45.9668V103.854L44.3668 104.494H39.9028ZM50.8526 110.734C50.0846 110.734 49.3913 110.564 48.7726 110.222C48.1646 109.87 47.6793 109.39 47.3166 108.782C46.9646 108.174 46.7886 107.492 46.7886 106.734C46.7886 105.977 46.9646 105.3 47.3166 104.702C47.6686 104.094 48.1433 103.614 48.7406 103.262C49.3486 102.91 50.0206 102.734 50.7566 102.734C51.4713 102.734 52.1006 102.9 52.6446 103.23C53.1993 103.561 53.6313 104.014 53.9406 104.59C54.2606 105.166 54.4206 105.822 54.4206 106.558C54.4206 106.686 54.4099 106.82 54.3886 106.958C54.3779 107.086 54.3566 107.23 54.3246 107.39L48.0206 107.39V105.95L53.4126 105.95L52.7566 106.526C52.7353 106.057 52.6446 105.662 52.4846 105.342C52.3246 105.022 52.0953 104.777 51.7966 104.606C51.5086 104.436 51.1513 104.35 50.7246 104.35C50.2766 104.35 49.8873 104.446 49.5566 104.638C49.2259 104.83 48.9699 105.102 48.7886 105.454C48.6073 105.796 48.5166 106.206 48.5166 106.686C48.5166 107.166 48.6126 107.588 48.8046 107.95C48.9966 108.313 49.2686 108.596 49.6206 108.798C49.9726 108.99 50.3779 109.086 50.8366 109.086C51.2313 109.086 51.5939 109.017 51.9246 108.878C52.2659 108.74 52.5539 108.537 52.7886 108.27L53.9086 109.406C53.5353 109.844 53.0819 110.174 52.5486 110.398C52.0153 110.622 51.4499 110.734 50.8526 110.734ZM60.2026 110.574V99.6942H61.9626V110.574H60.2026ZM58.3626 104.494V102.894H63.8026V104.494H58.3626ZM70.3455 110.574V106.142C70.3455 105.63 70.1801 105.209 69.8495 104.878C69.5295 104.548 69.1135 104.382 68.6015 104.382C68.2601 104.382 67.9561 104.457 67.6895 104.606C67.4228 104.756 67.2148 104.964 67.0655 105.23C66.9161 105.497 66.8415 105.801 66.8415 106.142L66.1535 105.758C66.1535 105.172 66.2815 104.654 66.5375 104.206C66.7935 103.748 67.1455 103.39 67.5935 103.134C68.0521 102.868 68.5641 102.734 69.1295 102.734C69.7055 102.734 70.2175 102.862 70.6655 103.118C71.1135 103.374 71.4655 103.732 71.7215 104.19C71.9775 104.638 72.1055 105.161 72.1055 105.758V110.574H70.3455ZM65.0815 110.574V99.0542H66.8415V110.574H65.0815ZM77.462 110.734C76.694 110.734 76.0006 110.564 75.382 110.222C74.774 109.87 74.2886 109.39 73.926 108.782C73.574 108.174 73.398 107.492 73.398 106.734C73.398 105.977 73.574 105.3 73.926 104.702C74.278 104.094 74.7526 103.614 75.35 103.262C75.958 102.91 76.63 102.734 77.366 102.734C78.0806 102.734 78.71 102.9 79.254 103.23C79.8086 103.561 80.2406 104.014 80.55 104.59C80.87 105.166 81.03 105.822 81.03 106.558C81.03 106.686 81.0193 106.82 80.998 106.958C80.9873 107.086 80.966 107.23 80.934 107.39H74.63V105.95H80.022L79.366 106.526C79.3446 106.057 79.254 105.662 79.094 105.342C78.934 105.022 78.7046 104.777 78.406 104.606C78.118 104.436 77.7606 104.35 77.334 104.35C76.886 104.35 76.4966 104.446 76.166 104.638C75.8353 104.83 75.5793 105.102 75.398 105.454C75.2166 105.796 75.126 106.206 75.126 106.686C75.126 107.166 75.222 107.588 75.414 107.95C75.606 108.313 75.878 108.596 76.23 108.798C76.582 108.99 76.9873 109.086 77.446 109.086C77.8406 109.086 78.2033 109.017 78.534 108.878C78.8753 108.74 79.1633 108.537 79.398 108.27L80.518 109.406C80.1446 109.844 79.6913 110.174 79.158 110.398C78.6246 110.622 78.0593 110.734 77.462 110.734ZM88.156 110.734C87.7293 110.734 87.3186 110.681 86.924 110.574C86.5293 110.457 86.1666 110.297 85.836 110.094C85.5053 109.881 85.2173 109.625 84.972 109.326L86.092 108.206C86.3586 108.516 86.6626 108.75 87.004 108.91C87.356 109.06 87.7506 109.134 88.188 109.134C88.5826 109.134 88.8813 109.076 89.084 108.958C89.2866 108.841 89.388 108.67 89.388 108.446C89.388 108.212 89.292 108.03 89.1 107.902C88.908 107.774 88.6573 107.668 88.348 107.582C88.0493 107.486 87.7293 107.39 87.388 107.294C87.0573 107.198 86.7373 107.07 86.428 106.91C86.1293 106.74 85.884 106.51 85.692 106.222C85.5 105.934 85.404 105.561 85.404 105.102C85.404 104.612 85.516 104.19 85.74 103.838C85.9746 103.486 86.3 103.214 86.716 103.022C87.1426 102.83 87.6493 102.734 88.236 102.734C88.8546 102.734 89.3986 102.846 89.868 103.07C90.348 103.284 90.748 103.609 91.068 104.046L89.948 105.166C89.724 104.889 89.468 104.681 89.18 104.542C88.892 104.404 88.5613 104.334 88.188 104.334C87.836 104.334 87.564 104.388 87.372 104.494C87.18 104.601 87.084 104.756 87.084 104.958C87.084 105.172 87.18 105.337 87.372 105.454C87.564 105.572 87.8093 105.673 88.108 105.758C88.4173 105.844 88.7373 105.94 89.068 106.046C89.4093 106.142 89.7293 106.281 90.028 106.462C90.3373 106.633 90.588 106.868 90.78 107.166C90.972 107.454 91.068 107.833 91.068 108.302C91.068 109.049 90.8066 109.641 90.284 110.078C89.7613 110.516 89.052 110.734 88.156 110.734ZM96.055 110.734C95.2976 110.734 94.6096 110.558 93.991 110.206C93.383 109.854 92.903 109.374 92.551 108.766C92.199 108.158 92.023 107.481 92.023 106.734C92.023 105.977 92.199 105.3 92.551 104.702C92.903 104.094 93.383 103.614 93.991 103.262C94.6096 102.91 95.2976 102.734 96.055 102.734C96.6523 102.734 97.207 102.852 97.719 103.086C98.2416 103.31 98.6843 103.636 99.047 104.062L97.895 105.23C97.671 104.964 97.399 104.766 97.079 104.638C96.7696 104.5 96.4283 104.43 96.055 104.43C95.6176 104.43 95.2283 104.532 94.887 104.734C94.5563 104.926 94.295 105.193 94.103 105.534C93.9216 105.876 93.831 106.276 93.831 106.734C93.831 107.182 93.9216 107.582 94.103 107.934C94.295 108.276 94.5563 108.548 94.887 108.75C95.2283 108.942 95.6176 109.038 96.055 109.038C96.4283 109.038 96.7696 108.974 97.079 108.846C97.399 108.708 97.671 108.505 97.895 108.238L99.047 109.406C98.6843 109.833 98.2416 110.164 97.719 110.398C97.207 110.622 96.6523 110.734 96.055 110.734ZM103.68 110.734C102.933 110.734 102.256 110.558 101.648 110.206C101.04 109.844 100.554 109.358 100.192 108.75C99.8396 108.142 99.6636 107.465 99.6636 106.718C99.6636 105.972 99.8396 105.3 100.192 104.702C100.554 104.105 101.04 103.63 101.648 103.278C102.256 102.916 102.933 102.734 103.68 102.734C104.437 102.734 105.12 102.91 105.728 103.262C106.336 103.614 106.816 104.094 107.168 104.702C107.53 105.3 107.712 105.972 107.712 106.718C107.712 107.465 107.53 108.142 107.168 108.75C106.816 109.358 106.336 109.844 105.728 110.206C105.12 110.558 104.437 110.734 103.68 110.734ZM103.68 109.038C104.117 109.038 104.501 108.942 104.832 108.75C105.173 108.548 105.434 108.27 105.616 107.918C105.808 107.566 105.904 107.166 105.904 106.718C105.904 106.27 105.808 105.876 105.616 105.534C105.424 105.193 105.162 104.926 104.832 104.734C104.501 104.532 104.117 104.43 103.68 104.43C103.253 104.43 102.869 104.532 102.528 104.734C102.197 104.926 101.936 105.193 101.744 105.534C101.562 105.876 101.472 106.27 101.472 106.718C101.472 107.166 101.562 107.566 101.744 107.918C101.936 108.27 102.197 108.548 102.528 108.75C102.869 108.942 103.253 109.038 103.68 109.038ZM113.287 110.734C112.701 110.734 112.178 110.612 111.719 110.366C111.261 110.11 110.898 109.764 110.631 109.326C110.375 108.889 110.247 108.393 110.247 107.838V105.63C110.247 105.076 110.381 104.58 110.647 104.142C110.914 103.705 111.277 103.364 111.735 103.118C112.194 102.862 112.711 102.734 113.287 102.734C113.981 102.734 114.605 102.916 115.159 103.278C115.725 103.63 116.167 104.11 116.487 104.718C116.818 105.316 116.983 105.993 116.983 106.75C116.983 107.497 116.818 108.174 116.487 108.782C116.167 109.38 115.725 109.854 115.159 110.206C114.605 110.558 113.981 110.734 113.287 110.734ZM112.999 109.07C113.426 109.07 113.799 108.974 114.119 108.782C114.45 108.58 114.706 108.302 114.887 107.95C115.079 107.598 115.175 107.193 115.175 106.734C115.175 106.276 115.079 105.87 114.887 105.518C114.706 105.166 114.45 104.894 114.119 104.702C113.799 104.5 113.426 104.398 112.999 104.398C112.573 104.398 112.194 104.5 111.863 104.702C111.533 104.894 111.277 105.166 111.095 105.518C110.914 105.87 110.823 106.276 110.823 106.734C110.823 107.193 110.914 107.598 111.095 107.95C111.277 108.302 111.533 108.58 111.863 108.782C112.194 108.974 112.573 109.07 112.999 109.07ZM109.175 113.774V102.894H110.935V104.958L110.631 106.83L110.935 108.686V113.774H109.175ZM122.024 110.734C121.256 110.734 120.563 110.564 119.944 110.222C119.336 109.87 118.851 109.39 118.488 108.782C118.136 108.174 117.96 107.492 117.96 106.734C117.96 105.977 118.136 105.3 118.488 104.702C118.84 104.094 119.315 103.614 119.912 103.262C120.52 102.91 121.192 102.734 121.928 102.734C122.643 102.734 123.272 102.9 123.816 103.23C124.371 103.561 124.803 104.014 125.112 104.59C125.432 105.166 125.592 105.822 125.592 106.558C125.592 106.686 125.582 106.82 125.56 106.958C125.55 107.086 125.528 107.23 125.496 107.39H119.192V105.95H124.584L123.928 106.526C123.907 106.057 123.816 105.662 123.656 105.342C123.496 105.022 123.267 104.777 122.968 104.606C122.68 104.436 122.323 104.35 121.896 104.35C121.448 104.35 121.059 104.446 120.728 104.638C120.398 104.83 120.142 105.102 119.96 105.454C119.779 105.796 119.688 106.206 119.688 106.686C119.688 107.166 119.784 107.588 119.976 107.95C120.168 108.313 120.44 108.596 120.792 108.798C121.144 108.99 121.55 109.086 122.008 109.086C122.403 109.086 122.766 109.017 123.096 108.878C123.438 108.74 123.726 108.537 123.96 108.27L125.08 109.406C124.707 109.844 124.254 110.174 123.72 110.398C123.187 110.622 122.622 110.734 122.024 110.734Z" fill="#E49B00"/>
<path fill-rule="evenodd" clip-rule="evenodd" d="M7.2818 32.0806C6.45845 32.2817 5.697 32.9021 5.26146 33.727L5 34.2222V52.5891V70.9559L5.20318 71.3947C5.49886 72.033 6.02862 72.5699 6.68692 72.8984L7.2646 73.1865H13.5271H19.7895L20.6188 73.8593C21.4989 74.5734 22.799 75.383 23.7123 75.7855C24.9672 76.3386 27.0901 76.8884 27.9711 76.8884H28.341V78.3552C28.341 79.9565 28.4061 80.2361 28.8301 80.455C29.1617 80.6262 29.4217 80.6262 29.7533 80.455C30.1773 80.2361 30.2425 79.9565 30.2425 78.3552V76.8884H30.6316C30.8456 76.8884 31.4383 76.8034 31.9488 76.6996C34.2792 76.2255 36.2027 75.3022 38.0988 73.7477L38.777 73.1918L45.1344 73.1654L51.4918 73.1391L51.9001 72.9214C52.5295 72.5859 53.0288 72.0833 53.3191 71.4933L53.5834 70.9559V52.5891V34.2222L53.322 33.727C52.99 33.0982 52.5226 32.6315 51.8927 32.3001L51.3967 32.039L36.042 32.0138C24.5822 31.9949 20.6199 32.0164 20.4215 32.0984C20.1366 32.216 19.8793 32.6158 19.8793 32.9408C19.8793 33.2157 20.1224 33.6601 20.3274 33.7598C20.4208 33.8053 27.3739 33.8639 35.7788 33.89L51.0603 33.9374L51.3711 34.2476L51.6819 34.5579L51.7089 38.258L51.7358 41.9581H29.2917H6.8476L6.8745 38.258L6.9015 34.5579L7.21211 34.2476L7.52272 33.9374L10.0644 33.8891C11.4623 33.8625 12.6825 33.804 12.7759 33.759C12.9778 33.6617 13.224 33.2172 13.224 32.95C13.224 32.6291 13.01 32.2689 12.7348 32.1268C12.5263 32.0192 11.9717 31.9936 10.02 32.0013C8.67085 32.0067 7.43868 32.0424 7.2818 32.0806ZM16.0867 32.1241C15.2625 32.5802 15.6073 33.89 16.5516 33.89C17.0334 33.89 17.5024 33.4263 17.5024 32.95C17.5024 32.2373 16.7135 31.7772 16.0867 32.1241ZM11.0612 37.1681C10.9466 37.2483 10.804 37.4763 10.7444 37.6748C10.6544 37.9747 10.6631 38.0875 10.7955 38.3432C11.1031 38.9371 10.876 38.9207 18.7859 38.9207C26.4594 38.9207 26.4706 38.92 26.7171 38.4603C26.9163 38.0886 26.8422 37.5539 26.5531 37.2774L26.2865 37.0223H18.7781C12.1793 37.0223 11.2444 37.04 11.0612 37.1681ZM36.0347 37.2998C35.8335 37.5007 35.7568 37.6688 35.7568 37.9094C35.7568 38.3002 36.1106 38.7747 36.4688 38.8645C36.8387 38.9571 37.3481 38.6947 37.5276 38.319C37.9803 37.371 36.7825 36.5532 36.0347 37.2998ZM41.1688 37.2998C40.702 37.7659 40.8341 38.4973 41.4368 38.7829C41.7252 38.9195 41.8091 38.9227 42.1091 38.8087C42.3141 38.7309 42.5255 38.5526 42.635 38.3653C42.7926 38.096 42.803 38.0015 42.7096 37.6901C42.5001 36.9921 41.684 36.7854 41.1688 37.2998ZM46.3028 37.2998C45.576 38.0255 46.3529 39.183 47.3013 38.7874C48.2635 38.386 47.9721 37.0223 46.9242 37.0223C46.6714 37.0223 46.5074 37.0955 46.3028 37.2998ZM51.7294 57.1499C51.7294 71.591 51.7595 70.7753 51.2147 71.1317C50.9998 71.2723 50.4409 71.2882 45.7058 71.2882H40.4361L41.0301 70.3007C41.9572 68.7595 42.6722 66.7637 42.8355 65.2608C42.9554 64.1578 42.7915 64.2641 44.3723 64.2641C45.4267 64.2641 45.8328 64.2289 46.0687 64.1172C46.6528 63.8404 46.7775 63.1024 46.3175 62.6432L46.0396 62.3657H44.5129C43.0044 62.3657 42.9857 62.3632 42.9476 62.1522C42.9264 62.0347 42.8398 61.495 42.7552 60.9527C42.3535 58.3789 41.0766 55.8692 39.1374 53.8426C38.0521 52.7083 36.9567 51.8897 35.5721 51.1784C33.9654 50.3529 32.6559 49.9544 30.7004 49.6957L30.2551 49.6368L30.2251 48.0671L30.1949 46.4973L29.9281 46.2685C29.5664 45.9581 29.017 45.9581 28.6553 46.2685L28.3885 46.4973L28.3584 48.0671L28.3283 49.6368L27.883 49.695C24.6435 50.1182 22.0664 51.3193 19.8509 53.4386C18.704 54.5357 17.8666 55.6386 17.1766 56.961C16.3723 58.5022 15.9803 59.8016 15.6389 62.0573L15.5922 62.3657H14.0681H12.5438L12.2659 62.6432C11.806 63.1024 11.9306 63.8404 12.5147 64.1172C12.7506 64.2289 13.1567 64.2641 14.2111 64.2641C15.5738 64.2641 15.5979 64.2677 15.6358 64.4777C15.657 64.5952 15.7409 65.1184 15.8223 65.6405C16.0808 67.2981 16.8334 69.2435 17.7778 70.6949L18.1637 71.2882H12.8858C8.14309 71.2882 7.58357 71.2723 7.3687 71.1317C6.82392 70.7753 6.85397 71.591 6.85397 57.1499V43.8565H29.2917H51.7294V57.1499ZM28.341 53.1003V54.6557L27.8893 54.7232C27.149 54.8338 25.9629 55.2388 25.2202 55.6347C22.9026 56.87 21.2788 59.0509 20.7623 61.6217L20.6119 62.3703L19.0811 62.3443L17.5504 62.3183L17.5818 61.9386C17.6724 60.8422 18.1515 59.2458 18.7474 58.0551C20.561 54.4309 24.1773 51.9504 28.2221 51.5565C28.3128 51.5477 28.341 51.9131 28.341 53.1003ZM32.1045 51.8804C35.5034 52.7273 38.2801 54.9519 39.8444 58.0817C40.4397 59.2727 40.9112 60.8442 41.0016 61.9386L41.033 62.3183L39.505 62.3443L37.9769 62.3703L37.8087 61.5849C37.2399 58.9289 35.5343 56.7077 33.1423 55.5075C32.5634 55.217 31.3083 54.8149 30.6941 54.7232L30.2425 54.6557V53.1049V51.5539L30.7416 51.6095C31.0161 51.6402 31.6294 51.762 32.1045 51.8804ZM30.978 56.7259C32.2818 57.0602 33.6982 57.9613 34.5265 58.9832C35.5724 60.2737 36.0504 61.6335 36.0495 63.3149C36.0483 65.2996 35.3594 66.8684 33.8755 68.266C33.0719 69.0229 31.8379 69.6766 30.762 69.9156C29.6926 70.1531 28.165 70.0744 27.1535 69.7297C23.2012 68.3826 21.3504 63.8285 23.2686 60.1705C24.2692 58.2626 26.1603 56.9124 28.2968 56.5808C28.9994 56.4717 30.2509 56.5395 30.978 56.7259ZM31.5129 60.3995C31.401 60.4629 30.7015 61.241 29.9582 62.1285C29.2149 63.0159 28.5499 63.8017 28.4804 63.8745C28.3735 63.9867 28.2631 63.9309 27.7567 63.5084C27.0694 62.9351 26.7981 62.8092 26.4255 62.8908C26.0971 62.9629 25.6789 63.4413 25.6789 63.7449C25.6789 64.1711 25.8967 64.4447 26.9219 65.3056C28.1396 66.3282 28.394 66.4455 28.8538 66.1956C29.1516 66.0337 32.538 62.113 32.7964 61.631C33.2148 60.8503 32.2872 59.9603 31.5129 60.3995ZM20.8135 65.1896C21.3996 67.7503 23.0907 69.9 25.4412 71.072C26.0845 71.3929 27.0598 71.7237 27.6279 71.8139C28.4009 71.9366 28.341 71.7965 28.341 73.4777V74.99H28.0517C27.8927 74.99 27.4327 74.9239 27.0297 74.8431C22.0649 73.8474 18.2656 69.8191 17.612 64.8574L17.5339 64.2641H19.0677H20.6016L20.8135 65.1896ZM40.9711 64.8574C40.3222 69.7634 36.575 73.7924 31.7161 74.8085C31.2455 74.907 30.7214 74.9881 30.5515 74.9888L30.2425 74.99V73.4777C30.2425 71.7965 30.1825 71.9366 30.9555 71.8139C31.1647 71.7807 31.6139 71.6642 31.9538 71.5551C35.058 70.5579 37.325 67.9099 37.891 64.6201L37.9522 64.2641H39.5009H41.0496L40.9711 64.8574Z" fill="#E49B00"/>
</svg>
