<svg width="154" height="115" viewBox="0 0 154 115" fill="none" xmlns="http://www.w3.org/2000/svg">
<path d="M44.7517 78.0373C39.4082 78.0373 34.5677 76.5914 30.2301 73.6996C25.8925 70.8079 22.4664 66.7846 19.9518 61.6298C17.5002 56.4121 16.2743 50.4086 16.2743 43.6193C16.2743 36.7671 17.5002 30.795 19.9518 25.703C22.4035 20.5482 25.7668 16.5563 30.0415 13.7275C34.3163 10.8357 39.1568 9.38985 44.5631 9.38985C50.0322 9.38985 54.9042 10.8357 59.1789 13.7275C63.4537 16.5563 66.8169 20.5482 69.2686 25.703C71.7831 30.8579 73.0404 36.8614 73.0404 43.7136C73.0404 50.5657 71.7831 56.5692 69.2686 61.7241C66.8169 66.8789 63.4537 70.9022 59.1789 73.7939C54.967 76.6228 50.158 78.0373 44.7517 78.0373ZM44.6574 64.9301C47.4234 64.9301 49.8122 64.1443 51.8239 62.5727C53.8355 60.9383 55.3757 58.5494 56.4444 55.4062C57.5759 52.2002 58.1417 48.3026 58.1417 43.7136C58.1417 39.0616 57.5759 35.1641 56.4444 32.0209C55.3757 28.8777 53.8355 26.5203 51.8239 24.9487C49.8122 23.3142 47.3919 22.497 44.5631 22.497C41.8599 22.497 39.4711 23.2828 37.3966 24.8544C35.3849 26.426 33.8448 28.7834 32.7761 31.9266C31.7074 35.0698 31.1731 38.9673 31.1731 43.6193C31.1731 48.2712 31.7074 52.1688 32.7761 55.3119C33.8448 58.4551 35.3849 60.844 37.3966 62.4784C39.4711 64.1129 41.8914 64.9301 44.6574 64.9301ZM78.3225 68.702L103.877 42.2991C105.448 40.7275 106.706 39.2816 107.648 37.9615C108.591 36.6414 109.283 35.4155 109.723 34.284C110.163 33.0895 110.383 31.8951 110.383 30.7007C110.383 28.1233 109.534 26.1117 107.837 24.6658C106.203 23.157 104.034 22.4027 101.331 22.4027C98.6904 22.4027 96.3016 23.1256 94.1642 24.5715C92.0897 25.9545 90.078 28.249 88.1292 31.4551L78.2282 22.8742C80.8685 18.4108 84.2317 15.0476 88.3178 12.7845C92.404 10.5214 97.0874 9.38985 102.368 9.38985C106.957 9.38985 110.917 10.2385 114.249 11.9358C117.644 13.6332 120.253 16.0534 122.076 19.1966C123.962 22.3398 124.905 26.0174 124.905 30.2292C124.905 32.8695 124.559 35.3212 123.867 37.5843C123.176 39.7846 122.044 41.9848 120.473 44.185C118.964 46.3224 116.921 48.6798 114.343 51.2572L96.6159 68.8906L78.3225 68.702ZM78.3225 77V68.702L90.8638 64.3644H126.225V77H78.3225Z" fill="#E49B00" fill-opacity="0.08"/>
<path d="M3.31984 105.822V104.302H6.15184C6.71718 104.302 7.15451 104.158 7.46384 103.87C7.78384 103.572 7.94384 103.161 7.94384 102.638C7.94384 102.169 7.78918 101.774 7.47984 101.454C7.17051 101.134 6.73318 100.974 6.16784 100.974H3.31984V99.3742H6.24784C6.95184 99.3742 7.57051 99.5182 8.10384 99.8062C8.63718 100.084 9.04784 100.468 9.33584 100.958C9.63451 101.438 9.78384 101.988 9.78384 102.606C9.78384 103.257 9.63451 103.822 9.33584 104.302C9.04784 104.782 8.63718 105.156 8.10384 105.422C7.57051 105.689 6.95184 105.822 6.24784 105.822H3.31984ZM2.05584 110.574L2.05584 99.3742H3.89584L3.89584 110.574H2.05584ZM8.19984 110.574L4.27984 105.71L5.99184 105.086L10.5198 110.574H8.19984ZM14.9776 110.734C14.2096 110.734 13.5163 110.564 12.8976 110.222C12.2896 109.87 11.8043 109.39 11.4416 108.782C11.0896 108.174 10.9136 107.492 10.9136 106.734C10.9136 105.977 11.0896 105.3 11.4416 104.702C11.7936 104.094 12.2683 103.614 12.8656 103.262C13.4736 102.91 14.1456 102.734 14.8816 102.734C15.5963 102.734 16.2256 102.9 16.7696 103.23C17.3243 103.561 17.7563 104.014 18.0656 104.59C18.3856 105.166 18.5456 105.822 18.5456 106.558C18.5456 106.686 18.5349 106.82 18.5136 106.958C18.5029 107.086 18.4816 107.23 18.4496 107.39H12.1456V105.95H17.5376L16.8816 106.526C16.8603 106.057 16.7696 105.662 16.6096 105.342C16.4496 105.022 16.2203 104.777 15.9216 104.606C15.6336 104.436 15.2763 104.35 14.8496 104.35C14.4016 104.35 14.0123 104.446 13.6816 104.638C13.3509 104.83 13.0949 105.102 12.9136 105.454C12.7323 105.796 12.6416 106.206 12.6416 106.686C12.6416 107.166 12.7376 107.588 12.9296 107.95C13.1216 108.313 13.3936 108.596 13.7456 108.798C14.0976 108.99 14.5029 109.086 14.9616 109.086C15.3563 109.086 15.7189 109.017 16.0496 108.878C16.3909 108.74 16.6789 108.537 16.9136 108.27L18.0336 109.406C17.6603 109.844 17.2069 110.174 16.6736 110.398C16.1403 110.622 15.5749 110.734 14.9776 110.734ZM22.4235 110.574L18.9195 102.894H20.8715L23.5435 109.15H22.3915L25.0795 102.894H26.9515L23.4475 110.574H22.4235ZM28.0037 110.574L28.0037 102.894H29.7637L29.7637 110.574H28.0037ZM28.8837 101.486C28.5851 101.486 28.3344 101.385 28.1317 101.182C27.9397 100.98 27.8437 100.729 27.8437 100.43C27.8437 100.132 27.9397 99.8809 28.1317 99.6782C28.3344 99.4756 28.5851 99.3742 28.8837 99.3742C29.1931 99.3742 29.4437 99.4756 29.6357 99.6782C29.8277 99.8809 29.9237 100.132 29.9237 100.43C29.9237 100.729 29.8277 100.98 29.6357 101.182C29.4437 101.385 29.1931 101.486 28.8837 101.486ZM35.3057 110.734C34.5377 110.734 33.8444 110.564 33.2257 110.222C32.6177 109.87 32.1324 109.39 31.7697 108.782C31.4177 108.174 31.2417 107.492 31.2417 106.734C31.2417 105.977 31.4177 105.3 31.7697 104.702C32.1217 104.094 32.5964 103.614 33.1937 103.262C33.8017 102.91 34.4737 102.734 35.2097 102.734C35.9244 102.734 36.5537 102.9 37.0977 103.23C37.6524 103.561 38.0844 104.014 38.3937 104.59C38.7137 105.166 38.8737 105.822 38.8737 106.558C38.8737 106.686 38.8631 106.82 38.8417 106.958C38.8311 107.086 38.8097 107.23 38.7777 107.39H32.4737V105.95H37.8657L37.2097 106.526C37.1884 106.057 37.0977 105.662 36.9377 105.342C36.7777 105.022 36.5484 104.777 36.2497 104.606C35.9617 104.436 35.6044 104.35 35.1777 104.35C34.7297 104.35 34.3404 104.446 34.0097 104.638C33.6791 104.83 33.4231 105.102 33.2417 105.454C33.0604 105.796 32.9697 106.206 32.9697 106.686C32.9697 107.166 33.0657 107.588 33.2577 107.95C33.4497 108.313 33.7217 108.596 34.0737 108.798C34.4257 108.99 34.8311 109.086 35.2897 109.086C35.6844 109.086 36.0471 109.017 36.3777 108.878C36.7191 108.74 37.0071 108.537 37.2417 108.27L38.3617 109.406C37.9884 109.844 37.5351 110.174 37.0017 110.398C36.4684 110.622 35.9031 110.734 35.3057 110.734ZM42.4308 110.574L39.3428 102.894H41.1668L43.2468 108.478L42.7028 108.494L44.7348 102.894H45.7588L47.7908 108.494L47.2468 108.478L49.3268 102.894L51.1508 102.894L48.0628 110.574H47.0388L44.9588 105.262H45.5348L43.4548 110.574H42.4308ZM56.9605 106.35V104.75H59.7605C60.1445 104.75 60.4805 104.676 60.7685 104.526C61.0671 104.366 61.3018 104.148 61.4725 103.87C61.6431 103.582 61.7285 103.246 61.7285 102.862C61.7285 102.478 61.6431 102.148 61.4725 101.87C61.3018 101.582 61.0671 101.364 60.7685 101.214C60.4805 101.054 60.1445 100.974 59.7605 100.974H56.9605V99.3742H59.8565C60.5605 99.3742 61.1898 99.5182 61.7445 99.8062C62.3098 100.094 62.7525 100.5 63.0725 101.022C63.4031 101.545 63.5685 102.158 63.5685 102.862C63.5685 103.566 63.4031 104.18 63.0725 104.702C62.7525 105.225 62.3098 105.63 61.7445 105.918C61.1898 106.206 60.5605 106.35 59.8565 106.35H56.9605ZM55.6965 110.574V99.3742H57.5365V110.574L55.6965 110.574ZM65.1127 110.574V102.894H66.8727V110.574H65.1127ZM66.8727 106.302L66.2647 105.998C66.2647 105.028 66.4781 104.244 66.9047 103.646C67.3421 103.038 67.9981 102.734 68.8727 102.734C69.2567 102.734 69.6034 102.804 69.9127 102.942C70.2221 103.081 70.5101 103.305 70.7767 103.614L69.6247 104.798C69.4861 104.649 69.3314 104.542 69.1607 104.478C68.9901 104.414 68.7927 104.382 68.5687 104.382C68.0781 104.382 67.6727 104.537 67.3527 104.846C67.0327 105.156 66.8727 105.641 66.8727 106.302ZM74.914 110.734C74.1673 110.734 73.49 110.558 72.882 110.206C72.274 109.844 71.7886 109.358 71.426 108.75C71.074 108.142 70.898 107.465 70.898 106.718C70.898 105.972 71.074 105.3 71.426 104.702C71.7886 104.105 72.274 103.63 72.882 103.278C73.49 102.916 74.1673 102.734 74.914 102.734C75.6713 102.734 76.354 102.91 76.962 103.262C77.57 103.614 78.05 104.094 78.402 104.702C78.7646 105.3 78.946 105.972 78.946 106.718C78.946 107.465 78.7646 108.142 78.402 108.75C78.05 109.358 77.57 109.844 76.962 110.206C76.354 110.558 75.6713 110.734 74.914 110.734ZM74.914 109.038C75.3513 109.038 75.7353 108.942 76.066 108.75C76.4073 108.548 76.6686 108.27 76.85 107.918C77.042 107.566 77.138 107.166 77.138 106.718C77.138 106.27 77.042 105.876 76.85 105.534C76.658 105.193 76.3966 104.926 76.066 104.734C75.7353 104.532 75.3513 104.43 74.914 104.43C74.4873 104.43 74.1033 104.532 73.762 104.734C73.4313 104.926 73.17 105.193 72.978 105.534C72.7966 105.876 72.706 106.27 72.706 106.718C72.706 107.166 72.7966 107.566 72.978 107.918C73.17 108.27 73.4313 108.548 73.762 108.75C74.1033 108.942 74.4873 109.038 74.914 109.038ZM81.2468 110.574V101.566C81.2468 101.054 81.3588 100.601 81.5828 100.206C81.8175 99.8009 82.1375 99.4809 82.5428 99.2462C82.9482 99.0116 83.4228 98.8942 83.9668 98.8942C84.3722 98.8942 84.7242 98.9636 85.0228 99.1022C85.3322 99.2302 85.6202 99.4169 85.8868 99.6622L84.7348 100.814C84.6282 100.729 84.5108 100.665 84.3828 100.622C84.2655 100.569 84.1268 100.542 83.9668 100.542C83.6575 100.542 83.4175 100.633 83.2468 100.814C83.0868 100.996 83.0068 101.241 83.0068 101.55V110.574H81.2468ZM79.4068 104.494V102.894H86.8948V104.494H79.4068ZM85.8868 110.574V102.894H87.6468V110.574H85.8868ZM86.7668 102.222C86.4682 102.222 86.2175 102.121 86.0148 101.918C85.8228 101.716 85.7268 101.465 85.7268 101.166C85.7268 100.868 85.8228 100.617 86.0148 100.414C86.2175 100.212 86.4682 100.11 86.7668 100.11C87.0762 100.11 87.3268 100.212 87.5188 100.414C87.7108 100.617 87.8068 100.868 87.8068 101.166C87.8068 101.465 87.7108 101.716 87.5188 101.918C87.3268 102.121 87.0762 102.222 86.7668 102.222ZM89.6127 110.574V99.0542H91.3727V110.574H89.6127ZM96.8995 110.734C96.1315 110.734 95.4381 110.564 94.8195 110.222C94.2115 109.87 93.7261 109.39 93.3635 108.782C93.0115 108.174 92.8355 107.492 92.8355 106.734C92.8355 105.977 93.0115 105.3 93.3635 104.702C93.7155 104.094 94.1901 103.614 94.7875 103.262C95.3955 102.91 96.0675 102.734 96.8035 102.734C97.5181 102.734 98.1475 102.9 98.6915 103.23C99.2461 103.561 99.6781 104.014 99.9875 104.59C100.307 105.166 100.467 105.822 100.467 106.558C100.467 106.686 100.457 106.82 100.435 106.958C100.425 107.086 100.403 107.23 100.371 107.39H94.0675V105.95H99.4595L98.8035 106.526C98.7821 106.057 98.6915 105.662 98.5315 105.342C98.3715 105.022 98.1421 104.777 97.8435 104.606C97.5555 104.436 97.1981 104.35 96.7715 104.35C96.3235 104.35 95.9341 104.446 95.6035 104.638C95.2728 104.83 95.0168 105.102 94.8355 105.454C94.6541 105.796 94.5635 106.206 94.5635 106.686C94.5635 107.166 94.6595 107.588 94.8515 107.95C95.0435 108.313 95.3155 108.596 95.6675 108.798C96.0195 108.99 96.4248 109.086 96.8835 109.086C97.2781 109.086 97.6408 109.017 97.9715 108.878C98.3128 108.74 98.6008 108.537 98.8355 108.27L99.9555 109.406C99.5821 109.844 99.1288 110.174 98.5955 110.398C98.0621 110.622 97.4968 110.734 96.8995 110.734ZM112.537 110.574L107.225 104.766C106.831 104.329 106.532 103.913 106.329 103.518C106.137 103.124 106.041 102.686 106.041 102.206C106.041 101.641 106.18 101.134 106.457 100.686C106.735 100.228 107.113 99.8649 107.593 99.5982C108.073 99.3316 108.623 99.1982 109.241 99.1982C109.711 99.1982 110.137 99.2782 110.521 99.4382C110.905 99.5876 111.241 99.7902 111.529 100.046C111.828 100.292 112.073 100.564 112.265 100.862L111.001 101.982C110.767 101.662 110.511 101.401 110.233 101.198C109.967 100.996 109.636 100.894 109.241 100.894C108.836 100.894 108.495 101.017 108.217 101.262C107.94 101.497 107.801 101.796 107.801 102.158C107.801 102.521 107.876 102.82 108.025 103.054C108.175 103.289 108.383 103.561 108.649 103.87L114.649 110.574H112.537ZM108.713 110.734C107.945 110.734 107.273 110.59 106.697 110.302C106.132 110.004 105.689 109.598 105.369 109.086C105.06 108.564 104.905 107.972 104.905 107.31C104.905 106.638 105.087 106.036 105.449 105.502C105.823 104.969 106.367 104.537 107.081 104.206L107.897 105.278C107.503 105.492 107.199 105.758 106.985 106.078C106.772 106.388 106.665 106.782 106.665 107.262C106.665 107.646 106.751 107.972 106.921 108.238C107.103 108.505 107.353 108.713 107.673 108.862C107.993 109.001 108.361 109.07 108.777 109.07C109.321 109.07 109.769 108.958 110.121 108.734C110.484 108.51 110.756 108.244 110.937 107.934L112.089 109.278C111.865 109.556 111.577 109.806 111.225 110.03C110.873 110.244 110.484 110.414 110.057 110.542C109.631 110.67 109.183 110.734 108.713 110.734ZM118.618 110.574V99.3742H119.898L124.554 107.038H123.722L128.378 99.3742H129.658V110.574H127.818V102.606L128.234 102.718L124.778 108.398H123.498L120.042 102.718L120.458 102.606V110.574H118.618ZM135.415 110.734C134.647 110.734 133.954 110.564 133.335 110.222C132.727 109.87 132.242 109.39 131.879 108.782C131.527 108.174 131.351 107.492 131.351 106.734C131.351 105.977 131.527 105.3 131.879 104.702C132.231 104.094 132.706 103.614 133.303 103.262C133.911 102.91 134.583 102.734 135.319 102.734C136.034 102.734 136.663 102.9 137.207 103.23C137.762 103.561 138.194 104.014 138.503 104.59C138.823 105.166 138.983 105.822 138.983 106.558C138.983 106.686 138.972 106.82 138.951 106.958C138.94 107.086 138.919 107.23 138.887 107.39H132.583V105.95H137.975L137.319 106.526C137.298 106.057 137.207 105.662 137.047 105.342C136.887 105.022 136.658 104.777 136.359 104.606C136.071 104.436 135.714 104.35 135.287 104.35C134.839 104.35 134.45 104.446 134.119 104.638C133.788 104.83 133.532 105.102 133.351 105.454C133.17 105.796 133.079 106.206 133.079 106.686C133.079 107.166 133.175 107.588 133.367 107.95C133.559 108.313 133.831 108.596 134.183 108.798C134.535 108.99 134.94 109.086 135.399 109.086C135.794 109.086 136.156 109.017 136.487 108.878C136.828 108.74 137.116 108.537 137.351 108.27L138.471 109.406C138.098 109.844 137.644 110.174 137.111 110.398C136.578 110.622 136.012 110.734 135.415 110.734ZM143.962 110.734C143.194 110.734 142.501 110.564 141.882 110.222C141.274 109.87 140.789 109.39 140.426 108.782C140.074 108.174 139.898 107.492 139.898 106.734C139.898 105.977 140.074 105.3 140.426 104.702C140.778 104.094 141.253 103.614 141.85 103.262C142.458 102.91 143.13 102.734 143.866 102.734C144.581 102.734 145.21 102.9 145.754 103.23C146.309 103.561 146.741 104.014 147.05 104.59C147.37 105.166 147.53 105.822 147.53 106.558C147.53 106.686 147.519 106.82 147.498 106.958C147.487 107.086 147.466 107.23 147.434 107.39H141.13V105.95H146.522L145.866 106.526C145.845 106.057 145.754 105.662 145.594 105.342C145.434 105.022 145.205 104.777 144.906 104.606C144.618 104.436 144.261 104.35 143.834 104.35C143.386 104.35 142.997 104.446 142.666 104.638C142.335 104.83 142.079 105.102 141.898 105.454C141.717 105.796 141.626 106.206 141.626 106.686C141.626 107.166 141.722 107.588 141.914 107.95C142.106 108.313 142.378 108.596 142.73 108.798C143.082 108.99 143.487 109.086 143.946 109.086C144.341 109.086 144.703 109.017 145.034 108.878C145.375 108.74 145.663 108.537 145.898 108.27L147.018 109.406C146.645 109.844 146.191 110.174 145.658 110.398C145.125 110.622 144.559 110.734 143.962 110.734ZM149.921 110.574V99.6942H151.681V110.574H149.921ZM148.081 104.494V102.894H153.521V104.494H148.081Z" fill="#E49B00"/>
<path fill-rule="evenodd" clip-rule="evenodd" d="M13.7999 31.166C13.1577 31.3987 12.7137 31.7324 12.3507 32.2556C11.8981 32.9079 11.7641 33.5435 11.7641 35.0388V36.3621L9.45287 36.395C7.27683 36.4258 7.11708 36.4415 6.72194 36.6619C6.06366 37.0291 5.63213 37.482 5.33143 38.1211L5.05408 38.7107L5.02704 47.5654L5 56.42L5.34017 56.7751C5.8383 57.2951 6.48038 57.225 6.82701 56.6124C6.97781 56.3459 6.99253 55.5625 6.99253 47.7956C6.99253 38.5395 6.97463 38.8425 7.53649 38.5753C7.735 38.4809 11.4487 38.4513 23.1062 38.4513C39.752 38.4513 38.8196 38.4182 39.0818 39.0192C39.2541 39.4139 39.2541 81.0729 39.0818 81.4676C38.8195 82.0687 39.7529 82.0355 23.0966 82.0355C6.44022 82.0355 7.37366 82.0687 7.11132 81.4676C7.02225 81.2637 6.99253 79.0625 6.99253 72.6859C6.99253 63.446 7.01032 63.7478 6.44857 63.4806C5.9236 63.2308 5.31592 63.4445 5.11561 63.9495C5.03002 64.1649 5.00696 66.5234 5.02704 73.0085C5.05378 81.674 5.05656 81.7815 5.26343 82.2483C5.56941 82.9387 6.03632 83.4415 6.67621 83.7695L7.24105 84.059H23.0966H38.9521L39.5169 83.7695C40.1578 83.4409 40.6252 82.937 40.928 82.2483C41.1015 81.8537 41.1414 81.5255 41.1712 80.2523L41.2067 78.7284L43.5089 78.6957C45.6757 78.6649 45.8359 78.6491 46.2309 78.4288C46.8892 78.0615 47.3207 77.6087 47.6214 76.9695L47.8988 76.3799V54.8473V33.3146L47.6894 32.8423C47.3834 32.152 46.9165 31.6492 46.2766 31.3212L45.7118 31.0316L30.0054 31.0084C15.2959 30.9867 14.2673 30.9967 13.7999 31.166ZM45.4489 33.2031C45.5996 33.2844 45.7762 33.4734 45.8415 33.623C46.0138 34.0178 46.0138 75.6767 45.8415 76.0715C45.6187 76.5823 45.3514 76.6393 43.1829 76.6393H41.1908L41.165 57.675L41.1391 38.7107L40.9297 38.2385C40.6362 37.576 40.1492 37.0323 39.5575 36.7065L39.0515 36.4278L26.4019 36.4003L13.7522 36.3728L13.7557 35.1031C13.7595 33.7428 13.8387 33.4438 14.2602 33.2C14.6282 32.987 45.0542 32.99 45.4489 33.2031ZM21.4066 42.658C16.964 43.3912 13.5089 46.9101 12.5458 51.6822C12.3838 52.4852 12.3838 54.9263 12.5458 55.7293C13.294 59.4365 15.4542 62.321 18.642 63.8691C22.5748 65.7789 27.275 64.9669 30.4639 61.8265C30.8446 61.4516 31.3803 60.837 31.6543 60.4606C32.3483 59.5074 33.1841 57.6942 33.5003 56.4557C33.7365 55.5309 33.7653 55.2317 33.7653 53.7058C33.7653 52.1883 33.7358 51.8781 33.5057 50.979C33.0285 49.113 32.1117 47.3827 30.8758 46.015C28.46 43.3418 24.9034 42.0808 21.4066 42.658ZM25.2338 44.8699C28.3857 45.7492 30.7303 48.1788 31.5552 51.4206C32.1612 53.8025 31.7321 56.5798 30.4412 58.6295L30.006 59.3204L29.7088 58.9258C28.7961 57.7144 27.6341 56.7025 26.6016 56.2198L26.2041 56.0341L26.5838 55.3787C27.0712 54.5372 27.207 53.8351 27.152 52.4418C27.1115 51.4151 27.0799 51.27 26.7409 50.5542C25.0078 46.8934 19.9101 47.6119 19.1101 51.6299C19.0461 51.9514 19.018 52.6304 19.0455 53.1865C19.0991 54.2674 19.3239 55.0292 19.7691 55.6385C19.9153 55.8386 20.0193 56.0132 20.0001 56.0265C19.9809 56.0398 19.6604 56.2086 19.2881 56.4017C18.259 56.9351 16.8288 58.2843 16.3546 59.1687C16.2619 59.3418 16.2404 59.3368 16.0501 59.0987C15.6764 58.6312 14.8444 56.7795 14.6295 55.9369C14.3289 54.7583 14.3295 52.649 14.6308 51.4747C15.0943 49.6678 16.2406 47.7869 17.5547 46.6767C18.7147 45.6967 20.3889 44.9124 21.8356 44.6712C22.6099 44.5421 24.4428 44.6493 25.2338 44.8699ZM24.1674 50.5581C24.401 50.6975 24.7141 51.004 24.8632 51.239C25.1006 51.6132 25.1387 51.7874 25.169 52.6384C25.2002 53.5164 25.1786 53.6637 24.9441 54.1639C24.591 54.9174 24.0535 55.2897 23.2375 55.3462C22.7697 55.3786 22.5448 55.3408 22.2434 55.179C21.3649 54.7075 21.009 54.0204 21.009 52.7955C21.009 52.1261 21.055 51.8859 21.2698 51.4362C21.8218 50.2798 23.0685 49.902 24.1674 50.5581ZM24.2397 57.5967C25.1867 57.7728 26.4015 58.373 27.1136 59.0166C27.6212 59.4754 28.4646 60.5909 28.4646 60.8036C28.4646 60.9835 27.2793 61.7656 26.4948 62.1034C25.2197 62.6522 24.5623 62.78 23.0469 62.7732C21.834 62.768 21.5428 62.7315 20.7807 62.4902C19.5478 62.0997 17.727 61.1004 17.7295 60.8158C17.73 60.7578 17.9618 60.3889 18.2446 59.9959C18.8202 59.1956 19.6697 58.4864 20.5617 58.0613C21.0792 57.8146 21.3771 57.7271 22.4504 57.5065C22.8591 57.4225 23.4682 57.4532 24.2397 57.5967ZM5.51235 59.3505C4.92584 59.6899 4.84801 60.4122 5.34236 60.9283C5.8383 61.446 6.48107 61.3746 6.82701 60.7633C7.34433 59.8491 6.40165 58.8359 5.51235 59.3505ZM12.2003 67.1933C12.0849 67.2424 11.8947 67.4096 11.7778 67.5647C11.575 67.8338 11.5653 67.9537 11.5653 70.1728C11.5653 72.6359 11.6189 72.9671 12.0568 73.2118C12.3224 73.3601 33.8708 73.3601 34.1363 73.2118C34.5747 72.9669 34.6279 72.6369 34.6279 70.1603V67.8221L34.3378 67.4831L34.0477 67.1442L23.229 67.1241C17.2786 67.1131 12.3158 67.1442 12.2003 67.1933ZM32.6397 70.2055V71.2432H23.0966H13.5534V70.2055V69.1678H23.0966H32.6397V70.2055ZM16.8704 76.0968C16.3618 76.5268 16.3062 77.1067 16.7263 77.5976L17.0164 77.9365H23.0966H29.1767L29.478 77.5845C29.7397 77.2788 29.7721 77.1766 29.7245 76.8064C29.6881 76.5228 29.5827 76.3021 29.4095 76.1466L29.1493 75.9129L23.1159 75.9152C17.5493 75.9174 17.066 75.9314 16.8704 76.0968Z" fill="#E49B00"/>
</svg>
