<svg width="71" height="71" viewBox="0 0 71 71" fill="none" xmlns="http://www.w3.org/2000/svg">
<path fill-rule="evenodd" clip-rule="evenodd" d="M13.3858 0.136182C13.2322 0.214545 12.9723 0.478481 12.8081 0.722862C12.2879 1.49733 7.87747 9.03998 7.70471 9.45052C7.13811 10.7974 8.82028 12.0099 9.82664 10.9798C10.3892 10.4039 15.2646 2.01536 15.3529 1.47126C15.5008 0.560589 14.2365 -0.297655 13.3858 0.136182ZM57.2052 0.130912C56.7467 0.315099 56.4033 0.976396 56.2129 2.0413C56.0505 2.94878 56.0218 2.99649 55.4489 3.30924L54.8538 3.63435L53.9726 3.33684C52.9024 2.97568 52.1636 2.95724 51.7778 3.2822C51.6192 3.41562 50.9433 4.46111 50.2757 5.60534C48.6747 8.3497 48.6607 8.54179 49.9753 9.74968C50.8538 10.5567 50.8989 10.6289 50.896 11.2225C50.8931 11.8129 50.8432 11.8925 49.9724 12.6947C48.6643 13.8996 48.6789 14.0929 50.2832 16.8396C50.9515 17.9839 51.6347 19.0278 51.8015 19.1597C52.203 19.4771 52.7043 19.4658 53.8896 19.1131L54.8721 18.8207L55.4549 19.1389C56.0085 19.4411 56.0464 19.5031 56.2062 20.3675C56.5742 22.3584 56.7537 22.4568 60.0145 22.4568C63.2753 22.4568 63.4547 22.3584 63.8228 20.3675C63.9826 19.5031 64.0205 19.4411 64.5741 19.1389L65.1569 18.8207L66.1394 19.1131C67.3246 19.4658 67.826 19.4771 68.2275 19.1597C68.3943 19.0278 69.0774 17.9839 69.7458 16.8396C71.3501 14.0929 71.3647 13.8996 70.0566 12.6947C69.1858 11.8925 69.1359 11.8129 69.133 11.2225C69.13 10.6289 69.1751 10.5567 70.0537 9.74968C71.3683 8.54179 71.3543 8.3497 69.7533 5.60534C69.0856 4.46111 68.4098 3.41576 68.2512 3.2822C67.8654 2.95724 67.1266 2.97568 66.0564 3.33684L65.1752 3.63435L64.58 3.30924C64.0072 2.99649 63.9785 2.94878 63.8161 2.0413C63.6196 0.942 63.2802 0.313157 62.7807 0.123422C62.3363 -0.0455081 57.6285 -0.0391281 57.2052 0.130912ZM4.43958 0.835066C4.25015 0.911348 3.20951 1.85988 2.12697 2.94281C-0.021893 5.09258 -0.253085 5.49383 0.182655 6.31671C0.428278 6.78064 3.94583 10.2873 4.39309 10.514C4.87865 10.7602 5.35629 10.6936 5.80383 10.3172C6.29216 9.90655 6.45175 9.34941 6.24026 8.79338C6.15728 8.57521 5.4859 7.78285 4.74834 7.03251L3.40754 5.66845L4.74779 4.31936C6.14021 2.91757 6.448 2.41771 6.30881 1.78457C6.1427 1.02868 5.17645 0.537843 4.43958 0.835066ZM17.3721 0.890683C16.8351 1.12383 16.4975 1.80232 16.6145 2.41341C16.6679 2.69302 17.1584 3.30397 18.1236 4.29315L19.5536 5.75874L18.2253 7.06899C16.6698 8.60337 16.4123 9.05607 16.7016 9.74802C17.0538 10.5907 17.7885 10.8764 18.5638 10.4724C18.7698 10.3651 19.8282 9.3734 20.9159 8.2687C22.8304 6.32419 22.8934 6.24153 22.8934 5.67469C22.8934 5.10798 22.8305 5.02546 20.9337 3.1012C19.2149 1.35767 18.3613 0.667939 17.9461 0.687079C17.8813 0.69013 17.623 0.781668 17.3721 0.890683ZM61.3306 3.65196C61.5267 4.69023 61.7547 4.97566 62.8313 5.53017C63.2664 5.7543 63.8099 6.06525 64.0388 6.22128C64.5338 6.55859 65.1081 6.58245 65.9122 6.29881C66.2367 6.18439 66.5747 6.09077 66.6634 6.09077C66.7519 6.09077 67.0646 6.50783 67.3579 7.01767L67.8912 7.94457L67.3178 8.47924C66.3766 9.35676 66.3448 9.44788 66.3437 11.2748L66.3426 12.9222L67.1132 13.7295L67.8837 14.537L67.3604 15.4109C67.0728 15.8915 66.8212 16.3062 66.8013 16.3324C66.7816 16.3585 66.4233 16.2804 66.0052 16.1591C64.9279 15.846 64.5302 15.881 63.7828 16.3548C63.4213 16.5839 62.8315 16.9217 62.472 17.1058C61.6901 17.5058 61.543 17.7255 61.3138 18.8349L61.1385 19.6829H60.0145H58.8904L58.7152 18.8349C58.4859 17.7255 58.3388 17.5058 57.557 17.1058C57.1974 16.9217 56.6077 16.5839 56.2462 16.3548C55.4988 15.881 55.101 15.846 54.0238 16.1591C53.6057 16.2804 53.2473 16.3585 53.2276 16.3324C53.2078 16.3062 52.9562 15.8915 52.6685 15.4109L52.1452 14.537L52.9229 13.7222L53.7004 12.9074V11.2637C53.7004 9.44469 53.6773 9.37992 52.6984 8.46731L52.1377 7.94457L52.671 7.01767C52.9644 6.50783 53.2771 6.09077 53.3656 6.09077C53.4543 6.09077 53.7923 6.18439 54.1167 6.29881C54.9209 6.58245 55.4952 6.55859 55.9902 6.22128C56.2191 6.06525 56.7625 5.7543 57.1977 5.53017C58.2743 4.97566 58.5023 4.69023 58.6984 3.65196L58.8663 2.76209H60.0145H61.1627L61.3306 3.65196ZM59.3588 10.0518C58.8803 10.3113 58.6962 10.6551 58.6962 11.2891C58.6962 12.1917 59.6602 12.8184 60.5084 12.4673C61.0528 12.242 61.3328 11.8291 61.3328 11.2519C61.3328 10.6426 61.1373 10.3011 60.6417 10.045C60.1409 9.78616 59.8456 9.78769 59.3588 10.0518ZM33.8647 10.5323C29.0709 11.199 25.0782 14.636 23.6372 19.3361L23.2545 20.5844L23.203 25.9942C23.1557 30.9507 23.1743 31.5159 23.4242 32.7389C23.8966 35.0497 25.0861 37.2408 26.796 38.9498C31.6418 43.7929 39.4013 43.7929 44.247 38.9498C45.9569 37.2408 47.1464 35.0497 47.6188 32.7389C47.8687 31.5159 47.8873 30.9507 47.84 25.9942L47.7885 20.5844L47.4058 19.3361C45.8384 14.2237 41.3944 10.7361 36.1149 10.4752C35.3687 10.4383 34.3561 10.464 33.8647 10.5323ZM38.1572 13.5876C40.8002 14.324 42.8468 16.0549 44.1336 18.6427C44.7917 19.9661 45.091 21.2779 45.0943 22.8536L45.0967 24.0133L44.5804 23.9165C42.7942 23.5816 41.4033 22.7742 39.565 21.0052C37.9768 19.4768 37.6811 19.2668 37.1174 19.2668C36.566 19.2668 36.2734 19.4776 35.6457 20.3267C34.4059 22.0041 32.9672 23.0712 31.1611 23.6532C30.2335 23.9519 29.6869 24.0268 27.9932 24.0866L25.9464 24.1588L25.9487 22.9264C25.9532 20.6962 26.5221 18.9271 27.82 17.1094C29.2227 15.1446 31.4737 13.7639 34.0118 13.3114C35.0672 13.1232 36.9371 13.2478 38.1572 13.5876ZM0.674596 16.5622C-0.0858663 16.9753 -0.175928 18.0943 0.5003 18.7292L0.85125 19.0587H6.79604H12.7408L13.0872 18.7335C13.531 18.3167 13.6484 17.8355 13.4516 17.2393C13.1598 16.3557 13.1438 16.3535 6.76828 16.3597C2.0888 16.3643 0.970593 16.4015 0.674596 16.5622ZM16.1957 16.6308C15.3933 17.2615 15.4853 18.4428 16.3712 18.8851C17.0075 19.2029 20.1476 19.2353 20.8746 18.9318C21.7583 18.5628 21.9427 17.4631 21.2388 16.7596L20.8332 16.3542H18.6903C16.7596 16.3542 16.5126 16.3817 16.1957 16.6308ZM38.3331 23.6957C39.5328 24.7601 40.327 25.3006 41.4173 25.7946C42.4337 26.2552 44.1505 26.7563 44.7123 26.7563H45.0967V29.0919C45.0967 31.8043 44.8741 32.9601 44.024 34.6619C43.3608 35.9898 41.5554 37.8605 40.2397 38.5835C38.5772 39.4971 37.6375 39.7243 35.5215 39.7243C33.4055 39.7243 32.4658 39.4971 30.8033 38.5835C29.4876 37.8605 27.6822 35.9898 27.019 34.6619C26.1774 32.9771 25.9464 31.7965 25.9464 29.181V26.9344L28.132 26.8551C30.7249 26.761 31.6099 26.5623 33.5093 25.6479C34.729 25.0608 36.7724 23.5695 37.1136 23.0177C37.261 22.7792 37.3656 22.8374 38.3331 23.6957ZM0.674596 23.2196C-0.0858663 23.6326 -0.175928 24.7516 0.5003 25.3866C0.82308 25.6896 0.966707 25.7161 2.286 25.7161C3.60001 25.7161 3.74989 25.6888 4.06712 25.3909C4.25765 25.2121 4.45276 24.9093 4.50077 24.7181C4.63483 24.1842 4.33036 23.4514 3.87714 23.2172C3.34787 22.9436 1.17972 22.9453 0.674596 23.2196ZM7.19681 23.2196C6.43634 23.6326 6.34628 24.7516 7.02251 25.3866L7.37318 25.7161L13.3786 25.7549C17.0874 25.7789 19.5216 25.7416 19.7437 25.6572C20.2257 25.4741 20.5898 24.8871 20.5898 24.2936C20.5898 23.9225 20.4849 23.7149 20.1435 23.41L19.6972 23.0116L13.6283 23.0171C8.65709 23.0217 7.49377 23.0583 7.19681 23.2196ZM0.674596 29.877C-0.0858663 30.29 -0.175928 31.409 0.5003 32.0439L0.85125 32.3735H4.85325H8.85525L9.2062 32.0439C9.89422 31.398 9.78973 30.2767 9.00373 29.8704C8.4406 29.5795 1.21191 29.585 0.674596 29.877ZM12.5009 29.8625C11.7241 30.2928 11.5846 31.2356 12.1964 31.9205L12.6012 32.3735L15.986 32.4148C18.0224 32.4398 19.5167 32.4008 19.7371 32.317C20.2251 32.1316 20.5898 31.5473 20.5898 30.951C20.5898 30.5799 20.4849 30.3722 20.1435 30.0674L19.6972 29.6689L16.2649 29.6738C13.6829 29.6775 12.7504 29.7242 12.5009 29.8625ZM31.1502 29.8299C30.1381 30.3862 30.1412 31.747 31.1558 32.2281C31.7195 32.4955 31.8258 32.4952 32.3476 32.2256C32.8381 31.9721 33.1684 31.2882 33.0639 30.7423C32.9115 29.9456 31.8556 29.4421 31.1502 29.8299ZM38.4628 30.0141C37.9698 30.4287 37.8404 30.9685 38.0904 31.5667C38.2604 31.9735 38.8952 32.4428 39.2751 32.4428C39.3628 32.4428 39.6383 32.3461 39.8872 32.2281C40.914 31.7411 40.9025 30.353 39.8672 29.8238C39.3846 29.5772 38.9052 29.6421 38.4628 30.0141ZM51.827 36.2099C50.8064 36.7708 50.8207 38.1404 51.8526 38.6679C52.0351 38.7611 52.9641 38.8228 54.1861 38.8228C56.2867 38.8228 56.6303 38.7504 57.0626 38.2171C57.5533 37.6116 57.2784 36.5916 56.5197 36.2038C56.1185 35.9988 52.2019 36.0038 51.827 36.2099ZM60.8471 36.2099C59.8265 36.7708 59.8407 38.1404 60.8726 38.6679C61.0773 38.7724 62.621 38.8228 65.6233 38.8228H70.0709L70.5209 38.4208C70.8934 38.0882 70.9711 37.9185 70.9711 37.4358C70.9711 36.9532 70.8934 36.7834 70.5209 36.4508L70.0709 36.0489L65.5978 36.053C62.6134 36.056 61.0322 36.1081 60.8471 36.2099ZM21.1588 42.9094C18.8859 43.3897 17.1355 44.5717 15.8619 46.4864C15.5058 47.0219 15.094 47.4915 14.9469 47.5299C14.7998 47.5685 14.2014 47.8312 13.6172 48.1138C11.5128 49.132 9.71688 50.9174 8.67596 53.026C7.57024 55.2658 7.58217 55.172 7.52361 62.0888L7.47171 68.2261H5.94107C4.76208 68.2261 4.32051 68.2792 4.01924 68.457C3.11029 68.9936 3.11029 70.2325 4.01924 70.7691C4.38101 70.9827 6.744 71 35.5215 71C64.299 71 66.662 70.9827 67.0238 70.7691C67.9327 70.2325 67.9327 68.9936 67.0238 68.457C66.7225 68.2792 66.2809 68.2261 65.102 68.2261H63.5713L63.5194 62.0888C63.4609 55.172 63.4728 55.2658 62.3671 53.026C61.3261 50.9174 59.5302 49.132 57.4259 48.1138C56.8416 47.8312 56.2433 47.5685 56.0962 47.5299C55.9491 47.4915 55.5372 47.0219 55.1811 46.4864C53.8729 44.5197 51.963 43.2729 49.6159 42.8534C48.3488 42.6269 22.2526 42.6782 21.1588 42.9094ZM57.3779 42.8373C56.4946 43.1987 56.2596 44.356 56.933 45.0294L57.3143 45.4108L61.0222 45.4521C63.0616 45.4749 64.8766 45.4567 65.0555 45.4118C66.2475 45.1127 66.3836 43.4344 65.2622 42.8612C64.9055 42.6789 57.8176 42.6574 57.3779 42.8373ZM68.7971 43.1082C67.8627 43.9426 68.4113 45.4045 69.659 45.4045C70.9067 45.4045 71.4554 43.9426 70.5209 43.1082C70.2387 42.856 69.9174 42.7062 69.659 42.7062C69.4006 42.7062 69.0794 42.856 68.7971 43.1082ZM49.5901 45.6897C51.5764 46.2068 53.1122 47.7417 53.6295 49.727C53.806 50.4039 53.8392 51.9337 53.8392 59.3787V68.2261H38.2969H22.7546V64.8883C22.7546 62.7033 22.7011 61.4459 22.5996 61.2475C22.0656 60.2041 20.6682 60.2041 20.1342 61.2475C20.0328 61.4459 19.9792 62.7033 19.9792 64.8883V68.2261H18.5915H17.2038V59.3787C17.2038 51.9337 17.237 50.4039 17.4135 49.727C17.9228 47.7728 19.4588 46.2169 21.3925 45.6968C22.5273 45.3915 48.4198 45.385 49.5901 45.6897ZM14.4284 59.5577V68.2261H12.3469H10.2653L10.2702 62.6436C10.2738 58.5363 10.3239 56.8338 10.4597 56.2011C10.7311 54.9369 11.5029 53.4311 12.3589 52.4953C13.0884 51.6978 14.0709 50.8892 14.3105 50.8892C14.3754 50.8892 14.4284 54.79 14.4284 59.5577ZM57.3917 51.2817C58.3248 51.9583 59.4149 53.2735 59.9169 54.3287C60.7226 56.0216 60.7675 56.4574 60.7729 62.6436L60.7777 68.2261H58.6962H56.6146V59.5577C56.6146 54.79 56.6676 50.8892 56.7326 50.8892C56.7974 50.8892 57.0941 51.0658 57.3917 51.2817ZM34.1338 51.7938C31.4342 52.538 29.7598 55.4003 30.4427 58.1035C31.333 61.6277 35.4528 63.2167 38.4307 61.1847C41.4329 59.136 41.54 54.8498 38.6438 52.6641C37.3928 51.7199 35.6332 51.3804 34.1338 51.7938ZM36.6358 54.6687C38.4569 55.5881 38.4569 58.1182 36.6358 59.0376C36.2959 59.2093 35.7945 59.3496 35.5215 59.3496C35.2486 59.3496 34.7472 59.2093 34.4072 59.0376C32.5861 58.1182 32.5861 55.5881 34.4072 54.6687C34.7472 54.497 35.2486 54.3566 35.5215 54.3566C35.7945 54.3566 36.2959 54.497 36.6358 54.6687ZM20.8657 55.5968C20.4258 55.7824 19.9792 56.4236 19.9792 56.8696C19.9792 57.1097 20.1371 57.4415 20.3814 57.7146C21.2162 58.6485 22.679 58.1001 22.679 56.8531C22.679 55.9319 21.6922 55.2483 20.8657 55.5968Z" fill="#E49B00"/>
</svg>
