<svg width="71" height="71" viewBox="0 0 71 71" fill="none" xmlns="http://www.w3.org/2000/svg">
<path fill-rule="evenodd" clip-rule="evenodd" d="M31.4153 2.5138L27.3942 5.02203L24.621 4.94282C23.0957 4.89925 20.943 4.82896 19.8372 4.78664L17.8266 4.70967L15.5531 8.94661L13.2796 13.1834L9.07919 15.4629L4.87874 17.7425L4.96111 21.1009L5.04333 24.4595L3.67004 24.5196C2.61594 24.5657 2.16266 24.6496 1.72074 24.8806C1.01732 25.2482 0.378925 25.9997 0.166913 26.7099C-0.0556376 27.4556 -0.0556376 43.525 0.166913 44.2707C0.378925 44.9809 1.01732 45.7325 1.72074 46.1001C2.16266 46.331 2.61594 46.4149 3.67004 46.461L5.04333 46.5212L4.96083 49.8809L4.87833 53.2406L9.07586 55.5131L13.2734 57.7856L15.5501 62.0283L17.8266 66.271L19.8372 66.194C20.943 66.1517 23.0957 66.0814 24.621 66.0378L27.3942 65.9588L31.4481 68.4794L35.5018 71L39.5947 68.4721L43.6875 65.9443L46.5644 66.0314C48.1467 66.0793 50.2836 66.1536 51.3132 66.1965L53.1851 66.2746L55.4566 62.0395L57.7282 57.8044L61.9308 55.525L66.1335 53.2454L66.051 49.8834L65.9683 46.5212L67.3416 46.461C69.2876 46.3758 70.091 45.9179 70.714 44.5383C70.9886 43.9304 70.997 43.6655 70.9999 35.5761C71.002 29.7246 70.9558 27.0823 70.8448 26.7099C70.6328 25.9997 69.9944 25.2482 69.2909 24.8806C68.849 24.6496 68.3957 24.5657 67.3416 24.5196L65.9683 24.4595L66.0508 21.0984L66.1335 17.7372L61.9318 15.4585L57.7301 13.1798L55.4576 8.94285L53.1851 4.70605L51.3132 4.78414C50.2836 4.82701 48.1457 4.90134 46.5622 4.94937L43.6832 5.03651L39.6098 2.51547C37.3694 1.12905 35.5139 -0.00291753 35.4864 5.64889e-06C35.459 0.00306803 33.627 1.1342 31.4153 2.5138ZM39.3374 4.80724L43.0628 7.11433L46.8067 7.03081C48.8658 6.98487 50.8625 6.91541 51.2438 6.87644L51.9371 6.80559L54.0636 10.7593L56.19 14.7128L60.1402 16.8541L64.0903 18.9952L64.0124 19.4824C63.9694 19.7504 63.9336 20.9876 63.9328 22.2316L63.9313 24.4936H61.5139H59.0963L58.3883 23.1364C55.5051 17.6106 50.158 12.9958 44.2435 10.9291C41.1326 9.84207 38.8991 9.46651 35.5236 9.46262C32.1902 9.45886 29.8575 9.84959 26.7681 10.9291C25.3495 11.4248 22.4283 12.8119 22.2736 13.0633C22.2289 13.1358 22.4147 13.5698 22.6865 14.0279L23.1807 14.8606L24.762 14.0583C26.5427 13.1547 28.6686 12.4061 30.722 11.9596C32.8556 11.4956 37.0783 11.4195 39.319 11.8045C45.4995 12.8665 50.8216 16.079 54.5696 21.0103C55.2563 21.9137 56.7209 24.2407 56.7209 24.4283C56.7209 24.4642 47.1741 24.4936 35.5058 24.4936C23.8375 24.4936 14.2908 24.4553 14.2908 24.4086C14.2908 24.219 15.7334 21.9431 16.4582 20.9893C17.6885 19.3701 19.9003 17.1968 21.4871 16.0476C21.5398 16.0093 21.0894 15.3262 20.5541 14.6327L20.3025 14.3072L19.2032 15.1819C16.5231 17.3144 13.9283 20.4971 12.4346 23.4844L11.9301 24.4936H9.50516H7.0804L7.07887 22.2316C7.07804 20.9876 7.04213 19.7504 6.99914 19.4824L6.92094 18.9952L10.869 16.8583L14.8171 14.7213L16.9458 10.7634L19.0745 6.80559L19.7678 6.87546C20.1492 6.91388 22.1459 6.98362 24.205 7.03025L27.9488 7.11503L31.6825 4.80766C33.7361 3.53858 35.4604 2.50016 35.5142 2.50016C35.5681 2.50016 37.2885 3.53831 39.3374 4.80724ZM41.7456 16.6985V17.8121H42.7855H43.8255V16.6985V15.5849H42.7855H41.7456V16.6985ZM45.9054 18.7864V19.9H46.9453H47.9853V18.7864V17.6729H46.9453H45.9054V18.7864ZM68.658 26.9798C68.9123 27.295 68.9231 27.6419 68.9231 35.4903C68.9231 43.3385 68.9123 43.6857 68.658 44.0008L68.393 44.3295L53.4686 44.3661L38.5443 44.4028L38.5849 45.4101L38.6257 46.4175L47.6733 46.4532C52.6494 46.473 56.7209 46.518 56.7209 46.5534C56.7209 46.767 55.207 49.1306 54.3966 50.1822C50.9556 54.6477 45.9093 57.8089 40.2896 59.0191C38.1386 59.4824 33.916 59.5599 31.6927 59.177C25.5919 58.126 20.3555 55.0052 16.6363 50.2034C15.7877 49.1079 14.2908 46.7909 14.2908 46.5731C14.2908 46.5269 18.3622 46.473 23.3384 46.4532L32.386 46.4175L32.4267 45.4101L32.4674 44.4028L17.543 44.3661L2.61871 44.3295L2.35373 44.0008C2.09943 43.6857 2.08861 43.3392 2.08861 35.5353C2.08861 30.0442 2.13659 27.3084 2.23629 27.1214C2.31754 26.969 2.5204 26.789 2.68693 26.7213C2.85998 26.6511 17.0167 26.6097 35.6914 26.6247L68.393 26.6512L68.658 26.9798ZM55.8543 30.3137C55.4157 30.5957 55.057 30.8725 55.057 30.9288C55.057 30.9852 55.7434 32.0871 56.5823 33.3776L58.1075 35.724V38.3216V40.9191H59.1475H60.1874V38.3492V35.7793L61.6642 33.512C62.4765 32.2649 63.1653 31.1508 63.1951 31.036C63.2298 30.9019 62.9526 30.6422 62.421 30.3106L61.5928 29.794L60.3793 31.6676L59.1659 33.5411L57.9489 31.6622C57.2794 30.6287 56.7139 29.7872 56.6917 29.7921C56.6696 29.797 56.2929 30.0316 55.8543 30.3137ZM8.05102 35.4207V40.7799H10.6223H13.1937L13.1529 39.7707L13.1121 38.7615L11.6215 38.722L10.1309 38.6824V34.372V30.0616H9.09098H8.05102V35.4207ZM15.4 35.4207V40.7799H18.2426H21.0851V39.7359V38.6919H19.2825H17.4799V37.5783V36.4647H19.1439H20.8078V35.4207V34.3767H19.1439H17.4799V33.2631V32.1496H19.2825H21.0851V31.1056V30.0616H18.2426H15.4V35.4207ZM27.151 30.2127C25.7853 30.5358 24.2907 31.7161 23.6567 32.9721C22.8666 34.5374 22.8702 36.2534 23.6671 37.8525C24.2189 38.9596 25.0245 39.7468 26.1984 40.3257C26.8922 40.6678 27.1311 40.7103 28.3648 40.7102C29.6026 40.7102 29.8274 40.6698 30.4597 40.3352C30.8492 40.1289 31.4542 39.6404 31.8042 39.2497C32.6526 38.3023 33.0242 37.2849 33.1148 35.6608L33.1867 34.3698L30.8452 34.4081L28.5035 34.4463L28.4627 35.4555L28.4219 36.4647H29.676C30.4517 36.4647 30.93 36.52 30.93 36.6095C30.93 36.9235 30.3649 37.8408 29.9614 38.1816C28.8453 39.1245 26.6155 38.6737 25.7341 37.3271C25.1831 36.4852 25.025 35.657 25.2352 34.7139C25.3843 34.0452 25.5342 33.79 26.127 33.1961C27.3509 31.9697 28.7353 31.8351 30.2804 32.792C30.724 33.0667 31.1046 33.2694 31.1265 33.2424C31.3322 32.9896 32.178 31.6441 32.178 31.5699C32.178 31.517 31.8143 31.252 31.3699 30.981C30.0458 30.1735 28.5036 29.8927 27.151 30.2127ZM48.1285 30.2755C46.6402 30.6946 45.3492 31.8055 44.6762 33.2464C44.3578 33.9282 44.3108 34.2076 44.3108 35.4207C44.3108 36.6602 44.3545 36.9076 44.7093 37.6788C45.5036 39.4049 47.2792 40.628 49.1674 40.7497C50.8815 40.8602 52.235 40.264 53.3082 38.9256L53.7347 38.3939L53.4438 38.16C53.2839 38.0315 52.9188 37.741 52.6328 37.5146L52.1127 37.1028L51.6089 37.677C50.8694 38.5199 50.3382 38.7409 49.2601 38.654C48.2119 38.5695 47.4736 38.1268 46.8169 37.1887C45.9162 35.9022 46.2867 33.7943 47.5786 32.8547C48.9009 31.8933 50.0978 31.9296 51.7951 32.9827L52.2656 33.2746L52.8416 32.4232C53.5134 31.4302 53.5496 31.4991 51.9273 30.6788C50.7347 30.0758 49.3571 29.9295 48.1285 30.2755ZM37.8097 30.3141C37.6956 30.4993 33.9908 40.2799 34.0227 40.3116C34.0377 40.3265 34.4714 40.4979 34.9866 40.6925L35.9231 41.0463L36.1064 40.5999C36.2073 40.3544 36.4071 39.823 36.5505 39.4191L36.8112 38.6847L38.7408 38.7231L40.6705 38.7615L41.0768 39.8709C41.3003 40.4812 41.4996 40.997 41.5198 41.0172C41.586 41.0836 43.4095 40.3377 43.4089 40.2444C43.4088 40.1944 42.5732 37.9298 41.5523 35.2119L39.696 30.2704L38.7915 30.2294C38.294 30.207 37.8521 30.245 37.8097 30.3141ZM39.7249 36.2907C39.8207 36.5965 39.7985 36.6039 38.7737 36.6039C38.1592 36.6039 37.7244 36.5456 37.7244 36.4632C37.7244 36.3858 37.9524 35.7246 38.2311 34.9937L38.7377 33.6647L39.1822 34.8212C39.4266 35.4572 39.6708 36.1184 39.7249 36.2907ZM34.4251 45.4083L34.4659 46.4175H35.5058H36.5458L36.5866 45.4083L36.6273 44.3991H35.5058H34.3844L34.4251 45.4083ZM12.6234 47.8442C16.1519 54.6071 22.8511 59.5427 30.6527 61.1272C32.064 61.4138 32.6299 61.4504 35.5752 61.4465C38.6512 61.4425 39.0348 61.4138 40.6432 61.0686C45.2505 60.0796 49.4669 57.9579 52.8384 54.9318C55.0191 52.9746 57.0941 50.3248 58.3883 47.8442L59.0963 46.4871H61.5139H63.9313L63.9328 48.749C63.9336 49.9932 63.9694 51.2303 64.0124 51.4982L64.0903 51.9854L60.1402 54.1266L56.19 56.2679L54.0636 60.2236L51.9371 64.1793L51.3132 64.1077C50.97 64.0683 48.9733 63.9977 46.876 63.9508L43.0628 63.8655L39.3374 66.173C37.2885 67.4421 35.5681 68.4805 35.5142 68.4805C35.4604 68.4805 33.7361 67.4421 31.6825 66.173L27.9488 63.8656L24.205 63.9504C22.1459 63.997 20.1492 64.0668 19.7678 64.1052L19.0745 64.1751L16.9424 60.2107L14.81 56.2463L10.8647 54.1159L6.91927 51.9854L6.99831 51.4982C7.04185 51.2303 7.07804 49.9932 7.07887 48.749L7.0804 46.4871H9.49781H11.9154L12.6234 47.8442Z" fill="#E49B00"/>
</svg>
