<svg width="129" height="115" viewBox="0 0 129 115" fill="none" xmlns="http://www.w3.org/2000/svg">
<path d="M31.4948 78.0373C26.1514 78.0373 21.3109 76.5914 16.9733 73.6996C12.6356 70.8079 9.20957 66.7846 6.69501 61.6298C4.24331 56.4121 3.01747 50.4086 3.01747 43.6193C3.01747 36.7671 4.24331 30.795 6.69501 25.703C9.1467 20.5482 12.5099 16.5563 16.7847 13.7275C21.0594 10.8357 25.8999 9.38985 31.3062 9.38985C36.7754 9.38985 41.6474 10.8357 45.9221 13.7275C50.1968 16.5563 53.5601 20.5482 56.0118 25.703C58.5263 30.8579 59.7836 36.8614 59.7836 43.7136C59.7836 50.5657 58.5263 56.5692 56.0118 61.7241C53.5601 66.8789 50.1968 70.9022 45.9221 73.7939C41.7102 76.6228 36.9011 78.0373 31.4948 78.0373ZM31.4005 64.9301C34.1665 64.9301 36.5554 64.1443 38.567 62.5727C40.5787 60.9383 42.1188 58.5494 43.1875 55.4062C44.3191 52.2002 44.8848 48.3026 44.8848 43.7136C44.8848 39.0616 44.3191 35.1641 43.1875 32.0209C42.1188 28.8777 40.5787 26.5203 38.567 24.9487C36.5554 23.3142 34.1351 22.497 31.3062 22.497C28.6031 22.497 26.2143 23.2828 24.1397 24.8544C22.1281 26.426 20.5879 28.7834 19.5192 31.9266C18.4506 35.0698 17.9162 38.9673 17.9162 43.6193C17.9162 48.2712 18.4506 52.1688 19.5192 55.3119C20.5879 58.4551 22.1281 60.844 24.1397 62.4784C26.2143 64.1129 28.6345 64.9301 31.4005 64.9301ZM77.5127 77L77.5127 10.4271L92.2228 10.4271L92.2228 77H77.5127ZM64.6884 22.9685V10.4271L91.2799 10.4271V22.9685L64.6884 22.9685Z" fill="#E49B00" fill-opacity="0.08"/>
<path d="M2.48 110.574L2.48 108.894H5.424C6.192 108.894 6.864 108.729 7.44 108.398C8.02667 108.068 8.48 107.609 8.8 107.022C9.13067 106.425 9.296 105.737 9.296 104.958C9.296 104.19 9.13067 103.513 8.8 102.926C8.46933 102.34 8.01067 101.881 7.424 101.55C6.848 101.22 6.18133 101.054 5.424 101.054H2.48V99.3742H5.472C6.28267 99.3742 7.03467 99.5182 7.728 99.8062C8.42133 100.084 9.024 100.478 9.536 100.99C10.0587 101.492 10.464 102.084 10.752 102.766C11.04 103.438 11.184 104.174 11.184 104.974C11.184 105.764 11.04 106.5 10.752 107.182C10.464 107.865 10.064 108.462 9.552 108.974C9.04 109.476 8.43733 109.87 7.744 110.158C7.05067 110.436 6.304 110.574 5.504 110.574H2.48ZM1.216 110.574L1.216 99.3742H3.056L3.056 110.574H1.216ZM12.8358 110.574V102.894H14.5958V110.574H12.8358ZM13.7158 101.486C13.4171 101.486 13.1664 101.385 12.9638 101.182C12.7718 100.98 12.6758 100.729 12.6758 100.43C12.6758 100.132 12.7718 99.8809 12.9638 99.6782C13.1664 99.4756 13.4171 99.3742 13.7158 99.3742C14.0251 99.3742 14.2758 99.4756 14.4678 99.6782C14.6598 99.8809 14.7558 100.132 14.7558 100.43C14.7558 100.729 14.6598 100.98 14.4678 101.182C14.2758 101.385 14.0251 101.486 13.7158 101.486ZM19.0818 110.734C18.6551 110.734 18.2444 110.681 17.8498 110.574C17.4551 110.457 17.0924 110.297 16.7618 110.094C16.4311 109.881 16.1431 109.625 15.8978 109.326L17.0178 108.206C17.2844 108.516 17.5884 108.75 17.9298 108.91C18.2818 109.06 18.6764 109.134 19.1138 109.134C19.5084 109.134 19.8071 109.076 20.0098 108.958C20.2124 108.841 20.3138 108.67 20.3138 108.446C20.3138 108.212 20.2178 108.03 20.0258 107.902C19.8338 107.774 19.5831 107.668 19.2738 107.582C18.9751 107.486 18.6551 107.39 18.3138 107.294C17.9831 107.198 17.6631 107.07 17.3538 106.91C17.0551 106.74 16.8098 106.51 16.6178 106.222C16.4258 105.934 16.3298 105.561 16.3298 105.102C16.3298 104.612 16.4418 104.19 16.6658 103.838C16.9004 103.486 17.2258 103.214 17.6418 103.022C18.0684 102.83 18.5751 102.734 19.1618 102.734C19.7804 102.734 20.3244 102.846 20.7938 103.07C21.2738 103.284 21.6738 103.609 21.9938 104.046L20.8738 105.166C20.6498 104.889 20.3938 104.681 20.1058 104.542C19.8178 104.404 19.4871 104.334 19.1138 104.334C18.7618 104.334 18.4898 104.388 18.2978 104.494C18.1058 104.601 18.0098 104.756 18.0098 104.958C18.0098 105.172 18.1058 105.337 18.2978 105.454C18.4898 105.572 18.7351 105.673 19.0338 105.758C19.3431 105.844 19.6631 105.94 19.9938 106.046C20.3351 106.142 20.6551 106.281 20.9538 106.462C21.2631 106.633 21.5138 106.868 21.7058 107.166C21.8978 107.454 21.9938 107.833 21.9938 108.302C21.9938 109.049 21.7324 109.641 21.2098 110.078C20.6871 110.516 19.9778 110.734 19.0818 110.734ZM26.9808 110.734C26.2234 110.734 25.5354 110.558 24.9168 110.206C24.3088 109.854 23.8288 109.374 23.4768 108.766C23.1248 108.158 22.9488 107.481 22.9488 106.734C22.9488 105.977 23.1248 105.3 23.4768 104.702C23.8288 104.094 24.3088 103.614 24.9168 103.262C25.5354 102.91 26.2234 102.734 26.9808 102.734C27.5781 102.734 28.1328 102.852 28.6448 103.086C29.1674 103.31 29.6101 103.636 29.9728 104.062L28.8208 105.23C28.5968 104.964 28.3248 104.766 28.0048 104.638C27.6954 104.5 27.3541 104.43 26.9808 104.43C26.5434 104.43 26.1541 104.532 25.8128 104.734C25.4821 104.926 25.2208 105.193 25.0288 105.534C24.8474 105.876 24.7568 106.276 24.7568 106.734C24.7568 107.182 24.8474 107.582 25.0288 107.934C25.2208 108.276 25.4821 108.548 25.8128 108.75C26.1541 108.942 26.5434 109.038 26.9808 109.038C27.3541 109.038 27.6954 108.974 28.0048 108.846C28.3248 108.708 28.5968 108.505 28.8208 108.238L29.9728 109.406C29.6101 109.833 29.1674 110.164 28.6448 110.398C28.1328 110.622 27.5781 110.734 26.9808 110.734ZM34.3936 110.734C33.743 110.734 33.1616 110.59 32.6496 110.302C32.1483 110.014 31.7536 109.62 31.4656 109.118C31.1883 108.606 31.0496 108.02 31.0496 107.358L31.0496 102.894H32.8096V107.278C32.8096 107.652 32.8683 107.972 32.9856 108.238C33.1136 108.494 33.295 108.692 33.5296 108.83C33.775 108.969 34.063 109.038 34.3936 109.038C34.9056 109.038 35.295 108.889 35.5616 108.59C35.839 108.281 35.9776 107.844 35.9776 107.278V102.894H37.7376V107.358C37.7376 108.03 37.5936 108.622 37.3056 109.134C37.0283 109.636 36.639 110.03 36.1376 110.318C35.6363 110.596 35.055 110.734 34.3936 110.734ZM42.0193 110.734C41.5926 110.734 41.1819 110.681 40.7873 110.574C40.3926 110.457 40.0299 110.297 39.6993 110.094C39.3686 109.881 39.0806 109.625 38.8353 109.326L39.9553 108.206C40.2219 108.516 40.5259 108.75 40.8673 108.91C41.2193 109.06 41.6139 109.134 42.0513 109.134C42.4459 109.134 42.7446 109.076 42.9473 108.958C43.1499 108.841 43.2513 108.67 43.2513 108.446C43.2513 108.212 43.1553 108.03 42.9633 107.902C42.7713 107.774 42.5206 107.668 42.2113 107.582C41.9126 107.486 41.5926 107.39 41.2513 107.294C40.9206 107.198 40.6006 107.07 40.2913 106.91C39.9926 106.74 39.7473 106.51 39.5553 106.222C39.3633 105.934 39.2673 105.561 39.2673 105.102C39.2673 104.612 39.3793 104.19 39.6033 103.838C39.8379 103.486 40.1633 103.214 40.5793 103.022C41.0059 102.83 41.5126 102.734 42.0993 102.734C42.7179 102.734 43.2619 102.846 43.7313 103.07C44.2113 103.284 44.6113 103.609 44.9313 104.046L43.8113 105.166C43.5873 104.889 43.3313 104.681 43.0433 104.542C42.7553 104.404 42.4246 104.334 42.0513 104.334C41.6993 104.334 41.4273 104.388 41.2353 104.494C41.0433 104.601 40.9473 104.756 40.9473 104.958C40.9473 105.172 41.0433 105.337 41.2353 105.454C41.4273 105.572 41.6726 105.673 41.9713 105.758C42.2806 105.844 42.6006 105.94 42.9313 106.046C43.2726 106.142 43.5926 106.281 43.8913 106.462C44.2006 106.633 44.4513 106.868 44.6433 107.166C44.8353 107.454 44.9313 107.833 44.9313 108.302C44.9313 109.049 44.6699 109.641 44.1473 110.078C43.6246 110.516 42.9153 110.734 42.0193 110.734ZM48.8943 110.734C48.4676 110.734 48.0569 110.681 47.6623 110.574C47.2676 110.457 46.9049 110.297 46.5743 110.094C46.2436 109.881 45.9556 109.625 45.7103 109.326L46.8303 108.206C47.0969 108.516 47.4009 108.75 47.7423 108.91C48.0943 109.06 48.4889 109.134 48.9263 109.134C49.3209 109.134 49.6196 109.076 49.8223 108.958C50.0249 108.841 50.1263 108.67 50.1263 108.446C50.1263 108.212 50.0303 108.03 49.8383 107.902C49.6463 107.774 49.3956 107.668 49.0863 107.582C48.7876 107.486 48.4676 107.39 48.1263 107.294C47.7956 107.198 47.4756 107.07 47.1663 106.91C46.8676 106.74 46.6223 106.51 46.4303 106.222C46.2383 105.934 46.1423 105.561 46.1423 105.102C46.1423 104.612 46.2543 104.19 46.4783 103.838C46.7129 103.486 47.0383 103.214 47.4543 103.022C47.8809 102.83 48.3876 102.734 48.9743 102.734C49.5929 102.734 50.1369 102.846 50.6063 103.07C51.0863 103.284 51.4863 103.609 51.8063 104.046L50.6863 105.166C50.4623 104.889 50.2063 104.681 49.9183 104.542C49.6303 104.404 49.2996 104.334 48.9263 104.334C48.5743 104.334 48.3023 104.388 48.1103 104.494C47.9183 104.601 47.8223 104.756 47.8223 104.958C47.8223 105.172 47.9183 105.337 48.1103 105.454C48.3023 105.572 48.5476 105.673 48.8463 105.758C49.1556 105.844 49.4756 105.94 49.8063 106.046C50.1476 106.142 50.4676 106.281 50.7663 106.462C51.0756 106.633 51.3263 106.868 51.5183 107.166C51.7103 107.454 51.8063 107.833 51.8063 108.302C51.8063 109.049 51.5449 109.641 51.0223 110.078C50.4996 110.516 49.7903 110.734 48.8943 110.734ZM58.9404 110.654L55.6604 102.894H57.5964L59.8364 108.59H59.2764L61.6444 102.894H63.5964L60.0284 110.654H58.9404ZM56.6524 113.774L59.0364 108.862L60.0284 110.654L58.6044 113.774H56.6524ZM67.871 110.734C67.1243 110.734 66.447 110.558 65.839 110.206C65.231 109.844 64.7457 109.358 64.383 108.75C64.031 108.142 63.855 107.465 63.855 106.718C63.855 105.972 64.031 105.3 64.383 104.702C64.7457 104.105 65.231 103.63 65.839 103.278C66.447 102.916 67.1243 102.734 67.871 102.734C68.6283 102.734 69.311 102.91 69.919 103.262C70.527 103.614 71.007 104.094 71.359 104.702C71.7217 105.3 71.903 105.972 71.903 106.718C71.903 107.465 71.7217 108.142 71.359 108.75C71.007 109.358 70.527 109.844 69.919 110.206C69.311 110.558 68.6283 110.734 67.871 110.734ZM67.871 109.038C68.3083 109.038 68.6923 108.942 69.023 108.75C69.3643 108.548 69.6257 108.27 69.807 107.918C69.999 107.566 70.095 107.166 70.095 106.718C70.095 106.27 69.999 105.876 69.807 105.534C69.615 105.193 69.3537 104.926 69.023 104.734C68.6923 104.532 68.3083 104.43 67.871 104.43C67.4443 104.43 67.0603 104.532 66.719 104.734C66.3883 104.926 66.127 105.193 65.935 105.534C65.7537 105.876 65.663 106.27 65.663 106.718C65.663 107.166 65.7537 107.566 65.935 107.918C66.127 108.27 66.3883 108.548 66.719 108.75C67.0603 108.942 67.4443 109.038 67.871 109.038ZM76.5186 110.734C75.868 110.734 75.2866 110.59 74.7746 110.302C74.2733 110.014 73.8786 109.62 73.5906 109.118C73.3133 108.606 73.1746 108.02 73.1746 107.358V102.894H74.9346V107.278C74.9346 107.652 74.9933 107.972 75.1106 108.238C75.2386 108.494 75.42 108.692 75.6546 108.83C75.9 108.969 76.188 109.038 76.5186 109.038C77.0306 109.038 77.42 108.889 77.6866 108.59C77.964 108.281 78.1026 107.844 78.1026 107.278V102.894H79.8626V107.358C79.8626 108.03 79.7186 108.622 79.4306 109.134C79.1533 109.636 78.764 110.03 78.2626 110.318C77.7613 110.596 77.18 110.734 76.5186 110.734ZM81.6323 110.574V102.894H83.3923V110.574H81.6323ZM83.3923 106.302L82.7843 105.998C82.7843 105.028 82.9976 104.244 83.4243 103.646C83.8616 103.038 84.5176 102.734 85.3923 102.734C85.7763 102.734 86.1229 102.804 86.4323 102.942C86.7416 103.081 87.0296 103.305 87.2963 103.614L86.1443 104.798C86.0056 104.649 85.8509 104.542 85.6803 104.478C85.5096 104.414 85.3123 104.382 85.0883 104.382C84.5976 104.382 84.1923 104.537 83.8723 104.846C83.5523 105.156 83.3923 105.641 83.3923 106.302ZM91.8723 110.574V99.3742H93.1523L93.7123 101.486V110.574H91.8723ZM99.6323 110.574L92.9283 101.822L93.1523 99.3742L99.8563 108.126L99.6323 110.574ZM99.6323 110.574L99.0723 108.606V99.3742H100.912V110.574H99.6323ZM106.669 110.734C105.901 110.734 105.208 110.564 104.589 110.222C103.981 109.87 103.496 109.39 103.133 108.782C102.781 108.174 102.605 107.492 102.605 106.734C102.605 105.977 102.781 105.3 103.133 104.702C103.485 104.094 103.96 103.614 104.557 103.262C105.165 102.91 105.837 102.734 106.573 102.734C107.288 102.734 107.917 102.9 108.461 103.23C109.016 103.561 109.448 104.014 109.757 104.59C110.077 105.166 110.237 105.822 110.237 106.558C110.237 106.686 110.226 106.82 110.205 106.958C110.194 107.086 110.173 107.23 110.141 107.39H103.837V105.95H109.229L108.573 106.526C108.552 106.057 108.461 105.662 108.301 105.342C108.141 105.022 107.912 104.777 107.613 104.606C107.325 104.436 106.968 104.35 106.541 104.35C106.093 104.35 105.704 104.446 105.373 104.638C105.042 104.83 104.786 105.102 104.605 105.454C104.424 105.796 104.333 106.206 104.333 106.686C104.333 107.166 104.429 107.588 104.621 107.95C104.813 108.313 105.085 108.596 105.437 108.798C105.789 108.99 106.194 109.086 106.653 109.086C107.048 109.086 107.41 109.017 107.741 108.878C108.082 108.74 108.37 108.537 108.605 108.27L109.725 109.406C109.352 109.844 108.898 110.174 108.365 110.398C107.832 110.622 107.266 110.734 106.669 110.734ZM115.216 110.734C114.448 110.734 113.755 110.564 113.136 110.222C112.528 109.87 112.043 109.39 111.68 108.782C111.328 108.174 111.152 107.492 111.152 106.734C111.152 105.977 111.328 105.3 111.68 104.702C112.032 104.094 112.507 103.614 113.104 103.262C113.712 102.91 114.384 102.734 115.12 102.734C115.835 102.734 116.464 102.9 117.008 103.23C117.563 103.561 117.995 104.014 118.304 104.59C118.624 105.166 118.784 105.822 118.784 106.558C118.784 106.686 118.773 106.82 118.752 106.958C118.741 107.086 118.72 107.23 118.688 107.39H112.384V105.95H117.776L117.12 106.526C117.099 106.057 117.008 105.662 116.848 105.342C116.688 105.022 116.459 104.777 116.16 104.606C115.872 104.436 115.515 104.35 115.088 104.35C114.64 104.35 114.251 104.446 113.92 104.638C113.589 104.83 113.333 105.102 113.152 105.454C112.971 105.796 112.88 106.206 112.88 106.686C112.88 107.166 112.976 107.588 113.168 107.95C113.36 108.313 113.632 108.596 113.984 108.798C114.336 108.99 114.741 109.086 115.2 109.086C115.595 109.086 115.957 109.017 116.288 108.878C116.629 108.74 116.917 108.537 117.152 108.27L118.272 109.406C117.899 109.844 117.445 110.174 116.912 110.398C116.379 110.622 115.813 110.734 115.216 110.734ZM123.411 110.734C122.717 110.734 122.088 110.558 121.523 110.206C120.968 109.854 120.525 109.38 120.195 108.782C119.875 108.174 119.715 107.497 119.715 106.75C119.715 105.993 119.875 105.316 120.195 104.718C120.525 104.11 120.968 103.63 121.523 103.278C122.088 102.916 122.717 102.734 123.411 102.734C123.997 102.734 124.515 102.862 124.963 103.118C125.421 103.364 125.784 103.705 126.051 104.142C126.317 104.58 126.451 105.076 126.451 105.63V107.838C126.451 108.393 126.317 108.889 126.051 109.326C125.795 109.764 125.437 110.11 124.979 110.366C124.52 110.612 123.997 110.734 123.411 110.734ZM123.699 109.07C124.136 109.07 124.515 108.974 124.835 108.782C125.165 108.58 125.421 108.302 125.603 107.95C125.784 107.598 125.875 107.193 125.875 106.734C125.875 106.276 125.784 105.87 125.603 105.518C125.421 105.166 125.165 104.894 124.835 104.702C124.515 104.5 124.141 104.398 123.715 104.398C123.277 104.398 122.893 104.5 122.563 104.702C122.243 104.894 121.987 105.166 121.795 105.518C121.613 105.87 121.523 106.276 121.523 106.734C121.523 107.193 121.613 107.598 121.795 107.95C121.987 108.302 122.243 108.58 122.563 108.782C122.893 108.974 123.272 109.07 123.699 109.07ZM127.523 110.574H125.763V108.51L126.067 106.638L125.763 104.782V99.0542H127.523V110.574Z" fill="#E49B00"/>
<path fill-rule="evenodd" clip-rule="evenodd" d="M20.9176 31.0957C15.0925 31.802 10.1913 36.5363 8.86982 42.733C8.55206 44.2228 8.48043 45.4314 8.48043 49.299C8.48043 53.3978 8.51185 53.6729 9.0705 54.4727C9.23807 54.7126 9.58968 55.0461 9.85189 55.2137L10.3286 55.5185L10.3683 56.4836C10.4154 57.6316 10.6123 58.1901 11.1923 58.8202C11.7421 59.4175 12.2928 59.6592 13.2307 59.7146L14.0066 59.7605L14.2485 60.2808C14.5717 60.9761 14.9593 61.5945 15.5106 62.295L15.9668 62.8744L15.175 64.5925L14.3832 66.3105L11.689 67.2952C8.14931 68.5889 7.09879 69.2047 5.37779 70.9949C3.05008 73.4163 1.63458 76.4252 1.14083 80.0018C1.06369 80.5605 1.00029 81.3026 1 81.651C0.999537 82.2077 1.03245 82.3245 1.27231 82.6161L1.54518 82.9479L22.4507 82.974L43.3563 83L43.6553 82.7097C43.9149 82.4577 43.9598 82.3394 43.9948 81.8139C44.0169 81.481 43.9668 80.7029 43.8834 80.0849C43.3923 76.4476 41.9872 73.4398 39.6368 70.9949C37.9158 69.2047 36.8653 68.5889 33.3255 67.2952L30.6314 66.3105L29.8396 64.5925L29.0478 62.8744L29.504 62.295C30.6814 60.7992 31.466 59.0069 31.8031 57.0423C31.8894 56.5394 31.979 56.0298 32.0022 55.9097C32.0422 55.7025 32.1061 55.6892 33.2373 55.6527C34.2011 55.6214 34.5135 55.5726 34.8649 55.3987C35.4188 55.1244 36.0286 54.4631 36.2864 53.8574C36.4786 53.4057 36.4887 53.2212 36.5173 49.6262C36.5356 47.347 36.5063 45.4275 36.4432 44.7499C36.1105 41.1825 34.7926 38.1243 32.4863 35.5682C29.4537 32.2073 25.227 30.5732 20.9176 31.0957ZM24.7956 33.271C27.32 33.8434 29.2968 34.9929 31.0705 36.92C33.0248 39.043 34.1906 41.6033 34.5551 44.5721L34.6329 45.207H33.7318H32.8306L32.7117 44.1728C32.1818 39.5599 29.0732 35.9953 24.8887 35.2026C23.8006 34.9965 21.214 34.9965 20.1259 35.2026C15.9414 35.9953 12.8328 39.5599 12.3028 44.1728L12.184 45.207H11.2761C10.4616 45.207 10.3714 45.1887 10.4001 45.0293C10.4176 44.9314 10.4809 44.4857 10.5409 44.0387C10.7671 42.3498 11.425 40.5466 12.4165 38.8977C13.1012 37.7589 14.6601 36.0386 15.6597 35.3186C17.1007 34.2807 18.9733 33.4641 20.45 33.2297C20.8358 33.1685 21.2566 33.0985 21.3851 33.074C21.8727 32.9814 24.081 33.1089 24.7956 33.271ZM24.6732 37.2256C26.055 37.5191 27.0386 38.0141 28.1279 38.9642C29.8089 40.4305 30.7779 42.5717 30.8971 45.0837L30.9516 46.2303L30.54 46.1659C29.4283 45.9922 27.7791 45.5856 27.0331 45.3011C25.2102 44.6063 23.2269 43.3534 21.9462 42.0877C21.0894 41.2408 20.9352 41.1434 20.4525 41.1435C19.5073 41.1438 17.8402 41.5888 16.9499 42.0783C16.1719 42.5062 15.3363 43.1581 14.7532 43.7922L14.1529 44.4451L14.2141 43.9597C14.3736 42.6956 15.0592 41.1115 15.9501 39.9491C16.9907 38.5913 18.6926 37.5391 20.4033 37.1962C21.1708 37.0424 23.8991 37.0611 24.6732 37.2256ZM20.7047 43.6075C23.1969 46.012 26.2434 47.5088 29.8348 48.0931C30.3419 48.1756 30.7787 48.2669 30.8056 48.296C30.8766 48.3732 30.665 51.2977 30.4528 53.1706C29.947 57.6363 29.5239 59.0544 28.1466 60.8993C27.2535 62.0956 25.7485 63.1599 24.3775 63.5645C23.5321 63.8141 21.4827 63.8141 20.637 63.5646C19.1634 63.1297 17.6103 61.9758 16.6459 60.5989C16.3723 60.2083 16.1484 59.854 16.1484 59.8116C16.1484 59.7692 16.5587 59.736 17.0602 59.7378L17.9719 59.7413L18.2525 60.2677C18.5991 60.9184 19.1793 61.4089 19.8541 61.622C20.6479 61.8727 23.0479 61.7927 23.6434 61.4956C24.1995 61.2183 24.8087 60.5561 25.063 59.9528C25.3395 59.2967 25.3395 58.1404 25.063 57.4843C24.8087 56.881 24.1995 56.2188 23.6434 55.9415C23.0479 55.6444 20.6479 55.5644 19.8541 55.8151C19.1793 56.0282 18.5991 56.5187 18.2525 57.1694L17.9719 57.6959L16.5926 57.6993C15.834 57.7011 15.2133 57.6684 15.2132 57.6265C15.2132 57.5845 15.1517 57.2301 15.0765 56.8387C14.7445 55.11 14.3311 51.3419 14.2234 49.0628L14.1636 47.7976L14.9088 46.7279C15.3185 46.1396 15.9344 45.379 16.2772 45.0377C17.2974 44.0222 18.7322 43.3353 20.143 43.1872C20.2056 43.1806 20.4583 43.3698 20.7047 43.6075ZM12.2552 47.7214C12.2839 47.9869 12.3331 48.7525 12.3647 49.423C12.3964 50.0935 12.4817 51.2364 12.5545 51.9628C12.6271 52.6892 12.6871 53.3679 12.6876 53.4711C12.6884 53.6428 12.6136 53.6557 11.8021 53.6235C10.9791 53.5908 10.8972 53.5681 10.6566 53.3067L10.3974 53.0252L10.3699 50.132L10.3425 47.2388H11.2729H12.2033L12.2552 47.7214ZM34.6446 50.132L34.6171 53.0252L34.358 53.3067C34.1174 53.5681 34.0355 53.5908 33.2125 53.6235C32.401 53.6557 32.3262 53.6428 32.327 53.4711C32.3275 53.3679 32.3876 52.6892 32.4607 51.9628C32.5337 51.2364 32.619 50.0707 32.65 49.3722C32.6812 48.6738 32.7288 47.9081 32.7559 47.6706L32.8052 47.2388H33.7386H34.6721L34.6446 50.132ZM13.0119 55.8994C13.0374 56.0252 13.1037 56.4166 13.1591 56.7692C13.2145 57.122 13.2857 57.4835 13.3172 57.5727C13.4068 57.8263 12.788 57.6534 12.5046 57.3457C12.3133 57.138 12.2676 56.9736 12.2368 56.3831L12.1998 55.6709H12.5826C12.9036 55.6709 12.973 55.7078 13.0119 55.8994ZM23.1345 58.0328C23.5201 58.4522 23.4975 59.0427 23.0802 59.4478L22.769 59.7498L21.5178 59.7168C20.3203 59.6851 20.2565 59.6726 20.0282 59.4242C19.6858 59.0519 19.6305 58.5398 19.8934 58.1767C20.2022 57.7502 20.3827 57.7053 21.6872 57.7305C22.8485 57.7528 22.8839 57.7603 23.1345 58.0328ZM28.3585 65.8444L28.9744 67.1796L28.7238 67.9464C28.3934 68.9575 27.7253 70.6507 27.26 71.6562L26.886 72.4641L25.3056 70.7493L23.7251 69.0346L24.1267 68.5752C24.3476 68.3224 25.2361 67.3042 26.101 66.3124C26.966 65.3207 27.6892 64.5092 27.7082 64.5092C27.7272 64.5092 28.0198 65.11 28.3585 65.8444ZM19.6355 70.7746C18.8346 71.6869 18.1611 72.4333 18.139 72.4333C18.0597 72.4333 16.9138 69.7167 16.4737 68.4852L16.0248 67.2293L16.5752 66.02L17.1257 64.8106L19.1088 66.9632L21.0918 69.1159L19.6355 70.7746ZM22.6146 65.7791H23.9845L23.2253 66.6426C22.8077 67.1176 22.4431 67.5178 22.4152 67.532C22.3871 67.5463 21.9651 67.1223 21.4773 66.59C20.6297 65.665 20.6048 65.6255 20.9176 65.7006C21.0976 65.7437 21.8613 65.7791 22.6146 65.7791ZM14.9373 69.7919C15.9222 72.477 17.2589 75.1506 19.0002 77.9192C19.4747 78.6735 20.0794 79.6677 20.3441 80.1288L20.8254 80.9669H11.8635H2.90167L2.98471 80.2811C3.47621 76.2244 5.81486 72.4523 8.99475 70.5876C9.70816 70.1692 14.0994 68.4594 14.3514 68.5018C14.4174 68.513 14.6811 69.0935 14.9373 69.7919ZM32.9248 69.2828C34.146 69.729 35.4893 70.2885 35.9099 70.526C39.1283 72.3438 41.5326 76.1761 42.0299 80.2811L42.1129 80.9669H33.1511H24.1892L24.6705 80.1288C24.9352 79.6677 25.5399 78.6735 26.0144 77.9192C27.7191 75.2088 28.9502 72.7732 29.917 70.1983C30.2002 69.444 30.4571 68.7468 30.4877 68.649C30.5184 68.5513 30.5797 68.4712 30.6238 68.4712C30.668 68.4712 31.7034 68.8365 32.9248 69.2828ZM24.1662 72.4577C25.1053 73.4768 25.8737 74.3519 25.8737 74.4025C25.8737 74.453 25.4214 75.2236 24.8685 76.1149C24.3155 77.0063 23.5783 78.2225 23.23 78.8178C22.8817 79.4131 22.5565 79.9002 22.5073 79.9002C22.4581 79.9002 22.1329 79.4131 21.7846 78.8178C21.4363 78.2225 20.6946 76.9992 20.1365 76.0992C19.5783 75.1993 19.1419 74.4063 19.1667 74.337C19.2219 74.1829 22.3243 70.6046 22.4026 70.6046C22.4335 70.6046 23.2271 71.4385 24.1662 72.4577ZM32.4559 71.3137C32.1615 71.443 31.8585 71.9138 31.8585 72.2422C31.8585 72.6488 32.2883 73.1369 32.7107 73.2097C32.9955 73.2589 33.0979 73.2201 33.3631 72.9627C33.6258 72.7077 33.6778 72.5868 33.6778 72.2301C33.6778 71.8766 33.6254 71.7522 33.3745 71.5086C33.0673 71.2103 32.8139 71.1566 32.4559 71.3137ZM35.7393 73.2404C35.3992 73.3917 35.1824 73.7498 35.1824 74.1604C35.1824 74.516 35.2618 74.6396 36.0742 75.5492C36.5803 76.116 37.141 76.8682 37.3712 77.2891C37.8263 78.1216 38.1555 78.3798 38.6367 78.2817C38.9932 78.2091 39.2199 77.9659 39.3341 77.5335C39.4887 76.9479 38.6737 75.4823 37.4634 74.1693C36.5727 73.203 36.234 73.0205 35.7393 73.2404Z" fill="#E49B00"/>
</svg>
