<svg width="131" height="115" viewBox="0 0 131 115" fill="none" xmlns="http://www.w3.org/2000/svg">
<path d="M44.7517 78.0373C39.4082 78.0373 34.5677 76.5914 30.2301 73.6996C25.8925 70.8079 22.4664 66.7846 19.9518 61.6298C17.5002 56.4121 16.2743 50.4086 16.2743 43.6193C16.2743 36.7671 17.5002 30.795 19.9518 25.703C22.4035 20.5482 25.7668 16.5563 30.0415 13.7275C34.3163 10.8357 39.1568 9.38985 44.5631 9.38985C50.0322 9.38985 54.9042 10.8357 59.1789 13.7275C63.4537 16.5563 66.8169 20.5482 69.2686 25.703C71.7831 30.8579 73.0404 36.8614 73.0404 43.7136C73.0404 50.5657 71.7831 56.5692 69.2686 61.7241C66.8169 66.8789 63.4537 70.9022 59.1789 73.7939C54.967 76.6228 50.158 78.0373 44.7517 78.0373ZM44.6574 64.9301C47.4234 64.9301 49.8122 64.1443 51.8239 62.5727C53.8355 60.9383 55.3757 58.5494 56.4444 55.4062C57.5759 52.2002 58.1417 48.3026 58.1417 43.7136C58.1417 39.0616 57.5759 35.1641 56.4444 32.0209C55.3757 28.8777 53.8355 26.5203 51.8239 24.9487C49.8122 23.3142 47.3919 22.497 44.5631 22.497C41.8599 22.497 39.4711 23.2828 37.3966 24.8544C35.3849 26.426 33.8448 28.7834 32.7761 31.9266C31.7074 35.0698 31.1731 38.9673 31.1731 43.6193C31.1731 48.2712 31.7074 52.1688 32.7761 55.3119C33.8448 58.4551 35.3849 60.844 37.3966 62.4784C39.4711 64.1129 41.8914 64.9301 44.6574 64.9301ZM78.3225 68.702L103.877 42.2991C105.448 40.7275 106.706 39.2816 107.648 37.9615C108.591 36.6414 109.283 35.4155 109.723 34.284C110.163 33.0895 110.383 31.8951 110.383 30.7007C110.383 28.1233 109.534 26.1117 107.837 24.6658C106.203 23.157 104.034 22.4027 101.331 22.4027C98.6904 22.4027 96.3016 23.1256 94.1642 24.5715C92.0897 25.9545 90.078 28.249 88.1292 31.4551L78.2282 22.8742C80.8685 18.4108 84.2317 15.0476 88.3178 12.7845C92.404 10.5214 97.0874 9.38985 102.368 9.38985C106.957 9.38985 110.917 10.2385 114.249 11.9358C117.644 13.6332 120.253 16.0534 122.076 19.1966C123.962 22.3398 124.905 26.0174 124.905 30.2292C124.905 32.8695 124.559 35.3212 123.867 37.5843C123.176 39.7846 122.044 41.9848 120.473 44.185C118.964 46.3224 116.921 48.6798 114.343 51.2572L96.6159 68.8906L78.3225 68.702ZM78.3225 77V68.702L90.8638 64.3644H126.225V77H78.3225Z" fill="#E49B00" fill-opacity="0.08"/>
<path d="M3.31984 110.574L3.31984 108.894H6.26384C7.03184 108.894 7.70384 108.729 8.27984 108.398C8.86651 108.068 9.31984 107.609 9.63984 107.022C9.97051 106.425 10.1358 105.737 10.1358 104.958C10.1358 104.19 9.97051 103.513 9.63984 102.926C9.30918 102.34 8.85051 101.881 8.26384 101.55C7.68784 101.22 7.02118 101.054 6.26384 101.054H3.31984V99.3742H6.31184C7.12251 99.3742 7.87451 99.5182 8.56784 99.8062C9.26118 100.084 9.86384 100.478 10.3758 100.99C10.8985 101.492 11.3038 102.084 11.5918 102.766C11.8798 103.438 12.0238 104.174 12.0238 104.974C12.0238 105.764 11.8798 106.5 11.5918 107.182C11.3038 107.865 10.9038 108.462 10.3918 108.974C9.87984 109.476 9.27718 109.87 8.58384 110.158C7.89051 110.436 7.14384 110.574 6.34384 110.574H3.31984ZM2.05584 110.574L2.05584 99.3742H3.89584L3.89584 110.574H2.05584ZM17.2276 110.734C16.4596 110.734 15.7663 110.564 15.1476 110.222C14.5396 109.87 14.0543 109.39 13.6916 108.782C13.3396 108.174 13.1636 107.492 13.1636 106.734C13.1636 105.977 13.3396 105.3 13.6916 104.702C14.0436 104.094 14.5183 103.614 15.1156 103.262C15.7236 102.91 16.3956 102.734 17.1316 102.734C17.8463 102.734 18.4756 102.9 19.0196 103.23C19.5743 103.561 20.0063 104.014 20.3156 104.59C20.6356 105.166 20.7956 105.822 20.7956 106.558C20.7956 106.686 20.7849 106.82 20.7636 106.958C20.7529 107.086 20.7316 107.23 20.6996 107.39H14.3956V105.95H19.7876L19.1316 106.526C19.1103 106.057 19.0196 105.662 18.8596 105.342C18.6996 105.022 18.4703 104.777 18.1716 104.606C17.8836 104.436 17.5263 104.35 17.0996 104.35C16.6516 104.35 16.2623 104.446 15.9316 104.638C15.6009 104.83 15.3449 105.102 15.1636 105.454C14.9823 105.796 14.8916 106.206 14.8916 106.686C14.8916 107.166 14.9876 107.588 15.1796 107.95C15.3716 108.313 15.6436 108.596 15.9956 108.798C16.3476 108.99 16.7529 109.086 17.2116 109.086C17.6063 109.086 17.9689 109.017 18.2996 108.878C18.6409 108.74 18.9289 108.537 19.1636 108.27L20.2836 109.406C19.9103 109.844 19.4569 110.174 18.9236 110.398C18.3903 110.622 17.8249 110.734 17.2276 110.734ZM23.075 110.574L23.075 101.566C23.075 101.054 23.187 100.601 23.411 100.206C23.6456 99.8009 23.9656 99.4809 24.371 99.2462C24.7763 99.0116 25.251 98.8942 25.795 98.8942C26.2003 98.8942 26.5523 98.9636 26.851 99.1022C27.1603 99.2302 27.4483 99.4169 27.715 99.6622L26.563 100.814C26.4563 100.729 26.339 100.665 26.211 100.622C26.0936 100.569 25.955 100.542 25.795 100.542C25.4856 100.542 25.2456 100.633 25.075 100.814C24.915 100.996 24.835 101.241 24.835 101.55L24.835 110.574H23.075ZM21.235 104.494V102.894H28.723V104.494H21.235ZM27.715 110.574L27.715 102.894H29.475L29.475 110.574H27.715ZM28.595 102.222C28.2963 102.222 28.0456 102.121 27.843 101.918C27.651 101.716 27.555 101.465 27.555 101.166C27.555 100.868 27.651 100.617 27.843 100.414C28.0456 100.212 28.2963 100.11 28.595 100.11C28.9043 100.11 29.155 100.212 29.347 100.414C29.539 100.617 29.635 100.868 29.635 101.166C29.635 101.465 29.539 101.716 29.347 101.918C29.155 102.121 28.9043 102.222 28.595 102.222ZM36.7048 110.574V106.142C36.7048 105.63 36.5395 105.209 36.2088 104.878C35.8888 104.548 35.4728 104.382 34.9608 104.382C34.6195 104.382 34.3155 104.457 34.0488 104.606C33.7822 104.756 33.5742 104.964 33.4248 105.23C33.2755 105.497 33.2008 105.801 33.2008 106.142L32.5128 105.758C32.5128 105.172 32.6408 104.654 32.8968 104.206C33.1528 103.748 33.5048 103.39 33.9528 103.134C34.4115 102.868 34.9235 102.734 35.4888 102.734C36.0648 102.734 36.5768 102.884 37.0248 103.182C37.4728 103.47 37.8248 103.849 38.0808 104.318C38.3368 104.777 38.4648 105.257 38.4648 105.758V110.574H36.7048ZM31.4408 110.574L31.4408 102.894H33.2008V110.574H31.4408ZM43.8213 110.734C43.0533 110.734 42.36 110.564 41.7413 110.222C41.1333 109.87 40.648 109.39 40.2853 108.782C39.9333 108.174 39.7573 107.492 39.7573 106.734C39.7573 105.977 39.9333 105.3 40.2853 104.702C40.6373 104.094 41.112 103.614 41.7093 103.262C42.3173 102.91 42.9893 102.734 43.7253 102.734C44.44 102.734 45.0693 102.9 45.6133 103.23C46.168 103.561 46.6 104.014 46.9093 104.59C47.2293 105.166 47.3893 105.822 47.3893 106.558C47.3893 106.686 47.3787 106.82 47.3573 106.958C47.3467 107.086 47.3253 107.23 47.2933 107.39H40.9893V105.95H46.3813L45.7253 106.526C45.704 106.057 45.6133 105.662 45.4533 105.342C45.2933 105.022 45.064 104.777 44.7653 104.606C44.4773 104.436 44.12 104.35 43.6933 104.35C43.2453 104.35 42.856 104.446 42.5253 104.638C42.1947 104.83 41.9387 105.102 41.7573 105.454C41.576 105.796 41.4853 106.206 41.4853 106.686C41.4853 107.166 41.5813 107.588 41.7733 107.95C41.9653 108.313 42.2373 108.596 42.5893 108.798C42.9413 108.99 43.3467 109.086 43.8053 109.086C44.2 109.086 44.5627 109.017 44.8933 108.878C45.2347 108.74 45.5227 108.537 45.7573 108.27L46.8773 109.406C46.504 109.844 46.0507 110.174 45.5173 110.398C44.984 110.622 44.4187 110.734 43.8213 110.734ZM53.5073 105.822V104.302H56.3393C56.9047 104.302 57.342 104.158 57.6513 103.87C57.9713 103.572 58.1313 103.161 58.1313 102.638C58.1313 102.169 57.9767 101.774 57.6673 101.454C57.358 101.134 56.9207 100.974 56.3553 100.974H53.5073V99.3742H56.4353C57.1393 99.3742 57.758 99.5182 58.2913 99.8062C58.8247 100.084 59.2353 100.468 59.5233 100.958C59.822 101.438 59.9713 101.988 59.9713 102.606C59.9713 103.257 59.822 103.822 59.5233 104.302C59.2353 104.782 58.8247 105.156 58.2913 105.422C57.758 105.689 57.1393 105.822 56.4353 105.822H53.5073ZM52.2433 110.574V99.3742H54.0833V110.574H52.2433ZM58.3873 110.574L54.4673 105.71L56.1793 105.086L60.7073 110.574H58.3873ZM65.1651 110.734C64.3971 110.734 63.7038 110.564 63.0851 110.222C62.4771 109.87 61.9918 109.39 61.6291 108.782C61.2771 108.174 61.1011 107.492 61.1011 106.734C61.1011 105.977 61.2771 105.3 61.6291 104.702C61.9811 104.094 62.4558 103.614 63.0531 103.262C63.6611 102.91 64.3331 102.734 65.0691 102.734C65.7838 102.734 66.4131 102.9 66.9571 103.23C67.5118 103.561 67.9438 104.014 68.2531 104.59C68.5731 105.166 68.7331 105.822 68.7331 106.558C68.7331 106.686 68.7224 106.82 68.7011 106.958C68.6904 107.086 68.6691 107.23 68.6371 107.39H62.3331V105.95H67.7251L67.0691 106.526C67.0478 106.057 66.9571 105.662 66.7971 105.342C66.6371 105.022 66.4078 104.777 66.1091 104.606C65.8211 104.436 65.4638 104.35 65.0371 104.35C64.5891 104.35 64.1998 104.446 63.8691 104.638C63.5384 104.83 63.2824 105.102 63.1011 105.454C62.9198 105.796 62.8291 106.206 62.8291 106.686C62.8291 107.166 62.9251 107.588 63.1171 107.95C63.3091 108.313 63.5811 108.596 63.9331 108.798C64.2851 108.99 64.6904 109.086 65.1491 109.086C65.5438 109.086 65.9064 109.017 66.2371 108.878C66.5784 108.74 66.8664 108.537 67.1011 108.27L68.2211 109.406C67.8478 109.844 67.3944 110.174 66.8611 110.398C66.3278 110.622 65.7624 110.734 65.1651 110.734ZM72.656 110.734C72.2293 110.734 71.8186 110.681 71.424 110.574C71.0293 110.457 70.6666 110.297 70.336 110.094C70.0053 109.881 69.7173 109.625 69.472 109.326L70.592 108.206C70.8586 108.516 71.1626 108.75 71.504 108.91C71.856 109.06 72.2506 109.134 72.688 109.134C73.0826 109.134 73.3813 109.076 73.584 108.958C73.7866 108.841 73.888 108.67 73.888 108.446C73.888 108.212 73.792 108.03 73.6 107.902C73.408 107.774 73.1573 107.668 72.848 107.582C72.5493 107.486 72.2293 107.39 71.888 107.294C71.5573 107.198 71.2373 107.07 70.928 106.91C70.6293 106.74 70.384 106.51 70.192 106.222C70 105.934 69.904 105.561 69.904 105.102C69.904 104.612 70.016 104.19 70.24 103.838C70.4746 103.486 70.8 103.214 71.216 103.022C71.6426 102.83 72.1493 102.734 72.736 102.734C73.3546 102.734 73.8986 102.846 74.368 103.07C74.848 103.284 75.248 103.609 75.568 104.046L74.448 105.166C74.224 104.889 73.968 104.681 73.68 104.542C73.392 104.404 73.0613 104.334 72.688 104.334C72.336 104.334 72.064 104.388 71.872 104.494C71.68 104.601 71.584 104.756 71.584 104.958C71.584 105.172 71.68 105.337 71.872 105.454C72.064 105.572 72.3093 105.673 72.608 105.758C72.9173 105.844 73.2373 105.94 73.568 106.046C73.9093 106.142 74.2293 106.281 74.528 106.462C74.8373 106.633 75.088 106.868 75.28 107.166C75.472 107.454 75.568 107.833 75.568 108.302C75.568 109.049 75.3066 109.641 74.784 110.078C74.2613 110.516 73.552 110.734 72.656 110.734ZM80.539 110.734C79.7923 110.734 79.115 110.558 78.507 110.206C77.899 109.844 77.4136 109.358 77.051 108.75C76.699 108.142 76.523 107.465 76.523 106.718C76.523 105.972 76.699 105.3 77.051 104.702C77.4136 104.105 77.899 103.63 78.507 103.278C79.115 102.916 79.7923 102.734 80.539 102.734C81.2963 102.734 81.979 102.91 82.587 103.262C83.195 103.614 83.675 104.094 84.027 104.702C84.3896 105.3 84.571 105.972 84.571 106.718C84.571 107.465 84.3896 108.142 84.027 108.75C83.675 109.358 83.195 109.844 82.587 110.206C81.979 110.558 81.2963 110.734 80.539 110.734ZM80.539 109.038C80.9763 109.038 81.3603 108.942 81.691 108.75C82.0323 108.548 82.2936 108.27 82.475 107.918C82.667 107.566 82.763 107.166 82.763 106.718C82.763 106.27 82.667 105.876 82.475 105.534C82.283 105.193 82.0216 104.926 81.691 104.734C81.3603 104.532 80.9763 104.43 80.539 104.43C80.1123 104.43 79.7283 104.532 79.387 104.734C79.0563 104.926 78.795 105.193 78.603 105.534C78.4216 105.876 78.331 106.27 78.331 106.718C78.331 107.166 78.4216 107.566 78.603 107.918C78.795 108.27 79.0563 108.548 79.387 108.75C79.7283 108.942 80.1123 109.038 80.539 109.038ZM89.1866 110.734C88.5359 110.734 87.9546 110.59 87.4426 110.302C86.9413 110.014 86.5466 109.62 86.2586 109.118C85.9813 108.606 85.8426 108.02 85.8426 107.358V102.894H87.6026V107.278C87.6026 107.652 87.6613 107.972 87.7786 108.238C87.9066 108.494 88.0879 108.692 88.3226 108.83C88.5679 108.969 88.8559 109.038 89.1866 109.038C89.6986 109.038 90.0879 108.889 90.3546 108.59C90.6319 108.281 90.7706 107.844 90.7706 107.278V102.894H92.5306V107.358C92.5306 108.03 92.3866 108.622 92.0986 109.134C91.8213 109.636 91.4319 110.03 90.9306 110.318C90.4293 110.596 89.8479 110.734 89.1866 110.734ZM94.3002 110.574V102.894H96.0602V110.574H94.3002ZM96.0602 106.302L95.4522 105.998C95.4522 105.028 95.6656 104.244 96.0922 103.646C96.5296 103.038 97.1856 102.734 98.0602 102.734C98.4442 102.734 98.7909 102.804 99.1002 102.942C99.4096 103.081 99.6976 103.305 99.9642 103.614L98.8122 104.798C98.6736 104.649 98.5189 104.542 98.3482 104.478C98.1776 104.414 97.9802 104.382 97.7562 104.382C97.2656 104.382 96.8602 104.537 96.5402 104.846C96.2202 105.156 96.0602 105.641 96.0602 106.302ZM104.117 110.734C103.36 110.734 102.672 110.558 102.053 110.206C101.445 109.854 100.965 109.374 100.613 108.766C100.261 108.158 100.085 107.481 100.085 106.734C100.085 105.977 100.261 105.3 100.613 104.702C100.965 104.094 101.445 103.614 102.053 103.262C102.672 102.91 103.36 102.734 104.117 102.734C104.715 102.734 105.269 102.852 105.781 103.086C106.304 103.31 106.747 103.636 107.109 104.062L105.957 105.23C105.733 104.964 105.461 104.766 105.141 104.638C104.832 104.5 104.491 104.43 104.117 104.43C103.68 104.43 103.291 104.532 102.949 104.734C102.619 104.926 102.357 105.193 102.165 105.534C101.984 105.876 101.893 106.276 101.893 106.734C101.893 107.182 101.984 107.582 102.165 107.934C102.357 108.276 102.619 108.548 102.949 108.75C103.291 108.942 103.68 109.038 104.117 109.038C104.491 109.038 104.832 108.974 105.141 108.846C105.461 108.708 105.733 108.505 105.957 108.238L107.109 109.406C106.747 109.833 106.304 110.164 105.781 110.398C105.269 110.622 104.715 110.734 104.117 110.734ZM111.79 110.734C111.022 110.734 110.329 110.564 109.71 110.222C109.102 109.87 108.617 109.39 108.254 108.782C107.902 108.174 107.726 107.492 107.726 106.734C107.726 105.977 107.902 105.3 108.254 104.702C108.606 104.094 109.081 103.614 109.678 103.262C110.286 102.91 110.958 102.734 111.694 102.734C112.409 102.734 113.038 102.9 113.582 103.23C114.137 103.561 114.569 104.014 114.878 104.59C115.198 105.166 115.358 105.822 115.358 106.558C115.358 106.686 115.347 106.82 115.326 106.958C115.315 107.086 115.294 107.23 115.262 107.39H108.958V105.95H114.35L113.694 106.526C113.673 106.057 113.582 105.662 113.422 105.342C113.262 105.022 113.033 104.777 112.734 104.606C112.446 104.436 112.089 104.35 111.662 104.35C111.214 104.35 110.825 104.446 110.494 104.638C110.163 104.83 109.907 105.102 109.726 105.454C109.545 105.796 109.454 106.206 109.454 106.686C109.454 107.166 109.55 107.588 109.742 107.95C109.934 108.313 110.206 108.596 110.558 108.798C110.91 108.99 111.315 109.086 111.774 109.086C112.169 109.086 112.531 109.017 112.862 108.878C113.203 108.74 113.491 108.537 113.726 108.27L114.846 109.406C114.473 109.844 114.019 110.174 113.486 110.398C112.953 110.622 112.387 110.734 111.79 110.734ZM119.281 110.734C118.854 110.734 118.444 110.681 118.049 110.574C117.654 110.457 117.292 110.297 116.961 110.094C116.63 109.881 116.342 109.625 116.097 109.326L117.217 108.206C117.484 108.516 117.788 108.75 118.129 108.91C118.481 109.06 118.876 109.134 119.313 109.134C119.708 109.134 120.006 109.076 120.209 108.958C120.412 108.841 120.513 108.67 120.513 108.446C120.513 108.212 120.417 108.03 120.225 107.902C120.033 107.774 119.782 107.668 119.473 107.582C119.174 107.486 118.854 107.39 118.513 107.294C118.182 107.198 117.862 107.07 117.553 106.91C117.254 106.74 117.009 106.51 116.817 106.222C116.625 105.934 116.529 105.561 116.529 105.102C116.529 104.612 116.641 104.19 116.865 103.838C117.1 103.486 117.425 103.214 117.841 103.022C118.268 102.83 118.774 102.734 119.361 102.734C119.98 102.734 120.524 102.846 120.993 103.07C121.473 103.284 121.873 103.609 122.193 104.046L121.073 105.166C120.849 104.889 120.593 104.681 120.305 104.542C120.017 104.404 119.686 104.334 119.313 104.334C118.961 104.334 118.689 104.388 118.497 104.494C118.305 104.601 118.209 104.756 118.209 104.958C118.209 105.172 118.305 105.337 118.497 105.454C118.689 105.572 118.934 105.673 119.233 105.758C119.542 105.844 119.862 105.94 120.193 106.046C120.534 106.142 120.854 106.281 121.153 106.462C121.462 106.633 121.713 106.868 121.905 107.166C122.097 107.454 122.193 107.833 122.193 108.302C122.193 109.049 121.932 109.641 121.409 110.078C120.886 110.516 120.177 110.734 119.281 110.734Z" fill="#E49B00"/>
<path fill-rule="evenodd" clip-rule="evenodd" d="M43.6301 31.0761C43.5139 31.1237 43.3237 31.2681 43.2074 31.3971C43.0104 31.6159 42.9961 31.7803 42.9961 33.829C42.9961 35.9967 42.9995 36.0298 43.2472 36.2933C43.7392 36.8168 44.5937 36.7373 44.9032 36.1394C45.1032 35.753 45.1257 31.9819 44.9305 31.554C44.7193 31.091 44.1266 30.8731 43.6301 31.0761ZM35.329 34.9646C34.878 35.1895 34.6595 35.6148 34.7591 36.0736C34.8409 36.4507 36.6397 38.3716 37.1703 38.6485C37.8452 39.0006 38.6586 38.4957 38.6586 37.7247C38.6586 37.3316 38.5861 37.2349 37.4457 36.1064C36.769 35.4368 36.1136 34.879 35.963 34.8447C35.8036 34.8082 35.544 34.8574 35.329 34.9646ZM51.9785 34.8507C51.649 34.928 49.4166 37.1915 49.3556 37.5103C49.2239 38.1985 49.9075 38.8755 50.586 38.729C51.0627 38.626 53.0515 36.6648 53.2078 36.1436C53.3595 35.6377 53.1132 35.1372 52.6089 34.9267C52.4112 34.8442 52.236 34.7822 52.2196 34.7889C52.2032 34.7957 52.0947 34.8234 51.9785 34.8507ZM43.6301 38.1489C42.9873 38.4118 42.7837 39.2842 43.2495 39.7796C44.0855 40.6686 45.4386 39.7408 44.9305 38.6268C44.7193 38.1638 44.1266 37.9459 43.6301 38.1489ZM42.5472 42.2792C39.0424 42.6177 35.7962 44.1026 33.2524 46.5308C31.4989 48.2046 30.1662 50.1912 29.3662 52.3233L29.1795 52.8213L28.6013 52.4077C27.7838 51.823 27.1139 51.6163 26.0352 51.6163C24.9555 51.6163 24.2866 51.823 23.4662 52.4098C22.2364 53.2895 21.6975 54.3859 21.6216 56.1623C21.569 57.3954 21.7007 58.1198 22.1312 58.9626L22.3291 59.3501L21.8308 59.4753C20.3503 59.8478 18.5202 61.349 17.7731 62.8041C17.0969 64.1213 17.0053 64.5834 17.0025 66.6925L17 68.5752L17.2886 68.8234C17.6932 69.1714 18.1226 69.2102 21.1402 69.1719C23.6337 69.1401 23.8194 69.1243 24.0925 68.9204C24.6389 68.5125 24.6795 67.8269 24.1864 67.3343C23.9315 67.0797 23.9296 67.0795 21.4959 67.0795H19.0607L19.0625 66.3669C19.0675 64.4073 19.8585 62.8982 21.3704 61.9634C22.2945 61.3921 22.5801 61.3492 25.7795 61.3012L28.7468 61.2565L28.941 61.9729C29.234 63.0543 29.6876 64.1722 30.2796 65.2719L30.8125 66.2619L24.535 72.5559C19.787 77.3163 18.1995 78.971 18.0199 79.3469C16.9086 81.6711 18.2974 84.4312 20.8259 84.9234C21.6843 85.0905 22.4599 84.9861 23.2965 84.5909C23.8855 84.3126 24.4048 83.8399 27.494 80.7699C29.4329 78.843 31.0867 77.1382 31.1691 76.9815C31.3893 76.5627 31.353 76.2146 31.0519 75.8572C30.7378 75.4843 30.3148 75.3646 29.8843 75.5269C29.7131 75.5914 27.9728 77.2377 25.9824 79.2179C22.8637 82.3206 22.3371 82.802 21.9932 82.865C20.5828 83.1235 19.4461 81.9302 19.8039 80.567C19.909 80.1667 20.5959 79.4426 26.0016 74.0344L32.081 67.952L32.9946 68.8643C34.1666 70.0347 35.6115 71.0671 37.0783 71.7823C39.3225 72.8765 40.9994 73.292 43.5245 73.3795C45.5387 73.4494 47.1282 73.2259 48.9519 72.6163C53.8294 70.9858 57.7297 66.8785 59.059 61.9729L59.2531 61.2565L62.2205 61.3012C65.4199 61.3492 65.7055 61.3921 66.6296 61.9634C68.1415 62.8982 68.9325 64.4073 68.9375 66.3669L68.9393 67.0795H63.7565H58.5736L58.3185 67.3343C57.8253 67.827 57.866 68.5126 58.4125 68.9204C58.6967 69.1325 58.8417 69.1388 64.1123 69.1702C67.0868 69.188 69.7236 69.1731 69.9717 69.1371C70.2198 69.1012 70.5527 68.96 70.7114 68.8234L71 68.5752L70.9975 66.6925C70.9947 64.5834 70.9031 64.1213 70.2269 62.8041C69.4798 61.349 67.6497 59.8478 66.1692 59.4753L65.6709 59.3501L65.8688 58.9626C66.2993 58.1198 66.431 57.3954 66.3784 56.1623C66.3025 54.3859 65.7636 53.2895 64.5338 52.4098C63.7134 51.823 63.0445 51.6163 61.9648 51.6163C60.8861 51.6163 60.2162 51.823 59.3987 52.4077L58.8205 52.8213L58.6338 52.3233C57.8338 50.1912 56.5011 48.2046 54.7476 46.5308C52.1553 44.0562 48.9923 42.6278 45.3209 42.2736C44.1308 42.1588 43.7862 42.1595 42.5472 42.2792ZM46.6666 44.6058C53.8759 46.027 58.6674 53.1298 57.273 60.3284C56.2249 65.7387 52.1149 69.8866 46.6419 71.0572C45.3877 71.3254 42.6123 71.3254 41.3581 71.0572C31.4305 68.9337 27.1915 57.4775 33.3823 49.5016C36.4908 45.4967 41.6118 43.6094 46.6666 44.6058ZM42.7319 46.5099C38.3962 46.9589 34.5846 50.0462 33.179 54.2476C31.3284 59.7786 34.1039 65.9469 39.4863 68.265C41.1014 68.9606 41.9931 69.1318 44 69.1318C45.4391 69.1318 45.9027 69.0918 46.6542 68.9027C53.1424 67.2702 56.9138 60.5026 54.821 54.2476C53.6307 50.6898 50.7341 47.9155 47.1144 46.8663C46.3796 46.6532 44.2897 46.3614 43.7967 46.4028C43.7051 46.4105 43.2259 46.4587 42.7319 46.5099ZM46.1981 48.8221C49.3945 49.5669 51.9374 52.0196 52.9467 55.3314C53.1979 56.1554 53.2294 56.4301 53.2285 57.7898C53.2273 59.4844 53.0624 60.3195 52.4713 61.6217C52.1404 62.3508 51.4266 63.4939 51.3078 63.4853C51.2698 63.4826 51.0723 63.2431 50.8689 62.9529C50.2815 62.1151 48.9474 61.0058 47.8776 60.4656L47.264 60.1558L47.4664 59.8964C48.0499 59.1487 48.3297 58.1928 48.3314 56.9411C48.3344 54.8542 47.4719 53.3682 45.7965 52.5735C45.1644 52.2736 45.0209 52.2476 44 52.2476C42.9791 52.2476 42.8356 52.2736 42.2035 52.5735C40.5281 53.3682 39.6656 54.8542 39.6686 56.9411C39.6703 58.1928 39.9501 59.1487 40.5336 59.8964L40.736 60.1558L40.1224 60.4656C39.0526 61.0058 37.7185 62.1151 37.1311 62.9529C36.9277 63.2431 36.7302 63.4826 36.6922 63.4853C36.5734 63.4939 35.8596 62.3508 35.5287 61.6217C34.9376 60.3195 34.7727 59.4844 34.7715 57.7898C34.7707 56.4301 34.8021 56.1554 35.0533 55.3314C36.5507 50.4182 41.2555 47.6704 46.1981 48.8221ZM27.0593 53.9402C27.9835 54.4002 28.3601 55.1313 28.3601 56.4651C28.3601 57.2215 28.3191 57.4218 28.0648 57.908C27.6382 58.7237 26.9868 59.1094 26.0352 59.1094C25.0777 59.1094 24.4332 58.7249 23.9973 57.8938C23.7139 57.3534 23.6959 57.2472 23.7284 56.3031C23.7597 55.3943 23.7955 55.2394 24.0818 54.7772C24.7158 53.7538 25.9743 53.4 27.0593 53.9402ZM63.1936 54.0501C63.9699 54.5294 64.2896 55.2202 64.2896 56.4175C64.2896 57.2261 64.2522 57.415 63.9944 57.908C63.5678 58.7237 62.9164 59.1094 61.9648 59.1094C61.0132 59.1094 60.3618 58.7237 59.9352 57.908C59.6809 57.4218 59.6399 57.2215 59.6399 56.4651C59.6399 55.982 59.6901 55.4529 59.7515 55.2895C60.3003 53.8279 61.9008 53.2516 63.1936 54.0501ZM44.7802 54.407C45.2313 54.5784 45.8811 55.247 46.0656 55.7297C46.194 56.0654 46.2314 56.4297 46.204 57.0773C46.1715 57.8432 46.1227 58.0355 45.8484 58.4786C45.6282 58.8343 45.3775 59.0708 45.0334 59.2477C43.987 59.7857 42.7577 59.4576 42.1516 58.4786C41.8773 58.0355 41.8285 57.8432 41.796 57.0773C41.7399 55.7528 42.1298 54.9747 43.1018 54.4716C43.4562 54.2881 44.3741 54.2527 44.7802 54.407ZM45.395 61.8132C46.0292 61.9462 47.3479 62.523 47.7803 62.8566C48.3785 63.3179 49.2095 64.1931 49.4689 64.6349L49.7381 65.0934L49.4317 65.3455C48.9439 65.7467 47.08 66.6238 46.272 66.8322C45.7242 66.9735 45.1347 67.023 44 67.023C42.8653 67.023 42.2758 66.9735 41.728 66.8322C40.92 66.6238 39.0561 65.7467 38.5683 65.3455L38.2619 65.0934L38.5311 64.6349C38.7898 64.1943 39.6215 63.3179 40.2155 62.8599C40.6247 62.5443 41.8411 61.9939 42.4626 61.8431C43.1457 61.6773 44.6731 61.6617 45.395 61.8132ZM32.8284 72.6442C32.4642 72.7126 32.0587 73.2653 32.0587 73.6935C32.0587 74.5078 33.149 75.0053 33.7361 74.4589C34.5546 73.697 33.925 72.4383 32.8284 72.6442Z" fill="#E49B00"/>
</svg>
