<svg width="155" height="115" viewBox="0 0 155 115" fill="none" xmlns="http://www.w3.org/2000/svg">
<path d="M31.4948 78.9855C26.1514 78.9855 21.3109 77.5396 16.9733 74.6479C12.6356 71.7561 9.20957 67.7329 6.69501 62.578C4.24331 57.3603 3.01747 51.3568 3.01747 44.5675C3.01747 37.7153 4.24331 31.7433 6.69501 26.6513C9.1467 21.4964 12.5099 17.5046 16.7847 14.6757C21.0594 11.784 25.8999 10.3381 31.3062 10.3381C36.7754 10.3381 41.6474 11.784 45.9221 14.6757C50.1968 17.5046 53.5601 21.4964 56.0118 26.6513C58.5263 31.8061 59.7836 37.8096 59.7836 44.6618C59.7836 51.514 58.5263 57.5175 56.0118 62.6723C53.5601 67.8272 50.1968 71.8504 45.9221 74.7422C41.7102 77.5711 36.9011 78.9855 31.4948 78.9855ZM31.4005 65.8784C34.1665 65.8784 36.5554 65.0926 38.567 63.521C40.5787 61.8865 42.1188 59.4977 43.1875 56.3545C44.3191 53.1484 44.8848 49.2509 44.8848 44.6618C44.8848 40.0099 44.3191 36.1123 43.1875 32.9691C42.1188 29.8259 40.5787 27.4685 38.567 25.8969C36.5554 24.2625 34.1351 23.4452 31.3062 23.4452C28.6031 23.4452 26.2143 24.231 24.1397 25.8026C22.1281 27.3742 20.5879 29.7316 19.5192 32.8748C18.4506 36.018 17.9162 39.9156 17.9162 44.5675C17.9162 49.2194 18.4506 53.117 19.5192 56.2602C20.5879 59.4034 22.1281 61.7922 24.1397 63.4267C26.2143 65.0611 28.6345 65.8784 31.4005 65.8784ZM86.6594 78.9855C82.0703 78.9855 77.8584 78.1997 74.0237 76.6281C70.189 74.9936 66.9516 72.6677 64.3113 69.6502L73.8352 60.1263C75.0296 61.8865 76.7583 63.3324 79.0214 64.4639C81.3474 65.5326 83.7991 66.067 86.3765 66.067C88.7025 66.067 90.7141 65.6583 92.4114 64.8411C94.1088 64.0239 95.4289 62.8609 96.3719 61.3522C97.3777 59.8434 97.8806 58.0518 97.8806 55.9773C97.8806 53.9028 97.3777 52.1426 96.3719 50.6967C95.4289 49.188 94.0145 48.025 92.1286 47.2078C90.3055 46.3906 88.1053 45.9819 85.5278 45.9819C84.3334 45.9819 83.0761 46.0762 81.756 46.2648C80.4987 46.3906 79.43 46.6106 78.5499 46.9249L85.0564 38.7212C86.8166 38.2182 88.4824 37.8096 90.054 37.4953C91.6885 37.1181 93.1972 36.9295 94.5802 36.9295C97.9749 36.9295 101.024 37.7468 103.727 39.3812C106.43 40.9528 108.567 43.2159 110.139 46.1705C111.774 49.0623 112.591 52.5198 112.591 56.5431C112.591 60.9436 111.491 64.8411 109.29 68.2358C107.153 71.6304 104.136 74.2707 100.238 76.1566C96.4033 78.0425 91.8771 78.9855 86.6594 78.9855ZM78.5499 46.9249L78.5499 38.7212L94.7688 19.6734L111.365 19.5791L94.486 38.8154L78.5499 46.9249ZM68.4603 23.9167V11.3753L111.365 11.3753V19.5791L99.7665 23.9167L68.4603 23.9167Z" fill="#E49B00" fill-opacity="0.08"/>
<path d="M4.60272 110.394L4.60272 99.1936H6.44272L6.44272 110.394H4.60272ZM5.86672 105.594V103.914H11.5627V105.594H5.86672ZM5.86672 100.874V99.1936H11.8347L11.8347 100.874H5.86672ZM13.4412 110.394V102.714H15.2012V110.394H13.4412ZM14.3212 101.306C14.0226 101.306 13.7719 101.204 13.5692 101.002C13.3772 100.799 13.2812 100.548 13.2812 100.25C13.2812 99.9509 13.3772 99.7002 13.5692 99.4976C13.7719 99.2949 14.0226 99.1936 14.3212 99.1936C14.6306 99.1936 14.8812 99.2949 15.0732 99.4976C15.2652 99.7002 15.3612 99.9509 15.3612 100.25C15.3612 100.548 15.2652 100.799 15.0732 101.002C14.8812 101.204 14.6306 101.306 14.3212 101.306ZM22.4392 110.394V105.962C22.4392 105.45 22.2739 105.028 21.9432 104.698C21.6232 104.367 21.2072 104.202 20.6952 104.202C20.3539 104.202 20.0499 104.276 19.7832 104.426C19.5166 104.575 19.3086 104.783 19.1592 105.05C19.0099 105.316 18.9352 105.62 18.9352 105.962L18.2472 105.578C18.2472 104.991 18.3752 104.474 18.6312 104.026C18.8872 103.567 19.2392 103.21 19.6872 102.954C20.1459 102.687 20.6579 102.554 21.2232 102.554C21.7992 102.554 22.3112 102.703 22.7592 103.002C23.2072 103.29 23.5592 103.668 23.8152 104.138C24.0712 104.596 24.1992 105.076 24.1992 105.578V110.394H22.4392ZM17.1752 110.394V102.714H18.9352V110.394H17.1752ZM29.2037 110.554C28.5104 110.554 27.8811 110.378 27.3157 110.026C26.7611 109.674 26.3184 109.199 25.9877 108.602C25.6677 107.994 25.5077 107.316 25.5077 106.57C25.5077 105.812 25.6677 105.135 25.9877 104.538C26.3184 103.93 26.7611 103.45 27.3157 103.098C27.8811 102.735 28.5104 102.554 29.2037 102.554C29.7904 102.554 30.3077 102.682 30.7557 102.938C31.2144 103.183 31.5771 103.524 31.8437 103.962C32.1104 104.399 32.2437 104.895 32.2437 105.45V107.658C32.2437 108.212 32.1104 108.708 31.8437 109.146C31.5877 109.583 31.2304 109.93 30.7717 110.186C30.3131 110.431 29.7904 110.554 29.2037 110.554ZM29.4917 108.89C30.1424 108.89 30.6651 108.671 31.0597 108.234C31.4651 107.796 31.6677 107.236 31.6677 106.554C31.6677 106.095 31.5771 105.69 31.3957 105.338C31.2144 104.986 30.9584 104.714 30.6277 104.522C30.3077 104.319 29.9291 104.218 29.4917 104.218C29.0651 104.218 28.6864 104.319 28.3557 104.522C28.0357 104.714 27.7797 104.986 27.5877 105.338C27.4064 105.69 27.3157 106.095 27.3157 106.554C27.3157 107.012 27.4064 107.418 27.5877 107.77C27.7797 108.122 28.0357 108.399 28.3557 108.602C28.6864 108.794 29.0651 108.89 29.4917 108.89ZM31.5557 110.394V108.33L31.8597 106.458L31.5557 104.602V102.714H33.3157V110.394H31.5557ZM35.269 110.394V98.8736H37.029V110.394H35.269ZM39.0037 110.394V102.714H40.7637V110.394H39.0037ZM39.8837 101.306C39.5851 101.306 39.3344 101.204 39.1317 101.002C38.9397 100.799 38.8437 100.548 38.8437 100.25C38.8437 99.9509 38.9397 99.7002 39.1317 99.4976C39.3344 99.2949 39.5851 99.1936 39.8837 99.1936C40.1931 99.1936 40.4437 99.2949 40.6357 99.4976C40.8277 99.7002 40.9237 99.9509 40.9237 100.25C40.9237 100.548 40.8277 100.799 40.6357 101.002C40.4437 101.204 40.1931 101.306 39.8837 101.306ZM42.1617 109.434L46.4497 103.674H48.5137L44.2257 109.434H42.1617ZM42.1617 110.394V109.434L43.7617 108.794H48.4177V110.394H42.1617ZM42.4497 104.314V102.714H48.5137V103.674L46.9137 104.314H42.4497ZM53.3995 110.554C52.6315 110.554 51.9381 110.383 51.3195 110.042C50.7115 109.69 50.2261 109.21 49.8635 108.602C49.5115 107.994 49.3355 107.311 49.3355 106.554C49.3355 105.796 49.5115 105.119 49.8635 104.522C50.2155 103.914 50.6901 103.434 51.2875 103.082C51.8955 102.73 52.5675 102.554 53.3035 102.554C54.0181 102.554 54.6475 102.719 55.1915 103.05C55.7461 103.38 56.1781 103.834 56.4875 104.41C56.8075 104.986 56.9675 105.642 56.9675 106.378C56.9675 106.506 56.9568 106.639 56.9355 106.778C56.9248 106.906 56.9035 107.05 56.8715 107.21L50.5675 107.21V105.77L55.9595 105.77L55.3035 106.346C55.2821 105.876 55.1915 105.482 55.0315 105.162C54.8715 104.842 54.6421 104.596 54.3435 104.426C54.0555 104.255 53.6981 104.17 53.2715 104.17C52.8235 104.17 52.4341 104.266 52.1035 104.458C51.7728 104.65 51.5168 104.922 51.3355 105.274C51.1541 105.615 51.0635 106.026 51.0635 106.506C51.0635 106.986 51.1595 107.407 51.3515 107.77C51.5435 108.132 51.8155 108.415 52.1675 108.618C52.5195 108.81 52.9248 108.906 53.3835 108.906C53.7781 108.906 54.1408 108.836 54.4715 108.698C54.8128 108.559 55.1008 108.356 55.3355 108.09L56.4555 109.226C56.0821 109.663 55.6288 109.994 55.0955 110.218C54.5621 110.442 53.9968 110.554 53.3995 110.554ZM61.8215 110.394V99.1936H63.6615V110.394H61.8215ZM68.9415 110.394V99.1936H70.7815V110.394H68.9415ZM63.0855 105.434V103.754H69.3415V105.434H63.0855ZM76.4921 110.554C75.7454 110.554 75.0681 110.378 74.4601 110.026C73.8521 109.663 73.3668 109.178 73.0041 108.57C72.6521 107.962 72.4761 107.284 72.4761 106.538C72.4761 105.791 72.6521 105.119 73.0041 104.522C73.3668 103.924 73.8521 103.45 74.4601 103.098C75.0681 102.735 75.7454 102.554 76.4921 102.554C77.2494 102.554 77.9321 102.73 78.5401 103.082C79.1481 103.434 79.6281 103.914 79.9801 104.522C80.3428 105.119 80.5241 105.791 80.5241 106.538C80.5241 107.284 80.3428 107.962 79.9801 108.57C79.6281 109.178 79.1481 109.663 78.5401 110.026C77.9321 110.378 77.2494 110.554 76.4921 110.554ZM76.4921 108.858C76.9294 108.858 77.3134 108.762 77.6441 108.57C77.9854 108.367 78.2468 108.09 78.4281 107.738C78.6201 107.386 78.7161 106.986 78.7161 106.538C78.7161 106.09 78.6201 105.695 78.4281 105.354C78.2361 105.012 77.9748 104.746 77.6441 104.554C77.3134 104.351 76.9294 104.25 76.4921 104.25C76.0654 104.25 75.6814 104.351 75.3401 104.554C75.0094 104.746 74.7481 105.012 74.5561 105.354C74.3748 105.695 74.2841 106.09 74.2841 106.538C74.2841 106.986 74.3748 107.386 74.5561 107.738C74.7481 108.09 75.0094 108.367 75.3401 108.57C75.6814 108.762 76.0654 108.858 76.4921 108.858ZM85.1397 110.554C84.4891 110.554 83.9077 110.41 83.3957 110.122C82.8944 109.834 82.4997 109.439 82.2117 108.938C81.9344 108.426 81.7957 107.839 81.7957 107.178V102.714H83.5557V107.098C83.5557 107.471 83.6144 107.791 83.7317 108.058C83.8597 108.314 84.0411 108.511 84.2757 108.65C84.5211 108.788 84.8091 108.858 85.1397 108.858C85.6517 108.858 86.0411 108.708 86.3077 108.41C86.5851 108.1 86.7237 107.663 86.7237 107.098V102.714H88.4837V107.178C88.4837 107.85 88.3397 108.442 88.0517 108.954C87.7744 109.455 87.3851 109.85 86.8837 110.138C86.3824 110.415 85.8011 110.554 85.1397 110.554ZM90.2533 110.394V102.714H92.0133V110.394H90.2533ZM92.0133 106.122L91.4053 105.818C91.4053 104.847 91.6187 104.063 92.0453 103.466C92.4827 102.858 93.1387 102.554 94.0133 102.554C94.3973 102.554 94.744 102.623 95.0533 102.762C95.3627 102.9 95.6507 103.124 95.9173 103.434L94.7653 104.618C94.6267 104.468 94.472 104.362 94.3013 104.298C94.1307 104.234 93.9333 104.202 93.7093 104.202C93.2187 104.202 92.8133 104.356 92.4933 104.666C92.1733 104.975 92.0133 105.46 92.0133 106.122ZM99.1091 110.554C98.6824 110.554 98.2718 110.5 97.8771 110.394C97.4824 110.276 97.1198 110.116 96.7891 109.914C96.4584 109.7 96.1704 109.444 95.9251 109.146L97.0451 108.026C97.3118 108.335 97.6158 108.57 97.9571 108.73C98.3091 108.879 98.7038 108.954 99.1411 108.954C99.5358 108.954 99.8344 108.895 100.037 108.778C100.24 108.66 100.341 108.49 100.341 108.266C100.341 108.031 100.245 107.85 100.053 107.722C99.8611 107.594 99.6104 107.487 99.3011 107.402C99.0024 107.306 98.6824 107.21 98.3411 107.114C98.0104 107.018 97.6904 106.89 97.3811 106.73C97.0824 106.559 96.8371 106.33 96.6451 106.042C96.4531 105.754 96.3571 105.38 96.3571 104.922C96.3571 104.431 96.4691 104.01 96.6931 103.658C96.9278 103.306 97.2531 103.034 97.6691 102.842C98.0958 102.65 98.6024 102.554 99.1891 102.554C99.8078 102.554 100.352 102.666 100.821 102.89C101.301 103.103 101.701 103.428 102.021 103.866L100.901 104.986C100.677 104.708 100.421 104.5 100.133 104.362C99.8451 104.223 99.5144 104.154 99.1411 104.154C98.7891 104.154 98.5171 104.207 98.3251 104.314C98.1331 104.42 98.0371 104.575 98.0371 104.778C98.0371 104.991 98.1331 105.156 98.3251 105.274C98.5171 105.391 98.7624 105.492 99.0611 105.578C99.3704 105.663 99.6904 105.759 100.021 105.866C100.362 105.962 100.682 106.1 100.981 106.282C101.29 106.452 101.541 106.687 101.733 106.986C101.925 107.274 102.021 107.652 102.021 108.122C102.021 108.868 101.76 109.46 101.237 109.898C100.714 110.335 100.005 110.554 99.1091 110.554ZM108.179 110.394V108.794H111.395C111.961 108.794 112.398 108.618 112.707 108.266C113.017 107.914 113.171 107.508 113.171 107.05C113.171 106.74 113.102 106.452 112.963 106.186C112.825 105.919 112.622 105.706 112.355 105.546C112.089 105.386 111.769 105.306 111.395 105.306H108.179V103.706H111.123C111.603 103.706 111.987 103.583 112.275 103.338C112.563 103.092 112.707 102.73 112.707 102.25C112.707 101.77 112.563 101.407 112.275 101.162C111.987 100.916 111.603 100.794 111.123 100.794H108.179V99.1936H111.171C111.929 99.1936 112.558 99.3322 113.059 99.6096C113.561 99.8869 113.934 100.244 114.179 100.682C114.425 101.119 114.547 101.588 114.547 102.09C114.547 102.676 114.382 103.194 114.051 103.642C113.731 104.09 113.257 104.452 112.627 104.73L112.771 104.154C113.475 104.442 114.025 104.847 114.419 105.37C114.814 105.892 115.011 106.506 115.011 107.21C115.011 107.786 114.867 108.314 114.579 108.794C114.302 109.274 113.886 109.663 113.331 109.962C112.787 110.25 112.115 110.394 111.315 110.394H108.179ZM106.915 110.394V99.1936H108.755V110.394H106.915ZM119.78 110.554C119.13 110.554 118.548 110.41 118.036 110.122C117.535 109.834 117.14 109.439 116.852 108.938C116.575 108.426 116.436 107.839 116.436 107.178V102.714H118.196V107.098C118.196 107.471 118.255 107.791 118.372 108.058C118.5 108.314 118.682 108.511 118.916 108.65C119.162 108.788 119.45 108.858 119.78 108.858C120.292 108.858 120.682 108.708 120.948 108.41C121.226 108.1 121.364 107.663 121.364 107.098V102.714H123.124V107.178C123.124 107.85 122.98 108.442 122.692 108.954C122.415 109.455 122.026 109.85 121.524 110.138C121.023 110.415 120.442 110.554 119.78 110.554ZM128.43 110.554C127.673 110.554 126.985 110.378 126.366 110.026C125.758 109.674 125.278 109.194 124.926 108.586C124.574 107.978 124.398 107.3 124.398 106.554C124.398 105.796 124.574 105.119 124.926 104.522C125.278 103.914 125.758 103.434 126.366 103.082C126.985 102.73 127.673 102.554 128.43 102.554C129.027 102.554 129.582 102.671 130.094 102.906C130.617 103.13 131.059 103.455 131.422 103.882L130.27 105.05C130.046 104.783 129.774 104.586 129.454 104.458C129.145 104.319 128.803 104.25 128.43 104.25C127.993 104.25 127.603 104.351 127.262 104.554C126.931 104.746 126.67 105.012 126.478 105.354C126.297 105.695 126.206 106.095 126.206 106.554C126.206 107.002 126.297 107.402 126.478 107.754C126.67 108.095 126.931 108.367 127.262 108.57C127.603 108.762 127.993 108.858 128.43 108.858C128.803 108.858 129.145 108.794 129.454 108.666C129.774 108.527 130.046 108.324 130.27 108.058L131.422 109.226C131.059 109.652 130.617 109.983 130.094 110.218C129.582 110.442 129.027 110.554 128.43 110.554ZM137.571 110.394L134.323 106.474L137.555 102.714H139.651L135.939 106.938L136.019 105.93L139.811 110.394H137.571ZM132.691 110.394V98.8736L134.451 98.8736V110.394H132.691ZM144.04 110.554C143.272 110.554 142.579 110.383 141.96 110.042C141.352 109.69 140.867 109.21 140.504 108.602C140.152 107.994 139.976 107.311 139.976 106.554C139.976 105.796 140.152 105.119 140.504 104.522C140.856 103.914 141.331 103.434 141.928 103.082C142.536 102.73 143.208 102.554 143.944 102.554C144.659 102.554 145.288 102.719 145.832 103.05C146.387 103.38 146.819 103.834 147.128 104.41C147.448 104.986 147.608 105.642 147.608 106.378C147.608 106.506 147.597 106.639 147.576 106.778C147.565 106.906 147.544 107.05 147.512 107.21H141.208V105.77H146.6L145.944 106.346C145.923 105.876 145.832 105.482 145.672 105.162C145.512 104.842 145.283 104.596 144.984 104.426C144.696 104.255 144.339 104.17 143.912 104.17C143.464 104.17 143.075 104.266 142.744 104.458C142.413 104.65 142.157 104.922 141.976 105.274C141.795 105.615 141.704 106.026 141.704 106.506C141.704 106.986 141.8 107.407 141.992 107.77C142.184 108.132 142.456 108.415 142.808 108.618C143.16 108.81 143.565 108.906 144.024 108.906C144.419 108.906 144.781 108.836 145.112 108.698C145.453 108.559 145.741 108.356 145.976 108.09L147.096 109.226C146.723 109.663 146.269 109.994 145.736 110.218C145.203 110.442 144.637 110.554 144.04 110.554ZM149.999 110.394V99.5136H151.759V110.394H149.999ZM148.159 104.314V102.714H153.599V104.314H148.159Z" fill="#E49B00"/>
<path fill-rule="evenodd" clip-rule="evenodd" d="M27.4378 30.1159C19.9178 30.8309 12.9142 34.5895 8.19661 40.4421C-0.0304544 50.6483 -0.0693078 65.2433 8.10347 75.4556C9.76324 77.5296 12.2669 79.8336 14.4418 81.2885C20.5251 85.358 27.931 86.8668 35.2086 85.5193C42.6039 84.1499 49.0982 79.8297 53.379 73.4314C54.3178 72.0282 55.7293 69.2379 56.3321 67.5932C58.4401 61.8422 58.5545 55.2485 56.6493 49.3359C55.7739 46.6195 53.6109 42.4173 52.8893 42.0312C52.516 41.8315 51.9334 41.9005 51.6045 42.1832C51.3526 42.3999 51.2987 42.5326 51.3047 42.9218C51.3108 43.3063 51.432 43.5832 51.9443 44.3811C54.2327 47.9457 55.6233 52.5027 55.8006 57.0188C56.2768 69.1406 48.1375 80.0445 36.3964 83.0137C34.086 83.598 32.6841 83.7627 30.0098 83.7638C27.3562 83.7649 25.9895 83.6023 23.6018 83.0017C14.5418 80.7229 7.31556 73.5022 5.0061 64.4201C4.40765 62.0666 4.24161 60.6727 4.24161 58.0035C4.24161 55.3344 4.40765 53.9404 5.0061 51.587C7.6601 41.1501 16.5791 33.4777 27.4378 32.2906C29.8319 32.0287 33.1601 32.2297 35.6232 32.7847C38.4185 33.4145 41.6549 34.7692 43.9644 36.276C45.2045 37.085 45.6526 37.1821 46.151 36.7492C46.5241 36.4251 46.6319 35.7895 46.379 35.4038C46.0266 34.8661 43.4839 33.3542 41.2729 32.3676C37.0767 30.4952 32.0508 29.6774 27.4378 30.1159ZM27.5473 35.3178C19.6285 36.2903 12.967 40.9773 9.53384 47.9919C7.93164 51.2655 7.2442 54.2817 7.24529 58.0346C7.24606 61.0473 7.70596 63.5717 8.73378 66.2047C11.7637 73.967 18.701 79.4544 26.9217 80.5916C28.5253 80.8133 31.4898 80.8137 33.098 80.5923C36.4955 80.1246 39.662 78.9379 42.4869 77.0738C48.1501 73.3367 51.8387 67.4022 52.6647 60.6986C52.7305 60.165 52.7844 58.9522 52.7844 58.0035C52.7844 54.3574 52.0883 51.2905 50.5369 48.1013C47.1218 41.0807 40.4722 36.3177 32.7489 35.3597C31.8929 35.2536 28.3059 35.2247 27.5473 35.3178ZM33.2385 37.6493C35.4678 38.0162 37.236 38.5857 39.2034 39.5703C44.4866 42.2143 48.3416 46.9137 49.9265 52.6421C50.8234 55.8839 50.8234 60.1232 49.9265 63.365C47.7228 71.3294 41.0858 77.209 32.9509 78.4032C31.4345 78.6259 28.5852 78.6259 27.0688 78.4032C18.0259 77.0758 10.9324 69.9842 9.60455 60.9438C9.38182 59.4278 9.38182 56.5793 9.60455 55.0633C10.9277 46.0554 17.9706 38.9869 27 37.6051C28.5478 37.3682 31.6647 37.3903 33.2385 37.6493ZM48.628 38.2423C47.9822 38.6001 47.8965 39.3618 48.4408 39.9059C48.9871 40.452 49.7669 40.3623 50.1017 39.715C50.6124 38.7276 49.5922 37.708 48.628 38.2423ZM29.4746 39.7742C29.0656 40.0008 28.9235 40.3736 28.9192 41.2302C28.9147 42.1439 29.0571 42.5302 29.4785 42.748C30.0451 43.0409 30.7308 42.8379 30.9735 42.3052C31.0454 42.1474 31.1043 41.6783 31.1043 41.2627C31.1043 40.3788 30.958 39.9928 30.5412 39.7773C30.1694 39.5852 29.8175 39.5841 29.4746 39.7742ZM20.9682 42.0223C20.637 42.162 20.269 42.6689 20.269 42.9855C20.269 43.3612 20.8959 44.5007 21.2806 44.8243C21.4559 44.9717 21.7209 45.0923 21.8698 45.0923C22.4767 45.0923 23.0052 44.575 23.0052 43.9809C23.0052 43.689 22.3988 42.5515 22.0868 42.2586C21.8031 41.9922 21.2943 41.8847 20.9682 42.0223ZM38.2573 42.0236C37.8413 42.1988 37.0145 43.506 37.0145 43.9886C37.0145 44.5751 37.5465 45.0923 38.1499 45.0923C38.5408 45.0923 39.0067 44.6518 39.4041 43.9063C39.8294 43.1088 39.8389 42.7853 39.4497 42.3583C39.1256 42.0027 38.6344 41.8648 38.2573 42.0236ZM29.4746 45.4639C28.9332 45.7638 28.9235 45.8481 28.9189 50.2349L28.9146 54.3381L28.4283 54.538C27.6792 54.846 27.0007 55.5117 26.5937 56.3384C26.2721 56.9914 26.2339 57.168 26.2339 58.0035C26.2339 58.8375 26.2723 59.0163 26.5907 59.6626C27.4376 61.3826 29.4031 62.2303 31.159 61.6332L31.8157 61.4099L33.7311 63.3014C34.9142 64.4699 35.751 65.2123 35.92 65.2434C36.5709 65.3632 37.181 64.9745 37.2371 64.4045C37.3003 63.7621 37.2198 63.6497 35.3253 61.7362L33.4172 59.8089L33.6406 59.1524C34.2414 57.3863 33.2859 55.2346 31.5914 54.538L31.1051 54.3381L31.1048 50.2674C31.1044 47.3452 31.0674 46.1158 30.9735 45.9099C30.734 45.384 30.0083 45.1681 29.4746 45.4639ZM14.3357 48.5825C13.8824 48.9873 13.8379 49.6328 14.2341 50.0545C14.5537 50.3945 15.6811 51.0008 15.994 51.0008C16.3618 51.0008 16.8203 50.7179 16.9642 50.4021C17.2816 49.7057 16.9703 49.1775 15.9087 48.6119C15.1029 48.1825 14.7901 48.1767 14.3357 48.5825ZM44.1286 48.5966C43.4013 48.9919 42.9247 49.4876 42.9247 49.8486C42.9247 50.4676 43.4341 51.0008 44.0257 51.0008C44.3386 51.0008 45.466 50.3945 45.7856 50.0545C46.1818 49.6328 46.1373 48.9873 45.6839 48.5825C45.2323 48.179 44.8912 48.182 44.1286 48.5966ZM30.7788 56.5825C31.2644 56.8303 31.6516 57.4606 31.6516 58.0035C31.6516 58.8398 30.8424 59.6448 30.0017 59.6448C29.216 59.6448 28.3681 58.7971 28.3681 58.0116C28.3681 57.4781 28.7528 56.8332 29.2176 56.5879C29.7456 56.3092 30.2396 56.3076 30.7788 56.5825ZM12.1819 57.0621C11.664 57.349 11.4914 57.9795 11.7786 58.5348C11.9941 58.9514 12.3802 59.0977 13.2644 59.0977C14.1485 59.0977 14.5346 58.9514 14.7501 58.5348C15.0406 57.9731 14.8636 57.3345 14.343 57.0653C13.9588 56.8667 12.5383 56.8646 12.1819 57.0621ZM45.6729 57.0621C45.155 57.349 44.9824 57.9795 45.2696 58.5348C45.4851 58.9514 45.8712 59.0977 46.7553 59.0977C47.6394 59.0977 48.0256 58.9514 48.2411 58.5348C48.5316 57.9731 48.3546 57.3345 47.8339 57.0653C47.4498 56.8667 46.0293 56.8646 45.6729 57.0621ZM15.125 65.3407C14.2342 65.8298 13.9807 66.1218 13.9807 66.6587C13.9807 67.0268 14.0446 67.1646 14.3357 67.4246C14.7901 67.8304 15.1029 67.8246 15.9087 67.3952C16.6478 67.0014 17.095 66.5326 17.095 66.1519C17.095 65.5316 16.5795 65.0035 15.9787 65.0082C15.8402 65.0093 15.4561 65.159 15.125 65.3407ZM43.4839 65.159C42.9027 65.481 42.7653 66.2225 43.1927 66.7303C43.5215 67.1209 44.6584 67.7417 45.0451 67.7417C45.2038 67.7417 45.4857 67.6017 45.6839 67.4246C45.9735 67.166 46.039 67.026 46.039 66.6649C46.039 66.1177 45.7748 65.8123 44.8972 65.3447C44.2074 64.9771 43.8879 64.9351 43.4839 65.159ZM21.2806 71.1828C20.89 71.5114 20.269 72.6481 20.269 73.0346C20.269 73.1933 20.409 73.4752 20.5862 73.6733C20.9911 74.1265 21.6368 74.1711 22.0586 73.775C22.3934 73.4605 23.0052 72.3302 23.0052 72.0261C23.0052 71.4321 22.4767 70.9148 21.8698 70.9148C21.7209 70.9148 21.4559 71.0354 21.2806 71.1828ZM37.5738 71.0675C37.2617 71.2404 37.0237 71.6373 37.0183 71.9936C37.0134 72.3212 37.6067 73.4421 37.9611 73.775C38.3829 74.1711 39.0285 74.1265 39.4335 73.6733C39.8394 73.2191 39.8336 72.9064 39.4041 72.1008C38.8339 71.0313 38.2421 70.6972 37.5738 71.0675ZM29.4746 73.2559C29.0656 73.4825 28.9235 73.8553 28.9192 74.7119C28.9147 75.6256 29.0571 76.0119 29.4785 76.2297C30.0451 76.5227 30.7308 76.3196 30.9735 75.7869C31.0454 75.6292 31.1043 75.16 31.1043 74.7444C31.1043 73.8605 30.958 73.4745 30.5412 73.2591C30.1694 73.0669 29.8175 73.0658 29.4746 73.2559Z" fill="#E49B00"/>
</svg>
