<svg width="72" height="71" viewBox="0 0 72 71" fill="none" xmlns="http://www.w3.org/2000/svg">
<path fill-rule="evenodd" clip-rule="evenodd" d="M3.35982 0.20275C1.75847 0.639558 0.491227 1.98332 0.134042 3.62316C0.0102443 4.19209 -0.0202831 10.8299 0.0119325 30.223L0.0549804 56.0646L0.419903 56.8288C0.620652 57.249 1.04044 57.8438 1.35275 58.1504C2.54852 59.3246 3.92198 59.6662 7.12032 59.5851C8.8134 59.5423 9.00838 59.5106 9.28918 59.2332C9.66254 58.8643 9.69405 58.188 9.3553 57.8181C9.13781 57.5808 8.84927 57.5479 6.55339 57.4979C3.78327 57.4374 3.51513 57.3737 2.77206 56.598C2.176 55.976 2.09483 55.5692 2.09483 53.2075V50.9936H21.2976H40.5003V51.8794V52.7652L39.7208 52.8291C38.8943 52.8968 38.4059 53.1651 37.9065 53.8257C37.6599 54.1519 37.6089 54.4573 37.5664 55.8664L37.5164 57.5234H26.0174C14.6723 57.5234 14.5149 57.5272 14.2619 57.8031C13.9108 58.1863 13.9354 58.8587 14.3142 59.2332C14.6194 59.5346 14.6816 59.5384 19.8946 59.5791L25.1663 59.6201V61.4025V63.1847L23.1616 63.2468C20.8796 63.3175 20.1584 63.5352 19.2217 64.4366C18.3895 65.2373 18.1321 66.1087 18.1333 68.1224C18.1343 69.9552 18.2838 70.4179 19.0031 70.812C19.2621 70.954 22.7152 70.9911 36.0238 70.9951L52.7195 71L53.2085 70.5444C53.8047 69.9893 53.9387 69.3161 53.8259 67.4472C53.7132 65.5821 53.257 64.7112 51.9526 63.871C51.254 63.421 50.1193 63.2197 48.2821 63.2197H46.8309V62.5945V61.9693H56.7648H66.6988L67.2454 61.6659C67.8498 61.3304 68.3548 60.4831 68.3548 59.8046C68.3548 59.4402 68.4303 59.3683 69.036 59.1559C69.9234 58.8446 70.8623 58.0172 71.3841 57.0865L71.8012 56.3425L71.8919 52.3134C71.9417 50.0974 71.9886 38.3436 71.9959 26.1939C72.01 2.77941 72.024 3.32014 71.373 2.28648C70.7059 1.22752 69.731 0.499651 68.5712 0.194553C67.5648 -0.0701155 4.33107 -0.0621963 3.35982 0.20275ZM68.6943 2.55656C69.7692 3.36627 69.7605 3.32195 69.7611 7.95886L69.7616 12.0921H35.9986H2.23551V7.98665C2.23551 3.60121 2.25282 3.47853 2.96071 2.82748C3.82589 2.03195 1.25075 2.08655 36.1502 2.12406L68.1658 2.15838L68.6943 2.55656ZM6.52623 4.2874C5.34354 4.83924 4.72849 5.79636 4.72512 7.09052C4.71991 9.12368 6.6233 10.5226 8.61645 9.95033C11.1239 9.23052 11.5932 5.93043 9.39258 4.49233C8.62911 3.99328 7.3523 3.902 6.52623 4.2874ZM14.4043 4.28629C12.035 5.38706 11.9515 8.63588 14.2636 9.76486C15.43 10.3345 16.8507 10.1161 17.7488 9.22913C19.1751 7.82048 18.9499 5.58976 17.2706 4.49233C16.5081 3.99397 15.2311 3.90228 14.4043 4.28629ZM22.2823 4.28629C19.913 5.38706 19.8296 8.63588 22.1417 9.76486C23.308 10.3345 24.7287 10.1161 25.6268 9.22913C27.0532 7.82048 26.828 5.58976 25.1487 4.49233C24.3862 3.99397 23.1091 3.90228 22.2823 4.28629ZM8.42541 6.39586C8.94789 6.91186 8.71619 7.706 7.96651 7.96872C7.39591 8.16865 6.63034 7.41257 6.83277 6.84906C7.0988 6.10868 7.90292 5.87986 8.42541 6.39586ZM16.3035 6.39586C16.8259 6.91186 16.5942 7.706 15.8446 7.96872C15.274 8.16865 14.5084 7.41257 14.7108 6.84906C14.9768 6.10868 15.781 5.87986 16.3035 6.39586ZM24.1815 6.39586C24.788 6.9948 24.3469 7.97039 23.4695 7.97039C22.6606 7.97039 22.2678 7.13318 22.777 6.49408C23.1416 6.03616 23.7727 5.99212 24.1815 6.39586ZM69.7616 31.5428V48.9096H69.0582H68.3548V46.057C68.3548 42.9072 68.2848 42.5579 67.5271 41.9283C67.2035 41.6593 66.8546 41.5337 66.2418 41.4652L65.4006 41.3713V40.3651V39.359L66.2418 39.2651C66.8546 39.1966 67.2035 39.071 67.5271 38.802C68.2862 38.1711 68.3548 37.8258 68.3546 34.6386C68.3544 31.4002 68.2742 31.0559 67.3844 30.4689C66.9196 30.1623 66.8102 30.1535 63.4259 30.1535C60.2528 30.1535 59.9169 30.1762 59.6248 30.4097C59.202 30.7479 59.1962 31.4513 59.6129 31.8632C59.9093 32.1562 60.0442 32.1697 63.083 32.2101L66.2447 32.2522V34.7464V37.2405L52.9856 37.2051L39.7266 37.1697L39.6882 34.7072L39.6498 32.2449L46.8942 32.2064L54.1386 32.168L54.4473 31.8632C54.8641 31.4513 54.8585 30.748 54.4355 30.4097C54.133 30.1678 53.6928 30.1535 46.5666 30.1535H39.0181L38.5062 30.4971C37.6233 31.0896 37.5181 31.5944 37.5708 34.984C37.6132 37.7073 37.6374 37.9419 37.9125 38.306C38.3296 38.8583 38.9499 39.1804 39.7833 39.278L40.5003 39.3619V40.3665V41.3713L39.6547 41.4658C38.9379 41.5458 38.7255 41.6386 38.2617 42.0743C37.5548 42.7385 37.4796 43.2237 37.5868 46.44L37.6691 48.9096H19.8819H2.09483V31.5428V14.1761H35.9282H69.7616V31.5428ZM6.77664 19.3514C4.93824 21.1252 4.53421 21.7076 4.75719 22.2624C4.96033 22.7678 8.44412 26.096 8.8791 26.2C9.1893 26.2742 9.3463 26.2089 9.70235 25.8573C10.3385 25.229 10.1984 24.9068 8.59563 23.311L7.23512 21.9566L8.51811 20.6713C9.2239 19.9645 9.873 19.2468 9.96078 19.0765C10.3016 18.4147 9.75652 17.6495 8.94409 17.6495C8.618 17.6495 8.20285 17.9754 6.77664 19.3514ZM13.6754 17.9621C13.3246 18.3462 10.7818 24.7388 10.7818 25.2368C10.7818 26.0365 11.9345 26.4851 12.4975 25.9045C12.7707 25.6227 15.4594 18.9587 15.4594 18.5632C15.4594 18.4358 15.3039 18.1781 15.114 17.9906C14.6741 17.556 14.0575 17.5439 13.6754 17.9621ZM16.173 18.0156C15.6385 18.6866 15.7635 18.9609 17.3149 20.5178L18.7485 21.9564L17.3149 23.3951C15.8768 24.8385 15.7106 25.133 16.0168 25.6978C16.0912 25.835 16.3379 26.0234 16.565 26.1164C17.172 26.3646 17.5192 26.1317 19.5039 24.1438C21.8157 21.8286 21.8262 22.0569 19.2911 19.558C17.6201 17.9108 17.294 17.6495 16.9098 17.6495C16.5963 17.6495 16.3783 17.7578 16.173 18.0156ZM23.7223 20.8797C23.3502 21.1588 23.1951 21.7262 23.3869 22.1063C23.6926 22.7119 24.0885 22.7995 26.3397 22.7585C28.3417 22.7221 28.4385 22.7071 28.696 22.3925C29.0598 21.9482 29.0364 21.3768 28.6391 21.0081C28.3337 20.7248 28.1781 20.706 26.1337 20.706C24.6072 20.706 23.8845 20.7581 23.7223 20.8797ZM31.4539 20.8604C30.7902 21.2416 30.8897 22.3452 31.6144 22.6416C31.8798 22.7502 35.3098 22.7841 43.3616 22.7578L54.7338 22.7206L55.0028 22.3925C55.3669 21.9484 55.3435 21.3768 54.9461 21.0081L54.6205 20.706L43.1642 20.7102C35.4233 20.7131 31.6254 20.7617 31.4539 20.8604ZM23.7223 25.4645C23.3502 25.7436 23.1951 26.311 23.3869 26.6911C23.718 27.3469 23.9665 27.3797 28.309 27.3414L32.3661 27.3054L32.6349 26.9773C32.9989 26.5332 32.9754 25.9616 32.5781 25.5929C32.2589 25.2968 32.1697 25.2908 28.1032 25.2908C25.0011 25.2908 23.8955 25.3346 23.7223 25.4645ZM34.8302 25.4452C34.4372 25.671 34.2689 26.2459 34.4615 26.7052C34.6953 27.2626 35.3417 27.4092 37.3165 27.3529C38.8641 27.3086 38.9967 27.2829 39.2469 26.9773C39.6108 26.533 39.5873 25.9616 39.19 25.5929C38.8884 25.3132 38.7244 25.2911 36.9743 25.295C35.9173 25.2974 34.9722 25.3636 34.8302 25.4452ZM41.3015 25.4452C40.607 25.8442 40.7434 26.9597 41.5194 27.2269C41.7885 27.3195 43.6255 27.3748 46.4368 27.3748C50.1004 27.3748 50.9977 27.3375 51.3225 27.1716C51.9854 26.833 52.1023 26.0869 51.5698 25.5929C51.2482 25.2947 51.1829 25.2908 46.3998 25.295C43.2783 25.2978 41.4651 25.3511 41.3015 25.4452ZM5.61182 30.5703C5.23283 30.9446 5.24014 31.6969 5.62631 32.0423C5.89782 32.2852 6.21322 32.3105 9.45982 32.3496C13.3707 32.3969 13.7856 32.3598 14.1938 31.927C14.554 31.5453 14.5503 31.1195 14.183 30.6585L13.8915 30.2924H9.89227C6.0807 30.2924 5.87995 30.3055 5.61182 30.5703ZM16.5848 30.5703C16.2057 30.9447 16.2131 31.6969 16.5996 32.0423C16.8821 32.2948 17.2042 32.307 23.5756 32.307H30.2556L30.5245 31.979C30.8887 31.5348 30.8653 30.9632 30.4679 30.5945C30.1431 30.2931 30.1261 30.2924 23.5043 30.2924C17.0537 30.2924 16.8582 30.3004 16.5848 30.5703ZM41.8518 33.9394C41.343 34.391 41.3092 34.9815 41.7664 35.433C42.0298 35.6931 42.2353 35.7109 44.9755 35.7109C47.7274 35.7109 47.9217 35.6939 48.2111 35.4276C48.6575 35.0169 48.6272 34.2868 48.1484 33.9149C47.8017 33.6455 47.5972 33.6269 44.9909 33.6269C42.2992 33.6269 42.1921 33.6375 41.8518 33.9394ZM50.6735 33.7668C50.0226 34.0257 49.8689 34.9232 50.392 35.4088C50.6748 35.6711 50.8787 35.7109 51.9395 35.7109C53.3621 35.7109 53.7242 35.5015 53.7242 34.679C53.7242 33.924 53.2242 33.6248 51.9819 33.6356C51.4314 33.6405 50.8426 33.6995 50.6735 33.7668ZM55.8787 33.7668C55.219 34.0293 55.0858 34.8452 55.617 35.3698L55.9622 35.7109H59.9141H63.8659L64.2111 35.3698C64.401 35.1822 64.5565 34.9352 64.5565 34.8207C64.5565 34.4303 64.2448 33.9357 63.9014 33.7811C63.4865 33.5945 56.3438 33.5817 55.8787 33.7668ZM6.03386 34.6979C5.30978 34.9609 5.08202 35.8823 5.61182 36.4055C5.86631 36.6569 6.0807 36.6834 7.85242 36.6834C9.80153 36.6834 9.81335 36.6814 10.1033 36.3173C10.6033 35.6897 10.4083 35.0338 9.63567 34.7437C9.24191 34.5959 6.41397 34.5599 6.03386 34.6979ZM12.7112 34.7289C11.9864 35.0259 11.7886 35.973 12.3566 36.4272C12.6542 36.6652 13.0244 36.6834 17.5696 36.6834C22.0278 36.6834 22.4893 36.6617 22.7675 36.4391C23.1841 36.106 23.1967 35.3713 22.7927 34.972C22.4907 34.6736 22.4112 34.6684 17.7416 34.6402C15.1324 34.6244 12.8686 34.6643 12.7112 34.7289ZM25.518 34.7599C24.8164 35.1387 24.675 35.8845 25.2104 36.3813C25.4981 36.6482 25.6935 36.6834 26.8885 36.6834C28.1819 36.6834 28.2535 36.6674 28.5323 36.3173C28.6927 36.116 28.8239 35.8688 28.8239 35.7681C28.8239 35.3573 28.4787 34.8824 28.0802 34.7453C27.5288 34.5555 25.8789 34.5648 25.518 34.7599ZM30.6971 34.7341C30.0685 34.9948 29.8869 35.927 30.3714 36.4055C30.6283 36.6592 30.8403 36.6834 32.8088 36.6834C34.8805 36.6834 34.9767 36.6709 35.2707 36.3619C35.6481 35.9651 35.6626 35.4301 35.308 34.9969C35.0507 34.6827 34.954 34.6676 33.0219 34.6377C31.9123 34.6206 30.8662 34.664 30.6971 34.7341ZM5.61182 39.3231C5.23269 39.6976 5.24014 40.4497 5.62659 40.7951C5.89937 41.0388 6.17271 41.0598 9.08562 41.0598C12.2401 41.0598 12.2494 41.059 12.5175 40.7318C12.8662 40.3066 12.8606 39.6742 12.5051 39.3231C12.2405 39.0618 12.0362 39.0453 9.05847 39.0453C6.0807 39.0453 5.87644 39.0618 5.61182 39.3231ZM14.2619 39.3249C13.9106 39.7083 13.9354 40.3806 14.3144 40.755C14.6176 41.0542 14.6946 41.0598 18.5543 41.0598C22.414 41.0598 22.4911 41.0542 22.7943 40.755C23.2112 40.343 23.2056 39.6398 22.7826 39.3015C22.4881 39.066 22.1407 39.0453 18.4902 39.0453C14.6885 39.0453 14.5073 39.0572 14.2619 39.3249ZM25.0177 39.3015C24.5948 39.6398 24.5891 40.343 25.0059 40.755C25.309 41.0545 25.3937 41.0605 29.918 41.1018C32.4498 41.1248 34.7308 41.1058 34.9865 41.0592C35.9249 40.8889 36.3092 39.9826 35.7117 39.3494C35.427 39.0475 35.3886 39.0453 30.3815 39.0453C25.6897 39.0453 25.3158 39.0632 25.0177 39.3015ZM63.2904 40.3651V41.4071H52.9504H42.6105V40.3651V39.3231H52.9504H63.2904V40.3651ZM66.2447 45.9919V48.4928H52.9504H39.6562V46.0846C39.6562 44.76 39.6984 43.6347 39.7501 43.5838C39.8016 43.5328 45.784 43.4911 53.0443 43.4911H66.2447V45.9919ZM41.87 45.1931C41.2818 45.6342 41.3258 46.4861 41.9579 46.8952C42.2546 47.0872 42.7141 47.1136 45.1163 47.0769C47.6475 47.0383 47.957 47.0075 48.2233 46.7693C48.623 46.4115 48.617 45.676 48.2111 45.3027C47.922 45.0366 47.7273 45.0194 45.0025 45.0194C42.899 45.0194 42.0379 45.0672 41.87 45.1931ZM50.3724 45.3409C49.9949 45.7378 49.9804 46.2729 50.3355 46.7059C50.572 46.9945 50.7456 47.0396 51.7775 47.0815C52.8096 47.1231 52.9969 47.0929 53.3373 46.8282C53.818 46.4546 53.8688 45.718 53.4428 45.2973C53.2039 45.0614 52.9739 45.0194 51.9198 45.0194C50.804 45.0194 50.6474 45.0519 50.3724 45.3409ZM55.5633 45.3855C55.1998 45.8418 55.1922 46.2809 55.5404 46.7059L55.8092 47.0339L59.6454 47.0752C63.7463 47.1193 64.1165 47.0716 64.3975 46.4622C64.6316 45.955 64.5952 45.7396 64.2111 45.3605L63.8659 45.0194H59.8603H55.8548L55.5633 45.3855ZM63.2904 51.6882V52.7997H52.9504H42.6105V51.6882V50.5768H52.9504H63.2904V51.6882ZM69.7616 53.2915C69.7616 55.8542 69.6231 56.3727 68.7801 56.9655L68.3548 57.2645V55.8601C68.3548 54.7268 68.3001 54.3501 68.0717 53.9076C67.7221 53.2309 66.9309 52.7997 66.0393 52.7997H65.4006V51.8966V50.9936H67.5811H69.7616V53.2915ZM66.2447 57.3845V59.8853H52.9504H39.6562V57.3845V54.8837H52.9504H66.2447V57.3845ZM42.2383 56.3692C41.5045 56.5109 41.1833 57.5197 41.6944 58.0774C41.936 58.3411 42.1229 58.357 44.9535 58.357C47.7688 58.357 47.9739 58.3397 48.2377 58.0792C48.8055 57.5184 48.5265 56.6432 47.7085 56.4188C47.2124 56.2828 42.8888 56.2436 42.2383 56.3692ZM50.8621 56.4071C50.0761 56.6562 49.8193 57.4869 50.3534 58.0529C50.6062 58.3209 50.7861 58.357 51.8695 58.357C53.3801 58.357 53.7242 58.1791 53.7242 57.3981C53.7242 56.6297 53.3806 56.386 52.2155 56.3278C51.6912 56.3017 51.0822 56.3374 50.8621 56.4071ZM56.0672 56.4113C55.2619 56.6582 55.0166 57.5162 55.5972 58.055C55.9158 58.3506 56.009 58.357 59.9481 58.357H63.9734L64.2649 57.9909C64.6444 57.5144 64.6329 57.2099 64.2172 56.7323L63.8779 56.3425L60.1726 56.3155C58.1348 56.3007 56.2874 56.3438 56.0672 56.4113ZM37.6172 60.168C37.67 60.4763 37.8783 60.9224 38.0802 61.1595C38.7034 61.8908 39.0875 61.9693 42.0433 61.9693H44.7207V62.5945V63.2197H35.9986H27.2765V61.4136V59.6074H32.3989H37.5213L37.6172 60.168ZM50.6192 65.5471C51.4462 65.9635 51.6779 66.4203 51.734 67.7452L51.7835 68.916H36.0131H20.2425V67.7976C20.2425 66.3088 20.6126 65.649 21.5848 65.405C21.7364 65.3671 28.2225 65.3289 35.9986 65.3201C49.1999 65.3053 50.1688 65.3203 50.6192 65.5471Z" fill="#E49B00"/>
</svg>
