<svg width="70" height="67" viewBox="0 0 70 67" fill="none" xmlns="http://www.w3.org/2000/svg">
<path fill-rule="evenodd" clip-rule="evenodd" d="M5.18 0.1405C2.8552 0.691122 0.78573 3.00909 0.225341 5.69011C-0.0728947 7.11761 -0.076175 46.5435 0.221924 47.9569C0.809239 50.7417 2.89293 53.0178 5.32283 53.5284C6.22492 53.7181 14.6183 53.7362 15.1069 53.5496C15.9388 53.2318 16.1833 52.0062 15.5431 51.3626L15.1855 51.0031L10.4388 50.9345C5.87242 50.8684 5.67054 50.8543 5.12778 50.5626C4.36224 50.1512 3.51141 49.1467 3.13376 48.2084L2.82172 47.433V34.251V21.0691L32.5155 21.0345L62.2092 20.9997V28.0031V35.0063L61.6967 35.0093C61.0812 35.0129 60.0899 35.4413 59.5929 35.9184L59.2318 36.265L58.2944 35.8569C57.7789 35.6325 57.2241 35.4086 57.0616 35.3594C56.8269 35.2884 56.7464 35.1232 56.6697 34.5546C56.5071 33.3475 55.9214 32.4816 54.9163 31.9625C54.2514 31.619 51.8634 31.4688 50.6665 31.6951C49.1697 31.9783 48.1882 33.0229 48.0372 34.4941L47.9614 35.2306L46.7458 35.7468L45.5302 36.2629L45.1058 35.9043C44.3789 35.2898 43.875 35.0961 43.0057 35.0965C42.4387 35.0968 42.0169 35.1857 41.6389 35.3848C40.9029 35.7723 38.6267 38.1069 38.3642 38.7436C37.9333 39.788 38.2361 41.2983 39.0473 42.1512L39.3782 42.499L38.8507 43.7303L38.3233 44.9614L37.5892 45.0351C36.7506 45.1194 36.192 45.3849 35.6747 45.9447C34.9485 46.7305 34.8237 47.164 34.7622 49.1151L34.7048 50.9345H30.4731H26.2413L25.8418 51.3358C25.1712 52.0096 25.3562 53.084 26.2192 53.5273C26.4256 53.6333 28.3476 53.6807 32.4403 53.6807H38.3629L38.8844 54.9201L39.4058 56.1595L39.0015 56.6221C38.1345 57.614 37.9353 59.0404 38.507 60.1613C38.8645 60.8623 41.0368 62.9752 41.7201 63.2867C42.569 63.6736 43.5387 63.6497 44.3956 63.2209C44.7761 63.0304 45.1896 62.761 45.3145 62.6223C45.5339 62.3789 45.5837 62.3873 46.7532 62.8657L47.9646 63.3612L48.1115 64.2498C48.302 65.4016 48.7963 66.1132 49.7551 66.6165C50.4461 66.9791 50.5831 67 52.2655 67C53.2443 67 54.2793 66.9294 54.5658 66.8433C55.7219 66.4952 56.5652 65.386 56.7044 64.0302C56.7461 63.6246 56.8485 63.2919 56.932 63.2909C57.0154 63.29 57.5736 63.0744 58.1723 62.8118L59.2608 62.3344L59.6757 62.738C60.545 63.583 62.0117 63.8207 63.0977 63.2926C63.811 62.9456 66.1027 60.6114 66.3768 59.9526C66.8206 58.8854 66.5542 57.455 65.7576 56.628L65.3559 56.2111L65.8311 55.1175C66.0925 54.5161 66.307 53.9468 66.308 53.8524C66.309 53.7469 66.501 53.6807 66.8063 53.6807C67.6836 53.6807 68.3978 53.3755 69.0471 52.7234C69.8562 51.9104 70 51.3763 70 49.1835C70 47.4933 69.9792 47.3557 69.6183 46.6615C69.0959 45.657 68.36 45.1524 67.2598 45.0442L66.4167 44.9614L66.1034 44.1227C65.931 43.6615 65.6934 43.0961 65.5751 42.8664C65.3798 42.4872 65.3798 42.4324 65.5744 42.2701C65.6923 42.1718 65.9669 41.7793 66.1846 41.398C66.9079 40.1313 66.6862 38.7506 65.558 37.4961L65.0917 36.9775L65.0505 21.5398L65.0094 6.10205L64.6359 4.99284C64.0048 3.1188 62.6638 1.40158 61.2761 0.690298C59.844 -0.0436357 61.2846 -0.00944484 32.4184 0.00538488C17.4935 0.0132117 5.46593 0.0728051 5.18 0.1405ZM59.5206 2.95719C60.3513 3.24156 61.2391 4.11679 61.7422 5.14773L62.1409 5.96473L62.1804 12.1095L62.2199 18.2542H32.4787H2.73766L2.78126 12.2468C2.82377 6.36994 2.83156 6.22247 3.1354 5.46396C3.63961 4.20467 4.64899 3.20558 5.75952 2.86615C5.94787 2.80861 17.9771 2.75616 32.4911 2.74971C56.3189 2.739 58.9424 2.75918 59.5206 2.95719ZM11.6376 6.10781C10.7915 6.34166 9.64739 7.07174 9.22272 7.64887C8.45034 8.69835 8.28961 9.20173 8.29138 10.5647C8.29289 11.6453 8.34688 11.9785 8.60629 12.5057C9.11051 13.5308 9.79131 14.2206 10.7825 14.7108C11.581 15.1057 11.8281 15.1614 12.7929 15.1629C13.7147 15.1644 14.0257 15.1022 14.7129 14.7792C15.7704 14.2821 16.724 13.2713 17.11 12.2383C17.5109 11.1653 17.451 9.55545 16.9739 8.57724C16.01 6.60131 13.7075 5.53577 11.6376 6.10781ZM23.6557 6.07568C21.2862 6.74837 19.8368 9.00483 20.265 11.3542C20.5491 12.914 21.4805 14.1032 22.9656 14.8028C24.0512 15.3142 25.5842 15.3114 26.6926 14.7962C27.6729 14.3406 28.5135 13.498 28.9757 12.5074C29.2782 11.8591 29.3377 11.5403 29.3377 10.5647C29.3377 9.56492 29.2829 9.28549 28.9558 8.61623C27.9936 6.64786 25.6304 5.51504 23.6557 6.07568ZM40.0323 6.0452C37.2271 6.70938 35.6338 9.83199 36.7763 12.4266C37.1524 13.2806 38.1952 14.3423 39.0932 14.7854L39.862 15.1647H47.1061C54.3478 15.1647 54.3504 15.1645 55.0226 14.8531C56.0529 14.3758 56.7817 13.6968 57.2879 12.7423C58.4019 10.6428 57.7794 8.12644 55.8078 6.75812C54.6138 5.92944 54.2528 5.89457 47.0432 5.90981C43.4694 5.9175 40.3146 5.97833 40.0323 6.0452ZM13.9851 9.14475C14.8251 9.90834 14.8563 11.1518 14.054 11.8904C13.4233 12.4711 12.7675 12.5949 12.0896 12.2609C10.8216 11.6366 10.5862 10.0789 11.618 9.14076C12.19 8.62063 13.411 8.62269 13.9851 9.14475ZM25.9889 9.17166C26.8094 9.78503 26.8491 11.1012 26.071 11.8829C25.4674 12.4893 24.8082 12.602 24.0428 12.2297C23.3151 11.8759 22.982 11.335 22.982 10.5072C22.982 9.98372 23.0594 9.78929 23.4284 9.38477C24.1259 8.62008 25.1384 8.53577 25.9889 9.17166ZM54.2631 9.04039C55.1013 9.64099 55.3312 10.7284 54.7916 11.5399C54.1544 12.4982 54.246 12.4867 47.294 12.4868C43.8642 12.4869 40.8587 12.447 40.6151 12.3981C40.0209 12.2786 39.3051 11.5367 39.1901 10.9209C39.076 10.31 39.4847 9.29387 39.9438 9.04712C40.6138 8.68681 41.1575 8.66031 47.3794 8.6853L53.8034 8.71098L54.2631 9.04039ZM21.6573 28.9659C21.4926 29.0325 21.259 29.2386 21.1382 29.4238C20.8832 29.8148 18.1828 40.996 18.1535 41.7819C18.1373 42.2173 18.2118 42.3798 18.5782 42.7088C19.3655 43.4155 20.4556 43.1194 20.7824 42.11C21.099 41.1324 23.5453 30.6522 23.5505 30.2513C23.558 29.6776 23.3318 29.2858 22.8481 29.0346C22.4032 28.8035 22.1015 28.786 21.6573 28.9659ZM12.5118 30.1022C11.9327 30.4379 8.08869 34.9225 7.92563 35.4525C7.64584 36.3624 7.89255 36.8012 10.073 39.2704C11.1699 40.5123 12.1926 41.6368 12.3459 41.7689C12.5156 41.9153 12.8493 42.0092 13.199 42.0092C13.986 42.0092 14.5079 41.4781 14.5079 40.677C14.5079 40.1515 14.3929 39.9848 12.731 38.101C11.7538 36.9932 10.9542 36.0421 10.9542 35.9875C10.9542 35.9328 11.3079 35.4875 11.7401 34.9979C14.5997 31.7584 14.5079 31.8816 14.5079 31.2874C14.5079 30.2422 13.4024 29.5859 12.5118 30.1022ZM27.6558 30.2675C27.1727 30.676 27.0412 31.2171 27.2886 31.7794C27.3882 32.006 28.2124 33.0255 29.1199 34.0451C30.0276 35.0646 30.7708 35.9379 30.7714 35.9856C30.7723 36.0334 29.9997 36.9447 29.0547 38.0109C26.9937 40.3364 26.7867 40.8507 27.5876 41.6553C27.8541 41.9232 28.0765 42.0081 28.502 42.0048C28.8113 42.0025 29.1624 41.9251 29.2824 41.8331C29.8855 41.3707 33.6629 36.941 33.7937 36.5429C34.0769 35.6809 33.8659 35.2433 32.3035 33.4531C31.5001 32.5326 30.4403 31.3624 29.9484 30.8526C29.1671 30.0431 28.991 29.9257 28.5571 29.9257C28.227 29.9257 27.9244 30.0405 27.6558 30.2675ZM53.872 35.4525C53.8722 36.1251 53.9497 36.6039 54.1112 36.9286C54.3277 37.3642 54.4719 37.449 55.6486 37.8338C56.3627 38.0674 57.4532 38.5154 58.0717 38.8293C58.6901 39.1433 59.3376 39.4002 59.5105 39.4002C59.9007 39.4002 60.315 39.1276 61.1508 38.3203L61.801 37.6925L62.8251 38.7145C63.3885 39.2767 63.8494 39.8023 63.8494 39.8826C63.8494 39.9628 63.5426 40.3321 63.1675 40.7032C62.7925 41.0744 62.4181 41.5837 62.3355 41.8351C62.1979 42.2539 62.2427 42.4096 62.8708 43.6954C63.2479 44.4672 63.6829 45.5351 63.8376 46.0685C64.2435 47.4669 64.5193 47.6833 66.0099 47.7733L67.1981 47.845L67.2373 49.1978C67.2628 50.0774 67.2212 50.6178 67.1181 50.7425C67.0074 50.8767 66.6408 50.9345 65.9012 50.9345C64.4792 50.9345 64.2722 51.1054 63.7841 52.6815C63.5789 53.3444 63.1343 54.4226 62.7961 55.0777C62.231 56.1725 62.1935 56.3063 62.3333 56.7322C62.4171 56.9869 62.7925 57.4991 63.1675 57.8702C63.5426 58.2414 63.8494 58.6106 63.8494 58.6908C63.8494 58.8763 61.9081 60.821 61.7229 60.821C61.6469 60.821 61.2533 60.4836 60.8479 60.0714C59.8264 59.0322 59.5869 59.005 58.1314 59.7635C57.48 60.1029 56.4109 60.5447 55.7556 60.7452C54.1886 61.2242 54.0084 61.4448 54.0084 62.8823C54.0084 63.6253 53.9509 63.9936 53.8174 64.1048C53.6932 64.2083 53.1553 64.2502 52.2797 64.2245L50.9331 64.1851L50.8618 62.9914C50.7724 61.4963 50.5571 61.2189 49.1649 60.8049C48.6339 60.647 47.5868 60.2095 46.8381 59.8324C45.5825 59.2005 45.4387 59.1585 44.9922 59.2929C44.7213 59.3745 44.2093 59.7432 43.8303 60.1299C43.4575 60.5099 43.0873 60.821 43.0075 60.821C42.9275 60.821 42.4115 60.3652 41.8607 59.8081C40.7535 58.6882 40.7294 58.5391 41.5606 57.9445C42.0532 57.5922 42.5273 56.8456 42.5273 56.4226C42.5273 56.2491 42.2568 55.5767 41.9262 54.9283C41.5956 54.2799 41.1884 53.2859 41.0214 52.7195C40.5785 51.2179 40.3388 51.0191 38.8686 50.9345L37.6752 50.8658L37.6365 49.3211L37.5978 47.7763L38.5932 47.776C39.2675 47.7759 39.7427 47.6984 40.0661 47.5357C40.5009 47.3171 40.587 47.1668 41.0305 45.8539C41.2984 45.0609 41.7448 43.9858 42.0224 43.4646C42.3001 42.9435 42.5273 42.3997 42.5273 42.2563C42.5273 41.8418 42.1881 41.3018 41.5131 40.6418C41.1688 40.3051 40.8871 39.9668 40.8871 39.89C40.8871 39.6621 42.7062 37.8898 42.9401 37.8898C43.0584 37.8898 43.3984 38.1421 43.6955 38.4503C44.3204 39.0987 44.8335 39.4002 45.3117 39.4002C45.4975 39.4002 46.1727 39.1254 46.8121 38.7893C47.4515 38.4533 48.425 38.0458 48.9755 37.8835C49.6571 37.6828 50.0962 37.4609 50.3522 37.1879C50.6963 36.821 50.7281 36.6959 50.7281 35.7136C50.7281 35.1231 50.7691 34.5989 50.8193 34.5486C50.8693 34.4982 51.5766 34.457 52.3911 34.457H53.8717L53.872 35.4525ZM50.3181 41.1263C48.0216 41.7295 45.8814 43.4847 44.8757 45.5899C44.1733 47.0605 43.9776 48.0876 44.06 49.8709C44.1117 50.9893 44.2037 51.4748 44.5086 52.2389C45.5106 54.7502 47.2704 56.4531 49.7939 57.3533C51.078 57.8112 53.32 57.8672 54.6235 57.4737C57.4712 56.6141 59.6718 54.4023 60.515 51.5524C60.8833 50.307 60.8568 48.2599 60.4552 46.9524C59.5809 44.1053 57.1549 41.7734 54.3848 41.1172C53.3111 40.8629 51.3037 40.8673 50.3181 41.1263ZM54.7531 44.1827C58.2664 45.8344 59.1216 50.3692 56.4542 53.2027C53.7445 56.0811 49.1071 55.366 47.3524 51.7991C46.9279 50.9363 46.842 50.6062 46.7917 49.6433C46.7181 48.2329 46.9664 47.296 47.7097 46.1805C48.3828 45.17 49.4117 44.3749 50.5786 43.9637C51.882 43.5044 53.4896 43.5887 54.7531 44.1827ZM19.9598 51.1404C19.167 51.5732 19.1238 52.7123 19.876 53.3481C20.2322 53.6491 20.3956 53.6971 20.8567 53.635C21.6098 53.5334 22.0253 53.0388 22.0253 52.2435C22.0253 51.7442 21.9558 51.5867 21.6047 51.29C21.131 50.8894 20.521 50.834 19.9598 51.1404Z" fill="#E49B00"/>
</svg>
