<svg width="56" height="65" viewBox="0 0 56 65" fill="none" xmlns="http://www.w3.org/2000/svg">
<path fill-rule="evenodd" clip-rule="evenodd" d="M26.1301 0.779212C23.0094 2.51394 22.0684 3.01096 19.6837 4.18385C14.4386 6.76364 8.83026 8.93844 3.08139 10.6218C1.0568 11.2147 0.667285 11.3698 0.359376 11.7059L0 12.098L0.0512114 21.3981C0.0943774 29.2549 0.135628 30.9251 0.316976 32.16C1.34657 39.1714 3.54217 44.7907 7.37462 50.2233C11.8811 56.6116 19.3608 62.5118 25.5965 64.5975C27.7893 65.3309 29.3851 65.1008 32.6081 63.5864C38.44 60.8463 44.4428 55.7472 48.3397 50.2233C52.1721 44.7907 54.3677 39.1714 55.3973 32.16C55.5787 30.9251 55.6199 29.2549 55.6631 21.3981L55.7143 12.098L55.3549 11.7059C55.0469 11.3698 54.6577 11.2148 52.6329 10.6222C44.8362 8.33999 37.6279 5.25759 29.4535 0.710443C28.7511 0.319693 28.0315 0 27.8542 0C27.6769 0 26.9011 0.350709 26.1301 0.779212ZM30.1993 4.24334C37.132 8.0161 44.1127 10.9289 51.707 13.2176L53.016 13.6122L53.0154 20.312C53.0151 23.9969 52.9557 27.9557 52.8836 29.1092C52.2696 38.9169 48.3383 47.4222 41.3124 54.1438C37.5709 57.7231 33.4899 60.4336 29.7465 61.8253C28.1311 62.4258 27.5832 62.4258 25.9678 61.8253C22.2244 60.4336 18.1434 57.7231 14.4019 54.1438C7.37602 47.4222 3.44472 38.9169 2.83069 29.1092C2.75854 27.9557 2.69915 23.9969 2.6989 20.312L2.69826 13.6122L4.00729 13.2199C6.39202 12.5054 10.6417 11.0511 12.7192 10.2384C17.0112 8.55964 22.4319 6.00858 26.0692 3.95568C26.9472 3.46006 27.7426 3.0538 27.8367 3.05266C27.9308 3.05164 28.994 3.58743 30.1993 4.24334ZM17.9375 11.0203C17.5585 11.0938 17.0441 11.6296 16.9669 12.0313C16.8688 12.5418 17.1069 13.1993 17.4773 13.4408C17.8983 13.7154 18.6431 13.7027 19.0868 13.4134C19.9006 12.8827 19.7647 11.4932 18.8623 11.1179C18.6162 11.0156 18.3698 10.9396 18.3149 10.9491C18.26 10.9587 18.0901 10.9907 17.9375 11.0203ZM13.809 12.7017C13.6334 12.7605 12.5702 13.1508 11.4464 13.5688C10.3225 13.9871 8.65925 14.5742 7.75021 14.8737C6.78498 15.1916 5.97887 15.5361 5.81285 15.7013C5.4167 16.0956 5.35437 16.704 5.40226 19.7031C5.43815 21.9382 5.47608 22.3555 5.66931 22.6386C6.08372 23.2456 6.76685 23.4093 7.43988 23.0629C8.08277 22.732 8.18979 22.2656 8.18979 19.7954V17.5919L9.11569 17.2989C11.732 16.471 15.0149 15.1738 15.3615 14.8308C16.3614 13.8415 15.1925 12.2383 13.809 12.7017ZM39.0318 19.8735C38.7508 19.9649 38.2911 20.1876 38.0101 20.3686C37.7291 20.5495 34.3393 23.848 30.4772 27.6983L23.4554 34.699L20.7074 31.9748C17.4216 28.7173 17.1372 28.5372 15.2777 28.5372C14.3149 28.5372 14.0247 28.5879 13.4898 28.8499C11.2089 29.9669 10.2634 32.5196 11.2986 34.7658C11.6057 35.4319 12.2279 36.1027 16.2097 40.0603C21.5314 45.3494 21.4796 45.3115 23.3873 45.3144C25.5412 45.3177 24.8382 45.896 35.0986 35.6823C45.3214 25.506 44.7787 26.1561 44.7787 24.0882C44.7787 23.1157 44.7284 22.8393 44.4435 22.245C44.0135 21.3481 43.1785 20.5173 42.2884 20.1005C41.4581 19.7117 39.8704 19.6011 39.0318 19.8735ZM40.9711 22.5078C41.8171 22.8269 42.2687 23.6901 42.0326 24.5372C41.9362 24.8832 40.0074 26.8692 33.0636 33.7722C25.0497 41.7391 24.17 42.575 23.7141 42.6572C23.3193 42.7283 23.0968 42.6876 22.6814 42.4683C22.371 42.3044 20.4326 40.4704 17.9931 38.0324C13.6191 33.6613 13.4309 33.4243 13.6379 32.5491C13.7762 31.9642 14.2929 31.4143 14.8425 31.267C15.8123 31.0071 16.0214 31.1562 19.4921 34.5843C21.2481 36.3187 22.8469 37.7985 23.0449 37.8728C23.243 37.9469 23.5591 37.9722 23.7473 37.9288C23.9756 37.8763 26.6219 35.3367 31.6884 30.3078C35.8678 26.1595 39.4596 22.6774 39.6703 22.5697C40.1219 22.3387 40.478 22.3218 40.9711 22.5078ZM42.7819 44.1108C42.6669 44.1777 42.1814 44.7821 41.7028 45.4541C39.9611 47.8997 37.9512 50.046 35.4851 52.0937C34.1868 53.1718 33.9404 53.4963 33.963 54.097C33.9852 54.6846 34.1719 54.9976 34.6451 55.2412C35.3072 55.582 35.7639 55.3947 37.2742 54.1631C40.4702 51.5569 44.8426 46.4705 44.8426 45.3588C44.8426 44.8364 44.5062 44.2473 44.1257 44.1033C43.7186 43.9492 43.0535 43.9529 42.7819 44.1108ZM31.3549 55.0381C30.5097 55.378 30.2779 56.5252 30.9117 57.2313C31.9067 58.3397 33.7524 57.1383 33.1735 55.7591C32.8842 55.0701 32.074 54.7489 31.3549 55.0381Z" fill="#E49B00"/>
</svg>
