<svg width="70" height="70" viewBox="0 0 70 70" fill="none" xmlns="http://www.w3.org/2000/svg">
<path fill-rule="evenodd" clip-rule="evenodd" d="M8.20328 0.204341C4.88226 0.920152 2.08472 3.21676 0.804904 6.27827C-0.0330432 8.28268 0.000179327 7.31363 0.000179327 29.7785C0.000179327 49.6051 0.00865587 50.2898 0.255979 50.5954C0.611447 51.0344 1.43969 51.0344 1.79516 50.5954C2.04248 50.2899 2.05109 49.6057 2.05328 29.8868C2.05533 12.479 2.08513 9.354 2.25658 8.53701C2.90271 5.45936 5.46782 2.89393 8.54508 2.24772C9.98445 1.94553 60.0157 1.94553 61.4551 2.24772C64.5324 2.89393 67.0975 5.45936 67.7436 8.53701C67.9161 9.35933 67.9444 13.0869 67.9444 34.9953C67.9444 63.2461 68.0008 61.475 67.0406 63.4363C66.0151 65.5309 63.7792 67.255 61.4551 67.743C60.0157 68.0452 9.98445 68.0452 8.54508 67.743C5.46782 67.0967 2.90271 64.5313 2.25658 61.4537C2.11166 60.7633 2.05506 59.5584 2.05328 57.1308C2.05109 53.9347 2.03674 53.7468 1.76754 53.4047C1.3757 52.9065 0.675431 52.9065 0.283597 53.4047C0.0137144 53.7477 0.000179327 53.9314 0.000179327 57.2391C0.000179327 61.0551 0.129788 62.0973 0.804904 63.7124C1.79939 66.0912 3.90814 68.2002 6.28663 69.1948C8.31307 70.0422 6.7959 69.9996 35.0001 69.9996C57.9021 69.9996 60.8299 69.976 61.7685 69.7836C65.8155 68.9538 68.9542 65.8146 69.784 61.7671C69.9764 60.8284 70 57.9002 70 34.9953C70 12.0905 69.9764 9.1623 69.784 8.22361C68.9529 4.16926 65.8223 1.03829 61.7685 0.207076C60.8287 0.0144152 57.9216 -0.00773597 34.9033 0.00183552C13.317 0.0109968 8.94649 0.0440868 8.20328 0.204341ZM12.6324 9.74862C11.8962 9.98941 10.9264 10.665 10.3984 11.3052C9.66973 12.1888 9.40053 13.1161 9.32861 14.99L9.26449 16.6572L8.51131 16.7513C7.49426 16.8784 6.011 17.64 5.38798 18.355C5.11304 18.6706 4.7264 19.2673 4.52898 19.681C4.21562 20.3377 4.17009 20.6062 4.17036 21.8004C4.17064 23.0709 4.20126 23.2258 4.60308 23.9881C5.41272 25.5243 6.9493 26.6163 8.49942 26.7569L9.29115 26.8287L9.32834 41.7483L9.36539 56.6679L9.69406 57.4841C10.0884 58.4635 11.105 59.5372 12.0998 60.0247C12.6867 60.3125 12.9765 60.3598 14.1505 60.3596C15.3817 60.3596 15.5896 60.3218 16.2401 59.979C17.1794 59.4841 18.0004 58.6327 18.4439 57.6934L18.799 56.9414L18.8349 41.8852L18.8709 26.8288L19.6813 26.7554C21.7648 26.5664 23.4638 25.0753 24.0056 22.9601C24.7313 20.1274 22.8261 17.2848 19.8692 16.7878L18.8876 16.6229L18.8433 14.836C18.8037 13.2419 18.7599 12.966 18.4369 12.277C17.9929 11.3297 17.1969 10.5126 16.2401 10.0215C15.6554 9.72141 15.2962 9.64265 14.3556 9.60792C13.6384 9.58153 12.9787 9.6354 12.6324 9.74862ZM33.2716 9.84721C32.4696 10.1557 31.4327 11.0122 30.9658 11.7521C30.1966 12.9707 30.2149 12.6076 30.2149 26.5932V39.4723L29.4053 39.5639C27.6708 39.7602 25.9042 41.1296 25.288 42.7555C24.8813 43.829 24.8821 45.3067 25.2901 46.3834C25.9184 48.0418 27.6955 49.4043 29.4694 49.5874L30.2149 49.6643V52.9703C30.2149 56.5245 30.3115 57.202 30.9658 58.2386C32.4888 60.6514 35.9558 61.1725 38.0749 59.3069C39.5905 57.9727 39.7852 57.251 39.7852 52.969V49.6613L40.5949 49.5697C42.3294 49.3735 44.096 48.0041 44.7122 46.3782C45.1181 45.307 45.1181 43.8267 44.7122 42.7555C44.096 41.1296 42.3294 39.7602 40.5949 39.5639L39.7852 39.4723V26.5828C39.7852 13.876 39.7811 13.6802 39.4981 12.7639C39.2557 11.9789 39.0805 11.7038 38.3702 10.9941C37.7588 10.3832 37.3135 10.0732 36.7381 9.85815C35.7079 9.47324 34.2559 9.46859 33.2716 9.84721ZM54.5508 9.68258C53.2327 10.1151 52.1263 11.0759 51.5633 12.277L51.2012 13.0493L51.1633 19.8346L51.1255 26.62L50.3357 26.7093C48.0588 26.967 46.1223 28.8994 45.8573 31.1784C45.5442 33.8708 47.6068 36.4432 50.3048 36.7253L51.1278 36.8113L51.1644 46.8763L51.2012 56.9414L51.5637 57.7146C51.991 58.6263 52.8358 59.4906 53.7942 59.9963C54.4063 60.3193 54.6338 60.3596 55.8496 60.3596C57.0704 60.3598 57.3004 60.3188 57.9965 59.9769C58.9674 59.5 59.9014 58.4832 60.3198 57.4476L60.6348 56.6679L60.6732 46.7391L60.7116 36.8102L61.4822 36.7308C63.1248 36.5612 64.7184 35.3845 65.4664 33.7886C65.7805 33.1186 65.8301 32.8348 65.8301 31.7105C65.8301 30.5141 65.7934 30.334 65.3799 29.4939C64.6147 27.9399 63.1987 26.9504 61.3984 26.7115L60.7032 26.6192V23.7549V20.8905L60.2896 20.4769C59.958 20.1453 59.802 20.0808 59.5034 20.1515C58.6941 20.3429 58.6524 20.5185 58.6524 23.7298V26.6545H55.918H53.1836V20.1684C53.1836 15.9274 53.2338 13.5492 53.3287 13.2975C53.5256 12.7754 54.2495 12.0324 54.7857 11.8024C55.9045 11.3222 57.4192 11.7337 58.0659 12.6935C58.5389 13.3955 58.6507 13.9923 58.6516 15.8182C58.6522 17.3102 58.6822 17.523 58.9258 17.7667C59.2945 18.1354 60.0346 18.1279 60.3743 17.7519C60.6069 17.4944 60.6342 17.2419 60.6292 15.3932C60.6225 12.9534 60.4102 12.2144 59.3905 11.0802C58.4878 10.076 57.5348 9.65386 56.0658 9.60751C55.4205 9.58714 54.7388 9.62091 54.5508 9.68258ZM15.2145 11.8024C15.7507 12.0324 16.4746 12.7754 16.6715 13.2975C16.7512 13.5091 16.8165 14.3552 16.8165 15.1776V16.6728H14.0674H11.3183L11.3734 15.1345C11.4405 13.2601 11.7015 12.6373 12.6797 12.0167C13.4028 11.5582 14.4408 11.4704 15.2145 11.8024ZM36.2018 11.8738C36.8432 12.2026 37.2535 12.6414 37.5228 13.2861C37.7088 13.731 37.7345 15.3542 37.7345 26.6501V39.5076H35.0001H32.2657L32.2687 26.6203C32.2716 14.3833 32.2845 13.7053 32.5241 13.186C33.1601 11.8077 34.8781 11.1947 36.2018 11.8738ZM20.4605 19.0959C22.5926 20.2362 22.6725 23.1431 20.6042 24.3294L19.8927 24.7376L14.1803 24.7389C9.32328 24.74 8.39182 24.7083 7.95965 24.5278C6.8376 24.0591 6.15975 23.0077 6.15675 21.732C6.15374 20.402 7.11282 19.1642 8.38895 18.8514C8.6252 18.7934 11.3102 18.7563 14.3556 18.7691C19.7926 18.7918 19.903 18.7976 20.4605 19.0959ZM16.8165 41.563C16.8165 57.77 16.8666 56.8101 15.9783 57.6509C15.3939 58.2042 14.9301 58.3771 14.0317 58.3771C13.0966 58.3771 12.1771 57.8201 11.7302 56.9827L11.4162 56.3945L11.3797 41.5928L11.343 26.7912H14.0799H16.8165V41.563ZM62.381 29.1574C63.2744 29.6828 63.7484 30.4333 63.821 31.438C63.8526 31.8745 63.802 32.4631 63.7088 32.7459C63.4804 33.4378 62.5471 34.3452 61.8494 34.5537C61.4438 34.675 59.7457 34.721 55.7654 34.7189C50.7034 34.7161 50.1987 34.6949 49.6973 34.4649C47.7521 33.5725 47.2697 31.2324 48.7165 29.7065C49.6672 28.7039 49.6389 28.7076 56.0547 28.7427L61.7285 28.7739L62.381 29.1574ZM58.6217 46.5837L58.584 56.3945L58.27 56.9827C57.82 57.8255 56.9044 58.3771 55.9552 58.3771C55.5539 58.3771 55.0277 58.2922 54.7857 58.1883C54.2495 57.9583 53.5256 57.2153 53.3287 56.6932C53.2314 56.4349 53.1836 53.0957 53.1836 46.5406V36.7729H55.9216H58.6593L58.6217 46.5837ZM40.8896 41.7147C42.5936 42.2252 43.4896 44.3111 42.6819 45.8867C42.3315 46.5706 41.5333 47.2582 40.879 47.4403C40.248 47.6159 29.7522 47.6159 29.1212 47.4403C28.858 47.367 28.4101 47.1153 28.126 46.8809C26.3239 45.3942 26.8191 42.5385 29.0172 41.7412C29.6342 41.5174 40.1527 41.494 40.8896 41.7147ZM37.7345 52.9121C37.7345 56.4232 37.6716 56.8249 37.0101 57.534C35.9692 58.65 34.031 58.65 32.9901 57.534C32.3286 56.8249 32.2657 56.4232 32.2657 52.9121V49.626H35.0001H37.7345V52.9121Z" fill="#E49B00"/>
</svg>
