<svg width="1494" height="96" viewBox="0 0 1494 96" fill="none" xmlns="http://www.w3.org/2000/svg">
<path d="M57.6153 80.4343L58.5624 80.1135L58.3324 79.4343H57.6153V80.4343ZM26.8393 80.4343V79.4343H26.1222L25.8922 80.1135L26.8393 80.4343ZM21.9058 95V96H22.6229L22.8529 95.3208L21.9058 95ZM0.879448 95L-0.0608918 94.6598L-0.545821 96H0.879448L0.879448 95ZM30.7157 12.5392V11.5392H30.0141L29.7753 12.199L30.7157 12.5392ZM53.9739 12.5392L54.9142 12.199L54.6755 11.5392H53.9739V12.5392ZM83.8101 95V96H85.2354L84.7504 94.6598L83.8101 95ZM62.5488 95L61.6017 95.3208L61.8317 96H62.5488V95ZM52.4468 64.9288V65.9288H53.8411L53.394 64.6082L52.4468 64.9288ZM42.2273 34.7402L43.1745 34.4196L42.2218 31.6053L41.279 34.4229L42.2273 34.7402ZM32.1253 64.9288L31.177 64.6115L30.7361 65.9288H32.1253V64.9288ZM57.6153 79.4343L26.8393 79.4343V81.4343L57.6153 81.4343V79.4343ZM25.8922 80.1135L20.9586 94.6792L22.8529 95.3208L27.7865 80.7551L25.8922 80.1135ZM21.9058 94H0.879448L0.879448 96H21.9058V94ZM1.81979 95.3402L31.656 12.8795L29.7753 12.199L-0.0608918 94.6598L1.81979 95.3402ZM30.7157 13.5392H53.9739V11.5392H30.7157V13.5392ZM53.0335 12.8795L82.8698 95.3402L84.7504 94.6598L54.9142 12.199L53.0335 12.8795ZM83.8101 94H62.5488V96H83.8101V94ZM63.496 94.6792L58.5624 80.1135L56.6681 80.7551L61.6017 95.3208L63.496 94.6792ZM53.394 64.6082L43.1745 34.4196L41.2801 35.0608L51.4996 65.2495L53.394 64.6082ZM41.279 34.4229L31.177 64.6115L33.0736 65.2462L43.1756 35.0575L41.279 34.4229ZM32.1253 65.9288L52.4468 65.9288V63.9288L32.1253 63.9288V65.9288ZM153.503 36.2673L152.762 36.9388L152.767 36.9448L152.773 36.9508L153.503 36.2673ZM160.433 95V96H161.433V95H160.433ZM140.464 95H139.464V96H140.464V95ZM137.058 49.1885L136.327 49.8716L136.327 49.8716L137.058 49.1885ZM118.733 49.1885L119.463 49.8716L119.463 49.8716L118.733 49.1885ZM115.327 95V96H116.327V95H115.327ZM95.24 95H94.24V96H95.24V95ZM95.24 29.4543V28.4543H94.24V29.4543H95.24ZM115.327 29.4543H116.327V28.4543H115.327V29.4543ZM115.327 38.1467H114.327V41.3091L116.145 38.7216L115.327 38.1467ZM123.549 31.3337L123.98 32.2362L123.988 32.2322L123.996 32.2281L123.549 31.3337ZM135.178 29.7495C142.612 29.7495 148.436 32.1653 152.762 36.9388L154.244 35.5957C149.486 30.3454 143.093 27.7495 135.178 27.7495V29.7495ZM152.773 36.9508C157.174 41.6506 159.433 48.1925 159.433 56.7062H161.433C161.433 47.8351 159.072 40.751 154.233 35.5837L152.773 36.9508ZM159.433 56.7062V95H161.433V56.7062H159.433ZM160.433 94H140.464V96H160.433V94ZM141.464 95V59.408H139.464V95H141.464ZM141.464 59.408C141.464 54.852 140.282 51.1711 137.788 48.5053L136.327 49.8716C138.376 52.0611 139.464 55.1931 139.464 59.408H141.464ZM137.788 48.5053C135.298 45.8438 131.963 44.547 127.895 44.547V46.547C131.503 46.547 134.275 47.6779 136.327 49.8716L137.788 48.5053ZM127.895 44.547C123.828 44.547 120.493 45.8438 118.003 48.5053L119.463 49.8716C121.516 47.6779 124.288 46.547 127.895 46.547V44.547ZM118.003 48.5053C115.509 51.1711 114.327 54.852 114.327 59.408H116.327C116.327 55.1931 117.415 52.0611 119.463 49.8716L118.003 48.5053ZM114.327 59.408V95H116.327V59.408H114.327ZM115.327 94H95.24V96H115.327V94ZM96.24 95V29.4543H94.24V95H96.24ZM95.24 30.4543H115.327V28.4543L95.24 28.4543V30.4543ZM114.327 29.4543V38.1467H116.327V29.4543H114.327ZM116.145 38.7216C118.074 35.9757 120.677 33.8126 123.98 32.2362L123.118 30.4312C119.53 32.1438 116.651 34.5227 114.508 37.5718L116.145 38.7216ZM123.996 32.2281C127.288 30.5826 131.008 29.7495 135.178 29.7495V27.7495C130.735 27.7495 126.702 28.6392 123.102 30.4393L123.996 32.2281ZM176.506 44.3724L175.614 43.9196L175.609 43.9307L176.506 44.3724ZM186.96 32.6258L187.49 33.4738L187.49 33.4738L186.96 32.6258ZM213.39 31.2162L212.935 32.1067L212.943 32.1107L213.39 31.2162ZM221.848 38.4991L221.016 39.0538L222.848 41.8019V38.4991H221.848ZM221.848 8.07553V7.07553H220.848V8.07553H221.848ZM241.934 8.07553L242.934 8.07553V7.07553L241.934 7.07553V8.07553ZM241.934 95V96H242.934V95H241.934ZM221.848 95H220.848V96H221.848V95ZM221.848 85.6028H222.848V81.9924L220.99 85.0883L221.848 85.6028ZM213.743 93.1206L213.272 92.2382L213.264 92.2427L213.743 93.1206ZM186.96 91.8284L186.42 92.6697L186.43 92.6764L186.96 91.8284ZM176.506 79.9644L175.606 80.4007L175.61 80.4089L175.614 80.4171L176.506 79.9644ZM217.619 50.3631L216.892 51.0504L216.902 51.0605L217.619 50.3631ZM197.297 50.3631L196.581 49.6658L196.58 49.666L197.297 50.3631ZM197.297 74.0911L196.562 74.7686L196.571 74.7787L196.581 74.7885L197.297 74.0911ZM217.619 74.0911L216.902 73.3937L216.892 73.4039L217.619 74.0911ZM173.747 62.1097C173.747 55.4997 174.976 49.7434 177.403 44.8141L175.609 43.9307C173.024 49.1817 171.747 55.2502 171.747 62.1097H173.747ZM177.398 44.8251C179.908 39.8797 183.275 36.1084 187.49 33.4738L186.43 31.7778C181.875 34.6249 178.272 38.6847 175.614 43.9197L177.398 44.8251ZM187.49 33.4738C191.71 30.8369 196.419 29.5145 201.644 29.5145V27.5145C196.062 27.5145 190.982 28.9331 186.43 31.7778L187.49 33.4738ZM201.644 29.5145C205.807 29.5145 209.564 30.3838 212.935 32.1067L213.845 30.3258C210.168 28.4464 206.095 27.5145 201.644 27.5145V29.5145ZM212.943 32.1107C216.405 33.8417 219.085 36.1583 221.016 39.0538L222.68 37.9444C220.538 34.7317 217.58 32.193 213.837 30.3218L212.943 32.1107ZM222.848 38.4991V8.07553H220.848V38.4991H222.848ZM221.848 9.07553H241.934V7.07553H221.848V9.07553ZM240.934 8.07553L240.934 95H242.934L242.934 8.07553L240.934 8.07553ZM241.934 94H221.848V96H241.934V94ZM222.848 95V85.6028H220.848V95H222.848ZM220.99 85.0883C219.213 88.0509 216.651 90.4358 213.272 92.2382L214.213 94.0029C217.882 92.0464 220.724 89.4194 222.705 86.1173L220.99 85.0883ZM213.264 92.2427C209.989 94.0289 206.126 94.9397 201.644 94.9397V96.9397C206.401 96.9397 210.605 95.9711 214.221 93.9984L213.264 92.2427ZM201.644 94.9397C196.419 94.9397 191.71 93.6174 187.49 90.9804L186.43 92.6764C190.982 95.5212 196.062 96.9397 201.644 96.9397V94.9397ZM187.501 90.9873C183.279 88.2731 179.909 84.459 177.398 79.5117L175.614 80.4171C178.271 85.6501 181.871 89.7454 186.42 92.6696L187.501 90.9873ZM177.406 79.5281C174.976 74.5172 173.747 68.7192 173.747 62.1097H171.747C171.747 68.9695 173.024 75.0747 175.606 80.4007L177.406 79.5281ZM222.848 62.2271C222.848 57.0207 221.378 52.7923 218.336 49.6658L216.902 51.0605C219.498 53.7288 220.848 57.4099 220.848 62.2271H222.848ZM218.345 49.6759C215.415 46.5784 211.785 45.0169 207.517 45.0169V47.0169C211.236 47.0169 214.341 48.3528 216.892 51.0503L218.345 49.6759ZM207.517 45.0169C203.249 45.0169 199.585 46.5775 196.581 49.6658L198.014 51.0605C200.648 48.3538 203.797 47.0169 207.517 47.0169V45.0169ZM196.58 49.666C193.612 52.7193 192.186 56.9122 192.186 62.1097H194.186C194.186 57.2834 195.501 53.6452 198.014 51.0602L196.58 49.666ZM192.186 62.1097C192.186 67.3098 193.613 71.5667 196.562 74.7686L198.033 73.4137C195.5 70.664 194.186 66.9332 194.186 62.1097H192.186ZM196.581 74.7885C199.585 77.8768 203.249 79.4374 207.517 79.4374V77.4374C203.797 77.4374 200.648 76.1004 198.014 73.3938L196.581 74.7885ZM207.517 79.4374C211.785 79.4374 215.415 77.8758 218.345 74.7783L216.892 73.4039C214.341 76.1014 211.236 77.4374 207.517 77.4374V79.4374ZM218.336 74.7885C221.378 71.6619 222.848 67.4336 222.848 62.2271H220.848C220.848 67.0444 219.498 70.7254 216.902 73.3938L218.336 74.7885ZM278.902 40.3785H277.902V43.7425L279.74 40.9248L278.902 40.3785ZM287.712 31.921L288.212 32.7869L288.219 32.7828L288.226 32.7785L287.712 31.921ZM299.458 28.7495H300.458V27.7495H299.458V28.7495ZM299.458 50.0107V51.0107H300.458V50.0107H299.458ZM282.661 53.2997L283.306 54.064L283.313 54.0582L283.319 54.0523L282.661 53.2997ZM278.902 95V96H279.902V95H278.902ZM258.815 95H257.815V96H258.815V95ZM258.815 29.4543V28.4543H257.815V29.4543H258.815ZM278.902 29.4543H279.902V28.4543H278.902V29.4543ZM279.74 40.9248C282.008 37.4464 284.832 34.7399 288.212 32.7869L287.212 31.0552C283.544 33.1743 280.494 36.1061 278.064 39.8323L279.74 40.9248ZM288.226 32.7785C291.587 30.762 295.323 29.7495 299.458 29.7495V27.7495C294.979 27.7495 290.884 28.8513 287.197 31.0635L288.226 32.7785ZM298.458 28.7495V50.0107H300.458V28.7495H298.458ZM299.458 49.0107H293.938V51.0107H299.458V49.0107ZM293.938 49.0107C288.802 49.0107 284.763 50.1313 282.002 52.5472L283.319 54.0523C285.57 52.0829 289.049 51.0107 293.938 51.0107V49.0107ZM282.016 52.5355C279.173 54.9339 277.902 59.0647 277.902 64.5764H279.902C279.902 59.2813 281.136 55.8944 283.306 54.064L282.016 52.5355ZM277.902 64.5764V95H279.902V64.5764H277.902ZM278.902 94L258.815 94V96L278.902 96V94ZM259.815 95V29.4543H257.815V95H259.815ZM258.815 30.4543H278.902V28.4543H258.815V30.4543ZM277.902 29.4543V40.3785H279.902V29.4543H277.902ZM323.86 91.8284L323.386 92.7089L323.391 92.7119L323.86 91.8284ZM311.761 80.0819L310.892 80.5766L310.898 80.5866L311.761 80.0819ZM311.879 44.4898L312.742 44.9945L312.745 44.9888L311.879 44.4898ZM324.095 32.6258L324.563 33.5093L324.563 33.5093L324.095 32.6258ZM358.865 32.6258L358.396 33.5093L358.396 33.5093L358.865 32.6258ZM371.081 44.4898L370.214 44.9888L370.218 44.9945L371.081 44.4898ZM370.964 80.0819L370.103 79.5731L370.1 79.5772L370.964 80.0819ZM358.63 91.8284L358.167 90.9421L358.161 90.945L358.63 91.8284ZM350.995 74.3261L350.278 73.629L350.272 73.6342L350.268 73.6394L350.995 74.3261ZM351.112 50.1282L350.375 50.8039L350.38 50.8094L350.385 50.8148L351.112 50.1282ZM331.73 50.1282L332.458 50.8143L332.467 50.8039L331.73 50.1282ZM331.613 74.3261L330.865 74.9904L330.87 74.9962L330.876 75.0018L331.613 74.3261ZM341.245 94.9397C334.971 94.9397 329.339 93.602 324.329 90.945L323.391 92.7119C328.718 95.5366 334.676 96.9397 341.245 96.9397V94.9397ZM324.334 90.948C319.409 88.296 315.509 84.512 312.624 79.5772L310.898 80.5866C313.964 85.8321 318.131 89.8791 323.386 92.7089L324.334 90.948ZM312.63 79.5872C309.832 74.6708 308.415 68.8952 308.415 62.2271L306.415 62.2271C306.415 69.185 307.896 75.3126 310.892 80.5766L312.63 79.5872ZM308.415 62.2271C308.415 55.6442 309.868 49.9108 312.742 44.9945L311.015 43.9851C307.938 49.2492 306.415 55.3407 306.415 62.2271L308.415 62.2271ZM312.745 44.9888C315.629 39.98 319.565 36.1602 324.563 33.5093L323.626 31.7424C318.288 34.5732 314.08 38.6627 311.012 43.9909L312.745 44.9888ZM324.563 33.5093C329.574 30.8522 335.205 29.5145 341.48 29.5145V27.5145C334.911 27.5145 328.953 28.9177 323.626 31.7424L324.563 33.5093ZM341.48 29.5145C347.754 29.5145 353.386 30.8522 358.396 33.5093L359.333 31.7424C354.007 28.9177 348.048 27.5145 341.48 27.5145V29.5145ZM358.396 33.5093C363.395 36.1602 367.331 39.98 370.215 44.9888L371.948 43.9909C368.88 38.6627 364.671 34.5732 359.333 31.7424L358.396 33.5093ZM370.218 44.9945C373.092 49.9108 374.545 55.6442 374.545 62.2271H376.545C376.545 55.3407 375.022 49.2492 371.944 43.9851L370.218 44.9945ZM374.545 62.2271C374.545 68.8052 373.055 74.5769 370.103 79.5732L371.825 80.5906C374.98 75.2499 376.545 69.1185 376.545 62.2271H374.545ZM370.1 79.5772C367.22 84.5044 363.248 88.2879 358.167 90.9421L359.093 92.7148C364.506 89.8872 368.756 85.8397 371.827 80.5866L370.1 79.5772ZM358.161 90.945C353.151 93.602 347.519 94.9397 341.245 94.9397V96.9397C347.813 96.9397 353.772 95.5366 359.098 92.7119L358.161 90.945ZM341.245 79.5548C345.361 79.5548 348.872 78.0295 351.722 75.0127L350.268 73.6394C347.792 76.261 344.804 77.5548 341.245 77.5548V79.5548ZM351.712 75.0232C354.688 71.9617 356.106 67.6447 356.106 62.2271H354.106C354.106 67.3031 352.783 71.0521 350.278 73.629L351.712 75.0232ZM356.106 62.2271C356.106 56.8168 354.731 52.5038 351.839 49.4416L350.385 50.8148C352.818 53.3909 354.106 57.1438 354.106 62.2271H356.106ZM351.849 49.4525C349.075 46.4259 345.596 44.8994 341.48 44.8994V46.8994C345.038 46.8994 347.981 48.1922 350.375 50.8039L351.849 49.4525ZM341.48 44.8994C337.292 44.8994 333.772 46.4211 330.993 49.4525L332.467 50.8039C334.857 48.1969 337.837 46.8994 341.48 46.8994V44.8994ZM331.003 49.4422C328.182 52.4334 326.854 56.7527 326.854 62.2271H328.854C328.854 57.0513 330.11 53.3047 332.458 50.8142L331.003 49.4422ZM326.854 62.2271C326.854 67.6231 328.143 71.9275 330.865 74.9904L332.36 73.6617C330.071 71.0863 328.854 67.3248 328.854 62.2271H326.854ZM330.876 75.0018C333.65 78.0284 337.128 79.5548 341.245 79.5548V77.5548C337.687 77.5548 334.744 76.2621 332.35 73.6503L330.876 75.0018ZM389.96 19.5872L389.266 20.307L389.279 20.3196L389.292 20.3317L389.96 19.5872ZM389.96 4.0817L390.64 4.8145L390.641 4.8136L389.96 4.0817ZM407.11 4.0817L406.416 4.80155L406.429 4.81415L406.442 4.82627L407.11 4.0817ZM407.11 19.5872L407.79 20.3199L407.791 20.319L407.11 19.5872ZM408.637 29.4543H409.637V28.4543H408.637V29.4543ZM408.637 95V96H409.637V95H408.637ZM388.55 95H387.55V96H388.55V95ZM388.55 29.4543V28.4543H387.55V29.4543H388.55ZM398.652 21.6413C395.334 21.6413 392.687 20.6888 390.628 18.8426L389.292 20.3317C391.775 22.5576 394.923 23.6413 398.652 23.6413V21.6413ZM390.654 18.8673C388.658 16.942 387.671 14.6178 387.671 11.8344H385.671C385.671 15.1592 386.877 18.0036 389.266 20.307L390.654 18.8673ZM387.671 11.8344C387.671 8.9654 388.662 6.65159 390.64 4.8145L389.28 3.34891C386.873 5.58396 385.671 8.43863 385.671 11.8344H387.671ZM390.641 4.8136C392.702 2.89515 395.344 1.91013 398.652 1.91013V-0.0898662C394.913 -0.0898662 391.76 1.0395 389.279 3.34981L390.641 4.8136ZM398.652 1.91013C401.876 1.91013 404.434 2.89092 406.416 4.80155L407.804 3.36186C405.4 1.04373 402.32 -0.0898662 398.652 -0.0898662V1.91013ZM406.442 4.82627C408.495 6.6669 409.516 8.97743 409.516 11.8344H411.516C411.516 8.4266 410.267 5.56865 407.778 3.33713L406.442 4.82627ZM409.516 11.8344C409.516 14.6059 408.5 16.9266 406.429 18.8553L407.791 20.319C410.262 18.0189 411.516 15.1711 411.516 11.8344H409.516ZM406.43 18.8544C404.45 20.6927 401.887 21.6413 398.652 21.6413V23.6413C402.31 23.6413 405.385 22.5538 407.79 20.3199L406.43 18.8544ZM407.637 29.4543V95H409.637V29.4543H407.637ZM408.637 94H388.55V96H408.637V94ZM389.55 95V29.4543H387.55V95H389.55ZM388.55 30.4543L408.637 30.4543V28.4543H388.55V30.4543ZM425.308 44.3724L424.416 43.9196L424.411 43.9307L425.308 44.3724ZM435.762 32.6258L436.292 33.4738L436.292 33.4738L435.762 32.6258ZM462.192 31.2162L461.737 32.1067L461.745 32.1107L462.192 31.2162ZM470.65 38.4991L469.818 39.0538L471.65 41.8019V38.4991H470.65ZM470.65 8.07553V7.07553H469.65V8.07553H470.65ZM490.736 8.07553H491.736V7.07553H490.736V8.07553ZM490.736 95V96H491.736V95H490.736ZM470.65 95H469.65V96H470.65V95ZM470.65 85.6028H471.65V81.9924L469.792 85.0883L470.65 85.6028ZM462.545 93.1206L462.074 92.2382L462.066 92.2427L462.545 93.1206ZM435.762 91.8284L435.222 92.6697L435.232 92.6764L435.762 91.8284ZM425.308 79.9644L424.408 80.4007L424.412 80.4089L424.416 80.4171L425.308 79.9644ZM466.421 50.3631L465.694 51.0504L465.704 51.0605L466.421 50.3631ZM446.099 50.3631L445.383 49.6658L445.382 49.666L446.099 50.3631ZM446.099 74.0911L445.364 74.7686L445.373 74.7787L445.383 74.7885L446.099 74.0911ZM466.421 74.0911L465.704 73.3937L465.694 73.4039L466.421 74.0911ZM422.549 62.1097C422.549 55.4997 423.778 49.7434 426.205 44.8141L424.411 43.9307C421.826 49.1817 420.549 55.2502 420.549 62.1097H422.549ZM426.2 44.8251C428.71 39.8797 432.077 36.1084 436.292 33.4738L435.232 31.7778C430.677 34.6249 427.074 38.6847 424.416 43.9197L426.2 44.8251ZM436.292 33.4738C440.512 30.8369 445.221 29.5145 450.446 29.5145V27.5145C444.864 27.5145 439.784 28.9331 435.232 31.7778L436.292 33.4738ZM450.446 29.5145C454.609 29.5145 458.366 30.3838 461.737 32.1067L462.647 30.3258C458.97 28.4464 454.897 27.5145 450.446 27.5145V29.5145ZM461.745 32.1107C465.207 33.8417 467.887 36.1583 469.818 39.0538L471.482 37.9444C469.34 34.7317 466.382 32.193 462.639 30.3218L461.745 32.1107ZM471.65 38.4991V8.07553H469.65V38.4991H471.65ZM470.65 9.07553H490.736V7.07553H470.65V9.07553ZM489.736 8.07553V95H491.736V8.07553H489.736ZM490.736 94H470.65V96H490.736V94ZM471.65 95V85.6028H469.65V95H471.65ZM469.792 85.0883C468.015 88.0509 465.453 90.4358 462.074 92.2382L463.015 94.0029C466.684 92.0464 469.526 89.4194 471.507 86.1173L469.792 85.0883ZM462.066 92.2427C458.791 94.0289 454.928 94.9397 450.446 94.9397V96.9397C455.204 96.9397 459.407 95.9711 463.023 93.9984L462.066 92.2427ZM450.446 94.9397C445.221 94.9397 440.512 93.6174 436.292 90.9804L435.232 92.6764C439.784 95.5212 444.864 96.9397 450.446 96.9397V94.9397ZM436.303 90.9873C432.081 88.2731 428.711 84.459 426.2 79.5117L424.416 80.4171C427.073 85.6501 430.673 89.7454 435.222 92.6696L436.303 90.9873ZM426.208 79.5281C423.778 74.5172 422.549 68.7192 422.549 62.1097H420.549C420.549 68.9695 421.826 75.0747 424.408 80.4007L426.208 79.5281ZM471.65 62.2271C471.65 57.0207 470.18 52.7923 467.138 49.6658L465.704 51.0605C468.3 53.7288 469.65 57.4099 469.65 62.2271H471.65ZM467.147 49.6759C464.217 46.5784 460.587 45.0169 456.319 45.0169V47.0169C460.038 47.0169 463.143 48.3528 465.694 51.0503L467.147 49.6759ZM456.319 45.0169C452.051 45.0169 448.387 46.5775 445.383 49.6658L446.816 51.0605C449.45 48.3538 452.599 47.0169 456.319 47.0169V45.0169ZM445.382 49.666C442.414 52.7193 440.988 56.9122 440.988 62.1097H442.988C442.988 57.2834 444.303 53.6452 446.816 51.0602L445.382 49.666ZM440.988 62.1097C440.988 67.3098 442.415 71.5667 445.364 74.7686L446.835 73.4137C444.302 70.664 442.988 66.9332 442.988 62.1097H440.988ZM445.383 74.7885C448.387 77.8768 452.051 79.4374 456.319 79.4374V77.4374C452.599 77.4374 449.45 76.1004 446.816 73.3938L445.383 74.7885ZM456.319 79.4374C460.587 79.4374 464.217 77.8758 467.147 74.7783L465.694 73.4039C463.143 76.1014 460.038 77.4374 456.319 77.4374V79.4374ZM467.138 74.7885C470.18 71.6619 471.65 67.4336 471.65 62.2271H469.65C469.65 67.0444 468.3 70.7254 465.704 73.3938L467.138 74.7885ZM558.95 80.4343L559.897 80.1135L559.667 79.4343H558.95V80.4343ZM528.174 80.4343V79.4343H527.457L527.227 80.1135L528.174 80.4343ZM523.24 95V96H523.957L524.187 95.3208L523.24 95ZM502.214 95L501.274 94.6598L500.789 96H502.214V95ZM532.05 12.5392V11.5392H531.349L531.11 12.199L532.05 12.5392ZM555.308 12.5392L556.249 12.199L556.01 11.5392H555.308V12.5392ZM585.145 95V96H586.57L586.085 94.6598L585.145 95ZM563.883 95L562.936 95.3208L563.166 96H563.883V95ZM553.781 64.9288V65.9288H555.176L554.728 64.6082L553.781 64.9288ZM543.562 34.7402L544.509 34.4196L543.556 31.6053L542.613 34.4229L543.562 34.7402ZM533.46 64.9288L532.511 64.6115L532.071 65.9288H533.46V64.9288ZM558.95 79.4343H528.174V81.4343H558.95V79.4343ZM527.227 80.1135L522.293 94.6792L524.187 95.3208L529.121 80.7551L527.227 80.1135ZM523.24 94H502.214V96H523.24V94ZM503.154 95.3402L532.99 12.8795L531.11 12.199L501.274 94.6598L503.154 95.3402ZM532.05 13.5392L555.308 13.5392V11.5392L532.05 11.5392V13.5392ZM554.368 12.8795L584.204 95.3402L586.085 94.6598L556.249 12.199L554.368 12.8795ZM585.145 94H563.883V96H585.145V94ZM564.83 94.6792L559.897 80.1135L558.003 80.7551L562.936 95.3208L564.83 94.6792ZM554.728 64.6082L544.509 34.4196L542.615 35.0608L552.834 65.2495L554.728 64.6082ZM542.613 34.4229L532.511 64.6115L534.408 65.2462L544.51 35.0575L542.613 34.4229ZM533.46 65.9288H553.781V63.9288H533.46V65.9288ZM654.837 36.2673L654.096 36.9388L654.102 36.9448L654.107 36.9508L654.837 36.2673ZM661.768 95V96H662.768V95H661.768ZM641.799 95H640.799V96H641.799V95ZM638.392 49.1885L637.662 49.8716L637.662 49.8716L638.392 49.1885ZM620.068 49.1885L620.798 49.8716L620.798 49.8716L620.068 49.1885ZM616.661 95V96L617.661 96V95L616.661 95ZM596.574 95H595.574V96H596.574V95ZM596.574 29.4543V28.4543H595.574V29.4543H596.574ZM616.661 29.4543H617.661V28.4543H616.661V29.4543ZM616.661 38.1467H615.661V41.3091L617.479 38.7216L616.661 38.1467ZM624.884 31.3337L625.314 32.2362L625.323 32.2322L625.331 32.2281L624.884 31.3337ZM636.513 29.7495C643.947 29.7495 649.77 32.1653 654.096 36.9388L655.578 35.5957C650.82 30.3454 644.427 27.7495 636.513 27.7495V29.7495ZM654.107 36.9508C658.509 41.6506 660.768 48.1925 660.768 56.7062L662.768 56.7062C662.768 47.8351 660.406 40.751 655.567 35.5837L654.107 36.9508ZM660.768 56.7062V95H662.768V56.7062L660.768 56.7062ZM661.768 94H641.799V96H661.768V94ZM642.799 95V59.408H640.799V95H642.799ZM642.799 59.408C642.799 54.852 641.616 51.1711 639.122 48.5053L637.662 49.8716C639.71 52.0611 640.799 55.1931 640.799 59.408H642.799ZM639.122 48.5053C636.633 45.8438 633.297 44.547 629.23 44.547V46.547C632.837 46.547 635.61 47.6779 637.662 49.8716L639.122 48.5053ZM629.23 44.547C625.163 44.547 621.827 45.8438 619.337 48.5053L620.798 49.8716C622.85 47.6779 625.623 46.547 629.23 46.547V44.547ZM619.337 48.5053C616.844 51.1711 615.661 54.852 615.661 59.408H617.661C617.661 55.1931 618.75 52.0611 620.798 49.8716L619.337 48.5053ZM615.661 59.408V95L617.661 95V59.408H615.661ZM616.661 94H596.574V96H616.661V94ZM597.574 95V29.4543H595.574V95H597.574ZM596.574 30.4543H616.661V28.4543H596.574V30.4543ZM615.661 29.4543V38.1467H617.661V29.4543H615.661ZM617.479 38.7216C619.409 35.9757 622.011 33.8126 625.314 32.2362L624.453 30.4312C620.865 32.1438 617.985 34.5227 615.843 37.5718L617.479 38.7216ZM625.331 32.2281C628.622 30.5826 632.342 29.7495 636.513 29.7495V27.7495C632.069 27.7495 628.037 28.6392 624.436 30.4393L625.331 32.2281ZM677.84 44.3724L676.949 43.9196L676.943 43.9307L677.84 44.3724ZM688.295 32.6258L688.825 33.4738L688.825 33.4738L688.295 32.6258ZM714.725 31.2162L714.269 32.1067L714.277 32.1107L714.725 31.2162ZM723.182 38.4991L722.35 39.0538L724.182 41.8019V38.4991H723.182ZM723.182 8.07553V7.07553H722.182V8.07553H723.182ZM743.269 8.07553H744.269V7.07553H743.269V8.07553ZM743.269 95V96H744.269V95H743.269ZM723.182 95H722.182V96H723.182V95ZM723.182 85.6028H724.182V81.9924L722.325 85.0883L723.182 85.6028ZM715.077 93.1206L714.606 92.2382L714.598 92.2427L715.077 93.1206ZM688.295 91.8284L687.754 92.6697L687.765 92.6764L688.295 91.8284ZM677.84 79.9644L676.941 80.4007L676.945 80.4089L676.949 80.4171L677.84 79.9644ZM718.953 50.3631L718.227 51.0504L718.237 51.0605L718.953 50.3631ZM698.632 50.3631L697.915 49.6658L697.915 49.666L698.632 50.3631ZM698.632 74.0911L697.896 74.7686L697.906 74.7787L697.915 74.7885L698.632 74.0911ZM718.953 74.0911L718.237 73.3937L718.227 73.4039L718.953 74.0911ZM675.082 62.1097C675.082 55.4997 676.311 49.7434 678.738 44.8141L676.943 43.9307C674.358 49.1817 673.082 55.2502 673.082 62.1097H675.082ZM678.732 44.8251C681.243 39.8797 684.609 36.1084 688.825 33.4738L687.765 31.7778C683.209 34.6249 679.607 38.6847 676.949 43.9197L678.732 44.8251ZM688.825 33.4738C693.044 30.8369 697.753 29.5145 702.978 29.5145V27.5145C697.396 27.5145 692.316 28.9331 687.765 31.7778L688.825 33.4738ZM702.978 29.5145C707.141 29.5145 710.899 30.3838 714.269 32.1067L715.18 30.3258C711.503 28.4464 707.429 27.5145 702.978 27.5145V29.5145ZM714.277 32.1107C717.74 33.8417 720.42 36.1583 722.35 39.0538L724.014 37.9444C721.872 34.7317 718.914 32.193 715.172 30.3218L714.277 32.1107ZM724.182 38.4991V8.07553H722.182V38.4991H724.182ZM723.182 9.07553L743.269 9.07553V7.07553L723.182 7.07553V9.07553ZM742.269 8.07553V95H744.269V8.07553H742.269ZM743.269 94H723.182V96H743.269V94ZM724.182 95V85.6028H722.182V95H724.182ZM722.325 85.0883C720.547 88.0509 717.986 90.4358 714.606 92.2382L715.548 94.0029C719.216 92.0464 722.058 89.4194 724.04 86.1173L722.325 85.0883ZM714.598 92.2427C711.323 94.0289 707.461 94.9397 702.978 94.9397V96.9397C707.736 96.9397 711.939 95.9711 715.556 93.9984L714.598 92.2427ZM702.978 94.9397C697.753 94.9397 693.044 93.6174 688.825 90.9804L687.765 92.6764C692.316 95.5212 697.396 96.9397 702.978 96.9397V94.9397ZM688.836 90.9873C684.614 88.2731 681.244 84.459 678.732 79.5117L676.949 80.4171C679.606 85.6501 683.205 89.7454 687.754 92.6696L688.836 90.9873ZM678.74 79.5281C676.311 74.5172 675.082 68.7192 675.082 62.1097H673.082C673.082 68.9695 674.358 75.0747 676.941 80.4007L678.74 79.5281ZM724.182 62.2271C724.182 57.0207 722.712 52.7923 719.67 49.6658L718.237 51.0605C720.833 53.7288 722.182 57.4099 722.182 62.2271H724.182ZM719.68 49.6759C716.75 46.5784 713.12 45.0169 708.851 45.0169V47.0169C712.571 47.0169 715.675 48.3528 718.227 51.0503L719.68 49.6759ZM708.851 45.0169C704.584 45.0169 700.92 46.5775 697.915 49.6658L699.349 51.0605C701.982 48.3538 705.131 47.0169 708.851 47.0169V45.0169ZM697.915 49.666C694.946 52.7193 693.521 56.9122 693.521 62.1097H695.521C695.521 57.2834 696.836 53.6452 699.349 51.0602L697.915 49.666ZM693.521 62.1097C693.521 67.3098 694.947 71.5667 697.896 74.7686L699.367 73.4137C696.835 70.664 695.521 66.9332 695.521 62.1097H693.521ZM697.915 74.7885C700.92 77.8768 704.584 79.4374 708.851 79.4374V77.4374C705.131 77.4374 701.982 76.1004 699.349 73.3938L697.915 74.7885ZM708.851 79.4374C713.12 79.4374 716.75 77.8758 719.68 74.7783L718.227 73.4039C715.675 76.1014 712.571 77.4374 708.851 77.4374V79.4374ZM719.67 74.7885C722.712 71.6619 724.182 67.4336 724.182 62.2271H722.182C722.182 67.0444 720.833 70.7254 718.237 73.3938L719.67 74.7885ZM780.236 40.3785H779.236V43.7425L781.074 40.9248L780.236 40.3785ZM789.046 31.921L789.547 32.7869L789.554 32.7828L789.561 32.7785L789.046 31.921ZM800.793 28.7495H801.793V27.7495H800.793V28.7495ZM800.793 50.0107V51.0107H801.793V50.0107H800.793ZM783.995 53.2997L784.64 54.064L784.647 54.0582L784.654 54.0523L783.995 53.2997ZM780.236 95V96H781.236V95H780.236ZM760.15 95H759.15V96H760.15V95ZM760.15 29.4543V28.4543H759.15V29.4543H760.15ZM780.236 29.4543H781.236V28.4543H780.236V29.4543ZM781.074 40.9248C783.342 37.4464 786.166 34.7399 789.547 32.7869L788.546 31.0552C784.878 33.1743 781.829 36.1061 779.399 39.8323L781.074 40.9248ZM789.561 32.7785C792.922 30.762 796.658 29.7495 800.793 29.7495V27.7495C796.314 27.7495 792.219 28.8513 788.532 31.0635L789.561 32.7785ZM799.793 28.7495V50.0107H801.793V28.7495H799.793ZM800.793 49.0107H795.272V51.0107H800.793V49.0107ZM795.272 49.0107C790.136 49.0107 786.098 50.1313 783.337 52.5472L784.654 54.0523C786.905 52.0829 790.384 51.0107 795.272 51.0107V49.0107ZM783.35 52.5355C780.508 54.9339 779.236 59.0647 779.236 64.5764H781.236C781.236 59.2813 782.471 55.8944 784.64 54.064L783.35 52.5355ZM779.236 64.5764V95H781.236V64.5764H779.236ZM780.236 94H760.15V96H780.236V94ZM761.15 95V29.4543H759.15V95H761.15ZM760.15 30.4543H780.236V28.4543L760.15 28.4543V30.4543ZM779.236 29.4543V40.3785H781.236V29.4543H779.236ZM825.194 91.8284L824.72 92.7089L824.726 92.7119L825.194 91.8284ZM813.096 80.0819L812.226 80.5766L812.232 80.5866L813.096 80.0819ZM813.213 44.4898L814.076 44.9945L814.08 44.9888L813.213 44.4898ZM825.429 32.6258L825.898 33.5093L825.898 33.5093L825.429 32.6258ZM860.199 32.6258L859.731 33.5093L859.731 33.5093L860.199 32.6258ZM872.416 44.4898L871.549 44.9888L871.552 44.9945L872.416 44.4898ZM872.298 80.0819L871.437 79.5731L871.435 79.5772L872.298 80.0819ZM859.964 91.8284L859.501 90.9421L859.496 90.945L859.964 91.8284ZM852.329 74.3261L851.612 73.629L851.607 73.6342L851.602 73.6394L852.329 74.3261ZM852.446 50.1282L851.709 50.8039L851.714 50.8094L851.719 50.8148L852.446 50.1282ZM833.065 50.1282L833.792 50.8143L833.802 50.8039L833.065 50.1282ZM832.947 74.3261L832.2 74.9904L832.205 74.9962L832.21 75.0018L832.947 74.3261ZM842.579 94.9397C836.305 94.9397 830.673 93.602 825.663 90.945L824.726 92.7119C830.052 95.5366 836.011 96.9397 842.579 96.9397V94.9397ZM825.669 90.948C820.744 88.296 816.844 84.512 813.959 79.5772L812.232 80.5866C815.299 85.8321 819.465 89.8791 824.72 92.7089L825.669 90.948ZM813.965 79.5872C811.166 74.6708 809.749 68.8952 809.749 62.2271H807.749C807.749 69.185 809.23 75.3126 812.226 80.5766L813.965 79.5872ZM809.749 62.2271C809.749 55.6442 811.202 49.9108 814.076 44.9945L812.35 43.9851C809.272 49.2492 807.749 55.3407 807.749 62.2271H809.749ZM814.08 44.9888C816.963 39.98 820.899 36.1602 825.898 33.5093L824.961 31.7424C819.623 34.5732 815.414 38.6627 812.346 43.9909L814.08 44.9888ZM825.898 33.5093C830.908 30.8522 836.54 29.5145 842.814 29.5145V27.5145C836.246 27.5145 830.287 28.9177 824.961 31.7424L825.898 33.5093ZM842.814 29.5145C849.089 29.5145 854.72 30.8522 859.731 33.5093L860.668 31.7424C855.341 28.9177 849.383 27.5145 842.814 27.5145V29.5145ZM859.731 33.5093C864.73 36.1602 868.665 39.98 871.549 44.9888L873.282 43.9909C870.214 38.6627 866.006 34.5732 860.668 31.7424L859.731 33.5093ZM871.552 44.9945C874.426 49.9108 875.879 55.6442 875.879 62.2271H877.879C877.879 55.3407 876.356 49.2492 873.279 43.9851L871.552 44.9945ZM875.879 62.2271C875.879 68.8052 874.39 74.5769 871.437 79.5732L873.159 80.5906C876.315 75.2499 877.879 69.1185 877.879 62.2271H875.879ZM871.435 79.5772C868.554 84.5044 864.582 88.2879 859.501 90.9421L860.427 92.7148C865.84 89.8872 870.09 85.8397 873.161 80.5866L871.435 79.5772ZM859.496 90.945C854.485 93.602 848.854 94.9397 842.579 94.9397V96.9397C849.148 96.9397 855.106 95.5366 860.433 92.7119L859.496 90.945ZM842.579 79.5548C846.695 79.5548 850.207 78.0295 853.056 75.0127L851.602 73.6394C849.126 76.261 846.138 77.5548 842.579 77.5548V79.5548ZM853.046 75.0232C856.022 71.9617 857.44 67.6447 857.44 62.2271H855.44C855.44 67.3031 854.117 71.0521 851.612 73.629L853.046 75.0232ZM857.44 62.2271C857.44 56.8168 856.066 52.5038 853.173 49.4416L851.719 50.8148C854.152 53.3909 855.44 57.1438 855.44 62.2271H857.44ZM853.184 49.4525C850.409 46.4259 846.931 44.8994 842.814 44.8994V46.8994C846.372 46.8994 849.315 48.1922 851.709 50.8039L853.184 49.4525ZM842.814 44.8994C838.626 44.8994 835.106 46.4211 832.328 49.4525L833.802 50.8039C836.192 48.1969 839.171 46.8994 842.814 46.8994V44.8994ZM832.337 49.4422C829.517 52.4334 828.188 56.7527 828.188 62.2271H830.188C830.188 57.0513 831.444 53.3047 833.792 50.8142L832.337 49.4422ZM828.188 62.2271C828.188 67.6231 829.477 71.9275 832.2 74.9904L833.695 73.6617C831.405 71.0863 830.188 67.3248 830.188 62.2271H828.188ZM832.21 75.0018C834.984 78.0284 838.463 79.5548 842.579 79.5548V77.5548C839.021 77.5548 836.078 76.2621 833.684 73.6503L832.21 75.0018ZM891.294 19.5872L890.6 20.307L890.613 20.3196L890.627 20.3317L891.294 19.5872ZM891.294 4.0817L891.975 4.8145L891.976 4.8136L891.294 4.0817ZM908.444 4.0817L907.75 4.80155L907.763 4.81415L907.777 4.82627L908.444 4.0817ZM908.444 19.5872L909.125 20.3199L909.126 20.319L908.444 19.5872ZM909.972 29.4543H910.972V28.4543H909.972V29.4543ZM909.972 95V96H910.972V95H909.972ZM889.885 95H888.885V96H889.885V95ZM889.885 29.4543V28.4543H888.885V29.4543H889.885ZM899.987 21.6413C896.669 21.6413 894.021 20.6888 891.962 18.8426L890.627 20.3317C893.11 22.5576 896.257 23.6413 899.987 23.6413V21.6413ZM891.989 18.8673C889.992 16.942 889.005 14.6178 889.005 11.8344H887.005C887.005 15.1592 888.212 18.0036 890.6 20.307L891.989 18.8673ZM889.005 11.8344C889.005 8.9654 889.997 6.65159 891.975 4.8145L890.614 3.34891C888.207 5.58396 887.005 8.43863 887.005 11.8344H889.005ZM891.976 4.8136C894.036 2.89515 896.679 1.91013 899.987 1.91013V-0.0898662C896.247 -0.0898662 893.095 1.0395 890.613 3.34981L891.976 4.8136ZM899.987 1.91013C903.21 1.91013 905.769 2.89092 907.75 4.80155L909.139 3.36186C906.735 1.04373 903.655 -0.0898662 899.987 -0.0898662V1.91013ZM907.777 4.82627C909.83 6.6669 910.851 8.97743 910.851 11.8344H912.851C912.851 8.4266 911.601 5.56865 909.112 3.33713L907.777 4.82627ZM910.851 11.8344C910.851 14.6059 909.835 16.9266 907.763 18.8553L909.126 20.319C911.596 18.0189 912.851 15.1711 912.851 11.8344H910.851ZM907.764 18.8544C905.784 20.6927 903.221 21.6413 899.987 21.6413V23.6413C903.644 23.6413 906.719 22.5538 909.125 20.3199L907.764 18.8544ZM908.972 29.4543V95H910.972V29.4543H908.972ZM909.972 94H889.885V96H909.972V94ZM890.885 95V29.4543H888.885V95H890.885ZM889.885 30.4543H909.972V28.4543L889.885 28.4543V30.4543ZM926.642 44.3724L925.751 43.9196L925.745 43.9307L926.642 44.3724ZM937.097 32.6258L937.627 33.4738L937.627 33.4738L937.097 32.6258ZM963.527 31.2162L963.071 32.1067L963.079 32.1107L963.527 31.2162ZM971.984 38.4991L971.152 39.0538L972.984 41.8019V38.4991H971.984ZM971.984 8.07553V7.07553H970.984V8.07553H971.984ZM992.071 8.07553H993.071V7.07553H992.071V8.07553ZM992.071 95V96H993.071V95H992.071ZM971.984 95L970.984 95V96L971.984 96V95ZM971.984 85.6028H972.984V81.9924L971.127 85.0883L971.984 85.6028ZM963.879 93.1206L963.408 92.2382L963.4 92.2427L963.879 93.1206ZM937.097 91.8284L936.556 92.6697L936.567 92.6764L937.097 91.8284ZM926.642 79.9644L925.743 80.4007L925.747 80.4089L925.751 80.4171L926.642 79.9644ZM967.755 50.3631L967.029 51.0504L967.039 51.0605L967.755 50.3631ZM947.434 50.3631L946.717 49.6658L946.717 49.666L947.434 50.3631ZM947.434 74.0911L946.698 74.7686L946.708 74.7787L946.717 74.7885L947.434 74.0911ZM967.755 74.0911L967.039 73.3937L967.029 73.4039L967.755 74.0911ZM923.884 62.1097C923.884 55.4997 925.113 49.7434 927.54 44.8141L925.745 43.9307C923.16 49.1817 921.884 55.2502 921.884 62.1097H923.884ZM927.534 44.8251C930.045 39.8797 933.411 36.1084 937.627 33.4738L936.567 31.7778C932.011 34.6249 928.409 38.6847 925.751 43.9197L927.534 44.8251ZM937.627 33.4738C941.846 30.8369 946.555 29.5145 951.78 29.5145V27.5145C946.198 27.5145 941.118 28.9331 936.567 31.7778L937.627 33.4738ZM951.78 29.5145C955.943 29.5145 959.701 30.3838 963.071 32.1067L963.982 30.3258C960.305 28.4464 956.231 27.5145 951.78 27.5145V29.5145ZM963.079 32.1107C966.542 33.8417 969.222 36.1583 971.152 39.0538L972.816 37.9444C970.674 34.7317 967.716 32.193 963.974 30.3218L963.079 32.1107ZM972.984 38.4991V8.07553H970.984V38.4991H972.984ZM971.984 9.07553H992.071V7.07553H971.984V9.07553ZM991.071 8.07553V95H993.071V8.07553H991.071ZM992.071 94H971.984V96H992.071V94ZM972.984 95V85.6028H970.984V95L972.984 95ZM971.127 85.0883C969.349 88.0509 966.788 90.4358 963.408 92.2382L964.35 94.0029C968.018 92.0464 970.86 89.4194 972.842 86.1173L971.127 85.0883ZM963.4 92.2427C960.125 94.0289 956.263 94.9397 951.78 94.9397V96.9397C956.538 96.9397 960.741 95.9711 964.358 93.9984L963.4 92.2427ZM951.78 94.9397C946.555 94.9397 941.846 93.6174 937.627 90.9804L936.567 92.6764C941.118 95.5212 946.198 96.9397 951.78 96.9397V94.9397ZM937.638 90.9873C933.416 88.2731 930.046 84.459 927.534 79.5117L925.751 80.4171C928.408 85.6501 932.007 89.7454 936.556 92.6696L937.638 90.9873ZM927.542 79.5281C925.113 74.5172 923.884 68.7192 923.884 62.1097H921.884C921.884 68.9695 923.16 75.0747 925.743 80.4007L927.542 79.5281ZM972.984 62.2271C972.984 57.0207 971.514 52.7923 968.472 49.6658L967.039 51.0605C969.635 53.7288 970.984 57.4099 970.984 62.2271H972.984ZM968.482 49.6759C965.552 46.5784 961.922 45.0169 957.653 45.0169V47.0169C961.373 47.0169 964.477 48.3528 967.029 51.0503L968.482 49.6759ZM957.653 45.0169C953.386 45.0169 949.722 46.5775 946.717 49.6658L948.151 51.0605C950.784 48.3538 953.933 47.0169 957.653 47.0169V45.0169ZM946.717 49.666C943.748 52.7193 942.323 56.9122 942.323 62.1097H944.323C944.323 57.2834 945.638 53.6452 948.151 51.0602L946.717 49.666ZM942.323 62.1097C942.323 67.3098 943.749 71.5667 946.698 74.7686L948.169 73.4137C945.637 70.664 944.323 66.9332 944.323 62.1097H942.323ZM946.717 74.7885C949.722 77.8768 953.386 79.4374 957.653 79.4374V77.4374C953.933 77.4374 950.784 76.1004 948.151 73.3938L946.717 74.7885ZM957.653 79.4374C961.922 79.4374 965.552 77.8758 968.482 74.7783L967.029 73.4039C964.477 76.1014 961.373 77.4374 957.653 77.4374V79.4374ZM968.472 74.7885C971.514 71.6619 972.984 67.4336 972.984 62.2271H970.984C970.984 67.0444 969.635 70.7254 967.039 73.3938L968.472 74.7885ZM1060.28 80.4343L1061.23 80.1135L1061 79.4343H1060.28V80.4343ZM1029.51 80.4343V79.4343H1028.79L1028.56 80.1135L1029.51 80.4343ZM1024.57 95V96H1025.29L1025.52 95.3208L1024.57 95ZM1003.55 95L1002.61 94.6598L1002.12 96H1003.55V95ZM1033.38 12.5392V11.5392H1032.68L1032.44 12.199L1033.38 12.5392ZM1056.64 12.5392L1057.58 12.199L1057.34 11.5392H1056.64V12.5392ZM1086.48 95V96H1087.9L1087.42 94.6598L1086.48 95ZM1065.22 95L1064.27 95.3208L1064.5 96H1065.22V95ZM1055.12 64.9288V65.9288H1056.51L1056.06 64.6082L1055.12 64.9288ZM1044.9 34.7402L1045.84 34.4196L1044.89 31.6053L1043.95 34.4229L1044.9 34.7402ZM1034.79 64.9288L1033.85 64.6115L1033.41 65.9288H1034.79V64.9288ZM1060.28 79.4343H1029.51V81.4343H1060.28V79.4343ZM1028.56 80.1135L1023.63 94.6792L1025.52 95.3208L1030.46 80.7551L1028.56 80.1135ZM1024.57 94H1003.55V96H1024.57V94ZM1004.49 95.3402L1034.32 12.8795L1032.44 12.199L1002.61 94.6598L1004.49 95.3402ZM1033.38 13.5392L1056.64 13.5392V11.5392L1033.38 11.5392V13.5392ZM1055.7 12.8795L1085.54 95.3402L1087.42 94.6598L1057.58 12.199L1055.7 12.8795ZM1086.48 94H1065.22V96H1086.48V94ZM1066.16 94.6792L1061.23 80.1135L1059.34 80.7551L1064.27 95.3208L1066.16 94.6792ZM1056.06 64.6082L1045.84 34.4196L1043.95 35.0608L1054.17 65.2495L1056.06 64.6082ZM1043.95 34.4229L1033.85 64.6115L1035.74 65.2462L1045.84 35.0575L1043.95 34.4229ZM1034.79 65.9288H1055.12V63.9288H1034.79V65.9288ZM1156.17 36.2673L1155.43 36.9388L1155.44 36.9448L1155.44 36.9508L1156.17 36.2673ZM1163.1 95V96H1164.1V95H1163.1ZM1143.13 95H1142.13V96H1143.13V95ZM1139.73 49.1885L1139 49.8716L1139 49.8716L1139.73 49.1885ZM1121.4 49.1885L1122.13 49.8716L1122.13 49.8716L1121.4 49.1885ZM1118 95V96H1119V95H1118ZM1097.91 95H1096.91V96H1097.91V95ZM1097.91 29.4543V28.4543H1096.91V29.4543H1097.91ZM1118 29.4543H1119V28.4543H1118V29.4543ZM1118 38.1467H1117V41.3091L1118.81 38.7216L1118 38.1467ZM1126.22 31.3337L1126.65 32.2362L1126.66 32.2322L1126.67 32.2281L1126.22 31.3337ZM1137.85 29.7495C1145.28 29.7495 1151.1 32.1653 1155.43 36.9388L1156.91 35.5957C1152.15 30.3454 1145.76 27.7495 1137.85 27.7495V29.7495ZM1155.44 36.9508C1159.84 41.6506 1162.1 48.1925 1162.1 56.7062H1164.1C1164.1 47.8351 1161.74 40.751 1156.9 35.5837L1155.44 36.9508ZM1162.1 56.7062V95H1164.1V56.7062H1162.1ZM1163.1 94L1143.13 94V96L1163.1 96V94ZM1144.13 95V59.408H1142.13V95H1144.13ZM1144.13 59.408C1144.13 54.852 1142.95 51.1711 1140.46 48.5053L1139 49.8716C1141.04 52.0611 1142.13 55.1931 1142.13 59.408H1144.13ZM1140.46 48.5053C1137.97 45.8438 1134.63 44.547 1130.56 44.547V46.547C1134.17 46.547 1136.94 47.6779 1139 49.8716L1140.46 48.5053ZM1130.56 44.547C1126.5 44.547 1123.16 45.8438 1120.67 48.5053L1122.13 49.8716C1124.18 47.6779 1126.96 46.547 1130.56 46.547V44.547ZM1120.67 48.5053C1118.18 51.1711 1117 54.852 1117 59.408H1119C1119 55.1931 1120.08 52.0611 1122.13 49.8716L1120.67 48.5053ZM1117 59.408V95H1119V59.408H1117ZM1118 94H1097.91V96H1118V94ZM1098.91 95V29.4543H1096.91V95H1098.91ZM1097.91 30.4543L1118 30.4543V28.4543H1097.91V30.4543ZM1117 29.4543V38.1467H1119V29.4543H1117ZM1118.81 38.7216C1120.74 35.9757 1123.35 33.8126 1126.65 32.2362L1125.79 30.4312C1122.2 32.1438 1119.32 34.5227 1117.18 37.5718L1118.81 38.7216ZM1126.67 32.2281C1129.96 30.5826 1133.68 29.7495 1137.85 29.7495V27.7495C1133.4 27.7495 1129.37 28.6392 1125.77 30.4393L1126.67 32.2281ZM1179.17 44.3724L1178.28 43.9196L1178.28 43.9307L1179.17 44.3724ZM1189.63 32.6258L1190.16 33.4738L1190.16 33.4738L1189.63 32.6258ZM1216.06 31.2162L1215.6 32.1067L1215.61 32.1107L1216.06 31.2162ZM1224.52 38.4991L1223.68 39.0538L1225.52 41.8019V38.4991H1224.52ZM1224.52 8.07553V7.07553H1223.52V8.07553H1224.52ZM1244.6 8.07553H1245.6V7.07553H1244.6V8.07553ZM1244.6 95V96H1245.6V95H1244.6ZM1224.52 95H1223.52V96H1224.52V95ZM1224.52 85.6028H1225.52V81.9924L1223.66 85.0883L1224.52 85.6028ZM1216.41 93.1206L1215.94 92.2382L1215.93 92.2427L1216.41 93.1206ZM1189.63 91.8284L1189.09 92.6697L1189.1 92.6764L1189.63 91.8284ZM1179.17 79.9644L1178.28 80.4007L1178.28 80.4089L1178.28 80.4171L1179.17 79.9644ZM1220.29 50.3631L1219.56 51.0504L1219.57 51.0605L1220.29 50.3631ZM1199.97 50.3631L1199.25 49.6658L1199.25 49.666L1199.97 50.3631ZM1199.97 74.0911L1199.23 74.7686L1199.24 74.7787L1199.25 74.7885L1199.97 74.0911ZM1220.29 74.0911L1219.57 73.3937L1219.56 73.4039L1220.29 74.0911ZM1176.42 62.1097C1176.42 55.4997 1177.65 49.7434 1180.07 44.8141L1178.28 43.9307C1175.69 49.1817 1174.42 55.2502 1174.42 62.1097H1176.42ZM1180.07 44.8251C1182.58 39.8797 1185.94 36.1084 1190.16 33.4738L1189.1 31.7778C1184.54 34.6249 1180.94 38.6847 1178.28 43.9197L1180.07 44.8251ZM1190.16 33.4738C1194.38 30.8369 1199.09 29.5145 1204.31 29.5145V27.5145C1198.73 27.5145 1193.65 28.9331 1189.1 31.7778L1190.16 33.4738ZM1204.31 29.5145C1208.48 29.5145 1212.23 30.3838 1215.6 32.1067L1216.51 30.3258C1212.84 28.4464 1208.76 27.5145 1204.31 27.5145V29.5145ZM1215.61 32.1107C1219.07 33.8417 1221.75 36.1583 1223.68 39.0538L1225.35 37.9444C1223.21 34.7317 1220.25 32.193 1216.51 30.3218L1215.61 32.1107ZM1225.52 38.4991V8.07553H1223.52V38.4991H1225.52ZM1224.52 9.07553H1244.6V7.07553H1224.52V9.07553ZM1243.6 8.07553V95H1245.6V8.07553H1243.6ZM1244.6 94H1224.52V96H1244.6V94ZM1225.52 95V85.6028H1223.52V95H1225.52ZM1223.66 85.0883C1221.88 88.0509 1219.32 90.4358 1215.94 92.2382L1216.88 94.0029C1220.55 92.0464 1223.39 89.4194 1225.37 86.1173L1223.66 85.0883ZM1215.93 92.2427C1212.66 94.0289 1208.8 94.9397 1204.31 94.9397V96.9397C1209.07 96.9397 1213.27 95.9711 1216.89 93.9984L1215.93 92.2427ZM1204.31 94.9397C1199.09 94.9397 1194.38 93.6174 1190.16 90.9804L1189.1 92.6764C1193.65 95.5212 1198.73 96.9397 1204.31 96.9397V94.9397ZM1190.17 90.9873C1185.95 88.2731 1182.58 84.459 1180.07 79.5117L1178.28 80.4171C1180.94 85.6501 1184.54 89.7454 1189.09 92.6696L1190.17 90.9873ZM1180.07 79.5281C1177.65 74.5172 1176.42 68.7192 1176.42 62.1097H1174.42C1174.42 68.9695 1175.69 75.0747 1178.28 80.4007L1180.07 79.5281ZM1225.52 62.2271C1225.52 57.0207 1224.05 52.7923 1221 49.6658L1219.57 51.0605C1222.17 53.7288 1223.52 57.4099 1223.52 62.2271H1225.52ZM1221.01 49.6759C1218.08 46.5784 1214.45 45.0169 1210.19 45.0169V47.0169C1213.91 47.0169 1217.01 48.3528 1219.56 51.0503L1221.01 49.6759ZM1210.19 45.0169C1205.92 45.0169 1202.25 46.5775 1199.25 49.6658L1200.68 51.0605C1203.32 48.3538 1206.47 47.0169 1210.19 47.0169V45.0169ZM1199.25 49.666C1196.28 52.7193 1194.85 56.9122 1194.85 62.1097H1196.85C1196.85 57.2834 1198.17 53.6452 1200.68 51.0602L1199.25 49.666ZM1194.85 62.1097C1194.85 67.3098 1196.28 71.5667 1199.23 74.7686L1200.7 73.4137C1198.17 70.664 1196.85 66.9332 1196.85 62.1097H1194.85ZM1199.25 74.7885C1202.25 77.8768 1205.92 79.4374 1210.19 79.4374V77.4374C1206.47 77.4374 1203.32 76.1004 1200.68 73.3938L1199.25 74.7885ZM1210.19 79.4374C1214.45 79.4374 1218.08 77.8758 1221.01 74.7783L1219.56 73.4039C1217.01 76.1014 1213.91 77.4374 1210.19 77.4374V79.4374ZM1221 74.7885C1224.05 71.6619 1225.52 67.4336 1225.52 62.2271H1223.52C1223.52 67.0444 1222.17 70.7254 1219.57 73.3938L1221 74.7885ZM1281.57 40.3785H1280.57V43.7425L1282.41 40.9248L1281.57 40.3785ZM1290.38 31.921L1290.88 32.7869L1290.89 32.7828L1290.9 32.7785L1290.38 31.921ZM1302.13 28.7495L1303.13 28.7495V27.7495L1302.13 27.7495V28.7495ZM1302.13 50.0107V51.0107H1303.13V50.0107H1302.13ZM1285.33 53.2997L1285.97 54.064L1285.98 54.0582L1285.99 54.0523L1285.33 53.2997ZM1281.57 95V96H1282.57V95H1281.57ZM1261.48 95H1260.48V96H1261.48V95ZM1261.48 29.4543V28.4543H1260.48V29.4543H1261.48ZM1281.57 29.4543H1282.57V28.4543H1281.57V29.4543ZM1282.41 40.9248C1284.68 37.4464 1287.5 34.7399 1290.88 32.7869L1289.88 31.0552C1286.21 33.1743 1283.16 36.1061 1280.73 39.8323L1282.41 40.9248ZM1290.9 32.7785C1294.26 30.762 1297.99 29.7495 1302.13 29.7495V27.7495C1297.65 27.7495 1293.55 28.8513 1289.87 31.0635L1290.9 32.7785ZM1301.13 28.7495V50.0107H1303.13V28.7495L1301.13 28.7495ZM1302.13 49.0107H1296.61V51.0107H1302.13V49.0107ZM1296.61 49.0107C1291.47 49.0107 1287.43 50.1313 1284.67 52.5472L1285.99 54.0523C1288.24 52.0829 1291.72 51.0107 1296.61 51.0107V49.0107ZM1284.68 52.5355C1281.84 54.9339 1280.57 59.0647 1280.57 64.5764H1282.57C1282.57 59.2813 1283.81 55.8944 1285.97 54.064L1284.68 52.5355ZM1280.57 64.5764V95H1282.57V64.5764H1280.57ZM1281.57 94H1261.48V96H1281.57V94ZM1262.48 95V29.4543H1260.48V95H1262.48ZM1261.48 30.4543L1281.57 30.4543V28.4543H1261.48V30.4543ZM1280.57 29.4543V40.3785H1282.57V29.4543H1280.57ZM1326.53 91.8284L1326.05 92.7089L1326.06 92.7119L1326.53 91.8284ZM1314.43 80.0819L1313.56 80.5766L1313.57 80.5866L1314.43 80.0819ZM1314.55 44.4898L1315.41 44.9945L1315.41 44.9888L1314.55 44.4898ZM1326.76 32.6258L1327.23 33.5093L1327.23 33.5093L1326.76 32.6258ZM1361.53 32.6258L1361.07 33.5093L1361.07 33.5093L1361.53 32.6258ZM1373.75 44.4898L1372.88 44.9888L1372.89 44.9945L1373.75 44.4898ZM1373.63 80.0819L1372.77 79.5731L1372.77 79.5772L1373.63 80.0819ZM1361.3 91.8284L1360.84 90.9421L1360.83 90.945L1361.3 91.8284ZM1353.66 74.3261L1352.95 73.629L1352.94 73.6342L1352.94 73.6394L1353.66 74.3261ZM1353.78 50.1282L1353.04 50.8039L1353.05 50.8094L1353.05 50.8148L1353.78 50.1282ZM1334.4 50.1282L1335.13 50.8143L1335.14 50.8039L1334.4 50.1282ZM1334.28 74.3261L1333.53 74.9904L1333.54 74.9962L1333.54 75.0018L1334.28 74.3261ZM1343.91 94.9397C1337.64 94.9397 1332.01 93.602 1327 90.945L1326.06 92.7119C1331.39 95.5366 1337.35 96.9397 1343.91 96.9397V94.9397ZM1327 90.948C1322.08 88.296 1318.18 84.512 1315.29 79.5772L1313.57 80.5866C1316.63 85.8321 1320.8 89.8791 1326.05 92.7089L1327 90.948ZM1315.3 79.5872C1312.5 74.6708 1311.08 68.8952 1311.08 62.2271H1309.08C1309.08 69.185 1310.56 75.3126 1313.56 80.5766L1315.3 79.5872ZM1311.08 62.2271C1311.08 55.6442 1312.54 49.9108 1315.41 44.9945L1313.68 43.9851C1310.61 49.2492 1309.08 55.3407 1309.08 62.2271H1311.08ZM1315.41 44.9888C1318.3 39.98 1322.23 36.1602 1327.23 33.5093L1326.3 31.7424C1320.96 34.5732 1316.75 38.6627 1313.68 43.9909L1315.41 44.9888ZM1327.23 33.5093C1332.24 30.8522 1337.87 29.5145 1344.15 29.5145V27.5145C1337.58 27.5145 1331.62 28.9177 1326.3 31.7424L1327.23 33.5093ZM1344.15 29.5145C1350.42 29.5145 1356.05 30.8522 1361.07 33.5093L1362 31.7424C1356.68 28.9177 1350.72 27.5145 1344.15 27.5145V29.5145ZM1361.07 33.5093C1366.06 36.1602 1370 39.98 1372.88 44.9888L1374.62 43.9909C1371.55 38.6627 1367.34 34.5732 1362 31.7424L1361.07 33.5093ZM1372.89 44.9945C1375.76 49.9108 1377.21 55.6442 1377.21 62.2271H1379.21C1379.21 55.3407 1377.69 49.2492 1374.61 43.9851L1372.89 44.9945ZM1377.21 62.2271C1377.21 68.8052 1375.72 74.5769 1372.77 79.5732L1374.49 80.5906C1377.65 75.2499 1379.21 69.1185 1379.21 62.2271H1377.21ZM1372.77 79.5772C1369.89 84.5044 1365.92 88.2879 1360.84 90.9421L1361.76 92.7148C1367.17 89.8872 1371.42 85.8397 1374.5 80.5866L1372.77 79.5772ZM1360.83 90.945C1355.82 93.602 1350.19 94.9397 1343.91 94.9397V96.9397C1350.48 96.9397 1356.44 95.5366 1361.77 92.7119L1360.83 90.945ZM1343.91 79.5548C1348.03 79.5548 1351.54 78.0295 1354.39 75.0127L1352.94 73.6394C1350.46 76.261 1347.47 77.5548 1343.91 77.5548V79.5548ZM1354.38 75.0232C1357.36 71.9617 1358.77 67.6447 1358.77 62.2271H1356.77C1356.77 67.3031 1355.45 71.0521 1352.95 73.629L1354.38 75.0232ZM1358.77 62.2271C1358.77 56.8168 1357.4 52.5038 1354.51 49.4416L1353.05 50.8148C1355.49 53.3909 1356.77 57.1438 1356.77 62.2271H1358.77ZM1354.52 49.4525C1351.74 46.4259 1348.27 44.8994 1344.15 44.8994V46.8994C1347.71 46.8994 1350.65 48.1922 1353.04 50.8039L1354.52 49.4525ZM1344.15 44.8994C1339.96 44.8994 1336.44 46.4211 1333.66 49.4525L1335.14 50.8039C1337.53 48.1969 1340.51 46.8994 1344.15 46.8994V44.8994ZM1333.67 49.4422C1330.85 52.4334 1329.52 56.7527 1329.52 62.2271H1331.52C1331.52 57.0513 1332.78 53.3047 1335.13 50.8142L1333.67 49.4422ZM1329.52 62.2271C1329.52 67.6231 1330.81 71.9275 1333.53 74.9904L1335.03 73.6617C1332.74 71.0863 1331.52 67.3248 1331.52 62.2271H1329.52ZM1333.54 75.0018C1336.32 78.0284 1339.8 79.5548 1343.91 79.5548V77.5548C1340.36 77.5548 1337.41 76.2621 1335.02 73.6503L1333.54 75.0018ZM1392.63 19.5872L1391.93 20.307L1391.95 20.3196L1391.96 20.3317L1392.63 19.5872ZM1392.63 4.0817L1393.31 4.8145L1393.31 4.8136L1392.63 4.0817ZM1409.78 4.0817L1409.08 4.80155L1409.1 4.81415L1409.11 4.82627L1409.78 4.0817ZM1409.78 19.5872L1410.46 20.3199L1410.46 20.319L1409.78 19.5872ZM1411.31 29.4543H1412.31V28.4543H1411.31V29.4543ZM1411.31 95V96H1412.31V95H1411.31ZM1391.22 95H1390.22V96H1391.22V95ZM1391.22 29.4543V28.4543L1390.22 28.4543V29.4543L1391.22 29.4543ZM1401.32 21.6413C1398 21.6413 1395.36 20.6888 1393.3 18.8426L1391.96 20.3317C1394.44 22.5576 1397.59 23.6413 1401.32 23.6413V21.6413ZM1393.32 18.8673C1391.33 16.942 1390.34 14.6178 1390.34 11.8344H1388.34C1388.34 15.1592 1389.55 18.0036 1391.93 20.307L1393.32 18.8673ZM1390.34 11.8344C1390.34 8.9654 1391.33 6.65159 1393.31 4.8145L1391.95 3.34891C1389.54 5.58396 1388.34 8.43863 1388.34 11.8344H1390.34ZM1393.31 4.8136C1395.37 2.89515 1398.01 1.91013 1401.32 1.91013V-0.0898662C1397.58 -0.0898662 1394.43 1.0395 1391.95 3.34981L1393.31 4.8136ZM1401.32 1.91013C1404.54 1.91013 1407.1 2.89092 1409.08 4.80155L1410.47 3.36186C1408.07 1.04373 1404.99 -0.0898662 1401.32 -0.0898662V1.91013ZM1409.11 4.82627C1411.16 6.6669 1412.19 8.97743 1412.19 11.8344H1414.19C1414.19 8.4266 1412.94 5.56865 1410.45 3.33713L1409.11 4.82627ZM1412.19 11.8344C1412.19 14.6059 1411.17 16.9266 1409.1 18.8553L1410.46 20.319C1412.93 18.0189 1414.19 15.1711 1414.19 11.8344H1412.19ZM1409.1 18.8544C1407.12 20.6927 1404.56 21.6413 1401.32 21.6413V23.6413C1404.98 23.6413 1408.05 22.5538 1410.46 20.3199L1409.1 18.8544ZM1410.31 29.4543V95H1412.31V29.4543H1410.31ZM1411.31 94H1391.22V96H1411.31V94ZM1392.22 95V29.4543L1390.22 29.4543V95H1392.22ZM1391.22 30.4543H1411.31V28.4543H1391.22V30.4543ZM1427.98 44.3724L1427.09 43.9196L1427.08 43.9307L1427.98 44.3724ZM1438.43 32.6258L1438.96 33.4738L1438.96 33.4738L1438.43 32.6258ZM1464.86 31.2162L1464.41 32.1067L1464.41 32.1107L1464.86 31.2162ZM1473.32 38.4991L1472.49 39.0538L1474.32 41.8019V38.4991H1473.32ZM1473.32 8.07553V7.07553H1472.32V8.07553H1473.32ZM1493.41 8.07553H1494.41V7.07553H1493.41V8.07553ZM1493.41 95V96H1494.41V95H1493.41ZM1473.32 95H1472.32V96H1473.32V95ZM1473.32 85.6028H1474.32V81.9924L1472.46 85.0883L1473.32 85.6028ZM1465.21 93.1206L1464.74 92.2382L1464.73 92.2427L1465.21 93.1206ZM1438.43 91.8284L1437.89 92.6697L1437.9 92.6764L1438.43 91.8284ZM1427.98 79.9644L1427.08 80.4007L1427.08 80.4089L1427.09 80.4171L1427.98 79.9644ZM1469.09 50.3631L1468.36 51.0504L1468.37 51.0605L1469.09 50.3631ZM1448.77 50.3631L1448.05 49.6658L1448.05 49.666L1448.77 50.3631ZM1448.77 74.0911L1448.03 74.7686L1448.04 74.7787L1448.05 74.7885L1448.77 74.0911ZM1469.09 74.0911L1468.37 73.3937L1468.36 73.4039L1469.09 74.0911ZM1425.22 62.1097C1425.22 55.4997 1426.45 49.7434 1428.87 44.8141L1427.08 43.9307C1424.49 49.1817 1423.22 55.2502 1423.22 62.1097H1425.22ZM1428.87 44.8251C1431.38 39.8797 1434.75 36.1084 1438.96 33.4738L1437.9 31.7778C1433.35 34.6249 1429.74 38.6847 1427.09 43.9197L1428.87 44.8251ZM1438.96 33.4738C1443.18 30.8369 1447.89 29.5145 1453.11 29.5145V27.5145C1447.53 27.5145 1442.45 28.9331 1437.9 31.7778L1438.96 33.4738ZM1453.11 29.5145C1457.28 29.5145 1461.04 30.3838 1464.41 32.1067L1465.32 30.3258C1461.64 28.4464 1457.57 27.5145 1453.11 27.5145V29.5145ZM1464.41 32.1107C1467.88 33.8417 1470.56 36.1583 1472.49 39.0538L1474.15 37.9444C1472.01 34.7317 1469.05 32.193 1465.31 30.3218L1464.41 32.1107ZM1474.32 38.4991V8.07553H1472.32V38.4991H1474.32ZM1473.32 9.07553L1493.41 9.07553V7.07553L1473.32 7.07553V9.07553ZM1492.41 8.07553V95H1494.41V8.07553H1492.41ZM1493.41 94H1473.32V96H1493.41V94ZM1474.32 95V85.6028H1472.32V95H1474.32ZM1472.46 85.0883C1470.68 88.0509 1468.12 90.4358 1464.74 92.2382L1465.68 94.0029C1469.35 92.0464 1472.19 89.4194 1474.18 86.1173L1472.46 85.0883ZM1464.73 92.2427C1461.46 94.0289 1457.6 94.9397 1453.11 94.9397V96.9397C1457.87 96.9397 1462.08 95.9711 1465.69 93.9984L1464.73 92.2427ZM1453.11 94.9397C1447.89 94.9397 1443.18 93.6174 1438.96 90.9804L1437.9 92.6764C1442.45 95.5212 1447.53 96.9397 1453.11 96.9397V94.9397ZM1438.97 90.9873C1434.75 88.2731 1431.38 84.459 1428.87 79.5117L1427.09 80.4171C1429.74 85.6501 1433.34 89.7454 1437.89 92.6696L1438.97 90.9873ZM1428.88 79.5281C1426.45 74.5172 1425.22 68.7192 1425.22 62.1097H1423.22C1423.22 68.9695 1424.49 75.0747 1427.08 80.4007L1428.88 79.5281ZM1474.32 62.2271C1474.32 57.0207 1472.85 52.7923 1469.81 49.6658L1468.37 51.0605C1470.97 53.7288 1472.32 57.4099 1472.32 62.2271H1474.32ZM1469.82 49.6759C1466.89 46.5784 1463.26 45.0169 1458.99 45.0169V47.0169C1462.71 47.0169 1465.81 48.3528 1468.36 51.0503L1469.82 49.6759ZM1458.99 45.0169C1454.72 45.0169 1451.06 46.5775 1448.05 49.6658L1449.49 51.0605C1452.12 48.3538 1455.27 47.0169 1458.99 47.0169V45.0169ZM1448.05 49.666C1445.08 52.7193 1443.66 56.9122 1443.66 62.1097H1445.66C1445.66 57.2834 1446.97 53.6452 1449.49 51.0602L1448.05 49.666ZM1443.66 62.1097C1443.66 67.3098 1445.08 71.5667 1448.03 74.7686L1449.5 73.4137C1446.97 70.664 1445.66 66.9332 1445.66 62.1097H1443.66ZM1448.05 74.7885C1451.06 77.8768 1454.72 79.4374 1458.99 79.4374V77.4374C1455.27 77.4374 1452.12 76.1004 1449.49 73.3938L1448.05 74.7885ZM1458.99 79.4374C1463.26 79.4374 1466.89 77.8758 1469.82 74.7783L1468.36 73.4039C1465.81 76.1014 1462.71 77.4374 1458.99 77.4374V79.4374ZM1469.81 74.7885C1472.85 71.6619 1474.32 67.4336 1474.32 62.2271H1472.32C1472.32 67.0444 1470.97 70.7254 1468.37 73.3938L1469.81 74.7885Z" fill="#F2B125"/>
</svg>
