<svg width="1512" height="120" viewBox="0 0 1512 120" fill="none" xmlns="http://www.w3.org/2000/svg">
<path d="M57.6153 72.4343L58.5624 72.1135L58.3324 71.4343H57.6153V72.4343ZM26.8393 72.4343V71.4343H26.1222L25.8922 72.1135L26.8393 72.4343ZM21.9058 87V88H22.6229L22.8529 87.3208L21.9058 87ZM0.879448 87L-0.0608918 86.6598L-0.545821 88H0.879448L0.879448 87ZM30.7157 4.53922V3.53922H30.0141L29.7753 4.19898L30.7157 4.53922ZM53.9739 4.53922L54.9142 4.19898L54.6755 3.53922H53.9739V4.53922ZM83.8101 87V88H85.2354L84.7504 86.6598L83.8101 87ZM62.5488 87L61.6017 87.3208L61.8317 88H62.5488V87ZM52.4468 56.9288V57.9288H53.8411L53.394 56.6082L52.4468 56.9288ZM42.2273 26.7402L43.1745 26.4196L42.2218 23.6053L41.279 26.4229L42.2273 26.7402ZM32.1253 56.9288L31.177 56.6115L30.7361 57.9288H32.1253V56.9288ZM57.6153 71.4343L26.8393 71.4343V73.4343L57.6153 73.4343V71.4343ZM25.8922 72.1135L20.9586 86.6792L22.8529 87.3208L27.7865 72.7551L25.8922 72.1135ZM21.9058 86H0.879448L0.879448 88H21.9058V86ZM1.81979 87.3402L31.656 4.87946L29.7753 4.19898L-0.0608918 86.6598L1.81979 87.3402ZM30.7157 5.53922H53.9739V3.53922H30.7157V5.53922ZM53.0335 4.87946L82.8698 87.3402L84.7504 86.6598L54.9142 4.19898L53.0335 4.87946ZM83.8101 86H62.5488V88H83.8101V86ZM63.496 86.6792L58.5624 72.1135L56.6681 72.7551L61.6017 87.3208L63.496 86.6792ZM53.394 56.6082L43.1745 26.4196L41.2801 27.0608L51.4996 57.2495L53.394 56.6082ZM41.279 26.4229L31.177 56.6115L33.0736 57.2462L43.1756 27.0575L41.279 26.4229ZM32.1253 57.9288L52.4468 57.9288V55.9288L32.1253 55.9288V57.9288ZM153.503 28.2673L152.762 28.9388L152.767 28.9448L152.773 28.9508L153.503 28.2673ZM160.433 87V88H161.433V87H160.433ZM140.464 87H139.464V88H140.464V87ZM137.058 41.1885L136.327 41.8716L136.327 41.8716L137.058 41.1885ZM118.733 41.1885L119.463 41.8716L119.463 41.8716L118.733 41.1885ZM115.327 87V88H116.327V87H115.327ZM95.24 87H94.24V88H95.24V87ZM95.24 21.4543V20.4543H94.24V21.4543H95.24ZM115.327 21.4543H116.327V20.4543H115.327V21.4543ZM115.327 30.1467H114.327V33.3091L116.145 30.7216L115.327 30.1467ZM123.549 23.3337L123.98 24.2362L123.988 24.2322L123.996 24.2281L123.549 23.3337ZM135.178 21.7495C142.612 21.7495 148.436 24.1653 152.762 28.9388L154.244 27.5957C149.486 22.3454 143.093 19.7495 135.178 19.7495V21.7495ZM152.773 28.9508C157.174 33.6506 159.433 40.1925 159.433 48.7062H161.433C161.433 39.8351 159.072 32.751 154.233 27.5837L152.773 28.9508ZM159.433 48.7062V87H161.433V48.7062H159.433ZM160.433 86H140.464V88H160.433V86ZM141.464 87V51.408H139.464V87H141.464ZM141.464 51.408C141.464 46.852 140.282 43.1711 137.788 40.5053L136.327 41.8716C138.376 44.0611 139.464 47.1931 139.464 51.408H141.464ZM137.788 40.5053C135.298 37.8438 131.963 36.547 127.895 36.547V38.547C131.503 38.547 134.275 39.6779 136.327 41.8716L137.788 40.5053ZM127.895 36.547C123.828 36.547 120.493 37.8438 118.003 40.5053L119.463 41.8716C121.516 39.6779 124.288 38.547 127.895 38.547V36.547ZM118.003 40.5053C115.509 43.1711 114.327 46.852 114.327 51.408H116.327C116.327 47.1931 117.415 44.0611 119.463 41.8716L118.003 40.5053ZM114.327 51.408V87H116.327V51.408H114.327ZM115.327 86H95.24V88H115.327V86ZM96.24 87V21.4543H94.24V87H96.24ZM95.24 22.4543H115.327V20.4543L95.24 20.4543V22.4543ZM114.327 21.4543V30.1467H116.327V21.4543H114.327ZM116.145 30.7216C118.074 27.9757 120.677 25.8126 123.98 24.2362L123.118 22.4312C119.53 24.1438 116.651 26.5227 114.508 29.5718L116.145 30.7216ZM123.996 24.2281C127.288 22.5826 131.008 21.7495 135.178 21.7495V19.7495C130.735 19.7495 126.702 20.6392 123.102 22.4393L123.996 24.2281ZM213.743 23.3337L213.264 24.2116L213.272 24.216L213.743 23.3337ZM221.848 30.734L220.996 31.2581L222.848 34.2671V30.734H221.848ZM221.848 21.4543V20.4543H220.848V21.4543H221.848ZM241.934 21.4543L242.934 21.4543V20.4543L241.934 20.4543V21.4543ZM238.293 103.21L237.398 102.763L237.394 102.772L237.39 102.78L238.293 103.21ZM227.369 114.957L226.862 114.094L226.856 114.098L227.369 114.957ZM185.551 112.373L186.159 111.579L186.152 111.574L185.551 112.373ZM175.214 93.813V92.813H174.098L174.22 93.9223L175.214 93.813ZM195.066 93.813L196.036 93.5705L195.846 92.813H195.066V93.813ZM199.529 99.6863L200.064 98.8415L200.054 98.835L200.044 98.8288L199.529 99.6863ZM218.089 98.2767L217.405 97.5472L217.393 97.5582L217.382 97.5696L218.089 98.2767ZM221.848 77.6028H222.848V74.1898L221.006 77.0631L221.848 77.6028ZM213.743 85.1206L214.221 85.9984L214.229 85.9943L214.237 85.99L213.743 85.1206ZM186.96 83.8284L186.42 84.6697L186.43 84.6764L186.96 83.8284ZM176.506 71.9644L175.606 72.4007L175.61 72.4089L175.614 72.4171L176.506 71.9644ZM176.506 36.3724L175.614 35.9196L175.609 35.9307L176.506 36.3724ZM186.96 24.6258L187.49 25.4738L187.49 25.4738L186.96 24.6258ZM217.619 42.3631L216.892 43.0504L216.902 43.0605L217.619 42.3631ZM197.297 42.3631L196.581 41.6658L196.58 41.666L197.297 42.3631ZM197.297 66.0911L196.562 66.7686L196.571 66.7787L196.581 66.7885L197.297 66.0911ZM217.619 66.0911L216.902 65.3937L216.892 65.4039L217.619 66.0911ZM201.644 21.5145C206.126 21.5145 209.989 22.4254 213.264 24.2116L214.221 22.4558C210.605 20.4831 206.401 19.5145 201.644 19.5145V21.5145ZM213.272 24.216C216.658 26.0217 219.22 28.3718 220.996 31.2581L222.699 30.2099C220.717 26.988 217.875 24.4046 214.213 22.4513L213.272 24.216ZM222.848 30.734V21.4543H220.848V30.734H222.848ZM221.848 22.4543H241.934V20.4543H221.848V22.4543ZM240.934 21.4543L240.934 86.8825H242.934L242.934 21.4543L240.934 21.4543ZM240.934 86.8825C240.934 92.7746 239.749 98.0614 237.398 102.763L239.187 103.657C241.692 98.6486 242.934 93.0503 242.934 86.8825H240.934ZM237.39 102.78C235.131 107.525 231.632 111.293 226.862 114.095L227.875 115.819C232.972 112.825 236.756 108.763 239.196 103.64L237.39 102.78ZM226.856 114.098C222.194 116.88 216.315 118.303 209.161 118.303V120.303C216.574 120.303 222.832 118.828 227.881 115.816L226.856 114.098ZM209.161 118.303C199.609 118.303 191.971 116.032 186.159 111.579L184.943 113.166C191.19 117.954 199.293 120.303 209.161 120.303V118.303ZM186.152 111.574C180.353 107.206 177.041 101.274 176.208 93.7037L174.22 93.9223C175.11 102.014 178.688 108.455 184.949 113.171L186.152 111.574ZM175.214 94.813H195.066V92.813H175.214V94.813ZM194.095 94.0555C194.79 96.8356 196.453 99.0069 199.015 100.544L200.044 98.8288C197.906 97.5465 196.594 95.8023 196.036 93.5705L194.095 94.0555ZM198.994 100.531C201.538 102.142 204.632 102.918 208.222 102.918V100.918C204.92 100.918 202.219 100.206 200.064 98.8415L198.994 100.531ZM208.222 102.918C212.578 102.918 216.143 101.637 218.796 98.9838L217.382 97.5696C215.18 99.7716 212.166 100.918 208.222 100.918V102.918ZM218.773 99.0062C221.566 96.3877 222.848 92.2613 222.848 86.8825H220.848C220.848 91.9974 219.624 95.4671 217.405 97.5472L218.773 99.0062ZM222.848 86.8825V77.6028H220.848V86.8825H222.848ZM221.006 77.0631C219.143 79.9684 216.566 82.3659 213.249 84.2511L214.237 85.99C217.81 83.9597 220.636 81.3454 222.69 78.1424L221.006 77.0631ZM213.264 84.2427C209.989 86.0289 206.126 86.9397 201.644 86.9397V88.9397C206.401 88.9397 210.605 87.9711 214.221 85.9984L213.264 84.2427ZM201.644 86.9397C196.419 86.9397 191.71 85.6174 187.49 82.9804L186.43 84.6764C190.982 87.5212 196.062 88.9397 201.644 88.9397V86.9397ZM187.501 82.9873C183.279 80.2731 179.909 76.459 177.398 71.5117L175.614 72.4171C178.271 77.6501 181.871 81.7454 186.42 84.6696L187.501 82.9873ZM177.406 71.5281C174.976 66.5172 173.747 60.7192 173.747 54.1097H171.747C171.747 60.9695 173.024 67.0747 175.606 72.4007L177.406 71.5281ZM173.747 54.1097C173.747 47.4997 174.976 41.7434 177.403 36.8141L175.609 35.9307C173.024 41.1817 171.747 47.2502 171.747 54.1097H173.747ZM177.398 36.8251C179.908 31.8797 183.275 28.1084 187.49 25.4738L186.43 23.7778C181.875 26.6249 178.272 30.6847 175.614 35.9197L177.398 36.8251ZM187.49 25.4738C191.71 22.8369 196.419 21.5145 201.644 21.5145V19.5145C196.062 19.5145 190.982 20.9331 186.43 23.7778L187.49 25.4738ZM222.848 54.2271C222.848 49.0207 221.378 44.7923 218.336 41.6658L216.902 43.0605C219.498 45.7288 220.848 49.4099 220.848 54.2271H222.848ZM218.345 41.6759C215.415 38.5784 211.785 37.0169 207.517 37.0169V39.0169C211.236 39.0169 214.341 40.3528 216.892 43.0503L218.345 41.6759ZM207.517 37.0169C203.249 37.0169 199.585 38.5775 196.581 41.6658L198.014 43.0605C200.648 40.3538 203.797 39.0169 207.517 39.0169V37.0169ZM196.58 41.666C193.612 44.7193 192.186 48.9122 192.186 54.1097H194.186C194.186 49.2834 195.501 45.6452 198.014 43.0602L196.58 41.666ZM192.186 54.1097C192.186 59.3098 193.613 63.5667 196.562 66.7686L198.033 65.4137C195.5 62.664 194.186 58.9332 194.186 54.1097H192.186ZM196.581 66.7885C199.585 69.8768 203.249 71.4374 207.517 71.4374V69.4374C203.797 69.4374 200.648 68.1004 198.014 65.3938L196.581 66.7885ZM207.517 71.4374C211.785 71.4374 215.415 69.8758 218.345 66.7783L216.892 65.4039C214.341 68.1014 211.236 69.4374 207.517 69.4374V71.4374ZM218.336 66.7885C221.378 63.6619 222.848 59.4336 222.848 54.2271H220.848C220.848 59.0444 219.498 62.7254 216.902 65.3938L218.336 66.7885ZM323.539 21.4543H324.539V20.4543H323.539V21.4543ZM323.539 87V88H324.539V87H323.539ZM303.452 87H302.452V88H303.452V87ZM303.452 78.0726H304.452V74.9103L302.634 77.4977L303.452 78.0726ZM295.112 85.1206L295.559 86.015L295.567 86.011L295.112 85.1206ZM270.327 84.4158L269.818 85.2763L269.824 85.2802L269.831 85.284L270.327 84.4158ZM261.4 74.6661L260.505 75.1133L260.505 75.1133L261.4 74.6661ZM258.228 21.4543V20.4543H257.228V21.4543H258.228ZM278.197 21.4543H279.197V20.4543H278.197V21.4543ZM281.604 67.2658L280.873 67.949L280.873 67.949L281.604 67.2658ZM303.452 21.4543V20.4543H302.452V21.4543H303.452ZM322.539 21.4543V87H324.539V21.4543H322.539ZM323.539 86H303.452V88H323.539V86ZM304.452 87V78.0726H302.452V87H304.452ZM302.634 77.4977C300.702 80.247 298.053 82.4942 294.657 84.2301L295.567 86.011C299.219 84.1446 302.13 81.6932 304.27 78.6476L302.634 77.4977ZM294.665 84.2261C291.371 85.8729 287.689 86.7048 283.601 86.7048V88.7048C287.969 88.7048 291.962 87.8138 295.559 86.015L294.665 84.2261ZM283.601 86.7048C278.739 86.7048 274.49 85.6428 270.823 83.5475L269.831 85.284C273.838 87.5741 278.438 88.7048 283.601 88.7048V86.7048ZM270.836 83.5552C267.175 81.3881 264.328 78.2866 262.294 74.2189L260.505 75.1133C262.7 79.5032 265.805 82.9014 269.818 85.2763L270.836 83.5552ZM262.294 74.2189C260.262 70.1551 259.228 65.3415 259.228 59.748H257.228C257.228 65.5878 258.308 70.7196 260.505 75.1133L262.294 74.2189ZM259.228 59.748V21.4543H257.228V59.748H259.228ZM258.228 22.4543H278.197V20.4543H258.228V22.4543ZM277.197 21.4543V57.0463H279.197V21.4543H277.197ZM277.197 57.0463C277.197 61.6022 278.38 65.2832 280.873 67.949L282.334 66.5826C280.286 64.3932 279.197 61.2611 279.197 57.0463H277.197ZM280.873 67.949C283.363 70.6105 286.699 71.9072 290.766 71.9072V69.9072C287.159 69.9072 284.386 68.7763 282.334 66.5826L280.873 67.949ZM290.766 71.9072C294.905 71.9072 298.282 70.6147 300.776 67.949L299.315 66.5826C297.267 68.7721 294.458 69.9072 290.766 69.9072V71.9072ZM300.776 67.949C303.27 65.2832 304.452 61.6022 304.452 57.0463H302.452C302.452 61.2611 301.364 64.3932 299.315 66.5826L300.776 67.949ZM304.452 57.0463V21.4543H302.452V57.0463H304.452ZM303.452 22.4543L323.539 22.4543V20.4543H303.452V22.4543ZM360.403 0.0755346H361.403V-0.924465H360.403V0.0755346ZM360.403 87V88H361.403V87H360.403ZM340.316 87H339.316V88H340.316V87ZM340.316 0.0755346V-0.924465H339.316V0.0755346H340.316ZM359.403 0.0755346V87H361.403V0.0755346H359.403ZM360.403 86H340.316V88H360.403V86ZM341.316 87V0.0755346H339.316V87H341.316ZM340.316 1.07553H360.403V-0.924465H340.316V1.07553ZM377.074 36.3724L376.182 35.9196L376.177 35.9307L377.074 36.3724ZM387.528 24.6258L388.058 25.4738L388.058 25.4738L387.528 24.6258ZM414.31 23.3337L413.831 24.2116L413.84 24.216L414.31 23.3337ZM422.415 30.734L421.564 31.2581L423.415 34.2671V30.734H422.415ZM422.415 21.4543V20.4543H421.415V21.4543H422.415ZM442.502 21.4543H443.502V20.4543H442.502V21.4543ZM442.502 87V88H443.502V87H442.502ZM422.415 87H421.415V88H422.415V87ZM422.415 77.7202H423.415V74.3072L421.573 77.1806L422.415 77.7202ZM414.193 85.1206L413.722 84.2382L413.714 84.2427L414.193 85.1206ZM387.528 83.8284L386.987 84.6697L386.998 84.6764L387.528 83.8284ZM377.074 71.9644L376.174 72.4007L376.178 72.4089L376.182 72.4171L377.074 71.9644ZM418.187 42.3631L417.46 43.0504L417.47 43.0605L418.187 42.3631ZM397.865 42.3631L397.148 41.6658L397.148 41.666L397.865 42.3631ZM397.865 66.0911L397.13 66.7686L397.139 66.7787L397.148 66.7885L397.865 66.0911ZM418.187 66.0911L417.47 65.3937L417.46 65.4039L418.187 66.0911ZM374.315 54.1097C374.315 47.4997 375.544 41.7434 377.971 36.8141L376.177 35.9307C373.591 41.1817 372.315 47.2502 372.315 54.1097H374.315ZM377.965 36.8251C380.476 31.8797 383.843 28.1084 388.058 25.4738L386.998 23.7778C382.443 26.6249 378.84 30.6847 376.182 35.9197L377.965 36.8251ZM388.058 25.4738C392.277 22.8369 396.986 21.5145 402.211 21.5145V19.5145C396.629 19.5145 391.55 20.9331 386.998 23.7778L388.058 25.4738ZM402.211 21.5145C406.694 21.5145 410.557 22.4254 413.831 24.2116L414.789 22.4558C411.173 20.4831 406.969 19.5145 402.211 19.5145V21.5145ZM413.84 24.216C417.225 26.0217 419.788 28.3718 421.564 31.2581L423.267 30.2099C421.284 26.988 418.443 24.4046 414.781 22.4513L413.84 24.216ZM423.415 30.734V21.4543H421.415V30.734H423.415ZM422.415 22.4543H442.502V20.4543H422.415V22.4543ZM441.502 21.4543V87H443.502V21.4543H441.502ZM442.502 86L422.415 86V88L442.502 88V86ZM423.415 87V77.7202H421.415V87H423.415ZM421.573 77.1806C419.717 80.0763 417.111 82.431 413.722 84.2382L414.663 86.0029C418.323 84.0512 421.198 81.4723 423.257 78.2599L421.573 77.1806ZM413.714 84.2427C410.439 86.0289 406.577 86.9397 402.094 86.9397V88.9397C406.852 88.9397 411.055 87.9711 414.672 85.9984L413.714 84.2427ZM402.094 86.9397C396.95 86.9397 392.28 85.6189 388.058 82.9804L386.998 84.6764C391.547 87.5197 396.587 88.9397 402.094 88.9397V86.9397ZM388.069 82.9873C383.847 80.2731 380.477 76.459 377.965 71.5117L376.182 72.4171C378.839 77.6501 382.439 81.7454 386.987 84.6696L388.069 82.9873ZM377.974 71.5281C375.544 66.5172 374.315 60.7192 374.315 54.1097H372.315C372.315 60.9695 373.592 67.0747 376.174 72.4007L377.974 71.5281ZM423.415 54.2271C423.415 49.0207 421.945 44.7923 418.903 41.6658L417.47 43.0605C420.066 45.7288 421.415 49.4099 421.415 54.2271H423.415ZM418.913 41.6759C415.983 38.5784 412.353 37.0169 408.085 37.0169V39.0169C411.804 39.0169 414.908 40.3528 417.46 43.0503L418.913 41.6759ZM408.085 37.0169C403.817 37.0169 400.153 38.5775 397.148 41.6658L398.582 43.0605C401.215 40.3538 404.364 39.0169 408.085 39.0169V37.0169ZM397.148 41.666C394.18 44.7193 392.754 48.9122 392.754 54.1097H394.754C394.754 49.2834 396.069 45.6452 398.582 43.0602L397.148 41.666ZM392.754 54.1097C392.754 59.3098 394.18 63.5667 397.13 66.7686L398.601 65.4137C396.068 62.664 394.754 58.9332 394.754 54.1097H392.754ZM397.148 66.7885C400.153 69.8768 403.817 71.4374 408.085 71.4374V69.4374C404.364 69.4374 401.215 68.1004 398.582 65.3938L397.148 66.7885ZM408.085 71.4374C412.353 71.4374 415.983 69.8758 418.913 66.7783L417.46 65.4039C414.908 68.1014 411.804 69.4374 408.085 69.4374V71.4374ZM418.903 66.7885C421.945 63.6619 423.415 59.4336 423.415 54.2271H421.415C421.415 59.0444 420.066 62.7254 417.47 65.3938L418.903 66.7885ZM479.47 32.3785H478.47V35.7425L480.307 32.9248L479.47 32.3785ZM488.28 23.921L488.78 24.7869L488.787 24.7828L488.794 24.7785L488.28 23.921ZM500.026 20.7495H501.026V19.7495H500.026V20.7495ZM500.026 42.0107V43.0107H501.026V42.0107H500.026ZM483.229 45.2997L483.873 46.064L483.88 46.0582L483.887 46.0523L483.229 45.2997ZM479.47 87V88H480.47V87H479.47ZM459.383 87H458.383V88H459.383V87ZM459.383 21.4543V20.4543H458.383V21.4543H459.383ZM479.47 21.4543H480.47V20.4543H479.47V21.4543ZM480.307 32.9248C482.576 29.4464 485.4 26.7399 488.78 24.7869L487.779 23.0552C484.112 25.1743 481.062 28.1061 478.632 31.8323L480.307 32.9248ZM488.794 24.7785C492.155 22.762 495.891 21.7495 500.026 21.7495V19.7495C495.547 19.7495 491.452 20.8513 487.765 23.0635L488.794 24.7785ZM499.026 20.7495V42.0107H501.026V20.7495H499.026ZM500.026 41.0107H494.505V43.0107H500.026V41.0107ZM494.505 41.0107C489.37 41.0107 485.331 42.1313 482.57 44.5472L483.887 46.0523C486.138 44.0829 489.617 43.0107 494.505 43.0107V41.0107ZM482.584 44.5355C479.741 46.9339 478.47 51.0647 478.47 56.5764H480.47C480.47 51.2813 481.704 47.8944 483.873 46.064L482.584 44.5355ZM478.47 56.5764V87H480.47V56.5764H478.47ZM479.47 86H459.383V88H479.47V86ZM460.383 87V21.4543H458.383V87H460.383ZM459.383 22.4543H479.47V20.4543L459.383 20.4543V22.4543ZM478.47 21.4543V32.3785H480.47V21.4543H478.47ZM563.309 72.4343L564.256 72.1135L564.026 71.4343H563.309V72.4343ZM532.533 72.4343V71.4343H531.816L531.586 72.1135L532.533 72.4343ZM527.599 87V88H528.316L528.546 87.3208L527.599 87ZM506.573 87L505.633 86.6598L505.148 88H506.573V87ZM536.409 4.53922V3.53922H535.708L535.469 4.19898L536.409 4.53922ZM559.667 4.53922L560.608 4.19898L560.369 3.53922H559.667V4.53922ZM589.504 87V88H590.929L590.444 86.6598L589.504 87ZM568.242 87L567.295 87.3208L567.525 88H568.242V87ZM558.14 56.9288V57.9288H559.535L559.088 56.6082L558.14 56.9288ZM547.921 26.7402L548.868 26.4196L547.915 23.6053L546.973 26.4229L547.921 26.7402ZM537.819 56.9288L536.87 56.6115L536.43 57.9288H537.819V56.9288ZM563.309 71.4343H532.533V73.4343H563.309V71.4343ZM531.586 72.1135L526.652 86.6792L528.546 87.3208L533.48 72.7551L531.586 72.1135ZM527.599 86H506.573V88H527.599V86ZM507.513 87.3402L537.35 4.87946L535.469 4.19898L505.633 86.6598L507.513 87.3402ZM536.409 5.53922L559.667 5.53922V3.53922L536.409 3.53922V5.53922ZM558.727 4.87946L588.563 87.3402L590.444 86.6598L560.608 4.19898L558.727 4.87946ZM589.504 86H568.242V88H589.504V86ZM569.189 86.6792L564.256 72.1135L562.362 72.7551L567.295 87.3208L569.189 86.6792ZM559.088 56.6082L548.868 26.4196L546.974 27.0608L557.193 57.2495L559.088 56.6082ZM546.973 26.4229L536.87 56.6115L538.767 57.2462L548.869 27.0575L546.973 26.4229ZM537.819 57.9288H558.14V55.9288H537.819V57.9288ZM659.196 28.2673L658.455 28.9388L658.461 28.9448L658.467 28.9508L659.196 28.2673ZM666.127 87V88H667.127V87H666.127ZM646.158 87H645.158V88H646.158V87ZM642.751 41.1885L642.021 41.8716L642.021 41.8716L642.751 41.1885ZM624.427 41.1885L625.157 41.8716L625.157 41.8716L624.427 41.1885ZM621.02 87V88H622.02V87H621.02ZM600.934 87H599.934V88H600.934V87ZM600.934 21.4543V20.4543H599.934V21.4543H600.934ZM621.02 21.4543H622.02V20.4543H621.02V21.4543ZM621.02 30.1467H620.02V33.3091L621.838 30.7216L621.02 30.1467ZM629.243 23.3337L629.673 24.2362L629.682 24.2322L629.69 24.2281L629.243 23.3337ZM640.872 21.7495C648.306 21.7495 654.13 24.1653 658.455 28.9388L659.937 27.5957C655.179 22.3454 648.786 19.7495 640.872 19.7495V21.7495ZM658.467 28.9508C662.868 33.6506 665.127 40.1925 665.127 48.7062H667.127C667.127 39.8351 664.766 32.751 659.926 27.5837L658.467 28.9508ZM665.127 48.7062V87H667.127V48.7062H665.127ZM666.127 86H646.158V88H666.127V86ZM647.158 87V51.408H645.158V87H647.158ZM647.158 51.408C647.158 46.852 645.975 43.1711 643.482 40.5053L642.021 41.8716C644.069 44.0611 645.158 47.1931 645.158 51.408H647.158ZM643.482 40.5053C640.992 37.8438 637.656 36.547 633.589 36.547V38.547C637.196 38.547 639.969 39.6779 642.021 41.8716L643.482 40.5053ZM633.589 36.547C629.522 36.547 626.186 37.8438 623.696 40.5053L625.157 41.8716C627.209 39.6779 629.982 38.547 633.589 38.547V36.547ZM623.696 40.5053C621.203 43.1711 620.02 46.852 620.02 51.408H622.02C622.02 47.1931 623.109 44.0611 625.157 41.8716L623.696 40.5053ZM620.02 51.408V87H622.02V51.408H620.02ZM621.02 86L600.934 86V88L621.02 88V86ZM601.934 87V21.4543H599.934V87H601.934ZM600.934 22.4543H621.02V20.4543H600.934V22.4543ZM620.02 21.4543V30.1467H622.02V21.4543H620.02ZM621.838 30.7216C623.768 27.9757 626.37 25.8126 629.673 24.2362L628.812 22.4312C625.224 24.1438 622.345 26.5227 620.202 29.5718L621.838 30.7216ZM629.69 24.2281C632.981 22.5826 636.701 21.7495 640.872 21.7495V19.7495C636.428 19.7495 632.396 20.6392 628.796 22.4393L629.69 24.2281ZM719.436 23.3337L718.957 24.2116L718.965 24.216L719.436 23.3337ZM727.541 30.734L726.69 31.2581L728.541 34.2671V30.734H727.541ZM727.541 21.4543V20.4543H726.541V21.4543H727.541ZM747.628 21.4543H748.628V20.4543H747.628V21.4543ZM743.986 103.21L743.092 102.763L743.088 102.772L743.083 102.78L743.986 103.21ZM733.062 114.957L732.556 114.094L732.55 114.098L733.062 114.957ZM691.244 112.373L691.853 111.579L691.846 111.574L691.244 112.373ZM680.907 93.813V92.813H679.791L679.913 93.9223L680.907 93.813ZM700.759 93.813L701.729 93.5705L701.54 92.813H700.759V93.813ZM705.223 99.6863L705.758 98.8415L705.748 98.835L705.737 98.8288L705.223 99.6863ZM723.782 98.2767L723.098 97.5472L723.087 97.5582L723.075 97.5696L723.782 98.2767ZM727.541 77.6028H728.541V74.1898L726.699 77.0631L727.541 77.6028ZM719.436 85.1206L719.915 85.9984L719.923 85.9943L719.93 85.99L719.436 85.1206ZM692.654 83.8284L692.113 84.6697L692.124 84.6764L692.654 83.8284ZM682.199 71.9644L681.3 72.4007L681.304 72.4089L681.308 72.4171L682.199 71.9644ZM682.199 36.3724L681.308 35.9196L681.302 35.9307L682.199 36.3724ZM692.654 24.6258L693.184 25.4738L693.184 25.4738L692.654 24.6258ZM723.312 42.3631L722.586 43.0504L722.596 43.0605L723.312 42.3631ZM702.991 42.3631L702.274 41.6658L702.274 41.666L702.991 42.3631ZM702.991 66.0911L702.255 66.7686L702.265 66.7787L702.274 66.7885L702.991 66.0911ZM723.312 66.0911L722.596 65.3937L722.586 65.4039L723.312 66.0911ZM707.337 21.5145C711.82 21.5145 715.682 22.4254 718.957 24.2116L719.915 22.4558C716.298 20.4831 712.095 19.5145 707.337 19.5145V21.5145ZM718.965 24.216C722.351 26.0217 724.913 28.3718 726.69 31.2581L728.393 30.2099C726.41 26.988 723.569 24.4046 719.907 22.4513L718.965 24.216ZM728.541 30.734V21.4543L726.541 21.4543V30.734H728.541ZM727.541 22.4543H747.628V20.4543L727.541 20.4543V22.4543ZM746.628 21.4543V86.8825H748.628V21.4543H746.628ZM746.628 86.8825C746.628 92.7746 745.443 98.0614 743.092 102.763L744.881 103.657C747.385 98.6486 748.628 93.0503 748.628 86.8825H746.628ZM743.083 102.78C740.824 107.525 737.325 111.293 732.556 114.095L733.568 115.819C738.666 112.825 742.45 108.763 744.889 103.64L743.083 102.78ZM732.55 114.098C727.888 116.88 722.008 118.303 714.855 118.303V120.303C722.267 120.303 728.526 118.828 733.574 115.816L732.55 114.098ZM714.855 118.303C705.302 118.303 697.664 116.032 691.853 111.579L690.636 113.166C696.884 117.954 704.986 120.303 714.855 120.303V118.303ZM691.846 111.574C686.047 107.206 682.734 101.274 681.901 93.7037L679.913 93.9223C680.803 102.014 684.382 108.455 690.643 113.171L691.846 111.574ZM680.907 94.813H700.759V92.813H680.907V94.813ZM699.789 94.0555C700.484 96.8356 702.147 99.0069 704.708 100.544L705.737 98.8288C703.6 97.5465 702.287 95.8023 701.729 93.5705L699.789 94.0555ZM704.688 100.531C707.231 102.142 710.325 102.918 713.915 102.918V100.918C710.614 100.918 707.913 100.206 705.758 98.8415L704.688 100.531ZM713.915 102.918C718.272 102.918 721.836 101.637 724.489 98.9838L723.075 97.5696C720.873 99.7716 717.86 100.918 713.915 100.918V102.918ZM724.466 99.0062C727.259 96.3877 728.541 92.2613 728.541 86.8825H726.541C726.541 91.9974 725.317 95.4671 723.098 97.5472L724.466 99.0062ZM728.541 86.8825V77.6028H726.541V86.8825H728.541ZM726.699 77.0631C724.837 79.9684 722.26 82.3659 718.942 84.2511L719.93 85.99C723.503 83.9597 726.33 81.3454 728.383 78.1424L726.699 77.0631ZM718.957 84.2427C715.682 86.0289 711.82 86.9397 707.337 86.9397V88.9397C712.095 88.9397 716.298 87.9711 719.915 85.9984L718.957 84.2427ZM707.337 86.9397C702.112 86.9397 697.403 85.6174 693.184 82.9804L692.124 84.6764C696.676 87.5212 701.755 88.9397 707.337 88.9397V86.9397ZM693.195 82.9873C688.973 80.2731 685.603 76.459 683.091 71.5117L681.308 72.4171C683.965 77.6501 687.564 81.7454 692.113 84.6696L693.195 82.9873ZM683.099 71.5281C680.67 66.5172 679.441 60.7192 679.441 54.1097H677.441C677.441 60.9695 678.717 67.0747 681.3 72.4007L683.099 71.5281ZM679.441 54.1097C679.441 47.4997 680.67 41.7434 683.097 36.8141L681.302 35.9307C678.717 41.1817 677.441 47.2502 677.441 54.1097H679.441ZM683.091 36.8251C685.602 31.8797 688.969 28.1084 693.184 25.4738L692.124 23.7778C687.569 26.6249 683.966 30.6847 681.308 35.9197L683.091 36.8251ZM693.184 25.4738C697.403 22.8369 702.112 21.5145 707.337 21.5145V19.5145C701.755 19.5145 696.676 20.9331 692.124 23.7778L693.184 25.4738ZM728.541 54.2271C728.541 49.0207 727.071 44.7923 724.029 41.6658L722.596 43.0605C725.192 45.7288 726.541 49.4099 726.541 54.2271H728.541ZM724.039 41.6759C721.109 38.5784 717.479 37.0169 713.21 37.0169V39.0169C716.93 39.0169 720.034 40.3528 722.586 43.0503L724.039 41.6759ZM713.21 37.0169C708.943 37.0169 705.279 38.5775 702.274 41.6658L703.708 43.0605C706.341 40.3538 709.49 39.0169 713.21 39.0169V37.0169ZM702.274 41.666C699.305 44.7193 697.88 48.9122 697.88 54.1097H699.88C699.88 49.2834 701.195 45.6452 703.708 43.0602L702.274 41.666ZM697.88 54.1097C697.88 59.3098 699.306 63.5667 702.255 66.7686L703.726 65.4137C701.194 62.664 699.88 58.9332 699.88 54.1097H697.88ZM702.274 66.7885C705.279 69.8768 708.943 71.4374 713.21 71.4374V69.4374C709.49 69.4374 706.341 68.1004 703.708 65.3938L702.274 66.7885ZM713.21 71.4374C717.479 71.4374 721.109 69.8758 724.039 66.7783L722.586 65.4039C720.034 68.1014 716.93 69.4374 713.21 69.4374V71.4374ZM724.029 66.7885C727.071 63.6619 728.541 59.4336 728.541 54.2271H726.541C726.541 59.0444 725.192 62.7254 722.596 65.3938L724.029 66.7885ZM829.232 21.4543H830.232V20.4543H829.232V21.4543ZM829.232 87V88H830.232V87H829.232ZM809.146 87H808.146V88H809.146V87ZM809.146 78.0726H810.146V74.9103L808.328 77.4977L809.146 78.0726ZM800.806 85.1206L801.253 86.015L801.261 86.011L800.806 85.1206ZM776.02 84.4158L775.511 85.2763L775.518 85.2802L775.524 85.284L776.02 84.4158ZM767.093 74.6661L766.199 75.1133L766.199 75.1133L767.093 74.6661ZM763.921 21.4543V20.4543H762.921V21.4543H763.921ZM783.891 21.4543H784.891V20.4543H783.891V21.4543ZM787.297 67.2658L786.567 67.949L786.567 67.949L787.297 67.2658ZM809.146 21.4543V20.4543H808.146V21.4543H809.146ZM828.232 21.4543V87H830.232V21.4543H828.232ZM829.232 86H809.146V88H829.232V86ZM810.146 87V78.0726H808.146V87H810.146ZM808.328 77.4977C806.396 80.247 803.747 82.4942 800.351 84.2301L801.261 86.011C804.912 84.1446 807.824 81.6932 809.964 78.6476L808.328 77.4977ZM800.358 84.2261C797.065 85.8729 793.383 86.7048 789.294 86.7048V88.7048C793.663 88.7048 797.655 87.8138 801.253 86.015L800.358 84.2261ZM789.294 86.7048C784.432 86.7048 780.183 85.6428 776.517 83.5475L775.524 85.284C779.532 87.5741 784.132 88.7048 789.294 88.7048V86.7048ZM776.53 83.5552C772.868 81.3881 770.021 78.2866 767.987 74.2189L766.199 75.1133C768.394 79.5032 771.498 82.9014 775.511 85.2763L776.53 83.5552ZM767.987 74.2189C765.956 70.1551 764.921 65.3415 764.921 59.748H762.921C762.921 65.5878 764.002 70.7196 766.199 75.1133L767.987 74.2189ZM764.921 59.748V21.4543H762.921V59.748H764.921ZM763.921 22.4543H783.891V20.4543L763.921 20.4543V22.4543ZM782.891 21.4543V57.0463H784.891V21.4543H782.891ZM782.891 57.0463C782.891 61.6022 784.073 65.2832 786.567 67.949L788.027 66.5826C785.979 64.3932 784.891 61.2611 784.891 57.0463H782.891ZM786.567 67.949C789.057 70.6105 792.392 71.9072 796.459 71.9072V69.9072C792.852 69.9072 790.08 68.7763 788.027 66.5826L786.567 67.949ZM796.459 71.9072C800.598 71.9072 803.976 70.6147 806.469 67.949L805.009 66.5826C802.961 68.7721 800.152 69.9072 796.459 69.9072V71.9072ZM806.469 67.949C808.963 65.2832 810.146 61.6022 810.146 57.0463H808.146C808.146 61.2611 807.057 64.3932 805.009 66.5826L806.469 67.949ZM810.146 57.0463V21.4543H808.146V57.0463H810.146ZM809.146 22.4543H829.232V20.4543L809.146 20.4543V22.4543ZM866.096 0.0755346H867.096V-0.924465H866.096V0.0755346ZM866.096 87V88H867.096V87H866.096ZM846.01 87H845.01V88H846.01V87ZM846.01 0.0755346V-0.924465H845.01V0.0755346H846.01ZM865.096 0.0755346V87H867.096V0.0755346H865.096ZM866.096 86H846.01V88H866.096V86ZM847.01 87V0.0755346H845.01V87H847.01ZM846.01 1.07553L866.096 1.07553V-0.924465L846.01 -0.924465V1.07553ZM882.767 36.3724L881.875 35.9196L881.87 35.9307L882.767 36.3724ZM893.222 24.6258L893.752 25.4738L893.752 25.4738L893.222 24.6258ZM920.004 23.3337L919.525 24.2116L919.533 24.216L920.004 23.3337ZM928.109 30.734L927.257 31.2581L929.109 34.2671V30.734H928.109ZM928.109 21.4543V20.4543H927.109V21.4543H928.109ZM948.196 21.4543L949.196 21.4543V20.4543L948.196 20.4543V21.4543ZM948.196 87V88H949.196V87H948.196ZM928.109 87H927.109V88H928.109V87ZM928.109 77.7202H929.109V74.3072L927.267 77.1806L928.109 77.7202ZM919.886 85.1206L919.416 84.2382L919.407 84.2427L919.886 85.1206ZM893.222 83.8284L892.681 84.6697L892.692 84.6764L893.222 83.8284ZM882.767 71.9644L881.867 72.4007L881.871 72.4089L881.876 72.4171L882.767 71.9644ZM923.88 42.3631L923.154 43.0504L923.163 43.0605L923.88 42.3631ZM903.559 42.3631L902.842 41.6658L902.842 41.666L903.559 42.3631ZM903.559 66.0911L902.823 66.7686L902.832 66.7787L902.842 66.7885L903.559 66.0911ZM923.88 66.0911L923.163 65.3937L923.154 65.4039L923.88 66.0911ZM880.008 54.1097C880.008 47.4997 881.238 41.7434 883.664 36.8141L881.87 35.9307C879.285 41.1817 878.008 47.2502 878.008 54.1097H880.008ZM883.659 36.8251C886.17 31.8797 889.536 28.1084 893.752 25.4738L892.692 23.7778C888.136 26.6249 884.533 30.6847 881.876 35.9197L883.659 36.8251ZM893.752 25.4738C897.971 22.8369 902.68 21.5145 907.905 21.5145V19.5145C902.323 19.5145 897.243 20.9331 892.692 23.7778L893.752 25.4738ZM907.905 21.5145C912.388 21.5145 916.25 22.4254 919.525 24.2116L920.483 22.4558C916.866 20.4831 912.663 19.5145 907.905 19.5145V21.5145ZM919.533 24.216C922.919 26.0217 925.481 28.3718 927.257 31.2581L928.961 30.2099C926.978 26.988 924.137 24.4046 920.474 22.4513L919.533 24.216ZM929.109 30.734V21.4543H927.109V30.734H929.109ZM928.109 22.4543H948.196V20.4543H928.109V22.4543ZM947.196 21.4543V87H949.196V21.4543L947.196 21.4543ZM948.196 86H928.109V88H948.196V86ZM929.109 87V77.7202H927.109V87H929.109ZM927.267 77.1806C925.411 80.0763 922.804 82.431 919.416 84.2382L920.357 86.0029C924.016 84.0512 926.892 81.4723 928.951 78.2599L927.267 77.1806ZM919.407 84.2427C916.133 86.0289 912.27 86.9397 907.787 86.9397V88.9397C912.545 88.9397 916.749 87.9711 920.365 85.9984L919.407 84.2427ZM907.787 86.9397C902.644 86.9397 897.973 85.6189 893.752 82.9804L892.692 84.6764C897.241 87.5197 902.281 88.9397 907.787 88.9397V86.9397ZM893.762 82.9873C889.54 80.2731 886.171 76.459 883.659 71.5117L881.876 72.4171C884.532 77.6501 888.132 81.7454 892.681 84.6696L893.762 82.9873ZM883.667 71.5281C881.237 66.5172 880.008 60.7192 880.008 54.1097H878.008C878.008 60.9695 879.285 67.0747 881.867 72.4007L883.667 71.5281ZM929.109 54.2271C929.109 49.0207 927.639 44.7923 924.597 41.6658L923.163 43.0605C925.76 45.7288 927.109 49.4099 927.109 54.2271H929.109ZM924.607 41.6759C921.677 38.5784 918.046 37.0169 913.778 37.0169V39.0169C917.498 39.0169 920.602 40.3528 923.154 43.0503L924.607 41.6759ZM913.778 37.0169C909.511 37.0169 905.847 38.5775 902.842 41.6658L904.275 43.0605C906.909 40.3538 910.058 39.0169 913.778 39.0169V37.0169ZM902.842 41.666C899.873 44.7193 898.447 48.9122 898.447 54.1097H900.447C900.447 49.2834 901.762 45.6452 904.276 43.0602L902.842 41.666ZM898.447 54.1097C898.447 59.3098 899.874 63.5667 902.823 66.7686L904.294 65.4137C901.762 62.664 900.447 58.9332 900.447 54.1097H898.447ZM902.842 66.7885C905.847 69.8768 909.511 71.4374 913.778 71.4374V69.4374C910.058 69.4374 906.909 68.1004 904.275 65.3938L902.842 66.7885ZM913.778 71.4374C918.046 71.4374 921.677 69.8758 924.607 66.7783L923.154 65.4039C920.602 68.1014 917.498 69.4374 913.778 69.4374V71.4374ZM924.597 66.7885C927.639 63.6619 929.109 59.4336 929.109 54.2271H927.109C927.109 59.0444 925.76 62.7254 923.163 65.3938L924.597 66.7885ZM985.163 32.3785H984.163V35.7425L986.001 32.9248L985.163 32.3785ZM993.973 23.921L994.473 24.7869L994.48 24.7828L994.488 24.7785L993.973 23.921ZM1005.72 20.7495H1006.72V19.7495H1005.72V20.7495ZM1005.72 42.0107V43.0107H1006.72V42.0107H1005.72ZM988.922 45.2997L989.567 46.064L989.574 46.0582L989.581 46.0523L988.922 45.2997ZM985.163 87V88H986.163V87H985.163ZM965.077 87H964.077V88H965.077V87ZM965.077 21.4543V20.4543H964.077V21.4543H965.077ZM985.163 21.4543H986.163V20.4543H985.163V21.4543ZM986.001 32.9248C988.269 29.4464 991.093 26.7399 994.473 24.7869L993.473 23.0552C989.805 25.1743 986.756 28.1061 984.326 31.8323L986.001 32.9248ZM994.488 24.7785C997.849 22.762 1001.58 21.7495 1005.72 21.7495V19.7495C1001.24 19.7495 997.146 20.8513 993.459 23.0635L994.488 24.7785ZM1004.72 20.7495V42.0107H1006.72V20.7495H1004.72ZM1005.72 41.0107H1000.2V43.0107H1005.72V41.0107ZM1000.2 41.0107C995.063 41.0107 991.025 42.1313 988.264 44.5472L989.581 46.0523C991.831 44.0829 995.311 43.0107 1000.2 43.0107V41.0107ZM988.277 44.5355C985.435 46.9339 984.163 51.0647 984.163 56.5764H986.163C986.163 51.2813 987.398 47.8944 989.567 46.064L988.277 44.5355ZM984.163 56.5764V87H986.163V56.5764H984.163ZM985.163 86L965.077 86V88L985.163 88V86ZM966.077 87V21.4543H964.077V87H966.077ZM965.077 22.4543H985.163V20.4543H965.077V22.4543ZM984.163 21.4543V32.3785H986.163V21.4543H984.163ZM1069 72.4343L1069.95 72.1135L1069.72 71.4343H1069V72.4343ZM1038.23 72.4343V71.4343H1037.51L1037.28 72.1135L1038.23 72.4343ZM1033.29 87V88H1034.01L1034.24 87.3208L1033.29 87ZM1012.27 87L1011.33 86.6598L1010.84 88H1012.27V87ZM1042.1 4.53922V3.53922H1041.4L1041.16 4.19898L1042.1 4.53922ZM1065.36 4.53922L1066.3 4.19898L1066.06 3.53922H1065.36V4.53922ZM1095.2 87V88H1096.62L1096.14 86.6598L1095.2 87ZM1073.94 87L1072.99 87.3208L1073.22 88H1073.94V87ZM1063.83 56.9288V57.9288H1065.23L1064.78 56.6082L1063.83 56.9288ZM1053.61 26.7402L1054.56 26.4196L1053.61 23.6053L1052.67 26.4229L1053.61 26.7402ZM1043.51 56.9288L1042.56 56.6115L1042.12 57.9288H1043.51V56.9288ZM1069 71.4343H1038.23V73.4343H1069V71.4343ZM1037.28 72.1135L1032.35 86.6792L1034.24 87.3208L1039.17 72.7551L1037.28 72.1135ZM1033.29 86H1012.27V88H1033.29V86ZM1013.21 87.3402L1043.04 4.87946L1041.16 4.19898L1011.33 86.6598L1013.21 87.3402ZM1042.1 5.53922H1065.36V3.53922H1042.1V5.53922ZM1064.42 4.87946L1094.26 87.3402L1096.14 86.6598L1066.3 4.19898L1064.42 4.87946ZM1095.2 86H1073.94V88H1095.2V86ZM1074.88 86.6792L1069.95 72.1135L1068.06 72.7551L1072.99 87.3208L1074.88 86.6792ZM1064.78 56.6082L1054.56 26.4196L1052.67 27.0608L1062.89 57.2495L1064.78 56.6082ZM1052.67 26.4229L1042.56 56.6115L1044.46 57.2462L1054.56 27.0575L1052.67 26.4229ZM1043.51 57.9288H1063.83V55.9288H1043.51V57.9288ZM1164.89 28.2673L1164.15 28.9388L1164.15 28.9448L1164.16 28.9508L1164.89 28.2673ZM1171.82 87V88H1172.82V87H1171.82ZM1151.85 87H1150.85V88H1151.85V87ZM1148.44 41.1885L1147.71 41.8716L1147.71 41.8716L1148.44 41.1885ZM1130.12 41.1885L1130.85 41.8716L1130.85 41.8716L1130.12 41.1885ZM1126.71 87V88H1127.71V87H1126.71ZM1106.63 87H1105.63V88H1106.63V87ZM1106.63 21.4543V20.4543H1105.63V21.4543H1106.63ZM1126.71 21.4543H1127.71V20.4543H1126.71V21.4543ZM1126.71 30.1467H1125.71V33.3091L1127.53 30.7216L1126.71 30.1467ZM1134.94 23.3337L1135.37 24.2362L1135.38 24.2322L1135.38 24.2281L1134.94 23.3337ZM1146.57 21.7495C1154 21.7495 1159.82 24.1653 1164.15 28.9388L1165.63 27.5957C1160.87 22.3454 1154.48 19.7495 1146.57 19.7495V21.7495ZM1164.16 28.9508C1168.56 33.6506 1170.82 40.1925 1170.82 48.7062H1172.82C1172.82 39.8351 1170.46 32.751 1165.62 27.5837L1164.16 28.9508ZM1170.82 48.7062V87H1172.82V48.7062H1170.82ZM1171.82 86H1151.85V88H1171.82V86ZM1152.85 87V51.408H1150.85V87H1152.85ZM1152.85 51.408C1152.85 46.852 1151.67 43.1711 1149.18 40.5053L1147.71 41.8716C1149.76 44.0611 1150.85 47.1931 1150.85 51.408H1152.85ZM1149.18 40.5053C1146.69 37.8438 1143.35 36.547 1139.28 36.547V38.547C1142.89 38.547 1145.66 39.6779 1147.71 41.8716L1149.18 40.5053ZM1139.28 36.547C1135.22 36.547 1131.88 37.8438 1129.39 40.5053L1130.85 41.8716C1132.9 39.6779 1135.68 38.547 1139.28 38.547V36.547ZM1129.39 40.5053C1126.9 43.1711 1125.71 46.852 1125.71 51.408H1127.71C1127.71 47.1931 1128.8 44.0611 1130.85 41.8716L1129.39 40.5053ZM1125.71 51.408V87H1127.71V51.408H1125.71ZM1126.71 86H1106.63V88H1126.71V86ZM1107.63 87V21.4543H1105.63V87H1107.63ZM1106.63 22.4543H1126.71V20.4543L1106.63 20.4543V22.4543ZM1125.71 21.4543V30.1467H1127.71V21.4543H1125.71ZM1127.53 30.7216C1129.46 27.9757 1132.06 25.8126 1135.37 24.2362L1134.51 22.4312C1130.92 24.1438 1128.04 26.5227 1125.9 29.5718L1127.53 30.7216ZM1135.38 24.2281C1138.67 22.5826 1142.4 21.7495 1146.57 21.7495V19.7495C1142.12 19.7495 1138.09 20.6392 1134.49 22.4393L1135.38 24.2281ZM1225.13 23.3337L1224.65 24.2116L1224.66 24.216L1225.13 23.3337ZM1233.23 30.734L1232.38 31.2581L1234.23 34.2671V30.734H1233.23ZM1233.23 21.4543V20.4543H1232.23V21.4543H1233.23ZM1253.32 21.4543H1254.32V20.4543H1253.32V21.4543ZM1249.68 103.21L1248.79 102.763L1248.78 102.772L1248.78 102.78L1249.68 103.21ZM1238.76 114.957L1238.25 114.094L1238.24 114.098L1238.76 114.957ZM1196.94 112.373L1197.55 111.579L1197.54 111.574L1196.94 112.373ZM1186.6 93.813V92.813H1185.48L1185.61 93.9223L1186.6 93.813ZM1206.45 93.813L1207.42 93.5705L1207.23 92.813H1206.45V93.813ZM1210.92 99.6863L1211.45 98.8415L1211.44 98.835L1211.43 98.8288L1210.92 99.6863ZM1229.48 98.2767L1228.79 97.5472L1228.78 97.5582L1228.77 97.5696L1229.48 98.2767ZM1233.23 77.6028H1234.23V74.1898L1232.39 77.0631L1233.23 77.6028ZM1225.13 85.1206L1225.61 85.9984L1225.62 85.9943L1225.62 85.99L1225.13 85.1206ZM1198.35 83.8284L1197.81 84.6697L1197.82 84.6764L1198.35 83.8284ZM1187.89 71.9644L1186.99 72.4007L1187 72.4089L1187 72.4171L1187.89 71.9644ZM1187.89 36.3724L1187 35.9196L1187 35.9307L1187.89 36.3724ZM1198.35 24.6258L1198.88 25.4738L1198.88 25.4738L1198.35 24.6258ZM1229.01 42.3631L1228.28 43.0504L1228.29 43.0605L1229.01 42.3631ZM1208.68 42.3631L1207.97 41.6658L1207.97 41.666L1208.68 42.3631ZM1208.68 66.0911L1207.95 66.7686L1207.96 66.7787L1207.97 66.7885L1208.68 66.0911ZM1229.01 66.0911L1228.29 65.3937L1228.28 65.4039L1229.01 66.0911ZM1213.03 21.5145C1217.51 21.5145 1221.38 22.4254 1224.65 24.2116L1225.61 22.4558C1221.99 20.4831 1217.79 19.5145 1213.03 19.5145V21.5145ZM1224.66 24.216C1228.04 26.0217 1230.61 28.3718 1232.38 31.2581L1234.09 30.2099C1232.1 26.988 1229.26 24.4046 1225.6 22.4513L1224.66 24.216ZM1234.23 30.734V21.4543H1232.23V30.734H1234.23ZM1233.23 22.4543H1253.32V20.4543H1233.23V22.4543ZM1252.32 21.4543V86.8825H1254.32V21.4543H1252.32ZM1252.32 86.8825C1252.32 92.7746 1251.14 98.0614 1248.79 102.763L1250.57 103.657C1253.08 98.6486 1254.32 93.0503 1254.32 86.8825H1252.32ZM1248.78 102.78C1246.52 107.525 1243.02 111.293 1238.25 114.095L1239.26 115.819C1244.36 112.825 1248.14 108.763 1250.58 103.64L1248.78 102.78ZM1238.24 114.098C1233.58 116.88 1227.7 118.303 1220.55 118.303V120.303C1227.96 120.303 1234.22 118.828 1239.27 115.816L1238.24 114.098ZM1220.55 118.303C1211 118.303 1203.36 116.032 1197.55 111.579L1196.33 113.166C1202.58 117.954 1210.68 120.303 1220.55 120.303V118.303ZM1197.54 111.574C1191.74 107.206 1188.43 101.274 1187.59 93.7037L1185.61 93.9223C1186.5 102.014 1190.08 108.455 1196.34 113.171L1197.54 111.574ZM1186.6 94.813H1206.45V92.813H1186.6V94.813ZM1205.48 94.0555C1206.18 96.8356 1207.84 99.0069 1210.4 100.544L1211.43 98.8288C1209.29 97.5465 1207.98 95.8023 1207.42 93.5705L1205.48 94.0555ZM1210.38 100.531C1212.92 102.142 1216.02 102.918 1219.61 102.918V100.918C1216.31 100.918 1213.61 100.206 1211.45 98.8415L1210.38 100.531ZM1219.61 102.918C1223.97 102.918 1227.53 101.637 1230.18 98.9838L1228.77 97.5696C1226.57 99.7716 1223.55 100.918 1219.61 100.918V102.918ZM1230.16 99.0062C1232.95 96.3877 1234.23 92.2613 1234.23 86.8825H1232.23C1232.23 91.9974 1231.01 95.4671 1228.79 97.5472L1230.16 99.0062ZM1234.23 86.8825V77.6028H1232.23V86.8825H1234.23ZM1232.39 77.0631C1230.53 79.9684 1227.95 82.3659 1224.64 84.2511L1225.62 85.99C1229.2 83.9597 1232.02 81.3454 1234.08 78.1424L1232.39 77.0631ZM1224.65 84.2427C1221.38 86.0289 1217.51 86.9397 1213.03 86.9397V88.9397C1217.79 88.9397 1221.99 87.9711 1225.61 85.9984L1224.65 84.2427ZM1213.03 86.9397C1207.81 86.9397 1203.1 85.6174 1198.88 82.9804L1197.82 84.6764C1202.37 87.5212 1207.45 88.9397 1213.03 88.9397V86.9397ZM1198.89 82.9873C1194.67 80.2731 1191.3 76.459 1188.78 71.5117L1187 72.4171C1189.66 77.6501 1193.26 81.7454 1197.81 84.6696L1198.89 82.9873ZM1188.79 71.5281C1186.36 66.5172 1185.13 60.7192 1185.13 54.1097H1183.13C1183.13 60.9695 1184.41 67.0747 1186.99 72.4007L1188.79 71.5281ZM1185.13 54.1097C1185.13 47.4997 1186.36 41.7434 1188.79 36.8141L1187 35.9307C1184.41 41.1817 1183.13 47.2502 1183.13 54.1097H1185.13ZM1188.78 36.8251C1191.3 31.8797 1194.66 28.1084 1198.88 25.4738L1197.82 23.7778C1193.26 26.6249 1189.66 30.6847 1187 35.9197L1188.78 36.8251ZM1198.88 25.4738C1203.1 22.8369 1207.81 21.5145 1213.03 21.5145V19.5145C1207.45 19.5145 1202.37 20.9331 1197.82 23.7778L1198.88 25.4738ZM1234.23 54.2271C1234.23 49.0207 1232.76 44.7923 1229.72 41.6658L1228.29 43.0605C1230.89 45.7288 1232.23 49.4099 1232.23 54.2271H1234.23ZM1229.73 41.6759C1226.8 38.5784 1223.17 37.0169 1218.9 37.0169V39.0169C1222.62 39.0169 1225.73 40.3528 1228.28 43.0503L1229.73 41.6759ZM1218.9 37.0169C1214.64 37.0169 1210.97 38.5775 1207.97 41.6658L1209.4 43.0605C1212.03 40.3538 1215.18 39.0169 1218.9 39.0169V37.0169ZM1207.97 41.666C1205 44.7193 1203.57 48.9122 1203.57 54.1097H1205.57C1205.57 49.2834 1206.89 45.6452 1209.4 43.0602L1207.97 41.666ZM1203.57 54.1097C1203.57 59.3098 1205 63.5667 1207.95 66.7686L1209.42 65.4137C1206.89 62.664 1205.57 58.9332 1205.57 54.1097H1203.57ZM1207.97 66.7885C1210.97 69.8768 1214.64 71.4374 1218.9 71.4374V69.4374C1215.18 69.4374 1212.03 68.1004 1209.4 65.3938L1207.97 66.7885ZM1218.9 71.4374C1223.17 71.4374 1226.8 69.8758 1229.73 66.7783L1228.28 65.4039C1225.73 68.1014 1222.62 69.4374 1218.9 69.4374V71.4374ZM1229.72 66.7885C1232.76 63.6619 1234.23 59.4336 1234.23 54.2271H1232.23C1232.23 59.0444 1230.89 62.7254 1228.29 65.3938L1229.72 66.7885ZM1334.93 21.4543H1335.93V20.4543H1334.93V21.4543ZM1334.93 87V88H1335.93V87H1334.93ZM1314.84 87H1313.84V88H1314.84V87ZM1314.84 78.0726H1315.84V74.9103L1314.02 77.4977L1314.84 78.0726ZM1306.5 85.1206L1306.95 86.015L1306.95 86.011L1306.5 85.1206ZM1281.71 84.4158L1281.2 85.2763L1281.21 85.2802L1281.22 85.284L1281.71 84.4158ZM1272.79 74.6661L1271.89 75.1133L1271.89 75.1133L1272.79 74.6661ZM1269.62 21.4543V20.4543H1268.62V21.4543H1269.62ZM1289.58 21.4543H1290.58V20.4543H1289.58V21.4543ZM1292.99 67.2658L1292.26 67.949L1292.26 67.949L1292.99 67.2658ZM1314.84 21.4543V20.4543H1313.84V21.4543H1314.84ZM1333.93 21.4543V87H1335.93V21.4543H1333.93ZM1334.93 86L1314.84 86V88L1334.93 88V86ZM1315.84 87V78.0726H1313.84V87H1315.84ZM1314.02 77.4977C1312.09 80.247 1309.44 82.4942 1306.04 84.2301L1306.95 86.011C1310.61 84.1446 1313.52 81.6932 1315.66 78.6476L1314.02 77.4977ZM1306.05 84.2261C1302.76 85.8729 1299.08 86.7048 1294.99 86.7048V88.7048C1299.36 88.7048 1303.35 87.8138 1306.95 86.015L1306.05 84.2261ZM1294.99 86.7048C1290.13 86.7048 1285.88 85.6428 1282.21 83.5475L1281.22 85.284C1285.23 87.5741 1289.83 88.7048 1294.99 88.7048V86.7048ZM1282.22 83.5552C1278.56 81.3881 1275.71 78.2866 1273.68 74.2189L1271.89 75.1133C1274.09 79.5032 1277.19 82.9014 1281.2 85.2763L1282.22 83.5552ZM1273.68 74.2189C1271.65 70.1551 1270.62 65.3415 1270.62 59.748H1268.62C1268.62 65.5878 1269.7 70.7196 1271.89 75.1133L1273.68 74.2189ZM1270.62 59.748V21.4543H1268.62V59.748H1270.62ZM1269.62 22.4543L1289.58 22.4543V20.4543H1269.62V22.4543ZM1288.58 21.4543V57.0463H1290.58V21.4543H1288.58ZM1288.58 57.0463C1288.58 61.6022 1289.77 65.2832 1292.26 67.949L1293.72 66.5826C1291.67 64.3932 1290.58 61.2611 1290.58 57.0463H1288.58ZM1292.26 67.949C1294.75 70.6105 1298.09 71.9072 1302.15 71.9072V69.9072C1298.55 69.9072 1295.77 68.7763 1293.72 66.5826L1292.26 67.949ZM1302.15 71.9072C1306.29 71.9072 1309.67 70.6147 1312.16 67.949L1310.7 66.5826C1308.65 68.7721 1305.85 69.9072 1302.15 69.9072V71.9072ZM1312.16 67.949C1314.66 65.2832 1315.84 61.6022 1315.84 57.0463H1313.84C1313.84 61.2611 1312.75 64.3932 1310.7 66.5826L1312.16 67.949ZM1315.84 57.0463V21.4543H1313.84V57.0463H1315.84ZM1314.84 22.4543H1334.93V20.4543H1314.84V22.4543ZM1371.79 0.0755346H1372.79V-0.924465H1371.79V0.0755346ZM1371.79 87V88H1372.79V87H1371.79ZM1351.7 87H1350.7V88H1351.7V87ZM1351.7 0.0755346V-0.924465H1350.7V0.0755346H1351.7ZM1370.79 0.0755346V87H1372.79V0.0755346H1370.79ZM1371.79 86H1351.7V88H1371.79V86ZM1352.7 87V0.0755346H1350.7V87H1352.7ZM1351.7 1.07553H1371.79V-0.924465H1351.7V1.07553ZM1388.46 36.3724L1387.57 35.9196L1387.56 35.9307L1388.46 36.3724ZM1398.92 24.6258L1399.45 25.4738L1399.45 25.4738L1398.92 24.6258ZM1425.7 23.3337L1425.22 24.2116L1425.23 24.216L1425.7 23.3337ZM1433.8 30.734L1432.95 31.2581L1434.8 34.2671V30.734H1433.8ZM1433.8 21.4543V20.4543H1432.8V21.4543H1433.8ZM1453.89 21.4543H1454.89V20.4543H1453.89V21.4543ZM1453.89 87V88H1454.89V87H1453.89ZM1433.8 87H1432.8V88H1433.8V87ZM1433.8 77.7202H1434.8V74.3072L1432.96 77.1806L1433.8 77.7202ZM1425.58 85.1206L1425.11 84.2382L1425.1 84.2427L1425.58 85.1206ZM1398.92 83.8284L1398.37 84.6697L1398.39 84.6764L1398.92 83.8284ZM1388.46 71.9644L1387.56 72.4007L1387.56 72.4089L1387.57 72.4171L1388.46 71.9644ZM1429.57 42.3631L1428.85 43.0504L1428.86 43.0605L1429.57 42.3631ZM1409.25 42.3631L1408.54 41.6658L1408.54 41.666L1409.25 42.3631ZM1409.25 66.0911L1408.52 66.7686L1408.53 66.7787L1408.54 66.7885L1409.25 66.0911ZM1429.57 66.0911L1428.86 65.3937L1428.85 65.4039L1429.57 66.0911ZM1385.7 54.1097C1385.7 47.4997 1386.93 41.7434 1389.36 36.8141L1387.56 35.9307C1384.98 41.1817 1383.7 47.2502 1383.7 54.1097H1385.7ZM1389.35 36.8251C1391.86 31.8797 1395.23 28.1084 1399.45 25.4738L1398.39 23.7778C1393.83 26.6249 1390.23 30.6847 1387.57 35.9197L1389.35 36.8251ZM1399.45 25.4738C1403.66 22.8369 1408.37 21.5145 1413.6 21.5145V19.5145C1408.02 19.5145 1402.94 20.9331 1398.39 23.7778L1399.45 25.4738ZM1413.6 21.5145C1418.08 21.5145 1421.94 22.4254 1425.22 24.2116L1426.18 22.4558C1422.56 20.4831 1418.36 19.5145 1413.6 19.5145V21.5145ZM1425.23 24.216C1428.61 26.0217 1431.17 28.3718 1432.95 31.2581L1434.65 30.2099C1432.67 26.988 1429.83 24.4046 1426.17 22.4513L1425.23 24.216ZM1434.8 30.734V21.4543H1432.8V30.734H1434.8ZM1433.8 22.4543H1453.89V20.4543L1433.8 20.4543V22.4543ZM1452.89 21.4543V87H1454.89V21.4543H1452.89ZM1453.89 86H1433.8V88H1453.89V86ZM1434.8 87V77.7202H1432.8V87H1434.8ZM1432.96 77.1806C1431.1 80.0763 1428.5 82.431 1425.11 84.2382L1426.05 86.0029C1429.71 84.0512 1432.59 81.4723 1434.64 78.2599L1432.96 77.1806ZM1425.1 84.2427C1421.83 86.0289 1417.96 86.9397 1413.48 86.9397V88.9397C1418.24 88.9397 1422.44 87.9711 1426.06 85.9984L1425.1 84.2427ZM1413.48 86.9397C1408.34 86.9397 1403.67 85.6189 1399.45 82.9804L1398.39 84.6764C1402.93 87.5197 1407.97 88.9397 1413.48 88.9397V86.9397ZM1399.46 82.9873C1395.23 80.2731 1391.86 76.459 1389.35 71.5117L1387.57 72.4171C1390.23 77.6501 1393.83 81.7454 1398.37 84.6696L1399.46 82.9873ZM1389.36 71.5281C1386.93 66.5172 1385.7 60.7192 1385.7 54.1097H1383.7C1383.7 60.9695 1384.98 67.0747 1387.56 72.4007L1389.36 71.5281ZM1434.8 54.2271C1434.8 49.0207 1433.33 44.7923 1430.29 41.6658L1428.86 43.0605C1431.45 45.7288 1432.8 49.4099 1432.8 54.2271H1434.8ZM1430.3 41.6759C1427.37 38.5784 1423.74 37.0169 1419.47 37.0169V39.0169C1423.19 39.0169 1426.3 40.3528 1428.85 43.0503L1430.3 41.6759ZM1419.47 37.0169C1415.2 37.0169 1411.54 38.5775 1408.54 41.6658L1409.97 43.0605C1412.6 40.3538 1415.75 39.0169 1419.47 39.0169V37.0169ZM1408.54 41.666C1405.57 44.7193 1404.14 48.9122 1404.14 54.1097H1406.14C1406.14 49.2834 1407.46 45.6452 1409.97 43.0602L1408.54 41.666ZM1404.14 54.1097C1404.14 59.3098 1405.57 63.5667 1408.52 66.7686L1409.99 65.4137C1407.46 62.664 1406.14 58.9332 1406.14 54.1097H1404.14ZM1408.54 66.7885C1411.54 69.8768 1415.2 71.4374 1419.47 71.4374V69.4374C1415.75 69.4374 1412.6 68.1004 1409.97 65.3938L1408.54 66.7885ZM1419.47 71.4374C1423.74 71.4374 1427.37 69.8758 1430.3 66.7783L1428.85 65.4039C1426.3 68.1014 1423.19 69.4374 1419.47 69.4374V71.4374ZM1430.29 66.7885C1433.33 63.6619 1434.8 59.4336 1434.8 54.2271H1432.8C1432.8 59.0444 1431.45 62.7254 1428.86 65.3938L1430.29 66.7885ZM1490.86 32.3785H1489.86V35.7425L1491.69 32.9248L1490.86 32.3785ZM1499.67 23.921L1500.17 24.7869L1500.17 24.7828L1500.18 24.7785L1499.67 23.921ZM1511.41 20.7495H1512.41V19.7495H1511.41V20.7495ZM1511.41 42.0107V43.0107H1512.41V42.0107H1511.41ZM1494.62 45.2997L1495.26 46.064L1495.27 46.0582L1495.27 46.0523L1494.62 45.2997ZM1490.86 87V88H1491.86V87H1490.86ZM1470.77 87H1469.77V88H1470.77V87ZM1470.77 21.4543V20.4543H1469.77V21.4543H1470.77ZM1490.86 21.4543H1491.86V20.4543H1490.86V21.4543ZM1491.69 32.9248C1493.96 29.4464 1496.79 26.7399 1500.17 24.7869L1499.17 23.0552C1495.5 25.1743 1492.45 28.1061 1490.02 31.8323L1491.69 32.9248ZM1500.18 24.7785C1503.54 22.762 1507.28 21.7495 1511.41 21.7495V19.7495C1506.93 19.7495 1502.84 20.8513 1499.15 23.0635L1500.18 24.7785ZM1510.41 20.7495V42.0107H1512.41V20.7495H1510.41ZM1511.41 41.0107H1505.89V43.0107H1511.41V41.0107ZM1505.89 41.0107C1500.76 41.0107 1496.72 42.1313 1493.96 44.5472L1495.27 46.0523C1497.52 44.0829 1501 43.0107 1505.89 43.0107V41.0107ZM1493.97 44.5355C1491.13 46.9339 1489.86 51.0647 1489.86 56.5764H1491.86C1491.86 51.2813 1493.09 47.8944 1495.26 46.064L1493.97 44.5355ZM1489.86 56.5764V87H1491.86V56.5764H1489.86ZM1490.86 86H1470.77V88H1490.86V86ZM1471.77 87V21.4543H1469.77V87H1471.77ZM1470.77 22.4543H1490.86V20.4543L1470.77 20.4543V22.4543ZM1489.86 21.4543V32.3785H1491.86V21.4543H1489.86Z" fill="#F2B125"/>
</svg>
