<svg width="71" height="71" viewBox="0 0 71 71" fill="none" xmlns="http://www.w3.org/2000/svg">
<path fill-rule="evenodd" clip-rule="evenodd" d="M58.7053 0.153947C57.2413 0.63415 56.1048 1.66199 55.6309 2.93416L55.3686 3.63843L52.7523 3.70781C49.8561 3.78467 49.5342 3.86917 48.9337 4.71164L48.6107 5.16465L48.5724 12.2754L48.534 19.3862H45.4172C42.7032 19.3862 42.3003 19.3586 42.3003 19.1725C42.3003 18.7396 41.7301 17.8591 41.3085 17.641C41.0697 17.5174 40.3413 17.33 39.6899 17.2245C39.0385 17.1191 38.4659 16.9848 38.4177 16.9261C38.3694 16.8674 38.2176 16.4448 38.0801 15.9869C37.9427 15.529 37.5878 14.6663 37.2915 14.0697C36.9951 13.4731 36.7527 12.941 36.7527 12.8873C36.7527 12.8337 37.0646 12.3617 37.4459 11.8386C38.7951 9.98721 38.7032 9.27197 36.8945 7.54319C35.3181 6.03653 34.6455 5.9691 33.0249 7.15497C32.5199 7.52459 32.037 7.86647 31.9518 7.91475C31.8667 7.96289 31.4327 7.805 30.9875 7.56386C30.5425 7.32258 29.6141 6.92992 28.9247 6.69114L27.6712 6.257L27.5068 5.08653C27.3157 3.72529 27.0327 3.11522 26.4151 2.73325C26.0365 2.49918 25.7227 2.45909 24.2707 2.45909C22.8186 2.45909 22.5049 2.49918 22.1262 2.73325C21.5087 3.11522 21.2256 3.72529 21.0345 5.08653L20.8701 6.257L19.6167 6.69114C18.9272 6.92992 17.9988 7.32258 17.5538 7.56386C17.1086 7.805 16.6746 7.96289 16.5895 7.91475C16.5043 7.86647 16.0214 7.52459 15.5164 7.15497C13.8959 5.9691 13.2232 6.03653 11.6469 7.54319C9.83808 9.27197 9.74627 9.98721 11.0954 11.8386C11.4767 12.3617 11.7886 12.8329 11.7886 12.8858C11.7886 12.9385 11.5624 13.4273 11.2859 13.9719C11.0093 14.5163 10.6415 15.4111 10.4684 15.96L10.1539 16.9581L9.13367 17.1416C6.63837 17.5901 6.3327 17.9098 6.26266 20.1443C6.18014 22.7736 6.53879 23.2697 8.80678 23.664L10.1378 23.8955L10.5561 25.1442C10.7862 25.831 11.1576 26.7317 11.3814 27.146C11.6054 27.5602 11.7886 27.9551 11.7886 28.0237C11.7886 28.0923 11.5051 28.5168 11.1587 28.9674C9.77234 30.7697 9.8016 31.3932 11.348 33.0125C12.5624 34.2841 12.9277 34.5096 13.7734 34.5096C14.3986 34.5096 14.5549 34.4301 16.0128 33.3703L16.7004 32.8706L17.7464 33.3949C18.3217 33.6834 19.2469 34.0651 19.8025 34.2432C20.9145 34.5998 20.8431 34.4964 21.0876 36.1052C21.3762 38.0034 22.0709 38.5333 24.2707 38.5333C26.4704 38.5333 27.1651 38.0034 27.4537 36.1052C27.6982 34.4964 27.6268 34.5998 28.7388 34.2432C29.2944 34.0651 30.2196 33.6834 30.7949 33.3949L31.8409 32.8706L32.5285 33.3703C33.9864 34.4301 34.1427 34.5096 34.7679 34.5096C35.5992 34.5096 35.9636 34.2907 37.1197 33.0958C38.7067 31.4555 38.7591 30.791 37.4392 29.0467C37.0616 28.5478 36.7527 28.0855 36.7527 28.0193C36.7527 27.9531 36.9359 27.5602 37.1599 27.146C37.3838 26.7317 37.7552 25.831 37.9852 25.1442L38.4035 23.8955L39.7068 23.6688C40.4237 23.544 41.14 23.3725 41.2988 23.2875C41.6928 23.0766 42.1459 22.4131 42.2494 21.8953L42.335 21.4674H45.4345H48.534L48.5724 28.5891L48.6107 35.7107L49.0104 36.2349C49.6403 37.061 49.9969 37.1458 52.8406 37.1458C55.1058 37.1458 55.3529 37.1691 55.4202 37.3886C55.8229 38.7029 56.7892 39.8666 57.9525 40.4382C58.6315 40.7718 58.9 40.8226 59.9832 40.8226C61.0435 40.8226 61.3493 40.7672 62.0147 40.4552C63.0122 39.9873 63.8637 39.1354 64.3314 38.1375C64.6386 37.4821 64.6986 37.1605 64.6986 36.1716C64.6986 35.1151 64.6501 34.8907 64.2421 34.0616C63.4434 32.4384 62.1339 31.5929 60.2606 31.4907C58.8907 31.4161 57.8994 31.7442 56.9384 32.5905C56.2751 33.1746 55.4794 34.3896 55.477 34.8218C55.4759 35.0438 55.2672 35.0646 53.0487 35.0646H50.6217V28.2627V21.4609L52.9949 21.4988L55.3683 21.5368L55.6364 22.2562C56.2018 23.7731 57.9067 25.0197 59.63 25.176C61.5006 25.3458 63.4517 24.2158 64.3111 22.465C64.6508 21.7729 64.6978 21.5215 64.6914 20.4268C64.6855 19.4178 64.6231 19.0524 64.3662 18.5237C63.6334 17.015 62.1197 15.9077 60.5159 15.707C58.5114 15.4562 56.378 16.7744 55.5966 18.7466L55.3708 19.3168L52.9949 19.3548L50.619 19.3927L50.6549 12.6256L50.691 5.85838L52.9995 5.82037L55.3078 5.78249L55.7253 6.67491C57.4761 10.4177 62.5718 10.396 64.3332 6.63814C64.8247 5.58935 64.8533 3.84184 64.3951 2.84522C63.9809 1.94447 62.9365 0.868493 62.0597 0.439211C61.1565 -0.00269782 59.5893 -0.136033 58.7053 0.153947ZM61.0984 2.30369C63.7024 3.48692 62.8399 7.38515 59.9796 7.36046C59.191 7.35366 58.6247 7.10433 58.0931 6.52978C57.5399 5.93192 57.3976 5.56424 57.3976 4.73342C57.3976 2.75711 59.3196 1.49521 61.0984 2.30369ZM25.5544 6.08579C25.7116 7.19618 25.8449 7.69955 26.0274 7.87326C26.1672 8.00632 26.8589 8.27771 27.5644 8.4764C28.7115 8.79968 29.5719 9.18123 31.2416 10.1074C31.5591 10.2833 31.8885 10.3654 32.0821 10.3169C32.2571 10.2729 32.9496 9.82252 33.6206 9.31623L34.8407 8.39551L35.5193 9.06413C35.8926 9.43195 36.198 9.79061 36.198 9.86109C36.198 9.93171 35.7923 10.5529 35.2965 11.2416C34.79 11.9449 34.395 12.6384 34.395 12.8239C34.395 13.0055 34.675 13.6326 35.0172 14.2176C35.5913 15.1987 36.0964 16.4985 36.4733 17.9645C36.5599 18.3019 36.7562 18.6384 36.9315 18.7506C37.1657 18.9004 39.6121 19.3862 40.1324 19.3862C40.1806 19.3862 40.22 19.8477 40.22 20.4118C40.22 21.5939 40.3731 21.4824 38.3696 21.7596C37.69 21.8537 37.0226 22.0274 36.8728 22.1492C36.711 22.2809 36.4896 22.8105 36.3215 23.468C36.0088 24.6917 35.4273 26.0567 34.8059 27.0253C34.2026 27.9659 34.2569 28.2566 35.2965 29.6535C35.7923 30.3196 36.198 30.9223 36.198 30.9928C36.198 31.0631 35.8908 31.4235 35.5152 31.7935L34.8324 32.4663L33.5469 31.5224C32.7485 30.936 32.127 30.5786 31.9066 30.5789C31.7115 30.5792 31.0526 30.8654 30.4423 31.2149C29.3529 31.8389 28.4387 32.2024 26.8893 32.6278C26.4606 32.7456 26.0399 32.9261 25.9545 33.0292C25.8691 33.1323 25.6882 33.9289 25.5526 34.7996L25.306 36.3827H24.2707H23.2353L22.9888 34.7996C22.8531 33.9289 22.6723 33.1323 22.5868 33.0292C22.5014 32.9261 22.0808 32.7456 21.6521 32.6278C20.1026 32.2024 19.1884 31.8389 18.099 31.2149C17.4887 30.8654 16.8298 30.5792 16.6347 30.5789C16.4143 30.5786 15.7928 30.936 14.9944 31.5224L13.7089 32.4663L13.0261 31.7935C12.6506 31.4235 12.3434 31.0631 12.3434 30.9928C12.3434 30.9223 12.749 30.3196 13.2448 29.6535C13.8169 28.8848 14.1463 28.3094 14.1463 28.0787C14.1463 27.8787 13.9592 27.4109 13.7305 27.0391C13.0851 25.9897 12.5273 24.6712 12.2198 23.468C12.0517 22.8105 11.8304 22.2809 11.6685 22.1492C11.5187 22.0274 10.8513 21.8537 10.1718 21.7596C8.16826 21.4824 8.32137 21.5939 8.32137 20.4118C8.32137 19.8477 8.36076 19.3862 8.40888 19.3862C8.92924 19.3862 11.3756 18.9004 11.6098 18.7506C11.785 18.6385 11.9817 18.3015 12.0686 17.9645C12.4772 16.38 12.8625 15.3793 13.4756 14.3096C13.8445 13.6659 14.1463 12.994 14.1463 12.8165C14.1463 12.6389 13.7407 11.9302 13.2448 11.2416C12.749 10.5529 12.3434 9.93171 12.3434 9.86109C12.3434 9.79061 12.6474 9.43333 13.0189 9.06718L13.6946 8.40133L14.9259 9.31762C15.6033 9.82141 16.2968 10.2704 16.4676 10.3152C16.6556 10.3647 16.9831 10.2829 17.2997 10.1074C18.9694 9.18123 19.8298 8.79968 20.9769 8.4764C21.6824 8.27771 22.3741 8.00632 22.5139 7.87326C22.6964 7.69955 22.8297 7.19618 22.987 6.08579L23.2058 4.54029H24.2707H25.3355L25.5544 6.08579ZM22.8144 12.7201C19.7422 13.3883 17.3268 15.7181 16.6409 18.6753C16.4093 19.674 16.4425 21.4867 16.7107 22.4968C17.2337 24.4663 18.9035 26.5308 20.6737 27.3966C22.6051 28.3412 25.0375 28.5202 26.8364 27.8502C27.8591 27.4693 28.1677 27.1893 28.1836 26.6281C28.21 25.6995 27.5379 25.3856 26.3954 25.7931C22.1866 27.2938 18.0762 24.0632 18.5949 19.662C18.964 16.5312 22.2959 14.1328 25.3626 14.7908C27.4476 15.2382 29.159 16.7944 29.7691 18.7979C30.1017 19.8903 30.0309 21.4435 29.599 22.5234C29.3954 23.0325 29.2288 23.6084 29.2288 23.8032C29.2288 24.2136 29.83 24.7973 30.2528 24.7973C31.3259 24.7973 32.3119 21.856 32.0256 19.5083C31.7337 17.1137 30.3231 14.9209 28.3093 13.7314C26.7701 12.8222 24.3734 12.3811 22.8144 12.7201ZM61.3008 18.1211C62.7402 18.8602 63.1027 20.9003 62.0226 22.1844C60.4442 24.0611 57.3976 22.9104 57.3976 20.4372C57.3976 18.3903 59.4513 17.1715 61.3008 18.1211ZM61.2415 33.8207C62.7786 34.5652 63.1266 36.5975 61.947 37.9415C60.5542 39.5285 57.9058 38.8352 57.4401 36.7615C56.948 34.5705 59.1971 32.8306 61.2415 33.8207ZM46.1743 41.1198C45.9786 41.1546 42.6779 42.8287 38.8394 44.8401L31.8606 48.4974L31.2902 48.2958C27.2311 46.8621 22.1153 46.6985 18.0619 47.873C17.4327 48.0553 16.7936 48.3171 16.6416 48.4546C16.0887 48.9554 16.4595 50.1887 17.1628 50.1876C17.2964 50.1874 18.1545 49.9972 19.0698 49.7649C22.749 48.8313 26.5922 49.0005 30.5249 50.269L31.9943 50.743H39.1652C45.3036 50.743 46.3947 50.7732 46.7429 50.9534C47.8107 51.5058 47.8487 53.3084 46.807 53.9912C46.5338 54.1703 44.3209 54.4966 37.7504 55.3265C27.3941 56.6344 28.0985 56.5259 27.7964 56.8598C27.4677 57.2231 27.487 57.9072 27.8357 58.2561C28.0806 58.501 28.72 58.6139 32.6089 59.0993C36.5749 59.5942 37.4477 59.6601 40.0813 59.6638C43.4122 59.6687 45.6225 59.4063 48.5427 58.6593C52.2639 57.7075 54.091 56.886 60.8704 53.1168C63.7977 51.4893 66.3837 50.1029 66.617 50.0361C68.368 49.5337 69.6798 51.9562 68.3352 53.2092C68.1657 53.3669 65.874 54.663 63.2424 56.089C57.1233 59.4048 57.4174 59.2128 57.4174 59.8922C57.4174 60.3134 57.4993 60.4995 57.7829 60.7226C57.9839 60.8808 58.2481 61.0102 58.3698 61.0102C58.4917 61.0102 61.0149 59.6883 63.9769 58.0724C68.6022 55.5492 69.4492 55.038 69.9763 54.4514C71.343 52.9307 71.341 50.7729 69.9716 49.2491C68.984 48.1502 67.5028 47.685 66.008 48.004L65.5146 48.1094L65.3308 47.3924C65.0624 46.3446 64.0159 45.3001 62.9169 44.9832C61.7903 44.6584 61.1023 44.7949 59.3476 45.6916C58.5404 46.1042 57.8463 46.4418 57.8051 46.4418C57.7639 46.4418 57.6915 46.1996 57.6442 45.9035C57.5138 45.0881 56.7663 44.11 55.8984 43.6196C55.2754 43.2674 54.9925 43.195 54.2147 43.1888C53.3606 43.182 53.1697 43.2388 52.004 43.8474C51.3022 44.2137 50.7154 44.4946 50.6999 44.4718C50.6843 44.4487 50.5973 44.1707 50.5064 43.8536C49.967 41.9728 48.0799 40.7818 46.1743 41.1198ZM47.625 43.3222C48.1517 43.5724 48.5413 44.1764 48.5413 44.743C48.5413 45.5601 48.053 45.982 45.5147 47.3588L43.1122 48.6618H39.6967C37.5553 48.6618 36.3303 48.6129 36.4129 48.5308C36.535 48.4095 46.0466 43.3806 46.4762 43.2103C46.821 43.0735 47.1733 43.1079 47.625 43.3222ZM55.2331 45.7499C55.7053 46.2685 55.7505 47.0638 55.3377 47.589C55.1854 47.7825 53.7988 48.6097 52.2561 49.427L49.4514 50.9129L49.2391 50.5884C48.8211 49.9496 48.2741 49.4046 47.7877 49.1425C47.5157 48.996 47.2937 48.8435 47.2942 48.8037C47.2953 48.7354 48.4196 48.1208 52.3352 46.0476C54.2103 45.0549 54.5667 45.0183 55.2331 45.7499ZM62.5474 47.0653C63.0905 47.3464 63.3811 47.7972 63.3811 48.359C63.3811 49.2859 63.1513 49.4632 58.8931 51.823C53.9343 54.5711 52.7163 55.1514 50.105 56.0092C46.3252 57.251 41.7494 57.8866 38.6073 57.6061L37.3768 57.4963L42.0229 56.8978C44.5783 56.5687 46.9499 56.1956 47.2931 56.0686C48.1297 55.7594 49.1482 54.7007 49.4635 53.8127L49.7109 53.1161L54.0068 50.8542C61.2005 47.0667 61.6117 46.8581 61.8837 46.8581C62.0283 46.8581 62.3271 46.9513 62.5474 47.0653ZM12.2436 50.3216C11.047 50.9743 9.9181 51.6891 8.92467 52.4233L8.19447 52.9629H4.43765H0.680827L0.340483 53.3035L0 53.644V60.8465C0 67.9229 0.00499282 68.0552 0.287503 68.4145L0.574868 68.7801L4.34417 68.7803C7.92763 68.7807 8.72426 68.8354 20.5163 69.8903C27.3381 70.5007 33.3419 71 33.8581 71C35.2545 71 37.7309 70.6376 39.4685 70.179C43.0342 69.2378 46.5217 67.6625 53.0891 64.0263C55.3768 62.7597 55.7532 62.4557 55.7532 61.8749C55.7532 61.473 55.1701 60.8715 54.7804 60.8715C54.6198 60.8715 53.1971 61.5821 51.619 62.4507C44.7964 66.2052 41.2148 67.7342 37.4403 68.5038C34.9829 69.0048 33.7879 68.9975 27.6686 68.4435C24.6174 68.1672 20.0302 67.7539 17.4749 67.5249C14.9195 67.296 11.8341 67.0164 10.6185 66.9038C9.40273 66.7911 6.9844 66.6989 5.24427 66.6989H2.08034V60.8715V55.0441H5.41804C7.69588 55.0441 8.85186 54.9926 9.05864 54.8822C9.22521 54.7931 9.79841 54.3946 10.3324 53.9967C10.8663 53.5988 11.9763 52.8831 12.7988 52.4064C14.2994 51.5367 14.5624 51.2892 14.5624 50.7457C14.5624 50.3559 13.9615 49.7712 13.5631 49.7737C13.3881 49.7748 12.7944 50.0214 12.2436 50.3216Z" fill="#E49B00"/>
</svg>
