<svg width="105" height="105" viewBox="0 0 105 105" fill="none" xmlns="http://www.w3.org/2000/svg">
<circle cx="52.1033" cy="52.1033" r="52.1033" fill="#1B1414" fill-opacity="0.05"/>
<path d="M31.1184 51.0103C30.5661 51.0103 30.1184 51.458 30.1184 52.0103C30.1184 52.5625 30.5661 53.0103 31.1184 53.0103L31.1184 51.0103ZM72.3256 53.0103C72.8779 53.0103 73.3256 52.5625 73.3256 52.0103C73.3256 51.458 72.8779 51.0103 72.3256 51.0103L72.3256 53.0103ZM65.4255 43.6957C65.035 43.3052 64.4018 43.3052 64.0113 43.6957C63.6207 44.0862 63.6207 44.7194 64.0113 45.1099L65.4255 43.6957ZM72.6428 52.3273L73.3499 53.0344L74.057 52.3273L73.3499 51.6202L72.6428 52.3273ZM64.0113 59.5446C63.6207 59.9352 63.6207 60.5683 64.0113 60.9589C64.4018 61.3494 65.035 61.3494 65.4255 60.9589L64.0113 59.5446ZM31.1184 53.0103L72.3256 53.0103L72.3256 51.0103L31.1184 51.0103L31.1184 53.0103ZM64.0113 45.1099L71.9357 53.0344L73.3499 51.6202L65.4255 43.6957L64.0113 45.1099ZM71.9357 51.6202L64.0113 59.5446L65.4255 60.9589L73.3499 53.0344L71.9357 51.6202Z" fill="#1B1414"/>
</svg>
