<svg width="14" height="9" viewBox="0 0 14 9" fill="none" xmlns="http://www.w3.org/2000/svg">
<path d="M13.7071 1.70711C14.0976 1.31658 14.0976 0.683418 13.7071 0.292894C13.3166 -0.0976304 12.6834 -0.0976304 12.2929 0.292894L13.7071 1.70711ZM7 7L6.29289 7.70711L7 8.41421L7.70711 7.70711L7 7ZM1.70711 0.292893C1.31658 -0.0976315 0.683418 -0.0976315 0.292893 0.292893C-0.097631 0.683417 -0.097631 1.31658 0.292893 1.70711L1.70711 0.292893ZM12.2929 0.292894L6.29289 6.29289L7.70711 7.70711L13.7071 1.70711L12.2929 0.292894ZM7.70711 6.29289L1.70711 0.292893L0.292893 1.70711L6.29289 7.70711L7.70711 6.29289Z" fill="#A7A5A4"/>
</svg>
