<svg width="120" height="74" viewBox="0 0 120 74" fill="none" xmlns="http://www.w3.org/2000/svg">
<path fill-rule="evenodd" clip-rule="evenodd" d="M100.128 0.0610137C95.3041 0.484813 91.4678 2.73938 89.7325 6.17042C87.6338 10.3201 89.1691 15.6301 93.2109 18.2C94.6255 19.0995 95.7597 19.547 99.6582 20.7442C103.43 21.9022 104.109 22.1417 105.206 22.6992C106.865 23.5426 107.681 24.617 107.821 26.1412C108.043 28.5524 106.372 30.4735 103.454 31.1615C100.339 31.8963 95.5824 31.4424 91.9987 30.0686C89.8705 29.2529 89.6495 29.1792 89.3303 29.1792C88.5642 29.1792 88.3644 29.6429 88.3636 31.4222C88.3629 32.9034 88.5111 33.4659 89.0347 33.9678C90.5951 35.4638 96.0305 36.8341 100.393 36.8314C107.451 36.8271 112.705 33.5998 114.066 28.4338C114.271 27.6556 114.301 27.3196 114.295 25.8496C114.287 23.8915 114.133 23.1522 113.448 21.7914C112.776 20.456 111.911 19.4505 110.703 18.6005C109.199 17.541 108.243 17.1489 103.557 15.6679C101.606 15.0513 99.625 14.3819 99.1551 14.1805C97.1645 13.3271 96.1774 12.5691 95.6787 11.5112C95.4359 10.9961 95.41 10.831 95.41 9.79815C95.41 8.74899 95.4336 8.60438 95.6973 8.03676C96.2464 6.85462 97.3781 6.06765 99.1858 5.61046C99.8357 5.44616 100.427 5.39239 102.007 5.35413C105.083 5.27959 107.021 5.61503 109.692 6.68446C111.316 7.33457 111.76 7.39142 112.104 6.99317C112.393 6.65942 112.505 5.76501 112.42 4.47731C112.348 3.38094 112.252 3.10414 111.772 2.60987C110.212 1.00254 104.255 -0.301462 100.128 0.0610137ZM18.5927 0.120548C15.6425 0.339306 12.2395 1.2043 9.79644 2.35653C8.62944 2.90685 8.14364 3.30471 7.9968 3.83038C7.86596 4.29861 7.86926 7.02865 8.0011 7.37333C8.13385 7.7205 8.37674 7.90259 8.7123 7.90656C8.97629 7.90974 9.30215 7.80538 11.4957 7.01533C15.1073 5.71461 18.0939 5.23715 20.903 5.51156C25.3869 5.94947 27.1165 7.72011 27.4865 12.2509C27.6142 13.8145 27.6206 16.3579 27.4969 16.3579C27.4463 16.3579 26.8954 16.2489 26.2724 16.1156C21.7613 15.1506 17.7437 14.9775 14.7443 15.619C10.873 16.447 7.71023 18.8544 6.40838 21.9638C5.77695 23.4718 5.6485 24.2379 5.6566 26.446C5.6634 28.2868 5.68409 28.5072 5.93588 29.4277C6.56451 31.7249 7.87056 33.6054 9.69648 34.8424C11.5261 36.0818 13.6047 36.6459 16.3423 36.6459C18.5973 36.6459 20.3446 36.3291 22.1449 35.5941C23.9046 34.8756 25.2594 33.9645 26.8657 32.4193C27.4851 31.8235 28.0085 31.3539 28.0287 31.3757C28.0489 31.3976 28.2562 31.7956 28.4895 32.2603C29.3067 33.8886 30.3579 35.3213 31.0451 35.7436C31.3275 35.9173 31.5068 35.9524 31.9299 35.9175C32.3949 35.8793 32.6258 35.766 33.7981 35.0011C35.687 33.7686 36.172 33.2633 36.0498 32.6555C36.0196 32.5053 35.744 31.8614 35.4373 31.2248C34.7276 29.7513 34.3348 28.5711 34.1775 27.4399C34.0919 26.8249 34.0324 24.0301 33.987 18.4948C33.9156 9.77927 33.9139 9.75174 33.3329 7.75827C32.0797 3.45816 29.0075 1.03881 23.8678 0.304519C22.8348 0.157024 19.616 0.0447138 18.5927 0.120548ZM38.09 1.24505C37.789 1.54431 37.754 2.01254 37.9706 2.84085C38.382 4.414 47.5933 34.3805 47.7722 34.7273C48.0002 35.1694 48.333 35.4904 48.7114 35.6329C48.8835 35.6978 49.9677 35.7389 51.5036 35.7389C53.8385 35.7389 54.0444 35.7245 54.4419 35.5332C55.2055 35.1657 54.751 36.8391 59.8857 15.4894C60.7828 11.7592 61.5441 8.74025 61.5775 8.7806C61.6109 8.82095 63.0235 14.6012 64.7166 21.6256C66.4618 28.8662 67.8903 34.5909 68.0151 34.8444C68.2917 35.4065 68.7337 35.7075 69.4049 35.7909C69.6927 35.8267 70.8937 35.8408 72.0737 35.8223C74.7104 35.7809 74.841 35.7378 75.34 34.7409C75.8123 33.7977 85.4706 2.95694 85.5375 2.17842C85.5858 1.61657 85.5687 1.54421 85.3319 1.30876L85.0735 1.05183L82.5949 1.05402C79.536 1.0567 79.4267 1.08741 78.9622 2.07436C78.7675 2.48812 77.7886 6.07749 76.1219 12.4886C74.7232 17.8693 73.1766 23.8146 72.6851 25.7006C72.1936 27.5865 71.7649 29.0624 71.7325 28.9804C71.7 28.8984 70.3024 23.0394 68.6266 15.9603C66.9507 8.88128 65.5042 2.83469 65.4121 2.5235C65.1996 1.80571 64.7771 1.28868 64.2938 1.1552C64.0873 1.09825 62.8839 1.05362 61.5744 1.05462C58.4244 1.0568 58.3095 1.10699 57.8269 2.69177C57.6937 3.12908 56.2489 9.14466 54.6162 16.0597C52.9835 22.9748 51.6208 28.6633 51.5881 28.7008C51.5555 28.7383 50.0319 22.9016 48.2024 15.7304C45.9543 6.91783 44.781 2.48941 44.5827 2.0674C44.1203 1.08364 44.0212 1.0567 40.8582 1.05402C38.4405 1.05193 38.2725 1.06356 38.09 1.24505ZM22.1412 19.9385C23.7415 20.0531 25.0879 20.2377 26.5758 20.5467L27.612 20.7618L27.5632 22.6597C27.5313 23.9029 27.4555 24.8319 27.3434 25.3527C26.8057 27.851 24.8005 29.9414 22.0572 30.8635C20.6127 31.349 19.6753 31.5059 18.1929 31.5106C16.1376 31.5171 14.9872 31.1385 13.9605 30.1174C12.8751 29.0384 12.439 27.691 12.5202 25.6678C12.5987 23.7096 13.1716 22.4175 14.3848 21.4622C16.0608 20.1425 18.446 19.6739 22.1412 19.9385Z" fill="#252F3E"/>
<path d="M107.006 52.8041C106.51 52.6703 105.909 52.7447 105.218 52.9974C95.9616 57.1896 86.9608 60.1777 78.2155 61.9468C59.3273 65.7525 40.92 63.7605 23.0085 55.9855C18.0348 53.815 11.1227 50.1579 2.27213 44.9845C2.04408 44.8064 1.76587 44.7026 1.47573 44.6872C1.1752 44.6723 0.919755 44.7021 0.679333 44.821C0.43891 44.9399 0.258593 45.0886 0.123356 45.2819C-0.0118817 45.4751 -0.0419335 45.7427 0.0632512 46.0846C0.153409 46.4117 0.378805 46.7833 0.754465 47.1847C2.31721 48.9984 4.25561 50.931 6.55465 52.9825C8.85368 55.034 11.904 57.3532 15.7057 59.9399C19.5074 62.5266 23.4894 64.8308 27.6216 66.8377C31.7689 68.8447 36.5774 70.5394 42.062 71.9071C47.5466 73.2748 53.0313 73.9586 58.5009 73.9586C63.9404 73.9586 69.2297 73.4086 74.3537 72.3382C79.4927 71.253 83.8203 69.9745 87.3515 68.4879C90.8677 67.0161 94.1134 65.366 97.0886 63.5821C100.064 61.7981 102.258 60.2818 103.685 59.0776C105.113 57.8586 106.134 56.9072 106.721 56.1936C107.412 55.3462 107.757 54.6178 107.757 53.9785C107.772 53.3096 107.502 52.9231 107.006 52.8041ZM119.523 45.3711C118.877 44.5683 117.134 44.048 114.279 43.7804C111.424 43.5128 108.944 43.5276 106.811 43.8398C104.512 44.1074 102.137 44.7615 99.7032 45.8319C97.2539 46.8874 96.187 47.7794 96.4575 48.4781L96.5627 48.6713L96.6979 48.7754L96.9083 48.8051H97.5995C97.7197 48.8051 97.87 48.7903 98.0803 48.7754C98.2907 48.7605 98.4861 48.7308 98.6664 48.7159C98.8467 48.7011 99.1021 48.6713 99.4327 48.6565C99.7483 48.6416 100.049 48.597 100.334 48.5524C100.379 48.5524 100.89 48.5078 101.882 48.4186C102.874 48.3294 103.595 48.2699 104.031 48.2253C104.467 48.1808 105.203 48.1362 106.21 48.0916C107.216 48.047 108.028 48.047 108.629 48.0916C109.23 48.1362 109.906 48.1956 110.672 48.2551C111.439 48.3145 112.055 48.4483 112.536 48.6565C113.017 48.8497 113.377 49.1024 113.603 49.4146C114.384 50.3958 114.234 52.5663 113.152 55.9409C112.07 59.3155 111.048 62.0063 110.086 63.9983C109.666 64.8457 109.666 65.366 110.086 65.589C110.507 65.812 111.093 65.6039 111.875 64.9944C114.219 63.1807 116.172 60.4453 117.75 56.7734C118.666 54.6029 119.328 52.3433 119.718 49.9796C120.079 47.6158 120.019 46.0846 119.523 45.3711Z" fill="#FF9900"/>
</svg>
