<svg width="107" height="82" viewBox="0 0 107 82" fill="none" xmlns="http://www.w3.org/2000/svg">
<path fill-rule="evenodd" clip-rule="evenodd" d="M42.9392 13.1118L27.1755 26.2235L13.5878 49.5282L0 72.8326L12.154 72.8929C18.8386 72.9263 24.3828 72.8738 24.4746 72.7764C24.5662 72.6792 32.2378 56.4481 41.5226 36.7075C50.8074 16.9669 58.5014 0.632071 58.6206 0.407629C58.7397 0.183188 58.807 -0.000232843 58.77 2.21864e-07C58.7331 2.21864e-07 51.6092 5.90051 42.9392 13.1118ZM62.3885 6.31839C62.2722 6.62464 59.2394 14.8747 55.6492 24.652C49.9652 40.1308 49.1625 42.4803 49.4398 42.8259C49.6147 43.0443 55.4623 49.9705 62.4344 58.2175C69.4064 66.4645 75.0735 73.2481 75.0278 73.2919C74.9822 73.3358 63.8943 75.2956 50.3877 77.647L25.8302 81.9221L66.3739 81.9811C88.673 82.0135 106.955 82.0032 107 81.9585C107.075 81.8841 63.0014 6.15921 62.7218 5.88209C62.6549 5.8159 62.505 6.01237 62.3885 6.31839Z" fill="black"/>
</svg>
