<svg width="107" height="84" viewBox="0 0 107 84" fill="none" xmlns="http://www.w3.org/2000/svg">
<path d="M84 42C84 65.196 65.196 84 42 84C18.804 84 0 65.196 0 42C0 18.804 18.804 0 42 0C65.196 0 84 18.804 84 42Z" fill="#E49B00" fill-opacity="0.12"/>
<path fill-rule="evenodd" clip-rule="evenodd" d="M60.1869 7.09073C57.7633 7.40982 55.7743 8.43026 53.8962 10.3181C52.6124 11.6086 51.3761 13.6088 51.3721 14.4015C51.3683 15.1786 52.6092 17.4292 53.6876 18.6007C55.5367 20.61 57.5544 21.4168 60.7756 21.4353C62.7162 21.4465 62.8246 21.4647 63.1136 21.8306C63.5217 22.347 63.4951 22.8789 63.0337 23.4281L62.6507 23.884L60.1409 23.8796C57.8091 23.8755 57.5412 23.8432 56.363 23.4221C53.8499 22.5241 51.6817 20.7245 50.3359 18.4196C50.0038 17.8508 49.7136 17.3603 49.691 17.3296C49.5846 17.1854 47.6716 17.8911 46.5355 18.4937C44.9933 19.3117 43.1375 21.1206 42.2715 22.6499C41.2419 24.4683 40.8751 25.8582 40.7451 28.433C40.6061 31.1926 40.3315 32.0478 39.0892 33.5916C36.4186 36.9101 35.5376 40.009 36.2222 43.6766C36.6077 45.7411 37.4011 47.3337 39.0892 49.4313C40.3358 50.9804 40.6029 51.8213 40.754 54.6711C40.8927 57.2886 41.1712 58.4046 42.1254 60.1675C42.8352 61.4792 44.4374 63.2222 45.721 64.0793C46.5555 64.6367 49.0354 65.7292 49.4329 65.7145C49.4957 65.7123 49.7916 65.3412 50.0902 64.8899C51.3787 62.9435 53.831 61.3215 56.363 60.7412C57.2355 60.5412 58.2516 60.4541 59.62 60.4617C61.7315 60.4737 62.684 60.6773 62.9424 61.172C63.1976 61.6609 63.1239 62.4446 62.7904 62.7864C62.5085 63.0753 62.2673 63.1011 60.0561 63.0794C56.6247 63.0454 54.946 63.5677 53.226 65.2044C52.2692 66.1147 51.2115 67.7286 51.2115 68.2779C51.2115 68.4963 51.5029 69.2486 51.8589 69.95C55.1943 76.5214 63.7752 78.0413 69.0475 72.9946L70.2325 71.8603V38.0634L69.7173 38.1573C68.2846 38.4186 66.7137 38.4488 65.3896 38.241C62.6422 37.8098 60.1447 38.0982 58.4442 39.0433C58.0198 39.2792 57.2927 39.909 56.8286 40.4431C56.0863 41.2973 55.9146 41.414 55.4006 41.414C54.7 41.414 54.2232 40.9123 54.2232 40.1748C54.2232 38.8751 56.8089 36.5865 58.9427 35.9975L59.6186 35.811L58.9093 34.9184C58.1383 33.9484 57.2954 32.3148 57.1381 31.4857C57.0552 31.0488 57.1175 30.8841 57.5211 30.4703C58.0388 29.9397 58.2535 29.8872 58.8915 30.1359C59.1898 30.2521 59.4463 30.6229 59.8383 31.5042C60.716 33.4782 61.903 34.5831 63.9841 35.3629C64.7761 35.6598 65.2439 35.7126 66.983 35.7014C68.1164 35.6942 69.2933 35.6247 69.5984 35.547L70.1532 35.4057L70.2345 11.1644L69.0486 10.0292C66.6618 7.74466 63.4101 6.66638 60.1869 7.09073ZM80.0003 7.09073C77.6982 7.39389 75.7194 8.3734 73.8596 10.1303L72.7686 11.1608V29.8375L76.0576 29.785C79.0911 29.7368 79.3974 29.7049 80.0003 29.3743C80.751 28.9626 81.4294 28.1979 81.7717 27.377C81.9215 27.0174 82.0368 26.0521 82.0852 24.7522L82.1616 22.696L81.5176 22.2793C80.1706 21.4078 79.5935 20.3845 79.5879 18.8583C79.5798 16.6349 81.1999 15.0296 83.4517 15.0296C84.369 15.0296 85.0553 15.3151 85.8439 16.0247C87.6585 17.6576 87.4344 20.7248 85.4002 22.0949L84.674 22.5842L84.6622 24.1277C84.6338 27.8473 83.9591 29.5808 81.9284 31.1517C80.5719 32.2012 79.5619 32.4134 75.9221 32.4134H72.7686V36.7999L87.9061 36.7967L88.7051 36.4154C90.3442 35.6331 90.8561 34.5766 90.9608 31.7598L91.0365 29.7252L90.2349 29.2144C89.0933 28.4871 88.4643 27.3289 88.4623 25.9502C88.4599 24.2636 89.171 23.0794 90.5942 22.4002C92.5488 21.4673 94.8755 22.3971 95.7129 24.4456C96.4298 26.1996 95.5427 28.6028 93.894 29.3727C93.5553 29.5308 93.5329 29.6372 93.5299 31.0992C93.5215 35.3001 92.4489 37.4974 89.7725 38.7968L88.6986 39.3182L72.7686 39.4108V43.6121L88.6986 43.7047L89.7725 44.2261C92.4464 45.5243 93.5215 47.7236 93.5299 51.913L93.5331 53.46L94.1006 53.7732C95.265 54.4159 95.9424 55.6425 95.9424 57.1081C95.9424 58.7011 95.1673 59.9592 93.7774 60.6227C91.8406 61.5471 89.4961 60.6252 88.6745 58.6161C88.5571 58.3285 88.4626 57.634 88.4645 57.0727C88.4696 55.6705 89.0236 54.6342 90.1826 53.8588L91.0325 53.2902L90.9588 51.2594C90.9123 49.976 90.7979 49.0193 90.6481 48.6599C90.2742 47.7631 89.5717 47.0211 88.7051 46.6075L87.9061 46.2262L72.7686 46.2229V50.6095H75.9221C79.5619 50.6095 80.5719 50.8217 81.9284 51.8712C83.9591 53.4421 84.6338 55.1757 84.6621 58.8952L84.674 60.4386L85.4055 60.926C87.435 62.2782 87.6579 65.3657 85.8439 66.9982C85.0553 67.7078 84.369 67.9933 83.4517 67.9933C81.1979 67.9933 79.5844 66.3923 79.5844 64.156C79.5844 62.7544 80.1262 61.7112 81.2752 60.9004L82.1595 60.2762L82.0841 58.2454C82.0367 56.9663 81.921 56.004 81.7717 55.6459C81.4294 54.825 80.751 54.0603 80.0003 53.6486C79.3974 53.318 79.0911 53.2861 76.0576 53.2379L72.7686 53.1854V71.8531L73.8496 72.8882C76.3459 75.2784 79.3111 76.2998 82.663 75.9242C85.2365 75.6357 87.2052 74.6376 89.1887 72.6159C90.2117 71.5732 90.6183 71.0078 91.1967 69.8235C91.5957 69.0067 92.0401 67.7939 92.1847 67.1286L92.4472 65.9188L93.4152 65.7235C97.126 64.9753 100.283 62.1478 101.655 58.3441C102.065 57.2088 102.147 56.7015 102.251 54.6711C102.397 51.8213 102.663 50.9833 103.912 49.4313C105.59 47.3457 106.33 45.8681 106.755 43.7522C107.486 40.1112 106.594 36.9249 103.912 33.5916C102.663 32.0402 102.397 31.2016 102.25 28.3518C102.149 26.4023 102.055 25.791 101.703 24.8072C101.056 23.0003 100.264 21.7347 98.926 20.3742C97.4999 18.9234 95.5501 17.8221 93.6352 17.3853L92.4495 17.115L92.1932 15.9339C90.954 10.2252 85.6134 6.35168 80.0003 7.09073Z" fill="#E49B00"/>
</svg>
