<svg width="120" height="84" viewBox="0 0 120 84" fill="none" xmlns="http://www.w3.org/2000/svg">
<path d="M84 42C84 65.196 65.196 84 42 84C18.804 84 0 65.196 0 42C0 18.804 18.804 0 42 0C65.196 0 84 18.804 84 42Z" fill="#E49B00" fill-opacity="0.12"/>
<path fill-rule="evenodd" clip-rule="evenodd" d="M65.7419 5.23478C62.8587 5.86054 60.1025 8.01006 58.7703 10.6722C57.8041 12.6034 57.6062 13.7363 57.6028 17.3569C57.6003 19.977 57.5638 20.4145 57.3304 20.6076C57.1821 20.7302 56.8904 21.1963 56.682 21.6433C55.6248 23.9111 57.0543 26.5135 59.6538 27.0536C60.2167 27.1706 60.2655 27.2322 60.5209 28.1487C60.864 29.3791 61.4747 30.571 62.2184 31.4612L62.8 32.1575V37.4437L61.6693 37.5487C59.2703 37.7719 56.7543 38.8991 55.011 40.532L54.1063 41.3793H84.4937L83.589 40.532C81.8456 38.8991 79.3297 37.7719 76.9307 37.5487L75.8 37.4437V32.1575L76.3624 31.4842C77.0418 30.6708 77.861 29.0477 78.1358 27.9699C78.3212 27.2432 78.3854 27.1701 78.9398 27.0549C81.4951 26.5239 82.963 23.9344 81.9613 21.7245C81.779 21.3223 81.4946 20.8469 81.3292 20.6681C81.0608 20.3776 81.0221 19.9703 80.9662 16.8485C80.9075 13.5691 80.8773 13.2807 80.4758 12.1618C79.8641 10.4575 79.1334 9.30562 77.8218 7.97853C76.484 6.62478 74.6334 5.61219 72.7937 5.22714C71.3296 4.92077 67.1686 4.92532 65.7419 5.23478ZM75.7586 24.2438C75.688 27.6917 75.5584 28.2488 74.4995 29.65C73.1941 31.3776 71.5061 32.208 69.3 32.208C67.0939 32.208 65.4059 31.3776 64.1005 29.65C63.0802 28.2997 62.9168 27.651 62.8383 24.6347L62.7682 21.9375L64.5309 21.8383C67.331 21.681 69.6664 20.8717 72.0625 19.228L73.1188 18.5036L75.8216 21.1557L75.7586 24.2438ZM66.4714 34.4286C67.2475 34.7127 67.7889 34.78 69.3 34.78C70.8111 34.78 71.3525 34.7127 72.1286 34.4286C72.6564 34.2353 73.1192 34.0772 73.1571 34.0772C73.195 34.0772 73.2018 35.0098 73.1722 36.1495C73.1098 38.5655 72.9216 38.9862 71.6145 39.63C70.9703 39.9474 70.5896 40.0097 69.2956 40.0097C67.9538 40.0097 67.6399 39.9542 66.9394 39.5937C65.6629 38.9369 65.406 38.3338 65.4026 35.9869C65.4011 34.9365 65.4252 34.0772 65.4557 34.0772C65.4865 34.0772 65.9436 34.2353 66.4714 34.4286ZM48.5 44.2042C47.7024 44.4556 46.3422 45.8645 46.0976 46.6924C45.9507 47.1896 45.9 50.2683 45.9 58.6793V69.9973H92.7V58.6793C92.7 50.2683 92.6493 47.1896 92.5024 46.6924C92.2387 45.7996 90.8925 44.4532 89.9999 44.1894C89.0883 43.9201 49.3565 43.9342 48.5 44.2042ZM99.5989 52.1924C99.2032 52.588 99.2 52.6165 99.2 55.6942C99.2 58.772 99.2032 58.8004 99.5989 59.196C99.8503 59.4476 100.183 59.5951 100.5 59.5951C100.817 59.5951 101.15 59.4476 101.401 59.196C101.797 58.8004 101.8 58.772 101.8 55.6942C101.8 52.6165 101.797 52.588 101.401 52.1924C101.15 51.9408 100.817 51.7934 100.5 51.7934C100.183 51.7934 99.8503 51.9408 99.5989 52.1924ZM104.799 52.1924C104.403 52.588 104.4 52.6165 104.4 55.6942C104.4 58.772 104.403 58.8004 104.799 59.196C105.05 59.4476 105.383 59.5951 105.7 59.5951C106.017 59.5951 106.35 59.4476 106.601 59.196C106.997 58.8004 107 58.772 107 55.6942C107 52.6165 106.997 52.588 106.601 52.1924C106.35 51.9408 106.017 51.7934 105.7 51.7934C105.383 51.7934 105.05 51.9408 104.799 52.1924ZM70.8528 54.7798C72.7039 55.6419 73.5757 57.5541 73.0024 59.4949C72.5898 60.8918 70.8023 62.1956 69.3 62.1956C67.2865 62.1956 65.4 60.3087 65.4 58.2948C65.4 57.2732 65.7718 56.449 66.6132 55.6056C67.8676 54.3483 69.3193 54.0655 70.8528 54.7798ZM95.2785 63.0149L95.3812 72.8756L96.5226 75.1171L109.603 75.2021L109.93 74.6719C110.11 74.3805 110.382 73.7945 110.536 73.3698L110.814 72.5978H111.772C113.227 72.5978 113.959 72.3127 114.887 71.3843C115.914 70.3573 116.1 69.7468 116.1 67.4112C116.1 65.6985 116.077 65.5711 115.701 65.1952C115.317 64.8108 115.222 64.7962 113.101 64.7962H110.9V63.8949C110.9 63.1546 110.829 62.9221 110.501 62.5946L110.102 62.1956H96.0977L95.2785 63.0149ZM113.5 68.298C113.5 69.0383 113.429 69.2707 113.101 69.5982C112.774 69.9259 112.541 69.9973 111.801 69.9973H110.9V67.3967H113.5V68.298ZM45.9627 73.2504C46.0203 73.6094 46.1837 74.1945 46.3262 74.5507L46.5853 75.1983H92.0147L92.2738 74.5507C92.4163 74.1945 92.5798 73.6094 92.6373 73.2504L92.7416 72.5978H45.8584L45.9627 73.2504ZM42.3989 78.1979C42.0234 78.5735 42 78.7023 42 80.3995C42 82.0966 42.0234 82.2254 42.3989 82.601L42.7977 83H119.202L119.601 82.601C119.977 82.2254 120 82.0966 120 80.3995C120 78.7023 119.977 78.5735 119.601 78.1979L119.202 77.7989H42.7977L42.3989 78.1979Z" fill="#E49B00"/>
</svg>
