<svg width="111" height="84" viewBox="0 0 111 84" fill="none" xmlns="http://www.w3.org/2000/svg">
<path d="M84 42C84 65.196 65.196 84 42 84C18.804 84 0 65.196 0 42C0 18.804 18.804 0 42 0C65.196 0 84 18.804 84 42Z" fill="#E49B00" fill-opacity="0.12"/>
<path fill-rule="evenodd" clip-rule="evenodd" d="M68.6526 13.9219L67.7547 14.387C66.6082 14.9808 65.4157 16.1734 64.822 17.32L64.3568 18.218L35.6871 18.2188V22.9062H38.5775C40.1673 22.9062 41.468 22.9486 41.468 23.0005C41.468 23.0522 39.1127 28.8531 36.234 35.8913C32.7541 44.3994 31 48.8733 31 49.2411C31 49.5455 31.1119 50.3363 31.2487 50.9984C32.196 55.5855 35.8204 59.2102 40.4071 60.1575C42.091 60.5055 48.0209 60.5077 49.6986 60.1611C52.0393 59.6775 53.9978 58.6138 55.6733 56.9155C57.6806 54.8811 58.7727 52.5767 59.0549 49.7812L59.1572 48.7656L53.8909 35.9531C50.9944 28.9062 48.5921 23.0878 48.5524 23.0234C48.5127 22.9589 52.0525 22.9064 56.4185 22.9066L64.3568 22.907L64.822 23.805C65.4157 24.9516 66.6082 26.1442 67.7547 26.738L68.6526 27.2031L68.6534 60.6597L67.8456 60.8667C64.8193 61.6423 61.5302 64.4772 60.2915 67.3773C59.9759 68.1164 59.5956 69.3194 59.5933 69.5859C59.5919 69.7405 61.9759 69.7812 70.9969 69.7812C80.018 69.7812 82.402 69.7405 82.4006 69.5859C82.3944 68.8583 81.5926 66.9766 80.7409 65.6908C79.2902 63.5009 76.5219 61.475 74.1483 60.8667L73.3405 60.6597L73.3413 27.2031L74.2392 26.738C75.3857 26.1442 76.5782 24.9516 77.172 23.805L77.6371 22.907L85.488 22.9066C89.806 22.9064 93.339 22.9486 93.339 23.0005C93.339 23.0522 90.9837 28.8531 88.105 35.8913C84.6251 44.3994 82.871 48.8733 82.871 49.2411C82.871 50.1064 83.329 52.1087 83.7627 53.1403C84.9323 55.9212 87.3566 58.3441 90.1446 59.5175C91.8425 60.2323 93.1714 60.4062 96.9325 60.4062C101.602 60.4062 103.049 60.1014 105.447 58.6116C108.562 56.677 110.632 53.3023 110.915 49.6964L111 48.6094L100.43 22.9844L106.307 22.8995V18.2188L77.6371 18.218L77.172 17.32C76.5782 16.1734 75.3857 14.9808 74.2392 14.387L73.3413 13.9219L73.3405 4H68.6534L68.6526 13.9219ZM49.0811 36.3066C51.2489 41.5262 53.0668 45.92 53.121 46.0703C53.2138 46.3284 52.7641 46.3438 45.0614 46.3438C37.3587 46.3438 36.9091 46.3284 37.0019 46.0703C37.3797 45.0202 44.9996 26.8162 45.0614 26.8162C45.1044 26.8162 46.9132 31.0869 49.0811 36.3066ZM100.952 36.3066C103.12 41.5262 104.938 45.92 104.992 46.0703C105.085 46.3284 104.635 46.3438 96.9325 46.3438C89.2298 46.3438 88.7801 46.3284 88.8729 46.0703C89.2507 45.0202 96.8706 26.8162 96.9325 26.8162C96.9754 26.8162 98.7842 31.0869 100.952 36.3066ZM55.2886 74.6867C53.9943 75.0011 53.0064 75.567 52.0028 76.5687C50.4543 78.1142 49.9048 79.6536 49.9048 82.4452V84H92.0891V82.4452C92.0891 79.6547 91.5399 78.1158 89.9911 76.5669C88.9581 75.5339 87.744 74.8677 86.4452 74.6213C85.1913 74.3836 56.2867 74.4442 55.2886 74.6867Z" fill="#E49B00"/>
</svg>
