<svg width="106" height="84" viewBox="0 0 106 84" fill="none" xmlns="http://www.w3.org/2000/svg">
<path d="M84 42C84 65.196 65.196 84 42 84C18.804 84 0 65.196 0 42C0 18.804 18.804 0 42 0C65.196 0 84 18.804 84 42Z" fill="#E49B00" fill-opacity="0.12"/>
<path fill-rule="evenodd" clip-rule="evenodd" d="M78.3614 15.1001C77.8638 15.2437 56.3908 25.7229 56.1395 25.9448C56.0769 26.0001 56.7264 26.0449 57.5902 26.0449H59.154L71.2308 22.7839C77.873 20.9904 83.3533 19.4806 83.4093 19.4288C83.4652 19.3769 83.1837 18.6711 82.7836 17.8603C82.0018 16.2758 81.5029 15.6936 80.5809 15.2898C79.8995 14.9915 79.004 14.9149 78.3614 15.1001ZM79.0169 22.7828C72.724 24.4901 67.4948 25.9182 67.3964 25.9565C67.2981 25.9949 73.5823 26.0305 81.3613 26.0355L95.5049 26.0449L95.1565 24.775C94.9649 24.0767 94.6953 23.0937 94.5574 22.5909C94.0294 20.6655 92.8176 19.6563 91.0545 19.673C90.6591 19.6769 86.61 20.7229 79.0169 22.7828ZM47.3251 28.6012C46.9028 28.7301 46.5494 28.969 46.0525 29.4614C44.8874 30.6162 44.9825 28.6364 45.0181 50.9749L45.0493 70.5193L45.3276 71.0509C45.7182 71.7968 46.3504 72.4074 47.0627 72.7269L47.6714 73H73.7728C98.2949 73 99.9018 72.9876 100.332 72.7949C101.125 72.4396 101.69 71.9039 102.072 71.1459L102.437 70.4226V60.1905L81.043 60.1233L80.3375 59.8574C78.3548 59.1104 77.029 57.6776 76.524 55.7366C76.3689 55.1398 76.3354 54.2576 76.336 50.7753C76.3363 48.4457 76.3889 46.2208 76.4528 45.831C76.7146 44.2342 77.9393 42.5548 79.4075 41.7792C80.8109 41.0379 80.5912 41.0506 92.0426 41.0487L102.446 41.0469L102.377 30.7109L102.06 30.1793C101.664 29.5157 101.219 29.0982 100.53 28.7429L99.9934 28.4665L73.9516 28.4446C51.0175 28.4254 47.84 28.444 47.3251 28.6012ZM81.2814 43.569C80.2794 43.8557 79.564 44.4502 79.0571 45.4176C78.779 45.9481 78.7785 45.9579 78.7785 50.556C78.7785 55.1495 78.7794 55.1647 79.061 55.7822C79.387 56.4971 80.0611 57.1478 80.8497 57.5093C81.3998 57.7614 81.4171 57.7617 92.3656 57.7617C103.314 57.7617 103.331 57.7614 103.881 57.5093C104.631 57.1657 105.305 56.5366 105.659 55.8516L105.953 55.2811L105.988 50.8707C106.03 45.5875 106.019 45.5213 104.961 44.4794C103.801 43.3382 104.626 43.4076 92.3817 43.421C84.7361 43.4294 81.6245 43.4708 81.2814 43.569ZM88.5042 48.757C89.1006 49.1519 89.326 49.6888 89.3261 50.7154C89.3265 52.2947 88.7959 52.8868 87.3138 52.961C86.2359 53.015 85.6715 52.8596 85.2095 52.382C84.8777 52.039 84.8546 51.9516 84.8155 50.8964C84.7665 49.576 84.8927 49.1844 85.4982 48.7765C85.8736 48.5237 86.0569 48.4888 87.0123 48.4888C87.944 48.4888 88.1572 48.5271 88.5042 48.757Z" fill="#E49B00"/>
</svg>
