<svg width="117" height="84" viewBox="0 0 117 84" fill="none" xmlns="http://www.w3.org/2000/svg">
<path d="M84 42C84 65.196 65.196 84 42 84C18.804 84 0 65.196 0 42C0 18.804 18.804 0 42 0C65.196 0 84 18.804 84 42Z" fill="#E49B00" fill-opacity="0.12"/>
<path fill-rule="evenodd" clip-rule="evenodd" d="M58.5743 13.4214C58.5743 19.6546 58.5659 19.8511 58.2886 20.125C58.0112 20.3989 57.8123 20.4073 51.5014 20.4073H45V70.6492H93.2961V7H58.5743V13.4214ZM51.2156 13.2097L46.2161 18.1492H56.2881V13.2097C56.2881 10.4929 56.2717 8.27016 56.2517 8.27016C56.2315 8.27016 53.9654 10.4929 51.2156 13.2097ZM95.5823 72.9073H51.1442V77H99.4408L99.3688 13.4214L95.5823 13.3426V72.9073ZM71.1264 14.603C72.3011 15.422 74.7897 16.3111 75.9223 16.3166C76.7454 16.3207 76.7451 16.3192 76.442 18.9384C76.0638 22.2059 75.7909 23.4401 75.2666 24.2525C74.6022 25.2823 72.8873 26.7811 71.7139 27.3577L70.6861 27.8628L70.0589 27.5972C68.6345 26.9942 66.6689 25.3283 65.9052 24.0766C65.5247 23.453 65.2249 21.9715 64.864 18.9325C64.5538 16.3202 64.5536 16.3207 65.3744 16.3166C66.5045 16.3111 69.2235 15.329 70.2197 14.5665C70.5899 14.2831 70.6721 14.2865 71.1264 14.603ZM107.799 17.8906C107.082 18.1543 106.605 18.5588 106.192 19.2521L105.799 19.9133L105.709 31.1331H111.871V24.3589H113.129C113.916 24.3589 114.45 24.4221 114.558 24.5282C114.683 24.652 114.729 25.783 114.729 28.7354C114.729 32.5552 114.744 32.7895 115.01 33.0712C115.397 33.481 115.82 33.5879 116.292 33.3947C117.01 33.101 117.031 32.9485 116.986 28.2979L116.944 23.9847L116.551 23.3983C115.937 22.4826 115.232 22.1962 113.425 22.128L111.906 22.0707L111.843 20.9826C111.729 19.04 110.698 17.8554 109.05 17.7738C108.598 17.7514 108.035 17.804 107.799 17.8906ZM71.8629 18.9254C71.3566 19.4299 70.8855 19.8427 70.816 19.8427C70.7465 19.8427 70.4986 19.684 70.2651 19.4899C69.728 19.0435 69.2319 19.0414 68.7844 19.4836C68.1534 20.1067 68.2918 20.5982 69.4092 21.7017C70.7629 23.0387 70.8117 23.0316 72.6836 21.2188C73.5051 20.4231 74.2327 19.6316 74.3006 19.4599C74.4565 19.0648 74.2094 18.3321 73.8577 18.1462C73.2323 17.8157 72.8115 17.9801 71.8629 18.9254ZM105.727 54.9839H111.871V33.3911H105.727V54.9839ZM84.6045 36.0342C85.0451 36.4694 85.0391 37.2861 84.5926 37.6432C84.2753 37.8971 83.7382 37.9073 70.6945 37.9073C62.1177 37.9073 57.0306 37.8565 56.8653 37.7691C56.4622 37.556 56.2521 36.8201 56.4677 36.3762C56.8324 35.6249 56.344 35.6485 70.823 35.6853L84.2863 35.7198L84.6045 36.0342ZM67.1373 42.2065C67.7976 42.5436 67.9198 43.2624 67.4229 43.8862L67.1269 44.2581H62.0647C57.193 44.2581 56.9919 44.2475 56.7168 43.9758C56.1514 43.4174 56.341 42.4258 57.069 42.1344C57.2289 42.0703 59.4688 42.0138 62.0465 42.0089C65.8933 42.0015 66.8055 42.037 67.1373 42.2065ZM84.2941 42.1826C84.8335 42.4522 85.0769 43.0489 84.859 43.5684C84.7625 43.7984 84.568 44.0476 84.4269 44.1223C84.2726 44.2039 81.3902 44.2581 77.204 44.2581C70.2486 44.2581 70.2375 44.2576 69.9073 43.9512C69.3595 43.4428 69.5228 42.409 70.1933 42.1421C70.365 42.0738 73.5275 42.0148 77.2212 42.011C82.3627 42.0058 84.0206 42.046 84.2941 42.1826ZM84.4732 48.6308C84.6714 48.7848 84.8743 49.0711 84.9241 49.2672C85.0283 49.6771 84.7075 50.3891 84.3591 50.5212C84.232 50.5694 78.0408 50.6069 70.6009 50.6044C59.7297 50.6008 57.026 50.5639 56.8295 50.4165C56.4647 50.1426 56.273 49.5376 56.4256 49.1413C56.7465 48.3073 55.9629 48.3508 70.6609 48.3508C83.8606 48.3508 84.1195 48.356 84.4732 48.6308ZM76.463 55.1306C76.8265 55.4897 76.883 55.6336 76.8088 56.0127C76.7601 56.2619 76.5846 56.5769 76.419 56.7127C76.1388 56.9425 75.4549 56.9597 66.6052 56.9597H57.0924L56.7617 56.6529C56.2818 56.2076 56.3046 55.3848 56.8075 54.9942C57.1798 54.7049 57.2903 54.7016 66.6063 54.7016H76.0286L76.463 55.1306ZM84.5909 55.1141C85.044 55.5617 85.0993 55.822 84.8424 56.2986C84.5116 56.912 84.3318 56.9505 81.7772 56.9552C79.5155 56.9594 79.3032 56.9377 78.9551 56.6671C78.4494 56.2744 78.4377 55.5337 78.9294 55.0481C79.2743 54.7073 79.3195 54.7016 81.7266 54.7016H84.1732L84.5909 55.1141ZM106.156 57.3534C106.156 57.4484 106.623 59.0396 108.46 65.194C108.618 65.7253 108.775 66.134 108.807 66.1023C108.875 66.0346 111.443 57.5106 111.443 57.3505C111.443 57.2908 110.253 57.2419 108.799 57.2419C107.345 57.2419 106.156 57.2922 106.156 57.3534ZM84.5909 61.4649C84.8207 61.6919 85.0086 62.0142 85.0086 62.1814C85.0086 62.3487 84.8207 62.671 84.5909 62.898L84.1732 63.3105H57.1615L56.7724 62.98C56.4945 62.7439 56.3834 62.5159 56.3834 62.1814C56.3834 61.847 56.4945 61.6191 56.7724 61.3829L57.1615 61.0524H84.1732L84.5909 61.4649Z" fill="#E49B00"/>
</svg>
