<svg width="114" height="84" viewBox="0 0 114 84" fill="none" xmlns="http://www.w3.org/2000/svg">
<path d="M84 42C84 65.196 65.196 84 42 84C18.804 84 0 65.196 0 42C0 18.804 18.804 0 42 0C65.196 0 84 18.804 84 42Z" fill="#E49B00" fill-opacity="0.12"/>
<path fill-rule="evenodd" clip-rule="evenodd" d="M111.092 7.16167C110.568 7.39786 109.972 8.08835 109.599 8.89242C109.367 9.39175 109.313 9.77983 109.312 10.945C109.312 11.7353 109.359 12.5528 109.417 12.7616C109.518 13.1249 109.506 13.1369 109.14 13.037C108.93 12.9796 108.107 12.9328 107.312 12.9329C106.13 12.9332 105.749 12.9864 105.229 13.2237C103.136 14.1781 102.286 16.2956 102.845 19.1589L102.912 19.5044L101.083 19.501C99.3564 19.4977 99.2099 19.519 98.4712 19.8793C97.6228 20.2933 97.0218 20.8873 96.5343 21.7934C96.2548 22.313 96.2236 22.5615 96.2236 24.2616V26.1519L95.7513 26.0639C95.02 25.9275 93.2255 25.9598 92.6265 26.12C91.3 26.475 90.1424 27.6004 89.7485 28.9183C89.5249 29.6661 89.4879 31.1933 89.6705 32.1317C89.7795 32.6922 89.77 32.7201 89.4923 32.6524C88.553 32.4228 87.0812 32.4085 86.2349 32.6209C84.6751 33.0121 83.7614 33.8515 83.6617 34.9845C83.5874 35.8275 83.9341 36.4902 84.6678 36.9082C85.3742 37.3106 85.8711 37.2966 86.7602 36.8498C87.477 36.4894 87.5156 36.4851 88.4839 36.6548C91.2037 37.1317 91.7778 37.1309 92.7455 36.6491C93.0295 36.5076 93.4309 36.1382 93.6374 35.8282C94.1157 35.11 94.2029 33.9186 93.8947 32.3112C93.6142 30.8481 93.6104 30.1188 93.8827 30.0151C93.9966 29.9715 94.8696 30.0735 95.8225 30.2417C97.7194 30.5762 98.4428 30.5486 99.3115 30.1082C100.174 29.671 100.7 28.7134 100.7 27.58C100.7 27.2687 100.572 26.3171 100.415 25.4653C100.259 24.6134 100.164 23.8306 100.204 23.7255C100.304 23.4667 101.226 23.4786 102.575 23.7559C104.739 24.2003 106.277 23.791 106.879 22.6105C107.305 21.7752 107.352 21.0904 107.085 19.6169C106.95 18.874 106.838 17.9889 106.835 17.6502C106.83 17.0529 106.843 17.0332 107.282 16.9912C107.531 16.9674 108.204 17.0444 108.777 17.1622C112.006 17.8256 113.646 17.0206 113.763 14.7143C113.79 14.1724 113.715 13.2185 113.592 12.5703C113.3 11.0212 113.314 10.6013 113.674 10.1177C114.077 9.57567 114.09 8.49627 113.7 7.97669C113.048 7.10912 111.962 6.76976 111.092 7.16167ZM83.0586 8.79308C82.7713 8.98547 82.4909 9.35139 82.3238 9.75178C82.0862 10.3213 82.0738 10.4774 82.2202 11.0485C82.5493 12.3309 82.6603 13.9758 82.5147 15.4135C82.1248 19.267 80.5855 22.4211 77.3655 25.9656C76.3871 27.0423 76.2462 27.3589 76.3621 28.2175C76.4633 28.9673 76.8382 29.4329 77.5917 29.7447C78.6667 30.1895 79.0797 30.0207 80.5214 28.5476C84.8432 24.1316 87.1612 18.1168 86.6449 12.6579C86.4861 10.9777 86.2352 9.87069 85.8969 9.35782C85.3169 8.47848 83.9384 8.20412 83.0586 8.79308ZM93.9888 12.8682C92.2177 13.2409 91.8055 15.6163 93.3473 16.5649C94.1726 17.0727 95.5093 16.8193 96.0766 16.0474C96.4809 15.4971 96.5326 14.3569 96.1789 13.7927C95.7077 13.0414 94.8622 12.6844 93.9888 12.8682ZM72.8628 16.0451C71.1744 17.1656 71.9514 19.7344 73.9788 19.7344C75.0827 19.7344 75.8856 19.0072 75.9987 17.9053C76.1203 16.7182 75.2051 15.7344 73.9788 15.7344C73.5344 15.7344 73.1837 15.832 72.8628 16.0451ZM65.8489 27.8523C65.3497 29.009 64.6203 31.1859 64.2729 32.5551C61.7689 42.4271 63.9879 52.7255 70.3788 60.8917C71.3628 62.1491 73.8358 64.6809 75.1208 65.7466L75.9183 66.408L78.9774 65.2727C80.6599 64.6483 82.518 63.9555 83.1067 63.7331L84.1768 63.3288L83.3914 62.4865C79.6203 58.4428 76.4729 52.6923 75.0177 47.1866C74.079 43.6348 73.596 39.5301 73.7561 36.4652L73.8417 34.8225L66.1409 27.1756L65.8489 27.8523ZM108.62 27.3678C107.642 27.5759 107.013 28.349 107.013 29.3443C107.013 30.5245 107.843 31.3349 109.05 31.3332C110.245 31.3317 111.029 30.5463 111.029 29.35C111.029 28.0216 109.903 27.0948 108.62 27.3678ZM105.934 35.6618C102.922 36.2167 101.512 36.6674 99.3096 37.7801C97.4974 38.6955 95.8109 39.853 94.0509 41.3896C92.6954 42.5729 92.4128 43.0012 92.4128 43.8723C92.4128 45.0285 93.2531 45.8621 94.4185 45.8621C95.204 45.8621 95.4018 45.7484 96.726 44.5371C98.7345 42.6996 101.359 41.1374 103.711 40.3792C105.929 39.6643 108.687 39.4828 110.908 39.9055C112.277 40.166 112.634 40.11 113.299 39.5301C114.229 38.7191 114.235 37.3649 113.312 36.56C112.594 35.9339 111.281 35.6789 108.551 35.6349C107.301 35.6148 106.124 35.6269 105.934 35.6618ZM55.8832 45.656L52.5954 54.3675L52.7648 55.1322C53.4915 58.4123 56.1418 63.599 58.7492 66.8442C59.6932 68.0193 62.8101 71.1547 63.0341 71.1547C63.2135 71.1547 71.2342 68.1796 71.3411 68.0734C71.3779 68.037 70.6652 67.2529 69.7575 66.3311C67.8962 64.4403 66.7847 63.0922 65.4437 61.0983C62.3319 56.472 60.3701 51.4322 59.4964 45.8195C59.2438 44.1963 59.189 43.2549 59.1812 40.3999C59.1761 38.4994 59.1715 36.9446 59.1715 36.9446C59.1715 36.9446 57.6916 40.8648 55.8832 45.656ZM77.9152 39.8525C78.4974 46.4435 80.6497 52.2186 84.3714 57.1765C85.4757 58.6475 87.8966 61.3594 88.2941 61.5708C88.4942 61.6773 89.23 61.4545 91.615 60.5657C93.3104 59.9338 94.8832 59.2618 95.1365 59.061C95.4318 58.8269 95.6495 58.4944 95.7499 58.1239C96.0839 56.8915 96.3949 57.2536 86.8133 47.7208C81.9908 42.9229 77.9988 38.9972 77.9423 38.9972C77.8859 38.9972 77.8737 39.3822 77.9152 39.8525ZM105.307 47.8107C104.778 48.0399 104.194 48.7214 104.078 49.2455C103.778 50.6013 105.225 51.9986 106.579 51.661C108.401 51.2067 108.701 48.6903 107.033 47.8579C106.467 47.5753 105.888 47.5596 105.307 47.8107ZM47.6038 67.5648C45.6159 72.8419 44.9914 74.6486 45.0001 75.0966C45.0184 76.0388 45.7943 76.862 46.7874 76.9932C47.2422 77.0533 48.1969 76.7402 52.9048 74.9872C55.9729 73.8447 58.5055 72.8879 58.5329 72.8609C58.5602 72.8341 58.0092 72.1774 57.3084 71.4018C54.6557 68.4659 52.8449 65.8338 51.2307 62.568C50.7007 61.4955 50.2561 60.6189 50.243 60.6202C50.2297 60.6214 49.042 63.7464 47.6038 67.5648Z" fill="#E49B00"/>
</svg>
