<svg width="317" height="361" viewBox="0 0 317 361" fill="none" xmlns="http://www.w3.org/2000/svg">
<path d="M99.5105 37V25.752H101.638V37H99.5105ZM96.7265 27.64V25.752H101.414V27.64H96.7265ZM96.7265 37V35.112H103.894V37H96.7265ZM107.316 37.16C106.932 37.16 106.617 37.032 106.372 36.776C106.127 36.52 106.004 36.2053 106.004 35.832C106.004 35.4587 106.127 35.144 106.372 34.888C106.617 34.632 106.932 34.504 107.316 34.504C107.689 34.504 107.999 34.632 108.244 34.888C108.489 35.144 108.612 35.4587 108.612 35.832C108.612 36.2053 108.489 36.52 108.244 36.776C107.999 37.032 107.689 37.16 107.316 37.16ZM117.64 37V35.064L120.504 35.064C121.229 35.064 121.864 34.9147 122.408 34.616C122.952 34.3067 123.373 33.8747 123.672 33.32C123.981 32.7653 124.136 32.1093 124.136 31.352C124.136 30.616 123.981 29.976 123.672 29.432C123.363 28.8773 122.936 28.4507 122.392 28.152C121.848 27.8427 121.219 27.688 120.504 27.688H117.592V25.752H120.536C121.368 25.752 122.136 25.8907 122.84 26.168C123.555 26.4453 124.173 26.84 124.696 27.352C125.229 27.8533 125.64 28.4453 125.928 29.128C126.227 29.8107 126.376 30.5573 126.376 31.368C126.376 32.1787 126.227 32.9307 125.928 33.624C125.64 34.3067 125.235 34.904 124.712 35.416C124.189 35.9173 123.571 36.3067 122.856 36.584C122.152 36.8613 121.389 37 120.568 37H117.64ZM116.152 37V25.752H118.328V37H116.152ZM127.881 37V29.272H129.993V37H127.881ZM128.937 28.024C128.596 28.024 128.313 27.912 128.089 27.688C127.865 27.4533 127.753 27.1653 127.753 26.824C127.753 26.4933 127.865 26.2107 128.089 25.976C128.313 25.7413 128.596 25.624 128.937 25.624C129.289 25.624 129.572 25.7413 129.785 25.976C130.009 26.2107 130.121 26.4933 130.121 26.824C130.121 27.1653 130.009 27.4533 129.785 27.688C129.572 27.912 129.289 28.024 128.937 28.024ZM134.506 37.176C134.069 37.176 133.637 37.1173 133.21 37C132.794 36.8827 132.41 36.7227 132.058 36.52C131.706 36.3067 131.402 36.0507 131.146 35.752L132.394 34.488C132.661 34.7867 132.97 35.0107 133.322 35.16C133.674 35.3093 134.063 35.384 134.49 35.384C134.831 35.384 135.087 35.336 135.258 35.24C135.439 35.144 135.53 35 135.53 34.808C135.53 34.5947 135.434 34.4293 135.242 34.312C135.061 34.1947 134.821 34.0987 134.522 34.024C134.223 33.9387 133.909 33.848 133.578 33.752C133.258 33.6453 132.949 33.512 132.65 33.352C132.351 33.1813 132.106 32.952 131.914 32.664C131.733 32.3653 131.642 31.9813 131.642 31.512C131.642 31.0213 131.759 30.5947 131.994 30.232C132.239 29.8693 132.586 29.5867 133.034 29.384C133.482 29.1813 134.01 29.08 134.618 29.08C135.258 29.08 135.834 29.192 136.346 29.416C136.869 29.64 137.301 29.976 137.642 30.424L136.378 31.688C136.143 31.4 135.877 31.192 135.578 31.064C135.29 30.936 134.975 30.872 134.634 30.872C134.325 30.872 134.085 30.92 133.914 31.016C133.754 31.112 133.674 31.2453 133.674 31.416C133.674 31.608 133.765 31.7573 133.946 31.864C134.138 31.9707 134.383 32.0667 134.682 32.152C134.981 32.2267 135.29 32.3173 135.61 32.424C135.941 32.52 136.25 32.6587 136.538 32.84C136.837 33.0213 137.077 33.2613 137.258 33.56C137.45 33.8587 137.546 34.2427 137.546 34.712C137.546 35.4693 137.274 36.072 136.73 36.52C136.186 36.9573 135.445 37.176 134.506 37.176ZM142.607 37.16C141.818 37.16 141.109 36.984 140.479 36.632C139.85 36.28 139.354 35.8 138.991 35.192C138.629 34.584 138.447 33.9013 138.447 33.144C138.447 32.376 138.629 31.688 138.991 31.08C139.354 30.472 139.85 29.992 140.479 29.64C141.119 29.2773 141.829 29.096 142.607 29.096C143.215 29.096 143.775 29.208 144.287 29.432C144.799 29.656 145.242 29.976 145.615 30.392L144.271 31.752C144.069 31.528 143.823 31.3573 143.535 31.24C143.258 31.1227 142.949 31.064 142.607 31.064C142.223 31.064 141.877 31.1547 141.567 31.336C141.269 31.5067 141.029 31.7467 140.847 32.056C140.677 32.3547 140.591 32.712 140.591 33.128C140.591 33.5333 140.677 33.896 140.847 34.216C141.029 34.5253 141.269 34.7707 141.567 34.952C141.877 35.1227 142.223 35.208 142.607 35.208C142.959 35.208 143.274 35.1493 143.551 35.032C143.839 34.904 144.085 34.7227 144.287 34.488L145.647 35.848C145.253 36.2747 144.799 36.6 144.287 36.824C143.775 37.048 143.215 37.16 142.607 37.16ZM150.13 37.16C149.448 37.16 148.84 37.016 148.306 36.728C147.784 36.44 147.373 36.04 147.074 35.528C146.776 35.016 146.626 34.424 146.626 33.752V29.272H148.738V33.704C148.738 34.024 148.792 34.3013 148.898 34.536C149.005 34.76 149.165 34.9307 149.378 35.048C149.592 35.1653 149.842 35.224 150.13 35.224C150.568 35.224 150.909 35.0907 151.154 34.824C151.4 34.5573 151.522 34.184 151.522 33.704V29.272L153.618 29.272V33.752C153.618 34.4347 153.469 35.032 153.17 35.544C152.882 36.056 152.472 36.456 151.938 36.744C151.416 37.0213 150.813 37.16 150.13 37.16ZM157.943 37.176C157.506 37.176 157.074 37.1173 156.647 37C156.231 36.8827 155.847 36.7227 155.495 36.52C155.143 36.3067 154.839 36.0507 154.583 35.752L155.831 34.488C156.098 34.7867 156.407 35.0107 156.759 35.16C157.111 35.3093 157.501 35.384 157.927 35.384C158.269 35.384 158.525 35.336 158.695 35.24C158.877 35.144 158.967 35 158.967 34.808C158.967 34.5947 158.871 34.4293 158.679 34.312C158.498 34.1947 158.258 34.0987 157.959 34.024C157.661 33.9387 157.346 33.848 157.015 33.752C156.695 33.6453 156.386 33.512 156.087 33.352C155.789 33.1813 155.543 32.952 155.351 32.664C155.17 32.3653 155.079 31.9813 155.079 31.512C155.079 31.0213 155.197 30.5947 155.431 30.232C155.677 29.8693 156.023 29.5867 156.471 29.384C156.919 29.1813 157.447 29.08 158.055 29.08C158.695 29.08 159.271 29.192 159.783 29.416C160.306 29.64 160.738 29.976 161.079 30.424L159.815 31.688C159.581 31.4 159.314 31.192 159.015 31.064C158.727 30.936 158.413 30.872 158.071 30.872C157.762 30.872 157.522 30.92 157.351 31.016C157.191 31.112 157.111 31.2453 157.111 31.416C157.111 31.608 157.202 31.7573 157.383 31.864C157.575 31.9707 157.821 32.0667 158.119 32.152C158.418 32.2267 158.727 32.3173 159.047 32.424C159.378 32.52 159.687 32.6587 159.975 32.84C160.274 33.0213 160.514 33.2613 160.695 33.56C160.887 33.8587 160.983 34.2427 160.983 34.712C160.983 35.4693 160.711 36.072 160.167 36.52C159.623 36.9573 158.882 37.176 157.943 37.176ZM165.053 37.176C164.615 37.176 164.183 37.1173 163.757 37C163.341 36.8827 162.957 36.7227 162.605 36.52C162.253 36.3067 161.949 36.0507 161.693 35.752L162.941 34.488C163.207 34.7867 163.517 35.0107 163.869 35.16C164.221 35.3093 164.61 35.384 165.037 35.384C165.378 35.384 165.634 35.336 165.805 35.24C165.986 35.144 166.077 35 166.077 34.808C166.077 34.5947 165.981 34.4293 165.789 34.312C165.607 34.1947 165.367 34.0987 165.069 34.024C164.77 33.9387 164.455 33.848 164.125 33.752C163.805 33.6453 163.495 33.512 163.197 33.352C162.898 33.1813 162.653 32.952 162.461 32.664C162.279 32.3653 162.189 31.9813 162.189 31.512C162.189 31.0213 162.306 30.5947 162.541 30.232C162.786 29.8693 163.133 29.5867 163.581 29.384C164.029 29.1813 164.557 29.08 165.165 29.08C165.805 29.08 166.381 29.192 166.893 29.416C167.415 29.64 167.847 29.976 168.189 30.424L166.925 31.688C166.69 31.4 166.423 31.192 166.125 31.064C165.837 30.936 165.522 30.872 165.181 30.872C164.871 30.872 164.631 30.92 164.461 31.016C164.301 31.112 164.221 31.2453 164.221 31.416C164.221 31.608 164.311 31.7573 164.493 31.864C164.685 31.9707 164.93 32.0667 165.229 32.152C165.527 32.2267 165.837 32.3173 166.157 32.424C166.487 32.52 166.797 32.6587 167.085 32.84C167.383 33.0213 167.623 33.2613 167.805 33.56C167.997 33.8587 168.093 34.2427 168.093 34.712C168.093 35.4693 167.821 36.072 167.277 36.52C166.733 36.9573 165.991 37.176 165.053 37.176ZM175.063 37.064L171.831 29.272H174.103L176.247 35.224H175.479L177.703 29.272H179.991L176.551 37.048L175.063 37.064ZM172.919 40.232L175.271 35.256L176.551 37.048L175.143 40.232H172.919ZM184.341 37.16C183.563 37.16 182.859 36.984 182.229 36.632C181.611 36.2693 181.115 35.784 180.741 35.176C180.379 34.5573 180.197 33.8693 180.197 33.112C180.197 32.3547 180.379 31.6773 180.741 31.08C181.104 30.472 181.6 29.992 182.229 29.64C182.859 29.2773 183.557 29.096 184.325 29.096C185.115 29.096 185.819 29.2773 186.437 29.64C187.067 29.992 187.563 30.472 187.925 31.08C188.288 31.6773 188.469 32.3547 188.469 33.112C188.469 33.8693 188.288 34.5573 187.925 35.176C187.563 35.784 187.067 36.2693 186.437 36.632C185.819 36.984 185.12 37.16 184.341 37.16ZM184.325 35.208C184.72 35.208 185.067 35.1227 185.365 34.952C185.675 34.7707 185.909 34.5253 186.069 34.216C186.24 33.896 186.325 33.5333 186.325 33.128C186.325 32.7227 186.24 32.3653 186.069 32.056C185.899 31.7467 185.664 31.5067 185.365 31.336C185.067 31.1547 184.72 31.064 184.325 31.064C183.941 31.064 183.6 31.1547 183.301 31.336C183.003 31.5067 182.768 31.7467 182.597 32.056C182.427 32.3653 182.341 32.7227 182.341 33.128C182.341 33.5333 182.427 33.896 182.597 34.216C182.768 34.5253 183.003 34.7707 183.301 34.952C183.6 35.1227 183.941 35.208 184.325 35.208ZM193.115 37.16C192.432 37.16 191.824 37.016 191.291 36.728C190.768 36.44 190.357 36.04 190.059 35.528C189.76 35.016 189.611 34.424 189.611 33.752V29.272H191.723V33.704C191.723 34.024 191.776 34.3013 191.883 34.536C191.989 34.76 192.149 34.9307 192.363 35.048C192.576 35.1653 192.827 35.224 193.115 35.224C193.552 35.224 193.893 35.0907 194.139 34.824C194.384 34.5573 194.507 34.184 194.507 33.704V29.272L196.603 29.272V33.752C196.603 34.4347 196.453 35.032 196.155 35.544C195.867 36.056 195.456 36.456 194.923 36.744C194.4 37.0213 193.797 37.16 193.115 37.16ZM198.272 37V29.272H200.368V37H198.272ZM200.368 32.728L199.552 32.184C199.648 31.2347 199.925 30.488 200.384 29.944C200.842 29.3893 201.504 29.112 202.368 29.112C202.741 29.112 203.077 29.176 203.376 29.304C203.674 29.4213 203.946 29.6187 204.192 29.896L202.88 31.4C202.762 31.272 202.618 31.176 202.448 31.112C202.288 31.048 202.101 31.016 201.888 31.016C201.44 31.016 201.072 31.16 200.784 31.448C200.506 31.7253 200.368 32.152 200.368 32.728ZM208.558 37V25.752L210.078 25.752L210.734 27.928V37H208.558ZM216.334 37L209.662 28.36L210.078 25.752L216.75 34.392L216.334 37ZM216.334 37L215.71 34.888V25.752H217.902V37H216.334ZM223.655 37.16C222.845 37.16 222.125 36.9893 221.495 36.648C220.866 36.296 220.365 35.816 219.991 35.208C219.629 34.6 219.447 33.9067 219.447 33.128C219.447 32.36 219.623 31.6773 219.975 31.08C220.338 30.472 220.829 29.992 221.447 29.64C222.066 29.2773 222.754 29.096 223.511 29.096C224.258 29.096 224.914 29.2667 225.479 29.608C226.055 29.9387 226.503 30.3973 226.823 30.984C227.154 31.56 227.319 32.216 227.319 32.952C227.319 33.0907 227.309 33.2347 227.287 33.384C227.277 33.5227 227.25 33.6827 227.207 33.864L220.711 33.88V32.312L226.231 32.296L225.383 32.952C225.362 32.4933 225.277 32.1093 225.127 31.8C224.989 31.4907 224.781 31.256 224.503 31.096C224.237 30.9253 223.906 30.84 223.511 30.84C223.095 30.84 222.733 30.936 222.423 31.128C222.114 31.3093 221.874 31.5707 221.703 31.912C221.543 32.2427 221.463 32.6373 221.463 33.096C221.463 33.5653 221.549 33.976 221.719 34.328C221.901 34.6693 222.157 34.936 222.487 35.128C222.818 35.3093 223.202 35.4 223.639 35.4C224.034 35.4 224.391 35.336 224.711 35.208C225.031 35.0693 225.309 34.8667 225.543 34.6L226.775 35.832C226.402 36.2693 225.943 36.6 225.399 36.824C224.866 37.048 224.285 37.16 223.655 37.16ZM232.312 37.16C231.501 37.16 230.781 36.9893 230.152 36.648C229.522 36.296 229.021 35.816 228.648 35.208C228.285 34.6 228.104 33.9067 228.104 33.128C228.104 32.36 228.28 31.6773 228.632 31.08C228.994 30.472 229.485 29.992 230.104 29.64C230.722 29.2773 231.41 29.096 232.168 29.096C232.914 29.096 233.57 29.2667 234.136 29.608C234.712 29.9387 235.16 30.3973 235.48 30.984C235.81 31.56 235.976 32.216 235.976 32.952C235.976 33.0907 235.965 33.2347 235.944 33.384C235.933 33.5227 235.906 33.6827 235.864 33.864L229.368 33.88V32.312L234.888 32.296L234.04 32.952C234.018 32.4933 233.933 32.1093 233.784 31.8C233.645 31.4907 233.437 31.256 233.16 31.096C232.893 30.9253 232.562 30.84 232.168 30.84C231.752 30.84 231.389 30.936 231.08 31.128C230.77 31.3093 230.53 31.5707 230.36 31.912C230.2 32.2427 230.12 32.6373 230.12 33.096C230.12 33.5653 230.205 33.976 230.376 34.328C230.557 34.6693 230.813 34.936 231.144 35.128C231.474 35.3093 231.858 35.4 232.296 35.4C232.69 35.4 233.048 35.336 233.368 35.208C233.688 35.0693 233.965 34.8667 234.2 34.6L235.432 35.832C235.058 36.2693 234.6 36.6 234.056 36.824C233.522 37.048 232.941 37.16 232.312 37.16ZM240.536 37.16C239.821 37.16 239.181 36.984 238.616 36.632C238.05 36.28 237.602 35.8 237.272 35.192C236.952 34.584 236.792 33.9013 236.792 33.144C236.792 32.376 236.952 31.688 237.272 31.08C237.602 30.472 238.045 29.992 238.6 29.64C239.165 29.288 239.81 29.112 240.536 29.112C241.09 29.112 241.586 29.224 242.024 29.448C242.472 29.672 242.829 29.9867 243.096 30.392C243.373 30.7867 243.522 31.2347 243.544 31.736V34.488C243.522 34.9893 243.378 35.4427 243.112 35.848C242.845 36.2533 242.488 36.5733 242.04 36.808C241.592 37.0427 241.09 37.16 240.536 37.16ZM240.888 35.224C241.282 35.224 241.624 35.1387 241.912 34.968C242.21 34.7867 242.44 34.5413 242.6 34.232C242.77 33.912 242.856 33.544 242.856 33.128C242.856 32.7227 242.77 32.3653 242.6 32.056C242.44 31.736 242.21 31.4907 241.912 31.32C241.624 31.1387 241.288 31.048 240.904 31.048C240.509 31.048 240.162 31.1387 239.864 31.32C239.576 31.5013 239.346 31.7467 239.176 32.056C239.016 32.3653 238.936 32.7227 238.936 33.128C238.936 33.544 239.016 33.912 239.176 34.232C239.346 34.5413 239.581 34.7867 239.88 34.968C240.178 35.1387 240.514 35.224 240.888 35.224ZM244.824 37H242.744V34.92L243.08 33.032L242.728 31.176V25.432H244.824V37Z" fill="white" fill-opacity="0.8"/>
<path d="M91.416 128.752L95.656 124.32C95.9547 124 96.1947 123.717 96.376 123.472C96.568 123.216 96.7067 122.976 96.792 122.752C96.8773 122.517 96.92 122.283 96.92 122.048C96.92 121.579 96.7653 121.211 96.456 120.944C96.1573 120.677 95.768 120.544 95.288 120.544C94.7973 120.544 94.36 120.672 93.976 120.928C93.6027 121.184 93.2507 121.589 92.92 122.144L91.432 120.88C91.88 120.123 92.4347 119.552 93.096 119.168C93.768 118.773 94.536 118.576 95.4 118.576C96.136 118.576 96.776 118.72 97.32 119.008C97.8747 119.296 98.3013 119.696 98.6 120.208C98.8987 120.72 99.048 121.317 99.048 122C99.048 122.459 98.9893 122.875 98.872 123.248C98.7653 123.621 98.5787 123.995 98.312 124.368C98.056 124.731 97.6987 125.141 97.24 125.6L94.152 128.752H91.416ZM91.416 130V128.752L93.272 128.112H99.288V130H91.416ZM102.212 130.16C101.828 130.16 101.513 130.032 101.268 129.776C101.022 129.52 100.9 129.205 100.9 128.832C100.9 128.459 101.022 128.144 101.268 127.888C101.513 127.632 101.828 127.504 102.212 127.504C102.585 127.504 102.894 127.632 103.14 127.888C103.385 128.144 103.508 128.459 103.508 128.832C103.508 129.205 103.385 129.52 103.14 129.776C102.894 130.032 102.585 130.16 102.212 130.16ZM110.328 130V128.064H113.192C113.917 128.064 114.552 127.915 115.096 127.616C115.64 127.307 116.061 126.875 116.36 126.32C116.669 125.765 116.824 125.109 116.824 124.352C116.824 123.616 116.669 122.976 116.36 122.432C116.05 121.877 115.624 121.451 115.08 121.152C114.536 120.843 113.906 120.688 113.192 120.688H110.28V118.752H113.224C114.056 118.752 114.824 118.891 115.528 119.168C116.242 119.445 116.861 119.84 117.384 120.352C117.917 120.853 118.328 121.445 118.616 122.128C118.914 122.811 119.064 123.557 119.064 124.368C119.064 125.179 118.914 125.931 118.616 126.624C118.328 127.307 117.922 127.904 117.4 128.416C116.877 128.917 116.258 129.307 115.544 129.584C114.84 129.861 114.077 130 113.256 130H110.328ZM108.84 130V118.752H111.016V130H108.84ZM124.265 130.16C123.454 130.16 122.734 129.989 122.105 129.648C121.475 129.296 120.974 128.816 120.601 128.208C120.238 127.6 120.057 126.907 120.057 126.128C120.057 125.36 120.233 124.677 120.585 124.08C120.947 123.472 121.438 122.992 122.057 122.64C122.675 122.277 123.363 122.096 124.121 122.096C124.867 122.096 125.523 122.267 126.089 122.608C126.665 122.939 127.113 123.397 127.433 123.984C127.763 124.56 127.929 125.216 127.929 125.952C127.929 126.091 127.918 126.235 127.897 126.384C127.886 126.523 127.859 126.683 127.817 126.864L121.321 126.88V125.312L126.841 125.296L125.993 125.952C125.971 125.493 125.886 125.109 125.737 124.8C125.598 124.491 125.39 124.256 125.113 124.096C124.846 123.925 124.515 123.84 124.121 123.84C123.705 123.84 123.342 123.936 123.033 124.128C122.723 124.309 122.483 124.571 122.313 124.912C122.153 125.243 122.073 125.637 122.073 126.096C122.073 126.565 122.158 126.976 122.329 127.328C122.51 127.669 122.766 127.936 123.097 128.128C123.427 128.309 123.811 128.4 124.249 128.4C124.643 128.4 125.001 128.336 125.321 128.208C125.641 128.069 125.918 127.867 126.153 127.6L127.385 128.832C127.011 129.269 126.553 129.6 126.009 129.824C125.475 130.048 124.894 130.16 124.265 130.16ZM130.077 130V121.2C130.077 120.645 130.2 120.149 130.445 119.712C130.69 119.264 131.032 118.912 131.469 118.656C131.917 118.389 132.445 118.256 133.053 118.256C133.437 118.256 133.778 118.315 134.077 118.432C134.386 118.549 134.68 118.72 134.957 118.944L133.757 120.416C133.661 120.341 133.554 120.288 133.437 120.256C133.33 120.213 133.202 120.192 133.053 120.192C132.776 120.192 132.557 120.277 132.397 120.448C132.248 120.608 132.173 120.832 132.173 121.12V130H130.077ZM128.285 124.112V122.272H135.949V124.112H128.285ZM134.941 130V122.272H137.037V130H134.941ZM135.981 121.648C135.65 121.648 135.373 121.536 135.149 121.312C134.936 121.088 134.829 120.811 134.829 120.48C134.829 120.149 134.936 119.872 135.149 119.648C135.373 119.424 135.65 119.312 135.981 119.312C136.322 119.312 136.6 119.424 136.813 119.648C137.026 119.872 137.133 120.149 137.133 120.48C137.133 120.811 137.026 121.088 136.813 121.312C136.6 121.536 136.322 121.648 135.981 121.648ZM144.097 130V125.568C144.097 125.109 143.953 124.736 143.665 124.448C143.377 124.16 143.003 124.016 142.545 124.016C142.246 124.016 141.979 124.08 141.745 124.208C141.51 124.336 141.323 124.517 141.185 124.752C141.057 124.987 140.993 125.259 140.993 125.568L140.177 125.152C140.177 124.544 140.305 124.016 140.561 123.568C140.827 123.109 141.19 122.752 141.649 122.496C142.118 122.24 142.646 122.112 143.233 122.112C143.798 122.112 144.305 122.256 144.753 122.544C145.201 122.821 145.553 123.189 145.809 123.648C146.065 124.096 146.193 124.581 146.193 125.104V130H144.097ZM138.897 130V122.272L140.993 122.272V130H138.897ZM151.577 130.16C150.766 130.16 150.046 129.989 149.417 129.648C148.788 129.296 148.286 128.816 147.913 128.208C147.55 127.6 147.369 126.907 147.369 126.128C147.369 125.36 147.545 124.677 147.897 124.08C148.26 123.472 148.75 122.992 149.369 122.64C149.988 122.277 150.676 122.096 151.433 122.096C152.18 122.096 152.836 122.267 153.401 122.608C153.977 122.939 154.425 123.397 154.745 123.984C155.076 124.56 155.241 125.216 155.241 125.952C155.241 126.091 155.23 126.235 155.209 126.384C155.198 126.523 155.172 126.683 155.129 126.864L148.633 126.88V125.312L154.153 125.296L153.305 125.952C153.284 125.493 153.198 125.109 153.049 124.8C152.91 124.491 152.702 124.256 152.425 124.096C152.158 123.925 151.828 123.84 151.433 123.84C151.017 123.84 150.654 123.936 150.345 124.128C150.036 124.309 149.796 124.571 149.625 124.912C149.465 125.243 149.385 125.637 149.385 126.096C149.385 126.565 149.47 126.976 149.641 127.328C149.822 127.669 150.078 127.936 150.409 128.128C150.74 128.309 151.124 128.4 151.561 128.4C151.956 128.4 152.313 128.336 152.633 128.208C152.953 128.069 153.23 127.867 153.465 127.6L154.697 128.832C154.324 129.269 153.865 129.6 153.321 129.824C152.788 130.048 152.206 130.16 151.577 130.16ZM161.486 125.296V123.6H164.094C164.628 123.6 165.038 123.467 165.326 123.2C165.625 122.923 165.774 122.544 165.774 122.064C165.774 121.627 165.625 121.264 165.326 120.976C165.038 120.677 164.628 120.528 164.094 120.528H161.486V118.752H164.286C165.012 118.752 165.646 118.896 166.19 119.184C166.745 119.461 167.172 119.845 167.47 120.336C167.78 120.827 167.934 121.392 167.934 122.032C167.934 122.693 167.78 123.269 167.47 123.76C167.172 124.24 166.745 124.619 166.19 124.896C165.636 125.163 164.99 125.296 164.254 125.296H161.486ZM159.886 130V118.752H162.062V130H159.886ZM166.03 130L162.318 125.136L164.318 124.512L168.67 130H166.03ZM173.155 130.16C172.345 130.16 171.625 129.989 170.995 129.648C170.366 129.296 169.865 128.816 169.491 128.208C169.129 127.6 168.947 126.907 168.947 126.128C168.947 125.36 169.123 124.677 169.475 124.08C169.838 123.472 170.329 122.992 170.947 122.64C171.566 122.277 172.254 122.096 173.011 122.096C173.758 122.096 174.414 122.267 174.979 122.608C175.555 122.939 176.003 123.397 176.323 123.984C176.654 124.56 176.819 125.216 176.819 125.952C176.819 126.091 176.809 126.235 176.787 126.384C176.777 126.523 176.75 126.683 176.707 126.864L170.211 126.88V125.312L175.731 125.296L174.883 125.952C174.862 125.493 174.777 125.109 174.627 124.8C174.489 124.491 174.281 124.256 174.003 124.096C173.737 123.925 173.406 123.84 173.011 123.84C172.595 123.84 172.233 123.936 171.923 124.128C171.614 124.309 171.374 124.571 171.203 124.912C171.043 125.243 170.963 125.637 170.963 126.096C170.963 126.565 171.049 126.976 171.219 127.328C171.401 127.669 171.657 127.936 171.987 128.128C172.318 128.309 172.702 128.4 173.139 128.4C173.534 128.4 173.891 128.336 174.211 128.208C174.531 128.069 174.809 127.867 175.043 127.6L176.275 128.832C175.902 129.269 175.443 129.6 174.899 129.824C174.366 130.048 173.785 130.16 173.155 130.16ZM180.772 130.176C180.334 130.176 179.902 130.117 179.476 130C179.06 129.883 178.676 129.723 178.324 129.52C177.972 129.307 177.668 129.051 177.412 128.752L178.66 127.488C178.926 127.787 179.236 128.011 179.588 128.16C179.94 128.309 180.329 128.384 180.756 128.384C181.097 128.384 181.353 128.336 181.524 128.24C181.705 128.144 181.796 128 181.796 127.808C181.796 127.595 181.7 127.429 181.508 127.312C181.326 127.195 181.086 127.099 180.788 127.024C180.489 126.939 180.174 126.848 179.844 126.752C179.524 126.645 179.214 126.512 178.916 126.352C178.617 126.181 178.372 125.952 178.18 125.664C177.998 125.365 177.908 124.981 177.908 124.512C177.908 124.021 178.025 123.595 178.26 123.232C178.505 122.869 178.852 122.587 179.299 122.384C179.748 122.181 180.276 122.08 180.884 122.08C181.524 122.08 182.1 122.192 182.612 122.416C183.134 122.64 183.566 122.976 183.908 123.424L182.644 124.688C182.409 124.4 182.142 124.192 181.844 124.064C181.556 123.936 181.241 123.872 180.9 123.872C180.59 123.872 180.35 123.92 180.18 124.016C180.02 124.112 179.94 124.245 179.94 124.416C179.94 124.608 180.03 124.757 180.212 124.864C180.404 124.971 180.649 125.067 180.948 125.152C181.246 125.227 181.556 125.317 181.876 125.424C182.206 125.52 182.516 125.659 182.804 125.84C183.102 126.021 183.342 126.261 183.524 126.56C183.716 126.859 183.812 127.243 183.812 127.712C183.812 128.469 183.54 129.072 182.996 129.52C182.452 129.957 181.71 130.176 180.772 130.176ZM188.857 130.16C188.078 130.16 187.374 129.984 186.745 129.632C186.126 129.269 185.63 128.784 185.257 128.176C184.894 127.557 184.713 126.869 184.713 126.112C184.713 125.355 184.894 124.677 185.257 124.08C185.62 123.472 186.116 122.992 186.745 122.64C187.374 122.277 188.073 122.096 188.841 122.096C189.63 122.096 190.334 122.277 190.953 122.64C191.582 122.992 192.078 123.472 192.441 124.08C192.804 124.677 192.985 125.355 192.985 126.112C192.985 126.869 192.804 127.557 192.441 128.176C192.078 128.784 191.582 129.269 190.953 129.632C190.334 129.984 189.636 130.16 188.857 130.16ZM188.841 128.208C189.236 128.208 189.582 128.123 189.881 127.952C190.19 127.771 190.425 127.525 190.585 127.216C190.756 126.896 190.841 126.533 190.841 126.128C190.841 125.723 190.756 125.365 190.585 125.056C190.414 124.747 190.18 124.507 189.881 124.336C189.582 124.155 189.236 124.064 188.841 124.064C188.457 124.064 188.116 124.155 187.817 124.336C187.518 124.507 187.284 124.747 187.113 125.056C186.942 125.365 186.857 125.723 186.857 126.128C186.857 126.533 186.942 126.896 187.113 127.216C187.284 127.525 187.518 127.771 187.817 127.952C188.116 128.123 188.457 128.208 188.841 128.208ZM197.63 130.16C196.948 130.16 196.34 130.016 195.806 129.728C195.284 129.44 194.873 129.04 194.574 128.528C194.276 128.016 194.126 127.424 194.126 126.752V122.272H196.238V126.704C196.238 127.024 196.292 127.301 196.398 127.536C196.505 127.76 196.665 127.931 196.878 128.048C197.092 128.165 197.342 128.224 197.63 128.224C198.068 128.224 198.409 128.091 198.654 127.824C198.9 127.557 199.022 127.184 199.022 126.704V122.272H201.118V126.752C201.118 127.435 200.969 128.032 200.67 128.544C200.382 129.056 199.972 129.456 199.438 129.744C198.916 130.021 198.313 130.16 197.63 130.16ZM202.787 130V122.272H204.883V130H202.787ZM204.883 125.728L204.067 125.184C204.163 124.235 204.441 123.488 204.899 122.944C205.358 122.389 206.019 122.112 206.883 122.112C207.257 122.112 207.593 122.176 207.891 122.304C208.19 122.421 208.462 122.619 208.707 122.896L207.395 124.4C207.278 124.272 207.134 124.176 206.963 124.112C206.803 124.048 206.617 124.016 206.403 124.016C205.955 124.016 205.587 124.16 205.299 124.448C205.022 124.725 204.883 125.152 204.883 125.728ZM212.873 130.16C212.084 130.16 211.374 129.984 210.745 129.632C210.116 129.28 209.62 128.8 209.257 128.192C208.894 127.584 208.713 126.901 208.713 126.144C208.713 125.376 208.894 124.688 209.257 124.08C209.62 123.472 210.116 122.992 210.745 122.64C211.385 122.277 212.094 122.096 212.873 122.096C213.481 122.096 214.041 122.208 214.553 122.432C215.065 122.656 215.508 122.976 215.881 123.392L214.537 124.752C214.334 124.528 214.089 124.357 213.801 124.24C213.524 124.123 213.214 124.064 212.873 124.064C212.489 124.064 212.142 124.155 211.833 124.336C211.534 124.507 211.294 124.747 211.113 125.056C210.942 125.355 210.857 125.712 210.857 126.128C210.857 126.533 210.942 126.896 211.113 127.216C211.294 127.525 211.534 127.771 211.833 127.952C212.142 128.123 212.489 128.208 212.873 128.208C213.225 128.208 213.54 128.149 213.817 128.032C214.105 127.904 214.35 127.723 214.553 127.488L215.913 128.848C215.518 129.275 215.065 129.6 214.553 129.824C214.041 130.048 213.481 130.16 212.873 130.16ZM220.624 130.16C219.813 130.16 219.093 129.989 218.464 129.648C217.835 129.296 217.333 128.816 216.96 128.208C216.597 127.6 216.416 126.907 216.416 126.128C216.416 125.36 216.592 124.677 216.944 124.08C217.307 123.472 217.797 122.992 218.416 122.64C219.035 122.277 219.723 122.096 220.48 122.096C221.227 122.096 221.883 122.267 222.448 122.608C223.024 122.939 223.472 123.397 223.792 123.984C224.123 124.56 224.288 125.216 224.288 125.952C224.288 126.091 224.277 126.235 224.256 126.384C224.245 126.523 224.219 126.683 224.176 126.864L217.68 126.88V125.312L223.2 125.296L222.352 125.952C222.331 125.493 222.245 125.109 222.096 124.8C221.957 124.491 221.749 124.256 221.472 124.096C221.205 123.925 220.875 123.84 220.48 123.84C220.064 123.84 219.701 123.936 219.392 124.128C219.083 124.309 218.843 124.571 218.672 124.912C218.512 125.243 218.432 125.637 218.432 126.096C218.432 126.565 218.517 126.976 218.688 127.328C218.869 127.669 219.125 127.936 219.456 128.128C219.787 128.309 220.171 128.4 220.608 128.4C221.003 128.4 221.36 128.336 221.68 128.208C222 128.069 222.277 127.867 222.512 127.6L223.744 128.832C223.371 129.269 222.912 129.6 222.368 129.824C221.835 130.048 221.253 130.16 220.624 130.16ZM228.24 130.176C227.803 130.176 227.371 130.117 226.944 130C226.528 129.883 226.144 129.723 225.792 129.52C225.44 129.307 225.136 129.051 224.88 128.752L226.128 127.488C226.395 127.787 226.704 128.011 227.056 128.16C227.408 128.309 227.798 128.384 228.224 128.384C228.566 128.384 228.822 128.336 228.992 128.24C229.174 128.144 229.264 128 229.264 127.808C229.264 127.595 229.168 127.429 228.976 127.312C228.795 127.195 228.555 127.099 228.256 127.024C227.958 126.939 227.643 126.848 227.312 126.752C226.992 126.645 226.683 126.512 226.384 126.352C226.086 126.181 225.84 125.952 225.648 125.664C225.467 125.365 225.376 124.981 225.376 124.512C225.376 124.021 225.494 123.595 225.728 123.232C225.974 122.869 226.32 122.587 226.768 122.384C227.216 122.181 227.744 122.08 228.352 122.08C228.992 122.08 229.568 122.192 230.08 122.416C230.603 122.64 231.035 122.976 231.376 123.424L230.112 124.688C229.878 124.4 229.611 124.192 229.312 124.064C229.024 123.936 228.71 123.872 228.368 123.872C228.059 123.872 227.819 123.92 227.648 124.016C227.488 124.112 227.408 124.245 227.408 124.416C227.408 124.608 227.499 124.757 227.68 124.864C227.872 124.971 228.118 125.067 228.416 125.152C228.715 125.227 229.024 125.317 229.344 125.424C229.675 125.52 229.984 125.659 230.272 125.84C230.571 126.021 230.811 126.261 230.992 126.56C231.184 126.859 231.28 127.243 231.28 127.712C231.28 128.469 231.008 129.072 230.464 129.52C229.92 129.957 229.179 130.176 228.24 130.176Z" fill="white" fill-opacity="0.8"/>
<path d="M94.984 233.16C94.2267 233.16 93.5333 233.027 92.904 232.76C92.2747 232.483 91.7467 232.088 91.32 231.576L92.76 230.152C92.9733 230.472 93.2773 230.728 93.672 230.92C94.0667 231.112 94.4933 231.208 94.952 231.208C95.3787 231.208 95.7467 231.133 96.056 230.984C96.3653 230.824 96.6053 230.605 96.776 230.328C96.9573 230.04 97.048 229.709 97.048 229.336C97.048 228.941 96.9573 228.605 96.776 228.328C96.6053 228.051 96.3547 227.837 96.024 227.688C95.6933 227.539 95.2987 227.464 94.84 227.464C94.6373 227.464 94.4293 227.48 94.216 227.512C94.0027 227.533 93.8213 227.571 93.672 227.624L94.632 226.408C94.8987 226.323 95.16 226.253 95.416 226.2C95.6827 226.136 95.928 226.104 96.152 226.104C96.728 226.104 97.2453 226.243 97.704 226.52C98.1733 226.787 98.5413 227.171 98.808 227.672C99.0853 228.163 99.224 228.744 99.224 229.416C99.224 230.163 99.048 230.819 98.696 231.384C98.344 231.939 97.848 232.376 97.208 232.696C96.5787 233.005 95.8373 233.16 94.984 233.16ZM93.672 227.624V226.376L96.552 223.032L99.048 223L96.072 226.408L93.672 227.624ZM91.944 223.64V221.752H99.048V223L97.272 223.64H91.944ZM101.774 233.16C101.39 233.16 101.076 233.032 100.83 232.776C100.585 232.52 100.462 232.205 100.462 231.832C100.462 231.459 100.585 231.144 100.83 230.888C101.076 230.632 101.39 230.504 101.774 230.504C102.148 230.504 102.457 230.632 102.702 230.888C102.948 231.144 103.07 231.459 103.07 231.832C103.07 232.205 102.948 232.52 102.702 232.776C102.457 233.032 102.148 233.16 101.774 233.16ZM108.402 233V221.752H110.578V233H108.402ZM110.002 228.392V226.456H115.666V228.392H110.002ZM110.002 223.672V221.752H115.938V223.672H110.002ZM117.428 233V225.272H119.54V233H117.428ZM118.484 224.024C118.143 224.024 117.86 223.912 117.636 223.688C117.412 223.453 117.3 223.165 117.3 222.824C117.3 222.493 117.412 222.211 117.636 221.976C117.86 221.741 118.143 221.624 118.484 221.624C118.836 221.624 119.119 221.741 119.332 221.976C119.556 222.211 119.668 222.493 119.668 222.824C119.668 223.165 119.556 223.453 119.332 223.688C119.119 223.912 118.836 224.024 118.484 224.024ZM126.597 233V228.568C126.597 228.109 126.453 227.736 126.165 227.448C125.877 227.16 125.503 227.016 125.045 227.016C124.746 227.016 124.479 227.08 124.245 227.208C124.01 227.336 123.823 227.517 123.685 227.752C123.557 227.987 123.493 228.259 123.493 228.568L122.677 228.152C122.677 227.544 122.805 227.016 123.061 226.568C123.327 226.109 123.69 225.752 124.149 225.496C124.618 225.24 125.146 225.112 125.733 225.112C126.298 225.112 126.805 225.256 127.253 225.544C127.701 225.821 128.053 226.189 128.309 226.648C128.565 227.096 128.693 227.581 128.693 228.104V233H126.597ZM121.397 233V225.272H123.493V233H121.397ZM133.613 233.16C132.909 233.16 132.274 232.984 131.709 232.632C131.144 232.28 130.701 231.8 130.381 231.192C130.061 230.584 129.901 229.901 129.901 229.144C129.901 228.376 130.061 227.688 130.381 227.08C130.701 226.472 131.144 225.992 131.709 225.64C132.274 225.288 132.909 225.112 133.613 225.112C134.168 225.112 134.664 225.224 135.101 225.448C135.538 225.672 135.885 225.987 136.141 226.392C136.408 226.787 136.552 227.235 136.573 227.736V230.52C136.552 231.032 136.408 231.485 136.141 231.88C135.885 232.275 135.538 232.589 135.101 232.824C134.664 233.048 134.168 233.16 133.613 233.16ZM133.997 231.224C134.584 231.224 135.058 231.032 135.421 230.648C135.784 230.253 135.965 229.747 135.965 229.128C135.965 228.723 135.88 228.365 135.709 228.056C135.549 227.736 135.32 227.491 135.021 227.32C134.733 227.139 134.392 227.048 133.997 227.048C133.613 227.048 133.272 227.139 132.973 227.32C132.685 227.491 132.456 227.736 132.285 228.056C132.125 228.365 132.045 228.723 132.045 229.128C132.045 229.544 132.125 229.912 132.285 230.232C132.456 230.541 132.685 230.787 132.973 230.968C133.272 231.139 133.613 231.224 133.997 231.224ZM135.853 233V230.92L136.189 229.032L135.853 227.176V225.272H137.933V233H135.853ZM139.787 233V221.432H141.883V233H139.787ZM143.741 233V225.272H145.853V233H143.741ZM144.797 224.024C144.455 224.024 144.173 223.912 143.949 223.688C143.725 223.453 143.613 223.165 143.613 222.824C143.613 222.493 143.725 222.211 143.949 221.976C144.173 221.741 144.455 221.624 144.797 221.624C145.149 221.624 145.431 221.741 145.645 221.976C145.869 222.211 145.981 222.493 145.981 222.824C145.981 223.165 145.869 223.453 145.645 223.688C145.431 223.912 145.149 224.024 144.797 224.024ZM147.165 231.8L151.261 226.472H153.789L149.693 231.8H147.165ZM147.165 233V231.8L148.829 231.176H153.693V233H147.165ZM147.453 227.096V225.272H153.789V226.472L152.109 227.096H147.453ZM158.718 233.16C157.907 233.16 157.187 232.989 156.558 232.648C155.928 232.296 155.427 231.816 155.054 231.208C154.691 230.6 154.51 229.907 154.51 229.128C154.51 228.36 154.686 227.677 155.038 227.08C155.4 226.472 155.891 225.992 156.51 225.64C157.128 225.277 157.816 225.096 158.574 225.096C159.32 225.096 159.976 225.267 160.542 225.608C161.118 225.939 161.566 226.397 161.886 226.984C162.216 227.56 162.382 228.216 162.382 228.952C162.382 229.091 162.371 229.235 162.35 229.384C162.339 229.523 162.312 229.683 162.27 229.864L155.774 229.88V228.312L161.294 228.296L160.446 228.952C160.424 228.493 160.339 228.109 160.19 227.8C160.051 227.491 159.843 227.256 159.566 227.096C159.299 226.925 158.968 226.84 158.574 226.84C158.158 226.84 157.795 226.936 157.486 227.128C157.176 227.309 156.936 227.571 156.766 227.912C156.606 228.243 156.526 228.637 156.526 229.096C156.526 229.565 156.611 229.976 156.782 230.328C156.963 230.669 157.219 230.936 157.55 231.128C157.88 231.309 158.264 231.4 158.702 231.4C159.096 231.4 159.454 231.336 159.774 231.208C160.094 231.069 160.371 230.867 160.606 230.6L161.838 231.832C161.464 232.269 161.006 232.6 160.462 232.824C159.928 233.048 159.347 233.16 158.718 233.16ZM167.027 233V221.752H169.203V233H167.027ZM174.083 233V221.752H176.259V233H174.083ZM168.403 228.152V226.232H174.691V228.152H168.403ZM181.966 233.16C181.188 233.16 180.484 232.984 179.854 232.632C179.236 232.269 178.74 231.784 178.366 231.176C178.004 230.557 177.822 229.869 177.822 229.112C177.822 228.355 178.004 227.677 178.366 227.08C178.729 226.472 179.225 225.992 179.854 225.64C180.484 225.277 181.182 225.096 181.95 225.096C182.74 225.096 183.444 225.277 184.062 225.64C184.692 225.992 185.188 226.472 185.55 227.08C185.913 227.677 186.094 228.355 186.094 229.112C186.094 229.869 185.913 230.557 185.55 231.176C185.188 231.784 184.692 232.269 184.062 232.632C183.444 232.984 182.745 233.16 181.966 233.16ZM181.95 231.208C182.345 231.208 182.692 231.123 182.99 230.952C183.3 230.771 183.534 230.525 183.694 230.216C183.865 229.896 183.95 229.533 183.95 229.128C183.95 228.723 183.865 228.365 183.694 228.056C183.524 227.747 183.289 227.507 182.99 227.336C182.692 227.155 182.345 227.064 181.95 227.064C181.566 227.064 181.225 227.155 180.926 227.336C180.628 227.507 180.393 227.747 180.222 228.056C180.052 228.365 179.966 228.723 179.966 229.128C179.966 229.533 180.052 229.896 180.222 230.216C180.393 230.525 180.628 230.771 180.926 230.952C181.225 231.123 181.566 231.208 181.95 231.208ZM190.74 233.16C190.057 233.16 189.449 233.016 188.916 232.728C188.393 232.44 187.982 232.04 187.684 231.528C187.385 231.016 187.236 230.424 187.236 229.752V225.272H189.348V229.704C189.348 230.024 189.401 230.301 189.508 230.536C189.614 230.76 189.774 230.931 189.988 231.048C190.201 231.165 190.452 231.224 190.74 231.224C191.177 231.224 191.518 231.091 191.764 230.824C192.009 230.557 192.132 230.184 192.132 229.704V225.272H194.228V229.752C194.228 230.435 194.078 231.032 193.78 231.544C193.492 232.056 193.081 232.456 192.548 232.744C192.025 233.021 191.422 233.16 190.74 233.16ZM195.897 233V225.272H197.993V233H195.897ZM197.993 228.728L197.177 228.184C197.273 227.235 197.55 226.488 198.009 225.944C198.467 225.389 199.129 225.112 199.993 225.112C200.366 225.112 200.702 225.176 201.001 225.304C201.299 225.421 201.571 225.619 201.817 225.896L200.505 227.4C200.387 227.272 200.243 227.176 200.073 227.112C199.913 227.048 199.726 227.016 199.513 227.016C199.065 227.016 198.697 227.16 198.409 227.448C198.131 227.725 197.993 228.152 197.993 228.728ZM205.037 233.176C204.6 233.176 204.168 233.117 203.741 233C203.325 232.883 202.941 232.723 202.589 232.52C202.237 232.307 201.933 232.051 201.677 231.752L202.925 230.488C203.192 230.787 203.501 231.011 203.853 231.16C204.205 231.309 204.594 231.384 205.021 231.384C205.362 231.384 205.618 231.336 205.789 231.24C205.97 231.144 206.061 231 206.061 230.808C206.061 230.595 205.965 230.429 205.773 230.312C205.592 230.195 205.352 230.099 205.053 230.024C204.754 229.939 204.44 229.848 204.109 229.752C203.789 229.645 203.48 229.512 203.181 229.352C202.882 229.181 202.637 228.952 202.445 228.664C202.264 228.365 202.173 227.981 202.173 227.512C202.173 227.021 202.29 226.595 202.525 226.232C202.77 225.869 203.117 225.587 203.565 225.384C204.013 225.181 204.541 225.08 205.149 225.08C205.789 225.08 206.365 225.192 206.877 225.416C207.4 225.64 207.832 225.976 208.173 226.424L206.909 227.688C206.674 227.4 206.408 227.192 206.109 227.064C205.821 226.936 205.506 226.872 205.165 226.872C204.856 226.872 204.616 226.92 204.445 227.016C204.285 227.112 204.205 227.245 204.205 227.416C204.205 227.608 204.296 227.757 204.477 227.864C204.669 227.971 204.914 228.067 205.213 228.152C205.512 228.227 205.821 228.317 206.141 228.424C206.472 228.52 206.781 228.659 207.069 228.84C207.368 229.021 207.608 229.261 207.789 229.56C207.981 229.859 208.077 230.243 208.077 230.712C208.077 231.469 207.805 232.072 207.261 232.52C206.717 232.957 205.976 233.176 205.037 233.176ZM214.44 233V231.224H217.368C217.89 231.224 218.296 231.064 218.584 230.744C218.882 230.424 219.032 230.045 219.032 229.608C219.032 229.309 218.968 229.037 218.84 228.792C218.712 228.547 218.52 228.355 218.264 228.216C218.018 228.067 217.72 227.992 217.368 227.992H214.44V226.232H217.128C217.576 226.232 217.933 226.12 218.2 225.896C218.477 225.672 218.616 225.336 218.616 224.888C218.616 224.429 218.477 224.088 218.2 223.864C217.933 223.64 217.576 223.528 217.128 223.528H214.44V221.752H217.384C218.13 221.752 218.754 221.891 219.256 222.168C219.768 222.435 220.152 222.792 220.408 223.24C220.664 223.677 220.792 224.157 220.792 224.68C220.792 225.32 220.594 225.875 220.2 226.344C219.816 226.803 219.25 227.144 218.504 227.368L218.6 226.664C219.432 226.899 220.072 227.288 220.52 227.832C220.978 228.365 221.208 229.011 221.208 229.768C221.208 230.365 221.058 230.909 220.76 231.4C220.472 231.88 220.045 232.269 219.48 232.568C218.925 232.856 218.248 233 217.448 233H214.44ZM212.84 233V221.752H215V233H212.84ZM226.005 233.16C225.323 233.16 224.715 233.016 224.181 232.728C223.659 232.44 223.248 232.04 222.949 231.528C222.651 231.016 222.501 230.424 222.501 229.752V225.272H224.613V229.704C224.613 230.024 224.667 230.301 224.773 230.536C224.88 230.76 225.04 230.931 225.253 231.048C225.467 231.165 225.717 231.224 226.005 231.224C226.443 231.224 226.784 231.091 227.029 230.824C227.275 230.557 227.397 230.184 227.397 229.704V225.272H229.493V229.752C229.493 230.435 229.344 231.032 229.045 231.544C228.757 232.056 228.347 232.456 227.813 232.744C227.291 233.021 226.688 233.16 226.005 233.16ZM234.81 233.16C234.021 233.16 233.312 232.984 232.682 232.632C232.053 232.28 231.557 231.8 231.194 231.192C230.832 230.584 230.65 229.901 230.65 229.144C230.65 228.376 230.832 227.688 231.194 227.08C231.557 226.472 232.053 225.992 232.682 225.64C233.322 225.277 234.032 225.096 234.81 225.096C235.418 225.096 235.978 225.208 236.49 225.432C237.002 225.656 237.445 225.976 237.818 226.392L236.474 227.752C236.272 227.528 236.026 227.357 235.738 227.24C235.461 227.123 235.152 227.064 234.81 227.064C234.426 227.064 234.08 227.155 233.77 227.336C233.472 227.507 233.232 227.747 233.05 228.056C232.88 228.355 232.794 228.712 232.794 229.128C232.794 229.533 232.88 229.896 233.05 230.216C233.232 230.525 233.472 230.771 233.77 230.952C234.08 231.123 234.426 231.208 234.81 231.208C235.162 231.208 235.477 231.149 235.754 231.032C236.042 230.904 236.288 230.723 236.49 230.488L237.85 231.848C237.456 232.275 237.002 232.6 236.49 232.824C235.978 233.048 235.418 233.16 234.81 233.16ZM243.965 233L240.973 229.016L243.949 225.272H246.365L242.877 229.496L242.957 228.472L246.525 233H243.965ZM239.037 233V221.432H241.133V233H239.037ZM250.827 233.16C250.016 233.16 249.296 232.989 248.667 232.648C248.038 232.296 247.536 231.816 247.163 231.208C246.8 230.6 246.619 229.907 246.619 229.128C246.619 228.36 246.795 227.677 247.147 227.08C247.51 226.472 248 225.992 248.619 225.64C249.238 225.277 249.926 225.096 250.683 225.096C251.43 225.096 252.086 225.267 252.651 225.608C253.227 225.939 253.675 226.397 253.995 226.984C254.326 227.56 254.491 228.216 254.491 228.952C254.491 229.091 254.48 229.235 254.459 229.384C254.448 229.523 254.422 229.683 254.379 229.864L247.883 229.88V228.312L253.403 228.296L252.555 228.952C252.534 228.493 252.448 228.109 252.299 227.8C252.16 227.491 251.952 227.256 251.675 227.096C251.408 226.925 251.078 226.84 250.683 226.84C250.267 226.84 249.904 226.936 249.595 227.128C249.286 227.309 249.046 227.571 248.875 227.912C248.715 228.243 248.635 228.637 248.635 229.096C248.635 229.565 248.72 229.976 248.891 230.328C249.072 230.669 249.328 230.936 249.659 231.128C249.99 231.309 250.374 231.4 250.811 231.4C251.206 231.4 251.563 231.336 251.883 231.208C252.203 231.069 252.48 230.867 252.715 230.6L253.947 231.832C253.574 232.269 253.115 232.6 252.571 232.824C252.038 233.048 251.456 233.16 250.827 233.16ZM256.752 233V222.056H258.848V233H256.752ZM254.944 227.112V225.272H260.656V227.112H254.944Z" fill="white" fill-opacity="0.8"/>
<path d="M91.4 332.032L95.24 324.752H97.64L93.704 332.032H91.4ZM91.4 333.312V332.032L92.2 331.408H100.264V333.312H91.4ZM96.712 336V328.832H98.856V336H96.712ZM102.524 336.16C102.14 336.16 101.826 336.032 101.58 335.776C101.335 335.52 101.212 335.205 101.212 334.832C101.212 334.459 101.335 334.144 101.58 333.888C101.826 333.632 102.14 333.504 102.524 333.504C102.898 333.504 103.207 333.632 103.452 333.888C103.698 334.144 103.82 334.459 103.82 334.832C103.82 335.205 103.698 335.52 103.452 335.776C103.207 336.032 102.898 336.16 102.524 336.16ZM112.416 336.16C111.509 336.16 110.731 336.005 110.08 335.696C109.44 335.387 108.859 334.923 108.336 334.304L109.776 332.864C110.107 333.301 110.491 333.643 110.928 333.888C111.365 334.123 111.899 334.24 112.528 334.24C113.093 334.24 113.541 334.128 113.872 333.904C114.213 333.68 114.384 333.371 114.384 332.976C114.384 332.635 114.288 332.357 114.096 332.144C113.904 331.931 113.648 331.749 113.328 331.6C113.019 331.451 112.672 331.317 112.288 331.2C111.915 331.072 111.536 330.928 111.152 330.768C110.779 330.608 110.432 330.411 110.112 330.176C109.803 329.931 109.552 329.621 109.36 329.248C109.168 328.864 109.072 328.384 109.072 327.808C109.072 327.125 109.237 326.544 109.568 326.064C109.899 325.584 110.352 325.216 110.928 324.96C111.504 324.704 112.155 324.576 112.88 324.576C113.648 324.576 114.341 324.72 114.96 325.008C115.579 325.296 116.085 325.669 116.48 326.128L115.04 327.568C114.709 327.205 114.368 326.939 114.016 326.768C113.675 326.597 113.285 326.512 112.848 326.512C112.347 326.512 111.952 326.608 111.664 326.8C111.376 326.992 111.232 327.269 111.232 327.632C111.232 327.941 111.328 328.192 111.52 328.384C111.712 328.576 111.963 328.741 112.272 328.88C112.592 329.019 112.939 329.152 113.312 329.28C113.696 329.408 114.075 329.552 114.448 329.712C114.832 329.872 115.179 330.08 115.488 330.336C115.808 330.592 116.064 330.923 116.256 331.328C116.448 331.723 116.544 332.213 116.544 332.8C116.544 333.845 116.176 334.667 115.44 335.264C114.704 335.861 113.696 336.16 112.416 336.16ZM118.037 336V328.272H120.149V336H118.037ZM119.093 327.024C118.752 327.024 118.469 326.912 118.245 326.688C118.021 326.453 117.909 326.165 117.909 325.824C117.909 325.493 118.021 325.211 118.245 324.976C118.469 324.741 118.752 324.624 119.093 324.624C119.445 324.624 119.728 324.741 119.941 324.976C120.165 325.211 120.277 325.493 120.277 325.824C120.277 326.165 120.165 326.453 119.941 326.688C119.728 326.912 119.445 327.024 119.093 327.024ZM125.238 339.424C124.417 339.424 123.691 339.275 123.062 338.976C122.433 338.688 121.931 338.277 121.558 337.744L122.886 336.416C123.185 336.768 123.515 337.035 123.878 337.216C124.251 337.408 124.699 337.504 125.222 337.504C125.873 337.504 126.385 337.339 126.758 337.008C127.142 336.677 127.334 336.219 127.334 335.632V333.696L127.686 332L127.35 330.304V328.272H129.43V335.6C129.43 336.368 129.249 337.035 128.886 337.6C128.534 338.176 128.043 338.624 127.414 338.944C126.785 339.264 126.059 339.424 125.238 339.424ZM125.142 335.792C124.449 335.792 123.825 335.627 123.27 335.296C122.715 334.955 122.278 334.491 121.958 333.904C121.649 333.317 121.494 332.661 121.494 331.936C121.494 331.211 121.649 330.56 121.958 329.984C122.278 329.408 122.715 328.955 123.27 328.624C123.825 328.283 124.449 328.112 125.142 328.112C125.718 328.112 126.225 328.224 126.662 328.448C127.11 328.672 127.462 328.981 127.718 329.376C127.974 329.76 128.113 330.213 128.134 330.736V333.168C128.113 333.68 127.969 334.139 127.702 334.544C127.446 334.939 127.094 335.248 126.646 335.472C126.209 335.685 125.707 335.792 125.142 335.792ZM125.558 333.888C125.942 333.888 126.273 333.808 126.55 333.648C126.838 333.477 127.062 333.248 127.222 332.96C127.382 332.661 127.462 332.325 127.462 331.952C127.462 331.568 127.382 331.232 127.222 330.944C127.062 330.656 126.838 330.432 126.55 330.272C126.273 330.101 125.942 330.016 125.558 330.016C125.174 330.016 124.838 330.101 124.55 330.272C124.262 330.432 124.038 330.661 123.878 330.96C123.718 331.248 123.638 331.579 123.638 331.952C123.638 332.315 123.718 332.645 123.878 332.944C124.038 333.232 124.262 333.461 124.55 333.632C124.838 333.803 125.174 333.888 125.558 333.888ZM136.472 336V331.568C136.472 331.109 136.328 330.736 136.04 330.448C135.752 330.16 135.378 330.016 134.92 330.016C134.621 330.016 134.354 330.08 134.12 330.208C133.885 330.336 133.698 330.517 133.56 330.752C133.432 330.987 133.368 331.259 133.368 331.568L132.552 331.152C132.552 330.544 132.68 330.016 132.936 329.568C133.202 329.109 133.565 328.752 134.024 328.496C134.493 328.24 135.021 328.112 135.608 328.112C136.173 328.112 136.68 328.256 137.128 328.544C137.576 328.821 137.928 329.189 138.184 329.648C138.44 330.096 138.568 330.581 138.568 331.104V336H136.472ZM131.272 336V328.272H133.368V336H131.272ZM144.517 336V325.056H146.613V336H144.517ZM142.709 330.112V328.272H148.421V330.112H142.709ZM154.8 336V331.568C154.8 331.109 154.656 330.736 154.368 330.448C154.08 330.16 153.707 330.016 153.248 330.016C152.949 330.016 152.683 330.08 152.448 330.208C152.213 330.336 152.027 330.517 151.888 330.752C151.76 330.987 151.696 331.259 151.696 331.568L150.88 331.152C150.88 330.544 151.008 330.016 151.264 329.568C151.52 329.109 151.872 328.752 152.32 328.496C152.779 328.24 153.301 328.112 153.888 328.112C154.475 328.112 154.992 328.24 155.44 328.496C155.899 328.752 156.256 329.104 156.512 329.552C156.768 330 156.896 330.517 156.896 331.104V336H154.8ZM149.6 336V324.432H151.696V336H149.6ZM162.28 336.16C161.47 336.16 160.75 335.989 160.12 335.648C159.491 335.296 158.99 334.816 158.616 334.208C158.254 333.6 158.072 332.907 158.072 332.128C158.072 331.36 158.248 330.677 158.6 330.08C158.963 329.472 159.454 328.992 160.072 328.64C160.691 328.277 161.379 328.096 162.136 328.096C162.883 328.096 163.539 328.267 164.104 328.608C164.68 328.939 165.128 329.397 165.448 329.984C165.779 330.56 165.944 331.216 165.944 331.952C165.944 332.091 165.934 332.235 165.912 332.384C165.902 332.523 165.875 332.683 165.832 332.864L159.336 332.88V331.312L164.856 331.296L164.008 331.952C163.987 331.493 163.902 331.109 163.752 330.8C163.614 330.491 163.406 330.256 163.128 330.096C162.862 329.925 162.531 329.84 162.136 329.84C161.72 329.84 161.358 329.936 161.048 330.128C160.739 330.309 160.499 330.571 160.328 330.912C160.168 331.243 160.088 331.637 160.088 332.096C160.088 332.565 160.174 332.976 160.344 333.328C160.526 333.669 160.782 333.936 161.112 334.128C161.443 334.309 161.827 334.4 162.264 334.4C162.659 334.4 163.016 334.336 163.336 334.208C163.656 334.069 163.934 333.867 164.168 333.6L165.4 334.832C165.027 335.269 164.568 335.6 164.024 335.824C163.491 336.048 162.91 336.16 162.28 336.16ZM175.806 336.16C174.984 336.16 174.222 336.016 173.518 335.728C172.814 335.429 172.195 335.019 171.662 334.496C171.139 333.963 170.734 333.344 170.446 332.64C170.168 331.936 170.03 331.179 170.03 330.368C170.03 329.557 170.168 328.8 170.446 328.096C170.734 327.392 171.139 326.779 171.662 326.256C172.195 325.733 172.808 325.323 173.502 325.024C174.206 324.725 174.974 324.576 175.806 324.576C176.702 324.576 177.491 324.725 178.174 325.024C178.856 325.312 179.459 325.712 179.982 326.224L178.51 327.696C178.2 327.355 177.822 327.088 177.374 326.896C176.926 326.704 176.403 326.608 175.806 326.608C175.283 326.608 174.803 326.699 174.366 326.88C173.939 327.051 173.566 327.307 173.246 327.648C172.926 327.979 172.68 328.379 172.51 328.848C172.339 329.307 172.254 329.813 172.254 330.368C172.254 330.933 172.339 331.445 172.51 331.904C172.68 332.363 172.926 332.763 173.246 333.104C173.566 333.435 173.939 333.691 174.366 333.872C174.803 334.053 175.283 334.144 175.806 334.144C176.435 334.144 176.974 334.048 177.422 333.856C177.88 333.664 178.264 333.392 178.574 333.04L180.046 334.512C179.523 335.035 178.915 335.44 178.222 335.728C177.528 336.016 176.723 336.16 175.806 336.16ZM184.779 336.16C184 336.16 183.296 335.984 182.667 335.632C182.048 335.269 181.552 334.784 181.179 334.176C180.816 333.557 180.635 332.869 180.635 332.112C180.635 331.355 180.816 330.677 181.179 330.08C181.541 329.472 182.037 328.992 182.667 328.64C183.296 328.277 183.995 328.096 184.763 328.096C185.552 328.096 186.256 328.277 186.875 328.64C187.504 328.992 188 329.472 188.363 330.08C188.725 330.677 188.907 331.355 188.907 332.112C188.907 332.869 188.725 333.557 188.363 334.176C188 334.784 187.504 335.269 186.875 335.632C186.256 335.984 185.557 336.16 184.779 336.16ZM184.763 334.208C185.157 334.208 185.504 334.123 185.803 333.952C186.112 333.771 186.347 333.525 186.507 333.216C186.677 332.896 186.763 332.533 186.763 332.128C186.763 331.723 186.677 331.365 186.507 331.056C186.336 330.747 186.101 330.507 185.803 330.336C185.504 330.155 185.157 330.064 184.763 330.064C184.379 330.064 184.037 330.155 183.739 330.336C183.44 330.507 183.205 330.747 183.035 331.056C182.864 331.365 182.779 331.723 182.779 332.128C182.779 332.533 182.864 332.896 183.035 333.216C183.205 333.525 183.44 333.771 183.739 333.952C184.037 334.123 184.379 334.208 184.763 334.208ZM195.456 336V331.568C195.456 331.109 195.312 330.736 195.024 330.448C194.736 330.16 194.363 330.016 193.904 330.016C193.605 330.016 193.339 330.08 193.104 330.208C192.869 330.336 192.683 330.517 192.544 330.752C192.416 330.987 192.352 331.259 192.352 331.568L191.536 331.152C191.536 330.544 191.664 330.016 191.92 329.568C192.187 329.109 192.549 328.752 193.008 328.496C193.477 328.24 194.005 328.112 194.592 328.112C195.157 328.112 195.664 328.256 196.112 328.544C196.56 328.821 196.912 329.189 197.168 329.648C197.424 330.096 197.552 330.581 197.552 331.104V336H195.456ZM190.256 336V328.272H192.352V336H190.256ZM200.283 336V325.056H202.379V336H200.283ZM198.475 330.112V328.272H204.187V330.112H198.475ZM205.366 336V328.272H207.462V336H205.366ZM207.462 331.728L206.646 331.184C206.742 330.235 207.019 329.488 207.478 328.944C207.936 328.389 208.598 328.112 209.462 328.112C209.835 328.112 210.171 328.176 210.47 328.304C210.768 328.421 211.04 328.619 211.286 328.896L209.974 330.4C209.856 330.272 209.712 330.176 209.542 330.112C209.382 330.048 209.195 330.016 208.982 330.016C208.534 330.016 208.166 330.16 207.878 330.448C207.6 330.725 207.462 331.152 207.462 331.728ZM215.035 336.16C214.331 336.16 213.696 335.984 213.131 335.632C212.566 335.28 212.123 334.8 211.803 334.192C211.483 333.584 211.323 332.901 211.323 332.144C211.323 331.376 211.483 330.688 211.803 330.08C212.123 329.472 212.566 328.992 213.131 328.64C213.696 328.288 214.331 328.112 215.035 328.112C215.59 328.112 216.086 328.224 216.523 328.448C216.96 328.672 217.307 328.987 217.563 329.392C217.83 329.787 217.974 330.235 217.995 330.736V333.52C217.974 334.032 217.83 334.485 217.563 334.88C217.307 335.275 216.96 335.589 216.523 335.824C216.086 336.048 215.59 336.16 215.035 336.16ZM215.419 334.224C216.006 334.224 216.48 334.032 216.843 333.648C217.206 333.253 217.387 332.747 217.387 332.128C217.387 331.723 217.302 331.365 217.131 331.056C216.971 330.736 216.742 330.491 216.443 330.32C216.155 330.139 215.814 330.048 215.419 330.048C215.035 330.048 214.694 330.139 214.395 330.32C214.107 330.491 213.878 330.736 213.707 331.056C213.547 331.365 213.467 331.723 213.467 332.128C213.467 332.544 213.547 332.912 213.707 333.232C213.878 333.541 214.107 333.787 214.395 333.968C214.694 334.139 215.035 334.224 215.419 334.224ZM217.275 336V333.92L217.611 332.032L217.275 330.176V328.272H219.355V336H217.275ZM224.857 336.16C224.068 336.16 223.359 335.984 222.729 335.632C222.1 335.28 221.604 334.8 221.241 334.192C220.879 333.584 220.697 332.901 220.697 332.144C220.697 331.376 220.879 330.688 221.241 330.08C221.604 329.472 222.1 328.992 222.729 328.64C223.369 328.277 224.079 328.096 224.857 328.096C225.465 328.096 226.025 328.208 226.537 328.432C227.049 328.656 227.492 328.976 227.865 329.392L226.521 330.752C226.319 330.528 226.073 330.357 225.785 330.24C225.508 330.123 225.199 330.064 224.857 330.064C224.473 330.064 224.127 330.155 223.817 330.336C223.519 330.507 223.279 330.747 223.097 331.056C222.927 331.355 222.841 331.712 222.841 332.128C222.841 332.533 222.927 332.896 223.097 333.216C223.279 333.525 223.519 333.771 223.817 333.952C224.127 334.123 224.473 334.208 224.857 334.208C225.209 334.208 225.524 334.149 225.801 334.032C226.089 333.904 226.335 333.723 226.537 333.488L227.897 334.848C227.503 335.275 227.049 335.6 226.537 335.824C226.025 336.048 225.465 336.16 224.857 336.16ZM230.095 336V325.056H232.191V336H230.095ZM228.287 330.112V328.272H233.999V330.112H228.287Z" fill="white" fill-opacity="0.8"/>
<circle cx="35" cy="35" r="35" fill="#2D2727"/>
<path d="M34 70L34 293" stroke="white" stroke-opacity="0.2" stroke-width="2" stroke-dasharray="4 4"/>
<circle cx="35" cy="229" r="35" fill="#2D2727"/>
<circle cx="35" cy="132" r="35" fill="#2D2727"/>
<circle cx="35" cy="326" r="35" fill="#2D2727"/>
<path fill-rule="evenodd" clip-rule="evenodd" d="M19.4227 309.061C19.3452 309.091 19.2184 309.182 19.1409 309.263C19.0008 309.41 19 309.504 19 326.021V342.631L19.1954 342.816L19.3906 343H33.1957H47.0007L47.196 342.816L47.3914 342.631V337.017V331.403L47.1977 331.22C46.9094 330.948 46.4972 330.962 46.2218 331.253L46.0176 331.469V336.586V341.704H33.1957H20.3738V326.016V310.327H29.0039H37.6341L37.6348 313.834C37.6352 315.763 37.6552 317.453 37.6792 317.589C37.7032 317.726 37.8023 317.913 37.8994 318.005L38.076 318.171H42.0468H46.0176V322.031C46.0176 324.743 46.041 325.935 46.0963 326.037C46.2233 326.271 46.4579 326.411 46.7221 326.411C46.9864 326.411 47.2209 326.271 47.3479 326.037C47.4034 325.934 47.4266 324.646 47.4266 321.662C47.4266 318.116 47.4103 317.405 47.3255 317.254C47.2033 317.037 38.8613 309.176 38.6426 309.071C38.4586 308.983 19.6493 308.973 19.4227 309.061ZM51.7084 309.114C51.5587 309.201 51.2573 309.744 50.3347 311.588L49.1526 313.95V327.949V341.947L49.3658 342.272C49.498 342.474 49.7102 342.674 49.9239 342.799L50.2688 343H52.0763H53.8839L54.2287 342.799C54.4425 342.674 54.6547 342.474 54.7868 342.272L55 341.947V327.949V313.95L53.8164 311.586C52.8519 309.66 52.5956 309.201 52.4317 309.11C52.1788 308.969 51.9537 308.97 51.7084 309.114ZM42.0724 314.083L44.9955 316.842H42.0544H39.1135V314.083C39.1135 312.566 39.1216 311.324 39.1315 311.324C39.1413 311.324 40.4647 312.566 42.0724 314.083ZM52.6599 312.405L53.1941 313.485L52.6352 313.504C52.3278 313.515 51.8248 313.515 51.5174 313.504L50.9586 313.485L51.4927 312.405C51.7865 311.811 52.0491 311.324 52.0763 311.324C52.1035 311.324 52.3662 311.811 52.6599 312.405ZM53.6262 326.248V337.649H52.0763H50.5264V326.248V314.848H52.0763H53.6262V326.248ZM24.4951 316.107C24.0466 316.28 23.9274 316.835 24.2692 317.158L24.4629 317.341L26.6629 317.36C27.873 317.371 28.9371 317.362 29.0275 317.341C29.118 317.319 29.2686 317.224 29.3622 317.129C29.6652 316.82 29.5513 316.321 29.1319 316.118C28.9503 316.031 24.7194 316.02 24.4951 316.107ZM31.2935 316.129C31.0284 316.253 30.8479 316.643 30.9446 316.883C31.117 317.311 31.5173 317.474 31.917 317.279C32.1768 317.152 32.2798 316.991 32.2798 316.709C32.2798 316.431 32.1772 316.266 31.929 316.145C31.6804 316.023 31.5265 316.02 31.2935 316.129ZM24.4951 320.096C24.0466 320.269 23.9274 320.824 24.2693 321.146L24.4631 321.329L33.16 321.346L41.857 321.364L42.0864 321.17C42.2764 321.01 42.3158 320.929 42.3158 320.698C42.3158 320.466 42.2764 320.385 42.0873 320.225L41.8588 320.033L33.2474 320.037C28.5111 320.039 24.5726 320.066 24.4951 320.096ZM24.4951 324.084C24.0466 324.257 23.9274 324.812 24.2693 325.135L24.4631 325.318L33.16 325.335L41.857 325.352L42.0864 325.159C42.2764 324.999 42.3158 324.918 42.3158 324.686C42.3158 324.455 42.2764 324.373 42.0873 324.214L41.8588 324.021L33.2474 324.025C28.5111 324.028 24.5726 324.054 24.4951 324.084ZM24.4951 328.073C24.0466 328.246 23.9274 328.801 24.2693 329.123L24.4631 329.306L33.16 329.323L41.857 329.341L42.0864 329.147C42.2764 328.987 42.3158 328.906 42.3158 328.675C42.3158 328.443 42.2764 328.362 42.0873 328.202L41.8588 328.01L33.2474 328.014C28.5111 328.016 24.5726 328.043 24.4951 328.073ZM46.4676 328.072C46.2443 328.161 46.0176 328.469 46.0176 328.682C46.0176 328.798 46.0978 328.957 46.2218 329.087C46.6456 329.535 47.3882 329.272 47.3882 328.675C47.3882 328.233 46.8872 327.905 46.4676 328.072ZM24.4951 332.061C24.0466 332.234 23.9274 332.789 24.2693 333.112L24.4631 333.295L33.16 333.312L41.857 333.329L42.0864 333.136C42.2764 332.976 42.3158 332.895 42.3158 332.663C42.3158 332.432 42.2764 332.35 42.0873 332.191L41.8588 331.998L33.2474 332.003C28.5111 332.005 24.5726 332.031 24.4951 332.061ZM24.4951 336.05C24.0466 336.223 23.9274 336.778 24.2693 337.1L24.4631 337.283L33.16 337.301L41.857 337.318L42.0864 337.125C42.2764 336.964 42.3158 336.883 42.3158 336.652C42.3158 336.42 42.2764 336.339 42.0873 336.179L41.8588 335.987L33.2474 335.991C28.5111 335.993 24.5726 336.02 24.4951 336.05ZM53.6262 340.261C53.6262 341.17 53.6016 341.567 53.5417 341.624C53.4223 341.737 50.7304 341.737 50.611 341.624C50.5511 341.567 50.5264 341.17 50.5264 340.261V338.978H52.0763H53.6262V340.261Z" fill="#E49B00"/>
<path fill-rule="evenodd" clip-rule="evenodd" d="M35.0432 20.0589C31.5211 20.4935 28.5576 23.4069 27.7585 27.2203C27.5664 28.1371 27.5231 28.8809 27.5231 31.2609C27.5231 33.7832 27.5421 33.9525 27.8798 34.4447C27.9812 34.5924 28.1938 34.7976 28.3523 34.9007L28.6406 35.0883L28.6645 35.6822C28.693 36.3887 28.8121 36.7324 29.1628 37.1201C29.4953 37.4877 29.8282 37.6364 30.3953 37.6705L30.8645 37.6988L31.0107 38.019C31.2062 38.4468 31.4405 38.8274 31.7739 39.2584L32.0497 39.615L31.5709 40.6723L31.0922 41.7295L29.4631 42.3355C27.3228 43.1316 26.6876 43.5106 25.647 44.6122C24.2396 46.1023 23.3837 47.9539 23.0852 50.1549C23.0385 50.4988 23.0002 50.9555 23 51.1698C22.9997 51.5124 23.0196 51.5843 23.1647 51.7637L23.3296 51.9679L35.9702 51.984L48.6108 52L48.7916 51.8213C48.9485 51.6663 48.9757 51.5935 48.9968 51.2701C49.0102 51.0652 48.9799 50.5864 48.9295 50.2061C48.6326 47.9678 47.783 46.1168 46.3618 44.6122C45.3212 43.5106 44.686 43.1316 42.5457 42.3355L40.9166 41.7295L40.4379 40.6723L39.9592 39.615L40.235 39.2584C40.9469 38.338 41.4213 37.235 41.6251 36.026C41.6773 35.7166 41.7315 35.4029 41.7455 35.329C41.7697 35.2016 41.8084 35.1934 42.4923 35.1709C43.0751 35.1516 43.264 35.1216 43.4764 35.0146C43.8114 34.8458 44.1801 34.4389 44.336 34.0661C44.4522 33.7881 44.4583 33.6746 44.4756 31.4623C44.4866 30.0597 44.4689 28.8785 44.4307 28.4615C44.2296 26.2662 43.4327 24.3842 42.0382 22.8112C40.2045 20.743 37.6489 19.7374 35.0432 20.0589ZM37.3881 21.3975C38.9144 21.7498 40.1097 22.4572 41.1822 23.6431C42.3638 24.9496 43.0688 26.5251 43.2891 28.3521L43.3362 28.7428H42.7913H42.2464L42.1745 28.1064C41.8541 25.2676 39.9745 23.074 37.4443 22.5862C36.7864 22.4594 35.2224 22.4594 34.5645 22.5862C32.0343 23.074 30.1547 25.2676 29.8343 28.1064L29.7624 28.7428H29.2134C28.721 28.7428 28.6665 28.7315 28.6838 28.6334C28.6944 28.5732 28.7327 28.2989 28.7689 28.0238C28.9057 26.9845 29.3035 25.8748 29.903 24.8601C30.317 24.1593 31.2596 23.1007 31.864 22.6576C32.7353 22.0189 33.8676 21.5164 34.7605 21.3721C34.9937 21.3344 35.2482 21.2914 35.3259 21.2763C35.6207 21.2193 36.956 21.2978 37.3881 21.3975ZM37.314 23.8311C38.1495 24.0117 38.7443 24.3164 39.4029 24.901C40.4194 25.8034 41.0052 27.121 41.0773 28.6669L41.1102 29.3725L40.8614 29.3329C40.1892 29.226 39.192 28.9757 38.7409 28.8007C37.6387 28.3731 36.4395 27.6021 35.6652 26.8232C35.1471 26.3021 35.0538 26.2421 34.762 26.2422C34.1905 26.2424 33.1824 26.5162 32.6442 26.8174C32.1737 27.0807 31.6685 27.4819 31.3159 27.8721L30.9529 28.2739L30.9899 27.9752C31.0864 27.1973 31.5009 26.2225 32.0396 25.5072C32.6688 24.6715 33.6979 24.0241 34.7322 23.8131C35.1963 23.7184 36.846 23.7299 37.314 23.8311ZM34.9145 27.7585C36.4214 29.2382 38.2634 30.1592 40.435 30.5188C40.7416 30.5696 41.0058 30.6258 41.022 30.6437C41.065 30.6912 40.937 32.4909 40.8087 33.6435C40.5029 36.3916 40.247 37.2643 39.4143 38.3996C38.8742 39.1358 37.9642 39.7907 37.1353 40.0397C36.6241 40.1933 35.3849 40.1933 34.8736 40.0398C33.9825 39.7721 33.0435 39.062 32.4603 38.2147C32.2949 37.9743 32.1595 37.7563 32.1595 37.7302C32.1595 37.7041 32.4076 37.6837 32.7108 37.6848L33.2621 37.6869L33.4317 38.0109C33.6413 38.4113 33.9921 38.7132 34.4001 38.8443C34.8801 38.9986 36.3313 38.9493 36.6913 38.7665C37.0276 38.5959 37.396 38.1884 37.5497 37.8171C37.7169 37.4134 37.7169 36.7018 37.5497 36.2981C37.396 35.9268 37.0276 35.5193 36.6913 35.3486C36.3313 35.1658 34.8801 35.1165 34.4001 35.2708C33.9921 35.402 33.6413 35.7038 33.4317 36.1043L33.2621 36.4282L32.4281 36.4303C31.9694 36.4315 31.5941 36.4113 31.594 36.3855C31.594 36.3597 31.5568 36.1416 31.5114 35.9008C31.3107 34.8369 31.0607 32.5181 30.9955 31.1156L30.9594 30.337L31.4099 29.6787C31.6577 29.3167 32.0301 28.8486 32.2374 28.6386C32.8543 28.0137 33.7218 27.591 34.5748 27.4998C34.6127 27.4958 34.7655 27.6122 34.9145 27.7585ZM29.8055 30.2901C29.8228 30.4534 29.8525 30.9246 29.8717 31.3373C29.8908 31.7499 29.9424 32.4532 29.9864 32.9002C30.0304 33.3472 30.0666 33.7649 30.0669 33.8284C30.0674 33.934 30.0222 33.942 29.5315 33.9222C29.0339 33.902 28.9843 33.8881 28.8389 33.7272L28.6822 33.554L28.6655 31.7736L28.6489 29.9931H29.2115H29.7741L29.8055 30.2901ZM43.3433 31.7736L43.3266 33.554L43.17 33.7272C43.0245 33.8881 42.975 33.902 42.4773 33.9222C41.9866 33.942 41.9414 33.934 41.9419 33.8284C41.9422 33.7649 41.9786 33.3472 42.0227 32.9002C42.0669 32.4532 42.1184 31.7358 42.1372 31.306C42.156 30.8762 42.1848 30.405 42.2012 30.2588L42.231 29.9931H42.7954H43.3599L43.3433 31.7736ZM30.263 35.3227C30.2784 35.4001 30.3185 35.641 30.352 35.858C30.3855 36.0751 30.4285 36.2976 30.4476 36.3524C30.5018 36.5085 30.1276 36.4021 29.9562 36.2127C29.8406 36.0849 29.813 35.9838 29.7944 35.6204L29.772 35.1821H30.0035C30.1975 35.1821 30.2395 35.2048 30.263 35.3227ZM36.3836 36.6356C36.6168 36.8937 36.6031 37.2571 36.3508 37.5063L36.1627 37.6922L35.4061 37.6719C34.6821 37.6524 34.6435 37.6447 34.5054 37.4918C34.2984 37.2627 34.2649 36.9475 34.4239 36.7241C34.6106 36.4617 34.7198 36.434 35.5085 36.4495C36.2107 36.4633 36.2321 36.4679 36.3836 36.6356ZM39.5424 41.4427L39.9148 42.2644L39.7632 42.7363C39.5635 43.3584 39.1595 44.4004 38.8781 45.0192L38.652 45.5163L37.6964 44.4611L36.7408 43.4059L36.9836 43.1232C37.1172 42.9676 37.6544 42.341 38.1773 41.7307C38.7003 41.1204 39.1376 40.6211 39.1491 40.6211C39.1606 40.6211 39.3375 40.9908 39.5424 41.4427ZM34.268 44.4767C33.7837 45.0381 33.3765 45.4974 33.3631 45.4974C33.3151 45.4974 32.6223 43.8257 32.3562 43.0678L32.0848 42.295L32.4176 41.5508L32.7504 40.8065L33.9495 42.1312L35.1485 43.456L34.268 44.4767ZM36.0693 41.4025H36.8976L36.4385 41.9339C36.1861 42.2262 35.9656 42.4725 35.9487 42.4813C35.9318 42.49 35.6766 42.2291 35.3816 41.9015C34.8691 41.3323 34.8541 41.308 35.0432 41.3542C35.152 41.3808 35.6138 41.4025 36.0693 41.4025ZM31.4272 43.872C32.0228 45.5243 32.831 47.1696 33.8838 48.8733C34.1707 49.3375 34.5364 49.9494 34.6964 50.2331L34.9874 50.7488H29.5686H24.1498L24.2001 50.3269C24.4972 47.8304 25.9113 45.5091 27.834 44.3616C28.2654 44.1041 30.9206 43.0519 31.073 43.078C31.1129 43.0849 31.2723 43.4421 31.4272 43.872ZM42.3033 43.5586C43.0418 43.8333 43.854 44.1775 44.1083 44.3237C46.0543 45.4423 47.5081 47.8007 47.8088 50.3269L47.859 50.7488H42.4402H37.0214L37.3124 50.2331C37.4724 49.9494 37.8381 49.3375 38.125 48.8733C39.1557 47.2054 39.9001 45.7066 40.4847 44.122C40.6559 43.6578 40.8112 43.2288 40.8298 43.1686C40.8483 43.1085 40.8854 43.0592 40.9121 43.0592C40.9388 43.0592 41.5648 43.284 42.3033 43.5586ZM37.0075 45.5124C37.5753 46.1396 38.0399 46.6781 38.0399 46.7092C38.0399 46.7403 37.7664 47.2145 37.4321 47.763C37.0978 48.3115 36.652 49.06 36.4414 49.4264C36.2308 49.7927 36.0342 50.0924 36.0044 50.0924C35.9747 50.0924 35.778 49.7927 35.5674 49.4264C35.3568 49.06 34.9084 48.3072 34.5709 47.7533C34.2334 47.1996 33.9695 46.7115 33.9845 46.6689C34.0179 46.5741 35.8938 44.3721 35.9411 44.3721C35.9598 44.3721 36.4396 44.8852 37.0075 45.5124ZM42.0198 44.8085C41.8418 44.888 41.6586 45.1777 41.6586 45.3798C41.6586 45.6301 41.9185 45.9304 42.1739 45.9752C42.3461 46.0055 42.4081 45.9816 42.5684 45.8232C42.7272 45.6663 42.7587 45.5919 42.7587 45.3724C42.7587 45.1548 42.727 45.0783 42.5753 44.9284C42.3895 44.7448 42.2363 44.7117 42.0198 44.8085ZM44.0052 45.9941C43.7995 46.0872 43.6684 46.3076 43.6684 46.5603C43.6684 46.7791 43.7164 46.8551 44.2076 47.4149C44.5137 47.7637 44.8527 48.2266 44.9919 48.4856C45.2671 48.9979 45.4661 49.1568 45.7571 49.0965C45.9727 49.0518 46.1097 48.9021 46.1788 48.636C46.2722 48.2756 45.7795 47.3737 45.0476 46.5657C44.5091 45.9711 44.3043 45.8587 44.0052 45.9941Z" fill="#E49B00"/>
<path fill-rule="evenodd" clip-rule="evenodd" d="M34.7808 115.047C34.7119 115.076 34.5992 115.164 34.5303 115.243C34.4135 115.376 34.4051 115.477 34.4051 116.729C34.4051 118.054 34.4071 118.074 34.5539 118.235C34.8454 118.555 35.3518 118.506 35.5352 118.141C35.6538 117.905 35.6671 115.6 35.5514 115.339C35.4263 115.056 35.075 114.922 34.7808 115.047ZM29.8617 117.423C29.5944 117.56 29.4649 117.82 29.5239 118.101C29.5724 118.331 30.6384 119.505 30.9528 119.674C31.3527 119.889 31.8348 119.581 31.8348 119.11C31.8348 118.869 31.7917 118.81 31.116 118.121C30.7149 117.711 30.3266 117.37 30.2373 117.35C30.1429 117.327 29.989 117.357 29.8617 117.423ZM39.728 117.353C39.5327 117.4 38.2098 118.784 38.1737 118.979C38.0957 119.399 38.5007 119.813 38.9028 119.723C39.1853 119.66 40.3639 118.462 40.4565 118.143C40.5464 117.834 40.4004 117.528 40.1016 117.4C39.9844 117.349 39.8806 117.311 39.8709 117.315C39.8612 117.32 39.7969 117.337 39.728 117.353ZM34.7808 119.369C34.3999 119.529 34.2792 120.063 34.5553 120.365C35.0507 120.909 35.8525 120.342 35.5514 119.661C35.4263 119.378 35.075 119.245 34.7808 119.369ZM34.1391 121.893C32.0621 122.1 30.1385 123.007 28.6311 124.491C27.592 125.514 26.8022 126.728 26.3281 128.031L26.2175 128.335L25.8749 128.082C25.3904 127.725 24.9934 127.599 24.3542 127.599C23.7144 127.599 23.318 127.725 22.8318 128.084C22.1031 128.621 21.7837 129.291 21.7387 130.377C21.7075 131.131 21.7856 131.573 22.0407 132.088L22.158 132.325L21.8627 132.402C20.9854 132.629 19.9009 133.547 19.4581 134.436C19.0574 135.241 19.0031 135.523 19.0015 136.812L19 137.963L19.171 138.114C19.4108 138.327 19.6652 138.351 21.4535 138.327C22.9311 138.308 23.0411 138.298 23.203 138.174C23.5268 137.924 23.5508 137.505 23.2586 137.204C23.1076 137.049 23.1065 137.049 21.6643 137.049H20.2211L20.2222 136.613C20.2252 135.416 20.6939 134.493 21.5899 133.922C22.1375 133.573 22.3067 133.547 24.2027 133.517L25.9611 133.49L26.0761 133.928C26.2498 134.589 26.5186 135.272 26.8694 135.944L27.1852 136.549L23.4652 140.395C20.6515 143.304 19.7108 144.316 19.6044 144.545C18.9458 145.966 19.7688 147.652 21.2672 147.953C21.7759 148.055 22.2355 147.992 22.7313 147.75C23.0803 147.58 23.388 147.291 25.2186 145.415C26.3676 144.237 27.3477 143.196 27.3965 143.1C27.527 142.844 27.5055 142.631 27.3271 142.413C27.1409 142.185 26.8902 142.112 26.6352 142.211C26.5337 142.25 25.5024 143.256 24.3229 144.466C22.4748 146.363 22.1627 146.657 21.9589 146.695C21.1231 146.853 20.4495 146.124 20.6616 145.291C20.7239 145.046 21.1309 144.604 24.3343 141.299L27.9369 137.582L28.4783 138.139C29.1728 138.855 30.029 139.485 30.8982 139.923C32.2281 140.591 33.2218 140.845 34.7182 140.899C35.9118 140.941 36.8537 140.805 37.9345 140.432C40.8248 139.436 43.1361 136.926 43.9239 133.928L44.0389 133.49L45.7973 133.517C47.6933 133.547 47.8625 133.573 48.4101 133.922C49.3061 134.493 49.7748 135.416 49.7778 136.613L49.7789 137.049H46.7076H43.6362L43.485 137.204C43.1928 137.505 43.2169 137.924 43.5407 138.174C43.7091 138.303 43.7951 138.307 46.9184 138.326C48.6811 138.337 50.2436 138.328 50.3906 138.306C50.5377 138.284 50.7349 138.198 50.829 138.114L51 137.963L50.9985 136.812C50.9969 135.523 50.9426 135.241 50.5419 134.436C50.0991 133.547 49.0146 132.629 48.1373 132.402L47.842 132.325L47.9593 132.088C48.2144 131.573 48.2925 131.131 48.2613 130.377C48.2163 129.291 47.8969 128.621 47.1682 128.084C46.682 127.725 46.2856 127.599 45.6458 127.599C45.0066 127.599 44.6096 127.725 44.1251 128.082L43.7825 128.335L43.6719 128.031C43.1978 126.728 42.408 125.514 41.3689 124.491C39.8328 122.979 37.9584 122.106 35.7828 121.889C35.0775 121.819 34.8733 121.82 34.1391 121.893ZM36.5802 123.315C40.8524 124.183 43.6918 128.524 42.8655 132.923C42.2444 136.229 39.8088 138.764 36.5656 139.479C35.8224 139.643 34.1776 139.643 33.4344 139.479C27.5514 138.182 25.0394 131.181 28.708 126.307C30.5501 123.859 33.5848 122.706 36.5802 123.315ZM34.2485 124.478C31.6792 124.753 29.4205 126.639 28.5875 129.207C27.4909 132.587 29.1357 136.356 32.3252 137.773C33.2823 138.198 33.8107 138.303 35 138.303C35.8528 138.303 36.1275 138.278 36.5729 138.163C40.4177 137.165 42.6526 133.029 41.4125 129.207C40.7071 127.033 38.9906 125.337 36.8455 124.696C36.4101 124.566 35.1716 124.387 34.8795 124.413C34.8252 124.418 34.5413 124.447 34.2485 124.478ZM36.3026 125.891C38.1967 126.346 39.7036 127.845 40.3017 129.869C40.4506 130.373 40.4692 130.541 40.4687 131.372C40.4681 132.407 40.3703 132.918 40.0201 133.713C39.8239 134.159 39.401 134.857 39.3305 134.852C39.308 134.85 39.191 134.704 39.0704 134.527C38.7224 134.015 37.9318 133.337 37.2979 133.007L36.9342 132.817L37.0541 132.659C37.3999 132.202 37.5658 131.618 37.5668 130.853C37.5685 129.578 37.0574 128.669 36.0646 128.184C35.69 128.001 35.605 127.985 35 127.985C34.395 127.985 34.31 128.001 33.9354 128.184C32.9426 128.669 32.4315 129.578 32.4332 130.853C32.4342 131.618 32.6001 132.202 32.9459 132.659L33.0658 132.817L32.7021 133.007C32.0682 133.337 31.2776 134.015 30.9295 134.527C30.809 134.704 30.692 134.85 30.6695 134.852C30.599 134.857 30.1761 134.159 29.9799 133.713C29.6297 132.918 29.5319 132.407 29.5313 131.372C29.5308 130.541 29.5494 130.373 29.6983 129.869C30.5856 126.867 33.3736 125.187 36.3026 125.891ZM24.9611 129.019C25.5087 129.3 25.7319 129.747 25.7319 130.562C25.7319 131.024 25.7076 131.147 25.5569 131.444C25.3041 131.942 24.9181 132.178 24.3542 132.178C23.7868 132.178 23.4049 131.943 23.1465 131.435C22.9786 131.105 22.9679 131.04 22.9872 130.463C23.0058 129.908 23.027 129.813 23.1966 129.531C23.5723 128.905 24.3181 128.689 24.9611 129.019ZM46.374 129.086C46.834 129.379 47.0235 129.801 47.0235 130.533C47.0235 131.027 47.0013 131.143 46.8485 131.444C46.5957 131.942 46.2097 132.178 45.6458 132.178C45.0819 132.178 44.6959 131.942 44.4431 131.444C44.2924 131.147 44.2681 131.024 44.2681 130.562C44.2681 130.267 44.2978 129.943 44.3342 129.844C44.6594 128.95 45.6079 128.598 46.374 129.086ZM35.4623 129.304C35.7297 129.409 36.1147 129.818 36.2241 130.113C36.3002 130.318 36.3223 130.54 36.306 130.936C36.2868 131.404 36.2579 131.522 36.0953 131.792C35.9649 132.01 35.8163 132.154 35.6124 132.263C34.9923 132.591 34.2638 132.391 33.9047 131.792C33.7421 131.522 33.7132 131.404 33.6939 130.936C33.6607 130.127 33.8917 129.651 34.4677 129.344C34.6777 129.232 35.2217 129.21 35.4623 129.304ZM35.8267 133.83C36.2025 133.912 36.9839 134.264 37.2402 134.468C37.5947 134.75 38.0871 135.285 38.2408 135.555L38.4003 135.835L38.2188 135.989C37.9297 136.234 36.8252 136.77 36.3464 136.897C36.0217 136.984 35.6724 137.014 35 137.014C34.3276 137.014 33.9783 136.984 33.6536 136.897C33.1748 136.77 32.0703 136.234 31.7812 135.989L31.5997 135.835L31.7592 135.555C31.9125 135.285 32.4053 134.75 32.7573 134.47C32.9998 134.277 33.7206 133.941 34.089 133.849C34.4938 133.747 35.3989 133.738 35.8267 133.83ZM28.3798 140.449C28.164 140.491 27.9237 140.829 27.9237 141.09C27.9237 141.588 28.5698 141.892 28.9177 141.558C29.4028 141.093 29.0297 140.323 28.3798 140.449Z" fill="#E49B00"/>
<path fill-rule="evenodd" clip-rule="evenodd" d="M32.8986 211.072C28.1986 211.519 23.8214 213.868 20.8729 217.526C15.731 223.905 15.7067 233.027 20.8147 239.41C21.852 240.706 23.4168 242.146 24.7761 243.055C28.5782 245.599 33.2069 246.542 37.7554 245.7C42.3774 244.844 46.4364 242.144 49.1119 238.145C49.6986 237.268 50.5808 235.524 50.9576 234.496C52.275 230.901 52.3466 226.78 51.1558 223.085C50.6087 221.387 49.2568 218.761 48.8058 218.52C48.5725 218.395 48.2084 218.438 48.0028 218.615C47.8454 218.75 47.8117 218.833 47.8155 219.076C47.8192 219.316 47.895 219.49 48.2152 219.988C49.6454 222.216 50.5146 225.064 50.6254 227.887C50.923 235.463 45.836 242.278 38.4978 244.134C37.0538 244.499 36.1776 244.602 34.5062 244.602C32.8476 244.603 31.9934 244.501 30.5011 244.126C24.8386 242.702 20.3222 238.189 18.8788 232.513C18.5048 231.042 18.401 230.17 18.401 228.502C18.401 226.834 18.5048 225.963 18.8788 224.492C20.5376 217.969 26.1119 213.174 32.8986 212.432C34.3949 212.268 36.475 212.394 38.0145 212.74C39.7616 213.134 41.7843 213.981 43.2278 214.922C44.0028 215.428 44.2829 215.489 44.5943 215.218C44.8275 215.016 44.8949 214.618 44.7369 214.377C44.5166 214.041 42.9275 213.096 41.5455 212.48C38.9229 211.31 35.7818 210.798 32.8986 211.072ZM32.967 214.324C28.0178 214.931 23.8544 217.861 21.7087 222.245C20.7073 224.291 20.2776 226.176 20.2783 228.522C20.2788 230.405 20.5662 231.982 21.2086 233.628C23.1023 238.479 27.4381 241.909 32.576 242.62C33.5783 242.758 35.4311 242.759 36.4363 242.62C38.5597 242.328 40.5388 241.586 42.3043 240.421C45.8438 238.085 48.1492 234.376 48.6655 230.187C48.7066 229.853 48.7402 229.095 48.7402 228.502C48.7402 226.223 48.3052 224.307 47.3355 222.313C45.2011 217.925 41.0451 214.949 36.218 214.35C35.6831 214.283 33.4412 214.265 32.967 214.324ZM36.5241 215.781C37.9174 216.01 39.0225 216.366 40.2522 216.981C43.5541 218.634 45.9635 221.571 46.954 225.151C47.5146 227.177 47.5146 229.827 46.954 231.853C45.5768 236.831 41.4286 240.506 36.3443 241.252C35.3966 241.391 33.6157 241.391 32.668 241.252C27.0162 240.422 22.5827 235.99 21.7528 230.34C21.6136 229.392 21.6136 227.612 21.7528 226.665C22.5798 221.035 26.9816 216.617 32.625 215.753C33.5924 215.605 35.5404 215.619 36.5241 215.781ZM46.1425 216.151C45.7389 216.375 45.6853 216.851 46.0255 217.191C46.3669 217.533 46.8543 217.476 47.0636 217.072C47.3827 216.455 46.7451 215.818 46.1425 216.151ZM34.1717 217.109C33.916 217.25 33.8272 217.483 33.8245 218.019C33.8217 218.59 33.9107 218.831 34.174 218.968C34.5282 219.151 34.9567 219.024 35.1085 218.691C35.1534 218.592 35.1902 218.299 35.1902 218.039C35.1902 217.487 35.0987 217.245 34.8383 217.111C34.6059 216.991 34.386 216.99 34.1717 217.109ZM28.8551 218.514C28.6481 218.601 28.4181 218.918 28.4181 219.116C28.4181 219.351 28.81 220.063 29.0504 220.265C29.1599 220.357 29.3256 220.433 29.4186 220.433C29.7979 220.433 30.1282 220.109 30.1282 219.738C30.1282 219.556 29.7492 218.845 29.5543 218.662C29.377 218.495 29.0589 218.428 28.8551 218.514ZM39.6608 218.515C39.4008 218.624 38.8841 219.441 38.8841 219.743C38.8841 220.109 39.2166 220.433 39.5937 220.433C39.838 220.433 40.1292 220.157 40.3775 219.691C40.6434 219.193 40.6493 218.991 40.4061 218.724C40.2035 218.502 39.8965 218.416 39.6608 218.515ZM34.1717 220.665C33.8333 220.852 33.8272 220.905 33.8243 223.647L33.8216 226.211L33.5177 226.336C33.0495 226.529 32.6254 226.945 32.371 227.462C32.1701 227.87 32.1462 227.98 32.1462 228.502C32.1462 229.023 32.1702 229.135 32.3692 229.539C32.8985 230.614 34.1269 231.144 35.2244 230.771L35.6348 230.631L36.8319 231.813C37.5714 232.544 38.0944 233.008 38.2 233.027C38.6068 233.102 38.9881 232.859 39.0232 232.503C39.0627 232.101 39.0124 232.031 37.8283 230.835L36.6357 229.631L36.7753 229.22C37.1509 228.116 36.5537 226.772 35.4946 226.336L35.1907 226.211L35.1905 223.667C35.1903 221.841 35.1671 221.072 35.1085 220.944C34.9587 220.615 34.5052 220.48 34.1717 220.665ZM24.7098 222.614C24.4265 222.867 24.3987 223.27 24.6463 223.534C24.846 223.747 25.5507 224.126 25.7462 224.126C25.9761 224.126 26.2627 223.949 26.3526 223.751C26.551 223.316 26.3564 222.986 25.693 222.632C25.1893 222.364 24.9938 222.36 24.7098 222.614ZM43.3304 222.623C42.8758 222.87 42.5779 223.18 42.5779 223.405C42.5779 223.792 42.8963 224.126 43.2661 224.126C43.4616 224.126 44.1663 223.747 44.366 223.534C44.6136 223.27 44.5858 222.867 44.3025 222.614C44.0202 222.362 43.807 222.364 43.3304 222.623ZM34.9868 227.614C35.2903 227.769 35.5322 228.163 35.5322 228.502C35.5322 229.025 35.0265 229.528 34.5011 229.528C34.01 229.528 33.4801 228.998 33.4801 228.507C33.4801 228.174 33.7205 227.771 34.011 227.617C34.341 227.443 34.6497 227.442 34.9868 227.614ZM23.3637 227.914C23.04 228.093 22.9321 228.487 23.1116 228.834C23.2463 229.095 23.4877 229.186 24.0402 229.186C24.5928 229.186 24.8341 229.095 24.9688 228.834C25.1504 228.483 25.0398 228.084 24.7144 227.916C24.4743 227.792 23.5864 227.79 23.3637 227.914ZM44.2956 227.914C43.9719 228.093 43.864 228.487 44.0435 228.834C44.1782 229.095 44.4195 229.186 44.9721 229.186C45.5247 229.186 45.766 229.095 45.9007 228.834C46.0822 228.483 45.9716 228.084 45.6462 227.916C45.4061 227.792 44.5183 227.79 44.2956 227.914ZM25.2031 233.088C24.6464 233.394 24.4879 233.576 24.4879 233.912C24.4879 234.142 24.5279 234.228 24.7098 234.39C24.9938 234.644 25.1893 234.64 25.693 234.372C26.1549 234.126 26.4344 233.833 26.4344 233.595C26.4344 233.207 26.1122 232.877 25.7367 232.88C25.6501 232.881 25.41 232.974 25.2031 233.088ZM42.9275 232.974C42.5642 233.176 42.4783 233.639 42.7454 233.956C42.9509 234.201 43.6615 234.589 43.9032 234.589C44.0024 234.589 44.1786 234.501 44.3025 234.39C44.4835 234.229 44.5244 234.141 44.5244 233.916C44.5244 233.574 44.3592 233.383 43.8108 233.09C43.3796 232.861 43.1799 232.834 42.9275 232.974ZM29.0504 236.739C28.8063 236.945 28.4181 237.655 28.4181 237.897C28.4181 237.996 28.5056 238.172 28.6164 238.296C28.8695 238.579 29.273 238.607 29.5366 238.359C29.7459 238.163 30.1282 237.456 30.1282 237.266C30.1282 236.895 29.7979 236.572 29.4186 236.572C29.3256 236.572 29.1599 236.647 29.0504 236.739ZM39.2336 236.667C39.0386 236.775 38.8898 237.023 38.8865 237.246C38.8834 237.451 39.2542 238.151 39.4757 238.359C39.7393 238.607 40.1428 238.579 40.3959 238.296C40.6497 238.012 40.646 237.817 40.3775 237.313C40.0212 236.645 39.6513 236.436 39.2336 236.667ZM34.1717 238.035C33.916 238.177 33.8272 238.41 33.8245 238.945C33.8217 239.516 33.9107 239.757 34.174 239.894C34.5282 240.077 34.9567 239.95 35.1085 239.617C35.1534 239.518 35.1902 239.225 35.1902 238.965C35.1902 238.413 35.0987 238.172 34.8383 238.037C34.6059 237.917 34.386 237.916 34.1717 238.035Z" fill="#E49B00"/>
</svg>
