<svg width="829" height="140" viewBox="0 0 829 140" fill="none" xmlns="http://www.w3.org/2000/svg">
<path d="M8.51047 136L8.51047 124.752H10.6385L10.6385 136H8.51047ZM5.72647 126.64V124.752H10.4145L10.4145 126.64H5.72647ZM5.72647 136V134.112H12.8945V136H5.72647ZM16.316 136.16C15.932 136.16 15.6173 136.032 15.372 135.776C15.1266 135.52 15.004 135.205 15.004 134.832C15.004 134.459 15.1266 134.144 15.372 133.888C15.6173 133.632 15.932 133.504 16.316 133.504C16.6893 133.504 16.9986 133.632 17.244 133.888C17.4893 134.144 17.612 134.459 17.612 134.832C17.612 135.205 17.4893 135.52 17.244 135.776C16.9986 136.032 16.6893 136.16 16.316 136.16ZM26.752 131.296L26.752 129.6H29.36C29.8933 129.6 30.304 129.467 30.592 129.2C30.8907 128.923 31.04 128.544 31.04 128.064C31.04 127.627 30.8907 127.264 30.592 126.976C30.304 126.677 29.8933 126.528 29.36 126.528H26.752V124.752H29.552C30.2773 124.752 30.912 124.896 31.456 125.184C32.0107 125.461 32.4373 125.845 32.736 126.336C33.0453 126.827 33.2 127.392 33.2 128.032C33.2 128.693 33.0453 129.269 32.736 129.76C32.4373 130.24 32.0107 130.619 31.456 130.896C30.9013 131.163 30.256 131.296 29.52 131.296H26.752ZM25.152 136L25.152 124.752H27.328L27.328 136H25.152ZM31.296 136L27.584 131.136L29.584 130.512L33.936 136H31.296ZM38.4209 136.16C37.6102 136.16 36.8902 135.989 36.2609 135.648C35.6315 135.296 35.1302 134.816 34.7569 134.208C34.3942 133.6 34.2129 132.907 34.2129 132.128C34.2129 131.36 34.3889 130.677 34.7409 130.08C35.1035 129.472 35.5942 128.992 36.2129 128.64C36.8315 128.277 37.5195 128.096 38.2769 128.096C39.0235 128.096 39.6795 128.267 40.2449 128.608C40.8209 128.939 41.2689 129.397 41.5889 129.984C41.9195 130.56 42.0849 131.216 42.0849 131.952C42.0849 132.091 42.0742 132.235 42.0529 132.384C42.0422 132.523 42.0155 132.683 41.9729 132.864L35.4769 132.88V131.312L40.9969 131.296L40.1489 131.952C40.1275 131.493 40.0422 131.109 39.8929 130.8C39.7542 130.491 39.5462 130.256 39.2689 130.096C39.0022 129.925 38.6715 129.84 38.2769 129.84C37.8609 129.84 37.4982 129.936 37.1889 130.128C36.8795 130.309 36.6395 130.571 36.4689 130.912C36.3089 131.243 36.2289 131.637 36.2289 132.096C36.2289 132.565 36.3142 132.976 36.4849 133.328C36.6662 133.669 36.9222 133.936 37.2529 134.128C37.5835 134.309 37.9675 134.4 38.4049 134.4C38.7995 134.4 39.1569 134.336 39.4769 134.208C39.7969 134.069 40.0742 133.867 40.3089 133.6L41.5409 134.832C41.1675 135.269 40.7089 135.6 40.1649 135.824C39.6315 136.048 39.0502 136.16 38.4209 136.16ZM45.7681 136L42.3601 128.272H44.6641L47.1121 134.64H45.9761L48.4401 128.272H50.6641L47.2721 136H45.7681ZM51.6311 136V128.272H53.7431V136H51.6311ZM52.6871 127.024C52.3458 127.024 52.0631 126.912 51.8391 126.688C51.6151 126.453 51.5031 126.165 51.5031 125.824C51.5031 125.493 51.6151 125.211 51.8391 124.976C52.0631 124.741 52.3458 124.624 52.6871 124.624C53.0391 124.624 53.3218 124.741 53.5351 124.976C53.7591 125.211 53.8711 125.493 53.8711 125.824C53.8711 126.165 53.7591 126.453 53.5351 126.688C53.3218 126.912 53.0391 127.024 52.6871 127.024ZM59.2959 136.16C58.4852 136.16 57.7652 135.989 57.1359 135.648C56.5065 135.296 56.0052 134.816 55.6319 134.208C55.2692 133.6 55.0879 132.907 55.0879 132.128C55.0879 131.36 55.2639 130.677 55.6159 130.08C55.9785 129.472 56.4692 128.992 57.0879 128.64C57.7065 128.277 58.3945 128.096 59.1519 128.096C59.8985 128.096 60.5545 128.267 61.1199 128.608C61.6959 128.939 62.1439 129.397 62.4639 129.984C62.7945 130.56 62.9599 131.216 62.9599 131.952C62.9599 132.091 62.9492 132.235 62.9279 132.384C62.9172 132.523 62.8905 132.683 62.8479 132.864L56.3519 132.88V131.312L61.8719 131.296L61.0239 131.952C61.0025 131.493 60.9172 131.109 60.7679 130.8C60.6292 130.491 60.4212 130.256 60.1439 130.096C59.8772 129.925 59.5465 129.84 59.1519 129.84C58.7359 129.84 58.3732 129.936 58.0639 130.128C57.7545 130.309 57.5145 130.571 57.3439 130.912C57.1839 131.243 57.1039 131.637 57.1039 132.096C57.1039 132.565 57.1892 132.976 57.3599 133.328C57.5412 133.669 57.7972 133.936 58.1279 134.128C58.4585 134.309 58.8425 134.4 59.2799 134.4C59.6745 134.4 60.0319 134.336 60.3519 134.208C60.6719 134.069 60.9492 133.867 61.1839 133.6L62.4159 134.832C62.0425 135.269 61.5839 135.6 61.0399 135.824C60.5065 136.048 59.9252 136.16 59.2959 136.16ZM66.2264 136L63.3304 128.272H65.4424L67.3304 133.888L66.6904 133.904L68.6264 128.272H70.1464L72.0824 133.904L71.4424 133.888L73.3304 128.272H75.4424L72.5624 136H71.0424L69.0904 130.656H69.6824L67.7304 136H66.2264ZM81.4083 131.824V130.048H84.0163C84.3576 130.048 84.6669 129.979 84.9443 129.84C85.2216 129.701 85.4403 129.504 85.6003 129.248C85.7603 128.981 85.8403 128.661 85.8403 128.288C85.8403 127.925 85.7603 127.611 85.6003 127.344C85.4403 127.077 85.2216 126.875 84.9443 126.736C84.6669 126.597 84.3576 126.528 84.0163 126.528H81.4083V124.752H84.2403C84.9549 124.752 85.5949 124.896 86.1603 125.184C86.7363 125.472 87.1896 125.883 87.5203 126.416C87.8509 126.939 88.0163 127.563 88.0163 128.288C88.0163 129.013 87.8509 129.643 87.5203 130.176C87.1896 130.699 86.7363 131.104 86.1603 131.392C85.5949 131.68 84.9549 131.824 84.2403 131.824H81.4083ZM79.8083 136V124.752H81.9843V136H79.8083ZM89.4436 136V128.272H91.5396V136H89.4436ZM91.5396 131.728L90.7236 131.184C90.8196 130.235 91.097 129.488 91.5556 128.944C92.0143 128.389 92.6756 128.112 93.5396 128.112C93.913 128.112 94.249 128.176 94.5476 128.304C94.8463 128.421 95.1183 128.619 95.3636 128.896L94.0516 130.4C93.9343 130.272 93.7903 130.176 93.6196 130.112C93.4596 130.048 93.273 130.016 93.0596 130.016C92.6116 130.016 92.2436 130.16 91.9556 130.448C91.6783 130.725 91.5396 131.152 91.5396 131.728ZM99.5131 136.16C98.7345 136.16 98.0305 135.984 97.4011 135.632C96.7825 135.269 96.2865 134.784 95.9131 134.176C95.5505 133.557 95.3691 132.869 95.3691 132.112C95.3691 131.355 95.5505 130.677 95.9131 130.08C96.2758 129.472 96.7718 128.992 97.4011 128.64C98.0305 128.277 98.7291 128.096 99.4971 128.096C100.286 128.096 100.99 128.277 101.609 128.64C102.238 128.992 102.734 129.472 103.097 130.08C103.46 130.677 103.641 131.355 103.641 132.112C103.641 132.869 103.46 133.557 103.097 134.176C102.734 134.784 102.238 135.269 101.609 135.632C100.99 135.984 100.292 136.16 99.5131 136.16ZM99.4971 134.208C99.8918 134.208 100.238 134.123 100.537 133.952C100.846 133.771 101.081 133.525 101.241 133.216C101.412 132.896 101.497 132.533 101.497 132.128C101.497 131.723 101.412 131.365 101.241 131.056C101.07 130.747 100.836 130.507 100.537 130.336C100.238 130.155 99.8918 130.064 99.4971 130.064C99.1131 130.064 98.7718 130.155 98.4731 130.336C98.1745 130.507 97.9398 130.747 97.7691 131.056C97.5985 131.365 97.5131 131.723 97.5131 132.128C97.5131 132.533 97.5985 132.896 97.7691 133.216C97.9398 133.525 98.1745 133.771 98.4731 133.952C98.7718 134.123 99.1131 134.208 99.4971 134.208ZM105.827 136V127.2C105.827 126.645 105.95 126.149 106.195 125.712C106.44 125.264 106.782 124.912 107.219 124.656C107.667 124.389 108.195 124.256 108.803 124.256C109.187 124.256 109.528 124.315 109.827 124.432C110.136 124.549 110.43 124.72 110.707 124.944L109.507 126.416C109.411 126.341 109.304 126.288 109.187 126.256C109.08 126.213 108.952 126.192 108.803 126.192C108.526 126.192 108.307 126.277 108.147 126.448C107.998 126.608 107.923 126.832 107.923 127.12V136H105.827ZM104.035 130.112V128.272H111.699V130.112H104.035ZM110.691 136V128.272H112.787V136H110.691ZM111.731 127.648C111.4 127.648 111.123 127.536 110.899 127.312C110.686 127.088 110.579 126.811 110.579 126.48C110.579 126.149 110.686 125.872 110.899 125.648C111.123 125.424 111.4 125.312 111.731 125.312C112.072 125.312 112.35 125.424 112.563 125.648C112.776 125.872 112.883 126.149 112.883 126.48C112.883 126.811 112.776 127.088 112.563 127.312C112.35 127.536 112.072 127.648 111.731 127.648ZM114.647 136V124.432H116.743V136H114.647ZM122.296 136.16C121.485 136.16 120.765 135.989 120.136 135.648C119.507 135.296 119.005 134.816 118.632 134.208C118.269 133.6 118.088 132.907 118.088 132.128C118.088 131.36 118.264 130.677 118.616 130.08C118.979 129.472 119.469 128.992 120.088 128.64C120.707 128.277 121.395 128.096 122.152 128.096C122.899 128.096 123.555 128.267 124.12 128.608C124.696 128.939 125.144 129.397 125.464 129.984C125.795 130.56 125.96 131.216 125.96 131.952C125.96 132.091 125.949 132.235 125.928 132.384C125.917 132.523 125.891 132.683 125.848 132.864L119.352 132.88V131.312L124.872 131.296L124.024 131.952C124.003 131.493 123.917 131.109 123.768 130.8C123.629 130.491 123.421 130.256 123.144 130.096C122.877 129.925 122.547 129.84 122.152 129.84C121.736 129.84 121.373 129.936 121.064 130.128C120.755 130.309 120.515 130.571 120.344 130.912C120.184 131.243 120.104 131.637 120.104 132.096C120.104 132.565 120.189 132.976 120.36 133.328C120.541 133.669 120.797 133.936 121.128 134.128C121.459 134.309 121.843 134.4 122.28 134.4C122.675 134.4 123.032 134.336 123.352 134.208C123.672 134.069 123.949 133.867 124.184 133.6L125.416 134.832C125.043 135.269 124.584 135.6 124.04 135.824C123.507 136.048 122.925 136.16 122.296 136.16Z" fill="white" fill-opacity="0.8"/>
<path d="M229.416 134.752L233.656 130.32C233.955 130 234.195 129.717 234.376 129.472C234.568 129.216 234.707 128.976 234.792 128.752C234.877 128.517 234.92 128.283 234.92 128.048C234.92 127.579 234.765 127.211 234.456 126.944C234.157 126.677 233.768 126.544 233.288 126.544C232.797 126.544 232.36 126.672 231.976 126.928C231.603 127.184 231.251 127.589 230.92 128.144L229.432 126.88C229.88 126.123 230.435 125.552 231.096 125.168C231.768 124.773 232.536 124.576 233.4 124.576C234.136 124.576 234.776 124.72 235.32 125.008C235.875 125.296 236.301 125.696 236.6 126.208C236.899 126.72 237.048 127.317 237.048 128C237.048 128.459 236.989 128.875 236.872 129.248C236.765 129.621 236.579 129.995 236.312 130.368C236.056 130.731 235.699 131.141 235.24 131.6L232.152 134.752H229.416ZM229.416 136V134.752L231.272 134.112H237.288V136H229.416ZM240.212 136.16C239.828 136.16 239.513 136.032 239.268 135.776C239.022 135.52 238.9 135.205 238.9 134.832C238.9 134.459 239.022 134.144 239.268 133.888C239.513 133.632 239.828 133.504 240.212 133.504C240.585 133.504 240.894 133.632 241.14 133.888C241.385 134.144 241.508 134.459 241.508 134.832C241.508 135.205 241.385 135.52 241.14 135.776C240.894 136.032 240.585 136.16 240.212 136.16ZM246.84 136V124.752H248.376L252.936 132.048H252.056L256.6 124.752H258.136V136H255.976V128.48L256.392 128.608L253.224 133.696H251.752L248.584 128.608L249.016 128.48V136H246.84ZM263.905 136.16C263.095 136.16 262.375 135.989 261.745 135.648C261.116 135.296 260.615 134.816 260.241 134.208C259.879 133.6 259.697 132.907 259.697 132.128C259.697 131.36 259.873 130.677 260.225 130.08C260.588 129.472 261.079 128.992 261.697 128.64C262.316 128.277 263.004 128.096 263.761 128.096C264.508 128.096 265.164 128.267 265.729 128.608C266.305 128.939 266.753 129.397 267.073 129.984C267.404 130.56 267.569 131.216 267.569 131.952C267.569 132.091 267.559 132.235 267.537 132.384C267.527 132.523 267.5 132.683 267.457 132.864L260.961 132.88V131.312L266.481 131.296L265.633 131.952C265.612 131.493 265.527 131.109 265.377 130.8C265.239 130.491 265.031 130.256 264.753 130.096C264.487 129.925 264.156 129.84 263.761 129.84C263.345 129.84 262.983 129.936 262.673 130.128C262.364 130.309 262.124 130.571 261.953 130.912C261.793 131.243 261.713 131.637 261.713 132.096C261.713 132.565 261.799 132.976 261.969 133.328C262.151 133.669 262.407 133.936 262.737 134.128C263.068 134.309 263.452 134.4 263.889 134.4C264.284 134.4 264.641 134.336 264.961 134.208C265.281 134.069 265.559 133.867 265.793 133.6L267.025 134.832C266.652 135.269 266.193 135.6 265.649 135.824C265.116 136.048 264.535 136.16 263.905 136.16ZM272.562 136.16C271.751 136.16 271.031 135.989 270.402 135.648C269.772 135.296 269.271 134.816 268.898 134.208C268.535 133.6 268.354 132.907 268.354 132.128C268.354 131.36 268.53 130.677 268.882 130.08C269.244 129.472 269.735 128.992 270.354 128.64C270.972 128.277 271.66 128.096 272.418 128.096C273.164 128.096 273.82 128.267 274.386 128.608C274.962 128.939 275.41 129.397 275.73 129.984C276.06 130.56 276.226 131.216 276.226 131.952C276.226 132.091 276.215 132.235 276.194 132.384C276.183 132.523 276.156 132.683 276.114 132.864L269.618 132.88V131.312L275.138 131.296L274.29 131.952C274.268 131.493 274.183 131.109 274.034 130.8C273.895 130.491 273.687 130.256 273.41 130.096C273.143 129.925 272.812 129.84 272.418 129.84C272.002 129.84 271.639 129.936 271.33 130.128C271.02 130.309 270.78 130.571 270.61 130.912C270.45 131.243 270.37 131.637 270.37 132.096C270.37 132.565 270.455 132.976 270.626 133.328C270.807 133.669 271.063 133.936 271.394 134.128C271.724 134.309 272.108 134.4 272.546 134.4C272.94 134.4 273.298 134.336 273.618 134.208C273.938 134.069 274.215 133.867 274.45 133.6L275.682 134.832C275.308 135.269 274.85 135.6 274.306 135.824C273.772 136.048 273.191 136.16 272.562 136.16ZM278.47 136V125.056H280.566V136H278.47ZM276.662 130.112V128.272H282.374V130.112H276.662ZM287.814 136V125.056H289.91V136H287.814ZM286.006 130.112V128.272H291.718V130.112H286.006ZM298.097 136V131.568C298.097 131.109 297.953 130.736 297.665 130.448C297.377 130.16 297.003 130.016 296.545 130.016C296.246 130.016 295.979 130.08 295.745 130.208C295.51 130.336 295.323 130.517 295.185 130.752C295.057 130.987 294.993 131.259 294.993 131.568L294.177 131.152C294.177 130.544 294.305 130.016 294.561 129.568C294.817 129.109 295.169 128.752 295.617 128.496C296.075 128.24 296.598 128.112 297.185 128.112C297.771 128.112 298.289 128.24 298.737 128.496C299.195 128.752 299.553 129.104 299.809 129.552C300.065 130 300.193 130.517 300.193 131.104V136H298.097ZM292.897 136V124.432H294.993V136H292.897ZM305.577 136.16C304.766 136.16 304.046 135.989 303.417 135.648C302.788 135.296 302.286 134.816 301.913 134.208C301.55 133.6 301.369 132.907 301.369 132.128C301.369 131.36 301.545 130.677 301.897 130.08C302.26 129.472 302.75 128.992 303.369 128.64C303.988 128.277 304.676 128.096 305.433 128.096C306.18 128.096 306.836 128.267 307.401 128.608C307.977 128.939 308.425 129.397 308.745 129.984C309.076 130.56 309.241 131.216 309.241 131.952C309.241 132.091 309.23 132.235 309.209 132.384C309.198 132.523 309.172 132.683 309.129 132.864L302.633 132.88V131.312L308.153 131.296L307.305 131.952C307.284 131.493 307.198 131.109 307.049 130.8C306.91 130.491 306.702 130.256 306.425 130.096C306.158 129.925 305.828 129.84 305.433 129.84C305.017 129.84 304.654 129.936 304.345 130.128C304.036 130.309 303.796 130.571 303.625 130.912C303.465 131.243 303.385 131.637 303.385 132.096C303.385 132.565 303.47 132.976 303.641 133.328C303.822 133.669 304.078 133.936 304.409 134.128C304.74 134.309 305.124 134.4 305.561 134.4C305.956 134.4 306.313 134.336 306.633 134.208C306.953 134.069 307.23 133.867 307.465 133.6L308.697 134.832C308.324 135.269 307.865 135.6 307.321 135.824C306.788 136.048 306.206 136.16 305.577 136.16ZM319.102 136.16C318.281 136.16 317.518 136.016 316.814 135.728C316.11 135.429 315.492 135.019 314.958 134.496C314.436 133.963 314.03 133.344 313.742 132.64C313.465 131.936 313.326 131.179 313.326 130.368C313.326 129.557 313.465 128.8 313.742 128.096C314.03 127.392 314.436 126.779 314.958 126.256C315.492 125.733 316.105 125.323 316.798 125.024C317.502 124.725 318.27 124.576 319.102 124.576C319.998 124.576 320.788 124.725 321.47 125.024C322.153 125.312 322.756 125.712 323.278 126.224L321.806 127.696C321.497 127.355 321.118 127.088 320.67 126.896C320.222 126.704 319.7 126.608 319.102 126.608C318.58 126.608 318.1 126.699 317.662 126.88C317.236 127.051 316.862 127.307 316.542 127.648C316.222 127.979 315.977 128.379 315.806 128.848C315.636 129.307 315.55 129.813 315.55 130.368C315.55 130.933 315.636 131.445 315.806 131.904C315.977 132.363 316.222 132.763 316.542 133.104C316.862 133.435 317.236 133.691 317.662 133.872C318.1 134.053 318.58 134.144 319.102 134.144C319.732 134.144 320.27 134.048 320.718 133.856C321.177 133.664 321.561 133.392 321.87 133.04L323.342 134.512C322.82 135.035 322.212 135.44 321.518 135.728C320.825 136.016 320.02 136.16 319.102 136.16ZM327.66 136.16C326.956 136.16 326.321 135.984 325.756 135.632C325.191 135.28 324.748 134.8 324.428 134.192C324.108 133.584 323.948 132.901 323.948 132.144C323.948 131.376 324.108 130.688 324.428 130.08C324.748 129.472 325.191 128.992 325.756 128.64C326.321 128.288 326.956 128.112 327.66 128.112C328.215 128.112 328.711 128.224 329.148 128.448C329.585 128.672 329.932 128.987 330.188 129.392C330.455 129.787 330.599 130.235 330.62 130.736V133.52C330.599 134.032 330.455 134.485 330.188 134.88C329.932 135.275 329.585 135.589 329.148 135.824C328.711 136.048 328.215 136.16 327.66 136.16ZM328.044 134.224C328.631 134.224 329.105 134.032 329.468 133.648C329.831 133.253 330.012 132.747 330.012 132.128C330.012 131.723 329.927 131.365 329.756 131.056C329.596 130.736 329.367 130.491 329.068 130.32C328.78 130.139 328.439 130.048 328.044 130.048C327.66 130.048 327.319 130.139 327.02 130.32C326.732 130.491 326.503 130.736 326.332 131.056C326.172 131.365 326.092 131.723 326.092 132.128C326.092 132.544 326.172 132.912 326.332 133.232C326.503 133.541 326.732 133.787 327.02 133.968C327.319 134.139 327.66 134.224 328.044 134.224ZM329.9 136V133.92L330.236 132.032L329.9 130.176V128.272H331.98V136H329.9ZM339.034 136V131.568C339.034 131.109 338.89 130.736 338.602 130.448C338.314 130.16 337.941 130.016 337.482 130.016C337.184 130.016 336.917 130.08 336.682 130.208C336.448 130.336 336.261 130.517 336.122 130.752C335.994 130.987 335.93 131.259 335.93 131.568L335.114 131.152C335.114 130.544 335.242 130.016 335.498 129.568C335.765 129.109 336.128 128.752 336.586 128.496C337.056 128.24 337.584 128.112 338.17 128.112C338.736 128.112 339.242 128.256 339.69 128.544C340.138 128.821 340.49 129.189 340.746 129.648C341.002 130.096 341.13 130.581 341.13 131.104V136H339.034ZM333.834 136V128.272H335.93V136H333.834ZM346.083 136.16C345.368 136.16 344.728 135.984 344.163 135.632C343.597 135.28 343.149 134.8 342.819 134.192C342.499 133.584 342.339 132.901 342.339 132.144C342.339 131.376 342.499 130.688 342.819 130.08C343.149 129.472 343.592 128.992 344.147 128.64C344.712 128.288 345.357 128.112 346.083 128.112C346.637 128.112 347.133 128.224 347.571 128.448C348.019 128.672 348.376 128.987 348.643 129.392C348.92 129.787 349.069 130.235 349.091 130.736V133.488C349.069 133.989 348.925 134.443 348.659 134.848C348.392 135.253 348.035 135.573 347.587 135.808C347.139 136.043 346.637 136.16 346.083 136.16ZM346.435 134.224C346.829 134.224 347.171 134.139 347.459 133.968C347.757 133.787 347.987 133.541 348.147 133.232C348.317 132.912 348.403 132.544 348.403 132.128C348.403 131.723 348.317 131.365 348.147 131.056C347.987 130.736 347.757 130.491 347.459 130.32C347.171 130.139 346.835 130.048 346.451 130.048C346.056 130.048 345.709 130.139 345.411 130.32C345.123 130.501 344.893 130.747 344.723 131.056C344.563 131.365 344.483 131.723 344.483 132.128C344.483 132.544 344.563 132.912 344.723 133.232C344.893 133.541 345.128 133.787 345.427 133.968C345.725 134.139 346.061 134.224 346.435 134.224ZM350.371 136H348.291V133.92L348.627 132.032L348.275 130.176V124.432H350.371V136ZM352.225 136V128.272H354.337V136H352.225ZM353.281 127.024C352.94 127.024 352.657 126.912 352.433 126.688C352.209 126.453 352.097 126.165 352.097 125.824C352.097 125.493 352.209 125.211 352.433 124.976C352.657 124.741 352.94 124.624 353.281 124.624C353.633 124.624 353.916 124.741 354.129 124.976C354.353 125.211 354.465 125.493 354.465 125.824C354.465 126.165 354.353 126.453 354.129 126.688C353.916 126.912 353.633 127.024 353.281 127.024ZM359.458 136.16C358.743 136.16 358.103 135.984 357.538 135.632C356.972 135.28 356.524 134.8 356.194 134.192C355.874 133.584 355.714 132.901 355.714 132.144C355.714 131.376 355.874 130.688 356.194 130.08C356.524 129.472 356.967 128.992 357.522 128.64C358.087 128.288 358.732 128.112 359.458 128.112C360.012 128.112 360.508 128.224 360.946 128.448C361.394 128.672 361.751 128.987 362.018 129.392C362.295 129.787 362.444 130.235 362.466 130.736V133.488C362.444 133.989 362.3 134.443 362.034 134.848C361.767 135.253 361.41 135.573 360.962 135.808C360.514 136.043 360.012 136.16 359.458 136.16ZM359.81 134.224C360.204 134.224 360.546 134.139 360.834 133.968C361.132 133.787 361.362 133.541 361.522 133.232C361.692 132.912 361.778 132.544 361.778 132.128C361.778 131.723 361.692 131.365 361.522 131.056C361.362 130.736 361.132 130.491 360.834 130.32C360.546 130.139 360.21 130.048 359.826 130.048C359.431 130.048 359.084 130.139 358.786 130.32C358.498 130.501 358.268 130.747 358.098 131.056C357.938 131.365 357.858 131.723 357.858 132.128C357.858 132.544 357.938 132.912 358.098 133.232C358.268 133.541 358.503 133.787 358.802 133.968C359.1 134.139 359.436 134.224 359.81 134.224ZM363.746 136H361.666V133.92L362.002 132.032L361.65 130.176V124.432H363.746V136ZM368.832 136.16C368.128 136.16 367.493 135.984 366.928 135.632C366.363 135.28 365.92 134.8 365.6 134.192C365.28 133.584 365.12 132.901 365.12 132.144C365.12 131.376 365.28 130.688 365.6 130.08C365.92 129.472 366.363 128.992 366.928 128.64C367.493 128.288 368.128 128.112 368.832 128.112C369.387 128.112 369.883 128.224 370.32 128.448C370.757 128.672 371.104 128.987 371.36 129.392C371.627 129.787 371.771 130.235 371.792 130.736V133.52C371.771 134.032 371.627 134.485 371.36 134.88C371.104 135.275 370.757 135.589 370.32 135.824C369.883 136.048 369.387 136.16 368.832 136.16ZM369.216 134.224C369.803 134.224 370.277 134.032 370.64 133.648C371.003 133.253 371.184 132.747 371.184 132.128C371.184 131.723 371.099 131.365 370.928 131.056C370.768 130.736 370.539 130.491 370.24 130.32C369.952 130.139 369.611 130.048 369.216 130.048C368.832 130.048 368.491 130.139 368.192 130.32C367.904 130.491 367.675 130.736 367.504 131.056C367.344 131.365 367.264 131.723 367.264 132.128C367.264 132.544 367.344 132.912 367.504 133.232C367.675 133.541 367.904 133.787 368.192 133.968C368.491 134.139 368.832 134.224 369.216 134.224ZM371.072 136V133.92L371.408 132.032L371.072 130.176V128.272H373.152V136H371.072ZM376.142 136V125.056H378.238V136H376.142ZM374.334 130.112V128.272H380.046V130.112H374.334ZM384.733 136.16C383.923 136.16 383.203 135.989 382.573 135.648C381.944 135.296 381.443 134.816 381.069 134.208C380.707 133.6 380.525 132.907 380.525 132.128C380.525 131.36 380.701 130.677 381.053 130.08C381.416 129.472 381.907 128.992 382.525 128.64C383.144 128.277 383.832 128.096 384.589 128.096C385.336 128.096 385.992 128.267 386.557 128.608C387.133 128.939 387.581 129.397 387.901 129.984C388.232 130.56 388.397 131.216 388.397 131.952C388.397 132.091 388.387 132.235 388.365 132.384C388.355 132.523 388.328 132.683 388.285 132.864L381.789 132.88V131.312L387.309 131.296L386.461 131.952C386.44 131.493 386.355 131.109 386.205 130.8C386.067 130.491 385.859 130.256 385.581 130.096C385.315 129.925 384.984 129.84 384.589 129.84C384.173 129.84 383.811 129.936 383.501 130.128C383.192 130.309 382.952 130.571 382.781 130.912C382.621 131.243 382.541 131.637 382.541 132.096C382.541 132.565 382.627 132.976 382.797 133.328C382.979 133.669 383.235 133.936 383.565 134.128C383.896 134.309 384.28 134.4 384.717 134.4C385.112 134.4 385.469 134.336 385.789 134.208C386.109 134.069 386.387 133.867 386.621 133.6L387.853 134.832C387.48 135.269 387.021 135.6 386.477 135.824C385.944 136.048 385.363 136.16 384.733 136.16Z" fill="white" fill-opacity="0.8"/>
<path d="M460.984 136.16C460.227 136.16 459.533 136.027 458.904 135.76C458.275 135.483 457.747 135.088 457.32 134.576L458.76 133.152C458.973 133.472 459.277 133.728 459.672 133.92C460.067 134.112 460.493 134.208 460.952 134.208C461.379 134.208 461.747 134.133 462.056 133.984C462.365 133.824 462.605 133.605 462.776 133.328C462.957 133.04 463.048 132.709 463.048 132.336C463.048 131.941 462.957 131.605 462.776 131.328C462.605 131.051 462.355 130.837 462.024 130.688C461.693 130.539 461.299 130.464 460.84 130.464C460.637 130.464 460.429 130.48 460.216 130.512C460.003 130.533 459.821 130.571 459.672 130.624L460.632 129.408C460.899 129.323 461.16 129.253 461.416 129.2C461.683 129.136 461.928 129.104 462.152 129.104C462.728 129.104 463.245 129.243 463.704 129.52C464.173 129.787 464.541 130.171 464.808 130.672C465.085 131.163 465.224 131.744 465.224 132.416C465.224 133.163 465.048 133.819 464.696 134.384C464.344 134.939 463.848 135.376 463.208 135.696C462.579 136.005 461.837 136.16 460.984 136.16ZM459.672 130.624V129.376L462.552 126.032L465.048 126L462.072 129.408L459.672 130.624ZM457.944 126.64V124.752H465.048V126L463.272 126.64H457.944ZM467.774 136.16C467.39 136.16 467.076 136.032 466.83 135.776C466.585 135.52 466.462 135.205 466.462 134.832C466.462 134.459 466.585 134.144 466.83 133.888C467.076 133.632 467.39 133.504 467.774 133.504C468.148 133.504 468.457 133.632 468.702 133.888C468.948 134.144 469.07 134.459 469.07 134.832C469.07 135.205 468.948 135.52 468.702 135.776C468.457 136.032 468.148 136.16 467.774 136.16ZM476.002 131.824V130.048H478.61C478.951 130.048 479.261 129.979 479.538 129.84C479.815 129.701 480.034 129.504 480.194 129.248C480.354 128.981 480.434 128.661 480.434 128.288C480.434 127.925 480.354 127.611 480.194 127.344C480.034 127.077 479.815 126.875 479.538 126.736C479.261 126.597 478.951 126.528 478.61 126.528H476.002V124.752H478.834C479.549 124.752 480.189 124.896 480.754 125.184C481.33 125.472 481.783 125.883 482.114 126.416C482.445 126.939 482.61 127.563 482.61 128.288C482.61 129.013 482.445 129.643 482.114 130.176C481.783 130.699 481.33 131.104 480.754 131.392C480.189 131.68 479.549 131.824 478.834 131.824H476.002ZM474.402 136V124.752H476.578V136H474.402ZM484.037 136V128.272H486.133V136H484.037ZM486.133 131.728L485.317 131.184C485.413 130.235 485.691 129.488 486.149 128.944C486.608 128.389 487.269 128.112 488.133 128.112C488.507 128.112 488.843 128.176 489.141 128.304C489.44 128.421 489.712 128.619 489.957 128.896L488.645 130.4C488.528 130.272 488.384 130.176 488.213 130.112C488.053 130.048 487.867 130.016 487.653 130.016C487.205 130.016 486.837 130.16 486.549 130.448C486.272 130.725 486.133 131.152 486.133 131.728ZM490.694 136V128.272H492.806V136H490.694ZM491.75 127.024C491.408 127.024 491.126 126.912 490.902 126.688C490.678 126.453 490.566 126.165 490.566 125.824C490.566 125.493 490.678 125.211 490.902 124.976C491.126 124.741 491.408 124.624 491.75 124.624C492.102 124.624 492.384 124.741 492.598 124.976C492.822 125.211 492.934 125.493 492.934 125.824C492.934 126.165 492.822 126.453 492.598 126.688C492.384 126.912 492.102 127.024 491.75 127.024ZM498.31 136.16C497.521 136.16 496.812 135.984 496.182 135.632C495.553 135.28 495.057 134.8 494.694 134.192C494.332 133.584 494.15 132.901 494.15 132.144C494.15 131.376 494.332 130.688 494.694 130.08C495.057 129.472 495.553 128.992 496.182 128.64C496.822 128.277 497.532 128.096 498.31 128.096C498.918 128.096 499.478 128.208 499.99 128.432C500.502 128.656 500.945 128.976 501.318 129.392L499.974 130.752C499.772 130.528 499.526 130.357 499.238 130.24C498.961 130.123 498.652 130.064 498.31 130.064C497.926 130.064 497.58 130.155 497.27 130.336C496.972 130.507 496.732 130.747 496.55 131.056C496.38 131.355 496.294 131.712 496.294 132.128C496.294 132.533 496.38 132.896 496.55 133.216C496.732 133.525 496.972 133.771 497.27 133.952C497.58 134.123 497.926 134.208 498.31 134.208C498.662 134.208 498.977 134.149 499.254 134.032C499.542 133.904 499.788 133.723 499.99 133.488L501.35 134.848C500.956 135.275 500.502 135.6 499.99 135.824C499.478 136.048 498.918 136.16 498.31 136.16ZM502.537 136V128.272H504.649V136H502.537ZM503.593 127.024C503.252 127.024 502.969 126.912 502.745 126.688C502.521 126.453 502.409 126.165 502.409 125.824C502.409 125.493 502.521 125.211 502.745 124.976C502.969 124.741 503.252 124.624 503.593 124.624C503.945 124.624 504.228 124.741 504.441 124.976C504.665 125.211 504.777 125.493 504.777 125.824C504.777 126.165 504.665 126.453 504.441 126.688C504.228 126.912 503.945 127.024 503.593 127.024ZM511.706 136V131.568C511.706 131.109 511.562 130.736 511.274 130.448C510.986 130.16 510.613 130.016 510.154 130.016C509.855 130.016 509.589 130.08 509.354 130.208C509.119 130.336 508.933 130.517 508.794 130.752C508.666 130.987 508.602 131.259 508.602 131.568L507.786 131.152C507.786 130.544 507.914 130.016 508.17 129.568C508.437 129.109 508.799 128.752 509.258 128.496C509.727 128.24 510.255 128.112 510.842 128.112C511.407 128.112 511.914 128.256 512.362 128.544C512.81 128.821 513.162 129.189 513.418 129.648C513.674 130.096 513.802 130.581 513.802 131.104V136H511.706ZM506.506 136V128.272H508.602V136H506.506ZM518.723 139.424C517.901 139.424 517.176 139.275 516.547 138.976C515.917 138.688 515.416 138.277 515.043 137.744L516.371 136.416C516.669 136.768 517 137.035 517.363 137.216C517.736 137.408 518.184 137.504 518.707 137.504C519.357 137.504 519.869 137.339 520.243 137.008C520.627 136.677 520.819 136.219 520.819 135.632V133.696L521.171 132L520.835 130.304V128.272H522.915V135.6C522.915 136.368 522.733 137.035 522.371 137.6C522.019 138.176 521.528 138.624 520.899 138.944C520.269 139.264 519.544 139.424 518.723 139.424ZM518.627 135.792C517.933 135.792 517.309 135.627 516.755 135.296C516.2 134.955 515.763 134.491 515.443 133.904C515.133 133.317 514.979 132.661 514.979 131.936C514.979 131.211 515.133 130.56 515.443 129.984C515.763 129.408 516.2 128.955 516.755 128.624C517.309 128.283 517.933 128.112 518.627 128.112C519.203 128.112 519.709 128.224 520.147 128.448C520.595 128.672 520.947 128.981 521.203 129.376C521.459 129.76 521.597 130.213 521.619 130.736V133.168C521.597 133.68 521.453 134.139 521.187 134.544C520.931 134.939 520.579 135.248 520.131 135.472C519.693 135.685 519.192 135.792 518.627 135.792ZM519.043 133.888C519.427 133.888 519.757 133.808 520.035 133.648C520.323 133.477 520.547 133.248 520.707 132.96C520.867 132.661 520.947 132.325 520.947 131.952C520.947 131.568 520.867 131.232 520.707 130.944C520.547 130.656 520.323 130.432 520.035 130.272C519.757 130.101 519.427 130.016 519.043 130.016C518.659 130.016 518.323 130.101 518.035 130.272C517.747 130.432 517.523 130.661 517.363 130.96C517.203 131.248 517.123 131.579 517.123 131.952C517.123 132.315 517.203 132.645 517.363 132.944C517.523 133.232 517.747 133.461 518.035 133.632C518.323 133.803 518.659 133.888 519.043 133.888ZM535.241 136L529.993 130.24C529.598 129.803 529.305 129.387 529.113 128.992C528.921 128.587 528.825 128.144 528.825 127.664C528.825 127.099 528.964 126.581 529.241 126.112C529.529 125.643 529.918 125.269 530.409 124.992C530.91 124.715 531.481 124.576 532.121 124.576C532.622 124.576 533.07 124.656 533.465 124.816C533.86 124.965 534.201 125.163 534.489 125.408C534.788 125.653 535.028 125.915 535.209 126.192L533.769 127.536C533.545 127.227 533.305 126.987 533.049 126.816C532.793 126.635 532.494 126.544 532.153 126.544C531.79 126.544 531.486 126.651 531.241 126.864C530.996 127.077 530.873 127.344 530.873 127.664C530.873 127.963 530.937 128.219 531.065 128.432C531.193 128.635 531.369 128.869 531.593 129.136L537.721 136H535.241ZM531.481 136.16C530.713 136.16 530.041 136.011 529.465 135.712C528.9 135.413 528.457 135.008 528.137 134.496C527.828 133.973 527.673 133.381 527.673 132.72C527.673 132.037 527.854 131.424 528.217 130.88C528.59 130.336 529.14 129.893 529.865 129.552L530.809 130.896C530.446 131.067 530.169 131.296 529.977 131.584C529.796 131.861 529.705 132.208 529.705 132.624C529.705 132.944 529.78 133.227 529.929 133.472C530.078 133.707 530.292 133.893 530.569 134.032C530.846 134.16 531.166 134.224 531.529 134.224C531.988 134.224 532.372 134.128 532.681 133.936C532.99 133.744 533.236 133.499 533.417 133.2L534.825 134.736C534.612 134.992 534.334 135.227 533.993 135.44C533.652 135.653 533.268 135.829 532.841 135.968C532.414 136.096 531.961 136.16 531.481 136.16ZM546.712 136.16C545.89 136.16 545.128 136.016 544.424 135.728C543.72 135.429 543.101 135.019 542.568 134.496C542.045 133.963 541.64 133.344 541.352 132.64C541.074 131.936 540.936 131.179 540.936 130.368C540.936 129.557 541.074 128.8 541.352 128.096C541.64 127.392 542.045 126.779 542.568 126.256C543.101 125.733 543.714 125.323 544.408 125.024C545.112 124.725 545.88 124.576 546.712 124.576C547.608 124.576 548.397 124.725 549.08 125.024C549.762 125.312 550.365 125.712 550.888 126.224L549.416 127.696C549.106 127.355 548.728 127.088 548.28 126.896C547.832 126.704 547.309 126.608 546.712 126.608C546.189 126.608 545.709 126.699 545.272 126.88C544.845 127.051 544.472 127.307 544.152 127.648C543.832 127.979 543.586 128.379 543.416 128.848C543.245 129.307 543.16 129.813 543.16 130.368C543.16 130.933 543.245 131.445 543.416 131.904C543.586 132.363 543.832 132.763 544.152 133.104C544.472 133.435 544.845 133.691 545.272 133.872C545.709 134.053 546.189 134.144 546.712 134.144C547.341 134.144 547.88 134.048 548.328 133.856C548.786 133.664 549.17 133.392 549.48 133.04L550.952 134.512C550.429 135.035 549.821 135.44 549.128 135.728C548.434 136.016 547.629 136.16 546.712 136.16ZM555.685 136.16C554.906 136.16 554.202 135.984 553.573 135.632C552.954 135.269 552.458 134.784 552.085 134.176C551.722 133.557 551.541 132.869 551.541 132.112C551.541 131.355 551.722 130.677 552.085 130.08C552.448 129.472 552.944 128.992 553.573 128.64C554.202 128.277 554.901 128.096 555.669 128.096C556.458 128.096 557.162 128.277 557.781 128.64C558.41 128.992 558.906 129.472 559.269 130.08C559.632 130.677 559.813 131.355 559.813 132.112C559.813 132.869 559.632 133.557 559.269 134.176C558.906 134.784 558.41 135.269 557.781 135.632C557.162 135.984 556.464 136.16 555.685 136.16ZM555.669 134.208C556.064 134.208 556.41 134.123 556.709 133.952C557.018 133.771 557.253 133.525 557.413 133.216C557.584 132.896 557.669 132.533 557.669 132.128C557.669 131.723 557.584 131.365 557.413 131.056C557.242 130.747 557.008 130.507 556.709 130.336C556.41 130.155 556.064 130.064 555.669 130.064C555.285 130.064 554.944 130.155 554.645 130.336C554.346 130.507 554.112 130.747 553.941 131.056C553.77 131.365 553.685 131.723 553.685 132.128C553.685 132.533 553.77 132.896 553.941 133.216C554.112 133.525 554.346 133.771 554.645 133.952C554.944 134.123 555.285 134.208 555.669 134.208ZM566.362 136V131.568C566.362 131.109 566.218 130.736 565.93 130.448C565.642 130.16 565.269 130.016 564.81 130.016C564.512 130.016 564.245 130.08 564.01 130.208C563.776 130.336 563.589 130.517 563.45 130.752C563.322 130.987 563.258 131.259 563.258 131.568L562.442 131.152C562.442 130.544 562.57 130.016 562.826 129.568C563.093 129.109 563.456 128.752 563.914 128.496C564.384 128.24 564.912 128.112 565.498 128.112C566.064 128.112 566.57 128.256 567.018 128.544C567.466 128.821 567.818 129.189 568.074 129.648C568.33 130.096 568.458 130.581 568.458 131.104V136H566.362ZM561.162 136V128.272H563.258V136H561.162ZM571.189 136V125.056H573.285V136H571.189ZM569.381 130.112V128.272H575.093V130.112H569.381ZM576.272 136V128.272H578.368V136H576.272ZM578.368 131.728L577.552 131.184C577.648 130.235 577.925 129.488 578.384 128.944C578.842 128.389 579.504 128.112 580.368 128.112C580.741 128.112 581.077 128.176 581.376 128.304C581.674 128.421 581.946 128.619 582.192 128.896L580.88 130.4C580.762 130.272 580.618 130.176 580.448 130.112C580.288 130.048 580.101 130.016 579.888 130.016C579.44 130.016 579.072 130.16 578.784 130.448C578.506 130.725 578.368 131.152 578.368 131.728ZM585.941 136.16C585.237 136.16 584.603 135.984 584.037 135.632C583.472 135.28 583.029 134.8 582.709 134.192C582.389 133.584 582.229 132.901 582.229 132.144C582.229 131.376 582.389 130.688 582.709 130.08C583.029 129.472 583.472 128.992 584.037 128.64C584.603 128.288 585.237 128.112 585.941 128.112C586.496 128.112 586.992 128.224 587.429 128.448C587.867 128.672 588.213 128.987 588.469 129.392C588.736 129.787 588.88 130.235 588.901 130.736V133.52C588.88 134.032 588.736 134.485 588.469 134.88C588.213 135.275 587.867 135.589 587.429 135.824C586.992 136.048 586.496 136.16 585.941 136.16ZM586.325 134.224C586.912 134.224 587.387 134.032 587.749 133.648C588.112 133.253 588.293 132.747 588.293 132.128C588.293 131.723 588.208 131.365 588.037 131.056C587.877 130.736 587.648 130.491 587.349 130.32C587.061 130.139 586.72 130.048 586.325 130.048C585.941 130.048 585.6 130.139 585.301 130.32C585.013 130.491 584.784 130.736 584.613 131.056C584.453 131.365 584.373 131.723 584.373 132.128C584.373 132.544 584.453 132.912 584.613 133.232C584.784 133.541 585.013 133.787 585.301 133.968C585.6 134.139 585.941 134.224 586.325 134.224ZM588.181 136V133.92L588.517 132.032L588.181 130.176V128.272H590.261V136H588.181ZM595.764 136.16C594.974 136.16 594.265 135.984 593.636 135.632C593.006 135.28 592.51 134.8 592.148 134.192C591.785 133.584 591.604 132.901 591.604 132.144C591.604 131.376 591.785 130.688 592.148 130.08C592.51 129.472 593.006 128.992 593.636 128.64C594.276 128.277 594.985 128.096 595.764 128.096C596.372 128.096 596.932 128.208 597.444 128.432C597.956 128.656 598.398 128.976 598.772 129.392L597.428 130.752C597.225 130.528 596.98 130.357 596.692 130.24C596.414 130.123 596.105 130.064 595.764 130.064C595.38 130.064 595.033 130.155 594.724 130.336C594.425 130.507 594.185 130.747 594.004 131.056C593.833 131.355 593.748 131.712 593.748 132.128C593.748 132.533 593.833 132.896 594.004 133.216C594.185 133.525 594.425 133.771 594.724 133.952C595.033 134.123 595.38 134.208 595.764 134.208C596.116 134.208 596.43 134.149 596.708 134.032C596.996 133.904 597.241 133.723 597.444 133.488L598.804 134.848C598.409 135.275 597.956 135.6 597.444 135.824C596.932 136.048 596.372 136.16 595.764 136.16ZM601.002 136V125.056H603.098V136H601.002ZM599.194 130.112V128.272H604.906V130.112H599.194Z" fill="white" fill-opacity="0.8"/>
<path d="M685.4 132.032L689.24 124.752H691.64L687.704 132.032H685.4ZM685.4 133.312V132.032L686.2 131.408H694.264V133.312H685.4ZM690.712 136V128.832H692.856V136H690.712ZM696.524 136.16C696.14 136.16 695.826 136.032 695.58 135.776C695.335 135.52 695.212 135.205 695.212 134.832C695.212 134.459 695.335 134.144 695.58 133.888C695.826 133.632 696.14 133.504 696.524 133.504C696.898 133.504 697.207 133.632 697.452 133.888C697.698 134.144 697.82 134.459 697.82 134.832C697.82 135.205 697.698 135.52 697.452 135.776C697.207 136.032 696.898 136.16 696.524 136.16ZM706.416 136.16C705.509 136.16 704.731 136.005 704.08 135.696C703.44 135.387 702.859 134.923 702.336 134.304L703.776 132.864C704.107 133.301 704.491 133.643 704.928 133.888C705.365 134.123 705.899 134.24 706.528 134.24C707.093 134.24 707.541 134.128 707.872 133.904C708.213 133.68 708.384 133.371 708.384 132.976C708.384 132.635 708.288 132.357 708.096 132.144C707.904 131.931 707.648 131.749 707.328 131.6C707.019 131.451 706.672 131.317 706.288 131.2C705.915 131.072 705.536 130.928 705.152 130.768C704.779 130.608 704.432 130.411 704.112 130.176C703.803 129.931 703.552 129.621 703.36 129.248C703.168 128.864 703.072 128.384 703.072 127.808C703.072 127.125 703.237 126.544 703.568 126.064C703.899 125.584 704.352 125.216 704.928 124.96C705.504 124.704 706.155 124.576 706.88 124.576C707.648 124.576 708.341 124.72 708.96 125.008C709.579 125.296 710.085 125.669 710.48 126.128L709.04 127.568C708.709 127.205 708.368 126.939 708.016 126.768C707.675 126.597 707.285 126.512 706.848 126.512C706.347 126.512 705.952 126.608 705.664 126.8C705.376 126.992 705.232 127.269 705.232 127.632C705.232 127.941 705.328 128.192 705.52 128.384C705.712 128.576 705.963 128.741 706.272 128.88C706.592 129.019 706.939 129.152 707.312 129.28C707.696 129.408 708.075 129.552 708.448 129.712C708.832 129.872 709.179 130.08 709.488 130.336C709.808 130.592 710.064 130.923 710.256 131.328C710.448 131.723 710.544 132.213 710.544 132.8C710.544 133.845 710.176 134.667 709.44 135.264C708.704 135.861 707.696 136.16 706.416 136.16ZM712.037 136V128.272H714.149V136H712.037ZM713.093 127.024C712.752 127.024 712.469 126.912 712.245 126.688C712.021 126.453 711.909 126.165 711.909 125.824C711.909 125.493 712.021 125.211 712.245 124.976C712.469 124.741 712.752 124.624 713.093 124.624C713.445 124.624 713.728 124.741 713.941 124.976C714.165 125.211 714.277 125.493 714.277 125.824C714.277 126.165 714.165 126.453 713.941 126.688C713.728 126.912 713.445 127.024 713.093 127.024ZM719.238 139.424C718.417 139.424 717.691 139.275 717.062 138.976C716.433 138.688 715.931 138.277 715.558 137.744L716.886 136.416C717.185 136.768 717.515 137.035 717.878 137.216C718.251 137.408 718.699 137.504 719.222 137.504C719.873 137.504 720.385 137.339 720.758 137.008C721.142 136.677 721.334 136.219 721.334 135.632V133.696L721.686 132L721.35 130.304V128.272H723.43V135.6C723.43 136.368 723.249 137.035 722.886 137.6C722.534 138.176 722.043 138.624 721.414 138.944C720.785 139.264 720.059 139.424 719.238 139.424ZM719.142 135.792C718.449 135.792 717.825 135.627 717.27 135.296C716.715 134.955 716.278 134.491 715.958 133.904C715.649 133.317 715.494 132.661 715.494 131.936C715.494 131.211 715.649 130.56 715.958 129.984C716.278 129.408 716.715 128.955 717.27 128.624C717.825 128.283 718.449 128.112 719.142 128.112C719.718 128.112 720.225 128.224 720.662 128.448C721.11 128.672 721.462 128.981 721.718 129.376C721.974 129.76 722.113 130.213 722.134 130.736V133.168C722.113 133.68 721.969 134.139 721.702 134.544C721.446 134.939 721.094 135.248 720.646 135.472C720.209 135.685 719.707 135.792 719.142 135.792ZM719.558 133.888C719.942 133.888 720.273 133.808 720.55 133.648C720.838 133.477 721.062 133.248 721.222 132.96C721.382 132.661 721.462 132.325 721.462 131.952C721.462 131.568 721.382 131.232 721.222 130.944C721.062 130.656 720.838 130.432 720.55 130.272C720.273 130.101 719.942 130.016 719.558 130.016C719.174 130.016 718.838 130.101 718.55 130.272C718.262 130.432 718.038 130.661 717.878 130.96C717.718 131.248 717.638 131.579 717.638 131.952C717.638 132.315 717.718 132.645 717.878 132.944C718.038 133.232 718.262 133.461 718.55 133.632C718.838 133.803 719.174 133.888 719.558 133.888ZM730.472 136V131.568C730.472 131.109 730.328 130.736 730.04 130.448C729.752 130.16 729.378 130.016 728.92 130.016C728.621 130.016 728.354 130.08 728.12 130.208C727.885 130.336 727.698 130.517 727.56 130.752C727.432 130.987 727.368 131.259 727.368 131.568L726.552 131.152C726.552 130.544 726.68 130.016 726.936 129.568C727.202 129.109 727.565 128.752 728.024 128.496C728.493 128.24 729.021 128.112 729.608 128.112C730.173 128.112 730.68 128.256 731.128 128.544C731.576 128.821 731.928 129.189 732.184 129.648C732.44 130.096 732.568 130.581 732.568 131.104V136H730.472ZM725.272 136V128.272H727.368V136H725.272ZM738.517 136V125.056H740.613V136H738.517ZM736.709 130.112V128.272H742.421V130.112H736.709ZM748.8 136V131.568C748.8 131.109 748.656 130.736 748.368 130.448C748.08 130.16 747.707 130.016 747.248 130.016C746.949 130.016 746.683 130.08 746.448 130.208C746.213 130.336 746.027 130.517 745.888 130.752C745.76 130.987 745.696 131.259 745.696 131.568L744.88 131.152C744.88 130.544 745.008 130.016 745.264 129.568C745.52 129.109 745.872 128.752 746.32 128.496C746.779 128.24 747.301 128.112 747.888 128.112C748.475 128.112 748.992 128.24 749.44 128.496C749.899 128.752 750.256 129.104 750.512 129.552C750.768 130 750.896 130.517 750.896 131.104V136H748.8ZM743.6 136V124.432H745.696V136H743.6ZM756.28 136.16C755.47 136.16 754.75 135.989 754.12 135.648C753.491 135.296 752.99 134.816 752.616 134.208C752.254 133.6 752.072 132.907 752.072 132.128C752.072 131.36 752.248 130.677 752.6 130.08C752.963 129.472 753.454 128.992 754.072 128.64C754.691 128.277 755.379 128.096 756.136 128.096C756.883 128.096 757.539 128.267 758.104 128.608C758.68 128.939 759.128 129.397 759.448 129.984C759.779 130.56 759.944 131.216 759.944 131.952C759.944 132.091 759.934 132.235 759.912 132.384C759.902 132.523 759.875 132.683 759.832 132.864L753.336 132.88V131.312L758.856 131.296L758.008 131.952C757.987 131.493 757.902 131.109 757.752 130.8C757.614 130.491 757.406 130.256 757.128 130.096C756.862 129.925 756.531 129.84 756.136 129.84C755.72 129.84 755.358 129.936 755.048 130.128C754.739 130.309 754.499 130.571 754.328 130.912C754.168 131.243 754.088 131.637 754.088 132.096C754.088 132.565 754.174 132.976 754.344 133.328C754.526 133.669 754.782 133.936 755.112 134.128C755.443 134.309 755.827 134.4 756.264 134.4C756.659 134.4 757.016 134.336 757.336 134.208C757.656 134.069 757.934 133.867 758.168 133.6L759.4 134.832C759.027 135.269 758.568 135.6 758.024 135.824C757.491 136.048 756.91 136.16 756.28 136.16ZM769.806 136.16C768.984 136.16 768.222 136.016 767.518 135.728C766.814 135.429 766.195 135.019 765.662 134.496C765.139 133.963 764.734 133.344 764.446 132.64C764.168 131.936 764.03 131.179 764.03 130.368C764.03 129.557 764.168 128.8 764.446 128.096C764.734 127.392 765.139 126.779 765.662 126.256C766.195 125.733 766.808 125.323 767.502 125.024C768.206 124.725 768.974 124.576 769.806 124.576C770.702 124.576 771.491 124.725 772.174 125.024C772.856 125.312 773.459 125.712 773.982 126.224L772.51 127.696C772.2 127.355 771.822 127.088 771.374 126.896C770.926 126.704 770.403 126.608 769.806 126.608C769.283 126.608 768.803 126.699 768.366 126.88C767.939 127.051 767.566 127.307 767.246 127.648C766.926 127.979 766.68 128.379 766.51 128.848C766.339 129.307 766.254 129.813 766.254 130.368C766.254 130.933 766.339 131.445 766.51 131.904C766.68 132.363 766.926 132.763 767.246 133.104C767.566 133.435 767.939 133.691 768.366 133.872C768.803 134.053 769.283 134.144 769.806 134.144C770.435 134.144 770.974 134.048 771.422 133.856C771.88 133.664 772.264 133.392 772.574 133.04L774.046 134.512C773.523 135.035 772.915 135.44 772.222 135.728C771.528 136.016 770.723 136.16 769.806 136.16ZM778.763 136.16C777.984 136.16 777.28 135.984 776.651 135.632C776.032 135.269 775.536 134.784 775.163 134.176C774.8 133.557 774.619 132.869 774.619 132.112C774.619 131.355 774.8 130.677 775.163 130.08C775.526 129.472 776.022 128.992 776.651 128.64C777.28 128.277 777.979 128.096 778.747 128.096C779.536 128.096 780.24 128.277 780.859 128.64C781.488 128.992 781.984 129.472 782.347 130.08C782.71 130.677 782.891 131.355 782.891 132.112C782.891 132.869 782.71 133.557 782.347 134.176C781.984 134.784 781.488 135.269 780.859 135.632C780.24 135.984 779.542 136.16 778.763 136.16ZM778.747 134.208C779.142 134.208 779.488 134.123 779.787 133.952C780.096 133.771 780.331 133.525 780.491 133.216C780.662 132.896 780.747 132.533 780.747 132.128C780.747 131.723 780.662 131.365 780.491 131.056C780.32 130.747 780.086 130.507 779.787 130.336C779.488 130.155 779.142 130.064 778.747 130.064C778.363 130.064 778.022 130.155 777.723 130.336C777.424 130.507 777.19 130.747 777.019 131.056C776.848 131.365 776.763 131.723 776.763 132.128C776.763 132.533 776.848 132.896 777.019 133.216C777.19 133.525 777.424 133.771 777.723 133.952C778.022 134.123 778.363 134.208 778.747 134.208ZM789.441 136V131.568C789.441 131.109 789.297 130.736 789.009 130.448C788.721 130.16 788.347 130.016 787.889 130.016C787.59 130.016 787.323 130.08 787.089 130.208C786.854 130.336 786.667 130.517 786.529 130.752C786.401 130.987 786.337 131.259 786.337 131.568L785.521 131.152C785.521 130.544 785.649 130.016 785.905 129.568C786.171 129.109 786.534 128.752 786.993 128.496C787.462 128.24 787.99 128.112 788.577 128.112C789.142 128.112 789.649 128.256 790.097 128.544C790.545 128.821 790.897 129.189 791.153 129.648C791.409 130.096 791.536 130.581 791.536 131.104V136H789.441ZM784.241 136V128.272H786.337V136L784.241 136ZM794.267 136V125.056H796.363V136H794.267ZM792.459 130.112V128.272H798.171V130.112H792.459ZM799.35 136V128.272H801.446V136H799.35ZM801.446 131.728L800.63 131.184C800.726 130.235 801.003 129.488 801.462 128.944C801.921 128.389 802.582 128.112 803.446 128.112C803.819 128.112 804.155 128.176 804.454 128.304C804.753 128.421 805.025 128.619 805.27 128.896L803.958 130.4C803.841 130.272 803.697 130.176 803.526 130.112C803.366 130.048 803.179 130.016 802.966 130.016C802.518 130.016 802.15 130.16 801.862 130.448C801.585 130.725 801.446 131.152 801.446 131.728ZM809.019 136.16C808.315 136.16 807.681 135.984 807.115 135.632C806.55 135.28 806.107 134.8 805.787 134.192C805.467 133.584 805.307 132.901 805.307 132.144C805.307 131.376 805.467 130.688 805.787 130.08C806.107 129.472 806.55 128.992 807.115 128.64C807.681 128.288 808.315 128.112 809.019 128.112C809.574 128.112 810.07 128.224 810.507 128.448C810.945 128.672 811.291 128.987 811.547 129.392C811.814 129.787 811.958 130.235 811.979 130.736V133.52C811.958 134.032 811.814 134.485 811.547 134.88C811.291 135.275 810.945 135.589 810.507 135.824C810.07 136.048 809.574 136.16 809.019 136.16ZM809.403 134.224C809.99 134.224 810.465 134.032 810.827 133.648C811.19 133.253 811.371 132.747 811.371 132.128C811.371 131.723 811.286 131.365 811.115 131.056C810.955 130.736 810.726 130.491 810.427 130.32C810.139 130.139 809.798 130.048 809.403 130.048C809.019 130.048 808.678 130.139 808.379 130.32C808.091 130.491 807.862 130.736 807.691 131.056C807.531 131.365 807.451 131.723 807.451 132.128C807.451 132.544 807.531 132.912 807.691 133.232C807.862 133.541 808.091 133.787 808.379 133.968C808.678 134.139 809.019 134.224 809.403 134.224ZM811.259 136V133.92L811.595 132.032L811.259 130.176V128.272H813.339V136H811.259ZM818.842 136.16C818.052 136.16 817.343 135.984 816.714 135.632C816.084 135.28 815.588 134.8 815.226 134.192C814.863 133.584 814.682 132.901 814.682 132.144C814.682 131.376 814.863 130.688 815.226 130.08C815.588 129.472 816.084 128.992 816.714 128.64C817.354 128.277 818.063 128.096 818.842 128.096C819.45 128.096 820.01 128.208 820.522 128.432C821.034 128.656 821.476 128.976 821.85 129.392L820.506 130.752C820.303 130.528 820.058 130.357 819.77 130.24C819.492 130.123 819.183 130.064 818.842 130.064C818.458 130.064 818.111 130.155 817.802 130.336C817.503 130.507 817.263 130.747 817.082 131.056C816.911 131.355 816.826 131.712 816.826 132.128C816.826 132.533 816.911 132.896 817.082 133.216C817.263 133.525 817.503 133.771 817.802 133.952C818.111 134.123 818.458 134.208 818.842 134.208C819.194 134.208 819.508 134.149 819.786 134.032C820.074 133.904 820.319 133.723 820.522 133.488L821.882 134.848C821.487 135.275 821.034 135.6 820.522 135.824C820.01 136.048 819.45 136.16 818.842 136.16ZM824.08 136V125.056H826.176V136H824.08ZM822.272 130.112V128.272H827.984V130.112H822.272Z" fill="white" fill-opacity="0.8"/>
<path d="M98 51H762" stroke="white" stroke-opacity="0.2" stroke-width="2" stroke-dasharray="4 4"/>
<circle cx="49.5" cy="48.5" r="48.5" fill="#2D2727"/>
<circle cx="277.5" cy="48.5" r="48.5" fill="#2D2727"/>
<circle cx="505.5" cy="48.5" r="48.5" fill="#2D2727"/>
<circle cx="733.5" cy="48.5" r="48.5" fill="#2D2727"/>
<path fill-rule="evenodd" clip-rule="evenodd" d="M37.795 25.1471C37.2261 25.3531 36.8329 25.6488 36.5113 26.1122C36.1104 26.6901 35.9917 27.2531 35.9917 28.5776V29.7498L33.9444 29.7789C32.0168 29.8062 31.8753 29.8201 31.5253 30.0153C30.9422 30.3406 30.5599 30.7418 30.2936 31.3079L30.0479 31.8302L30.024 39.6737L30 47.5172L30.3013 47.8318C30.7426 48.2924 31.3113 48.2302 31.6184 47.6876C31.752 47.4516 31.765 46.7576 31.765 39.8776C31.765 31.6786 31.7491 31.947 32.2468 31.7103C32.4227 31.6266 35.7123 31.6004 46.0386 31.6004C60.7836 31.6004 59.9576 31.5711 60.1899 32.1034C60.3425 32.4531 60.3425 69.3549 60.1899 69.7045C59.9575 70.2369 60.7843 70.2075 46.0301 70.2075C31.2758 70.2075 32.1026 70.2369 31.8702 69.7045C31.7913 69.5239 31.765 67.5741 31.765 61.9257C31.765 53.7409 31.7808 54.0082 31.2832 53.7715C30.8181 53.5502 30.2798 53.7396 30.1024 54.1869C30.0266 54.3777 30.0062 56.4669 30.024 62.2114C30.0476 69.8874 30.0501 69.9826 30.2333 70.3961C30.5044 71.0076 30.918 71.453 31.4848 71.7435L31.9851 72H46.0301H60.075L60.5753 71.7435C61.143 71.4525 61.557 71.0061 61.8253 70.3961C61.9789 70.0465 62.0143 69.7558 62.0406 68.6279L62.0722 67.2781L64.1115 67.2491C66.0308 67.2218 66.1727 67.2078 66.5226 67.0127C67.1057 66.6874 67.488 66.2862 67.7543 65.7201L68 65.1978V46.124V27.0503L67.8146 26.632C67.5435 26.0204 67.1299 25.575 66.5631 25.2845L66.0628 25.028L52.1499 25.0074C39.1202 24.9882 38.209 24.997 37.795 25.1471ZM65.8299 26.9515C65.9634 27.0235 66.1198 27.1909 66.1777 27.3235C66.3303 27.6732 66.3303 64.5749 66.1777 64.9246C65.9803 65.377 65.7435 65.4276 63.8226 65.4276H62.0581L62.0352 48.6289L62.0122 31.8302L61.8268 31.4119C61.5667 30.8251 61.1353 30.3435 60.6112 30.0549L60.163 29.8079L48.9579 29.7836L37.7528 29.7592L37.7559 28.6346C37.7592 27.4296 37.8294 27.1647 38.2028 26.9488C38.5287 26.7601 65.4803 26.7628 65.8299 26.9515ZM44.5331 35.3267C40.5978 35.9762 37.5372 39.0932 36.6841 43.3204C36.5406 44.0317 36.5406 46.1941 36.6841 46.9054C37.3469 50.1892 39.2604 52.7443 42.0842 54.1156C45.5678 55.8074 49.7313 55.0881 52.556 52.3063C52.8933 51.9742 53.3678 51.4298 53.6105 51.0964C54.2253 50.2521 54.9656 48.6459 55.2457 47.5488C55.4549 46.7296 55.4805 46.4646 55.4805 45.1129C55.4805 43.7687 55.4543 43.494 55.2506 42.6975C54.8278 41.0446 54.0158 39.5119 52.921 38.3004C50.781 35.9324 47.6306 34.8155 44.5331 35.3267ZM47.9233 37.2861C50.7152 38.0649 52.792 40.2171 53.5227 43.0887C54.0596 45.1986 53.6795 47.6588 52.536 49.4744L52.1505 50.0864L51.8872 49.7368C51.0787 48.6638 50.0495 47.7674 49.1348 47.3399L48.7828 47.1754L49.1191 46.5948C49.5508 45.8494 49.6711 45.2274 49.6224 43.9933C49.5865 43.0838 49.5585 42.9553 49.2583 42.3212C47.723 39.0784 43.2074 39.7149 42.4988 43.2741C42.4421 43.5589 42.4172 44.1603 42.4416 44.6529C42.4891 45.6104 42.6882 46.2852 43.0826 46.8249C43.2121 47.0022 43.3042 47.1569 43.2872 47.1686C43.2702 47.1804 42.9863 47.33 42.6565 47.5009C41.7449 47.9735 40.478 49.1686 40.058 49.952C39.9759 50.1054 39.9568 50.1009 39.7882 49.89C39.4572 49.4759 38.7203 47.8356 38.5299 47.0892C38.2636 46.0453 38.2641 44.1768 38.531 43.1366C38.9416 41.5361 39.957 39.87 41.121 38.8865C42.1485 38.0184 43.6316 37.3236 44.9131 37.11C45.5989 36.9957 47.2226 37.0906 47.9233 37.2861ZM46.9786 42.3246C47.1855 42.4482 47.4629 42.7196 47.595 42.9278C47.8053 43.2593 47.839 43.4136 47.8658 44.1674C47.8935 44.9452 47.8743 45.0757 47.6666 45.5187C47.3538 46.1862 46.8777 46.516 46.1549 46.566C45.7405 46.5947 45.5413 46.5612 45.2744 46.4179C44.4961 46.0002 44.1809 45.3916 44.1809 44.3066C44.1809 43.7136 44.2216 43.5009 44.4118 43.1025C44.9008 42.0782 46.0052 41.7435 46.9786 42.3246ZM47.0426 48.5595C47.8815 48.7155 48.9576 49.2472 49.5884 49.8173C50.038 50.2237 50.7851 51.2118 50.7851 51.4002C50.7851 51.5596 49.7352 52.2524 49.0402 52.5516C47.9107 53.0378 47.3284 53.1509 45.986 53.1449C44.9117 53.1402 44.6537 53.108 43.9786 52.8942C42.8865 52.5483 41.2736 51.6632 41.2759 51.411C41.2764 51.3596 41.4816 51.0328 41.7321 50.6847C42.2421 49.9758 42.9945 49.3476 43.7846 48.971C44.243 48.7525 44.5069 48.6751 45.4577 48.4796C45.8197 48.4052 46.3592 48.4324 47.0426 48.5595ZM30.4538 50.1131C29.9343 50.4137 29.8654 51.0535 30.3033 51.5107C30.7426 51.9693 31.3119 51.906 31.6184 51.3645C32.0766 50.5547 31.2416 49.6572 30.4538 50.1131ZM36.3781 57.0602C36.2758 57.1037 36.1074 57.2518 36.0038 57.3892C35.8242 57.6276 35.8156 57.7338 35.8156 59.6995C35.8156 61.8814 35.863 62.1747 36.251 62.3914C36.4862 62.5229 55.5739 62.5229 55.8091 62.3914C56.1974 62.1745 56.2445 61.8822 56.2445 59.6885V57.6172L55.9876 57.317L55.7306 57.0168L46.1473 56.9989C40.8765 56.9892 36.4804 57.0168 36.3781 57.0602ZM54.4834 59.7285V60.6477H46.0301H37.5767V59.7285V58.8092H46.0301H54.4834V59.7285ZM40.5148 64.947C40.0644 65.328 40.0151 65.8416 40.3873 66.2764L40.6442 66.5766H46.0301H51.4159L51.6828 66.2648C51.9146 65.994 51.9433 65.9035 51.9011 65.5756C51.8689 65.3244 51.7755 65.1289 51.6221 64.9912L51.3916 64.7841L46.0471 64.7862C41.1163 64.7881 40.6881 64.8005 40.5148 64.947Z" fill="#E49B00"/>
<path fill-rule="evenodd" clip-rule="evenodd" d="M256.387 27.1574C254.402 27.6391 252.73 29.3639 252.314 31.3572C252.23 31.7632 252.193 36.1542 252.193 45.9933V60.0496H251.542C250.76 60.0496 250.371 60.2084 250.162 60.6126C249.967 60.9906 249.939 65.7357 250.127 66.6373C250.554 68.688 252.309 70.4439 254.358 70.8716C255.179 71.0428 300.821 71.0428 301.642 70.8716C303.691 70.4439 305.446 68.688 305.873 66.6373C306.061 65.7357 306.033 60.9906 305.838 60.6126C305.629 60.2084 305.24 60.0496 304.458 60.0496H303.807V45.9933C303.807 36.1542 303.77 31.7632 303.686 31.3572C303.259 29.3065 301.504 27.5506 299.455 27.1229C298.57 26.9382 257.153 26.9714 256.387 27.1574ZM299.465 29.4103C300.26 29.7083 300.889 30.2745 301.258 31.0264L301.565 31.6528L301.594 45.8512L301.623 60.0496H300.309H298.995V46.3655C298.995 31.4928 299.026 32.2345 298.397 31.9477C298.183 31.8503 296.145 31.8169 290.401 31.8169C282.032 31.8169 282.237 31.8023 281.958 32.4157C281.793 32.7786 281.793 33.0438 281.958 33.4067C282.236 34.0168 282.089 34.0055 289.75 34.0055H296.808V47.0275V60.0496H293.42H290.033L289.982 59.8034C289.954 59.6679 289.899 59.2622 289.859 58.9017C289.763 58.0226 289.338 56.5862 288.88 55.5949C287.747 53.1406 285.614 50.9774 283.168 49.8029L282.143 49.3105L282.537 48.874C283.162 48.1823 283.66 47.3298 283.958 46.4423C284.201 45.7157 284.233 45.4406 284.232 44.0537C284.231 43.0346 284.175 42.2774 284.072 41.8893C283.476 39.6482 281.559 37.8101 279.323 37.3358C276.058 36.6433 272.788 38.6571 271.928 41.8893C271.825 42.2774 271.769 43.0346 271.768 44.0537C271.767 45.4478 271.798 45.7135 272.047 46.457C272.333 47.3087 273.052 48.5106 273.562 48.9889C273.873 49.281 273.921 49.435 273.701 49.435C273.622 49.435 273.136 49.6502 272.621 49.9132C270.231 51.1337 268.221 53.209 267.12 55.5949C266.662 56.5862 266.237 58.0226 266.141 58.9017C266.101 59.2622 266.046 59.6679 266.018 59.8034L265.967 60.0496H262.58H259.192V47.0275V34.0055H266.24C271.471 34.0055 273.362 33.9718 273.574 33.8747C273.888 33.7318 274.173 33.273 274.173 32.9112C274.173 32.5494 273.888 32.0906 273.574 31.9477C273.361 31.8503 271.323 31.8169 265.578 31.8169C257.21 31.8169 257.415 31.8023 257.135 32.4157C257.036 32.6332 257.005 36.008 257.005 46.3761V60.0496H255.691H254.377L254.406 45.8512L254.435 31.6528L254.742 31.0264C255.105 30.2875 255.734 29.7121 256.504 29.4157C257.048 29.2065 257.498 29.2019 277.969 29.1963C298.645 29.1907 298.884 29.193 299.465 29.4103ZM277.465 31.9697C276.517 32.4955 276.914 34.0055 278 34.0055C278.554 34.0055 279.094 33.4709 279.094 32.9218C279.094 32.1002 278.186 31.5697 277.465 31.9697ZM279.219 39.5869C280.469 39.9816 281.365 40.8379 281.833 42.0874C282.036 42.6283 282.06 42.8888 282.028 44.1824C281.995 45.5276 281.965 45.7138 281.694 46.2651C281.531 46.5982 281.163 47.1046 280.878 47.3904C278.888 49.3809 275.555 48.8101 274.306 46.2651C274.035 45.7138 274.005 45.5276 273.972 44.1824C273.94 42.8888 273.964 42.6283 274.167 42.0874C274.629 40.8554 275.524 39.9884 276.742 39.5928C277.594 39.3165 278.356 39.3146 279.219 39.5869ZM276.906 52.4527V54.0478L277.226 54.3677C277.645 54.7874 278.282 54.811 278.732 54.4237L279.039 54.1599L279.074 52.5087L279.109 50.8574L279.566 50.9268C280.963 51.1386 282.807 51.9483 283.995 52.8716C286.027 54.4505 287.422 56.8666 287.714 59.3109L287.802 60.0496H278H268.198L268.286 59.3109C268.716 55.7093 271.41 52.4717 274.946 51.3082C275.59 51.0962 276.396 50.9023 276.77 50.8696C276.873 50.8604 276.906 51.2432 276.906 52.4527ZM303.788 64.29C303.753 66.2787 303.743 66.3608 303.447 66.9635C303.101 67.6679 302.571 68.1819 301.844 68.5187L301.346 68.7492L278.143 68.7775C255.108 68.8057 254.936 68.8043 254.351 68.5852C253.553 68.2862 252.925 67.7208 252.555 66.9681C252.257 66.3598 252.247 66.2825 252.212 64.29L252.176 62.2382H278H303.824L303.788 64.29ZM273.228 64.5334C272.579 64.8003 272.433 65.7666 272.961 66.2955L273.281 66.6153H278H282.719L283.039 66.2955C283.458 65.8757 283.482 65.239 283.094 64.7885L282.831 64.4815L278.146 64.4592C275.57 64.4471 273.357 64.4805 273.228 64.5334Z" fill="#E49B00"/>
<path fill-rule="evenodd" clip-rule="evenodd" d="M710.552 25.0839C710.451 25.1253 710.285 25.251 710.184 25.3634C710.001 25.5665 710 25.697 710 48.529V71.4905L710.255 71.7452L710.51 72H728.533H746.557L746.811 71.7452L747.067 71.4905V63.7297V55.9689L746.814 55.7162C746.437 55.3403 745.899 55.3594 745.54 55.7616L745.273 56.0596V63.1338V70.2081H728.533H711.794V48.5215V26.8349H723.061H734.328L734.329 31.6822C734.329 34.3483 734.355 36.6844 734.387 36.8735C734.418 37.0627 734.547 37.3212 734.674 37.4478L734.905 37.6782H740.089H745.273V43.014C745.273 46.7628 745.304 48.4095 745.376 48.5505C745.542 48.8745 745.848 49.0688 746.193 49.0688C746.538 49.0688 746.844 48.8745 747.01 48.5505C747.082 48.4089 747.113 46.6285 747.113 42.504C747.113 37.6013 747.091 36.6182 746.981 36.4101C746.821 36.1101 735.93 25.2426 735.645 25.0985C735.404 24.9772 710.848 24.9629 710.552 25.0839ZM752.703 25.1571C752.507 25.2781 752.114 26.0285 750.909 28.5776L749.366 31.843V51.1935V70.5441L749.644 70.994C749.817 71.2728 750.094 71.5495 750.373 71.7219L750.823 72H753.183H755.543L755.993 71.7219C756.272 71.5495 756.549 71.2728 756.722 70.994L757 70.5441V51.1935V31.843L755.455 28.5749C754.196 25.9119 753.861 25.2781 753.647 25.1519C753.317 24.957 753.023 24.9586 752.703 25.1571ZM740.122 32.0268L743.939 35.8403H740.099H736.259V32.0268C736.259 29.9293 736.27 28.2132 736.283 28.2132C736.296 28.2132 738.023 29.9293 740.122 32.0268ZM753.945 29.7065L754.642 31.1998L753.913 31.2264C753.511 31.2411 752.855 31.2411 752.453 31.2264L751.724 31.1998L752.421 29.7065C752.805 28.8853 753.147 28.2132 753.183 28.2132C753.218 28.2132 753.561 28.8853 753.945 29.7065ZM755.206 48.8431V64.6027H753.183H751.159V48.8431V33.0835H753.183H755.206V48.8431ZM717.174 34.8245C716.589 35.0639 716.433 35.8307 716.879 36.2768L717.132 36.5295L720.004 36.5565C721.584 36.5713 722.973 36.5594 723.091 36.5298C723.21 36.5003 723.406 36.3684 723.528 36.2367C723.924 35.8103 723.775 35.1201 723.228 34.8403C722.991 34.7191 717.467 34.7048 717.174 34.8245ZM726.05 34.8546C725.704 35.0265 725.468 35.5659 725.594 35.8976C725.819 36.4891 726.342 36.7144 726.864 36.4448C727.203 36.2696 727.338 36.0457 727.338 35.6565C727.338 35.2721 727.204 35.0438 726.88 34.8764C726.555 34.7088 726.354 34.7034 726.05 34.8546ZM717.174 40.338C716.589 40.5775 716.433 41.3443 716.879 41.7904L717.132 42.0431L728.487 42.0671L739.841 42.0911L740.141 41.8238C740.389 41.6023 740.44 41.4901 740.44 41.1701C740.44 40.8503 740.389 40.7378 740.142 40.5175L739.843 40.2512L728.601 40.2569C722.417 40.2602 717.275 40.2966 717.174 40.338ZM717.174 45.8515C716.589 46.091 716.433 46.8579 716.879 47.3039L717.132 47.5566L728.487 47.5807L739.841 47.6047L740.141 47.3374C740.389 47.1159 740.44 47.0037 740.44 46.6836C740.44 46.3638 740.389 46.2514 740.142 46.031L739.843 45.7647L728.601 45.7705C722.417 45.7737 717.275 45.8102 717.174 45.8515ZM717.174 51.3651C716.589 51.6046 716.433 52.3714 716.879 52.8175L717.132 53.0702L728.487 53.0942L739.841 53.1182L740.141 52.8509C740.389 52.6294 740.44 52.5172 740.44 52.1972C740.44 51.8774 740.389 51.7649 740.142 51.5446L739.843 51.2783L728.601 51.284C722.417 51.2873 717.275 51.3237 717.174 51.3651ZM745.861 51.3648C745.569 51.4878 745.273 51.9126 745.273 52.2081C745.273 52.3672 745.378 52.587 745.54 52.7679C746.093 53.3867 747.062 53.0234 747.062 52.1972C747.062 51.5868 746.408 51.1339 745.861 51.3648ZM717.174 56.8786C716.589 57.1181 716.433 57.885 716.879 58.331L717.132 58.5837L728.487 58.6078L739.841 58.6318L740.141 58.3644C740.389 58.143 740.44 58.0308 740.44 57.7107C740.44 57.3909 740.389 57.2785 740.142 57.0581L739.843 56.7918L728.601 56.7976C722.417 56.8008 717.275 56.8373 717.174 56.8786ZM717.174 62.3922C716.589 62.6317 716.433 63.3985 716.879 63.8445L717.132 64.0972L728.487 64.1213L739.841 64.1453L740.141 63.878C740.389 63.6565 740.44 63.5443 740.44 63.2243C740.44 62.9045 740.389 62.792 740.142 62.5717L739.843 62.3053L728.601 62.3111C722.417 62.3143 717.275 62.3508 717.174 62.3922ZM755.206 68.214C755.206 69.4709 755.174 70.0197 755.096 70.0978C754.94 70.2536 751.426 70.2536 751.27 70.0978C751.192 70.0197 751.159 69.4709 751.159 68.214V66.4405H753.183H755.206V68.214Z" fill="#E49B00"/>
<path fill-rule="evenodd" clip-rule="evenodd" d="M501.525 25.12C500.061 25.4765 498.813 26.679 498.378 28.1543L498.26 28.5528H496.601C494.792 28.5528 494.293 28.6411 493.746 29.058C493.268 29.4226 492.943 30.1529 492.943 30.8648V31.4523L489.764 31.4793C486.204 31.5096 486.294 31.4918 486.097 32.2001C485.966 32.674 485.968 71.7904 486.1 72.2646C486.153 72.4556 486.308 72.6992 486.443 72.8059L486.69 73L503.253 72.9705C519.779 72.941 519.817 72.9406 520.612 72.7417C522.942 72.1595 524.727 71.1997 526.315 69.6758C528.737 67.3526 529.999 64.4105 530 61.0879C530 59.0071 529.609 57.3732 528.678 55.5664C526.94 52.1945 523.524 49.7541 519.839 49.2508L519.018 49.1388V47.1858C519.018 45.061 518.969 44.8157 518.505 44.6042C518.113 44.4258 517.824 44.472 517.495 44.7656L517.189 45.039L517.16 47.0862L517.132 49.1333L516.162 49.292C512.017 49.9694 508.386 52.9736 506.892 56.9624C506.377 58.3365 506.225 59.2383 506.22 60.9472C506.213 63.1435 506.53 64.5461 507.445 66.3702C508.281 68.037 509.542 69.5545 510.989 70.6365L511.636 71.1203H499.757H487.878V52.2275V33.3346H490.411H492.943V33.816C492.943 34.7923 493.396 35.5662 494.192 35.9517C494.593 36.1455 494.677 36.1475 502.516 36.1465L510.436 36.1456L510.916 35.9222C511.692 35.561 512.171 34.7288 512.171 33.7416V33.3346H514.656H517.142V35.3595C517.142 37.0803 517.165 37.424 517.298 37.6486C517.615 38.1843 518.309 38.2773 518.744 37.8424L519.018 37.5683L519.016 34.8186C519.014 32.3549 518.997 32.048 518.852 31.8689C518.532 31.4744 518.399 31.4594 515.238 31.4594H512.196L512.151 30.8258C512.082 29.8708 511.682 29.221 510.905 28.8026C510.567 28.6211 510.342 28.5959 508.672 28.5533L506.814 28.5059L506.608 27.894C505.912 25.8229 503.668 24.5985 501.525 25.12ZM503.719 27.1968C504.51 27.627 504.883 28.2476 504.987 29.3029C505.037 29.8204 505.089 29.9513 505.327 30.1702L505.608 30.428H507.839C509.449 30.428 510.101 30.4594 510.183 30.5406C510.312 30.6699 510.344 33.9567 510.217 34.1556C510.158 34.2488 508.553 34.2684 502.504 34.2494L494.866 34.2254L494.84 32.4561C494.823 31.2304 494.848 30.647 494.922 30.5574C495.008 30.454 495.481 30.428 497.276 30.428H499.523L499.797 30.154C500.017 29.9342 500.072 29.7982 500.072 29.4677C500.072 29.2411 500.138 28.8319 500.219 28.5584C500.402 27.9442 501.063 27.2445 501.671 27.0214C502.282 26.7972 503.116 26.8687 503.719 27.1968ZM517.47 40.593C517.151 40.912 517.085 41.2585 517.271 41.6476C517.448 42.0181 517.898 42.2507 518.292 42.1753C518.66 42.105 519.018 41.6455 519.018 41.243C519.018 40.4903 518 40.0629 517.47 40.593ZM493.73 42.3331C493.119 42.5821 492.946 43.3846 493.405 43.8431L493.679 44.1171H502.648C512.573 44.1171 512.053 44.1495 512.261 43.5188C512.394 43.1158 512.315 42.7904 512.015 42.5087L511.781 42.2888L502.854 42.2706C497.945 42.2606 493.839 42.2887 493.73 42.3331ZM493.73 49.1784C493.12 49.4249 492.946 50.2291 493.405 50.6876L493.679 50.9617H500.541H507.402L507.676 50.6876C508.13 50.234 508.007 49.505 507.431 49.2316C507.163 49.1047 506.297 49.0872 500.526 49.0924C496.897 49.0957 493.839 49.1344 493.73 49.1784ZM519.252 51.0657C523.719 51.6129 527.237 54.9543 528.024 59.3965C528.176 60.2568 528.151 62.0288 527.973 62.9546C527.242 66.7582 524.378 69.7949 520.565 70.8076C519.731 71.0293 519.457 71.0568 518.08 71.0568C516.714 71.0568 516.426 71.0284 515.63 70.8157C511.315 69.6631 508.273 65.9322 508.07 61.5444C507.984 59.6836 508.313 58.1799 509.176 56.4936C510.848 53.2276 514.278 51.0787 517.986 50.9742C518.218 50.9676 518.788 51.0088 519.252 51.0657ZM517.818 53.1393C517.472 53.229 517.143 53.6765 517.142 54.0583C517.142 54.2598 517.052 54.3345 516.542 54.5565C516.213 54.7001 515.774 54.9616 515.569 55.1376C514.548 56.0107 514.091 57.5354 514.468 58.8053C514.732 59.6929 515.415 60.3863 516.598 60.9664L517.132 61.2285L517.137 63.7014L517.142 66.1744L516.837 66.1145C516.669 66.0816 516.19 65.8841 515.772 65.6758C514.925 65.2541 514.691 65.2512 514.285 65.6573C513.922 66.0201 513.952 66.5553 514.357 66.9369C514.791 67.3455 515.786 67.8089 516.521 67.9443C517.116 68.0538 517.142 68.0699 517.142 68.3284C517.142 68.7207 517.383 69.1259 517.722 69.3007C517.963 69.4256 518.08 69.4343 518.366 69.3485C518.804 69.2173 519.018 68.8993 519.018 68.3796C519.018 67.9779 519.02 67.9758 519.51 67.8023C521.373 67.1438 522.554 65.2016 522.286 63.2399C522.085 61.7717 521.232 60.8746 519.276 60.0725L519.018 59.9668V58.0895C519.018 56.6663 519.046 56.2123 519.133 56.2123C519.197 56.2123 519.496 56.3648 519.798 56.5513C520.255 56.8331 520.406 56.8812 520.691 56.8358C521.375 56.7269 521.702 55.8927 521.273 55.3479C521.049 55.0639 519.927 54.4608 519.429 54.3574C519.102 54.2895 519.061 54.248 519.01 53.9326C518.946 53.5381 518.635 53.1564 518.33 53.0983C518.218 53.0769 517.988 53.0953 517.818 53.1393ZM493.73 56.0216C493.119 56.2726 492.946 57.0737 493.405 57.5322L493.679 57.8062H498.383H503.087L503.362 57.5322C503.736 57.158 503.736 56.7026 503.362 56.2841L503.088 55.9779L498.508 55.959C495.989 55.9486 493.839 55.9768 493.73 56.0216ZM517.122 58.4298L517.095 59.1471L516.787 58.8874C516.018 58.2394 516.019 57.2868 516.789 56.5663L517.095 56.2798L517.122 56.9961C517.138 57.3901 517.138 58.0353 517.122 58.4298ZM519.546 62.2624C520.538 62.8431 520.735 64.2918 519.957 65.2803C519.751 65.5411 519.218 65.9634 519.093 65.9634C519.052 65.9634 519.018 65.0774 519.018 63.9945C519.018 62.9115 519.046 62.0255 519.08 62.0255C519.114 62.0255 519.324 62.1321 519.546 62.2624ZM493.814 62.8396C493.7 62.8627 493.499 63.0086 493.369 63.1639C493.034 63.5613 493.048 64.0197 493.405 64.3767L493.679 64.6508H498.383H503.087L503.362 64.3767C503.736 64.0025 503.736 63.5471 503.362 63.1287L503.089 62.8224L498.555 62.8101C496.062 62.8033 493.928 62.8165 493.814 62.8396Z" fill="#E49B00"/>
</svg>
