<svg width="317" height="361" viewBox="0 0 317 361" fill="none" xmlns="http://www.w3.org/2000/svg">
<path d="M99.5105 37V25.752H101.638V37H99.5105ZM96.7265 27.64V25.752H101.414V27.64H96.7265ZM96.7265 37V35.112H103.894V37H96.7265ZM107.316 37.16C106.932 37.16 106.617 37.032 106.372 36.776C106.127 36.52 106.004 36.2053 106.004 35.832C106.004 35.4587 106.127 35.144 106.372 34.888C106.617 34.632 106.932 34.504 107.316 34.504C107.689 34.504 107.999 34.632 108.244 34.888C108.489 35.144 108.612 35.4587 108.612 35.832C108.612 36.2053 108.489 36.52 108.244 36.776C107.999 37.032 107.689 37.16 107.316 37.16ZM119.416 37.16C118.509 37.16 117.731 37.0053 117.08 36.696C116.44 36.3867 115.859 35.9227 115.336 35.304L116.776 33.864C117.107 34.3013 117.491 34.6427 117.928 34.888C118.365 35.1227 118.899 35.24 119.528 35.24C120.093 35.24 120.541 35.128 120.872 34.904C121.213 34.68 121.384 34.3707 121.384 33.976C121.384 33.6347 121.288 33.3573 121.096 33.144C120.904 32.9307 120.648 32.7493 120.328 32.6C120.019 32.4507 119.672 32.3173 119.288 32.2C118.915 32.072 118.536 31.928 118.152 31.768C117.779 31.608 117.432 31.4107 117.112 31.176C116.803 30.9307 116.552 30.6213 116.36 30.248C116.168 29.864 116.072 29.384 116.072 28.808C116.072 28.1253 116.237 27.544 116.568 27.064C116.899 26.584 117.352 26.216 117.928 25.96C118.504 25.704 119.155 25.576 119.88 25.576C120.648 25.576 121.341 25.72 121.96 26.008C122.579 26.296 123.085 26.6693 123.48 27.128L122.04 28.568C121.709 28.2053 121.368 27.9387 121.016 27.768C120.675 27.5973 120.285 27.512 119.848 27.512C119.347 27.512 118.952 27.608 118.664 27.8C118.376 27.992 118.232 28.2693 118.232 28.632C118.232 28.9413 118.328 29.192 118.52 29.384C118.712 29.576 118.963 29.7413 119.272 29.88C119.592 30.0187 119.939 30.152 120.312 30.28C120.696 30.408 121.075 30.552 121.448 30.712C121.832 30.872 122.179 31.08 122.488 31.336C122.808 31.592 123.064 31.9227 123.256 32.328C123.448 32.7227 123.544 33.2133 123.544 33.8C123.544 34.8453 123.176 35.6667 122.44 36.264C121.704 36.8613 120.696 37.16 119.416 37.16ZM130.237 37V32.568C130.237 32.1093 130.093 31.736 129.805 31.448C129.517 31.16 129.144 31.016 128.685 31.016C128.387 31.016 128.12 31.08 127.885 31.208C127.651 31.336 127.464 31.5173 127.325 31.752C127.197 31.9867 127.133 32.2587 127.133 32.568L126.317 32.152C126.317 31.544 126.445 31.016 126.701 30.568C126.957 30.1093 127.309 29.752 127.757 29.496C128.216 29.24 128.739 29.112 129.325 29.112C129.912 29.112 130.429 29.24 130.877 29.496C131.336 29.752 131.693 30.104 131.949 30.552C132.205 31 132.333 31.5173 132.333 32.104V37H130.237ZM125.037 37V25.432H127.133V37H125.037ZM137.254 37.16C136.55 37.16 135.915 36.984 135.35 36.632C134.784 36.28 134.342 35.8 134.022 35.192C133.702 34.584 133.542 33.9013 133.542 33.144C133.542 32.376 133.702 31.688 134.022 31.08C134.342 30.472 134.784 29.992 135.35 29.64C135.915 29.288 136.55 29.112 137.254 29.112C137.808 29.112 138.304 29.224 138.742 29.448C139.179 29.672 139.526 29.9867 139.782 30.392C140.048 30.7867 140.192 31.2347 140.214 31.736V34.52C140.192 35.032 140.048 35.4853 139.782 35.88C139.526 36.2747 139.179 36.5893 138.742 36.824C138.304 37.048 137.808 37.16 137.254 37.16ZM137.638 35.224C138.224 35.224 138.699 35.032 139.062 34.648C139.424 34.2533 139.606 33.7467 139.606 33.128C139.606 32.7227 139.52 32.3653 139.35 32.056C139.19 31.736 138.96 31.4907 138.662 31.32C138.374 31.1387 138.032 31.048 137.638 31.048C137.254 31.048 136.912 31.1387 136.614 31.32C136.326 31.4907 136.096 31.736 135.926 32.056C135.766 32.3653 135.686 32.7227 135.686 33.128C135.686 33.544 135.766 33.912 135.926 34.232C136.096 34.5413 136.326 34.7867 136.614 34.968C136.912 35.1387 137.254 35.224 137.638 35.224ZM139.494 37V34.92L139.83 33.032L139.494 31.176V29.272H141.574V37H139.494ZM143.428 37V29.272H145.524V37H143.428ZM145.524 32.728L144.708 32.184C144.804 31.2347 145.081 30.488 145.54 29.944C145.999 29.3893 146.66 29.112 147.524 29.112C147.897 29.112 148.233 29.176 148.532 29.304C148.831 29.4213 149.103 29.6187 149.348 29.896L148.036 31.4C147.919 31.272 147.775 31.176 147.604 31.112C147.444 31.048 147.257 31.016 147.044 31.016C146.596 31.016 146.228 31.16 145.94 31.448C145.663 31.7253 145.524 32.152 145.524 32.728ZM153.562 37.16C152.751 37.16 152.031 36.9893 151.402 36.648C150.772 36.296 150.271 35.816 149.898 35.208C149.535 34.6 149.354 33.9067 149.354 33.128C149.354 32.36 149.53 31.6773 149.882 31.08C150.244 30.472 150.735 29.992 151.354 29.64C151.972 29.2773 152.66 29.096 153.418 29.096C154.164 29.096 154.82 29.2667 155.386 29.608C155.962 29.9387 156.41 30.3973 156.73 30.984C157.06 31.56 157.226 32.216 157.226 32.952C157.226 33.0907 157.215 33.2347 157.194 33.384C157.183 33.5227 157.156 33.6827 157.114 33.864L150.618 33.88V32.312L156.138 32.296L155.29 32.952C155.268 32.4933 155.183 32.1093 155.034 31.8C154.895 31.4907 154.687 31.256 154.41 31.096C154.143 30.9253 153.812 30.84 153.418 30.84C153.002 30.84 152.639 30.936 152.33 31.128C152.02 31.3093 151.78 31.5707 151.61 31.912C151.45 32.2427 151.37 32.6373 151.37 33.096C151.37 33.5653 151.455 33.976 151.626 34.328C151.807 34.6693 152.063 34.936 152.394 35.128C152.724 35.3093 153.108 35.4 153.546 35.4C153.94 35.4 154.298 35.336 154.618 35.208C154.938 35.0693 155.215 34.8667 155.45 34.6L156.682 35.832C156.308 36.2693 155.85 36.6 155.306 36.824C154.772 37.048 154.191 37.16 153.562 37.16ZM164.079 37.064L160.847 29.272L163.119 29.272L165.263 35.224H164.495L166.719 29.272H169.007L165.567 37.048L164.079 37.064ZM161.935 40.232L164.287 35.256L165.567 37.048L164.159 40.232H161.935ZM173.357 37.16C172.578 37.16 171.874 36.984 171.245 36.632C170.626 36.2693 170.13 35.784 169.757 35.176C169.394 34.5573 169.213 33.8693 169.213 33.112C169.213 32.3547 169.394 31.6773 169.757 31.08C170.12 30.472 170.616 29.992 171.245 29.64C171.874 29.2773 172.573 29.096 173.341 29.096C174.13 29.096 174.834 29.2773 175.453 29.64C176.082 29.992 176.578 30.472 176.941 31.08C177.304 31.6773 177.485 32.3547 177.485 33.112C177.485 33.8693 177.304 34.5573 176.941 35.176C176.578 35.784 176.082 36.2693 175.453 36.632C174.834 36.984 174.136 37.16 173.357 37.16ZM173.341 35.208C173.736 35.208 174.082 35.1227 174.381 34.952C174.69 34.7707 174.925 34.5253 175.085 34.216C175.256 33.896 175.341 33.5333 175.341 33.128C175.341 32.7227 175.256 32.3653 175.085 32.056C174.914 31.7467 174.68 31.5067 174.381 31.336C174.082 31.1547 173.736 31.064 173.341 31.064C172.957 31.064 172.616 31.1547 172.317 31.336C172.018 31.5067 171.784 31.7467 171.613 32.056C171.442 32.3653 171.357 32.7227 171.357 33.128C171.357 33.5333 171.442 33.896 171.613 34.216C171.784 34.5253 172.018 34.7707 172.317 34.952C172.616 35.1227 172.957 35.208 173.341 35.208ZM182.13 37.16C181.448 37.16 180.84 37.016 180.306 36.728C179.784 36.44 179.373 36.04 179.074 35.528C178.776 35.016 178.626 34.424 178.626 33.752V29.272H180.738V33.704C180.738 34.024 180.792 34.3013 180.898 34.536C181.005 34.76 181.165 34.9307 181.378 35.048C181.592 35.1653 181.842 35.224 182.13 35.224C182.568 35.224 182.909 35.0907 183.154 34.824C183.4 34.5573 183.522 34.184 183.522 33.704V29.272H185.618V33.752C185.618 34.4347 185.469 35.032 185.17 35.544C184.882 36.056 184.472 36.456 183.938 36.744C183.416 37.0213 182.813 37.16 182.13 37.16ZM187.287 37V29.272H189.383V37H187.287ZM189.383 32.728L188.567 32.184C188.663 31.2347 188.941 30.488 189.399 29.944C189.858 29.3893 190.519 29.112 191.383 29.112C191.757 29.112 192.093 29.176 192.391 29.304C192.69 29.4213 192.962 29.6187 193.207 29.896L191.895 31.4C191.778 31.272 191.634 31.176 191.463 31.112C191.303 31.048 191.117 31.016 190.903 31.016C190.455 31.016 190.087 31.16 189.799 31.448C189.522 31.7253 189.383 32.152 189.383 32.728ZM199.174 32.296V30.6H201.782C202.315 30.6 202.726 30.4667 203.014 30.2C203.313 29.9227 203.462 29.544 203.462 29.064C203.462 28.6267 203.313 28.264 203.014 27.976C202.726 27.6773 202.315 27.528 201.782 27.528H199.174V25.752H201.974C202.699 25.752 203.334 25.896 203.878 26.184C204.433 26.4613 204.859 26.8453 205.158 27.336C205.467 27.8267 205.622 28.392 205.622 29.032C205.622 29.6933 205.467 30.2693 205.158 30.76C204.859 31.24 204.433 31.6187 203.878 31.896C203.323 32.1627 202.678 32.296 201.942 32.296H199.174ZM197.574 37V25.752H199.75V37H197.574ZM203.718 37L200.006 32.136L202.006 31.512L206.358 37H203.718ZM210.843 37.16C210.032 37.16 209.312 36.9893 208.683 36.648C208.053 36.296 207.552 35.816 207.179 35.208C206.816 34.6 206.635 33.9067 206.635 33.128C206.635 32.36 206.811 31.6773 207.163 31.08C207.525 30.472 208.016 29.992 208.635 29.64C209.253 29.2773 209.941 29.096 210.699 29.096C211.445 29.096 212.101 29.2667 212.667 29.608C213.243 29.9387 213.691 30.3973 214.011 30.984C214.341 31.56 214.507 32.216 214.507 32.952C214.507 33.0907 214.496 33.2347 214.475 33.384C214.464 33.5227 214.437 33.6827 214.395 33.864L207.899 33.88V32.312L213.419 32.296L212.571 32.952C212.549 32.4933 212.464 32.1093 212.315 31.8C212.176 31.4907 211.968 31.256 211.691 31.096C211.424 30.9253 211.093 30.84 210.699 30.84C210.283 30.84 209.92 30.936 209.611 31.128C209.301 31.3093 209.061 31.5707 208.891 31.912C208.731 32.2427 208.651 32.6373 208.651 33.096C208.651 33.5653 208.736 33.976 208.907 34.328C209.088 34.6693 209.344 34.936 209.675 35.128C210.005 35.3093 210.389 35.4 210.827 35.4C211.221 35.4 211.579 35.336 211.899 35.208C212.219 35.0693 212.496 34.8667 212.731 34.6L213.963 35.832C213.589 36.2693 213.131 36.6 212.587 36.824C212.053 37.048 211.472 37.16 210.843 37.16ZM219.035 37.16C218.331 37.16 217.696 36.984 217.131 36.632C216.566 36.28 216.123 35.8 215.803 35.192C215.483 34.584 215.323 33.9013 215.323 33.144C215.323 32.376 215.483 31.688 215.803 31.08C216.123 30.472 216.566 29.992 217.131 29.64C217.696 29.288 218.331 29.112 219.035 29.112C219.59 29.112 220.086 29.224 220.523 29.448C220.96 29.672 221.307 29.9867 221.563 30.392C221.83 30.7867 221.974 31.2347 221.995 31.736V34.52C221.974 35.032 221.83 35.4853 221.563 35.88C221.307 36.2747 220.96 36.5893 220.523 36.824C220.086 37.048 219.59 37.16 219.035 37.16ZM219.419 35.224C220.006 35.224 220.48 35.032 220.843 34.648C221.206 34.2533 221.387 33.7467 221.387 33.128C221.387 32.7227 221.302 32.3653 221.131 32.056C220.971 31.736 220.742 31.4907 220.443 31.32C220.155 31.1387 219.814 31.048 219.419 31.048C219.035 31.048 218.694 31.1387 218.395 31.32C218.107 31.4907 217.878 31.736 217.707 32.056C217.547 32.3653 217.467 32.7227 217.467 33.128C217.467 33.544 217.547 33.912 217.707 34.232C217.878 34.5413 218.107 34.7867 218.395 34.968C218.694 35.1387 219.035 35.224 219.419 35.224ZM221.275 40.232V35.048L221.611 33.176L221.275 31.304V29.272H223.355V40.232H221.275ZM228.505 37.16C227.823 37.16 227.215 37.016 226.681 36.728C226.159 36.44 225.748 36.04 225.449 35.528C225.151 35.016 225.001 34.424 225.001 33.752V29.272H227.113V33.704C227.113 34.024 227.167 34.3013 227.273 34.536C227.38 34.76 227.54 34.9307 227.753 35.048C227.967 35.1653 228.217 35.224 228.505 35.224C228.943 35.224 229.284 35.0907 229.529 34.824C229.775 34.5573 229.897 34.184 229.897 33.704V29.272H231.993V33.752C231.993 34.4347 231.844 35.032 231.545 35.544C231.257 36.056 230.847 36.456 230.313 36.744C229.791 37.0213 229.188 37.16 228.505 37.16ZM233.662 37V29.272H235.774V37L233.662 37ZM234.718 28.024C234.377 28.024 234.094 27.912 233.87 27.688C233.646 27.4533 233.534 27.1653 233.534 26.824C233.534 26.4933 233.646 26.2107 233.87 25.976C234.094 25.7413 234.377 25.624 234.718 25.624C235.07 25.624 235.353 25.7413 235.566 25.976C235.79 26.2107 235.902 26.4933 235.902 26.824C235.902 27.1653 235.79 27.4533 235.566 27.688C235.353 27.912 235.07 28.024 234.718 28.024ZM237.631 37V29.272H239.727V37H237.631ZM239.727 32.728L238.911 32.184C239.007 31.2347 239.284 30.488 239.743 29.944C240.202 29.3893 240.863 29.112 241.727 29.112C242.1 29.112 242.436 29.176 242.735 29.304C243.034 29.4213 243.306 29.6187 243.551 29.896L242.239 31.4C242.122 31.272 241.978 31.176 241.807 31.112C241.647 31.048 241.46 31.016 241.247 31.016C240.799 31.016 240.431 31.16 240.143 31.448C239.866 31.7253 239.727 32.152 239.727 32.728ZM247.765 37.16C246.954 37.16 246.234 36.9893 245.605 36.648C244.975 36.296 244.474 35.816 244.101 35.208C243.738 34.6 243.557 33.9067 243.557 33.128C243.557 32.36 243.733 31.6773 244.085 31.08C244.447 30.472 244.938 29.992 245.557 29.64C246.175 29.2773 246.863 29.096 247.621 29.096C248.367 29.096 249.023 29.2667 249.589 29.608C250.165 29.9387 250.613 30.3973 250.933 30.984C251.263 31.56 251.429 32.216 251.429 32.952C251.429 33.0907 251.418 33.2347 251.397 33.384C251.386 33.5227 251.359 33.6827 251.317 33.864L244.821 33.88V32.312L250.341 32.296L249.493 32.952C249.471 32.4933 249.386 32.1093 249.237 31.8C249.098 31.4907 248.89 31.256 248.613 31.096C248.346 30.9253 248.015 30.84 247.621 30.84C247.205 30.84 246.842 30.936 246.533 31.128C246.223 31.3093 245.983 31.5707 245.813 31.912C245.653 32.2427 245.573 32.6373 245.573 33.096C245.573 33.5653 245.658 33.976 245.829 34.328C246.01 34.6693 246.266 34.936 246.597 35.128C246.927 35.3093 247.311 35.4 247.749 35.4C248.143 35.4 248.501 35.336 248.821 35.208C249.141 35.0693 249.418 34.8667 249.653 34.6L250.885 35.832C250.511 36.2693 250.053 36.6 249.509 36.824C248.975 37.048 248.394 37.16 247.765 37.16ZM252.725 37V29.272H254.821V37H252.725ZM257.765 37V32.44C257.765 31.992 257.621 31.6453 257.333 31.4C257.056 31.144 256.709 31.016 256.293 31.016C256.016 31.016 255.765 31.0747 255.541 31.192C255.317 31.2987 255.141 31.4587 255.013 31.672C254.885 31.8853 254.821 32.1413 254.821 32.44L254.005 32.04C254.005 31.4427 254.133 30.9253 254.389 30.488C254.656 30.0507 255.013 29.7147 255.461 29.48C255.909 29.2347 256.416 29.112 256.981 29.112C257.514 29.112 258 29.2347 258.437 29.48C258.874 29.7147 259.221 30.0507 259.477 30.488C259.733 30.9147 259.861 31.432 259.861 32.04V37H257.765ZM262.805 37V32.44C262.805 31.992 262.661 31.6453 262.373 31.4C262.096 31.144 261.749 31.016 261.333 31.016C261.066 31.016 260.816 31.0747 260.581 31.192C260.357 31.2987 260.181 31.4587 260.053 31.672C259.925 31.8853 259.861 32.1413 259.861 32.44L258.661 32.152C258.704 31.5333 258.869 31 259.157 30.552C259.445 30.0933 259.824 29.7413 260.293 29.496C260.762 29.24 261.285 29.112 261.861 29.112C262.437 29.112 262.954 29.2347 263.413 29.48C263.872 29.7147 264.234 30.056 264.501 30.504C264.768 30.952 264.901 31.4853 264.901 32.104V37H262.805ZM270.296 37.16C269.485 37.16 268.765 36.9893 268.136 36.648C267.507 36.296 267.005 35.816 266.632 35.208C266.269 34.6 266.088 33.9067 266.088 33.128C266.088 32.36 266.264 31.6773 266.616 31.08C266.979 30.472 267.469 29.992 268.088 29.64C268.707 29.2773 269.395 29.096 270.152 29.096C270.899 29.096 271.555 29.2667 272.12 29.608C272.696 29.9387 273.144 30.3973 273.464 30.984C273.795 31.56 273.96 32.216 273.96 32.952C273.96 33.0907 273.949 33.2347 273.928 33.384C273.917 33.5227 273.891 33.6827 273.848 33.864L267.352 33.88V32.312L272.872 32.296L272.024 32.952C272.003 32.4933 271.917 32.1093 271.768 31.8C271.629 31.4907 271.421 31.256 271.144 31.096C270.877 30.9253 270.547 30.84 270.152 30.84C269.736 30.84 269.373 30.936 269.064 31.128C268.755 31.3093 268.515 31.5707 268.344 31.912C268.184 32.2427 268.104 32.6373 268.104 33.096C268.104 33.5653 268.189 33.976 268.36 34.328C268.541 34.6693 268.797 34.936 269.128 35.128C269.459 35.3093 269.843 35.4 270.28 35.4C270.675 35.4 271.032 35.336 271.352 35.208C271.672 35.0693 271.949 34.8667 272.184 34.6L273.416 35.832C273.043 36.2693 272.584 36.6 272.04 36.824C271.507 37.048 270.925 37.16 270.296 37.16ZM280.456 37V32.568C280.456 32.1093 280.312 31.736 280.024 31.448C279.736 31.16 279.363 31.016 278.904 31.016C278.605 31.016 278.339 31.08 278.104 31.208C277.869 31.336 277.683 31.5173 277.544 31.752C277.416 31.9867 277.352 32.2587 277.352 32.568L276.536 32.152C276.536 31.544 276.664 31.016 276.92 30.568C277.187 30.1093 277.549 29.752 278.008 29.496C278.477 29.24 279.005 29.112 279.592 29.112C280.157 29.112 280.664 29.256 281.112 29.544C281.56 29.8213 281.912 30.1893 282.168 30.648C282.424 31.096 282.552 31.5813 282.552 32.104V37H280.456ZM275.256 37V29.272H277.352V37H275.256ZM285.283 37V26.056H287.379V37H285.283ZM283.475 31.112V29.272L289.187 29.272V31.112L283.475 31.112Z" fill="white" fill-opacity="0.8"/>
<path d="M91.416 128.752L95.656 124.32C95.9547 124 96.1947 123.717 96.376 123.472C96.568 123.216 96.7067 122.976 96.792 122.752C96.8773 122.517 96.92 122.283 96.92 122.048C96.92 121.579 96.7653 121.211 96.456 120.944C96.1573 120.677 95.768 120.544 95.288 120.544C94.7973 120.544 94.36 120.672 93.976 120.928C93.6027 121.184 93.2507 121.589 92.92 122.144L91.432 120.88C91.88 120.123 92.4347 119.552 93.096 119.168C93.768 118.773 94.536 118.576 95.4 118.576C96.136 118.576 96.776 118.72 97.32 119.008C97.8747 119.296 98.3013 119.696 98.6 120.208C98.8987 120.72 99.048 121.317 99.048 122C99.048 122.459 98.9893 122.875 98.872 123.248C98.7653 123.621 98.5787 123.995 98.312 124.368C98.056 124.731 97.6987 125.141 97.24 125.6L94.152 128.752H91.416ZM91.416 130V128.752L93.272 128.112H99.288V130H91.416ZM102.212 130.16C101.828 130.16 101.513 130.032 101.268 129.776C101.022 129.52 100.9 129.205 100.9 128.832C100.9 128.459 101.022 128.144 101.268 127.888C101.513 127.632 101.828 127.504 102.212 127.504C102.585 127.504 102.894 127.632 103.14 127.888C103.385 128.144 103.508 128.459 103.508 128.832C103.508 129.205 103.385 129.52 103.14 129.776C102.894 130.032 102.585 130.16 102.212 130.16ZM108.84 130V118.752H111.016V130H108.84ZM110.44 125.392V123.456H116.104V125.392H110.44ZM110.44 120.672V118.752H116.376V120.672H110.44ZM117.866 130V122.272H119.978V130H117.866ZM118.922 121.024C118.58 121.024 118.298 120.912 118.074 120.688C117.85 120.453 117.738 120.165 117.738 119.824C117.738 119.493 117.85 119.211 118.074 118.976C118.298 118.741 118.58 118.624 118.922 118.624C119.274 118.624 119.556 118.741 119.77 118.976C119.994 119.211 120.106 119.493 120.106 119.824C120.106 120.165 119.994 120.453 119.77 120.688C119.556 120.912 119.274 121.024 118.922 121.024ZM127.034 130V125.568C127.034 125.109 126.89 124.736 126.602 124.448C126.314 124.16 125.941 124.016 125.482 124.016C125.184 124.016 124.917 124.08 124.682 124.208C124.448 124.336 124.261 124.517 124.122 124.752C123.994 124.987 123.93 125.259 123.93 125.568L123.114 125.152C123.114 124.544 123.242 124.016 123.498 123.568C123.765 123.109 124.128 122.752 124.586 122.496C125.056 122.24 125.584 122.112 126.17 122.112C126.736 122.112 127.242 122.256 127.69 122.544C128.138 122.821 128.49 123.189 128.746 123.648C129.002 124.096 129.13 124.581 129.13 125.104V130H127.034ZM121.834 130V122.272H123.93V130H121.834ZM134.051 130.16C133.347 130.16 132.712 129.984 132.147 129.632C131.581 129.28 131.139 128.8 130.819 128.192C130.499 127.584 130.339 126.901 130.339 126.144C130.339 125.376 130.499 124.688 130.819 124.08C131.139 123.472 131.581 122.992 132.147 122.64C132.712 122.288 133.347 122.112 134.051 122.112C134.605 122.112 135.101 122.224 135.539 122.448C135.976 122.672 136.323 122.987 136.579 123.392C136.845 123.787 136.989 124.235 137.011 124.736V127.52C136.989 128.032 136.845 128.485 136.579 128.88C136.323 129.275 135.976 129.589 135.539 129.824C135.101 130.048 134.605 130.16 134.051 130.16ZM134.435 128.224C135.021 128.224 135.496 128.032 135.859 127.648C136.221 127.253 136.403 126.747 136.403 126.128C136.403 125.723 136.317 125.365 136.147 125.056C135.987 124.736 135.757 124.491 135.459 124.32C135.171 124.139 134.829 124.048 134.435 124.048C134.051 124.048 133.709 124.139 133.411 124.32C133.123 124.491 132.893 124.736 132.723 125.056C132.563 125.365 132.483 125.723 132.483 126.128C132.483 126.544 132.563 126.912 132.723 127.232C132.893 127.541 133.123 127.787 133.411 127.968C133.709 128.139 134.051 128.224 134.435 128.224ZM136.291 130V127.92L136.627 126.032L136.291 124.176V122.272H138.371V130H136.291ZM140.225 130V118.432H142.321V130H140.225ZM144.178 130V122.272H146.29V130H144.178ZM145.234 121.024C144.893 121.024 144.61 120.912 144.386 120.688C144.162 120.453 144.05 120.165 144.05 119.824C144.05 119.493 144.162 119.211 144.386 118.976C144.61 118.741 144.893 118.624 145.234 118.624C145.586 118.624 145.869 118.741 146.082 118.976C146.306 119.211 146.418 119.493 146.418 119.824C146.418 120.165 146.306 120.453 146.082 120.688C145.869 120.912 145.586 121.024 145.234 121.024ZM147.603 128.8L151.699 123.472H154.227L150.131 128.8H147.603ZM147.603 130V128.8L149.267 128.176H154.131V130H147.603ZM147.891 124.096V122.272H154.227V123.472L152.547 124.096H147.891ZM159.155 130.16C158.345 130.16 157.625 129.989 156.995 129.648C156.366 129.296 155.865 128.816 155.491 128.208C155.129 127.6 154.947 126.907 154.947 126.128C154.947 125.36 155.123 124.677 155.475 124.08C155.838 123.472 156.329 122.992 156.947 122.64C157.566 122.277 158.254 122.096 159.011 122.096C159.758 122.096 160.414 122.267 160.979 122.608C161.555 122.939 162.003 123.397 162.323 123.984C162.654 124.56 162.819 125.216 162.819 125.952C162.819 126.091 162.809 126.235 162.787 126.384C162.777 126.523 162.75 126.683 162.707 126.864L156.211 126.88V125.312L161.731 125.296L160.883 125.952C160.862 125.493 160.777 125.109 160.627 124.8C160.489 124.491 160.281 124.256 160.003 124.096C159.737 123.925 159.406 123.84 159.011 123.84C158.595 123.84 158.233 123.936 157.923 124.128C157.614 124.309 157.374 124.571 157.203 124.912C157.043 125.243 156.963 125.637 156.963 126.096C156.963 126.565 157.049 126.976 157.219 127.328C157.401 127.669 157.657 127.936 157.987 128.128C158.318 128.309 158.702 128.4 159.139 128.4C159.534 128.4 159.891 128.336 160.211 128.208C160.531 128.069 160.809 127.867 161.043 127.6L162.275 128.832C161.902 129.269 161.443 129.6 160.899 129.824C160.366 130.048 159.785 130.16 159.155 130.16ZM168.377 130V119.056H170.473V130H168.377ZM166.569 124.112V122.272H172.281V124.112H166.569ZM178.659 130V125.568C178.659 125.109 178.515 124.736 178.227 124.448C177.939 124.16 177.566 124.016 177.107 124.016C176.809 124.016 176.542 124.08 176.307 124.208C176.073 124.336 175.886 124.517 175.747 124.752C175.619 124.987 175.555 125.259 175.555 125.568L174.739 125.152C174.739 124.544 174.867 124.016 175.123 123.568C175.379 123.109 175.731 122.752 176.179 122.496C176.638 122.24 177.161 122.112 177.747 122.112C178.334 122.112 178.851 122.24 179.299 122.496C179.758 122.752 180.115 123.104 180.371 123.552C180.627 124 180.755 124.517 180.755 125.104V130H178.659ZM173.459 130V118.432H175.555V130H173.459ZM186.14 130.16C185.329 130.16 184.609 129.989 183.98 129.648C183.35 129.296 182.849 128.816 182.476 128.208C182.113 127.6 181.932 126.907 181.932 126.128C181.932 125.36 182.108 124.677 182.46 124.08C182.822 123.472 183.313 122.992 183.932 122.64C184.55 122.277 185.238 122.096 185.996 122.096C186.742 122.096 187.398 122.267 187.964 122.608C188.54 122.939 188.988 123.397 189.308 123.984C189.638 124.56 189.804 125.216 189.804 125.952C189.804 126.091 189.793 126.235 189.772 126.384C189.761 126.523 189.734 126.683 189.692 126.864L183.196 126.88V125.312L188.716 125.296L187.868 125.952C187.846 125.493 187.761 125.109 187.612 124.8C187.473 124.491 187.265 124.256 186.988 124.096C186.721 123.925 186.39 123.84 185.996 123.84C185.58 123.84 185.217 123.936 184.908 124.128C184.598 124.309 184.358 124.571 184.188 124.912C184.028 125.243 183.948 125.637 183.948 126.096C183.948 126.565 184.033 126.976 184.204 127.328C184.385 127.669 184.641 127.936 184.972 128.128C185.302 128.309 185.686 128.4 186.124 128.4C186.518 128.4 186.876 128.336 187.196 128.208C187.516 128.069 187.793 127.867 188.028 127.6L189.26 128.832C188.886 129.269 188.428 129.6 187.884 129.824C187.35 130.048 186.769 130.16 186.14 130.16ZM197.713 130.16C196.806 130.16 196.028 130.005 195.377 129.696C194.737 129.387 194.156 128.923 193.633 128.304L195.073 126.864C195.404 127.301 195.788 127.643 196.225 127.888C196.662 128.123 197.196 128.24 197.825 128.24C198.39 128.24 198.838 128.128 199.169 127.904C199.51 127.68 199.681 127.371 199.681 126.976C199.681 126.635 199.585 126.357 199.393 126.144C199.201 125.931 198.945 125.749 198.625 125.6C198.316 125.451 197.969 125.317 197.585 125.2C197.212 125.072 196.833 124.928 196.449 124.768C196.076 124.608 195.729 124.411 195.409 124.176C195.1 123.931 194.849 123.621 194.657 123.248C194.465 122.864 194.369 122.384 194.369 121.808C194.369 121.125 194.534 120.544 194.865 120.064C195.196 119.584 195.649 119.216 196.225 118.96C196.801 118.704 197.452 118.576 198.177 118.576C198.945 118.576 199.638 118.72 200.257 119.008C200.876 119.296 201.382 119.669 201.777 120.128L200.337 121.568C200.006 121.205 199.665 120.939 199.313 120.768C198.972 120.597 198.582 120.512 198.145 120.512C197.644 120.512 197.249 120.608 196.961 120.8C196.673 120.992 196.529 121.269 196.529 121.632C196.529 121.941 196.625 122.192 196.817 122.384C197.009 122.576 197.26 122.741 197.569 122.88C197.889 123.019 198.236 123.152 198.609 123.28C198.993 123.408 199.372 123.552 199.745 123.712C200.129 123.872 200.476 124.08 200.785 124.336C201.105 124.592 201.361 124.923 201.553 125.328C201.745 125.723 201.841 126.213 201.841 126.8C201.841 127.845 201.473 128.667 200.737 129.264C200.001 129.861 198.993 130.16 197.713 130.16ZM206.92 130.16C206.13 130.16 205.421 129.984 204.792 129.632C204.162 129.28 203.666 128.8 203.304 128.192C202.941 127.584 202.76 126.901 202.76 126.144C202.76 125.376 202.941 124.688 203.304 124.08C203.666 123.472 204.162 122.992 204.792 122.64C205.432 122.277 206.141 122.096 206.92 122.096C207.528 122.096 208.088 122.208 208.6 122.432C209.112 122.656 209.554 122.976 209.928 123.392L208.584 124.752C208.381 124.528 208.136 124.357 207.848 124.24C207.57 124.123 207.261 124.064 206.92 124.064C206.536 124.064 206.189 124.155 205.88 124.336C205.581 124.507 205.341 124.747 205.16 125.056C204.989 125.355 204.904 125.712 204.904 126.128C204.904 126.533 204.989 126.896 205.16 127.216C205.341 127.525 205.581 127.771 205.88 127.952C206.189 128.123 206.536 128.208 206.92 128.208C207.272 128.208 207.586 128.149 207.864 128.032C208.152 127.904 208.397 127.723 208.6 127.488L209.96 128.848C209.565 129.275 209.112 129.6 208.6 129.824C208.088 130.048 207.528 130.16 206.92 130.16ZM214.607 130.16C213.828 130.16 213.124 129.984 212.495 129.632C211.876 129.269 211.38 128.784 211.007 128.176C210.644 127.557 210.463 126.869 210.463 126.112C210.463 125.355 210.644 124.677 211.007 124.08C211.37 123.472 211.866 122.992 212.495 122.64C213.124 122.277 213.823 122.096 214.591 122.096C215.38 122.096 216.084 122.277 216.703 122.64C217.332 122.992 217.828 123.472 218.191 124.08C218.554 124.677 218.735 125.355 218.735 126.112C218.735 126.869 218.554 127.557 218.191 128.176C217.828 128.784 217.332 129.269 216.703 129.632C216.084 129.984 215.386 130.16 214.607 130.16ZM214.591 128.208C214.986 128.208 215.332 128.123 215.631 127.952C215.94 127.771 216.175 127.525 216.335 127.216C216.506 126.896 216.591 126.533 216.591 126.128C216.591 125.723 216.506 125.365 216.335 125.056C216.164 124.747 215.93 124.507 215.631 124.336C215.332 124.155 214.986 124.064 214.591 124.064C214.207 124.064 213.866 124.155 213.567 124.336C213.268 124.507 213.034 124.747 212.863 125.056C212.692 125.365 212.607 125.723 212.607 126.128C212.607 126.533 212.692 126.896 212.863 127.216C213.034 127.525 213.268 127.771 213.567 127.952C213.866 128.123 214.207 128.208 214.591 128.208ZM224.372 130.16C223.818 130.16 223.316 130.048 222.868 129.824C222.42 129.589 222.063 129.275 221.796 128.88C221.53 128.485 221.386 128.032 221.364 127.52V124.784C221.386 124.272 221.53 123.819 221.796 123.424C222.074 123.019 222.431 122.699 222.868 122.464C223.316 122.229 223.818 122.112 224.372 122.112C225.087 122.112 225.727 122.288 226.292 122.64C226.858 122.992 227.3 123.472 227.62 124.08C227.951 124.688 228.116 125.376 228.116 126.144C228.116 126.901 227.951 127.584 227.62 128.192C227.3 128.8 226.858 129.28 226.292 129.632C225.727 129.984 225.087 130.16 224.372 130.16ZM224.004 128.224C224.388 128.224 224.73 128.139 225.028 127.968C225.327 127.787 225.556 127.541 225.716 127.232C225.887 126.912 225.972 126.544 225.972 126.128C225.972 125.723 225.887 125.365 225.716 125.056C225.556 124.736 225.327 124.491 225.028 124.32C224.73 124.139 224.388 124.048 224.004 124.048C223.631 124.048 223.295 124.139 222.996 124.32C222.698 124.491 222.463 124.736 222.292 125.056C222.132 125.365 222.052 125.723 222.052 126.128C222.052 126.544 222.132 126.912 222.292 127.232C222.463 127.541 222.692 127.787 222.98 127.968C223.279 128.139 223.62 128.224 224.004 128.224ZM220.084 133.232V122.272H222.18V124.304L221.828 126.176L222.164 128.048V133.232H220.084ZM233.187 130.16C232.376 130.16 231.656 129.989 231.027 129.648C230.397 129.296 229.896 128.816 229.523 128.208C229.16 127.6 228.979 126.907 228.979 126.128C228.979 125.36 229.155 124.677 229.507 124.08C229.869 123.472 230.36 122.992 230.979 122.64C231.597 122.277 232.285 122.096 233.043 122.096C233.789 122.096 234.445 122.267 235.011 122.608C235.587 122.939 236.035 123.397 236.355 123.984C236.685 124.56 236.851 125.216 236.851 125.952C236.851 126.091 236.84 126.235 236.819 126.384C236.808 126.523 236.781 126.683 236.739 126.864L230.243 126.88V125.312L235.763 125.296L234.915 125.952C234.893 125.493 234.808 125.109 234.659 124.8C234.52 124.491 234.312 124.256 234.035 124.096C233.768 123.925 233.437 123.84 233.043 123.84C232.627 123.84 232.264 123.936 231.955 124.128C231.645 124.309 231.405 124.571 231.235 124.912C231.075 125.243 230.995 125.637 230.995 126.096C230.995 126.565 231.08 126.976 231.251 127.328C231.432 127.669 231.688 127.936 232.019 128.128C232.349 128.309 232.733 128.4 233.171 128.4C233.565 128.4 233.923 128.336 234.243 128.208C234.563 128.069 234.84 127.867 235.075 127.6L236.307 128.832C235.933 129.269 235.475 129.6 234.931 129.824C234.397 130.048 233.816 130.16 233.187 130.16Z" fill="white" fill-opacity="0.8"/>
<path d="M94.984 233.16C94.2267 233.16 93.5333 233.027 92.904 232.76C92.2747 232.483 91.7467 232.088 91.32 231.576L92.76 230.152C92.9733 230.472 93.2773 230.728 93.672 230.92C94.0667 231.112 94.4933 231.208 94.952 231.208C95.3787 231.208 95.7467 231.133 96.056 230.984C96.3653 230.824 96.6053 230.605 96.776 230.328C96.9573 230.04 97.048 229.709 97.048 229.336C97.048 228.941 96.9573 228.605 96.776 228.328C96.6053 228.051 96.3547 227.837 96.024 227.688C95.6933 227.539 95.2987 227.464 94.84 227.464C94.6373 227.464 94.4293 227.48 94.216 227.512C94.0027 227.533 93.8213 227.571 93.672 227.624L94.632 226.408C94.8987 226.323 95.16 226.253 95.416 226.2C95.6827 226.136 95.928 226.104 96.152 226.104C96.728 226.104 97.2453 226.243 97.704 226.52C98.1733 226.787 98.5413 227.171 98.808 227.672C99.0853 228.163 99.224 228.744 99.224 229.416C99.224 230.163 99.048 230.819 98.696 231.384C98.344 231.939 97.848 232.376 97.208 232.696C96.5787 233.005 95.8373 233.16 94.984 233.16ZM93.672 227.624V226.376L96.552 223.032L99.048 223L96.072 226.408L93.672 227.624ZM91.944 223.64V221.752H99.048V223L97.272 223.64H91.944ZM101.774 233.16C101.39 233.16 101.076 233.032 100.83 232.776C100.585 232.52 100.462 232.205 100.462 231.832C100.462 231.459 100.585 231.144 100.83 230.888C101.076 230.632 101.39 230.504 101.774 230.504C102.148 230.504 102.457 230.632 102.702 230.888C102.948 231.144 103.07 231.459 103.07 231.832C103.07 232.205 102.948 232.52 102.702 232.776C102.457 233.032 102.148 233.16 101.774 233.16ZM107.117 233L111.645 221.752H113.421L117.933 233H115.613L112.125 223.768H112.925L109.389 233H107.117ZM109.517 230.904V229.08H115.565V230.904H109.517ZM121.973 236.424C121.151 236.424 120.426 236.275 119.797 235.976C119.167 235.688 118.666 235.277 118.293 234.744L119.621 233.416C119.919 233.768 120.25 234.035 120.613 234.216C120.986 234.408 121.434 234.504 121.957 234.504C122.607 234.504 123.119 234.339 123.493 234.008C123.877 233.677 124.069 233.219 124.069 232.632V230.696L124.421 229L124.085 227.304V225.272H126.165V232.6C126.165 233.368 125.983 234.035 125.621 234.6C125.269 235.176 124.778 235.624 124.149 235.944C123.519 236.264 122.794 236.424 121.973 236.424ZM121.877 232.792C121.183 232.792 120.559 232.627 120.005 232.296C119.45 231.955 119.013 231.491 118.693 230.904C118.383 230.317 118.229 229.661 118.229 228.936C118.229 228.211 118.383 227.56 118.693 226.984C119.013 226.408 119.45 225.955 120.005 225.624C120.559 225.283 121.183 225.112 121.877 225.112C122.453 225.112 122.959 225.224 123.397 225.448C123.845 225.672 124.197 225.981 124.453 226.376C124.709 226.76 124.847 227.213 124.869 227.736V230.168C124.847 230.68 124.703 231.139 124.437 231.544C124.181 231.939 123.829 232.248 123.381 232.472C122.943 232.685 122.442 232.792 121.877 232.792ZM122.293 230.888C122.677 230.888 123.007 230.808 123.285 230.648C123.573 230.477 123.797 230.248 123.957 229.96C124.117 229.661 124.197 229.325 124.197 228.952C124.197 228.568 124.117 228.232 123.957 227.944C123.797 227.656 123.573 227.432 123.285 227.272C123.007 227.101 122.677 227.016 122.293 227.016C121.909 227.016 121.573 227.101 121.285 227.272C120.997 227.432 120.773 227.661 120.613 227.96C120.453 228.248 120.373 228.579 120.373 228.952C120.373 229.315 120.453 229.645 120.613 229.944C120.773 230.232 120.997 230.461 121.285 230.632C121.573 230.803 121.909 230.888 122.293 230.888ZM128.006 233V225.272H130.102V233H128.006ZM130.102 228.728L129.286 228.184C129.382 227.235 129.659 226.488 130.118 225.944C130.577 225.389 131.238 225.112 132.102 225.112C132.475 225.112 132.811 225.176 133.11 225.304C133.409 225.421 133.681 225.619 133.926 225.896L132.614 227.4C132.497 227.272 132.353 227.176 132.182 227.112C132.022 227.048 131.835 227.016 131.622 227.016C131.174 227.016 130.806 227.16 130.518 227.448C130.241 227.725 130.102 228.152 130.102 228.728ZM138.14 233.16C137.329 233.16 136.609 232.989 135.98 232.648C135.35 232.296 134.849 231.816 134.476 231.208C134.113 230.6 133.932 229.907 133.932 229.128C133.932 228.36 134.108 227.677 134.46 227.08C134.822 226.472 135.313 225.992 135.932 225.64C136.55 225.277 137.238 225.096 137.996 225.096C138.742 225.096 139.398 225.267 139.964 225.608C140.54 225.939 140.988 226.397 141.308 226.984C141.638 227.56 141.804 228.216 141.804 228.952C141.804 229.091 141.793 229.235 141.772 229.384C141.761 229.523 141.734 229.683 141.692 229.864L135.196 229.88V228.312L140.716 228.296L139.868 228.952C139.846 228.493 139.761 228.109 139.612 227.8C139.473 227.491 139.265 227.256 138.988 227.096C138.721 226.925 138.39 226.84 137.996 226.84C137.58 226.84 137.217 226.936 136.908 227.128C136.598 227.309 136.358 227.571 136.188 227.912C136.028 228.243 135.948 228.637 135.948 229.096C135.948 229.565 136.033 229.976 136.204 230.328C136.385 230.669 136.641 230.936 136.972 231.128C137.302 231.309 137.686 231.4 138.124 231.4C138.518 231.4 138.876 231.336 139.196 231.208C139.516 231.069 139.793 230.867 140.028 230.6L141.26 231.832C140.886 232.269 140.428 232.6 139.884 232.824C139.35 233.048 138.769 233.16 138.14 233.16ZM146.796 233.16C145.985 233.16 145.265 232.989 144.636 232.648C144.007 232.296 143.505 231.816 143.132 231.208C142.769 230.6 142.588 229.907 142.588 229.128C142.588 228.36 142.764 227.677 143.116 227.08C143.479 226.472 143.969 225.992 144.588 225.64C145.207 225.277 145.895 225.096 146.652 225.096C147.399 225.096 148.055 225.267 148.62 225.608C149.196 225.939 149.644 226.397 149.964 226.984C150.295 227.56 150.46 228.216 150.46 228.952C150.46 229.091 150.449 229.235 150.428 229.384C150.417 229.523 150.391 229.683 150.348 229.864L143.852 229.88V228.312L149.372 228.296L148.524 228.952C148.503 228.493 148.417 228.109 148.268 227.8C148.129 227.491 147.921 227.256 147.644 227.096C147.377 226.925 147.047 226.84 146.652 226.84C146.236 226.84 145.873 226.936 145.564 227.128C145.255 227.309 145.015 227.571 144.844 227.912C144.684 228.243 144.604 228.637 144.604 229.096C144.604 229.565 144.689 229.976 144.86 230.328C145.041 230.669 145.297 230.936 145.628 231.128C145.959 231.309 146.343 231.4 146.78 231.4C147.175 231.4 147.532 231.336 147.852 231.208C148.172 231.069 148.449 230.867 148.684 230.6L149.916 231.832C149.543 232.269 149.084 232.6 148.54 232.824C148.007 233.048 147.425 233.16 146.796 233.16ZM158.513 233.16C157.734 233.16 157.03 232.984 156.401 232.632C155.782 232.269 155.286 231.784 154.913 231.176C154.55 230.557 154.369 229.869 154.369 229.112C154.369 228.355 154.55 227.677 154.913 227.08C155.276 226.472 155.772 225.992 156.401 225.64C157.03 225.277 157.729 225.096 158.497 225.096C159.286 225.096 159.99 225.277 160.609 225.64C161.238 225.992 161.734 226.472 162.097 227.08C162.46 227.677 162.641 228.355 162.641 229.112C162.641 229.869 162.46 230.557 162.097 231.176C161.734 231.784 161.238 232.269 160.609 232.632C159.99 232.984 159.292 233.16 158.513 233.16ZM158.497 231.208C158.892 231.208 159.238 231.123 159.537 230.952C159.846 230.771 160.081 230.525 160.241 230.216C160.412 229.896 160.497 229.533 160.497 229.128C160.497 228.723 160.412 228.365 160.241 228.056C160.07 227.747 159.836 227.507 159.537 227.336C159.238 227.155 158.892 227.064 158.497 227.064C158.113 227.064 157.772 227.155 157.473 227.336C157.174 227.507 156.94 227.747 156.769 228.056C156.598 228.365 156.513 228.723 156.513 229.128C156.513 229.533 156.598 229.896 156.769 230.216C156.94 230.525 157.174 230.771 157.473 230.952C157.772 231.123 158.113 231.208 158.497 231.208ZM169.191 233V228.568C169.191 228.109 169.047 227.736 168.759 227.448C168.471 227.16 168.097 227.016 167.639 227.016C167.34 227.016 167.073 227.08 166.839 227.208C166.604 227.336 166.417 227.517 166.279 227.752C166.151 227.987 166.087 228.259 166.087 228.568L165.271 228.152C165.271 227.544 165.399 227.016 165.655 226.568C165.921 226.109 166.284 225.752 166.743 225.496C167.212 225.24 167.74 225.112 168.327 225.112C168.892 225.112 169.399 225.256 169.847 225.544C170.295 225.821 170.647 226.189 170.903 226.648C171.159 227.096 171.286 227.581 171.286 228.104V233H169.191ZM163.991 233V225.272H166.087V233H163.991ZM177.924 228.824V227.048H180.532C180.873 227.048 181.183 226.979 181.46 226.84C181.737 226.701 181.956 226.504 182.116 226.248C182.276 225.981 182.356 225.661 182.356 225.288C182.356 224.925 182.276 224.611 182.116 224.344C181.956 224.077 181.737 223.875 181.46 223.736C181.183 223.597 180.873 223.528 180.532 223.528H177.924V221.752H180.756C181.471 221.752 182.111 221.896 182.676 222.184C183.252 222.472 183.705 222.883 184.036 223.416C184.367 223.939 184.532 224.563 184.532 225.288C184.532 226.013 184.367 226.643 184.036 227.176C183.705 227.699 183.252 228.104 182.676 228.392C182.111 228.68 181.471 228.824 180.756 228.824H177.924ZM176.324 233V221.752H178.5V233H176.324ZM185.959 233V225.272H188.055V233H185.959ZM188.055 228.728L187.239 228.184C187.335 227.235 187.613 226.488 188.071 225.944C188.53 225.389 189.191 225.112 190.055 225.112C190.429 225.112 190.765 225.176 191.063 225.304C191.362 225.421 191.634 225.619 191.879 225.896L190.567 227.4C190.45 227.272 190.306 227.176 190.135 227.112C189.975 227.048 189.789 227.016 189.575 227.016C189.127 227.016 188.759 227.16 188.471 227.448C188.194 227.725 188.055 228.152 188.055 228.728ZM192.616 233V225.272H194.728V233H192.616ZM193.672 224.024C193.33 224.024 193.048 223.912 192.824 223.688C192.6 223.453 192.488 223.165 192.488 222.824C192.488 222.493 192.6 222.211 192.824 221.976C193.048 221.741 193.33 221.624 193.672 221.624C194.024 221.624 194.306 221.741 194.52 221.976C194.744 222.211 194.856 222.493 194.856 222.824C194.856 223.165 194.744 223.453 194.52 223.688C194.306 223.912 194.024 224.024 193.672 224.024ZM200.232 233.16C199.443 233.16 198.734 232.984 198.104 232.632C197.475 232.28 196.979 231.8 196.616 231.192C196.254 230.584 196.072 229.901 196.072 229.144C196.072 228.376 196.254 227.688 196.616 227.08C196.979 226.472 197.475 225.992 198.104 225.64C198.744 225.277 199.454 225.096 200.232 225.096C200.84 225.096 201.4 225.208 201.912 225.432C202.424 225.656 202.867 225.976 203.24 226.392L201.896 227.752C201.694 227.528 201.448 227.357 201.16 227.24C200.883 227.123 200.574 227.064 200.232 227.064C199.848 227.064 199.502 227.155 199.192 227.336C198.894 227.507 198.654 227.747 198.472 228.056C198.302 228.355 198.216 228.712 198.216 229.128C198.216 229.533 198.302 229.896 198.472 230.216C198.654 230.525 198.894 230.771 199.192 230.952C199.502 231.123 199.848 231.208 200.232 231.208C200.584 231.208 200.899 231.149 201.176 231.032C201.464 230.904 201.71 230.723 201.912 230.488L203.272 231.848C202.878 232.275 202.424 232.6 201.912 232.824C201.4 233.048 200.84 233.16 200.232 233.16ZM207.983 233.16C207.173 233.16 206.453 232.989 205.823 232.648C205.194 232.296 204.693 231.816 204.319 231.208C203.957 230.6 203.775 229.907 203.775 229.128C203.775 228.36 203.951 227.677 204.303 227.08C204.666 226.472 205.157 225.992 205.775 225.64C206.394 225.277 207.082 225.096 207.839 225.096C208.586 225.096 209.242 225.267 209.807 225.608C210.383 225.939 210.831 226.397 211.151 226.984C211.482 227.56 211.647 228.216 211.647 228.952C211.647 229.091 211.637 229.235 211.615 229.384C211.605 229.523 211.578 229.683 211.535 229.864L205.039 229.88V228.312L210.559 228.296L209.711 228.952C209.69 228.493 209.605 228.109 209.455 227.8C209.317 227.491 209.109 227.256 208.831 227.096C208.565 226.925 208.234 226.84 207.839 226.84C207.423 226.84 207.061 226.936 206.751 227.128C206.442 227.309 206.202 227.571 206.031 227.912C205.871 228.243 205.791 228.637 205.791 229.096C205.791 229.565 205.877 229.976 206.047 230.328C206.229 230.669 206.485 230.936 206.815 231.128C207.146 231.309 207.53 231.4 207.967 231.4C208.362 231.4 208.719 231.336 209.039 231.208C209.359 231.069 209.637 230.867 209.871 230.6L211.103 231.832C210.73 232.269 210.271 232.6 209.727 232.824C209.194 233.048 208.613 233.16 207.983 233.16Z" fill="white" fill-opacity="0.8"/>
<path d="M91.4 332.032L95.24 324.752H97.64L93.704 332.032H91.4ZM91.4 333.312V332.032L92.2 331.408H100.264V333.312H91.4ZM96.712 336V328.832H98.856V336H96.712ZM102.524 336.16C102.14 336.16 101.826 336.032 101.58 335.776C101.335 335.52 101.212 335.205 101.212 334.832C101.212 334.459 101.335 334.144 101.58 333.888C101.826 333.632 102.14 333.504 102.524 333.504C102.898 333.504 103.207 333.632 103.452 333.888C103.698 334.144 103.82 334.459 103.82 334.832C103.82 335.205 103.698 335.52 103.452 335.776C103.207 336.032 102.898 336.16 102.524 336.16ZM112.416 336.16C111.509 336.16 110.731 336.005 110.08 335.696C109.44 335.387 108.859 334.923 108.336 334.304L109.776 332.864C110.107 333.301 110.491 333.643 110.928 333.888C111.365 334.123 111.899 334.24 112.528 334.24C113.093 334.24 113.541 334.128 113.872 333.904C114.213 333.68 114.384 333.371 114.384 332.976C114.384 332.635 114.288 332.357 114.096 332.144C113.904 331.931 113.648 331.749 113.328 331.6C113.019 331.451 112.672 331.317 112.288 331.2C111.915 331.072 111.536 330.928 111.152 330.768C110.779 330.608 110.432 330.411 110.112 330.176C109.803 329.931 109.552 329.621 109.36 329.248C109.168 328.864 109.072 328.384 109.072 327.808C109.072 327.125 109.237 326.544 109.568 326.064C109.899 325.584 110.352 325.216 110.928 324.96C111.504 324.704 112.155 324.576 112.88 324.576C113.648 324.576 114.341 324.72 114.96 325.008C115.579 325.296 116.085 325.669 116.48 326.128L115.04 327.568C114.709 327.205 114.368 326.939 114.016 326.768C113.675 326.597 113.285 326.512 112.848 326.512C112.347 326.512 111.952 326.608 111.664 326.8C111.376 326.992 111.232 327.269 111.232 327.632C111.232 327.941 111.328 328.192 111.52 328.384C111.712 328.576 111.963 328.741 112.272 328.88C112.592 329.019 112.939 329.152 113.312 329.28C113.696 329.408 114.075 329.552 114.448 329.712C114.832 329.872 115.179 330.08 115.488 330.336C115.808 330.592 116.064 330.923 116.256 331.328C116.448 331.723 116.544 332.213 116.544 332.8C116.544 333.845 116.176 334.667 115.44 335.264C114.704 335.861 113.696 336.16 112.416 336.16ZM118.037 336V328.272H120.149V336H118.037ZM119.093 327.024C118.752 327.024 118.469 326.912 118.245 326.688C118.021 326.453 117.909 326.165 117.909 325.824C117.909 325.493 118.021 325.211 118.245 324.976C118.469 324.741 118.752 324.624 119.093 324.624C119.445 324.624 119.728 324.741 119.941 324.976C120.165 325.211 120.277 325.493 120.277 325.824C120.277 326.165 120.165 326.453 119.941 326.688C119.728 326.912 119.445 327.024 119.093 327.024ZM125.238 339.424C124.417 339.424 123.691 339.275 123.062 338.976C122.433 338.688 121.931 338.277 121.558 337.744L122.886 336.416C123.185 336.768 123.515 337.035 123.878 337.216C124.251 337.408 124.699 337.504 125.222 337.504C125.873 337.504 126.385 337.339 126.758 337.008C127.142 336.677 127.334 336.219 127.334 335.632V333.696L127.686 332L127.35 330.304V328.272H129.43V335.6C129.43 336.368 129.249 337.035 128.886 337.6C128.534 338.176 128.043 338.624 127.414 338.944C126.785 339.264 126.059 339.424 125.238 339.424ZM125.142 335.792C124.449 335.792 123.825 335.627 123.27 335.296C122.715 334.955 122.278 334.491 121.958 333.904C121.649 333.317 121.494 332.661 121.494 331.936C121.494 331.211 121.649 330.56 121.958 329.984C122.278 329.408 122.715 328.955 123.27 328.624C123.825 328.283 124.449 328.112 125.142 328.112C125.718 328.112 126.225 328.224 126.662 328.448C127.11 328.672 127.462 328.981 127.718 329.376C127.974 329.76 128.113 330.213 128.134 330.736V333.168C128.113 333.68 127.969 334.139 127.702 334.544C127.446 334.939 127.094 335.248 126.646 335.472C126.209 335.685 125.707 335.792 125.142 335.792ZM125.558 333.888C125.942 333.888 126.273 333.808 126.55 333.648C126.838 333.477 127.062 333.248 127.222 332.96C127.382 332.661 127.462 332.325 127.462 331.952C127.462 331.568 127.382 331.232 127.222 330.944C127.062 330.656 126.838 330.432 126.55 330.272C126.273 330.101 125.942 330.016 125.558 330.016C125.174 330.016 124.838 330.101 124.55 330.272C124.262 330.432 124.038 330.661 123.878 330.96C123.718 331.248 123.638 331.579 123.638 331.952C123.638 332.315 123.718 332.645 123.878 332.944C124.038 333.232 124.262 333.461 124.55 333.632C124.838 333.803 125.174 333.888 125.558 333.888ZM136.472 336V331.568C136.472 331.109 136.328 330.736 136.04 330.448C135.752 330.16 135.378 330.016 134.92 330.016C134.621 330.016 134.354 330.08 134.12 330.208C133.885 330.336 133.698 330.517 133.56 330.752C133.432 330.987 133.368 331.259 133.368 331.568L132.552 331.152C132.552 330.544 132.68 330.016 132.936 329.568C133.202 329.109 133.565 328.752 134.024 328.496C134.493 328.24 135.021 328.112 135.608 328.112C136.173 328.112 136.68 328.256 137.128 328.544C137.576 328.821 137.928 329.189 138.184 329.648C138.44 330.096 138.568 330.581 138.568 331.104V336H136.472ZM131.272 336V328.272H133.368V336H131.272ZM144.517 336V325.056H146.613V336H144.517ZM142.709 330.112V328.272H148.421V330.112H142.709ZM154.8 336V331.568C154.8 331.109 154.656 330.736 154.368 330.448C154.08 330.16 153.707 330.016 153.248 330.016C152.949 330.016 152.683 330.08 152.448 330.208C152.213 330.336 152.027 330.517 151.888 330.752C151.76 330.987 151.696 331.259 151.696 331.568L150.88 331.152C150.88 330.544 151.008 330.016 151.264 329.568C151.52 329.109 151.872 328.752 152.32 328.496C152.779 328.24 153.301 328.112 153.888 328.112C154.475 328.112 154.992 328.24 155.44 328.496C155.899 328.752 156.256 329.104 156.512 329.552C156.768 330 156.896 330.517 156.896 331.104V336H154.8ZM149.6 336V324.432H151.696V336H149.6ZM162.28 336.16C161.47 336.16 160.75 335.989 160.12 335.648C159.491 335.296 158.99 334.816 158.616 334.208C158.254 333.6 158.072 332.907 158.072 332.128C158.072 331.36 158.248 330.677 158.6 330.08C158.963 329.472 159.454 328.992 160.072 328.64C160.691 328.277 161.379 328.096 162.136 328.096C162.883 328.096 163.539 328.267 164.104 328.608C164.68 328.939 165.128 329.397 165.448 329.984C165.779 330.56 165.944 331.216 165.944 331.952C165.944 332.091 165.934 332.235 165.912 332.384C165.902 332.523 165.875 332.683 165.832 332.864L159.336 332.88V331.312L164.856 331.296L164.008 331.952C163.987 331.493 163.902 331.109 163.752 330.8C163.614 330.491 163.406 330.256 163.128 330.096C162.862 329.925 162.531 329.84 162.136 329.84C161.72 329.84 161.358 329.936 161.048 330.128C160.739 330.309 160.499 330.571 160.328 330.912C160.168 331.243 160.088 331.637 160.088 332.096C160.088 332.565 160.174 332.976 160.344 333.328C160.526 333.669 160.782 333.936 161.112 334.128C161.443 334.309 161.827 334.4 162.264 334.4C162.659 334.4 163.016 334.336 163.336 334.208C163.656 334.069 163.934 333.867 164.168 333.6L165.4 334.832C165.027 335.269 164.568 335.6 164.024 335.824C163.491 336.048 162.91 336.16 162.28 336.16ZM175.806 336.16C174.984 336.16 174.222 336.016 173.518 335.728C172.814 335.429 172.195 335.019 171.662 334.496C171.139 333.963 170.734 333.344 170.446 332.64C170.168 331.936 170.03 331.179 170.03 330.368C170.03 329.557 170.168 328.8 170.446 328.096C170.734 327.392 171.139 326.779 171.662 326.256C172.195 325.733 172.808 325.323 173.502 325.024C174.206 324.725 174.974 324.576 175.806 324.576C176.702 324.576 177.491 324.725 178.174 325.024C178.856 325.312 179.459 325.712 179.982 326.224L178.51 327.696C178.2 327.355 177.822 327.088 177.374 326.896C176.926 326.704 176.403 326.608 175.806 326.608C175.283 326.608 174.803 326.699 174.366 326.88C173.939 327.051 173.566 327.307 173.246 327.648C172.926 327.979 172.68 328.379 172.51 328.848C172.339 329.307 172.254 329.813 172.254 330.368C172.254 330.933 172.339 331.445 172.51 331.904C172.68 332.363 172.926 332.763 173.246 333.104C173.566 333.435 173.939 333.691 174.366 333.872C174.803 334.053 175.283 334.144 175.806 334.144C176.435 334.144 176.974 334.048 177.422 333.856C177.88 333.664 178.264 333.392 178.574 333.04L180.046 334.512C179.523 335.035 178.915 335.44 178.222 335.728C177.528 336.016 176.723 336.16 175.806 336.16ZM184.779 336.16C184 336.16 183.296 335.984 182.667 335.632C182.048 335.269 181.552 334.784 181.179 334.176C180.816 333.557 180.635 332.869 180.635 332.112C180.635 331.355 180.816 330.677 181.179 330.08C181.541 329.472 182.037 328.992 182.667 328.64C183.296 328.277 183.995 328.096 184.763 328.096C185.552 328.096 186.256 328.277 186.875 328.64C187.504 328.992 188 329.472 188.363 330.08C188.725 330.677 188.907 331.355 188.907 332.112C188.907 332.869 188.725 333.557 188.363 334.176C188 334.784 187.504 335.269 186.875 335.632C186.256 335.984 185.557 336.16 184.779 336.16ZM184.763 334.208C185.157 334.208 185.504 334.123 185.803 333.952C186.112 333.771 186.347 333.525 186.507 333.216C186.677 332.896 186.763 332.533 186.763 332.128C186.763 331.723 186.677 331.365 186.507 331.056C186.336 330.747 186.101 330.507 185.803 330.336C185.504 330.155 185.157 330.064 184.763 330.064C184.379 330.064 184.037 330.155 183.739 330.336C183.44 330.507 183.205 330.747 183.035 331.056C182.864 331.365 182.779 331.723 182.779 332.128C182.779 332.533 182.864 332.896 183.035 333.216C183.205 333.525 183.44 333.771 183.739 333.952C184.037 334.123 184.379 334.208 184.763 334.208ZM195.456 336V331.568C195.456 331.109 195.312 330.736 195.024 330.448C194.736 330.16 194.363 330.016 193.904 330.016C193.605 330.016 193.339 330.08 193.104 330.208C192.869 330.336 192.683 330.517 192.544 330.752C192.416 330.987 192.352 331.259 192.352 331.568L191.536 331.152C191.536 330.544 191.664 330.016 191.92 329.568C192.187 329.109 192.549 328.752 193.008 328.496C193.477 328.24 194.005 328.112 194.592 328.112C195.157 328.112 195.664 328.256 196.112 328.544C196.56 328.821 196.912 329.189 197.168 329.648C197.424 330.096 197.552 330.581 197.552 331.104V336H195.456ZM190.256 336V328.272H192.352V336H190.256ZM200.283 336V325.056H202.379V336H200.283ZM198.475 330.112V328.272H204.187V330.112H198.475ZM205.366 336V328.272H207.462V336H205.366ZM207.462 331.728L206.646 331.184C206.742 330.235 207.019 329.488 207.478 328.944C207.936 328.389 208.598 328.112 209.462 328.112C209.835 328.112 210.171 328.176 210.47 328.304C210.768 328.421 211.04 328.619 211.286 328.896L209.974 330.4C209.856 330.272 209.712 330.176 209.542 330.112C209.382 330.048 209.195 330.016 208.982 330.016C208.534 330.016 208.166 330.16 207.878 330.448C207.6 330.725 207.462 331.152 207.462 331.728ZM215.035 336.16C214.331 336.16 213.696 335.984 213.131 335.632C212.566 335.28 212.123 334.8 211.803 334.192C211.483 333.584 211.323 332.901 211.323 332.144C211.323 331.376 211.483 330.688 211.803 330.08C212.123 329.472 212.566 328.992 213.131 328.64C213.696 328.288 214.331 328.112 215.035 328.112C215.59 328.112 216.086 328.224 216.523 328.448C216.96 328.672 217.307 328.987 217.563 329.392C217.83 329.787 217.974 330.235 217.995 330.736V333.52C217.974 334.032 217.83 334.485 217.563 334.88C217.307 335.275 216.96 335.589 216.523 335.824C216.086 336.048 215.59 336.16 215.035 336.16ZM215.419 334.224C216.006 334.224 216.48 334.032 216.843 333.648C217.206 333.253 217.387 332.747 217.387 332.128C217.387 331.723 217.302 331.365 217.131 331.056C216.971 330.736 216.742 330.491 216.443 330.32C216.155 330.139 215.814 330.048 215.419 330.048C215.035 330.048 214.694 330.139 214.395 330.32C214.107 330.491 213.878 330.736 213.707 331.056C213.547 331.365 213.467 331.723 213.467 332.128C213.467 332.544 213.547 332.912 213.707 333.232C213.878 333.541 214.107 333.787 214.395 333.968C214.694 334.139 215.035 334.224 215.419 334.224ZM217.275 336V333.92L217.611 332.032L217.275 330.176V328.272H219.355V336H217.275ZM224.857 336.16C224.068 336.16 223.359 335.984 222.729 335.632C222.1 335.28 221.604 334.8 221.241 334.192C220.879 333.584 220.697 332.901 220.697 332.144C220.697 331.376 220.879 330.688 221.241 330.08C221.604 329.472 222.1 328.992 222.729 328.64C223.369 328.277 224.079 328.096 224.857 328.096C225.465 328.096 226.025 328.208 226.537 328.432C227.049 328.656 227.492 328.976 227.865 329.392L226.521 330.752C226.319 330.528 226.073 330.357 225.785 330.24C225.508 330.123 225.199 330.064 224.857 330.064C224.473 330.064 224.127 330.155 223.817 330.336C223.519 330.507 223.279 330.747 223.097 331.056C222.927 331.355 222.841 331.712 222.841 332.128C222.841 332.533 222.927 332.896 223.097 333.216C223.279 333.525 223.519 333.771 223.817 333.952C224.127 334.123 224.473 334.208 224.857 334.208C225.209 334.208 225.524 334.149 225.801 334.032C226.089 333.904 226.335 333.723 226.537 333.488L227.897 334.848C227.503 335.275 227.049 335.6 226.537 335.824C226.025 336.048 225.465 336.16 224.857 336.16ZM230.095 336V325.056H232.191V336H230.095ZM228.287 330.112V328.272H233.999V330.112H228.287Z" fill="white" fill-opacity="0.8"/>
<circle cx="35" cy="35" r="35" fill="#2D2727"/>
<path d="M34 70L34 293" stroke="white" stroke-opacity="0.2" stroke-width="2" stroke-dasharray="4 4"/>
<circle cx="35" cy="229" r="35" fill="#2D2727"/>
<circle cx="35" cy="132" r="35" fill="#2D2727"/>
<circle cx="35" cy="326" r="35" fill="#2D2727"/>
<path fill-rule="evenodd" clip-rule="evenodd" d="M32.2912 212.09C31.226 212.357 30.3187 213.259 30.0018 214.366L29.9162 214.665H28.7101C27.394 214.665 27.0311 214.731 26.6335 215.044C26.2856 215.317 26.0497 215.865 26.0497 216.399V216.839L23.7375 216.859C21.1482 216.882 21.2141 216.869 21.0709 217.4C20.9751 217.755 20.977 247.093 21.0729 247.448C21.1115 247.592 21.2238 247.774 21.3225 247.854L21.502 248L33.5474 247.978C45.5663 247.956 45.5941 247.955 46.1726 247.806C47.8667 247.37 49.1652 246.65 50.3203 245.507C52.0814 243.764 52.9994 241.558 53 239.066C53.0003 237.505 52.7158 236.28 52.0384 234.925C50.7743 232.396 48.2902 230.566 45.6098 230.188L45.013 230.104V228.639C45.013 227.046 44.9775 226.862 44.6397 226.703C44.3549 226.569 44.1448 226.604 43.9056 226.824L43.6828 227.029L43.6621 228.565L43.6415 230.1L42.9357 230.219C39.9215 230.727 37.2811 232.98 36.1941 235.972C35.8196 237.002 35.709 237.679 35.7053 238.96C35.7007 240.608 35.9312 241.66 36.5966 243.028C37.2046 244.278 38.1213 245.416 39.1739 246.227L39.6445 246.59H31.0053H22.3662V232.421V218.251H24.2079H26.0497V218.612C26.0497 219.344 26.379 219.925 26.9582 220.214C27.2494 220.359 27.3103 220.361 33.0119 220.36L38.7715 220.359L39.1205 220.192C39.685 219.921 40.0334 219.297 40.0334 218.556V218.251H41.8411H43.6487V219.77C43.6487 221.06 43.6658 221.318 43.7623 221.486C43.9925 221.888 44.4971 221.958 44.8136 221.632L45.013 221.426L45.0115 219.364C45.0101 217.516 44.9977 217.286 44.8921 217.152C44.6596 216.856 44.5632 216.845 42.264 216.845H40.0518L40.0187 216.369C39.969 215.653 39.6779 215.166 39.1125 214.852C38.8672 214.716 38.7032 214.697 37.4886 214.665L36.1375 214.629L35.9878 214.17C35.4813 212.617 33.8495 211.699 32.2912 212.09ZM33.8868 213.648C34.4618 213.97 34.7334 214.436 34.8085 215.227C34.8452 215.615 34.8826 215.713 35.0562 215.878L35.2607 216.071H36.883C38.0539 216.071 38.5282 216.095 38.5873 216.155C38.6814 216.252 38.7045 218.718 38.6127 218.867C38.5696 218.937 37.4022 218.951 33.0031 218.937L27.4481 218.919L27.4294 217.592C27.4166 216.673 27.4349 216.235 27.489 216.168C27.5514 216.091 27.8953 216.071 29.2011 216.071H30.8351L31.0345 215.865C31.1944 215.701 31.2339 215.599 31.2339 215.351C31.2339 215.181 31.2823 214.874 31.3413 214.669C31.474 214.208 31.9548 213.683 32.3972 213.516C32.8418 213.348 33.4482 213.402 33.8868 213.648ZM43.8871 223.695C43.6551 223.934 43.6075 224.194 43.7425 224.486C43.8711 224.764 44.1984 224.938 44.4851 224.882C44.7528 224.829 45.013 224.484 45.013 224.182C45.013 223.618 44.2728 223.297 43.8871 223.695ZM26.6219 225C26.1776 225.187 26.0519 225.788 26.3855 226.132L26.5849 226.338H33.1079C40.3256 226.338 39.9475 226.362 40.099 225.889C40.1957 225.587 40.138 225.343 39.9198 225.132L39.7496 224.967L33.2578 224.953C29.6872 224.945 26.7011 224.967 26.6219 225ZM26.6219 230.134C26.1779 230.319 26.0519 230.922 26.3855 231.266L26.5849 231.471H31.575H36.565L36.7644 231.266C37.0944 230.926 37.005 230.379 36.5859 230.174C36.3913 230.078 35.7613 230.065 31.5647 230.069C28.9254 230.072 26.7011 230.101 26.6219 230.134ZM45.1835 231.549C48.432 231.96 50.9908 234.466 51.5629 237.797C51.6737 238.443 51.6552 239.772 51.5258 240.466C50.9943 243.319 48.9111 245.596 46.1385 246.356C45.5314 246.522 45.3326 246.543 44.3308 246.543C43.3377 246.543 43.1282 246.521 42.5492 246.362C39.4111 245.497 37.1985 242.699 37.0507 239.408C36.988 238.013 37.2276 236.885 37.8554 235.62C39.0715 233.171 41.566 231.559 44.2626 231.481C44.4315 231.476 44.8459 231.507 45.1835 231.549ZM44.1407 233.104C43.8888 233.172 43.6494 233.507 43.649 233.794C43.6488 233.945 43.5832 234.001 43.2126 234.167C42.9728 234.275 42.6542 234.471 42.5046 234.603C41.7625 235.258 41.4296 236.402 41.704 237.354C41.8958 238.02 42.3927 238.54 43.2528 238.975L43.6413 239.171L43.645 241.026L43.6487 242.881L43.427 242.836C43.3051 242.811 42.9564 242.663 42.6522 242.507C42.0366 242.191 41.8662 242.188 41.5707 242.493C41.3069 242.765 41.3288 243.167 41.6233 243.453C41.9387 243.759 42.6628 244.107 43.1974 244.208C43.6298 244.29 43.6487 244.302 43.6487 244.496C43.6487 244.79 43.8244 245.094 44.0702 245.225C44.246 245.319 44.3307 245.326 44.539 245.261C44.8574 245.163 45.013 244.924 45.013 244.535C45.013 244.233 45.0142 244.232 45.3711 244.102C46.7255 243.608 47.5848 242.151 47.3897 240.68C47.2436 239.579 46.6236 238.906 45.2006 238.304L45.013 238.225V236.817C45.013 235.75 45.0333 235.409 45.0969 235.409C45.1431 235.409 45.3607 235.524 45.5805 235.664C45.9125 235.875 46.0224 235.911 46.2298 235.877C46.7274 235.795 46.9648 235.169 46.653 234.761C46.4905 234.548 45.6739 234.096 45.3119 234.018C45.0742 233.967 45.0444 233.936 45.0071 233.699C44.9605 233.404 44.7345 233.117 44.513 233.074C44.4316 233.058 44.264 233.071 44.1407 233.104ZM26.6219 235.266C26.1773 235.454 26.0519 236.055 26.3855 236.399L26.5849 236.605H30.0061H33.4272L33.6266 236.399C33.8988 236.118 33.8989 235.777 33.627 235.463L33.428 235.233L30.097 235.219C28.2649 235.211 26.7011 235.233 26.6219 235.266ZM43.6345 237.072L43.6146 237.61L43.3905 237.416C42.8311 236.93 42.8317 236.215 43.3918 235.675L43.6146 235.46L43.6345 235.997C43.6455 236.293 43.6455 236.776 43.6345 237.072ZM45.3974 239.947C46.1183 240.382 46.2616 241.469 45.6959 242.21C45.5465 242.406 45.1584 242.723 45.068 242.723C45.0377 242.723 45.013 242.058 45.013 241.246C45.013 240.434 45.0333 239.769 45.0581 239.769C45.083 239.769 45.2356 239.849 45.3974 239.947ZM26.683 240.38C26.5998 240.397 26.4541 240.506 26.359 240.623C26.1157 240.921 26.1257 241.265 26.3855 241.533L26.5849 241.738H30.0061H33.4272L33.6266 241.533C33.8988 241.252 33.8989 240.91 33.627 240.596L33.428 240.367L30.1311 240.358C28.3178 240.352 26.7661 240.362 26.683 240.38Z" fill="#E49B00"/>
<path fill-rule="evenodd" clip-rule="evenodd" d="M19.4227 309.061C19.3452 309.091 19.2184 309.182 19.1409 309.263C19.0008 309.41 19 309.504 19 326.021V342.631L19.1954 342.816L19.3906 343H33.1957H47.0007L47.196 342.816L47.3914 342.631V337.017V331.403L47.1977 331.22C46.9094 330.948 46.4972 330.962 46.2218 331.253L46.0176 331.469V336.586V341.704H33.1957H20.3738V326.016V310.327H29.0039H37.6341L37.6348 313.834C37.6352 315.763 37.6552 317.453 37.6792 317.589C37.7032 317.726 37.8023 317.913 37.8994 318.005L38.076 318.171H42.0468H46.0176V322.031C46.0176 324.743 46.041 325.935 46.0963 326.037C46.2233 326.271 46.4579 326.411 46.7221 326.411C46.9864 326.411 47.2209 326.271 47.3479 326.037C47.4034 325.934 47.4266 324.646 47.4266 321.662C47.4266 318.116 47.4103 317.405 47.3255 317.254C47.2033 317.037 38.8613 309.176 38.6426 309.071C38.4586 308.983 19.6493 308.973 19.4227 309.061ZM51.7084 309.114C51.5587 309.201 51.2573 309.744 50.3347 311.588L49.1526 313.95V327.949V341.947L49.3658 342.272C49.498 342.474 49.7102 342.674 49.9239 342.799L50.2688 343H52.0763H53.8839L54.2287 342.799C54.4425 342.674 54.6547 342.474 54.7868 342.272L55 341.947V327.949V313.95L53.8164 311.586C52.8519 309.66 52.5956 309.201 52.4317 309.11C52.1788 308.969 51.9537 308.97 51.7084 309.114ZM42.0724 314.083L44.9955 316.842H42.0544H39.1135V314.083C39.1135 312.566 39.1216 311.324 39.1315 311.324C39.1413 311.324 40.4647 312.566 42.0724 314.083ZM52.6599 312.405L53.1941 313.485L52.6352 313.504C52.3278 313.515 51.8248 313.515 51.5174 313.504L50.9586 313.485L51.4927 312.405C51.7865 311.811 52.0491 311.324 52.0763 311.324C52.1035 311.324 52.3662 311.811 52.6599 312.405ZM53.6262 326.248V337.649H52.0763H50.5264V326.248V314.848H52.0763H53.6262V326.248ZM24.4951 316.107C24.0466 316.28 23.9274 316.835 24.2692 317.158L24.4629 317.341L26.6629 317.36C27.873 317.371 28.9371 317.362 29.0275 317.341C29.118 317.319 29.2686 317.224 29.3622 317.129C29.6652 316.82 29.5513 316.321 29.1319 316.118C28.9503 316.031 24.7194 316.02 24.4951 316.107ZM31.2935 316.129C31.0284 316.253 30.8479 316.643 30.9446 316.883C31.117 317.311 31.5173 317.474 31.917 317.279C32.1768 317.152 32.2798 316.991 32.2798 316.709C32.2798 316.431 32.1772 316.266 31.929 316.145C31.6804 316.023 31.5265 316.02 31.2935 316.129ZM24.4951 320.096C24.0466 320.269 23.9274 320.824 24.2693 321.146L24.4631 321.329L33.16 321.346L41.857 321.364L42.0864 321.17C42.2764 321.01 42.3158 320.929 42.3158 320.698C42.3158 320.466 42.2764 320.385 42.0873 320.225L41.8588 320.033L33.2474 320.037C28.5111 320.039 24.5726 320.066 24.4951 320.096ZM24.4951 324.084C24.0466 324.257 23.9274 324.812 24.2693 325.135L24.4631 325.318L33.16 325.335L41.857 325.352L42.0864 325.159C42.2764 324.999 42.3158 324.918 42.3158 324.686C42.3158 324.455 42.2764 324.373 42.0873 324.214L41.8588 324.021L33.2474 324.025C28.5111 324.028 24.5726 324.054 24.4951 324.084ZM24.4951 328.073C24.0466 328.246 23.9274 328.801 24.2693 329.123L24.4631 329.306L33.16 329.323L41.857 329.341L42.0864 329.147C42.2764 328.987 42.3158 328.906 42.3158 328.675C42.3158 328.443 42.2764 328.362 42.0873 328.202L41.8588 328.01L33.2474 328.014C28.5111 328.016 24.5726 328.043 24.4951 328.073ZM46.4676 328.072C46.2443 328.161 46.0176 328.469 46.0176 328.682C46.0176 328.798 46.0978 328.957 46.2218 329.087C46.6456 329.535 47.3882 329.272 47.3882 328.675C47.3882 328.233 46.8872 327.905 46.4676 328.072ZM24.4951 332.061C24.0466 332.234 23.9274 332.789 24.2693 333.112L24.4631 333.295L33.16 333.312L41.857 333.329L42.0864 333.136C42.2764 332.976 42.3158 332.895 42.3158 332.663C42.3158 332.432 42.2764 332.35 42.0873 332.191L41.8588 331.998L33.2474 332.003C28.5111 332.005 24.5726 332.031 24.4951 332.061ZM24.4951 336.05C24.0466 336.223 23.9274 336.778 24.2693 337.1L24.4631 337.283L33.16 337.301L41.857 337.318L42.0864 337.125C42.2764 336.964 42.3158 336.883 42.3158 336.652C42.3158 336.42 42.2764 336.339 42.0873 336.179L41.8588 335.987L33.2474 335.991C28.5111 335.993 24.5726 336.02 24.4951 336.05ZM53.6262 340.261C53.6262 341.17 53.6016 341.567 53.5417 341.624C53.4223 341.737 50.7304 341.737 50.611 341.624C50.5511 341.567 50.5264 341.17 50.5264 340.261V338.978H52.0763H53.6262V340.261Z" fill="#E49B00"/>
<path fill-rule="evenodd" clip-rule="evenodd" d="M21.0358 22.197C19.708 22.5191 18.5889 23.6723 18.311 25.005C18.2544 25.2765 18.2301 28.2321 18.2301 34.8639V44.3351H17.8972C17.1824 44.3351 16.935 44.6667 17.0141 45.5186C17.1905 47.4161 18.4588 48.9939 20.3449 49.6621L20.9006 49.859L26.7142 49.8799C31.0433 49.8953 32.5808 49.8787 32.7355 49.8147C32.9573 49.7228 33.1557 49.4156 33.1557 49.164C33.1557 48.9221 32.965 48.6153 32.7553 48.5198C32.612 48.4544 31.1695 48.4323 27.053 48.4323C23.7741 48.4323 21.39 48.4034 21.1658 48.3609C20.0208 48.1438 18.8782 47.0926 18.5594 45.963L18.5129 45.7984H35.7056H52.8983L52.824 46.0728C52.5416 47.1165 51.3939 48.1493 50.2845 48.3581C50.0401 48.4042 47.794 48.4323 44.3728 48.4323C38.3828 48.4323 38.5521 48.4211 38.3646 48.8327C38.1881 49.2201 38.3394 49.6664 38.6974 49.8147C38.852 49.8787 40.3896 49.8953 44.7186 49.8799L50.5322 49.859L51.1168 49.6524C52.6203 49.1212 53.6985 48.0391 54.1934 46.565C54.4194 45.8916 54.5007 45.0816 54.3733 44.7739C54.255 44.4884 53.9623 44.3351 53.5356 44.3351H53.2027V34.8639C53.2027 28.2321 53.1785 25.2765 53.1219 25.005C52.8359 23.6339 51.6619 22.4599 50.2908 22.174C49.6985 22.0505 21.5487 22.0727 21.0358 22.197ZM50.4262 23.7471C50.913 23.9723 51.2674 24.316 51.4987 24.7869L51.7028 25.2026L51.7222 34.7689L51.7416 44.3351H35.7175H19.6934V34.9102C19.6934 24.5836 19.6729 25.0804 20.1252 24.456C20.3924 24.0871 20.7192 23.8517 21.1918 23.6878C21.5367 23.5682 22.4302 23.5614 35.8262 23.5767L50.0932 23.593L50.4262 23.7471ZM41.1111 25.095C40.3771 25.2795 39.7081 25.8311 39.3591 26.5401C39.1415 26.9819 39.1179 27.094 39.1116 27.7161L39.1047 28.4037L36.5509 29.8822L33.9971 31.3607L33.6367 31.0392C31.6599 29.2757 28.6081 29.8546 27.4499 32.2127C26.8806 33.3717 26.8803 34.4991 27.4489 35.674C28.5906 38.0327 31.6587 38.617 33.6367 36.8524L33.9971 36.5309L36.5509 38.0094L39.1047 39.4879L39.1116 40.1754C39.1179 40.7976 39.1415 40.9096 39.3591 41.3515C39.6383 41.9185 40.096 42.3622 40.6916 42.6431C41.0323 42.8038 41.1951 42.8328 41.7525 42.8323C42.6218 42.8314 43.1514 42.6039 43.7241 41.9854C44.2127 41.4576 44.4294 40.9231 44.4316 40.2403C44.4335 39.6277 44.3849 39.4259 44.108 38.8975C43.5828 37.895 42.4416 37.3329 41.3377 37.5331C40.8606 37.6196 40.2731 37.8786 40.111 38.0739C40.0583 38.1374 39.9645 38.1893 39.9025 38.1893C39.8405 38.1893 38.6472 37.5303 37.2508 36.7249L34.7119 35.2603L34.8106 34.8409C34.8649 34.6101 34.9094 34.2073 34.9094 33.9458C34.9094 33.6842 34.8649 33.2814 34.8106 33.0507L34.7119 32.6312L37.2508 31.1667C38.6472 30.3612 39.8405 29.7022 39.9025 29.7022C39.9645 29.7022 40.0583 29.7542 40.111 29.8177C40.2731 30.013 40.8606 30.272 41.3377 30.3585C42.4416 30.5586 43.5828 29.9965 44.108 28.9941C44.3849 28.4656 44.4335 28.2639 44.4316 27.6512C44.4272 26.2639 43.3009 25.1057 41.8992 25.0472C41.6173 25.0355 41.2627 25.057 41.1111 25.095ZM42.4811 26.7318C42.8242 26.9936 42.9742 27.3022 42.9708 27.7395C42.9628 28.7815 41.7854 29.3042 40.9776 28.6245C40.3199 28.0711 40.438 27.0374 41.2041 26.6429C41.6373 26.4197 42.1156 26.453 42.4811 26.7318ZM32.0028 31.6962C32.5199 31.933 32.971 32.3838 33.218 32.9107C33.3799 33.2561 33.4118 33.4259 33.4118 33.9458C33.4118 34.4656 33.3799 34.6355 33.218 34.9809C32.9713 35.5071 32.5221 35.9563 31.9959 36.203C31.6501 36.3652 31.4811 36.3967 30.9607 36.3964C30.429 36.3961 30.2785 36.3664 29.9225 36.1919C29.3825 35.9273 28.8216 35.3182 28.6463 34.8063C28.4776 34.3132 28.4772 33.5796 28.6454 33.0883C28.7905 32.6643 29.2799 32.0715 29.6982 31.813C30.3426 31.4147 31.2838 31.3671 32.0028 31.6962ZM43.4248 31.8234C43.017 31.988 42.8999 32.6124 43.2094 32.9723L43.3859 33.1776L46.2244 33.1984C49.2906 33.2209 49.3941 33.2099 49.5845 32.8417C49.7137 32.5919 49.7188 32.4045 49.6034 32.1512C49.4251 31.7598 49.3484 31.7505 46.3472 31.7555C44.8261 31.758 43.5111 31.7886 43.4248 31.8234ZM30.5063 33.4262C30.3099 33.6016 30.269 33.6912 30.269 33.9458C30.269 34.4738 30.8199 34.8292 31.2765 34.5957C31.9766 34.2377 31.7199 33.2141 30.9302 33.2141C30.8275 33.2141 30.6368 33.3095 30.5063 33.4262ZM43.4248 34.7466C43.0157 34.9206 42.9001 35.5392 43.2094 35.8988C43.356 36.0693 43.4441 36.1041 43.7279 36.1041C44.1652 36.1041 44.423 35.8464 44.423 35.4091C44.423 34.8976 43.8945 34.5468 43.4248 34.7466ZM46.7172 34.75C46.3095 34.9146 46.1923 35.5389 46.5017 35.8988L46.6781 36.1041L47.8642 36.1276C48.676 36.1436 49.1178 36.1231 49.2643 36.0624C49.4917 35.9682 49.6908 35.6632 49.6908 35.4091C49.6908 35.1672 49.5002 34.8604 49.2905 34.7649C49.0665 34.6628 46.9633 34.6506 46.7172 34.75ZM21.9451 38.0107C21.7001 38.1437 21.5957 38.3283 21.5957 38.6283C21.5957 38.9344 21.7023 39.1162 21.9601 39.2495C22.2665 39.4079 26.4018 39.4134 26.7066 39.2557C27.1935 39.0039 27.1935 38.2527 26.7066 38.0009C26.4058 37.8454 22.2339 37.8539 21.9451 38.0107ZM42.4256 39.1503C42.925 39.4573 43.1296 40.2093 42.857 40.7365C42.4222 41.5772 41.17 41.6065 40.7114 40.7867C40.0922 39.6799 41.3437 38.4853 42.4256 39.1503ZM21.9451 40.9373C21.7001 41.0702 21.5957 41.2548 21.5957 41.5549C21.5957 41.861 21.7023 42.0427 21.9601 42.176C22.2783 42.3405 22.5171 42.311 22.7818 42.0745C22.9781 41.899 23.0191 41.8095 23.0191 41.5549C23.0191 41.3003 22.9781 41.2107 22.7818 41.0353C22.5176 40.7992 22.2559 40.7686 21.9451 40.9373ZM25.2375 40.9373C24.9925 41.0702 24.8881 41.2548 24.8881 41.5549C24.8881 41.861 24.9947 42.0427 25.2525 42.176C25.4316 42.2687 25.8981 42.2865 28.1392 42.2865H30.8121L31.0493 42.0745C31.2457 41.899 31.2867 41.8095 31.2867 41.5549C31.2867 41.3003 31.2457 41.2107 31.0493 41.0353L30.8121 40.8232L28.1245 40.8262C25.8954 40.8286 25.4028 40.8475 25.2375 40.9373ZM35.3587 48.5345C34.7244 48.886 34.9898 49.8956 35.7164 49.8956C36.0872 49.8956 36.4481 49.5382 36.4481 49.1711C36.4481 48.6218 35.841 48.2671 35.3587 48.5345Z" fill="#E49B00"/>
<path fill-rule="evenodd" clip-rule="evenodd" d="M18.5969 116.056C18.0207 116.197 17.4878 116.631 17.183 117.209L17 117.555V130.409V143.262L17.1422 143.569C17.3491 144.016 17.7199 144.392 18.1806 144.622L18.5848 144.823H22.9675H27.3501L27.9304 145.294C28.5464 145.794 29.4562 146.361 30.0954 146.642C30.9736 147.029 32.4593 147.414 33.0758 147.414H33.3346V148.441C33.3346 149.561 33.3802 149.757 33.677 149.91C33.909 150.03 34.091 150.03 34.323 149.91C34.6198 149.757 34.6654 149.561 34.6654 148.441V147.414H34.9377C35.0875 147.414 35.5023 147.355 35.8595 147.282C37.4904 146.95 38.8365 146.304 40.1634 145.216L40.6381 144.827L45.0871 144.809L49.5362 144.79L49.822 144.638C50.2624 144.403 50.6119 144.051 50.815 143.638L51 143.262V130.409V117.555L50.817 117.209C50.5847 116.769 50.2576 116.442 49.8168 116.21L49.4697 116.027L38.7241 116.01C30.7041 115.996 27.9312 116.011 27.7924 116.069C27.593 116.151 27.4129 116.431 27.4129 116.658C27.4129 116.851 27.583 117.162 27.7265 117.232C27.7919 117.263 32.6579 117.304 38.5398 117.323L49.2343 117.356L49.4518 117.573L49.6693 117.79L49.6882 120.379L49.707 122.969H34H18.293L18.3118 120.379L18.3307 117.79L18.5481 117.573L18.7655 117.356L20.5442 117.322C21.5225 117.303 22.3764 117.262 22.4418 117.231C22.5831 117.163 22.7554 116.852 22.7554 116.665C22.7554 116.44 22.6056 116.188 22.4131 116.089C22.2671 116.013 21.879 115.996 20.5131 116.001C19.569 116.005 18.7067 116.03 18.5969 116.056ZM24.7588 116.087C24.182 116.406 24.4233 117.323 25.0841 117.323C25.4213 117.323 25.7495 116.998 25.7495 116.665C25.7495 116.166 25.1975 115.844 24.7588 116.087ZM21.2418 119.617C21.1616 119.673 21.0618 119.832 21.0201 119.971C20.9571 120.181 20.9632 120.26 21.0558 120.439C21.2711 120.855 21.1122 120.843 26.6477 120.843C32.0179 120.843 32.0257 120.843 32.1982 120.521C32.3377 120.261 32.2858 119.887 32.0834 119.693L31.8969 119.515H26.6423C22.0243 119.515 21.37 119.527 21.2418 119.617ZM38.7189 119.709C38.5781 119.85 38.5245 119.967 38.5245 120.136C38.5245 120.409 38.772 120.741 39.0228 120.804C39.2816 120.869 39.6381 120.685 39.7637 120.422C40.0805 119.759 39.2423 119.186 38.7189 119.709ZM42.3119 119.709C41.9852 120.035 42.0777 120.547 42.4995 120.747C42.7013 120.842 42.76 120.845 42.9699 120.765C43.1134 120.71 43.2614 120.586 43.338 120.455C43.4483 120.266 43.4556 120.2 43.3902 119.982C43.2436 119.494 42.6725 119.349 42.3119 119.709ZM45.9049 119.709C45.3962 120.217 45.9399 121.027 46.6036 120.75C47.277 120.469 47.073 119.515 46.3397 119.515C46.1628 119.515 46.048 119.566 45.9049 119.709ZM49.7025 133.601C49.7025 143.707 49.7236 143.136 49.3423 143.385C49.1919 143.484 48.8008 143.495 45.487 143.495H41.7992L42.2148 142.804C42.8637 141.725 43.364 140.329 43.4783 139.277C43.5623 138.505 43.4475 138.579 44.5538 138.579C45.2917 138.579 45.5759 138.555 45.741 138.476C46.1498 138.283 46.237 137.766 45.9151 137.445L45.7206 137.251H44.6522C43.5965 137.251 43.5834 137.249 43.5568 137.101C43.542 137.019 43.4813 136.641 43.4221 136.262C43.141 134.461 42.2474 132.704 40.8903 131.286C40.1308 130.492 39.3641 129.919 38.3952 129.422C37.2708 128.844 36.3544 128.565 34.9859 128.384L34.6742 128.343L34.6532 127.244L34.6321 126.146L34.4454 125.985C34.1922 125.768 33.8078 125.768 33.5546 125.985L33.3679 126.146L33.3468 127.244L33.3258 128.343L33.0141 128.383C30.747 128.68 28.9435 129.52 27.3931 131.003C26.5905 131.771 26.0044 132.543 25.5215 133.468C24.9587 134.547 24.6843 135.456 24.4454 137.035L24.4127 137.251H23.3461H22.2794L22.0849 137.445C21.763 137.766 21.8502 138.283 22.259 138.476C22.4241 138.555 22.7083 138.579 23.4462 138.579C24.3998 138.579 24.4167 138.582 24.4432 138.729C24.458 138.811 24.5168 139.177 24.5737 139.543C24.7547 140.703 25.2814 142.064 25.9423 143.08L26.2123 143.495H22.5187C19.1996 143.495 18.8081 143.484 18.6577 143.385C18.2764 143.136 18.2975 143.707 18.2975 133.601V124.297H34H49.7025V133.601ZM33.3346 130.767V131.855L33.0186 131.902C32.5005 131.98 31.6704 132.263 31.1507 132.54C29.5287 133.405 28.3923 134.931 28.0309 136.73L27.9256 137.254L26.8543 137.236L25.7831 137.218L25.8051 136.952C25.8685 136.185 26.2038 135.067 26.6208 134.234C27.89 131.698 30.4208 129.962 33.2515 129.686C33.3149 129.68 33.3346 129.936 33.3346 130.767ZM35.9685 129.913C38.3471 130.506 40.2903 132.062 41.3851 134.253C41.8017 135.086 42.1317 136.186 42.1949 136.952L42.2169 137.218L41.1475 137.236L40.0781 137.254L39.9604 136.704C39.5624 134.846 38.3688 133.291 36.6947 132.451C36.2896 132.248 35.4112 131.967 34.9814 131.902L34.6654 131.855V130.77V129.684L35.0147 129.723C35.2068 129.745 35.636 129.83 35.9685 129.913ZM35.1801 133.304C36.0926 133.538 37.0838 134.168 37.6634 134.884C38.3954 135.787 38.7299 136.738 38.7293 137.915C38.7285 139.304 38.2463 140.402 37.2078 141.38C36.6455 141.91 35.7819 142.367 35.029 142.534C34.2806 142.701 33.2115 142.646 32.5036 142.404C29.7377 141.462 28.4424 138.274 29.7849 135.714C30.4851 134.379 31.8086 133.434 33.3038 133.202C33.7955 133.126 34.6713 133.173 35.1801 133.304ZM35.5544 135.875C35.4762 135.919 34.9866 136.464 34.4664 137.085C33.9462 137.706 33.4809 138.256 33.4322 138.307C33.3574 138.385 33.2801 138.346 32.9258 138.05C32.4448 137.649 32.2549 137.561 31.9941 137.618C31.7643 137.669 31.4716 138.003 31.4716 138.216C31.4716 138.514 31.6241 138.706 32.3415 139.308C33.1937 140.024 33.3718 140.106 33.6935 139.931C33.9019 139.818 36.2718 137.074 36.4527 136.737C36.7455 136.19 36.0964 135.567 35.5544 135.875ZM28.0667 139.227C28.4769 141.019 29.6604 142.523 31.3053 143.344C31.7555 143.568 32.4381 143.8 32.8356 143.863C33.3766 143.949 33.3346 143.851 33.3346 145.027V146.086H33.1322C33.0209 146.086 32.699 146.039 32.417 145.983C28.9424 145.286 26.2837 142.467 25.8262 138.994L25.7715 138.579H26.845H27.9185L28.0667 139.227ZM42.1736 138.994C41.7195 142.428 39.0971 145.247 35.6967 145.959C35.3673 146.027 35.0006 146.084 34.8816 146.085L34.6654 146.086V145.027C34.6654 143.851 34.6234 143.949 35.1644 143.863C35.3108 143.84 35.6251 143.758 35.863 143.682C38.0354 142.984 39.6219 141.131 40.018 138.828L40.0608 138.579H41.1447H42.2285L42.1736 138.994Z" fill="#E49B00"/>
</svg>
