<svg width="829" height="140" viewBox="0 0 829 140" fill="none" xmlns="http://www.w3.org/2000/svg">
<path d="M8.51047 136L8.51047 124.752H10.6385L10.6385 136H8.51047ZM5.72647 126.64V124.752H10.4145L10.4145 126.64H5.72647ZM5.72647 136V134.112H12.8945V136H5.72647ZM16.316 136.16C15.932 136.16 15.6173 136.032 15.372 135.776C15.1266 135.52 15.004 135.205 15.004 134.832C15.004 134.459 15.1266 134.144 15.372 133.888C15.6173 133.632 15.932 133.504 16.316 133.504C16.6893 133.504 16.9986 133.632 17.244 133.888C17.4893 134.144 17.612 134.459 17.612 134.832C17.612 135.205 17.4893 135.52 17.244 135.776C16.9986 136.032 16.6893 136.16 16.316 136.16ZM28.416 136.16C27.5093 136.16 26.7307 136.005 26.08 135.696C25.44 135.387 24.8587 134.923 24.336 134.304L25.776 132.864C26.1067 133.301 26.4907 133.643 26.928 133.888C27.3653 134.123 27.8987 134.24 28.528 134.24C29.0933 134.24 29.5413 134.128 29.872 133.904C30.2133 133.68 30.384 133.371 30.384 132.976C30.384 132.635 30.288 132.357 30.096 132.144C29.904 131.931 29.648 131.749 29.328 131.6C29.0187 131.451 28.672 131.317 28.288 131.2C27.9147 131.072 27.536 130.928 27.152 130.768C26.7787 130.608 26.432 130.411 26.112 130.176C25.8027 129.931 25.552 129.621 25.36 129.248C25.168 128.864 25.072 128.384 25.072 127.808C25.072 127.125 25.2373 126.544 25.568 126.064C25.8987 125.584 26.352 125.216 26.928 124.96C27.504 124.704 28.1547 124.576 28.88 124.576C29.648 124.576 30.3413 124.72 30.96 125.008C31.5787 125.296 32.0853 125.669 32.48 126.128L31.04 127.568C30.7093 127.205 30.368 126.939 30.016 126.768C29.6747 126.597 29.2853 126.512 28.848 126.512C28.3467 126.512 27.952 126.608 27.664 126.8C27.376 126.992 27.232 127.269 27.232 127.632C27.232 127.941 27.328 128.192 27.52 128.384C27.712 128.576 27.9627 128.741 28.272 128.88C28.592 129.019 28.9387 129.152 29.312 129.28C29.696 129.408 30.0747 129.552 30.448 129.712C30.832 129.872 31.1787 130.08 31.488 130.336C31.808 130.592 32.064 130.923 32.256 131.328C32.448 131.723 32.544 132.213 32.544 132.8C32.544 133.845 32.176 134.667 31.44 135.264C30.704 135.861 29.696 136.16 28.416 136.16ZM39.2374 136V131.568C39.2374 131.109 39.0934 130.736 38.8054 130.448C38.5174 130.16 38.144 130.016 37.6854 130.016C37.3867 130.016 37.12 130.08 36.8854 130.208C36.6507 130.336 36.464 130.517 36.3254 130.752C36.1974 130.987 36.1334 131.259 36.1334 131.568L35.3174 131.152C35.3174 130.544 35.4454 130.016 35.7014 129.568C35.9574 129.109 36.3094 128.752 36.7574 128.496C37.216 128.24 37.7387 128.112 38.3254 128.112C38.912 128.112 39.4294 128.24 39.8774 128.496C40.336 128.752 40.6934 129.104 40.9494 129.552C41.2054 130 41.3334 130.517 41.3334 131.104V136H39.2374ZM34.0374 136V124.432H36.1334V136H34.0374ZM46.2538 136.16C45.5498 136.16 44.9151 135.984 44.3498 135.632C43.7844 135.28 43.3418 134.8 43.0218 134.192C42.7018 133.584 42.5418 132.901 42.5418 132.144C42.5418 131.376 42.7018 130.688 43.0218 130.08C43.3418 129.472 43.7844 128.992 44.3498 128.64C44.9151 128.288 45.5498 128.112 46.2538 128.112C46.8084 128.112 47.3044 128.224 47.7418 128.448C48.1791 128.672 48.5258 128.987 48.7818 129.392C49.0484 129.787 49.1924 130.235 49.2138 130.736V133.52C49.1924 134.032 49.0484 134.485 48.7818 134.88C48.5258 135.275 48.1791 135.589 47.7418 135.824C47.3044 136.048 46.8084 136.16 46.2538 136.16ZM46.6378 134.224C47.2244 134.224 47.6991 134.032 48.0618 133.648C48.4244 133.253 48.6058 132.747 48.6058 132.128C48.6058 131.723 48.5204 131.365 48.3498 131.056C48.1898 130.736 47.9604 130.491 47.6618 130.32C47.3738 130.139 47.0324 130.048 46.6378 130.048C46.2538 130.048 45.9124 130.139 45.6138 130.32C45.3258 130.491 45.0964 130.736 44.9258 131.056C44.7658 131.365 44.6858 131.723 44.6858 132.128C44.6858 132.544 44.7658 132.912 44.9258 133.232C45.0964 133.541 45.3258 133.787 45.6138 133.968C45.9124 134.139 46.2538 134.224 46.6378 134.224ZM48.4938 136V133.92L48.8298 132.032L48.4938 130.176V128.272H50.5738V136H48.4938ZM52.428 136V128.272H54.524V136H52.428ZM54.524 131.728L53.708 131.184C53.804 130.235 54.0813 129.488 54.54 128.944C54.9987 128.389 55.66 128.112 56.524 128.112C56.8973 128.112 57.2333 128.176 57.532 128.304C57.8307 128.421 58.1027 128.619 58.348 128.896L57.036 130.4C56.9187 130.272 56.7747 130.176 56.604 130.112C56.444 130.048 56.2573 130.016 56.044 130.016C55.596 130.016 55.228 130.16 54.94 130.448C54.6627 130.725 54.524 131.152 54.524 131.728ZM62.5615 136.16C61.7508 136.16 61.0308 135.989 60.4015 135.648C59.7722 135.296 59.2708 134.816 58.8975 134.208C58.5348 133.6 58.3535 132.907 58.3535 132.128C58.3535 131.36 58.5295 130.677 58.8815 130.08C59.2442 129.472 59.7348 128.992 60.3535 128.64C60.9722 128.277 61.6602 128.096 62.4175 128.096C63.1642 128.096 63.8202 128.267 64.3855 128.608C64.9615 128.939 65.4095 129.397 65.7295 129.984C66.0602 130.56 66.2255 131.216 66.2255 131.952C66.2255 132.091 66.2148 132.235 66.1935 132.384C66.1828 132.523 66.1562 132.683 66.1135 132.864L59.6175 132.88V131.312L65.1375 131.296L64.2895 131.952C64.2682 131.493 64.1828 131.109 64.0335 130.8C63.8948 130.491 63.6868 130.256 63.4095 130.096C63.1428 129.925 62.8122 129.84 62.4175 129.84C62.0015 129.84 61.6388 129.936 61.3295 130.128C61.0202 130.309 60.7802 130.571 60.6095 130.912C60.4495 131.243 60.3695 131.637 60.3695 132.096C60.3695 132.565 60.4548 132.976 60.6255 133.328C60.8068 133.669 61.0628 133.936 61.3935 134.128C61.7242 134.309 62.1082 134.4 62.5455 134.4C62.9402 134.4 63.2975 134.336 63.6175 134.208C63.9375 134.069 64.2148 133.867 64.4495 133.6L65.6815 134.832C65.3082 135.269 64.8495 135.6 64.3055 135.824C63.7722 136.048 63.1908 136.16 62.5615 136.16ZM73.0788 136.064L69.8468 128.272H72.1188L74.2628 134.224H73.4948L75.7188 128.272H78.0068L74.5668 136.048L73.0788 136.064ZM70.9348 139.232L73.2868 134.256L74.5668 136.048L73.1588 139.232H70.9348ZM82.3569 136.16C81.5782 136.16 80.8742 135.984 80.2449 135.632C79.6262 135.269 79.1302 134.784 78.7569 134.176C78.3942 133.557 78.2129 132.869 78.2129 132.112C78.2129 131.355 78.3942 130.677 78.7569 130.08C79.1195 129.472 79.6155 128.992 80.2449 128.64C80.8742 128.277 81.5729 128.096 82.3409 128.096C83.1302 128.096 83.8342 128.277 84.4529 128.64C85.0822 128.992 85.5782 129.472 85.9409 130.08C86.3035 130.677 86.4849 131.355 86.4849 132.112C86.4849 132.869 86.3035 133.557 85.9409 134.176C85.5782 134.784 85.0822 135.269 84.4529 135.632C83.8342 135.984 83.1355 136.16 82.3569 136.16ZM82.3409 134.208C82.7355 134.208 83.0822 134.123 83.3809 133.952C83.6902 133.771 83.9249 133.525 84.0849 133.216C84.2555 132.896 84.3409 132.533 84.3409 132.128C84.3409 131.723 84.2555 131.365 84.0849 131.056C83.9142 130.747 83.6795 130.507 83.3809 130.336C83.0822 130.155 82.7355 130.064 82.3409 130.064C81.9569 130.064 81.6155 130.155 81.3169 130.336C81.0182 130.507 80.7835 130.747 80.6129 131.056C80.4422 131.365 80.3569 131.723 80.3569 132.128C80.3569 132.533 80.4422 132.896 80.6129 133.216C80.7835 133.525 81.0182 133.771 81.3169 133.952C81.6155 134.123 81.9569 134.208 82.3409 134.208ZM91.1302 136.16C90.4476 136.16 89.8396 136.016 89.3063 135.728C88.7836 135.44 88.3729 135.04 88.0743 134.528C87.7756 134.016 87.6263 133.424 87.6263 132.752V128.272H89.7383V132.704C89.7383 133.024 89.7916 133.301 89.8983 133.536C90.0049 133.76 90.1649 133.931 90.3783 134.048C90.5916 134.165 90.8423 134.224 91.1302 134.224C91.5676 134.224 91.9089 134.091 92.1543 133.824C92.3996 133.557 92.5223 133.184 92.5223 132.704V128.272L94.6183 128.272V132.752C94.6183 133.435 94.4689 134.032 94.1703 134.544C93.8823 135.056 93.4716 135.456 92.9383 135.744C92.4156 136.021 91.8129 136.16 91.1302 136.16ZM96.2874 136V128.272H98.3834V136H96.2874ZM98.3834 131.728L97.5674 131.184C97.6634 130.235 97.9407 129.488 98.3994 128.944C98.858 128.389 99.5194 128.112 100.383 128.112C100.757 128.112 101.093 128.176 101.391 128.304C101.69 128.421 101.962 128.619 102.207 128.896L100.895 130.4C100.778 130.272 100.634 130.176 100.463 130.112C100.303 130.048 100.117 130.016 99.9034 130.016C99.4554 130.016 99.0874 130.16 98.7994 130.448C98.522 130.725 98.3834 131.152 98.3834 131.728ZM108.174 131.296V129.6H110.782C111.315 129.6 111.726 129.467 112.014 129.2C112.313 128.923 112.462 128.544 112.462 128.064C112.462 127.627 112.313 127.264 112.014 126.976C111.726 126.677 111.315 126.528 110.782 126.528H108.174V124.752H110.974C111.699 124.752 112.334 124.896 112.878 125.184C113.433 125.461 113.859 125.845 114.158 126.336C114.467 126.827 114.622 127.392 114.622 128.032C114.622 128.693 114.467 129.269 114.158 129.76C113.859 130.24 113.433 130.619 112.878 130.896C112.323 131.163 111.678 131.296 110.942 131.296H108.174ZM106.574 136V124.752H108.75V136H106.574ZM112.718 136L109.006 131.136L111.006 130.512L115.358 136H112.718ZM119.843 136.16C119.032 136.16 118.312 135.989 117.683 135.648C117.053 135.296 116.552 134.816 116.179 134.208C115.816 133.6 115.635 132.907 115.635 132.128C115.635 131.36 115.811 130.677 116.163 130.08C116.525 129.472 117.016 128.992 117.635 128.64C118.253 128.277 118.941 128.096 119.699 128.096C120.445 128.096 121.101 128.267 121.667 128.608C122.243 128.939 122.691 129.397 123.011 129.984C123.341 130.56 123.507 131.216 123.507 131.952C123.507 132.091 123.496 132.235 123.475 132.384C123.464 132.523 123.437 132.683 123.395 132.864L116.899 132.88V131.312L122.419 131.296L121.571 131.952C121.549 131.493 121.464 131.109 121.315 130.8C121.176 130.491 120.968 130.256 120.691 130.096C120.424 129.925 120.093 129.84 119.699 129.84C119.283 129.84 118.92 129.936 118.611 130.128C118.301 130.309 118.061 130.571 117.891 130.912C117.731 131.243 117.651 131.637 117.651 132.096C117.651 132.565 117.736 132.976 117.907 133.328C118.088 133.669 118.344 133.936 118.675 134.128C119.005 134.309 119.389 134.4 119.827 134.4C120.221 134.4 120.579 134.336 120.899 134.208C121.219 134.069 121.496 133.867 121.731 133.6L122.963 134.832C122.589 135.269 122.131 135.6 121.587 135.824C121.053 136.048 120.472 136.16 119.843 136.16ZM128.035 136.16C127.331 136.16 126.696 135.984 126.131 135.632C125.566 135.28 125.123 134.8 124.803 134.192C124.483 133.584 124.323 132.901 124.323 132.144C124.323 131.376 124.483 130.688 124.803 130.08C125.123 129.472 125.566 128.992 126.131 128.64C126.696 128.288 127.331 128.112 128.035 128.112C128.59 128.112 129.086 128.224 129.523 128.448C129.96 128.672 130.307 128.987 130.563 129.392C130.83 129.787 130.974 130.235 130.995 130.736V133.52C130.974 134.032 130.83 134.485 130.563 134.88C130.307 135.275 129.96 135.589 129.523 135.824C129.086 136.048 128.59 136.16 128.035 136.16ZM128.419 134.224C129.006 134.224 129.48 134.032 129.843 133.648C130.206 133.253 130.387 132.747 130.387 132.128C130.387 131.723 130.302 131.365 130.131 131.056C129.971 130.736 129.742 130.491 129.443 130.32C129.155 130.139 128.814 130.048 128.419 130.048C128.035 130.048 127.694 130.139 127.395 130.32C127.107 130.491 126.878 130.736 126.707 131.056C126.547 131.365 126.467 131.723 126.467 132.128C126.467 132.544 126.547 132.912 126.707 133.232C126.878 133.541 127.107 133.787 127.395 133.968C127.694 134.139 128.035 134.224 128.419 134.224ZM130.275 139.232V134.048L130.611 132.176L130.275 130.304V128.272H132.355V139.232H130.275ZM137.505 136.16C136.823 136.16 136.215 136.016 135.681 135.728C135.159 135.44 134.748 135.04 134.449 134.528C134.151 134.016 134.001 133.424 134.001 132.752V128.272H136.113V132.704C136.113 133.024 136.167 133.301 136.273 133.536C136.38 133.76 136.54 133.931 136.753 134.048C136.967 134.165 137.217 134.224 137.505 134.224C137.943 134.224 138.284 134.091 138.529 133.824C138.775 133.557 138.897 133.184 138.897 132.704V128.272H140.993V132.752C140.993 133.435 140.844 134.032 140.545 134.544C140.257 135.056 139.847 135.456 139.313 135.744C138.791 136.021 138.188 136.16 137.505 136.16ZM142.662 136V128.272H144.774V136H142.662ZM143.718 127.024C143.377 127.024 143.094 126.912 142.87 126.688C142.646 126.453 142.534 126.165 142.534 125.824C142.534 125.493 142.646 125.211 142.87 124.976C143.094 124.741 143.377 124.624 143.718 124.624C144.07 124.624 144.353 124.741 144.566 124.976C144.79 125.211 144.902 125.493 144.902 125.824C144.902 126.165 144.79 126.453 144.566 126.688C144.353 126.912 144.07 127.024 143.718 127.024ZM146.631 136V128.272H148.727V136H146.631ZM148.727 131.728L147.911 131.184C148.007 130.235 148.284 129.488 148.743 128.944C149.202 128.389 149.863 128.112 150.727 128.112C151.1 128.112 151.436 128.176 151.735 128.304C152.034 128.421 152.306 128.619 152.551 128.896L151.239 130.4C151.122 130.272 150.978 130.176 150.807 130.112C150.647 130.048 150.46 130.016 150.247 130.016C149.799 130.016 149.431 130.16 149.143 130.448C148.866 130.725 148.727 131.152 148.727 131.728ZM156.765 136.16C155.954 136.16 155.234 135.989 154.605 135.648C153.975 135.296 153.474 134.816 153.101 134.208C152.738 133.6 152.557 132.907 152.557 132.128C152.557 131.36 152.733 130.677 153.085 130.08C153.447 129.472 153.938 128.992 154.557 128.64C155.175 128.277 155.863 128.096 156.621 128.096C157.367 128.096 158.023 128.267 158.589 128.608C159.165 128.939 159.613 129.397 159.933 129.984C160.263 130.56 160.429 131.216 160.429 131.952C160.429 132.091 160.418 132.235 160.397 132.384C160.386 132.523 160.359 132.683 160.317 132.864L153.821 132.88V131.312L159.341 131.296L158.493 131.952C158.471 131.493 158.386 131.109 158.237 130.8C158.098 130.491 157.89 130.256 157.613 130.096C157.346 129.925 157.015 129.84 156.621 129.84C156.205 129.84 155.842 129.936 155.533 130.128C155.223 130.309 154.983 130.571 154.813 130.912C154.653 131.243 154.573 131.637 154.573 132.096C154.573 132.565 154.658 132.976 154.829 133.328C155.01 133.669 155.266 133.936 155.597 134.128C155.927 134.309 156.311 134.4 156.749 134.4C157.143 134.4 157.501 134.336 157.821 134.208C158.141 134.069 158.418 133.867 158.653 133.6L159.885 134.832C159.511 135.269 159.053 135.6 158.509 135.824C157.975 136.048 157.394 136.16 156.765 136.16ZM161.725 136V128.272H163.821V136H161.725ZM166.765 136V131.44C166.765 130.992 166.621 130.645 166.333 130.4C166.056 130.144 165.709 130.016 165.293 130.016C165.016 130.016 164.765 130.075 164.541 130.192C164.317 130.299 164.141 130.459 164.013 130.672C163.885 130.885 163.821 131.141 163.821 131.44L163.005 131.04C163.005 130.443 163.133 129.925 163.389 129.488C163.656 129.051 164.013 128.715 164.461 128.48C164.909 128.235 165.416 128.112 165.981 128.112C166.514 128.112 167 128.235 167.437 128.48C167.874 128.715 168.221 129.051 168.477 129.488C168.733 129.915 168.861 130.432 168.861 131.04V136H166.765ZM171.805 136V131.44C171.805 130.992 171.661 130.645 171.373 130.4C171.096 130.144 170.749 130.016 170.333 130.016C170.066 130.016 169.816 130.075 169.581 130.192C169.357 130.299 169.181 130.459 169.053 130.672C168.925 130.885 168.861 131.141 168.861 131.44L167.661 131.152C167.704 130.533 167.869 130 168.157 129.552C168.445 129.093 168.824 128.741 169.293 128.496C169.762 128.24 170.285 128.112 170.861 128.112C171.437 128.112 171.954 128.235 172.413 128.48C172.872 128.715 173.234 129.056 173.501 129.504C173.768 129.952 173.901 130.485 173.901 131.104V136H171.805ZM179.296 136.16C178.485 136.16 177.765 135.989 177.136 135.648C176.507 135.296 176.005 134.816 175.632 134.208C175.269 133.6 175.088 132.907 175.088 132.128C175.088 131.36 175.264 130.677 175.616 130.08C175.979 129.472 176.469 128.992 177.088 128.64C177.707 128.277 178.395 128.096 179.152 128.096C179.899 128.096 180.555 128.267 181.12 128.608C181.696 128.939 182.144 129.397 182.464 129.984C182.795 130.56 182.96 131.216 182.96 131.952C182.96 132.091 182.949 132.235 182.928 132.384C182.917 132.523 182.891 132.683 182.848 132.864L176.352 132.88V131.312L181.872 131.296L181.024 131.952C181.003 131.493 180.917 131.109 180.768 130.8C180.629 130.491 180.421 130.256 180.144 130.096C179.877 129.925 179.547 129.84 179.152 129.84C178.736 129.84 178.373 129.936 178.064 130.128C177.755 130.309 177.515 130.571 177.344 130.912C177.184 131.243 177.104 131.637 177.104 132.096C177.104 132.565 177.189 132.976 177.36 133.328C177.541 133.669 177.797 133.936 178.128 134.128C178.459 134.309 178.843 134.4 179.28 134.4C179.675 134.4 180.032 134.336 180.352 134.208C180.672 134.069 180.949 133.867 181.184 133.6L182.416 134.832C182.043 135.269 181.584 135.6 181.04 135.824C180.507 136.048 179.925 136.16 179.296 136.16ZM189.456 136V131.568C189.456 131.109 189.312 130.736 189.024 130.448C188.736 130.16 188.363 130.016 187.904 130.016C187.605 130.016 187.339 130.08 187.104 130.208C186.869 130.336 186.683 130.517 186.544 130.752C186.416 130.987 186.352 131.259 186.352 131.568L185.536 131.152C185.536 130.544 185.664 130.016 185.92 129.568C186.187 129.109 186.549 128.752 187.008 128.496C187.477 128.24 188.005 128.112 188.592 128.112C189.157 128.112 189.664 128.256 190.112 128.544C190.56 128.821 190.912 129.189 191.168 129.648C191.424 130.096 191.552 130.581 191.552 131.104V136H189.456ZM184.256 136V128.272H186.352V136H184.256ZM194.283 136V125.056H196.379V136H194.283ZM192.475 130.112V128.272H198.187V130.112H192.475Z" fill="white" fill-opacity="0.8"/>
<path d="M246.416 134.752L250.656 130.32C250.955 130 251.195 129.717 251.376 129.472C251.568 129.216 251.707 128.976 251.792 128.752C251.877 128.517 251.92 128.283 251.92 128.048C251.92 127.579 251.765 127.211 251.456 126.944C251.157 126.677 250.768 126.544 250.288 126.544C249.797 126.544 249.36 126.672 248.976 126.928C248.603 127.184 248.251 127.589 247.92 128.144L246.432 126.88C246.88 126.123 247.435 125.552 248.096 125.168C248.768 124.773 249.536 124.576 250.4 124.576C251.136 124.576 251.776 124.72 252.32 125.008C252.875 125.296 253.301 125.696 253.6 126.208C253.899 126.72 254.048 127.317 254.048 128C254.048 128.459 253.989 128.875 253.872 129.248C253.765 129.621 253.579 129.995 253.312 130.368C253.056 130.731 252.699 131.141 252.24 131.6L249.152 134.752H246.416ZM246.416 136V134.752L248.272 134.112H254.288V136H246.416ZM257.212 136.16C256.828 136.16 256.513 136.032 256.268 135.776C256.022 135.52 255.9 135.205 255.9 134.832C255.9 134.459 256.022 134.144 256.268 133.888C256.513 133.632 256.828 133.504 257.212 133.504C257.585 133.504 257.894 133.632 258.14 133.888C258.385 134.144 258.508 134.459 258.508 134.832C258.508 135.205 258.385 135.52 258.14 135.776C257.894 136.032 257.585 136.16 257.212 136.16ZM263.84 136V124.752H266.016V136H263.84ZM265.44 131.392V129.456H271.104V131.392H265.44ZM265.44 126.672V124.752H271.376V126.672H265.44ZM272.866 136V128.272H274.978V136H272.866ZM273.922 127.024C273.58 127.024 273.298 126.912 273.074 126.688C272.85 126.453 272.738 126.165 272.738 125.824C272.738 125.493 272.85 125.211 273.074 124.976C273.298 124.741 273.58 124.624 273.922 124.624C274.274 124.624 274.556 124.741 274.77 124.976C274.994 125.211 275.106 125.493 275.106 125.824C275.106 126.165 274.994 126.453 274.77 126.688C274.556 126.912 274.274 127.024 273.922 127.024ZM282.034 136V131.568C282.034 131.109 281.89 130.736 281.602 130.448C281.314 130.16 280.941 130.016 280.482 130.016C280.184 130.016 279.917 130.08 279.682 130.208C279.448 130.336 279.261 130.517 279.122 130.752C278.994 130.987 278.93 131.259 278.93 131.568L278.114 131.152C278.114 130.544 278.242 130.016 278.498 129.568C278.765 129.109 279.128 128.752 279.586 128.496C280.056 128.24 280.584 128.112 281.17 128.112C281.736 128.112 282.242 128.256 282.69 128.544C283.138 128.821 283.49 129.189 283.746 129.648C284.002 130.096 284.13 130.581 284.13 131.104V136H282.034ZM276.834 136V128.272H278.93V136H276.834ZM289.051 136.16C288.347 136.16 287.712 135.984 287.147 135.632C286.581 135.28 286.139 134.8 285.819 134.192C285.499 133.584 285.339 132.901 285.339 132.144C285.339 131.376 285.499 130.688 285.819 130.08C286.139 129.472 286.581 128.992 287.147 128.64C287.712 128.288 288.347 128.112 289.051 128.112C289.605 128.112 290.101 128.224 290.539 128.448C290.976 128.672 291.323 128.987 291.579 129.392C291.845 129.787 291.989 130.235 292.011 130.736V133.52C291.989 134.032 291.845 134.485 291.579 134.88C291.323 135.275 290.976 135.589 290.539 135.824C290.101 136.048 289.605 136.16 289.051 136.16ZM289.435 134.224C290.021 134.224 290.496 134.032 290.859 133.648C291.221 133.253 291.403 132.747 291.403 132.128C291.403 131.723 291.317 131.365 291.147 131.056C290.987 130.736 290.757 130.491 290.459 130.32C290.171 130.139 289.829 130.048 289.435 130.048C289.051 130.048 288.709 130.139 288.411 130.32C288.123 130.491 287.893 130.736 287.723 131.056C287.563 131.365 287.483 131.723 287.483 132.128C287.483 132.544 287.563 132.912 287.723 133.232C287.893 133.541 288.123 133.787 288.411 133.968C288.709 134.139 289.051 134.224 289.435 134.224ZM291.291 136V133.92L291.627 132.032L291.291 130.176V128.272H293.371V136H291.291ZM295.225 136V124.432H297.321V136H295.225ZM299.178 136V128.272H301.29V136H299.178ZM300.234 127.024C299.893 127.024 299.61 126.912 299.386 126.688C299.162 126.453 299.05 126.165 299.05 125.824C299.05 125.493 299.162 125.211 299.386 124.976C299.61 124.741 299.893 124.624 300.234 124.624C300.586 124.624 300.869 124.741 301.082 124.976C301.306 125.211 301.418 125.493 301.418 125.824C301.418 126.165 301.306 126.453 301.082 126.688C300.869 126.912 300.586 127.024 300.234 127.024ZM302.603 134.8L306.699 129.472H309.227L305.131 134.8H302.603ZM302.603 136V134.8L304.267 134.176H309.131V136H302.603ZM302.891 130.096V128.272H309.227V129.472L307.547 130.096H302.891ZM314.155 136.16C313.345 136.16 312.625 135.989 311.995 135.648C311.366 135.296 310.865 134.816 310.491 134.208C310.129 133.6 309.947 132.907 309.947 132.128C309.947 131.36 310.123 130.677 310.475 130.08C310.838 129.472 311.329 128.992 311.947 128.64C312.566 128.277 313.254 128.096 314.011 128.096C314.758 128.096 315.414 128.267 315.979 128.608C316.555 128.939 317.003 129.397 317.323 129.984C317.654 130.56 317.819 131.216 317.819 131.952C317.819 132.091 317.809 132.235 317.787 132.384C317.777 132.523 317.75 132.683 317.707 132.864L311.211 132.88V131.312L316.731 131.296L315.883 131.952C315.862 131.493 315.777 131.109 315.627 130.8C315.489 130.491 315.281 130.256 315.003 130.096C314.737 129.925 314.406 129.84 314.011 129.84C313.595 129.84 313.233 129.936 312.923 130.128C312.614 130.309 312.374 130.571 312.203 130.912C312.043 131.243 311.963 131.637 311.963 132.096C311.963 132.565 312.049 132.976 312.219 133.328C312.401 133.669 312.657 133.936 312.987 134.128C313.318 134.309 313.702 134.4 314.139 134.4C314.534 134.4 314.891 134.336 315.211 134.208C315.531 134.069 315.809 133.867 316.043 133.6L317.275 134.832C316.902 135.269 316.443 135.6 315.899 135.824C315.366 136.048 314.785 136.16 314.155 136.16ZM323.377 136V125.056H325.473V136H323.377ZM321.569 130.112V128.272H327.281V130.112H321.569ZM333.659 136V131.568C333.659 131.109 333.515 130.736 333.227 130.448C332.939 130.16 332.566 130.016 332.107 130.016C331.809 130.016 331.542 130.08 331.307 130.208C331.073 130.336 330.886 130.517 330.747 130.752C330.619 130.987 330.555 131.259 330.555 131.568L329.739 131.152C329.739 130.544 329.867 130.016 330.123 129.568C330.379 129.109 330.731 128.752 331.179 128.496C331.638 128.24 332.161 128.112 332.747 128.112C333.334 128.112 333.851 128.24 334.299 128.496C334.758 128.752 335.115 129.104 335.371 129.552C335.627 130 335.755 130.517 335.755 131.104V136H333.659ZM328.459 136V124.432H330.555V136H328.459ZM341.14 136.16C340.329 136.16 339.609 135.989 338.98 135.648C338.35 135.296 337.849 134.816 337.476 134.208C337.113 133.6 336.932 132.907 336.932 132.128C336.932 131.36 337.108 130.677 337.46 130.08C337.822 129.472 338.313 128.992 338.932 128.64C339.55 128.277 340.238 128.096 340.996 128.096C341.742 128.096 342.398 128.267 342.964 128.608C343.54 128.939 343.988 129.397 344.308 129.984C344.638 130.56 344.804 131.216 344.804 131.952C344.804 132.091 344.793 132.235 344.772 132.384C344.761 132.523 344.734 132.683 344.692 132.864L338.196 132.88V131.312L343.716 131.296L342.868 131.952C342.846 131.493 342.761 131.109 342.612 130.8C342.473 130.491 342.265 130.256 341.988 130.096C341.721 129.925 341.39 129.84 340.996 129.84C340.58 129.84 340.217 129.936 339.908 130.128C339.598 130.309 339.358 130.571 339.188 130.912C339.028 131.243 338.948 131.637 338.948 132.096C338.948 132.565 339.033 132.976 339.204 133.328C339.385 133.669 339.641 133.936 339.972 134.128C340.302 134.309 340.686 134.4 341.124 134.4C341.518 134.4 341.876 134.336 342.196 134.208C342.516 134.069 342.793 133.867 343.028 133.6L344.26 134.832C343.886 135.269 343.428 135.6 342.884 135.824C342.35 136.048 341.769 136.16 341.14 136.16ZM352.713 136.16C351.806 136.16 351.028 136.005 350.377 135.696C349.737 135.387 349.156 134.923 348.633 134.304L350.073 132.864C350.404 133.301 350.788 133.643 351.225 133.888C351.662 134.123 352.196 134.24 352.825 134.24C353.39 134.24 353.838 134.128 354.169 133.904C354.51 133.68 354.681 133.371 354.681 132.976C354.681 132.635 354.585 132.357 354.393 132.144C354.201 131.931 353.945 131.749 353.625 131.6C353.316 131.451 352.969 131.317 352.585 131.2C352.212 131.072 351.833 130.928 351.449 130.768C351.076 130.608 350.729 130.411 350.409 130.176C350.1 129.931 349.849 129.621 349.657 129.248C349.465 128.864 349.369 128.384 349.369 127.808C349.369 127.125 349.534 126.544 349.865 126.064C350.196 125.584 350.649 125.216 351.225 124.96C351.801 124.704 352.452 124.576 353.177 124.576C353.945 124.576 354.638 124.72 355.257 125.008C355.876 125.296 356.382 125.669 356.777 126.128L355.337 127.568C355.006 127.205 354.665 126.939 354.313 126.768C353.972 126.597 353.582 126.512 353.145 126.512C352.644 126.512 352.249 126.608 351.961 126.8C351.673 126.992 351.529 127.269 351.529 127.632C351.529 127.941 351.625 128.192 351.817 128.384C352.009 128.576 352.26 128.741 352.569 128.88C352.889 129.019 353.236 129.152 353.609 129.28C353.993 129.408 354.372 129.552 354.745 129.712C355.129 129.872 355.476 130.08 355.785 130.336C356.105 130.592 356.361 130.923 356.553 131.328C356.745 131.723 356.841 132.213 356.841 132.8C356.841 133.845 356.473 134.667 355.737 135.264C355.001 135.861 353.993 136.16 352.713 136.16ZM361.92 136.16C361.13 136.16 360.421 135.984 359.792 135.632C359.162 135.28 358.666 134.8 358.304 134.192C357.941 133.584 357.76 132.901 357.76 132.144C357.76 131.376 357.941 130.688 358.304 130.08C358.666 129.472 359.162 128.992 359.792 128.64C360.432 128.277 361.141 128.096 361.92 128.096C362.528 128.096 363.088 128.208 363.6 128.432C364.112 128.656 364.554 128.976 364.928 129.392L363.584 130.752C363.381 130.528 363.136 130.357 362.848 130.24C362.57 130.123 362.261 130.064 361.92 130.064C361.536 130.064 361.189 130.155 360.88 130.336C360.581 130.507 360.341 130.747 360.16 131.056C359.989 131.355 359.904 131.712 359.904 132.128C359.904 132.533 359.989 132.896 360.16 133.216C360.341 133.525 360.581 133.771 360.88 133.952C361.189 134.123 361.536 134.208 361.92 134.208C362.272 134.208 362.586 134.149 362.864 134.032C363.152 133.904 363.397 133.723 363.6 133.488L364.96 134.848C364.565 135.275 364.112 135.6 363.6 135.824C363.088 136.048 362.528 136.16 361.92 136.16ZM369.607 136.16C368.828 136.16 368.124 135.984 367.495 135.632C366.876 135.269 366.38 134.784 366.007 134.176C365.644 133.557 365.463 132.869 365.463 132.112C365.463 131.355 365.644 130.677 366.007 130.08C366.37 129.472 366.866 128.992 367.495 128.64C368.124 128.277 368.823 128.096 369.591 128.096C370.38 128.096 371.084 128.277 371.703 128.64C372.332 128.992 372.828 129.472 373.191 130.08C373.554 130.677 373.735 131.355 373.735 132.112C373.735 132.869 373.554 133.557 373.191 134.176C372.828 134.784 372.332 135.269 371.703 135.632C371.084 135.984 370.386 136.16 369.607 136.16ZM369.591 134.208C369.986 134.208 370.332 134.123 370.631 133.952C370.94 133.771 371.175 133.525 371.335 133.216C371.506 132.896 371.591 132.533 371.591 132.128C371.591 131.723 371.506 131.365 371.335 131.056C371.164 130.747 370.93 130.507 370.631 130.336C370.332 130.155 369.986 130.064 369.591 130.064C369.207 130.064 368.866 130.155 368.567 130.336C368.268 130.507 368.034 130.747 367.863 131.056C367.692 131.365 367.607 131.723 367.607 132.128C367.607 132.533 367.692 132.896 367.863 133.216C368.034 133.525 368.268 133.771 368.567 133.952C368.866 134.123 369.207 134.208 369.591 134.208ZM379.372 136.16C378.818 136.16 378.316 136.048 377.868 135.824C377.42 135.589 377.063 135.275 376.796 134.88C376.53 134.485 376.386 134.032 376.364 133.52V130.784C376.386 130.272 376.53 129.819 376.796 129.424C377.074 129.019 377.431 128.699 377.868 128.464C378.316 128.229 378.818 128.112 379.372 128.112C380.087 128.112 380.727 128.288 381.292 128.64C381.858 128.992 382.3 129.472 382.62 130.08C382.951 130.688 383.116 131.376 383.116 132.144C383.116 132.901 382.951 133.584 382.62 134.192C382.3 134.8 381.858 135.28 381.292 135.632C380.727 135.984 380.087 136.16 379.372 136.16ZM379.004 134.224C379.388 134.224 379.73 134.139 380.028 133.968C380.327 133.787 380.556 133.541 380.716 133.232C380.887 132.912 380.972 132.544 380.972 132.128C380.972 131.723 380.887 131.365 380.716 131.056C380.556 130.736 380.327 130.491 380.028 130.32C379.73 130.139 379.388 130.048 379.004 130.048C378.631 130.048 378.295 130.139 377.996 130.32C377.698 130.491 377.463 130.736 377.292 131.056C377.132 131.365 377.052 131.723 377.052 132.128C377.052 132.544 377.132 132.912 377.292 133.232C377.463 133.541 377.692 133.787 377.98 133.968C378.279 134.139 378.62 134.224 379.004 134.224ZM375.084 139.232V128.272H377.18V130.304L376.828 132.176L377.164 134.048V139.232H375.084ZM388.187 136.16C387.376 136.16 386.656 135.989 386.027 135.648C385.397 135.296 384.896 134.816 384.523 134.208C384.16 133.6 383.979 132.907 383.979 132.128C383.979 131.36 384.155 130.677 384.507 130.08C384.869 129.472 385.36 128.992 385.979 128.64C386.597 128.277 387.285 128.096 388.043 128.096C388.789 128.096 389.445 128.267 390.011 128.608C390.587 128.939 391.035 129.397 391.355 129.984C391.685 130.56 391.851 131.216 391.851 131.952C391.851 132.091 391.84 132.235 391.819 132.384C391.808 132.523 391.781 132.683 391.739 132.864L385.243 132.88V131.312L390.763 131.296L389.915 131.952C389.893 131.493 389.808 131.109 389.659 130.8C389.52 130.491 389.312 130.256 389.035 130.096C388.768 129.925 388.437 129.84 388.043 129.84C387.627 129.84 387.264 129.936 386.955 130.128C386.645 130.309 386.405 130.571 386.235 130.912C386.075 131.243 385.995 131.637 385.995 132.096C385.995 132.565 386.08 132.976 386.251 133.328C386.432 133.669 386.688 133.936 387.019 134.128C387.349 134.309 387.733 134.4 388.171 134.4C388.565 134.4 388.923 134.336 389.243 134.208C389.563 134.069 389.84 133.867 390.075 133.6L391.307 134.832C390.933 135.269 390.475 135.6 389.931 135.824C389.397 136.048 388.816 136.16 388.187 136.16Z" fill="white" fill-opacity="0.8"/>
<path d="M481.984 136.16C481.227 136.16 480.533 136.027 479.904 135.76C479.275 135.483 478.747 135.088 478.32 134.576L479.76 133.152C479.973 133.472 480.277 133.728 480.672 133.92C481.067 134.112 481.493 134.208 481.952 134.208C482.379 134.208 482.747 134.133 483.056 133.984C483.365 133.824 483.605 133.605 483.776 133.328C483.957 133.04 484.048 132.709 484.048 132.336C484.048 131.941 483.957 131.605 483.776 131.328C483.605 131.051 483.355 130.837 483.024 130.688C482.693 130.539 482.299 130.464 481.84 130.464C481.637 130.464 481.429 130.48 481.216 130.512C481.003 130.533 480.821 130.571 480.672 130.624L481.632 129.408C481.899 129.323 482.16 129.253 482.416 129.2C482.683 129.136 482.928 129.104 483.152 129.104C483.728 129.104 484.245 129.243 484.704 129.52C485.173 129.787 485.541 130.171 485.808 130.672C486.085 131.163 486.224 131.744 486.224 132.416C486.224 133.163 486.048 133.819 485.696 134.384C485.344 134.939 484.848 135.376 484.208 135.696C483.579 136.005 482.837 136.16 481.984 136.16ZM480.672 130.624V129.376L483.552 126.032L486.048 126L483.072 129.408L480.672 130.624ZM478.944 126.64V124.752H486.048V126L484.272 126.64H478.944ZM488.774 136.16C488.39 136.16 488.076 136.032 487.83 135.776C487.585 135.52 487.462 135.205 487.462 134.832C487.462 134.459 487.585 134.144 487.83 133.888C488.076 133.632 488.39 133.504 488.774 133.504C489.148 133.504 489.457 133.632 489.702 133.888C489.948 134.144 490.07 134.459 490.07 134.832C490.07 135.205 489.948 135.52 489.702 135.776C489.457 136.032 489.148 136.16 488.774 136.16ZM494.117 136L498.645 124.752H500.421L504.933 136H502.613L499.125 126.768H499.925L496.389 136H494.117ZM496.517 133.904V132.08H502.565V133.904H496.517ZM508.973 139.424C508.151 139.424 507.426 139.275 506.797 138.976C506.167 138.688 505.666 138.277 505.293 137.744L506.621 136.416C506.919 136.768 507.25 137.035 507.613 137.216C507.986 137.408 508.434 137.504 508.957 137.504C509.607 137.504 510.119 137.339 510.493 137.008C510.877 136.677 511.069 136.219 511.069 135.632V133.696L511.421 132L511.085 130.304V128.272H513.165V135.6C513.165 136.368 512.983 137.035 512.621 137.6C512.269 138.176 511.778 138.624 511.149 138.944C510.519 139.264 509.794 139.424 508.973 139.424ZM508.877 135.792C508.183 135.792 507.559 135.627 507.005 135.296C506.45 134.955 506.013 134.491 505.693 133.904C505.383 133.317 505.229 132.661 505.229 131.936C505.229 131.211 505.383 130.56 505.693 129.984C506.013 129.408 506.45 128.955 507.005 128.624C507.559 128.283 508.183 128.112 508.877 128.112C509.453 128.112 509.959 128.224 510.397 128.448C510.845 128.672 511.197 128.981 511.453 129.376C511.709 129.76 511.847 130.213 511.869 130.736V133.168C511.847 133.68 511.703 134.139 511.437 134.544C511.181 134.939 510.829 135.248 510.381 135.472C509.943 135.685 509.442 135.792 508.877 135.792ZM509.293 133.888C509.677 133.888 510.007 133.808 510.285 133.648C510.573 133.477 510.797 133.248 510.957 132.96C511.117 132.661 511.197 132.325 511.197 131.952C511.197 131.568 511.117 131.232 510.957 130.944C510.797 130.656 510.573 130.432 510.285 130.272C510.007 130.101 509.677 130.016 509.293 130.016C508.909 130.016 508.573 130.101 508.285 130.272C507.997 130.432 507.773 130.661 507.613 130.96C507.453 131.248 507.373 131.579 507.373 131.952C507.373 132.315 507.453 132.645 507.613 132.944C507.773 133.232 507.997 133.461 508.285 133.632C508.573 133.803 508.909 133.888 509.293 133.888ZM515.006 136V128.272H517.102V136H515.006ZM517.102 131.728L516.286 131.184C516.382 130.235 516.659 129.488 517.118 128.944C517.577 128.389 518.238 128.112 519.102 128.112C519.475 128.112 519.811 128.176 520.11 128.304C520.409 128.421 520.681 128.619 520.926 128.896L519.614 130.4C519.497 130.272 519.353 130.176 519.182 130.112C519.022 130.048 518.835 130.016 518.622 130.016C518.174 130.016 517.806 130.16 517.518 130.448C517.241 130.725 517.102 131.152 517.102 131.728ZM525.14 136.16C524.329 136.16 523.609 135.989 522.98 135.648C522.35 135.296 521.849 134.816 521.476 134.208C521.113 133.6 520.932 132.907 520.932 132.128C520.932 131.36 521.108 130.677 521.46 130.08C521.822 129.472 522.313 128.992 522.932 128.64C523.55 128.277 524.238 128.096 524.996 128.096C525.742 128.096 526.398 128.267 526.964 128.608C527.54 128.939 527.988 129.397 528.308 129.984C528.638 130.56 528.804 131.216 528.804 131.952C528.804 132.091 528.793 132.235 528.772 132.384C528.761 132.523 528.734 132.683 528.692 132.864L522.196 132.88V131.312L527.716 131.296L526.868 131.952C526.846 131.493 526.761 131.109 526.612 130.8C526.473 130.491 526.265 130.256 525.988 130.096C525.721 129.925 525.39 129.84 524.996 129.84C524.58 129.84 524.217 129.936 523.908 130.128C523.598 130.309 523.358 130.571 523.188 130.912C523.028 131.243 522.948 131.637 522.948 132.096C522.948 132.565 523.033 132.976 523.204 133.328C523.385 133.669 523.641 133.936 523.972 134.128C524.302 134.309 524.686 134.4 525.124 134.4C525.518 134.4 525.876 134.336 526.196 134.208C526.516 134.069 526.793 133.867 527.028 133.6L528.26 134.832C527.886 135.269 527.428 135.6 526.884 135.824C526.35 136.048 525.769 136.16 525.14 136.16ZM533.796 136.16C532.985 136.16 532.265 135.989 531.636 135.648C531.007 135.296 530.505 134.816 530.132 134.208C529.769 133.6 529.588 132.907 529.588 132.128C529.588 131.36 529.764 130.677 530.116 130.08C530.479 129.472 530.969 128.992 531.588 128.64C532.207 128.277 532.895 128.096 533.652 128.096C534.399 128.096 535.055 128.267 535.62 128.608C536.196 128.939 536.644 129.397 536.964 129.984C537.295 130.56 537.46 131.216 537.46 131.952C537.46 132.091 537.449 132.235 537.428 132.384C537.417 132.523 537.391 132.683 537.348 132.864L530.852 132.88V131.312L536.372 131.296L535.524 131.952C535.503 131.493 535.417 131.109 535.268 130.8C535.129 130.491 534.921 130.256 534.644 130.096C534.377 129.925 534.047 129.84 533.652 129.84C533.236 129.84 532.873 129.936 532.564 130.128C532.255 130.309 532.015 130.571 531.844 130.912C531.684 131.243 531.604 131.637 531.604 132.096C531.604 132.565 531.689 132.976 531.86 133.328C532.041 133.669 532.297 133.936 532.628 134.128C532.959 134.309 533.343 134.4 533.78 134.4C534.175 134.4 534.532 134.336 534.852 134.208C535.172 134.069 535.449 133.867 535.684 133.6L536.916 134.832C536.543 135.269 536.084 135.6 535.54 135.824C535.007 136.048 534.425 136.16 533.796 136.16ZM545.513 136.16C544.734 136.16 544.03 135.984 543.401 135.632C542.782 135.269 542.286 134.784 541.913 134.176C541.55 133.557 541.369 132.869 541.369 132.112C541.369 131.355 541.55 130.677 541.913 130.08C542.276 129.472 542.772 128.992 543.401 128.64C544.03 128.277 544.729 128.096 545.497 128.096C546.286 128.096 546.99 128.277 547.609 128.64C548.238 128.992 548.734 129.472 549.097 130.08C549.46 130.677 549.641 131.355 549.641 132.112C549.641 132.869 549.46 133.557 549.097 134.176C548.734 134.784 548.238 135.269 547.609 135.632C546.99 135.984 546.292 136.16 545.513 136.16ZM545.497 134.208C545.892 134.208 546.238 134.123 546.537 133.952C546.846 133.771 547.081 133.525 547.241 133.216C547.412 132.896 547.497 132.533 547.497 132.128C547.497 131.723 547.412 131.365 547.241 131.056C547.07 130.747 546.836 130.507 546.537 130.336C546.238 130.155 545.892 130.064 545.497 130.064C545.113 130.064 544.772 130.155 544.473 130.336C544.174 130.507 543.94 130.747 543.769 131.056C543.598 131.365 543.513 131.723 543.513 132.128C543.513 132.533 543.598 132.896 543.769 133.216C543.94 133.525 544.174 133.771 544.473 133.952C544.772 134.123 545.113 134.208 545.497 134.208ZM556.191 136V131.568C556.191 131.109 556.047 130.736 555.759 130.448C555.471 130.16 555.097 130.016 554.639 130.016C554.34 130.016 554.073 130.08 553.839 130.208C553.604 130.336 553.417 130.517 553.279 130.752C553.151 130.987 553.087 131.259 553.087 131.568L552.271 131.152C552.271 130.544 552.399 130.016 552.655 129.568C552.921 129.109 553.284 128.752 553.743 128.496C554.212 128.24 554.74 128.112 555.327 128.112C555.892 128.112 556.399 128.256 556.847 128.544C557.295 128.821 557.647 129.189 557.903 129.648C558.159 130.096 558.286 130.581 558.286 131.104V136H556.191ZM550.991 136V128.272H553.087V136H550.991ZM564.924 131.824V130.048H567.532C567.873 130.048 568.183 129.979 568.46 129.84C568.737 129.701 568.956 129.504 569.116 129.248C569.276 128.981 569.356 128.661 569.356 128.288C569.356 127.925 569.276 127.611 569.116 127.344C568.956 127.077 568.737 126.875 568.46 126.736C568.183 126.597 567.873 126.528 567.532 126.528H564.924V124.752H567.756C568.471 124.752 569.111 124.896 569.676 125.184C570.252 125.472 570.705 125.883 571.036 126.416C571.367 126.939 571.532 127.563 571.532 128.288C571.532 129.013 571.367 129.643 571.036 130.176C570.705 130.699 570.252 131.104 569.676 131.392C569.111 131.68 568.471 131.824 567.756 131.824H564.924ZM563.324 136V124.752H565.5V136H563.324ZM572.959 136V128.272H575.055V136H572.959ZM575.055 131.728L574.239 131.184C574.335 130.235 574.613 129.488 575.071 128.944C575.53 128.389 576.191 128.112 577.055 128.112C577.429 128.112 577.765 128.176 578.063 128.304C578.362 128.421 578.634 128.619 578.879 128.896L577.567 130.4C577.45 130.272 577.306 130.176 577.135 130.112C576.975 130.048 576.789 130.016 576.575 130.016C576.127 130.016 575.759 130.16 575.471 130.448C575.194 130.725 575.055 131.152 575.055 131.728ZM579.616 136V128.272H581.728V136H579.616ZM580.672 127.024C580.33 127.024 580.048 126.912 579.824 126.688C579.6 126.453 579.488 126.165 579.488 125.824C579.488 125.493 579.6 125.211 579.824 124.976C580.048 124.741 580.33 124.624 580.672 124.624C581.024 124.624 581.306 124.741 581.52 124.976C581.744 125.211 581.856 125.493 581.856 125.824C581.856 126.165 581.744 126.453 581.52 126.688C581.306 126.912 581.024 127.024 580.672 127.024ZM587.232 136.16C586.443 136.16 585.734 135.984 585.104 135.632C584.475 135.28 583.979 134.8 583.616 134.192C583.254 133.584 583.072 132.901 583.072 132.144C583.072 131.376 583.254 130.688 583.616 130.08C583.979 129.472 584.475 128.992 585.104 128.64C585.744 128.277 586.454 128.096 587.232 128.096C587.84 128.096 588.4 128.208 588.912 128.432C589.424 128.656 589.867 128.976 590.24 129.392L588.896 130.752C588.694 130.528 588.448 130.357 588.16 130.24C587.883 130.123 587.574 130.064 587.232 130.064C586.848 130.064 586.502 130.155 586.192 130.336C585.894 130.507 585.654 130.747 585.472 131.056C585.302 131.355 585.216 131.712 585.216 132.128C585.216 132.533 585.302 132.896 585.472 133.216C585.654 133.525 585.894 133.771 586.192 133.952C586.502 134.123 586.848 134.208 587.232 134.208C587.584 134.208 587.899 134.149 588.176 134.032C588.464 133.904 588.71 133.723 588.912 133.488L590.272 134.848C589.878 135.275 589.424 135.6 588.912 135.824C588.4 136.048 587.84 136.16 587.232 136.16ZM594.983 136.16C594.173 136.16 593.453 135.989 592.823 135.648C592.194 135.296 591.693 134.816 591.319 134.208C590.957 133.6 590.775 132.907 590.775 132.128C590.775 131.36 590.951 130.677 591.303 130.08C591.666 129.472 592.157 128.992 592.775 128.64C593.394 128.277 594.082 128.096 594.839 128.096C595.586 128.096 596.242 128.267 596.807 128.608C597.383 128.939 597.831 129.397 598.151 129.984C598.482 130.56 598.647 131.216 598.647 131.952C598.647 132.091 598.637 132.235 598.615 132.384C598.605 132.523 598.578 132.683 598.535 132.864L592.039 132.88V131.312L597.559 131.296L596.711 131.952C596.69 131.493 596.605 131.109 596.455 130.8C596.317 130.491 596.109 130.256 595.831 130.096C595.565 129.925 595.234 129.84 594.839 129.84C594.423 129.84 594.061 129.936 593.751 130.128C593.442 130.309 593.202 130.571 593.031 130.912C592.871 131.243 592.791 131.637 592.791 132.096C592.791 132.565 592.877 132.976 593.047 133.328C593.229 133.669 593.485 133.936 593.815 134.128C594.146 134.309 594.53 134.4 594.967 134.4C595.362 134.4 595.719 134.336 596.039 134.208C596.359 134.069 596.637 133.867 596.871 133.6L598.103 134.832C597.73 135.269 597.271 135.6 596.727 135.824C596.194 136.048 595.613 136.16 594.983 136.16Z" fill="white" fill-opacity="0.8"/>
<path d="M685.4 132.032L689.24 124.752H691.64L687.704 132.032H685.4ZM685.4 133.312V132.032L686.2 131.408H694.264V133.312H685.4ZM690.712 136V128.832H692.856V136H690.712ZM696.524 136.16C696.14 136.16 695.826 136.032 695.58 135.776C695.335 135.52 695.212 135.205 695.212 134.832C695.212 134.459 695.335 134.144 695.58 133.888C695.826 133.632 696.14 133.504 696.524 133.504C696.898 133.504 697.207 133.632 697.452 133.888C697.698 134.144 697.82 134.459 697.82 134.832C697.82 135.205 697.698 135.52 697.452 135.776C697.207 136.032 696.898 136.16 696.524 136.16ZM706.416 136.16C705.509 136.16 704.731 136.005 704.08 135.696C703.44 135.387 702.859 134.923 702.336 134.304L703.776 132.864C704.107 133.301 704.491 133.643 704.928 133.888C705.365 134.123 705.899 134.24 706.528 134.24C707.093 134.24 707.541 134.128 707.872 133.904C708.213 133.68 708.384 133.371 708.384 132.976C708.384 132.635 708.288 132.357 708.096 132.144C707.904 131.931 707.648 131.749 707.328 131.6C707.019 131.451 706.672 131.317 706.288 131.2C705.915 131.072 705.536 130.928 705.152 130.768C704.779 130.608 704.432 130.411 704.112 130.176C703.803 129.931 703.552 129.621 703.36 129.248C703.168 128.864 703.072 128.384 703.072 127.808C703.072 127.125 703.237 126.544 703.568 126.064C703.899 125.584 704.352 125.216 704.928 124.96C705.504 124.704 706.155 124.576 706.88 124.576C707.648 124.576 708.341 124.72 708.96 125.008C709.579 125.296 710.085 125.669 710.48 126.128L709.04 127.568C708.709 127.205 708.368 126.939 708.016 126.768C707.675 126.597 707.285 126.512 706.848 126.512C706.347 126.512 705.952 126.608 705.664 126.8C705.376 126.992 705.232 127.269 705.232 127.632C705.232 127.941 705.328 128.192 705.52 128.384C705.712 128.576 705.963 128.741 706.272 128.88C706.592 129.019 706.939 129.152 707.312 129.28C707.696 129.408 708.075 129.552 708.448 129.712C708.832 129.872 709.179 130.08 709.488 130.336C709.808 130.592 710.064 130.923 710.256 131.328C710.448 131.723 710.544 132.213 710.544 132.8C710.544 133.845 710.176 134.667 709.44 135.264C708.704 135.861 707.696 136.16 706.416 136.16ZM712.037 136V128.272H714.149V136H712.037ZM713.093 127.024C712.752 127.024 712.469 126.912 712.245 126.688C712.021 126.453 711.909 126.165 711.909 125.824C711.909 125.493 712.021 125.211 712.245 124.976C712.469 124.741 712.752 124.624 713.093 124.624C713.445 124.624 713.728 124.741 713.941 124.976C714.165 125.211 714.277 125.493 714.277 125.824C714.277 126.165 714.165 126.453 713.941 126.688C713.728 126.912 713.445 127.024 713.093 127.024ZM719.238 139.424C718.417 139.424 717.691 139.275 717.062 138.976C716.433 138.688 715.931 138.277 715.558 137.744L716.886 136.416C717.185 136.768 717.515 137.035 717.878 137.216C718.251 137.408 718.699 137.504 719.222 137.504C719.873 137.504 720.385 137.339 720.758 137.008C721.142 136.677 721.334 136.219 721.334 135.632V133.696L721.686 132L721.35 130.304V128.272H723.43V135.6C723.43 136.368 723.249 137.035 722.886 137.6C722.534 138.176 722.043 138.624 721.414 138.944C720.785 139.264 720.059 139.424 719.238 139.424ZM719.142 135.792C718.449 135.792 717.825 135.627 717.27 135.296C716.715 134.955 716.278 134.491 715.958 133.904C715.649 133.317 715.494 132.661 715.494 131.936C715.494 131.211 715.649 130.56 715.958 129.984C716.278 129.408 716.715 128.955 717.27 128.624C717.825 128.283 718.449 128.112 719.142 128.112C719.718 128.112 720.225 128.224 720.662 128.448C721.11 128.672 721.462 128.981 721.718 129.376C721.974 129.76 722.113 130.213 722.134 130.736V133.168C722.113 133.68 721.969 134.139 721.702 134.544C721.446 134.939 721.094 135.248 720.646 135.472C720.209 135.685 719.707 135.792 719.142 135.792ZM719.558 133.888C719.942 133.888 720.273 133.808 720.55 133.648C720.838 133.477 721.062 133.248 721.222 132.96C721.382 132.661 721.462 132.325 721.462 131.952C721.462 131.568 721.382 131.232 721.222 130.944C721.062 130.656 720.838 130.432 720.55 130.272C720.273 130.101 719.942 130.016 719.558 130.016C719.174 130.016 718.838 130.101 718.55 130.272C718.262 130.432 718.038 130.661 717.878 130.96C717.718 131.248 717.638 131.579 717.638 131.952C717.638 132.315 717.718 132.645 717.878 132.944C718.038 133.232 718.262 133.461 718.55 133.632C718.838 133.803 719.174 133.888 719.558 133.888ZM730.472 136V131.568C730.472 131.109 730.328 130.736 730.04 130.448C729.752 130.16 729.378 130.016 728.92 130.016C728.621 130.016 728.354 130.08 728.12 130.208C727.885 130.336 727.698 130.517 727.56 130.752C727.432 130.987 727.368 131.259 727.368 131.568L726.552 131.152C726.552 130.544 726.68 130.016 726.936 129.568C727.202 129.109 727.565 128.752 728.024 128.496C728.493 128.24 729.021 128.112 729.608 128.112C730.173 128.112 730.68 128.256 731.128 128.544C731.576 128.821 731.928 129.189 732.184 129.648C732.44 130.096 732.568 130.581 732.568 131.104V136H730.472ZM725.272 136V128.272H727.368V136H725.272ZM738.517 136V125.056H740.613V136H738.517ZM736.709 130.112V128.272H742.421V130.112H736.709ZM748.8 136V131.568C748.8 131.109 748.656 130.736 748.368 130.448C748.08 130.16 747.707 130.016 747.248 130.016C746.949 130.016 746.683 130.08 746.448 130.208C746.213 130.336 746.027 130.517 745.888 130.752C745.76 130.987 745.696 131.259 745.696 131.568L744.88 131.152C744.88 130.544 745.008 130.016 745.264 129.568C745.52 129.109 745.872 128.752 746.32 128.496C746.779 128.24 747.301 128.112 747.888 128.112C748.475 128.112 748.992 128.24 749.44 128.496C749.899 128.752 750.256 129.104 750.512 129.552C750.768 130 750.896 130.517 750.896 131.104V136H748.8ZM743.6 136V124.432H745.696V136H743.6ZM756.28 136.16C755.47 136.16 754.75 135.989 754.12 135.648C753.491 135.296 752.99 134.816 752.616 134.208C752.254 133.6 752.072 132.907 752.072 132.128C752.072 131.36 752.248 130.677 752.6 130.08C752.963 129.472 753.454 128.992 754.072 128.64C754.691 128.277 755.379 128.096 756.136 128.096C756.883 128.096 757.539 128.267 758.104 128.608C758.68 128.939 759.128 129.397 759.448 129.984C759.779 130.56 759.944 131.216 759.944 131.952C759.944 132.091 759.934 132.235 759.912 132.384C759.902 132.523 759.875 132.683 759.832 132.864L753.336 132.88V131.312L758.856 131.296L758.008 131.952C757.987 131.493 757.902 131.109 757.752 130.8C757.614 130.491 757.406 130.256 757.128 130.096C756.862 129.925 756.531 129.84 756.136 129.84C755.72 129.84 755.358 129.936 755.048 130.128C754.739 130.309 754.499 130.571 754.328 130.912C754.168 131.243 754.088 131.637 754.088 132.096C754.088 132.565 754.174 132.976 754.344 133.328C754.526 133.669 754.782 133.936 755.112 134.128C755.443 134.309 755.827 134.4 756.264 134.4C756.659 134.4 757.016 134.336 757.336 134.208C757.656 134.069 757.934 133.867 758.168 133.6L759.4 134.832C759.027 135.269 758.568 135.6 758.024 135.824C757.491 136.048 756.91 136.16 756.28 136.16ZM769.806 136.16C768.984 136.16 768.222 136.016 767.518 135.728C766.814 135.429 766.195 135.019 765.662 134.496C765.139 133.963 764.734 133.344 764.446 132.64C764.168 131.936 764.03 131.179 764.03 130.368C764.03 129.557 764.168 128.8 764.446 128.096C764.734 127.392 765.139 126.779 765.662 126.256C766.195 125.733 766.808 125.323 767.502 125.024C768.206 124.725 768.974 124.576 769.806 124.576C770.702 124.576 771.491 124.725 772.174 125.024C772.856 125.312 773.459 125.712 773.982 126.224L772.51 127.696C772.2 127.355 771.822 127.088 771.374 126.896C770.926 126.704 770.403 126.608 769.806 126.608C769.283 126.608 768.803 126.699 768.366 126.88C767.939 127.051 767.566 127.307 767.246 127.648C766.926 127.979 766.68 128.379 766.51 128.848C766.339 129.307 766.254 129.813 766.254 130.368C766.254 130.933 766.339 131.445 766.51 131.904C766.68 132.363 766.926 132.763 767.246 133.104C767.566 133.435 767.939 133.691 768.366 133.872C768.803 134.053 769.283 134.144 769.806 134.144C770.435 134.144 770.974 134.048 771.422 133.856C771.88 133.664 772.264 133.392 772.574 133.04L774.046 134.512C773.523 135.035 772.915 135.44 772.222 135.728C771.528 136.016 770.723 136.16 769.806 136.16ZM778.763 136.16C777.984 136.16 777.28 135.984 776.651 135.632C776.032 135.269 775.536 134.784 775.163 134.176C774.8 133.557 774.619 132.869 774.619 132.112C774.619 131.355 774.8 130.677 775.163 130.08C775.526 129.472 776.022 128.992 776.651 128.64C777.28 128.277 777.979 128.096 778.747 128.096C779.536 128.096 780.24 128.277 780.859 128.64C781.488 128.992 781.984 129.472 782.347 130.08C782.71 130.677 782.891 131.355 782.891 132.112C782.891 132.869 782.71 133.557 782.347 134.176C781.984 134.784 781.488 135.269 780.859 135.632C780.24 135.984 779.542 136.16 778.763 136.16ZM778.747 134.208C779.142 134.208 779.488 134.123 779.787 133.952C780.096 133.771 780.331 133.525 780.491 133.216C780.662 132.896 780.747 132.533 780.747 132.128C780.747 131.723 780.662 131.365 780.491 131.056C780.32 130.747 780.086 130.507 779.787 130.336C779.488 130.155 779.142 130.064 778.747 130.064C778.363 130.064 778.022 130.155 777.723 130.336C777.424 130.507 777.19 130.747 777.019 131.056C776.848 131.365 776.763 131.723 776.763 132.128C776.763 132.533 776.848 132.896 777.019 133.216C777.19 133.525 777.424 133.771 777.723 133.952C778.022 134.123 778.363 134.208 778.747 134.208ZM789.441 136V131.568C789.441 131.109 789.297 130.736 789.009 130.448C788.721 130.16 788.347 130.016 787.889 130.016C787.59 130.016 787.323 130.08 787.089 130.208C786.854 130.336 786.667 130.517 786.529 130.752C786.401 130.987 786.337 131.259 786.337 131.568L785.521 131.152C785.521 130.544 785.649 130.016 785.905 129.568C786.171 129.109 786.534 128.752 786.993 128.496C787.462 128.24 787.99 128.112 788.577 128.112C789.142 128.112 789.649 128.256 790.097 128.544C790.545 128.821 790.897 129.189 791.153 129.648C791.409 130.096 791.536 130.581 791.536 131.104V136H789.441ZM784.241 136V128.272H786.337V136L784.241 136ZM794.267 136V125.056H796.363V136H794.267ZM792.459 130.112V128.272H798.171V130.112H792.459ZM799.35 136V128.272H801.446V136H799.35ZM801.446 131.728L800.63 131.184C800.726 130.235 801.003 129.488 801.462 128.944C801.921 128.389 802.582 128.112 803.446 128.112C803.819 128.112 804.155 128.176 804.454 128.304C804.753 128.421 805.025 128.619 805.27 128.896L803.958 130.4C803.841 130.272 803.697 130.176 803.526 130.112C803.366 130.048 803.179 130.016 802.966 130.016C802.518 130.016 802.15 130.16 801.862 130.448C801.585 130.725 801.446 131.152 801.446 131.728ZM809.019 136.16C808.315 136.16 807.681 135.984 807.115 135.632C806.55 135.28 806.107 134.8 805.787 134.192C805.467 133.584 805.307 132.901 805.307 132.144C805.307 131.376 805.467 130.688 805.787 130.08C806.107 129.472 806.55 128.992 807.115 128.64C807.681 128.288 808.315 128.112 809.019 128.112C809.574 128.112 810.07 128.224 810.507 128.448C810.945 128.672 811.291 128.987 811.547 129.392C811.814 129.787 811.958 130.235 811.979 130.736V133.52C811.958 134.032 811.814 134.485 811.547 134.88C811.291 135.275 810.945 135.589 810.507 135.824C810.07 136.048 809.574 136.16 809.019 136.16ZM809.403 134.224C809.99 134.224 810.465 134.032 810.827 133.648C811.19 133.253 811.371 132.747 811.371 132.128C811.371 131.723 811.286 131.365 811.115 131.056C810.955 130.736 810.726 130.491 810.427 130.32C810.139 130.139 809.798 130.048 809.403 130.048C809.019 130.048 808.678 130.139 808.379 130.32C808.091 130.491 807.862 130.736 807.691 131.056C807.531 131.365 807.451 131.723 807.451 132.128C807.451 132.544 807.531 132.912 807.691 133.232C807.862 133.541 808.091 133.787 808.379 133.968C808.678 134.139 809.019 134.224 809.403 134.224ZM811.259 136V133.92L811.595 132.032L811.259 130.176V128.272H813.339V136H811.259ZM818.842 136.16C818.052 136.16 817.343 135.984 816.714 135.632C816.084 135.28 815.588 134.8 815.226 134.192C814.863 133.584 814.682 132.901 814.682 132.144C814.682 131.376 814.863 130.688 815.226 130.08C815.588 129.472 816.084 128.992 816.714 128.64C817.354 128.277 818.063 128.096 818.842 128.096C819.45 128.096 820.01 128.208 820.522 128.432C821.034 128.656 821.476 128.976 821.85 129.392L820.506 130.752C820.303 130.528 820.058 130.357 819.77 130.24C819.492 130.123 819.183 130.064 818.842 130.064C818.458 130.064 818.111 130.155 817.802 130.336C817.503 130.507 817.263 130.747 817.082 131.056C816.911 131.355 816.826 131.712 816.826 132.128C816.826 132.533 816.911 132.896 817.082 133.216C817.263 133.525 817.503 133.771 817.802 133.952C818.111 134.123 818.458 134.208 818.842 134.208C819.194 134.208 819.508 134.149 819.786 134.032C820.074 133.904 820.319 133.723 820.522 133.488L821.882 134.848C821.487 135.275 821.034 135.6 820.522 135.824C820.01 136.048 819.45 136.16 818.842 136.16ZM824.08 136V125.056H826.176V136H824.08ZM822.272 130.112V128.272H827.984V130.112H822.272Z" fill="white" fill-opacity="0.8"/>
<path d="M98 51H762" stroke="white" stroke-opacity="0.2" stroke-width="2" stroke-dasharray="4 4"/>
<circle cx="49.5" cy="48.5" r="48.5" fill="#2D2727"/>
<circle cx="294.5" cy="48.5" r="48.5" fill="#2D2727"/>
<circle cx="526.5" cy="48.5" r="48.5" fill="#2D2727"/>
<circle cx="733.5" cy="48.5" r="48.5" fill="#2D2727"/>
<path fill-rule="evenodd" clip-rule="evenodd" d="M710.552 25.0839C710.451 25.1253 710.285 25.251 710.184 25.3634C710.001 25.5665 710 25.697 710 48.529V71.4905L710.255 71.7452L710.51 72H728.533H746.557L746.811 71.7452L747.067 71.4905V63.7297V55.9689L746.814 55.7162C746.437 55.3403 745.899 55.3594 745.54 55.7616L745.273 56.0596V63.1338V70.2081H728.533H711.794V48.5215V26.8349H723.061H734.328L734.329 31.6822C734.329 34.3483 734.355 36.6844 734.387 36.8735C734.418 37.0627 734.547 37.3212 734.674 37.4478L734.905 37.6782H740.089H745.273V43.014C745.273 46.7628 745.304 48.4095 745.376 48.5505C745.542 48.8745 745.848 49.0688 746.193 49.0688C746.538 49.0688 746.844 48.8745 747.01 48.5505C747.082 48.4089 747.113 46.6285 747.113 42.504C747.113 37.6013 747.091 36.6182 746.981 36.4101C746.821 36.1101 735.93 25.2426 735.645 25.0985C735.404 24.9772 710.848 24.9629 710.552 25.0839ZM752.703 25.1571C752.507 25.2781 752.114 26.0285 750.909 28.5776L749.366 31.843V51.1935V70.5441L749.644 70.994C749.817 71.2728 750.094 71.5495 750.373 71.7219L750.823 72H753.183H755.543L755.993 71.7219C756.272 71.5495 756.549 71.2728 756.722 70.994L757 70.5441V51.1935V31.843L755.455 28.5749C754.196 25.9119 753.861 25.2781 753.647 25.1519C753.317 24.957 753.023 24.9586 752.703 25.1571ZM740.122 32.0268L743.939 35.8403H740.099H736.259V32.0268C736.259 29.9293 736.27 28.2132 736.283 28.2132C736.296 28.2132 738.023 29.9293 740.122 32.0268ZM753.945 29.7065L754.642 31.1998L753.913 31.2264C753.511 31.2411 752.855 31.2411 752.453 31.2264L751.724 31.1998L752.421 29.7065C752.805 28.8853 753.147 28.2132 753.183 28.2132C753.218 28.2132 753.561 28.8853 753.945 29.7065ZM755.206 48.8431V64.6027H753.183H751.159V48.8431V33.0835H753.183H755.206V48.8431ZM717.174 34.8245C716.589 35.0639 716.433 35.8307 716.879 36.2768L717.132 36.5295L720.004 36.5565C721.584 36.5713 722.973 36.5594 723.091 36.5298C723.21 36.5003 723.406 36.3684 723.528 36.2367C723.924 35.8103 723.775 35.1201 723.228 34.8403C722.991 34.7191 717.467 34.7048 717.174 34.8245ZM726.05 34.8546C725.704 35.0265 725.468 35.5659 725.594 35.8976C725.819 36.4891 726.342 36.7144 726.864 36.4448C727.203 36.2696 727.338 36.0457 727.338 35.6565C727.338 35.2721 727.204 35.0438 726.88 34.8764C726.555 34.7088 726.354 34.7034 726.05 34.8546ZM717.174 40.338C716.589 40.5775 716.433 41.3443 716.879 41.7904L717.132 42.0431L728.487 42.0671L739.841 42.0911L740.141 41.8238C740.389 41.6023 740.44 41.4901 740.44 41.1701C740.44 40.8503 740.389 40.7378 740.142 40.5175L739.843 40.2512L728.601 40.2569C722.417 40.2602 717.275 40.2966 717.174 40.338ZM717.174 45.8515C716.589 46.091 716.433 46.8579 716.879 47.3039L717.132 47.5566L728.487 47.5807L739.841 47.6047L740.141 47.3374C740.389 47.1159 740.44 47.0037 740.44 46.6836C740.44 46.3638 740.389 46.2514 740.142 46.031L739.843 45.7647L728.601 45.7705C722.417 45.7737 717.275 45.8102 717.174 45.8515ZM717.174 51.3651C716.589 51.6046 716.433 52.3714 716.879 52.8175L717.132 53.0702L728.487 53.0942L739.841 53.1182L740.141 52.8509C740.389 52.6294 740.44 52.5172 740.44 52.1972C740.44 51.8774 740.389 51.7649 740.142 51.5446L739.843 51.2783L728.601 51.284C722.417 51.2873 717.275 51.3237 717.174 51.3651ZM745.861 51.3648C745.569 51.4878 745.273 51.9126 745.273 52.2081C745.273 52.3672 745.378 52.587 745.54 52.7679C746.093 53.3867 747.062 53.0234 747.062 52.1972C747.062 51.5868 746.408 51.1339 745.861 51.3648ZM717.174 56.8786C716.589 57.1181 716.433 57.885 716.879 58.331L717.132 58.5837L728.487 58.6078L739.841 58.6318L740.141 58.3644C740.389 58.143 740.44 58.0308 740.44 57.7107C740.44 57.3909 740.389 57.2785 740.142 57.0581L739.843 56.7918L728.601 56.7976C722.417 56.8008 717.275 56.8373 717.174 56.8786ZM717.174 62.3922C716.589 62.6317 716.433 63.3985 716.879 63.8445L717.132 64.0972L728.487 64.1213L739.841 64.1453L740.141 63.878C740.389 63.6565 740.44 63.5443 740.44 63.2243C740.44 62.9045 740.389 62.792 740.142 62.5717L739.843 62.3053L728.601 62.3111C722.417 62.3143 717.275 62.3508 717.174 62.3922ZM755.206 68.214C755.206 69.4709 755.174 70.0197 755.096 70.0978C754.94 70.2536 751.426 70.2536 751.27 70.0978C751.192 70.0197 751.159 69.4709 751.159 68.214V66.4405H753.183H755.206V68.214Z" fill="#E49B00"/>
<path fill-rule="evenodd" clip-rule="evenodd" d="M31.2229 30.1362C29.5045 30.553 28.0563 32.0454 27.6966 33.7701C27.6233 34.1214 27.5919 37.9463 27.5919 46.5286V58.7855H27.1611C26.2361 58.7855 25.9159 59.2146 26.0183 60.317C26.2465 62.7726 27.8878 64.8144 30.3287 65.6793L31.0479 65.9341L38.5713 65.9611C44.1736 65.981 46.1634 65.9595 46.3636 65.8767C46.6507 65.7578 46.9073 65.3602 46.9073 65.0346C46.9073 64.7216 46.6606 64.3246 46.3892 64.2009C46.2038 64.1163 44.337 64.0877 39.0097 64.0877C34.7665 64.0877 31.6811 64.0503 31.391 63.9953C29.9092 63.7143 28.4307 62.354 28.018 60.8922L27.9579 60.6791H50.2072H72.4566L72.3605 61.0342C71.995 62.385 70.5098 63.7214 69.074 63.9917C68.7578 64.0513 65.8511 64.0877 61.4236 64.0877C53.6718 64.0877 53.891 64.0732 53.6483 64.6059C53.4199 65.1072 53.6157 65.6848 54.0789 65.8767C54.2791 65.9595 56.2689 65.981 61.8712 65.9611L69.3946 65.9341L70.1512 65.6667C72.0969 64.9792 73.4921 63.5789 74.1326 61.6711C74.4251 60.7998 74.5303 59.7515 74.3654 59.3533C74.2124 58.9838 73.8336 58.7855 73.2814 58.7855H72.8506V46.5286C72.8506 37.9463 72.8192 34.1214 72.7459 33.7701C72.3759 31.9957 70.8566 30.4764 69.0823 30.1064C68.3157 29.9466 31.8865 29.9752 31.2229 30.1362ZM69.2574 32.1422C69.8874 32.4336 70.3461 32.8783 70.6454 33.4878L70.9096 34.0258L70.9347 46.4056L70.9597 58.7855H50.2227H29.4856V46.5886C29.4856 33.2247 29.4591 33.8676 30.0443 33.0596C30.3902 32.5822 30.8131 32.2776 31.4246 32.0655C31.871 31.9107 33.0273 31.9019 50.3633 31.9216L68.8265 31.9428L69.2574 32.1422ZM57.2026 33.8865C56.2527 34.1252 55.387 34.8391 54.9353 35.7566C54.6537 36.3284 54.6232 36.4735 54.615 37.2785L54.6061 38.1683L51.3011 40.0816L47.9962 41.995L47.5298 41.579C44.9716 39.2968 41.0222 40.0459 39.5234 43.0977C38.7866 44.5976 38.7863 46.0565 39.5221 47.577C40.9996 50.6294 44.9701 51.3855 47.5298 49.1019L47.9962 48.6859L51.3011 50.5993L54.6061 52.5126L54.615 53.4024C54.6232 54.2074 54.6537 54.3525 54.9353 54.9243C55.2966 55.6581 55.8889 56.2323 56.6597 56.5958C57.1006 56.8038 57.3112 56.8413 58.0326 56.8407C59.1576 56.8396 59.843 56.5451 60.5841 55.7446C61.2165 55.0616 61.4969 54.3699 61.4997 53.4863C61.5022 52.6935 61.4393 52.4324 61.081 51.7485C60.4013 50.4513 58.9244 49.7238 57.4959 49.9829C56.8784 50.0948 56.1181 50.43 55.9084 50.6827C55.8401 50.7649 55.7188 50.8321 55.6385 50.8321C55.5583 50.8321 54.0141 49.9793 52.207 48.9369L48.9213 47.0416L49.049 46.4988C49.1193 46.2002 49.1768 45.6789 49.1768 45.3405C49.1768 45.002 49.1193 44.4807 49.049 44.1821L48.9213 43.6393L52.207 41.744C54.0141 40.7016 55.5583 39.8488 55.6385 39.8488C55.7188 39.8488 55.8401 39.916 55.9084 39.9982C56.1181 40.2509 56.8784 40.5861 57.4959 40.698C58.9244 40.9571 60.4013 40.2296 61.081 38.9324C61.4393 38.2485 61.5022 37.9874 61.4997 37.1946C61.494 35.3992 60.0364 33.9003 58.2225 33.8247C57.8577 33.8094 57.3988 33.8373 57.2026 33.8865ZM58.9756 36.0048C59.4196 36.3435 59.6137 36.7428 59.6093 37.3088C59.5989 38.6572 58.0752 39.3337 57.0298 38.4541C56.1787 37.7379 56.3316 36.4002 57.3229 35.8896C57.8836 35.6009 58.5025 35.6439 58.9756 36.0048ZM45.4153 42.4292C46.0845 42.7356 46.6684 43.3191 46.988 44.0009C47.1976 44.4479 47.2387 44.6677 47.2387 45.3405C47.2387 46.0132 47.1976 46.233 46.988 46.68C46.6687 47.361 46.0874 47.9423 45.4064 48.2616C44.959 48.4714 44.7402 48.5122 44.0668 48.5119C43.3787 48.5114 43.1839 48.473 42.7233 48.2472C42.0244 47.9048 41.2985 47.1165 41.0717 46.4541C40.8534 45.8159 40.8528 44.8666 41.0705 44.2308C41.2583 43.6821 41.8917 42.9149 42.433 42.5803C43.2669 42.065 44.485 42.0033 45.4153 42.4292ZM60.1968 42.5939C59.669 42.8068 59.5176 43.6148 59.9181 44.0806L60.1464 44.3463L63.8199 44.3733C67.7879 44.4023 67.9218 44.3881 68.1682 43.9116C68.3354 43.5883 68.342 43.3459 68.1926 43.0181C67.9619 42.5115 67.8627 42.4995 63.9787 42.5059C62.0103 42.5092 60.3084 42.5488 60.1968 42.5939ZM43.4788 44.668C43.2246 44.8951 43.1716 45.011 43.1716 45.3405C43.1716 46.0238 43.8846 46.4838 44.4755 46.1815C45.3814 45.7182 45.0493 44.3936 44.0273 44.3936C43.8944 44.3936 43.6476 44.5171 43.4788 44.668ZM60.1968 46.3768C59.6674 46.6019 59.5177 47.4026 59.9181 47.8679C60.1078 48.0885 60.2217 48.1336 60.5891 48.1336C61.155 48.1336 61.4886 47.8 61.4886 47.2341C61.4886 46.5722 60.8046 46.1183 60.1968 46.3768ZM64.4576 46.3812C63.9299 46.5942 63.7783 47.4021 64.1786 47.8679L64.4069 48.1336L65.9419 48.164C66.9925 48.1847 67.5642 48.1581 67.7538 48.0796C68.048 47.9577 68.3058 47.563 68.3058 47.2341C68.3058 46.9211 68.059 46.5241 67.7877 46.4004C67.4978 46.2683 64.7761 46.2526 64.4576 46.3812ZM32.3995 50.601C32.0825 50.773 31.9474 51.0119 31.9474 51.4002C31.9474 51.7963 32.0853 52.0315 32.4189 52.204C32.8154 52.409 38.167 52.4161 38.5615 52.2121C39.1916 51.8862 39.1916 50.9142 38.5615 50.5883C38.1722 50.387 32.7733 50.3981 32.3995 50.601ZM58.9037 52.0757C59.55 52.4729 59.8148 53.4462 59.462 54.1284C58.8994 55.2164 57.2789 55.2543 56.6854 54.1933C55.8841 52.7611 57.5035 51.2152 58.9037 52.0757ZM32.3995 54.3883C32.0825 54.5603 31.9474 54.7992 31.9474 55.1875C31.9474 55.5837 32.0853 55.8189 32.4189 55.9914C32.8307 56.2042 33.1397 56.1661 33.4823 55.86C33.7364 55.6329 33.7894 55.517 33.7894 55.1875C33.7894 54.858 33.7364 54.7421 33.4823 54.5151C33.1405 54.2096 32.8018 54.17 32.3995 54.3883ZM36.6602 54.3883C36.3432 54.5603 36.2081 54.7992 36.2081 55.1875C36.2081 55.5837 36.3461 55.8189 36.6797 55.9914C36.9115 56.1112 37.5152 56.1344 40.4154 56.1344H43.8744L44.1815 55.86C44.4356 55.6329 44.4887 55.517 44.4887 55.1875C44.4887 54.858 44.4356 54.7421 44.1815 54.5151L43.8744 54.2407L40.3964 54.2445C37.5116 54.2476 36.8742 54.2721 36.6602 54.3883ZM49.7583 64.2199C48.9375 64.6749 49.2809 65.9814 50.2213 65.9814C50.701 65.9814 51.1681 65.5189 51.1681 65.0438C51.1681 64.3329 50.3825 63.8739 49.7583 64.2199Z" fill="#E49B00"/>
<path fill-rule="evenodd" clip-rule="evenodd" d="M275.067 26.073C274.321 26.2551 273.631 26.817 273.237 27.5641L273 28.0125V44.6467V61.2808L273.184 61.6781C273.452 62.2562 273.932 62.7425 274.528 63.04L275.051 63.301H280.723H286.394L287.145 63.9103C287.942 64.557 289.12 65.2902 289.947 65.6548C291.083 66.1557 293.006 66.6536 293.804 66.6536H294.139V67.982C294.139 69.4322 294.198 69.6855 294.582 69.8837C294.882 70.0388 295.118 70.0388 295.418 69.8837C295.802 69.6855 295.861 69.4322 295.861 67.982V66.6536H296.213C296.407 66.6536 296.944 66.5766 297.406 66.4826C299.517 66.0532 301.259 65.217 302.976 63.8092L303.59 63.3057L309.348 63.2818L315.106 63.258L315.475 63.0609C316.046 62.757 316.498 62.3018 316.761 61.7674L317 61.2808V44.6467V28.0125L316.763 27.5641C316.463 26.9946 316.039 26.5719 315.469 26.2718L315.02 26.0354L301.114 26.0125C290.735 25.9954 287.146 26.0148 286.967 26.0891C286.709 26.1956 286.476 26.5577 286.476 26.852C286.476 27.101 286.696 27.5035 286.881 27.5938C286.966 27.635 293.263 27.688 300.875 27.7117L314.715 27.7546L314.996 28.0356L315.278 28.3166L315.302 31.6676L315.327 35.0186H295H274.673L274.698 31.6676L274.722 28.3166L275.003 28.0356L275.285 27.7546L277.587 27.7109C278.853 27.6868 279.958 27.6338 280.042 27.593C280.225 27.5049 280.448 27.1023 280.448 26.8604C280.448 26.5697 280.254 26.2436 280.005 26.1149C279.816 26.0174 279.314 25.9942 277.546 26.0011C276.325 26.006 275.209 26.0384 275.067 26.073ZM283.041 26.1124C282.294 26.5254 282.607 27.7117 283.462 27.7117C283.898 27.7117 284.323 27.2917 284.323 26.8604C284.323 26.2149 283.608 25.7982 283.041 26.1124ZM278.489 30.6805C278.386 30.7532 278.256 30.9597 278.203 31.1394C278.121 31.4111 278.129 31.5132 278.249 31.7448C278.527 32.2827 278.322 32.2678 285.485 32.2678C292.435 32.2678 292.445 32.2672 292.668 31.8509C292.849 31.5142 292.782 31.03 292.52 30.7795L292.278 30.5485H285.478C279.502 30.5485 278.655 30.5645 278.489 30.6805ZM301.107 30.7998C300.925 30.9818 300.855 31.134 300.855 31.3519C300.855 31.7058 301.176 32.1356 301.5 32.2169C301.835 32.3008 302.296 32.0631 302.459 31.7229C302.869 30.8643 301.784 30.1237 301.107 30.7998ZM305.757 30.7998C305.334 31.2219 305.453 31.8844 305.999 32.143C306.26 32.2667 306.336 32.2696 306.608 32.1663C306.794 32.0959 306.985 31.9344 307.085 31.7648C307.227 31.5209 307.237 31.4353 307.152 31.1533C306.962 30.5212 306.223 30.3339 305.757 30.7998ZM310.406 30.7998C309.748 31.4571 310.452 32.5054 311.311 32.1471C312.182 31.7835 311.918 30.5485 310.969 30.5485C310.74 30.5485 310.592 30.6148 310.406 30.7998ZM315.321 48.7773C315.321 61.856 315.348 61.1172 314.855 61.44C314.66 61.5673 314.154 61.5817 309.866 61.5817H305.093L305.631 60.6874C306.471 59.2916 307.118 57.4841 307.266 56.1229C307.375 55.124 307.226 55.2203 308.658 55.2203C309.613 55.2203 309.981 55.1884 310.194 55.0872C310.723 54.8366 310.836 54.1682 310.42 53.7523L310.168 53.501H308.785C307.419 53.501 307.402 53.4987 307.368 53.3076C307.348 53.2012 307.27 52.7124 307.193 52.2213C306.83 49.8902 305.673 47.6173 303.917 45.7819C302.934 44.7546 301.942 44.0133 300.688 43.3691C299.233 42.6214 298.047 42.2606 296.276 42.0263L295.873 41.9729L295.845 40.5513L295.818 39.1296L295.576 38.9224C295.249 38.6413 294.751 38.6413 294.424 38.9224L294.182 39.1296L294.155 40.5513L294.127 41.9729L293.724 42.0256C290.79 42.4089 288.456 43.4967 286.45 45.416C285.411 46.4096 284.653 47.4085 284.028 48.6062C283.299 50.0019 282.944 51.1788 282.635 53.2216L282.593 53.501H281.213H279.832L279.58 53.7523C279.164 54.1682 279.277 54.8366 279.806 55.0872C280.019 55.1884 280.387 55.2203 281.342 55.2203C282.576 55.2203 282.598 55.2236 282.632 55.4137C282.652 55.5201 282.728 55.994 282.801 56.4668C283.035 57.9681 283.717 59.7299 284.572 61.0444L284.922 61.5817H280.142C275.847 61.5817 275.34 61.5673 275.145 61.44C274.652 61.1172 274.679 61.856 274.679 48.7773V36.7379H295H315.321V48.7773ZM294.139 45.1097V46.5184L293.73 46.5795C293.059 46.6796 291.985 47.0465 291.313 47.405C289.214 48.5238 287.743 50.4989 287.275 52.8271L287.139 53.5051L285.753 53.4816L284.366 53.458L284.395 53.1142C284.477 52.1212 284.911 50.6754 285.45 49.597C287.093 46.3147 290.368 44.0683 294.031 43.7115C294.113 43.7036 294.139 44.0345 294.139 45.1097ZM297.547 44.0049C300.626 44.7718 303.14 46.7866 304.557 49.6211C305.096 50.6998 305.523 52.123 305.605 53.1142L305.634 53.458L304.25 53.4816L302.866 53.5051L302.714 52.7939C302.198 50.3884 300.654 48.3768 298.487 47.2897C297.963 47.0267 296.826 46.6625 296.27 46.5795L295.861 46.5184V45.1138V43.7091L296.313 43.7595C296.562 43.7873 297.117 43.8977 297.547 44.0049ZM296.527 48.3933C297.708 48.696 298.991 49.5121 299.741 50.4376C300.688 51.6064 301.121 52.8379 301.12 54.3607C301.119 56.1581 300.495 57.5789 299.151 58.8446C298.424 59.5301 297.306 60.1222 296.332 60.3386C295.363 60.5537 293.98 60.4824 293.063 60.1702C289.484 58.9502 287.808 54.8257 289.545 51.5128C290.451 49.7849 292.164 48.5622 294.099 48.2618C294.735 48.163 295.869 48.2244 296.527 48.3933ZM297.012 51.7203C296.91 51.7777 296.277 52.4823 295.604 53.2861C294.93 54.0899 294.328 54.8015 294.265 54.8674C294.168 54.969 294.068 54.9185 293.61 54.5358C292.987 54.0166 292.742 53.9026 292.404 53.9766C292.107 54.0418 291.728 54.4751 291.728 54.7501C291.728 55.1361 291.925 55.3838 292.854 56.1635C293.957 57.0897 294.187 57.1958 294.603 56.9695C294.873 56.8229 297.94 53.2721 298.174 52.8356C298.553 52.1285 297.713 51.3225 297.012 51.7203ZM287.322 56.0585C287.852 58.3776 289.384 60.3244 291.513 61.3859C292.095 61.6765 292.979 61.9762 293.493 62.0578C294.193 62.1689 294.139 62.0421 294.139 63.5646V64.9343H293.877C293.733 64.9343 293.316 64.8744 292.951 64.8012C288.455 63.8994 285.014 60.2512 284.422 55.7576L284.351 55.2203H285.741H287.13L287.322 56.0585ZM305.578 55.7576C304.99 60.2007 301.596 63.8497 297.196 64.7699C296.769 64.8591 296.295 64.9326 296.141 64.9332L295.861 64.9343V63.5646C295.861 62.0421 295.807 62.1689 296.507 62.0578C296.696 62.0277 297.103 61.9223 297.411 61.8234C300.222 60.9203 302.275 58.5221 302.788 55.5427L302.843 55.2203H304.246H305.649L305.578 55.7576Z" fill="#E49B00"/>
<path fill-rule="evenodd" clip-rule="evenodd" d="M520.525 24.12C519.061 24.4765 517.813 25.679 517.378 27.1543L517.26 27.5528H515.601C513.792 27.5528 513.293 27.6411 512.746 28.058C512.268 28.4226 511.943 29.1529 511.943 29.8648V30.4523L508.764 30.4793C505.204 30.5096 505.294 30.4918 505.097 31.2001C504.966 31.674 504.968 70.7904 505.1 71.2646C505.153 71.4556 505.308 71.6992 505.443 71.8059L505.69 72L522.253 71.9705C538.779 71.941 538.817 71.9406 539.612 71.7417C541.942 71.1595 543.727 70.1997 545.315 68.6758C547.737 66.3526 548.999 63.4105 549 60.0879C549 58.0071 548.609 56.3732 547.678 54.5664C545.94 51.1945 542.524 48.7541 538.839 48.2508L538.018 48.1388V46.1858C538.018 44.061 537.969 43.8157 537.505 43.6042C537.113 43.4258 536.824 43.472 536.495 43.7656L536.189 44.039L536.16 46.0862L536.132 48.1333L535.162 48.292C531.017 48.9694 527.386 51.9736 525.892 55.9624C525.377 57.3365 525.225 58.2383 525.22 59.9472C525.213 62.1435 525.53 63.5461 526.445 65.3702C527.281 67.037 528.542 68.5545 529.989 69.6365L530.636 70.1203H518.757H506.878V51.2275V32.3346H509.411H511.943V32.816C511.943 33.7923 512.396 34.5662 513.192 34.9517C513.593 35.1455 513.677 35.1475 521.516 35.1465L529.436 35.1456L529.916 34.9222C530.692 34.561 531.171 33.7288 531.171 32.7416V32.3346H533.656H536.142V34.3595C536.142 36.0803 536.165 36.424 536.298 36.6486C536.615 37.1843 537.309 37.2773 537.744 36.8424L538.018 36.5683L538.016 33.8186C538.014 31.3549 537.997 31.048 537.852 30.8689C537.532 30.4744 537.399 30.4594 534.238 30.4594H531.196L531.151 29.8258C531.082 28.8708 530.682 28.221 529.905 27.8026C529.567 27.6211 529.342 27.5959 527.672 27.5533L525.814 27.5059L525.608 26.894C524.912 24.8229 522.668 23.5985 520.525 24.12ZM522.719 26.1968C523.51 26.627 523.883 27.2476 523.987 28.3029C524.037 28.8204 524.089 28.9513 524.327 29.1702L524.608 29.428H526.839C528.449 29.428 529.101 29.4594 529.183 29.5406C529.312 29.6699 529.344 32.9567 529.217 33.1556C529.158 33.2488 527.553 33.2684 521.504 33.2494L513.866 33.2254L513.84 31.4561C513.823 30.2304 513.848 29.647 513.922 29.5574C514.008 29.454 514.481 29.428 516.276 29.428H518.523L518.797 29.154C519.017 28.9342 519.072 28.7982 519.072 28.4677C519.072 28.2411 519.138 27.8319 519.219 27.5584C519.402 26.9442 520.063 26.2445 520.671 26.0214C521.282 25.7972 522.116 25.8687 522.719 26.1968ZM536.47 39.593C536.151 39.912 536.085 40.2585 536.271 40.6476C536.448 41.0181 536.898 41.2507 537.292 41.1753C537.66 41.105 538.018 40.6455 538.018 40.243C538.018 39.4903 537 39.0629 536.47 39.593ZM512.73 41.3331C512.119 41.5821 511.946 42.3846 512.405 42.8431L512.679 43.1171H521.648C531.573 43.1171 531.053 43.1495 531.261 42.5188C531.394 42.1158 531.315 41.7904 531.015 41.5087L530.781 41.2888L521.854 41.2706C516.945 41.2606 512.839 41.2887 512.73 41.3331ZM512.73 48.1784C512.12 48.4249 511.946 49.2291 512.405 49.6876L512.679 49.9617H519.541H526.402L526.676 49.6876C527.13 49.234 527.007 48.505 526.431 48.2316C526.163 48.1047 525.297 48.0872 519.526 48.0924C515.897 48.0957 512.839 48.1344 512.73 48.1784ZM538.252 50.0657C542.719 50.6129 546.237 53.9543 547.024 58.3965C547.176 59.2568 547.151 61.0288 546.973 61.9546C546.242 65.7582 543.378 68.7949 539.565 69.8076C538.731 70.0293 538.457 70.0568 537.08 70.0568C535.714 70.0568 535.426 70.0284 534.63 69.8157C530.315 68.6631 527.273 64.9322 527.07 60.5444C526.984 58.6836 527.313 57.1799 528.176 55.4936C529.848 52.2276 533.278 50.0787 536.986 49.9742C537.218 49.9676 537.788 50.0088 538.252 50.0657ZM536.818 52.1393C536.472 52.229 536.143 52.6765 536.142 53.0583C536.142 53.2598 536.052 53.3345 535.542 53.5565C535.213 53.7001 534.774 53.9616 534.569 54.1376C533.548 55.0107 533.091 56.5354 533.468 57.8053C533.732 58.6929 534.415 59.3863 535.598 59.9664L536.132 60.2285L536.137 62.7014L536.142 65.1744L535.837 65.1145C535.669 65.0816 535.19 64.8841 534.772 64.6758C533.925 64.2541 533.691 64.2512 533.285 64.6573C532.922 65.0201 532.952 65.5553 533.357 65.9369C533.791 66.3455 534.786 66.8089 535.521 66.9443C536.116 67.0538 536.142 67.0699 536.142 67.3284C536.142 67.7207 536.383 68.1259 536.722 68.3007C536.963 68.4256 537.08 68.4343 537.366 68.3485C537.804 68.2173 538.018 67.8993 538.018 67.3796C538.018 66.9779 538.02 66.9758 538.51 66.8023C540.373 66.1438 541.554 64.2016 541.286 62.2399C541.085 60.7717 540.232 59.8746 538.276 59.0725L538.018 58.9668V57.0895C538.018 55.6663 538.046 55.2123 538.133 55.2123C538.197 55.2123 538.496 55.3648 538.798 55.5513C539.255 55.8331 539.406 55.8812 539.691 55.8358C540.375 55.7269 540.702 54.8927 540.273 54.3479C540.049 54.0639 538.927 53.4608 538.429 53.3574C538.102 53.2895 538.061 53.248 538.01 52.9326C537.946 52.5381 537.635 52.1564 537.33 52.0983C537.218 52.0769 536.988 52.0953 536.818 52.1393ZM512.73 55.0216C512.119 55.2726 511.946 56.0737 512.405 56.5322L512.679 56.8062H517.383H522.087L522.362 56.5322C522.736 56.158 522.736 55.7026 522.362 55.2841L522.088 54.9779L517.508 54.959C514.989 54.9486 512.839 54.9768 512.73 55.0216ZM536.122 57.4298L536.095 58.1471L535.787 57.8874C535.018 57.2394 535.019 56.2868 535.789 55.5663L536.095 55.2798L536.122 55.9961C536.138 56.3901 536.138 57.0353 536.122 57.4298ZM538.546 61.2624C539.538 61.8431 539.735 63.2918 538.957 64.2803C538.751 64.5411 538.218 64.9634 538.093 64.9634C538.052 64.9634 538.018 64.0774 538.018 62.9945C538.018 61.9115 538.046 61.0255 538.08 61.0255C538.114 61.0255 538.324 61.1321 538.546 61.2624ZM512.814 61.8396C512.7 61.8627 512.499 62.0086 512.369 62.1639C512.034 62.5613 512.048 63.0197 512.405 63.3767L512.679 63.6508H517.383H522.087L522.362 63.3767C522.736 63.0025 522.736 62.5471 522.362 62.1287L522.089 61.8224L517.555 61.8101C515.062 61.8033 512.928 61.8165 512.814 61.8396Z" fill="#E49B00"/>
</svg>
