<svg width="829" height="140" viewBox="0 0 829 140" fill="none" xmlns="http://www.w3.org/2000/svg">
<path d="M8.51047 136L8.51047 124.752H10.6385L10.6385 136H8.51047ZM5.72647 126.64V124.752H10.4145L10.4145 126.64H5.72647ZM5.72647 136V134.112H12.8945V136H5.72647ZM16.316 136.16C15.932 136.16 15.6173 136.032 15.372 135.776C15.1266 135.52 15.004 135.205 15.004 134.832C15.004 134.459 15.1266 134.144 15.372 133.888C15.6173 133.632 15.932 133.504 16.316 133.504C16.6893 133.504 16.9986 133.632 17.244 133.888C17.4893 134.144 17.612 134.459 17.612 134.832C17.612 135.205 17.4893 135.52 17.244 135.776C16.9986 136.032 16.6893 136.16 16.316 136.16ZM26.64 136V134.064H29.504C30.2293 134.064 30.864 133.915 31.408 133.616C31.952 133.307 32.3733 132.875 32.672 132.32C32.9813 131.765 33.136 131.109 33.136 130.352C33.136 129.616 32.9813 128.976 32.672 128.432C32.3627 127.877 31.936 127.451 31.392 127.152C30.848 126.843 30.2187 126.688 29.504 126.688H26.592V124.752H29.536C30.368 124.752 31.136 124.891 31.84 125.168C32.5547 125.445 33.1733 125.84 33.696 126.352C34.2293 126.853 34.64 127.445 34.928 128.128C35.2267 128.811 35.376 129.557 35.376 130.368C35.376 131.179 35.2267 131.931 34.928 132.624C34.64 133.307 34.2347 133.904 33.712 134.416C33.1893 134.917 32.5707 135.307 31.856 135.584C31.152 135.861 30.3893 136 29.568 136H26.64ZM25.152 136L25.152 124.752H27.328L27.328 136H25.152ZM36.8811 136V128.272H38.9931V136H36.8811ZM37.9371 127.024C37.5958 127.024 37.3131 126.912 37.0891 126.688C36.8651 126.453 36.7531 126.165 36.7531 125.824C36.7531 125.493 36.8651 125.211 37.0891 124.976C37.3131 124.741 37.5958 124.624 37.9371 124.624C38.2891 124.624 38.5718 124.741 38.7851 124.976C39.0091 125.211 39.1211 125.493 39.1211 125.824C39.1211 126.165 39.0091 126.453 38.7851 126.688C38.5718 126.912 38.2891 127.024 37.9371 127.024ZM43.5059 136.176C43.0685 136.176 42.6365 136.117 42.2099 136C41.7939 135.883 41.4099 135.723 41.0579 135.52C40.7059 135.307 40.4019 135.051 40.1459 134.752L41.3939 133.488C41.6605 133.787 41.9699 134.011 42.3219 134.16C42.6739 134.309 43.0632 134.384 43.4899 134.384C43.8312 134.384 44.0872 134.336 44.2579 134.24C44.4392 134.144 44.5299 134 44.5299 133.808C44.5299 133.595 44.4339 133.429 44.2419 133.312C44.0605 133.195 43.8205 133.099 43.5219 133.024C43.2232 132.939 42.9085 132.848 42.5779 132.752C42.2579 132.645 41.9485 132.512 41.6499 132.352C41.3512 132.181 41.1059 131.952 40.9139 131.664C40.7325 131.365 40.6419 130.981 40.6419 130.512C40.6419 130.021 40.7592 129.595 40.9939 129.232C41.2392 128.869 41.5859 128.587 42.0339 128.384C42.4819 128.181 43.0099 128.08 43.6179 128.08C44.2579 128.08 44.8339 128.192 45.3459 128.416C45.8685 128.64 46.3005 128.976 46.6419 129.424L45.3779 130.688C45.1432 130.4 44.8765 130.192 44.5779 130.064C44.2899 129.936 43.9752 129.872 43.6339 129.872C43.3245 129.872 43.0845 129.92 42.9139 130.016C42.7539 130.112 42.6739 130.245 42.6739 130.416C42.6739 130.608 42.7645 130.757 42.9459 130.864C43.1379 130.971 43.3832 131.067 43.6819 131.152C43.9805 131.227 44.2899 131.317 44.6099 131.424C44.9405 131.52 45.2499 131.659 45.5379 131.84C45.8365 132.021 46.0765 132.261 46.2579 132.56C46.4499 132.859 46.5459 133.243 46.5459 133.712C46.5459 134.469 46.2739 135.072 45.7299 135.52C45.1859 135.957 44.4445 136.176 43.5059 136.176ZM51.6073 136.16C50.8179 136.16 50.1086 135.984 49.4793 135.632C48.8499 135.28 48.3539 134.8 47.9913 134.192C47.6286 133.584 47.4473 132.901 47.4473 132.144C47.4473 131.376 47.6286 130.688 47.9913 130.08C48.3539 129.472 48.8499 128.992 49.4793 128.64C50.1193 128.277 50.8286 128.096 51.6073 128.096C52.2153 128.096 52.7753 128.208 53.2873 128.432C53.7993 128.656 54.2419 128.976 54.6153 129.392L53.2713 130.752C53.0686 130.528 52.8233 130.357 52.5353 130.24C52.2579 130.123 51.9486 130.064 51.6073 130.064C51.2233 130.064 50.8766 130.155 50.5673 130.336C50.2686 130.507 50.0286 130.747 49.8473 131.056C49.6766 131.355 49.5913 131.712 49.5913 132.128C49.5913 132.533 49.6766 132.896 49.8473 133.216C50.0286 133.525 50.2686 133.771 50.5673 133.952C50.8766 134.123 51.2233 134.208 51.6073 134.208C51.9593 134.208 52.2739 134.149 52.5513 134.032C52.8393 133.904 53.0846 133.723 53.2873 133.488L54.6473 134.848C54.2526 135.275 53.7993 135.6 53.2873 135.824C52.7753 136.048 52.2153 136.16 51.6073 136.16ZM59.1302 136.16C58.4476 136.16 57.8396 136.016 57.3063 135.728C56.7836 135.44 56.3729 135.04 56.0743 134.528C55.7756 134.016 55.6263 133.424 55.6263 132.752V128.272H57.7383V132.704C57.7383 133.024 57.7916 133.301 57.8983 133.536C58.0049 133.76 58.1649 133.931 58.3783 134.048C58.5916 134.165 58.8423 134.224 59.1302 134.224C59.5676 134.224 59.9089 134.091 60.1543 133.824C60.3996 133.557 60.5223 133.184 60.5223 132.704V128.272H62.6183V132.752C62.6183 133.435 62.4689 134.032 62.1703 134.544C61.8823 135.056 61.4716 135.456 60.9383 135.744C60.4156 136.021 59.8129 136.16 59.1302 136.16ZM66.9434 136.176C66.506 136.176 66.074 136.117 65.6474 136C65.2314 135.883 64.8474 135.723 64.4954 135.52C64.1434 135.307 63.8394 135.051 63.5834 134.752L64.8314 133.488C65.098 133.787 65.4074 134.011 65.7594 134.16C66.1114 134.309 66.5007 134.384 66.9274 134.384C67.2687 134.384 67.5247 134.336 67.6954 134.24C67.8767 134.144 67.9674 134 67.9674 133.808C67.9674 133.595 67.8714 133.429 67.6794 133.312C67.498 133.195 67.258 133.099 66.9594 133.024C66.6607 132.939 66.346 132.848 66.0154 132.752C65.6954 132.645 65.386 132.512 65.0874 132.352C64.7887 132.181 64.5434 131.952 64.3514 131.664C64.17 131.365 64.0794 130.981 64.0794 130.512C64.0794 130.021 64.1967 129.595 64.4314 129.232C64.6767 128.869 65.0234 128.587 65.4714 128.384C65.9194 128.181 66.4474 128.08 67.0554 128.08C67.6954 128.08 68.2714 128.192 68.7834 128.416C69.306 128.64 69.738 128.976 70.0794 129.424L68.8154 130.688C68.5807 130.4 68.314 130.192 68.0154 130.064C67.7274 129.936 67.4127 129.872 67.0714 129.872C66.762 129.872 66.522 129.92 66.3514 130.016C66.1914 130.112 66.1114 130.245 66.1114 130.416C66.1114 130.608 66.202 130.757 66.3834 130.864C66.5754 130.971 66.8207 131.067 67.1194 131.152C67.418 131.227 67.7274 131.317 68.0474 131.424C68.378 131.52 68.6874 131.659 68.9754 131.84C69.274 132.021 69.514 132.261 69.6954 132.56C69.8874 132.859 69.9834 133.243 69.9834 133.712C69.9834 134.469 69.7114 135.072 69.1674 135.52C68.6234 135.957 67.882 136.176 66.9434 136.176ZM74.0528 136.176C73.6154 136.176 73.1834 136.117 72.7568 136C72.3408 135.883 71.9568 135.723 71.6048 135.52C71.2528 135.307 70.9488 135.051 70.6928 134.752L71.9408 133.488C72.2074 133.787 72.5168 134.011 72.8688 134.16C73.2208 134.309 73.6101 134.384 74.0368 134.384C74.3781 134.384 74.6341 134.336 74.8048 134.24C74.9861 134.144 75.0768 134 75.0768 133.808C75.0768 133.595 74.9808 133.429 74.7888 133.312C74.6074 133.195 74.3674 133.099 74.0688 133.024C73.7701 132.939 73.4554 132.848 73.1248 132.752C72.8048 132.645 72.4954 132.512 72.1968 132.352C71.8981 132.181 71.6528 131.952 71.4608 131.664C71.2794 131.365 71.1888 130.981 71.1888 130.512C71.1888 130.021 71.3061 129.595 71.5408 129.232C71.7861 128.869 72.1328 128.587 72.5807 128.384C73.0288 128.181 73.5568 128.08 74.1648 128.08C74.8048 128.08 75.3808 128.192 75.8928 128.416C76.4154 128.64 76.8474 128.976 77.1888 129.424L75.9248 130.688C75.6901 130.4 75.4234 130.192 75.1248 130.064C74.8368 129.936 74.5221 129.872 74.1808 129.872C73.8714 129.872 73.6314 129.92 73.4608 130.016C73.3008 130.112 73.2208 130.245 73.2208 130.416C73.2208 130.608 73.3114 130.757 73.4928 130.864C73.6848 130.971 73.9301 131.067 74.2288 131.152C74.5274 131.227 74.8368 131.317 75.1568 131.424C75.4874 131.52 75.7968 131.659 76.0848 131.84C76.3834 132.021 76.6234 132.261 76.8048 132.56C76.9968 132.859 77.0928 133.243 77.0928 133.712C77.0928 134.469 76.8208 135.072 76.2768 135.52C75.7328 135.957 74.9914 136.176 74.0528 136.176ZM84.0631 136.064L80.8311 128.272H83.1031L85.2471 134.224H84.4791L86.7031 128.272H88.9911L85.5511 136.048L84.0631 136.064ZM81.9191 139.232L84.2711 134.256L85.5511 136.048L84.1431 139.232H81.9191ZM93.3413 136.16C92.5626 136.16 91.8586 135.984 91.2293 135.632C90.6106 135.269 90.1146 134.784 89.7413 134.176C89.3786 133.557 89.1973 132.869 89.1973 132.112C89.1973 131.355 89.3786 130.677 89.7413 130.08C90.1039 129.472 90.5999 128.992 91.2293 128.64C91.8586 128.277 92.5573 128.096 93.3253 128.096C94.1146 128.096 94.8186 128.277 95.4373 128.64C96.0666 128.992 96.5626 129.472 96.9253 130.08C97.2879 130.677 97.4693 131.355 97.4693 132.112C97.4693 132.869 97.2879 133.557 96.9253 134.176C96.5626 134.784 96.0666 135.269 95.4373 135.632C94.8186 135.984 94.1199 136.16 93.3413 136.16ZM93.3253 134.208C93.7199 134.208 94.0666 134.123 94.3653 133.952C94.6746 133.771 94.9093 133.525 95.0693 133.216C95.2399 132.896 95.3253 132.533 95.3253 132.128C95.3253 131.723 95.2399 131.365 95.0693 131.056C94.8986 130.747 94.6639 130.507 94.3653 130.336C94.0666 130.155 93.7199 130.064 93.3253 130.064C92.9413 130.064 92.5999 130.155 92.3013 130.336C92.0026 130.507 91.7679 130.747 91.5973 131.056C91.4266 131.365 91.3413 131.723 91.3413 132.128C91.3413 132.533 91.4266 132.896 91.5973 133.216C91.7679 133.525 92.0026 133.771 92.3013 133.952C92.5999 134.123 92.9413 134.208 93.3253 134.208ZM102.115 136.16C101.432 136.16 100.824 136.016 100.291 135.728C99.768 135.44 99.3573 135.04 99.0586 134.528C98.76 134.016 98.6106 133.424 98.6106 132.752V128.272H100.723V132.704C100.723 133.024 100.776 133.301 100.883 133.536C100.989 133.76 101.149 133.931 101.363 134.048C101.576 134.165 101.827 134.224 102.115 134.224C102.552 134.224 102.893 134.091 103.139 133.824C103.384 133.557 103.507 133.184 103.507 132.704V128.272H105.603V132.752C105.603 133.435 105.453 134.032 105.155 134.544C104.867 135.056 104.456 135.456 103.923 135.744C103.4 136.021 102.797 136.16 102.115 136.16ZM107.272 136V128.272H109.368V136H107.272ZM109.368 131.728L108.552 131.184C108.648 130.235 108.925 129.488 109.384 128.944C109.842 128.389 110.504 128.112 111.368 128.112C111.741 128.112 112.077 128.176 112.376 128.304C112.674 128.421 112.946 128.619 113.192 128.896L111.88 130.4C111.762 130.272 111.618 130.176 111.448 130.112C111.288 130.048 111.101 130.016 110.888 130.016C110.44 130.016 110.072 130.16 109.784 130.448C109.506 130.725 109.368 131.152 109.368 131.728ZM117.558 136V124.752H119.078L119.734 126.928V136H117.558ZM125.334 136L118.662 127.36L119.078 124.752L125.75 133.392L125.334 136ZM125.334 136L124.71 133.888V124.752H126.902V136H125.334ZM132.655 136.16C131.845 136.16 131.125 135.989 130.495 135.648C129.866 135.296 129.365 134.816 128.991 134.208C128.629 133.6 128.447 132.907 128.447 132.128C128.447 131.36 128.623 130.677 128.975 130.08C129.338 129.472 129.829 128.992 130.447 128.64C131.066 128.277 131.754 128.096 132.511 128.096C133.258 128.096 133.914 128.267 134.479 128.608C135.055 128.939 135.503 129.397 135.823 129.984C136.154 130.56 136.319 131.216 136.319 131.952C136.319 132.091 136.309 132.235 136.287 132.384C136.277 132.523 136.25 132.683 136.207 132.864L129.711 132.88V131.312L135.231 131.296L134.383 131.952C134.362 131.493 134.277 131.109 134.127 130.8C133.989 130.491 133.781 130.256 133.503 130.096C133.237 129.925 132.906 129.84 132.511 129.84C132.095 129.84 131.733 129.936 131.423 130.128C131.114 130.309 130.874 130.571 130.703 130.912C130.543 131.243 130.463 131.637 130.463 132.096C130.463 132.565 130.549 132.976 130.719 133.328C130.901 133.669 131.157 133.936 131.487 134.128C131.818 134.309 132.202 134.4 132.639 134.4C133.034 134.4 133.391 134.336 133.711 134.208C134.031 134.069 134.309 133.867 134.543 133.6L135.775 134.832C135.402 135.269 134.943 135.6 134.399 135.824C133.866 136.048 133.285 136.16 132.655 136.16ZM141.312 136.16C140.501 136.16 139.781 135.989 139.152 135.648C138.522 135.296 138.021 134.816 137.648 134.208C137.285 133.6 137.104 132.907 137.104 132.128C137.104 131.36 137.28 130.677 137.632 130.08C137.994 129.472 138.485 128.992 139.104 128.64C139.722 128.277 140.41 128.096 141.168 128.096C141.914 128.096 142.57 128.267 143.136 128.608C143.712 128.939 144.16 129.397 144.48 129.984C144.81 130.56 144.976 131.216 144.976 131.952C144.976 132.091 144.965 132.235 144.944 132.384C144.933 132.523 144.906 132.683 144.864 132.864L138.368 132.88V131.312L143.888 131.296L143.04 131.952C143.018 131.493 142.933 131.109 142.784 130.8C142.645 130.491 142.437 130.256 142.16 130.096C141.893 129.925 141.562 129.84 141.168 129.84C140.752 129.84 140.389 129.936 140.08 130.128C139.77 130.309 139.53 130.571 139.36 130.912C139.2 131.243 139.12 131.637 139.12 132.096C139.12 132.565 139.205 132.976 139.376 133.328C139.557 133.669 139.813 133.936 140.144 134.128C140.474 134.309 140.858 134.4 141.296 134.4C141.69 134.4 142.048 134.336 142.368 134.208C142.688 134.069 142.965 133.867 143.2 133.6L144.432 134.832C144.058 135.269 143.6 135.6 143.056 135.824C142.522 136.048 141.941 136.16 141.312 136.16ZM149.536 136.16C148.821 136.16 148.181 135.984 147.616 135.632C147.05 135.28 146.602 134.8 146.272 134.192C145.952 133.584 145.792 132.901 145.792 132.144C145.792 131.376 145.952 130.688 146.272 130.08C146.602 129.472 147.045 128.992 147.6 128.64C148.165 128.288 148.81 128.112 149.536 128.112C150.09 128.112 150.586 128.224 151.024 128.448C151.472 128.672 151.829 128.987 152.096 129.392C152.373 129.787 152.522 130.235 152.544 130.736V133.488C152.522 133.989 152.378 134.443 152.112 134.848C151.845 135.253 151.488 135.573 151.04 135.808C150.592 136.043 150.09 136.16 149.536 136.16ZM149.888 134.224C150.282 134.224 150.624 134.139 150.912 133.968C151.21 133.787 151.44 133.541 151.6 133.232C151.77 132.912 151.856 132.544 151.856 132.128C151.856 131.723 151.77 131.365 151.6 131.056C151.44 130.736 151.21 130.491 150.912 130.32C150.624 130.139 150.288 130.048 149.904 130.048C149.509 130.048 149.162 130.139 148.864 130.32C148.576 130.501 148.346 130.747 148.176 131.056C148.016 131.365 147.936 131.723 147.936 132.128C147.936 132.544 148.016 132.912 148.176 133.232C148.346 133.541 148.581 133.787 148.88 133.968C149.178 134.139 149.514 134.224 149.888 134.224ZM153.824 136H151.744V133.92L152.08 132.032L151.728 130.176V124.432H153.824V136Z" fill="white" fill-opacity="0.8"/>
<path d="M229.416 134.752L233.656 130.32C233.955 130 234.195 129.717 234.376 129.472C234.568 129.216 234.707 128.976 234.792 128.752C234.877 128.517 234.92 128.283 234.92 128.048C234.92 127.579 234.765 127.211 234.456 126.944C234.157 126.677 233.768 126.544 233.288 126.544C232.797 126.544 232.36 126.672 231.976 126.928C231.603 127.184 231.251 127.589 230.92 128.144L229.432 126.88C229.88 126.123 230.435 125.552 231.096 125.168C231.768 124.773 232.536 124.576 233.4 124.576C234.136 124.576 234.776 124.72 235.32 125.008C235.875 125.296 236.301 125.696 236.6 126.208C236.899 126.72 237.048 127.317 237.048 128C237.048 128.459 236.989 128.875 236.872 129.248C236.765 129.621 236.579 129.995 236.312 130.368C236.056 130.731 235.699 131.141 235.24 131.6L232.152 134.752H229.416ZM229.416 136V134.752L231.272 134.112H237.288V136H229.416ZM240.212 136.16C239.828 136.16 239.513 136.032 239.268 135.776C239.022 135.52 238.9 135.205 238.9 134.832C238.9 134.459 239.022 134.144 239.268 133.888C239.513 133.632 239.828 133.504 240.212 133.504C240.585 133.504 240.894 133.632 241.14 133.888C241.385 134.144 241.508 134.459 241.508 134.832C241.508 135.205 241.385 135.52 241.14 135.776C240.894 136.032 240.585 136.16 240.212 136.16ZM248.328 136V134.064H251.192C251.917 134.064 252.552 133.915 253.096 133.616C253.64 133.307 254.061 132.875 254.36 132.32C254.669 131.765 254.824 131.109 254.824 130.352C254.824 129.616 254.669 128.976 254.36 128.432C254.05 127.877 253.624 127.451 253.08 127.152C252.536 126.843 251.906 126.688 251.192 126.688H248.28V124.752H251.224C252.056 124.752 252.824 124.891 253.528 125.168C254.242 125.445 254.861 125.84 255.384 126.352C255.917 126.853 256.328 127.445 256.616 128.128C256.914 128.811 257.064 129.557 257.064 130.368C257.064 131.179 256.914 131.931 256.616 132.624C256.328 133.307 255.922 133.904 255.4 134.416C254.877 134.917 254.258 135.307 253.544 135.584C252.84 135.861 252.077 136 251.256 136H248.328ZM246.84 136V124.752H249.016V136H246.84ZM262.265 136.16C261.454 136.16 260.734 135.989 260.105 135.648C259.475 135.296 258.974 134.816 258.601 134.208C258.238 133.6 258.057 132.907 258.057 132.128C258.057 131.36 258.233 130.677 258.585 130.08C258.947 129.472 259.438 128.992 260.057 128.64C260.675 128.277 261.363 128.096 262.121 128.096C262.867 128.096 263.523 128.267 264.089 128.608C264.665 128.939 265.113 129.397 265.433 129.984C265.763 130.56 265.929 131.216 265.929 131.952C265.929 132.091 265.918 132.235 265.897 132.384C265.886 132.523 265.859 132.683 265.817 132.864L259.321 132.88V131.312L264.841 131.296L263.993 131.952C263.971 131.493 263.886 131.109 263.737 130.8C263.598 130.491 263.39 130.256 263.113 130.096C262.846 129.925 262.515 129.84 262.121 129.84C261.705 129.84 261.342 129.936 261.033 130.128C260.723 130.309 260.483 130.571 260.313 130.912C260.153 131.243 260.073 131.637 260.073 132.096C260.073 132.565 260.158 132.976 260.329 133.328C260.51 133.669 260.766 133.936 261.097 134.128C261.427 134.309 261.811 134.4 262.249 134.4C262.643 134.4 263.001 134.336 263.321 134.208C263.641 134.069 263.918 133.867 264.153 133.6L265.385 134.832C265.011 135.269 264.553 135.6 264.009 135.824C263.475 136.048 262.894 136.16 262.265 136.16ZM268.061 136V127.2C268.061 126.645 268.184 126.149 268.429 125.712C268.675 125.264 269.016 124.912 269.453 124.656C269.901 124.389 270.429 124.256 271.037 124.256C271.421 124.256 271.763 124.315 272.061 124.432C272.371 124.549 272.664 124.72 272.941 124.944L271.741 126.416C271.645 126.341 271.539 126.288 271.421 126.256C271.315 126.213 271.187 126.192 271.037 126.192C270.76 126.192 270.541 126.277 270.381 126.448C270.232 126.608 270.157 126.832 270.157 127.12V136H268.061ZM266.269 130.112V128.272H273.933V130.112H266.269ZM272.925 136V128.272H275.021V136H272.925ZM273.965 127.648C273.635 127.648 273.357 127.536 273.133 127.312C272.92 127.088 272.813 126.811 272.813 126.48C272.813 126.149 272.92 125.872 273.133 125.648C273.357 125.424 273.635 125.312 273.965 125.312C274.307 125.312 274.584 125.424 274.797 125.648C275.011 125.872 275.117 126.149 275.117 126.48C275.117 126.811 275.011 127.088 274.797 127.312C274.584 127.536 274.307 127.648 273.965 127.648ZM282.081 136V131.568C282.081 131.109 281.937 130.736 281.649 130.448C281.361 130.16 280.988 130.016 280.529 130.016C280.23 130.016 279.964 130.08 279.729 130.208C279.494 130.336 279.308 130.517 279.169 130.752C279.041 130.987 278.977 131.259 278.977 131.568L278.161 131.152C278.161 130.544 278.289 130.016 278.545 129.568C278.812 129.109 279.174 128.752 279.633 128.496C280.102 128.24 280.63 128.112 281.217 128.112C281.782 128.112 282.289 128.256 282.737 128.544C283.185 128.821 283.537 129.189 283.793 129.648C284.049 130.096 284.177 130.581 284.177 131.104V136H282.081ZM276.881 136V128.272H278.977V136H276.881ZM289.562 136.16C288.751 136.16 288.031 135.989 287.402 135.648C286.772 135.296 286.271 134.816 285.898 134.208C285.535 133.6 285.354 132.907 285.354 132.128C285.354 131.36 285.53 130.677 285.882 130.08C286.244 129.472 286.735 128.992 287.354 128.64C287.972 128.277 288.66 128.096 289.418 128.096C290.164 128.096 290.82 128.267 291.386 128.608C291.962 128.939 292.41 129.397 292.73 129.984C293.06 130.56 293.226 131.216 293.226 131.952C293.226 132.091 293.215 132.235 293.194 132.384C293.183 132.523 293.156 132.683 293.114 132.864L286.618 132.88V131.312L292.138 131.296L291.29 131.952C291.268 131.493 291.183 131.109 291.034 130.8C290.895 130.491 290.687 130.256 290.41 130.096C290.143 129.925 289.812 129.84 289.418 129.84C289.002 129.84 288.639 129.936 288.33 130.128C288.02 130.309 287.78 130.571 287.61 130.912C287.45 131.243 287.37 131.637 287.37 132.096C287.37 132.565 287.455 132.976 287.626 133.328C287.807 133.669 288.063 133.936 288.394 134.128C288.724 134.309 289.108 134.4 289.546 134.4C289.94 134.4 290.298 134.336 290.618 134.208C290.938 134.069 291.215 133.867 291.45 133.6L292.682 134.832C292.308 135.269 291.85 135.6 291.306 135.824C290.772 136.048 290.191 136.16 289.562 136.16ZM299.471 131.296V129.6H302.079C302.612 129.6 303.023 129.467 303.311 129.2C303.609 128.923 303.759 128.544 303.759 128.064C303.759 127.627 303.609 127.264 303.311 126.976C303.023 126.677 302.612 126.528 302.079 126.528H299.471V124.752H302.271C302.996 124.752 303.631 124.896 304.175 125.184C304.729 125.461 305.156 125.845 305.455 126.336C305.764 126.827 305.919 127.392 305.919 128.032C305.919 128.693 305.764 129.269 305.455 129.76C305.156 130.24 304.729 130.619 304.175 130.896C303.62 131.163 302.975 131.296 302.239 131.296H299.471ZM297.871 136V124.752H300.047V136H297.871ZM304.015 136L300.303 131.136L302.303 130.512L306.655 136H304.015ZM311.14 136.16C310.329 136.16 309.609 135.989 308.98 135.648C308.35 135.296 307.849 134.816 307.476 134.208C307.113 133.6 306.932 132.907 306.932 132.128C306.932 131.36 307.108 130.677 307.46 130.08C307.822 129.472 308.313 128.992 308.932 128.64C309.55 128.277 310.238 128.096 310.996 128.096C311.742 128.096 312.398 128.267 312.964 128.608C313.54 128.939 313.988 129.397 314.308 129.984C314.638 130.56 314.804 131.216 314.804 131.952C314.804 132.091 314.793 132.235 314.772 132.384C314.761 132.523 314.734 132.683 314.692 132.864L308.196 132.88V131.312L313.716 131.296L312.868 131.952C312.846 131.493 312.761 131.109 312.612 130.8C312.473 130.491 312.265 130.256 311.988 130.096C311.721 129.925 311.39 129.84 310.996 129.84C310.58 129.84 310.217 129.936 309.908 130.128C309.598 130.309 309.358 130.571 309.188 130.912C309.028 131.243 308.948 131.637 308.948 132.096C308.948 132.565 309.033 132.976 309.204 133.328C309.385 133.669 309.641 133.936 309.972 134.128C310.302 134.309 310.686 134.4 311.124 134.4C311.518 134.4 311.876 134.336 312.196 134.208C312.516 134.069 312.793 133.867 313.028 133.6L314.26 134.832C313.886 135.269 313.428 135.6 312.884 135.824C312.35 136.048 311.769 136.16 311.14 136.16ZM318.756 136.176C318.319 136.176 317.887 136.117 317.46 136C317.044 135.883 316.66 135.723 316.308 135.52C315.956 135.307 315.652 135.051 315.396 134.752L316.644 133.488C316.911 133.787 317.22 134.011 317.572 134.16C317.924 134.309 318.313 134.384 318.74 134.384C319.081 134.384 319.337 134.336 319.508 134.24C319.689 134.144 319.78 134 319.78 133.808C319.78 133.595 319.684 133.429 319.492 133.312C319.311 133.195 319.071 133.099 318.772 133.024C318.473 132.939 318.159 132.848 317.828 132.752C317.508 132.645 317.199 132.512 316.9 132.352C316.601 132.181 316.356 131.952 316.164 131.664C315.983 131.365 315.892 130.981 315.892 130.512C315.892 130.021 316.009 129.595 316.244 129.232C316.489 128.869 316.836 128.587 317.284 128.384C317.732 128.181 318.26 128.08 318.868 128.08C319.508 128.08 320.084 128.192 320.596 128.416C321.119 128.64 321.551 128.976 321.892 129.424L320.628 130.688C320.393 130.4 320.127 130.192 319.828 130.064C319.54 129.936 319.225 129.872 318.884 129.872C318.575 129.872 318.335 129.92 318.164 130.016C318.004 130.112 317.924 130.245 317.924 130.416C317.924 130.608 318.015 130.757 318.196 130.864C318.388 130.971 318.633 131.067 318.932 131.152C319.231 131.227 319.54 131.317 319.86 131.424C320.191 131.52 320.5 131.659 320.788 131.84C321.087 132.021 321.327 132.261 321.508 132.56C321.7 132.859 321.796 133.243 321.796 133.712C321.796 134.469 321.524 135.072 320.98 135.52C320.436 135.957 319.695 136.176 318.756 136.176ZM326.841 136.16C326.063 136.16 325.359 135.984 324.729 135.632C324.111 135.269 323.615 134.784 323.241 134.176C322.879 133.557 322.697 132.869 322.697 132.112C322.697 131.355 322.879 130.677 323.241 130.08C323.604 129.472 324.1 128.992 324.729 128.64C325.359 128.277 326.057 128.096 326.825 128.096C327.615 128.096 328.319 128.277 328.937 128.64C329.567 128.992 330.063 129.472 330.425 130.08C330.788 130.677 330.969 131.355 330.969 132.112C330.969 132.869 330.788 133.557 330.425 134.176C330.063 134.784 329.567 135.269 328.937 135.632C328.319 135.984 327.62 136.16 326.841 136.16ZM326.825 134.208C327.22 134.208 327.567 134.123 327.865 133.952C328.175 133.771 328.409 133.525 328.569 133.216C328.74 132.896 328.825 132.533 328.825 132.128C328.825 131.723 328.74 131.365 328.569 131.056C328.399 130.747 328.164 130.507 327.865 130.336C327.567 130.155 327.22 130.064 326.825 130.064C326.441 130.064 326.1 130.155 325.801 130.336C325.503 130.507 325.268 130.747 325.097 131.056C324.927 131.365 324.841 131.723 324.841 132.128C324.841 132.533 324.927 132.896 325.097 133.216C325.268 133.525 325.503 133.771 325.801 133.952C326.1 134.123 326.441 134.208 326.825 134.208ZM335.615 136.16C334.932 136.16 334.324 136.016 333.791 135.728C333.268 135.44 332.857 135.04 332.559 134.528C332.26 134.016 332.111 133.424 332.111 132.752V128.272H334.223V132.704C334.223 133.024 334.276 133.301 334.383 133.536C334.489 133.76 334.649 133.931 334.863 134.048C335.076 134.165 335.327 134.224 335.615 134.224C336.052 134.224 336.393 134.091 336.639 133.824C336.884 133.557 337.007 133.184 337.007 132.704V128.272H339.103V132.752C339.103 133.435 338.953 134.032 338.655 134.544C338.367 135.056 337.956 135.456 337.423 135.744C336.9 136.021 336.297 136.16 335.615 136.16ZM340.772 136V128.272H342.868V136H340.772ZM342.868 131.728L342.052 131.184C342.148 130.235 342.425 129.488 342.884 128.944C343.342 128.389 344.004 128.112 344.868 128.112C345.241 128.112 345.577 128.176 345.876 128.304C346.174 128.421 346.446 128.619 346.692 128.896L345.38 130.4C345.262 130.272 345.118 130.176 344.948 130.112C344.788 130.048 344.601 130.016 344.388 130.016C343.94 130.016 343.572 130.16 343.284 130.448C343.006 130.725 342.868 131.152 342.868 131.728ZM350.857 136.16C350.068 136.16 349.359 135.984 348.729 135.632C348.1 135.28 347.604 134.8 347.241 134.192C346.879 133.584 346.697 132.901 346.697 132.144C346.697 131.376 346.879 130.688 347.241 130.08C347.604 129.472 348.1 128.992 348.729 128.64C349.369 128.277 350.079 128.096 350.857 128.096C351.465 128.096 352.025 128.208 352.537 128.432C353.049 128.656 353.492 128.976 353.865 129.392L352.521 130.752C352.319 130.528 352.073 130.357 351.785 130.24C351.508 130.123 351.199 130.064 350.857 130.064C350.473 130.064 350.127 130.155 349.817 130.336C349.519 130.507 349.279 130.747 349.097 131.056C348.927 131.355 348.841 131.712 348.841 132.128C348.841 132.533 348.927 132.896 349.097 133.216C349.279 133.525 349.519 133.771 349.817 133.952C350.127 134.123 350.473 134.208 350.857 134.208C351.209 134.208 351.524 134.149 351.801 134.032C352.089 133.904 352.335 133.723 352.537 133.488L353.897 134.848C353.503 135.275 353.049 135.6 352.537 135.824C352.025 136.048 351.465 136.16 350.857 136.16ZM358.608 136.16C357.798 136.16 357.078 135.989 356.448 135.648C355.819 135.296 355.318 134.816 354.944 134.208C354.582 133.6 354.4 132.907 354.4 132.128C354.4 131.36 354.576 130.677 354.928 130.08C355.291 129.472 355.782 128.992 356.4 128.64C357.019 128.277 357.707 128.096 358.464 128.096C359.211 128.096 359.867 128.267 360.432 128.608C361.008 128.939 361.456 129.397 361.776 129.984C362.107 130.56 362.272 131.216 362.272 131.952C362.272 132.091 362.262 132.235 362.24 132.384C362.23 132.523 362.203 132.683 362.16 132.864L355.664 132.88V131.312L361.184 131.296L360.336 131.952C360.315 131.493 360.23 131.109 360.08 130.8C359.942 130.491 359.734 130.256 359.456 130.096C359.19 129.925 358.859 129.84 358.464 129.84C358.048 129.84 357.686 129.936 357.376 130.128C357.067 130.309 356.827 130.571 356.656 130.912C356.496 131.243 356.416 131.637 356.416 132.096C356.416 132.565 356.502 132.976 356.672 133.328C356.854 133.669 357.11 133.936 357.44 134.128C357.771 134.309 358.155 134.4 358.592 134.4C358.987 134.4 359.344 134.336 359.664 134.208C359.984 134.069 360.262 133.867 360.496 133.6L361.728 134.832C361.355 135.269 360.896 135.6 360.352 135.824C359.819 136.048 359.238 136.16 358.608 136.16ZM366.225 136.176C365.787 136.176 365.355 136.117 364.929 136C364.513 135.883 364.129 135.723 363.777 135.52C363.425 135.307 363.121 135.051 362.865 134.752L364.113 133.488C364.379 133.787 364.689 134.011 365.041 134.16C365.393 134.309 365.782 134.384 366.209 134.384C366.55 134.384 366.806 134.336 366.977 134.24C367.158 134.144 367.249 134 367.249 133.808C367.249 133.595 367.153 133.429 366.961 133.312C366.779 133.195 366.539 133.099 366.241 133.024C365.942 132.939 365.627 132.848 365.297 132.752C364.977 132.645 364.667 132.512 364.369 132.352C364.07 132.181 363.825 131.952 363.633 131.664C363.451 131.365 363.361 130.981 363.361 130.512C363.361 130.021 363.478 129.595 363.713 129.232C363.958 128.869 364.305 128.587 364.753 128.384C365.201 128.181 365.729 128.08 366.337 128.08C366.977 128.08 367.553 128.192 368.065 128.416C368.587 128.64 369.019 128.976 369.361 129.424L368.097 130.688C367.862 130.4 367.595 130.192 367.297 130.064C367.009 129.936 366.694 129.872 366.353 129.872C366.043 129.872 365.803 129.92 365.633 130.016C365.473 130.112 365.393 130.245 365.393 130.416C365.393 130.608 365.483 130.757 365.665 130.864C365.857 130.971 366.102 131.067 366.401 131.152C366.699 131.227 367.009 131.317 367.329 131.424C367.659 131.52 367.969 131.659 368.257 131.84C368.555 132.021 368.795 132.261 368.977 132.56C369.169 132.859 369.265 133.243 369.265 133.712C369.265 134.469 368.993 135.072 368.449 135.52C367.905 135.957 367.163 136.176 366.225 136.176Z" fill="white" fill-opacity="0.8"/>
<path d="M460.984 136.16C460.227 136.16 459.533 136.027 458.904 135.76C458.275 135.483 457.747 135.088 457.32 134.576L458.76 133.152C458.973 133.472 459.277 133.728 459.672 133.92C460.067 134.112 460.493 134.208 460.952 134.208C461.379 134.208 461.747 134.133 462.056 133.984C462.365 133.824 462.605 133.605 462.776 133.328C462.957 133.04 463.048 132.709 463.048 132.336C463.048 131.941 462.957 131.605 462.776 131.328C462.605 131.051 462.355 130.837 462.024 130.688C461.693 130.539 461.299 130.464 460.84 130.464C460.637 130.464 460.429 130.48 460.216 130.512C460.003 130.533 459.821 130.571 459.672 130.624L460.632 129.408C460.899 129.323 461.16 129.253 461.416 129.2C461.683 129.136 461.928 129.104 462.152 129.104C462.728 129.104 463.245 129.243 463.704 129.52C464.173 129.787 464.541 130.171 464.808 130.672C465.085 131.163 465.224 131.744 465.224 132.416C465.224 133.163 465.048 133.819 464.696 134.384C464.344 134.939 463.848 135.376 463.208 135.696C462.579 136.005 461.837 136.16 460.984 136.16ZM459.672 130.624V129.376L462.552 126.032L465.048 126L462.072 129.408L459.672 130.624ZM457.944 126.64V124.752H465.048V126L463.272 126.64H457.944ZM467.774 136.16C467.39 136.16 467.076 136.032 466.83 135.776C466.585 135.52 466.462 135.205 466.462 134.832C466.462 134.459 466.585 134.144 466.83 133.888C467.076 133.632 467.39 133.504 467.774 133.504C468.148 133.504 468.457 133.632 468.702 133.888C468.948 134.144 469.07 134.459 469.07 134.832C469.07 135.205 468.948 135.52 468.702 135.776C468.457 136.032 468.148 136.16 467.774 136.16ZM474.402 136V124.752H476.578V136H474.402ZM476.002 131.392V129.456H481.666V131.392H476.002ZM476.002 126.672V124.752H481.938V126.672H476.002ZM483.428 136V128.272H485.54V136H483.428ZM484.484 127.024C484.143 127.024 483.86 126.912 483.636 126.688C483.412 126.453 483.3 126.165 483.3 125.824C483.3 125.493 483.412 125.211 483.636 124.976C483.86 124.741 484.143 124.624 484.484 124.624C484.836 124.624 485.119 124.741 485.332 124.976C485.556 125.211 485.668 125.493 485.668 125.824C485.668 126.165 485.556 126.453 485.332 126.688C485.119 126.912 484.836 127.024 484.484 127.024ZM492.597 136V131.568C492.597 131.109 492.453 130.736 492.165 130.448C491.877 130.16 491.503 130.016 491.045 130.016C490.746 130.016 490.479 130.08 490.245 130.208C490.01 130.336 489.823 130.517 489.685 130.752C489.557 130.987 489.493 131.259 489.493 131.568L488.677 131.152C488.677 130.544 488.805 130.016 489.061 129.568C489.327 129.109 489.69 128.752 490.149 128.496C490.618 128.24 491.146 128.112 491.733 128.112C492.298 128.112 492.805 128.256 493.253 128.544C493.701 128.821 494.053 129.189 494.309 129.648C494.565 130.096 494.693 130.581 494.693 131.104V136H492.597ZM487.397 136V128.272H489.493V136H487.397ZM499.613 136.16C498.909 136.16 498.274 135.984 497.709 135.632C497.144 135.28 496.701 134.8 496.381 134.192C496.061 133.584 495.901 132.901 495.901 132.144C495.901 131.376 496.061 130.688 496.381 130.08C496.701 129.472 497.144 128.992 497.709 128.64C498.274 128.288 498.909 128.112 499.613 128.112C500.168 128.112 500.664 128.224 501.101 128.448C501.538 128.672 501.885 128.987 502.141 129.392C502.408 129.787 502.552 130.235 502.573 130.736V133.52C502.552 134.032 502.408 134.485 502.141 134.88C501.885 135.275 501.538 135.589 501.101 135.824C500.664 136.048 500.168 136.16 499.613 136.16ZM499.997 134.224C500.584 134.224 501.058 134.032 501.421 133.648C501.784 133.253 501.965 132.747 501.965 132.128C501.965 131.723 501.88 131.365 501.709 131.056C501.549 130.736 501.32 130.491 501.021 130.32C500.733 130.139 500.392 130.048 499.997 130.048C499.613 130.048 499.272 130.139 498.973 130.32C498.685 130.491 498.456 130.736 498.285 131.056C498.125 131.365 498.045 131.723 498.045 132.128C498.045 132.544 498.125 132.912 498.285 133.232C498.456 133.541 498.685 133.787 498.973 133.968C499.272 134.139 499.613 134.224 499.997 134.224ZM501.853 136V133.92L502.189 132.032L501.853 130.176V128.272H503.933V136H501.853ZM505.787 136V124.432H507.883V136H505.787ZM509.741 136V128.272H511.853V136H509.741ZM510.797 127.024C510.455 127.024 510.173 126.912 509.949 126.688C509.725 126.453 509.613 126.165 509.613 125.824C509.613 125.493 509.725 125.211 509.949 124.976C510.173 124.741 510.455 124.624 510.797 124.624C511.149 124.624 511.431 124.741 511.645 124.976C511.869 125.211 511.981 125.493 511.981 125.824C511.981 126.165 511.869 126.453 511.645 126.688C511.431 126.912 511.149 127.024 510.797 127.024ZM513.165 134.8L517.261 129.472H519.789L515.693 134.8H513.165ZM513.165 136V134.8L514.829 134.176H519.693V136H513.165ZM513.453 130.096V128.272H519.789V129.472L518.109 130.096H513.453ZM524.718 136.16C523.907 136.16 523.187 135.989 522.558 135.648C521.928 135.296 521.427 134.816 521.054 134.208C520.691 133.6 520.51 132.907 520.51 132.128C520.51 131.36 520.686 130.677 521.038 130.08C521.4 129.472 521.891 128.992 522.51 128.64C523.128 128.277 523.816 128.096 524.574 128.096C525.32 128.096 525.976 128.267 526.542 128.608C527.118 128.939 527.566 129.397 527.886 129.984C528.216 130.56 528.382 131.216 528.382 131.952C528.382 132.091 528.371 132.235 528.35 132.384C528.339 132.523 528.312 132.683 528.27 132.864L521.774 132.88V131.312L527.294 131.296L526.446 131.952C526.424 131.493 526.339 131.109 526.19 130.8C526.051 130.491 525.843 130.256 525.566 130.096C525.299 129.925 524.968 129.84 524.574 129.84C524.158 129.84 523.795 129.936 523.486 130.128C523.176 130.309 522.936 130.571 522.766 130.912C522.606 131.243 522.526 131.637 522.526 132.096C522.526 132.565 522.611 132.976 522.782 133.328C522.963 133.669 523.219 133.936 523.55 134.128C523.88 134.309 524.264 134.4 524.702 134.4C525.096 134.4 525.454 134.336 525.774 134.208C526.094 134.069 526.371 133.867 526.606 133.6L527.838 134.832C527.464 135.269 527.006 135.6 526.462 135.824C525.928 136.048 525.347 136.16 524.718 136.16ZM533.027 136V124.752H535.203V136H533.027ZM540.083 136V124.752H542.259V136H540.083ZM534.403 131.152V129.232H540.691V131.152H534.403ZM547.966 136.16C547.188 136.16 546.484 135.984 545.854 135.632C545.236 135.269 544.74 134.784 544.366 134.176C544.004 133.557 543.822 132.869 543.822 132.112C543.822 131.355 544.004 130.677 544.366 130.08C544.729 129.472 545.225 128.992 545.854 128.64C546.484 128.277 547.182 128.096 547.95 128.096C548.74 128.096 549.444 128.277 550.062 128.64C550.692 128.992 551.188 129.472 551.55 130.08C551.913 130.677 552.094 131.355 552.094 132.112C552.094 132.869 551.913 133.557 551.55 134.176C551.188 134.784 550.692 135.269 550.062 135.632C549.444 135.984 548.745 136.16 547.966 136.16ZM547.95 134.208C548.345 134.208 548.692 134.123 548.99 133.952C549.3 133.771 549.534 133.525 549.694 133.216C549.865 132.896 549.95 132.533 549.95 132.128C549.95 131.723 549.865 131.365 549.694 131.056C549.524 130.747 549.289 130.507 548.99 130.336C548.692 130.155 548.345 130.064 547.95 130.064C547.566 130.064 547.225 130.155 546.926 130.336C546.628 130.507 546.393 130.747 546.222 131.056C546.052 131.365 545.966 131.723 545.966 132.128C545.966 132.533 546.052 132.896 546.222 133.216C546.393 133.525 546.628 133.771 546.926 133.952C547.225 134.123 547.566 134.208 547.95 134.208ZM556.74 136.16C556.057 136.16 555.449 136.016 554.916 135.728C554.393 135.44 553.982 135.04 553.684 134.528C553.385 134.016 553.236 133.424 553.236 132.752V128.272H555.348V132.704C555.348 133.024 555.401 133.301 555.508 133.536C555.614 133.76 555.774 133.931 555.988 134.048C556.201 134.165 556.452 134.224 556.74 134.224C557.177 134.224 557.518 134.091 557.764 133.824C558.009 133.557 558.132 133.184 558.132 132.704V128.272H560.228V132.752C560.228 133.435 560.078 134.032 559.78 134.544C559.492 135.056 559.081 135.456 558.548 135.744C558.025 136.021 557.422 136.16 556.74 136.16ZM561.897 136V128.272H563.993V136H561.897ZM563.993 131.728L563.177 131.184C563.273 130.235 563.55 129.488 564.009 128.944C564.467 128.389 565.129 128.112 565.993 128.112C566.366 128.112 566.702 128.176 567.001 128.304C567.299 128.421 567.571 128.619 567.817 128.896L566.505 130.4C566.387 130.272 566.243 130.176 566.073 130.112C565.913 130.048 565.726 130.016 565.513 130.016C565.065 130.016 564.697 130.16 564.409 130.448C564.131 130.725 563.993 131.152 563.993 131.728ZM571.037 136.176C570.6 136.176 570.168 136.117 569.741 136C569.325 135.883 568.941 135.723 568.589 135.52C568.237 135.307 567.933 135.051 567.677 134.752L568.925 133.488C569.192 133.787 569.501 134.011 569.853 134.16C570.205 134.309 570.594 134.384 571.021 134.384C571.362 134.384 571.618 134.336 571.789 134.24C571.97 134.144 572.061 134 572.061 133.808C572.061 133.595 571.965 133.429 571.773 133.312C571.592 133.195 571.352 133.099 571.053 133.024C570.754 132.939 570.44 132.848 570.109 132.752C569.789 132.645 569.48 132.512 569.181 132.352C568.882 132.181 568.637 131.952 568.445 131.664C568.264 131.365 568.173 130.981 568.173 130.512C568.173 130.021 568.29 129.595 568.525 129.232C568.77 128.869 569.117 128.587 569.565 128.384C570.013 128.181 570.541 128.08 571.149 128.08C571.789 128.08 572.365 128.192 572.877 128.416C573.4 128.64 573.832 128.976 574.173 129.424L572.909 130.688C572.674 130.4 572.408 130.192 572.109 130.064C571.821 129.936 571.506 129.872 571.165 129.872C570.856 129.872 570.616 129.92 570.445 130.016C570.285 130.112 570.205 130.245 570.205 130.416C570.205 130.608 570.296 130.757 570.477 130.864C570.669 130.971 570.914 131.067 571.213 131.152C571.512 131.227 571.821 131.317 572.141 131.424C572.472 131.52 572.781 131.659 573.069 131.84C573.368 132.021 573.608 132.261 573.789 132.56C573.981 132.859 574.077 133.243 574.077 133.712C574.077 134.469 573.805 135.072 573.261 135.52C572.717 135.957 571.976 136.176 571.037 136.176ZM580.44 136V134.224H583.368C583.89 134.224 584.296 134.064 584.584 133.744C584.882 133.424 585.032 133.045 585.032 132.608C585.032 132.309 584.968 132.037 584.84 131.792C584.712 131.547 584.52 131.355 584.264 131.216C584.018 131.067 583.72 130.992 583.368 130.992H580.44V129.232H583.128C583.576 129.232 583.933 129.12 584.2 128.896C584.477 128.672 584.616 128.336 584.616 127.888C584.616 127.429 584.477 127.088 584.2 126.864C583.933 126.64 583.576 126.528 583.128 126.528H580.44V124.752H583.384C584.13 124.752 584.754 124.891 585.256 125.168C585.768 125.435 586.152 125.792 586.408 126.24C586.664 126.677 586.792 127.157 586.792 127.68C586.792 128.32 586.594 128.875 586.2 129.344C585.816 129.803 585.25 130.144 584.504 130.368L584.6 129.664C585.432 129.899 586.072 130.288 586.52 130.832C586.978 131.365 587.208 132.011 587.208 132.768C587.208 133.365 587.058 133.909 586.76 134.4C586.472 134.88 586.045 135.269 585.48 135.568C584.925 135.856 584.248 136 583.448 136H580.44ZM578.84 136V124.752H581V136H578.84ZM592.005 136.16C591.323 136.16 590.715 136.016 590.181 135.728C589.659 135.44 589.248 135.04 588.949 134.528C588.651 134.016 588.501 133.424 588.501 132.752V128.272H590.613V132.704C590.613 133.024 590.667 133.301 590.773 133.536C590.88 133.76 591.04 133.931 591.253 134.048C591.467 134.165 591.717 134.224 592.005 134.224C592.443 134.224 592.784 134.091 593.029 133.824C593.275 133.557 593.397 133.184 593.397 132.704V128.272H595.493V132.752C595.493 133.435 595.344 134.032 595.045 134.544C594.757 135.056 594.347 135.456 593.813 135.744C593.291 136.021 592.688 136.16 592.005 136.16ZM600.81 136.16C600.021 136.16 599.312 135.984 598.682 135.632C598.053 135.28 597.557 134.8 597.194 134.192C596.832 133.584 596.65 132.901 596.65 132.144C596.65 131.376 596.832 130.688 597.194 130.08C597.557 129.472 598.053 128.992 598.682 128.64C599.322 128.277 600.032 128.096 600.81 128.096C601.418 128.096 601.978 128.208 602.49 128.432C603.002 128.656 603.445 128.976 603.818 129.392L602.474 130.752C602.272 130.528 602.026 130.357 601.738 130.24C601.461 130.123 601.152 130.064 600.81 130.064C600.426 130.064 600.08 130.155 599.77 130.336C599.472 130.507 599.232 130.747 599.05 131.056C598.88 131.355 598.794 131.712 598.794 132.128C598.794 132.533 598.88 132.896 599.05 133.216C599.232 133.525 599.472 133.771 599.77 133.952C600.08 134.123 600.426 134.208 600.81 134.208C601.162 134.208 601.477 134.149 601.754 134.032C602.042 133.904 602.288 133.723 602.49 133.488L603.85 134.848C603.456 135.275 603.002 135.6 602.49 135.824C601.978 136.048 601.418 136.16 600.81 136.16ZM609.965 136L606.973 132.016L609.949 128.272H612.365L608.877 132.496L608.957 131.472L612.525 136H609.965ZM605.037 136V124.432H607.133V136H605.037ZM616.827 136.16C616.016 136.16 615.296 135.989 614.667 135.648C614.038 135.296 613.536 134.816 613.163 134.208C612.8 133.6 612.619 132.907 612.619 132.128C612.619 131.36 612.795 130.677 613.147 130.08C613.51 129.472 614 128.992 614.619 128.64C615.238 128.277 615.926 128.096 616.683 128.096C617.43 128.096 618.086 128.267 618.651 128.608C619.227 128.939 619.675 129.397 619.995 129.984C620.326 130.56 620.491 131.216 620.491 131.952C620.491 132.091 620.48 132.235 620.459 132.384C620.448 132.523 620.422 132.683 620.379 132.864L613.883 132.88V131.312L619.403 131.296L618.555 131.952C618.534 131.493 618.448 131.109 618.299 130.8C618.16 130.491 617.952 130.256 617.675 130.096C617.408 129.925 617.078 129.84 616.683 129.84C616.267 129.84 615.904 129.936 615.595 130.128C615.286 130.309 615.046 130.571 614.875 130.912C614.715 131.243 614.635 131.637 614.635 132.096C614.635 132.565 614.72 132.976 614.891 133.328C615.072 133.669 615.328 133.936 615.659 134.128C615.99 134.309 616.374 134.4 616.811 134.4C617.206 134.4 617.563 134.336 617.883 134.208C618.203 134.069 618.48 133.867 618.715 133.6L619.947 134.832C619.574 135.269 619.115 135.6 618.571 135.824C618.038 136.048 617.456 136.16 616.827 136.16ZM622.752 136V125.056H624.848V136H622.752ZM620.944 130.112V128.272H626.656V130.112H620.944Z" fill="white" fill-opacity="0.8"/>
<path d="M685.4 132.032L689.24 124.752H691.64L687.704 132.032H685.4ZM685.4 133.312V132.032L686.2 131.408H694.264V133.312H685.4ZM690.712 136V128.832H692.856V136H690.712ZM696.524 136.16C696.14 136.16 695.826 136.032 695.58 135.776C695.335 135.52 695.212 135.205 695.212 134.832C695.212 134.459 695.335 134.144 695.58 133.888C695.826 133.632 696.14 133.504 696.524 133.504C696.898 133.504 697.207 133.632 697.452 133.888C697.698 134.144 697.82 134.459 697.82 134.832C697.82 135.205 697.698 135.52 697.452 135.776C697.207 136.032 696.898 136.16 696.524 136.16ZM706.416 136.16C705.509 136.16 704.731 136.005 704.08 135.696C703.44 135.387 702.859 134.923 702.336 134.304L703.776 132.864C704.107 133.301 704.491 133.643 704.928 133.888C705.365 134.123 705.899 134.24 706.528 134.24C707.093 134.24 707.541 134.128 707.872 133.904C708.213 133.68 708.384 133.371 708.384 132.976C708.384 132.635 708.288 132.357 708.096 132.144C707.904 131.931 707.648 131.749 707.328 131.6C707.019 131.451 706.672 131.317 706.288 131.2C705.915 131.072 705.536 130.928 705.152 130.768C704.779 130.608 704.432 130.411 704.112 130.176C703.803 129.931 703.552 129.621 703.36 129.248C703.168 128.864 703.072 128.384 703.072 127.808C703.072 127.125 703.237 126.544 703.568 126.064C703.899 125.584 704.352 125.216 704.928 124.96C705.504 124.704 706.155 124.576 706.88 124.576C707.648 124.576 708.341 124.72 708.96 125.008C709.579 125.296 710.085 125.669 710.48 126.128L709.04 127.568C708.709 127.205 708.368 126.939 708.016 126.768C707.675 126.597 707.285 126.512 706.848 126.512C706.347 126.512 705.952 126.608 705.664 126.8C705.376 126.992 705.232 127.269 705.232 127.632C705.232 127.941 705.328 128.192 705.52 128.384C705.712 128.576 705.963 128.741 706.272 128.88C706.592 129.019 706.939 129.152 707.312 129.28C707.696 129.408 708.075 129.552 708.448 129.712C708.832 129.872 709.179 130.08 709.488 130.336C709.808 130.592 710.064 130.923 710.256 131.328C710.448 131.723 710.544 132.213 710.544 132.8C710.544 133.845 710.176 134.667 709.44 135.264C708.704 135.861 707.696 136.16 706.416 136.16ZM712.037 136V128.272H714.149V136H712.037ZM713.093 127.024C712.752 127.024 712.469 126.912 712.245 126.688C712.021 126.453 711.909 126.165 711.909 125.824C711.909 125.493 712.021 125.211 712.245 124.976C712.469 124.741 712.752 124.624 713.093 124.624C713.445 124.624 713.728 124.741 713.941 124.976C714.165 125.211 714.277 125.493 714.277 125.824C714.277 126.165 714.165 126.453 713.941 126.688C713.728 126.912 713.445 127.024 713.093 127.024ZM719.238 139.424C718.417 139.424 717.691 139.275 717.062 138.976C716.433 138.688 715.931 138.277 715.558 137.744L716.886 136.416C717.185 136.768 717.515 137.035 717.878 137.216C718.251 137.408 718.699 137.504 719.222 137.504C719.873 137.504 720.385 137.339 720.758 137.008C721.142 136.677 721.334 136.219 721.334 135.632V133.696L721.686 132L721.35 130.304V128.272H723.43V135.6C723.43 136.368 723.249 137.035 722.886 137.6C722.534 138.176 722.043 138.624 721.414 138.944C720.785 139.264 720.059 139.424 719.238 139.424ZM719.142 135.792C718.449 135.792 717.825 135.627 717.27 135.296C716.715 134.955 716.278 134.491 715.958 133.904C715.649 133.317 715.494 132.661 715.494 131.936C715.494 131.211 715.649 130.56 715.958 129.984C716.278 129.408 716.715 128.955 717.27 128.624C717.825 128.283 718.449 128.112 719.142 128.112C719.718 128.112 720.225 128.224 720.662 128.448C721.11 128.672 721.462 128.981 721.718 129.376C721.974 129.76 722.113 130.213 722.134 130.736V133.168C722.113 133.68 721.969 134.139 721.702 134.544C721.446 134.939 721.094 135.248 720.646 135.472C720.209 135.685 719.707 135.792 719.142 135.792ZM719.558 133.888C719.942 133.888 720.273 133.808 720.55 133.648C720.838 133.477 721.062 133.248 721.222 132.96C721.382 132.661 721.462 132.325 721.462 131.952C721.462 131.568 721.382 131.232 721.222 130.944C721.062 130.656 720.838 130.432 720.55 130.272C720.273 130.101 719.942 130.016 719.558 130.016C719.174 130.016 718.838 130.101 718.55 130.272C718.262 130.432 718.038 130.661 717.878 130.96C717.718 131.248 717.638 131.579 717.638 131.952C717.638 132.315 717.718 132.645 717.878 132.944C718.038 133.232 718.262 133.461 718.55 133.632C718.838 133.803 719.174 133.888 719.558 133.888ZM730.472 136V131.568C730.472 131.109 730.328 130.736 730.04 130.448C729.752 130.16 729.378 130.016 728.92 130.016C728.621 130.016 728.354 130.08 728.12 130.208C727.885 130.336 727.698 130.517 727.56 130.752C727.432 130.987 727.368 131.259 727.368 131.568L726.552 131.152C726.552 130.544 726.68 130.016 726.936 129.568C727.202 129.109 727.565 128.752 728.024 128.496C728.493 128.24 729.021 128.112 729.608 128.112C730.173 128.112 730.68 128.256 731.128 128.544C731.576 128.821 731.928 129.189 732.184 129.648C732.44 130.096 732.568 130.581 732.568 131.104V136H730.472ZM725.272 136V128.272H727.368V136H725.272ZM738.517 136V125.056H740.613V136H738.517ZM736.709 130.112V128.272H742.421V130.112H736.709ZM748.8 136V131.568C748.8 131.109 748.656 130.736 748.368 130.448C748.08 130.16 747.707 130.016 747.248 130.016C746.949 130.016 746.683 130.08 746.448 130.208C746.213 130.336 746.027 130.517 745.888 130.752C745.76 130.987 745.696 131.259 745.696 131.568L744.88 131.152C744.88 130.544 745.008 130.016 745.264 129.568C745.52 129.109 745.872 128.752 746.32 128.496C746.779 128.24 747.301 128.112 747.888 128.112C748.475 128.112 748.992 128.24 749.44 128.496C749.899 128.752 750.256 129.104 750.512 129.552C750.768 130 750.896 130.517 750.896 131.104V136H748.8ZM743.6 136V124.432H745.696V136H743.6ZM756.28 136.16C755.47 136.16 754.75 135.989 754.12 135.648C753.491 135.296 752.99 134.816 752.616 134.208C752.254 133.6 752.072 132.907 752.072 132.128C752.072 131.36 752.248 130.677 752.6 130.08C752.963 129.472 753.454 128.992 754.072 128.64C754.691 128.277 755.379 128.096 756.136 128.096C756.883 128.096 757.539 128.267 758.104 128.608C758.68 128.939 759.128 129.397 759.448 129.984C759.779 130.56 759.944 131.216 759.944 131.952C759.944 132.091 759.934 132.235 759.912 132.384C759.902 132.523 759.875 132.683 759.832 132.864L753.336 132.88V131.312L758.856 131.296L758.008 131.952C757.987 131.493 757.902 131.109 757.752 130.8C757.614 130.491 757.406 130.256 757.128 130.096C756.862 129.925 756.531 129.84 756.136 129.84C755.72 129.84 755.358 129.936 755.048 130.128C754.739 130.309 754.499 130.571 754.328 130.912C754.168 131.243 754.088 131.637 754.088 132.096C754.088 132.565 754.174 132.976 754.344 133.328C754.526 133.669 754.782 133.936 755.112 134.128C755.443 134.309 755.827 134.4 756.264 134.4C756.659 134.4 757.016 134.336 757.336 134.208C757.656 134.069 757.934 133.867 758.168 133.6L759.4 134.832C759.027 135.269 758.568 135.6 758.024 135.824C757.491 136.048 756.91 136.16 756.28 136.16ZM769.806 136.16C768.984 136.16 768.222 136.016 767.518 135.728C766.814 135.429 766.195 135.019 765.662 134.496C765.139 133.963 764.734 133.344 764.446 132.64C764.168 131.936 764.03 131.179 764.03 130.368C764.03 129.557 764.168 128.8 764.446 128.096C764.734 127.392 765.139 126.779 765.662 126.256C766.195 125.733 766.808 125.323 767.502 125.024C768.206 124.725 768.974 124.576 769.806 124.576C770.702 124.576 771.491 124.725 772.174 125.024C772.856 125.312 773.459 125.712 773.982 126.224L772.51 127.696C772.2 127.355 771.822 127.088 771.374 126.896C770.926 126.704 770.403 126.608 769.806 126.608C769.283 126.608 768.803 126.699 768.366 126.88C767.939 127.051 767.566 127.307 767.246 127.648C766.926 127.979 766.68 128.379 766.51 128.848C766.339 129.307 766.254 129.813 766.254 130.368C766.254 130.933 766.339 131.445 766.51 131.904C766.68 132.363 766.926 132.763 767.246 133.104C767.566 133.435 767.939 133.691 768.366 133.872C768.803 134.053 769.283 134.144 769.806 134.144C770.435 134.144 770.974 134.048 771.422 133.856C771.88 133.664 772.264 133.392 772.574 133.04L774.046 134.512C773.523 135.035 772.915 135.44 772.222 135.728C771.528 136.016 770.723 136.16 769.806 136.16ZM778.763 136.16C777.984 136.16 777.28 135.984 776.651 135.632C776.032 135.269 775.536 134.784 775.163 134.176C774.8 133.557 774.619 132.869 774.619 132.112C774.619 131.355 774.8 130.677 775.163 130.08C775.526 129.472 776.022 128.992 776.651 128.64C777.28 128.277 777.979 128.096 778.747 128.096C779.536 128.096 780.24 128.277 780.859 128.64C781.488 128.992 781.984 129.472 782.347 130.08C782.71 130.677 782.891 131.355 782.891 132.112C782.891 132.869 782.71 133.557 782.347 134.176C781.984 134.784 781.488 135.269 780.859 135.632C780.24 135.984 779.542 136.16 778.763 136.16ZM778.747 134.208C779.142 134.208 779.488 134.123 779.787 133.952C780.096 133.771 780.331 133.525 780.491 133.216C780.662 132.896 780.747 132.533 780.747 132.128C780.747 131.723 780.662 131.365 780.491 131.056C780.32 130.747 780.086 130.507 779.787 130.336C779.488 130.155 779.142 130.064 778.747 130.064C778.363 130.064 778.022 130.155 777.723 130.336C777.424 130.507 777.19 130.747 777.019 131.056C776.848 131.365 776.763 131.723 776.763 132.128C776.763 132.533 776.848 132.896 777.019 133.216C777.19 133.525 777.424 133.771 777.723 133.952C778.022 134.123 778.363 134.208 778.747 134.208ZM789.441 136V131.568C789.441 131.109 789.297 130.736 789.009 130.448C788.721 130.16 788.347 130.016 787.889 130.016C787.59 130.016 787.323 130.08 787.089 130.208C786.854 130.336 786.667 130.517 786.529 130.752C786.401 130.987 786.337 131.259 786.337 131.568L785.521 131.152C785.521 130.544 785.649 130.016 785.905 129.568C786.171 129.109 786.534 128.752 786.993 128.496C787.462 128.24 787.99 128.112 788.577 128.112C789.142 128.112 789.649 128.256 790.097 128.544C790.545 128.821 790.897 129.189 791.153 129.648C791.409 130.096 791.536 130.581 791.536 131.104V136H789.441ZM784.241 136V128.272H786.337V136L784.241 136ZM794.267 136V125.056H796.363V136H794.267ZM792.459 130.112V128.272H798.171V130.112H792.459ZM799.35 136V128.272H801.446V136H799.35ZM801.446 131.728L800.63 131.184C800.726 130.235 801.003 129.488 801.462 128.944C801.921 128.389 802.582 128.112 803.446 128.112C803.819 128.112 804.155 128.176 804.454 128.304C804.753 128.421 805.025 128.619 805.27 128.896L803.958 130.4C803.841 130.272 803.697 130.176 803.526 130.112C803.366 130.048 803.179 130.016 802.966 130.016C802.518 130.016 802.15 130.16 801.862 130.448C801.585 130.725 801.446 131.152 801.446 131.728ZM809.019 136.16C808.315 136.16 807.681 135.984 807.115 135.632C806.55 135.28 806.107 134.8 805.787 134.192C805.467 133.584 805.307 132.901 805.307 132.144C805.307 131.376 805.467 130.688 805.787 130.08C806.107 129.472 806.55 128.992 807.115 128.64C807.681 128.288 808.315 128.112 809.019 128.112C809.574 128.112 810.07 128.224 810.507 128.448C810.945 128.672 811.291 128.987 811.547 129.392C811.814 129.787 811.958 130.235 811.979 130.736V133.52C811.958 134.032 811.814 134.485 811.547 134.88C811.291 135.275 810.945 135.589 810.507 135.824C810.07 136.048 809.574 136.16 809.019 136.16ZM809.403 134.224C809.99 134.224 810.465 134.032 810.827 133.648C811.19 133.253 811.371 132.747 811.371 132.128C811.371 131.723 811.286 131.365 811.115 131.056C810.955 130.736 810.726 130.491 810.427 130.32C810.139 130.139 809.798 130.048 809.403 130.048C809.019 130.048 808.678 130.139 808.379 130.32C808.091 130.491 807.862 130.736 807.691 131.056C807.531 131.365 807.451 131.723 807.451 132.128C807.451 132.544 807.531 132.912 807.691 133.232C807.862 133.541 808.091 133.787 808.379 133.968C808.678 134.139 809.019 134.224 809.403 134.224ZM811.259 136V133.92L811.595 132.032L811.259 130.176V128.272H813.339V136H811.259ZM818.842 136.16C818.052 136.16 817.343 135.984 816.714 135.632C816.084 135.28 815.588 134.8 815.226 134.192C814.863 133.584 814.682 132.901 814.682 132.144C814.682 131.376 814.863 130.688 815.226 130.08C815.588 129.472 816.084 128.992 816.714 128.64C817.354 128.277 818.063 128.096 818.842 128.096C819.45 128.096 820.01 128.208 820.522 128.432C821.034 128.656 821.476 128.976 821.85 129.392L820.506 130.752C820.303 130.528 820.058 130.357 819.77 130.24C819.492 130.123 819.183 130.064 818.842 130.064C818.458 130.064 818.111 130.155 817.802 130.336C817.503 130.507 817.263 130.747 817.082 131.056C816.911 131.355 816.826 131.712 816.826 132.128C816.826 132.533 816.911 132.896 817.082 133.216C817.263 133.525 817.503 133.771 817.802 133.952C818.111 134.123 818.458 134.208 818.842 134.208C819.194 134.208 819.508 134.149 819.786 134.032C820.074 133.904 820.319 133.723 820.522 133.488L821.882 134.848C821.487 135.275 821.034 135.6 820.522 135.824C820.01 136.048 819.45 136.16 818.842 136.16ZM824.08 136V125.056H826.176V136H824.08ZM822.272 130.112V128.272H827.984V130.112H822.272Z" fill="white" fill-opacity="0.8"/>
<path d="M98 51H762" stroke="white" stroke-opacity="0.2" stroke-width="2" stroke-dasharray="4 4"/>
<circle cx="49.5" cy="48.5" r="48.5" fill="#2D2727"/>
<circle cx="277.5" cy="48.5" r="48.5" fill="#2D2727"/>
<circle cx="505.5" cy="48.5" r="48.5" fill="#2D2727"/>
<circle cx="733.5" cy="48.5" r="48.5" fill="#2D2727"/>
<path fill-rule="evenodd" clip-rule="evenodd" d="M710.552 25.0839C710.451 25.1253 710.285 25.251 710.184 25.3634C710.001 25.5665 710 25.697 710 48.529V71.4905L710.255 71.7452L710.51 72H728.533H746.557L746.811 71.7452L747.067 71.4905V63.7297V55.9689L746.814 55.7162C746.437 55.3403 745.899 55.3594 745.54 55.7616L745.273 56.0596V63.1338V70.2081H728.533H711.794V48.5215V26.8349H723.061H734.328L734.329 31.6822C734.329 34.3483 734.355 36.6844 734.387 36.8735C734.418 37.0627 734.547 37.3212 734.674 37.4478L734.905 37.6782H740.089H745.273V43.014C745.273 46.7628 745.304 48.4095 745.376 48.5505C745.542 48.8745 745.848 49.0688 746.193 49.0688C746.538 49.0688 746.844 48.8745 747.01 48.5505C747.082 48.4089 747.113 46.6285 747.113 42.504C747.113 37.6013 747.091 36.6182 746.981 36.4101C746.821 36.1101 735.93 25.2426 735.645 25.0985C735.404 24.9772 710.848 24.9629 710.552 25.0839ZM752.703 25.1571C752.507 25.2781 752.114 26.0285 750.909 28.5776L749.366 31.843V51.1935V70.5441L749.644 70.994C749.817 71.2728 750.094 71.5495 750.373 71.7219L750.823 72H753.183H755.543L755.993 71.7219C756.272 71.5495 756.549 71.2728 756.722 70.994L757 70.5441V51.1935V31.843L755.455 28.5749C754.196 25.9119 753.861 25.2781 753.647 25.1519C753.317 24.957 753.023 24.9586 752.703 25.1571ZM740.122 32.0268L743.939 35.8403H740.099H736.259V32.0268C736.259 29.9293 736.27 28.2132 736.283 28.2132C736.296 28.2132 738.023 29.9293 740.122 32.0268ZM753.945 29.7065L754.642 31.1998L753.913 31.2264C753.511 31.2411 752.855 31.2411 752.453 31.2264L751.724 31.1998L752.421 29.7065C752.805 28.8853 753.147 28.2132 753.183 28.2132C753.218 28.2132 753.561 28.8853 753.945 29.7065ZM755.206 48.8431V64.6027H753.183H751.159V48.8431V33.0835H753.183H755.206V48.8431ZM717.174 34.8245C716.589 35.0639 716.433 35.8307 716.879 36.2768L717.132 36.5295L720.004 36.5565C721.584 36.5713 722.973 36.5594 723.091 36.5298C723.21 36.5003 723.406 36.3684 723.528 36.2367C723.924 35.8103 723.775 35.1201 723.228 34.8403C722.991 34.7191 717.467 34.7048 717.174 34.8245ZM726.05 34.8546C725.704 35.0265 725.468 35.5659 725.594 35.8976C725.819 36.4891 726.342 36.7144 726.864 36.4448C727.203 36.2696 727.338 36.0457 727.338 35.6565C727.338 35.2721 727.204 35.0438 726.88 34.8764C726.555 34.7088 726.354 34.7034 726.05 34.8546ZM717.174 40.338C716.589 40.5775 716.433 41.3443 716.879 41.7904L717.132 42.0431L728.487 42.0671L739.841 42.0911L740.141 41.8238C740.389 41.6023 740.44 41.4901 740.44 41.1701C740.44 40.8503 740.389 40.7378 740.142 40.5175L739.843 40.2512L728.601 40.2569C722.417 40.2602 717.275 40.2966 717.174 40.338ZM717.174 45.8515C716.589 46.091 716.433 46.8579 716.879 47.3039L717.132 47.5566L728.487 47.5807L739.841 47.6047L740.141 47.3374C740.389 47.1159 740.44 47.0037 740.44 46.6836C740.44 46.3638 740.389 46.2514 740.142 46.031L739.843 45.7647L728.601 45.7705C722.417 45.7737 717.275 45.8102 717.174 45.8515ZM717.174 51.3651C716.589 51.6046 716.433 52.3714 716.879 52.8175L717.132 53.0702L728.487 53.0942L739.841 53.1182L740.141 52.8509C740.389 52.6294 740.44 52.5172 740.44 52.1972C740.44 51.8774 740.389 51.7649 740.142 51.5446L739.843 51.2783L728.601 51.284C722.417 51.2873 717.275 51.3237 717.174 51.3651ZM745.861 51.3648C745.569 51.4878 745.273 51.9126 745.273 52.2081C745.273 52.3672 745.378 52.587 745.54 52.7679C746.093 53.3867 747.062 53.0234 747.062 52.1972C747.062 51.5868 746.408 51.1339 745.861 51.3648ZM717.174 56.8786C716.589 57.1181 716.433 57.885 716.879 58.331L717.132 58.5837L728.487 58.6078L739.841 58.6318L740.141 58.3644C740.389 58.143 740.44 58.0308 740.44 57.7107C740.44 57.3909 740.389 57.2785 740.142 57.0581L739.843 56.7918L728.601 56.7976C722.417 56.8008 717.275 56.8373 717.174 56.8786ZM717.174 62.3922C716.589 62.6317 716.433 63.3985 716.879 63.8445L717.132 64.0972L728.487 64.1213L739.841 64.1453L740.141 63.878C740.389 63.6565 740.44 63.5443 740.44 63.2243C740.44 62.9045 740.389 62.792 740.142 62.5717L739.843 62.3053L728.601 62.3111C722.417 62.3143 717.275 62.3508 717.174 62.3922ZM755.206 68.214C755.206 69.4709 755.174 70.0197 755.096 70.0978C754.94 70.2536 751.426 70.2536 751.27 70.0978C751.192 70.0197 751.159 69.4709 751.159 68.214V66.4405H753.183H755.206V68.214Z" fill="#E49B00"/>
<path fill-rule="evenodd" clip-rule="evenodd" d="M47.9176 22.0957C42.0925 22.802 37.1913 27.5363 35.8698 33.733C35.5521 35.2228 35.4804 36.4314 35.4804 40.299C35.4804 44.3978 35.5119 44.6729 36.0705 45.4727C36.2381 45.7126 36.5897 46.0461 36.8519 46.2137L37.3286 46.5185L37.3683 47.4836C37.4154 48.6316 37.6123 49.1901 38.1923 49.8202C38.7421 50.4175 39.2928 50.6592 40.2307 50.7146L41.0066 50.7605L41.2485 51.2808C41.5717 51.9761 41.9593 52.5945 42.5106 53.295L42.9668 53.8744L42.175 55.5925L41.3832 57.3105L38.689 58.2952C35.1493 59.5889 34.0988 60.2047 32.3778 61.9949C30.0501 64.4163 28.6346 67.4252 28.1408 71.0018C28.0637 71.5605 28.0003 72.3026 28 72.651C27.9995 73.2077 28.0325 73.3245 28.2723 73.6161L28.5452 73.9479L49.4507 73.974L70.3563 74L70.6553 73.7097C70.9149 73.4577 70.9598 73.3394 70.9948 72.8139C71.0169 72.481 70.9668 71.7029 70.8834 71.0849C70.3923 67.4476 68.9872 64.4398 66.6368 61.9949C64.9158 60.2047 63.8653 59.5889 60.3255 58.2952L57.6314 57.3105L56.8396 55.5925L56.0478 53.8744L56.504 53.295C57.6814 51.7992 58.466 50.0069 58.8031 48.0423C58.8894 47.5394 58.979 47.0298 59.0022 46.9097C59.0422 46.7025 59.1061 46.6892 60.2373 46.6527C61.2011 46.6214 61.5135 46.5726 61.8649 46.3987C62.4188 46.1244 63.0286 45.4631 63.2864 44.8574C63.4786 44.4057 63.4887 44.2212 63.5173 40.6262C63.5356 38.347 63.5063 36.4275 63.4432 35.7499C63.1105 32.1825 61.7926 29.1243 59.4863 26.5682C56.4537 23.2073 52.227 21.5732 47.9176 22.0957ZM51.7956 24.271C54.32 24.8434 56.2968 25.9929 58.0705 27.92C60.0248 30.043 61.1906 32.6033 61.5551 35.5721L61.6329 36.207H60.7318H59.8306L59.7117 35.1728C59.1818 30.5599 56.0732 26.9953 51.8887 26.2026C50.8006 25.9965 48.214 25.9965 47.1259 26.2026C42.9414 26.9953 39.8328 30.5599 39.3028 35.1728L39.184 36.207H38.2761C37.4616 36.207 37.3714 36.1887 37.4001 36.0293C37.4176 35.9314 37.4809 35.4857 37.5409 35.0387C37.7671 33.3498 38.425 31.5466 39.4165 29.8977C40.1012 28.7589 41.6601 27.0386 42.6597 26.3186C44.1007 25.2807 45.9733 24.4641 47.45 24.2297C47.8358 24.1685 48.2566 24.0985 48.3851 24.074C48.8727 23.9814 51.081 24.1089 51.7956 24.271ZM51.6732 28.2256C53.055 28.5191 54.0386 29.0141 55.1279 29.9642C56.8089 31.4305 57.7779 33.5717 57.8971 36.0837L57.9516 37.2303L57.54 37.1659C56.4283 36.9922 54.7791 36.5856 54.0331 36.3011C52.2102 35.6063 50.2269 34.3534 48.9462 33.0877C48.0894 32.2408 47.9352 32.1434 47.4525 32.1435C46.5073 32.1438 44.8402 32.5888 43.9499 33.0783C43.1719 33.5062 42.3363 34.1581 41.7532 34.7922L41.1529 35.4451L41.2141 34.9597C41.3736 33.6956 42.0592 32.1115 42.9501 30.9491C43.9907 29.5913 45.6926 28.5391 47.4033 28.1962C48.1708 28.0424 50.8991 28.0611 51.6732 28.2256ZM47.7047 34.6075C50.1969 37.012 53.2434 38.5088 56.8348 39.0931C57.3419 39.1756 57.7787 39.2669 57.8056 39.296C57.8766 39.3732 57.665 42.2977 57.4528 44.1706C56.947 48.6363 56.5239 50.0544 55.1466 51.8993C54.2535 53.0956 52.7485 54.1599 51.3775 54.5645C50.5321 54.8141 48.4827 54.8141 47.637 54.5646C46.1634 54.1297 44.6103 52.9758 43.6459 51.5989C43.3723 51.2083 43.1484 50.854 43.1484 50.8116C43.1484 50.7692 43.5587 50.736 44.0602 50.7378L44.9719 50.7413L45.2525 51.2677C45.5991 51.9184 46.1793 52.4089 46.8541 52.622C47.6479 52.8727 50.0479 52.7927 50.6434 52.4956C51.1995 52.2183 51.8087 51.5561 52.063 50.9528C52.3395 50.2967 52.3395 49.1404 52.063 48.4843C51.8087 47.881 51.1995 47.2188 50.6434 46.9415C50.0479 46.6444 47.6479 46.5644 46.8541 46.8151C46.1793 47.0282 45.5991 47.5187 45.2525 48.1694L44.9719 48.6959L43.5926 48.6993C42.834 48.7011 42.2133 48.6684 42.2132 48.6265C42.2132 48.5845 42.1517 48.2301 42.0765 47.8387C41.7445 46.11 41.3311 42.3419 41.2234 40.0628L41.1636 38.7976L41.9088 37.7279C42.3185 37.1396 42.9344 36.379 43.2772 36.0377C44.2974 35.0222 45.7322 34.3353 47.143 34.1872C47.2056 34.1806 47.4583 34.3698 47.7047 34.6075ZM39.2552 38.7214C39.2839 38.9869 39.3331 39.7525 39.3647 40.423C39.3964 41.0935 39.4817 42.2364 39.5545 42.9628C39.6271 43.6892 39.6871 44.3679 39.6876 44.4711C39.6884 44.6428 39.6136 44.6557 38.8021 44.6235C37.9791 44.5908 37.8972 44.5681 37.6566 44.3067L37.3974 44.0252L37.3699 41.132L37.3425 38.2388H38.2729H39.2033L39.2552 38.7214ZM61.6446 41.132L61.6171 44.0252L61.358 44.3067C61.1174 44.5681 61.0355 44.5908 60.2125 44.6235C59.401 44.6557 59.3262 44.6428 59.327 44.4711C59.3275 44.3679 59.3876 43.6892 59.4607 42.9628C59.5337 42.2364 59.619 41.0707 59.65 40.3722C59.6812 39.6738 59.7288 38.9081 59.7559 38.6706L59.8052 38.2388H60.7386H61.6721L61.6446 41.132ZM40.0119 46.8994C40.0374 47.0252 40.1037 47.4166 40.1591 47.7692C40.2145 48.122 40.2857 48.4835 40.3172 48.5727C40.4068 48.8263 39.788 48.6534 39.5046 48.3457C39.3133 48.138 39.2676 47.9736 39.2368 47.3831L39.1998 46.6709H39.5826C39.9036 46.6709 39.973 46.7078 40.0119 46.8994ZM50.1345 49.0328C50.5201 49.4522 50.4975 50.0427 50.0802 50.4478L49.769 50.7498L48.5178 50.7168C47.3203 50.6851 47.2565 50.6726 47.0282 50.4242C46.6858 50.0519 46.6305 49.5398 46.8934 49.1767C47.2022 48.7502 47.3827 48.7053 48.6872 48.7305C49.8485 48.7528 49.8839 48.7603 50.1345 49.0328ZM55.3585 56.8444L55.9744 58.1796L55.7238 58.9464C55.3934 59.9575 54.7253 61.6507 54.26 62.6562L53.886 63.4641L52.3056 61.7493L50.7251 60.0346L51.1267 59.5752C51.3476 59.3224 52.2361 58.3042 53.101 57.3124C53.966 56.3207 54.6892 55.5092 54.7082 55.5092C54.7272 55.5092 55.0198 56.11 55.3585 56.8444ZM46.6355 61.7746C45.8346 62.6869 45.1611 63.4333 45.139 63.4333C45.0597 63.4333 43.9138 60.7167 43.4737 59.4852L43.0248 58.2293L43.5752 57.02L44.1257 55.8106L46.1088 57.9632L48.0918 60.1159L46.6355 61.7746ZM49.6146 56.7791H50.9845L50.2253 57.6426C49.8077 58.1176 49.4431 58.5178 49.4152 58.532C49.3871 58.5463 48.9651 58.1223 48.4773 57.59C47.6297 56.665 47.6048 56.6255 47.9176 56.7006C48.0976 56.7437 48.8613 56.7791 49.6146 56.7791ZM41.9373 60.7919C42.9222 63.477 44.2589 66.1506 46.0002 68.9192C46.4747 69.6735 47.0794 70.6677 47.3441 71.1288L47.8254 71.9669H38.8635H29.9017L29.9847 71.2811C30.4762 67.2244 32.8149 63.4523 35.9948 61.5876C36.7082 61.1692 41.0994 59.4594 41.3514 59.5018C41.4174 59.513 41.6811 60.0935 41.9373 60.7919ZM59.9248 60.2828C61.146 60.729 62.4893 61.2885 62.9099 61.526C66.1283 63.3438 68.5326 67.1761 69.0299 71.2811L69.1129 71.9669H60.1511H51.1892L51.6705 71.1288C51.9352 70.6677 52.5399 69.6735 53.0144 68.9192C54.7191 66.2088 55.9502 63.7732 56.917 61.1983C57.2002 60.444 57.4571 59.7468 57.4877 59.649C57.5184 59.5513 57.5797 59.4712 57.6238 59.4712C57.668 59.4712 58.7034 59.8365 59.9248 60.2828ZM51.1662 63.4577C52.1053 64.4768 52.8737 65.3519 52.8737 65.4025C52.8737 65.453 52.4214 66.2236 51.8685 67.1149C51.3155 68.0063 50.5783 69.2225 50.23 69.8178C49.8817 70.4131 49.5565 70.9002 49.5073 70.9002C49.4581 70.9002 49.1329 70.4131 48.7846 69.8178C48.4363 69.2225 47.6946 67.9992 47.1365 67.0992C46.5783 66.1993 46.1419 65.4063 46.1667 65.337C46.2219 65.1829 49.3243 61.6046 49.4026 61.6046C49.4335 61.6046 50.2271 62.4385 51.1662 63.4577ZM59.4559 62.3137C59.1615 62.443 58.8585 62.9138 58.8585 63.2422C58.8585 63.6488 59.2883 64.1369 59.7107 64.2097C59.9955 64.2589 60.0979 64.2201 60.3631 63.9627C60.6258 63.7077 60.6778 63.5868 60.6778 63.2301C60.6778 62.8766 60.6254 62.7522 60.3745 62.5086C60.0673 62.2103 59.8139 62.1566 59.4559 62.3137ZM62.7393 64.2404C62.3992 64.3917 62.1824 64.7498 62.1824 65.1604C62.1824 65.516 62.2618 65.6396 63.0742 66.5492C63.5803 67.116 64.141 67.8682 64.3712 68.2891C64.8263 69.1216 65.1555 69.3798 65.6367 69.2817C65.9932 69.2091 66.2199 68.9659 66.3341 68.5335C66.4887 67.9479 65.6737 66.4823 64.4634 65.1693C63.5727 64.203 63.234 64.0205 62.7393 64.2404Z" fill="#E49B00"/>
<path fill-rule="evenodd" clip-rule="evenodd" d="M277.63 22.0761C277.514 22.1237 277.324 22.2681 277.207 22.3971C277.01 22.6159 276.996 22.7803 276.996 24.829C276.996 26.9967 276.999 27.0298 277.247 27.2933C277.739 27.8168 278.594 27.7373 278.903 27.1394C279.103 26.753 279.126 22.9819 278.93 22.554C278.719 22.091 278.127 21.8731 277.63 22.0761ZM269.329 25.9646C268.878 26.1895 268.659 26.6148 268.759 27.0736C268.841 27.4507 270.64 29.3716 271.17 29.6485C271.845 30.0006 272.659 29.4957 272.659 28.7247C272.659 28.3316 272.586 28.2349 271.446 27.1064C270.769 26.4368 270.114 25.879 269.963 25.8447C269.804 25.8082 269.544 25.8574 269.329 25.9646ZM285.978 25.8507C285.649 25.928 283.417 28.1915 283.356 28.5103C283.224 29.1985 283.907 29.8755 284.586 29.729C285.063 29.626 287.051 27.6648 287.208 27.1436C287.36 26.6377 287.113 26.1372 286.609 25.9267C286.411 25.8442 286.236 25.7822 286.22 25.7889C286.203 25.7957 286.095 25.8234 285.978 25.8507ZM277.63 29.1489C276.987 29.4118 276.784 30.2842 277.249 30.7796C278.085 31.6686 279.439 30.7408 278.93 29.6268C278.719 29.1638 278.127 28.9459 277.63 29.1489ZM276.547 33.2792C273.042 33.6177 269.796 35.1026 267.252 37.5308C265.499 39.2046 264.166 41.1912 263.366 43.3233L263.179 43.8213L262.601 43.4077C261.784 42.823 261.114 42.6163 260.035 42.6163C258.956 42.6163 258.287 42.823 257.466 43.4098C256.236 44.2895 255.697 45.3859 255.622 47.1623C255.569 48.3954 255.701 49.1198 256.131 49.9626L256.329 50.3501L255.831 50.4753C254.35 50.8478 252.52 52.349 251.773 53.8041C251.097 55.1213 251.005 55.5834 251.003 57.6925L251 59.5752L251.289 59.8234C251.693 60.1714 252.123 60.2102 255.14 60.1719C257.634 60.1401 257.819 60.1243 258.092 59.9204C258.639 59.5125 258.68 58.8269 258.186 58.3343C257.932 58.0797 257.93 58.0795 255.496 58.0795H253.061L253.062 57.3669C253.068 55.4073 253.859 53.8982 255.37 52.9634C256.295 52.3921 256.58 52.3492 259.779 52.3012L262.747 52.2565L262.941 52.9729C263.234 54.0543 263.688 55.1722 264.28 56.2719L264.812 57.2619L258.535 63.5559C253.787 68.3163 252.2 69.971 252.02 70.3469C250.909 72.6711 252.297 75.4312 254.826 75.9234C255.684 76.0905 256.46 75.9861 257.297 75.5909C257.885 75.3126 258.405 74.8399 261.494 71.7699C263.433 69.843 265.087 68.1382 265.169 67.9815C265.389 67.5627 265.353 67.2146 265.052 66.8572C264.738 66.4843 264.315 66.3646 263.884 66.5269C263.713 66.5914 261.973 68.2377 259.982 70.2179C256.864 73.3206 256.337 73.802 255.993 73.865C254.583 74.1235 253.446 72.9302 253.804 71.567C253.909 71.1667 254.596 70.4426 260.002 65.0344L266.081 58.952L266.995 59.8643C268.167 61.0347 269.612 62.0671 271.078 62.7823C273.323 63.8765 274.999 64.292 277.524 64.3795C279.539 64.4494 281.128 64.2259 282.952 63.6163C287.829 61.9858 291.73 57.8785 293.059 52.9729L293.253 52.2565L296.221 52.3012C299.42 52.3492 299.705 52.3921 300.63 52.9634C302.141 53.8982 302.932 55.4073 302.938 57.3669L302.939 58.0795H297.756H292.574L292.318 58.3343C291.825 58.827 291.866 59.5126 292.413 59.9204C292.697 60.1325 292.842 60.1388 298.112 60.1702C301.087 60.188 303.724 60.1731 303.972 60.1371C304.22 60.1012 304.553 59.96 304.711 59.8234L305 59.5752L304.997 57.6925C304.995 55.5834 304.903 55.1213 304.227 53.8041C303.48 52.349 301.65 50.8478 300.169 50.4753L299.671 50.3501L299.869 49.9626C300.299 49.1198 300.431 48.3954 300.378 47.1623C300.303 45.3859 299.764 44.2895 298.534 43.4098C297.713 42.823 297.044 42.6163 295.965 42.6163C294.886 42.6163 294.216 42.823 293.399 43.4077L292.821 43.8213L292.634 43.3233C291.834 41.1912 290.501 39.2046 288.748 37.5308C286.155 35.0562 282.992 33.6278 279.321 33.2736C278.131 33.1588 277.786 33.1595 276.547 33.2792ZM280.667 35.6058C287.876 37.027 292.667 44.1298 291.273 51.3284C290.225 56.7387 286.115 60.8866 280.642 62.0572C279.388 62.3254 276.612 62.3254 275.358 62.0572C265.43 59.9337 261.192 48.4775 267.382 40.5016C270.491 36.4967 275.612 34.6094 280.667 35.6058ZM276.732 37.5099C272.396 37.9589 268.585 41.0462 267.179 45.2476C265.328 50.7786 268.104 56.9469 273.486 59.265C275.101 59.9606 275.993 60.1318 278 60.1318C279.439 60.1318 279.903 60.0918 280.654 59.9027C287.142 58.2702 290.914 51.5026 288.821 45.2476C287.631 41.6898 284.734 38.9155 281.114 37.8663C280.38 37.6532 278.29 37.3614 277.797 37.4028C277.705 37.4105 277.226 37.4587 276.732 37.5099ZM280.198 39.8221C283.395 40.5669 285.937 43.0196 286.947 46.3314C287.198 47.1554 287.229 47.4301 287.229 48.7898C287.227 50.4844 287.062 51.3195 286.471 52.6217C286.14 53.3508 285.427 54.4939 285.308 54.4853C285.27 54.4826 285.072 54.2431 284.869 53.9529C284.282 53.1151 282.947 52.0058 281.878 51.4656L281.264 51.1558L281.466 50.8964C282.05 50.1487 282.33 49.1928 282.331 47.9411C282.334 45.8542 281.472 44.3682 279.796 43.5735C279.164 43.2736 279.021 43.2476 278 43.2476C276.979 43.2476 276.836 43.2736 276.204 43.5735C274.528 44.3682 273.666 45.8542 273.669 47.9411C273.67 49.1928 273.95 50.1487 274.534 50.8964L274.736 51.1558L274.122 51.4656C273.053 52.0058 271.718 53.1151 271.131 53.9529C270.928 54.2431 270.73 54.4826 270.692 54.4853C270.573 54.4939 269.86 53.3508 269.529 52.6217C268.938 51.3195 268.773 50.4844 268.771 48.7898C268.771 47.4301 268.802 47.1554 269.053 46.3314C270.551 41.4182 275.256 38.6704 280.198 39.8221ZM261.059 44.9402C261.983 45.4002 262.36 46.1313 262.36 47.4651C262.36 48.2215 262.319 48.4218 262.065 48.908C261.638 49.7237 260.987 50.1094 260.035 50.1094C259.078 50.1094 258.433 49.7249 257.997 48.8938C257.714 48.3534 257.696 48.2472 257.728 47.3031C257.76 46.3943 257.796 46.2394 258.082 45.7772C258.716 44.7538 259.974 44.4 261.059 44.9402ZM297.194 45.0501C297.97 45.5294 298.29 46.2202 298.29 47.4175C298.29 48.2261 298.252 48.415 297.994 48.908C297.568 49.7237 296.916 50.1094 295.965 50.1094C295.013 50.1094 294.362 49.7237 293.935 48.908C293.681 48.4218 293.64 48.2215 293.64 47.4651C293.64 46.982 293.69 46.4529 293.752 46.2895C294.3 44.8279 295.901 44.2516 297.194 45.0501ZM278.78 45.407C279.231 45.5784 279.881 46.247 280.066 46.7297C280.194 47.0654 280.231 47.4297 280.204 48.0773C280.172 48.8432 280.123 49.0355 279.848 49.4786C279.628 49.8343 279.377 50.0708 279.033 50.2477C277.987 50.7857 276.758 50.4576 276.152 49.4786C275.877 49.0355 275.828 48.8432 275.796 48.0773C275.74 46.7528 276.13 45.9747 277.102 45.4716C277.456 45.2881 278.374 45.2527 278.78 45.407ZM279.395 52.8132C280.029 52.9462 281.348 53.523 281.78 53.8566C282.379 54.3179 283.209 55.1931 283.469 55.6349L283.738 56.0934L283.432 56.3455C282.944 56.7467 281.08 57.6238 280.272 57.8322C279.724 57.9735 279.135 58.023 278 58.023C276.865 58.023 276.276 57.9735 275.728 57.8322C274.92 57.6238 273.056 56.7467 272.568 56.3455L272.262 56.0934L272.531 55.6349C272.79 55.1943 273.621 54.3179 274.215 53.8599C274.625 53.5443 275.841 52.9939 276.463 52.8431C277.146 52.6773 278.673 52.6617 279.395 52.8132ZM266.828 63.6442C266.464 63.7126 266.059 64.2653 266.059 64.6935C266.059 65.5078 267.149 66.0053 267.736 65.4589C268.555 64.697 267.925 63.4383 266.828 63.6442Z" fill="#E49B00"/>
<path fill-rule="evenodd" clip-rule="evenodd" d="M503.346 20.12C495.558 20.8606 488.304 24.7534 483.418 30.815C474.897 41.3857 474.857 56.5019 483.321 67.079C485.041 69.2271 487.634 71.6134 489.886 73.1203C496.187 77.3351 503.857 78.8977 511.395 77.5021C519.054 76.0838 525.78 71.6093 530.214 64.9825C531.186 63.5292 532.648 60.6392 533.273 58.9358C535.456 52.9795 535.574 46.1503 533.601 40.0265C532.694 37.2131 530.454 32.8607 529.707 32.4609C529.32 32.2541 528.717 32.3255 528.376 32.6183C528.115 32.8427 528.059 32.9802 528.066 33.3833C528.072 33.7815 528.197 34.0683 528.728 34.8947C531.098 38.5866 532.538 43.3064 532.722 47.9837C533.215 60.5385 524.785 71.8318 512.625 74.9071C510.232 75.5122 508.78 75.6828 506.01 75.6839C503.262 75.6851 501.846 75.5167 499.373 74.8946C489.99 72.5344 482.505 65.0558 480.113 55.6494C479.494 53.2119 479.322 51.7681 479.322 49.0037C479.322 46.2392 479.494 44.7955 480.113 42.3579C482.862 31.5483 492.1 23.602 503.346 22.3724C505.826 22.1012 509.273 22.3094 511.824 22.8842C514.719 23.5365 518.071 24.9395 520.463 26.5001C521.747 27.3381 522.212 27.4386 522.728 26.9903C523.114 26.6546 523.226 25.9963 522.964 25.5968C522.599 25.0399 519.966 23.474 517.675 22.4522C513.329 20.5129 508.124 19.6658 503.346 20.12ZM503.46 25.5077C495.258 26.515 488.359 31.3694 484.803 38.6344C483.143 42.025 482.431 45.1489 482.433 49.0359C482.433 52.1561 482.91 54.7707 483.974 57.4977C487.112 65.5372 494.297 71.2206 502.812 72.3984C504.473 72.6281 507.543 72.6284 509.209 72.3992C512.727 71.9147 516.007 70.6857 518.933 68.755C524.798 64.8845 528.619 58.738 529.474 51.795C529.542 51.2423 529.598 49.9862 529.598 49.0037C529.598 45.2273 528.877 42.0508 527.27 38.7477C523.733 31.4765 516.846 26.5433 508.847 25.5511C507.96 25.4412 504.245 25.4113 503.46 25.5077ZM509.354 27.9225C511.663 28.3025 513.494 28.8923 515.532 29.9121C521.004 32.6505 524.997 37.5177 526.638 43.4507C527.567 46.8083 527.567 51.199 526.638 54.5566C524.356 62.8054 517.482 68.8951 509.056 70.1319C507.486 70.3625 504.535 70.3625 502.964 70.1319C493.598 68.757 486.251 61.4122 484.876 52.0489C484.645 50.4788 484.645 47.5285 484.876 45.9584C486.247 36.6288 493.541 29.3079 502.893 27.8767C504.496 27.6313 507.724 27.6542 509.354 27.9225ZM525.293 28.5367C524.624 28.9073 524.536 29.6961 525.099 30.2597C525.665 30.8253 526.473 30.7324 526.82 30.0619C527.349 29.0393 526.292 27.9833 525.293 28.5367ZM505.456 30.1232C505.032 30.3579 504.885 30.744 504.881 31.6313C504.876 32.5776 505.023 32.9777 505.46 33.2033C506.047 33.5067 506.757 33.2964 507.008 32.7447C507.083 32.5813 507.144 32.0953 507.144 31.6649C507.144 30.7495 506.992 30.3497 506.561 30.1265C506.175 29.9275 505.811 29.9264 505.456 30.1232ZM496.646 32.4516C496.303 32.5963 495.921 33.1214 495.921 33.4492C495.921 33.8384 496.571 35.0186 496.969 35.3538C497.151 35.5064 497.425 35.6313 497.579 35.6313C498.208 35.6313 498.755 35.0955 498.755 34.4803C498.755 34.1779 498.127 32.9998 497.804 32.6964C497.51 32.4205 496.983 32.3092 496.646 32.4516ZM514.552 32.453C514.121 32.6344 513.265 33.9883 513.265 34.4882C513.265 35.0956 513.816 35.6313 514.441 35.6313C514.846 35.6313 515.328 35.1751 515.74 34.403C516.18 33.5769 516.19 33.242 515.787 32.7996C515.452 32.4313 514.943 32.2886 514.552 32.453ZM505.456 36.0162C504.895 36.3268 504.885 36.4142 504.88 40.9576L504.876 45.2073L504.372 45.4143C503.596 45.7333 502.894 46.4228 502.472 47.2791C502.139 47.9554 502.099 48.1383 502.099 49.0037C502.099 49.8674 502.139 50.0526 502.469 50.722C503.346 52.5034 505.382 53.3814 507.2 52.763L507.881 52.5317L509.864 54.4908C511.09 55.701 511.956 56.4699 512.131 56.5021C512.806 56.6261 513.437 56.2236 513.496 55.6332C513.561 54.9679 513.478 54.8515 511.515 52.8696L509.539 50.8735L509.771 50.1936C510.393 48.3644 509.403 46.1359 507.648 45.4143L507.145 45.2073L507.144 40.9912C507.144 37.9647 507.106 36.6913 507.008 36.4781C506.76 35.9334 506.009 35.7098 505.456 36.0162ZM489.776 39.2461C489.307 39.6655 489.261 40.334 489.671 40.7707C490.002 41.1229 491.17 41.7509 491.494 41.7509C491.875 41.7509 492.35 41.4578 492.499 41.1307C492.827 40.4094 492.505 39.8624 491.405 39.2766C490.571 38.8318 490.247 38.8258 489.776 39.2461ZM520.633 39.2608C519.88 39.6702 519.386 40.1836 519.386 40.5574C519.386 41.1986 519.914 41.7509 520.527 41.7509C520.851 41.7509 522.018 41.1229 522.349 40.7707C522.76 40.334 522.714 39.6655 522.244 39.2461C521.776 38.8282 521.423 38.8314 520.633 39.2608ZM506.807 47.5319C507.31 47.7885 507.711 48.4413 507.711 49.0037C507.711 49.8698 506.872 50.7035 506.002 50.7035C505.188 50.7035 504.31 49.8256 504.31 49.0121C504.31 48.4595 504.708 47.7915 505.19 47.5375C505.737 47.2488 506.248 47.2471 506.807 47.5319ZM487.546 48.0286C487.009 48.3258 486.83 48.9787 487.128 49.5539C487.351 49.9854 487.751 50.1369 488.667 50.1369C489.582 50.1369 489.982 49.9854 490.205 49.5539C490.506 48.9722 490.323 48.3107 489.784 48.0319C489.386 47.8262 487.915 47.8241 487.546 48.0286ZM522.233 48.0286C521.696 48.3258 521.517 48.9787 521.815 49.5539C522.038 49.9854 522.438 50.1369 523.354 50.1369C524.269 50.1369 524.669 49.9854 524.893 49.5539C525.193 48.9722 525.01 48.3107 524.471 48.0319C524.073 47.8262 522.602 47.8241 522.233 48.0286ZM490.594 56.6029C489.671 57.1095 489.409 57.4118 489.409 57.9679C489.409 58.3491 489.475 58.4919 489.776 58.7612C490.247 59.1815 490.571 59.1755 491.405 58.7307C492.171 58.3228 492.634 57.8374 492.634 57.443C492.634 56.8006 492.1 56.2536 491.478 56.2585C491.335 56.2597 490.937 56.4147 490.594 56.6029ZM519.966 56.4147C519.363 56.7482 519.221 57.5162 519.664 58.0421C520.004 58.4466 521.182 59.0896 521.582 59.0896C521.747 59.0896 522.039 58.9447 522.244 58.7612C522.544 58.4934 522.612 58.3483 522.612 57.9744C522.612 57.4076 522.338 57.0913 521.429 56.607C520.715 56.2263 520.384 56.1828 519.966 56.4147ZM496.969 62.6536C496.565 62.994 495.921 64.1712 495.921 64.5716C495.921 64.7359 496.066 65.0278 496.25 65.2331C496.669 65.7025 497.338 65.7486 497.775 65.3384C498.122 65.0127 498.755 63.842 498.755 63.5271C498.755 62.9118 498.208 62.376 497.579 62.376C497.425 62.376 497.151 62.5009 496.969 62.6536ZM513.844 62.5342C513.521 62.7133 513.275 63.1243 513.269 63.4934C513.264 63.8327 513.878 64.9936 514.245 65.3384C514.682 65.7486 515.351 65.7025 515.77 65.2331C516.191 64.7627 516.185 64.4388 515.74 63.6044C515.149 62.4967 514.536 62.1506 513.844 62.5342ZM505.456 64.8007C505.032 65.0354 504.885 65.4215 504.881 66.3088C504.876 67.2551 505.023 67.6552 505.46 67.8808C506.047 68.1842 506.757 67.9738 507.008 67.4222C507.083 67.2588 507.144 66.7728 507.144 66.3424C507.144 65.427 506.992 65.0272 506.561 64.804C506.175 64.605 505.811 64.6039 505.456 64.8007Z" fill="#E49B00"/>
</svg>
