<svg width="317" height="361" viewBox="0 0 317 361" fill="none" xmlns="http://www.w3.org/2000/svg">
<path d="M99.5105 37V25.752H101.638V37H99.5105ZM96.7265 27.64V25.752H101.414V27.64H96.7265ZM96.7265 37V35.112H103.894V37H96.7265ZM107.316 37.16C106.932 37.16 106.617 37.032 106.372 36.776C106.127 36.52 106.004 36.2053 106.004 35.832C106.004 35.4587 106.127 35.144 106.372 34.888C106.617 34.632 106.932 34.504 107.316 34.504C107.689 34.504 107.999 34.632 108.244 34.888C108.489 35.144 108.612 35.4587 108.612 35.832C108.612 36.2053 108.489 36.52 108.244 36.776C107.999 37.032 107.689 37.16 107.316 37.16ZM117.752 32.296V30.6L120.36 30.6C120.893 30.6 121.304 30.4667 121.592 30.2C121.891 29.9227 122.04 29.544 122.04 29.064C122.04 28.6267 121.891 28.264 121.592 27.976C121.304 27.6773 120.893 27.528 120.36 27.528H117.752V25.752H120.552C121.277 25.752 121.912 25.896 122.456 26.184C123.011 26.4613 123.437 26.8453 123.736 27.336C124.045 27.8267 124.2 28.392 124.2 29.032C124.2 29.6933 124.045 30.2693 123.736 30.76C123.437 31.24 123.011 31.6187 122.456 31.896C121.901 32.1627 121.256 32.296 120.52 32.296L117.752 32.296ZM116.152 37V25.752H118.328V37H116.152ZM122.296 37L118.584 32.136L120.584 31.512L124.936 37L122.296 37ZM129.421 37.16C128.61 37.16 127.89 36.9893 127.261 36.648C126.632 36.296 126.13 35.816 125.757 35.208C125.394 34.6 125.213 33.9067 125.213 33.128C125.213 32.36 125.389 31.6773 125.741 31.08C126.104 30.472 126.594 29.992 127.213 29.64C127.832 29.2773 128.52 29.096 129.277 29.096C130.024 29.096 130.68 29.2667 131.245 29.608C131.821 29.9387 132.269 30.3973 132.589 30.984C132.92 31.56 133.085 32.216 133.085 32.952C133.085 33.0907 133.074 33.2347 133.053 33.384C133.042 33.5227 133.016 33.6827 132.973 33.864L126.477 33.88V32.312L131.997 32.296L131.149 32.952C131.128 32.4933 131.042 32.1093 130.893 31.8C130.754 31.4907 130.546 31.256 130.269 31.096C130.002 30.9253 129.672 30.84 129.277 30.84C128.861 30.84 128.498 30.936 128.189 31.128C127.88 31.3093 127.64 31.5707 127.469 31.912C127.309 32.2427 127.229 32.6373 127.229 33.096C127.229 33.5653 127.314 33.976 127.485 34.328C127.666 34.6693 127.922 34.936 128.253 35.128C128.584 35.3093 128.968 35.4 129.405 35.4C129.8 35.4 130.157 35.336 130.477 35.208C130.797 35.0693 131.074 34.8667 131.309 34.6L132.541 35.832C132.168 36.2693 131.709 36.6 131.165 36.824C130.632 37.048 130.05 37.16 129.421 37.16ZM136.768 37L133.36 29.272H135.664L138.112 35.64H136.976L139.44 29.272H141.664L138.272 37H136.768ZM142.631 37V29.272H144.743V37H142.631ZM143.687 28.024C143.346 28.024 143.063 27.912 142.839 27.688C142.615 27.4533 142.503 27.1653 142.503 26.824C142.503 26.4933 142.615 26.2107 142.839 25.976C143.063 25.7413 143.346 25.624 143.687 25.624C144.039 25.624 144.322 25.7413 144.535 25.976C144.759 26.2107 144.871 26.4933 144.871 26.824C144.871 27.1653 144.759 27.4533 144.535 27.688C144.322 27.912 144.039 28.024 143.687 28.024ZM150.296 37.16C149.485 37.16 148.765 36.9893 148.136 36.648C147.507 36.296 147.005 35.816 146.632 35.208C146.269 34.6 146.088 33.9067 146.088 33.128C146.088 32.36 146.264 31.6773 146.616 31.08C146.979 30.472 147.469 29.992 148.088 29.64C148.707 29.2773 149.395 29.096 150.152 29.096C150.899 29.096 151.555 29.2667 152.12 29.608C152.696 29.9387 153.144 30.3973 153.464 30.984C153.795 31.56 153.96 32.216 153.96 32.952C153.96 33.0907 153.949 33.2347 153.928 33.384C153.917 33.5227 153.891 33.6827 153.848 33.864L147.352 33.88V32.312L152.872 32.296L152.024 32.952C152.003 32.4933 151.917 32.1093 151.768 31.8C151.629 31.4907 151.421 31.256 151.144 31.096C150.877 30.9253 150.547 30.84 150.152 30.84C149.736 30.84 149.373 30.936 149.064 31.128C148.755 31.3093 148.515 31.5707 148.344 31.912C148.184 32.2427 148.104 32.6373 148.104 33.096C148.104 33.5653 148.189 33.976 148.36 34.328C148.541 34.6693 148.797 34.936 149.128 35.128C149.459 35.3093 149.843 35.4 150.28 35.4C150.675 35.4 151.032 35.336 151.352 35.208C151.672 35.0693 151.949 34.8667 152.184 34.6L153.416 35.832C153.043 36.2693 152.584 36.6 152.04 36.824C151.507 37.048 150.925 37.16 150.296 37.16ZM157.226 37L154.33 29.272H156.442L158.33 34.888L157.69 34.904L159.626 29.272H161.146L163.082 34.904L162.442 34.888L164.33 29.272H166.442L163.562 37H162.042L160.09 31.656H160.682L158.73 37H157.226ZM172.408 32.824V31.048H175.016C175.358 31.048 175.667 30.9787 175.944 30.84C176.222 30.7013 176.44 30.504 176.6 30.248C176.76 29.9813 176.84 29.6613 176.84 29.288C176.84 28.9253 176.76 28.6107 176.6 28.344C176.44 28.0773 176.222 27.8747 175.944 27.736C175.667 27.5973 175.358 27.528 175.016 27.528H172.408V25.752H175.24C175.955 25.752 176.595 25.896 177.16 26.184C177.736 26.472 178.19 26.8827 178.52 27.416C178.851 27.9387 179.016 28.5627 179.016 29.288C179.016 30.0133 178.851 30.6427 178.52 31.176C178.19 31.6987 177.736 32.104 177.16 32.392C176.595 32.68 175.955 32.824 175.24 32.824H172.408ZM170.808 37V25.752H172.984V37H170.808ZM180.444 37V29.272H182.54V37H180.444ZM182.54 32.728L181.724 32.184C181.82 31.2347 182.097 30.488 182.556 29.944C183.014 29.3893 183.676 29.112 184.54 29.112C184.913 29.112 185.249 29.176 185.548 29.304C185.846 29.4213 186.118 29.6187 186.364 29.896L185.052 31.4C184.934 31.272 184.79 31.176 184.62 31.112C184.46 31.048 184.273 31.016 184.06 31.016C183.612 31.016 183.244 31.16 182.956 31.448C182.678 31.7253 182.54 32.152 182.54 32.728ZM190.513 37.16C189.734 37.16 189.03 36.984 188.401 36.632C187.782 36.2693 187.286 35.784 186.913 35.176C186.55 34.5573 186.369 33.8693 186.369 33.112C186.369 32.3547 186.55 31.6773 186.913 31.08C187.276 30.472 187.772 29.992 188.401 29.64C189.03 29.2773 189.729 29.096 190.497 29.096C191.286 29.096 191.99 29.2773 192.609 29.64C193.238 29.992 193.734 30.472 194.097 31.08C194.46 31.6773 194.641 32.3547 194.641 33.112C194.641 33.8693 194.46 34.5573 194.097 35.176C193.734 35.784 193.238 36.2693 192.609 36.632C191.99 36.984 191.292 37.16 190.513 37.16ZM190.497 35.208C190.892 35.208 191.238 35.1227 191.537 34.952C191.846 34.7707 192.081 34.5253 192.241 34.216C192.412 33.896 192.497 33.5333 192.497 33.128C192.497 32.7227 192.412 32.3653 192.241 32.056C192.07 31.7467 191.836 31.5067 191.537 31.336C191.238 31.1547 190.892 31.064 190.497 31.064C190.113 31.064 189.772 31.1547 189.473 31.336C189.174 31.5067 188.94 31.7467 188.769 32.056C188.598 32.3653 188.513 32.7227 188.513 33.128C188.513 33.5333 188.598 33.896 188.769 34.216C188.94 34.5253 189.174 34.7707 189.473 34.952C189.772 35.1227 190.113 35.208 190.497 35.208ZM196.827 37V28.2C196.827 27.6453 196.95 27.1493 197.195 26.712C197.44 26.264 197.782 25.912 198.219 25.656C198.667 25.3893 199.195 25.256 199.803 25.256C200.187 25.256 200.528 25.3147 200.827 25.432C201.136 25.5493 201.43 25.72 201.707 25.944L200.507 27.416C200.411 27.3413 200.304 27.288 200.187 27.256C200.08 27.2133 199.952 27.192 199.803 27.192C199.526 27.192 199.307 27.2773 199.147 27.448C198.998 27.608 198.923 27.832 198.923 28.12V37H196.827ZM195.035 31.112V29.272L202.699 29.272V31.112L195.035 31.112ZM201.691 37V29.272H203.787V37H201.691ZM202.731 28.648C202.4 28.648 202.123 28.536 201.899 28.312C201.686 28.088 201.579 27.8107 201.579 27.48C201.579 27.1493 201.686 26.872 201.899 26.648C202.123 26.424 202.4 26.312 202.731 26.312C203.072 26.312 203.35 26.424 203.563 26.648C203.776 26.872 203.883 27.1493 203.883 27.48C203.883 27.8107 203.776 28.088 203.563 28.312C203.35 28.536 203.072 28.648 202.731 28.648ZM205.647 37V25.432H207.743V37H205.647ZM213.296 37.16C212.485 37.16 211.765 36.9893 211.136 36.648C210.507 36.296 210.005 35.816 209.632 35.208C209.269 34.6 209.088 33.9067 209.088 33.128C209.088 32.36 209.264 31.6773 209.616 31.08C209.979 30.472 210.469 29.992 211.088 29.64C211.707 29.2773 212.395 29.096 213.152 29.096C213.899 29.096 214.555 29.2667 215.12 29.608C215.696 29.9387 216.144 30.3973 216.464 30.984C216.795 31.56 216.96 32.216 216.96 32.952C216.96 33.0907 216.949 33.2347 216.928 33.384C216.917 33.5227 216.891 33.6827 216.848 33.864L210.352 33.88V32.312L215.872 32.296L215.024 32.952C215.003 32.4933 214.917 32.1093 214.768 31.8C214.629 31.4907 214.421 31.256 214.144 31.096C213.877 30.9253 213.547 30.84 213.152 30.84C212.736 30.84 212.373 30.936 212.064 31.128C211.755 31.3093 211.515 31.5707 211.344 31.912C211.184 32.2427 211.104 32.6373 211.104 33.096C211.104 33.5653 211.189 33.976 211.36 34.328C211.541 34.6693 211.797 34.936 212.128 35.128C212.459 35.3093 212.843 35.4 213.28 35.4C213.675 35.4 214.032 35.336 214.352 35.208C214.672 35.0693 214.949 34.8667 215.184 34.6L216.416 35.832C216.043 36.2693 215.584 36.6 215.04 36.824C214.507 37.048 213.925 37.16 213.296 37.16Z" fill="white" fill-opacity="0.8"/>
<path d="M91.416 128.752L95.656 124.32C95.9547 124 96.1947 123.717 96.376 123.472C96.568 123.216 96.7067 122.976 96.792 122.752C96.8773 122.517 96.92 122.283 96.92 122.048C96.92 121.579 96.7653 121.211 96.456 120.944C96.1573 120.677 95.768 120.544 95.288 120.544C94.7973 120.544 94.36 120.672 93.976 120.928C93.6027 121.184 93.2507 121.589 92.92 122.144L91.432 120.88C91.88 120.123 92.4347 119.552 93.096 119.168C93.768 118.773 94.536 118.576 95.4 118.576C96.136 118.576 96.776 118.72 97.32 119.008C97.8747 119.296 98.3013 119.696 98.6 120.208C98.8987 120.72 99.048 121.317 99.048 122C99.048 122.459 98.9893 122.875 98.872 123.248C98.7653 123.621 98.5787 123.995 98.312 124.368C98.056 124.731 97.6987 125.141 97.24 125.6L94.152 128.752H91.416ZM91.416 130V128.752L93.272 128.112H99.288V130H91.416ZM102.212 130.16C101.828 130.16 101.513 130.032 101.268 129.776C101.022 129.52 100.9 129.205 100.9 128.832C100.9 128.459 101.022 128.144 101.268 127.888C101.513 127.632 101.828 127.504 102.212 127.504C102.585 127.504 102.894 127.632 103.14 127.888C103.385 128.144 103.508 128.459 103.508 128.832C103.508 129.205 103.385 129.52 103.14 129.776C102.894 130.032 102.585 130.16 102.212 130.16ZM108.84 130V118.752H110.376L114.936 126.048H114.056L118.6 118.752H120.136V130H117.976V122.48L118.392 122.608L115.224 127.696H113.752L110.584 122.608L111.016 122.48V130H108.84ZM125.905 130.16C125.095 130.16 124.375 129.989 123.745 129.648C123.116 129.296 122.615 128.816 122.241 128.208C121.879 127.6 121.697 126.907 121.697 126.128C121.697 125.36 121.873 124.677 122.225 124.08C122.588 123.472 123.079 122.992 123.697 122.64C124.316 122.277 125.004 122.096 125.761 122.096C126.508 122.096 127.164 122.267 127.729 122.608C128.305 122.939 128.753 123.397 129.073 123.984C129.404 124.56 129.569 125.216 129.569 125.952C129.569 126.091 129.559 126.235 129.537 126.384C129.527 126.523 129.5 126.683 129.457 126.864L122.961 126.88V125.312L128.481 125.296L127.633 125.952C127.612 125.493 127.527 125.109 127.377 124.8C127.239 124.491 127.031 124.256 126.753 124.096C126.487 123.925 126.156 123.84 125.761 123.84C125.345 123.84 124.983 123.936 124.673 124.128C124.364 124.309 124.124 124.571 123.953 124.912C123.793 125.243 123.713 125.637 123.713 126.096C123.713 126.565 123.799 126.976 123.969 127.328C124.151 127.669 124.407 127.936 124.737 128.128C125.068 128.309 125.452 128.4 125.889 128.4C126.284 128.4 126.641 128.336 126.961 128.208C127.281 128.069 127.559 127.867 127.793 127.6L129.025 128.832C128.652 129.269 128.193 129.6 127.649 129.824C127.116 130.048 126.535 130.16 125.905 130.16ZM134.562 130.16C133.751 130.16 133.031 129.989 132.402 129.648C131.772 129.296 131.271 128.816 130.898 128.208C130.535 127.6 130.354 126.907 130.354 126.128C130.354 125.36 130.53 124.677 130.882 124.08C131.244 123.472 131.735 122.992 132.354 122.64C132.972 122.277 133.66 122.096 134.418 122.096C135.164 122.096 135.82 122.267 136.386 122.608C136.962 122.939 137.41 123.397 137.73 123.984C138.06 124.56 138.226 125.216 138.226 125.952C138.226 126.091 138.215 126.235 138.194 126.384C138.183 126.523 138.156 126.683 138.114 126.864L131.618 126.88V125.312L137.138 125.296L136.29 125.952C136.268 125.493 136.183 125.109 136.034 124.8C135.895 124.491 135.687 124.256 135.41 124.096C135.143 123.925 134.812 123.84 134.418 123.84C134.002 123.84 133.639 123.936 133.33 124.128C133.02 124.309 132.78 124.571 132.61 124.912C132.45 125.243 132.37 125.637 132.37 126.096C132.37 126.565 132.455 126.976 132.626 127.328C132.807 127.669 133.063 127.936 133.394 128.128C133.724 128.309 134.108 128.4 134.546 128.4C134.94 128.4 135.298 128.336 135.618 128.208C135.938 128.069 136.215 127.867 136.45 127.6L137.682 128.832C137.308 129.269 136.85 129.6 136.306 129.824C135.772 130.048 135.191 130.16 134.562 130.16ZM140.486 130V119.056H142.582V130H140.486ZM138.678 124.112V122.272L144.39 122.272V124.112L138.678 124.112ZM149.83 130V119.056H151.926V130H149.83ZM148.022 124.112V122.272H153.734V124.112H148.022ZM160.112 130V125.568C160.112 125.109 159.968 124.736 159.68 124.448C159.392 124.16 159.019 124.016 158.56 124.016C158.262 124.016 157.995 124.08 157.76 124.208C157.526 124.336 157.339 124.517 157.2 124.752C157.072 124.987 157.008 125.259 157.008 125.568L156.192 125.152C156.192 124.544 156.32 124.016 156.576 123.568C156.832 123.109 157.184 122.752 157.632 122.496C158.091 122.24 158.614 122.112 159.2 122.112C159.787 122.112 160.304 122.24 160.752 122.496C161.211 122.752 161.568 123.104 161.824 123.552C162.08 124 162.208 124.517 162.208 125.104V130H160.112ZM154.912 130V118.432H157.008V130H154.912ZM167.593 130.16C166.782 130.16 166.062 129.989 165.433 129.648C164.803 129.296 164.302 128.816 163.929 128.208C163.566 127.6 163.385 126.907 163.385 126.128C163.385 125.36 163.561 124.677 163.913 124.08C164.275 123.472 164.766 122.992 165.385 122.64C166.003 122.277 166.691 122.096 167.449 122.096C168.195 122.096 168.851 122.267 169.417 122.608C169.993 122.939 170.441 123.397 170.761 123.984C171.091 124.56 171.257 125.216 171.257 125.952C171.257 126.091 171.246 126.235 171.225 126.384C171.214 126.523 171.187 126.683 171.145 126.864L164.649 126.88V125.312L170.169 125.296L169.321 125.952C169.299 125.493 169.214 125.109 169.065 124.8C168.926 124.491 168.718 124.256 168.441 124.096C168.174 123.925 167.843 123.84 167.449 123.84C167.033 123.84 166.67 123.936 166.361 124.128C166.051 124.309 165.811 124.571 165.641 124.912C165.481 125.243 165.401 125.637 165.401 126.096C165.401 126.565 165.486 126.976 165.657 127.328C165.838 127.669 166.094 127.936 166.425 128.128C166.755 128.309 167.139 128.4 167.577 128.4C167.971 128.4 168.329 128.336 168.649 128.208C168.969 128.069 169.246 127.867 169.481 127.6L170.713 128.832C170.339 129.269 169.881 129.6 169.337 129.824C168.803 130.048 168.222 130.16 167.593 130.16ZM181.118 130.16C180.297 130.16 179.534 130.016 178.83 129.728C178.126 129.429 177.507 129.019 176.974 128.496C176.451 127.963 176.046 127.344 175.758 126.64C175.481 125.936 175.342 125.179 175.342 124.368C175.342 123.557 175.481 122.8 175.758 122.096C176.046 121.392 176.451 120.779 176.974 120.256C177.507 119.733 178.121 119.323 178.814 119.024C179.518 118.725 180.286 118.576 181.118 118.576C182.014 118.576 182.803 118.725 183.486 119.024C184.169 119.312 184.771 119.712 185.294 120.224L183.822 121.696C183.513 121.355 183.134 121.088 182.686 120.896C182.238 120.704 181.715 120.608 181.118 120.608C180.595 120.608 180.115 120.699 179.678 120.88C179.251 121.051 178.878 121.307 178.558 121.648C178.238 121.979 177.993 122.379 177.822 122.848C177.651 123.307 177.566 123.813 177.566 124.368C177.566 124.933 177.651 125.445 177.822 125.904C177.993 126.363 178.238 126.763 178.558 127.104C178.878 127.435 179.251 127.691 179.678 127.872C180.115 128.053 180.595 128.144 181.118 128.144C181.747 128.144 182.286 128.048 182.734 127.856C183.193 127.664 183.577 127.392 183.886 127.04L185.358 128.512C184.835 129.035 184.227 129.44 183.534 129.728C182.841 130.016 182.035 130.16 181.118 130.16ZM189.691 130.16C188.987 130.16 188.353 129.984 187.787 129.632C187.222 129.28 186.779 128.8 186.459 128.192C186.139 127.584 185.979 126.901 185.979 126.144C185.979 125.376 186.139 124.688 186.459 124.08C186.779 123.472 187.222 122.992 187.787 122.64C188.353 122.288 188.987 122.112 189.691 122.112C190.246 122.112 190.742 122.224 191.179 122.448C191.617 122.672 191.963 122.987 192.219 123.392C192.486 123.787 192.63 124.235 192.651 124.736V127.52C192.63 128.032 192.486 128.485 192.219 128.88C191.963 129.275 191.617 129.589 191.179 129.824C190.742 130.048 190.246 130.16 189.691 130.16ZM190.075 128.224C190.662 128.224 191.137 128.032 191.499 127.648C191.862 127.253 192.043 126.747 192.043 126.128C192.043 125.723 191.958 125.365 191.787 125.056C191.627 124.736 191.398 124.491 191.099 124.32C190.811 124.139 190.47 124.048 190.075 124.048C189.691 124.048 189.35 124.139 189.051 124.32C188.763 124.491 188.534 124.736 188.363 125.056C188.203 125.365 188.123 125.723 188.123 126.128C188.123 126.544 188.203 126.912 188.363 127.232C188.534 127.541 188.763 127.787 189.051 127.968C189.35 128.139 189.691 128.224 190.075 128.224ZM191.931 130V127.92L192.267 126.032L191.931 124.176V122.272H194.011V130H191.931ZM201.066 130V125.568C201.066 125.109 200.922 124.736 200.634 124.448C200.346 124.16 199.972 124.016 199.514 124.016C199.215 124.016 198.948 124.08 198.714 124.208C198.479 124.336 198.292 124.517 198.154 124.752C198.026 124.987 197.962 125.259 197.962 125.568L197.146 125.152C197.146 124.544 197.274 124.016 197.53 123.568C197.796 123.109 198.159 122.752 198.618 122.496C199.087 122.24 199.615 122.112 200.202 122.112C200.767 122.112 201.274 122.256 201.722 122.544C202.17 122.821 202.522 123.189 202.778 123.648C203.034 124.096 203.161 124.581 203.161 125.104V130H201.066ZM195.866 130V122.272H197.962V130H195.866ZM208.114 130.16C207.399 130.16 206.759 129.984 206.194 129.632C205.629 129.28 205.181 128.8 204.85 128.192C204.53 127.584 204.37 126.901 204.37 126.144C204.37 125.376 204.53 124.688 204.85 124.08C205.181 123.472 205.623 122.992 206.178 122.64C206.743 122.288 207.389 122.112 208.114 122.112C208.669 122.112 209.165 122.224 209.602 122.448C210.05 122.672 210.407 122.987 210.674 123.392C210.951 123.787 211.101 124.235 211.122 124.736V127.488C211.101 127.989 210.957 128.443 210.69 128.848C210.423 129.253 210.066 129.573 209.618 129.808C209.17 130.043 208.669 130.16 208.114 130.16ZM208.466 128.224C208.861 128.224 209.202 128.139 209.49 127.968C209.789 127.787 210.018 127.541 210.178 127.232C210.349 126.912 210.434 126.544 210.434 126.128C210.434 125.723 210.349 125.365 210.178 125.056C210.018 124.736 209.789 124.491 209.49 124.32C209.202 124.139 208.866 124.048 208.482 124.048C208.087 124.048 207.741 124.139 207.442 124.32C207.154 124.501 206.925 124.747 206.754 125.056C206.594 125.365 206.514 125.723 206.514 126.128C206.514 126.544 206.594 126.912 206.754 127.232C206.925 127.541 207.159 127.787 207.458 127.968C207.757 128.139 208.093 128.224 208.466 128.224ZM212.402 130H210.322V127.92L210.658 126.032L210.306 124.176V118.432H212.402V130ZM214.256 130V122.272H216.368V130H214.256ZM215.312 121.024C214.971 121.024 214.688 120.912 214.464 120.688C214.24 120.453 214.128 120.165 214.128 119.824C214.128 119.493 214.24 119.211 214.464 118.976C214.688 118.741 214.971 118.624 215.312 118.624C215.664 118.624 215.947 118.741 216.16 118.976C216.384 119.211 216.496 119.493 216.496 119.824C216.496 120.165 216.384 120.453 216.16 120.688C215.947 120.912 215.664 121.024 215.312 121.024ZM221.489 130.16C220.774 130.16 220.134 129.984 219.569 129.632C219.004 129.28 218.556 128.8 218.225 128.192C217.905 127.584 217.745 126.901 217.745 126.144C217.745 125.376 217.905 124.688 218.225 124.08C218.556 123.472 218.998 122.992 219.553 122.64C220.118 122.288 220.764 122.112 221.489 122.112C222.044 122.112 222.54 122.224 222.977 122.448C223.425 122.672 223.782 122.987 224.049 123.392C224.326 123.787 224.476 124.235 224.497 124.736V127.488C224.476 127.989 224.332 128.443 224.065 128.848C223.798 129.253 223.441 129.573 222.993 129.808C222.545 130.043 222.044 130.16 221.489 130.16ZM221.841 128.224C222.236 128.224 222.577 128.139 222.865 127.968C223.164 127.787 223.393 127.541 223.553 127.232C223.724 126.912 223.809 126.544 223.809 126.128C223.809 125.723 223.724 125.365 223.553 125.056C223.393 124.736 223.164 124.491 222.865 124.32C222.577 124.139 222.241 124.048 221.857 124.048C221.462 124.048 221.116 124.139 220.817 124.32C220.529 124.501 220.3 124.747 220.129 125.056C219.969 125.365 219.889 125.723 219.889 126.128C219.889 126.544 219.969 126.912 220.129 127.232C220.3 127.541 220.534 127.787 220.833 127.968C221.132 128.139 221.468 128.224 221.841 128.224ZM225.777 130H223.697V127.92L224.033 126.032L223.681 124.176V118.432H225.777V130ZM230.863 130.16C230.159 130.16 229.524 129.984 228.959 129.632C228.394 129.28 227.951 128.8 227.631 128.192C227.311 127.584 227.151 126.901 227.151 126.144C227.151 125.376 227.311 124.688 227.631 124.08C227.951 123.472 228.394 122.992 228.959 122.64C229.524 122.288 230.159 122.112 230.863 122.112C231.418 122.112 231.914 122.224 232.351 122.448C232.788 122.672 233.135 122.987 233.391 123.392C233.658 123.787 233.802 124.235 233.823 124.736V127.52C233.802 128.032 233.658 128.485 233.391 128.88C233.135 129.275 232.788 129.589 232.351 129.824C231.914 130.048 231.418 130.16 230.863 130.16ZM231.247 128.224C231.834 128.224 232.308 128.032 232.671 127.648C233.034 127.253 233.215 126.747 233.215 126.128C233.215 125.723 233.13 125.365 232.959 125.056C232.799 124.736 232.57 124.491 232.271 124.32C231.983 124.139 231.642 124.048 231.247 124.048C230.863 124.048 230.522 124.139 230.223 124.32C229.935 124.491 229.706 124.736 229.535 125.056C229.375 125.365 229.295 125.723 229.295 126.128C229.295 126.544 229.375 126.912 229.535 127.232C229.706 127.541 229.935 127.787 230.223 127.968C230.522 128.139 230.863 128.224 231.247 128.224ZM233.103 130V127.92L233.439 126.032L233.103 124.176V122.272H235.183V130H233.103ZM238.173 130V119.056H240.269V130H238.173ZM236.365 124.112V122.272H242.077V124.112H236.365ZM246.765 130.16C245.954 130.16 245.234 129.989 244.605 129.648C243.975 129.296 243.474 128.816 243.101 128.208C242.738 127.6 242.557 126.907 242.557 126.128C242.557 125.36 242.733 124.677 243.085 124.08C243.447 123.472 243.938 122.992 244.557 122.64C245.175 122.277 245.863 122.096 246.621 122.096C247.367 122.096 248.023 122.267 248.589 122.608C249.165 122.939 249.613 123.397 249.933 123.984C250.263 124.56 250.429 125.216 250.429 125.952C250.429 126.091 250.418 126.235 250.397 126.384C250.386 126.523 250.359 126.683 250.317 126.864L243.821 126.88V125.312L249.341 125.296L248.493 125.952C248.471 125.493 248.386 125.109 248.237 124.8C248.098 124.491 247.89 124.256 247.613 124.096C247.346 123.925 247.015 123.84 246.621 123.84C246.205 123.84 245.842 123.936 245.533 124.128C245.223 124.309 244.983 124.571 244.813 124.912C244.653 125.243 244.573 125.637 244.573 126.096C244.573 126.565 244.658 126.976 244.829 127.328C245.01 127.669 245.266 127.936 245.597 128.128C245.927 128.309 246.311 128.4 246.749 128.4C247.143 128.4 247.501 128.336 247.821 128.208C248.141 128.069 248.418 127.867 248.653 127.6L249.885 128.832C249.511 129.269 249.053 129.6 248.509 129.824C247.975 130.048 247.394 130.16 246.765 130.16Z" fill="white" fill-opacity="0.8"/>
<path d="M94.984 233.16C94.2267 233.16 93.5333 233.027 92.904 232.76C92.2747 232.483 91.7467 232.088 91.32 231.576L92.76 230.152C92.9733 230.472 93.2773 230.728 93.672 230.92C94.0667 231.112 94.4933 231.208 94.952 231.208C95.3787 231.208 95.7467 231.133 96.056 230.984C96.3653 230.824 96.6053 230.605 96.776 230.328C96.9573 230.04 97.048 229.709 97.048 229.336C97.048 228.941 96.9573 228.605 96.776 228.328C96.6053 228.051 96.3547 227.837 96.024 227.688C95.6933 227.539 95.2987 227.464 94.84 227.464C94.6373 227.464 94.4293 227.48 94.216 227.512C94.0027 227.533 93.8213 227.571 93.672 227.624L94.632 226.408C94.8987 226.323 95.16 226.253 95.416 226.2C95.6827 226.136 95.928 226.104 96.152 226.104C96.728 226.104 97.2453 226.243 97.704 226.52C98.1733 226.787 98.5413 227.171 98.808 227.672C99.0853 228.163 99.224 228.744 99.224 229.416C99.224 230.163 99.048 230.819 98.696 231.384C98.344 231.939 97.848 232.376 97.208 232.696C96.5787 233.005 95.8373 233.16 94.984 233.16ZM93.672 227.624V226.376L96.552 223.032L99.048 223L96.072 226.408L93.672 227.624ZM91.944 223.64V221.752H99.048V223L97.272 223.64H91.944ZM101.774 233.16C101.39 233.16 101.076 233.032 100.83 232.776C100.585 232.52 100.462 232.205 100.462 231.832C100.462 231.459 100.585 231.144 100.83 230.888C101.076 230.632 101.39 230.504 101.774 230.504C102.148 230.504 102.457 230.632 102.702 230.888C102.948 231.144 103.07 231.459 103.07 231.832C103.07 232.205 102.948 232.52 102.702 232.776C102.457 233.032 102.148 233.16 101.774 233.16ZM110.002 228.824V227.048H112.61C112.951 227.048 113.261 226.979 113.538 226.84C113.815 226.701 114.034 226.504 114.194 226.248C114.354 225.981 114.434 225.661 114.434 225.288C114.434 224.925 114.354 224.611 114.194 224.344C114.034 224.077 113.815 223.875 113.538 223.736C113.261 223.597 112.951 223.528 112.61 223.528H110.002V221.752H112.834C113.549 221.752 114.189 221.896 114.754 222.184C115.33 222.472 115.783 222.883 116.114 223.416C116.445 223.939 116.61 224.563 116.61 225.288C116.61 226.013 116.445 226.643 116.114 227.176C115.783 227.699 115.33 228.104 114.754 228.392C114.189 228.68 113.549 228.824 112.834 228.824H110.002ZM108.402 233V221.752H110.578V233H108.402ZM118.037 233V225.272H120.133V233H118.037ZM120.133 228.728L119.317 228.184C119.413 227.235 119.691 226.488 120.149 225.944C120.608 225.389 121.269 225.112 122.133 225.112C122.507 225.112 122.843 225.176 123.141 225.304C123.44 225.421 123.712 225.619 123.957 225.896L122.645 227.4C122.528 227.272 122.384 227.176 122.213 227.112C122.053 227.048 121.867 227.016 121.653 227.016C121.205 227.016 120.837 227.16 120.549 227.448C120.272 227.725 120.133 228.152 120.133 228.728ZM124.694 233V225.272H126.806V233H124.694ZM125.75 224.024C125.408 224.024 125.126 223.912 124.902 223.688C124.678 223.453 124.566 223.165 124.566 222.824C124.566 222.493 124.678 222.211 124.902 221.976C125.126 221.741 125.408 221.624 125.75 221.624C126.102 221.624 126.384 221.741 126.598 221.976C126.822 222.211 126.934 222.493 126.934 222.824C126.934 223.165 126.822 223.453 126.598 223.688C126.384 223.912 126.102 224.024 125.75 224.024ZM132.31 233.16C131.521 233.16 130.812 232.984 130.182 232.632C129.553 232.28 129.057 231.8 128.694 231.192C128.332 230.584 128.15 229.901 128.15 229.144C128.15 228.376 128.332 227.688 128.694 227.08C129.057 226.472 129.553 225.992 130.182 225.64C130.822 225.277 131.532 225.096 132.31 225.096C132.918 225.096 133.478 225.208 133.99 225.432C134.502 225.656 134.945 225.976 135.318 226.392L133.974 227.752C133.772 227.528 133.526 227.357 133.238 227.24C132.961 227.123 132.652 227.064 132.31 227.064C131.926 227.064 131.58 227.155 131.27 227.336C130.972 227.507 130.732 227.747 130.55 228.056C130.38 228.355 130.294 228.712 130.294 229.128C130.294 229.533 130.38 229.896 130.55 230.216C130.732 230.525 130.972 230.771 131.27 230.952C131.58 231.123 131.926 231.208 132.31 231.208C132.662 231.208 132.977 231.149 133.254 231.032C133.542 230.904 133.788 230.723 133.99 230.488L135.35 231.848C134.956 232.275 134.502 232.6 133.99 232.824C133.478 233.048 132.918 233.16 132.31 233.16ZM136.537 233V225.272H138.649V233H136.537ZM137.593 224.024C137.252 224.024 136.969 223.912 136.745 223.688C136.521 223.453 136.409 223.165 136.409 222.824C136.409 222.493 136.521 222.211 136.745 221.976C136.969 221.741 137.252 221.624 137.593 221.624C137.945 221.624 138.228 221.741 138.441 221.976C138.665 222.211 138.777 222.493 138.777 222.824C138.777 223.165 138.665 223.453 138.441 223.688C138.228 223.912 137.945 224.024 137.593 224.024ZM145.706 233V228.568C145.706 228.109 145.562 227.736 145.274 227.448C144.986 227.16 144.613 227.016 144.154 227.016C143.855 227.016 143.589 227.08 143.354 227.208C143.119 227.336 142.933 227.517 142.794 227.752C142.666 227.987 142.602 228.259 142.602 228.568L141.786 228.152C141.786 227.544 141.914 227.016 142.17 226.568C142.437 226.109 142.799 225.752 143.258 225.496C143.727 225.24 144.255 225.112 144.842 225.112C145.407 225.112 145.914 225.256 146.362 225.544C146.81 225.821 147.162 226.189 147.418 226.648C147.674 227.096 147.802 227.581 147.802 228.104V233H145.706ZM140.506 233V225.272H142.602V233H140.506ZM152.723 236.424C151.901 236.424 151.176 236.275 150.547 235.976C149.917 235.688 149.416 235.277 149.043 234.744L150.371 233.416C150.669 233.768 151 234.035 151.363 234.216C151.736 234.408 152.184 234.504 152.707 234.504C153.357 234.504 153.869 234.339 154.243 234.008C154.627 233.677 154.819 233.219 154.819 232.632V230.696L155.171 229L154.835 227.304V225.272H156.915V232.6C156.915 233.368 156.733 234.035 156.371 234.6C156.019 235.176 155.528 235.624 154.899 235.944C154.269 236.264 153.544 236.424 152.723 236.424ZM152.627 232.792C151.933 232.792 151.309 232.627 150.755 232.296C150.2 231.955 149.763 231.491 149.443 230.904C149.133 230.317 148.979 229.661 148.979 228.936C148.979 228.211 149.133 227.56 149.443 226.984C149.763 226.408 150.2 225.955 150.755 225.624C151.309 225.283 151.933 225.112 152.627 225.112C153.203 225.112 153.709 225.224 154.147 225.448C154.595 225.672 154.947 225.981 155.203 226.376C155.459 226.76 155.597 227.213 155.619 227.736V230.168C155.597 230.68 155.453 231.139 155.187 231.544C154.931 231.939 154.579 232.248 154.131 232.472C153.693 232.685 153.192 232.792 152.627 232.792ZM153.043 230.888C153.427 230.888 153.757 230.808 154.035 230.648C154.323 230.477 154.547 230.248 154.707 229.96C154.867 229.661 154.947 229.325 154.947 228.952C154.947 228.568 154.867 228.232 154.707 227.944C154.547 227.656 154.323 227.432 154.035 227.272C153.757 227.101 153.427 227.016 153.043 227.016C152.659 227.016 152.323 227.101 152.035 227.272C151.747 227.432 151.523 227.661 151.363 227.96C151.203 228.248 151.123 228.579 151.123 228.952C151.123 229.315 151.203 229.645 151.363 229.944C151.523 230.232 151.747 230.461 152.035 230.632C152.323 230.803 152.659 230.888 153.043 230.888ZM169.241 233L163.993 227.24C163.598 226.803 163.305 226.387 163.113 225.992C162.921 225.587 162.825 225.144 162.825 224.664C162.825 224.099 162.964 223.581 163.241 223.112C163.529 222.643 163.918 222.269 164.409 221.992C164.91 221.715 165.481 221.576 166.121 221.576C166.622 221.576 167.07 221.656 167.465 221.816C167.86 221.965 168.201 222.163 168.489 222.408C168.788 222.653 169.028 222.915 169.209 223.192L167.769 224.536C167.545 224.227 167.305 223.987 167.049 223.816C166.793 223.635 166.494 223.544 166.153 223.544C165.79 223.544 165.486 223.651 165.241 223.864C164.996 224.077 164.873 224.344 164.873 224.664C164.873 224.963 164.937 225.219 165.065 225.432C165.193 225.635 165.369 225.869 165.593 226.136L171.721 233H169.241ZM165.481 233.16C164.713 233.16 164.041 233.011 163.465 232.712C162.9 232.413 162.457 232.008 162.137 231.496C161.828 230.973 161.673 230.381 161.673 229.72C161.673 229.037 161.854 228.424 162.217 227.88C162.59 227.336 163.14 226.893 163.865 226.552L164.809 227.896C164.446 228.067 164.169 228.296 163.977 228.584C163.796 228.861 163.705 229.208 163.705 229.624C163.705 229.944 163.78 230.227 163.929 230.472C164.078 230.707 164.292 230.893 164.569 231.032C164.846 231.16 165.166 231.224 165.529 231.224C165.988 231.224 166.372 231.128 166.681 230.936C166.99 230.744 167.236 230.499 167.417 230.2L168.825 231.736C168.612 231.992 168.334 232.227 167.993 232.44C167.652 232.653 167.268 232.829 166.841 232.968C166.414 233.096 165.961 233.16 165.481 233.16ZM180.712 233.16C179.89 233.16 179.128 233.016 178.424 232.728C177.72 232.429 177.101 232.019 176.568 231.496C176.045 230.963 175.64 230.344 175.352 229.64C175.074 228.936 174.936 228.179 174.936 227.368C174.936 226.557 175.074 225.8 175.352 225.096C175.64 224.392 176.045 223.779 176.568 223.256C177.101 222.733 177.714 222.323 178.408 222.024C179.112 221.725 179.88 221.576 180.712 221.576C181.608 221.576 182.397 221.725 183.08 222.024C183.762 222.312 184.365 222.712 184.888 223.224L183.416 224.696C183.106 224.355 182.728 224.088 182.28 223.896C181.832 223.704 181.309 223.608 180.712 223.608C180.189 223.608 179.709 223.699 179.272 223.88C178.845 224.051 178.472 224.307 178.152 224.648C177.832 224.979 177.586 225.379 177.416 225.848C177.245 226.307 177.16 226.813 177.16 227.368C177.16 227.933 177.245 228.445 177.416 228.904C177.586 229.363 177.832 229.763 178.152 230.104C178.472 230.435 178.845 230.691 179.272 230.872C179.709 231.053 180.189 231.144 180.712 231.144C181.341 231.144 181.88 231.048 182.328 230.856C182.786 230.664 183.17 230.392 183.48 230.04L184.952 231.512C184.429 232.035 183.821 232.44 183.128 232.728C182.434 233.016 181.629 233.16 180.712 233.16ZM189.685 233.16C188.906 233.16 188.202 232.984 187.573 232.632C186.954 232.269 186.458 231.784 186.085 231.176C185.722 230.557 185.541 229.869 185.541 229.112C185.541 228.355 185.722 227.677 186.085 227.08C186.448 226.472 186.944 225.992 187.573 225.64C188.202 225.277 188.901 225.096 189.669 225.096C190.458 225.096 191.162 225.277 191.781 225.64C192.41 225.992 192.906 226.472 193.269 227.08C193.632 227.677 193.813 228.355 193.813 229.112C193.813 229.869 193.632 230.557 193.269 231.176C192.906 231.784 192.41 232.269 191.781 232.632C191.162 232.984 190.464 233.16 189.685 233.16ZM189.669 231.208C190.064 231.208 190.41 231.123 190.709 230.952C191.018 230.771 191.253 230.525 191.413 230.216C191.584 229.896 191.669 229.533 191.669 229.128C191.669 228.723 191.584 228.365 191.413 228.056C191.242 227.747 191.008 227.507 190.709 227.336C190.41 227.155 190.064 227.064 189.669 227.064C189.285 227.064 188.944 227.155 188.645 227.336C188.346 227.507 188.112 227.747 187.941 228.056C187.77 228.365 187.685 228.723 187.685 229.128C187.685 229.533 187.77 229.896 187.941 230.216C188.112 230.525 188.346 230.771 188.645 230.952C188.944 231.123 189.285 231.208 189.669 231.208ZM200.362 233V228.568C200.362 228.109 200.218 227.736 199.93 227.448C199.642 227.16 199.269 227.016 198.81 227.016C198.512 227.016 198.245 227.08 198.01 227.208C197.776 227.336 197.589 227.517 197.45 227.752C197.322 227.987 197.258 228.259 197.258 228.568L196.442 228.152C196.442 227.544 196.57 227.016 196.826 226.568C197.093 226.109 197.456 225.752 197.914 225.496C198.384 225.24 198.912 225.112 199.498 225.112C200.064 225.112 200.57 225.256 201.018 225.544C201.466 225.821 201.818 226.189 202.074 226.648C202.33 227.096 202.458 227.581 202.458 228.104V233H200.362ZM195.162 233V225.272H197.258V233H195.162ZM205.189 233V222.056H207.285V233H205.189ZM203.381 227.112V225.272H209.093V227.112H203.381ZM210.272 233V225.272H212.368V233H210.272ZM212.368 228.728L211.552 228.184C211.648 227.235 211.925 226.488 212.384 225.944C212.842 225.389 213.504 225.112 214.368 225.112C214.741 225.112 215.077 225.176 215.376 225.304C215.674 225.421 215.946 225.619 216.192 225.896L214.88 227.4C214.762 227.272 214.618 227.176 214.448 227.112C214.288 227.048 214.101 227.016 213.888 227.016C213.44 227.016 213.072 227.16 212.784 227.448C212.506 227.725 212.368 228.152 212.368 228.728ZM219.941 233.16C219.237 233.16 218.603 232.984 218.037 232.632C217.472 232.28 217.029 231.8 216.709 231.192C216.389 230.584 216.229 229.901 216.229 229.144C216.229 228.376 216.389 227.688 216.709 227.08C217.029 226.472 217.472 225.992 218.037 225.64C218.603 225.288 219.237 225.112 219.941 225.112C220.496 225.112 220.992 225.224 221.429 225.448C221.867 225.672 222.213 225.987 222.469 226.392C222.736 226.787 222.88 227.235 222.901 227.736V230.52C222.88 231.032 222.736 231.485 222.469 231.88C222.213 232.275 221.867 232.589 221.429 232.824C220.992 233.048 220.496 233.16 219.941 233.16ZM220.325 231.224C220.912 231.224 221.387 231.032 221.749 230.648C222.112 230.253 222.293 229.747 222.293 229.128C222.293 228.723 222.208 228.365 222.037 228.056C221.877 227.736 221.648 227.491 221.349 227.32C221.061 227.139 220.72 227.048 220.325 227.048C219.941 227.048 219.6 227.139 219.301 227.32C219.013 227.491 218.784 227.736 218.613 228.056C218.453 228.365 218.373 228.723 218.373 229.128C218.373 229.544 218.453 229.912 218.613 230.232C218.784 230.541 219.013 230.787 219.301 230.968C219.6 231.139 219.941 231.224 220.325 231.224ZM222.181 233V230.92L222.517 229.032L222.181 227.176V225.272H224.261V233H222.181ZM229.764 233.16C228.974 233.16 228.265 232.984 227.636 232.632C227.006 232.28 226.51 231.8 226.148 231.192C225.785 230.584 225.604 229.901 225.604 229.144C225.604 228.376 225.785 227.688 226.148 227.08C226.51 226.472 227.006 225.992 227.636 225.64C228.276 225.277 228.985 225.096 229.764 225.096C230.372 225.096 230.932 225.208 231.444 225.432C231.956 225.656 232.398 225.976 232.772 226.392L231.428 227.752C231.225 227.528 230.98 227.357 230.692 227.24C230.414 227.123 230.105 227.064 229.764 227.064C229.38 227.064 229.033 227.155 228.724 227.336C228.425 227.507 228.185 227.747 228.004 228.056C227.833 228.355 227.748 228.712 227.748 229.128C227.748 229.533 227.833 229.896 228.004 230.216C228.185 230.525 228.425 230.771 228.724 230.952C229.033 231.123 229.38 231.208 229.764 231.208C230.116 231.208 230.43 231.149 230.708 231.032C230.996 230.904 231.241 230.723 231.444 230.488L232.804 231.848C232.409 232.275 231.956 232.6 231.444 232.824C230.932 233.048 230.372 233.16 229.764 233.16ZM235.002 233V222.056H237.098V233H235.002ZM233.194 227.112V225.272H238.906V227.112H233.194Z" fill="white" fill-opacity="0.8"/>
<path d="M91.4 332.032L95.24 324.752H97.64L93.704 332.032H91.4ZM91.4 333.312V332.032L92.2 331.408H100.264V333.312H91.4ZM96.712 336V328.832H98.856V336H96.712ZM102.524 336.16C102.14 336.16 101.826 336.032 101.58 335.776C101.335 335.52 101.212 335.205 101.212 334.832C101.212 334.459 101.335 334.144 101.58 333.888C101.826 333.632 102.14 333.504 102.524 333.504C102.898 333.504 103.207 333.632 103.452 333.888C103.698 334.144 103.82 334.459 103.82 334.832C103.82 335.205 103.698 335.52 103.452 335.776C103.207 336.032 102.898 336.16 102.524 336.16ZM112.416 336.16C111.509 336.16 110.731 336.005 110.08 335.696C109.44 335.387 108.859 334.923 108.336 334.304L109.776 332.864C110.107 333.301 110.491 333.643 110.928 333.888C111.365 334.123 111.899 334.24 112.528 334.24C113.093 334.24 113.541 334.128 113.872 333.904C114.213 333.68 114.384 333.371 114.384 332.976C114.384 332.635 114.288 332.357 114.096 332.144C113.904 331.931 113.648 331.749 113.328 331.6C113.019 331.451 112.672 331.317 112.288 331.2C111.915 331.072 111.536 330.928 111.152 330.768C110.779 330.608 110.432 330.411 110.112 330.176C109.803 329.931 109.552 329.621 109.36 329.248C109.168 328.864 109.072 328.384 109.072 327.808C109.072 327.125 109.237 326.544 109.568 326.064C109.899 325.584 110.352 325.216 110.928 324.96C111.504 324.704 112.155 324.576 112.88 324.576C113.648 324.576 114.341 324.72 114.96 325.008C115.579 325.296 116.085 325.669 116.48 326.128L115.04 327.568C114.709 327.205 114.368 326.939 114.016 326.768C113.675 326.597 113.285 326.512 112.848 326.512C112.347 326.512 111.952 326.608 111.664 326.8C111.376 326.992 111.232 327.269 111.232 327.632C111.232 327.941 111.328 328.192 111.52 328.384C111.712 328.576 111.963 328.741 112.272 328.88C112.592 329.019 112.939 329.152 113.312 329.28C113.696 329.408 114.075 329.552 114.448 329.712C114.832 329.872 115.179 330.08 115.488 330.336C115.808 330.592 116.064 330.923 116.256 331.328C116.448 331.723 116.544 332.213 116.544 332.8C116.544 333.845 116.176 334.667 115.44 335.264C114.704 335.861 113.696 336.16 112.416 336.16ZM118.037 336V328.272H120.149V336H118.037ZM119.093 327.024C118.752 327.024 118.469 326.912 118.245 326.688C118.021 326.453 117.909 326.165 117.909 325.824C117.909 325.493 118.021 325.211 118.245 324.976C118.469 324.741 118.752 324.624 119.093 324.624C119.445 324.624 119.728 324.741 119.941 324.976C120.165 325.211 120.277 325.493 120.277 325.824C120.277 326.165 120.165 326.453 119.941 326.688C119.728 326.912 119.445 327.024 119.093 327.024ZM125.238 339.424C124.417 339.424 123.691 339.275 123.062 338.976C122.433 338.688 121.931 338.277 121.558 337.744L122.886 336.416C123.185 336.768 123.515 337.035 123.878 337.216C124.251 337.408 124.699 337.504 125.222 337.504C125.873 337.504 126.385 337.339 126.758 337.008C127.142 336.677 127.334 336.219 127.334 335.632V333.696L127.686 332L127.35 330.304V328.272H129.43V335.6C129.43 336.368 129.249 337.035 128.886 337.6C128.534 338.176 128.043 338.624 127.414 338.944C126.785 339.264 126.059 339.424 125.238 339.424ZM125.142 335.792C124.449 335.792 123.825 335.627 123.27 335.296C122.715 334.955 122.278 334.491 121.958 333.904C121.649 333.317 121.494 332.661 121.494 331.936C121.494 331.211 121.649 330.56 121.958 329.984C122.278 329.408 122.715 328.955 123.27 328.624C123.825 328.283 124.449 328.112 125.142 328.112C125.718 328.112 126.225 328.224 126.662 328.448C127.11 328.672 127.462 328.981 127.718 329.376C127.974 329.76 128.113 330.213 128.134 330.736V333.168C128.113 333.68 127.969 334.139 127.702 334.544C127.446 334.939 127.094 335.248 126.646 335.472C126.209 335.685 125.707 335.792 125.142 335.792ZM125.558 333.888C125.942 333.888 126.273 333.808 126.55 333.648C126.838 333.477 127.062 333.248 127.222 332.96C127.382 332.661 127.462 332.325 127.462 331.952C127.462 331.568 127.382 331.232 127.222 330.944C127.062 330.656 126.838 330.432 126.55 330.272C126.273 330.101 125.942 330.016 125.558 330.016C125.174 330.016 124.838 330.101 124.55 330.272C124.262 330.432 124.038 330.661 123.878 330.96C123.718 331.248 123.638 331.579 123.638 331.952C123.638 332.315 123.718 332.645 123.878 332.944C124.038 333.232 124.262 333.461 124.55 333.632C124.838 333.803 125.174 333.888 125.558 333.888ZM136.472 336V331.568C136.472 331.109 136.328 330.736 136.04 330.448C135.752 330.16 135.378 330.016 134.92 330.016C134.621 330.016 134.354 330.08 134.12 330.208C133.885 330.336 133.698 330.517 133.56 330.752C133.432 330.987 133.368 331.259 133.368 331.568L132.552 331.152C132.552 330.544 132.68 330.016 132.936 329.568C133.202 329.109 133.565 328.752 134.024 328.496C134.493 328.24 135.021 328.112 135.608 328.112C136.173 328.112 136.68 328.256 137.128 328.544C137.576 328.821 137.928 329.189 138.184 329.648C138.44 330.096 138.568 330.581 138.568 331.104V336H136.472ZM131.272 336V328.272H133.368V336H131.272ZM144.517 336V325.056H146.613V336H144.517ZM142.709 330.112V328.272H148.421V330.112H142.709ZM154.8 336V331.568C154.8 331.109 154.656 330.736 154.368 330.448C154.08 330.16 153.707 330.016 153.248 330.016C152.949 330.016 152.683 330.08 152.448 330.208C152.213 330.336 152.027 330.517 151.888 330.752C151.76 330.987 151.696 331.259 151.696 331.568L150.88 331.152C150.88 330.544 151.008 330.016 151.264 329.568C151.52 329.109 151.872 328.752 152.32 328.496C152.779 328.24 153.301 328.112 153.888 328.112C154.475 328.112 154.992 328.24 155.44 328.496C155.899 328.752 156.256 329.104 156.512 329.552C156.768 330 156.896 330.517 156.896 331.104V336H154.8ZM149.6 336V324.432H151.696V336H149.6ZM162.28 336.16C161.47 336.16 160.75 335.989 160.12 335.648C159.491 335.296 158.99 334.816 158.616 334.208C158.254 333.6 158.072 332.907 158.072 332.128C158.072 331.36 158.248 330.677 158.6 330.08C158.963 329.472 159.454 328.992 160.072 328.64C160.691 328.277 161.379 328.096 162.136 328.096C162.883 328.096 163.539 328.267 164.104 328.608C164.68 328.939 165.128 329.397 165.448 329.984C165.779 330.56 165.944 331.216 165.944 331.952C165.944 332.091 165.934 332.235 165.912 332.384C165.902 332.523 165.875 332.683 165.832 332.864L159.336 332.88V331.312L164.856 331.296L164.008 331.952C163.987 331.493 163.902 331.109 163.752 330.8C163.614 330.491 163.406 330.256 163.128 330.096C162.862 329.925 162.531 329.84 162.136 329.84C161.72 329.84 161.358 329.936 161.048 330.128C160.739 330.309 160.499 330.571 160.328 330.912C160.168 331.243 160.088 331.637 160.088 332.096C160.088 332.565 160.174 332.976 160.344 333.328C160.526 333.669 160.782 333.936 161.112 334.128C161.443 334.309 161.827 334.4 162.264 334.4C162.659 334.4 163.016 334.336 163.336 334.208C163.656 334.069 163.934 333.867 164.168 333.6L165.4 334.832C165.027 335.269 164.568 335.6 164.024 335.824C163.491 336.048 162.91 336.16 162.28 336.16ZM175.806 336.16C174.984 336.16 174.222 336.016 173.518 335.728C172.814 335.429 172.195 335.019 171.662 334.496C171.139 333.963 170.734 333.344 170.446 332.64C170.168 331.936 170.03 331.179 170.03 330.368C170.03 329.557 170.168 328.8 170.446 328.096C170.734 327.392 171.139 326.779 171.662 326.256C172.195 325.733 172.808 325.323 173.502 325.024C174.206 324.725 174.974 324.576 175.806 324.576C176.702 324.576 177.491 324.725 178.174 325.024C178.856 325.312 179.459 325.712 179.982 326.224L178.51 327.696C178.2 327.355 177.822 327.088 177.374 326.896C176.926 326.704 176.403 326.608 175.806 326.608C175.283 326.608 174.803 326.699 174.366 326.88C173.939 327.051 173.566 327.307 173.246 327.648C172.926 327.979 172.68 328.379 172.51 328.848C172.339 329.307 172.254 329.813 172.254 330.368C172.254 330.933 172.339 331.445 172.51 331.904C172.68 332.363 172.926 332.763 173.246 333.104C173.566 333.435 173.939 333.691 174.366 333.872C174.803 334.053 175.283 334.144 175.806 334.144C176.435 334.144 176.974 334.048 177.422 333.856C177.88 333.664 178.264 333.392 178.574 333.04L180.046 334.512C179.523 335.035 178.915 335.44 178.222 335.728C177.528 336.016 176.723 336.16 175.806 336.16ZM184.779 336.16C184 336.16 183.296 335.984 182.667 335.632C182.048 335.269 181.552 334.784 181.179 334.176C180.816 333.557 180.635 332.869 180.635 332.112C180.635 331.355 180.816 330.677 181.179 330.08C181.541 329.472 182.037 328.992 182.667 328.64C183.296 328.277 183.995 328.096 184.763 328.096C185.552 328.096 186.256 328.277 186.875 328.64C187.504 328.992 188 329.472 188.363 330.08C188.725 330.677 188.907 331.355 188.907 332.112C188.907 332.869 188.725 333.557 188.363 334.176C188 334.784 187.504 335.269 186.875 335.632C186.256 335.984 185.557 336.16 184.779 336.16ZM184.763 334.208C185.157 334.208 185.504 334.123 185.803 333.952C186.112 333.771 186.347 333.525 186.507 333.216C186.677 332.896 186.763 332.533 186.763 332.128C186.763 331.723 186.677 331.365 186.507 331.056C186.336 330.747 186.101 330.507 185.803 330.336C185.504 330.155 185.157 330.064 184.763 330.064C184.379 330.064 184.037 330.155 183.739 330.336C183.44 330.507 183.205 330.747 183.035 331.056C182.864 331.365 182.779 331.723 182.779 332.128C182.779 332.533 182.864 332.896 183.035 333.216C183.205 333.525 183.44 333.771 183.739 333.952C184.037 334.123 184.379 334.208 184.763 334.208ZM195.456 336V331.568C195.456 331.109 195.312 330.736 195.024 330.448C194.736 330.16 194.363 330.016 193.904 330.016C193.605 330.016 193.339 330.08 193.104 330.208C192.869 330.336 192.683 330.517 192.544 330.752C192.416 330.987 192.352 331.259 192.352 331.568L191.536 331.152C191.536 330.544 191.664 330.016 191.92 329.568C192.187 329.109 192.549 328.752 193.008 328.496C193.477 328.24 194.005 328.112 194.592 328.112C195.157 328.112 195.664 328.256 196.112 328.544C196.56 328.821 196.912 329.189 197.168 329.648C197.424 330.096 197.552 330.581 197.552 331.104V336H195.456ZM190.256 336V328.272H192.352V336H190.256ZM200.283 336V325.056H202.379V336H200.283ZM198.475 330.112V328.272H204.187V330.112H198.475ZM205.366 336V328.272H207.462V336H205.366ZM207.462 331.728L206.646 331.184C206.742 330.235 207.019 329.488 207.478 328.944C207.936 328.389 208.598 328.112 209.462 328.112C209.835 328.112 210.171 328.176 210.47 328.304C210.768 328.421 211.04 328.619 211.286 328.896L209.974 330.4C209.856 330.272 209.712 330.176 209.542 330.112C209.382 330.048 209.195 330.016 208.982 330.016C208.534 330.016 208.166 330.16 207.878 330.448C207.6 330.725 207.462 331.152 207.462 331.728ZM215.035 336.16C214.331 336.16 213.696 335.984 213.131 335.632C212.566 335.28 212.123 334.8 211.803 334.192C211.483 333.584 211.323 332.901 211.323 332.144C211.323 331.376 211.483 330.688 211.803 330.08C212.123 329.472 212.566 328.992 213.131 328.64C213.696 328.288 214.331 328.112 215.035 328.112C215.59 328.112 216.086 328.224 216.523 328.448C216.96 328.672 217.307 328.987 217.563 329.392C217.83 329.787 217.974 330.235 217.995 330.736V333.52C217.974 334.032 217.83 334.485 217.563 334.88C217.307 335.275 216.96 335.589 216.523 335.824C216.086 336.048 215.59 336.16 215.035 336.16ZM215.419 334.224C216.006 334.224 216.48 334.032 216.843 333.648C217.206 333.253 217.387 332.747 217.387 332.128C217.387 331.723 217.302 331.365 217.131 331.056C216.971 330.736 216.742 330.491 216.443 330.32C216.155 330.139 215.814 330.048 215.419 330.048C215.035 330.048 214.694 330.139 214.395 330.32C214.107 330.491 213.878 330.736 213.707 331.056C213.547 331.365 213.467 331.723 213.467 332.128C213.467 332.544 213.547 332.912 213.707 333.232C213.878 333.541 214.107 333.787 214.395 333.968C214.694 334.139 215.035 334.224 215.419 334.224ZM217.275 336V333.92L217.611 332.032L217.275 330.176V328.272H219.355V336H217.275ZM224.857 336.16C224.068 336.16 223.359 335.984 222.729 335.632C222.1 335.28 221.604 334.8 221.241 334.192C220.879 333.584 220.697 332.901 220.697 332.144C220.697 331.376 220.879 330.688 221.241 330.08C221.604 329.472 222.1 328.992 222.729 328.64C223.369 328.277 224.079 328.096 224.857 328.096C225.465 328.096 226.025 328.208 226.537 328.432C227.049 328.656 227.492 328.976 227.865 329.392L226.521 330.752C226.319 330.528 226.073 330.357 225.785 330.24C225.508 330.123 225.199 330.064 224.857 330.064C224.473 330.064 224.127 330.155 223.817 330.336C223.519 330.507 223.279 330.747 223.097 331.056C222.927 331.355 222.841 331.712 222.841 332.128C222.841 332.533 222.927 332.896 223.097 333.216C223.279 333.525 223.519 333.771 223.817 333.952C224.127 334.123 224.473 334.208 224.857 334.208C225.209 334.208 225.524 334.149 225.801 334.032C226.089 333.904 226.335 333.723 226.537 333.488L227.897 334.848C227.503 335.275 227.049 335.6 226.537 335.824C226.025 336.048 225.465 336.16 224.857 336.16ZM230.095 336V325.056H232.191V336H230.095ZM228.287 330.112V328.272H233.999V330.112H228.287Z" fill="white" fill-opacity="0.8"/>
<circle cx="35" cy="35" r="35" fill="#2D2727"/>
<path d="M34 70L34 293" stroke="white" stroke-opacity="0.2" stroke-width="2" stroke-dasharray="4 4"/>
<circle cx="35" cy="229" r="35" fill="#2D2727"/>
<circle cx="35" cy="132" r="35" fill="#2D2727"/>
<circle cx="35" cy="326" r="35" fill="#2D2727"/>
<path fill-rule="evenodd" clip-rule="evenodd" d="M26.7437 18.1064C26.3245 18.2555 26.0347 18.4693 25.7978 18.8046C25.5024 19.2226 25.4149 19.6299 25.4149 20.588V21.436L23.9064 21.4571C22.4861 21.4768 22.3818 21.4869 22.1239 21.6281C21.6943 21.8634 21.4126 22.1536 21.2163 22.5632L21.0353 22.941L21.0176 28.615L21 34.289L21.222 34.5166C21.5472 34.8498 21.9662 34.8049 22.1925 34.4123C22.2909 34.2416 22.3005 33.7395 22.3005 28.7625C22.3005 22.8313 22.2888 23.0255 22.6556 22.8542C22.7851 22.7937 25.209 22.7748 32.8179 22.7748C43.6826 22.7748 43.074 22.7536 43.2452 23.1386C43.3576 23.3916 43.3576 50.0865 43.2452 50.3395C43.0739 50.7246 43.6832 50.7033 32.8116 50.7033C21.94 50.7033 22.5493 50.7246 22.3781 50.3395C22.3199 50.2088 22.3005 48.7983 22.3005 44.7122C22.3005 38.7913 22.3121 38.9846 21.9455 38.8134C21.6028 38.6533 21.2062 38.7903 21.0755 39.1139C21.0196 39.2519 21.0045 40.7633 21.0176 44.9189C21.0351 50.4717 21.0369 50.5406 21.1719 50.8397C21.3717 51.2821 21.6764 51.6043 22.0941 51.8145L22.4627 52H32.8116H43.1605L43.5292 51.8145C43.9475 51.6039 44.2526 51.281 44.4502 50.8397C44.5634 50.5868 44.5895 50.3766 44.6089 49.5606L44.6321 48.5841L46.1348 48.5632C47.549 48.5434 47.6535 48.5333 47.9114 48.3922C48.341 48.1568 48.6227 47.8666 48.819 47.4571L49 47.0793V33.2812V19.4832L48.8634 19.1806C48.6636 18.7382 48.3589 18.416 47.9412 18.2058L47.5726 18.0203L37.321 18.0054C27.7202 17.9915 27.0487 17.9979 26.7437 18.1064ZM47.401 19.4117C47.4993 19.4638 47.6146 19.5849 47.6572 19.6808C47.7697 19.9338 47.7697 46.6287 47.6572 46.8816C47.5118 47.2089 47.3373 47.2455 45.9219 47.2455H44.6217L44.6049 35.0933L44.5879 22.941L44.4513 22.6384C44.2597 22.2139 43.9418 21.8655 43.5556 21.6567L43.2254 21.4781L34.969 21.4605L26.7126 21.4428L26.7149 20.6293C26.7173 19.7576 26.769 19.566 27.0441 19.4098C27.2843 19.2733 47.1434 19.2752 47.401 19.4117ZM31.7086 25.4704C28.8089 25.9402 26.5538 28.1951 25.9252 31.2531C25.8194 31.7676 25.8194 33.3319 25.9252 33.8464C26.4135 36.222 27.8235 38.0704 29.9041 39.0624C32.471 40.2862 35.5389 39.7658 37.6202 37.7535C37.8687 37.5133 38.2184 37.1194 38.3972 36.8782C38.8502 36.2675 39.3957 35.1056 39.6021 34.3119C39.7563 33.7193 39.7751 33.5276 39.7751 32.5498C39.7751 31.5774 39.7558 31.3786 39.6057 30.8024C39.2942 29.6068 38.6958 28.498 37.8891 27.6216C36.3123 25.9086 33.9909 25.1006 31.7086 25.4704ZM34.2066 26.8878C36.2639 27.4512 37.7941 29.0081 38.3325 31.0854C38.7281 32.6117 38.448 34.3915 37.6055 35.7049L37.3214 36.1476L37.1274 35.8947C36.5317 35.1185 35.7733 34.4701 35.0993 34.1608L34.8399 34.0417L35.0877 33.6218C35.4058 33.0825 35.4945 32.6326 35.4586 31.7398C35.4322 31.0819 35.4116 30.989 35.1903 30.5303C34.0591 28.1844 30.7318 28.6448 30.2097 31.2196C30.1679 31.4256 30.1495 31.8607 30.1675 32.217C30.2025 32.9096 30.3492 33.3978 30.6398 33.7883C30.7352 33.9165 30.8031 34.0284 30.7906 34.0369C30.778 34.0454 30.5689 34.1536 30.3258 34.2773C29.6541 34.6191 28.7207 35.4837 28.4112 36.0504C28.3506 36.1613 28.3366 36.1581 28.2124 36.0055C27.9685 35.706 27.4255 34.5194 27.2852 33.9794C27.089 33.2242 27.0894 31.8726 27.286 31.1201C27.5886 29.9623 28.3367 28.757 29.1944 28.0456C29.9516 27.4176 31.0443 26.915 31.9886 26.7604C32.4939 26.6777 33.6903 26.7464 34.2066 26.8878ZM33.5105 30.5327C33.663 30.6221 33.8674 30.8185 33.9647 30.9691C34.1197 31.2089 34.1445 31.3205 34.1643 31.8658C34.1847 32.4284 34.1705 32.5228 34.0175 32.8433C33.787 33.3262 33.4362 33.5648 32.9036 33.6009C32.5983 33.6217 32.4514 33.5975 32.2548 33.4938C31.6813 33.1917 31.4491 32.7514 31.4491 31.9665C31.4491 31.5375 31.4791 31.3836 31.6193 31.0954C31.9796 30.3544 32.7933 30.1123 33.5105 30.5327ZM33.5577 35.0431C34.1759 35.1559 34.9687 35.5405 35.4336 35.9529C35.7648 36.2469 36.3153 36.9617 36.3153 37.098C36.3153 37.2133 35.5417 37.7145 35.0297 37.9309C34.1974 38.2826 33.7683 38.3645 32.7792 38.3602C31.9875 38.3568 31.7975 38.3334 31.3 38.1788C30.4953 37.9285 29.3069 37.2882 29.3086 37.1058C29.3089 37.0687 29.4601 36.8323 29.6447 36.5805C30.0205 36.0676 30.5749 35.6132 31.1571 35.3408C31.4949 35.1827 31.6893 35.1266 32.3899 34.9853C32.6566 34.9314 33.0541 34.9511 33.5577 35.0431ZM21.3344 36.1669C20.9516 36.3844 20.9008 36.8472 21.2235 37.1779C21.5472 37.5097 21.9667 37.4639 22.1925 37.0722C22.5301 36.4864 21.9149 35.8372 21.3344 36.1669ZM25.6996 41.1925C25.6243 41.224 25.5002 41.3311 25.4239 41.4305C25.2915 41.6029 25.2852 41.6798 25.2852 43.1018C25.2852 44.6801 25.3201 44.8923 25.606 45.0491C25.7793 45.1442 39.8439 45.1442 40.0172 45.0491C40.3034 44.8922 40.3381 44.6807 40.3381 43.0938V41.5954L40.1487 41.3782L39.9594 41.1611L32.898 41.1482C29.0143 41.1411 25.775 41.1611 25.6996 41.1925ZM39.0404 43.1227V43.7877H32.8116H26.5828V43.1227V42.4577H32.8116H39.0404V43.1227ZM28.7478 46.8979C28.4158 47.1734 28.3796 47.545 28.6538 47.8595L28.8431 48.0767H32.8116H36.7801L36.9768 47.8511C37.1476 47.6553 37.1687 47.5898 37.1376 47.3526C37.1139 47.1708 37.0451 47.0294 36.9321 46.9298L36.7622 46.78L32.8242 46.7815C29.1909 46.7829 28.8755 46.7919 28.7478 46.8979Z" fill="#E49B00"/>
<path fill-rule="evenodd" clip-rule="evenodd" d="M17.676 116.114C16.223 116.465 14.9984 117.719 14.6943 119.169C14.6324 119.464 14.6058 122.658 14.6058 129.813V140.036H14.1292C13.5566 140.036 13.2716 140.152 13.1187 140.446C12.9757 140.72 12.9555 144.171 13.0931 144.827C13.406 146.319 14.6906 147.596 16.1909 147.907C16.7919 148.031 50.2081 148.031 50.8091 147.907C52.3094 147.596 53.594 146.319 53.9069 144.827C54.0445 144.171 54.0243 140.72 53.8813 140.446C53.7284 140.152 53.4434 140.036 52.8708 140.036H52.3942V129.813C52.3942 122.658 52.3676 119.464 52.3057 119.169C51.9928 117.677 50.7082 116.4 49.2079 116.089C48.5599 115.955 18.237 115.979 17.676 116.114ZM49.2151 117.753C49.7978 117.97 50.2578 118.381 50.5279 118.928L50.7529 119.384L50.7742 129.71L50.7953 140.036H49.8335H48.8715V130.084C48.8715 119.267 48.894 119.807 48.4334 119.598C48.277 119.527 46.7848 119.503 42.5791 119.503C36.4522 119.503 36.6022 119.493 36.3978 119.939C36.2768 120.203 36.2768 120.396 36.3978 120.659C36.6011 121.103 36.494 121.095 42.1025 121.095H47.2703V130.565V140.036H44.79H42.3096L42.2723 139.857C42.2518 139.758 42.2114 139.463 42.1826 139.201C42.1123 138.562 41.801 137.517 41.4659 136.796C40.6363 135.011 39.0744 133.438 37.284 132.584L36.5336 132.226L36.822 131.908C37.2793 131.405 37.6437 130.785 37.8618 130.14C38.0402 129.611 38.0633 129.411 38.0625 128.403C38.0618 127.662 38.0208 127.111 37.9453 126.829C37.5089 125.199 36.1056 123.862 34.4686 123.517C32.0784 123.013 29.684 124.478 29.0547 126.829C28.9792 127.111 28.9382 127.662 28.9375 128.403C28.9367 129.417 28.9592 129.61 29.1418 130.151C29.351 130.77 29.8774 131.644 30.2507 131.992C30.4786 132.204 30.5138 132.316 30.3526 132.316C30.2948 132.316 29.9389 132.473 29.5618 132.664C27.8117 133.552 26.3406 135.061 25.5341 136.796C25.199 137.517 24.8877 138.562 24.8174 139.201C24.7886 139.463 24.7482 139.758 24.7277 139.857L24.6903 140.036H22.21H19.7297V130.565V121.095H24.8898C28.7199 121.095 30.104 121.07 30.2598 121C30.4893 120.896 30.6979 120.562 30.6979 120.299C30.6979 120.036 30.4893 119.702 30.2598 119.598C30.1034 119.527 28.6111 119.503 24.4054 119.503C18.2786 119.503 18.4285 119.493 18.2241 119.939C18.1516 120.097 18.1285 122.551 18.1285 130.092V140.036H17.1665H16.2047L16.2258 129.71L16.2471 119.384L16.4721 118.928C16.7375 118.391 17.1983 117.972 17.7621 117.757C18.16 117.605 18.4893 117.601 33.4769 117.597C48.615 117.593 48.7903 117.595 49.2151 117.753ZM33.1085 119.614C32.4145 119.997 32.7048 121.095 33.5 121.095C33.9057 121.095 34.3006 120.706 34.3006 120.307C34.3006 119.709 33.6363 119.323 33.1085 119.614ZM34.3923 125.154C35.3079 125.441 35.9634 126.064 36.3063 126.973C36.4548 127.366 36.4725 127.556 36.449 128.496C36.4246 129.475 36.4027 129.61 36.2046 130.011C36.085 130.253 35.816 130.622 35.6069 130.829C34.1505 132.277 31.7098 131.862 30.7954 130.011C30.5973 129.61 30.5754 129.475 30.551 128.496C30.5274 127.556 30.5452 127.366 30.6937 126.973C31.0318 126.077 31.6872 125.446 32.5793 125.158C33.2025 124.957 33.7608 124.956 34.3923 125.154ZM32.6994 134.511V135.671L32.9334 135.904C33.2404 136.209 33.7062 136.226 34.0359 135.945L34.2606 135.753L34.2863 134.552L34.3121 133.351L34.6466 133.401C35.6692 133.555 37.0194 134.144 37.8892 134.816C39.3769 135.964 40.3985 137.721 40.6122 139.499L40.6767 140.036H33.5H26.3233L26.3878 139.499C26.7026 136.879 28.6752 134.525 31.2638 133.679C31.7352 133.525 32.3258 133.383 32.5993 133.36C32.6752 133.353 32.6994 133.631 32.6994 134.511ZM52.3804 143.12C52.3549 144.566 52.3473 144.626 52.1308 145.064C51.8777 145.577 51.4898 145.95 50.9572 146.195L50.5928 146.363L33.605 146.384C16.7394 146.404 16.6141 146.403 16.1856 146.244C15.601 146.026 15.1413 145.615 14.8709 145.068C14.6523 144.625 14.6451 144.569 14.6196 143.12L14.5933 141.628H33.5H52.4067L52.3804 143.12ZM30.0059 143.297C29.531 143.491 29.4242 144.194 29.8111 144.579L30.0451 144.811H33.5H36.9549L37.1889 144.579C37.496 144.273 37.5133 143.81 37.2298 143.483L37.0367 143.259L33.607 143.243C31.7208 143.234 30.1003 143.259 30.0059 143.297Z" fill="#E49B00"/>
<path fill-rule="evenodd" clip-rule="evenodd" d="M32.2912 212.09C31.226 212.357 30.3187 213.259 30.0018 214.366L29.9162 214.665H28.7101C27.394 214.665 27.0311 214.731 26.6335 215.044C26.2856 215.317 26.0497 215.865 26.0497 216.399V216.839L23.7375 216.859C21.1482 216.882 21.2141 216.869 21.0709 217.4C20.9751 217.755 20.977 247.093 21.0729 247.448C21.1115 247.592 21.2238 247.774 21.3225 247.854L21.502 248L33.5474 247.978C45.5663 247.956 45.5941 247.955 46.1726 247.806C47.8667 247.37 49.1652 246.65 50.3203 245.507C52.0814 243.764 52.9994 241.558 53 239.066C53.0003 237.505 52.7158 236.28 52.0384 234.925C50.7743 232.396 48.2902 230.566 45.6098 230.188L45.013 230.104V228.639C45.013 227.046 44.9775 226.862 44.6397 226.703C44.3549 226.569 44.1448 226.604 43.9056 226.824L43.6828 227.029L43.6621 228.565L43.6415 230.1L42.9357 230.219C39.9215 230.727 37.2811 232.98 36.1941 235.972C35.8196 237.002 35.709 237.679 35.7053 238.96C35.7007 240.608 35.9312 241.66 36.5966 243.028C37.2046 244.278 38.1213 245.416 39.1739 246.227L39.6445 246.59H31.0053H22.3662V232.421V218.251H24.2079H26.0497V218.612C26.0497 219.344 26.379 219.925 26.9582 220.214C27.2494 220.359 27.3103 220.361 33.0119 220.36L38.7715 220.359L39.1205 220.192C39.685 219.921 40.0334 219.297 40.0334 218.556V218.251H41.8411H43.6487V219.77C43.6487 221.06 43.6658 221.318 43.7623 221.486C43.9925 221.888 44.4971 221.958 44.8136 221.632L45.013 221.426L45.0115 219.364C45.0101 217.516 44.9977 217.286 44.8921 217.152C44.6596 216.856 44.5632 216.845 42.264 216.845H40.0518L40.0187 216.369C39.969 215.653 39.6779 215.166 39.1125 214.852C38.8672 214.716 38.7032 214.697 37.4886 214.665L36.1375 214.629L35.9878 214.17C35.4813 212.617 33.8495 211.699 32.2912 212.09ZM33.8868 213.648C34.4618 213.97 34.7334 214.436 34.8085 215.227C34.8452 215.615 34.8826 215.713 35.0562 215.878L35.2607 216.071H36.883C38.0539 216.071 38.5282 216.095 38.5873 216.155C38.6814 216.252 38.7045 218.718 38.6127 218.867C38.5696 218.937 37.4022 218.951 33.0031 218.937L27.4481 218.919L27.4294 217.592C27.4166 216.673 27.4349 216.235 27.489 216.168C27.5514 216.091 27.8953 216.071 29.2011 216.071H30.8351L31.0345 215.865C31.1944 215.701 31.2339 215.599 31.2339 215.351C31.2339 215.181 31.2823 214.874 31.3413 214.669C31.474 214.208 31.9548 213.683 32.3972 213.516C32.8418 213.348 33.4482 213.402 33.8868 213.648ZM43.8871 223.695C43.6551 223.934 43.6075 224.194 43.7425 224.486C43.8711 224.764 44.1984 224.938 44.4851 224.882C44.7528 224.829 45.013 224.484 45.013 224.182C45.013 223.618 44.2728 223.297 43.8871 223.695ZM26.6219 225C26.1776 225.187 26.0519 225.788 26.3855 226.132L26.5849 226.338H33.1079C40.3256 226.338 39.9475 226.362 40.099 225.889C40.1957 225.587 40.138 225.343 39.9198 225.132L39.7496 224.967L33.2578 224.953C29.6872 224.945 26.7011 224.967 26.6219 225ZM26.6219 230.134C26.1779 230.319 26.0519 230.922 26.3855 231.266L26.5849 231.471H31.575H36.565L36.7644 231.266C37.0944 230.926 37.005 230.379 36.5859 230.174C36.3913 230.078 35.7613 230.065 31.5647 230.069C28.9254 230.072 26.7011 230.101 26.6219 230.134ZM45.1835 231.549C48.432 231.96 50.9908 234.466 51.5629 237.797C51.6737 238.443 51.6552 239.772 51.5258 240.466C50.9943 243.319 48.9111 245.596 46.1385 246.356C45.5314 246.522 45.3326 246.543 44.3308 246.543C43.3377 246.543 43.1282 246.521 42.5492 246.362C39.4111 245.497 37.1985 242.699 37.0507 239.408C36.988 238.013 37.2276 236.885 37.8554 235.62C39.0715 233.171 41.566 231.559 44.2626 231.481C44.4315 231.476 44.8459 231.507 45.1835 231.549ZM44.1407 233.104C43.8888 233.172 43.6494 233.507 43.649 233.794C43.6488 233.945 43.5832 234.001 43.2126 234.167C42.9728 234.275 42.6542 234.471 42.5046 234.603C41.7625 235.258 41.4296 236.402 41.704 237.354C41.8958 238.02 42.3927 238.54 43.2528 238.975L43.6413 239.171L43.645 241.026L43.6487 242.881L43.427 242.836C43.3051 242.811 42.9564 242.663 42.6522 242.507C42.0366 242.191 41.8662 242.188 41.5707 242.493C41.3069 242.765 41.3288 243.167 41.6233 243.453C41.9387 243.759 42.6628 244.107 43.1974 244.208C43.6298 244.29 43.6487 244.302 43.6487 244.496C43.6487 244.79 43.8244 245.094 44.0702 245.225C44.246 245.319 44.3307 245.326 44.539 245.261C44.8574 245.163 45.013 244.924 45.013 244.535C45.013 244.233 45.0142 244.232 45.3711 244.102C46.7255 243.608 47.5848 242.151 47.3897 240.68C47.2436 239.579 46.6236 238.906 45.2006 238.304L45.013 238.225V236.817C45.013 235.75 45.0333 235.409 45.0969 235.409C45.1431 235.409 45.3607 235.524 45.5805 235.664C45.9125 235.875 46.0224 235.911 46.2298 235.877C46.7274 235.795 46.9648 235.169 46.653 234.761C46.4905 234.548 45.6739 234.096 45.3119 234.018C45.0742 233.967 45.0444 233.936 45.0071 233.699C44.9605 233.404 44.7345 233.117 44.513 233.074C44.4316 233.058 44.264 233.071 44.1407 233.104ZM26.6219 235.266C26.1773 235.454 26.0519 236.055 26.3855 236.399L26.5849 236.605H30.0061H33.4272L33.6266 236.399C33.8988 236.118 33.8989 235.777 33.627 235.463L33.428 235.233L30.097 235.219C28.2649 235.211 26.7011 235.233 26.6219 235.266ZM43.6345 237.072L43.6146 237.61L43.3905 237.416C42.8311 236.93 42.8317 236.215 43.3918 235.675L43.6146 235.46L43.6345 235.997C43.6455 236.293 43.6455 236.776 43.6345 237.072ZM45.3974 239.947C46.1183 240.382 46.2616 241.469 45.6959 242.21C45.5465 242.406 45.1584 242.723 45.068 242.723C45.0377 242.723 45.013 242.058 45.013 241.246C45.013 240.434 45.0333 239.769 45.0581 239.769C45.083 239.769 45.2356 239.849 45.3974 239.947ZM26.683 240.38C26.5998 240.397 26.4541 240.506 26.359 240.623C26.1157 240.921 26.1257 241.265 26.3855 241.533L26.5849 241.738H30.0061H33.4272L33.6266 241.533C33.8988 241.252 33.8989 240.91 33.627 240.596L33.428 240.367L30.1311 240.358C28.3178 240.352 26.7661 240.362 26.683 240.38Z" fill="#E49B00"/>
<path fill-rule="evenodd" clip-rule="evenodd" d="M19.4227 309.061C19.3452 309.091 19.2184 309.182 19.1409 309.263C19.0008 309.41 19 309.504 19 326.021V342.631L19.1954 342.816L19.3906 343H33.1957H47.0007L47.196 342.816L47.3914 342.631V337.017V331.403L47.1977 331.22C46.9094 330.948 46.4972 330.962 46.2218 331.253L46.0176 331.469V336.586V341.704H33.1957H20.3738V326.016V310.327H29.0039H37.6341L37.6348 313.834C37.6352 315.763 37.6552 317.453 37.6792 317.589C37.7032 317.726 37.8023 317.913 37.8994 318.005L38.076 318.171H42.0468H46.0176V322.031C46.0176 324.743 46.041 325.935 46.0963 326.037C46.2233 326.271 46.4579 326.411 46.7221 326.411C46.9864 326.411 47.2209 326.271 47.3479 326.037C47.4034 325.934 47.4266 324.646 47.4266 321.662C47.4266 318.116 47.4103 317.405 47.3255 317.254C47.2033 317.037 38.8613 309.176 38.6426 309.071C38.4586 308.983 19.6493 308.973 19.4227 309.061ZM51.7084 309.114C51.5587 309.201 51.2573 309.744 50.3347 311.588L49.1526 313.95V327.949V341.947L49.3658 342.272C49.498 342.474 49.7102 342.674 49.9239 342.799L50.2688 343H52.0763H53.8839L54.2287 342.799C54.4425 342.674 54.6547 342.474 54.7868 342.272L55 341.947V327.949V313.95L53.8164 311.586C52.8519 309.66 52.5956 309.201 52.4317 309.11C52.1788 308.969 51.9537 308.97 51.7084 309.114ZM42.0724 314.083L44.9955 316.842H42.0544H39.1135V314.083C39.1135 312.566 39.1216 311.324 39.1315 311.324C39.1413 311.324 40.4647 312.566 42.0724 314.083ZM52.6599 312.405L53.1941 313.485L52.6352 313.504C52.3278 313.515 51.8248 313.515 51.5174 313.504L50.9586 313.485L51.4927 312.405C51.7865 311.811 52.0491 311.324 52.0763 311.324C52.1035 311.324 52.3662 311.811 52.6599 312.405ZM53.6262 326.248V337.649H52.0763H50.5264V326.248V314.848H52.0763H53.6262V326.248ZM24.4951 316.107C24.0466 316.28 23.9274 316.835 24.2692 317.158L24.4629 317.341L26.6629 317.36C27.873 317.371 28.9371 317.362 29.0275 317.341C29.118 317.319 29.2686 317.224 29.3622 317.129C29.6652 316.82 29.5513 316.321 29.1319 316.118C28.9503 316.031 24.7194 316.02 24.4951 316.107ZM31.2935 316.129C31.0284 316.253 30.8479 316.643 30.9446 316.883C31.117 317.311 31.5173 317.474 31.917 317.279C32.1768 317.152 32.2798 316.991 32.2798 316.709C32.2798 316.431 32.1772 316.266 31.929 316.145C31.6804 316.023 31.5265 316.02 31.2935 316.129ZM24.4951 320.096C24.0466 320.269 23.9274 320.824 24.2693 321.146L24.4631 321.329L33.16 321.346L41.857 321.364L42.0864 321.17C42.2764 321.01 42.3158 320.929 42.3158 320.698C42.3158 320.466 42.2764 320.385 42.0873 320.225L41.8588 320.033L33.2474 320.037C28.5111 320.039 24.5726 320.066 24.4951 320.096ZM24.4951 324.084C24.0466 324.257 23.9274 324.812 24.2693 325.135L24.4631 325.318L33.16 325.335L41.857 325.352L42.0864 325.159C42.2764 324.999 42.3158 324.918 42.3158 324.686C42.3158 324.455 42.2764 324.373 42.0873 324.214L41.8588 324.021L33.2474 324.025C28.5111 324.028 24.5726 324.054 24.4951 324.084ZM24.4951 328.073C24.0466 328.246 23.9274 328.801 24.2693 329.123L24.4631 329.306L33.16 329.323L41.857 329.341L42.0864 329.147C42.2764 328.987 42.3158 328.906 42.3158 328.675C42.3158 328.443 42.2764 328.362 42.0873 328.202L41.8588 328.01L33.2474 328.014C28.5111 328.016 24.5726 328.043 24.4951 328.073ZM46.4676 328.072C46.2443 328.161 46.0176 328.469 46.0176 328.682C46.0176 328.798 46.0978 328.957 46.2218 329.087C46.6456 329.535 47.3882 329.272 47.3882 328.675C47.3882 328.233 46.8872 327.905 46.4676 328.072ZM24.4951 332.061C24.0466 332.234 23.9274 332.789 24.2693 333.112L24.4631 333.295L33.16 333.312L41.857 333.329L42.0864 333.136C42.2764 332.976 42.3158 332.895 42.3158 332.663C42.3158 332.432 42.2764 332.35 42.0873 332.191L41.8588 331.998L33.2474 332.003C28.5111 332.005 24.5726 332.031 24.4951 332.061ZM24.4951 336.05C24.0466 336.223 23.9274 336.778 24.2693 337.1L24.4631 337.283L33.16 337.301L41.857 337.318L42.0864 337.125C42.2764 336.964 42.3158 336.883 42.3158 336.652C42.3158 336.42 42.2764 336.339 42.0873 336.179L41.8588 335.987L33.2474 335.991C28.5111 335.993 24.5726 336.02 24.4951 336.05ZM53.6262 340.261C53.6262 341.17 53.6016 341.567 53.5417 341.624C53.4223 341.737 50.7304 341.737 50.611 341.624C50.5511 341.567 50.5264 341.17 50.5264 340.261V338.978H52.0763H53.6262V340.261Z" fill="#E49B00"/>
</svg>
