<svg width="85" height="71" viewBox="0 0 85 71" fill="none" xmlns="http://www.w3.org/2000/svg">
<path fill-rule="evenodd" clip-rule="evenodd" d="M36.0424 0.0807178C34.8235 0.298018 34.27 1.48524 35.0536 2.20128C35.3516 2.47353 35.6793 2.5218 37.3262 2.53516C38.8587 2.54752 39.4499 2.62419 40.2288 2.91164C41.3476 3.32436 42.5555 4.06679 43.1442 4.70349C43.3662 4.94367 43.7569 5.25 44.0123 5.38429C44.4322 5.60509 44.5734 5.59474 45.4841 5.27622C48.2915 4.29428 51.0838 4.94217 53.0364 7.02865C54.06 8.12251 54.6666 9.33043 54.9518 10.8437C55.2627 12.4924 55.8653 12.9348 57.1314 12.4441C57.9307 12.1343 59.6491 12.226 60.7319 12.6362C62.0677 13.1423 63.282 14.3694 63.7836 15.7197C64.2771 17.0487 64.2221 19.0122 63.6588 20.1729C63.1564 21.2085 62.1903 22.1928 61.1145 22.7657L60.2411 23.2306H42.3909H24.5406L23.6315 22.7974C22.5318 22.2731 21.4721 21.2332 20.9578 20.1732C20.4053 19.0348 20.34 17.0472 20.813 15.7735C21.7295 13.306 24.2692 11.8742 26.8958 12.3441C28.9511 12.7115 29.4163 12.4273 29.4163 10.8038C29.4163 8.94761 30.1763 6.86463 31.3939 5.38245C32.4097 4.14629 32.2626 3.15984 31.0161 2.84549C30.6039 2.74144 30.4505 2.8318 29.6925 3.62584C28.3964 4.98326 27.5059 6.87833 27.0333 9.284C26.956 9.67852 26.8885 9.70257 25.8146 9.72077C23.8438 9.75401 21.8181 10.6152 20.3253 12.0543L19.3975 12.9484L12.1219 12.9951L4.84608 13.0421L4.23917 13.5101C3.0194 14.4504 3.05411 14.1939 3.05411 22.2846V29.5228L3.51789 29.926C4.10315 30.435 4.48412 30.435 5.06954 29.9264L5.53332 29.5235L5.58456 24.9991L5.63563 20.4747H11.9864H18.3369L18.7397 21.278C19.7493 23.2913 21.5399 24.8463 23.5828 25.484C24.3675 25.7289 25.1224 25.8195 26.376 25.8195H28.0941V27.9074V29.9952H25.2268H22.3595L22.0609 29.3261C21.0639 27.092 18.2794 26.0265 16.1078 27.0485C11.8895 29.0335 12.8543 35.1484 17.4836 35.7689C19.2037 35.9996 21.1978 34.8825 21.9796 33.2504L22.3387 32.5006H26.0336C29.7003 32.5006 29.732 32.4976 30.1922 32.0977L30.6559 31.695L30.711 28.7572L30.7659 25.8195H32.8183H34.8706V32.25V38.6805H33.1603H31.45L31.1513 38.0114C30.1543 35.7773 27.3698 34.7118 25.1982 35.7339C21.6941 37.3827 21.5863 42.1952 25.0136 43.9797C26.2116 44.6036 27.825 44.6053 29.018 43.9839C29.9499 43.4986 30.8237 42.5898 31.1748 41.7409L31.4042 41.1859H34.0344H36.6647L37.0072 40.7458C37.3419 40.316 37.3498 40.1373 37.3498 33.0626V25.8195H39.4158H41.4818V34.396V42.9724L40.8197 43.2742C38.1542 44.4888 37.3599 48.0949 39.2629 50.3418C41.0929 52.5022 44.3499 52.5022 46.1799 50.3418C48.083 48.0949 47.2886 44.4888 44.6231 43.2742L43.961 42.9724V34.396V25.8195H46.027H48.093V33.0626C48.093 40.1373 48.101 40.316 48.4357 40.7458L48.7781 41.1859H51.4084H54.0387L54.2681 41.7409C54.6191 42.5898 55.493 43.4986 56.4248 43.9839C57.0972 44.334 57.4985 44.422 58.4231 44.422C63.2962 44.422 64.6801 37.821 60.2446 35.7339C58.073 34.7118 55.2885 35.7773 54.2915 38.0114L53.9929 38.6805H52.2826H50.5722V32.25V25.8195H52.6382H54.7043V28.724C54.7043 32.7413 54.2983 32.4037 59.2043 32.4672L63.0731 32.5173L63.2742 33.0792C63.5519 33.8555 64.6647 34.9684 65.587 35.3923C66.6277 35.8708 68.2293 35.873 69.2636 35.3973C70.2046 34.9647 71.1728 34.0045 71.5784 33.102C72.0561 32.0389 72.0056 30.2883 71.4657 29.1933C70.0859 26.3953 66.4554 25.7873 64.2763 27.9894C63.8529 28.4171 63.4078 29.0435 63.2868 29.3812L63.0671 29.9952H60.1253H57.1835V27.9074V25.8195H58.571C61.7553 25.8195 64.4345 24.154 65.8767 21.278L66.2795 20.4747H72.6364H78.9932L79.0382 34.5194L79.0831 48.5641L79.5469 48.9671C80.1321 49.4759 80.5133 49.4759 81.0985 48.967L81.5623 48.5639V31.7777V14.9916L81.0665 14.2846C80.1113 12.9228 80.3467 12.9586 72.3312 12.9586H65.2437L64.2563 12.0346C62.5774 10.4639 60.8757 9.76871 58.6057 9.72612L57.2973 9.70157L57.0137 8.85792C55.9201 5.60493 53.258 3.22414 49.9111 2.50543C48.5147 2.20562 47.5331 2.21046 46.028 2.52447L44.8035 2.78019L44.0235 2.17856C42.9693 1.36548 41.585 0.678002 40.3493 0.354473C39.1224 0.0332825 37.0487 -0.0986678 36.0424 0.0807178ZM18.0781 16.5079C18.0264 17.0821 17.9555 17.6458 17.9206 17.7606C17.8713 17.9227 16.4889 17.9693 11.7365 17.9693H5.61596V16.7166V15.464H11.8941H18.1722L18.0781 16.5079ZM79.0005 16.7166V17.9693H72.88C68.1275 17.9693 66.7451 17.9227 66.6958 17.7606C66.661 17.6458 66.5901 17.0821 66.5383 16.5079L66.4443 15.464H72.7223H79.0005V16.7166ZM18.8334 29.3737C19.4081 29.6677 19.9954 30.6149 19.9954 31.2479C19.9954 31.9992 19.3696 32.8588 18.6101 33.151C17.2284 33.6824 15.7506 32.52 15.9123 31.0287C16.0693 29.5808 17.5727 28.7291 18.8334 29.3737ZM68.4062 29.4021C69.0787 29.7535 69.4142 30.3713 69.4142 31.2587C69.4142 31.9138 69.3293 32.1188 68.862 32.5909C68.246 33.2134 67.6487 33.4272 66.9914 33.2604C66.7497 33.1991 66.3035 32.8979 65.9997 32.5909C65.5324 32.1188 65.4475 31.9138 65.4475 31.2587C65.4475 30.8218 65.5658 30.302 65.719 30.0657C66.2702 29.2155 67.4784 28.9172 68.4062 29.4021ZM3.59772 33.8465C3.44236 33.9382 3.23824 34.2928 3.14419 34.6348C3.03329 35.0382 2.97296 39.8368 2.97247 48.3049L2.97147 61.3533L2.30837 61.4605C1.47965 61.5944 0.4207 62.5236 0.149145 63.3554C-0.178441 64.3586 0.0534471 66.2779 0.650605 67.5035C1.28925 68.8145 2.62356 70.0824 3.92233 70.6123L4.8722 71H42.3082H79.7442L80.6941 70.6123C81.9929 70.0824 83.3272 68.8145 83.9658 67.5035C84.563 66.2779 84.7949 64.3586 84.4673 63.3554C84.1957 62.5236 83.1368 61.5944 82.3081 61.4605L81.645 61.3533L81.6357 57.7418C81.6296 55.4038 81.5567 53.9256 81.4291 53.5493C81.0481 52.4277 79.5973 52.4277 79.2163 53.5493C79.0886 53.926 79.0158 55.4085 79.0097 57.7632L79.0005 61.396H54.799H30.5973L30.2548 61.8361C29.8277 62.3848 29.8188 62.9128 30.2282 63.4235L30.5441 63.8179L56.3012 63.9014L82.0582 63.9849L82.1122 64.5592C82.241 65.9243 81.3941 67.4243 80.1001 68.1236L79.4137 68.4946H42.3082H5.20276L4.51635 68.1236C3.22237 67.4243 2.37547 65.9243 2.50423 64.5592L2.55827 63.9849L14.2666 63.9014L25.9747 63.8179L26.2907 63.4235C26.7 62.9128 26.691 62.3848 26.264 61.8361L25.9215 61.396H15.7686H5.61596L5.61497 48.3263C5.61447 39.8078 5.55431 35.039 5.44258 34.6322C5.20177 33.7563 4.35983 33.3975 3.59772 33.8465ZM28.3607 38.3939C29.5286 39.4756 29.1854 41.2653 27.7006 41.8363C26.8287 42.1717 25.8684 41.8425 25.3164 41.0189C24.4194 39.6805 25.4043 37.8454 27.0198 37.8454C27.6356 37.8454 27.8735 37.9428 28.3607 38.3939ZM59.764 38.3939C60.9319 39.4756 60.5887 41.2653 59.1039 41.8363C58.232 42.1717 57.2717 41.8425 56.7197 41.0189C55.8227 39.6805 56.8076 37.8454 58.4231 37.8454C59.0389 37.8454 59.2767 37.9428 59.764 38.3939ZM44.0623 45.9101C45.2302 46.9917 44.8871 48.7814 43.4022 49.3525C42.5304 49.6879 41.5701 49.3586 41.018 48.535C40.1211 47.1967 41.106 45.3616 42.7214 45.3616C43.3373 45.3616 43.5751 45.4589 44.0623 45.9101Z" fill="#E49B00"/>
</svg>
