<svg width="2215" height="128" viewBox="0 0 2215 128" fill="none" xmlns="http://www.w3.org/2000/svg">
<path d="M6.16231 31.921L7.03648 32.4067L7.03898 32.4021L6.16231 31.921ZM20.8455 17.0029L21.3358 17.8745L21.3393 17.8725L20.8455 17.0029ZM67.4793 19.3522L68.075 18.549L68.075 18.549L67.4793 19.3522ZM81.4577 40.496V41.496H82.7549L82.4248 40.2415L81.4577 40.496ZM59.3742 40.496L58.4717 40.9267L58.7434 41.496H59.3742V40.496ZM52.3262 32.6258L51.8084 33.4814L51.8183 33.4872L52.3262 32.6258ZM27.0712 36.3847L27.8178 37.0499L27.8178 37.0499L27.0712 36.3847ZM27.0712 70.9196L26.3245 71.5848L27.0712 70.9196ZM52.3262 74.6785L51.8182 73.817L51.8084 73.823L52.3262 74.6785ZM59.3742 66.8083V65.8083H58.7434L58.4717 66.3776L59.3742 66.8083ZM81.4577 66.8083L82.4248 67.0628L82.7549 65.8083H81.4577V66.8083ZM67.4793 87.9521L68.0691 88.7596L68.075 88.7553L67.4793 87.9521ZM20.8455 90.3014L20.347 91.1683L20.3534 91.172L20.3599 91.1755L20.8455 90.3014ZM6.16231 75.3833L7.03647 74.8976L7.03647 74.8976L6.16231 75.3833ZM1.87636 53.6521C1.87636 45.6566 3.60474 38.5838 7.03647 32.4067L5.28815 31.4354C1.67195 37.9445 -0.123639 45.3591 -0.123639 53.6521H1.87636ZM7.03898 32.4021C10.4749 26.1411 15.2369 21.3051 21.3358 17.8745L20.3552 16.1313C13.9244 19.7487 8.89762 24.8581 5.28564 31.4399L7.03898 32.4021ZM21.3393 17.8725C27.5179 14.3637 34.5103 12.5995 42.3417 12.5995V10.5995C34.1978 10.5995 26.8594 12.4376 20.3517 16.1333L21.3393 17.8725ZM42.3417 12.5995C51.9447 12.5995 60.1081 15.1309 66.8836 20.1555L68.075 18.549C60.9113 13.2366 52.3162 10.5995 42.3417 10.5995V12.5995ZM66.8836 20.1555C73.6585 25.1795 78.1952 32.0279 80.4906 40.7505L82.4248 40.2415C80.0216 31.1094 75.2393 23.8619 68.075 18.549L66.8836 20.1555ZM81.4577 39.496H59.3742V41.496H81.4577V39.496ZM60.2767 40.0653C58.5533 36.4545 56.0731 33.6745 52.8342 31.7645L51.8183 33.4872C54.6876 35.1794 56.906 37.6462 58.4717 40.9267L60.2767 40.0653ZM52.8441 31.7703C49.6963 29.8651 46.1071 28.9241 42.1067 28.9241V30.9241C45.7808 30.9241 49.0046 31.7843 51.8084 33.4813L52.8441 31.7703ZM42.1067 28.9241C35.6583 28.9241 30.3664 31.1827 26.3245 35.7195L27.8178 37.0499C31.4503 32.9726 36.1822 30.9241 42.1067 30.9241V28.9241ZM26.3245 35.7195C22.2864 40.2521 20.3154 46.2657 20.3154 53.6521H22.3154C22.3154 46.6295 24.1816 41.1314 27.8178 37.0499L26.3245 35.7195ZM20.3154 53.6521C20.3154 61.0386 22.2864 67.0522 26.3245 71.5848L27.8178 70.2544C24.1816 66.1728 22.3154 60.6748 22.3154 53.6521H20.3154ZM26.3245 71.5848C30.3664 76.1216 35.6583 78.3802 42.1067 78.3802L42.1067 76.3802C36.1822 76.3802 31.4503 74.3316 27.8178 70.2544L26.3245 71.5848ZM42.1067 78.3802C46.1071 78.3802 49.6963 77.4392 52.8441 75.534L51.8084 73.823C49.0046 75.52 45.7808 76.3802 42.1067 76.3802L42.1067 78.3802ZM52.8342 75.5398C56.0731 73.6298 58.5533 70.8498 60.2767 67.239L58.4717 66.3776C56.906 69.6581 54.6876 72.1249 51.8183 73.8171L52.8342 75.5398ZM59.3742 67.8083H81.4577V65.8083H59.3742V67.8083ZM80.4906 66.5538C78.1952 75.2764 73.6585 82.1247 66.8836 87.1488L68.075 88.7553C75.2393 83.4424 80.0216 76.1949 82.4248 67.0628L80.4906 66.5538ZM66.8895 87.1445C60.1136 92.0932 51.9481 94.5873 42.3417 94.5873V96.5873C52.3128 96.5873 60.9057 93.9913 68.0691 88.7596L66.8895 87.1445ZM42.3417 94.5873C34.5064 94.5873 27.5111 92.8605 21.3311 89.4272L20.3599 91.1755C26.8662 94.7902 34.2016 96.5873 42.3417 96.5873V94.5873ZM21.344 89.4345C15.2374 85.9232 10.4726 81.0826 7.03647 74.8976L5.28815 75.8689C8.89999 82.3702 13.924 87.475 20.347 91.1683L21.344 89.4345ZM7.03647 74.8976C3.60474 68.7205 1.87636 61.6476 1.87636 53.6521H-0.123639C-0.123639 61.9452 1.67195 69.3597 5.28815 75.8689L7.03647 74.8976ZM108.559 91.8284L108.085 92.7089L108.091 92.7119L108.559 91.8284ZM96.4602 80.0819L95.5911 80.5766L95.5969 80.5866L96.4602 80.0819ZM96.5777 44.4898L97.441 44.9945L97.4443 44.9888L96.5777 44.4898ZM108.794 32.6258L109.263 33.5093L109.263 33.5093L108.794 32.6258ZM143.564 32.6258L143.095 33.5093L143.095 33.5093L143.564 32.6258ZM155.78 44.4898L154.914 44.9888L154.917 44.9945L155.78 44.4898ZM155.663 80.0819L154.802 79.5731L154.8 79.5772L155.663 80.0819ZM143.329 91.8284L142.866 90.9421L142.86 90.945L143.329 91.8284ZM135.694 74.3261L134.977 73.629L134.972 73.6342L134.967 73.6394L135.694 74.3261ZM135.811 50.1282L135.074 50.8039L135.079 50.8094L135.084 50.8148L135.811 50.1282ZM116.429 50.1282L117.157 50.8143L117.167 50.8039L116.429 50.1282ZM116.312 74.3261L115.564 74.9904L115.57 74.9962L115.575 75.0018L116.312 74.3261ZM125.944 94.9397C119.67 94.9397 114.038 93.602 109.028 90.945L108.091 92.7119C113.417 95.5366 119.376 96.9397 125.944 96.9397V94.9397ZM109.033 90.948C104.108 88.296 100.209 84.512 97.3235 79.5772L95.5969 80.5866C98.6635 85.8321 102.83 89.8791 108.085 92.7089L109.033 90.948ZM97.3293 79.5872C94.5307 74.6708 93.114 68.8952 93.114 62.2271H91.114C91.114 69.185 92.5948 75.3126 95.5912 80.5766L97.3293 79.5872ZM93.114 62.2271C93.114 55.6442 94.5668 49.9108 97.441 44.9945L95.7144 43.9851C92.637 49.2492 91.114 55.3407 91.114 62.2271H93.114ZM97.4443 44.9888C100.328 39.98 104.264 36.1602 109.263 33.5093L108.326 31.7424C102.988 34.5732 98.7788 38.6627 95.7111 43.9909L97.4443 44.9888ZM109.263 33.5093C114.273 30.8522 119.905 29.5145 126.179 29.5145V27.5145C119.61 27.5145 113.652 28.9177 108.326 31.7424L109.263 33.5093ZM126.179 29.5145C132.453 29.5145 138.085 30.8522 143.095 33.5093L144.032 31.7424C138.706 28.9177 132.748 27.5145 126.179 27.5145V29.5145ZM143.095 33.5093C148.094 36.1602 152.03 39.98 154.914 44.9888L156.647 43.9909C153.579 38.6627 149.371 34.5732 144.032 31.7424L143.095 33.5093ZM154.917 44.9945C157.791 49.9108 159.244 55.6442 159.244 62.2271H161.244C161.244 55.3407 159.721 49.2492 156.644 43.9851L154.917 44.9945ZM159.244 62.2271C159.244 68.8052 157.754 74.5769 154.802 79.5732L156.524 80.5906C159.68 75.2499 161.244 69.1185 161.244 62.2271H159.244ZM154.8 79.5772C151.919 84.5044 147.947 88.2879 142.866 90.9421L143.792 92.7148C149.205 89.8872 153.455 85.8397 156.526 80.5866L154.8 79.5772ZM142.86 90.945C137.85 93.602 132.218 94.9397 125.944 94.9397V96.9397C132.513 96.9397 138.471 95.5366 143.797 92.7119L142.86 90.945ZM125.944 79.5548C130.06 79.5548 133.572 78.0295 136.421 75.0127L134.967 73.6394C132.491 76.261 129.503 77.5548 125.944 77.5548V79.5548ZM136.411 75.0232C139.387 71.9617 140.805 67.6447 140.805 62.2271H138.805C138.805 67.3031 137.482 71.0521 134.977 73.629L136.411 75.0232ZM140.805 62.2271C140.805 56.8168 139.43 52.5038 136.538 49.4416L135.084 50.8148C137.517 53.3909 138.805 57.1438 138.805 62.2271H140.805ZM136.548 49.4525C133.774 46.4259 130.295 44.8994 126.179 44.8994V46.8994C129.737 46.8994 132.68 48.1922 135.074 50.8039L136.548 49.4525ZM126.179 44.8994C121.991 44.8994 118.471 46.4211 115.692 49.4525L117.167 50.8039C119.556 48.1969 122.536 46.8994 126.179 46.8994V44.8994ZM115.702 49.4422C112.881 52.4334 111.553 56.7527 111.553 62.2271H113.553C113.553 57.0513 114.809 53.3047 117.157 50.8142L115.702 49.4422ZM111.553 62.2271C111.553 67.6231 112.842 71.9275 115.564 74.9904L117.059 73.6617C114.77 71.0863 113.553 67.3248 113.553 62.2271H111.553ZM115.575 75.0018C118.349 78.0284 121.828 79.5548 125.944 79.5548V77.5548C122.386 77.5548 119.443 76.2621 117.049 73.6503L115.575 75.0018ZM173.015 44.3724L172.123 43.9196L172.118 43.9307L173.015 44.3724ZM183.469 32.6258L183.999 33.4738L183.999 33.4738L183.469 32.6258ZM209.899 31.2162L209.444 32.1067L209.452 32.1107L209.899 31.2162ZM218.356 38.4991L217.524 39.0538L219.356 41.8019V38.4991H218.356ZM218.356 8.07553V7.07553H217.356V8.07553H218.356ZM238.443 8.07553H239.443V7.07553H238.443V8.07553ZM238.443 95V96H239.443V95H238.443ZM218.356 95H217.356V96H218.356V95ZM218.356 85.6028H219.356V81.9924L217.499 85.0883L218.356 85.6028ZM210.251 93.1206L209.781 92.2382L209.772 92.2427L210.251 93.1206ZM183.469 91.8284L182.928 92.6697L182.939 92.6764L183.469 91.8284ZM173.015 79.9644L172.115 80.4007L172.119 80.4089L172.123 80.4171L173.015 79.9644ZM214.128 50.3631L213.401 51.0504L213.411 51.0605L214.128 50.3631ZM193.806 50.3631L193.089 49.6658L193.089 49.666L193.806 50.3631ZM193.806 74.0911L193.071 74.7686L193.08 74.7787L193.089 74.7885L193.806 74.0911ZM214.128 74.0911L213.411 73.3937L213.401 73.4039L214.128 74.0911ZM170.256 62.1097C170.256 55.4997 171.485 49.7434 173.912 44.8141L172.118 43.9307C169.532 49.1817 168.256 55.2502 168.256 62.1097H170.256ZM173.906 44.8251C176.417 39.8797 179.784 36.1084 183.999 33.4738L182.939 31.7778C178.384 34.6249 174.781 38.6847 172.123 43.9197L173.906 44.8251ZM183.999 33.4738C188.218 30.8369 192.927 29.5145 198.152 29.5145V27.5145C192.57 27.5145 187.491 28.9331 182.939 31.7778L183.999 33.4738ZM198.152 29.5145C202.315 29.5145 206.073 30.3838 209.444 32.1067L210.354 30.3258C206.677 28.4464 202.603 27.5145 198.152 27.5145V29.5145ZM209.452 32.1107C212.914 33.8417 215.594 36.1583 217.524 39.0538L219.188 37.9444C217.047 34.7317 214.088 32.193 210.346 30.3218L209.452 32.1107ZM219.356 38.4991V8.07553H217.356V38.4991L219.356 38.4991ZM218.356 9.07553H238.443V7.07553H218.356V9.07553ZM237.443 8.07553L237.443 95H239.443L239.443 8.07553H237.443ZM238.443 94H218.356V96H238.443V94ZM219.356 95V85.6028L217.356 85.6028V95H219.356ZM217.499 85.0883C215.721 88.0509 213.16 90.4358 209.781 92.2382L210.722 94.0029C214.39 92.0464 217.233 89.4194 219.214 86.1173L217.499 85.0883ZM209.772 92.2427C206.498 94.0289 202.635 94.9397 198.152 94.9397V96.9397C202.91 96.9397 207.114 95.9711 210.73 93.9984L209.772 92.2427ZM198.152 94.9397C192.927 94.9397 188.218 93.6174 183.999 90.9804L182.939 92.6764C187.491 95.5212 192.57 96.9397 198.152 96.9397V94.9397ZM184.01 90.9873C179.788 88.2731 176.418 84.459 173.906 79.5117L172.123 80.4171C174.78 85.6501 178.38 89.7454 182.928 92.6696L184.01 90.9873ZM173.915 79.5281C171.485 74.5172 170.256 68.7192 170.256 62.1097H168.256C168.256 68.9695 169.533 75.0747 172.115 80.4007L173.915 79.5281ZM219.356 62.2271C219.356 57.0207 217.886 52.7923 214.844 49.6658L213.411 51.0605C216.007 53.7288 217.356 57.4099 217.356 62.2271L219.356 62.2271ZM214.854 49.6759C211.924 46.5784 208.294 45.0169 204.026 45.0169V47.0169C207.745 47.0169 210.849 48.3528 213.401 51.0503L214.854 49.6759ZM204.026 45.0169C199.758 45.0169 196.094 46.5775 193.089 49.6658L194.523 51.0605C197.156 48.3538 200.305 47.0169 204.026 47.0169V45.0169ZM193.089 49.666C190.121 52.7193 188.695 56.9122 188.695 62.1097H190.695C190.695 57.2834 192.01 53.6452 194.523 51.0602L193.089 49.666ZM188.695 62.1097C188.695 67.3098 190.121 71.5667 193.071 74.7686L194.542 73.4137C192.009 70.664 190.695 66.9332 190.695 62.1097H188.695ZM193.089 74.7885C196.094 77.8768 199.758 79.4374 204.026 79.4374V77.4374C200.305 77.4374 197.156 76.1004 194.523 73.3938L193.089 74.7885ZM204.026 79.4374C208.294 79.4374 211.924 77.8758 214.854 74.7783L213.401 73.4039C210.849 76.1014 207.745 77.4374 204.026 77.4374V79.4374ZM214.844 74.7885C217.886 71.6619 219.356 67.4336 219.356 62.2271L217.356 62.2271C217.356 67.0444 216.007 70.7254 213.411 73.3938L214.844 74.7885ZM316.759 67.0432V68.0432H317.65L317.752 67.1578L316.759 67.0432ZM271.299 67.0432V66.0432H270.219L270.302 67.1199L271.299 67.0432ZM275.176 76.4405L274.481 77.1599L274.494 77.172L274.507 77.1837L275.176 76.4405ZM294.205 73.2689V72.2689H293.566L293.298 72.8488L294.205 73.2689ZM315.584 73.2689L316.553 73.5156L316.87 72.2689H315.584V73.2689ZM309.593 84.898L308.828 84.2543L308.819 84.2647L309.593 84.898ZM298.904 93.0031L299.318 93.9135L298.904 93.0031ZM267.306 91.8284L266.826 92.7058L266.826 92.7058L267.306 91.8284ZM255.559 80.0819L256.434 79.5974L256.434 79.5974L255.559 80.0819ZM255.442 44.3724L254.567 43.8878L254.561 43.8983L255.442 44.3724ZM267.188 32.6258L267.668 33.5032L267.668 33.5032L267.188 32.6258ZM301.371 32.5084L300.896 33.3884L300.896 33.3884L301.371 32.5084ZM312.882 43.9025L312.008 44.3882L312.014 44.3986L312.882 43.9025ZM296.554 55.884V56.884H297.554V55.884H296.554ZM293.03 47.6614L293.685 46.9057L293.685 46.9057L293.03 47.6614ZM275.646 47.5439L275.005 46.7757L274.999 46.7811L274.993 46.7865L275.646 47.5439ZM271.417 55.884L270.428 55.7335L270.253 56.884H271.417V55.884ZM316.111 61.1699C316.111 63.0078 315.996 64.9272 315.765 66.9286L317.752 67.1578C317.991 65.0871 318.111 63.0909 318.111 61.1699H316.111ZM316.759 66.0432L271.299 66.0432V68.0432L316.759 68.0432V66.0432ZM270.302 67.1199C270.629 71.3625 271.987 74.7521 274.481 77.1599L275.87 75.721C273.822 73.7434 272.597 70.8682 272.296 66.9665L270.302 67.1199ZM274.507 77.1837C277.052 79.4748 280.154 80.612 283.751 80.612V78.612C280.613 78.612 277.998 77.6349 275.845 75.6972L274.507 77.1837ZM283.751 80.612C286.398 80.612 288.711 80.0529 290.642 78.8812C292.578 77.7067 294.063 75.9571 295.113 73.689L293.298 72.8488C292.39 74.8094 291.154 76.2314 289.604 77.1713C288.051 78.114 286.116 78.612 283.751 78.612V80.612ZM294.205 74.2689L315.584 74.2689V72.2689L294.205 72.2689V74.2689ZM314.615 73.0222C313.556 77.1814 311.63 80.9224 308.828 84.2544L310.358 85.5416C313.352 81.9822 315.419 77.9705 316.553 73.5156L314.615 73.0222ZM308.819 84.2647C306.103 87.5842 302.666 90.1944 298.49 92.0927L299.318 93.9135C303.755 91.8963 307.445 89.1031 310.367 85.5312L308.819 84.2647ZM298.49 92.0927C294.328 93.9844 289.656 94.9397 284.456 94.9397V96.9397C289.905 96.9397 294.865 95.9373 299.318 93.9135L298.49 92.0927ZM284.456 94.9397C278.181 94.9397 272.633 93.6019 267.785 90.9511L266.826 92.7058C272.002 95.5367 277.888 96.9397 284.456 96.9397V94.9397ZM267.785 90.9511C262.943 88.3029 259.163 84.5251 256.434 79.5974L254.684 80.5664C257.593 85.819 261.644 89.8723 266.826 92.7058L267.785 90.9511ZM256.434 79.5974C253.71 74.679 252.33 68.8997 252.33 62.2271H250.33C250.33 69.1805 251.77 75.3044 254.684 80.5664L256.434 79.5974ZM252.33 62.2271C252.33 55.5501 253.673 49.767 256.322 44.8465L254.561 43.8983C251.729 49.1581 250.33 55.2782 250.33 62.2271H252.33ZM256.316 44.8569C259.046 39.9292 262.825 36.1514 267.668 33.5032L266.708 31.7485C261.527 34.582 257.476 38.6352 254.567 43.8879L256.316 44.8569ZM267.668 33.5032C272.513 30.8533 278.1 29.5145 284.456 29.5145V27.5145C277.811 27.5145 271.887 28.9166 266.708 31.7485L267.668 33.5032ZM284.456 29.5145C290.655 29.5145 296.126 30.8144 300.896 33.3884L301.845 31.6283C296.748 28.8772 290.942 27.5145 284.456 27.5145V29.5145ZM300.896 33.3884C305.66 35.9596 309.359 39.6203 312.008 44.3882L313.756 43.4169C310.923 38.3176 306.948 34.3822 301.845 31.6283L300.896 33.3884ZM312.014 44.3986C314.734 49.1587 316.111 54.7382 316.111 61.1699H318.111C318.111 54.4456 316.669 48.5134 313.75 43.4064L312.014 44.3986ZM297.554 55.884C297.554 52.1836 296.279 49.1537 293.685 46.9057L292.376 48.4171C294.48 50.2413 295.554 52.6931 295.554 55.884H297.554ZM293.685 46.9057C291.13 44.691 287.951 43.6073 284.221 43.6073V45.6073C287.538 45.6073 290.232 46.5597 292.376 48.4171L293.685 46.9057ZM284.221 43.6073C280.645 43.6073 277.553 44.6528 275.005 46.7757L276.286 48.3122C278.437 46.5196 281.062 45.6073 284.221 45.6073V43.6073ZM274.993 46.7865C272.504 48.9318 271.004 51.9483 270.428 55.7335L272.405 56.0344C272.926 52.6151 274.245 50.0716 276.299 48.3013L274.993 46.7865ZM271.417 56.884H296.554V54.884H271.417V56.884ZM331.466 19.5872L330.772 20.307L330.785 20.3196L330.799 20.3317L331.466 19.5872ZM331.466 4.0817L332.147 4.8145L332.148 4.8136L331.466 4.0817ZM348.616 4.0817L347.922 4.80155L347.935 4.81415L347.949 4.82627L348.616 4.0817ZM348.616 19.5872L349.297 20.3199L349.298 20.319L348.616 19.5872ZM350.143 29.4543H351.143V28.4543H350.143V29.4543ZM350.143 95V96H351.143V95H350.143ZM330.057 95H329.057V96H330.057V95ZM330.057 29.4543V28.4543H329.057V29.4543H330.057ZM340.159 21.6413C336.841 21.6413 334.193 20.6888 332.134 18.8426L330.799 20.3317C333.282 22.5576 336.429 23.6413 340.159 23.6413V21.6413ZM332.161 18.8673C330.164 16.942 329.177 14.6178 329.177 11.8344L327.177 11.8344C327.177 15.1592 328.384 18.0036 330.772 20.307L332.161 18.8673ZM329.177 11.8344C329.177 8.9654 330.169 6.65159 332.147 4.8145L330.786 3.34891C328.379 5.58396 327.177 8.43863 327.177 11.8344L329.177 11.8344ZM332.148 4.8136C334.208 2.89515 336.851 1.91013 340.159 1.91013V-0.0898662C336.419 -0.0898662 333.266 1.0395 330.785 3.34981L332.148 4.8136ZM340.159 1.91013C343.382 1.91013 345.941 2.89092 347.922 4.80155L349.311 3.36186C346.907 1.04373 343.827 -0.0898662 340.159 -0.0898662V1.91013ZM347.949 4.82627C350.002 6.6669 351.023 8.97743 351.023 11.8344H353.023C353.023 8.4266 351.773 5.56865 349.284 3.33713L347.949 4.82627ZM351.023 11.8344C351.023 14.6059 350.007 16.9266 347.935 18.8553L349.298 20.319C351.768 18.0189 353.023 15.1711 353.023 11.8344H351.023ZM347.936 18.8544C345.956 20.6927 343.393 21.6413 340.159 21.6413V23.6413C343.816 23.6413 346.891 22.5538 349.297 20.3199L347.936 18.8544ZM349.143 29.4543V95H351.143V29.4543H349.143ZM350.143 94H330.057V96H350.143V94ZM331.057 95V29.4543H329.057V95H331.057ZM330.057 30.4543H350.143V28.4543H330.057V30.4543ZM404.051 31.3337L403.572 32.2116L403.58 32.216L404.051 31.3337ZM412.156 38.734L411.304 39.2581L413.156 42.2671V38.734H412.156ZM412.156 29.4543V28.4543H411.156V29.4543H412.156ZM432.243 29.4543H433.243V28.4543H432.243V29.4543ZM428.601 111.21L427.707 110.763L427.703 110.772L427.698 110.78L428.601 111.21ZM417.677 122.957L417.171 122.094L417.165 122.098L417.677 122.957ZM375.859 120.373L376.467 119.579L376.461 119.574L375.859 120.373ZM365.522 101.813V100.813H364.406L364.528 101.922L365.522 101.813ZM385.374 101.813L386.344 101.57L386.155 100.813H385.374V101.813ZM389.838 107.686L390.373 106.841L390.362 106.835L390.352 106.829L389.838 107.686ZM408.397 106.277L407.713 105.547L407.701 105.558L407.69 105.57L408.397 106.277ZM412.156 85.6028H413.156V82.1898L411.314 85.0631L412.156 85.6028ZM404.051 93.1206L404.53 93.9984L404.537 93.9943L404.545 93.99L404.051 93.1206ZM377.269 91.8284L376.728 92.6697L376.739 92.6764L377.269 91.8284ZM366.814 79.9644L365.915 80.4007L365.919 80.4089L365.923 80.4171L366.814 79.9644ZM366.814 44.3724L365.923 43.9196L365.917 43.9307L366.814 44.3724ZM377.269 32.6258L377.799 33.4738L377.799 33.4738L377.269 32.6258ZM407.927 50.3631L407.201 51.0504L407.211 51.0605L407.927 50.3631ZM387.606 50.3631L386.889 49.6658L386.889 49.666L387.606 50.3631ZM387.606 74.0911L386.87 74.7686L386.88 74.7787L386.889 74.7885L387.606 74.0911ZM407.927 74.0911L407.211 73.3937L407.201 73.4039L407.927 74.0911ZM391.952 29.5145C396.435 29.5145 400.297 30.4254 403.572 32.2116L404.53 30.4558C400.913 28.4831 396.71 27.5145 391.952 27.5145V29.5145ZM403.58 32.216C406.966 34.0217 409.528 36.3718 411.304 39.2581L413.008 38.2099C411.025 34.988 408.184 32.4046 404.522 30.4513L403.58 32.216ZM413.156 38.734V29.4543H411.156V38.734H413.156ZM412.156 30.4543H432.243V28.4543L412.156 28.4543V30.4543ZM431.243 29.4543V94.8825H433.243V29.4543H431.243ZM431.243 94.8825C431.243 100.775 430.058 106.061 427.707 110.763L429.496 111.657C432 106.649 433.243 101.05 433.243 94.8825H431.243ZM427.698 110.78C425.439 115.525 421.94 119.293 417.171 122.095L418.183 123.819C423.281 120.825 427.065 116.763 429.504 111.64L427.698 110.78ZM417.165 122.098C412.503 124.88 406.623 126.303 399.47 126.303V128.303C406.882 128.303 413.141 126.828 418.189 123.816L417.165 122.098ZM399.47 126.303C389.917 126.303 382.279 124.032 376.467 119.579L375.251 121.166C381.499 125.954 389.601 128.303 399.47 128.303V126.303ZM376.461 119.574C370.662 115.206 367.349 109.274 366.516 101.704L364.528 101.922C365.418 110.014 368.997 116.455 375.258 121.171L376.461 119.574ZM365.522 102.813H385.374V100.813H365.522V102.813ZM384.404 102.056C385.099 104.836 386.762 107.007 389.323 108.544L390.352 106.829C388.215 105.546 386.902 103.802 386.344 101.57L384.404 102.056ZM389.303 108.531C391.846 110.142 394.94 110.918 398.53 110.918V108.918C395.229 108.918 392.528 108.206 390.373 106.841L389.303 108.531ZM398.53 110.918C402.887 110.918 406.451 109.637 409.104 106.984L407.69 105.57C405.488 107.772 402.474 108.918 398.53 108.918V110.918ZM409.081 107.006C411.874 104.388 413.156 100.261 413.156 94.8825H411.156C411.156 99.9974 409.932 103.467 407.713 105.547L409.081 107.006ZM413.156 94.8825V85.6028H411.156V94.8825H413.156ZM411.314 85.0631C409.452 87.9684 406.875 90.3659 403.557 92.2511L404.545 93.99C408.118 91.9597 410.945 89.3454 412.998 86.1424L411.314 85.0631ZM403.572 92.2427C400.297 94.0289 396.435 94.9397 391.952 94.9397V96.9397C396.71 96.9397 400.913 95.9711 404.53 93.9984L403.572 92.2427ZM391.952 94.9397C386.727 94.9397 382.018 93.6174 377.799 90.9804L376.739 92.6764C381.29 95.5212 386.37 96.9397 391.952 96.9397V94.9397ZM377.81 90.9873C373.588 88.2731 370.218 84.459 367.706 79.5117L365.923 80.4171C368.58 85.6501 372.179 89.7454 376.728 92.6696L377.81 90.9873ZM367.714 79.5281C365.285 74.5172 364.056 68.7192 364.056 62.1097H362.056C362.056 68.9695 363.332 75.0747 365.915 80.4007L367.714 79.5281ZM364.056 62.1097C364.056 55.4997 365.285 49.7434 367.712 44.8141L365.917 43.9307C363.332 49.1817 362.056 55.2502 362.056 62.1097H364.056ZM367.706 44.8251C370.217 39.8797 373.583 36.1084 377.799 33.4738L376.739 31.7778C372.183 34.6249 368.581 38.6847 365.923 43.9197L367.706 44.8251ZM377.799 33.4738C382.018 30.8369 386.727 29.5145 391.952 29.5145V27.5145C386.37 27.5145 381.29 28.9331 376.739 31.7778L377.799 33.4738ZM413.156 62.2271C413.156 57.0207 411.686 52.7923 408.644 49.6658L407.211 51.0605C409.807 53.7288 411.156 57.4099 411.156 62.2271H413.156ZM408.654 49.6759C405.724 46.5784 402.094 45.0169 397.825 45.0169V47.0169C401.545 47.0169 404.649 48.3528 407.201 51.0503L408.654 49.6759ZM397.825 45.0169C393.558 45.0169 389.894 46.5775 386.889 49.6658L388.323 51.0605C390.956 48.3538 394.105 47.0169 397.825 47.0169V45.0169ZM386.889 49.666C383.92 52.7193 382.495 56.9122 382.495 62.1097H384.495C384.495 57.2834 385.81 53.6452 388.323 51.0602L386.889 49.666ZM382.495 62.1097C382.495 67.3098 383.921 71.5667 386.87 74.7686L388.341 73.4137C385.809 70.664 384.495 66.9332 384.495 62.1097H382.495ZM386.889 74.7885C389.894 77.8768 393.558 79.4374 397.825 79.4374V77.4374C394.105 77.4374 390.956 76.1004 388.323 73.3938L386.889 74.7885ZM397.825 79.4374C402.094 79.4374 405.724 77.8758 408.654 74.7783L407.201 73.4039C404.649 76.1014 401.545 77.4374 397.825 77.4374V79.4374ZM408.644 74.7885C411.686 71.6619 413.156 67.4336 413.156 62.2271H411.156C411.156 67.0444 409.807 70.7254 407.211 73.3938L408.644 74.7885ZM507.387 36.2673L506.646 36.9388L506.651 36.9448L506.657 36.9508L507.387 36.2673ZM514.317 95V96H515.317V95H514.317ZM494.348 95H493.348V96H494.348V95ZM490.941 49.1885L490.211 49.8716L490.211 49.8716L490.941 49.1885ZM472.617 49.1885L473.347 49.8716L473.347 49.8716L472.617 49.1885ZM469.21 95V96H470.21V95H469.21ZM449.124 95H448.124V96H449.124V95ZM449.124 29.4543V28.4543H448.124V29.4543H449.124ZM469.21 29.4543H470.21V28.4543H469.21V29.4543ZM469.21 38.1467H468.21V41.3091L470.029 38.7216L469.21 38.1467ZM477.433 31.3337L477.864 32.2362L477.872 32.2322L477.88 32.2281L477.433 31.3337ZM489.062 29.7495C496.496 29.7495 502.32 32.1653 506.646 36.9388L508.128 35.5957C503.37 30.3454 496.977 27.7495 489.062 27.7495V29.7495ZM506.657 36.9508C511.058 41.6506 513.317 48.1925 513.317 56.7062H515.317C515.317 47.8351 512.956 40.751 508.117 35.5837L506.657 36.9508ZM513.317 56.7062V95H515.317V56.7062H513.317ZM514.317 94H494.348V96H514.317V94ZM495.348 95V59.408H493.348V95H495.348ZM495.348 59.408C495.348 54.852 494.166 51.1711 491.672 48.5053L490.211 49.8716C492.259 52.0611 493.348 55.1931 493.348 59.408H495.348ZM491.672 48.5053C489.182 45.8438 485.846 44.547 481.779 44.547V46.547C485.386 46.547 488.159 47.6779 490.211 49.8716L491.672 48.5053ZM481.779 44.547C477.712 44.547 474.376 45.8438 471.887 48.5053L473.347 49.8716C475.399 47.6779 478.172 46.547 481.779 46.547V44.547ZM471.887 48.5053C469.393 51.1711 468.21 54.852 468.21 59.408H470.21C470.21 55.1931 471.299 52.0611 473.347 49.8716L471.887 48.5053ZM468.21 59.408V95H470.21V59.408H468.21ZM469.21 94H449.124V96H469.21V94ZM450.124 95V29.4543H448.124V95H450.124ZM449.124 30.4543H469.21V28.4543L449.124 28.4543V30.4543ZM468.21 29.4543V38.1467H470.21V29.4543H468.21ZM470.029 38.7216C471.958 35.9757 474.561 33.8126 477.864 32.2362L477.002 30.4312C473.414 32.1438 470.535 34.5227 468.392 37.5718L470.029 38.7216ZM477.88 32.2281C481.171 30.5826 484.892 29.7495 489.062 29.7495V27.7495C484.618 27.7495 480.586 28.6392 476.986 30.4393L477.88 32.2281ZM532.034 19.5872L531.34 20.307L531.353 20.3196L531.367 20.3317L532.034 19.5872ZM532.034 4.0817L532.715 4.8145L532.716 4.8136L532.034 4.0817ZM549.184 4.0817L548.49 4.80155L548.503 4.81415L548.517 4.82627L549.184 4.0817ZM549.184 19.5872L549.865 20.3199L549.866 20.319L549.184 19.5872ZM550.711 29.4543H551.711V28.4543H550.711V29.4543ZM550.711 95V96H551.711V95H550.711ZM530.625 95H529.625V96H530.625V95ZM530.625 29.4543V28.4543H529.625V29.4543H530.625ZM540.727 21.6413C537.408 21.6413 534.761 20.6888 532.702 18.8426L531.367 20.3317C533.849 22.5576 536.997 23.6413 540.727 23.6413V21.6413ZM532.728 18.8673C530.732 16.942 529.745 14.6178 529.745 11.8344H527.745C527.745 15.1592 528.951 18.0036 531.34 20.307L532.728 18.8673ZM529.745 11.8344C529.745 8.9654 530.736 6.65159 532.715 4.8145L531.354 3.34891C528.947 5.58396 527.745 8.43863 527.745 11.8344H529.745ZM532.716 4.8136C534.776 2.89515 537.419 1.91013 540.727 1.91013V-0.0898662C536.987 -0.0898662 533.834 1.0395 531.353 3.34981L532.716 4.8136ZM540.727 1.91013C543.95 1.91013 546.509 2.89092 548.49 4.80155L549.878 3.36186C547.474 1.04373 544.394 -0.0898662 540.727 -0.0898662V1.91013ZM548.517 4.82627C550.57 6.6669 551.591 8.97743 551.591 11.8344H553.591C553.591 8.4266 552.341 5.56865 549.852 3.33713L548.517 4.82627ZM551.591 11.8344C551.591 14.6059 550.574 16.9266 548.503 18.8553L549.866 20.319C552.336 18.0189 553.591 15.1711 553.591 11.8344H551.591ZM548.504 18.8544C546.524 20.6927 543.961 21.6413 540.727 21.6413V23.6413C544.384 23.6413 547.459 22.5538 549.865 20.3199L548.504 18.8544ZM549.711 29.4543V95H551.711V29.4543H549.711ZM550.711 94H530.625V96H550.711V94ZM531.625 95V29.4543H529.625V95H531.625ZM530.625 30.4543H550.711V28.4543L530.625 28.4543V30.4543ZM604.149 77.9675H605.149V76.9675H604.149V77.9675ZM604.149 95V96H605.149V95H604.149ZM576.897 89.7141L576.234 90.4631L576.242 90.4702L576.897 89.7141ZM570.789 46.1344L571.789 46.1344V45.1344L570.789 45.1344V46.1344ZM562.801 46.1344H561.801V47.1344H562.801V46.1344ZM562.801 29.4543V28.4543H561.801V29.4543H562.801ZM570.789 29.4543V30.4543L571.789 30.4543V29.4543H570.789ZM570.789 13.4789V12.4789H569.789V13.4789H570.789ZM590.875 13.4789H591.875V12.4789H590.875V13.4789ZM590.875 29.4543H589.875V30.4543H590.875V29.4543ZM604.031 29.4543H605.031V28.4543H604.031V29.4543ZM604.031 46.1344V47.1344H605.031V46.1344H604.031ZM590.875 46.1344V45.1344H589.875V46.1344H590.875ZM592.285 76.6754L591.609 77.4125L591.609 77.4125L592.285 76.6754ZM603.149 77.9675V95H605.149V77.9675H603.149ZM604.149 94H593.929V96H604.149V94ZM593.929 94C586.802 94 581.386 92.2766 577.551 88.9579L576.242 90.4702C580.552 94.1995 586.491 96 593.929 96V94ZM577.559 88.9651C573.788 85.629 571.789 80.1314 571.789 72.2117L569.789 72.2117C569.789 80.4239 571.861 86.5945 576.234 90.463L577.559 88.9651ZM571.789 72.2117V46.1344L569.789 46.1344V72.2117L571.789 72.2117ZM570.789 45.1344H562.801V47.1344H570.789V45.1344ZM563.801 46.1344V29.4543H561.801V46.1344H563.801ZM562.801 30.4543H570.789V28.4543H562.801V30.4543ZM571.789 29.4543V13.4789H569.789V29.4543H571.789ZM570.789 14.4789H590.875V12.4789H570.789V14.4789ZM589.875 13.4789V29.4543H591.875V13.4789H589.875ZM590.875 30.4543H604.031V28.4543L590.875 28.4543V30.4543ZM603.031 29.4543V46.1344H605.031V29.4543H603.031ZM604.031 45.1344H590.875V47.1344H604.031V45.1344ZM589.875 46.1344V72.4466H591.875V46.1344H589.875ZM589.875 72.4466C589.875 74.5357 590.374 76.2802 591.609 77.4125L592.961 75.9382C592.316 75.3477 591.875 74.2731 591.875 72.4466H589.875ZM591.609 77.4125C592.827 78.529 594.706 78.9675 596.983 78.9675V76.9675C594.875 76.9675 593.622 76.5446 592.961 75.9382L591.609 77.4125ZM596.983 78.9675H604.149V76.9675H596.983V78.9675ZM679.121 67.0432V68.0432H680.012L680.115 67.1578L679.121 67.0432ZM633.662 67.0432V66.0432H632.582L632.665 67.1199L633.662 67.0432ZM637.538 76.4405L636.844 77.1599L636.856 77.172L636.869 77.1837L637.538 76.4405ZM656.568 73.2689V72.2689H655.929L655.66 72.8488L656.568 73.2689ZM677.947 73.2689L678.916 73.5156L679.233 72.2689H677.947V73.2689ZM671.956 84.898L671.19 84.2543L671.182 84.2647L671.956 84.898ZM661.266 93.0031L661.68 93.9135L661.266 93.0031ZM629.668 91.8284L629.188 92.7058L629.188 92.7058L629.668 91.8284ZM617.922 80.0819L618.796 79.5974L618.796 79.5974L617.922 80.0819ZM617.804 44.3724L616.929 43.8878L616.924 43.8983L617.804 44.3724ZM629.551 32.6258L630.031 33.5032L630.031 33.5032L629.551 32.6258ZM663.733 32.5084L663.258 33.3884L663.258 33.3884L663.733 32.5084ZM675.245 43.9025L674.371 44.3882L674.377 44.3986L675.245 43.9025ZM658.917 55.884V56.884L659.917 56.884V55.884L658.917 55.884ZM655.393 47.6614L656.048 46.9057L656.048 46.9057L655.393 47.6614ZM638.008 47.5439L637.368 46.7757L637.362 46.7811L637.355 46.7865L638.008 47.5439ZM633.78 55.884L632.791 55.7335L632.616 56.884H633.78V55.884ZM678.474 61.1699C678.474 63.0078 678.359 64.9272 678.128 66.9286L680.115 67.1578C680.354 65.0871 680.474 63.0909 680.474 61.1699H678.474ZM679.121 66.0432L633.662 66.0432V68.0432L679.121 68.0432V66.0432ZM632.665 67.1199C632.991 71.3625 634.35 74.7521 636.844 77.1599L638.233 75.721C636.185 73.7434 634.959 70.8682 634.659 66.9665L632.665 67.1199ZM636.869 77.1837C639.415 79.4748 642.517 80.612 646.113 80.612V78.612C642.975 78.612 640.36 77.6349 638.207 75.6972L636.869 77.1837ZM646.113 80.612C648.76 80.612 651.074 80.0529 653.005 78.8812C654.94 77.7067 656.425 75.9571 657.475 73.689L655.66 72.8488C654.753 74.8094 653.516 76.2314 651.967 77.1713C650.413 78.114 648.478 78.612 646.113 78.612V80.612ZM656.568 74.2689L677.947 74.2689V72.2689L656.568 72.2689V74.2689ZM676.977 73.0222C675.919 77.1814 673.992 80.9224 671.19 84.2544L672.721 85.5416C675.714 81.9822 677.782 77.9705 678.916 73.5156L676.977 73.0222ZM671.182 84.2647C668.466 87.5842 665.029 90.1944 660.853 92.0927L661.68 93.9135C666.118 91.8963 669.807 89.1031 672.73 85.5312L671.182 84.2647ZM660.853 92.0927C656.691 93.9844 652.018 94.9397 646.818 94.9397V96.9397C652.268 96.9397 657.228 95.9373 661.68 93.9135L660.853 92.0927ZM646.818 94.9397C640.543 94.9397 634.995 93.6019 630.148 90.9511L629.188 92.7058C634.365 95.5367 640.25 96.9397 646.818 96.9397V94.9397ZM630.148 90.9511C625.306 88.3029 621.526 84.5251 618.796 79.5974L617.047 80.5664C619.956 85.819 624.007 89.8723 629.188 92.7058L630.148 90.9511ZM618.796 79.5974C616.072 74.679 614.693 68.8997 614.693 62.2271H612.693C612.693 69.1805 614.133 75.3044 617.047 80.5664L618.796 79.5974ZM614.693 62.2271C614.693 55.5501 616.035 49.767 618.685 44.8465L616.924 43.8983C614.091 49.1581 612.693 55.2782 612.693 62.2271H614.693ZM618.679 44.8569C621.408 39.9292 625.188 36.1514 630.031 33.5032L629.071 31.7485C623.89 34.582 619.839 38.6352 616.929 43.8879L618.679 44.8569ZM630.031 33.5032C634.876 30.8533 640.463 29.5145 646.818 29.5145V27.5145C640.174 27.5145 634.249 28.9166 629.071 31.7485L630.031 33.5032ZM646.818 29.5145C653.018 29.5145 658.489 30.8144 663.258 33.3884L664.208 31.6283C659.11 28.8772 653.305 27.5145 646.818 27.5145V29.5145ZM663.258 33.3884C668.023 35.9596 671.722 39.6203 674.371 44.3882L676.119 43.4169C673.286 38.3176 669.311 34.3822 664.208 31.6283L663.258 33.3884ZM674.377 44.3986C677.097 49.1587 678.474 54.7382 678.474 61.1699H680.474C680.474 54.4456 679.031 48.5134 676.113 43.4064L674.377 44.3986ZM659.917 55.884C659.917 52.1836 658.642 49.1537 656.048 46.9057L654.738 48.4171C656.843 50.2413 657.917 52.6931 657.917 55.884L659.917 55.884ZM656.048 46.9057C653.493 44.691 650.314 43.6073 646.583 43.6073V45.6073C649.901 45.6073 652.595 46.5597 654.738 48.4171L656.048 46.9057ZM646.583 43.6073C643.007 43.6073 639.916 44.6528 637.368 46.7757L638.648 48.3122C640.8 46.5196 643.425 45.6073 646.583 45.6073V43.6073ZM637.355 46.7865C634.867 48.9318 633.367 51.9483 632.791 55.7335L634.768 56.0344C635.288 52.6151 636.608 50.0716 638.661 48.3013L637.355 46.7865ZM633.78 56.884H658.917V54.884H633.78V56.884ZM712.506 40.3785H711.506V43.7425L713.344 40.9248L712.506 40.3785ZM721.316 31.921L721.816 32.7869L721.824 32.7828L721.831 32.7785L721.316 31.921ZM733.063 28.7495H734.063V27.7495H733.063V28.7495ZM733.063 50.0107V51.0107H734.063V50.0107H733.063ZM716.265 53.2997L716.91 54.064L716.917 54.0582L716.924 54.0523L716.265 53.2997ZM712.506 95V96H713.506V95H712.506ZM692.42 95H691.42V96H692.42V95ZM692.42 29.4543V28.4543H691.42V29.4543H692.42ZM712.506 29.4543H713.506V28.4543H712.506V29.4543ZM713.344 40.9248C715.612 37.4464 718.436 34.7399 721.816 32.7869L720.816 31.0552C717.148 33.1743 714.099 36.1061 711.669 39.8323L713.344 40.9248ZM721.831 32.7785C725.192 30.762 728.928 29.7495 733.063 29.7495V27.7495C728.583 27.7495 724.489 28.8513 720.802 31.0635L721.831 32.7785ZM732.063 28.7495V50.0107H734.063V28.7495H732.063ZM733.063 49.0107H727.542V51.0107H733.063V49.0107ZM727.542 49.0107C722.406 49.0107 718.368 50.1313 715.607 52.5472L716.924 54.0523C719.174 52.0829 722.654 51.0107 727.542 51.0107V49.0107ZM715.62 52.5355C712.778 54.9339 711.506 59.0647 711.506 64.5764H713.506C713.506 59.2813 714.741 55.8944 716.91 54.064L715.62 52.5355ZM711.506 64.5764V95H713.506V64.5764H711.506ZM712.506 94H692.42V96H712.506V94ZM693.42 95V29.4543H691.42V95H693.42ZM692.42 30.4543H712.506V28.4543H692.42V30.4543ZM711.506 29.4543V40.3785H713.506V29.4543H711.506ZM746.892 31.921L747.767 32.4067L747.769 32.4021L746.892 31.921ZM761.576 17.0029L762.066 17.8745L762.069 17.8725L761.576 17.0029ZM808.209 19.3522L808.805 18.549L808.805 18.549L808.209 19.3522ZM822.188 40.496V41.496H823.485L823.155 40.2415L822.188 40.496ZM800.104 40.496L799.202 40.9267L799.473 41.496H800.104V40.496ZM793.056 32.6258L792.538 33.4814L792.548 33.4872L793.056 32.6258ZM767.801 36.3847L768.548 37.0499L768.548 37.0499L767.801 36.3847ZM767.801 70.9196L767.055 71.5848L767.801 70.9196ZM793.056 74.6785L792.548 73.817L792.538 73.823L793.056 74.6785ZM800.104 66.8083V65.8083H799.473L799.202 66.3776L800.104 66.8083ZM822.188 66.8083L823.155 67.0628L823.485 65.8083H822.188V66.8083ZM808.209 87.9521L808.799 88.7596L808.805 88.7553L808.209 87.9521ZM761.576 90.3014L761.077 91.1683L761.083 91.172L761.09 91.1755L761.576 90.3014ZM746.892 75.3833L747.767 74.8976L747.767 74.8976L746.892 75.3833ZM742.606 53.6521C742.606 45.6566 744.335 38.5838 747.767 32.4067L746.018 31.4354C742.402 37.9445 740.606 45.3591 740.606 53.6521H742.606ZM747.769 32.4021C751.205 26.1411 755.967 21.3051 762.066 17.8745L761.085 16.1313C754.654 19.7487 749.628 24.8581 746.016 31.4399L747.769 32.4021ZM762.069 17.8725C768.248 14.3637 775.24 12.5995 783.072 12.5995V10.5995C774.928 10.5995 767.589 12.4376 761.082 16.1333L762.069 17.8725ZM783.072 12.5995C792.675 12.5995 800.838 15.1309 807.614 20.1555L808.805 18.549C801.641 13.2366 793.046 10.5995 783.072 10.5995V12.5995ZM807.614 20.1555C814.389 25.1795 818.925 32.0279 821.221 40.7505L823.155 40.2415C820.752 31.1094 815.969 23.8619 808.805 18.549L807.614 20.1555ZM822.188 39.496H800.104V41.496H822.188V39.496ZM801.007 40.0653C799.283 36.4545 796.803 33.6745 793.564 31.7645L792.548 33.4872C795.418 35.1794 797.636 37.6462 799.202 40.9267L801.007 40.0653ZM793.574 31.7703C790.426 29.8651 786.837 28.9241 782.837 28.9241V30.9241C786.511 30.9241 789.735 31.7843 792.538 33.4813L793.574 31.7703ZM782.837 28.9241C776.388 28.9241 771.096 31.1827 767.055 35.7195L768.548 37.0499C772.18 32.9726 776.912 30.9241 782.837 30.9241V28.9241ZM767.055 35.7195C763.016 40.2521 761.045 46.2657 761.045 53.6521H763.045C763.045 46.6295 764.912 41.1314 768.548 37.0499L767.055 35.7195ZM761.045 53.6521C761.045 61.0386 763.016 67.0522 767.055 71.5848L768.548 70.2544C764.912 66.1728 763.045 60.6748 763.045 53.6521H761.045ZM767.055 71.5848C771.096 76.1216 776.388 78.3802 782.837 78.3802V76.3802C776.912 76.3802 772.18 74.3316 768.548 70.2544L767.055 71.5848ZM782.837 78.3802C786.837 78.3802 790.426 77.4392 793.574 75.534L792.538 73.823C789.735 75.52 786.511 76.3802 782.837 76.3802V78.3802ZM793.564 75.5398C796.803 73.6298 799.283 70.8498 801.007 67.239L799.202 66.3776C797.636 69.6581 795.418 72.1249 792.548 73.8171L793.564 75.5398ZM800.104 67.8083H822.188V65.8083H800.104V67.8083ZM821.221 66.5538C818.925 75.2764 814.389 82.1247 807.614 87.1488L808.805 88.7553C815.969 83.4424 820.752 76.1949 823.155 67.0628L821.221 66.5538ZM807.62 87.1445C800.844 92.0932 792.678 94.5873 783.072 94.5873V96.5873C793.043 96.5873 801.636 93.9913 808.799 88.7596L807.62 87.1445ZM783.072 94.5873C775.236 94.5873 768.241 92.8605 762.061 89.4272L761.09 91.1755C767.596 94.7902 774.932 96.5873 783.072 96.5873V94.5873ZM762.074 89.4345C755.967 85.9232 751.203 81.0826 747.767 74.8976L746.018 75.8689C749.63 82.3702 754.654 87.475 761.077 91.1683L762.074 89.4345ZM747.767 74.8976C744.335 68.7205 742.606 61.6476 742.606 53.6521H740.606C740.606 61.9452 742.402 69.3597 746.018 75.8689L747.767 74.8976ZM849.289 91.8284L848.815 92.7089L848.821 92.7119L849.289 91.8284ZM837.19 80.0819L836.321 80.5766L836.327 80.5866L837.19 80.0819ZM837.308 44.4898L838.171 44.9945L838.174 44.9888L837.308 44.4898ZM849.524 32.6258L849.993 33.5093L849.993 33.5093L849.524 32.6258ZM884.294 32.6258L883.825 33.5093L883.825 33.5093L884.294 32.6258ZM896.51 44.4898L895.644 44.9888L895.647 44.9945L896.51 44.4898ZM896.393 80.0819L895.532 79.5731L895.53 79.5772L896.393 80.0819ZM884.059 91.8284L883.596 90.9421L883.591 90.945L884.059 91.8284ZM876.424 74.3261L875.707 73.629L875.702 73.6342L875.697 73.6394L876.424 74.3261ZM876.541 50.1282L875.804 50.8039L875.809 50.8094L875.814 50.8148L876.541 50.1282ZM857.159 50.1282L857.887 50.8143L857.897 50.8039L857.159 50.1282ZM857.042 74.3261L856.295 74.9904L856.3 74.9962L856.305 75.0018L857.042 74.3261ZM866.674 94.9397C860.4 94.9397 854.768 93.602 849.758 90.945L848.821 92.7119C854.147 95.5366 860.106 96.9397 866.674 96.9397V94.9397ZM849.763 90.948C844.838 88.296 840.939 84.512 838.054 79.5772L836.327 80.5866C839.394 85.8321 843.56 89.8791 848.815 92.7089L849.763 90.948ZM838.059 79.5872C835.261 74.6708 833.844 68.8952 833.844 62.2271H831.844C831.844 69.185 833.325 75.3126 836.321 80.5766L838.059 79.5872ZM833.844 62.2271C833.844 55.6442 835.297 49.9108 838.171 44.9945L836.444 43.9851C833.367 49.2492 831.844 55.3407 831.844 62.2271H833.844ZM838.174 44.9888C841.058 39.98 844.994 36.1602 849.993 33.5093L849.056 31.7424C843.718 34.5732 839.509 38.6627 836.441 43.9909L838.174 44.9888ZM849.993 33.5093C855.003 30.8522 860.635 29.5145 866.909 29.5145V27.5145C860.341 27.5145 854.382 28.9177 849.056 31.7424L849.993 33.5093ZM866.909 29.5145C873.183 29.5145 878.815 30.8522 883.825 33.5093L884.762 31.7424C879.436 28.9177 873.478 27.5145 866.909 27.5145V29.5145ZM883.825 33.5093C888.824 36.1602 892.76 39.98 895.644 44.9888L897.377 43.9909C894.309 38.6627 890.101 34.5732 884.762 31.7424L883.825 33.5093ZM895.647 44.9945C898.521 49.9108 899.974 55.6442 899.974 62.2271H901.974C901.974 55.3407 900.451 49.2492 897.374 43.9851L895.647 44.9945ZM899.974 62.2271C899.974 68.8052 898.484 74.5769 895.532 79.5732L897.254 80.5906C900.41 75.2499 901.974 69.1185 901.974 62.2271H899.974ZM895.53 79.5772C892.649 84.5044 888.677 88.2879 883.596 90.9421L884.522 92.7148C889.935 89.8872 894.185 85.8397 897.256 80.5866L895.53 79.5772ZM883.591 90.945C878.58 93.602 872.949 94.9397 866.674 94.9397V96.9397C873.243 96.9397 879.201 95.5366 884.528 92.7119L883.591 90.945ZM866.674 79.5548C870.79 79.5548 874.302 78.0295 877.151 75.0127L875.697 73.6394C873.221 76.261 870.233 77.5548 866.674 77.5548V79.5548ZM877.141 75.0232C880.117 71.9617 881.535 67.6447 881.535 62.2271H879.535C879.535 67.3031 878.212 71.0521 875.707 73.629L877.141 75.0232ZM881.535 62.2271C881.535 56.8168 880.16 52.5038 877.268 49.4416L875.814 50.8148C878.247 53.3909 879.535 57.1438 879.535 62.2271H881.535ZM877.278 49.4525C874.504 46.4259 871.026 44.8994 866.909 44.8994V46.8994C870.467 46.8994 873.41 48.1922 875.804 50.8039L877.278 49.4525ZM866.909 44.8994C862.721 44.8994 859.201 46.4211 856.422 49.4525L857.897 50.8039C860.286 48.1969 863.266 46.8994 866.909 46.8994V44.8994ZM856.432 49.4422C853.612 52.4334 852.283 56.7527 852.283 62.2271H854.283C854.283 57.0513 855.539 53.3047 857.887 50.8142L856.432 49.4422ZM852.283 62.2271C852.283 67.6231 853.572 71.9275 856.295 74.9904L857.789 73.6617C855.5 71.0863 854.283 67.3248 854.283 62.2271H852.283ZM856.305 75.0018C859.079 78.0284 862.558 79.5548 866.674 79.5548V77.5548C863.116 77.5548 860.173 76.2621 857.779 73.6503L856.305 75.0018ZM913.745 44.3724L912.853 43.9196L912.848 43.9307L913.745 44.3724ZM924.199 32.6258L924.729 33.4738L924.729 33.4738L924.199 32.6258ZM950.629 31.2162L950.174 32.1067L950.182 32.1107L950.629 31.2162ZM959.086 38.4991L958.254 39.0538L960.086 41.8019V38.4991H959.086ZM959.086 8.07553V7.07553H958.086V8.07553H959.086ZM979.173 8.07553H980.173V7.07553H979.173V8.07553ZM979.173 95V96H980.173V95H979.173ZM959.086 95H958.086V96H959.086V95ZM959.086 85.6028H960.086V81.9924L958.229 85.0883L959.086 85.6028ZM950.981 93.1206L950.511 92.2382L950.502 92.2427L950.981 93.1206ZM924.199 91.8284L923.658 92.6697L923.669 92.6764L924.199 91.8284ZM913.745 79.9644L912.845 80.4007L912.849 80.4089L912.853 80.4171L913.745 79.9644ZM954.858 50.3631L954.131 51.0504L954.141 51.0605L954.858 50.3631ZM934.536 50.3631L933.819 49.6658L933.819 49.666L934.536 50.3631ZM934.536 74.0911L933.801 74.7686L933.81 74.7787L933.819 74.7885L934.536 74.0911ZM954.858 74.0911L954.141 73.3937L954.131 73.4039L954.858 74.0911ZM910.986 62.1097C910.986 55.4997 912.215 49.7434 914.642 44.8141L912.848 43.9307C910.262 49.1817 908.986 55.2502 908.986 62.1097H910.986ZM914.636 44.8251C917.147 39.8797 920.514 36.1084 924.729 33.4738L923.669 31.7778C919.114 34.6249 915.511 38.6847 912.853 43.9197L914.636 44.8251ZM924.729 33.4738C928.948 30.8369 933.658 29.5145 938.882 29.5145V27.5145C933.3 27.5145 928.221 28.9331 923.669 31.7778L924.729 33.4738ZM938.882 29.5145C943.045 29.5145 946.803 30.3838 950.174 32.1067L951.084 30.3258C947.407 28.4464 943.333 27.5145 938.882 27.5145V29.5145ZM950.182 32.1107C953.644 33.8417 956.324 36.1583 958.254 39.0538L959.918 37.9444C957.777 34.7317 954.819 32.193 951.076 30.3218L950.182 32.1107ZM960.086 38.4991V8.07553H958.086V38.4991H960.086ZM959.086 9.07553H979.173V7.07553H959.086V9.07553ZM978.173 8.07553V95H980.173V8.07553H978.173ZM979.173 94L959.086 94V96L979.173 96V94ZM960.086 95V85.6028H958.086V95H960.086ZM958.229 85.0883C956.451 88.0509 953.89 90.4358 950.511 92.2382L951.452 94.0029C955.12 92.0464 957.963 89.4194 959.944 86.1173L958.229 85.0883ZM950.502 92.2427C947.228 94.0289 943.365 94.9397 938.882 94.9397V96.9397C943.64 96.9397 947.844 95.9711 951.46 93.9984L950.502 92.2427ZM938.882 94.9397C933.658 94.9397 928.948 93.6174 924.729 90.9804L923.669 92.6764C928.221 95.5212 933.3 96.9397 938.882 96.9397V94.9397ZM924.74 90.9873C920.518 88.2731 917.148 84.459 914.636 79.5117L912.853 80.4171C915.51 85.6501 919.11 89.7454 923.658 92.6696L924.74 90.9873ZM914.645 79.5281C912.215 74.5172 910.986 68.7192 910.986 62.1097H908.986C908.986 68.9695 910.263 75.0747 912.845 80.4007L914.645 79.5281ZM960.086 62.2271C960.086 57.0207 958.616 52.7923 955.574 49.6658L954.141 51.0605C956.737 53.7288 958.086 57.4099 958.086 62.2271H960.086ZM955.584 49.6759C952.654 46.5784 949.024 45.0169 944.756 45.0169V47.0169C948.475 47.0169 951.58 48.3528 954.131 51.0503L955.584 49.6759ZM944.756 45.0169C940.488 45.0169 936.824 46.5775 933.819 49.6658L935.253 51.0605C937.886 48.3538 941.036 47.0169 944.756 47.0169V45.0169ZM933.819 49.666C930.851 52.7193 929.425 56.9122 929.425 62.1097H931.425C931.425 57.2834 932.74 53.6452 935.253 51.0602L933.819 49.666ZM929.425 62.1097C929.425 67.3098 930.852 71.5667 933.801 74.7686L935.272 73.4137C932.739 70.664 931.425 66.9332 931.425 62.1097H929.425ZM933.819 74.7885C936.824 77.8768 940.488 79.4374 944.756 79.4374V77.4374C941.036 77.4374 937.886 76.1004 935.253 73.3938L933.819 74.7885ZM944.756 79.4374C949.024 79.4374 952.654 77.8758 955.584 74.7783L954.131 73.4039C951.58 76.1014 948.475 77.4374 944.756 77.4374V79.4374ZM955.574 74.7885C958.616 71.6619 960.086 67.4336 960.086 62.2271H958.086C958.086 67.0444 956.737 70.7254 954.141 73.3938L955.574 74.7885ZM1057.49 67.0432V68.0432H1058.38L1058.48 67.1578L1057.49 67.0432ZM1012.03 67.0432V66.0432H1010.95L1011.03 67.1199L1012.03 67.0432ZM1015.91 76.4405L1015.21 77.1599L1015.22 77.172L1015.24 77.1837L1015.91 76.4405ZM1034.94 73.2689V72.2689H1034.3L1034.03 72.8488L1034.94 73.2689ZM1056.31 73.2689L1057.28 73.5156L1057.6 72.2689H1056.31V73.2689ZM1050.32 84.898L1049.56 84.2543L1049.55 84.2647L1050.32 84.898ZM1039.63 93.0031L1040.05 93.9135L1039.63 93.0031ZM1008.04 91.8284L1007.56 92.7058L1007.56 92.7058L1008.04 91.8284ZM996.289 80.0819L997.164 79.5974L997.164 79.5974L996.289 80.0819ZM996.172 44.3724L995.297 43.8878L995.291 43.8983L996.172 44.3724ZM1007.92 32.6258L1008.4 33.5032L1008.4 33.5032L1007.92 32.6258ZM1042.1 32.5084L1041.63 33.3884L1041.63 33.3884L1042.1 32.5084ZM1053.61 43.9025L1052.74 44.3882L1052.74 44.3986L1053.61 43.9025ZM1037.28 55.884V56.884H1038.28V55.884H1037.28ZM1033.76 47.6614L1034.42 46.9057L1034.42 46.9057L1033.76 47.6614ZM1016.38 47.5439L1015.74 46.7757L1015.73 46.7811L1015.72 46.7865L1016.38 47.5439ZM1012.15 55.884L1011.16 55.7335L1010.98 56.884H1012.15V55.884ZM1056.84 61.1699C1056.84 63.0078 1056.73 64.9272 1056.5 66.9286L1058.48 67.1578C1058.72 65.0871 1058.84 63.0909 1058.84 61.1699H1056.84ZM1057.49 66.0432L1012.03 66.0432V68.0432L1057.49 68.0432V66.0432ZM1011.03 67.1199C1011.36 71.3625 1012.72 74.7521 1015.21 77.1599L1016.6 75.721C1014.55 73.7434 1013.33 70.8682 1013.03 66.9665L1011.03 67.1199ZM1015.24 77.1837C1017.78 79.4748 1020.88 80.612 1024.48 80.612V78.612C1021.34 78.612 1018.73 77.6349 1016.57 75.6972L1015.24 77.1837ZM1024.48 80.612C1027.13 80.612 1029.44 80.0529 1031.37 78.8812C1033.31 77.7067 1034.79 75.9571 1035.84 73.689L1034.03 72.8488C1033.12 74.8094 1031.88 76.2314 1030.33 77.1713C1028.78 78.114 1026.85 78.612 1024.48 78.612V80.612ZM1034.94 74.2689H1056.31V72.2689H1034.94V74.2689ZM1055.34 73.0222C1054.29 77.1814 1052.36 80.9224 1049.56 84.2544L1051.09 85.5416C1054.08 81.9822 1056.15 77.9705 1057.28 73.5156L1055.34 73.0222ZM1049.55 84.2647C1046.83 87.5842 1043.4 90.1944 1039.22 92.0927L1040.05 93.9135C1044.49 91.8963 1048.17 89.1031 1051.1 85.5312L1049.55 84.2647ZM1039.22 92.0927C1035.06 93.9844 1030.39 94.9397 1025.19 94.9397V96.9397C1030.64 96.9397 1035.6 95.9373 1040.05 93.9135L1039.22 92.0927ZM1025.19 94.9397C1018.91 94.9397 1013.36 93.6019 1008.52 90.9511L1007.56 92.7058C1012.73 95.5367 1018.62 96.9397 1025.19 96.9397V94.9397ZM1008.52 90.9511C1003.67 88.3029 999.893 84.5251 997.164 79.5974L995.414 80.5664C998.323 85.819 1002.37 89.8723 1007.56 92.7058L1008.52 90.9511ZM997.164 79.5974C994.44 74.679 993.06 68.8997 993.06 62.2271H991.06C991.06 69.1805 992.5 75.3044 995.414 80.5664L997.164 79.5974ZM993.06 62.2271C993.06 55.5501 994.403 49.767 997.052 44.8465L995.291 43.8983C992.459 49.1581 991.06 55.2782 991.06 62.2271H993.06ZM997.046 44.8569C999.776 39.9292 1003.56 36.1514 1008.4 33.5032L1007.44 31.7485C1002.26 34.582 998.206 38.6352 995.297 43.8879L997.046 44.8569ZM1008.4 33.5032C1013.24 30.8533 1018.83 29.5145 1025.19 29.5145V27.5145C1018.54 27.5145 1012.62 28.9166 1007.44 31.7485L1008.4 33.5032ZM1025.19 29.5145C1031.38 29.5145 1036.86 30.8144 1041.63 33.3884L1042.58 31.6283C1037.48 28.8772 1031.67 27.5145 1025.19 27.5145V29.5145ZM1041.63 33.3884C1046.39 35.9596 1050.09 39.6203 1052.74 44.3882L1054.49 43.4169C1051.65 38.3176 1047.68 34.3822 1042.58 31.6283L1041.63 33.3884ZM1052.74 44.3986C1055.46 49.1587 1056.84 54.7382 1056.84 61.1699H1058.84C1058.84 54.4456 1057.4 48.5134 1054.48 43.4064L1052.74 44.3986ZM1038.28 55.884C1038.28 52.1836 1037.01 49.1537 1034.42 46.9057L1033.11 48.4171C1035.21 50.2413 1036.28 52.6931 1036.28 55.884H1038.28ZM1034.42 46.9057C1031.86 44.691 1028.68 43.6073 1024.95 43.6073V45.6073C1028.27 45.6073 1030.96 46.5597 1033.11 48.4171L1034.42 46.9057ZM1024.95 43.6073C1021.37 43.6073 1018.28 44.6528 1015.74 46.7757L1017.02 48.3122C1019.17 46.5196 1021.79 45.6073 1024.95 45.6073V43.6073ZM1015.72 46.7865C1013.23 48.9318 1011.73 51.9483 1011.16 55.7335L1013.14 56.0344C1013.66 52.6151 1014.98 50.0716 1017.03 48.3013L1015.72 46.7865ZM1012.15 56.884L1037.28 56.884V54.884L1012.15 54.884V56.884ZM1072.2 19.5872L1071.5 20.307L1071.52 20.3196L1071.53 20.3317L1072.2 19.5872ZM1072.2 4.0817L1072.88 4.8145L1072.88 4.8136L1072.2 4.0817ZM1089.35 4.0817L1088.65 4.80155L1088.67 4.81415L1088.68 4.82627L1089.35 4.0817ZM1089.35 19.5872L1090.03 20.3199L1090.03 20.319L1089.35 19.5872ZM1090.87 29.4543H1091.87V28.4543H1090.87V29.4543ZM1090.87 95V96H1091.87V95H1090.87ZM1070.79 95H1069.79V96H1070.79V95ZM1070.79 29.4543V28.4543H1069.79V29.4543H1070.79ZM1080.89 21.6413C1077.57 21.6413 1074.92 20.6888 1072.86 18.8426L1071.53 20.3317C1074.01 22.5576 1077.16 23.6413 1080.89 23.6413V21.6413ZM1072.89 18.8673C1070.89 16.942 1069.91 14.6178 1069.91 11.8344H1067.91C1067.91 15.1592 1069.11 18.0036 1071.5 20.307L1072.89 18.8673ZM1069.91 11.8344C1069.91 8.9654 1070.9 6.65159 1072.88 4.8145L1071.52 3.34891C1069.11 5.58396 1067.91 8.43863 1067.91 11.8344H1069.91ZM1072.88 4.8136C1074.94 2.89515 1077.58 1.91013 1080.89 1.91013V-0.0898662C1077.15 -0.0898662 1074 1.0395 1071.52 3.34981L1072.88 4.8136ZM1080.89 1.91013C1084.11 1.91013 1086.67 2.89092 1088.65 4.80155L1090.04 3.36186C1087.64 1.04373 1084.56 -0.0898662 1080.89 -0.0898662V1.91013ZM1088.68 4.82627C1090.73 6.6669 1091.75 8.97743 1091.75 11.8344H1093.75C1093.75 8.4266 1092.5 5.56865 1090.01 3.33713L1088.68 4.82627ZM1091.75 11.8344C1091.75 14.6059 1090.74 16.9266 1088.67 18.8553L1090.03 20.319C1092.5 18.0189 1093.75 15.1711 1093.75 11.8344H1091.75ZM1088.67 18.8544C1086.69 20.6927 1084.12 21.6413 1080.89 21.6413V23.6413C1084.55 23.6413 1087.62 22.5538 1090.03 20.3199L1088.67 18.8544ZM1089.87 29.4543V95H1091.87V29.4543H1089.87ZM1090.87 94H1070.79V96H1090.87V94ZM1071.79 95V29.4543H1069.79V95H1071.79ZM1070.79 30.4543H1090.87V28.4543L1070.79 28.4543V30.4543ZM1144.78 31.3337L1144.3 32.2116L1144.31 32.216L1144.78 31.3337ZM1152.89 38.734L1152.03 39.2581L1153.89 42.2671V38.734H1152.89ZM1152.89 29.4543V28.4543H1151.89V29.4543H1152.89ZM1172.97 29.4543H1173.97V28.4543H1172.97V29.4543ZM1169.33 111.21L1168.44 110.763L1168.43 110.772L1168.43 110.78L1169.33 111.21ZM1158.41 122.957L1157.9 122.094L1157.89 122.098L1158.41 122.957ZM1116.59 120.373L1117.2 119.579L1117.19 119.574L1116.59 120.373ZM1106.25 101.813V100.813H1105.14L1105.26 101.922L1106.25 101.813ZM1126.1 101.813L1127.07 101.57L1126.88 100.813H1126.1V101.813ZM1130.57 107.686L1131.1 106.841L1131.09 106.835L1131.08 106.829L1130.57 107.686ZM1149.13 106.277L1148.44 105.547L1148.43 105.558L1148.42 105.57L1149.13 106.277ZM1152.89 85.6028H1153.89V82.1898L1152.04 85.0631L1152.89 85.6028ZM1144.78 93.1206L1145.26 93.9984L1145.27 93.9943L1145.28 93.99L1144.78 93.1206ZM1118 91.8284L1117.46 92.6697L1117.47 92.6764L1118 91.8284ZM1107.54 79.9644L1106.64 80.4007L1106.65 80.4089L1106.65 80.4171L1107.54 79.9644ZM1107.54 44.3724L1106.65 43.9196L1106.65 43.9307L1107.54 44.3724ZM1118 32.6258L1118.53 33.4738L1118.53 33.4738L1118 32.6258ZM1148.66 50.3631L1147.93 51.0504L1147.94 51.0605L1148.66 50.3631ZM1128.34 50.3631L1127.62 49.6658L1127.62 49.666L1128.34 50.3631ZM1128.34 74.0911L1127.6 74.7686L1127.61 74.7787L1127.62 74.7885L1128.34 74.0911ZM1148.66 74.0911L1147.94 73.3937L1147.93 73.4039L1148.66 74.0911ZM1132.68 29.5145C1137.16 29.5145 1141.03 30.4254 1144.3 32.2116L1145.26 30.4558C1141.64 28.4831 1137.44 27.5145 1132.68 27.5145V29.5145ZM1144.31 32.216C1147.7 34.0217 1150.26 36.3718 1152.03 39.2581L1153.74 38.2099C1151.76 34.988 1148.91 32.4046 1145.25 30.4513L1144.31 32.216ZM1153.89 38.734V29.4543H1151.89V38.734H1153.89ZM1152.89 30.4543H1172.97V28.4543L1152.89 28.4543V30.4543ZM1171.97 29.4543V94.8825H1173.97V29.4543H1171.97ZM1171.97 94.8825C1171.97 100.775 1170.79 106.061 1168.44 110.763L1170.23 111.657C1172.73 106.649 1173.97 101.05 1173.97 94.8825H1171.97ZM1168.43 110.78C1166.17 115.525 1162.67 119.293 1157.9 122.095L1158.91 123.819C1164.01 120.825 1167.79 116.763 1170.23 111.64L1168.43 110.78ZM1157.89 122.098C1153.23 124.88 1147.35 126.303 1140.2 126.303V128.303C1147.61 128.303 1153.87 126.828 1158.92 123.816L1157.89 122.098ZM1140.2 126.303C1130.65 126.303 1123.01 124.032 1117.2 119.579L1115.98 121.166C1122.23 125.954 1130.33 128.303 1140.2 128.303V126.303ZM1117.19 119.574C1111.39 115.206 1108.08 109.274 1107.25 101.704L1105.26 101.922C1106.15 110.014 1109.73 116.455 1115.99 121.171L1117.19 119.574ZM1106.25 102.813H1126.1V100.813H1106.25V102.813ZM1125.13 102.056C1125.83 104.836 1127.49 107.007 1130.05 108.544L1131.08 106.829C1128.95 105.546 1127.63 103.802 1127.07 101.57L1125.13 102.056ZM1130.03 108.531C1132.58 110.142 1135.67 110.918 1139.26 110.918V108.918C1135.96 108.918 1133.26 108.206 1131.1 106.841L1130.03 108.531ZM1139.26 110.918C1143.62 110.918 1147.18 109.637 1149.83 106.984L1148.42 105.57C1146.22 107.772 1143.2 108.918 1139.26 108.918V110.918ZM1149.81 107.006C1152.6 104.388 1153.89 100.261 1153.89 94.8825H1151.89C1151.89 99.9974 1150.66 103.467 1148.44 105.547L1149.81 107.006ZM1153.89 94.8825V85.6028H1151.89V94.8825H1153.89ZM1152.04 85.0631C1150.18 87.9684 1147.61 90.3659 1144.29 92.2511L1145.28 93.99C1148.85 91.9597 1151.67 89.3454 1153.73 86.1424L1152.04 85.0631ZM1144.3 92.2427C1141.03 94.0289 1137.16 94.9397 1132.68 94.9397V96.9397C1137.44 96.9397 1141.64 95.9711 1145.26 93.9984L1144.3 92.2427ZM1132.68 94.9397C1127.46 94.9397 1122.75 93.6174 1118.53 90.9804L1117.47 92.6764C1122.02 95.5212 1127.1 96.9397 1132.68 96.9397V94.9397ZM1118.54 90.9873C1114.32 88.2731 1110.95 84.459 1108.44 79.5117L1106.65 80.4171C1109.31 85.6501 1112.91 89.7454 1117.46 92.6696L1118.54 90.9873ZM1108.44 79.5281C1106.01 74.5172 1104.79 68.7192 1104.79 62.1097H1102.79C1102.79 68.9695 1104.06 75.0747 1106.64 80.4007L1108.44 79.5281ZM1104.79 62.1097C1104.79 55.4997 1106.01 49.7434 1108.44 44.8141L1106.65 43.9307C1104.06 49.1817 1102.79 55.2502 1102.79 62.1097H1104.79ZM1108.44 44.8251C1110.95 39.8797 1114.31 36.1084 1118.53 33.4738L1117.47 31.7778C1112.91 34.6249 1109.31 38.6847 1106.65 43.9197L1108.44 44.8251ZM1118.53 33.4738C1122.75 30.8369 1127.46 29.5145 1132.68 29.5145V27.5145C1127.1 27.5145 1122.02 28.9331 1117.47 31.7778L1118.53 33.4738ZM1153.89 62.2271C1153.89 57.0207 1152.42 52.7923 1149.37 49.6658L1147.94 51.0605C1150.54 53.7288 1151.89 57.4099 1151.89 62.2271H1153.89ZM1149.38 49.6759C1146.45 46.5784 1142.82 45.0169 1138.56 45.0169V47.0169C1142.27 47.0169 1145.38 48.3528 1147.93 51.0503L1149.38 49.6759ZM1138.56 45.0169C1134.29 45.0169 1130.62 46.5775 1127.62 49.6658L1129.05 51.0605C1131.69 48.3538 1134.84 47.0169 1138.56 47.0169V45.0169ZM1127.62 49.666C1124.65 52.7193 1123.22 56.9122 1123.22 62.1097H1125.22C1125.22 57.2834 1126.54 53.6452 1129.05 51.0602L1127.62 49.666ZM1123.22 62.1097C1123.22 67.3098 1124.65 71.5667 1127.6 74.7686L1129.07 73.4137C1126.54 70.664 1125.22 66.9332 1125.22 62.1097H1123.22ZM1127.62 74.7885C1130.62 77.8768 1134.29 79.4374 1138.56 79.4374V77.4374C1134.84 77.4374 1131.69 76.1004 1129.05 73.3938L1127.62 74.7885ZM1138.56 79.4374C1142.82 79.4374 1146.45 77.8758 1149.38 74.7783L1147.93 73.4039C1145.38 76.1014 1142.27 77.4374 1138.56 77.4374V79.4374ZM1149.37 74.7885C1152.42 71.6619 1153.89 67.4336 1153.89 62.2271H1151.89C1151.89 67.0444 1150.54 70.7254 1147.94 73.3938L1149.37 74.7885ZM1248.12 36.2673L1247.38 36.9388L1247.38 36.9448L1247.39 36.9508L1248.12 36.2673ZM1255.05 95V96H1256.05V95H1255.05ZM1235.08 95H1234.08V96H1235.08V95ZM1231.67 49.1885L1230.94 49.8716L1230.94 49.8716L1231.67 49.1885ZM1213.35 49.1885L1214.08 49.8716L1214.08 49.8716L1213.35 49.1885ZM1209.94 95V96H1210.94V95H1209.94ZM1189.85 95H1188.85V96H1189.85V95ZM1189.85 29.4543V28.4543H1188.85V29.4543H1189.85ZM1209.94 29.4543H1210.94V28.4543H1209.94V29.4543ZM1209.94 38.1467H1208.94V41.3091L1210.76 38.7216L1209.94 38.1467ZM1218.16 31.3337L1218.59 32.2362L1218.6 32.2322L1218.61 32.2281L1218.16 31.3337ZM1229.79 29.7495C1237.23 29.7495 1243.05 32.1653 1247.38 36.9388L1248.86 35.5957C1244.1 30.3454 1237.71 27.7495 1229.79 27.7495V29.7495ZM1247.39 36.9508C1251.79 41.6506 1254.05 48.1925 1254.05 56.7062H1256.05C1256.05 47.8351 1253.69 40.751 1248.85 35.5837L1247.39 36.9508ZM1254.05 56.7062V95H1256.05V56.7062H1254.05ZM1255.05 94H1235.08V96H1255.05V94ZM1236.08 95V59.408H1234.08V95H1236.08ZM1236.08 59.408C1236.08 54.852 1234.9 51.1711 1232.4 48.5053L1230.94 49.8716C1232.99 52.0611 1234.08 55.1931 1234.08 59.408H1236.08ZM1232.4 48.5053C1229.91 45.8438 1226.58 44.547 1222.51 44.547V46.547C1226.12 46.547 1228.89 47.6779 1230.94 49.8716L1232.4 48.5053ZM1222.51 44.547C1218.44 44.547 1215.11 45.8438 1212.62 48.5053L1214.08 49.8716C1216.13 47.6779 1218.9 46.547 1222.51 46.547V44.547ZM1212.62 48.5053C1210.12 51.1711 1208.94 54.852 1208.94 59.408H1210.94C1210.94 55.1931 1212.03 52.0611 1214.08 49.8716L1212.62 48.5053ZM1208.94 59.408V95H1210.94V59.408H1208.94ZM1209.94 94H1189.85V96H1209.94V94ZM1190.85 95V29.4543H1188.85V95H1190.85ZM1189.85 30.4543L1209.94 30.4543V28.4543H1189.85V30.4543ZM1208.94 29.4543V38.1467H1210.94V29.4543H1208.94ZM1210.76 38.7216C1212.69 35.9757 1215.29 33.8126 1218.59 32.2362L1217.73 30.4312C1214.14 32.1438 1211.26 34.5227 1209.12 37.5718L1210.76 38.7216ZM1218.61 32.2281C1221.9 30.5826 1225.62 29.7495 1229.79 29.7495V27.7495C1225.35 27.7495 1221.32 28.6392 1217.72 30.4393L1218.61 32.2281ZM1272.76 19.5872L1272.07 20.307L1272.08 20.3196L1272.1 20.3317L1272.76 19.5872ZM1272.76 4.0817L1273.44 4.8145L1273.45 4.8136L1272.76 4.0817ZM1289.91 4.0817L1289.22 4.80155L1289.23 4.81415L1289.25 4.82627L1289.91 4.0817ZM1289.91 19.5872L1290.59 20.3199L1290.6 20.319L1289.91 19.5872ZM1291.44 29.4543H1292.44V28.4543H1291.44V29.4543ZM1291.44 95V96H1292.44V95H1291.44ZM1271.35 95H1270.35V96H1271.35V95ZM1271.35 29.4543V28.4543H1270.35V29.4543H1271.35ZM1281.46 21.6413C1278.14 21.6413 1275.49 20.6888 1273.43 18.8426L1272.1 20.3317C1274.58 22.5576 1277.73 23.6413 1281.46 23.6413V21.6413ZM1273.46 18.8673C1271.46 16.942 1270.48 14.6178 1270.48 11.8344H1268.48C1268.48 15.1592 1269.68 18.0036 1272.07 20.307L1273.46 18.8673ZM1270.48 11.8344C1270.48 8.9654 1271.47 6.65159 1273.44 4.8145L1272.08 3.34891C1269.68 5.58396 1268.48 8.43863 1268.48 11.8344H1270.48ZM1273.45 4.8136C1275.51 2.89515 1278.15 1.91013 1281.46 1.91013V-0.0898662C1277.72 -0.0898662 1274.56 1.0395 1272.08 3.34981L1273.45 4.8136ZM1281.46 1.91013C1284.68 1.91013 1287.24 2.89092 1289.22 4.80155L1290.61 3.36186C1288.2 1.04373 1285.12 -0.0898662 1281.46 -0.0898662V1.91013ZM1289.25 4.82627C1291.3 6.6669 1292.32 8.97743 1292.32 11.8344H1294.32C1294.32 8.4266 1293.07 5.56865 1290.58 3.33713L1289.25 4.82627ZM1292.32 11.8344C1292.32 14.6059 1291.3 16.9266 1289.23 18.8553L1290.6 20.319C1293.07 18.0189 1294.32 15.1711 1294.32 11.8344H1292.32ZM1289.23 18.8544C1287.25 20.6927 1284.69 21.6413 1281.46 21.6413V23.6413C1285.11 23.6413 1288.19 22.5538 1290.59 20.3199L1289.23 18.8544ZM1290.44 29.4543V95H1292.44V29.4543H1290.44ZM1291.44 94H1271.35V96H1291.44V94ZM1272.35 95V29.4543H1270.35V95H1272.35ZM1271.35 30.4543L1291.44 30.4543V28.4543H1271.35V30.4543ZM1344.88 77.9675H1345.88V76.9675H1344.88V77.9675ZM1344.88 95V96H1345.88V95H1344.88ZM1317.63 89.7141L1316.96 90.4631L1316.97 90.4702L1317.63 89.7141ZM1311.52 46.1344H1312.52V45.1344H1311.52V46.1344ZM1303.53 46.1344H1302.53V47.1344H1303.53V46.1344ZM1303.53 29.4543V28.4543H1302.53V29.4543H1303.53ZM1311.52 29.4543V30.4543H1312.52V29.4543H1311.52ZM1311.52 13.4789V12.4789H1310.52V13.4789H1311.52ZM1331.61 13.4789H1332.61V12.4789H1331.61V13.4789ZM1331.61 29.4543H1330.61V30.4543H1331.61V29.4543ZM1344.76 29.4543H1345.76V28.4543H1344.76V29.4543ZM1344.76 46.1344V47.1344H1345.76V46.1344H1344.76ZM1331.61 46.1344V45.1344H1330.61V46.1344H1331.61ZM1333.01 76.6754L1332.34 77.4125L1332.34 77.4125L1333.01 76.6754ZM1343.88 77.9675V95H1345.88V77.9675H1343.88ZM1344.88 94H1334.66V96H1344.88V94ZM1334.66 94C1327.53 94 1322.12 92.2766 1318.28 88.9579L1316.97 90.4702C1321.28 94.1995 1327.22 96 1334.66 96V94ZM1318.29 88.9651C1314.52 85.629 1312.52 80.1314 1312.52 72.2117H1310.52C1310.52 80.4239 1312.59 86.5945 1316.96 90.463L1318.29 88.9651ZM1312.52 72.2117V46.1344H1310.52V72.2117H1312.52ZM1311.52 45.1344H1303.53V47.1344H1311.52V45.1344ZM1304.53 46.1344V29.4543H1302.53V46.1344H1304.53ZM1303.53 30.4543H1311.52V28.4543H1303.53V30.4543ZM1312.52 29.4543V13.4789H1310.52V29.4543H1312.52ZM1311.52 14.4789H1331.61V12.4789H1311.52V14.4789ZM1330.61 13.4789V29.4543H1332.61V13.4789H1330.61ZM1331.61 30.4543H1344.76V28.4543L1331.61 28.4543V30.4543ZM1343.76 29.4543V46.1344H1345.76V29.4543L1343.76 29.4543ZM1344.76 45.1344H1331.61V47.1344H1344.76V45.1344ZM1330.61 46.1344V72.4466H1332.61V46.1344H1330.61ZM1330.61 72.4466C1330.61 74.5357 1331.1 76.2802 1332.34 77.4125L1333.69 75.9382C1333.05 75.3477 1332.61 74.2731 1332.61 72.4466H1330.61ZM1332.34 77.4125C1333.56 78.529 1335.44 78.9675 1337.71 78.9675V76.9675C1335.61 76.9675 1334.35 76.5446 1333.69 75.9382L1332.34 77.4125ZM1337.71 78.9675H1344.88V76.9675H1337.71V78.9675ZM1419.85 67.0432V68.0432H1420.74L1420.84 67.1578L1419.85 67.0432ZM1374.39 67.0432V66.0432H1373.31L1373.4 67.1199L1374.39 67.0432ZM1378.27 76.4405L1377.57 77.1599L1377.59 77.172L1377.6 77.1837L1378.27 76.4405ZM1397.3 73.2689V72.2689H1396.66L1396.39 72.8488L1397.3 73.2689ZM1418.68 73.2689L1419.65 73.5156L1419.96 72.2689H1418.68V73.2689ZM1412.69 84.898L1411.92 84.2543L1411.91 84.2647L1412.69 84.898ZM1402 93.0031L1402.41 93.9135L1402 93.0031ZM1370.4 91.8284L1369.92 92.7058L1369.92 92.7058L1370.4 91.8284ZM1358.65 80.0819L1359.53 79.5974L1359.53 79.5974L1358.65 80.0819ZM1358.53 44.3724L1357.66 43.8878L1357.65 43.8983L1358.53 44.3724ZM1370.28 32.6258L1370.76 33.5032L1370.76 33.5032L1370.28 32.6258ZM1404.46 32.5084L1403.99 33.3884L1403.99 33.3884L1404.46 32.5084ZM1415.97 43.9025L1415.1 44.3882L1415.11 44.3986L1415.97 43.9025ZM1399.65 55.884V56.884H1400.65V55.884H1399.65ZM1396.12 47.6614L1396.78 46.9057L1396.78 46.9057L1396.12 47.6614ZM1378.74 47.5439L1378.1 46.7757L1378.09 46.7811L1378.09 46.7865L1378.74 47.5439ZM1374.51 55.884L1373.52 55.7335L1373.35 56.884H1374.51V55.884ZM1419.2 61.1699C1419.2 63.0078 1419.09 64.9272 1418.86 66.9286L1420.84 67.1578C1421.08 65.0871 1421.2 63.0909 1421.2 61.1699H1419.2ZM1419.85 66.0432H1374.39V68.0432H1419.85V66.0432ZM1373.4 67.1199C1373.72 71.3625 1375.08 74.7521 1377.57 77.1599L1378.96 75.721C1376.91 73.7434 1375.69 70.8682 1375.39 66.9665L1373.4 67.1199ZM1377.6 77.1837C1380.15 79.4748 1383.25 80.612 1386.84 80.612V78.612C1383.71 78.612 1381.09 77.6349 1378.94 75.6972L1377.6 77.1837ZM1386.84 80.612C1389.49 80.612 1391.8 80.0529 1393.73 78.8812C1395.67 77.7067 1397.16 75.9571 1398.21 73.689L1396.39 72.8488C1395.48 74.8094 1394.25 76.2314 1392.7 77.1713C1391.14 78.114 1389.21 78.612 1386.84 78.612V80.612ZM1397.3 74.2689H1418.68V72.2689H1397.3V74.2689ZM1417.71 73.0222C1416.65 77.1814 1414.72 80.9224 1411.92 84.2544L1413.45 85.5416C1416.44 81.9822 1418.51 77.9705 1419.65 73.5156L1417.71 73.0222ZM1411.91 84.2647C1409.2 87.5842 1405.76 90.1944 1401.58 92.0927L1402.41 93.9135C1406.85 91.8963 1410.54 89.1031 1413.46 85.5312L1411.91 84.2647ZM1401.58 92.0927C1397.42 93.9844 1392.75 94.9397 1387.55 94.9397V96.9397C1393 96.9397 1397.96 95.9373 1402.41 93.9135L1401.58 92.0927ZM1387.55 94.9397C1381.27 94.9397 1375.73 93.6019 1370.88 90.9511L1369.92 92.7058C1375.09 95.5367 1380.98 96.9397 1387.55 96.9397V94.9397ZM1370.88 90.9511C1366.04 88.3029 1362.26 84.5251 1359.53 79.5974L1357.78 80.5664C1360.69 85.819 1364.74 89.8723 1369.92 92.7058L1370.88 90.9511ZM1359.53 79.5974C1356.8 74.679 1355.42 68.8997 1355.42 62.2271H1353.42C1353.42 69.1805 1354.86 75.3044 1357.78 80.5664L1359.53 79.5974ZM1355.42 62.2271C1355.42 55.5501 1356.77 49.767 1359.41 44.8465L1357.65 43.8983C1354.82 49.1581 1353.42 55.2782 1353.42 62.2271H1355.42ZM1359.41 44.8569C1362.14 39.9292 1365.92 36.1514 1370.76 33.5032L1369.8 31.7485C1364.62 34.582 1360.57 38.6352 1357.66 43.8879L1359.41 44.8569ZM1370.76 33.5032C1375.61 30.8533 1381.19 29.5145 1387.55 29.5145V27.5145C1380.9 27.5145 1374.98 28.9166 1369.8 31.7485L1370.76 33.5032ZM1387.55 29.5145C1393.75 29.5145 1399.22 30.8144 1403.99 33.3884L1404.94 31.6283C1399.84 28.8772 1394.04 27.5145 1387.55 27.5145V29.5145ZM1403.99 33.3884C1408.75 35.9596 1412.45 39.6203 1415.1 44.3882L1416.85 43.4169C1414.02 38.3176 1410.04 34.3822 1404.94 31.6283L1403.99 33.3884ZM1415.11 44.3986C1417.83 49.1587 1419.2 54.7382 1419.2 61.1699H1421.2C1421.2 54.4456 1419.76 48.5134 1416.84 43.4064L1415.11 44.3986ZM1400.65 55.884C1400.65 52.1836 1399.37 49.1537 1396.78 46.9057L1395.47 48.4171C1397.57 50.2413 1398.65 52.6931 1398.65 55.884H1400.65ZM1396.78 46.9057C1394.22 44.691 1391.04 43.6073 1387.31 43.6073V45.6073C1390.63 45.6073 1393.33 46.5597 1395.47 48.4171L1396.78 46.9057ZM1387.31 43.6073C1383.74 43.6073 1380.65 44.6528 1378.1 46.7757L1379.38 48.3122C1381.53 46.5196 1384.15 45.6073 1387.31 45.6073V43.6073ZM1378.09 46.7865C1375.6 48.9318 1374.1 51.9483 1373.52 55.7335L1375.5 56.0344C1376.02 52.6151 1377.34 50.0716 1379.39 48.3013L1378.09 46.7865ZM1374.51 56.884H1399.65V54.884H1374.51V56.884ZM1453.24 40.3785H1452.24V43.7425L1454.07 40.9248L1453.24 40.3785ZM1462.05 31.921L1462.55 32.7869L1462.55 32.7828L1462.56 32.7785L1462.05 31.921ZM1473.79 28.7495H1474.79V27.7495H1473.79V28.7495ZM1473.79 50.0107V51.0107H1474.79V50.0107H1473.79ZM1457 53.2997L1457.64 54.064L1457.65 54.0582L1457.65 54.0523L1457 53.2997ZM1453.24 95V96H1454.24V95H1453.24ZM1433.15 95H1432.15V96H1433.15V95ZM1433.15 29.4543V28.4543L1432.15 28.4543V29.4543L1433.15 29.4543ZM1453.24 29.4543H1454.24V28.4543H1453.24V29.4543ZM1454.07 40.9248C1456.34 37.4464 1459.17 34.7399 1462.55 32.7869L1461.55 31.0552C1457.88 33.1743 1454.83 36.1061 1452.4 39.8323L1454.07 40.9248ZM1462.56 32.7785C1465.92 30.762 1469.66 29.7495 1473.79 29.7495V27.7495C1469.31 27.7495 1465.22 28.8513 1461.53 31.0635L1462.56 32.7785ZM1472.79 28.7495V50.0107H1474.79V28.7495H1472.79ZM1473.79 49.0107H1468.27V51.0107H1473.79V49.0107ZM1468.27 49.0107C1463.14 49.0107 1459.1 50.1313 1456.34 52.5472L1457.65 54.0523C1459.9 52.0829 1463.38 51.0107 1468.27 51.0107V49.0107ZM1456.35 52.5355C1453.51 54.9339 1452.24 59.0647 1452.24 64.5764H1454.24C1454.24 59.2813 1455.47 55.8944 1457.64 54.064L1456.35 52.5355ZM1452.24 64.5764V95H1454.24V64.5764H1452.24ZM1453.24 94H1433.15V96H1453.24V94ZM1434.15 95V29.4543L1432.15 29.4543V95H1434.15ZM1433.15 30.4543H1453.24V28.4543H1433.15V30.4543ZM1452.24 29.4543V40.3785H1454.24V29.4543H1452.24ZM1487.62 31.921L1488.5 32.4067L1488.5 32.4021L1487.62 31.921ZM1502.31 17.0029L1502.8 17.8745L1502.8 17.8725L1502.31 17.0029ZM1548.94 19.3522L1549.54 18.549L1549.54 18.549L1548.94 19.3522ZM1562.92 40.496V41.496H1564.21L1563.88 40.2415L1562.92 40.496ZM1540.83 40.496L1539.93 40.9267L1540.2 41.496H1540.83V40.496ZM1533.79 32.6258L1533.27 33.4814L1533.28 33.4872L1533.79 32.6258ZM1508.53 36.3847L1509.28 37.0499L1509.28 37.0499L1508.53 36.3847ZM1508.53 70.9196L1507.78 71.5848L1508.53 70.9196ZM1533.79 74.6785L1533.28 73.817L1533.27 73.823L1533.79 74.6785ZM1540.83 66.8083V65.8083H1540.2L1539.93 66.3776L1540.83 66.8083ZM1562.92 66.8083L1563.88 67.0628L1564.21 65.8083H1562.92V66.8083ZM1548.94 87.9521L1549.53 88.7596L1549.54 88.7553L1548.94 87.9521ZM1502.31 90.3014L1501.81 91.1683L1501.81 91.172L1501.82 91.1755L1502.31 90.3014ZM1487.62 75.3833L1488.5 74.8976L1488.5 74.8976L1487.62 75.3833ZM1483.34 53.6521C1483.34 45.6566 1485.06 38.5838 1488.5 32.4067L1486.75 31.4354C1483.13 37.9445 1481.34 45.3591 1481.34 53.6521H1483.34ZM1488.5 32.4021C1491.94 26.1411 1496.7 21.3051 1502.8 17.8745L1501.82 16.1313C1495.38 19.7487 1490.36 24.8581 1486.75 31.4399L1488.5 32.4021ZM1502.8 17.8725C1508.98 14.3637 1515.97 12.5995 1523.8 12.5995V10.5995C1515.66 10.5995 1508.32 12.4376 1501.81 16.1333L1502.8 17.8725ZM1523.8 12.5995C1533.4 12.5995 1541.57 15.1309 1548.34 20.1555L1549.54 18.549C1542.37 13.2366 1533.78 10.5995 1523.8 10.5995V12.5995ZM1548.34 20.1555C1555.12 25.1795 1559.66 32.0279 1561.95 40.7505L1563.88 40.2415C1561.48 31.1094 1556.7 23.8619 1549.54 18.549L1548.34 20.1555ZM1562.92 39.496L1540.83 39.496V41.496L1562.92 41.496V39.496ZM1541.74 40.0653C1540.01 36.4545 1537.53 33.6745 1534.29 31.7645L1533.28 33.4872C1536.15 35.1794 1538.37 37.6462 1539.93 40.9267L1541.74 40.0653ZM1534.3 31.7703C1531.16 29.8651 1527.57 28.9241 1523.57 28.9241V30.9241C1527.24 30.9241 1530.46 31.7843 1533.27 33.4813L1534.3 31.7703ZM1523.57 28.9241C1517.12 28.9241 1511.83 31.1827 1507.78 35.7195L1509.28 37.0499C1512.91 32.9726 1517.64 30.9241 1523.57 30.9241V28.9241ZM1507.78 35.7195C1503.75 40.2521 1501.78 46.2657 1501.78 53.6521H1503.78C1503.78 46.6295 1505.64 41.1314 1509.28 37.0499L1507.78 35.7195ZM1501.78 53.6521C1501.78 61.0386 1503.75 67.0522 1507.78 71.5848L1509.28 70.2544C1505.64 66.1728 1503.78 60.6748 1503.78 53.6521H1501.78ZM1507.78 71.5848C1511.83 76.1216 1517.12 78.3802 1523.57 78.3802V76.3802C1517.64 76.3802 1512.91 74.3316 1509.28 70.2544L1507.78 71.5848ZM1523.57 78.3802C1527.57 78.3802 1531.16 77.4392 1534.3 75.534L1533.27 73.823C1530.46 75.52 1527.24 76.3802 1523.57 76.3802V78.3802ZM1534.29 75.5398C1537.53 73.6298 1540.01 70.8498 1541.74 67.239L1539.93 66.3776C1538.37 69.6581 1536.15 72.1249 1533.28 73.8171L1534.29 75.5398ZM1540.83 67.8083L1562.92 67.8083V65.8083L1540.83 65.8083V67.8083ZM1561.95 66.5538C1559.66 75.2764 1555.12 82.1247 1548.34 87.1488L1549.54 88.7553C1556.7 83.4424 1561.48 76.1949 1563.88 67.0628L1561.95 66.5538ZM1548.35 87.1445C1541.57 92.0932 1533.41 94.5873 1523.8 94.5873V96.5873C1533.77 96.5873 1542.37 93.9913 1549.53 88.7596L1548.35 87.1445ZM1523.8 94.5873C1515.97 94.5873 1508.97 92.8605 1502.79 89.4272L1501.82 91.1755C1508.33 94.7902 1515.66 96.5873 1523.8 96.5873V94.5873ZM1502.8 89.4345C1496.7 85.9232 1491.93 81.0826 1488.5 74.8976L1486.75 75.8689C1490.36 82.3702 1495.38 87.475 1501.81 91.1683L1502.8 89.4345ZM1488.5 74.8976C1485.06 68.7205 1483.34 61.6476 1483.34 53.6521H1481.34C1481.34 61.9452 1483.13 69.3597 1486.75 75.8689L1488.5 74.8976ZM1590.02 91.8284L1589.55 92.7089L1589.55 92.7119L1590.02 91.8284ZM1577.92 80.0819L1577.05 80.5766L1577.06 80.5866L1577.92 80.0819ZM1578.04 44.4898L1578.9 44.9945L1578.9 44.9888L1578.04 44.4898ZM1590.25 32.6258L1590.72 33.5093L1590.72 33.5093L1590.25 32.6258ZM1625.02 32.6258L1624.56 33.5093L1624.56 33.5093L1625.02 32.6258ZM1637.24 44.4898L1636.37 44.9888L1636.38 44.9945L1637.24 44.4898ZM1637.12 80.0819L1636.26 79.5731L1636.26 79.5772L1637.12 80.0819ZM1624.79 91.8284L1624.33 90.9421L1624.32 90.945L1624.79 91.8284ZM1617.15 74.3261L1616.44 73.629L1616.43 73.6342L1616.43 73.6394L1617.15 74.3261ZM1617.27 50.1282L1616.53 50.8039L1616.54 50.8094L1616.54 50.8148L1617.27 50.1282ZM1597.89 50.1282L1598.62 50.8143L1598.63 50.8039L1597.89 50.1282ZM1597.77 74.3261L1597.02 74.9904L1597.03 74.9962L1597.03 75.0018L1597.77 74.3261ZM1607.4 94.9397C1601.13 94.9397 1595.5 93.602 1590.49 90.945L1589.55 92.7119C1594.88 95.5366 1600.84 96.9397 1607.4 96.9397V94.9397ZM1590.49 90.948C1585.57 88.296 1581.67 84.512 1578.78 79.5772L1577.06 80.5866C1580.12 85.8321 1584.29 89.8791 1589.55 92.7089L1590.49 90.948ZM1578.79 79.5872C1575.99 74.6708 1574.57 68.8952 1574.57 62.2271H1572.57C1572.57 69.185 1574.05 75.3126 1577.05 80.5766L1578.79 79.5872ZM1574.57 62.2271C1574.57 55.6442 1576.03 49.9108 1578.9 44.9945L1577.17 43.9851C1574.1 49.2492 1572.57 55.3407 1572.57 62.2271H1574.57ZM1578.9 44.9888C1581.79 39.98 1585.72 36.1602 1590.72 33.5093L1589.79 31.7424C1584.45 34.5732 1580.24 38.6627 1577.17 43.9909L1578.9 44.9888ZM1590.72 33.5093C1595.73 30.8522 1601.36 29.5145 1607.64 29.5145V27.5145C1601.07 27.5145 1595.11 28.9177 1589.79 31.7424L1590.72 33.5093ZM1607.64 29.5145C1613.91 29.5145 1619.55 30.8522 1624.56 33.5093L1625.49 31.7424C1620.17 28.9177 1614.21 27.5145 1607.64 27.5145V29.5145ZM1624.56 33.5093C1629.55 36.1602 1633.49 39.98 1636.37 44.9888L1638.11 43.9909C1635.04 38.6627 1630.83 34.5732 1625.49 31.7424L1624.56 33.5093ZM1636.38 44.9945C1639.25 49.9108 1640.7 55.6442 1640.7 62.2271H1642.7C1642.7 55.3407 1641.18 49.2492 1638.1 43.9851L1636.38 44.9945ZM1640.7 62.2271C1640.7 68.8052 1639.21 74.5769 1636.26 79.5732L1637.98 80.5906C1641.14 75.2499 1642.7 69.1185 1642.7 62.2271H1640.7ZM1636.26 79.5772C1633.38 84.5044 1629.41 88.2879 1624.33 90.9421L1625.25 92.7148C1630.66 89.8872 1634.92 85.8397 1637.99 80.5866L1636.26 79.5772ZM1624.32 90.945C1619.31 93.602 1613.68 94.9397 1607.4 94.9397V96.9397C1613.97 96.9397 1619.93 95.5366 1625.26 92.7119L1624.32 90.945ZM1607.4 79.5548C1611.52 79.5548 1615.03 78.0295 1617.88 75.0127L1616.43 73.6394C1613.95 76.261 1610.96 77.5548 1607.4 77.5548V79.5548ZM1617.87 75.0232C1620.85 71.9617 1622.27 67.6447 1622.27 62.2271H1620.27C1620.27 67.3031 1618.94 71.0521 1616.44 73.629L1617.87 75.0232ZM1622.27 62.2271C1622.27 56.8168 1620.89 52.5038 1618 49.4416L1616.54 50.8148C1618.98 53.3909 1620.27 57.1438 1620.27 62.2271H1622.27ZM1618.01 49.4525C1615.23 46.4259 1611.76 44.8994 1607.64 44.8994V46.8994C1611.2 46.8994 1614.14 48.1922 1616.53 50.8039L1618.01 49.4525ZM1607.64 44.8994C1603.45 44.8994 1599.93 46.4211 1597.15 49.4525L1598.63 50.8039C1601.02 48.1969 1604 46.8994 1607.64 46.8994V44.8994ZM1597.16 49.4422C1594.34 52.4334 1593.01 56.7527 1593.01 62.2271H1595.01C1595.01 57.0513 1596.27 53.3047 1598.62 50.8142L1597.16 49.4422ZM1593.01 62.2271C1593.01 67.6231 1594.3 71.9275 1597.02 74.9904L1598.52 73.6617C1596.23 71.0863 1595.01 67.3248 1595.01 62.2271H1593.01ZM1597.03 75.0018C1599.81 78.0284 1603.29 79.5548 1607.4 79.5548V77.5548C1603.85 77.5548 1600.9 76.2621 1598.51 73.6503L1597.03 75.0018ZM1654.47 44.3724L1653.58 43.9196L1653.58 43.9307L1654.47 44.3724ZM1664.93 32.6258L1665.46 33.4738L1665.46 33.4738L1664.93 32.6258ZM1691.36 31.2162L1690.9 32.1067L1690.91 32.1107L1691.36 31.2162ZM1699.82 38.4991L1698.98 39.0538L1700.82 41.8019V38.4991H1699.82ZM1699.82 8.07553V7.07553H1698.82V8.07553H1699.82ZM1719.9 8.07553H1720.9V7.07553H1719.9V8.07553ZM1719.9 95V96H1720.9V95H1719.9ZM1699.82 95H1698.82V96H1699.82V95ZM1699.82 85.6028H1700.82V81.9924L1698.96 85.0883L1699.82 85.6028ZM1691.71 93.1206L1691.24 92.2382L1691.23 92.2427L1691.71 93.1206ZM1664.93 91.8284L1664.39 92.6697L1664.4 92.6764L1664.93 91.8284ZM1654.47 79.9644L1653.57 80.4007L1653.58 80.4089L1653.58 80.4171L1654.47 79.9644ZM1695.59 50.3631L1694.86 51.0504L1694.87 51.0605L1695.59 50.3631ZM1675.27 50.3631L1674.55 49.6658L1674.55 49.666L1675.27 50.3631ZM1675.27 74.0911L1674.53 74.7686L1674.54 74.7787L1674.55 74.7885L1675.27 74.0911ZM1695.59 74.0911L1694.87 73.3937L1694.86 73.4039L1695.59 74.0911ZM1651.72 62.1097C1651.72 55.4997 1652.95 49.7434 1655.37 44.8141L1653.58 43.9307C1650.99 49.1817 1649.72 55.2502 1649.72 62.1097H1651.72ZM1655.37 44.8251C1657.88 39.8797 1661.24 36.1084 1665.46 33.4738L1664.4 31.7778C1659.84 34.6249 1656.24 38.6847 1653.58 43.9197L1655.37 44.8251ZM1665.46 33.4738C1669.68 30.8369 1674.39 29.5145 1679.61 29.5145V27.5145C1674.03 27.5145 1668.95 28.9331 1664.4 31.7778L1665.46 33.4738ZM1679.61 29.5145C1683.78 29.5145 1687.53 30.3838 1690.9 32.1067L1691.81 30.3258C1688.14 28.4464 1684.06 27.5145 1679.61 27.5145V29.5145ZM1690.91 32.1107C1694.37 33.8417 1697.05 36.1583 1698.98 39.0538L1700.65 37.9444C1698.51 34.7317 1695.55 32.193 1691.81 30.3218L1690.91 32.1107ZM1700.82 38.4991V8.07553H1698.82V38.4991H1700.82ZM1699.82 9.07553H1719.9V7.07553H1699.82V9.07553ZM1718.9 8.07553V95H1720.9V8.07553H1718.9ZM1719.9 94H1699.82V96H1719.9V94ZM1700.82 95V85.6028H1698.82V95H1700.82ZM1698.96 85.0883C1697.18 88.0509 1694.62 90.4358 1691.24 92.2382L1692.18 94.0029C1695.85 92.0464 1698.69 89.4194 1700.67 86.1173L1698.96 85.0883ZM1691.23 92.2427C1687.96 94.0289 1684.1 94.9397 1679.61 94.9397V96.9397C1684.37 96.9397 1688.57 95.9711 1692.19 93.9984L1691.23 92.2427ZM1679.61 94.9397C1674.39 94.9397 1669.68 93.6174 1665.46 90.9804L1664.4 92.6764C1668.95 95.5212 1674.03 96.9397 1679.61 96.9397V94.9397ZM1665.47 90.9873C1661.25 88.2731 1657.88 84.459 1655.37 79.5117L1653.58 80.4171C1656.24 85.6501 1659.84 89.7454 1664.39 92.6696L1665.47 90.9873ZM1655.37 79.5281C1652.95 74.5172 1651.72 68.7192 1651.72 62.1097H1649.72C1649.72 68.9695 1650.99 75.0747 1653.57 80.4007L1655.37 79.5281ZM1700.82 62.2271C1700.82 57.0207 1699.35 52.7923 1696.3 49.6658L1694.87 51.0605C1697.47 53.7288 1698.82 57.4099 1698.82 62.2271H1700.82ZM1696.31 49.6759C1693.38 46.5784 1689.75 45.0169 1685.49 45.0169V47.0169C1689.21 47.0169 1692.31 48.3528 1694.86 51.0503L1696.31 49.6759ZM1685.49 45.0169C1681.22 45.0169 1677.55 46.5775 1674.55 49.6658L1675.98 51.0605C1678.62 48.3538 1681.77 47.0169 1685.49 47.0169V45.0169ZM1674.55 49.666C1671.58 52.7193 1670.15 56.9122 1670.15 62.1097H1672.15C1672.15 57.2834 1673.47 53.6452 1675.98 51.0602L1674.55 49.666ZM1670.15 62.1097C1670.15 67.3098 1671.58 71.5667 1674.53 74.7686L1676 73.4137C1673.47 70.664 1672.15 66.9332 1672.15 62.1097H1670.15ZM1674.55 74.7885C1677.55 77.8768 1681.22 79.4374 1685.49 79.4374V77.4374C1681.77 77.4374 1678.62 76.1004 1675.98 73.3938L1674.55 74.7885ZM1685.49 79.4374C1689.75 79.4374 1693.38 77.8758 1696.31 74.7783L1694.86 73.4039C1692.31 76.1014 1689.21 77.4374 1685.49 77.4374V79.4374ZM1696.3 74.7885C1699.35 71.6619 1700.82 67.4336 1700.82 62.2271H1698.82C1698.82 67.0444 1697.47 70.7254 1694.87 73.3938L1696.3 74.7885ZM1798.22 67.0432V68.0432H1799.11L1799.21 67.1578L1798.22 67.0432ZM1752.76 67.0432V66.0432H1751.68L1751.76 67.1199L1752.76 67.0432ZM1756.64 76.4405L1755.94 77.1599L1755.95 77.172L1755.97 77.1837L1756.64 76.4405ZM1775.67 73.2689V72.2689H1775.03L1774.76 72.8488L1775.67 73.2689ZM1797.04 73.2689L1798.01 73.5156L1798.33 72.2689H1797.04V73.2689ZM1791.05 84.898L1790.29 84.2543L1790.28 84.2647L1791.05 84.898ZM1780.36 93.0031L1780.78 93.9135L1780.36 93.0031ZM1748.77 91.8284L1748.29 92.7058L1748.29 92.7058L1748.77 91.8284ZM1737.02 80.0819L1737.89 79.5974L1737.89 79.5974L1737.02 80.0819ZM1736.9 44.3724L1736.03 43.8878L1736.02 43.8983L1736.9 44.3724ZM1748.65 32.6258L1749.13 33.5032L1749.13 33.5032L1748.65 32.6258ZM1782.83 32.5084L1782.36 33.3884L1782.36 33.3884L1782.83 32.5084ZM1794.34 43.9025L1793.47 44.3882L1793.47 44.3986L1794.34 43.9025ZM1778.01 55.884V56.884H1779.01V55.884H1778.01ZM1774.49 47.6614L1775.15 46.9057L1775.15 46.9057L1774.49 47.6614ZM1757.11 47.5439L1756.47 46.7757L1756.46 46.7811L1756.45 46.7865L1757.11 47.5439ZM1752.88 55.884L1751.89 55.7335L1751.71 56.884H1752.88V55.884ZM1797.57 61.1699C1797.57 63.0078 1797.46 64.9272 1797.23 66.9286L1799.21 67.1578C1799.45 65.0871 1799.57 63.0909 1799.57 61.1699H1797.57ZM1798.22 66.0432H1752.76V68.0432H1798.22V66.0432ZM1751.76 67.1199C1752.09 71.3625 1753.45 74.7521 1755.94 77.1599L1757.33 75.721C1755.28 73.7434 1754.06 70.8682 1753.76 66.9665L1751.76 67.1199ZM1755.97 77.1837C1758.51 79.4748 1761.61 80.612 1765.21 80.612V78.612C1762.07 78.612 1759.46 77.6349 1757.3 75.6972L1755.97 77.1837ZM1765.21 80.612C1767.86 80.612 1770.17 80.0529 1772.1 78.8812C1774.04 77.7067 1775.52 75.9571 1776.57 73.689L1774.76 72.8488C1773.85 74.8094 1772.61 76.2314 1771.06 77.1713C1769.51 78.114 1767.58 78.612 1765.21 78.612V80.612ZM1775.67 74.2689H1797.04V72.2689H1775.67V74.2689ZM1796.07 73.0222C1795.02 77.1814 1793.09 80.9224 1790.29 84.2544L1791.82 85.5416C1794.81 81.9822 1796.88 77.9705 1798.01 73.5156L1796.07 73.0222ZM1790.28 84.2647C1787.56 87.5842 1784.13 90.1944 1779.95 92.0927L1780.78 93.9135C1785.22 91.8963 1788.9 89.1031 1791.83 85.5312L1790.28 84.2647ZM1779.95 92.0927C1775.79 93.9844 1771.12 94.9397 1765.92 94.9397V96.9397C1771.37 96.9397 1776.33 95.9373 1780.78 93.9135L1779.95 92.0927ZM1765.92 94.9397C1759.64 94.9397 1754.09 93.6019 1749.25 90.9511L1748.29 92.7058C1753.46 95.5367 1759.35 96.9397 1765.92 96.9397V94.9397ZM1749.25 90.9511C1744.4 88.3029 1740.62 84.5251 1737.89 79.5974L1736.14 80.5664C1739.05 85.819 1743.1 89.8723 1748.29 92.7058L1749.25 90.9511ZM1737.89 79.5974C1735.17 74.679 1733.79 68.8997 1733.79 62.2271H1731.79C1731.79 69.1805 1733.23 75.3044 1736.14 80.5664L1737.89 79.5974ZM1733.79 62.2271C1733.79 55.5501 1735.13 49.767 1737.78 44.8465L1736.02 43.8983C1733.19 49.1581 1731.79 55.2782 1731.79 62.2271H1733.79ZM1737.78 44.8569C1740.51 39.9292 1744.29 36.1514 1749.13 33.5032L1748.17 31.7485C1742.99 34.582 1738.94 38.6352 1736.03 43.8879L1737.78 44.8569ZM1749.13 33.5032C1753.97 30.8533 1759.56 29.5145 1765.92 29.5145V27.5145C1759.27 27.5145 1753.35 28.9166 1748.17 31.7485L1749.13 33.5032ZM1765.92 29.5145C1772.12 29.5145 1777.59 30.8144 1782.36 33.3884L1783.31 31.6283C1778.21 28.8772 1772.4 27.5145 1765.92 27.5145V29.5145ZM1782.36 33.3884C1787.12 35.9596 1790.82 39.6203 1793.47 44.3882L1795.22 43.4169C1792.38 38.3176 1788.41 34.3822 1783.31 31.6283L1782.36 33.3884ZM1793.47 44.3986C1796.19 49.1587 1797.57 54.7382 1797.57 61.1699H1799.57C1799.57 54.4456 1798.13 48.5134 1795.21 43.4064L1793.47 44.3986ZM1779.01 55.884C1779.01 52.1836 1777.74 49.1537 1775.15 46.9057L1773.84 48.4171C1775.94 50.2413 1777.01 52.6931 1777.01 55.884H1779.01ZM1775.15 46.9057C1772.59 44.691 1769.41 43.6073 1765.68 43.6073V45.6073C1769 45.6073 1771.69 46.5597 1773.84 48.4171L1775.15 46.9057ZM1765.68 43.6073C1762.1 43.6073 1759.01 44.6528 1756.47 46.7757L1757.75 48.3122C1759.9 46.5196 1762.52 45.6073 1765.68 45.6073V43.6073ZM1756.45 46.7865C1753.96 48.9318 1752.46 51.9483 1751.89 55.7335L1753.87 56.0344C1754.39 52.6151 1755.71 50.0716 1757.76 48.3013L1756.45 46.7865ZM1752.88 56.884H1778.01V54.884H1752.88V56.884ZM1812.93 19.5872L1812.23 20.307L1812.25 20.3196L1812.26 20.3317L1812.93 19.5872ZM1812.93 4.0817L1813.61 4.8145L1813.61 4.8136L1812.93 4.0817ZM1830.08 4.0817L1829.38 4.80155L1829.4 4.81415L1829.41 4.82627L1830.08 4.0817ZM1830.08 19.5872L1830.76 20.3199L1830.76 20.319L1830.08 19.5872ZM1831.6 29.4543H1832.6V28.4543H1831.6V29.4543ZM1831.6 95V96H1832.6V95H1831.6ZM1811.52 95H1810.52V96H1811.52V95ZM1811.52 29.4543V28.4543H1810.52V29.4543H1811.52ZM1821.62 21.6413C1818.3 21.6413 1815.65 20.6888 1813.59 18.8426L1812.26 20.3317C1814.74 22.5576 1817.89 23.6413 1821.62 23.6413V21.6413ZM1813.62 18.8673C1811.62 16.942 1810.64 14.6178 1810.64 11.8344H1808.64C1808.64 15.1592 1809.84 18.0036 1812.23 20.307L1813.62 18.8673ZM1810.64 11.8344C1810.64 8.9654 1811.63 6.65159 1813.61 4.8145L1812.25 3.34891C1809.84 5.58396 1808.64 8.43863 1808.64 11.8344H1810.64ZM1813.61 4.8136C1815.67 2.89515 1818.31 1.91013 1821.62 1.91013V-0.0898662C1817.88 -0.0898662 1814.73 1.0395 1812.25 3.34981L1813.61 4.8136ZM1821.62 1.91013C1824.84 1.91013 1827.4 2.89092 1829.38 4.80155L1830.77 3.36186C1828.37 1.04373 1825.29 -0.0898662 1821.62 -0.0898662V1.91013ZM1829.41 4.82627C1831.46 6.6669 1832.48 8.97743 1832.48 11.8344H1834.48C1834.48 8.4266 1833.23 5.56865 1830.74 3.33713L1829.41 4.82627ZM1832.48 11.8344C1832.48 14.6059 1831.47 16.9266 1829.4 18.8553L1830.76 20.319C1833.23 18.0189 1834.48 15.1711 1834.48 11.8344H1832.48ZM1829.4 18.8544C1827.42 20.6927 1824.85 21.6413 1821.62 21.6413V23.6413C1825.28 23.6413 1828.35 22.5538 1830.76 20.3199L1829.4 18.8544ZM1830.6 29.4543V95H1832.6V29.4543L1830.6 29.4543ZM1831.6 94H1811.52V96H1831.6V94ZM1812.52 95V29.4543H1810.52V95H1812.52ZM1811.52 30.4543H1831.6V28.4543L1811.52 28.4543V30.4543ZM1885.51 31.3337L1885.03 32.2116L1885.04 32.216L1885.51 31.3337ZM1893.62 38.734L1892.76 39.2581L1894.62 42.2671V38.734H1893.62ZM1893.62 29.4543V28.4543H1892.62V29.4543H1893.62ZM1913.7 29.4543H1914.7V28.4543H1913.7V29.4543ZM1910.06 111.21L1909.17 110.763L1909.16 110.772L1909.16 110.78L1910.06 111.21ZM1899.14 122.957L1898.63 122.094L1898.62 122.098L1899.14 122.957ZM1857.32 120.373L1857.93 119.579L1857.92 119.574L1857.32 120.373ZM1846.98 101.813V100.813H1845.87L1845.99 101.922L1846.98 101.813ZM1866.83 101.813L1867.8 101.57L1867.61 100.813H1866.83V101.813ZM1871.3 107.686L1871.83 106.841L1871.82 106.835L1871.81 106.829L1871.3 107.686ZM1889.86 106.277L1889.17 105.547L1889.16 105.558L1889.15 105.57L1889.86 106.277ZM1893.62 85.6028H1894.62V82.1898L1892.77 85.0631L1893.62 85.6028ZM1885.51 93.1206L1885.99 93.9984L1886 93.9943L1886.01 93.99L1885.51 93.1206ZM1858.73 91.8284L1858.19 92.6697L1858.2 92.6764L1858.73 91.8284ZM1848.27 79.9644L1847.37 80.4007L1847.38 80.4089L1847.38 80.4171L1848.27 79.9644ZM1848.27 44.3724L1847.38 43.9196L1847.38 43.9307L1848.27 44.3724ZM1858.73 32.6258L1859.26 33.4738L1859.26 33.4738L1858.73 32.6258ZM1889.39 50.3631L1888.66 51.0504L1888.67 51.0605L1889.39 50.3631ZM1869.07 50.3631L1868.35 49.6658L1868.35 49.666L1869.07 50.3631ZM1869.07 74.0911L1868.33 74.7686L1868.34 74.7787L1868.35 74.7885L1869.07 74.0911ZM1889.39 74.0911L1888.67 73.3937L1888.66 73.4039L1889.39 74.0911ZM1873.41 29.5145C1877.89 29.5145 1881.76 30.4254 1885.03 32.2116L1885.99 30.4558C1882.37 28.4831 1878.17 27.5145 1873.41 27.5145V29.5145ZM1885.04 32.216C1888.43 34.0217 1890.99 36.3718 1892.76 39.2581L1894.47 38.2099C1892.49 34.988 1889.64 32.4046 1885.98 30.4513L1885.04 32.216ZM1894.62 38.734V29.4543H1892.62V38.734H1894.62ZM1893.62 30.4543L1913.7 30.4543V28.4543H1893.62V30.4543ZM1912.7 29.4543V94.8825H1914.7V29.4543H1912.7ZM1912.7 94.8825C1912.7 100.775 1911.52 106.061 1909.17 110.763L1910.96 111.657C1913.46 106.649 1914.7 101.05 1914.7 94.8825H1912.7ZM1909.16 110.78C1906.9 115.525 1903.4 119.293 1898.63 122.095L1899.64 123.819C1904.74 120.825 1908.52 116.763 1910.96 111.64L1909.16 110.78ZM1898.62 122.098C1893.96 124.88 1888.08 126.303 1880.93 126.303V128.303C1888.34 128.303 1894.6 126.828 1899.65 123.816L1898.62 122.098ZM1880.93 126.303C1871.38 126.303 1863.74 124.032 1857.93 119.579L1856.71 121.166C1862.96 125.954 1871.06 128.303 1880.93 128.303V126.303ZM1857.92 119.574C1852.12 115.206 1848.81 109.274 1847.98 101.704L1845.99 101.922C1846.88 110.014 1850.46 116.455 1856.72 121.171L1857.92 119.574ZM1846.98 102.813L1866.83 102.813V100.813L1846.98 100.813V102.813ZM1865.86 102.056C1866.56 104.836 1868.22 107.007 1870.78 108.544L1871.81 106.829C1869.68 105.546 1868.36 103.802 1867.8 101.57L1865.86 102.056ZM1870.76 108.531C1873.31 110.142 1876.4 110.918 1879.99 110.918V108.918C1876.69 108.918 1873.99 108.206 1871.83 106.841L1870.76 108.531ZM1879.99 110.918C1884.35 110.918 1887.91 109.637 1890.56 106.984L1889.15 105.57C1886.95 107.772 1883.93 108.918 1879.99 108.918V110.918ZM1890.54 107.006C1893.33 104.388 1894.62 100.261 1894.62 94.8825H1892.62C1892.62 99.9974 1891.39 103.467 1889.17 105.547L1890.54 107.006ZM1894.62 94.8825V85.6028H1892.62V94.8825H1894.62ZM1892.77 85.0631C1890.91 87.9684 1888.34 90.3659 1885.02 92.2511L1886.01 93.99C1889.58 91.9597 1892.4 89.3454 1894.46 86.1424L1892.77 85.0631ZM1885.03 92.2427C1881.76 94.0289 1877.89 94.9397 1873.41 94.9397V96.9397C1878.17 96.9397 1882.37 95.9711 1885.99 93.9984L1885.03 92.2427ZM1873.41 94.9397C1868.19 94.9397 1863.48 93.6174 1859.26 90.9804L1858.2 92.6764C1862.75 95.5212 1867.83 96.9397 1873.41 96.9397V94.9397ZM1859.27 90.9873C1855.05 88.2731 1851.68 84.459 1849.17 79.5117L1847.38 80.4171C1850.04 85.6501 1853.64 89.7454 1858.19 92.6696L1859.27 90.9873ZM1849.17 79.5281C1846.74 74.5172 1845.52 68.7192 1845.52 62.1097H1843.52C1843.52 68.9695 1844.79 75.0747 1847.37 80.4007L1849.17 79.5281ZM1845.52 62.1097C1845.52 55.4997 1846.74 49.7434 1849.17 44.8141L1847.38 43.9307C1844.79 49.1817 1843.52 55.2502 1843.52 62.1097H1845.52ZM1849.17 44.8251C1851.68 39.8797 1855.04 36.1084 1859.26 33.4738L1858.2 31.7778C1853.64 34.6249 1850.04 38.6847 1847.38 43.9197L1849.17 44.8251ZM1859.26 33.4738C1863.48 30.8369 1868.19 29.5145 1873.41 29.5145V27.5145C1867.83 27.5145 1862.75 28.9331 1858.2 31.7778L1859.26 33.4738ZM1894.62 62.2271C1894.62 57.0207 1893.15 52.7923 1890.1 49.6658L1888.67 51.0605C1891.27 53.7288 1892.62 57.4099 1892.62 62.2271H1894.62ZM1890.11 49.6759C1887.18 46.5784 1883.55 45.0169 1879.29 45.0169V47.0169C1883 47.0169 1886.11 48.3528 1888.66 51.0503L1890.11 49.6759ZM1879.29 45.0169C1875.02 45.0169 1871.35 46.5775 1868.35 49.6658L1869.78 51.0605C1872.42 48.3538 1875.57 47.0169 1879.29 47.0169V45.0169ZM1868.35 49.666C1865.38 52.7193 1863.95 56.9122 1863.95 62.1097H1865.95C1865.95 57.2834 1867.27 53.6452 1869.78 51.0602L1868.35 49.666ZM1863.95 62.1097C1863.95 67.3098 1865.38 71.5667 1868.33 74.7686L1869.8 73.4137C1867.27 70.664 1865.95 66.9332 1865.95 62.1097H1863.95ZM1868.35 74.7885C1871.35 77.8768 1875.02 79.4374 1879.29 79.4374V77.4374C1875.57 77.4374 1872.42 76.1004 1869.78 73.3938L1868.35 74.7885ZM1879.29 79.4374C1883.55 79.4374 1887.18 77.8758 1890.11 74.7783L1888.66 73.4039C1886.11 76.1014 1883 77.4374 1879.29 77.4374V79.4374ZM1890.1 74.7885C1893.15 71.6619 1894.62 67.4336 1894.62 62.2271H1892.62C1892.62 67.0444 1891.27 70.7254 1888.67 73.3938L1890.1 74.7885ZM1988.85 36.2673L1988.11 36.9388L1988.11 36.9448L1988.12 36.9508L1988.85 36.2673ZM1995.78 95V96H1996.78V95H1995.78ZM1975.81 95H1974.81V96H1975.81V95ZM1972.4 49.1885L1971.67 49.8716L1971.67 49.8716L1972.4 49.1885ZM1954.08 49.1885L1954.81 49.8716L1954.81 49.8716L1954.08 49.1885ZM1950.67 95V96H1951.67V95H1950.67ZM1930.58 95H1929.58V96H1930.58V95ZM1930.58 29.4543V28.4543H1929.58V29.4543H1930.58ZM1950.67 29.4543H1951.67V28.4543H1950.67V29.4543ZM1950.67 38.1467H1949.67V41.3091L1951.49 38.7216L1950.67 38.1467ZM1958.89 31.3337L1959.32 32.2362L1959.33 32.2322L1959.34 32.2281L1958.89 31.3337ZM1970.52 29.7495C1977.96 29.7495 1983.78 32.1653 1988.11 36.9388L1989.59 35.5957C1984.83 30.3454 1978.44 27.7495 1970.52 27.7495V29.7495ZM1988.12 36.9508C1992.52 41.6506 1994.78 48.1925 1994.78 56.7062H1996.78C1996.78 47.8351 1994.42 40.751 1989.58 35.5837L1988.12 36.9508ZM1994.78 56.7062V95H1996.78V56.7062H1994.78ZM1995.78 94H1975.81V96H1995.78V94ZM1976.81 95V59.408H1974.81V95H1976.81ZM1976.81 59.408C1976.81 54.852 1975.63 51.1711 1973.13 48.5053L1971.67 49.8716C1973.72 52.0611 1974.81 55.1931 1974.81 59.408H1976.81ZM1973.13 48.5053C1970.64 45.8438 1967.31 44.547 1963.24 44.547V46.547C1966.85 46.547 1969.62 47.6779 1971.67 49.8716L1973.13 48.5053ZM1963.24 44.547C1959.17 44.547 1955.84 45.8438 1953.35 48.5053L1954.81 49.8716C1956.86 47.6779 1959.63 46.547 1963.24 46.547V44.547ZM1953.35 48.5053C1950.85 51.1711 1949.67 54.852 1949.67 59.408H1951.67C1951.67 55.1931 1952.76 52.0611 1954.81 49.8716L1953.35 48.5053ZM1949.67 59.408V95H1951.67V59.408H1949.67ZM1950.67 94H1930.58V96H1950.67V94ZM1931.58 95V29.4543H1929.58V95H1931.58ZM1930.58 30.4543H1950.67V28.4543H1930.58V30.4543ZM1949.67 29.4543V38.1467H1951.67V29.4543H1949.67ZM1951.49 38.7216C1953.42 35.9757 1956.02 33.8126 1959.32 32.2362L1958.46 30.4312C1954.87 32.1438 1951.99 34.5227 1949.85 37.5718L1951.49 38.7216ZM1959.34 32.2281C1962.63 30.5826 1966.35 29.7495 1970.52 29.7495V27.7495C1966.08 27.7495 1962.05 28.6392 1958.45 30.4393L1959.34 32.2281ZM2013.49 19.5872L2012.8 20.307L2012.81 20.3196L2012.83 20.3317L2013.49 19.5872ZM2013.49 4.0817L2014.17 4.8145L2014.18 4.8136L2013.49 4.0817ZM2030.64 4.0817L2029.95 4.80155L2029.96 4.81415L2029.98 4.82627L2030.64 4.0817ZM2030.64 19.5872L2031.32 20.3199L2031.33 20.319L2030.64 19.5872ZM2032.17 29.4543H2033.17V28.4543H2032.17V29.4543ZM2032.17 95V96H2033.17V95H2032.17ZM2012.08 95H2011.08V96H2012.08V95ZM2012.08 29.4543V28.4543H2011.08V29.4543H2012.08ZM2022.19 21.6413C2018.87 21.6413 2016.22 20.6888 2014.16 18.8426L2012.83 20.3317C2015.31 22.5576 2018.46 23.6413 2022.19 23.6413V21.6413ZM2014.19 18.8673C2012.19 16.942 2011.21 14.6178 2011.21 11.8344H2009.21C2009.21 15.1592 2010.41 18.0036 2012.8 20.307L2014.19 18.8673ZM2011.21 11.8344C2011.21 8.9654 2012.2 6.65159 2014.17 4.8145L2012.81 3.34891C2010.41 5.58396 2009.21 8.43863 2009.21 11.8344H2011.21ZM2014.18 4.8136C2016.24 2.89515 2018.88 1.91013 2022.19 1.91013V-0.0898662C2018.45 -0.0898662 2015.29 1.0395 2012.81 3.34981L2014.18 4.8136ZM2022.19 1.91013C2025.41 1.91013 2027.97 2.89092 2029.95 4.80155L2031.34 3.36186C2028.93 1.04373 2025.85 -0.0898662 2022.19 -0.0898662V1.91013ZM2029.98 4.82627C2032.03 6.6669 2033.05 8.97743 2033.05 11.8344H2035.05C2035.05 8.4266 2033.8 5.56865 2031.31 3.33713L2029.98 4.82627ZM2033.05 11.8344C2033.05 14.6059 2032.03 16.9266 2029.96 18.8553L2031.33 20.319C2033.8 18.0189 2035.05 15.1711 2035.05 11.8344H2033.05ZM2029.96 18.8544C2027.98 20.6927 2025.42 21.6413 2022.19 21.6413V23.6413C2025.84 23.6413 2028.92 22.5538 2031.32 20.3199L2029.96 18.8544ZM2031.17 29.4543V95H2033.17V29.4543H2031.17ZM2032.17 94L2012.08 94V96L2032.17 96V94ZM2013.08 95V29.4543H2011.08V95H2013.08ZM2012.08 30.4543H2032.17V28.4543H2012.08V30.4543ZM2085.61 77.9675H2086.61V76.9675H2085.61V77.9675ZM2085.61 95V96H2086.61V95H2085.61ZM2058.36 89.7141L2057.69 90.4631L2057.7 90.4702L2058.36 89.7141ZM2052.25 46.1344H2053.25V45.1344H2052.25V46.1344ZM2044.26 46.1344H2043.26V47.1344H2044.26V46.1344ZM2044.26 29.4543V28.4543H2043.26V29.4543H2044.26ZM2052.25 29.4543V30.4543H2053.25V29.4543H2052.25ZM2052.25 13.4789V12.4789L2051.25 12.4789V13.4789L2052.25 13.4789ZM2072.34 13.4789H2073.34V12.4789H2072.34V13.4789ZM2072.34 29.4543H2071.34V30.4543H2072.34V29.4543ZM2085.49 29.4543H2086.49V28.4543H2085.49V29.4543ZM2085.49 46.1344V47.1344H2086.49V46.1344H2085.49ZM2072.34 46.1344V45.1344H2071.34V46.1344H2072.34ZM2073.74 76.6754L2073.07 77.4125L2073.07 77.4125L2073.74 76.6754ZM2084.61 77.9675V95H2086.61V77.9675H2084.61ZM2085.61 94H2075.39V96H2085.61V94ZM2075.39 94C2068.26 94 2062.85 92.2766 2059.01 88.9579L2057.7 90.4702C2062.01 94.1995 2067.95 96 2075.39 96V94ZM2059.02 88.9651C2055.25 85.629 2053.25 80.1314 2053.25 72.2117H2051.25C2051.25 80.4239 2053.32 86.5945 2057.69 90.463L2059.02 88.9651ZM2053.25 72.2117V46.1344H2051.25V72.2117H2053.25ZM2052.25 45.1344H2044.26V47.1344H2052.25V45.1344ZM2045.26 46.1344V29.4543H2043.26V46.1344H2045.26ZM2044.26 30.4543H2052.25V28.4543L2044.26 28.4543V30.4543ZM2053.25 29.4543V13.4789L2051.25 13.4789V29.4543L2053.25 29.4543ZM2052.25 14.4789H2072.34V12.4789H2052.25V14.4789ZM2071.34 13.4789V29.4543H2073.34V13.4789H2071.34ZM2072.34 30.4543L2085.49 30.4543V28.4543H2072.34V30.4543ZM2084.49 29.4543V46.1344H2086.49V29.4543H2084.49ZM2085.49 45.1344L2072.34 45.1344V47.1344L2085.49 47.1344V45.1344ZM2071.34 46.1344V72.4466H2073.34V46.1344H2071.34ZM2071.34 72.4466C2071.34 74.5357 2071.83 76.2802 2073.07 77.4125L2074.42 75.9382C2073.78 75.3477 2073.34 74.2731 2073.34 72.4466H2071.34ZM2073.07 77.4125C2074.29 78.529 2076.17 78.9675 2078.44 78.9675V76.9675C2076.34 76.9675 2075.08 76.5446 2074.42 75.9382L2073.07 77.4125ZM2078.44 78.9675H2085.61V76.9675H2078.44V78.9675ZM2160.58 67.0432V68.0432H2161.47L2161.57 67.1578L2160.58 67.0432ZM2115.12 67.0432V66.0432H2114.04L2114.13 67.1199L2115.12 67.0432ZM2119 76.4405L2118.3 77.1599L2118.32 77.172L2118.33 77.1837L2119 76.4405ZM2138.03 73.2689V72.2689H2137.39L2137.12 72.8488L2138.03 73.2689ZM2159.41 73.2689L2160.38 73.5156L2160.69 72.2689H2159.41V73.2689ZM2153.42 84.898L2152.65 84.2543L2152.64 84.2647L2153.42 84.898ZM2142.73 93.0031L2143.14 93.9135L2142.73 93.0031ZM2111.13 91.8284L2110.65 92.7058L2110.65 92.7058L2111.13 91.8284ZM2099.38 80.0819L2100.26 79.5974L2100.26 79.5974L2099.38 80.0819ZM2099.26 44.3724L2098.39 43.8878L2098.38 43.8983L2099.26 44.3724ZM2111.01 32.6258L2111.49 33.5032L2111.49 33.5032L2111.01 32.6258ZM2145.19 32.5084L2144.72 33.3884L2144.72 33.3884L2145.19 32.5084ZM2156.7 43.9025L2155.83 44.3882L2155.84 44.3986L2156.7 43.9025ZM2140.38 55.884V56.884H2141.38V55.884H2140.38ZM2136.85 47.6614L2137.51 46.9057L2137.51 46.9057L2136.85 47.6614ZM2119.47 47.5439L2118.83 46.7757L2118.82 46.7811L2118.82 46.7865L2119.47 47.5439ZM2115.24 55.884L2114.25 55.7335L2114.08 56.884H2115.24V55.884ZM2159.93 61.1699C2159.93 63.0078 2159.82 64.9272 2159.59 66.9286L2161.57 67.1578C2161.81 65.0871 2161.93 63.0909 2161.93 61.1699H2159.93ZM2160.58 66.0432H2115.12V68.0432H2160.58V66.0432ZM2114.13 67.1199C2114.45 71.3625 2115.81 74.7521 2118.3 77.1599L2119.69 75.721C2117.64 73.7434 2116.42 70.8682 2116.12 66.9665L2114.13 67.1199ZM2118.33 77.1837C2120.88 79.4748 2123.98 80.612 2127.57 80.612V78.612C2124.44 78.612 2121.82 77.6349 2119.67 75.6972L2118.33 77.1837ZM2127.57 80.612C2130.22 80.612 2132.53 80.0529 2134.46 78.8812C2136.4 77.7067 2137.89 75.9571 2138.94 73.689L2137.12 72.8488C2136.21 74.8094 2134.98 76.2314 2133.43 77.1713C2131.87 78.114 2129.94 78.612 2127.57 78.612V80.612ZM2138.03 74.2689H2159.41V72.2689H2138.03V74.2689ZM2158.44 73.0222C2157.38 77.1814 2155.45 80.9224 2152.65 84.2544L2154.18 85.5416C2157.17 81.9822 2159.24 77.9705 2160.38 73.5156L2158.44 73.0222ZM2152.64 84.2647C2149.93 87.5842 2146.49 90.1944 2142.31 92.0927L2143.14 93.9135C2147.58 91.8963 2151.27 89.1031 2154.19 85.5312L2152.64 84.2647ZM2142.31 92.0927C2138.15 93.9844 2133.48 94.9397 2128.28 94.9397V96.9397C2133.73 96.9397 2138.69 95.9373 2143.14 93.9135L2142.31 92.0927ZM2128.28 94.9397C2122 94.9397 2116.46 93.6019 2111.61 90.9511L2110.65 92.7058C2115.83 95.5367 2121.71 96.9397 2128.28 96.9397V94.9397ZM2111.61 90.9511C2106.77 88.3029 2102.99 84.5251 2100.26 79.5974L2098.51 80.5664C2101.42 85.819 2105.47 89.8723 2110.65 92.7058L2111.61 90.9511ZM2100.26 79.5974C2097.53 74.679 2096.15 68.8997 2096.15 62.2271H2094.15C2094.15 69.1805 2095.59 75.3044 2098.51 80.5664L2100.26 79.5974ZM2096.15 62.2271C2096.15 55.5501 2097.5 49.767 2100.14 44.8465L2098.38 43.8983C2095.55 49.1581 2094.15 55.2782 2094.15 62.2271H2096.15ZM2100.14 44.8569C2102.87 39.9292 2106.65 36.1514 2111.49 33.5032L2110.53 31.7485C2105.35 34.582 2101.3 38.6352 2098.39 43.8879L2100.14 44.8569ZM2111.49 33.5032C2116.34 30.8533 2121.92 29.5145 2128.28 29.5145V27.5145C2121.63 27.5145 2115.71 28.9166 2110.53 31.7485L2111.49 33.5032ZM2128.28 29.5145C2134.48 29.5145 2139.95 30.8144 2144.72 33.3884L2145.67 31.6283C2140.57 28.8772 2134.77 27.5145 2128.28 27.5145V29.5145ZM2144.72 33.3884C2149.48 35.9596 2153.18 39.6203 2155.83 44.3882L2157.58 43.4169C2154.75 38.3176 2150.77 34.3822 2145.67 31.6283L2144.72 33.3884ZM2155.84 44.3986C2158.56 49.1587 2159.93 54.7382 2159.93 61.1699H2161.93C2161.93 54.4456 2160.49 48.5134 2157.57 43.4064L2155.84 44.3986ZM2141.38 55.884C2141.38 52.1836 2140.1 49.1537 2137.51 46.9057L2136.2 48.4171C2138.3 50.2413 2139.38 52.6931 2139.38 55.884H2141.38ZM2137.51 46.9057C2134.95 44.691 2131.77 43.6073 2128.04 43.6073V45.6073C2131.36 45.6073 2134.06 46.5597 2136.2 48.4171L2137.51 46.9057ZM2128.04 43.6073C2124.47 43.6073 2121.38 44.6528 2118.83 46.7757L2120.11 48.3122C2122.26 46.5196 2124.88 45.6073 2128.04 45.6073V43.6073ZM2118.82 46.7865C2116.33 48.9318 2114.83 51.9483 2114.25 55.7335L2116.23 56.0344C2116.75 52.6151 2118.07 50.0716 2120.12 48.3013L2118.82 46.7865ZM2115.24 56.884H2140.38V54.884H2115.24V56.884ZM2193.97 40.3785H2192.97V43.7425L2194.8 40.9248L2193.97 40.3785ZM2202.78 31.921L2203.28 32.7869L2203.28 32.7828L2203.29 32.7785L2202.78 31.921ZM2214.52 28.7495H2215.52V27.7495H2214.52V28.7495ZM2214.52 50.0107V51.0107H2215.52V50.0107H2214.52ZM2197.73 53.2997L2198.37 54.064L2198.38 54.0582L2198.38 54.0523L2197.73 53.2997ZM2193.97 95V96H2194.97V95H2193.97ZM2173.88 95H2172.88V96H2173.88V95ZM2173.88 29.4543V28.4543H2172.88V29.4543H2173.88ZM2193.97 29.4543H2194.97V28.4543H2193.97V29.4543ZM2194.8 40.9248C2197.07 37.4464 2199.9 34.7399 2203.28 32.7869L2202.28 31.0552C2198.61 33.1743 2195.56 36.1061 2193.13 39.8323L2194.8 40.9248ZM2203.29 32.7785C2206.65 30.762 2210.39 29.7495 2214.52 29.7495V27.7495C2210.04 27.7495 2205.95 28.8513 2202.26 31.0635L2203.29 32.7785ZM2213.52 28.7495V50.0107H2215.52V28.7495H2213.52ZM2214.52 49.0107H2209V51.0107H2214.52V49.0107ZM2209 49.0107C2203.87 49.0107 2199.83 50.1313 2197.07 52.5472L2198.38 54.0523C2200.63 52.0829 2204.11 51.0107 2209 51.0107V49.0107ZM2197.08 52.5355C2194.24 54.9339 2192.97 59.0647 2192.97 64.5764H2194.97C2194.97 59.2813 2196.2 55.8944 2198.37 54.064L2197.08 52.5355ZM2192.97 64.5764V95H2194.97V64.5764H2192.97ZM2193.97 94H2173.88V96H2193.97V94ZM2174.88 95V29.4543H2172.88V95H2174.88ZM2173.88 30.4543H2193.97V28.4543L2173.88 28.4543V30.4543ZM2192.97 29.4543V40.3785H2194.97V29.4543H2192.97Z" fill="#F2B125"/>
</svg>
