<svg width="52" height="71" viewBox="0 0 52 71" fill="none" xmlns="http://www.w3.org/2000/svg">
<path fill-rule="evenodd" clip-rule="evenodd" d="M44.4778 38.4484C43.3333 38.7248 42.8835 38.8614 41.9773 39.2079C40.884 39.6259 40.5704 39.9371 40.8019 40.3746C40.9007 40.5614 41.1511 40.6494 41.7732 40.7159C43.2521 40.8738 44.0554 41.0804 45.0487 41.5584C46.5639 42.2876 47.1763 43.3663 46.8263 44.6902C46.4375 46.161 43.9653 48.9056 41.178 50.9606C39.7905 51.9836 39.6002 52.2285 39.865 52.6513C40.0271 52.9103 40.4456 52.8835 41.6704 52.5356C45.0663 51.5709 48.0188 49.9844 49.5988 48.2755C51.0636 46.6911 51.5604 45.0445 51.1479 43.1406C50.677 40.9672 49.7119 39.5676 48.1732 38.8269C47.5287 38.5166 47.2051 38.4542 46.0777 38.4219C45.3444 38.401 44.6245 38.4129 44.4778 38.4484ZM13.3464 39.4586C9.73557 39.8044 7.05894 40.7018 6.40564 41.7859C6.10046 42.2923 6.06686 43.2188 6.33498 43.738C7.09587 45.2116 9.66824 46.1907 14.2797 46.7617C16.124 46.9901 24.4549 46.9883 26.5456 46.7591C31.0982 46.2601 34.5609 45.3586 37.5449 43.8957C39.6348 42.871 40.2117 42.3244 39.677 41.8754C39.4513 41.6859 39.0765 41.7204 36.9449 42.1269C30.897 43.2801 17.7608 43.5781 12.8464 42.6736C12.3882 42.5893 12.0132 42.4627 12.0132 42.3922C12.0132 42.1141 15.1543 40.909 16.6795 40.602C17.9628 40.3438 18.2837 40.0952 18.0076 39.5734C17.882 39.336 17.7228 39.315 16.1749 39.3317C15.2426 39.3418 13.9697 39.3989 13.3464 39.4586ZM13.813 47.6018C11.6605 48.3001 10.8191 49.0934 10.9435 50.3075C11.0539 51.3857 13.1078 52.4633 16.2129 53.0722C21.015 54.0139 26.3571 53.7336 34.4118 52.1175C37.5148 51.4948 37.8115 51.3902 37.8115 50.9183C37.8115 50.5723 37.3893 50.1983 35.6033 48.9627L34.7283 48.3573L32.8035 48.7583C28.2404 49.7093 23.615 50.0833 19.4568 49.8375C17.2526 49.7072 15.6824 49.4985 14.7797 49.2157C14.3951 49.0953 14.5137 48.7804 15.0796 48.4189C15.6189 48.0745 15.7484 47.7331 15.4529 47.4342C15.2348 47.2135 14.9067 47.2469 13.813 47.6018ZM15.0796 54.7732C13.1981 55.283 12.3942 56.5637 13.0695 57.9752C13.8945 59.6996 17.0223 60.6654 22.9219 61.0176C27.3542 61.2822 31.8354 60.6558 35.5646 59.2507C36.5923 58.8635 36.75 58.7615 36.7845 58.4617C36.8344 58.0284 36.7379 57.9472 34.6427 56.6592L32.9404 55.6128L31.3095 55.8906C30.4125 56.0433 29.0488 56.2761 28.2788 56.4079C25.8523 56.8234 20.9326 56.6722 18.1833 56.0977C16.929 55.8354 16.9087 55.824 17.0904 55.4802C17.1703 55.3294 17.1992 55.06 17.155 54.8814C17.0836 54.594 17.0022 54.5578 16.4437 54.5656C16.0968 54.5705 15.4829 54.6638 15.0796 54.7732ZM8.02434 59.6232C2.36216 60.1904 0.0545739 61.4927 0.872389 63.6596C1.7662 66.0276 6.33898 67.1478 16.6129 67.5156C29.2559 67.9682 40.7847 66.5804 45.8777 63.9929C47.5 63.1687 48.1116 62.2634 47.8255 61.1099C47.6841 60.5402 46.968 59.8177 46.5447 59.8177C46.1072 59.8177 45.972 60.0771 46.0869 60.6966C46.1936 61.2723 45.9254 61.4621 44.2778 61.9769C40.9213 63.0258 34.8317 63.9224 28.6195 64.282C25.2025 64.4799 17.7621 64.3675 14.813 64.0735C10.6418 63.6576 7.06507 63.0045 6.07033 62.4772L5.70182 62.2819L6.0278 62.0658C6.48684 61.7616 8.92415 60.9813 10.3269 60.6897C11.3013 60.4871 11.5315 60.3904 11.6464 60.135C11.9893 59.3736 11.3781 59.2873 8.02434 59.6232ZM49.2748 64.0735C47.2166 65.6574 43.1195 67.1845 39.3448 67.7746C35.6395 68.3539 26.2245 68.584 16.7705 68.3264C10.4157 68.1532 10.3526 68.1576 10.4402 68.7753C10.5007 69.2024 10.9375 69.3411 13.6131 69.7823C22.8578 71.3071 31.7786 71.3997 40.5411 70.0619C42.694 69.7333 43.2001 69.6247 44.6778 69.1749C46.3706 68.6596 48.0433 67.7333 49.0963 66.7282C50.4352 65.4503 51.0691 63.9514 50.4196 63.5996C50.0822 63.4169 50.1814 63.3759 49.2748 64.0735Z" fill="#5382A1"/>
<path fill-rule="evenodd" clip-rule="evenodd" d="M32.1458 0.202942C32.026 0.348901 32.0055 0.712854 32.0712 1.51819C32.3099 4.43656 31.2871 7.81425 29.6194 9.61607C29.1919 10.078 28.0177 11.0628 27.0101 11.8048C22.6538 15.0125 21.8677 15.6438 20.4688 17.0571C18.9712 18.5704 17.991 19.8892 17.23 21.4153C15.6369 24.6094 16.3583 28.2996 19.3908 32.4678C20.2268 33.6168 23.88 37.3236 24.3576 37.5073C24.7825 37.6706 25.079 37.4799 25.079 37.0432C25.079 36.883 24.7405 35.995 24.3269 35.0701C22.763 31.5732 21.6132 27.3146 21.6128 25.0174C21.6124 23.0275 22.2472 22.225 26.9723 18.2418C31.0963 14.7654 32.8576 12.8467 33.8716 10.7256C35.1888 7.97086 35.1194 4.63418 33.6814 1.56783C32.9933 0.10096 32.5516 -0.291726 32.1458 0.202942ZM36.8763 15.016C31.2711 17.5022 27.2795 20.4685 25.9361 23.1463C25.4823 24.0509 25.4059 24.3343 25.3639 25.2687C25.2739 27.2745 25.81 29.4422 26.8064 31.1016C27.0774 31.5529 27.7283 32.4841 28.2531 33.171C29.4469 34.7339 29.5788 35.1653 29.2977 36.5842C29.1837 37.1591 28.9337 38.026 28.742 38.5106C28.302 39.6234 28.3359 39.9841 28.8856 40.0386C29.2341 40.073 29.4573 39.9227 30.4428 38.9898C32.9368 36.6288 34.0374 34.2405 33.6201 32.0944C33.3635 30.7754 33.0158 29.9699 31.9866 28.3101C31.4642 27.4677 30.9184 26.509 30.7737 26.1797C30.4588 25.463 30.444 24.4525 30.7364 23.6258C31.2506 22.1712 33.3266 19.9576 37.1197 16.8189C38.2702 15.8669 39.2114 15.0062 39.2114 14.9062C39.2114 14.6808 38.8472 14.2994 38.6353 14.3029C38.5488 14.3044 37.7573 14.6253 36.8763 15.016Z" fill="#E76F00"/>
</svg>
