<svg width="43" height="54" viewBox="0 0 43 54" fill="none" xmlns="http://www.w3.org/2000/svg">
<path fill-rule="evenodd" clip-rule="evenodd" d="M8.79986 0.521488C8.15769 0.754144 7.71373 1.08787 7.3507 1.61109C6.8981 2.2634 6.76409 2.899 6.76409 4.39425V5.71755L4.45287 5.75044C2.27683 5.78126 2.11708 5.79693 1.72194 6.01734C1.06366 6.38459 0.632133 6.83745 0.331425 7.47658L0.0540776 8.06622L0.0270388 16.9209L0 25.7755L0.340173 26.1306C0.838304 26.6506 1.48038 26.5805 1.82701 25.9679C1.97781 25.7014 1.99253 24.9179 1.99253 17.151C1.99253 7.89499 1.97463 8.19801 2.53649 7.93079C2.735 7.83636 6.44867 7.80679 18.1062 7.80679C34.752 7.80679 33.8196 7.77368 34.0818 8.37463C34.2541 8.76937 34.2541 50.4283 34.0818 50.8231C33.8195 51.4241 34.7529 51.3909 18.0966 51.3909C1.44022 51.3909 2.37366 51.4241 2.11132 50.8231C2.02225 50.6192 1.99253 48.418 1.99253 42.0414C1.99253 32.8015 2.01032 33.1032 1.44857 32.836C0.923596 32.5862 0.315917 32.8 0.115611 33.305C0.0300209 33.5204 0.00695847 35.8789 0.0270388 42.3639C0.0537795 51.0295 0.0565627 51.137 0.26343 51.6038C0.569407 52.2942 1.03632 52.7969 1.67621 53.125L2.24105 53.4145H18.0966H33.9521L34.5169 53.125C35.1578 52.7964 35.6252 52.2925 35.928 51.6038C36.1015 51.2091 36.1414 50.881 36.1712 49.6077L36.2067 48.0838L38.5089 48.0511C40.6757 48.0203 40.8359 48.0045 41.2309 47.7842C41.8892 47.417 42.3207 46.9641 42.6214 46.325L42.8988 45.7354V24.2027V2.67008L42.6894 2.19782C42.3834 1.50742 41.9165 1.00465 41.2766 0.676626L40.7118 0.387103L25.0054 0.363858C10.2959 0.34217 9.26728 0.352132 8.79986 0.521488ZM40.4489 2.55853C40.5996 2.63988 40.7762 2.82885 40.8415 2.97849C41.0138 3.37324 41.0138 45.0322 40.8415 45.427C40.6187 45.9377 40.3514 45.9948 38.1829 45.9948H36.1908L36.165 27.0305L36.1391 8.06622L35.9297 7.59395C35.6362 6.93147 35.1492 6.38781 34.5575 6.06197L34.0515 5.78324L21.4019 5.75574L8.75225 5.72824L8.75573 4.45859C8.7595 3.09824 8.83873 2.79928 9.26022 2.55552C9.62823 2.34247 40.0542 2.34548 40.4489 2.55853ZM16.4066 12.0135C11.964 12.7466 8.5089 16.2655 7.54584 21.0377C7.3838 21.8407 7.3838 24.2818 7.54584 25.0848C8.29398 28.7919 10.4542 31.6765 13.642 33.2245C17.5748 35.1344 22.275 34.3223 25.4639 31.182C25.8446 30.8071 26.3803 30.1924 26.6543 29.8161C27.3483 28.8629 28.1841 27.0497 28.5003 25.8112C28.7365 24.8864 28.7653 24.5872 28.7653 23.0612C28.7653 21.5438 28.7358 21.2336 28.5057 20.3344C28.0285 18.4685 27.1117 16.7382 25.8758 15.3705C23.46 12.6972 19.9034 11.4363 16.4066 12.0135ZM20.2338 14.2254C23.3857 15.1046 25.7303 17.5342 26.5552 20.7761C27.1612 23.158 26.7321 25.9353 25.4412 27.985L25.006 28.6759L24.7088 28.2813C23.7961 27.0698 22.6341 26.058 21.6016 25.5753L21.2041 25.3896L21.5838 24.7341C22.0712 23.8927 22.207 23.1905 22.152 21.7973C22.1115 20.7706 22.0799 20.6255 21.7409 19.9097C20.0078 16.2488 14.9101 16.9673 14.1101 20.9854C14.0461 21.3069 14.018 21.9859 14.0455 22.542C14.0991 23.6229 14.3239 24.3846 14.7691 24.994C14.9153 25.1941 15.0193 25.3687 15.0001 25.382C14.9809 25.3953 14.6604 25.5641 14.2881 25.7571C13.259 26.2906 11.8288 27.6398 11.3546 28.5242C11.2619 28.6973 11.2404 28.6923 11.0501 28.4542C10.6764 27.9867 9.84444 26.135 9.62952 25.2923C9.32891 24.1138 9.32951 22.0044 9.63081 20.8301C10.0943 19.0233 11.2406 17.1424 12.5547 16.0322C13.7147 15.0521 15.3889 14.2678 16.8356 14.0267C17.6099 13.8976 19.4428 14.0048 20.2338 14.2254ZM19.1674 19.9135C19.401 20.053 19.7141 20.3594 19.8632 20.5945C20.1006 20.9687 20.1387 21.1429 20.169 21.9938C20.2002 22.8719 20.1786 23.0192 19.9441 23.5194C19.591 24.2729 19.0535 24.6452 18.2375 24.7017C17.7697 24.734 17.5448 24.6963 17.2434 24.5345C16.3649 24.0629 16.009 23.3759 16.009 22.151C16.009 21.4815 16.055 21.2414 16.2698 20.7916C16.8218 19.6353 18.0685 19.2575 19.1674 19.9135ZM19.2397 26.9522C20.1867 27.1283 21.4015 27.7285 22.1136 28.3721C22.6212 28.8308 23.4646 29.9464 23.4646 30.159C23.4646 30.339 22.2793 31.1211 21.4948 31.4589C20.2197 32.0077 19.5623 32.1355 18.0469 32.1287C16.834 32.1234 16.5428 32.087 15.7807 31.8456C14.5478 31.4551 12.727 30.4559 12.7295 30.1713C12.73 30.1133 12.9618 29.7443 13.2446 29.3514C13.8202 28.5511 14.6697 27.8419 15.5617 27.4167C16.0792 27.1701 16.3771 27.0826 17.4504 26.862C17.8591 26.7779 18.4682 26.8086 19.2397 26.9522ZM0.512347 28.706C-0.0741582 29.0453 -0.151994 29.7677 0.34236 30.2838C0.838305 30.8015 1.48107 30.7301 1.82701 30.1188C2.34433 29.2045 1.40165 28.1914 0.512347 28.706ZM7.20029 36.5488C7.08488 36.5979 6.89472 36.765 6.77781 36.9202C6.57502 37.1892 6.56528 37.3092 6.56528 39.5283C6.56528 41.9914 6.61886 42.3225 7.05685 42.5672C7.32237 42.7156 28.8708 42.7156 29.1363 42.5672C29.5747 42.3223 29.6279 41.9923 29.6279 39.5158V37.1775L29.3378 36.8386L29.0477 36.4997L18.229 36.4796C12.2786 36.4686 7.31581 36.4997 7.20029 36.5488ZM27.6397 39.561V40.5987H18.0966H8.55343V39.561V38.5232H18.0966H27.6397V39.561ZM11.8704 45.4523C11.3618 45.8823 11.3062 46.4622 11.7263 46.953L12.0164 47.292H18.0966H24.1767L24.478 46.94C24.7397 46.6342 24.7721 46.532 24.7245 46.1619C24.6881 45.8783 24.5827 45.6575 24.4095 45.5021L24.1493 45.2684L18.1159 45.2707C12.5493 45.2729 12.066 45.2869 11.8704 45.4523Z" fill="#E49B00"/>
</svg>
