<svg width="65" height="51" viewBox="0 0 65 51" fill="none" xmlns="http://www.w3.org/2000/svg">
<path fill-rule="evenodd" clip-rule="evenodd" d="M8.04987 0.533177C5.80943 1.07698 3.9213 3.02416 3.45232 5.27437C3.3569 5.73269 3.31591 10.6898 3.31591 21.7973V37.6656H2.58103C1.69814 37.6656 1.25867 37.8449 1.02288 38.3012C0.802405 38.7279 0.771297 44.0848 0.983379 45.1026C1.46581 47.4177 3.44665 49.4 5.76005 49.8827C6.68664 50.0761 58.2123 50.0761 59.1389 49.8827C61.4523 49.4 63.4331 47.4177 63.9156 45.1026C64.1276 44.0848 64.0965 38.7279 63.8761 38.3012C63.6403 37.8449 63.2008 37.6656 62.3179 37.6656H61.583V21.7973C61.583 10.6898 61.542 5.73269 61.4466 5.27437C60.9642 2.9593 58.9833 0.977042 56.6699 0.494263C55.6708 0.285734 8.91499 0.323166 8.04987 0.533177ZM56.6812 3.07654C57.5796 3.41293 58.2888 4.0521 58.7053 4.90092L59.0524 5.60804L59.0851 21.6368L59.1177 37.6656H57.6346H56.1513V22.2175C56.1513 5.42743 56.186 6.26476 55.4758 5.94097C55.2346 5.83102 52.9337 5.79334 46.4488 5.79334C37.0016 5.79334 37.2328 5.77691 36.9176 6.46933C36.7311 6.87898 36.7311 7.17843 36.9176 7.58807C37.2312 8.27679 37.066 8.26406 45.7139 8.26406H53.6824V22.9649V37.6656H49.8579H46.0334L45.9758 37.3877C45.9441 37.2347 45.8819 36.7768 45.8374 36.3698C45.7291 35.3774 45.2491 33.7557 44.7323 32.6367C43.4532 29.8659 41.0449 27.4239 38.2842 26.098L37.127 25.5422L37.5718 25.0494C38.2769 24.2685 38.8389 23.3061 39.175 22.3042C39.4502 21.4839 39.4858 21.1733 39.4845 19.6076C39.4835 18.4571 39.4203 17.6024 39.3039 17.1642C38.631 14.6342 36.4671 12.5592 33.9431 12.0238C30.2574 11.2419 26.5655 13.5153 25.5951 17.1642C25.4786 17.6024 25.4154 18.4571 25.4145 19.6076C25.4131 21.1815 25.4479 21.4814 25.7295 22.3207C26.0521 23.2822 26.8637 24.6391 27.4392 25.1791C27.7907 25.5088 27.8449 25.6826 27.5964 25.6826C27.5073 25.6826 26.9585 25.9256 26.377 26.2225C23.6784 27.6004 21.4102 29.9432 20.1666 32.6367C19.6498 33.7557 19.1699 35.3774 19.0615 36.3698C19.017 36.7768 18.9548 37.2347 18.9231 37.3877L18.8656 37.6656H15.0411H11.2165V22.9649V8.26406H19.1731C25.0789 8.26406 27.2131 8.22601 27.4533 8.11644C27.8071 7.9551 28.1288 7.43711 28.1288 7.0287C28.1288 6.62029 27.8071 6.10231 27.4533 5.94097C27.2121 5.83102 24.9112 5.79334 18.4262 5.79334C8.97906 5.79334 9.21027 5.77691 8.89511 6.46933C8.78327 6.71492 8.74759 10.5248 8.74759 22.2294V37.6656H7.26438H5.78128L5.81387 21.6368L5.84658 5.60804L6.19359 4.90092C6.60282 4.0668 7.31338 3.41725 8.1827 3.08259C8.79623 2.84639 9.30397 2.8412 32.4139 2.8349C55.7558 2.8286 56.026 2.8312 56.6812 3.07654ZM31.8458 5.9658C30.7756 6.55939 31.2234 8.26406 32.4495 8.26406C33.075 8.26406 33.6839 7.66059 33.6839 7.04069C33.6839 6.11318 32.6597 5.51427 31.8458 5.9658ZM33.8253 14.565C35.2372 15.0106 36.2478 15.9773 36.7767 17.3878C37.0055 17.9985 37.0329 18.2926 36.9967 19.7529C36.959 21.2715 36.9253 21.4818 36.6198 22.1042C36.4353 22.4802 36.0206 23.0518 35.6981 23.3745C33.4525 25.6216 29.6891 24.9773 28.2792 22.1042C27.9736 21.4818 27.9399 21.2715 27.9023 19.7529C27.866 18.2926 27.8934 17.9985 28.1223 17.3878C28.6437 15.997 29.6543 15.0183 31.0298 14.5717C31.9907 14.2598 32.8517 14.2577 33.8253 14.565ZM31.215 29.0894V30.8902L31.5758 31.2513C32.0493 31.725 32.7675 31.7517 33.2758 31.3145L33.6222 31.0167L33.662 29.1526L33.7017 27.2885L34.2175 27.3668C35.7943 27.6059 37.8762 28.52 39.2173 29.5623C41.5112 31.3448 43.0866 34.0723 43.416 36.8318L43.5155 37.6656H32.4495H21.3834L21.4829 36.8318C21.9683 32.7658 25.0099 29.1109 29.0015 27.7973C29.7283 27.558 30.6389 27.3391 31.0607 27.3022C31.1777 27.2918 31.215 27.724 31.215 29.0894ZM61.5618 42.4527C61.5225 44.6978 61.5107 44.7905 61.1769 45.4709C60.7867 46.2661 60.1886 46.8463 59.3673 47.2266L58.8055 47.4868L32.6114 47.5188C6.60579 47.5505 6.41259 47.549 5.7519 47.3016C4.85049 46.9641 4.14153 46.3258 3.72465 45.4761C3.38764 44.7893 3.37653 44.7021 3.33715 42.4527L3.29666 40.1364H32.4495H61.6023L61.5618 42.4527ZM27.0619 42.7275C26.3296 43.0288 26.1649 44.1197 26.7614 44.7167L27.1222 45.0778H32.4495H37.7767L38.1376 44.7167C38.6111 44.2428 38.6376 43.5241 38.2005 43.0155L37.9028 42.6688L32.6145 42.6438C29.7061 42.6301 27.2074 42.6677 27.0619 42.7275Z" fill="#E49B00"/>
</svg>
