<svg width="51" height="55" viewBox="0 0 51 55" fill="none" xmlns="http://www.w3.org/2000/svg">
<path fill-rule="evenodd" clip-rule="evenodd" d="M17.9136 0.311304C16.2601 0.713739 14.8518 2.07124 14.3599 3.73676L14.227 4.18662H12.3547C10.3119 4.18662 9.7485 4.28632 9.1313 4.75693C8.5914 5.16857 8.22514 5.99302 8.22514 6.79662V7.45986L4.63608 7.49035C0.616699 7.52454 0.718983 7.50443 0.496731 8.30411C0.348069 8.83906 0.351034 52.9982 0.499802 53.5335C0.559733 53.7492 0.734124 54.0242 0.887339 54.1446L1.16592 54.3637L19.8634 54.3304C38.5199 54.2971 38.5631 54.2966 39.4611 54.0721C42.0907 53.4149 44.1064 52.3313 45.8994 50.611C48.633 47.9883 50.058 44.6669 50.059 40.9159C50.0595 38.5669 49.6179 36.7224 48.5663 34.6826C46.6041 30.876 42.7482 28.1211 38.5876 27.5529L37.6611 27.4264V25.2217C37.6611 22.823 37.606 22.5461 37.0817 22.3073C36.6396 22.1059 36.3134 22.158 35.9421 22.4895L35.5963 22.7981L35.5642 25.1092L35.5323 27.4203L34.4366 27.5994C29.7577 28.3641 25.6592 31.7556 23.9719 36.2586C23.3906 37.8099 23.2189 38.828 23.2132 40.7571C23.206 43.2365 23.5638 44.82 24.5966 46.8792C25.5405 48.761 26.9633 50.474 28.5972 51.6955L29.3277 52.2417H15.9176H2.50737V30.9133V9.58487H5.36626H8.22514V10.1283C8.22514 11.2305 8.73625 12.1042 9.63531 12.5393C10.0874 12.7581 10.1819 12.7603 19.0324 12.7593L27.9726 12.7582L28.5144 12.5061C29.3906 12.0982 29.9315 11.1587 29.9315 10.0444V9.58487H32.7374H35.5434V11.8708C35.5434 13.8134 35.5698 14.2014 35.7197 14.4549C36.077 15.0598 36.8604 15.1648 37.3516 14.6737L37.6611 14.3643L37.6587 11.2601C37.6566 8.47886 37.6373 8.13242 37.4734 7.93015C37.1126 7.48484 36.963 7.46791 33.3939 7.46791H29.96L29.9087 6.75259C29.8315 5.67452 29.3797 4.94089 28.502 4.4686C28.1213 4.26367 27.8667 4.2352 25.9813 4.18715L23.884 4.13369L23.6517 3.44282C22.8654 1.10474 20.3325 -0.277529 17.9136 0.311304ZM20.3903 2.65573C21.2829 3.14147 21.7046 3.84208 21.821 5.0334C21.8781 5.61758 21.9361 5.76534 22.2056 6.0125L22.523 6.30358H25.0413C26.8588 6.30358 27.595 6.33893 27.6867 6.4306C27.8329 6.57667 27.8686 10.2872 27.7261 10.5117C27.6593 10.6169 25.8471 10.639 19.0187 10.6175L10.3958 10.5904L10.3669 8.59307C10.347 7.20943 10.3753 6.55073 10.4593 6.44965C10.5562 6.3329 11.09 6.30358 13.1169 6.30358H15.6534L15.9629 5.99418C16.2111 5.74608 16.2724 5.5926 16.2724 5.21948C16.2724 4.96365 16.3474 4.50162 16.4391 4.19286C16.6451 3.49956 17.3914 2.70961 18.0781 2.4578C18.7682 2.20472 19.7095 2.28537 20.3903 2.65573ZM35.9134 17.779C35.5532 18.1391 35.4794 18.5302 35.689 18.9695C35.8886 19.3878 36.3966 19.6504 36.8416 19.5653C37.2572 19.4859 37.6611 18.9671 37.6611 18.5127C37.6611 17.663 36.5121 17.1805 35.9134 17.779ZM9.1133 19.7433C8.42368 20.0245 8.22864 20.9304 8.74641 21.448L9.05591 21.7574H19.1813C30.385 21.7574 29.7982 21.7939 30.0332 21.0819C30.1834 20.6269 30.0939 20.2597 29.7552 19.9416L29.4909 19.6934L19.414 19.6728C13.8715 19.6615 9.23634 19.6933 9.1133 19.7433ZM9.1133 27.4711C8.4241 27.7495 8.22864 28.6573 8.74641 29.1749L9.05591 29.4843H16.8018H24.5477L24.8572 29.1749C25.3694 28.6628 25.2306 27.8399 24.5801 27.5312C24.278 27.3879 23.3 27.3682 16.7858 27.374C12.6889 27.3777 9.23634 27.4214 9.1133 27.4711ZM37.9258 29.6017C42.9683 30.2194 46.9402 33.9917 47.8282 39.0065C48.0002 39.9777 47.9715 41.9781 47.7707 43.0234C46.9457 47.3173 43.7119 50.7454 39.4082 51.8887C38.4658 52.139 38.1571 52.17 36.6022 52.17C35.0606 52.17 34.7354 52.1379 33.8366 51.8979C28.9655 50.5967 25.5309 46.3848 25.3016 41.4313C25.2043 39.3306 25.5761 37.633 26.5507 35.7294C28.4383 32.0424 32.3105 29.6164 36.4963 29.4984C36.7584 29.491 37.4016 29.5375 37.9258 29.6017ZM36.307 31.9426C35.916 32.0439 35.5444 32.5492 35.5438 32.9802C35.5435 33.2076 35.4417 33.292 34.8665 33.5425C34.4942 33.7047 33.9996 33.9999 33.7674 34.1986C32.6155 35.1842 32.0987 36.9055 32.5246 38.339C32.8223 39.3411 33.5937 40.124 34.9288 40.7788L35.5319 41.0747L35.5377 43.8664L35.5434 46.6582L35.1992 46.5905C35.0099 46.5534 34.4688 46.3305 33.9965 46.0953C33.041 45.6193 32.7765 45.616 32.3178 46.0744C31.9082 46.484 31.9423 47.0882 32.3994 47.5189C32.8891 47.9802 34.013 48.5034 34.8428 48.6563C35.514 48.7799 35.5434 48.798 35.5434 49.0898C35.5434 49.5327 35.816 49.9902 36.1976 50.1875C36.4705 50.3285 36.602 50.3383 36.9254 50.2415C37.4195 50.0934 37.6611 49.7343 37.6611 49.1477C37.6611 48.6942 37.663 48.6918 38.217 48.4959C40.3194 47.7525 41.6532 45.56 41.3503 43.3453C41.1235 41.6879 40.1612 40.6752 37.9522 39.7697L37.6611 39.6503V37.531C37.6611 35.9243 37.6926 35.4118 37.7913 35.4118C37.863 35.4118 38.2008 35.584 38.542 35.7946C39.0574 36.1126 39.2279 36.1669 39.5499 36.1157C40.3224 35.9928 40.6907 35.051 40.2067 34.436C39.9545 34.1154 38.687 33.4346 38.125 33.3178C37.7561 33.2412 37.7099 33.1943 37.652 32.8382C37.5795 32.3929 37.2287 31.962 36.885 31.8964C36.7586 31.8723 36.4985 31.893 36.307 31.9426ZM9.1133 35.1965C8.42325 35.4799 8.22864 36.3842 8.74641 36.9018L9.05591 37.2112H14.3665H19.677L19.9865 36.9018C20.409 36.4794 20.4092 35.9653 19.9871 35.4929L19.6782 35.1472L14.5076 35.1259C11.6637 35.1142 9.23634 35.1459 9.1133 35.1965ZM35.5213 37.9152L35.4904 38.725L35.1425 38.4318C34.2742 37.7003 34.2751 36.6248 35.1446 35.8115L35.4904 35.488L35.5213 36.2967C35.5384 36.7415 35.5384 37.4698 35.5213 37.9152ZM38.2578 42.2419C39.3768 42.8974 39.5992 44.5329 38.7211 45.6488C38.4893 45.9433 37.8868 46.42 37.7464 46.42C37.6995 46.42 37.6611 45.4198 37.6611 44.1972C37.6611 42.9747 37.6926 41.9744 37.7312 41.9744C37.7697 41.9744 38.0067 42.0947 38.2578 42.2419ZM9.20818 42.8935C9.0791 42.9195 8.85283 43.0842 8.70522 43.2596C8.32764 43.7082 8.3432 44.2257 8.74641 44.6288L9.05591 44.9381H14.3665H19.677L19.9865 44.6288C20.409 44.2063 20.4092 43.6922 19.9871 43.2198L19.6783 42.8741L14.5605 42.8601C11.7458 42.8525 9.33725 42.8674 9.20818 42.8935Z" fill="#E49B00"/>
</svg>
