<svg width="54" height="54" viewBox="0 0 54 54" fill="none" xmlns="http://www.w3.org/2000/svg">
<path fill-rule="evenodd" clip-rule="evenodd" d="M1.46285 0.270443C1.34863 0.317229 1.16173 0.459144 1.04751 0.586016C0.840986 0.815279 0.839844 0.962691 0.839844 26.738V52.6596L1.12777 52.9471L1.4156 53.2348H21.7623H42.1091L42.3969 52.9471L42.6848 52.6596V43.8983V35.137L42.3993 34.8518C41.9744 34.4274 41.367 34.4489 40.961 34.903L40.6601 35.2394V43.2257V51.2119H21.7623H2.8646V26.7295V2.24719H15.5842H28.3039L28.305 7.71941C28.3056 10.7292 28.335 13.3664 28.3704 13.5799C28.4057 13.7935 28.5518 14.0853 28.6949 14.2283L28.9552 14.4884H34.8076H40.6601V20.5121C40.6601 24.7442 40.6945 26.6031 40.776 26.7623C40.9633 27.1281 41.3089 27.3474 41.6984 27.3474C42.0879 27.3474 42.4335 27.1281 42.6208 26.7623C42.7026 26.6025 42.7367 24.5925 42.7367 19.9363C42.7367 14.4015 42.7126 13.2917 42.5877 13.0568C42.4076 12.7182 30.1126 0.449703 29.7903 0.286937C29.5191 0.150002 1.79688 0.133923 1.46285 0.270443ZM49.0475 0.353123C48.8268 0.489747 48.3826 1.33688 47.0228 4.21459L45.2807 7.90095V29.7461V51.5913L45.5949 52.0991C45.7897 52.4138 46.1024 52.7263 46.4174 52.9209L46.9257 53.2348H49.5898H52.2538L52.7621 52.9209C53.0771 52.7263 53.3899 52.4138 53.5847 52.0991L53.8989 51.5913V29.7461V7.90095L52.1543 4.21158C50.7329 1.20523 50.3551 0.489747 50.1136 0.347313C49.7407 0.127283 49.4091 0.129047 49.0475 0.353123ZM34.8454 8.10843L39.1535 12.4136H34.8189H30.4844V8.10843C30.4844 5.74059 30.4963 3.80327 30.5108 3.80327C30.5254 3.80327 32.4759 5.74059 34.8454 8.10843ZM50.4499 5.48902L51.2372 7.17478L50.4135 7.20486C49.9604 7.22146 49.2191 7.22146 48.766 7.20486L47.9423 7.17478L48.7296 5.48902C49.1626 4.56191 49.5497 3.80327 49.5898 3.80327C49.6298 3.80327 50.0169 4.56191 50.4499 5.48902ZM51.8741 27.0926V44.8838H49.5898H47.3054V27.0926V9.30142H49.5898H51.8741V27.0926ZM8.93887 11.2668C8.27787 11.5371 8.10218 12.4027 8.60598 12.9063L8.89142 13.1916L12.1339 13.2221C13.9174 13.2388 15.4857 13.2253 15.619 13.1919C15.7524 13.1586 15.9743 13.0098 16.1122 12.8611C16.5588 12.3797 16.391 11.6005 15.7728 11.2846C15.5052 11.1479 9.26937 11.1317 8.93887 11.2668ZM18.9588 11.3008C18.568 11.4949 18.3021 12.1038 18.4445 12.4782C18.6986 13.146 19.2886 13.4003 19.8776 13.096C20.2607 12.8981 20.4125 12.6454 20.4125 12.2061C20.4125 11.7721 20.2612 11.5144 19.8954 11.3254C19.529 11.1361 19.3022 11.1301 18.9588 11.3008ZM8.93887 17.4911C8.27787 17.7614 8.10218 18.6271 8.60608 19.1307L8.89163 19.416L21.7098 19.4431L34.5279 19.4702L34.8659 19.1684C35.1461 18.9184 35.2041 18.7918 35.2041 18.4304C35.2041 18.0694 35.146 17.9424 34.8673 17.6937L34.5305 17.393L21.8385 17.3996C14.8579 17.4032 9.05309 17.4444 8.93887 17.4911ZM8.93887 23.7154C8.27787 23.9858 8.10218 24.8514 8.60608 25.355L8.89163 25.6403L21.7098 25.6675L34.5279 25.6945L34.8659 25.3928C35.1461 25.1427 35.2041 25.0161 35.2041 24.6548C35.2041 24.2938 35.146 24.1668 34.8673 23.918L34.5305 23.6174L21.8385 23.6239C14.8579 23.6275 9.05309 23.6687 8.93887 23.7154ZM8.93887 29.9397C8.27787 30.2101 8.10218 31.0758 8.60608 31.5793L8.89163 31.8646L21.7098 31.8918L34.5279 31.9189L34.8659 31.6171C35.1461 31.3671 35.2041 31.2404 35.2041 30.8791C35.2041 30.5181 35.146 30.3911 34.8673 30.1423L34.5305 29.8417L21.8385 29.8482C14.8579 29.8519 9.05309 29.8931 8.93887 29.9397ZM41.3233 29.9394C40.9942 30.0782 40.6601 30.5578 40.6601 30.8914C40.6601 31.071 40.7782 31.3191 40.961 31.5234C41.5856 32.222 42.6801 31.8118 42.6801 30.8791C42.6801 30.1901 41.9418 29.6787 41.3233 29.9394ZM8.93887 36.1641C8.27787 36.4344 8.10218 37.3001 8.60608 37.8036L8.89163 38.0889L21.7098 38.1161L34.5279 38.1432L34.8659 37.8414C35.1461 37.5914 35.2041 37.4647 35.2041 37.1034C35.2041 36.7424 35.146 36.6154 34.8673 36.3667L34.5305 36.066L21.8385 36.0726C14.8579 36.0762 9.05309 36.1174 8.93887 36.1641ZM8.93887 42.3884C8.27787 42.6587 8.10218 43.5244 8.60608 44.028L8.89163 44.3133L21.7098 44.3404L34.5279 44.3675L34.8659 44.0657C35.1461 43.8157 35.2041 43.6891 35.2041 43.3277C35.2041 42.9667 35.146 42.8398 34.8673 42.591L34.5305 42.2904L21.8385 42.2969C14.8579 42.3005 9.05309 42.3417 8.93887 42.3884ZM51.8741 48.9608C51.8741 50.3797 51.8378 50.9992 51.7495 51.0874C51.5735 51.2632 47.606 51.2632 47.43 51.0874C47.3418 50.9992 47.3054 50.3797 47.3054 48.9608V46.9586H49.5898H51.8741V48.9608Z" fill="#E49B00"/>
</svg>
