<svg width="54" height="40" viewBox="0 0 54 40" fill="none" xmlns="http://www.w3.org/2000/svg">
<path fill-rule="evenodd" clip-rule="evenodd" d="M5.76692 0.150391C3.86951 0.610604 2.27047 2.25846 1.8733 4.16278C1.79238 4.55075 1.75778 8.774 1.75778 18.2504V31.784H1.28209C0.260675 31.784 -0.0929002 32.2578 0.020219 33.4751C0.272176 36.1865 2.08449 38.441 4.77959 39.3959L5.57372 39.6773L13.8809 39.7071C20.0668 39.7291 22.2638 39.7054 22.4848 39.6139C22.8018 39.4826 23.0852 39.0436 23.0852 38.6841C23.0852 38.3384 22.8128 37.9001 22.5132 37.7635C22.3083 37.6702 20.2471 37.6386 14.3649 37.6386C9.67967 37.6386 6.27293 37.5973 5.9526 37.5366C4.31645 37.2263 2.68385 35.7243 2.22824 34.1102L2.16185 33.8749H26.7289H51.2959L51.1898 34.267C50.7862 35.7585 49.1463 37.2341 47.561 37.5326C47.2118 37.5984 44.0023 37.6386 39.1136 37.6386C30.5543 37.6386 30.7964 37.6225 30.5284 38.2107C30.2761 38.7643 30.4923 39.402 31.0039 39.6139C31.2249 39.7054 33.4219 39.7291 39.6078 39.7071L47.915 39.6773L48.7503 39.382C50.8987 38.6229 52.4393 37.0768 53.1465 34.9703C53.4694 34.0081 53.5857 32.8507 53.4036 32.411C53.2346 32.003 52.8163 31.784 52.2066 31.784H51.7309V18.2504C51.7309 8.774 51.6963 4.55075 51.6154 4.16278C51.2068 2.20358 49.5293 0.526026 47.5701 0.117459C46.7237 -0.0590148 6.49969 -0.0273379 5.76692 0.150391ZM47.7635 2.36531C48.459 2.6871 48.9656 3.17816 49.296 3.85112L49.5877 4.44515L49.6154 18.1146L49.643 31.784H26.7459H3.84871V18.3166C3.84871 3.56059 3.81943 4.27046 4.46563 3.37826C4.84754 2.85114 5.31445 2.51481 5.98971 2.28063C6.48254 2.10969 7.75937 2.09997 26.9012 2.12182L47.2877 2.14513L47.7635 2.36531ZM34.453 4.29137C33.4041 4.55493 32.4482 5.34321 31.9494 6.35626C31.6385 6.98762 31.6048 7.14778 31.5958 8.03674L31.586 9.01916L27.9367 11.1318L24.2875 13.2445L23.7725 12.7851C20.9479 10.2652 16.5871 11.0924 14.9321 14.4621C14.1186 16.1182 14.1182 17.7291 14.9307 19.4079C16.5621 22.7783 20.9462 23.6132 23.7725 21.0918L24.2875 20.6324L27.9367 22.745L31.586 24.8577L31.5958 25.8401C31.6048 26.7291 31.6385 26.8893 31.9494 27.5206C32.3484 28.3309 33.0024 28.9648 33.8535 29.3663C34.3403 29.5959 34.5729 29.6374 35.3694 29.6366C36.6115 29.6354 37.3684 29.3102 38.1866 28.4264C38.8849 27.6722 39.1946 26.9085 39.1976 25.9329C39.2004 25.0574 39.131 24.7692 38.7353 24.014C37.9849 22.5816 36.354 21.7784 34.7768 22.0645C34.095 22.188 33.2555 22.5581 33.0239 22.8372C32.9486 22.9279 32.8145 23.0021 32.7259 23.0021C32.6373 23.0021 30.9323 22.0605 28.9369 20.9095L25.3089 18.8168L25.45 18.2175C25.5276 17.8877 25.5911 17.3122 25.5911 16.9384C25.5911 16.5647 25.5276 15.9892 25.45 15.6594L25.3089 15.0601L28.9369 12.9674C30.9323 11.8164 32.6373 10.8748 32.7259 10.8748C32.8145 10.8748 32.9486 10.949 33.0239 11.0397C33.2555 11.3188 34.095 11.6889 34.7768 11.8124C36.354 12.0985 37.9849 11.2952 38.7353 9.86285C39.131 9.10771 39.2004 8.81948 39.1976 7.94401C39.1913 5.9616 37.5819 4.30663 35.579 4.2231C35.1762 4.20627 34.6696 4.237 34.453 4.29137ZM36.4106 6.63028C36.9008 7.00424 37.1151 7.44522 37.1103 8.07019C37.0988 9.55904 35.4165 10.306 34.2622 9.33479C33.3224 8.544 33.4911 7.06686 34.5857 6.50315C35.2049 6.18428 35.8883 6.23185 36.4106 6.63028ZM21.4378 13.724C22.1767 14.0623 22.8214 14.7065 23.1743 15.4593C23.4057 15.9529 23.4511 16.1956 23.4511 16.9384C23.4511 17.6812 23.4057 17.924 23.1743 18.4176C22.8218 19.1695 22.1799 19.8114 21.428 20.1639C20.9339 20.3956 20.6924 20.4406 19.9488 20.4402C19.189 20.4397 18.9739 20.3974 18.4653 20.148C17.6937 19.7699 16.8921 18.8995 16.6417 18.1681C16.4006 17.4635 16.4 16.4152 16.6404 15.7132C16.8478 15.1073 17.5471 14.2603 18.1448 13.8908C19.0655 13.3218 20.4105 13.2537 21.4378 13.724ZM37.759 13.9058C37.1763 14.1409 37.009 15.0331 37.4513 15.5473L37.7034 15.8407L41.7595 15.8705C46.1408 15.9026 46.2888 15.8869 46.5608 15.3607C46.7454 15.0038 46.7527 14.7361 46.5878 14.3741C46.333 13.8148 46.2234 13.8015 41.9349 13.8086C39.7614 13.8123 37.8823 13.856 37.759 13.9058ZM19.2995 16.196C19.0189 16.4467 18.9604 16.5746 18.9604 16.9384C18.9604 17.693 19.7476 18.2008 20.4001 17.8671C21.4004 17.3556 21.0336 15.893 19.9051 15.893C19.7585 15.893 19.4859 16.0293 19.2995 16.196ZM37.759 18.0827C37.1745 18.3313 37.0092 19.2154 37.4513 19.7292C37.6608 19.9728 37.7865 20.0226 38.1922 20.0226C38.8171 20.0226 39.1854 19.6542 39.1854 19.0294C39.1854 18.2985 38.4301 17.7973 37.759 18.0827ZM42.4636 18.0876C41.881 18.3227 41.7136 19.2148 42.1556 19.7292L42.4077 20.0226L44.1026 20.0561C45.2626 20.079 45.8939 20.0496 46.1032 19.963C46.4281 19.8283 46.7127 19.3925 46.7127 19.0294C46.7127 18.6837 46.4403 18.2454 46.1406 18.1088C45.8206 17.963 42.8153 17.9456 42.4636 18.0876ZM7.06612 22.7469C6.7161 22.9369 6.56691 23.2007 6.56691 23.6294C6.56691 24.0668 6.71924 24.3265 7.08755 24.517C7.52539 24.7433 13.4345 24.7512 13.87 24.5259C14.5658 24.166 14.5658 23.0928 13.87 22.7329C13.4402 22.5107 7.47887 22.5229 7.06612 22.7469ZM36.3313 24.3752C37.0449 24.8139 37.3372 25.8885 36.9477 26.6418C36.3264 27.8431 34.5371 27.885 33.8818 26.7135C32.9971 25.132 34.7852 23.4251 36.3313 24.3752ZM7.06612 26.9288C6.7161 27.1187 6.56691 27.3825 6.56691 27.8113C6.56691 28.2487 6.71924 28.5084 7.08755 28.6989C7.54222 28.9339 7.88346 28.8917 8.26171 28.5537C8.54231 28.303 8.60086 28.1751 8.60086 27.8113C8.60086 27.4474 8.54231 27.3195 8.26171 27.0688C7.8843 26.7315 7.51034 26.6877 7.06612 26.9288ZM11.7707 26.9288C11.4207 27.1187 11.2715 27.3825 11.2715 27.8113C11.2715 28.2487 11.4238 28.5084 11.7921 28.6989C12.0482 28.8312 12.7148 28.8567 15.917 28.8567H19.7364L20.0754 28.5537C20.3561 28.303 20.4146 28.1751 20.4146 27.8113C20.4146 27.4474 20.3561 27.3195 20.0754 27.0688L19.7364 26.7658L15.896 26.77C12.7108 26.7734 12.007 26.8005 11.7707 26.9288ZM26.2331 37.7846C25.3268 38.2869 25.706 39.7295 26.7444 39.7295C27.2741 39.7295 27.7898 39.2188 27.7898 38.6942C27.7898 37.9093 26.9224 37.4024 26.2331 37.7846Z" fill="#E49B00"/>
</svg>
