<svg width="49" height="49" viewBox="0 0 49 49" fill="none" xmlns="http://www.w3.org/2000/svg">
<path fill-rule="evenodd" clip-rule="evenodd" d="M2.2818 0.0806165C1.45845 0.281656 0.696996 0.902143 0.261457 1.72699L0 2.22219V20.5891V38.9559L0.203176 39.3947C0.498859 40.033 1.02862 40.57 1.68692 40.8984L2.2646 41.1865H8.5271H14.7895L15.6188 41.8593C16.4989 42.5734 17.799 43.383 18.7123 43.7855C19.9672 44.3386 22.0901 44.8884 22.9711 44.8884H23.341V46.3552C23.341 47.9565 23.4061 48.2361 23.8301 48.455C24.1617 48.6262 24.4217 48.6262 24.7533 48.455C25.1773 48.2361 25.2425 47.9565 25.2425 46.3552V44.8884H25.6316C25.8456 44.8884 26.4383 44.8034 26.9488 44.6996C29.2792 44.2255 31.2027 43.3022 33.0988 41.7477L33.777 41.1918L40.1344 41.1654L46.4918 41.1391L46.9001 40.9214C47.5295 40.5859 48.0288 40.0833 48.3191 39.4933L48.5834 38.9559V20.5891V2.22219L48.322 1.72699C47.99 1.09815 47.5226 0.631528 46.8927 0.30007L46.3967 0.0390419L31.042 0.0137934C19.5822 -0.00509558 15.6199 0.0163562 15.4215 0.0983664C15.1366 0.215971 14.8793 0.615771 14.8793 0.940775C14.8793 1.21566 15.1224 1.66007 15.3274 1.75983C15.4208 1.8053 22.3739 1.86386 30.7788 1.88997L46.0603 1.93743L46.3711 2.24762L46.6819 2.55791L46.7089 6.25796L46.7358 9.95811H24.2917H1.8476L1.8745 6.25796L1.9015 2.55791L2.21211 2.24762L2.52272 1.93743L5.06437 1.88911C6.46226 1.86254 7.68245 1.80397 7.77591 1.75898C7.97776 1.66169 8.224 1.21718 8.224 0.949982C8.224 0.62906 8.00999 0.268936 7.73484 0.126842C7.52634 0.0192038 6.97167 -0.00642444 5.01997 0.00126402C3.67085 0.00667442 2.43868 0.0423641 2.2818 0.0806165ZM11.0867 0.12409C10.2625 0.580177 10.6073 1.88997 11.5516 1.88997C12.0334 1.88997 12.5024 1.42629 12.5024 0.949982C12.5024 0.237328 11.7135 -0.22284 11.0867 0.12409ZM6.06123 5.1681C5.94657 5.24831 5.80396 5.4763 5.74444 5.67478C5.65441 5.97472 5.66306 6.08749 5.7955 6.3432C6.10307 6.93711 5.87603 6.92069 13.7859 6.92069C21.4594 6.92069 21.4706 6.92002 21.7171 6.46033C21.9163 6.08863 21.8422 5.55395 21.5531 5.27735L21.2865 5.0223H13.7781C7.17932 5.0223 6.24444 5.03996 6.06123 5.1681ZM31.0347 5.29975C30.8335 5.5007 30.7568 5.6688 30.7568 5.90942C30.7568 6.3002 31.1106 6.7747 31.4688 6.8645C31.8387 6.95714 32.3481 6.69469 32.5276 6.319C32.9803 5.37104 31.7825 4.55321 31.0347 5.29975ZM36.1688 5.29975C35.702 5.7659 35.8341 6.49735 36.4368 6.78287C36.7252 6.91945 36.8091 6.92268 37.1091 6.80868C37.3141 6.73085 37.5255 6.55259 37.635 6.36532C37.7926 6.09603 37.803 6.00149 37.7096 5.69006C37.5001 4.99212 36.684 4.78539 36.1688 5.29975ZM41.3028 5.29975C40.576 6.02551 41.3529 7.18305 42.3013 6.78742C43.2635 6.38601 42.9721 5.0223 41.9242 5.0223C41.6714 5.0223 41.5074 5.09549 41.3028 5.29975ZM46.7295 25.1499C46.7295 39.591 46.7595 38.7753 46.2147 39.1317C45.9998 39.2723 45.4409 39.2882 40.7058 39.2882H35.4361L36.0301 38.3007C36.9572 36.7595 37.6722 34.7637 37.8355 33.2608C37.9554 32.1578 37.7915 32.2641 39.3723 32.2641C40.4267 32.2641 40.8328 32.2289 41.0687 32.1172C41.6528 31.8404 41.7775 31.1024 41.3175 30.6432L41.0396 30.3657H39.5129C38.0044 30.3657 37.9857 30.3632 37.9476 30.1522C37.9264 30.0347 37.8398 29.495 37.7552 28.9527C37.3535 26.3789 36.0766 23.8692 34.1374 21.8426C33.0521 20.7083 31.9567 19.8897 30.5721 19.1784C28.9654 18.3529 27.6559 17.9544 25.7004 17.6957L25.2551 17.6368L25.2251 16.0671L25.1949 14.4973L24.9281 14.2685C24.5664 13.9581 24.017 13.9581 23.6553 14.2685L23.3885 14.4973L23.3584 16.0671L23.3283 17.6368L22.883 17.695C19.6435 18.1182 17.0664 19.3193 14.8509 21.4386C13.704 22.5357 12.8666 23.6386 12.1766 24.961C11.3723 26.5022 10.9803 27.8016 10.6389 30.0573L10.5922 30.3657H9.06808H7.54383L7.26593 30.6432C6.80596 31.1024 6.9306 31.8404 7.51474 32.1172C7.75062 32.2289 8.15669 32.2641 9.21107 32.2641C10.5738 32.2641 10.5979 32.2677 10.6358 32.4777C10.657 32.5952 10.7409 33.1184 10.8223 33.6405C11.0808 35.2981 11.8334 37.2435 12.7778 38.6949L13.1637 39.2882H7.88582C3.14309 39.2882 2.58357 39.2723 2.3687 39.1317C1.82392 38.7753 1.85397 39.591 1.85397 25.1499V11.8565H24.2917H46.7295V25.1499ZM23.341 21.1003V22.6557L22.8893 22.7232C22.149 22.8338 20.9629 23.2388 20.2202 23.6347C17.9026 24.87 16.2788 27.0509 15.7623 29.6217L15.6119 30.3703L14.0811 30.3443L12.5504 30.3183L12.5818 29.9386C12.6724 28.8422 13.1515 27.2458 13.7474 26.0551C15.561 22.4309 19.1773 19.9504 23.2221 19.5565C23.3128 19.5477 23.341 19.9131 23.341 21.1003ZM27.1045 19.8804C30.5034 20.7273 33.2801 22.9519 34.8444 26.0817C35.4397 27.2727 35.9112 28.8442 36.0016 29.9386L36.033 30.3183L34.505 30.3443L32.9769 30.3703L32.8087 29.5849C32.2399 26.9289 30.5343 24.7077 28.1423 23.5075C27.5634 23.217 26.3083 22.8149 25.6941 22.7232L25.2425 22.6557V21.1049V19.5539L25.7416 19.6095C26.0161 19.6402 26.6294 19.762 27.1045 19.8804ZM25.978 24.7259C27.2818 25.0602 28.6982 25.9613 29.5265 26.9832C30.5724 28.2737 31.0504 29.6335 31.0495 31.3149C31.0483 33.2996 30.3594 34.8684 28.8755 36.266C28.0719 37.0229 26.8379 37.6766 25.762 37.9156C24.6926 38.1531 23.165 38.0744 22.1535 37.7297C18.2012 36.3826 16.3504 31.8285 18.2686 28.1705C19.2692 26.2626 21.1603 24.9124 23.2968 24.5808C23.9994 24.4717 25.2509 24.5395 25.978 24.7259ZM26.5129 28.3995C26.401 28.4629 25.7015 29.241 24.9582 30.1285C24.2149 31.0159 23.5499 31.8017 23.4804 31.8745C23.3735 31.9867 23.2631 31.9309 22.7567 31.5084C22.0694 30.9351 21.7981 30.8092 21.4255 30.8908C21.0971 30.9629 20.6789 31.4413 20.6789 31.7449C20.6789 32.1711 20.8967 32.4447 21.9219 33.3056C23.1396 34.3282 23.394 34.4455 23.8538 34.1956C24.1516 34.0337 27.538 30.113 27.7964 29.631C28.2148 28.8503 27.2872 27.9603 26.5129 28.3995ZM15.8135 33.1896C16.3996 35.7503 18.0907 37.9 20.4412 39.072C21.0845 39.3929 22.0598 39.7237 22.6279 39.8139C23.4009 39.9366 23.341 39.7965 23.341 41.4777V42.99H23.0517C22.8927 42.99 22.4327 42.9239 22.0297 42.8431C17.0649 41.8474 13.2656 37.8191 12.612 32.8574L12.5339 32.2641H14.0677H15.6016L15.8135 33.1896ZM35.9711 32.8574C35.3222 37.7634 31.575 41.7924 26.7161 42.8085C26.2455 42.907 25.7214 42.9881 25.5515 42.9888L25.2425 42.99V41.4777C25.2425 39.7965 25.1825 39.9366 25.9555 39.8139C26.1647 39.7807 26.6139 39.6642 26.9538 39.5551C30.058 38.5579 32.325 35.9099 32.891 32.6201L32.9522 32.2641H34.5009H36.0496L35.9711 32.8574Z" fill="#E49B00"/>
</svg>
