<svg width="43" height="52" viewBox="0 0 43 52" fill="none" xmlns="http://www.w3.org/2000/svg">
<path fill-rule="evenodd" clip-rule="evenodd" d="M19.9176 0.0957156C14.0925 0.801972 9.19134 5.53629 7.86982 11.733C7.55206 13.2228 7.48043 14.4314 7.48043 18.299C7.48043 22.3978 7.51185 22.6729 8.0705 23.4727C8.23807 23.7127 8.58968 24.0461 8.85189 24.2137L9.32861 24.5185L9.36826 25.4836C9.41539 26.6316 9.61233 27.1901 10.1923 27.8202C10.7421 28.4175 11.2928 28.6592 12.2307 28.7146L13.0066 28.7605L13.2485 29.2808C13.5717 29.9761 13.9593 30.5945 14.5106 31.295L14.9668 31.8744L14.175 33.5925L13.3832 35.3105L10.689 36.2952C7.14931 37.5889 6.09879 38.2047 4.37779 39.9949C2.05008 42.4163 0.63458 45.4252 0.140834 49.0018C0.0636867 49.5605 0.000285391 50.3026 4.85335e-06 50.651C-0.000462709 51.2077 0.0324535 51.3245 0.272313 51.6161L0.545182 51.9479L21.4507 51.974L42.3563 52L42.6553 51.7097C42.9149 51.4577 42.9598 51.3394 42.9948 50.8139C43.0169 50.481 42.9668 49.7029 42.8834 49.0849C42.3923 45.4476 40.9872 42.4398 38.6368 39.9949C36.9158 38.2047 35.8653 37.5889 32.3256 36.2952L29.6314 35.3105L28.8396 33.5925L28.0478 31.8744L28.504 31.295C29.6814 29.7992 30.466 28.0069 30.8031 26.0423C30.8894 25.5394 30.979 25.0298 31.0022 24.9097C31.0422 24.7025 31.1061 24.6892 32.2373 24.6527C33.2011 24.6214 33.5135 24.5726 33.8649 24.3987C34.4188 24.1244 35.0286 23.4631 35.2864 22.8574C35.4786 22.4057 35.4887 22.2212 35.5173 18.6262C35.5355 16.347 35.5063 14.4275 35.4432 13.7499C35.1105 10.1825 33.7926 7.12425 31.4863 4.56823C28.4537 1.20732 24.227 -0.426764 19.9176 0.0957156ZM23.7956 2.27097C26.32 2.84343 28.2968 3.99293 30.0705 5.92C32.0248 8.04303 33.1906 10.6033 33.555 13.5721L33.6329 14.207H32.7318H31.8306L31.7117 13.1728C31.1818 8.55993 28.0732 4.99532 23.8887 4.20261C22.8006 3.99648 20.214 3.99648 19.1259 4.20261C14.9414 4.99532 11.8328 8.55993 11.3028 13.1728L11.184 14.207H10.2761C9.46159 14.207 9.37144 14.1887 9.40006 14.0293C9.41764 13.9314 9.48094 13.4857 9.54088 13.0387C9.76709 11.3498 10.425 9.54657 11.4165 7.89766C12.1012 6.75893 13.6601 5.0386 14.6597 4.31863C16.1007 3.28068 17.9733 2.46409 19.45 2.22972C19.8358 2.16847 20.2566 2.09847 20.3851 2.07399C20.8727 1.98144 23.081 2.10893 23.7956 2.27097ZM23.6732 6.22558C25.055 6.51908 26.0386 7.01413 27.1279 7.9642C28.8089 9.43046 29.7779 11.5717 29.8971 14.0837L29.9516 15.2303L29.54 15.1659C28.4283 14.9922 26.7791 14.5856 26.0331 14.3011C24.2102 13.6063 22.2269 12.3534 20.9462 11.0877C20.0894 10.2408 19.9352 10.1434 19.4525 10.1435C18.5073 10.1438 16.8402 10.5888 15.9499 11.0783C15.1719 11.5062 14.3363 12.1581 13.7532 12.7922L13.1529 13.4451L13.2141 12.9597C13.3736 11.6956 14.0592 10.1115 14.9501 8.94912C15.9907 7.59126 17.6926 6.53909 19.4033 6.19622C20.1708 6.04241 22.8991 6.06111 23.6732 6.22558ZM19.7047 12.6075C22.1968 15.012 25.2434 16.5088 28.8348 17.0931C29.3419 17.1756 29.7787 17.2669 29.8056 17.296C29.8766 17.3732 29.665 20.2977 29.4528 22.1706C28.947 26.6363 28.5239 28.0544 27.1466 29.8993C26.2535 31.0956 24.7485 32.1599 23.3775 32.5645C22.5321 32.8141 20.4827 32.8141 19.637 32.5646C18.1634 32.1297 16.6103 30.9758 15.6459 29.5989C15.3723 29.2083 15.1484 28.854 15.1484 28.8116C15.1484 28.7692 15.5587 28.736 16.0602 28.7378L16.9719 28.7413L17.2525 29.2677C17.5991 29.9184 18.1793 30.4089 18.8541 30.622C19.6479 30.8727 22.0479 30.7927 22.6434 30.4956C23.1995 30.2183 23.8087 29.5561 24.063 28.9528C24.3395 28.2967 24.3395 27.1404 24.063 26.4843C23.8087 25.881 23.1995 25.2188 22.6434 24.9415C22.0479 24.6444 19.6479 24.5644 18.8541 24.8151C18.1793 25.0282 17.5991 25.5187 17.2525 26.1694L16.9719 26.6959L15.5926 26.6993C14.834 26.7011 14.2133 26.6684 14.2132 26.6265C14.2132 26.5845 14.1517 26.2301 14.0765 25.8387C13.7445 24.11 13.3311 20.3419 13.2234 18.0628L13.1636 16.7976L13.9088 15.7279C14.3185 15.1396 14.9344 14.379 15.2772 14.0377C16.2974 13.0222 17.7322 12.3353 19.143 12.1872C19.2056 12.1806 19.4583 12.3698 19.7047 12.6075ZM11.2552 16.7214C11.2839 16.9869 11.3331 17.7525 11.3647 18.423C11.3964 19.0935 11.4817 20.2364 11.5545 20.9628C11.6271 21.6892 11.6871 22.3679 11.6876 22.4711C11.6884 22.6428 11.6136 22.6557 10.8021 22.6235C9.97908 22.5908 9.89717 22.5681 9.65656 22.3067L9.39744 22.0252L9.36994 19.132L9.34245 16.2388H10.2729H11.2033L11.2552 16.7214ZM33.6446 19.132L33.6171 22.0252L33.358 22.3067C33.1174 22.5681 33.0355 22.5908 32.2125 22.6235C31.401 22.6557 31.3262 22.6428 31.327 22.4711C31.3275 22.3679 31.3876 21.6892 31.4607 20.9628C31.5337 20.2364 31.619 19.0707 31.65 18.3722C31.6812 17.6738 31.7288 16.9081 31.7559 16.6706L31.8052 16.2388H32.7386H33.6721L33.6446 19.132ZM12.0119 24.8994C12.0374 25.0252 12.1037 25.4166 12.1591 25.7692C12.2145 26.122 12.2857 26.4835 12.3172 26.5727C12.4068 26.8263 11.788 26.6534 11.5046 26.3457C11.3133 26.138 11.2676 25.9736 11.2368 25.3831L11.1998 24.6709H11.5826C11.9036 24.6709 11.973 24.7078 12.0119 24.8994ZM22.1345 27.0328C22.5201 27.4522 22.4975 28.0427 22.0802 28.4478L21.769 28.7498L20.5178 28.7168C19.3203 28.6851 19.2565 28.6726 19.0282 28.4242C18.6858 28.0519 18.6305 27.5398 18.8934 27.1767C19.2022 26.7502 19.3827 26.7053 20.6872 26.7305C21.8485 26.7528 21.8839 26.7603 22.1345 27.0328ZM27.3585 34.8444L27.9744 36.1796L27.7238 36.9464C27.3934 37.9575 26.7253 39.6507 26.26 40.6562L25.886 41.4641L24.3056 39.7493L22.7251 38.0346L23.1267 37.5752C23.3476 37.3224 24.2361 36.3042 25.101 35.3125C25.966 34.3207 26.6892 33.5092 26.7082 33.5092C26.7272 33.5092 27.0198 34.11 27.3585 34.8444ZM18.6355 39.7746C17.8346 40.6869 17.1611 41.4333 17.139 41.4333C17.0597 41.4333 15.9138 38.7167 15.4737 37.4852L15.0248 36.2293L15.5752 35.02L16.1257 33.8106L18.1088 35.9632L20.0918 38.1159L18.6355 39.7746ZM21.6146 34.7791H22.9845L22.2253 35.6426C21.8077 36.1176 21.4431 36.5178 21.4152 36.532C21.3871 36.5463 20.9651 36.1223 20.4773 35.59C19.6297 34.665 19.6048 34.6255 19.9176 34.7006C20.0976 34.7437 20.8613 34.7791 21.6146 34.7791ZM13.9373 38.7919C14.9222 41.477 16.2589 44.1506 18.0002 46.9192C18.4747 47.6735 19.0794 48.6677 19.3441 49.1287L19.8254 49.9669H10.8635H1.90167L1.98471 49.2811C2.47621 45.2244 4.81486 41.4523 7.99475 39.5876C8.70816 39.1692 13.0994 37.4594 13.3514 37.5018C13.4174 37.513 13.6811 38.0935 13.9373 38.7919ZM31.9248 38.2828C33.146 38.729 34.4893 39.2885 34.9099 39.526C38.1283 41.3438 40.5326 45.1761 41.0299 49.2811L41.1129 49.9669H32.1511H23.1892L23.6705 49.1287C23.9352 48.6677 24.5399 47.6735 25.0144 46.9192C26.7191 44.2088 27.9502 41.7732 28.917 39.1983C29.2002 38.444 29.4571 37.7468 29.4877 37.649C29.5184 37.5513 29.5797 37.4712 29.6238 37.4712C29.668 37.4712 30.7034 37.8365 31.9248 38.2828ZM23.1662 41.4577C24.1053 42.4768 24.8737 43.3519 24.8737 43.4025C24.8737 43.453 24.4214 44.2236 23.8685 45.1149C23.3155 46.0063 22.5783 47.2225 22.23 47.8178C21.8817 48.4131 21.5565 48.9002 21.5073 48.9002C21.4581 48.9002 21.1329 48.4131 20.7846 47.8178C20.4363 47.2225 19.6946 45.9992 19.1365 45.0992C18.5783 44.1993 18.1419 43.4063 18.1667 43.337C18.2219 43.1829 21.3243 39.6046 21.4027 39.6046C21.4335 39.6046 22.2271 40.4385 23.1662 41.4577ZM31.4559 40.3137C31.1615 40.443 30.8585 40.9138 30.8585 41.2422C30.8585 41.6488 31.2883 42.1369 31.7107 42.2097C31.9955 42.2589 32.0979 42.2201 32.3631 41.9627C32.6258 41.7077 32.6778 41.5868 32.6778 41.2301C32.6778 40.8766 32.6254 40.7522 32.3745 40.5086C32.0673 40.2103 31.8139 40.1566 31.4559 40.3137ZM34.7393 42.2404C34.3992 42.3917 34.1824 42.7498 34.1824 43.1604C34.1824 43.516 34.2618 43.6396 35.0742 44.5492C35.5803 45.116 36.141 45.8682 36.3712 46.2891C36.8263 47.1216 37.1555 47.3798 37.6367 47.2817C37.9932 47.2091 38.2199 46.9659 38.3341 46.5335C38.4887 45.9479 37.6737 44.4823 36.4634 43.1693C35.5727 42.203 35.234 42.0205 34.7393 42.2404Z" fill="#E49B00"/>
</svg>
