<svg width="54" height="54" viewBox="0 0 54 54" fill="none" xmlns="http://www.w3.org/2000/svg">
<path fill-rule="evenodd" clip-rule="evenodd" d="M26.6301 0.0761058C26.5139 0.123716 26.3237 0.268128 26.2074 0.397128C26.0104 0.615858 25.9961 0.780328 25.9961 2.82902C25.9961 4.99669 25.9995 5.02984 26.2472 5.29333C26.7392 5.81682 27.5937 5.73733 27.9032 5.13941C28.1032 4.75305 28.1257 0.981851 27.9305 0.553997C27.7193 0.0909905 27.1266 -0.126895 26.6301 0.0761058ZM18.329 3.96458C17.878 4.18954 17.6595 4.61476 17.7591 5.07365C17.8409 5.45072 19.6397 7.37158 20.1703 7.64848C20.8452 8.00064 21.6586 7.49572 21.6586 6.72468C21.6586 6.33156 21.5861 6.23486 20.4457 5.10637C19.769 4.43677 19.1136 3.87897 18.963 3.84466C18.8036 3.80824 18.544 3.85743 18.329 3.96458ZM34.9785 3.85068C34.649 3.92795 32.4166 6.19147 32.3556 6.51028C32.2239 7.19845 32.9075 7.87555 33.586 7.72902C34.0627 7.62599 36.0515 5.66481 36.2078 5.14364C36.3595 4.63766 36.1132 4.13718 35.6089 3.92669C35.4112 3.84424 35.236 3.78217 35.2196 3.78892C35.2032 3.79568 35.0947 3.82344 34.9785 3.85068ZM26.6301 7.14894C25.9873 7.4118 25.7837 8.28419 26.2495 8.7796C27.0855 9.66856 28.4386 8.74076 27.9305 7.62684C27.7193 7.16383 27.1266 6.94594 26.6301 7.14894ZM25.5472 11.2792C22.0424 11.6177 18.7962 13.1026 16.2524 15.5308C14.4989 17.2046 13.1662 19.1912 12.3662 21.3233L12.1795 21.8213L11.6013 21.4077C10.7838 20.823 10.1139 20.6163 9.03522 20.6163C7.95554 20.6163 7.28662 20.823 6.46616 21.4098C5.23641 22.2895 4.69747 23.3859 4.6216 25.1623C4.56897 26.3954 4.70075 27.1198 5.13116 27.9626L5.32909 28.3501L4.83083 28.4753C3.35032 28.8478 1.52024 30.349 0.773119 31.8041C0.0969041 33.1213 0.00528376 33.5834 0.0025362 35.6925L0 37.5752L0.288599 37.8234C0.693229 38.1714 1.12259 38.2102 4.14025 38.1719C6.63365 38.1401 6.81943 38.1243 7.09249 37.9204C7.63894 37.5125 7.67952 36.8269 7.18644 36.3343C6.93155 36.0797 6.92965 36.0795 4.49595 36.0795H2.06067L2.06246 35.3669C2.06753 33.4073 2.85851 31.8982 4.37041 30.9634C5.29454 30.3921 5.58007 30.3492 8.77949 30.3012L11.7469 30.2565L11.941 30.9729C12.234 32.0543 12.6876 33.1722 13.2796 34.2719L13.8125 35.2619L7.53496 41.5559C2.78697 46.3163 1.19952 47.971 1.01987 48.3469C-0.091409 50.6711 1.29737 53.4312 3.82586 53.9234C4.68426 54.0905 5.45992 53.9861 6.29655 53.5909C6.88548 53.3126 7.40476 52.8399 10.494 49.7699C12.4329 47.843 14.0867 46.1382 14.1691 45.9815C14.3893 45.5627 14.353 45.2146 14.0519 44.8572C13.7378 44.4843 13.3148 44.3646 12.8843 44.5269C12.7131 44.5914 10.9728 46.2377 8.98239 48.2179C5.8637 51.3206 5.33712 51.802 4.99315 51.865C3.58281 52.1235 2.44606 50.9302 2.80388 49.567C2.90903 49.1667 3.59591 48.4426 9.00162 43.0344L15.081 36.952L15.9946 37.8643C17.1666 39.0347 18.6115 40.0671 20.0783 40.7823C22.3225 41.8765 23.9994 42.292 26.5245 42.3795C28.5387 42.4494 30.1282 42.2259 31.9519 41.6163C36.8294 39.9858 40.7297 35.8785 42.059 30.9729L42.2532 30.2565L45.2205 30.3012C48.4199 30.3492 48.7055 30.3921 49.6296 30.9634C51.1415 31.8982 51.9325 33.4073 51.9375 35.3669L51.9393 36.0795H46.7565H41.5736L41.3185 36.3343C40.8253 36.827 40.866 37.5126 41.4125 37.9204C41.6967 38.1325 41.8417 38.1388 47.1123 38.1702C50.0868 38.188 52.7236 38.173 52.9717 38.1371C53.2198 38.1012 53.5527 37.96 53.7114 37.8234L54 37.5752L53.9975 35.6925C53.9947 33.5834 53.9031 33.1213 53.2269 31.8041C52.4798 30.349 50.6497 28.8478 49.1692 28.4753L48.6709 28.3501L48.8688 27.9626C49.2993 27.1198 49.431 26.3954 49.3784 25.1623C49.3025 23.3859 48.7636 22.2895 47.5338 21.4098C46.7134 20.823 46.0445 20.6163 44.9648 20.6163C43.8861 20.6163 43.2162 20.823 42.3987 21.4077L41.8205 21.8213L41.6338 21.3233C40.8338 19.1912 39.5011 17.2046 37.7476 15.5308C35.1553 13.0562 31.9923 11.6278 28.3209 11.2736C27.1308 11.1588 26.7862 11.1595 25.5472 11.2792ZM29.6666 13.6058C36.8759 15.027 41.6674 22.1298 40.273 29.3284C39.2249 34.7387 35.1149 38.8866 29.6419 40.0572C28.3877 40.3254 25.6123 40.3254 24.3581 40.0572C14.4305 37.9337 10.1915 26.4775 16.3823 18.5016C19.4908 14.4967 24.6118 12.6094 29.6666 13.6058ZM25.7319 15.5099C21.3962 15.9589 17.5846 19.0462 16.179 23.2476C14.3284 28.7786 17.1039 34.9469 22.4863 37.265C24.1014 37.9606 24.9931 38.1318 27 38.1318C28.4391 38.1318 28.9027 38.0918 29.6542 37.9027C36.1424 36.2702 39.9138 29.5026 37.821 23.2476C36.6307 19.6898 33.7341 16.9155 30.1144 15.8663C29.3796 15.6532 27.2897 15.3614 26.7967 15.4028C26.7051 15.4105 26.2259 15.4587 25.7319 15.5099ZM29.1981 17.8221C32.3945 18.5669 34.9374 21.0196 35.9467 24.3314C36.1979 25.1554 36.2294 25.4301 36.2285 26.7898C36.2273 28.4844 36.0624 29.3195 35.4713 30.6217C35.1404 31.3508 34.4266 32.4939 34.3078 32.4853C34.2698 32.4826 34.0723 32.2431 33.8689 31.9529C33.2815 31.1151 31.9474 30.0058 30.8776 29.4656L30.264 29.1558L30.4664 28.8964C31.0499 28.1487 31.3297 27.1928 31.3314 25.9411C31.3344 23.8542 30.4719 22.3682 28.7965 21.5735C28.1644 21.2736 28.0209 21.2476 27 21.2476C25.9791 21.2476 25.8356 21.2736 25.2035 21.5735C23.5281 22.3682 22.6656 23.8542 22.6686 25.9411C22.6703 27.1928 22.9501 28.1487 23.5336 28.8964L23.736 29.1558L23.1224 29.4656C22.0526 30.0058 20.7185 31.1151 20.1311 31.9529C19.9277 32.2431 19.7302 32.4826 19.6922 32.4853C19.5734 32.4939 18.8596 31.3508 18.5287 30.6217C17.9376 29.3195 17.7727 28.4844 17.7715 26.7898C17.7707 25.4301 17.8021 25.1554 18.0533 24.3314C19.5507 19.4182 24.2555 16.6704 29.1981 17.8221ZM10.0593 22.9402C10.9835 23.4002 11.3601 24.1313 11.3601 25.4651C11.3601 26.2215 11.3191 26.4218 11.0648 26.908C10.6382 27.7237 9.98683 28.1094 9.03522 28.1094C8.0777 28.1094 7.43319 27.7249 6.99728 26.8938C6.71386 26.3534 6.69589 26.2472 6.72844 25.3031C6.75972 24.3943 6.79555 24.2393 7.08182 23.7772C7.71576 22.7538 8.97425 22.4 10.0593 22.9402ZM46.1936 23.0501C46.9699 23.5294 47.2896 24.2202 47.2896 25.4175C47.2896 26.2261 47.2522 26.415 46.9944 26.908C46.5678 27.7237 45.9164 28.1094 44.9648 28.1094C44.0132 28.1094 43.3618 27.7237 42.9352 26.908C42.6809 26.4218 42.6399 26.2215 42.6399 25.4651C42.6399 24.982 42.6901 24.4529 42.7515 24.2895C43.3003 22.8279 44.9008 22.2516 46.1936 23.0501ZM27.7802 23.407C28.2313 23.5784 28.8811 24.247 29.0656 24.7297C29.194 25.0654 29.2314 25.4297 29.204 26.0773C29.1715 26.8432 29.1227 27.0355 28.8484 27.4786C28.6282 27.8343 28.3775 28.0708 28.0334 28.2477C26.987 28.7857 25.7577 28.4576 25.1516 27.4786C24.8773 27.0355 24.8285 26.8432 24.796 26.0773C24.7399 24.7528 25.1298 23.9747 26.1018 23.4716C26.4562 23.2881 27.3741 23.2527 27.7802 23.407ZM28.395 30.8132C29.0292 30.9462 30.3479 31.523 30.7803 31.8566C31.3785 32.3179 32.2095 33.1931 32.4689 33.6349L32.7381 34.0934L32.4317 34.3455C31.9439 34.7467 30.08 35.6238 29.272 35.8322C28.7242 35.9735 28.1347 36.023 27 36.023C25.8653 36.023 25.2758 35.9735 24.728 35.8322C23.92 35.6238 22.0561 34.7467 21.5683 34.3455L21.2619 34.0934L21.5311 33.6349C21.7898 33.1943 22.6215 32.3179 23.2155 31.8599C23.6247 31.5443 24.8411 30.9939 25.4626 30.8431C26.1457 30.6773 27.6731 30.6617 28.395 30.8132ZM15.8284 41.6442C15.4642 41.7126 15.0587 42.2653 15.0587 42.6935C15.0587 43.5078 16.149 44.0053 16.7361 43.4589C17.5546 42.697 16.925 41.4383 15.8284 41.6442Z" fill="#E49B00"/>
</svg>
