<svg width="56" height="56" viewBox="0 0 56 56" fill="none" xmlns="http://www.w3.org/2000/svg">
<path fill-rule="evenodd" clip-rule="evenodd" d="M25.4378 0.115898C17.9178 0.830941 10.9142 4.58954 6.19661 10.4421C-2.03045 20.6483 -2.06931 35.2433 6.10347 45.4556C7.76324 47.5296 10.2669 49.8336 12.4418 51.2885C18.5251 55.358 25.931 56.8668 33.2086 55.5193C40.6039 54.1499 47.0982 49.8297 51.379 43.4314C52.3178 42.0282 53.7293 39.2379 54.3321 37.5932C56.4401 31.8422 56.5545 25.2485 54.6493 19.3359C53.7739 16.6195 51.6109 12.4173 50.8893 12.0312C50.516 11.8315 49.9334 11.9005 49.6045 12.1832C49.3526 12.3999 49.2987 12.5326 49.3047 12.9218C49.3108 13.3063 49.432 13.5832 49.9443 14.3811C52.2327 17.9457 53.6233 22.5027 53.8006 27.0188C54.2768 39.1406 46.1375 50.0445 34.3964 53.0137C32.086 53.598 30.6841 53.7627 28.0098 53.7638C25.3562 53.7649 23.9895 53.6023 21.6018 53.0017C12.5418 50.7229 5.31556 43.5022 3.0061 34.4201C2.40765 32.0666 2.24161 30.6727 2.24161 28.0035C2.24161 25.3344 2.40765 23.9404 3.0061 21.587C5.6601 11.1501 14.5791 3.47775 25.4378 2.29057C27.8319 2.02873 31.1601 2.22973 33.6232 2.7847C36.4185 3.4145 39.6549 4.7692 41.9644 6.27599C43.2045 7.08502 43.6526 7.18207 44.151 6.74922C44.5241 6.42512 44.6319 5.78952 44.379 5.40382C44.0266 4.86614 41.4839 3.35422 39.2729 2.3676C35.0767 0.495248 30.0508 -0.322646 25.4378 0.115898ZM25.5473 5.31782C17.6285 6.29032 10.967 10.9773 7.53384 17.9919C5.93164 21.2655 5.2442 24.2817 5.24529 28.0346C5.24606 31.0473 5.70596 33.5717 6.73378 36.2047C9.76373 43.967 16.701 49.4544 24.9217 50.5916C26.5253 50.8133 29.4898 50.8137 31.098 50.5923C34.4955 50.1246 37.662 48.9379 40.4869 47.0738C46.1501 43.3367 49.8387 37.4022 50.6647 30.6986C50.7305 30.165 50.7844 28.9522 50.7844 28.0035C50.7844 24.3574 50.0883 21.2905 48.5368 18.1013C45.1218 11.0807 38.4722 6.31768 30.7489 5.35973C29.8929 5.25359 26.3059 5.22471 25.5473 5.31782ZM31.2386 7.64928C33.4678 8.01616 35.236 8.58568 37.2034 9.57033C42.4866 12.2143 46.3416 16.9137 47.9265 22.6421C48.8234 25.8839 48.8234 30.1232 47.9265 33.365C45.7228 41.3294 39.0858 47.209 30.9509 48.4032C29.4345 48.6259 26.5852 48.6259 25.0688 48.4032C16.0259 47.0758 8.93236 39.9842 7.60455 30.9438C7.38182 29.4278 7.38182 26.5793 7.60455 25.0633C8.92766 16.0554 15.9706 8.98691 25 7.60508C26.5478 7.36819 29.6647 7.39029 31.2386 7.64928ZM46.628 8.24233C45.9822 8.60012 45.8965 9.36178 46.4408 9.90591C46.9871 10.452 47.7669 10.3623 48.1017 9.71498C48.6124 8.72759 47.5922 7.70804 46.628 8.24233ZM27.4746 9.77417C27.0656 10.0008 26.9235 10.3736 26.9192 11.2302C26.9147 12.1439 27.0571 12.5302 27.4785 12.748C28.0451 13.0409 28.7308 12.8379 28.9735 12.3052C29.0454 12.1474 29.1043 11.6783 29.1043 11.2627C29.1043 10.3788 28.958 9.99279 28.5412 9.77734C28.1694 9.58521 27.8175 9.58411 27.4746 9.77417ZM18.9682 12.0223C18.637 12.162 18.269 12.6689 18.269 12.9855C18.269 13.3612 18.8959 14.5007 19.2806 14.8243C19.4559 14.9717 19.7209 15.0923 19.8698 15.0923C20.4767 15.0923 21.0052 14.575 21.0052 13.9809C21.0052 13.689 20.3988 12.5515 20.0868 12.2586C19.8031 11.9922 19.2943 11.8847 18.9682 12.0223ZM36.2573 12.0236C35.8413 12.1988 35.0145 13.506 35.0145 13.9886C35.0145 14.5751 35.5465 15.0923 36.1499 15.0923C36.5408 15.0923 37.0067 14.6518 37.4041 13.9063C37.8294 13.1088 37.8389 12.7853 37.4497 12.3583C37.1256 12.0027 36.6344 11.8648 36.2573 12.0236ZM27.4746 15.4639C26.9332 15.7638 26.9235 15.8481 26.9189 20.2349L26.9146 24.3381L26.4283 24.538C25.6792 24.846 25.0007 25.5117 24.5937 26.3384C24.2721 26.9914 24.2339 27.168 24.2339 28.0035C24.2339 28.8375 24.2723 29.0163 24.5907 29.6626C25.4376 31.3826 27.4031 32.2303 29.159 31.6332L29.8157 31.4099L31.7311 33.3014C32.9142 34.4699 33.751 35.2123 33.92 35.2434C34.5709 35.3632 35.181 34.9745 35.2371 34.4045C35.3003 33.7621 35.2198 33.6497 33.3253 31.7362L31.4172 29.8089L31.6406 29.1524C32.2414 27.3863 31.2859 25.2346 29.5914 24.538L29.1051 24.3381L29.1048 20.2674C29.1044 17.3452 29.0674 16.1158 28.9735 15.9099C28.7339 15.384 28.0083 15.1681 27.4746 15.4639ZM12.3357 18.5825C11.8824 18.9873 11.8379 19.6328 12.2341 20.0545C12.5537 20.3945 13.6811 21.0008 13.994 21.0008C14.3618 21.0008 14.8203 20.7179 14.9642 20.4021C15.2816 19.7057 14.9703 19.1775 13.9087 18.6119C13.1029 18.1825 12.7901 18.1767 12.3357 18.5825ZM42.1286 18.5966C41.4013 18.9919 40.9247 19.4876 40.9247 19.8486C40.9247 20.4676 41.4341 21.0008 42.0257 21.0008C42.3386 21.0008 43.466 20.3945 43.7856 20.0545C44.1818 19.6328 44.1373 18.9873 43.6839 18.5825C43.2323 18.179 42.8912 18.182 42.1286 18.5966ZM28.7788 26.5825C29.2644 26.8303 29.6516 27.4606 29.6516 28.0035C29.6516 28.8398 28.8424 29.6448 28.0017 29.6448C27.216 29.6448 26.3681 28.7971 26.3681 28.0116C26.3681 27.4781 26.7528 26.8332 27.2176 26.5879C27.7456 26.3092 28.2396 26.3076 28.7788 26.5825ZM10.1819 27.0621C9.66402 27.349 9.49142 27.9795 9.77861 28.5348C9.99411 28.9514 10.3802 29.0977 11.2644 29.0977C12.1485 29.0977 12.5346 28.9514 12.7501 28.5348C13.0406 27.9731 12.8636 27.3345 12.343 27.0653C11.9588 26.8667 10.5383 26.8646 10.1819 27.0621ZM43.6729 27.0621C43.155 27.349 42.9824 27.9795 43.2696 28.5348C43.4851 28.9514 43.8712 29.0977 44.7553 29.0977C45.6394 29.0977 46.0256 28.9514 46.2411 28.5348C46.5316 27.9731 46.3546 27.3345 45.8339 27.0653C45.4498 26.8667 44.0293 26.8646 43.6729 27.0621ZM13.125 35.3407C12.2342 35.8298 11.9807 36.1218 11.9807 36.6587C11.9807 37.0268 12.0446 37.1646 12.3357 37.4246C12.7901 37.8304 13.1029 37.8246 13.9087 37.3952C14.6478 37.0014 15.095 36.5326 15.095 36.1519C15.095 35.5316 14.5795 35.0035 13.9787 35.0082C13.8402 35.0093 13.4561 35.159 13.125 35.3407ZM41.4839 35.159C40.9027 35.481 40.7653 36.2225 41.1927 36.7303C41.5215 37.1209 42.6584 37.7417 43.0451 37.7417C43.2038 37.7417 43.4857 37.6017 43.6839 37.4246C43.9735 37.166 44.039 37.026 44.039 36.6649C44.039 36.1177 43.7748 35.8123 42.8972 35.3447C42.2074 34.9771 41.8879 34.9351 41.4839 35.159ZM19.2806 41.1828C18.89 41.5114 18.269 42.6481 18.269 43.0346C18.269 43.1933 18.409 43.4752 18.5862 43.6733C18.9911 44.1265 19.6368 44.1711 20.0586 43.775C20.3934 43.4605 21.0052 42.3302 21.0052 42.0261C21.0052 41.4321 20.4767 40.9148 19.8698 40.9148C19.7209 40.9148 19.4559 41.0354 19.2806 41.1828ZM35.5738 41.0675C35.2617 41.2404 35.0237 41.6373 35.0183 41.9936C35.0134 42.3212 35.6067 43.4421 35.9611 43.775C36.3829 44.1711 37.0285 44.1265 37.4335 43.6733C37.8394 43.2191 37.8336 42.9064 37.4041 42.1008C36.834 41.0313 36.2421 40.6972 35.5738 41.0675ZM27.4746 43.2559C27.0656 43.4825 26.9235 43.8553 26.9192 44.7119C26.9147 45.6256 27.0571 46.0119 27.4785 46.2297C28.0451 46.5227 28.7308 46.3196 28.9735 45.7869C29.0454 45.6292 29.1043 45.16 29.1043 44.7444C29.1043 43.8605 28.958 43.4745 28.5412 43.2591C28.1694 43.0669 27.8175 43.0658 27.4746 43.2559Z" fill="#E49B00"/>
</svg>
