<svg width="71" height="71" viewBox="0 0 71 71" fill="none" xmlns="http://www.w3.org/2000/svg">
<path fill-rule="evenodd" clip-rule="evenodd" d="M28.9875 0.176162C27.2682 0.65568 25.8662 1.79636 25.1299 3.31463C24.7653 4.06647 24.5016 5.21451 23.5105 10.3673C22.8595 13.7524 22.3267 16.5614 22.3267 16.6096C22.3267 16.658 20.9374 15.3179 19.2392 13.6318C17.3769 11.7828 15.9038 10.436 15.5272 10.238C14.6569 9.78042 12.8121 9.76514 11.9887 10.2087C11.3305 10.5634 10.5244 11.3817 10.1665 12.0589C9.76507 12.8182 9.80545 14.7068 10.2406 15.5306C10.4374 15.9029 11.8076 17.4048 13.6294 19.2454C15.3117 20.9447 16.6495 22.3352 16.6025 22.3352C16.5553 22.3352 15.0609 22.6152 13.2814 22.9574C10.6007 23.4729 10.0043 23.6303 9.8031 23.8755C9.27343 24.5208 9.69347 25.5245 10.4969 25.5336C10.7067 25.5358 12.5816 25.2105 14.6631 24.8106L18.4475 24.0835L19.624 25.2546L20.8003 26.4258V28.8791C20.8003 32.485 21.102 35.0906 21.9217 38.5633C22.1444 39.5071 22.3267 40.2993 22.3267 40.3239C22.3267 40.4932 20.4788 40.5328 18.7578 40.4002C12.6932 39.933 8.12403 38.0289 4.35903 34.3999C2.24215 32.3594 1.74384 31.1563 2.2681 29.3514C2.45585 28.7052 2.66206 28.3839 3.29108 27.7566C4.10148 26.9485 4.73758 26.6684 6.32506 26.4205C7.4585 26.2436 7.87175 25.1368 7.03638 24.5155C6.67128 24.244 6.63701 24.243 5.44057 24.4737C2.60794 25.0199 0.846025 26.5577 0.174259 29.0704C-0.209429 30.5058 0.0506184 32.2183 0.85449 33.5511C1.29063 34.2742 3.42125 36.493 4.49529 37.3427C6.34768 38.8081 9.36043 40.4356 11.503 41.1281C14.4974 42.096 17.0718 42.4947 20.497 42.5213L23.0383 42.5408L23.6363 44.0684C26.6111 51.6683 31.4471 57.9721 38.0767 62.8911C39.8648 64.2179 41.7912 65.385 42.1929 65.385C42.6626 65.385 43.1416 64.8432 43.1416 64.312C43.1416 63.8039 42.9479 63.6303 40.8989 62.3034C33.1963 57.3152 27.0298 48.9844 24.4813 40.1238C23.4897 36.6759 22.8824 32.8256 22.8819 29.9855L22.8818 28.5398L25.0674 30.6872C27.6229 33.1978 28.1223 33.5071 29.6119 33.5012C31.1491 33.4953 32.3774 32.7216 33.1195 31.2924C33.4053 30.7419 33.4809 30.3965 33.4841 29.6259C33.4903 28.1353 33.1814 27.6356 30.6724 25.0779L28.5267 22.8907L29.9712 22.8931C32.6487 22.8975 35.4354 23.2925 38.7705 24.1397C44.1303 25.5016 49.5351 28.2054 53.9469 31.7317C55.7212 33.1499 58.6376 36.081 60.0732 37.8887C66.1359 45.5233 69.2459 54.8765 68.8926 64.4129C68.7962 67.016 68.665 68.3572 68.4896 68.5327C68.1455 68.877 62.6743 69.0945 60.0121 68.8698C56.0381 68.5341 52.2318 67.6781 48.7923 66.3465C47.7834 65.9559 46.6914 65.533 46.366 65.4068C45.8318 65.1997 45.7375 65.198 45.3964 65.3897C44.9053 65.6655 44.7032 66.2272 44.922 66.708C45.1032 67.1058 45.88 67.4994 48.2066 68.3716C53.1238 70.215 57.4091 70.9843 62.8464 70.9996C67.4569 71.0127 70.0249 70.6954 70.3585 70.0717C70.8488 69.1549 71.1704 63.194 70.9037 59.969C70.2819 52.4506 67.9977 45.7908 63.9642 39.737C62.2182 37.1164 61.1214 35.7561 58.9676 33.5401C54.6392 29.0863 49.2193 25.5305 43.6141 23.4672L42.5184 23.0639L42.4982 20.5124C42.46 15.75 41.6116 11.9926 39.7309 8.25868C38.2386 5.29602 35.3953 1.92787 33.3972 0.756222C32.179 0.0420135 30.3371 -0.200315 28.9875 0.176162ZM32.3087 2.55473C33.2532 3.0691 35.6363 5.55168 36.6357 7.06217C39.1198 10.8167 40.3671 15.1277 40.4159 20.1271C40.4267 21.2511 40.398 22.2091 40.3519 22.2559C40.3058 22.3027 39.494 22.1517 38.5479 21.9202C35.54 21.1844 33.4168 20.9257 29.7309 20.8463L26.3808 20.7741L25.2282 19.6145L24.0755 18.4549L25.3665 11.7504C26.0766 8.06301 26.7845 4.74721 26.9395 4.38226C27.2948 3.54501 28.3858 2.5457 29.2456 2.26949C30.2017 1.96259 31.4319 2.07702 32.3087 2.55473ZM22.8978 20.3375C28.7108 26.154 31.2538 28.7896 31.358 29.1056C31.7908 30.4171 30.463 31.7816 29.1432 31.3817C28.7487 31.2622 26.8533 29.44 20.3345 22.9134C12.1661 14.7354 12.0271 14.587 11.9584 13.9761C11.8194 12.7425 12.6794 11.8564 13.9121 11.9628L14.5865 12.0211L22.8978 20.3375ZM33.4585 33.3407C29.9369 36.8494 29.4038 37.4582 29.4038 37.9713C29.4038 38.3204 32.0936 40.992 32.872 41.416C35.0018 42.576 37.5403 41.9905 39.6844 39.8448C41.7791 37.7486 42.3768 35.3571 41.3256 33.2771C41.1599 32.9492 40.3648 32.0092 39.5586 31.1882C38.2462 29.8519 38.0416 29.6954 37.605 29.6954C37.1526 29.6954 36.8528 29.9589 33.4585 33.3407ZM38.5933 33.1468C39.8729 34.5043 40.0515 35.3835 39.354 36.8933C38.9469 37.7747 37.8596 38.8926 36.9392 39.3763C35.2878 40.2439 34.295 40.1064 32.9204 38.8195C32.4311 38.3615 32.0485 37.9398 32.0703 37.8823C32.1407 37.6961 37.4787 32.195 37.5892 32.195C37.648 32.195 38.0998 32.6233 38.5933 33.1468ZM40.7507 40.9119C36.0275 45.6385 36.2265 45.1078 38.3889 47.2116C40.0577 48.8351 40.7624 49.2456 42.0942 49.3702C44.558 49.6004 47.3388 47.8219 48.6351 45.1866C49.1452 44.1495 49.178 44.007 49.178 42.8258C49.178 41.0773 48.8435 40.4481 46.8908 38.5224C45.6952 37.3433 45.325 37.0555 45.0037 37.0555C44.6656 37.0555 44.0118 37.6483 40.7507 40.9119ZM46.9763 41.8759C47.4321 43.0705 46.9449 44.5131 45.6471 45.8119C44.7358 46.7239 43.7791 47.2212 42.776 47.3045C41.825 47.3834 41.0959 47.0333 40.091 46.0149L39.3315 45.2453L42.1708 42.4014L45.01 39.5576L45.8802 40.4207C46.3989 40.9351 46.8416 41.5229 46.9763 41.8759ZM50.7738 46.3339C48.3798 46.9602 46.6285 48.875 46.1866 51.3494C45.7137 53.9978 47.1653 56.7793 49.6568 57.9983C50.6815 58.4996 50.7392 58.5108 52.3002 58.5074C53.6207 58.5045 54.0277 58.4508 54.6592 58.1959C56.1954 57.576 57.5411 56.2293 58.1606 54.692C58.4152 54.06 58.4689 53.6527 58.4718 52.3312C58.4751 50.8174 58.452 50.685 58.0292 49.7915C57.1767 47.9907 55.4727 46.6294 53.577 46.2351C52.5806 46.0277 51.8453 46.0537 50.7738 46.3339ZM54.1764 48.6464C55.0838 49.0908 55.9482 50.0348 56.2446 50.9055C56.5742 51.8733 56.5278 53.2284 56.1364 54.0671C55.6635 55.0807 55.1711 55.5946 54.2152 56.0726C52.0822 57.1393 49.4925 56.2011 48.5076 54.0047C48.1011 53.0984 48.1104 51.6529 48.5287 50.7342C49.0606 49.5659 50.1835 48.6082 51.3982 48.2873C52.1309 48.0936 53.376 48.2546 54.1764 48.6464ZM60.6593 54.7385C59.4412 55.1805 58.6258 56.336 58.6342 57.6082C58.6381 58.223 58.7956 58.7378 59.4412 60.2468C60.3557 62.3843 60.4902 62.9956 60.1577 63.5035C59.7503 64.1255 58.6023 64.2001 57.7756 63.658C56.9658 63.1271 56.1856 61.543 56.1856 60.4298C56.1856 59.2073 54.4389 59.0376 54.1762 60.2347C54.0518 60.8014 54.3421 62.2633 54.7509 63.128C56.1546 66.0976 59.7603 67.0938 61.5872 65.0165C62.2356 64.2793 62.5067 63.3327 62.3684 62.289C62.3165 61.8967 61.9034 60.7088 61.4504 59.6492C60.5777 57.6074 60.5296 57.2334 61.0892 56.8413C61.7432 56.3828 62.7559 56.7274 63.4567 57.6467C63.7999 58.0971 64.1021 58.8475 64.2955 59.73C64.3516 59.9861 64.5348 60.1897 64.8399 60.3352C65.2596 60.5355 65.3371 60.5353 65.7284 60.3329C65.9642 60.2108 66.199 59.9792 66.2501 59.8179C66.4028 59.3363 66.194 58.4001 65.7069 57.3831C64.6762 55.2306 62.4774 54.0786 60.6593 54.7385Z" fill="#E49B00"/>
</svg>
