<svg width="59" height="58" viewBox="0 0 59 58" fill="none" xmlns="http://www.w3.org/2000/svg">
<path d="M58.0072 7.98246C58.0072 3.38019 54.6441 0.00195312 50.0605 0.00195312C36.0271 0.00195312 21.9932 0.00195312 7.95867 0.00195312C3.38151 0.00195312 0.0103912 3.3931 0.0103912 7.97923C0.0103912 21.9928 0.0103912 36.0063 0.0103912 50.0198C0.0103912 54.6431 3.37828 58.0003 8.01841 58.0003H49.9959C54.6667 58.0003 58.0056 54.6479 58.0056 49.9617C58.0066 35.9686 58.0072 21.9755 58.0072 7.98246ZM54.1323 49.9423C54.1323 52.5164 52.5178 54.1409 49.9636 54.1409H8.03617C5.47554 54.1409 3.86748 52.526 3.86748 49.9423C3.86748 38.6643 3.86317 27.3868 3.85456 16.1099C3.85456 15.5867 3.96596 15.4527 4.50037 15.4543C12.6806 15.4737 20.8571 15.4785 29.0298 15.4688C37.1842 15.4688 45.3396 15.464 53.4962 15.4543C54.0338 15.4543 54.142 15.5867 54.142 16.1099C54.1269 27.3868 54.1237 38.6643 54.1323 49.9423ZM53.4752 11.6158C46.1049 11.5932 38.7346 11.6013 31.3644 11.6013H29.0072C20.8269 11.6013 12.651 11.6056 4.47938 11.6142C3.98211 11.6142 3.83357 11.5076 3.85456 10.9974C3.89815 9.91057 3.85456 8.82218 3.87071 7.73539C3.86876 7.22555 3.96812 6.7204 4.16303 6.24929C4.35794 5.77818 4.6445 5.35051 5.00607 4.99112C5.36765 4.63173 5.79702 4.34779 6.26924 4.15579C6.74147 3.9638 7.24713 3.86757 7.75686 3.87271C21.914 3.8641 36.0712 3.8641 50.2284 3.87271C52.4371 3.87271 54.1033 5.56829 54.1307 7.78222C54.1404 8.83025 54.1049 9.88151 54.1452 10.9247C54.1662 11.4511 54.0467 11.6175 53.4752 11.6158Z" fill="white"/>
<path d="M17.4336 44.4712C17.174 44.4725 16.9167 44.4225 16.6765 44.3242C16.4363 44.2258 16.2179 44.0809 16.0338 43.8979C13.4592 41.3239 10.8856 38.7477 8.31315 36.1693C7.50589 35.3619 7.52043 34.2315 8.32607 33.4241C10.8781 30.85 13.4387 28.2868 16.008 25.7343C16.8152 24.9268 17.989 24.9268 18.7623 25.7052C19.5357 26.4835 19.5389 27.643 18.7333 28.4601C16.7668 30.4485 14.789 32.4245 12.7999 34.3881C12.4479 34.7337 12.4931 34.9081 12.8161 35.2262C14.8073 37.1899 16.7856 39.1664 18.751 41.1559C19.041 41.4261 19.2373 41.7818 19.3113 42.1712C19.3854 42.5607 19.3333 42.9636 19.1627 43.3214C19.0173 43.6603 18.7763 43.9495 18.4692 44.1537C18.1621 44.3578 17.8023 44.4682 17.4336 44.4712Z" fill="#E49B00"/>
<path d="M40.5697 25.1352C40.8299 25.1337 41.0878 25.1837 41.3286 25.2824C41.5694 25.3811 41.7883 25.5264 41.9727 25.71C44.5462 28.2819 47.1192 30.857 49.6917 33.4354C50.499 34.2428 50.478 35.3732 49.6691 36.1806C47.1182 38.7514 44.557 41.3126 41.9856 43.864C41.8095 44.0521 41.597 44.2024 41.3611 44.3058C41.1251 44.4092 40.8706 44.4636 40.6129 44.4655C40.3553 44.4675 40.1 44.4171 39.8624 44.3173C39.6249 44.2175 39.4102 44.0704 39.2312 43.885C38.4643 43.1099 38.466 41.9472 39.2716 41.1301C41.209 39.1713 43.1464 37.2125 45.1275 35.2908C45.5666 34.8629 45.4988 34.6643 45.1016 34.2751C43.1465 32.3615 41.2268 30.4173 39.2894 28.4779C38.6436 27.8319 38.4821 27.0245 38.8405 26.2672C38.9876 25.9309 39.2295 25.6447 39.5366 25.4437C39.8437 25.2426 40.2027 25.1354 40.5697 25.1352Z" fill="#E49B00"/>
<path d="M34.7994 27.0987C34.7844 27.4615 34.6814 27.8151 34.4991 28.129C31.9804 33.1608 29.4634 38.1916 26.948 43.2213C26.4636 44.1902 25.5934 44.6423 24.6877 44.413C24.2545 44.3097 23.8698 44.061 23.5977 43.7084C23.3257 43.3557 23.1827 42.9205 23.1926 42.4752C23.2153 42.1347 23.314 41.8036 23.4816 41.5063C26.0046 36.4562 28.5297 31.4071 31.0569 26.3591C31.5187 25.4338 32.3954 24.9785 33.2672 25.1852C33.704 25.2786 34.0951 25.5201 34.3743 25.8688C34.6535 26.2175 34.8037 26.652 34.7994 27.0987Z" fill="#E49B00"/>
<path d="M38.6678 9.66659C38.1612 9.66298 37.6758 9.46251 37.3143 9.10753C36.9527 8.75255 36.7433 8.27088 36.7304 7.76432C36.7271 7.50781 36.7749 7.25322 36.8708 7.01531C36.9668 6.7774 37.109 6.56091 37.2892 6.3784C37.4694 6.19588 37.6841 6.05097 37.9207 5.95208C38.1574 5.85319 38.4113 5.80227 38.6678 5.80229C38.9237 5.80377 39.1768 5.85565 39.4127 5.95498C39.6485 6.0543 39.8625 6.19911 40.0424 6.38115C40.2223 6.5632 40.3646 6.7789 40.4612 7.01594C40.5578 7.25299 40.6067 7.50674 40.6052 7.7627C40.5938 8.26994 40.385 8.75272 40.0232 9.10831C39.6613 9.46389 39.175 9.66419 38.6678 9.66659Z" fill="#E49B00"/>
<path d="M44.459 5.80229C44.9645 5.80459 45.4493 6.00328 45.8111 6.35641C46.1729 6.70954 46.3833 7.18947 46.398 7.69488C46.402 7.95097 46.3553 8.20534 46.2605 8.44325C46.1656 8.68117 46.0246 8.89792 45.8455 9.08097C45.6664 9.26403 45.4527 9.40975 45.217 9.50971C44.9812 9.60968 44.7279 9.6619 44.4719 9.66336C43.9661 9.65979 43.4814 9.45999 43.12 9.10604C42.7586 8.75209 42.5487 8.27164 42.5345 7.76593C42.531 7.51037 42.5782 7.25666 42.6732 7.01941C42.7683 6.78216 42.9093 6.56606 43.0882 6.38354C43.267 6.20103 43.4802 6.05571 43.7155 5.95595C43.9508 5.85619 44.2034 5.80397 44.459 5.80229Z" fill="#E49B00"/>
<path d="M50.2568 9.66664C49.751 9.65791 49.2684 9.45294 48.9108 9.09499C48.5532 8.73705 48.3487 8.25414 48.3404 7.74821C48.3404 7.23428 48.5445 6.74139 48.9079 6.37798C49.2712 6.01457 49.764 5.81041 50.2778 5.81041C50.7923 5.81934 51.2824 6.03123 51.6413 6.39994C52.0003 6.76864 52.199 7.26429 52.1943 7.7789C52.1784 8.28317 51.9676 8.76165 51.6063 9.1137C51.245 9.46576 50.7613 9.66396 50.2568 9.66664Z" fill="#E49B00"/>
</svg>
