<svg width="57" height="61" viewBox="0 0 57 61" fill="none" xmlns="http://www.w3.org/2000/svg">
<path d="M12.7 27.1902C14.88 23.0702 17.0533 18.9469 19.2199 14.8202C20.7999 11.8336 22.3833 8.83356 23.9699 5.82023C24.8299 4.19023 26.24 3.98023 27.55 5.29023C35.8366 13.6102 44.14 21.9236 52.46 30.2302C52.7758 30.4411 53.025 30.7376 53.1785 31.085C53.332 31.4323 53.3834 31.8162 53.3268 32.1917C53.2701 32.5672 53.1078 32.9188 52.8586 33.2055C52.6095 33.4921 52.2839 33.7019 51.92 33.8102L30.87 44.9602L30.64 45.0602C30.4756 45.0386 30.3237 44.9609 30.21 44.8402L27.9799 42.6002C27.82 42.4402 27.6499 42.2702 27.7599 42.0002C28.057 41.7453 28.3952 41.5424 28.7599 41.4002C34.0999 38.6102 39.41 35.7702 44.7599 32.9602C45.5099 32.5602 46.28 32.1902 47.02 31.7702C47.76 31.3502 47.8 31.3102 47.18 30.6902L41.4 24.9102L27.2199 10.8002L26.9799 10.5402C26.49 10.0602 26.48 10.0702 26.15 10.6402C25.57 11.6402 25.0499 12.6902 24.5099 13.7202C22.8099 16.9602 21.08 20.1802 19.39 23.4202C18.29 25.5202 17.1599 27.6002 16.0599 29.7002C15.9989 29.8533 15.8947 29.9853 15.7599 30.0802C15.6781 30.0942 15.594 30.0859 15.5165 30.0559C15.439 30.026 15.3711 29.9756 15.3199 29.9102C14.4799 29.0902 13.64 28.2602 12.83 27.4102C12.7667 27.3506 12.7216 27.2744 12.7 27.1902Z" fill="white"/>
<path d="M13.12 33.3402C12.6596 32.7184 12.1295 32.1513 11.5399 31.6502C11.1699 31.2402 10.75 30.8702 10.36 30.4902C11.3279 29.5287 12.1198 28.4051 12.7 27.1702L15.7 30.0502C16 30.0502 16.1499 30.3202 16.3399 30.5102C20.0799 34.2402 23.8099 37.9902 27.5599 41.7202C27.6599 41.8202 27.7999 41.8902 27.7899 42.0602C28.2533 42.6918 28.7867 43.2688 29.3799 43.7802C29.7899 44.2202 30.2399 44.6202 30.6599 45.0402C30.2834 45.2833 29.8927 45.5037 29.49 45.7002C28.6559 46.1046 27.9268 46.6968 27.36 47.4302L24.4699 44.6002C24.2296 44.5348 24.0183 44.3904 23.87 44.1902L13.37 33.7002C13.25 33.6202 13.12 33.5302 13.12 33.3402Z" fill="#E49B00"/>
<path d="M50.87 8.96023C50.8715 9.22821 50.8192 9.49378 50.7161 9.74115C50.6131 9.98852 50.4614 10.2126 50.27 10.4002C48.9366 11.7336 47.6033 13.0502 46.27 14.3502C46.0939 14.5703 45.8732 14.7507 45.6225 14.8796C45.3718 15.0084 45.0968 15.0828 44.8153 15.0979C44.5338 15.113 44.2524 15.0684 43.9893 14.967C43.7263 14.8657 43.4877 14.7099 43.2891 14.5099C43.0905 14.3099 42.9364 14.0702 42.8369 13.8064C42.7375 13.5427 42.6949 13.2609 42.712 12.9795C42.7291 12.6982 42.8054 12.4236 42.9361 12.1739C43.0667 11.9241 43.2486 11.7048 43.47 11.5302C44.8033 10.1969 46.1366 8.86356 47.47 7.53023C47.7489 7.25669 48.1018 7.07083 48.4852 6.9956C48.8685 6.92037 49.2655 6.95906 49.6272 7.1069C49.9888 7.25474 50.2992 7.50525 50.5201 7.8275C50.7409 8.14975 50.8626 8.52963 50.87 8.92023V8.96023Z" fill="#E49B00"/>
<path d="M38.9 4.99023C38.9 5.65023 38.9 6.31023 38.9 6.99023C38.9 7.52067 38.6893 8.02937 38.3142 8.40445C37.9391 8.77952 37.4304 8.99023 36.9 8.99023C36.3695 8.99023 35.8608 8.77952 35.4857 8.40445C35.1107 8.02937 34.9 7.52067 34.9 6.99023C34.9 5.66023 34.9 4.34023 34.9 2.99023C34.9 2.4598 35.1107 1.95109 35.4857 1.57602C35.8608 1.20095 36.3695 0.990234 36.9 0.990234C37.4304 0.990234 37.9391 1.20095 38.3142 1.57602C38.6893 1.95109 38.9 2.4598 38.9 2.99023C38.91 3.66023 38.9 4.34023 38.9 4.99023Z" fill="#E49B00"/>
<path d="M52.9 18.9602C53.54 18.9602 54.18 18.9602 54.83 18.9602C55.3604 18.9602 55.8691 19.1709 56.2442 19.546C56.6192 19.9211 56.83 20.4298 56.83 20.9602C56.83 21.4907 56.6192 21.9994 56.2442 22.3744C55.8691 22.7495 55.3604 22.9602 54.83 22.9602C53.52 22.9602 52.2199 22.9602 50.9099 22.9602C50.3795 22.9602 49.8708 22.7495 49.4957 22.3744C49.1207 21.9994 48.9099 21.4907 48.9099 20.9602C48.9099 20.4298 49.1207 19.9211 49.4957 19.546C49.8708 19.1709 50.3795 18.9602 50.9099 18.9602C51.5699 18.9502 52.24 18.9602 52.9 18.9602Z" fill="#E49B00"/>
<path d="M27.3399 47.4402C27.3255 47.3597 27.2911 47.2841 27.24 47.2202C26.45 46.3602 25.6 45.5502 24.77 44.7302C24.6759 44.6386 24.5512 44.5851 24.42 44.5802L19.05 49.9502C18.6671 50.3844 18.1962 50.7321 17.6686 50.9702C17.141 51.2084 16.5688 51.3316 15.99 51.3316C15.4111 51.3316 14.8389 51.2084 14.3113 50.9702C13.7837 50.7321 13.3128 50.3844 12.93 49.9502C11.1833 48.2102 9.43661 46.4636 7.68995 44.7102C7.26432 44.3349 6.92344 43.8732 6.68995 43.356C6.45646 42.8387 6.3357 42.2777 6.3357 41.7102C6.3357 41.1427 6.45646 40.5817 6.68995 40.0645C6.92344 39.5472 7.26432 39.0856 7.68995 38.7102L13.12 33.3402C13.1279 33.2364 13.109 33.1322 13.0653 33.0377C13.0215 32.9432 12.9543 32.8614 12.87 32.8002C12.18 32.0902 11.47 31.3902 10.76 30.6902C10.7098 30.6256 10.6464 30.5725 10.5739 30.5345C10.5014 30.4965 10.4216 30.4746 10.3399 30.4702C8.49994 32.2969 6.6633 34.1302 4.82996 35.9702C3.84657 36.9052 3.12374 38.0803 2.7327 39.3796C2.34167 40.679 2.29591 42.0578 2.59995 43.3802C2.63951 43.5364 2.64294 43.6995 2.61002 43.8572C2.5771 44.0149 2.50868 44.163 2.40995 44.2902C1.78664 45.1632 1.3526 46.1567 1.13563 47.2071C0.918648 48.2576 0.923537 49.3418 1.14997 50.3902C1.40279 51.6821 1.97443 52.8904 2.81296 53.9052C3.6515 54.92 4.73036 55.7091 5.95145 56.201C7.17255 56.6928 8.49716 56.8716 9.80497 56.7213C11.1128 56.571 12.3623 56.0963 13.4399 55.3402C13.5651 55.2339 13.7145 55.1601 13.8749 55.1252C14.0354 55.0903 14.202 55.0955 14.36 55.1402C16.107 55.5812 17.956 55.3492 19.54 54.4902C19.612 54.4385 19.6936 54.4015 19.78 54.3815C19.8664 54.3615 19.956 54.3589 20.0434 54.3738C20.1308 54.3887 20.2145 54.4208 20.2894 54.4682C20.3643 54.5157 20.4291 54.5775 20.48 54.6502C22 56.2102 23.55 57.7502 25.1 59.2802C25.7195 59.9565 26.5181 60.4432 27.4031 60.6839C28.2881 60.9246 29.2232 60.9095 30.1 60.6402C30.9261 60.3993 31.6761 59.9492 32.2773 59.3335C32.8786 58.7178 33.3107 57.9573 33.532 57.1256C33.7532 56.2939 33.7561 55.4193 33.5402 54.5862C33.3244 53.7531 32.8972 52.9898 32.3 52.3702C30.66 50.7102 28.9799 49.0902 27.3399 47.4402ZM6.33994 51.8002C5.79662 51.3339 5.39181 50.7273 5.16962 50.0466C4.94743 49.3659 4.91642 48.6373 5.07996 47.9402L9.82996 52.6802C9.22056 52.829 8.58406 52.8265 7.97581 52.6732C7.36755 52.5198 6.80596 52.2201 6.33994 51.8002ZM29.1599 56.8002C28.9626 56.8999 28.7379 56.9314 28.5208 56.8898C28.3036 56.8482 28.1064 56.7358 27.96 56.5702C27.25 55.8702 26.55 55.1602 25.85 54.4602C25.15 53.7602 24.24 52.8302 23.42 52.0402C23.16 51.7902 23.08 51.6302 23.42 51.3602C23.76 51.0902 24.1299 50.3602 24.4999 50.3602C24.8699 50.3602 25.22 50.9602 25.57 51.3002C26.81 52.5302 28.04 53.7702 29.27 55.0002C29.3932 55.0937 29.4965 55.2108 29.5737 55.3448C29.651 55.4787 29.7007 55.6268 29.7199 55.7802C29.7341 55.9793 29.6883 56.1781 29.5885 56.351C29.4887 56.5239 29.3394 56.6629 29.1599 56.7502V56.8002Z" fill="white"/>
</svg>
