<svg width="49" height="72" viewBox="0 0 49 72" fill="none" xmlns="http://www.w3.org/2000/svg">
<path fill-rule="evenodd" clip-rule="evenodd" d="M21.805 0.13614C19.1245 0.431171 16.2823 1.24611 13.7966 2.43247L12.2194 3.18528L10.8142 2.50431C7.81868 1.05278 4.06957 0.131703 1.13313 0.125946L0 0.123787L0.00183743 12.7466C0.00293993 19.7461 0.0576972 26.1707 0.124827 27.1683C0.76244 36.6423 4.0964 45.441 9.88342 52.9223C12.4357 56.2219 15.9735 59.6877 19.2938 62.1413C27.4451 68.1648 36.9088 71.4963 47.0706 71.9196L49 72V36.0618V0.123787L47.8669 0.125946C44.9276 0.131703 41.1813 1.05266 38.1787 2.50778L36.7665 3.19211L35.3265 2.48524C31.3046 0.510925 26.2995 -0.358577 21.805 0.13614ZM15.8678 8.82289C17.8764 9.16578 19.667 10.0512 21.1603 11.44C22.7121 12.8832 23.6088 14.3234 24.1205 16.1946C24.2557 16.6893 24.4184 17.283 24.482 17.5138L24.5975 17.9336L24.61 17.5714C24.6169 17.3722 24.7341 16.8149 24.8706 16.333C25.7016 13.3967 27.6867 11.0541 30.4383 9.76256C31.9977 9.03049 32.7517 8.85743 34.6675 8.79135C36.0602 8.74338 36.4914 8.77408 37.3994 8.98576C40.5518 9.72046 43.1354 11.7778 44.5332 14.6662C45.24 16.1267 45.4797 17.2278 45.4797 19.013C45.4797 20.2299 45.422 20.7827 45.2167 21.5315C44.1657 25.3648 41.0464 28.3061 37.2145 29.0771C35.8716 29.3474 33.904 29.324 32.5909 29.0222C32.0048 28.8874 31.0333 28.5396 30.4321 28.2493L29.3388 27.7213L26.911 30.0919L24.4833 32.4623L22.0723 30.0785L19.6613 27.6945L18.4975 28.228C16.4151 29.1828 14.4045 29.4645 12.2735 29.0999C9.9078 28.6953 8.09149 27.7226 6.34342 25.9242C4.47995 24.0072 3.55422 21.6933 3.55422 18.953C3.55422 17.1606 3.8514 15.9234 4.67288 14.296C5.18273 13.2861 5.49155 12.8582 6.34342 11.9819C8.94899 9.3013 12.2524 8.20561 15.8678 8.82289ZM12.5206 12.2918C9.97101 12.8604 7.94192 14.7783 7.2874 17.2384C7.05171 18.1244 7.05404 19.7904 7.29218 20.6858C8.21179 24.1421 11.864 26.3655 15.4082 25.6266C16.809 25.3346 17.809 24.7938 18.8692 23.7551C20.4244 22.2311 21.0072 20.7856 20.9259 18.6532C20.9008 17.9936 20.837 17.3864 20.7841 17.304C20.717 17.1991 20.5689 17.307 20.2915 17.6629C20.0415 17.9839 19.6104 18.3161 19.1243 18.5624C18.4792 18.8893 18.2205 18.9528 17.5375 18.9518C15.531 18.9489 14.0378 17.4891 14.0422 15.535C14.0446 14.4572 14.3749 13.7615 15.2603 12.9693C15.8683 12.4252 15.8963 12.3769 15.6448 12.3063C15.0272 12.1328 13.2703 12.1246 12.5206 12.2918ZM33.5344 12.3227C33.0956 12.3879 33.1105 12.4776 33.6162 12.8147C34.4491 13.37 35.0203 14.4796 35.0296 15.5604C35.048 17.6951 32.9507 19.3884 30.8237 18.956C29.9994 18.7885 29.1129 18.2273 28.6943 17.6081C28.4084 17.185 28.3643 17.1603 28.2454 17.3564C28.1721 17.4776 28.1138 18.184 28.1138 18.953C28.1138 20.6309 28.382 21.517 29.2947 22.8528C30.5807 24.7354 32.6436 25.7909 35.0301 25.7877C36.8588 25.7852 38.4254 25.1867 39.7285 23.9929C42.6862 21.2828 42.6952 16.7488 39.7479 14.0518C38.3706 12.7913 36.8561 12.2233 34.9561 12.2548C34.3594 12.2647 33.7196 12.2953 33.5344 12.3227Z" fill="white"/>
</svg>
