<svg width="61" height="71" viewBox="0 0 61 71" fill="none" xmlns="http://www.w3.org/2000/svg">
<path fill-rule="evenodd" clip-rule="evenodd" d="M48.9222 0.975524C47.4005 1.77876 46.5359 2.56985 45.699 3.92529L44.5558 5.77748L44.4541 34.6044C44.3882 53.2486 44.4883 63.9368 44.7374 64.8635C45.9459 69.3593 50.5831 71.8792 55.3045 70.6058C57.5114 70.0107 59.9963 67.509 60.614 65.2607C60.9682 63.9706 61.0539 56.5991 60.9705 34.4829L60.8613 5.40188L59.8151 3.81895C58.2569 1.46088 56.2385 0.281663 53.3835 0.0613901C51.2896 -0.100397 50.7511 0.0101194 48.9222 0.975524ZM28.017 27.4174C25.8643 28.2222 24.3589 29.4747 23.2274 31.4025L22.1831 33.1817V48.9427C22.1831 64.3667 22.2005 64.7359 23.0014 66.2227C26.4335 72.5924 34.6174 72.5924 38.0495 66.2227C38.8503 64.7359 38.8678 64.3667 38.8678 48.9427C38.8678 34.2839 38.8181 33.0887 38.1598 31.8525C37.7704 31.1214 37.0878 30.1222 36.643 29.6319C34.7015 27.4919 30.6206 26.4444 28.017 27.4174ZM4.73997 54.9592C1.7189 56.4008 0 59.1979 0 62.6725C0 68.8778 6.25601 72.7314 11.9891 70.0578C17.8451 67.3268 18.3217 59.1421 12.8366 55.5064C10.759 54.1294 7.01023 53.876 4.73997 54.9592Z" fill="white"/>
</svg>
