<svg width="68" height="71" viewBox="0 0 68 71" fill="none" xmlns="http://www.w3.org/2000/svg">
<path fill-rule="evenodd" clip-rule="evenodd" d="M48.4956 0.347283C48.4235 0.538365 44.9361 9.94988 40.7459 21.2619C36.5557 32.574 33.0955 41.7977 33.0563 41.7591C33.0172 41.7204 31.283 36.4588 29.2026 30.0666L25.4199 18.4446L20.7903 18.4037C17.9596 18.3787 16.1607 18.4194 16.1607 18.5086C16.1607 18.5887 18.0291 23.3303 20.3126 29.0452C28.7185 50.0822 28.4946 49.456 28.4946 51.9306C28.4946 53.9341 28.1137 55.482 27.1554 57.3728C25.6753 60.293 23.2137 62.2088 19.8086 63.0903L18.7368 63.3678L18.6951 67.1839L18.6533 71L19.0854 70.9991C19.9994 70.9972 22.5431 70.538 23.8115 70.146C25.2864 69.69 27.1502 68.8192 28.2912 68.0527C29.3742 67.3253 31.4975 65.2533 32.6261 63.8228C35.6646 59.9712 37.2835 56.2207 47.6482 29.0174C52.3934 16.5629 58.6516 0.239548 58.7279 0.117459C58.7682 0.0527869 56.512 0 53.7141 0H48.6269L48.4956 0.347283ZM10.7938 8.74195C6.55452 9.64056 2.98456 12.4167 1.1935 16.2068C-0.0881325 18.9187 0.00179554 17.3302 0.00179554 37.275C0.00179554 57.3901 -0.104994 55.6759 1.32855 58.575C2.67653 61.3011 4.80077 63.3755 7.65192 64.7498C9.58881 65.6835 11.1415 66.0575 13.5456 66.1692L15.5362 66.2618V64.7955V63.3292L14.0921 63.2294C8.3295 62.8314 4.22825 59.8467 3.13335 55.2542C2.92695 54.3885 2.89448 51.9684 2.89245 37.3383C2.89026 21.0046 2.90072 20.3824 3.19799 19.2331C3.68385 17.3553 4.48055 16.0145 6.00824 14.5044C7.44037 13.0884 8.63067 12.3662 10.6183 11.7073L11.7112 11.345L26.3716 11.2675L41.0321 11.1902L41.5381 9.83967L42.0439 8.48913L26.9557 8.50179C14.284 8.51228 11.6954 8.55072 10.7938 8.74195ZM58.7327 9.37046C58.6083 9.56956 57.8461 11.5941 57.8461 11.7256C57.8461 11.7877 58.319 12.0371 58.8971 12.2801C61.2821 13.2822 63.258 15.0109 64.1509 16.877C65.0594 18.7756 65.023 17.7514 65.0255 41.481L65.0278 63.2826L51.1718 63.2855L37.3157 63.2885L36.7357 64.2502C36.4167 64.7792 36.0058 65.4378 35.8226 65.7136L35.4896 66.2152H51.7447H68L67.9541 42.4071C67.9109 20.0046 67.8916 18.5443 67.6272 17.6728C66.6077 14.3121 64.3092 11.6713 61.0467 10.1116C59.4967 9.37061 58.8601 9.16672 58.7327 9.37046Z" fill="white"/>
</svg>
