<svg width="71" height="71" viewBox="0 0 71 71" fill="none" xmlns="http://www.w3.org/2000/svg">
<path fill-rule="evenodd" clip-rule="evenodd" d="M24.5911 0.547175C22.7472 1.626 22.2382 2.49721 22.226 4.59719C22.2117 7.02761 23.018 7.48764 29.6809 8.85416C38.0826 10.5769 44.6343 14.023 50.4306 19.7673C57.2666 26.5429 61.1858 34.2847 62.6286 43.8638C62.8811 45.5432 63.3962 47.2991 63.7735 47.7653C64.8994 49.1596 67.6302 48.7301 69.4945 46.8663C71.1226 45.2378 71.2108 44.8328 70.7778 40.9293C68.9964 24.8575 59.9065 11.8057 45.6292 4.81974C37.9862 1.0798 27.3667 -1.0765 24.5911 0.547175ZM24.4655 14.6663C22.9182 15.317 21.5371 17.3253 21.5371 18.9239C21.5371 20.8468 23.4082 22.2954 26.6637 22.8945C31.9232 23.8621 38.0473 27.2126 41.4276 30.9708C44.5134 34.4027 47.5911 40.8391 48.337 45.421C48.8269 48.4302 50.9647 49.6807 53.7851 48.6087C56.3056 47.6506 57.0182 45.0899 56.21 39.898C54.9063 31.5279 50.0899 24.3866 42.3628 19.367C36.3418 15.456 27.8744 13.2319 24.4655 14.6663ZM16.7608 28.8451C9.18914 30.4524 3.41317 35.8208 1.07523 43.4255C-1.50092 51.8044 0.589314 59.6494 6.94553 65.4574C17.3255 74.9423 33.7888 71.8632 40.3839 59.2036C41.9482 56.2005 42.1891 54.9222 42.1891 49.6312C42.1891 44.3503 41.9482 43.0659 40.4049 40.132C38.1376 35.8208 34.2917 32.1053 30.253 30.3235C26.7193 28.7643 20.4024 28.0722 16.7608 28.8451ZM26.3976 40.1999C32.5055 43.3197 33.9157 52.1756 29.121 57.3071C25.001 61.7168 18.1568 61.6537 13.6669 57.1647C4.9157 48.4153 15.3241 34.5452 26.3976 40.1999ZM19.8405 44.3598C15.0913 45.4889 14.2383 51.6619 18.45 54.4214C23.6586 57.833 29.6219 50.9305 25.4394 46.3316C23.774 44.4996 21.9504 43.8577 19.8405 44.3598Z" fill="white"/>
</svg>
