<svg width="92" height="55" viewBox="0 0 92 55" fill="none" xmlns="http://www.w3.org/2000/svg">
<path fill-rule="evenodd" clip-rule="evenodd" d="M20.126 0.518892C19.6932 1.63512 21.4491 2.85064 28.3203 6.19149C34.4685 9.18127 35.1877 9.63864 35.1877 10.5608V11.5909L17.8452 11.7969C8.30699 11.9102 0.371583 12.1336 0.210511 12.2926C-0.518684 13.0157 0.667091 14.7912 3.44819 17.1403C7.74303 20.7679 13.0755 24.1714 23.2076 29.7521C28.0643 32.4271 32.1477 34.9002 32.2826 35.2475C32.8328 36.667 31.3486 36.9316 22.8301 36.9316C14.9742 36.9316 14.5855 36.969 14.5855 37.7235C14.5855 39.9588 25.5679 46.5544 35.3546 50.1969C44.7892 53.7075 54.1555 55.3058 63.2197 54.9518C72.5431 54.5872 78.1707 52.3205 83.9297 46.6113C89.4753 41.113 92 35.0489 92 27.2279C92 16.2153 87.0671 7.94556 77.7166 3.28411C76.1346 2.49546 73.4101 1.46865 71.6625 1.00222C68.6541 0.199557 67.1986 0.148053 44.4204 0.0388612C23.7441 -0.0604412 20.3246 0.00713424 20.126 0.518892ZM73.0239 10.2707C80.7994 13.9264 85.0905 22.035 83.6679 30.3846C81.0771 45.5927 63.0503 51.6613 51.6108 41.176C43.8677 34.0794 43.5273 21.653 50.8746 14.3343C55.2564 9.96992 59.2607 8.42188 65.6237 8.63325C69.4566 8.76016 70.1271 8.9085 73.0239 10.2707ZM64.0101 13.4884C63.489 13.7817 63.2817 14.4155 63.2817 15.7175C63.2817 17.6727 63.9585 18.3785 65.8555 18.4011C68.856 18.4374 72.822 22.2311 73.4576 25.6725C73.9283 28.2226 74.717 29.1027 76.5304 29.1027C77.397 29.1027 78.4379 28.8625 78.8437 28.5687C79.5096 28.0866 79.5342 27.7764 79.0972 25.3754C78.8308 23.9126 78.1262 21.8281 77.5318 20.7432C75.6039 17.2248 71.595 14.2309 68.0485 13.6618C67.1437 13.5164 66.0287 13.326 65.5708 13.2383C65.113 13.1505 64.4109 13.2634 64.0101 13.4884Z" fill="#FF642D"/>
</svg>
