<svg width="70" height="70" viewBox="0 0 70 70" fill="none" xmlns="http://www.w3.org/2000/svg">
<path fill-rule="evenodd" clip-rule="evenodd" d="M29.5183 0.268731C15.2172 2.86493 4.25241 13.0343 0.884597 26.8243C-0.294866 31.6527 -0.294866 38.305 0.884597 43.1335C7.47148 70.105 40.9677 79.1542 60.3751 59.2049C65.0271 54.4229 68.1786 48.4324 69.4959 41.868C70.3185 37.7679 70.1042 29.6876 69.0727 25.8998C68.0384 22.1032 64.7025 15.6744 62.2118 12.6784C57.7458 7.30559 51.0986 3.02391 44.207 1.0806C40.7907 0.117414 32.7883 -0.324836 29.5183 0.268731ZM38.8424 15.0175C41.2216 16.0098 42.7308 17.3805 43.996 19.6979C46.4903 24.2664 45.0845 29.9334 40.6981 32.9896L39.8166 33.6037L42.0118 44.2472C43.2191 50.1009 44.207 55.0407 44.207 55.2243C44.207 55.4079 40.1144 55.558 35.1124 55.558C26.7151 55.558 26.0191 55.5039 26.0316 54.8519C26.0389 54.4633 27.0041 49.5231 28.1759 43.8735L30.3069 33.6009L28.6897 32.3694C22.895 27.9574 23.9835 18.4534 30.6375 15.3605C33.068 14.2307 36.6019 14.083 38.8424 15.0175Z" fill="#FED146"/>
</svg>
