<svg width="69" height="71" viewBox="0 0 69 71" fill="none" xmlns="http://www.w3.org/2000/svg">
<path fill-rule="evenodd" clip-rule="evenodd" d="M33.0367 0.137895C32.5593 0.250606 24.2261 4.13394 5.51081 12.9652C2.66554 14.3079 0.259928 15.5124 0.165155 15.6419C-0.0998519 16.0041 -0.0402564 16.5111 0.303107 16.8149C0.637504 17.1106 31.4277 31.6517 32.6874 32.1088C33.5819 32.4334 35.1227 32.4903 35.9293 32.2284C36.3583 32.0892 65.1642 18.608 68.0328 17.204C68.4546 16.9975 68.737 16.7478 68.8446 16.4861C69.2081 15.602 70.9116 16.4715 44.1234 3.86821C39.4088 1.64998 36.1721 0.205716 35.724 0.120105C34.8529 -0.0462518 33.7877 -0.0393029 33.0367 0.137895ZM8.13191 31.2082C7.40876 31.3305 6.72879 31.6095 3.71743 33.02C2.01027 33.8197 0.473892 34.604 0.303107 34.7628C-0.0689505 35.1093 -0.0950235 35.561 0.234131 35.9607C0.568252 36.3664 32.1308 51.1872 33.4186 51.5431C35.1558 52.0232 32.9066 52.9807 59.9161 40.2629C64.4591 38.1237 68.2887 36.3027 68.4262 36.2163C68.5638 36.1297 68.7552 35.9102 68.8518 35.7287C69.1125 35.2379 68.7792 34.7525 67.865 34.2918C64.9878 32.8416 61.6079 31.3673 60.854 31.2335C59.2809 30.9544 58.978 31.0659 50.5634 35.019C34.864 42.3944 36.0921 41.8538 34.8763 41.9248C34.2775 41.9597 33.5123 41.9145 33.1518 41.8231C32.7953 41.7327 27.5942 39.3536 21.5939 36.5362C9.90873 31.0495 9.6578 30.9502 8.13191 31.2082ZM7.44214 50.5901C6.65775 50.8094 0.641091 53.639 0.303107 53.9475C-0.0948856 54.3108 -0.0948856 54.8862 0.303107 55.2574C0.473754 55.4165 6.66616 58.3898 14.0639 61.8646C34.1755 71.3112 33.4794 70.9988 34.4114 70.9988C35.4498 70.9988 36.1128 70.7007 58.1397 60.331C68.7878 55.318 68.5457 55.4378 68.7936 55.0566C69.0798 54.6164 68.9195 54.1213 68.3825 53.7869C67.6798 53.3494 62.6431 50.9994 61.7653 50.6995C60.6512 50.319 59.2191 50.3438 58.0707 50.7637C57.5775 50.9441 52.5873 53.2571 46.9814 55.9038C41.3755 58.5506 36.5024 60.8182 36.1521 60.9432C35.3512 61.2289 33.5121 61.2347 32.7564 60.9541C32.4529 60.8414 27.4556 58.5119 21.6512 55.7772C15.8469 53.0427 10.8242 50.7209 10.4897 50.6176C9.79727 50.404 8.16046 50.3893 7.44214 50.5901Z" fill="#343B41"/>
</svg>
