<svg width="76" height="76" viewBox="0 0 76 76" fill="none" xmlns="http://www.w3.org/2000/svg">
<path fill-rule="evenodd" clip-rule="evenodd" d="M14.9635 0.226224C14.2492 0.621127 14.2144 0.851809 14.2087 5.24159L14.2035 9.35143L8.73777 9.39534C3.54449 9.43703 3.23825 9.45483 2.59515 9.75168C1.60567 10.2083 0.88508 10.9051 0.414951 11.86L0 12.7029V37.7738V62.8447L0.313221 63.5198C0.771006 64.5068 1.46958 65.2255 2.42694 65.6945L3.27202 66.1084L15.4305 66.1488L27.589 66.1892V69.598V73.0066H23.7147C20.6524 73.0066 19.7545 73.0509 19.4306 73.2179C18.4408 73.7286 18.4408 75.2515 19.4306 75.7621C20.0454 76.0793 55.9546 76.0793 56.5694 75.7621C57.5592 75.2515 57.5592 73.7286 56.5694 73.2179C56.2455 73.0509 55.3476 73.0066 52.2853 73.0066H48.411V69.598V66.1892L60.5695 66.1488L72.728 66.1084L73.5731 65.6945C74.5304 65.2255 75.229 64.5068 75.6868 63.5198L76 62.8447V37.7738V12.7029L75.585 11.86C75.1149 10.9051 74.3943 10.2083 73.4048 9.75168C72.7617 9.45483 72.4555 9.43703 67.2622 9.39534L61.7965 9.35143V5.28565C61.7965 0.900912 61.7513 0.601842 61.0313 0.230526C60.441 -0.0740334 15.5141 -0.0781872 14.9635 0.226224ZM58.8219 28.4279V53.8696H51.6156C43.8773 53.8696 43.8099 53.8758 43.4174 54.6329C43.0193 55.4009 43.2953 56.3303 44.0193 56.6593C44.3131 56.7928 47.9493 56.8366 58.7545 56.8366H73.0998V59.4257C73.0998 62.2419 73.0115 62.6551 72.3346 63.0042C71.7177 63.3224 4.28232 63.3224 3.6654 63.0042C2.98854 62.6551 2.9002 62.2419 2.9002 59.4257V56.8366H17.2455C28.0507 56.8366 31.6869 56.7928 31.9807 56.6593C32.4069 56.4656 32.7945 55.8435 32.7945 55.3531C32.7945 54.8626 32.4069 54.2406 31.9807 54.0469C31.6954 53.9172 29.6547 53.8696 24.3844 53.8696H17.1781V28.4279V2.9861H38H58.8219V28.4279ZM23.8872 9.57218C22.8904 10.1231 22.9231 11.6922 23.941 12.1548C24.4968 12.4074 38.1176 12.4074 38.6734 12.1548C39.0997 11.961 39.4873 11.339 39.4873 10.8486C39.4873 10.3581 39.0997 9.7361 38.6734 9.54236C38.0817 9.2734 24.3776 9.30099 23.8872 9.57218ZM14.2035 33.1008V53.8696H8.55186H2.9002L2.9054 33.6571C2.90971 17.1646 2.94705 13.3794 3.10782 13.0901C3.51236 12.3622 3.66525 12.3429 9.10959 12.3372L14.2035 12.332V33.1008ZM72.3346 12.5434C72.5601 12.6598 72.8244 12.9299 72.9221 13.1438C73.0571 13.4393 73.0998 18.3805 73.0998 33.7012V53.8696H67.4481H61.7965V33.1008V12.332H66.8607C70.9528 12.332 72.0034 12.3727 72.3346 12.5434ZM23.8872 18.4731C22.8904 19.024 22.9231 20.5931 23.941 21.0557C24.2343 21.189 27.7223 21.233 38.0144 21.233C52.8761 21.233 52.31 21.2643 52.6951 20.4212C53.0428 19.66 52.792 18.8305 52.1076 18.4774C51.5195 18.174 24.4356 18.1699 23.8872 18.4731ZM23.8872 27.374C22.8904 27.925 22.9231 29.494 23.941 29.9566C24.2343 30.0899 27.7223 30.1339 38.0144 30.1339C52.8761 30.1339 52.31 30.1652 52.6951 29.3221C53.0428 28.5609 52.792 27.7314 52.1076 27.3783C51.5195 27.0749 24.4356 27.0708 23.8872 27.374ZM23.8872 36.2749C22.8904 36.8259 22.9231 38.3949 23.941 38.8575C24.2343 38.9908 27.7223 39.0348 38.0144 39.0348C52.8761 39.0348 52.31 39.0661 52.6951 38.223C53.0428 37.4618 52.792 36.6323 52.1076 36.2792C51.5195 35.9758 24.4356 35.9717 23.8872 36.2749ZM23.8872 45.1758C22.8904 45.7268 22.9231 47.2958 23.941 47.7584C24.2343 47.8918 27.7223 47.9357 38.0144 47.9357C52.8761 47.9357 52.31 47.967 52.6951 47.1239C53.0428 46.3627 52.792 45.5332 52.1076 45.1801C51.5195 44.8767 24.4356 44.8726 23.8872 45.1758ZM37.2727 54.0767C35.9834 54.7895 36.5228 56.8366 38 56.8366C38.7536 56.8366 39.4873 56.1119 39.4873 55.3675C39.4873 54.2537 38.2533 53.5345 37.2727 54.0767ZM45.4364 69.5945V73.0066H38H30.5636V69.5945V66.1825H38H45.4364V69.5945Z" fill="#E49B00"/>
</svg>
