<svg width="76" height="76" viewBox="0 0 76 76" fill="none" xmlns="http://www.w3.org/2000/svg">
<path fill-rule="evenodd" clip-rule="evenodd" d="M36.6621 0.285927C36.3763 0.440748 34.1386 2.30794 31.6894 4.4355L27.2363 8.30348L20.4082 8.30452C15.9344 8.30512 13.3753 8.36137 12.9863 8.46765C12.1767 8.68868 11.4903 9.23775 11.0924 9.98231C10.7658 10.5931 10.7588 10.7153 10.715 16.6388L10.6702 22.6731L5.42532 27.2162C2.38681 29.8482 0.142879 31.8994 0.0912223 32.0921C0.042238 32.2751 0.00112078 41.4947 8.17138e-05 52.58C-0.00169954 70.4393 0.0241286 72.7978 0.227785 73.285C0.520207 73.9849 0.965668 74.4612 1.66199 74.8182C2.1925 75.0903 2.75805 75.1007 17.0738 75.1007H31.9349L32.3688 74.6668C32.9612 74.0744 32.9615 73.3534 32.3695 72.6909L31.9366 72.2061L18.933 72.1319L5.92927 72.0577L17.1765 62.3923C23.3625 57.0765 28.6298 52.5543 28.8817 52.3431L29.3396 51.9593L32.9637 54.2774C34.9929 55.5755 36.8981 56.6877 37.2929 56.8047C38.3969 57.1319 38.9835 56.8712 43.1751 54.1918C45.2468 52.8674 46.9911 51.8032 47.0513 51.827C47.1115 51.8507 52.4491 56.4124 58.9128 61.9639L70.6651 72.0577L57.3623 72.1319L44.0594 72.2061L43.6264 72.6909C43.0345 73.3534 43.0348 74.0744 43.6272 74.6668L44.0611 75.1007H58.9222C73.238 75.1007 73.8035 75.0903 74.334 74.8182C75.0303 74.4612 75.4758 73.9849 75.7682 73.285C75.9717 72.798 75.998 70.4335 75.998 52.5526C75.998 41.2204 75.9404 32.2185 75.8668 32.0248C75.7946 31.835 73.3934 29.6515 70.5306 27.1726L65.3258 22.6656L65.281 16.6351C65.2372 10.7154 65.2302 10.5931 64.9036 9.98231C64.5057 9.23775 63.8193 8.68868 63.0097 8.46765C62.6214 8.36152 60.054 8.30422 55.5878 8.302L48.7597 8.29858L44.3066 4.43134C41.8574 2.30438 39.6056 0.435255 39.3028 0.277763C38.5846 -0.0958541 37.3596 -0.0919947 36.6621 0.285927ZM41.1342 5.6319L44.1366 8.22956L41.0674 8.26964C39.3792 8.29176 36.6202 8.29176 34.936 8.26964L31.8742 8.22956L34.8989 5.60103C36.5626 4.1554 37.9705 2.98645 38.0277 3.00337C38.085 3.02044 39.4828 4.20319 41.1342 5.6319ZM62.3054 24.8771L62.3432 38.4074L50.2301 46.1488C43.568 50.4066 38.0341 53.8699 37.9327 53.845C37.8312 53.8202 32.3271 50.335 25.7013 46.1001L13.6543 38.4004V24.9355C13.6543 17.5296 13.6989 11.4257 13.7537 11.3711C13.8083 11.3163 24.7462 11.2886 38.0603 11.3092L62.2675 11.3467L62.3054 24.8771ZM45.6425 15.1794C45.316 15.3669 42.9113 17.1141 40.2988 19.0625C37.6863 21.0108 35.3818 22.6629 35.1777 22.7337C34.9736 22.8045 32.4687 23.2281 29.6113 23.6749C23.6218 24.6116 23.3806 24.6953 22.7089 26.0729L22.3378 26.834L20.705 27.0802C18.7825 27.3701 17.9359 27.7295 17.4308 28.4701C16.7809 29.4226 16.7331 29.8974 17.0691 32.0587C17.4499 34.5092 17.7764 35.2116 18.775 35.7292C19.5714 36.142 20.1046 36.172 21.9307 35.9066L23.7257 35.6458L24.3878 36.2801C25.0823 36.9457 26.2461 37.3714 26.8484 37.1802C27.0963 37.1015 27.1595 37.1673 27.2278 37.5757C27.2729 37.8451 27.4401 38.8528 27.5994 39.815C27.7635 40.8076 28.0346 41.8563 28.2256 42.239C29.5334 44.8576 33.1382 45.4025 35.2804 43.3055C36.5749 42.0383 36.8056 40.8333 36.3199 37.8762L35.9718 35.7573L36.3541 35.6779C36.5642 35.6341 36.861 35.5732 37.0134 35.5425C37.1659 35.5118 40.0047 36.3171 43.322 37.3322C47.0402 38.4701 49.5982 39.1782 49.9917 39.1783C51.4832 39.1794 52.8417 37.8313 52.8417 36.3502C52.8417 36.0125 52.1714 31.4844 51.352 26.2876C49.991 17.6552 49.8276 16.7822 49.4594 16.1825C48.675 14.9042 46.9238 14.444 45.6425 15.1794ZM48.464 27.0639C49.2442 32.0346 49.8596 36.1245 49.8314 36.1526C49.7681 36.216 38.9995 32.934 38.8668 32.8108C38.7017 32.6578 37.5344 24.8875 37.6581 24.7655C38.0934 24.3358 46.9838 17.822 47.0113 17.9127C47.0301 17.9752 47.6838 22.0933 48.464 27.0639ZM55.291 18.1158C55.1277 18.2098 54.6433 18.6266 54.2148 19.042C53.5425 19.6937 53.4355 19.8755 53.4355 20.3645C53.4355 21.0905 53.7765 21.6057 54.3911 21.8085C55.0211 22.0164 55.4912 21.8383 56.3849 21.0532C57.2067 20.3315 57.431 19.9652 57.4381 19.3336C57.4488 18.3671 56.1421 17.626 55.291 18.1158ZM56.1117 23.9628C55.1246 24.2011 54.623 24.7078 54.623 25.4664C54.623 26.1507 54.8275 26.5062 55.388 26.796C55.7856 27.0017 55.9794 27.0091 56.8309 26.8518C58.5171 26.5401 58.9277 26.1972 58.9277 25.1002C58.9277 24.6233 58.84 24.4361 58.4709 24.1256C57.9513 23.6883 57.4041 23.6504 56.1117 23.9628ZM34.7324 26.1004C34.7324 26.1733 34.9647 27.6888 35.2488 29.4681C35.5328 31.2475 35.7499 32.7185 35.7312 32.737C35.6401 32.8274 26.567 34.18 26.5 34.1132C26.4101 34.0231 25.3458 27.4369 25.4111 27.3741C25.4901 27.2983 33.7548 25.9965 34.25 25.9819C34.5152 25.9742 34.7324 26.0275 34.7324 26.1004ZM10.652 34.0344L10.6113 36.4604L7.4417 34.4292C5.6986 33.3122 4.27078 32.3444 4.26885 32.2787C4.26692 32.2129 5.69325 30.9246 7.43828 29.4158L10.6113 26.6723L10.652 29.1404C10.6744 30.4979 10.6744 32.7001 10.652 34.0344ZM68.7802 29.5952C71.1879 31.6837 71.8088 32.2947 71.6602 32.429C71.556 32.5231 70.4687 33.2348 69.2441 34.0103C68.0195 34.7861 66.6335 35.667 66.164 35.9684L65.3105 36.516V31.6056C65.3105 27.5273 65.3443 26.7154 65.5106 26.8139C65.6206 26.8793 67.0919 28.1309 68.7802 29.5952ZM56.1495 29.7828C55.9686 29.8179 55.6444 30.056 55.4289 30.312C55.1078 30.6938 55.0511 30.8811 55.1145 31.353C55.223 32.162 55.5311 32.4311 56.8531 32.8714C57.9413 33.2337 58.0418 33.2432 58.5483 33.0317C59.564 32.6073 59.7656 31.1014 58.883 30.5313C58.5566 30.3202 56.7167 29.6608 56.561 29.699C56.5156 29.7101 56.3305 29.7478 56.1495 29.7828ZM22.779 30.1612C22.8776 30.5964 23.1517 32.3766 23.1531 32.5913C23.1541 32.7451 20.3883 33.2107 20.2774 33.0755C20.2517 33.0442 20.1315 32.3992 20.0102 31.6422C19.7584 30.0708 19.6299 30.2455 21.2246 29.9918C22.5648 29.7787 22.6954 29.7929 22.779 30.1612ZM14.7824 42.6544C21.2238 46.7703 26.4941 50.2086 26.4941 50.295C26.4941 50.3814 21.5845 54.6709 15.5839 59.8275C9.58335 64.9839 4.28978 69.5346 3.82027 69.9399L2.96675 70.6769V52.924C2.96675 43.1599 2.99006 35.171 3.01871 35.171C3.04721 35.171 8.34093 38.5386 14.7824 42.6544ZM72.9933 61.4045L72.955 70.0995L61.327 60.1123C51.8279 51.9536 49.7352 50.0912 49.8973 49.9395C50.0064 49.8373 55.239 46.4693 61.5253 42.4548L72.955 35.1557L72.9933 43.9326C73.0144 48.7598 73.0144 56.6223 72.9933 61.4045ZM33.3621 38.2347C33.6406 40.0091 33.6546 40.32 33.4757 40.7484C33.1836 41.4474 32.4763 41.7849 31.7559 41.5691C31.4516 41.4778 31.0983 41.244 30.9707 41.0494C30.7403 40.6976 30.0394 36.8458 30.1802 36.7049C30.2502 36.6349 32.3216 36.2574 32.8122 36.2253C32.998 36.213 33.1079 36.6148 33.3621 38.2347ZM37.0323 72.4662C36.7737 72.6886 36.6163 73.0043 36.562 73.41C36.4911 73.9387 36.5395 74.0858 36.927 74.5195C37.3002 74.9372 37.4767 75.0198 37.998 75.0198C38.5146 75.0198 38.6962 74.9366 39.0522 74.5382C39.2888 74.2736 39.4824 73.8876 39.4824 73.6809C39.4824 73.1886 39.1085 72.4775 38.7483 72.2848C38.2554 72.0209 37.4512 72.1058 37.0323 72.4662Z" fill="#E49B00"/>
</svg>
