<svg width="69" height="71" viewBox="0 0 69 71" fill="none" xmlns="http://www.w3.org/2000/svg">
<path fill-rule="evenodd" clip-rule="evenodd" d="M4.63561 0.136553C2.37978 0.669565 0.566211 2.58863 0.127387 4.90704C0.0118129 5.51714 -0.0192554 13.0596 0.0107083 33.1938L0.0515805 60.6487L0.357155 61.4612C0.965819 63.0797 2.32938 64.4459 3.94893 65.0602C4.69057 65.3415 5.02859 65.3656 8.78524 65.4053L12.8241 65.4479V67.6521C12.8241 70.0565 12.9157 70.4599 13.5346 70.7813C14.0963 71.0729 24.6697 71.0729 25.2315 70.7813C25.8506 70.4597 25.9419 70.0569 25.9419 67.6445V65.4325H46.9372C69.8762 65.4325 68.5224 65.4813 68.8679 64.6417C68.9862 64.3544 69.0181 60.3232 68.9909 49.0931L68.9543 33.9325L68.5669 33.5978C68.1989 33.2799 68.0863 33.2632 66.323 33.2632H64.4667V19.4039C64.4667 9.66365 64.4205 5.32635 64.3113 4.80984C63.8326 2.54606 61.984 0.64724 59.7564 0.1317C58.9846 -0.047034 5.39244 -0.0423195 4.63561 0.136553ZM7.37557 3.08601C8.59414 3.65576 9.23608 4.68019 9.23097 6.04655C9.22379 7.93012 7.85388 9.28026 5.95899 9.27097C3.753 9.26015 2.21532 7.07112 2.9484 4.98483C3.60525 3.11512 5.6044 2.25779 7.37557 3.08601ZM59.869 3.07006C60.5638 3.45152 61.2532 4.24895 61.4891 4.94378C61.6425 5.39596 61.705 6.1156 61.705 7.42761V9.27485H36.4521H11.1992L11.5629 8.40822C11.8814 7.64919 11.9266 7.35218 11.9266 6.01632C11.9266 4.6422 11.889 4.41035 11.5469 3.67698C11.338 3.22924 11.1672 2.83864 11.1672 2.80882C11.1672 2.77915 22.0255 2.77097 35.2969 2.79094C57.9859 2.82491 59.4531 2.84169 59.869 3.07006ZM3.65952 11.5974L4.47019 11.9787L33.0876 12.0147L61.705 12.0507V22.6569V33.2632H61.3676C61.1818 33.2632 60.8557 33.4136 60.6426 33.5976L60.2552 33.9321L60.2149 38.026L60.1744 42.12L60.5804 42.5762C60.9176 42.9551 61.0848 43.0325 61.567 43.0325C62.0475 43.0325 62.2165 42.9549 62.5476 42.5827L62.9478 42.133V39.0847V36.0364H64.6048H66.2617V49.3478V62.6592H64.6048H62.9478V58.1144C62.9478 53.0711 62.9554 53.1158 62.0321 52.7285C61.6321 52.5607 61.5018 52.5607 61.1018 52.7285C60.1785 53.1158 60.1861 53.0711 60.1861 58.1144V62.6592H58.4601H56.7341V56.3625V50.0658L56.3092 49.7068L55.8845 49.3478H52.347H48.8095L48.4223 49.7204L48.035 50.093V56.3761V62.6592H46.3089H44.5829V54.3327C44.5829 45.2975 44.5934 45.4269 43.8273 45.0764C43.3228 44.8455 37.0058 44.8455 36.5013 45.0764C35.7352 45.4269 35.7457 45.2975 35.7457 54.3327V62.6592H30.8438H25.9419V60.7992V58.9393L28.2318 58.8927L30.5216 58.8461L30.9244 58.3932C31.3869 57.8731 31.4558 57.2204 31.1017 56.7128C30.5389 55.9059 20.5001 44.3908 20.1175 44.1134C19.8809 43.9418 19.5504 43.8014 19.383 43.8014C19.2157 43.8014 18.8832 43.9418 18.6441 44.1134C18.21 44.4251 7.83317 56.3549 7.57523 56.8388C7.31868 57.3204 7.42155 57.9208 7.84159 58.3932L8.24438 58.8461L10.5342 58.8927L12.8241 58.9393V60.8072V62.6751L8.92333 62.6325C5.5464 62.5956 4.96425 62.5579 4.58839 62.3513C4.03316 62.0461 3.35477 61.3648 3.05085 60.8073C2.82895 60.4003 2.81087 58.7404 2.77717 35.7937C2.75743 22.276 2.76544 11.2161 2.79499 11.2161C2.82467 11.2161 3.21365 11.3876 3.65952 11.5974ZM12.548 17.5292C11.1317 17.9815 9.82458 19.4709 9.51031 20.9909C9.4102 21.4751 9.37485 24.1494 9.40357 29.0493C9.44306 35.7685 9.46792 36.4386 9.70017 37.0467C10.0724 38.021 11.1216 39.1027 12.1626 39.5854L13.0313 39.9882H18.9688H24.9063L25.6899 39.6194C26.7894 39.1017 27.6236 38.2807 28.098 37.2492L28.4964 36.383V28.618V20.853L28.1277 20.0632C27.6787 19.1012 26.7981 18.19 25.8728 17.7298L25.1824 17.3865L19.1759 17.3586C14.2895 17.336 13.0535 17.3679 12.548 17.5292ZM25.0511 20.5064C25.8057 21.2058 25.8038 21.1859 25.803 28.5789C25.8026 32.8658 25.749 35.6051 25.6592 35.9297C25.5682 36.2588 25.3336 36.5869 25.0148 36.831L24.5136 37.215H18.9552C13.5509 37.215 13.386 37.2071 13.007 36.9278C12.1201 36.2746 12.1341 36.4081 12.134 28.6965C12.1337 21.9435 12.1434 21.6832 12.4151 21.1195C12.9183 20.0758 12.8408 20.0872 19.1303 20.1257L24.6772 20.1597L25.0511 20.5064ZM34.2804 21.0582C34.12 21.1233 33.85 21.3533 33.6804 21.5695C33.2692 22.0933 33.3621 22.9354 33.8808 23.3833L34.2423 23.6956H45.1365C52.989 23.6956 56.1271 23.6515 56.3758 23.5376C56.6975 23.3905 57.1483 22.6774 57.1483 22.3158C57.1483 22.2283 57.054 21.9735 56.9389 21.7497C56.4955 20.8888 56.9623 20.9215 45.2457 20.9311C39.3752 20.9359 34.4408 20.9932 34.2804 21.0582ZM16.1275 22.7143C15.852 22.9909 15.7238 23.2585 15.7238 23.5569C15.7238 24.2456 16.3663 24.8049 17.1577 24.8049H17.7843L17.8242 29.3662C17.8622 33.7024 17.8778 33.9429 18.1403 34.2353C18.5652 34.7086 18.9809 34.816 19.5165 34.5913C19.7727 34.4838 20.0493 34.27 20.1314 34.1159C20.2308 33.9291 20.2805 32.0378 20.2805 28.4315V23.0269L19.8557 22.668C19.4577 22.3316 19.3394 22.309 17.9809 22.309C16.5626 22.309 16.5224 22.3177 16.1275 22.7143ZM34.1039 27.217C33.1785 27.732 33.2089 29.1986 34.1539 29.6309C34.414 29.7501 35.9737 29.7966 39.6944 29.7966C45.209 29.7966 45.4719 29.7672 45.8215 29.111C46.1031 28.5827 45.9911 27.8615 45.5601 27.4287L45.1565 27.0234L39.7952 27.0283C35.6105 27.0322 34.3614 27.0736 34.1039 27.217ZM49.6813 27.4287C48.5842 28.5304 49.8213 30.3102 51.19 29.5995C51.7147 29.327 51.9012 28.9966 51.9012 28.3392C51.9012 27.6363 51.2902 27.0234 50.5895 27.0234C50.216 27.0234 49.9801 27.1287 49.6813 27.4287ZM33.8019 33.5298C33.251 34.0832 33.2505 34.7567 33.8011 35.3755L34.204 35.8284L42.2586 35.8697C46.6887 35.8923 50.5222 35.8726 50.7775 35.8257C51.8789 35.6239 52.3024 34.3228 51.5302 33.5134L51.1592 33.1245H42.6824H34.2055L33.8019 33.5298ZM60.6687 46.7707C60.0146 47.4275 60.0592 48.3072 60.7738 48.8414C61.3665 49.2844 62.0701 49.2205 62.5511 48.68C62.9942 48.1819 63.0491 47.7284 62.7393 47.1265C62.4802 46.6237 62.1436 46.4359 61.5007 46.4359C61.1577 46.4359 60.8981 46.5403 60.6687 46.7707ZM23.5267 52.121L26.9394 56.0729L25.4082 56.1422C24.0499 56.2038 23.8417 56.2472 23.5632 56.5273L23.2493 56.843L23.2104 62.5243L23.1714 68.2057H19.3786H15.5858L15.5852 62.6939C15.5847 55.7333 15.7516 56.1773 13.1073 56.1074L11.8025 56.0729L14.6834 52.745C16.268 50.9147 17.9678 48.9601 18.4608 48.4016L19.3572 47.3859L19.7355 47.7776C19.9436 47.993 21.6496 49.9475 23.5267 52.121ZM41.8213 55.1716V62.6592H40.1643H38.5073V55.1716V47.6839H40.1643H41.8213V55.1716ZM53.9725 57.3901V62.6592H52.3845H50.7966V57.3901V52.121H52.3845H53.9725V57.3901Z" fill="#E49B00"/>
</svg>
