<svg width="1226" height="88" viewBox="0 0 1226 88" fill="none" xmlns="http://www.w3.org/2000/svg">
<path d="M53.9646 4.53922H54.9646V3.53922H53.9646V4.53922ZM53.9646 20.632V21.632H54.9646V20.632H53.9646ZM20.3695 20.632V19.632H19.3695V20.632H20.3695ZM20.3695 38.0169H19.3695V39.0169H20.3695V38.0169ZM45.5071 38.0169H46.5071V37.0169H45.5071V38.0169ZM45.5071 53.6398V54.6398H46.5071V53.6398H45.5071ZM20.3695 53.6398V52.6398H19.3695V53.6398H20.3695ZM20.3695 87V88H21.3695V87H20.3695ZM0.282861 87H-0.717139L-0.717139 88H0.282861L0.282861 87ZM0.282861 4.53922V3.53922H-0.717139V4.53922H0.282861ZM52.9646 4.53922V20.632H54.9646V4.53922H52.9646ZM53.9646 19.632H20.3695V21.632H53.9646V19.632ZM19.3695 20.632L19.3695 38.0169H21.3695L21.3695 20.632H19.3695ZM20.3695 39.0169L45.5071 39.0169V37.0169L20.3695 37.0169V39.0169ZM44.5071 38.0169V53.6398H46.5071V38.0169H44.5071ZM45.5071 52.6398L20.3695 52.6398V54.6398L45.5071 54.6398V52.6398ZM19.3695 53.6398L19.3695 87H21.3695L21.3695 53.6398H19.3695ZM20.3695 86H0.282861L0.282861 88H20.3695V86ZM1.28286 87L1.28286 4.53922H-0.717139L-0.717139 87H1.28286ZM0.282861 5.53922L53.9646 5.53922V3.53922L0.282861 3.53922L0.282861 5.53922ZM86.9577 0.0755346H87.9577V-0.924465H86.9577V0.0755346ZM86.9577 87V88H87.9577V87H86.9577ZM66.8711 87H65.8711V88H66.8711V87ZM66.8711 0.0755346V-0.924465H65.8711V0.0755346H66.8711ZM85.9577 0.0755346L85.9577 87H87.9577L87.9577 0.0755346H85.9577ZM86.9577 86L66.8711 86V88L86.9577 88V86ZM67.8711 87L67.8711 0.0755346H65.8711L65.8711 87H67.8711ZM66.8711 1.07553H86.9577V-0.924465H66.8711V1.07553ZM168.587 21.4543H169.587V20.4543H168.587V21.4543ZM168.587 87V88H169.587V87H168.587ZM148.5 87H147.5V88H148.5V87ZM148.5 78.0726H149.5V74.9103L147.682 77.4977L148.5 78.0726ZM140.16 85.1206L140.608 86.015L140.616 86.011L140.16 85.1206ZM115.375 84.4158L114.866 85.2763L114.872 85.2802L114.879 85.284L115.375 84.4158ZM106.448 74.6661L105.553 75.1133L105.553 75.1133L106.448 74.6661ZM103.276 21.4543V20.4543H102.276V21.4543H103.276ZM123.245 21.4543H124.245V20.4543H123.245V21.4543ZM126.652 67.2658L125.922 67.949L125.922 67.949L126.652 67.2658ZM148.5 21.4543V20.4543L147.5 20.4543V21.4543L148.5 21.4543ZM167.587 21.4543L167.587 87H169.587L169.587 21.4543H167.587ZM168.587 86H148.5V88H168.587V86ZM149.5 87V78.0726H147.5V87H149.5ZM147.682 77.4977C145.75 80.247 143.102 82.4942 139.705 84.2301L140.616 86.011C144.267 84.1446 147.178 81.6932 149.319 78.6476L147.682 77.4977ZM139.713 84.2261C136.42 85.8729 132.738 86.7048 128.649 86.7048V88.7048C133.017 88.7048 137.01 87.8138 140.608 86.015L139.713 84.2261ZM128.649 86.7048C123.787 86.7048 119.538 85.6428 115.871 83.5475L114.879 85.284C118.887 87.5741 123.487 88.7048 128.649 88.7048V86.7048ZM115.885 83.5552C112.223 81.3881 109.376 78.2866 107.342 74.2189L105.553 75.1133C107.748 79.5032 110.853 82.9014 114.866 85.2763L115.885 83.5552ZM107.342 74.2189C105.31 70.1551 104.276 65.3415 104.276 59.748H102.276C102.276 65.5878 103.357 70.7196 105.553 75.1133L107.342 74.2189ZM104.276 59.748V21.4543L102.276 21.4543V59.748H104.276ZM103.276 22.4543H123.245V20.4543L103.276 20.4543V22.4543ZM122.245 21.4543L122.245 57.0463H124.245L124.245 21.4543H122.245ZM122.245 57.0463C122.245 61.6022 123.428 65.2832 125.922 67.949L127.382 66.5826C125.334 64.3932 124.245 61.2611 124.245 57.0463H122.245ZM125.922 67.949C128.411 70.6105 131.747 71.9072 135.814 71.9072V69.9072C132.207 69.9072 129.434 68.7763 127.382 66.5826L125.922 67.949ZM135.814 71.9072C139.953 71.9072 143.33 70.6147 145.824 67.949L144.364 66.5826C142.315 68.7721 139.506 69.9072 135.814 69.9072V71.9072ZM145.824 67.949C148.318 65.2832 149.5 61.6022 149.5 57.0463H147.5C147.5 61.2611 146.412 64.3932 144.364 66.5826L145.824 67.949ZM149.5 57.0463L149.5 21.4543L147.5 21.4543L147.5 57.0463H149.5ZM148.5 22.4543H168.587V20.4543H148.5V22.4543ZM221.896 69.9675H222.896V68.9675H221.896V69.9675ZM221.896 87V88H222.896V87H221.896ZM194.644 81.7141L193.982 82.4631L193.99 82.4702L194.644 81.7141ZM188.536 38.1344H189.536V37.1344H188.536V38.1344ZM180.548 38.1344H179.548V39.1344H180.548V38.1344ZM180.548 21.4543V20.4543H179.548V21.4543H180.548ZM188.536 21.4543V22.4543H189.536V21.4543H188.536ZM188.536 5.47895V4.47895H187.536V5.47895H188.536ZM208.623 5.47895H209.623V4.47895H208.623V5.47895ZM208.623 21.4543H207.623V22.4543H208.623V21.4543ZM221.779 21.4543H222.779V20.4543H221.779V21.4543ZM221.779 38.1344V39.1344H222.779V38.1344H221.779ZM208.623 38.1344V37.1344H207.623V38.1344H208.623ZM210.032 68.6754L209.356 69.4125L209.356 69.4125L210.032 68.6754ZM220.896 69.9675V87H222.896V69.9675H220.896ZM221.896 86H211.677V88H221.896V86ZM211.677 86C204.549 86 199.133 84.2766 195.299 80.9579L193.99 82.4702C198.299 86.1995 204.239 88 211.677 88V86ZM195.307 80.9651C191.536 77.629 189.536 72.1314 189.536 64.2117H187.536C187.536 72.4239 189.609 78.5945 193.982 82.463L195.307 80.9651ZM189.536 64.2117L189.536 38.1344H187.536L187.536 64.2117H189.536ZM188.536 37.1344H180.548V39.1344H188.536V37.1344ZM181.548 38.1344V21.4543H179.548V38.1344H181.548ZM180.548 22.4543H188.536V20.4543H180.548V22.4543ZM189.536 21.4543V5.47895H187.536V21.4543H189.536ZM188.536 6.47895L208.623 6.47895V4.47895L188.536 4.47895V6.47895ZM207.623 5.47895V21.4543H209.623V5.47895H207.623ZM208.623 22.4543L221.779 22.4543V20.4543H208.623V22.4543ZM220.779 21.4543V38.1344H222.779V21.4543H220.779ZM221.779 37.1344L208.623 37.1344V39.1344L221.779 39.1344V37.1344ZM207.623 38.1344L207.623 64.4466H209.623L209.623 38.1344H207.623ZM207.623 64.4466C207.623 66.5357 208.121 68.2802 209.356 69.4125L210.708 67.9382C210.064 67.3477 209.623 66.2731 209.623 64.4466H207.623ZM209.356 69.4125C210.574 70.529 212.454 70.9675 214.731 70.9675V68.9675C212.622 68.9675 211.369 68.5446 210.708 67.9382L209.356 69.4125ZM214.731 70.9675H221.896V68.9675H214.731V70.9675ZM271.966 69.9675H272.966V68.9675H271.966V69.9675ZM271.966 87V88H272.966V87H271.966ZM244.714 81.7141L244.051 82.4631L244.059 82.4702L244.714 81.7141ZM238.606 38.1344H239.606V37.1344H238.606V38.1344ZM230.618 38.1344H229.618V39.1344H230.618V38.1344ZM230.618 21.4543V20.4543H229.618V21.4543H230.618ZM238.606 21.4543V22.4543H239.606V21.4543H238.606ZM238.606 5.47895V4.47895H237.606V5.47895H238.606ZM258.692 5.47895H259.692V4.47895H258.692V5.47895ZM258.692 21.4543H257.692V22.4543H258.692V21.4543ZM271.848 21.4543H272.848V20.4543H271.848V21.4543ZM271.848 38.1344V39.1344H272.848V38.1344H271.848ZM258.692 38.1344V37.1344H257.692V38.1344H258.692ZM260.102 68.6754L259.426 69.4125L259.426 69.4125L260.102 68.6754ZM270.966 69.9675V87H272.966V69.9675H270.966ZM271.966 86H261.746V88H271.966V86ZM261.746 86C254.619 86 249.203 84.2766 245.368 80.9579L244.059 82.4702C248.369 86.1995 254.308 88 261.746 88V86ZM245.376 80.9651C241.605 77.629 239.606 72.1314 239.606 64.2117H237.606C237.606 72.4239 239.678 78.5945 244.051 82.463L245.376 80.9651ZM239.606 64.2117L239.606 38.1344H237.606L237.606 64.2117H239.606ZM238.606 37.1344H230.618V39.1344H238.606V37.1344ZM231.618 38.1344V21.4543H229.618V38.1344H231.618ZM230.618 22.4543H238.606V20.4543L230.618 20.4543V22.4543ZM239.606 21.4543V5.47895H237.606V21.4543H239.606ZM238.606 6.47895H258.692V4.47895H238.606V6.47895ZM257.692 5.47895V21.4543H259.692V5.47895H257.692ZM258.692 22.4543H271.848V20.4543H258.692V22.4543ZM270.848 21.4543V38.1344H272.848V21.4543H270.848ZM271.848 37.1344H258.692V39.1344H271.848V37.1344ZM257.692 38.1344V64.4466H259.692V38.1344H257.692ZM257.692 64.4466C257.692 66.5357 258.191 68.2802 259.426 69.4125L260.778 67.9382C260.133 67.3477 259.692 66.2731 259.692 64.4466H257.692ZM259.426 69.4125C260.644 70.529 262.523 70.9675 264.8 70.9675V68.9675C262.692 68.9675 261.439 68.5446 260.778 67.9382L259.426 69.4125ZM264.8 70.9675H271.966V68.9675H264.8V70.9675ZM346.938 59.0432V60.0432H347.829L347.932 59.1578L346.938 59.0432ZM301.479 59.0432V58.0432H300.399L300.482 59.1199L301.479 59.0432ZM305.355 68.4405L304.661 69.1599L304.673 69.172L304.686 69.1837L305.355 68.4405ZM324.385 65.2689V64.2689H323.746L323.477 64.8488L324.385 65.2689ZM345.764 65.2689L346.733 65.5156L347.05 64.2689H345.764V65.2689ZM339.773 76.898L339.007 76.2543L338.999 76.2647L339.773 76.898ZM329.083 85.0031L329.497 85.9135L329.083 85.0031ZM297.485 83.8284L297.005 84.7058L297.005 84.7058L297.485 83.8284ZM285.739 72.0819L286.613 71.5974L286.613 71.5974L285.739 72.0819ZM285.621 36.3724L284.746 35.8878L284.741 35.8983L285.621 36.3724ZM297.368 24.6258L297.848 25.5032L297.848 25.5032L297.368 24.6258ZM331.55 24.5084L331.075 25.3884L331.075 25.3884L331.55 24.5084ZM343.062 35.9025L342.188 36.3882L342.194 36.3986L343.062 35.9025ZM326.734 47.884V48.884H327.734V47.884H326.734ZM323.21 39.6614L323.865 38.9057L323.865 38.9057L323.21 39.6614ZM305.825 39.5439L305.185 38.7757L305.179 38.7811L305.172 38.7865L305.825 39.5439ZM301.597 47.884L300.608 47.7335L300.433 48.884H301.597V47.884ZM346.291 53.1699C346.291 55.0078 346.176 56.9272 345.945 58.9286L347.932 59.1578C348.171 57.0871 348.291 55.0909 348.291 53.1699H346.291ZM346.938 58.0432L301.479 58.0432V60.0432L346.938 60.0432V58.0432ZM300.482 59.1199C300.808 63.3625 302.167 66.7521 304.661 69.1599L306.05 67.721C304.002 65.7434 302.776 62.8682 302.476 58.9665L300.482 59.1199ZM304.686 69.1837C307.232 71.4748 310.334 72.612 313.93 72.612V70.612C310.792 70.612 308.177 69.6349 306.024 67.6972L304.686 69.1837ZM313.93 72.612C316.577 72.612 318.891 72.0529 320.822 70.8812C322.757 69.7067 324.242 67.9571 325.292 65.689L323.477 64.8488C322.57 66.8094 321.333 68.2314 319.784 69.1713C318.23 70.114 316.295 70.612 313.93 70.612V72.612ZM324.385 66.2689H345.764V64.2689H324.385V66.2689ZM344.794 65.0222C343.736 69.1814 341.809 72.9224 339.007 76.2544L340.538 77.5416C343.531 73.9822 345.599 69.9705 346.733 65.5156L344.794 65.0222ZM338.999 76.2647C336.283 79.5842 332.846 82.1944 328.67 84.0927L329.497 85.9135C333.935 83.8963 337.624 81.1031 340.547 77.5312L338.999 76.2647ZM328.67 84.0927C324.508 85.9844 319.836 86.9397 314.635 86.9397V88.9397C320.085 88.9397 325.045 87.9373 329.497 85.9135L328.67 84.0927ZM314.635 86.9397C308.36 86.9397 302.812 85.6019 297.965 82.9511L297.005 84.7058C302.182 87.5367 308.067 88.9397 314.635 88.9397V86.9397ZM297.965 82.9511C293.123 80.3029 289.343 76.5251 286.613 71.5974L284.864 72.5664C287.773 77.819 291.824 81.8723 297.005 84.7058L297.965 82.9511ZM286.613 71.5974C283.889 66.679 282.51 60.8997 282.51 54.2271H280.51C280.51 61.1805 281.95 67.3044 284.864 72.5664L286.613 71.5974ZM282.51 54.2271C282.51 47.5501 283.852 41.767 286.502 36.8465L284.741 35.8983C281.909 41.1581 280.51 47.2782 280.51 54.2271H282.51ZM286.496 36.8569C289.225 31.9292 293.005 28.1514 297.848 25.5032L296.888 23.7485C291.707 26.582 287.656 30.6352 284.746 35.8879L286.496 36.8569ZM297.848 25.5032C302.693 22.8533 308.28 21.5145 314.635 21.5145V19.5145C307.991 19.5145 302.066 20.9166 296.888 23.7485L297.848 25.5032ZM314.635 21.5145C320.835 21.5145 326.306 22.8144 331.075 25.3884L332.025 23.6283C326.927 20.8772 321.122 19.5145 314.635 19.5145V21.5145ZM331.075 25.3884C335.84 27.9596 339.539 31.6203 342.188 36.3882L343.936 35.4169C341.103 30.3176 337.128 26.3822 332.025 23.6283L331.075 25.3884ZM342.194 36.3986C344.914 41.1587 346.291 46.7382 346.291 53.1699H348.291C348.291 46.4456 346.848 40.5134 343.93 35.4064L342.194 36.3986ZM327.734 47.884C327.734 44.1836 326.459 41.1537 323.865 38.9057L322.555 40.4171C324.66 42.2413 325.734 44.6931 325.734 47.884H327.734ZM323.865 38.9057C321.31 36.691 318.131 35.6073 314.4 35.6073V37.6073C317.718 37.6073 320.412 38.5597 322.555 40.4171L323.865 38.9057ZM314.4 35.6073C310.824 35.6073 307.733 36.6528 305.185 38.7757L306.465 40.3122C308.617 38.5196 311.242 37.6073 314.4 37.6073V35.6073ZM305.172 38.7865C302.684 40.9318 301.184 43.9483 300.608 47.7335L302.585 48.0344C303.105 44.6151 304.425 42.0716 306.478 40.3013L305.172 38.7865ZM301.597 48.884L326.734 48.884V46.884L301.597 46.884V48.884ZM380.323 32.3785H379.323V35.7425L381.161 32.9248L380.323 32.3785ZM389.133 23.921L389.633 24.7869L389.641 24.7828L389.648 24.7785L389.133 23.921ZM400.88 20.7495H401.88V19.7495H400.88V20.7495ZM400.88 42.0107V43.0107H401.88V42.0107H400.88ZM384.082 45.2997L384.727 46.064L384.734 46.0582L384.741 46.0523L384.082 45.2997ZM380.323 87V88H381.323V87H380.323ZM360.237 87H359.237V88H360.237V87ZM360.237 21.4543V20.4543H359.237V21.4543H360.237ZM380.323 21.4543H381.323V20.4543H380.323V21.4543ZM381.161 32.9248C383.429 29.4464 386.253 26.7399 389.633 24.7869L388.633 23.0552C384.965 25.1743 381.916 28.1061 379.486 31.8323L381.161 32.9248ZM389.648 24.7785C393.009 22.762 396.745 21.7495 400.88 21.7495V19.7495C396.4 19.7495 392.306 20.8513 388.619 23.0635L389.648 24.7785ZM399.88 20.7495V42.0107H401.88V20.7495H399.88ZM400.88 41.0107H395.359V43.0107H400.88V41.0107ZM395.359 41.0107C390.223 41.0107 386.185 42.1313 383.424 44.5472L384.741 46.0523C386.991 44.0829 390.471 43.0107 395.359 43.0107V41.0107ZM383.437 44.5355C380.595 46.9339 379.323 51.0647 379.323 56.5764H381.323C381.323 51.2813 382.558 47.8944 384.727 46.064L383.437 44.5355ZM379.323 56.5764V87H381.323V56.5764H379.323ZM380.323 86H360.237V88H380.323V86ZM361.237 87V21.4543H359.237V87H361.237ZM360.237 22.4543H380.323V20.4543L360.237 20.4543V22.4543ZM379.323 21.4543V32.3785H381.323V21.4543H379.323ZM466.512 4.53922H467.512V3.53922H466.512V4.53922ZM466.512 20.632V21.632H467.512V20.632H466.512ZM432.917 20.632V19.632H431.917V20.632H432.917ZM432.917 38.0169H431.917V39.0169H432.917V38.0169ZM458.054 38.0169H459.054V37.0169H458.054V38.0169ZM458.054 53.6398V54.6398H459.054V53.6398H458.054ZM432.917 53.6398V52.6398H431.917V53.6398H432.917ZM432.917 87V88H433.917V87H432.917ZM412.83 87H411.83V88H412.83V87ZM412.83 4.53922V3.53922L411.83 3.53922V4.53922L412.83 4.53922ZM465.512 4.53922V20.632H467.512V4.53922H465.512ZM466.512 19.632L432.917 19.632V21.632L466.512 21.632V19.632ZM431.917 20.632V38.0169H433.917V20.632H431.917ZM432.917 39.0169H458.054V37.0169H432.917V39.0169ZM457.054 38.0169V53.6398H459.054V38.0169H457.054ZM458.054 52.6398H432.917V54.6398H458.054V52.6398ZM431.917 53.6398V87H433.917V53.6398H431.917ZM432.917 86H412.83V88H432.917V86ZM413.83 87V4.53922L411.83 4.53922V87H413.83ZM412.83 5.53922L466.512 5.53922V3.53922L412.83 3.53922V5.53922ZM499.505 0.0755346H500.505V-0.924465H499.505V0.0755346ZM499.505 87V88H500.505V87H499.505ZM479.418 87H478.418V88H479.418V87ZM479.418 0.0755346V-0.924465H478.418V0.0755346H479.418ZM498.505 0.0755346V87H500.505V0.0755346H498.505ZM499.505 86H479.418V88H499.505V86ZM480.418 87V0.0755346H478.418V87H480.418ZM479.418 1.07553H499.505V-0.924465H479.418V1.07553ZM581.134 21.4543H582.134V20.4543H581.134V21.4543ZM581.134 87V88H582.134V87H581.134ZM561.047 87H560.047V88H561.047V87ZM561.047 78.0726H562.047V74.9103L560.229 77.4977L561.047 78.0726ZM552.707 85.1206L553.155 86.015L553.163 86.011L552.707 85.1206ZM527.922 84.4158L527.413 85.2763L527.419 85.2802L527.426 85.284L527.922 84.4158ZM518.995 74.6661L518.1 75.1133L518.1 75.1133L518.995 74.6661ZM515.823 21.4543V20.4543H514.823V21.4543H515.823ZM535.792 21.4543H536.792V20.4543H535.792V21.4543ZM539.199 67.2658L538.469 67.949L538.469 67.949L539.199 67.2658ZM561.047 21.4543V20.4543H560.047V21.4543H561.047ZM580.134 21.4543V87H582.134V21.4543H580.134ZM581.134 86H561.047V88H581.134V86ZM562.047 87V78.0726H560.047V87H562.047ZM560.229 77.4977C558.297 80.247 555.649 82.4942 552.252 84.2301L553.163 86.011C556.814 84.1446 559.726 81.6932 561.866 78.6476L560.229 77.4977ZM552.26 84.2261C548.967 85.8729 545.285 86.7048 541.196 86.7048V88.7048C545.564 88.7048 549.557 87.8138 553.155 86.015L552.26 84.2261ZM541.196 86.7048C536.334 86.7048 532.085 85.6428 528.418 83.5475L527.426 85.284C531.434 87.5741 536.034 88.7048 541.196 88.7048V86.7048ZM528.432 83.5552C524.77 81.3881 521.923 78.2866 519.889 74.2189L518.1 75.1133C520.295 79.5032 523.4 82.9014 527.413 85.2763L528.432 83.5552ZM519.889 74.2189C517.857 70.1551 516.823 65.3415 516.823 59.748H514.823C514.823 65.5878 515.904 70.7196 518.1 75.1133L519.889 74.2189ZM516.823 59.748V21.4543H514.823V59.748H516.823ZM515.823 22.4543H535.792V20.4543H515.823V22.4543ZM534.792 21.4543V57.0463H536.792V21.4543H534.792ZM534.792 57.0463C534.792 61.6022 535.975 65.2832 538.469 67.949L539.929 66.5826C537.881 64.3932 536.792 61.2611 536.792 57.0463H534.792ZM538.469 67.949C540.958 70.6105 544.294 71.9072 548.361 71.9072V69.9072C544.754 69.9072 541.981 68.7763 539.929 66.5826L538.469 67.949ZM548.361 71.9072C552.5 71.9072 555.877 70.6147 558.371 67.949L556.911 66.5826C554.863 68.7721 552.054 69.9072 548.361 69.9072V71.9072ZM558.371 67.949C560.865 65.2832 562.047 61.6022 562.047 57.0463H560.047C560.047 61.2611 558.959 64.3932 556.911 66.5826L558.371 67.949ZM562.047 57.0463V21.4543H560.047V57.0463H562.047ZM561.047 22.4543L581.134 22.4543V20.4543H561.047V22.4543ZM634.443 69.9675H635.443V68.9675H634.443V69.9675ZM634.443 87V88H635.443V87H634.443ZM607.191 81.7141L606.529 82.4631L606.537 82.4702L607.191 81.7141ZM601.083 38.1344H602.083V37.1344H601.083V38.1344ZM593.095 38.1344H592.095V39.1344H593.095V38.1344ZM593.095 21.4543V20.4543H592.095V21.4543H593.095ZM601.083 21.4543V22.4543H602.083V21.4543H601.083ZM601.083 5.47895V4.47895H600.083V5.47895H601.083ZM621.17 5.47895H622.17V4.47895H621.17V5.47895ZM621.17 21.4543H620.17V22.4543H621.17V21.4543ZM634.326 21.4543H635.326V20.4543H634.326V21.4543ZM634.326 38.1344V39.1344H635.326V38.1344H634.326ZM621.17 38.1344V37.1344H620.17V38.1344H621.17ZM622.579 68.6754L621.903 69.4125L621.903 69.4125L622.579 68.6754ZM633.443 69.9675V87H635.443V69.9675H633.443ZM634.443 86H624.224V88H634.443V86ZM624.224 86C617.096 86 611.681 84.2766 607.846 80.9579L606.537 82.4702C610.846 86.1995 616.786 88 624.224 88V86ZM607.854 80.9651C604.083 77.629 602.083 72.1314 602.083 64.2117H600.083C600.083 72.4239 602.156 78.5945 606.529 82.463L607.854 80.9651ZM602.083 64.2117V38.1344H600.083V64.2117H602.083ZM601.083 37.1344H593.095V39.1344H601.083V37.1344ZM594.095 38.1344V21.4543H592.095V38.1344H594.095ZM593.095 22.4543H601.083V20.4543H593.095V22.4543ZM602.083 21.4543V5.47895H600.083V21.4543H602.083ZM601.083 6.47895H621.17V4.47895H601.083V6.47895ZM620.17 5.47895V21.4543H622.17V5.47895H620.17ZM621.17 22.4543H634.326V20.4543L621.17 20.4543V22.4543ZM633.326 21.4543V38.1344H635.326V21.4543L633.326 21.4543ZM634.326 37.1344H621.17V39.1344H634.326V37.1344ZM620.17 38.1344V64.4466H622.17V38.1344H620.17ZM620.17 64.4466C620.17 66.5357 620.668 68.2802 621.903 69.4125L623.255 67.9382C622.611 67.3477 622.17 66.2731 622.17 64.4466H620.17ZM621.903 69.4125C623.121 70.529 625.001 70.9675 627.278 70.9675V68.9675C625.169 68.9675 623.916 68.5446 623.255 67.9382L621.903 69.4125ZM627.278 70.9675H634.443V68.9675H627.278V70.9675ZM684.513 69.9675H685.513V68.9675H684.513V69.9675ZM684.513 87V88H685.513V87H684.513ZM657.261 81.7141L656.598 82.4631L656.607 82.4702L657.261 81.7141ZM651.153 38.1344H652.153V37.1344H651.153V38.1344ZM643.165 38.1344H642.165V39.1344H643.165V38.1344ZM643.165 21.4543V20.4543H642.165V21.4543H643.165ZM651.153 21.4543V22.4543H652.153V21.4543H651.153ZM651.153 5.47895V4.47895H650.153V5.47895H651.153ZM671.239 5.47895H672.239V4.47895H671.239V5.47895ZM671.239 21.4543H670.239V22.4543H671.239V21.4543ZM684.395 21.4543H685.395V20.4543H684.395V21.4543ZM684.395 38.1344V39.1344H685.395V38.1344H684.395ZM671.239 38.1344V37.1344H670.239V38.1344H671.239ZM672.649 68.6754L671.973 69.4125L671.973 69.4125L672.649 68.6754ZM683.513 69.9675V87H685.513V69.9675H683.513ZM684.513 86H674.293V88H684.513V86ZM674.293 86C667.166 86 661.75 84.2766 657.915 80.9579L656.607 82.4702C660.916 86.1995 666.855 88 674.293 88V86ZM657.924 80.9651C654.152 77.629 652.153 72.1314 652.153 64.2117H650.153C650.153 72.4239 652.225 78.5945 656.598 82.463L657.924 80.9651ZM652.153 64.2117V38.1344H650.153V64.2117H652.153ZM651.153 37.1344H643.165V39.1344H651.153V37.1344ZM644.165 38.1344V21.4543H642.165V38.1344H644.165ZM643.165 22.4543H651.153V20.4543H643.165V22.4543ZM652.153 21.4543V5.47895H650.153V21.4543H652.153ZM651.153 6.47895H671.239V4.47895H651.153V6.47895ZM670.239 5.47895V21.4543H672.239V5.47895H670.239ZM671.239 22.4543H684.395V20.4543L671.239 20.4543V22.4543ZM683.395 21.4543V38.1344H685.395V21.4543H683.395ZM684.395 37.1344H671.239V39.1344H684.395V37.1344ZM670.239 38.1344V64.4466H672.239V38.1344H670.239ZM670.239 64.4466C670.239 66.5357 670.738 68.2802 671.973 69.4125L673.325 67.9382C672.68 67.3477 672.239 66.2731 672.239 64.4466H670.239ZM671.973 69.4125C673.191 70.529 675.071 70.9675 677.348 70.9675V68.9675C675.239 68.9675 673.986 68.5446 673.325 67.9382L671.973 69.4125ZM677.348 70.9675H684.513V68.9675H677.348V70.9675ZM759.485 59.0432V60.0432H760.377L760.479 59.1578L759.485 59.0432ZM714.026 59.0432V58.0432H712.946L713.029 59.1199L714.026 59.0432ZM717.902 68.4405L717.208 69.1599L717.22 69.172L717.234 69.1837L717.902 68.4405ZM736.932 65.2689V64.2689H736.293L736.024 64.8488L736.932 65.2689ZM758.311 65.2689L759.28 65.5156L759.597 64.2689H758.311V65.2689ZM752.32 76.898L751.554 76.2543L751.546 76.2647L752.32 76.898ZM741.631 85.0031L742.044 85.9135L741.631 85.0031ZM710.032 83.8284L709.552 84.7058L709.552 84.7058L710.032 83.8284ZM698.286 72.0819L699.161 71.5974L699.161 71.5974L698.286 72.0819ZM698.168 36.3724L697.293 35.8878L697.288 35.8983L698.168 36.3724ZM709.915 24.6258L710.395 25.5032L710.395 25.5032L709.915 24.6258ZM744.097 24.5084L743.622 25.3884L743.622 25.3884L744.097 24.5084ZM755.609 35.9025L754.735 36.3882L754.741 36.3986L755.609 35.9025ZM739.281 47.884V48.884H740.281V47.884H739.281ZM735.757 39.6614L736.412 38.9057L736.412 38.9057L735.757 39.6614ZM718.372 39.5439L717.732 38.7757L717.726 38.7811L717.719 38.7865L718.372 39.5439ZM714.144 47.884L713.155 47.7335L712.98 48.884H714.144V47.884ZM758.838 53.1699C758.838 55.0078 758.723 56.9272 758.492 58.9286L760.479 59.1578C760.718 57.0871 760.838 55.0909 760.838 53.1699H758.838ZM759.485 58.0432L714.026 58.0432V60.0432L759.485 60.0432V58.0432ZM713.029 59.1199C713.355 63.3625 714.714 66.7521 717.208 69.1599L718.597 67.721C716.549 65.7434 715.323 62.8682 715.023 58.9665L713.029 59.1199ZM717.234 69.1837C719.779 71.4748 722.881 72.612 726.477 72.612V70.612C723.34 70.612 720.724 69.6349 718.571 67.6972L717.234 69.1837ZM726.477 72.612C729.124 72.612 731.438 72.0529 733.369 70.8812C735.304 69.7067 736.789 67.9571 737.839 65.689L736.024 64.8488C735.117 66.8094 733.88 68.2314 732.331 69.1713C730.778 70.114 728.842 70.612 726.477 70.612V72.612ZM736.932 66.2689L758.311 66.2689V64.2689L736.932 64.2689V66.2689ZM757.342 65.0222C756.283 69.1814 754.356 72.9224 751.555 76.2544L753.085 77.5416C756.078 73.9822 758.146 69.9705 759.28 65.5156L757.342 65.0222ZM751.546 76.2647C748.83 79.5842 745.393 82.1944 741.217 84.0927L742.044 85.9135C746.482 83.8963 750.171 81.1031 753.094 77.5312L751.546 76.2647ZM741.217 84.0927C737.055 85.9844 732.383 86.9397 727.182 86.9397V88.9397C732.632 88.9397 737.592 87.9373 742.044 85.9135L741.217 84.0927ZM727.182 86.9397C720.907 86.9397 715.359 85.6019 710.512 82.9511L709.552 84.7058C714.729 87.5367 720.614 88.9397 727.182 88.9397V86.9397ZM710.512 82.9511C705.67 80.3029 701.89 76.5251 699.161 71.5974L697.411 72.5664C700.32 77.819 704.371 81.8723 709.552 84.7058L710.512 82.9511ZM699.161 71.5974C696.437 66.679 695.057 60.8997 695.057 54.2271H693.057C693.057 61.1805 694.497 67.3044 697.411 72.5664L699.161 71.5974ZM695.057 54.2271C695.057 47.5501 696.399 41.767 699.049 36.8465L697.288 35.8983C694.456 41.1581 693.057 47.2782 693.057 54.2271H695.057ZM699.043 36.8569C701.772 31.9292 705.552 28.1514 710.395 25.5032L709.435 23.7485C704.254 26.582 700.203 30.6352 697.293 35.8879L699.043 36.8569ZM710.395 25.5032C715.24 22.8533 720.827 21.5145 727.182 21.5145V19.5145C720.538 19.5145 714.613 20.9166 709.435 23.7485L710.395 25.5032ZM727.182 21.5145C733.382 21.5145 738.853 22.8144 743.622 25.3884L744.572 23.6283C739.474 20.8772 733.669 19.5145 727.182 19.5145V21.5145ZM743.622 25.3884C748.387 27.9596 752.086 31.6203 754.735 36.3882L756.483 35.4169C753.65 30.3176 749.675 26.3822 744.572 23.6283L743.622 25.3884ZM754.741 36.3986C757.461 41.1587 758.838 46.7382 758.838 53.1699H760.838C760.838 46.4456 759.395 40.5134 756.477 35.4064L754.741 36.3986ZM740.281 47.884C740.281 44.1836 739.006 41.1537 736.412 38.9057L735.102 40.4171C737.207 42.2413 738.281 44.6931 738.281 47.884H740.281ZM736.412 38.9057C733.857 36.691 730.678 35.6073 726.947 35.6073V37.6073C730.265 37.6073 732.959 38.5597 735.102 40.4171L736.412 38.9057ZM726.947 35.6073C723.371 35.6073 720.28 36.6528 717.732 38.7757L719.013 40.3122C721.164 38.5196 723.789 37.6073 726.947 37.6073V35.6073ZM717.719 38.7865C715.231 40.9318 713.731 43.9483 713.155 47.7335L715.132 48.0344C715.653 44.6151 716.972 42.0716 719.025 40.3013L717.719 38.7865ZM714.144 48.884H739.281V46.884H714.144V48.884ZM792.87 32.3785H791.87V35.7425L793.708 32.9248L792.87 32.3785ZM801.68 23.921L802.18 24.7869L802.188 24.7828L802.195 24.7785L801.68 23.921ZM813.427 20.7495H814.427V19.7495H813.427V20.7495ZM813.427 42.0107V43.0107H814.427V42.0107H813.427ZM796.629 45.2997L797.274 46.064L797.281 46.0582L797.288 46.0523L796.629 45.2997ZM792.87 87V88H793.87V87H792.87ZM772.784 87H771.784V88H772.784V87ZM772.784 21.4543V20.4543H771.784V21.4543H772.784ZM792.87 21.4543H793.87V20.4543H792.87V21.4543ZM793.708 32.9248C795.976 29.4464 798.8 26.7399 802.18 24.7869L801.18 23.0552C797.512 25.1743 794.463 28.1061 792.033 31.8323L793.708 32.9248ZM802.195 24.7785C805.556 22.762 809.292 21.7495 813.427 21.7495V19.7495C808.947 19.7495 804.853 20.8513 801.166 23.0635L802.195 24.7785ZM812.427 20.7495V42.0107H814.427V20.7495H812.427ZM813.427 41.0107H807.906V43.0107H813.427V41.0107ZM807.906 41.0107C802.77 41.0107 798.732 42.1313 795.971 44.5472L797.288 46.0523C799.538 44.0829 803.018 43.0107 807.906 43.0107V41.0107ZM795.984 44.5355C793.142 46.9339 791.87 51.0647 791.87 56.5764H793.87C793.87 51.2813 795.105 47.8944 797.274 46.064L795.984 44.5355ZM791.87 56.5764V87H793.87V56.5764H791.87ZM792.87 86L772.784 86V88L792.87 88V86ZM773.784 87V21.4543H771.784V87H773.784ZM772.784 22.4543H792.87V20.4543H772.784V22.4543ZM791.87 21.4543V32.3785H793.87V21.4543H791.87ZM879.059 4.53922H880.059V3.53922H879.059V4.53922ZM879.059 20.632V21.632H880.059V20.632H879.059ZM845.464 20.632V19.632H844.464V20.632H845.464ZM845.464 38.0169H844.464V39.0169H845.464V38.0169ZM870.601 38.0169H871.601V37.0169H870.601V38.0169ZM870.601 53.6398V54.6398H871.601V53.6398H870.601ZM845.464 53.6398V52.6398H844.464V53.6398H845.464ZM845.464 87V88H846.464V87H845.464ZM825.377 87H824.377V88H825.377V87ZM825.377 4.53922V3.53922H824.377V4.53922H825.377ZM878.059 4.53922V20.632H880.059V4.53922H878.059ZM879.059 19.632L845.464 19.632V21.632L879.059 21.632V19.632ZM844.464 20.632V38.0169H846.464V20.632H844.464ZM845.464 39.0169H870.601V37.0169H845.464V39.0169ZM869.601 38.0169V53.6398H871.601V38.0169H869.601ZM870.601 52.6398H845.464V54.6398H870.601V52.6398ZM844.464 53.6398V87H846.464V53.6398H844.464ZM845.464 86H825.377V88H845.464V86ZM826.377 87V4.53922H824.377V87H826.377ZM825.377 5.53922L879.059 5.53922V3.53922L825.377 3.53922V5.53922ZM912.052 0.0755346H913.052V-0.924465H912.052V0.0755346ZM912.052 87V88H913.052V87H912.052ZM891.965 87H890.965V88H891.965V87ZM891.965 0.0755346V-0.924465H890.965V0.0755346H891.965ZM911.052 0.0755346V87H913.052V0.0755346H911.052ZM912.052 86H891.965V88H912.052V86ZM892.965 87V0.0755346H890.965V87H892.965ZM891.965 1.07553L912.052 1.07553V-0.924465L891.965 -0.924465V1.07553ZM993.681 21.4543H994.681V20.4543H993.681V21.4543ZM993.681 87V88H994.681V87H993.681ZM973.595 87H972.595V88H973.595V87ZM973.595 78.0726H974.595V74.9103L972.776 77.4977L973.595 78.0726ZM965.255 85.1206L965.702 86.015L965.71 86.011L965.255 85.1206ZM940.469 84.4158L939.96 85.2763L939.967 85.2802L939.973 85.284L940.469 84.4158ZM931.542 74.6661L930.647 75.1133L930.647 75.1133L931.542 74.6661ZM928.37 21.4543V20.4543H927.37V21.4543H928.37ZM948.339 21.4543H949.339V20.4543H948.339V21.4543ZM951.746 67.2658L951.016 67.949L951.016 67.949L951.746 67.2658ZM973.595 21.4543V20.4543H972.595V21.4543H973.595ZM992.681 21.4543V87H994.681V21.4543H992.681ZM993.681 86H973.595V88H993.681V86ZM974.595 87V78.0726H972.595V87H974.595ZM972.776 77.4977C970.844 80.247 968.196 82.4942 964.799 84.2301L965.71 86.011C969.361 84.1446 972.273 81.6932 974.413 78.6476L972.776 77.4977ZM964.807 84.2261C961.514 85.8729 957.832 86.7048 953.743 86.7048V88.7048C958.111 88.7048 962.104 87.8138 965.702 86.015L964.807 84.2261ZM953.743 86.7048C948.881 86.7048 944.632 85.6428 940.965 83.5475L939.973 85.284C943.981 87.5741 948.581 88.7048 953.743 88.7048V86.7048ZM940.979 83.5552C937.317 81.3881 934.47 78.2866 932.436 74.2189L930.647 75.1133C932.842 79.5032 935.947 82.9014 939.96 85.2763L940.979 83.5552ZM932.436 74.2189C930.404 70.1551 929.37 65.3415 929.37 59.748H927.37C927.37 65.5878 928.451 70.7196 930.647 75.1133L932.436 74.2189ZM929.37 59.748V21.4543H927.37V59.748H929.37ZM928.37 22.4543H948.339V20.4543L928.37 20.4543V22.4543ZM947.339 21.4543V57.0463H949.339V21.4543H947.339ZM947.339 57.0463C947.339 61.6022 948.522 65.2832 951.016 67.949L952.476 66.5826C950.428 64.3932 949.339 61.2611 949.339 57.0463H947.339ZM951.016 67.949C953.506 70.6105 956.841 71.9072 960.908 71.9072V69.9072C957.301 69.9072 954.528 68.7763 952.476 66.5826L951.016 67.949ZM960.908 71.9072C965.047 71.9072 968.425 70.6147 970.918 67.949L969.458 66.5826C967.41 68.7721 964.601 69.9072 960.908 69.9072V71.9072ZM970.918 67.949C973.412 65.2832 974.595 61.6022 974.595 57.0463H972.595C972.595 61.2611 971.506 64.3932 969.458 66.5826L970.918 67.949ZM974.595 57.0463V21.4543H972.595V57.0463H974.595ZM973.595 22.4543H993.681V20.4543L973.595 20.4543V22.4543ZM1046.99 69.9675H1047.99V68.9675H1046.99V69.9675ZM1046.99 87V88H1047.99V87H1046.99ZM1019.74 81.7141L1019.08 82.4631L1019.08 82.4702L1019.74 81.7141ZM1013.63 38.1344H1014.63V37.1344H1013.63V38.1344ZM1005.64 38.1344H1004.64V39.1344H1005.64V38.1344ZM1005.64 21.4543V20.4543H1004.64V21.4543H1005.64ZM1013.63 21.4543V22.4543H1014.63V21.4543H1013.63ZM1013.63 5.47895V4.47895H1012.63V5.47895H1013.63ZM1033.72 5.47895H1034.72V4.47895H1033.72V5.47895ZM1033.72 21.4543H1032.72V22.4543H1033.72V21.4543ZM1046.87 21.4543H1047.87V20.4543H1046.87V21.4543ZM1046.87 38.1344V39.1344H1047.87V38.1344H1046.87ZM1033.72 38.1344V37.1344H1032.72V38.1344H1033.72ZM1035.13 68.6754L1034.45 69.4125L1034.45 69.4125L1035.13 68.6754ZM1045.99 69.9675V87H1047.99V69.9675H1045.99ZM1046.99 86H1036.77V88H1046.99V86ZM1036.77 86C1029.64 86 1024.23 84.2766 1020.39 80.9579L1019.08 82.4702C1023.39 86.1995 1029.33 88 1036.77 88V86ZM1020.4 80.9651C1016.63 77.629 1014.63 72.1314 1014.63 64.2117H1012.63C1012.63 72.4239 1014.7 78.5945 1019.08 82.463L1020.4 80.9651ZM1014.63 64.2117V38.1344H1012.63V64.2117H1014.63ZM1013.63 37.1344L1005.64 37.1344V39.1344L1013.63 39.1344V37.1344ZM1006.64 38.1344V21.4543H1004.64V38.1344H1006.64ZM1005.64 22.4543L1013.63 22.4543V20.4543H1005.64V22.4543ZM1014.63 21.4543V5.47895H1012.63V21.4543H1014.63ZM1013.63 6.47895L1033.72 6.47895V4.47895L1013.63 4.47895V6.47895ZM1032.72 5.47895V21.4543H1034.72V5.47895H1032.72ZM1033.72 22.4543H1046.87V20.4543H1033.72V22.4543ZM1045.87 21.4543V38.1344H1047.87V21.4543H1045.87ZM1046.87 37.1344H1033.72V39.1344H1046.87V37.1344ZM1032.72 38.1344V64.4466H1034.72V38.1344H1032.72ZM1032.72 64.4466C1032.72 66.5357 1033.22 68.2802 1034.45 69.4125L1035.8 67.9382C1035.16 67.3477 1034.72 66.2731 1034.72 64.4466H1032.72ZM1034.45 69.4125C1035.67 70.529 1037.55 70.9675 1039.82 70.9675V68.9675C1037.72 68.9675 1036.46 68.5446 1035.8 67.9382L1034.45 69.4125ZM1039.82 70.9675H1046.99V68.9675H1039.82V70.9675ZM1097.06 69.9675L1098.06 69.9675V68.9675L1097.06 68.9675V69.9675ZM1097.06 87V88H1098.06V87H1097.06ZM1069.81 81.7141L1069.15 82.4631L1069.15 82.4702L1069.81 81.7141ZM1063.7 38.1344H1064.7V37.1344H1063.7V38.1344ZM1055.71 38.1344H1054.71V39.1344H1055.71V38.1344ZM1055.71 21.4543V20.4543H1054.71V21.4543H1055.71ZM1063.7 21.4543V22.4543H1064.7V21.4543H1063.7ZM1063.7 5.47895V4.47895H1062.7V5.47895H1063.7ZM1083.79 5.47895H1084.79V4.47895H1083.79V5.47895ZM1083.79 21.4543H1082.79V22.4543H1083.79V21.4543ZM1096.94 21.4543H1097.94V20.4543H1096.94V21.4543ZM1096.94 38.1344V39.1344L1097.94 39.1344V38.1344L1096.94 38.1344ZM1083.79 38.1344V37.1344H1082.79V38.1344H1083.79ZM1085.2 68.6754L1084.52 69.4125L1084.52 69.4125L1085.2 68.6754ZM1096.06 69.9675V87H1098.06V69.9675L1096.06 69.9675ZM1097.06 86H1086.84V88H1097.06V86ZM1086.84 86C1079.71 86 1074.3 84.2766 1070.46 80.9579L1069.15 82.4702C1073.46 86.1995 1079.4 88 1086.84 88V86ZM1070.47 80.9651C1066.7 77.629 1064.7 72.1314 1064.7 64.2117H1062.7C1062.7 72.4239 1064.77 78.5945 1069.15 82.463L1070.47 80.9651ZM1064.7 64.2117V38.1344H1062.7V64.2117H1064.7ZM1063.7 37.1344H1055.71V39.1344H1063.7V37.1344ZM1056.71 38.1344V21.4543H1054.71V38.1344H1056.71ZM1055.71 22.4543H1063.7V20.4543H1055.71V22.4543ZM1064.7 21.4543V5.47895H1062.7V21.4543H1064.7ZM1063.7 6.47895L1083.79 6.47895V4.47895L1063.7 4.47895V6.47895ZM1082.79 5.47895V21.4543H1084.79V5.47895H1082.79ZM1083.79 22.4543H1096.94V20.4543H1083.79V22.4543ZM1095.94 21.4543V38.1344L1097.94 38.1344V21.4543H1095.94ZM1096.94 37.1344H1083.79V39.1344H1096.94V37.1344ZM1082.79 38.1344V64.4466H1084.79V38.1344H1082.79ZM1082.79 64.4466C1082.79 66.5357 1083.29 68.2802 1084.52 69.4125L1085.87 67.9382C1085.23 67.3477 1084.79 66.2731 1084.79 64.4466H1082.79ZM1084.52 69.4125C1085.74 70.529 1087.62 70.9675 1089.89 70.9675V68.9675C1087.79 68.9675 1086.53 68.5446 1085.87 67.9382L1084.52 69.4125ZM1089.89 70.9675H1097.06V68.9675H1089.89V70.9675ZM1172.03 59.0432V60.0432H1172.92L1173.03 59.1578L1172.03 59.0432ZM1126.57 59.0432V58.0432H1125.49L1125.58 59.1199L1126.57 59.0432ZM1130.45 68.4405L1129.75 69.1599L1129.77 69.172L1129.78 69.1837L1130.45 68.4405ZM1149.48 65.2689V64.2689H1148.84L1148.57 64.8488L1149.48 65.2689ZM1170.86 65.2689L1171.83 65.5156L1172.14 64.2689H1170.86V65.2689ZM1164.87 76.898L1164.1 76.2543L1164.09 76.2647L1164.87 76.898ZM1154.18 85.0031L1154.59 85.9135L1154.18 85.0031ZM1122.58 83.8284L1122.1 84.7058L1122.1 84.7058L1122.58 83.8284ZM1110.83 72.0819L1111.71 71.5974L1111.71 71.5974L1110.83 72.0819ZM1110.72 36.3724L1109.84 35.8878L1109.83 35.8983L1110.72 36.3724ZM1122.46 24.6258L1122.94 25.5032L1122.94 25.5032L1122.46 24.6258ZM1156.64 24.5084L1156.17 25.3884L1156.17 25.3884L1156.64 24.5084ZM1168.16 35.9025L1167.28 36.3882L1167.29 36.3986L1168.16 35.9025ZM1151.83 47.884V48.884H1152.83V47.884H1151.83ZM1148.3 39.6614L1148.96 38.9057L1148.96 38.9057L1148.3 39.6614ZM1130.92 39.5439L1130.28 38.7757L1130.27 38.7811L1130.27 38.7865L1130.92 39.5439ZM1126.69 47.884L1125.7 47.7335L1125.53 48.884H1126.69V47.884ZM1171.38 53.1699C1171.38 55.0078 1171.27 56.9272 1171.04 58.9286L1173.03 59.1578C1173.26 57.0871 1173.38 55.0909 1173.38 53.1699H1171.38ZM1172.03 58.0432H1126.57V60.0432H1172.03V58.0432ZM1125.58 59.1199C1125.9 63.3625 1127.26 66.7521 1129.75 69.1599L1131.14 67.721C1129.1 65.7434 1127.87 62.8682 1127.57 58.9665L1125.58 59.1199ZM1129.78 69.1837C1132.33 71.4748 1135.43 72.612 1139.02 72.612V70.612C1135.89 70.612 1133.27 69.6349 1131.12 67.6972L1129.78 69.1837ZM1139.02 72.612C1141.67 72.612 1143.98 72.0529 1145.92 70.8812C1147.85 69.7067 1149.34 67.9571 1150.39 65.689L1148.57 64.8488C1147.66 66.8094 1146.43 68.2314 1144.88 69.1713C1143.32 70.114 1141.39 70.612 1139.02 70.612V72.612ZM1149.48 66.2689H1170.86V64.2689H1149.48V66.2689ZM1169.89 65.0222C1168.83 69.1814 1166.9 72.9224 1164.1 76.2544L1165.63 77.5416C1168.63 73.9822 1170.69 69.9705 1171.83 65.5156L1169.89 65.0222ZM1164.09 76.2647C1161.38 79.5842 1157.94 82.1944 1153.76 84.0927L1154.59 85.9135C1159.03 83.8963 1162.72 81.1031 1165.64 77.5312L1164.09 76.2647ZM1153.76 84.0927C1149.6 85.9844 1144.93 86.9397 1139.73 86.9397V88.9397C1145.18 88.9397 1150.14 87.9373 1154.59 85.9135L1153.76 84.0927ZM1139.73 86.9397C1133.45 86.9397 1127.91 85.6019 1123.06 82.9511L1122.1 84.7058C1127.28 87.5367 1133.16 88.9397 1139.73 88.9397V86.9397ZM1123.06 82.9511C1118.22 80.3029 1114.44 76.5251 1111.71 71.5974L1109.96 72.5664C1112.87 77.819 1116.92 81.8723 1122.1 84.7058L1123.06 82.9511ZM1111.71 71.5974C1108.98 66.679 1107.6 60.8997 1107.6 54.2271H1105.6C1105.6 61.1805 1107.04 67.3044 1109.96 72.5664L1111.71 71.5974ZM1107.6 54.2271C1107.6 47.5501 1108.95 41.767 1111.6 36.8465L1109.83 35.8983C1107 41.1581 1105.6 47.2782 1105.6 54.2271H1107.6ZM1111.59 36.8569C1114.32 31.9292 1118.1 28.1514 1122.94 25.5032L1121.98 23.7485C1116.8 26.582 1112.75 30.6352 1109.84 35.8879L1111.59 36.8569ZM1122.94 25.5032C1127.79 22.8533 1133.37 21.5145 1139.73 21.5145V19.5145C1133.09 19.5145 1127.16 20.9166 1121.98 23.7485L1122.94 25.5032ZM1139.73 21.5145C1145.93 21.5145 1151.4 22.8144 1156.17 25.3884L1157.12 23.6283C1152.02 20.8772 1146.22 19.5145 1139.73 19.5145V21.5145ZM1156.17 25.3884C1160.93 27.9596 1164.63 31.6203 1167.28 36.3882L1169.03 35.4169C1166.2 30.3176 1162.22 26.3822 1157.12 23.6283L1156.17 25.3884ZM1167.29 36.3986C1170.01 41.1587 1171.38 46.7382 1171.38 53.1699H1173.38C1173.38 46.4456 1171.94 40.5134 1169.02 35.4064L1167.29 36.3986ZM1152.83 47.884C1152.83 44.1836 1151.55 41.1537 1148.96 38.9057L1147.65 40.4171C1149.75 42.2413 1150.83 44.6931 1150.83 47.884H1152.83ZM1148.96 38.9057C1146.4 36.691 1143.22 35.6073 1139.49 35.6073V37.6073C1142.81 37.6073 1145.51 38.5597 1147.65 40.4171L1148.96 38.9057ZM1139.49 35.6073C1135.92 35.6073 1132.83 36.6528 1130.28 38.7757L1131.56 40.3122C1133.71 38.5196 1136.34 37.6073 1139.49 37.6073V35.6073ZM1130.27 38.7865C1127.78 40.9318 1126.28 43.9483 1125.7 47.7335L1127.68 48.0344C1128.2 44.6151 1129.52 42.0716 1131.57 40.3013L1130.27 38.7865ZM1126.69 48.884H1151.83V46.884H1126.69V48.884ZM1205.42 32.3785H1204.42V35.7425L1206.25 32.9248L1205.42 32.3785ZM1214.23 23.921L1214.73 24.7869L1214.73 24.7828L1214.74 24.7785L1214.23 23.921ZM1225.97 20.7495H1226.97V19.7495H1225.97V20.7495ZM1225.97 42.0107V43.0107H1226.97V42.0107H1225.97ZM1209.18 45.2997L1209.82 46.064L1209.83 46.0582L1209.83 46.0523L1209.18 45.2997ZM1205.42 87V88H1206.42V87H1205.42ZM1185.33 87H1184.33V88H1185.33V87ZM1185.33 21.4543V20.4543H1184.33V21.4543H1185.33ZM1205.42 21.4543H1206.42V20.4543H1205.42V21.4543ZM1206.25 32.9248C1208.52 29.4464 1211.35 26.7399 1214.73 24.7869L1213.73 23.0552C1210.06 25.1743 1207.01 28.1061 1204.58 31.8323L1206.25 32.9248ZM1214.74 24.7785C1218.1 22.762 1221.84 21.7495 1225.97 21.7495V19.7495C1221.49 19.7495 1217.4 20.8513 1213.71 23.0635L1214.74 24.7785ZM1224.97 20.7495V42.0107H1226.97V20.7495H1224.97ZM1225.97 41.0107H1220.45V43.0107H1225.97V41.0107ZM1220.45 41.0107C1215.32 41.0107 1211.28 42.1313 1208.52 44.5472L1209.83 46.0523C1212.09 44.0829 1215.56 43.0107 1220.45 43.0107V41.0107ZM1208.53 44.5355C1205.69 46.9339 1204.42 51.0647 1204.42 56.5764H1206.42C1206.42 51.2813 1207.65 47.8944 1209.82 46.064L1208.53 44.5355ZM1204.42 56.5764V87H1206.42V56.5764H1204.42ZM1205.42 86H1185.33V88H1205.42V86ZM1186.33 87V21.4543H1184.33V87H1186.33ZM1185.33 22.4543L1205.42 22.4543V20.4543H1185.33V22.4543ZM1204.42 21.4543V32.3785H1206.42V21.4543H1204.42Z" fill="#F2B125"/>
</svg>
