<svg width="316" height="321" viewBox="0 0 316 321" fill="none" xmlns="http://www.w3.org/2000/svg">
<path d="M102.558 90.7715C102.512 89.7319 102.198 88.7224 101.647 87.8433C101.501 87.6344 101.315 87.4574 101.1 87.3225C100.885 87.1877 100.645 87.0979 100.395 87.0584C100.144 87.019 99.889 87.0306 99.6433 87.0926C99.3977 87.1547 99.1668 87.2659 98.9645 87.4197C97.2158 89.1863 97.9585 89.3678 95.5631 88.9322C92.0418 88.2788 89.1673 84.1769 86.3048 87.3714C83.4423 90.5658 85.7658 91.7758 88.7002 93.131C90.9638 94.2079 93.491 95.1396 95.2157 97.0635C96.4134 98.2736 99.6951 103.779 99.6951 105.255C99.8256 105.538 100.028 105.78 100.282 105.957C100.543 106.047 100.823 106.067 101.094 106.014C101.365 105.961 101.618 105.837 101.827 105.655C107.732 101.807 103.372 96.4222 102.558 90.7715Z" fill="#EACDB0"/>
<path d="M124.285 122.934C119.494 116.363 115.901 108.898 110.99 102.569C108.595 99.5443 108.715 98.3343 104.547 97.9592C103.505 97.8624 94.8931 100.21 95.0847 100.972C99.1151 117.394 104.245 133.52 110.439 149.239C114.152 158.641 120.62 156.015 129.471 155.894L157.808 155.531C162.994 155.471 168.887 155.084 172.181 151.03C175.977 146.36 178.169 137.139 177.439 131.283C176.241 120.889 168.803 121.603 160.671 122.885L133.124 127.157C131.441 127.588 129.669 127.504 128.033 126.915C126.886 126.244 125.91 125.312 125.183 124.192L124.285 122.934Z" fill="#E49B00"/>
<path d="M129.529 261.419C130.535 252.611 134.907 245.629 142.979 241.793C149.519 238.695 156.884 237.957 164.059 237.026C180.024 234.956 195.283 232.887 211.416 233.529C224.315 234.037 232.268 245.157 238.304 256.132C242.101 263.041 241.047 266.284 236.256 272.067C231.828 277.417 226.49 281.924 220.494 285.378C208.637 292.178 190.432 290.496 177.377 289.008C165.023 287.616 153.031 283.924 142.009 278.118C134.943 274.403 128.571 269.998 129.529 261.419Z" fill="#443C36"/>
<path d="M209.558 288.197C211.69 293.265 213.557 298.443 215.151 303.709C216.125 306.455 216.636 309.347 216.66 312.264C216.409 319.076 208.899 324.025 204.001 317.721C201.842 314.958 200.125 311.872 198.91 308.573C197.102 303.733 200.911 306.553 204.121 305.052C207.809 303.346 207.714 302.003 206.157 298.506C204.132 294.005 201.737 291.064 202.025 285.874C202.108 284.446 202.504 282.788 203.809 282.243C204.323 282.072 204.874 282.05 205.4 282.18C205.925 282.311 206.403 282.589 206.779 282.982C207.522 283.773 208.1 284.707 208.48 285.728L209.558 288.197Z" fill="#4D4D4D"/>
<path d="M185.391 120.731C179.307 119.921 173.139 118.807 168.048 121.046C163.737 122.946 163.821 128.439 162.85 132.602C159.665 146.359 157.269 160.275 155.389 174.274C154.49 180.966 152.993 188.129 152.993 194.844C152.993 200.265 154.371 205.541 153.951 211.059C153.64 215.306 151.844 219.892 147.963 221.634C146.023 222.505 143.807 222.542 141.867 223.413C139.926 224.284 138.274 226.583 139.232 228.483C139.789 229.34 140.579 230.016 141.507 230.431L155.88 238.55C159.489 240.711 163.266 242.573 167.174 244.116C172.84 245.988 178.748 247.007 184.708 247.141C200.08 247.933 215.479 246.229 230.317 242.095C238.293 239.869 245.995 235.924 244.066 226.813C242.066 217.435 238.222 208.07 234.066 199.479C229.047 189.085 227.55 176.561 223.993 165.599C220.687 155.41 217.346 145.21 213.693 135.155C211.896 130.218 208.71 125.584 204.015 123.055C198.266 120.042 191.679 121.578 185.391 120.731Z" fill="#E49B00"/>
<path d="M158.489 290.943L154.345 291.173C152.836 291.246 151.159 291.27 150.045 290.254C149.432 289.563 149.084 288.673 149.064 287.745C149.045 286.817 149.354 285.913 149.937 285.196C151.157 283.789 152.775 282.797 154.572 282.352C158.855 281.096 163.288 280.436 167.747 280.392C168.191 280.339 168.64 280.384 169.065 280.525C169.397 280.717 169.685 280.978 169.91 281.291C170.135 281.604 170.292 281.962 170.37 282.34C172.885 290.036 163.867 290.653 158.489 290.943Z" fill="#EACDB0"/>
<path d="M211.703 304.121C211.839 304.737 211.797 305.379 211.584 305.972C211.373 306.376 211.053 306.712 210.661 306.94C207.811 308.779 203.978 306.795 201.786 304.193C199.595 301.592 198.133 298.276 195.343 296.34C188.971 291.899 194.804 283.78 201.463 285.644C209.248 287.773 210.877 297.211 211.703 304.121Z" fill="#EACDB0"/>
<path d="M125.803 262.242C120.293 258.164 114.772 253.53 112.76 246.645C110.748 239.76 113.598 230.044 120.689 226.075C129.348 221.235 137.864 227.176 144.032 232.79C156.679 244.273 170.465 254.437 183.939 264.94C188.502 268.498 204.3 281.566 204.3 281.566C204.731 283.405 196.239 300.079 193.988 299.474C169.411 292.904 145.493 276.859 125.803 262.242Z" fill="#514943"/>
<path d="M249.538 270.168C254.928 267.518 260.318 264.323 262.485 257.959C264.653 251.594 262.198 241.115 255.515 235.283C247.37 228.168 239.058 231.895 232.974 235.9C220.53 244.092 207.032 250.65 193.821 257.68C189.414 260.004 173.844 268.958 173.844 268.958C173.377 270.688 181.03 289.6 183.174 289.528C206.9 289.443 230.255 279.642 249.538 270.168Z" fill="#514943"/>
<path d="M167.76 294.307C162.803 296.74 157.722 298.905 152.538 300.793C149.838 301.914 146.972 302.577 144.058 302.753C137.231 302.838 131.925 295.493 137.986 290.108C140.641 287.772 143.639 285.865 146.873 284.458C151.663 282.389 148.993 286.394 150.645 289.6C152.538 293.23 153.867 293.133 157.293 291.355C161.688 289.068 164.479 286.515 169.713 286.515C171.138 286.515 172.827 286.853 173.45 288.16C173.644 288.675 173.693 289.235 173.589 289.776C173.485 290.317 173.234 290.818 172.863 291.222C172.106 292.013 171.203 292.647 170.204 293.085L167.76 294.307Z" fill="#4D4D4D"/>
<path d="M114.402 238.042L184.228 215.862L270.594 220.351L221.74 242.132L114.402 238.042Z" fill="#E6E6E6"/>
<path d="M114.629 231.944L112.018 163.433L218.757 166.143L221.835 239.397L114.629 231.944Z" fill="#C6CCCC"/>
<path d="M269.109 220.255L222.003 239.325L221.836 239.409L221.967 236.021L114.63 231.944L114.402 237.994L220.686 242.035C220.703 242.29 220.78 242.537 220.911 242.755C221.043 242.973 221.225 243.156 221.441 243.287C221.657 243.419 221.902 243.496 222.154 243.512C222.406 243.528 222.659 243.482 222.89 243.378L269.995 224.32C272.319 223.437 271.468 219.311 269.109 220.255Z" fill="#B9C1C1"/>
<path d="M223.081 215.983C222.566 216.346 221.992 216.782 221.884 217.423C221.885 217.859 222.024 218.282 222.279 218.633C222.85 219.727 223.782 220.583 224.914 221.053C225.481 221.259 226.105 221.242 226.66 221.004C227.215 220.766 227.66 220.326 227.908 219.771C229.034 221.549 227.98 223.994 226.495 225.458C225.01 226.922 223.093 227.878 221.896 229.657C221.065 231.062 220.493 232.607 220.207 234.218C222.741 234.862 225.413 234.662 227.826 233.649C230.238 232.635 232.263 230.861 233.597 228.592C234.542 226.763 235.262 224.825 235.741 222.82C236.771 219.222 237.793 215.629 238.807 212.039C236.148 210.163 233.753 207.501 230.555 208.772C228.16 209.74 225.453 214.314 223.081 215.983Z" fill="#EACDB0"/>
<path d="M241.921 174.916C245.838 182.575 249.359 190.73 249.611 199.358C249.862 207.985 246.185 217.193 238.688 221.332C236.604 216.685 232.543 213.261 229.98 208.881C223.465 197.712 227.896 183.132 223.788 170.862C221.501 164.05 216.806 158.629 212.781 152.857C210.656 149.851 208.742 146.697 207.056 143.419C206.074 141.471 203.044 137.514 202.589 135.748C202.37 134.486 202.515 133.188 203.008 132.009C203.643 130.073 204.649 127.979 206.601 127.326C208.553 126.673 210.877 127.931 212.494 129.431C218.243 134.755 221.728 144.036 226.184 150.607C231.561 158.605 237.502 166.276 241.921 174.916Z" fill="#E49B00"/>
<path d="M192.527 126.479C192.305 126.743 192.052 126.979 191.773 127.181C190.497 127.975 189.068 128.487 187.581 128.681C185.704 129.214 183.729 129.284 181.82 128.887C175.76 127.108 178.514 116.642 179.173 112.286C175.233 110.821 170.705 108.595 170.107 103.961C169.988 102.472 170.097 100.975 170.43 99.52C171.468 93.4376 172.514 87.3513 173.568 81.261C173.817 79.1546 174.424 77.1077 175.365 75.2109C177.209 72.0165 180.682 70.5524 183.964 69.8264C192.348 67.975 201.39 69.7659 207.738 75.7433C209.536 77.3186 210.888 79.3479 211.655 81.6239C212.757 85.254 211.811 89.3559 210.852 93.1674C209.966 96.6764 209.084 100.185 208.205 103.694C207.187 107.736 205.75 112.334 202.217 113.931C200.384 114.778 198.229 114.597 196.552 115.831C193.102 118.348 194.839 123.672 192.527 126.479Z" fill="#EACDB0"/>
<path d="M181.773 76.0215C181.511 76.3094 181.282 76.626 181.09 76.9654C180.072 78.7078 180.084 80.9221 179.078 82.6766C177.485 85.4717 173.664 86.5607 172.526 89.5615C171.592 91.9816 172.826 94.7888 172.526 97.4024C172.119 100.246 169.808 102.545 169.52 105.376C169.421 108.262 169.982 111.132 171.161 113.762C170.838 113.072 166.801 112.479 165.891 111.62C165.346 111.176 164.916 110.605 164.639 109.956C164.361 109.306 164.244 108.598 164.298 107.893C164.167 106.139 164.849 104.578 164.466 102.726C163.975 100.452 162.442 98.5398 162.238 96.1924C161.963 92.9737 164.202 90.1423 164.717 86.8995C165.484 82.0595 162.322 76.7354 164.717 72.4762C166.119 70.0562 169.029 68.8462 170.946 66.6924C172.258 64.9667 173.413 63.1239 174.395 61.1868C175.593 59.3476 177.257 57.6294 179.413 57.4358C180.611 57.3269 181.809 57.7141 183.006 57.7262C185.078 57.7262 187.007 56.7098 189.067 56.4436C192.001 56.0685 196.253 59.8558 197.451 62.4936C198.648 65.1315 197.379 66.9828 195.331 68.7131C191.809 71.6534 184.791 72.5609 181.773 76.0215Z" fill="#454545"/>
<path d="M223.739 70.2133C225.14 71.7742 226.997 73.0689 228.219 74.7992C230.614 78.1873 230.267 82.749 229.56 86.8267C228.937 90.4568 229.859 94.0021 228.722 97.7168C228.387 98.9745 227.798 100.149 226.992 101.165C226.186 102.181 225.181 103.018 224.039 103.622C221.128 104.965 217.08 104.457 215.355 107.252C213.475 110.204 215.966 114.923 213.415 117.307C212.002 118.626 209.822 118.408 208.013 119.122C206.013 119.921 204.708 121.796 203.223 123.393C201.737 124.99 199.809 126.491 197.701 126.116C198.264 122.873 198.671 120.296 200.624 117.646C201.821 116.097 204.732 113.399 203.306 111.172C202.492 109.393 199.917 108.353 200.228 106.417C200.513 105.533 201.061 104.76 201.797 104.203C203.006 102.896 203.89 101.319 204.38 99.601C204.869 97.8828 204.948 96.072 204.612 94.3167C203.875 90.7888 201.88 87.6579 199.007 85.52C195.713 82.9911 196.491 82.2166 196.132 78.4656C195.809 75.0171 194.132 73.8797 191.473 72.113C189.078 70.5158 188.383 69.693 187.88 67.031C187.533 65.095 187.102 62.7597 188.515 60.9809C189.752 59.6365 191.27 58.5868 192.958 57.9075C196.36 56.2377 200.144 54.5316 203.738 55.548C205.762 56.1167 207.498 57.484 209.534 57.968C210.888 58.331 212.313 58.3068 213.69 58.5367C216.104 58.9466 218.317 60.1453 219.99 61.9489C221.607 63.7519 221.26 65.2281 221.919 67.4666C222.311 68.51 222.934 69.4494 223.739 70.2133Z" fill="#454545"/>
<path d="M213.883 55.27C213.978 52.9468 214.793 50.067 217.068 49.7403C218.266 49.5709 219.464 50.2847 220.781 50.2847C223.464 50.2847 224.973 47.3081 226.77 45.2995C227.013 44.9743 227.353 44.7368 227.74 44.6219C228.314 44.5921 228.886 44.7218 229.393 44.997C231.896 45.8319 234.351 43.6781 236.95 43.2425C238.57 43.0435 240.203 43.4989 241.493 44.5095C242.782 45.5201 243.625 47.0042 243.837 48.6391C243.957 49.9943 243.621 51.3496 243.705 52.6927C244.077 58.174 251.155 61.9129 250.281 67.3217C249.682 70.9517 245.49 73.7468 246.16 77.3889C246.616 79.7122 249.059 81.7329 248.28 83.9714C247.967 84.6683 247.421 85.2319 246.738 85.5636C246.055 85.8953 245.278 85.9742 244.544 85.7864C243.074 85.3651 241.801 84.4303 240.951 83.1486C239.489 81.2368 238.555 78.962 237.202 76.9655C235.848 74.969 233.86 73.166 231.477 72.9845C229.093 72.803 226.758 74.1945 224.59 73.3354C222.853 72.6578 221.847 70.7702 220.182 69.9595C218.518 69.1488 216.769 69.4997 215.044 69.2577C213.32 69.0157 211.451 67.6968 211.715 65.9664C211.846 65.5758 211.922 65.1685 211.942 64.7564C211.799 63.5464 209.906 63.2561 209.774 62.0703C210.972 60.8602 212.086 61.6225 213.092 59.9406C213.72 58.4696 213.991 56.8683 213.883 55.27Z" fill="#454545"/>
<path d="M147.366 43.7863C141.278 60.9202 95.1049 95.1882 95.1049 95.1882C95.1049 95.1882 81.0877 39.083 87.1762 21.9575C93.2647 4.83212 111.683 -4.15466 128.303 1.87651C144.924 7.90767 153.463 26.6608 147.366 43.7863Z" fill="#E49B00"/>
<path d="M131.908 36.6497C130.853 39.4453 129.005 41.8639 126.595 43.6022C124.184 45.3404 121.32 46.3208 118.36 46.4204C115.4 46.5201 112.477 45.7344 109.958 44.1621C107.439 42.5898 105.435 40.3008 104.198 37.5823C102.962 34.8638 102.547 31.837 103.007 28.8815C103.467 25.9259 104.78 23.1734 106.783 20.9692C108.785 18.765 111.387 17.2072 114.262 16.4914C117.138 15.7756 120.158 15.9336 122.945 16.9456C126.718 18.3599 129.782 21.2294 131.462 24.9239C133.143 28.6184 133.303 32.8358 131.908 36.6497Z" fill="white"/>
<path d="M91.3658 26.5237C96.6572 11.6514 112.65 3.83831 127.091 9.08132C131.109 10.5551 134.732 12.9522 137.676 16.0833C140.619 19.2145 142.801 22.994 144.051 27.1234C143.251 22.2233 141.174 17.6267 138.034 13.8056C134.894 9.98447 130.804 7.07652 126.184 5.38037C111.768 0.137366 95.7499 7.95045 90.4585 22.8228C88.3401 28.7444 88.1942 35.203 90.043 41.2161C89.2201 36.2854 89.6759 31.2235 91.3658 26.5237Z" fill="#F7AD0F"/>
<path d="M92.2295 80.7272C93.8152 89.2942 95.1042 95.1626 95.1042 95.1626C95.1042 95.1626 141.277 60.8946 147.365 43.7606C147.688 42.8611 147.959 41.953 148.213 41.0535C145.323 45.3611 142.029 49.3776 138.377 53.0473C128.337 63.1906 117.126 67.9624 104.627 74.6189C100.582 76.8121 96.444 78.8767 92.2295 80.7272Z" fill="#D89300"/>
<path d="M85.4248 181.623C83.8782 180.64 82.3242 179.639 80.7805 178.614C80.679 178.544 80.5646 178.496 80.4439 178.471C80.3231 178.446 80.1986 178.445 80.0774 178.469C79.9562 178.492 79.8408 178.539 79.738 178.608C79.6352 178.676 79.547 178.764 79.4786 178.867C79.4086 178.97 79.3596 179.086 79.3346 179.208C79.3096 179.33 79.309 179.456 79.3328 179.578C79.3567 179.7 79.4045 179.816 79.4735 179.92C79.5426 180.023 79.6315 180.112 79.7352 180.181L84.4122 183.218C84.6243 183.35 84.8805 183.393 85.1249 183.338C85.3694 183.282 85.5823 183.133 85.7172 182.922C85.7975 182.793 85.8464 182.647 85.8598 182.496C85.8732 182.345 85.8508 182.194 85.7944 182.053C85.7185 181.875 85.5895 181.725 85.4248 181.623ZM75.0998 177.043C73.5845 175.984 72.0974 174.893 70.5672 173.799C70.3666 173.653 70.2328 173.433 70.1952 173.188C70.1576 172.943 70.2192 172.693 70.3665 172.493C70.5138 172.292 70.7348 172.158 70.9807 172.12C71.2267 172.082 71.4776 172.142 71.6781 172.288L76.178 175.504C76.3345 175.621 76.443 175.791 76.4835 175.982C76.5449 176.128 76.5675 176.288 76.549 176.446C76.5305 176.604 76.4716 176.755 76.378 176.884C76.2232 177.059 76.0088 177.172 75.7762 177.2C75.5435 177.228 75.309 177.17 75.1177 177.035L75.0998 177.043ZM115.14 198.022C115.235 198.268 115.228 198.541 115.123 198.782C115.026 199.013 114.843 199.197 114.612 199.293C114.381 199.39 114.121 199.392 113.889 199.299L108.847 196.896C108.62 196.797 108.439 196.614 108.343 196.386C108.248 196.157 108.244 195.901 108.333 195.669C108.446 195.445 108.642 195.274 108.881 195.194C109.119 195.113 109.379 195.13 109.604 195.241C111.266 196.05 112.929 196.858 114.595 197.624C114.823 197.679 115.019 197.823 115.14 198.022ZM269.853 125.384C268.392 124.337 266.866 123.304 265.276 122.284C265.173 122.218 265.084 122.132 265.015 122.031C264.946 121.93 264.897 121.816 264.873 121.696C264.848 121.576 264.847 121.453 264.87 121.332C264.894 121.212 264.941 121.097 265.009 120.995C265.15 120.789 265.366 120.645 265.61 120.593C265.855 120.541 266.11 120.586 266.322 120.717C267.916 121.763 269.467 122.807 270.949 123.837C271.093 123.941 271.204 124.083 271.268 124.247C271.343 124.435 271.356 124.642 271.304 124.838C271.252 125.033 271.139 125.208 270.98 125.335C270.822 125.462 270.627 125.535 270.424 125.544C270.221 125.553 270.021 125.497 269.853 125.384ZM66.1016 170.464C64.6225 169.342 63.1563 168.2 61.703 167.039C61.5095 166.884 61.3851 166.659 61.3566 166.413C61.3282 166.167 61.3979 165.919 61.5507 165.723C61.6266 165.625 61.7213 165.543 61.8292 165.482C61.9372 165.421 62.0562 165.382 62.1793 165.368C62.3024 165.353 62.4271 165.363 62.5461 165.397C62.6651 165.431 62.7759 165.489 62.8721 165.566C64.3204 166.716 65.7866 167.858 67.2557 168.956C67.3846 169.064 67.4853 169.201 67.5493 169.356C67.6237 169.547 67.6339 169.756 67.5783 169.954C67.5227 170.151 67.4044 170.325 67.2412 170.45C67.0779 170.575 66.8786 170.644 66.6731 170.647C66.4676 170.649 66.267 170.585 66.1016 170.464ZM105.034 193.163C105.086 193.29 105.112 193.428 105.108 193.566C105.104 193.704 105.072 193.84 105.014 193.966C104.955 194.076 104.875 194.173 104.778 194.252C104.682 194.331 104.571 194.391 104.451 194.427C104.332 194.464 104.207 194.476 104.083 194.465C103.958 194.453 103.838 194.417 103.728 194.358C102.086 193.499 100.444 192.64 98.8052 191.738C98.6125 191.606 98.4759 191.407 98.4218 191.18C98.3677 190.953 98.3998 190.714 98.512 190.508C98.6242 190.303 98.8086 190.146 99.0296 190.068C99.2506 189.989 99.4926 189.995 99.709 190.084C101.348 190.986 102.972 191.852 104.606 192.694C104.808 192.788 104.972 192.948 105.07 193.148L105.034 193.163ZM255.751 116.554C255.537 116.429 255.381 116.225 255.316 115.987C255.251 115.748 255.283 115.493 255.405 115.277C255.533 115.061 255.741 114.903 255.984 114.837C256.226 114.77 256.485 114.8 256.705 114.92C258.349 115.883 259.959 116.818 261.516 117.776C261.683 117.876 261.812 118.027 261.886 118.206C261.96 118.388 261.974 118.589 261.927 118.781C261.881 118.972 261.776 119.145 261.626 119.274C261.477 119.404 261.291 119.483 261.094 119.502C260.898 119.522 260.7 119.479 260.529 119.381C258.926 118.464 257.333 117.522 255.751 116.554ZM94.9144 187.368C95.0929 187.465 95.2323 187.621 95.3093 187.809C95.3633 187.943 95.3869 188.087 95.3785 188.232C95.37 188.376 95.3297 188.517 95.2604 188.645C95.1344 188.858 94.9295 189.015 94.6897 189.08C94.4499 189.145 94.1943 189.114 93.9778 188.994C92.3672 188.059 90.7565 187.124 89.1563 186.164C88.9407 186.035 88.7856 185.826 88.7251 185.583C88.6645 185.34 88.7035 185.082 88.8334 184.867C88.9634 184.652 89.1736 184.496 89.4179 184.435C89.6622 184.374 89.9205 184.412 90.1361 184.541C91.7184 185.508 93.3291 186.443 94.9144 187.368ZM245.972 111.222C245.753 111.104 245.588 110.906 245.512 110.669C245.436 110.432 245.455 110.174 245.565 109.95C245.681 109.727 245.88 109.559 246.12 109.482C246.36 109.405 246.62 109.426 246.843 109.54C248.529 110.402 250.178 111.279 251.777 112.135C251.974 112.232 252.126 112.399 252.204 112.604C252.276 112.784 252.29 112.982 252.245 113.17C252.2 113.359 252.098 113.529 251.952 113.659C251.807 113.788 251.626 113.87 251.433 113.893C251.239 113.917 251.044 113.88 250.873 113.789C249.322 112.997 247.68 112.138 245.972 111.222ZM238.83 217.377C240.681 217.082 242.5 216.758 244.279 216.389C244.493 216.348 244.715 216.381 244.907 216.483C245.099 216.585 245.25 216.75 245.334 216.951L245.408 217.129C245.432 217.251 245.431 217.376 245.406 217.498C245.381 217.62 245.332 217.736 245.262 217.839C245.192 217.942 245.102 218.03 244.998 218.099C244.894 218.168 244.777 218.215 244.655 218.239C242.851 218.598 241.006 218.911 239.137 219.213C239.015 219.233 238.891 219.228 238.772 219.2C238.652 219.171 238.539 219.12 238.44 219.048C238.34 218.976 238.256 218.885 238.192 218.78C238.128 218.676 238.085 218.56 238.066 218.439C238.047 218.318 238.052 218.194 238.081 218.075C238.11 217.956 238.163 217.843 238.235 217.744C238.308 217.644 238.399 217.56 238.504 217.496C238.609 217.432 238.726 217.389 238.847 217.369L238.83 217.377ZM249.696 215.227C251.596 214.745 253.309 214.319 255.053 213.818C255.277 213.755 255.517 213.776 255.726 213.877C255.935 213.979 256.099 214.153 256.187 214.368L256.224 214.457C256.293 214.696 256.264 214.954 256.143 215.173C256.022 215.392 255.82 215.555 255.579 215.626C253.792 216.124 251.979 216.612 250.144 217.047C249.899 217.103 249.643 217.062 249.428 216.934C249.214 216.805 249.058 216.599 248.994 216.358C248.961 216.233 248.954 216.102 248.975 215.974C248.996 215.846 249.044 215.723 249.115 215.614C249.186 215.506 249.28 215.413 249.389 215.342C249.499 215.272 249.621 215.225 249.75 215.204L249.696 215.227ZM57.3715 163.523C55.9514 162.341 54.524 161.141 53.1248 159.908C52.9749 159.737 52.8925 159.516 52.8927 159.288C52.893 159.06 52.9759 158.84 53.1262 158.668C53.2765 158.495 53.484 158.382 53.7106 158.35C53.9372 158.318 54.1676 158.368 54.3594 158.492C55.7511 159.707 57.1711 160.889 58.5733 162.078C58.6915 162.169 58.7848 162.288 58.8445 162.425C58.9117 162.582 58.9339 162.755 58.9084 162.924C58.8829 163.094 58.8109 163.253 58.7003 163.384C58.5412 163.577 58.3124 163.7 58.0635 163.726C57.8147 163.752 57.566 163.679 57.3715 163.523ZM227.869 218.751C229.729 218.577 231.575 218.368 233.388 218.131C233.591 218.109 233.796 218.153 233.972 218.256C234.148 218.36 234.285 218.517 234.364 218.705C234.413 218.774 234.446 218.853 234.461 218.936C234.491 219.183 234.421 219.433 234.268 219.63C234.115 219.828 233.89 219.957 233.642 219.99C231.821 220.209 229.958 220.426 228.072 220.589C227.949 220.6 227.826 220.588 227.709 220.552C227.592 220.516 227.483 220.457 227.389 220.379C227.295 220.301 227.217 220.205 227.16 220.097C227.104 219.989 227.069 219.871 227.058 219.749C227.047 219.627 227.06 219.505 227.096 219.388C227.133 219.271 227.192 219.163 227.271 219.068C227.35 218.974 227.446 218.896 227.555 218.839C227.663 218.782 227.782 218.747 227.904 218.736L227.869 218.751ZM260.417 212.177C262.257 211.552 263.939 210.952 265.623 210.308C265.85 210.219 266.102 210.221 266.326 210.315C266.55 210.409 266.728 210.587 266.821 210.81C266.867 210.925 266.889 211.049 266.887 211.173C266.885 211.297 266.858 211.42 266.808 211.534C266.758 211.648 266.686 211.751 266.597 211.838C266.507 211.924 266.401 211.992 266.285 212.038C264.605 212.742 262.794 213.334 260.99 213.944C260.751 214.012 260.495 213.987 260.275 213.873C260.055 213.759 259.888 213.565 259.808 213.331C259.737 213.098 259.761 212.846 259.875 212.63C259.989 212.414 260.184 212.251 260.417 212.177ZM222.328 219.17C222.524 219.157 222.719 219.205 222.886 219.307C223.053 219.409 223.184 219.561 223.261 219.741C223.318 219.828 223.358 219.924 223.38 220.025C223.394 220.274 223.309 220.518 223.143 220.705C222.977 220.891 222.745 221.006 222.496 221.023C220.648 221.128 218.776 221.223 216.888 221.282C216.654 221.266 216.434 221.164 216.272 220.995C216.109 220.826 216.016 220.603 216.009 220.369C216.003 220.135 216.084 219.906 216.236 219.728C216.389 219.549 216.603 219.433 216.836 219.402C218.652 219.373 220.506 219.285 222.328 219.17ZM178.099 217.028C178.257 217.051 178.406 217.115 178.531 217.213C178.657 217.31 178.755 217.438 178.816 217.585C178.885 217.741 178.906 217.914 178.877 218.082C178.837 218.328 178.701 218.548 178.5 218.695C178.298 218.842 178.046 218.905 177.799 218.868C175.961 218.593 174.14 218.311 172.282 217.939C172.161 217.917 172.046 217.872 171.943 217.805C171.84 217.739 171.751 217.653 171.681 217.552C171.612 217.451 171.563 217.337 171.537 217.217C171.512 217.097 171.51 216.973 171.533 216.853C171.555 216.732 171.601 216.617 171.669 216.514C171.736 216.411 171.823 216.322 171.924 216.252C172.026 216.183 172.14 216.133 172.26 216.108C172.381 216.082 172.505 216.08 172.626 216.102C174.432 216.349 176.249 216.674 178.099 217.028ZM200.088 219.354C200.265 219.365 200.434 219.426 200.577 219.529C200.72 219.631 200.832 219.771 200.899 219.934C200.983 220.043 201.037 220.171 201.055 220.307C201.042 220.556 200.93 220.79 200.744 220.958C200.559 221.125 200.315 221.214 200.065 221.203C198.215 221.101 196.357 220.98 194.484 220.824C194.362 220.815 194.243 220.782 194.133 220.727C194.024 220.672 193.926 220.596 193.846 220.503C193.766 220.41 193.706 220.303 193.668 220.186C193.63 220.07 193.615 219.948 193.625 219.825C193.634 219.703 193.668 219.584 193.723 219.475C193.779 219.366 193.856 219.268 193.949 219.188C194.043 219.109 194.151 219.048 194.268 219.009C194.384 218.971 194.507 218.956 194.63 218.965C196.465 219.032 198.305 219.16 200.148 219.245L200.088 219.354ZM299.068 157.486C298.35 155.823 297.537 154.202 296.634 152.631C296.517 152.413 296.488 152.159 296.551 151.919C296.614 151.68 296.765 151.472 296.975 151.338C297.196 151.216 297.456 151.184 297.7 151.25C297.943 151.316 298.151 151.474 298.278 151.691C299.209 153.327 300.049 155.013 300.794 156.742C300.893 156.978 300.894 157.243 300.796 157.48C300.698 157.717 300.51 157.906 300.273 158.006C300.036 158.105 299.77 158.106 299.532 158.01C299.295 157.913 299.106 157.727 299.007 157.491L299.068 157.486ZM278.531 132.201C277.152 131.065 275.703 129.915 274.194 128.771C274 128.618 273.873 128.396 273.842 128.152C273.81 127.907 273.875 127.66 274.024 127.462C274.097 127.362 274.189 127.277 274.296 127.214C274.402 127.15 274.521 127.109 274.644 127.093C274.767 127.076 274.892 127.085 275.011 127.119C275.131 127.152 275.242 127.21 275.338 127.288C276.872 128.443 278.392 129.562 279.733 130.756C279.847 130.85 279.934 130.972 279.987 131.11C280.058 131.266 280.083 131.44 280.057 131.611C280.032 131.781 279.957 131.941 279.842 132.07C279.673 132.228 279.452 132.318 279.22 132.322C278.989 132.326 278.764 132.244 278.591 132.092L278.531 132.201ZM300.93 178.576C301.4 176.843 301.705 175.069 301.842 173.28C301.867 173.032 301.988 172.804 302.179 172.642C302.37 172.48 302.615 172.398 302.865 172.412C303.039 172.428 303.205 172.491 303.345 172.595C303.485 172.699 303.593 172.839 303.658 173C303.71 173.137 303.735 173.282 303.732 173.429C303.57 175.336 303.237 177.225 302.736 179.074C302.702 179.192 302.646 179.302 302.57 179.399C302.494 179.496 302.4 179.577 302.292 179.637C302.185 179.698 302.067 179.737 301.945 179.752C301.822 179.767 301.698 179.758 301.58 179.725C301.461 179.693 301.35 179.637 301.254 179.561C301.157 179.486 301.076 179.392 301.015 179.286C300.955 179.179 300.917 179.061 300.902 178.939C300.887 178.818 300.897 178.694 300.93 178.576ZM212.112 220.566C212.116 220.689 212.094 220.812 212.048 220.926C212.002 221.04 211.934 221.145 211.847 221.232C211.759 221.319 211.655 221.388 211.541 221.434C211.426 221.481 211.303 221.503 211.18 221.5C209.339 221.519 207.457 221.493 205.568 221.448C205.333 221.42 205.118 221.307 204.963 221.129C204.809 220.951 204.727 220.722 204.734 220.486C204.74 220.251 204.834 220.026 204.998 219.856C205.162 219.685 205.384 219.582 205.62 219.565C207.491 219.618 209.347 219.634 211.17 219.623C211.357 219.623 211.539 219.677 211.694 219.779C211.849 219.882 211.97 220.027 212.042 220.198C212.101 220.276 212.145 220.364 212.172 220.457L212.112 220.566ZM188.895 220.323C187.068 220.127 185.209 219.902 183.343 219.66C183.208 219.66 183.075 219.63 182.953 219.575C182.831 219.519 182.722 219.438 182.634 219.337C182.546 219.236 182.48 219.117 182.442 218.989C182.403 218.861 182.393 218.726 182.41 218.593C182.428 218.46 182.474 218.332 182.545 218.218C182.616 218.104 182.711 218.006 182.823 217.931C182.935 217.856 183.061 217.806 183.194 217.783C183.326 217.76 183.462 217.766 183.592 217.799C185.441 218.049 187.305 218.334 189.101 218.459C189.269 218.472 189.43 218.531 189.567 218.628C189.704 218.725 189.812 218.858 189.879 219.012C189.943 219.163 189.962 219.329 189.933 219.491C189.887 219.73 189.75 219.942 189.551 220.084C189.352 220.226 189.107 220.286 188.865 220.252L188.895 220.323ZM289.156 197.665C288.991 197.482 288.904 197.241 288.914 196.995C288.925 196.748 289.032 196.515 289.212 196.345C290.572 195.128 291.861 193.834 293.072 192.469C293.154 192.375 293.254 192.298 293.366 192.243C293.477 192.188 293.599 192.156 293.724 192.149C293.848 192.142 293.972 192.16 294.09 192.201C294.207 192.243 294.314 192.307 294.406 192.391C294.484 192.503 294.537 192.631 294.562 192.765C294.631 192.924 294.652 193.1 294.623 193.272C294.595 193.443 294.517 193.603 294.4 193.732C293.146 195.154 291.809 196.503 290.398 197.772C290.214 197.911 289.985 197.977 289.756 197.957C289.526 197.937 289.312 197.833 289.156 197.665ZM270.213 209.326C270.158 209.215 270.126 209.093 270.12 208.969C270.114 208.845 270.133 208.721 270.177 208.605C270.221 208.489 270.288 208.382 270.374 208.293C270.461 208.203 270.565 208.132 270.68 208.084C272.468 207.335 274.07 206.496 275.655 205.665C275.877 205.549 276.135 205.524 276.373 205.596C276.612 205.669 276.812 205.832 276.931 206.05C277.021 206.265 277.027 206.505 276.948 206.725C276.869 206.944 276.709 207.126 276.502 207.234C274.874 208.097 273.185 208.93 271.434 209.734C271.227 209.826 270.994 209.842 270.777 209.781C270.559 209.719 270.37 209.583 270.243 209.397L270.213 209.326ZM301.825 167.726C301.65 165.934 301.328 164.16 300.863 162.421C300.798 162.179 300.833 161.922 300.958 161.704C301.084 161.487 301.291 161.328 301.533 161.262C301.752 161.209 301.983 161.234 302.186 161.332C302.388 161.431 302.549 161.596 302.642 161.801L302.694 161.925C303.201 163.762 303.545 165.64 303.722 167.537C303.718 167.77 303.628 167.994 303.469 168.165C303.31 168.337 303.094 168.444 302.861 168.466C302.628 168.489 302.395 168.425 302.208 168.287C302.02 168.149 301.89 167.946 301.843 167.718L301.825 167.726ZM280.13 204.208C280.062 204.104 280.017 203.988 279.995 203.866C279.973 203.744 279.977 203.619 280.004 203.498C280.032 203.378 280.084 203.263 280.157 203.163C280.229 203.062 280.321 202.977 280.428 202.912C282.006 201.916 283.545 200.874 284.972 199.816C285.175 199.668 285.427 199.606 285.675 199.643C285.923 199.68 286.146 199.813 286.295 200.014L286.377 200.21C286.462 200.399 286.48 200.612 286.427 200.814C286.373 201.015 286.252 201.192 286.084 201.315C284.611 202.414 283.026 203.496 281.411 204.507C281.211 204.63 280.972 204.675 280.74 204.633C280.509 204.591 280.302 204.465 280.16 204.279L280.13 204.208ZM296.672 189.476C296.569 189.407 296.48 189.318 296.411 189.215C296.342 189.111 296.294 188.995 296.27 188.873C296.246 188.751 296.247 188.625 296.272 188.503C296.297 188.381 296.346 188.265 296.416 188.162C297.428 186.667 298.323 185.097 299.091 183.465C299.188 183.235 299.371 183.051 299.602 182.954C299.833 182.857 300.093 182.855 300.325 182.948C300.534 183.053 300.697 183.229 300.785 183.445C300.885 183.686 300.885 183.957 300.786 184.198C299.961 185.916 299.012 187.572 297.944 189.152C297.83 189.367 297.636 189.529 297.403 189.603C297.171 189.676 296.919 189.657 296.702 189.547L296.672 189.476ZM134.468 207.736C132.779 207.05 131.031 206.389 129.223 205.752C129.11 205.706 129.007 205.639 128.92 205.553C128.833 205.468 128.764 205.366 128.717 205.253C128.67 205.141 128.646 205.02 128.646 204.898C128.646 204.777 128.67 204.656 128.716 204.543C128.813 204.312 128.996 204.129 129.227 204.032C129.458 203.935 129.718 203.933 129.95 204.026C131.682 204.701 133.418 205.332 135.176 206.017C135.3 206.054 135.413 206.119 135.508 206.206C135.603 206.293 135.676 206.4 135.723 206.52C135.771 206.627 135.796 206.743 135.799 206.86C135.801 206.978 135.78 207.095 135.737 207.204C135.691 207.324 135.621 207.433 135.531 207.526C135.442 207.618 135.334 207.691 135.216 207.741C135.097 207.791 134.969 207.816 134.841 207.815C134.712 207.814 134.585 207.787 134.468 207.736ZM286.617 139.559C285.368 138.284 284.051 136.997 282.662 135.739C282.481 135.568 282.375 135.334 282.366 135.086C282.358 134.837 282.448 134.595 282.616 134.412C282.785 134.229 283.019 134.119 283.268 134.106C283.517 134.093 283.761 134.178 283.947 134.343C285.351 135.636 286.701 136.952 287.964 138.263C288.034 138.357 288.08 138.467 288.099 138.583C288.172 138.784 288.175 139.004 288.106 139.207C288.038 139.41 287.902 139.584 287.722 139.701C287.542 139.818 287.327 139.871 287.113 139.85C286.899 139.83 286.699 139.738 286.545 139.589L286.617 139.559ZM125.202 202.524C125.25 202.641 125.274 202.766 125.272 202.892C125.271 203.018 125.245 203.143 125.194 203.259C125.148 203.372 125.08 203.475 124.993 203.562C124.907 203.649 124.805 203.718 124.692 203.765C124.579 203.812 124.458 203.837 124.335 203.838C124.213 203.838 124.092 203.815 123.979 203.768C122.256 203.069 120.545 202.343 118.854 201.568C118.74 201.522 118.637 201.454 118.551 201.369C118.464 201.283 118.395 201.181 118.348 201.069C118.301 200.956 118.276 200.836 118.276 200.714C118.276 200.592 118.3 200.471 118.347 200.358C118.443 200.128 118.627 199.944 118.858 199.847C119.089 199.75 119.348 199.748 119.58 199.841C121.282 200.592 122.976 201.325 124.69 202.007C124.816 202.043 124.933 202.106 125.033 202.189C125.134 202.273 125.215 202.377 125.273 202.494L125.202 202.524ZM161.319 215.697C161.076 215.64 160.866 215.49 160.734 215.279C160.603 215.068 160.56 214.813 160.615 214.57C160.642 214.449 160.693 214.334 160.764 214.233C160.836 214.131 160.928 214.045 161.033 213.979C161.139 213.914 161.257 213.87 161.38 213.85C161.503 213.831 161.628 213.836 161.749 213.865C163.561 214.277 165.365 214.671 167.179 215.039C167.327 215.072 167.466 215.14 167.583 215.236C167.7 215.332 167.792 215.455 167.853 215.593C167.919 215.753 167.94 215.927 167.913 216.097C167.887 216.268 167.814 216.428 167.703 216.561C167.592 216.693 167.447 216.793 167.283 216.85C167.12 216.907 166.944 216.917 166.775 216.882C164.894 216.457 163.119 216.03 161.319 215.697ZM156.986 213.081C157.071 213.272 157.087 213.487 157.031 213.689C156.965 213.928 156.808 214.132 156.593 214.257C156.378 214.382 156.123 214.419 155.883 214.358C154.092 213.896 152.294 213.416 150.48 212.901C150.361 212.869 150.25 212.814 150.152 212.739C150.055 212.664 149.974 212.57 149.913 212.463C149.853 212.356 149.814 212.238 149.8 212.116C149.786 211.993 149.796 211.87 149.831 211.751C149.903 211.512 150.066 211.309 150.285 211.186C150.504 211.063 150.762 211.03 151.004 211.092C152.792 211.598 154.572 212.085 156.363 212.547C156.489 212.58 156.606 212.637 156.708 212.717C156.81 212.796 156.895 212.896 156.956 213.009L156.986 213.081ZM293.774 147.913C292.753 146.48 291.621 145.031 290.409 143.594C290.25 143.403 290.173 143.157 290.195 142.909C290.217 142.661 290.336 142.431 290.526 142.27C290.621 142.188 290.73 142.126 290.848 142.088C290.967 142.049 291.092 142.035 291.216 142.046C291.34 142.056 291.46 142.091 291.57 142.149C291.68 142.207 291.777 142.286 291.855 142.382C293.1 143.846 294.254 145.349 295.316 146.828L295.39 147.005C295.478 147.202 295.494 147.424 295.435 147.632C295.376 147.839 295.247 148.02 295.069 148.144C294.864 148.28 294.615 148.331 294.374 148.288C294.132 148.245 293.917 148.111 293.774 147.913ZM139.785 209.543C139.672 209.497 139.569 209.429 139.482 209.344C139.395 209.258 139.326 209.156 139.279 209.044C139.232 208.932 139.208 208.811 139.207 208.689C139.207 208.567 139.231 208.446 139.278 208.333C139.357 208.096 139.527 207.898 139.751 207.785C139.975 207.671 140.235 207.651 140.474 207.728C142.238 208.326 144.005 208.882 145.747 209.428C145.88 209.463 146.004 209.528 146.108 209.619C146.211 209.71 146.292 209.823 146.344 209.951C146.426 210.152 146.438 210.375 146.379 210.585C146.344 210.705 146.285 210.816 146.205 210.913C146.126 211.01 146.028 211.09 145.917 211.148C145.806 211.207 145.684 211.242 145.559 211.252C145.434 211.263 145.309 211.248 145.19 211.208C143.316 210.697 141.531 210.149 139.749 209.558L139.785 209.543Z" fill="#514943"/>
<path d="M17.2394 124.485C12.6774 119.407 7.98724 112.451 9.06933 111.454C10.1514 110.458 16.6478 115.836 21.1255 120.917L22.3428 122.278L27.8975 122.283L26.6802 120.922C26.6461 120.877 26.6214 120.826 26.6074 120.771C26.5935 120.716 26.5907 120.659 26.5991 120.604C26.6075 120.548 26.627 120.494 26.6564 120.446C26.6859 120.397 26.7247 120.355 26.7705 120.322L28.0909 119.123C28.1306 119.08 28.1788 119.046 28.2324 119.022C28.286 118.998 28.3439 118.986 28.4025 118.985C28.4611 118.985 28.5191 118.996 28.5729 119.019C28.6267 119.042 28.6753 119.076 28.7154 119.118L29.9328 120.479C29.9653 120.512 29.9903 120.551 30.0063 120.594C30.0222 120.637 30.0287 120.683 30.0252 120.728L31.4443 122.326L38.1887 122.315L36.9807 120.979C36.9466 120.934 36.9218 120.882 36.9079 120.828C36.894 120.773 36.8912 120.716 36.8996 120.66C36.908 120.604 36.9275 120.551 36.9569 120.502C36.9863 120.454 37.0251 120.412 37.071 120.378L38.3914 119.18C38.4311 119.137 38.4793 119.102 38.5329 119.079C38.5865 119.055 38.6444 119.042 38.703 119.042C38.7615 119.041 38.8196 119.053 38.8734 119.076C38.9272 119.099 38.9757 119.132 39.0159 119.175L40.2332 120.536C40.2657 120.568 40.2908 120.607 40.3068 120.65C40.3227 120.693 40.3292 120.739 40.3257 120.785L41.7013 122.342C47.4088 122.376 52.4234 122.384 52.5604 122.446C53.3223 123.14 54.0294 123.891 54.6758 124.692C54.9643 124.956 55.1982 125.273 55.3644 125.626C54.9902 125.389 54.6582 125.091 54.382 124.745L43.3247 126.867C43.6413 127.26 43.7957 127.599 43.639 127.714C43.4824 127.829 43.0842 127.523 42.6556 127.059L40.4491 127.482C40.7564 127.849 40.9109 128.189 40.7542 128.303C40.5975 128.418 40.1743 128.122 39.7615 127.624L37.7644 127.997L36.5094 128.605C36.9037 129.053 37.111 129.458 37.0044 129.554C36.8977 129.651 36.4245 129.373 36.0209 128.9L33.6201 130.103C33.9802 130.536 34.1874 130.94 33.9807 131.074C33.774 131.207 33.4259 130.883 32.9972 130.419L30.5872 131.597C33.6273 135.03 34.7946 136.409 37.0617 138.911C39.1744 141.264 41.1483 143.738 42.9736 146.32C46.1397 146.334 52.4533 146.313 52.4533 146.313L53.855 147.634L46.3383 151.7C46.5528 152.148 46.7261 152.615 46.856 153.094C47.7437 154.181 48.249 154.928 48.1424 155.025C48.0358 155.121 47.3765 154.572 46.4007 153.632C45.9403 153.36 45.4965 153.061 45.0718 152.737L40.1942 159.846L39.0308 158.323L40.043 148.626C38.0097 146.831 35.7469 144.725 33.335 142.448C30.5245 139.327 29.2228 137.968 26.6076 135.143L25.217 137.303C25.6456 137.767 25.8806 138.246 25.7739 138.343C25.6673 138.439 25.2626 138.192 24.8775 137.769L23.3671 140.143C23.7958 140.607 24.0307 141.086 23.9241 141.183C23.8174 141.279 23.4127 141.032 23.0276 140.609L22.2725 141.796L21.6853 143.742C22.0982 144.241 22.3489 144.686 22.2515 144.807C22.1541 144.928 21.8087 144.688 21.4606 144.364L20.8288 146.497C21.2574 146.961 21.5174 147.431 21.3858 147.536C21.2541 147.642 20.943 147.418 20.5856 147.069L17.3451 157.82C17.6566 158.138 17.9237 158.496 18.1393 158.885C18.1393 158.885 17.6911 158.598 17.2532 158.109C16.5191 157.382 15.8394 156.602 15.2194 155.776C15.1639 155.626 15.6404 150.775 16.2306 145.003L14.8642 143.47C14.8151 143.477 14.7651 143.472 14.7187 143.454C14.6724 143.437 14.6313 143.408 14.5993 143.37L13.357 142.018C13.2862 141.924 13.255 141.807 13.2702 141.69C13.2853 141.573 13.3456 141.467 13.4381 141.393L14.7585 140.195C14.8423 140.114 14.9539 140.069 15.0701 140.068C15.1863 140.067 15.2983 140.111 15.383 140.189L16.591 141.526L17.5584 134.622L16.1485 133.049C16.1485 133.049 15.9733 133.114 15.8743 132.924L14.632 131.572C14.5979 131.527 14.5731 131.476 14.5592 131.421C14.5453 131.367 14.5425 131.31 14.5509 131.254C14.5593 131.198 14.5788 131.144 14.6082 131.096C14.6377 131.048 14.6764 131.005 14.7223 130.972L16.0427 129.774C16.0824 129.731 16.1306 129.696 16.1842 129.672C16.2378 129.649 16.2957 129.636 16.3543 129.636C16.4128 129.635 16.4709 129.647 16.5247 129.67C16.5785 129.692 16.6271 129.726 16.6672 129.768L17.8845 131.129L18.4633 125.787L17.2394 124.485Z" fill="#E49B00"/>
</svg>
