<svg width="829" height="160" viewBox="0 0 829 160" fill="none" xmlns="http://www.w3.org/2000/svg">
<path d="M8.51047 136L8.51047 124.752H10.6385L10.6385 136H8.51047ZM5.72647 126.64V124.752H10.4145L10.4145 126.64H5.72647ZM5.72647 136V134.112H12.8945V136H5.72647ZM16.316 136.16C15.932 136.16 15.6173 136.032 15.372 135.776C15.1266 135.52 15.004 135.205 15.004 134.832C15.004 134.459 15.1266 134.144 15.372 133.888C15.6173 133.632 15.932 133.504 16.316 133.504C16.6893 133.504 16.9986 133.632 17.244 133.888C17.4893 134.144 17.612 134.459 17.612 134.832C17.612 135.205 17.4893 135.52 17.244 135.776C16.9986 136.032 16.6893 136.16 16.316 136.16ZM28.416 136.16C27.5093 136.16 26.7307 136.005 26.08 135.696C25.44 135.387 24.8587 134.923 24.336 134.304L25.776 132.864C26.1067 133.301 26.4907 133.643 26.928 133.888C27.3653 134.123 27.8987 134.24 28.528 134.24C29.0933 134.24 29.5413 134.128 29.872 133.904C30.2133 133.68 30.384 133.371 30.384 132.976C30.384 132.635 30.288 132.357 30.096 132.144C29.904 131.931 29.648 131.749 29.328 131.6C29.0187 131.451 28.672 131.317 28.288 131.2C27.9147 131.072 27.536 130.928 27.152 130.768C26.7787 130.608 26.432 130.411 26.112 130.176C25.8027 129.931 25.552 129.621 25.36 129.248C25.168 128.864 25.072 128.384 25.072 127.808C25.072 127.125 25.2373 126.544 25.568 126.064C25.8987 125.584 26.352 125.216 26.928 124.96C27.504 124.704 28.1547 124.576 28.88 124.576C29.648 124.576 30.3413 124.72 30.96 125.008C31.5787 125.296 32.0853 125.669 32.48 126.128L31.04 127.568C30.7093 127.205 30.368 126.939 30.016 126.768C29.6747 126.597 29.2853 126.512 28.848 126.512C28.3467 126.512 27.952 126.608 27.664 126.8C27.376 126.992 27.232 127.269 27.232 127.632C27.232 127.941 27.328 128.192 27.52 128.384C27.712 128.576 27.9627 128.741 28.272 128.88C28.592 129.019 28.9387 129.152 29.312 129.28C29.696 129.408 30.0747 129.552 30.448 129.712C30.832 129.872 31.1787 130.08 31.488 130.336C31.808 130.592 32.064 130.923 32.256 131.328C32.448 131.723 32.544 132.213 32.544 132.8C32.544 133.845 32.176 134.667 31.44 135.264C30.704 135.861 29.696 136.16 28.416 136.16ZM39.2374 136V131.568C39.2374 131.109 39.0934 130.736 38.8054 130.448C38.5174 130.16 38.144 130.016 37.6854 130.016C37.3867 130.016 37.12 130.08 36.8854 130.208C36.6507 130.336 36.464 130.517 36.3254 130.752C36.1974 130.987 36.1334 131.259 36.1334 131.568L35.3174 131.152C35.3174 130.544 35.4454 130.016 35.7014 129.568C35.9574 129.109 36.3094 128.752 36.7574 128.496C37.216 128.24 37.7387 128.112 38.3254 128.112C38.912 128.112 39.4294 128.24 39.8774 128.496C40.336 128.752 40.6934 129.104 40.9494 129.552C41.2054 130 41.3334 130.517 41.3334 131.104V136H39.2374ZM34.0374 136V124.432H36.1334V136H34.0374ZM46.2538 136.16C45.5498 136.16 44.9151 135.984 44.3498 135.632C43.7844 135.28 43.3418 134.8 43.0218 134.192C42.7018 133.584 42.5418 132.901 42.5418 132.144C42.5418 131.376 42.7018 130.688 43.0218 130.08C43.3418 129.472 43.7844 128.992 44.3498 128.64C44.9151 128.288 45.5498 128.112 46.2538 128.112C46.8084 128.112 47.3044 128.224 47.7418 128.448C48.1791 128.672 48.5258 128.987 48.7818 129.392C49.0484 129.787 49.1924 130.235 49.2138 130.736V133.52C49.1924 134.032 49.0484 134.485 48.7818 134.88C48.5258 135.275 48.1791 135.589 47.7418 135.824C47.3044 136.048 46.8084 136.16 46.2538 136.16ZM46.6378 134.224C47.2244 134.224 47.6991 134.032 48.0618 133.648C48.4244 133.253 48.6058 132.747 48.6058 132.128C48.6058 131.723 48.5204 131.365 48.3498 131.056C48.1898 130.736 47.9604 130.491 47.6618 130.32C47.3738 130.139 47.0324 130.048 46.6378 130.048C46.2538 130.048 45.9124 130.139 45.6138 130.32C45.3258 130.491 45.0964 130.736 44.9258 131.056C44.7658 131.365 44.6858 131.723 44.6858 132.128C44.6858 132.544 44.7658 132.912 44.9258 133.232C45.0964 133.541 45.3258 133.787 45.6138 133.968C45.9124 134.139 46.2538 134.224 46.6378 134.224ZM48.4938 136V133.92L48.8298 132.032L48.4938 130.176V128.272H50.5738V136H48.4938ZM52.428 136V128.272H54.524V136H52.428ZM54.524 131.728L53.708 131.184C53.804 130.235 54.0813 129.488 54.54 128.944C54.9987 128.389 55.66 128.112 56.524 128.112C56.8973 128.112 57.2333 128.176 57.532 128.304C57.8307 128.421 58.1027 128.619 58.348 128.896L57.036 130.4C56.9187 130.272 56.7747 130.176 56.604 130.112C56.444 130.048 56.2573 130.016 56.044 130.016C55.596 130.016 55.228 130.16 54.94 130.448C54.6627 130.725 54.524 131.152 54.524 131.728ZM62.5615 136.16C61.7508 136.16 61.0308 135.989 60.4015 135.648C59.7722 135.296 59.2708 134.816 58.8975 134.208C58.5348 133.6 58.3535 132.907 58.3535 132.128C58.3535 131.36 58.5295 130.677 58.8815 130.08C59.2442 129.472 59.7348 128.992 60.3535 128.64C60.9722 128.277 61.6602 128.096 62.4175 128.096C63.1642 128.096 63.8202 128.267 64.3855 128.608C64.9615 128.939 65.4095 129.397 65.7295 129.984C66.0602 130.56 66.2255 131.216 66.2255 131.952C66.2255 132.091 66.2148 132.235 66.1935 132.384C66.1828 132.523 66.1562 132.683 66.1135 132.864L59.6175 132.88V131.312L65.1375 131.296L64.2895 131.952C64.2682 131.493 64.1828 131.109 64.0335 130.8C63.8948 130.491 63.6868 130.256 63.4095 130.096C63.1428 129.925 62.8122 129.84 62.4175 129.84C62.0015 129.84 61.6388 129.936 61.3295 130.128C61.0202 130.309 60.7802 130.571 60.6095 130.912C60.4495 131.243 60.3695 131.637 60.3695 132.096C60.3695 132.565 60.4548 132.976 60.6255 133.328C60.8068 133.669 61.0628 133.936 61.3935 134.128C61.7242 134.309 62.1082 134.4 62.5455 134.4C62.9402 134.4 63.2975 134.336 63.6175 134.208C63.9375 134.069 64.2148 133.867 64.4495 133.6L65.6815 134.832C65.3082 135.269 64.8495 135.6 64.3055 135.824C63.7722 136.048 63.1908 136.16 62.5615 136.16ZM73.0788 136.064L69.8468 128.272H72.1188L74.2628 134.224H73.4948L75.7188 128.272H78.0068L74.5668 136.048L73.0788 136.064ZM70.9348 139.232L73.2868 134.256L74.5668 136.048L73.1588 139.232H70.9348ZM82.3569 136.16C81.5782 136.16 80.8742 135.984 80.2449 135.632C79.6262 135.269 79.1302 134.784 78.7569 134.176C78.3942 133.557 78.2129 132.869 78.2129 132.112C78.2129 131.355 78.3942 130.677 78.7569 130.08C79.1195 129.472 79.6155 128.992 80.2449 128.64C80.8742 128.277 81.5729 128.096 82.3409 128.096C83.1302 128.096 83.8342 128.277 84.4529 128.64C85.0822 128.992 85.5782 129.472 85.9409 130.08C86.3035 130.677 86.4849 131.355 86.4849 132.112C86.4849 132.869 86.3035 133.557 85.9409 134.176C85.5782 134.784 85.0822 135.269 84.4529 135.632C83.8342 135.984 83.1355 136.16 82.3569 136.16ZM82.3409 134.208C82.7355 134.208 83.0822 134.123 83.3809 133.952C83.6902 133.771 83.9249 133.525 84.0849 133.216C84.2555 132.896 84.3409 132.533 84.3409 132.128C84.3409 131.723 84.2555 131.365 84.0849 131.056C83.9142 130.747 83.6795 130.507 83.3809 130.336C83.0822 130.155 82.7355 130.064 82.3409 130.064C81.9569 130.064 81.6155 130.155 81.3169 130.336C81.0182 130.507 80.7835 130.747 80.6129 131.056C80.4422 131.365 80.3569 131.723 80.3569 132.128C80.3569 132.533 80.4422 132.896 80.6129 133.216C80.7835 133.525 81.0182 133.771 81.3169 133.952C81.6155 134.123 81.9569 134.208 82.3409 134.208ZM91.1302 136.16C90.4476 136.16 89.8396 136.016 89.3063 135.728C88.7836 135.44 88.3729 135.04 88.0743 134.528C87.7756 134.016 87.6263 133.424 87.6263 132.752V128.272H89.7383V132.704C89.7383 133.024 89.7916 133.301 89.8983 133.536C90.0049 133.76 90.1649 133.931 90.3783 134.048C90.5916 134.165 90.8423 134.224 91.1302 134.224C91.5676 134.224 91.9089 134.091 92.1543 133.824C92.3996 133.557 92.5223 133.184 92.5223 132.704V128.272L94.6183 128.272V132.752C94.6183 133.435 94.4689 134.032 94.1703 134.544C93.8823 135.056 93.4716 135.456 92.9383 135.744C92.4156 136.021 91.8129 136.16 91.1302 136.16ZM96.2874 136V128.272H98.3834V136H96.2874ZM98.3834 131.728L97.5674 131.184C97.6634 130.235 97.9407 129.488 98.3994 128.944C98.858 128.389 99.5194 128.112 100.383 128.112C100.757 128.112 101.093 128.176 101.391 128.304C101.69 128.421 101.962 128.619 102.207 128.896L100.895 130.4C100.778 130.272 100.634 130.176 100.463 130.112C100.303 130.048 100.117 130.016 99.9034 130.016C99.4554 130.016 99.0874 130.16 98.7994 130.448C98.522 130.725 98.3834 131.152 98.3834 131.728ZM26.752 151.296V149.6H29.36C29.8933 149.6 30.304 149.467 30.592 149.2C30.8907 148.923 31.04 148.544 31.04 148.064C31.04 147.627 30.8907 147.264 30.592 146.976C30.304 146.677 29.8933 146.528 29.36 146.528H26.752V144.752H29.552C30.2773 144.752 30.912 144.896 31.456 145.184C32.0107 145.461 32.4373 145.845 32.736 146.336C33.0453 146.827 33.2 147.392 33.2 148.032C33.2 148.693 33.0453 149.269 32.736 149.76C32.4373 150.24 32.0107 150.619 31.456 150.896C30.9013 151.163 30.256 151.296 29.52 151.296H26.752ZM25.152 156L25.152 144.752H27.328L27.328 156H25.152ZM31.296 156L27.584 151.136L29.584 150.512L33.936 156H31.296ZM38.4209 156.16C37.6102 156.16 36.8902 155.989 36.2609 155.648C35.6315 155.296 35.1302 154.816 34.7569 154.208C34.3942 153.6 34.2129 152.907 34.2129 152.128C34.2129 151.36 34.3889 150.677 34.7409 150.08C35.1035 149.472 35.5942 148.992 36.2129 148.64C36.8315 148.277 37.5195 148.096 38.2769 148.096C39.0235 148.096 39.6795 148.267 40.2449 148.608C40.8209 148.939 41.2689 149.397 41.5889 149.984C41.9195 150.56 42.0849 151.216 42.0849 151.952C42.0849 152.091 42.0742 152.235 42.0529 152.384C42.0422 152.523 42.0155 152.683 41.9729 152.864L35.4769 152.88V151.312L40.9969 151.296L40.1489 151.952C40.1275 151.493 40.0422 151.109 39.8929 150.8C39.7542 150.491 39.5462 150.256 39.2689 150.096C39.0022 149.925 38.6715 149.84 38.2769 149.84C37.8609 149.84 37.4982 149.936 37.1889 150.128C36.8795 150.309 36.6395 150.571 36.4689 150.912C36.3089 151.243 36.2289 151.637 36.2289 152.096C36.2289 152.565 36.3142 152.976 36.4849 153.328C36.6662 153.669 36.9222 153.936 37.2529 154.128C37.5835 154.309 37.9675 154.4 38.4049 154.4C38.7995 154.4 39.1569 154.336 39.4769 154.208C39.7969 154.069 40.0742 153.867 40.3089 153.6L41.5409 154.832C41.1675 155.269 40.7089 155.6 40.1649 155.824C39.6315 156.048 39.0502 156.16 38.4209 156.16ZM46.6131 156.16C45.9091 156.16 45.2745 155.984 44.7091 155.632C44.1438 155.28 43.7011 154.8 43.3811 154.192C43.0611 153.584 42.9011 152.901 42.9011 152.144C42.9011 151.376 43.0611 150.688 43.3811 150.08C43.7011 149.472 44.1438 148.992 44.7091 148.64C45.2745 148.288 45.9091 148.112 46.6131 148.112C47.1678 148.112 47.6638 148.224 48.1011 148.448C48.5385 148.672 48.8851 148.987 49.1411 149.392C49.4078 149.787 49.5518 150.235 49.5731 150.736V153.52C49.5518 154.032 49.4078 154.485 49.1411 154.88C48.8851 155.275 48.5385 155.589 48.1011 155.824C47.6638 156.048 47.1678 156.16 46.6131 156.16ZM46.9971 154.224C47.5838 154.224 48.0585 154.032 48.4211 153.648C48.7838 153.253 48.9651 152.747 48.9651 152.128C48.9651 151.723 48.8798 151.365 48.7091 151.056C48.5491 150.736 48.3198 150.491 48.0211 150.32C47.7331 150.139 47.3918 150.048 46.9971 150.048C46.6131 150.048 46.2718 150.139 45.9731 150.32C45.6851 150.491 45.4558 150.736 45.2851 151.056C45.1251 151.365 45.0451 151.723 45.0451 152.128C45.0451 152.544 45.1251 152.912 45.2851 153.232C45.4558 153.541 45.6851 153.787 45.9731 153.968C46.2718 154.139 46.6131 154.224 46.9971 154.224ZM48.8531 159.232V154.048L49.1891 152.176L48.8531 150.304V148.272H50.9331V159.232H48.8531ZM56.0834 156.16C55.4007 156.16 54.7927 156.016 54.2594 155.728C53.7367 155.44 53.326 155.04 53.0274 154.528C52.7287 154.016 52.5794 153.424 52.5794 152.752V148.272H54.6914V152.704C54.6914 153.024 54.7447 153.301 54.8514 153.536C54.958 153.76 55.118 153.931 55.3314 154.048C55.5447 154.165 55.7954 154.224 56.0834 154.224C56.5207 154.224 56.862 154.091 57.1074 153.824C57.3527 153.557 57.4754 153.184 57.4754 152.704V148.272H59.5714V152.752C59.5714 153.435 59.422 154.032 59.1234 154.544C58.8354 155.056 58.4247 155.456 57.8914 155.744C57.3687 156.021 56.766 156.16 56.0834 156.16ZM61.2405 156V148.272H63.3525V156H61.2405ZM62.2965 147.024C61.9552 147.024 61.6725 146.912 61.4485 146.688C61.2245 146.453 61.1125 146.165 61.1125 145.824C61.1125 145.493 61.2245 145.211 61.4485 144.976C61.6725 144.741 61.9552 144.624 62.2965 144.624C62.6485 144.624 62.9312 144.741 63.1445 144.976C63.3685 145.211 63.4805 145.493 63.4805 145.824C63.4805 146.165 63.3685 146.453 63.1445 146.688C62.9312 146.912 62.6485 147.024 62.2965 147.024ZM65.2093 156V148.272H67.3053V156H65.2093ZM67.3053 151.728L66.4893 151.184C66.5853 150.235 66.8626 149.488 67.3213 148.944C67.7799 148.389 68.4413 148.112 69.3053 148.112C69.6786 148.112 70.0146 148.176 70.3133 148.304C70.6119 148.421 70.8839 148.619 71.1293 148.896L69.8173 150.4C69.6999 150.272 69.5559 150.176 69.3853 150.112C69.2253 150.048 69.0386 150.016 68.8253 150.016C68.3773 150.016 68.0093 150.16 67.7213 150.448C67.4439 150.725 67.3053 151.152 67.3053 151.728ZM75.3428 156.16C74.5321 156.16 73.8121 155.989 73.1828 155.648C72.5534 155.296 72.0521 154.816 71.6788 154.208C71.3161 153.6 71.1348 152.907 71.1348 152.128C71.1348 151.36 71.3108 150.677 71.6628 150.08C72.0254 149.472 72.5161 148.992 73.1348 148.64C73.7534 148.277 74.4414 148.096 75.1988 148.096C75.9454 148.096 76.6014 148.267 77.1668 148.608C77.7428 148.939 78.1908 149.397 78.5108 149.984C78.8414 150.56 79.0068 151.216 79.0068 151.952C79.0068 152.091 78.9961 152.235 78.9748 152.384C78.9641 152.523 78.9374 152.683 78.8948 152.864L72.3988 152.88V151.312L77.9188 151.296L77.0708 151.952C77.0494 151.493 76.9641 151.109 76.8148 150.8C76.6761 150.491 76.4681 150.256 76.1908 150.096C75.9241 149.925 75.5934 149.84 75.1988 149.84C74.7828 149.84 74.4201 149.936 74.1108 150.128C73.8014 150.309 73.5614 150.571 73.3908 150.912C73.2308 151.243 73.1508 151.637 73.1508 152.096C73.1508 152.565 73.2361 152.976 73.4068 153.328C73.5881 153.669 73.8441 153.936 74.1748 154.128C74.5054 154.309 74.8894 154.4 75.3268 154.4C75.7214 154.4 76.0788 154.336 76.3988 154.208C76.7188 154.069 76.9961 153.867 77.2308 153.6L78.4628 154.832C78.0894 155.269 77.6308 155.6 77.0868 155.824C76.5534 156.048 75.9721 156.16 75.3428 156.16ZM80.303 156V148.272H82.399V156H80.303ZM85.343 156V151.44C85.343 150.992 85.199 150.645 84.911 150.4C84.6337 150.144 84.287 150.016 83.871 150.016C83.5937 150.016 83.343 150.075 83.119 150.192C82.895 150.299 82.719 150.459 82.591 150.672C82.463 150.885 82.399 151.141 82.399 151.44L81.583 151.04C81.583 150.443 81.711 149.925 81.967 149.488C82.2337 149.051 82.591 148.715 83.039 148.48C83.487 148.235 83.9937 148.112 84.559 148.112C85.0923 148.112 85.5777 148.235 86.015 148.48C86.4523 148.715 86.799 149.051 87.055 149.488C87.311 149.915 87.439 150.432 87.439 151.04V156H85.343ZM90.383 156V151.44C90.383 150.992 90.239 150.645 89.951 150.4C89.6737 150.144 89.327 150.016 88.911 150.016C88.6443 150.016 88.3937 150.075 88.159 150.192C87.935 150.299 87.759 150.459 87.631 150.672C87.503 150.885 87.439 151.141 87.439 151.44L86.239 151.152C86.2817 150.533 86.447 150 86.735 149.552C87.023 149.093 87.4017 148.741 87.871 148.496C88.3403 148.24 88.863 148.112 89.439 148.112C90.015 148.112 90.5323 148.235 90.991 148.48C91.4497 148.715 91.8123 149.056 92.079 149.504C92.3457 149.952 92.479 150.485 92.479 151.104V156H90.383ZM97.874 156.16C97.0633 156.16 96.3433 155.989 95.714 155.648C95.0847 155.296 94.5833 154.816 94.21 154.208C93.8473 153.6 93.666 152.907 93.666 152.128C93.666 151.36 93.842 150.677 94.194 150.08C94.5567 149.472 95.0473 148.992 95.666 148.64C96.2847 148.277 96.9727 148.096 97.73 148.096C98.4767 148.096 99.1327 148.267 99.698 148.608C100.274 148.939 100.722 149.397 101.042 149.984C101.373 150.56 101.538 151.216 101.538 151.952C101.538 152.091 101.527 152.235 101.506 152.384C101.495 152.523 101.469 152.683 101.426 152.864L94.93 152.88V151.312L100.45 151.296L99.602 151.952C99.5807 151.493 99.4953 151.109 99.346 150.8C99.2073 150.491 98.9993 150.256 98.722 150.096C98.4553 149.925 98.1247 149.84 97.73 149.84C97.314 149.84 96.9513 149.936 96.642 150.128C96.3327 150.309 96.0927 150.571 95.922 150.912C95.762 151.243 95.682 151.637 95.682 152.096C95.682 152.565 95.7673 152.976 95.938 153.328C96.1193 153.669 96.3753 153.936 96.706 154.128C97.0367 154.309 97.4207 154.4 97.858 154.4C98.2527 154.4 98.61 154.336 98.93 154.208C99.25 154.069 99.5273 153.867 99.762 153.6L100.994 154.832C100.621 155.269 100.162 155.6 99.618 155.824C99.0847 156.048 98.5033 156.16 97.874 156.16ZM108.034 156V151.568C108.034 151.109 107.89 150.736 107.602 150.448C107.314 150.16 106.941 150.016 106.482 150.016C106.184 150.016 105.917 150.08 105.682 150.208C105.448 150.336 105.261 150.517 105.122 150.752C104.994 150.987 104.93 151.259 104.93 151.568L104.114 151.152C104.114 150.544 104.242 150.016 104.498 149.568C104.765 149.109 105.128 148.752 105.586 148.496C106.056 148.24 106.584 148.112 107.17 148.112C107.736 148.112 108.242 148.256 108.69 148.544C109.138 148.821 109.49 149.189 109.746 149.648C110.002 150.096 110.13 150.581 110.13 151.104V156H108.034ZM102.834 156V148.272H104.93V156H102.834ZM112.861 156V145.056H114.957V156H112.861ZM111.053 150.112V148.272H116.765V150.112H111.053Z" fill="white" fill-opacity="0.8"/>
<path d="M229.416 134.752L233.656 130.32C233.955 130 234.195 129.717 234.376 129.472C234.568 129.216 234.707 128.976 234.792 128.752C234.877 128.517 234.92 128.283 234.92 128.048C234.92 127.579 234.765 127.211 234.456 126.944C234.157 126.677 233.768 126.544 233.288 126.544C232.797 126.544 232.36 126.672 231.976 126.928C231.603 127.184 231.251 127.589 230.92 128.144L229.432 126.88C229.88 126.123 230.435 125.552 231.096 125.168C231.768 124.773 232.536 124.576 233.4 124.576C234.136 124.576 234.776 124.72 235.32 125.008C235.875 125.296 236.301 125.696 236.6 126.208C236.899 126.72 237.048 127.317 237.048 128C237.048 128.459 236.989 128.875 236.872 129.248C236.765 129.621 236.579 129.995 236.312 130.368C236.056 130.731 235.699 131.141 235.24 131.6L232.152 134.752H229.416ZM229.416 136V134.752L231.272 134.112H237.288V136H229.416ZM240.212 136.16C239.828 136.16 239.513 136.032 239.268 135.776C239.022 135.52 238.9 135.205 238.9 134.832C238.9 134.459 239.022 134.144 239.268 133.888C239.513 133.632 239.828 133.504 240.212 133.504C240.585 133.504 240.894 133.632 241.14 133.888C241.385 134.144 241.508 134.459 241.508 134.832C241.508 135.205 241.385 135.52 241.14 135.776C240.894 136.032 240.585 136.16 240.212 136.16ZM246.84 136V124.752H249.016V136H246.84ZM248.44 131.392V129.456H254.104V131.392H248.44ZM248.44 126.672V124.752H254.376V126.672H248.44ZM255.866 136V128.272H257.978V136H255.866ZM256.922 127.024C256.58 127.024 256.298 126.912 256.074 126.688C255.85 126.453 255.738 126.165 255.738 125.824C255.738 125.493 255.85 125.211 256.074 124.976C256.298 124.741 256.58 124.624 256.922 124.624C257.274 124.624 257.556 124.741 257.77 124.976C257.994 125.211 258.106 125.493 258.106 125.824C258.106 126.165 257.994 126.453 257.77 126.688C257.556 126.912 257.274 127.024 256.922 127.024ZM265.034 136V131.568C265.034 131.109 264.89 130.736 264.602 130.448C264.314 130.16 263.941 130.016 263.482 130.016C263.184 130.016 262.917 130.08 262.682 130.208C262.448 130.336 262.261 130.517 262.122 130.752C261.994 130.987 261.93 131.259 261.93 131.568L261.114 131.152C261.114 130.544 261.242 130.016 261.498 129.568C261.765 129.109 262.128 128.752 262.586 128.496C263.056 128.24 263.584 128.112 264.17 128.112C264.736 128.112 265.242 128.256 265.69 128.544C266.138 128.821 266.49 129.189 266.746 129.648C267.002 130.096 267.13 130.581 267.13 131.104V136H265.034ZM259.834 136V128.272H261.93V136H259.834ZM272.051 136.16C271.347 136.16 270.712 135.984 270.147 135.632C269.581 135.28 269.139 134.8 268.819 134.192C268.499 133.584 268.339 132.901 268.339 132.144C268.339 131.376 268.499 130.688 268.819 130.08C269.139 129.472 269.581 128.992 270.147 128.64C270.712 128.288 271.347 128.112 272.051 128.112C272.605 128.112 273.101 128.224 273.539 128.448C273.976 128.672 274.323 128.987 274.579 129.392C274.845 129.787 274.989 130.235 275.011 130.736V133.52C274.989 134.032 274.845 134.485 274.579 134.88C274.323 135.275 273.976 135.589 273.539 135.824C273.101 136.048 272.605 136.16 272.051 136.16ZM272.435 134.224C273.021 134.224 273.496 134.032 273.859 133.648C274.221 133.253 274.403 132.747 274.403 132.128C274.403 131.723 274.317 131.365 274.147 131.056C273.987 130.736 273.757 130.491 273.459 130.32C273.171 130.139 272.829 130.048 272.435 130.048C272.051 130.048 271.709 130.139 271.411 130.32C271.123 130.491 270.893 130.736 270.723 131.056C270.563 131.365 270.483 131.723 270.483 132.128C270.483 132.544 270.563 132.912 270.723 133.232C270.893 133.541 271.123 133.787 271.411 133.968C271.709 134.139 272.051 134.224 272.435 134.224ZM274.291 136V133.92L274.627 132.032L274.291 130.176V128.272H276.371V136H274.291ZM278.225 136V124.432H280.321V136H278.225ZM282.178 136V128.272H284.29V136H282.178ZM283.234 127.024C282.893 127.024 282.61 126.912 282.386 126.688C282.162 126.453 282.05 126.165 282.05 125.824C282.05 125.493 282.162 125.211 282.386 124.976C282.61 124.741 282.893 124.624 283.234 124.624C283.586 124.624 283.869 124.741 284.082 124.976C284.306 125.211 284.418 125.493 284.418 125.824C284.418 126.165 284.306 126.453 284.082 126.688C283.869 126.912 283.586 127.024 283.234 127.024ZM285.603 134.8L289.699 129.472H292.227L288.131 134.8H285.603ZM285.603 136V134.8L287.267 134.176H292.131V136H285.603ZM285.891 130.096V128.272H292.227V129.472L290.547 130.096H285.891ZM297.155 136.16C296.345 136.16 295.625 135.989 294.995 135.648C294.366 135.296 293.865 134.816 293.491 134.208C293.129 133.6 292.947 132.907 292.947 132.128C292.947 131.36 293.123 130.677 293.475 130.08C293.838 129.472 294.329 128.992 294.947 128.64C295.566 128.277 296.254 128.096 297.011 128.096C297.758 128.096 298.414 128.267 298.979 128.608C299.555 128.939 300.003 129.397 300.323 129.984C300.654 130.56 300.819 131.216 300.819 131.952C300.819 132.091 300.809 132.235 300.787 132.384C300.777 132.523 300.75 132.683 300.707 132.864L294.211 132.88V131.312L299.731 131.296L298.883 131.952C298.862 131.493 298.777 131.109 298.627 130.8C298.489 130.491 298.281 130.256 298.003 130.096C297.737 129.925 297.406 129.84 297.011 129.84C296.595 129.84 296.233 129.936 295.923 130.128C295.614 130.309 295.374 130.571 295.203 130.912C295.043 131.243 294.963 131.637 294.963 132.096C294.963 132.565 295.049 132.976 295.219 133.328C295.401 133.669 295.657 133.936 295.987 134.128C296.318 134.309 296.702 134.4 297.139 134.4C297.534 134.4 297.891 134.336 298.211 134.208C298.531 134.069 298.809 133.867 299.043 133.6L300.275 134.832C299.902 135.269 299.443 135.6 298.899 135.824C298.366 136.048 297.785 136.16 297.155 136.16ZM306.377 136V125.056H308.473V136H306.377ZM304.569 130.112V128.272H310.281V130.112H304.569ZM316.659 136V131.568C316.659 131.109 316.515 130.736 316.227 130.448C315.939 130.16 315.566 130.016 315.107 130.016C314.809 130.016 314.542 130.08 314.307 130.208C314.073 130.336 313.886 130.517 313.747 130.752C313.619 130.987 313.555 131.259 313.555 131.568L312.739 131.152C312.739 130.544 312.867 130.016 313.123 129.568C313.379 129.109 313.731 128.752 314.179 128.496C314.638 128.24 315.161 128.112 315.747 128.112C316.334 128.112 316.851 128.24 317.299 128.496C317.758 128.752 318.115 129.104 318.371 129.552C318.627 130 318.755 130.517 318.755 131.104V136H316.659ZM311.459 136V124.432H313.555V136H311.459ZM324.14 136.16C323.329 136.16 322.609 135.989 321.98 135.648C321.35 135.296 320.849 134.816 320.476 134.208C320.113 133.6 319.932 132.907 319.932 132.128C319.932 131.36 320.108 130.677 320.46 130.08C320.822 129.472 321.313 128.992 321.932 128.64C322.55 128.277 323.238 128.096 323.996 128.096C324.742 128.096 325.398 128.267 325.964 128.608C326.54 128.939 326.988 129.397 327.308 129.984C327.638 130.56 327.804 131.216 327.804 131.952C327.804 132.091 327.793 132.235 327.772 132.384C327.761 132.523 327.734 132.683 327.692 132.864L321.196 132.88V131.312L326.716 131.296L325.868 131.952C325.846 131.493 325.761 131.109 325.612 130.8C325.473 130.491 325.265 130.256 324.988 130.096C324.721 129.925 324.39 129.84 323.996 129.84C323.58 129.84 323.217 129.936 322.908 130.128C322.598 130.309 322.358 130.571 322.188 130.912C322.028 131.243 321.948 131.637 321.948 132.096C321.948 132.565 322.033 132.976 322.204 133.328C322.385 133.669 322.641 133.936 322.972 134.128C323.302 134.309 323.686 134.4 324.124 134.4C324.518 134.4 324.876 134.336 325.196 134.208C325.516 134.069 325.793 133.867 326.028 133.6L327.26 134.832C326.886 135.269 326.428 135.6 325.884 135.824C325.35 136.048 324.769 136.16 324.14 136.16ZM335.713 136.16C334.806 136.16 334.028 136.005 333.377 135.696C332.737 135.387 332.156 134.923 331.633 134.304L333.073 132.864C333.404 133.301 333.788 133.643 334.225 133.888C334.662 134.123 335.196 134.24 335.825 134.24C336.39 134.24 336.838 134.128 337.169 133.904C337.51 133.68 337.681 133.371 337.681 132.976C337.681 132.635 337.585 132.357 337.393 132.144C337.201 131.931 336.945 131.749 336.625 131.6C336.316 131.451 335.969 131.317 335.585 131.2C335.212 131.072 334.833 130.928 334.449 130.768C334.076 130.608 333.729 130.411 333.409 130.176C333.1 129.931 332.849 129.621 332.657 129.248C332.465 128.864 332.369 128.384 332.369 127.808C332.369 127.125 332.534 126.544 332.865 126.064C333.196 125.584 333.649 125.216 334.225 124.96C334.801 124.704 335.452 124.576 336.177 124.576C336.945 124.576 337.638 124.72 338.257 125.008C338.876 125.296 339.382 125.669 339.777 126.128L338.337 127.568C338.006 127.205 337.665 126.939 337.313 126.768C336.972 126.597 336.582 126.512 336.145 126.512C335.644 126.512 335.249 126.608 334.961 126.8C334.673 126.992 334.529 127.269 334.529 127.632C334.529 127.941 334.625 128.192 334.817 128.384C335.009 128.576 335.26 128.741 335.569 128.88C335.889 129.019 336.236 129.152 336.609 129.28C336.993 129.408 337.372 129.552 337.745 129.712C338.129 129.872 338.476 130.08 338.785 130.336C339.105 130.592 339.361 130.923 339.553 131.328C339.745 131.723 339.841 132.213 339.841 132.8C339.841 133.845 339.473 134.667 338.737 135.264C338.001 135.861 336.993 136.16 335.713 136.16ZM344.92 136.16C344.13 136.16 343.421 135.984 342.792 135.632C342.162 135.28 341.666 134.8 341.304 134.192C340.941 133.584 340.76 132.901 340.76 132.144C340.76 131.376 340.941 130.688 341.304 130.08C341.666 129.472 342.162 128.992 342.792 128.64C343.432 128.277 344.141 128.096 344.92 128.096C345.528 128.096 346.088 128.208 346.6 128.432C347.112 128.656 347.554 128.976 347.928 129.392L346.584 130.752C346.381 130.528 346.136 130.357 345.848 130.24C345.57 130.123 345.261 130.064 344.92 130.064C344.536 130.064 344.189 130.155 343.88 130.336C343.581 130.507 343.341 130.747 343.16 131.056C342.989 131.355 342.904 131.712 342.904 132.128C342.904 132.533 342.989 132.896 343.16 133.216C343.341 133.525 343.581 133.771 343.88 133.952C344.189 134.123 344.536 134.208 344.92 134.208C345.272 134.208 345.586 134.149 345.864 134.032C346.152 133.904 346.397 133.723 346.6 133.488L347.96 134.848C347.565 135.275 347.112 135.6 346.6 135.824C346.088 136.048 345.528 136.16 344.92 136.16ZM352.607 136.16C351.828 136.16 351.124 135.984 350.495 135.632C349.876 135.269 349.38 134.784 349.007 134.176C348.644 133.557 348.463 132.869 348.463 132.112C348.463 131.355 348.644 130.677 349.007 130.08C349.37 129.472 349.866 128.992 350.495 128.64C351.124 128.277 351.823 128.096 352.591 128.096C353.38 128.096 354.084 128.277 354.703 128.64C355.332 128.992 355.828 129.472 356.191 130.08C356.554 130.677 356.735 131.355 356.735 132.112C356.735 132.869 356.554 133.557 356.191 134.176C355.828 134.784 355.332 135.269 354.703 135.632C354.084 135.984 353.386 136.16 352.607 136.16ZM352.591 134.208C352.986 134.208 353.332 134.123 353.631 133.952C353.94 133.771 354.175 133.525 354.335 133.216C354.506 132.896 354.591 132.533 354.591 132.128C354.591 131.723 354.506 131.365 354.335 131.056C354.164 130.747 353.93 130.507 353.631 130.336C353.332 130.155 352.986 130.064 352.591 130.064C352.207 130.064 351.866 130.155 351.567 130.336C351.268 130.507 351.034 130.747 350.863 131.056C350.692 131.365 350.607 131.723 350.607 132.128C350.607 132.533 350.692 132.896 350.863 133.216C351.034 133.525 351.268 133.771 351.567 133.952C351.866 134.123 352.207 134.208 352.591 134.208ZM362.372 136.16C361.818 136.16 361.316 136.048 360.868 135.824C360.42 135.589 360.063 135.275 359.796 134.88C359.53 134.485 359.386 134.032 359.364 133.52V130.784C359.386 130.272 359.53 129.819 359.796 129.424C360.074 129.019 360.431 128.699 360.868 128.464C361.316 128.229 361.818 128.112 362.372 128.112C363.087 128.112 363.727 128.288 364.292 128.64C364.858 128.992 365.3 129.472 365.62 130.08C365.951 130.688 366.116 131.376 366.116 132.144C366.116 132.901 365.951 133.584 365.62 134.192C365.3 134.8 364.858 135.28 364.292 135.632C363.727 135.984 363.087 136.16 362.372 136.16ZM362.004 134.224C362.388 134.224 362.73 134.139 363.028 133.968C363.327 133.787 363.556 133.541 363.716 133.232C363.887 132.912 363.972 132.544 363.972 132.128C363.972 131.723 363.887 131.365 363.716 131.056C363.556 130.736 363.327 130.491 363.028 130.32C362.73 130.139 362.388 130.048 362.004 130.048C361.631 130.048 361.295 130.139 360.996 130.32C360.698 130.491 360.463 130.736 360.292 131.056C360.132 131.365 360.052 131.723 360.052 132.128C360.052 132.544 360.132 132.912 360.292 133.232C360.463 133.541 360.692 133.787 360.98 133.968C361.279 134.139 361.62 134.224 362.004 134.224ZM358.084 139.232V128.272H360.18V130.304L359.828 132.176L360.164 134.048V139.232H358.084ZM371.187 136.16C370.376 136.16 369.656 135.989 369.027 135.648C368.397 135.296 367.896 134.816 367.523 134.208C367.16 133.6 366.979 132.907 366.979 132.128C366.979 131.36 367.155 130.677 367.507 130.08C367.869 129.472 368.36 128.992 368.979 128.64C369.597 128.277 370.285 128.096 371.043 128.096C371.789 128.096 372.445 128.267 373.011 128.608C373.587 128.939 374.035 129.397 374.355 129.984C374.685 130.56 374.851 131.216 374.851 131.952C374.851 132.091 374.84 132.235 374.819 132.384C374.808 132.523 374.781 132.683 374.739 132.864L368.243 132.88V131.312L373.763 131.296L372.915 131.952C372.893 131.493 372.808 131.109 372.659 130.8C372.52 130.491 372.312 130.256 372.035 130.096C371.768 129.925 371.437 129.84 371.043 129.84C370.627 129.84 370.264 129.936 369.955 130.128C369.645 130.309 369.405 130.571 369.235 130.912C369.075 131.243 368.995 131.637 368.995 132.096C368.995 132.565 369.08 132.976 369.251 133.328C369.432 133.669 369.688 133.936 370.019 134.128C370.349 134.309 370.733 134.4 371.171 134.4C371.565 134.4 371.923 134.336 372.243 134.208C372.563 134.069 372.84 133.867 373.075 133.6L374.307 134.832C373.933 135.269 373.475 135.6 372.931 135.824C372.397 136.048 371.816 136.16 371.187 136.16Z" fill="white" fill-opacity="0.8"/>
<path d="M460.984 136.16C460.227 136.16 459.533 136.027 458.904 135.76C458.275 135.483 457.747 135.088 457.32 134.576L458.76 133.152C458.973 133.472 459.277 133.728 459.672 133.92C460.067 134.112 460.493 134.208 460.952 134.208C461.379 134.208 461.747 134.133 462.056 133.984C462.365 133.824 462.605 133.605 462.776 133.328C462.957 133.04 463.048 132.709 463.048 132.336C463.048 131.941 462.957 131.605 462.776 131.328C462.605 131.051 462.355 130.837 462.024 130.688C461.693 130.539 461.299 130.464 460.84 130.464C460.637 130.464 460.429 130.48 460.216 130.512C460.003 130.533 459.821 130.571 459.672 130.624L460.632 129.408C460.899 129.323 461.16 129.253 461.416 129.2C461.683 129.136 461.928 129.104 462.152 129.104C462.728 129.104 463.245 129.243 463.704 129.52C464.173 129.787 464.541 130.171 464.808 130.672C465.085 131.163 465.224 131.744 465.224 132.416C465.224 133.163 465.048 133.819 464.696 134.384C464.344 134.939 463.848 135.376 463.208 135.696C462.579 136.005 461.837 136.16 460.984 136.16ZM459.672 130.624V129.376L462.552 126.032L465.048 126L462.072 129.408L459.672 130.624ZM457.944 126.64V124.752H465.048V126L463.272 126.64H457.944ZM467.774 136.16C467.39 136.16 467.076 136.032 466.83 135.776C466.585 135.52 466.462 135.205 466.462 134.832C466.462 134.459 466.585 134.144 466.83 133.888C467.076 133.632 467.39 133.504 467.774 133.504C468.148 133.504 468.457 133.632 468.702 133.888C468.948 134.144 469.07 134.459 469.07 134.832C469.07 135.205 468.948 135.52 468.702 135.776C468.457 136.032 468.148 136.16 467.774 136.16ZM473.117 136L477.645 124.752H479.421L483.933 136H481.613L478.125 126.768H478.925L475.389 136H473.117ZM475.517 133.904V132.08H481.565V133.904H475.517ZM487.973 139.424C487.151 139.424 486.426 139.275 485.797 138.976C485.167 138.688 484.666 138.277 484.293 137.744L485.621 136.416C485.919 136.768 486.25 137.035 486.613 137.216C486.986 137.408 487.434 137.504 487.957 137.504C488.607 137.504 489.119 137.339 489.493 137.008C489.877 136.677 490.069 136.219 490.069 135.632V133.696L490.421 132L490.085 130.304V128.272H492.165V135.6C492.165 136.368 491.983 137.035 491.621 137.6C491.269 138.176 490.778 138.624 490.149 138.944C489.519 139.264 488.794 139.424 487.973 139.424ZM487.877 135.792C487.183 135.792 486.559 135.627 486.005 135.296C485.45 134.955 485.013 134.491 484.693 133.904C484.383 133.317 484.229 132.661 484.229 131.936C484.229 131.211 484.383 130.56 484.693 129.984C485.013 129.408 485.45 128.955 486.005 128.624C486.559 128.283 487.183 128.112 487.877 128.112C488.453 128.112 488.959 128.224 489.397 128.448C489.845 128.672 490.197 128.981 490.453 129.376C490.709 129.76 490.847 130.213 490.869 130.736V133.168C490.847 133.68 490.703 134.139 490.437 134.544C490.181 134.939 489.829 135.248 489.381 135.472C488.943 135.685 488.442 135.792 487.877 135.792ZM488.293 133.888C488.677 133.888 489.007 133.808 489.285 133.648C489.573 133.477 489.797 133.248 489.957 132.96C490.117 132.661 490.197 132.325 490.197 131.952C490.197 131.568 490.117 131.232 489.957 130.944C489.797 130.656 489.573 130.432 489.285 130.272C489.007 130.101 488.677 130.016 488.293 130.016C487.909 130.016 487.573 130.101 487.285 130.272C486.997 130.432 486.773 130.661 486.613 130.96C486.453 131.248 486.373 131.579 486.373 131.952C486.373 132.315 486.453 132.645 486.613 132.944C486.773 133.232 486.997 133.461 487.285 133.632C487.573 133.803 487.909 133.888 488.293 133.888ZM494.006 136V128.272H496.102V136H494.006ZM496.102 131.728L495.286 131.184C495.382 130.235 495.659 129.488 496.118 128.944C496.577 128.389 497.238 128.112 498.102 128.112C498.475 128.112 498.811 128.176 499.11 128.304C499.409 128.421 499.681 128.619 499.926 128.896L498.614 130.4C498.497 130.272 498.353 130.176 498.182 130.112C498.022 130.048 497.835 130.016 497.622 130.016C497.174 130.016 496.806 130.16 496.518 130.448C496.241 130.725 496.102 131.152 496.102 131.728ZM504.14 136.16C503.329 136.16 502.609 135.989 501.98 135.648C501.35 135.296 500.849 134.816 500.476 134.208C500.113 133.6 499.932 132.907 499.932 132.128C499.932 131.36 500.108 130.677 500.46 130.08C500.822 129.472 501.313 128.992 501.932 128.64C502.55 128.277 503.238 128.096 503.996 128.096C504.742 128.096 505.398 128.267 505.964 128.608C506.54 128.939 506.988 129.397 507.308 129.984C507.638 130.56 507.804 131.216 507.804 131.952C507.804 132.091 507.793 132.235 507.772 132.384C507.761 132.523 507.734 132.683 507.692 132.864L501.196 132.88V131.312L506.716 131.296L505.868 131.952C505.846 131.493 505.761 131.109 505.612 130.8C505.473 130.491 505.265 130.256 504.988 130.096C504.721 129.925 504.39 129.84 503.996 129.84C503.58 129.84 503.217 129.936 502.908 130.128C502.598 130.309 502.358 130.571 502.188 130.912C502.028 131.243 501.948 131.637 501.948 132.096C501.948 132.565 502.033 132.976 502.204 133.328C502.385 133.669 502.641 133.936 502.972 134.128C503.302 134.309 503.686 134.4 504.124 134.4C504.518 134.4 504.876 134.336 505.196 134.208C505.516 134.069 505.793 133.867 506.028 133.6L507.26 134.832C506.886 135.269 506.428 135.6 505.884 135.824C505.35 136.048 504.769 136.16 504.14 136.16ZM512.796 136.16C511.985 136.16 511.265 135.989 510.636 135.648C510.007 135.296 509.505 134.816 509.132 134.208C508.769 133.6 508.588 132.907 508.588 132.128C508.588 131.36 508.764 130.677 509.116 130.08C509.479 129.472 509.969 128.992 510.588 128.64C511.207 128.277 511.895 128.096 512.652 128.096C513.399 128.096 514.055 128.267 514.62 128.608C515.196 128.939 515.644 129.397 515.964 129.984C516.295 130.56 516.46 131.216 516.46 131.952C516.46 132.091 516.449 132.235 516.428 132.384C516.417 132.523 516.391 132.683 516.348 132.864L509.852 132.88V131.312L515.372 131.296L514.524 131.952C514.503 131.493 514.417 131.109 514.268 130.8C514.129 130.491 513.921 130.256 513.644 130.096C513.377 129.925 513.047 129.84 512.652 129.84C512.236 129.84 511.873 129.936 511.564 130.128C511.255 130.309 511.015 130.571 510.844 130.912C510.684 131.243 510.604 131.637 510.604 132.096C510.604 132.565 510.689 132.976 510.86 133.328C511.041 133.669 511.297 133.936 511.628 134.128C511.959 134.309 512.343 134.4 512.78 134.4C513.175 134.4 513.532 134.336 513.852 134.208C514.172 134.069 514.449 133.867 514.684 133.6L515.916 134.832C515.543 135.269 515.084 135.6 514.54 135.824C514.007 136.048 513.425 136.16 512.796 136.16ZM524.513 136.16C523.734 136.16 523.03 135.984 522.401 135.632C521.782 135.269 521.286 134.784 520.913 134.176C520.55 133.557 520.369 132.869 520.369 132.112C520.369 131.355 520.55 130.677 520.913 130.08C521.276 129.472 521.772 128.992 522.401 128.64C523.03 128.277 523.729 128.096 524.497 128.096C525.286 128.096 525.99 128.277 526.609 128.64C527.238 128.992 527.734 129.472 528.097 130.08C528.46 130.677 528.641 131.355 528.641 132.112C528.641 132.869 528.46 133.557 528.097 134.176C527.734 134.784 527.238 135.269 526.609 135.632C525.99 135.984 525.292 136.16 524.513 136.16ZM524.497 134.208C524.892 134.208 525.238 134.123 525.537 133.952C525.846 133.771 526.081 133.525 526.241 133.216C526.412 132.896 526.497 132.533 526.497 132.128C526.497 131.723 526.412 131.365 526.241 131.056C526.07 130.747 525.836 130.507 525.537 130.336C525.238 130.155 524.892 130.064 524.497 130.064C524.113 130.064 523.772 130.155 523.473 130.336C523.174 130.507 522.94 130.747 522.769 131.056C522.598 131.365 522.513 131.723 522.513 132.128C522.513 132.533 522.598 132.896 522.769 133.216C522.94 133.525 523.174 133.771 523.473 133.952C523.772 134.123 524.113 134.208 524.497 134.208ZM535.191 136V131.568C535.191 131.109 535.047 130.736 534.759 130.448C534.471 130.16 534.097 130.016 533.639 130.016C533.34 130.016 533.073 130.08 532.839 130.208C532.604 130.336 532.417 130.517 532.279 130.752C532.151 130.987 532.087 131.259 532.087 131.568L531.271 131.152C531.271 130.544 531.399 130.016 531.655 129.568C531.921 129.109 532.284 128.752 532.743 128.496C533.212 128.24 533.74 128.112 534.327 128.112C534.892 128.112 535.399 128.256 535.847 128.544C536.295 128.821 536.647 129.189 536.903 129.648C537.159 130.096 537.286 130.581 537.286 131.104V136H535.191ZM529.991 136V128.272H532.087V136H529.991ZM543.924 131.824V130.048H546.532C546.873 130.048 547.183 129.979 547.46 129.84C547.737 129.701 547.956 129.504 548.116 129.248C548.276 128.981 548.356 128.661 548.356 128.288C548.356 127.925 548.276 127.611 548.116 127.344C547.956 127.077 547.737 126.875 547.46 126.736C547.183 126.597 546.873 126.528 546.532 126.528H543.924V124.752H546.756C547.471 124.752 548.111 124.896 548.676 125.184C549.252 125.472 549.705 125.883 550.036 126.416C550.367 126.939 550.532 127.563 550.532 128.288C550.532 129.013 550.367 129.643 550.036 130.176C549.705 130.699 549.252 131.104 548.676 131.392C548.111 131.68 547.471 131.824 546.756 131.824H543.924ZM542.324 136V124.752H544.5V136H542.324ZM551.959 136V128.272H554.055V136H551.959ZM554.055 131.728L553.239 131.184C553.335 130.235 553.613 129.488 554.071 128.944C554.53 128.389 555.191 128.112 556.055 128.112C556.429 128.112 556.765 128.176 557.063 128.304C557.362 128.421 557.634 128.619 557.879 128.896L556.567 130.4C556.45 130.272 556.306 130.176 556.135 130.112C555.975 130.048 555.789 130.016 555.575 130.016C555.127 130.016 554.759 130.16 554.471 130.448C554.194 130.725 554.055 131.152 554.055 131.728ZM558.616 136V128.272H560.728V136H558.616ZM559.672 127.024C559.33 127.024 559.048 126.912 558.824 126.688C558.6 126.453 558.488 126.165 558.488 125.824C558.488 125.493 558.6 125.211 558.824 124.976C559.048 124.741 559.33 124.624 559.672 124.624C560.024 124.624 560.306 124.741 560.52 124.976C560.744 125.211 560.856 125.493 560.856 125.824C560.856 126.165 560.744 126.453 560.52 126.688C560.306 126.912 560.024 127.024 559.672 127.024ZM566.232 136.16C565.443 136.16 564.734 135.984 564.104 135.632C563.475 135.28 562.979 134.8 562.616 134.192C562.254 133.584 562.072 132.901 562.072 132.144C562.072 131.376 562.254 130.688 562.616 130.08C562.979 129.472 563.475 128.992 564.104 128.64C564.744 128.277 565.454 128.096 566.232 128.096C566.84 128.096 567.4 128.208 567.912 128.432C568.424 128.656 568.867 128.976 569.24 129.392L567.896 130.752C567.694 130.528 567.448 130.357 567.16 130.24C566.883 130.123 566.574 130.064 566.232 130.064C565.848 130.064 565.502 130.155 565.192 130.336C564.894 130.507 564.654 130.747 564.472 131.056C564.302 131.355 564.216 131.712 564.216 132.128C564.216 132.533 564.302 132.896 564.472 133.216C564.654 133.525 564.894 133.771 565.192 133.952C565.502 134.123 565.848 134.208 566.232 134.208C566.584 134.208 566.899 134.149 567.176 134.032C567.464 133.904 567.71 133.723 567.912 133.488L569.272 134.848C568.878 135.275 568.424 135.6 567.912 135.824C567.4 136.048 566.84 136.16 566.232 136.16ZM573.983 136.16C573.173 136.16 572.453 135.989 571.823 135.648C571.194 135.296 570.693 134.816 570.319 134.208C569.957 133.6 569.775 132.907 569.775 132.128C569.775 131.36 569.951 130.677 570.303 130.08C570.666 129.472 571.157 128.992 571.775 128.64C572.394 128.277 573.082 128.096 573.839 128.096C574.586 128.096 575.242 128.267 575.807 128.608C576.383 128.939 576.831 129.397 577.151 129.984C577.482 130.56 577.647 131.216 577.647 131.952C577.647 132.091 577.637 132.235 577.615 132.384C577.605 132.523 577.578 132.683 577.535 132.864L571.039 132.88V131.312L576.559 131.296L575.711 131.952C575.69 131.493 575.605 131.109 575.455 130.8C575.317 130.491 575.109 130.256 574.831 130.096C574.565 129.925 574.234 129.84 573.839 129.84C573.423 129.84 573.061 129.936 572.751 130.128C572.442 130.309 572.202 130.571 572.031 130.912C571.871 131.243 571.791 131.637 571.791 132.096C571.791 132.565 571.877 132.976 572.047 133.328C572.229 133.669 572.485 133.936 572.815 134.128C573.146 134.309 573.53 134.4 573.967 134.4C574.362 134.4 574.719 134.336 575.039 134.208C575.359 134.069 575.637 133.867 575.871 133.6L577.103 134.832C576.73 135.269 576.271 135.6 575.727 135.824C575.194 136.048 574.613 136.16 573.983 136.16Z" fill="white" fill-opacity="0.8"/>
<path d="M685.4 132.032L689.24 124.752H691.64L687.704 132.032H685.4ZM685.4 133.312V132.032L686.2 131.408H694.264V133.312H685.4ZM690.712 136V128.832H692.856V136H690.712ZM696.524 136.16C696.14 136.16 695.826 136.032 695.58 135.776C695.335 135.52 695.212 135.205 695.212 134.832C695.212 134.459 695.335 134.144 695.58 133.888C695.826 133.632 696.14 133.504 696.524 133.504C696.898 133.504 697.207 133.632 697.452 133.888C697.698 134.144 697.82 134.459 697.82 134.832C697.82 135.205 697.698 135.52 697.452 135.776C697.207 136.032 696.898 136.16 696.524 136.16ZM706.416 136.16C705.509 136.16 704.731 136.005 704.08 135.696C703.44 135.387 702.859 134.923 702.336 134.304L703.776 132.864C704.107 133.301 704.491 133.643 704.928 133.888C705.365 134.123 705.899 134.24 706.528 134.24C707.093 134.24 707.541 134.128 707.872 133.904C708.213 133.68 708.384 133.371 708.384 132.976C708.384 132.635 708.288 132.357 708.096 132.144C707.904 131.931 707.648 131.749 707.328 131.6C707.019 131.451 706.672 131.317 706.288 131.2C705.915 131.072 705.536 130.928 705.152 130.768C704.779 130.608 704.432 130.411 704.112 130.176C703.803 129.931 703.552 129.621 703.36 129.248C703.168 128.864 703.072 128.384 703.072 127.808C703.072 127.125 703.237 126.544 703.568 126.064C703.899 125.584 704.352 125.216 704.928 124.96C705.504 124.704 706.155 124.576 706.88 124.576C707.648 124.576 708.341 124.72 708.96 125.008C709.579 125.296 710.085 125.669 710.48 126.128L709.04 127.568C708.709 127.205 708.368 126.939 708.016 126.768C707.675 126.597 707.285 126.512 706.848 126.512C706.347 126.512 705.952 126.608 705.664 126.8C705.376 126.992 705.232 127.269 705.232 127.632C705.232 127.941 705.328 128.192 705.52 128.384C705.712 128.576 705.963 128.741 706.272 128.88C706.592 129.019 706.939 129.152 707.312 129.28C707.696 129.408 708.075 129.552 708.448 129.712C708.832 129.872 709.179 130.08 709.488 130.336C709.808 130.592 710.064 130.923 710.256 131.328C710.448 131.723 710.544 132.213 710.544 132.8C710.544 133.845 710.176 134.667 709.44 135.264C708.704 135.861 707.696 136.16 706.416 136.16ZM712.037 136V128.272H714.149V136H712.037ZM713.093 127.024C712.752 127.024 712.469 126.912 712.245 126.688C712.021 126.453 711.909 126.165 711.909 125.824C711.909 125.493 712.021 125.211 712.245 124.976C712.469 124.741 712.752 124.624 713.093 124.624C713.445 124.624 713.728 124.741 713.941 124.976C714.165 125.211 714.277 125.493 714.277 125.824C714.277 126.165 714.165 126.453 713.941 126.688C713.728 126.912 713.445 127.024 713.093 127.024ZM719.238 139.424C718.417 139.424 717.691 139.275 717.062 138.976C716.433 138.688 715.931 138.277 715.558 137.744L716.886 136.416C717.185 136.768 717.515 137.035 717.878 137.216C718.251 137.408 718.699 137.504 719.222 137.504C719.873 137.504 720.385 137.339 720.758 137.008C721.142 136.677 721.334 136.219 721.334 135.632V133.696L721.686 132L721.35 130.304V128.272H723.43V135.6C723.43 136.368 723.249 137.035 722.886 137.6C722.534 138.176 722.043 138.624 721.414 138.944C720.785 139.264 720.059 139.424 719.238 139.424ZM719.142 135.792C718.449 135.792 717.825 135.627 717.27 135.296C716.715 134.955 716.278 134.491 715.958 133.904C715.649 133.317 715.494 132.661 715.494 131.936C715.494 131.211 715.649 130.56 715.958 129.984C716.278 129.408 716.715 128.955 717.27 128.624C717.825 128.283 718.449 128.112 719.142 128.112C719.718 128.112 720.225 128.224 720.662 128.448C721.11 128.672 721.462 128.981 721.718 129.376C721.974 129.76 722.113 130.213 722.134 130.736V133.168C722.113 133.68 721.969 134.139 721.702 134.544C721.446 134.939 721.094 135.248 720.646 135.472C720.209 135.685 719.707 135.792 719.142 135.792ZM719.558 133.888C719.942 133.888 720.273 133.808 720.55 133.648C720.838 133.477 721.062 133.248 721.222 132.96C721.382 132.661 721.462 132.325 721.462 131.952C721.462 131.568 721.382 131.232 721.222 130.944C721.062 130.656 720.838 130.432 720.55 130.272C720.273 130.101 719.942 130.016 719.558 130.016C719.174 130.016 718.838 130.101 718.55 130.272C718.262 130.432 718.038 130.661 717.878 130.96C717.718 131.248 717.638 131.579 717.638 131.952C717.638 132.315 717.718 132.645 717.878 132.944C718.038 133.232 718.262 133.461 718.55 133.632C718.838 133.803 719.174 133.888 719.558 133.888ZM730.472 136V131.568C730.472 131.109 730.328 130.736 730.04 130.448C729.752 130.16 729.378 130.016 728.92 130.016C728.621 130.016 728.354 130.08 728.12 130.208C727.885 130.336 727.698 130.517 727.56 130.752C727.432 130.987 727.368 131.259 727.368 131.568L726.552 131.152C726.552 130.544 726.68 130.016 726.936 129.568C727.202 129.109 727.565 128.752 728.024 128.496C728.493 128.24 729.021 128.112 729.608 128.112C730.173 128.112 730.68 128.256 731.128 128.544C731.576 128.821 731.928 129.189 732.184 129.648C732.44 130.096 732.568 130.581 732.568 131.104V136H730.472ZM725.272 136V128.272H727.368V136H725.272ZM738.517 136V125.056H740.613V136H738.517ZM736.709 130.112V128.272H742.421V130.112H736.709ZM748.8 136V131.568C748.8 131.109 748.656 130.736 748.368 130.448C748.08 130.16 747.707 130.016 747.248 130.016C746.949 130.016 746.683 130.08 746.448 130.208C746.213 130.336 746.027 130.517 745.888 130.752C745.76 130.987 745.696 131.259 745.696 131.568L744.88 131.152C744.88 130.544 745.008 130.016 745.264 129.568C745.52 129.109 745.872 128.752 746.32 128.496C746.779 128.24 747.301 128.112 747.888 128.112C748.475 128.112 748.992 128.24 749.44 128.496C749.899 128.752 750.256 129.104 750.512 129.552C750.768 130 750.896 130.517 750.896 131.104V136H748.8ZM743.6 136V124.432H745.696V136H743.6ZM756.28 136.16C755.47 136.16 754.75 135.989 754.12 135.648C753.491 135.296 752.99 134.816 752.616 134.208C752.254 133.6 752.072 132.907 752.072 132.128C752.072 131.36 752.248 130.677 752.6 130.08C752.963 129.472 753.454 128.992 754.072 128.64C754.691 128.277 755.379 128.096 756.136 128.096C756.883 128.096 757.539 128.267 758.104 128.608C758.68 128.939 759.128 129.397 759.448 129.984C759.779 130.56 759.944 131.216 759.944 131.952C759.944 132.091 759.934 132.235 759.912 132.384C759.902 132.523 759.875 132.683 759.832 132.864L753.336 132.88V131.312L758.856 131.296L758.008 131.952C757.987 131.493 757.902 131.109 757.752 130.8C757.614 130.491 757.406 130.256 757.128 130.096C756.862 129.925 756.531 129.84 756.136 129.84C755.72 129.84 755.358 129.936 755.048 130.128C754.739 130.309 754.499 130.571 754.328 130.912C754.168 131.243 754.088 131.637 754.088 132.096C754.088 132.565 754.174 132.976 754.344 133.328C754.526 133.669 754.782 133.936 755.112 134.128C755.443 134.309 755.827 134.4 756.264 134.4C756.659 134.4 757.016 134.336 757.336 134.208C757.656 134.069 757.934 133.867 758.168 133.6L759.4 134.832C759.027 135.269 758.568 135.6 758.024 135.824C757.491 136.048 756.91 136.16 756.28 136.16ZM769.806 136.16C768.984 136.16 768.222 136.016 767.518 135.728C766.814 135.429 766.195 135.019 765.662 134.496C765.139 133.963 764.734 133.344 764.446 132.64C764.168 131.936 764.03 131.179 764.03 130.368C764.03 129.557 764.168 128.8 764.446 128.096C764.734 127.392 765.139 126.779 765.662 126.256C766.195 125.733 766.808 125.323 767.502 125.024C768.206 124.725 768.974 124.576 769.806 124.576C770.702 124.576 771.491 124.725 772.174 125.024C772.856 125.312 773.459 125.712 773.982 126.224L772.51 127.696C772.2 127.355 771.822 127.088 771.374 126.896C770.926 126.704 770.403 126.608 769.806 126.608C769.283 126.608 768.803 126.699 768.366 126.88C767.939 127.051 767.566 127.307 767.246 127.648C766.926 127.979 766.68 128.379 766.51 128.848C766.339 129.307 766.254 129.813 766.254 130.368C766.254 130.933 766.339 131.445 766.51 131.904C766.68 132.363 766.926 132.763 767.246 133.104C767.566 133.435 767.939 133.691 768.366 133.872C768.803 134.053 769.283 134.144 769.806 134.144C770.435 134.144 770.974 134.048 771.422 133.856C771.88 133.664 772.264 133.392 772.574 133.04L774.046 134.512C773.523 135.035 772.915 135.44 772.222 135.728C771.528 136.016 770.723 136.16 769.806 136.16ZM778.763 136.16C777.984 136.16 777.28 135.984 776.651 135.632C776.032 135.269 775.536 134.784 775.163 134.176C774.8 133.557 774.619 132.869 774.619 132.112C774.619 131.355 774.8 130.677 775.163 130.08C775.526 129.472 776.022 128.992 776.651 128.64C777.28 128.277 777.979 128.096 778.747 128.096C779.536 128.096 780.24 128.277 780.859 128.64C781.488 128.992 781.984 129.472 782.347 130.08C782.71 130.677 782.891 131.355 782.891 132.112C782.891 132.869 782.71 133.557 782.347 134.176C781.984 134.784 781.488 135.269 780.859 135.632C780.24 135.984 779.542 136.16 778.763 136.16ZM778.747 134.208C779.142 134.208 779.488 134.123 779.787 133.952C780.096 133.771 780.331 133.525 780.491 133.216C780.662 132.896 780.747 132.533 780.747 132.128C780.747 131.723 780.662 131.365 780.491 131.056C780.32 130.747 780.086 130.507 779.787 130.336C779.488 130.155 779.142 130.064 778.747 130.064C778.363 130.064 778.022 130.155 777.723 130.336C777.424 130.507 777.19 130.747 777.019 131.056C776.848 131.365 776.763 131.723 776.763 132.128C776.763 132.533 776.848 132.896 777.019 133.216C777.19 133.525 777.424 133.771 777.723 133.952C778.022 134.123 778.363 134.208 778.747 134.208ZM789.441 136V131.568C789.441 131.109 789.297 130.736 789.009 130.448C788.721 130.16 788.347 130.016 787.889 130.016C787.59 130.016 787.323 130.08 787.089 130.208C786.854 130.336 786.667 130.517 786.529 130.752C786.401 130.987 786.337 131.259 786.337 131.568L785.521 131.152C785.521 130.544 785.649 130.016 785.905 129.568C786.171 129.109 786.534 128.752 786.993 128.496C787.462 128.24 787.99 128.112 788.577 128.112C789.142 128.112 789.649 128.256 790.097 128.544C790.545 128.821 790.897 129.189 791.153 129.648C791.409 130.096 791.536 130.581 791.536 131.104V136H789.441ZM784.241 136V128.272H786.337V136L784.241 136ZM794.267 136V125.056H796.363V136H794.267ZM792.459 130.112V128.272H798.171V130.112H792.459ZM799.35 136V128.272H801.446V136H799.35ZM801.446 131.728L800.63 131.184C800.726 130.235 801.003 129.488 801.462 128.944C801.921 128.389 802.582 128.112 803.446 128.112C803.819 128.112 804.155 128.176 804.454 128.304C804.753 128.421 805.025 128.619 805.27 128.896L803.958 130.4C803.841 130.272 803.697 130.176 803.526 130.112C803.366 130.048 803.179 130.016 802.966 130.016C802.518 130.016 802.15 130.16 801.862 130.448C801.585 130.725 801.446 131.152 801.446 131.728ZM809.019 136.16C808.315 136.16 807.681 135.984 807.115 135.632C806.55 135.28 806.107 134.8 805.787 134.192C805.467 133.584 805.307 132.901 805.307 132.144C805.307 131.376 805.467 130.688 805.787 130.08C806.107 129.472 806.55 128.992 807.115 128.64C807.681 128.288 808.315 128.112 809.019 128.112C809.574 128.112 810.07 128.224 810.507 128.448C810.945 128.672 811.291 128.987 811.547 129.392C811.814 129.787 811.958 130.235 811.979 130.736V133.52C811.958 134.032 811.814 134.485 811.547 134.88C811.291 135.275 810.945 135.589 810.507 135.824C810.07 136.048 809.574 136.16 809.019 136.16ZM809.403 134.224C809.99 134.224 810.465 134.032 810.827 133.648C811.19 133.253 811.371 132.747 811.371 132.128C811.371 131.723 811.286 131.365 811.115 131.056C810.955 130.736 810.726 130.491 810.427 130.32C810.139 130.139 809.798 130.048 809.403 130.048C809.019 130.048 808.678 130.139 808.379 130.32C808.091 130.491 807.862 130.736 807.691 131.056C807.531 131.365 807.451 131.723 807.451 132.128C807.451 132.544 807.531 132.912 807.691 133.232C807.862 133.541 808.091 133.787 808.379 133.968C808.678 134.139 809.019 134.224 809.403 134.224ZM811.259 136V133.92L811.595 132.032L811.259 130.176V128.272H813.339V136H811.259ZM818.842 136.16C818.052 136.16 817.343 135.984 816.714 135.632C816.084 135.28 815.588 134.8 815.226 134.192C814.863 133.584 814.682 132.901 814.682 132.144C814.682 131.376 814.863 130.688 815.226 130.08C815.588 129.472 816.084 128.992 816.714 128.64C817.354 128.277 818.063 128.096 818.842 128.096C819.45 128.096 820.01 128.208 820.522 128.432C821.034 128.656 821.476 128.976 821.85 129.392L820.506 130.752C820.303 130.528 820.058 130.357 819.77 130.24C819.492 130.123 819.183 130.064 818.842 130.064C818.458 130.064 818.111 130.155 817.802 130.336C817.503 130.507 817.263 130.747 817.082 131.056C816.911 131.355 816.826 131.712 816.826 132.128C816.826 132.533 816.911 132.896 817.082 133.216C817.263 133.525 817.503 133.771 817.802 133.952C818.111 134.123 818.458 134.208 818.842 134.208C819.194 134.208 819.508 134.149 819.786 134.032C820.074 133.904 820.319 133.723 820.522 133.488L821.882 134.848C821.487 135.275 821.034 135.6 820.522 135.824C820.01 136.048 819.45 136.16 818.842 136.16ZM824.08 136V125.056H826.176V136H824.08ZM822.272 130.112V128.272H827.984V130.112H822.272Z" fill="white" fill-opacity="0.8"/>
<path d="M98 51H762" stroke="white" stroke-opacity="0.2" stroke-width="2" stroke-dasharray="4 4"/>
<circle cx="49.5" cy="48.5" r="48.5" fill="white" fill-opacity="0.08"/>
<circle cx="277.5" cy="48.5" r="48.5" fill="#2D2727"/>
<circle cx="505.5" cy="48.5" r="48.5" fill="#2D2727"/>
<circle cx="733.5" cy="48.5" r="48.5" fill="#2D2727"/>
<path fill-rule="evenodd" clip-rule="evenodd" d="M710.552 25.0839C710.451 25.1253 710.285 25.251 710.184 25.3634C710.001 25.5665 710 25.697 710 48.529V71.4905L710.255 71.7452L710.51 72H728.533H746.557L746.811 71.7452L747.067 71.4905V63.7297V55.9689L746.814 55.7162C746.437 55.3403 745.899 55.3594 745.54 55.7616L745.273 56.0596V63.1338V70.2081H728.533H711.794V48.5215V26.8349H723.061H734.328L734.329 31.6822C734.329 34.3483 734.355 36.6844 734.387 36.8735C734.418 37.0627 734.547 37.3212 734.674 37.4478L734.905 37.6782H740.089H745.273V43.014C745.273 46.7628 745.304 48.4095 745.376 48.5505C745.542 48.8745 745.848 49.0688 746.193 49.0688C746.538 49.0688 746.844 48.8745 747.01 48.5505C747.082 48.4089 747.113 46.6285 747.113 42.504C747.113 37.6013 747.091 36.6182 746.981 36.4101C746.821 36.1101 735.93 25.2426 735.645 25.0985C735.404 24.9772 710.848 24.9629 710.552 25.0839ZM752.703 25.1571C752.507 25.2781 752.114 26.0285 750.909 28.5776L749.366 31.843V51.1935V70.5441L749.644 70.994C749.817 71.2728 750.094 71.5495 750.373 71.7219L750.823 72H753.183H755.543L755.993 71.7219C756.272 71.5495 756.549 71.2728 756.722 70.994L757 70.5441V51.1935V31.843L755.455 28.5749C754.196 25.9119 753.861 25.2781 753.647 25.1519C753.317 24.957 753.023 24.9586 752.703 25.1571ZM740.122 32.0268L743.939 35.8403H740.099H736.259V32.0268C736.259 29.9293 736.27 28.2132 736.283 28.2132C736.296 28.2132 738.023 29.9293 740.122 32.0268ZM753.945 29.7065L754.642 31.1998L753.913 31.2264C753.511 31.2411 752.855 31.2411 752.453 31.2264L751.724 31.1998L752.421 29.7065C752.805 28.8853 753.147 28.2132 753.183 28.2132C753.218 28.2132 753.561 28.8853 753.945 29.7065ZM755.206 48.8431V64.6027H753.183H751.159V48.8431V33.0835H753.183H755.206V48.8431ZM717.174 34.8245C716.589 35.0639 716.433 35.8307 716.879 36.2768L717.132 36.5295L720.004 36.5565C721.584 36.5713 722.973 36.5594 723.091 36.5298C723.21 36.5003 723.406 36.3684 723.528 36.2367C723.924 35.8103 723.775 35.1201 723.228 34.8403C722.991 34.7191 717.467 34.7048 717.174 34.8245ZM726.05 34.8546C725.704 35.0265 725.468 35.5659 725.594 35.8976C725.819 36.4891 726.342 36.7144 726.864 36.4448C727.203 36.2696 727.338 36.0457 727.338 35.6565C727.338 35.2721 727.204 35.0438 726.88 34.8764C726.555 34.7088 726.354 34.7034 726.05 34.8546ZM717.174 40.338C716.589 40.5775 716.433 41.3443 716.879 41.7904L717.132 42.0431L728.487 42.0671L739.841 42.0911L740.141 41.8238C740.389 41.6023 740.44 41.4901 740.44 41.1701C740.44 40.8503 740.389 40.7378 740.142 40.5175L739.843 40.2512L728.601 40.2569C722.417 40.2602 717.275 40.2966 717.174 40.338ZM717.174 45.8515C716.589 46.091 716.433 46.8579 716.879 47.3039L717.132 47.5566L728.487 47.5807L739.841 47.6047L740.141 47.3374C740.389 47.1159 740.44 47.0037 740.44 46.6836C740.44 46.3638 740.389 46.2514 740.142 46.031L739.843 45.7647L728.601 45.7705C722.417 45.7737 717.275 45.8102 717.174 45.8515ZM717.174 51.3651C716.589 51.6046 716.433 52.3714 716.879 52.8175L717.132 53.0702L728.487 53.0942L739.841 53.1182L740.141 52.8509C740.389 52.6294 740.44 52.5172 740.44 52.1972C740.44 51.8774 740.389 51.7649 740.142 51.5446L739.843 51.2783L728.601 51.284C722.417 51.2873 717.275 51.3237 717.174 51.3651ZM745.861 51.3648C745.569 51.4878 745.273 51.9126 745.273 52.2081C745.273 52.3672 745.378 52.587 745.54 52.7679C746.093 53.3867 747.062 53.0234 747.062 52.1972C747.062 51.5868 746.408 51.1339 745.861 51.3648ZM717.174 56.8786C716.589 57.1181 716.433 57.885 716.879 58.331L717.132 58.5837L728.487 58.6078L739.841 58.6318L740.141 58.3644C740.389 58.143 740.44 58.0308 740.44 57.7107C740.44 57.3909 740.389 57.2785 740.142 57.0581L739.843 56.7918L728.601 56.7976C722.417 56.8008 717.275 56.8373 717.174 56.8786ZM717.174 62.3922C716.589 62.6317 716.433 63.3985 716.879 63.8445L717.132 64.0972L728.487 64.1213L739.841 64.1453L740.141 63.878C740.389 63.6565 740.44 63.5443 740.44 63.2243C740.44 62.9045 740.389 62.792 740.142 62.5717L739.843 62.3053L728.601 62.3111C722.417 62.3144 717.275 62.3508 717.174 62.3922ZM755.206 68.214C755.206 69.4709 755.174 70.0197 755.096 70.0978C754.94 70.2536 751.426 70.2536 751.27 70.0978C751.192 70.0197 751.159 69.4709 751.159 68.214V66.4405H753.183H755.206V68.214Z" fill="#E49B00"/>
<path fill-rule="evenodd" clip-rule="evenodd" d="M31.2229 30.1362C29.5045 30.553 28.0563 32.0454 27.6966 33.7701C27.6233 34.1214 27.5919 37.9463 27.5919 46.5286V58.7855H27.1611C26.2361 58.7855 25.9159 59.2146 26.0183 60.317C26.2465 62.7726 27.8878 64.8144 30.3287 65.6793L31.0479 65.9341L38.5713 65.9611C44.1736 65.981 46.1634 65.9595 46.3636 65.8767C46.6507 65.7578 46.9073 65.3602 46.9073 65.0346C46.9073 64.7216 46.6606 64.3246 46.3892 64.2009C46.2038 64.1163 44.337 64.0877 39.0097 64.0877C34.7665 64.0877 31.6811 64.0503 31.391 63.9953C29.9092 63.7143 28.4307 62.354 28.018 60.8922L27.9579 60.6791H50.2072H72.4566L72.3605 61.0342C71.995 62.385 70.5098 63.7214 69.074 63.9917C68.7578 64.0513 65.8511 64.0877 61.4236 64.0877C53.6718 64.0877 53.891 64.0732 53.6483 64.6059C53.4199 65.1072 53.6157 65.6848 54.0789 65.8767C54.2791 65.9595 56.2689 65.981 61.8712 65.9611L69.3946 65.9341L70.1511 65.6667C72.0969 64.9792 73.4921 63.5789 74.1326 61.6711C74.4251 60.7998 74.5303 59.7515 74.3654 59.3533C74.2124 58.9838 73.8336 58.7855 73.2814 58.7855H72.8506V46.5286C72.8506 37.9463 72.8192 34.1214 72.7459 33.7701C72.3759 31.9957 70.8566 30.4764 69.0823 30.1064C68.3157 29.9466 31.8865 29.9752 31.2229 30.1362ZM69.2574 32.1422C69.8874 32.4336 70.3461 32.8783 70.6454 33.4878L70.9096 34.0258L70.9347 46.4056L70.9597 58.7855H50.2227H29.4856V46.5886C29.4856 33.2247 29.4591 33.8676 30.0443 33.0596C30.3902 32.5822 30.8131 32.2776 31.4246 32.0655C31.871 31.9107 33.0273 31.9019 50.3633 31.9216L68.8265 31.9428L69.2574 32.1422ZM57.2026 33.8865C56.2527 34.1252 55.387 34.8391 54.9353 35.7566C54.6537 36.3284 54.6232 36.4735 54.615 37.2785L54.6061 38.1683L51.3011 40.0816L47.9962 41.995L47.5298 41.579C44.9716 39.2968 41.0222 40.0459 39.5234 43.0977C38.7866 44.5976 38.7863 46.0565 39.5221 47.577C40.9996 50.6294 44.9701 51.3855 47.5298 49.1019L47.9962 48.6859L51.3011 50.5993L54.6061 52.5126L54.615 53.4024C54.6232 54.2074 54.6537 54.3525 54.9353 54.9243C55.2966 55.6581 55.8889 56.2323 56.6597 56.5958C57.1006 56.8038 57.3112 56.8413 58.0326 56.8407C59.1576 56.8396 59.843 56.5451 60.5841 55.7446C61.2165 55.0616 61.4969 54.3699 61.4997 53.4863C61.5022 52.6935 61.4393 52.4324 61.081 51.7485C60.4013 50.4513 58.9244 49.7238 57.4959 49.9829C56.8784 50.0948 56.1181 50.43 55.9084 50.6827C55.8401 50.7649 55.7188 50.8321 55.6385 50.8321C55.5583 50.8321 54.0141 49.9793 52.207 48.9369L48.9213 47.0416L49.049 46.4988C49.1193 46.2002 49.1768 45.6789 49.1768 45.3405C49.1768 45.002 49.1193 44.4807 49.049 44.1821L48.9213 43.6393L52.207 41.744C54.0141 40.7016 55.5583 39.8488 55.6385 39.8488C55.7188 39.8488 55.8401 39.916 55.9084 39.9982C56.1181 40.2509 56.8784 40.5861 57.4959 40.698C58.9244 40.9571 60.4013 40.2296 61.081 38.9324C61.4393 38.2485 61.5022 37.9874 61.4997 37.1946C61.494 35.3992 60.0364 33.9003 58.2225 33.8247C57.8577 33.8094 57.3988 33.8373 57.2026 33.8865ZM58.9756 36.0048C59.4196 36.3435 59.6137 36.7428 59.6093 37.3088C59.5989 38.6572 58.0752 39.3337 57.0298 38.4541C56.1787 37.7379 56.3316 36.4002 57.3229 35.8896C57.8836 35.6009 58.5025 35.6439 58.9756 36.0048ZM45.4153 42.4292C46.0845 42.7356 46.6684 43.3191 46.988 44.0009C47.1975 44.4479 47.2387 44.6677 47.2387 45.3405C47.2387 46.0132 47.1975 46.233 46.988 46.68C46.6687 47.361 46.0874 47.9423 45.4064 48.2616C44.959 48.4714 44.7402 48.5122 44.0668 48.5119C43.3787 48.5114 43.1839 48.473 42.7233 48.2472C42.0244 47.9048 41.2985 47.1165 41.0717 46.4541C40.8534 45.8159 40.8528 44.8666 41.0705 44.2308C41.2583 43.6821 41.8917 42.9149 42.433 42.5803C43.2669 42.065 44.485 42.0033 45.4153 42.4292ZM60.1968 42.5939C59.669 42.8068 59.5176 43.6148 59.9181 44.0806L60.1464 44.3463L63.8199 44.3733C67.7879 44.4023 67.9218 44.3881 68.1682 43.9116C68.3354 43.5883 68.342 43.3459 68.1926 43.0181C67.9619 42.5115 67.8627 42.4995 63.9787 42.5059C62.0103 42.5092 60.3084 42.5488 60.1968 42.5939ZM43.4788 44.668C43.2246 44.8951 43.1716 45.011 43.1716 45.3405C43.1716 46.0238 43.8846 46.4838 44.4755 46.1815C45.3814 45.7182 45.0493 44.3936 44.0273 44.3936C43.8944 44.3936 43.6476 44.5171 43.4788 44.668ZM60.1968 46.3768C59.6674 46.6019 59.5177 47.4026 59.9181 47.8679C60.1078 48.0885 60.2217 48.1336 60.5891 48.1336C61.155 48.1336 61.4886 47.8 61.4886 47.2341C61.4886 46.5722 60.8046 46.1183 60.1968 46.3768ZM64.4576 46.3812C63.9299 46.5942 63.7783 47.4021 64.1786 47.8679L64.4069 48.1336L65.9419 48.164C66.9925 48.1847 67.5642 48.1581 67.7538 48.0796C68.048 47.9577 68.3058 47.563 68.3058 47.2341C68.3058 46.9211 68.059 46.5241 67.7877 46.4004C67.4978 46.2683 64.7761 46.2526 64.4576 46.3812ZM32.3995 50.601C32.0825 50.773 31.9474 51.0119 31.9474 51.4002C31.9474 51.7963 32.0853 52.0315 32.4189 52.204C32.8154 52.409 38.167 52.4161 38.5615 52.2121C39.1916 51.8862 39.1916 50.9142 38.5615 50.5883C38.1722 50.387 32.7733 50.3981 32.3995 50.601ZM58.9037 52.0757C59.55 52.4729 59.8148 53.4462 59.462 54.1284C58.8994 55.2164 57.2789 55.2543 56.6854 54.1933C55.8841 52.7611 57.5035 51.2152 58.9037 52.0757ZM32.3995 54.3883C32.0825 54.5603 31.9474 54.7992 31.9474 55.1875C31.9474 55.5837 32.0853 55.8189 32.4189 55.9914C32.8307 56.2042 33.1397 56.1661 33.4823 55.86C33.7364 55.6329 33.7894 55.517 33.7894 55.1875C33.7894 54.858 33.7364 54.7421 33.4823 54.5151C33.1405 54.2096 32.8018 54.17 32.3995 54.3883ZM36.6602 54.3883C36.3432 54.5603 36.2081 54.7992 36.2081 55.1875C36.2081 55.5837 36.3461 55.8189 36.6797 55.9914C36.9115 56.1112 37.5152 56.1343 40.4154 56.1343H43.8745L44.1815 55.86C44.4356 55.6329 44.4887 55.517 44.4887 55.1875C44.4887 54.858 44.4356 54.7421 44.1815 54.5151L43.8745 54.2407L40.3964 54.2445C37.5116 54.2476 36.8742 54.2721 36.6602 54.3883ZM49.7583 64.2199C48.9375 64.6749 49.2809 65.9814 50.2213 65.9814C50.701 65.9814 51.1681 65.5189 51.1681 65.0438C51.1681 64.3329 50.3825 63.8739 49.7583 64.2199Z" fill="#E49B00"/>
<path fill-rule="evenodd" clip-rule="evenodd" d="M258.067 26.073C257.321 26.2551 256.631 26.817 256.237 27.5641L256 28.0125V44.6467V61.2808L256.184 61.6781C256.452 62.2562 256.932 62.7425 257.528 63.04L258.051 63.301H263.723H269.394L270.145 63.9103C270.942 64.557 272.12 65.2902 272.947 65.6548C274.083 66.1557 276.006 66.6536 276.804 66.6536H277.139V67.982C277.139 69.4322 277.198 69.6855 277.582 69.8837C277.882 70.0388 278.118 70.0388 278.418 69.8837C278.802 69.6855 278.861 69.4322 278.861 67.982V66.6536H279.213C279.407 66.6536 279.944 66.5766 280.406 66.4826C282.517 66.0532 284.259 65.217 285.976 63.8092L286.59 63.3057L292.348 63.2818L298.106 63.258L298.475 63.0609C299.046 62.757 299.498 62.3018 299.761 61.7674L300 61.2808V44.6467V28.0125L299.763 27.5641C299.463 26.9946 299.039 26.5719 298.469 26.2718L298.02 26.0354L284.114 26.0125C273.735 25.9954 270.146 26.0148 269.967 26.0891C269.709 26.1956 269.476 26.5577 269.476 26.852C269.476 27.101 269.696 27.5035 269.881 27.5938C269.966 27.635 276.263 27.688 283.875 27.7117L297.715 27.7546L297.996 28.0356L298.278 28.3166L298.302 31.6676L298.327 35.0186H278H257.673L257.698 31.6676L257.722 28.3166L258.003 28.0356L258.285 27.7546L260.587 27.7109C261.853 27.6868 262.958 27.6338 263.042 27.593C263.225 27.5049 263.448 27.1023 263.448 26.8604C263.448 26.5697 263.254 26.2436 263.005 26.1149C262.816 26.0174 262.314 25.9942 260.546 26.0011C259.325 26.006 258.209 26.0384 258.067 26.073ZM266.041 26.1124C265.294 26.5254 265.607 27.7117 266.462 27.7117C266.898 27.7117 267.323 27.2917 267.323 26.8604C267.323 26.2149 266.608 25.7982 266.041 26.1124ZM261.489 30.6805C261.386 30.7532 261.256 30.9597 261.203 31.1394C261.121 31.4111 261.129 31.5132 261.249 31.7448C261.527 32.2827 261.322 32.2678 268.485 32.2678C275.435 32.2678 275.445 32.2672 275.668 31.8509C275.849 31.5142 275.782 31.03 275.52 30.7795L275.278 30.5485H268.478C262.502 30.5485 261.655 30.5645 261.489 30.6805ZM284.107 30.7998C283.925 30.9818 283.855 31.134 283.855 31.3519C283.855 31.7058 284.176 32.1356 284.5 32.2169C284.835 32.3008 285.296 32.0631 285.459 31.7229C285.869 30.8643 284.784 30.1237 284.107 30.7998ZM288.757 30.7998C288.334 31.2219 288.453 31.8844 288.999 32.143C289.26 32.2667 289.336 32.2696 289.608 32.1663C289.794 32.0959 289.985 31.9344 290.084 31.7648C290.227 31.5209 290.237 31.4353 290.152 31.1533C289.962 30.5212 289.223 30.3339 288.757 30.7998ZM293.406 30.7998C292.748 31.4571 293.452 32.5054 294.311 32.1471C295.182 31.7835 294.918 30.5485 293.969 30.5485C293.74 30.5485 293.592 30.6148 293.406 30.7998ZM298.321 48.7773C298.321 61.856 298.348 61.1172 297.855 61.44C297.66 61.5673 297.154 61.5817 292.866 61.5817H288.093L288.631 60.6874C289.471 59.2916 290.118 57.4841 290.266 56.1229C290.375 55.124 290.226 55.2203 291.658 55.2203C292.613 55.2203 292.981 55.1884 293.194 55.0872C293.723 54.8366 293.836 54.1682 293.42 53.7523L293.168 53.501H291.785C290.419 53.501 290.402 53.4987 290.368 53.3076C290.348 53.2012 290.27 52.7124 290.193 52.2213C289.83 49.8902 288.673 47.6173 286.917 45.7819C285.934 44.7546 284.942 44.0133 283.688 43.3691C282.233 42.6214 281.047 42.2606 279.276 42.0263L278.873 41.9729L278.845 40.5513L278.818 39.1296L278.576 38.9224C278.249 38.6413 277.751 38.6413 277.424 38.9224L277.182 39.1296L277.155 40.5513L277.127 41.9729L276.724 42.0256C273.79 42.4089 271.456 43.4967 269.45 45.416C268.411 46.4096 267.653 47.4085 267.028 48.6062C266.299 50.0019 265.944 51.1788 265.635 53.2216L265.593 53.501H264.213H262.832L262.58 53.7523C262.164 54.1682 262.277 54.8366 262.806 55.0872C263.019 55.1884 263.387 55.2203 264.342 55.2203C265.576 55.2203 265.598 55.2236 265.632 55.4137C265.652 55.5201 265.728 55.994 265.801 56.4668C266.035 57.9681 266.717 59.7299 267.572 61.0444L267.922 61.5817H263.142C258.847 61.5817 258.34 61.5673 258.145 61.44C257.652 61.1172 257.679 61.856 257.679 48.7773V36.7379H278H298.321V48.7773ZM277.139 45.1097V46.5184L276.73 46.5795C276.059 46.6796 274.985 47.0465 274.313 47.405C272.214 48.5238 270.743 50.4989 270.275 52.8271L270.139 53.5051L268.753 53.4816L267.366 53.458L267.395 53.1142C267.477 52.1212 267.911 50.6754 268.45 49.597C270.093 46.3147 273.368 44.0683 277.031 43.7115C277.113 43.7036 277.139 44.0345 277.139 45.1097ZM280.547 44.0049C283.626 44.7718 286.14 46.7866 287.557 49.6211C288.096 50.6998 288.523 52.123 288.605 53.1142L288.634 53.458L287.25 53.4816L285.866 53.5051L285.714 52.7939C285.198 50.3884 283.654 48.3768 281.487 47.2897C280.963 47.0267 279.826 46.6625 279.27 46.5795L278.861 46.5184V45.1138V43.7091L279.313 43.7595C279.562 43.7873 280.117 43.8977 280.547 44.0049ZM279.527 48.3933C280.708 48.696 281.991 49.5121 282.741 50.4376C283.688 51.6064 284.121 52.8379 284.12 54.3607C284.119 56.1581 283.495 57.5789 282.151 58.8446C281.424 59.5301 280.306 60.1222 279.332 60.3386C278.363 60.5537 276.98 60.4824 276.063 60.1702C272.484 58.9502 270.808 54.8257 272.545 51.5128C273.451 49.7849 275.164 48.5622 277.099 48.2618C277.735 48.163 278.869 48.2244 279.527 48.3933ZM280.012 51.7203C279.91 51.7777 279.277 52.4823 278.604 53.2861C277.93 54.0899 277.328 54.8015 277.265 54.8674C277.168 54.969 277.068 54.9185 276.61 54.5358C275.987 54.0166 275.742 53.9026 275.404 53.9766C275.107 54.0418 274.728 54.4751 274.728 54.7501C274.728 55.1361 274.925 55.3838 275.854 56.1635C276.957 57.0897 277.187 57.1958 277.603 56.9695C277.873 56.8229 280.94 53.2721 281.174 52.8356C281.553 52.1285 280.713 51.3225 280.012 51.7203ZM270.322 56.0585C270.852 58.3776 272.384 60.3244 274.513 61.3859C275.095 61.6765 275.979 61.9762 276.493 62.0578C277.193 62.1689 277.139 62.0421 277.139 63.5646V64.9343H276.877C276.733 64.9343 276.316 64.8744 275.951 64.8012C271.455 63.8994 268.014 60.2512 267.422 55.7576L267.351 55.2203H268.741H270.13L270.322 56.0585ZM288.578 55.7576C287.99 60.2007 284.596 63.8497 280.196 64.7699C279.769 64.8591 279.295 64.9326 279.141 64.9332L278.861 64.9343V63.5646C278.861 62.0421 278.807 62.1689 279.507 62.0578C279.696 62.0277 280.103 61.9223 280.411 61.8234C283.222 60.9203 285.275 58.5221 285.788 55.5427L285.843 55.2203H287.246H288.649L288.578 55.7576Z" fill="#E49B00"/>
<path fill-rule="evenodd" clip-rule="evenodd" d="M499.525 24.12C498.061 24.4765 496.813 25.679 496.378 27.1543L496.26 27.5528H494.601C492.792 27.5528 492.293 27.6411 491.746 28.058C491.268 28.4226 490.943 29.1529 490.943 29.8648V30.4523L487.764 30.4793C484.204 30.5096 484.294 30.4918 484.097 31.2001C483.966 31.674 483.968 70.7904 484.1 71.2646C484.153 71.4556 484.308 71.6992 484.443 71.8059L484.69 72L501.253 71.9705C517.779 71.941 517.817 71.9406 518.612 71.7417C520.942 71.1595 522.727 70.1997 524.315 68.6758C526.737 66.3526 527.999 63.4105 528 60.0879C528 58.0071 527.609 56.3732 526.678 54.5664C524.94 51.1945 521.524 48.7541 517.839 48.2508L517.018 48.1388V46.1858C517.018 44.061 516.969 43.8157 516.505 43.6042C516.113 43.4258 515.824 43.472 515.495 43.7656L515.189 44.039L515.16 46.0862L515.132 48.1333L514.162 48.292C510.017 48.9694 506.386 51.9736 504.892 55.9624C504.377 57.3365 504.225 58.2383 504.22 59.9472C504.213 62.1435 504.53 63.5461 505.445 65.3702C506.281 67.037 507.542 68.5545 508.989 69.6365L509.636 70.1203H497.757H485.878V51.2275V32.3346H488.411H490.943V32.816C490.943 33.7923 491.396 34.5662 492.192 34.9517C492.593 35.1455 492.677 35.1475 500.516 35.1465L508.436 35.1456L508.916 34.9222C509.692 34.561 510.171 33.7288 510.171 32.7416V32.3346H512.656H515.142V34.3595C515.142 36.0803 515.165 36.424 515.298 36.6486C515.615 37.1843 516.309 37.2773 516.744 36.8424L517.018 36.5683L517.016 33.8186C517.014 31.3549 516.997 31.048 516.852 30.8689C516.532 30.4744 516.399 30.4594 513.238 30.4594H510.196L510.151 29.8258C510.082 28.8708 509.682 28.221 508.905 27.8026C508.567 27.6211 508.342 27.5959 506.672 27.5533L504.814 27.5059L504.608 26.894C503.912 24.8229 501.668 23.5985 499.525 24.12ZM501.719 26.1968C502.51 26.627 502.883 27.2476 502.987 28.3029C503.037 28.8204 503.089 28.9513 503.327 29.1702L503.608 29.428H505.839C507.449 29.428 508.101 29.4594 508.183 29.5406C508.312 29.6699 508.344 32.9567 508.217 33.1556C508.158 33.2488 506.553 33.2684 500.504 33.2494L492.866 33.2254L492.84 31.4561C492.823 30.2304 492.848 29.647 492.922 29.5574C493.008 29.454 493.481 29.428 495.276 29.428H497.523L497.797 29.154C498.017 28.9342 498.072 28.7982 498.072 28.4677C498.072 28.2411 498.138 27.8319 498.219 27.5584C498.402 26.9442 499.063 26.2445 499.671 26.0214C500.282 25.7972 501.116 25.8687 501.719 26.1968ZM515.47 39.593C515.151 39.912 515.085 40.2585 515.271 40.6476C515.448 41.0181 515.898 41.2507 516.292 41.1753C516.66 41.105 517.018 40.6455 517.018 40.243C517.018 39.4903 516 39.0629 515.47 39.593ZM491.73 41.3331C491.119 41.5821 490.946 42.3846 491.405 42.8431L491.679 43.1171H500.648C510.573 43.1171 510.053 43.1495 510.261 42.5188C510.394 42.1158 510.315 41.7904 510.015 41.5087L509.781 41.2888L500.854 41.2706C495.945 41.2606 491.839 41.2887 491.73 41.3331ZM491.73 48.1784C491.12 48.4249 490.946 49.2291 491.405 49.6876L491.679 49.9617H498.541H505.402L505.676 49.6876C506.13 49.234 506.007 48.505 505.431 48.2316C505.163 48.1047 504.297 48.0872 498.526 48.0924C494.897 48.0957 491.839 48.1344 491.73 48.1784ZM517.252 50.0657C521.719 50.6129 525.237 53.9543 526.024 58.3965C526.176 59.2568 526.151 61.0288 525.973 61.9546C525.242 65.7582 522.378 68.7949 518.565 69.8076C517.731 70.0293 517.457 70.0568 516.08 70.0568C514.714 70.0568 514.426 70.0284 513.63 69.8157C509.315 68.6631 506.273 64.9322 506.07 60.5444C505.984 58.6836 506.313 57.1799 507.176 55.4936C508.848 52.2276 512.278 50.0787 515.986 49.9742C516.218 49.9676 516.788 50.0088 517.252 50.0657ZM515.818 52.1393C515.472 52.229 515.143 52.6765 515.142 53.0583C515.142 53.2598 515.052 53.3345 514.542 53.5565C514.213 53.7001 513.774 53.9616 513.569 54.1376C512.548 55.0107 512.091 56.5354 512.468 57.8053C512.732 58.6929 513.415 59.3863 514.598 59.9664L515.132 60.2285L515.137 62.7015L515.142 65.1744L514.837 65.1145C514.669 65.0816 514.19 64.8841 513.772 64.6758C512.925 64.2541 512.691 64.2512 512.285 64.6573C511.922 65.0201 511.952 65.5553 512.357 65.9369C512.791 66.3455 513.786 66.8089 514.521 66.9443C515.116 67.0538 515.142 67.0699 515.142 67.3284C515.142 67.7207 515.383 68.1259 515.722 68.3007C515.963 68.4256 516.08 68.4343 516.366 68.3485C516.804 68.2173 517.018 67.8993 517.018 67.3797C517.018 66.9779 517.02 66.9758 517.51 66.8023C519.373 66.1438 520.554 64.2016 520.286 62.2399C520.085 60.7717 519.232 59.8746 517.276 59.0725L517.018 58.9668V57.0895C517.018 55.6663 517.046 55.2123 517.133 55.2123C517.197 55.2123 517.496 55.3648 517.798 55.5513C518.255 55.8331 518.406 55.8812 518.691 55.8358C519.375 55.7269 519.702 54.8927 519.273 54.3479C519.049 54.0639 517.927 53.4608 517.429 53.3574C517.102 53.2895 517.061 53.248 517.01 52.9326C516.946 52.5381 516.635 52.1564 516.33 52.0983C516.218 52.0769 515.988 52.0953 515.818 52.1393ZM491.73 55.0216C491.119 55.2726 490.946 56.0737 491.405 56.5322L491.679 56.8062H496.383H501.087L501.362 56.5322C501.736 56.158 501.736 55.7026 501.362 55.2841L501.088 54.9779L496.508 54.959C493.989 54.9486 491.839 54.9768 491.73 55.0216ZM515.122 57.4298L515.095 58.1471L514.787 57.8874C514.018 57.2394 514.019 56.2868 514.789 55.5663L515.095 55.2798L515.122 55.9961C515.138 56.3901 515.138 57.0353 515.122 57.4298ZM517.546 61.2624C518.538 61.8431 518.735 63.2918 517.957 64.2803C517.751 64.5411 517.218 64.9634 517.093 64.9634C517.052 64.9634 517.018 64.0774 517.018 62.9945C517.018 61.9115 517.046 61.0255 517.08 61.0255C517.114 61.0255 517.324 61.1321 517.546 61.2624ZM491.814 61.8396C491.7 61.8627 491.499 62.0086 491.369 62.1639C491.034 62.5613 491.048 63.0197 491.405 63.3767L491.679 63.6508H496.383H501.087L501.362 63.3767C501.736 63.0025 501.736 62.5471 501.362 62.1287L501.089 61.8224L496.555 61.8101C494.062 61.8033 491.928 61.8165 491.814 61.8396Z" fill="#E49B00"/>
</svg>
