<svg width="1895" height="132" viewBox="0 0 1895 132" fill="none" xmlns="http://www.w3.org/2000/svg">
<path fill-rule="evenodd" clip-rule="evenodd" d="M444.81 34.3558L465.346 34.3558V96.9209C465.346 103.766 463.749 109.699 460.554 114.718C457.36 119.738 452.979 123.663 447.411 126.492C441.844 129.322 435.501 130.736 428.382 130.736C421.08 130.736 414.646 129.458 409.078 126.903C403.602 124.439 399.267 120.925 396.073 116.361L408.941 103.492C409.212 103.814 409.485 104.127 409.762 104.432C411.92 106.801 414.294 108.633 416.882 109.927C419.894 111.387 423.499 112.117 427.697 112.117C432.9 112.117 436.961 110.84 439.882 108.284C442.894 105.728 444.4 102.123 444.4 97.4685V93.2664C443.998 93.5872 443.583 93.8962 443.155 94.1932C442.061 94.9517 440.879 95.6328 439.608 96.2364C435.957 97.9705 431.896 98.8376 427.424 98.8376C421.308 98.8376 415.878 97.3773 411.132 94.4567C406.386 91.536 402.644 87.5658 399.906 82.546C397.168 77.5262 395.799 71.9588 395.799 65.8437C395.799 59.6374 397.168 54.07 399.906 49.1414C402.644 44.1216 406.386 40.197 411.132 37.3677C415.878 34.4471 421.308 32.9868 427.424 32.9868C431.987 32.9868 436.048 33.8538 439.608 35.5879C441.039 36.2321 442.359 36.9886 443.566 37.8573C443.995 38.1661 444.41 38.4891 444.81 38.8262V34.3558ZM443.852 58.4509C442.757 56.2604 441.114 54.5263 438.923 53.2486C436.824 51.9708 434.314 51.3319 431.394 51.3319C428.564 51.3319 426.054 51.9708 423.864 53.2486C421.674 54.5263 419.985 56.2604 418.799 58.4509C417.612 60.6414 417.019 63.1056 417.019 65.8437C417.019 68.3993 417.612 70.8179 418.799 73.0996C419.985 75.2901 421.628 77.0242 423.727 78.302C425.918 79.5798 428.473 80.2186 431.394 80.2186C434.314 80.2186 436.824 79.5798 438.923 78.302C441.114 77.0242 442.757 75.3357 443.852 73.2365C445.038 71.0461 445.632 68.5818 445.632 65.8437C445.632 63.1056 445.038 60.6414 443.852 58.4509ZM424.364 77.2328C426.335 78.3798 428.664 78.9741 431.394 78.9741C434.129 78.9741 436.406 78.3772 438.276 77.2389L438.286 77.2328L438.296 77.2269C440.299 76.0586 441.77 74.5371 442.749 72.6608L442.753 72.6523L442.758 72.6438C443.836 70.6529 444.387 68.3958 444.387 65.8437C444.387 63.2917 443.836 61.0345 442.758 59.0437L442.748 59.0257L442.739 59.0075C441.756 57.0414 440.286 55.484 438.296 54.3236L438.286 54.3177L438.276 54.3117C436.406 53.1733 434.129 52.5765 431.394 52.5765C428.759 52.5765 426.47 53.1693 424.491 54.3236C422.494 55.4886 420.969 57.0575 419.893 59.0437C418.815 61.0345 418.263 63.2917 418.263 65.8437C418.263 68.1946 418.806 70.4133 419.898 72.5161C420.979 74.5079 422.463 76.0735 424.364 77.2328ZM443.566 36.3452V33.1112L466.59 33.1112V96.9209C466.59 103.966 464.944 110.138 461.604 115.387C458.284 120.604 453.731 124.677 447.975 127.602C442.21 130.532 435.669 131.981 428.382 131.981C420.937 131.981 414.321 130.678 408.564 128.036C402.901 125.487 398.385 121.835 395.053 117.075L394.454 116.22L409.022 101.652L409.895 102.693C412.171 105.406 414.685 107.435 417.431 108.81C420.235 110.168 423.644 110.873 427.697 110.873C432.702 110.873 436.436 109.645 439.062 107.347L439.069 107.341L439.077 107.335C441.759 105.059 443.155 101.83 443.155 97.4685V95.6898C442.208 96.2997 441.203 96.8566 440.142 97.3606C436.307 99.1821 432.061 100.082 427.424 100.082C421.101 100.082 415.441 98.5695 410.48 95.5166C405.544 92.4793 401.652 88.347 398.813 83.142C395.969 77.9267 394.554 72.1521 394.554 65.8437C394.554 59.4495 395.966 53.6718 398.816 48.5412C401.655 43.3376 405.548 39.2495 410.487 36.3031C415.446 33.2533 421.104 31.7422 427.424 31.7422C432.14 31.7422 436.387 32.6378 440.136 34.4608C441.354 35.0101 442.498 35.6382 443.566 36.3452Z" fill="#F2B125"/>
<path fill-rule="evenodd" clip-rule="evenodd" d="M31.4372 99.4603L31.4312 99.4578C25.176 96.8437 19.7026 93.2436 15.0222 88.6568L15.0177 88.6524L15.0133 88.6479C10.3384 83.973 6.64619 78.5501 3.93845 72.3877L3.93391 72.3773L3.92956 72.3669C1.30671 66.0908 0 59.3553 0 52.1729C0 44.9847 1.35457 38.2871 4.07536 32.0949C6.7864 25.925 10.5303 20.5414 15.3048 15.9542C20.17 11.2762 25.8293 7.67586 32.2717 5.15387C38.7248 2.53634 45.6362 1.23214 52.9943 1.23214C61.4517 1.23214 69.1562 2.76613 76.0874 5.85657C83.0908 8.93853 88.9069 13.2007 93.5102 18.6496L94.2487 19.5237L77.7908 35.9817L76.926 34.8625C73.9308 30.9864 70.4289 28.1052 66.4215 26.1886C62.4124 24.2713 57.8539 23.2986 52.7205 23.2986C47.2564 23.2986 42.4076 24.5302 38.1416 26.9679L38.1332 26.9727L38.1248 26.9773C33.8626 29.3259 30.5153 32.6691 28.0706 37.0331C25.7258 41.29 24.5307 46.3229 24.5307 52.1729C24.5307 58.0237 25.7263 63.1079 28.0776 67.4624C30.4395 71.8361 33.6615 75.227 37.7504 77.663C41.8259 80.0909 46.5294 81.321 51.899 81.321C57.4051 81.321 61.982 80.2999 65.6828 78.3215C69.4821 76.248 72.3605 73.3243 74.3435 69.5307L74.3483 69.5216C74.9769 68.3429 75.513 67.0838 75.9549 65.7427L48.6009 65.3085V44.6307L101.881 44.6307V49.0241C101.881 60.7596 99.7567 70.7369 95.4409 78.9007C91.2263 86.9544 85.306 93.0713 77.6863 97.2111C70.1757 101.341 61.5221 103.387 51.7621 103.387C44.5796 103.387 37.8009 102.081 31.4372 99.4603ZM77.0894 96.119C84.4822 92.1032 90.2322 86.1707 94.3393 78.3215C98.5377 70.3811 100.637 60.6153 100.637 49.0241V45.8753L49.8455 45.8753V64.0835L77.6135 64.5243C77.5025 64.9438 77.3832 65.3568 77.2556 65.7633C76.7716 67.3055 76.1685 68.7535 75.4465 70.1073C73.3473 74.1231 70.2898 77.2263 66.274 79.4167C62.3494 81.5159 57.5577 82.5655 51.899 82.5655C46.3316 82.5655 41.4031 81.2878 37.1134 78.7322C32.8238 76.1767 29.4468 72.6172 26.9825 68.0537C24.5183 63.4902 23.2861 58.1966 23.2861 52.1729C23.2861 46.1491 24.5183 40.9011 26.9825 36.4289C29.5381 31.8654 33.0519 28.3516 37.5241 25.8873C41.9963 23.3318 47.0618 22.054 52.7205 22.054C58.0141 22.054 62.7601 23.0579 66.9585 25.0659C70.809 26.9074 74.1989 29.5935 77.1282 33.124C77.3928 33.443 77.6537 33.7688 77.9108 34.1015L92.5595 19.4528C88.0873 14.1592 82.4286 10.0064 75.5834 6.99455C68.8295 3.98266 61.2998 2.47672 52.9943 2.47672C45.784 2.47672 39.0301 3.75449 32.7325 6.31003C26.4349 8.7743 20.9131 12.2882 16.1671 16.8516C11.5124 21.3238 7.86161 26.5718 5.2148 32.5956C2.56799 38.6194 1.24458 45.1451 1.24458 52.1729C1.24458 59.2006 2.52235 65.772 5.07789 71.887C7.7247 77.9108 11.3298 83.2044 15.8933 87.7679C20.4568 92.2401 25.796 95.754 31.9111 98.3095C38.1174 100.865 44.7344 102.143 51.7621 102.143C61.3454 102.143 69.7878 100.135 77.0894 96.119ZM127.31 98.7196L127.299 98.7138L127.289 98.7078C121.63 95.5013 117.138 91.1529 113.831 85.6728C110.512 80.1729 108.86 74.0155 108.86 67.2323C108.86 60.4493 110.512 54.3337 113.836 48.9204C117.144 43.5319 121.638 39.2766 127.295 36.1637C132.976 32.9465 139.395 31.351 146.521 31.351C153.644 31.351 160.06 32.8992 165.74 36.0229C171.404 39.1384 175.9 43.4431 179.209 48.9245C182.531 54.3367 184.182 60.4509 184.182 67.2323C184.182 74.0155 182.53 80.1729 179.211 85.6728C175.905 91.1529 171.412 95.5013 165.754 98.7078L165.747 98.7117L165.74 98.7155C160.06 101.839 153.644 103.387 146.521 103.387C139.486 103.387 133.074 101.838 127.31 98.7196ZM158.555 75.0187L158.559 75.0105C159.735 72.7433 160.336 70.1599 160.336 67.2323C160.336 64.3023 159.734 61.8271 158.578 59.7631L158.573 59.7541L158.568 59.745C157.399 57.5736 155.785 55.9232 153.716 54.7647L153.69 54.7501L153.665 54.7342C151.703 53.5081 149.339 52.8698 146.521 52.8698C143.803 52.8698 141.428 53.5042 139.358 54.746L139.342 54.7556L139.326 54.7647C137.257 55.9232 135.643 57.5736 134.474 59.745C133.308 61.9109 132.706 64.4406 132.706 67.3692C132.706 70.1955 133.303 72.7318 134.479 75.0021C135.649 77.171 137.265 78.87 139.342 80.1197C141.413 81.2757 143.795 81.8686 146.521 81.8686C149.345 81.8686 151.771 81.2726 153.837 80.1197C155.909 78.873 157.473 77.1819 158.551 75.0268L158.555 75.0187ZM154.462 81.1965C152.18 82.4743 149.533 83.1132 146.521 83.1132C143.6 83.1132 140.999 82.4743 138.718 81.1965C136.436 79.8274 134.656 77.9564 133.378 75.5834C132.101 73.1192 131.462 70.3811 131.462 67.3692C131.462 64.266 132.101 61.528 133.378 59.155C134.656 56.782 136.436 54.9566 138.718 53.6788C140.999 52.3098 143.6 51.6252 146.521 51.6252C149.533 51.6252 152.134 52.3098 154.325 53.6788C156.606 54.9566 158.386 56.782 159.664 59.155C160.942 61.4367 161.581 64.1291 161.581 67.2323C161.581 70.3354 160.942 73.1192 159.664 75.5834C158.477 77.9564 156.743 79.8274 154.462 81.1965ZM194.859 101.881L194.859 0L218.295 0L218.295 101.881H194.859ZM245.244 98.5446L245.235 98.5389C240.3 95.4075 236.37 91.1392 233.445 85.7613L233.441 85.7539L233.437 85.7464C230.593 80.3427 229.187 74.2066 229.187 67.3692C229.187 60.5318 230.593 54.3957 233.437 48.992L233.441 48.9845L233.445 48.9771C236.37 43.5992 240.3 39.3309 245.235 36.1995L245.244 36.1938C250.293 33.05 256 31.4879 262.33 31.4879C266.964 31.4879 271.168 32.3869 274.917 34.212C276.549 34.9876 278.054 35.8958 279.431 36.9369V32.8569L302.455 32.8569V101.881H279.431V97.9103C278.098 98.9019 276.637 99.7746 275.048 100.529C271.214 102.35 266.967 103.25 262.33 103.25C256 103.25 250.293 101.688 245.244 98.5446ZM279.431 96.3345C279.861 95.985 280.276 95.6217 280.675 95.2445V100.637H301.211V34.1015L280.675 34.1015V39.6269C280.275 39.2442 279.86 38.8759 279.431 38.5222C277.924 37.2812 276.24 36.2184 274.378 35.3337C270.818 33.5995 266.802 32.7325 262.33 32.7325C256.215 32.7325 250.739 34.2384 245.902 37.2503C241.156 40.2622 237.368 44.3693 234.539 49.5717C231.8 54.774 230.431 60.7065 230.431 67.3692C230.431 74.0319 231.8 79.9644 234.539 85.1667C237.368 90.3691 241.156 94.4762 245.902 97.4881C250.739 100.5 256.215 102.006 262.33 102.006C266.802 102.006 270.864 101.139 274.515 99.4047C276.335 98.5401 277.973 97.5167 279.431 96.3345ZM258.907 53.6788C261.189 52.3098 263.79 51.6252 266.711 51.6252C269.632 51.6252 272.187 52.3098 274.378 53.6788C276.659 54.9566 278.393 56.782 279.58 59.155C280.858 61.528 281.497 64.266 281.497 67.3692C281.497 71.9327 280.128 75.7203 277.389 78.7322C274.651 81.6528 271.046 83.1132 266.574 83.1132C263.745 83.1132 261.189 82.4286 258.907 81.0596C256.626 79.6905 254.846 77.8195 253.568 75.4465C252.29 73.0735 251.652 70.3811 251.652 67.3692C251.652 64.266 252.29 61.528 253.568 59.155C254.937 56.782 256.717 54.9566 258.907 53.6788ZM254.656 59.7607C253.495 61.9231 252.896 64.4477 252.896 67.3692C252.896 70.1997 253.495 72.6853 254.664 74.8565C255.837 77.035 257.461 78.7401 259.548 79.9924C261.624 81.2379 263.955 81.8686 266.574 81.8686C270.743 81.8686 274.002 80.5223 276.475 77.888C278.975 75.1346 280.252 71.6598 280.252 67.3692C280.252 64.4406 279.65 61.9109 278.484 59.745L278.475 59.7284L278.467 59.7116C277.39 57.5582 275.83 55.9188 273.769 54.7647L273.743 54.7501L273.718 54.7342C271.75 53.5044 269.43 52.8698 266.711 52.8698C263.993 52.8698 261.617 53.5042 259.548 54.746L259.541 54.75L259.535 54.7538C257.551 55.9109 255.924 57.5679 254.656 59.7607ZM361.399 101.881V62.7145C361.399 59.5324 360.406 57.092 358.496 55.2619L358.477 55.2436L358.459 55.2244C356.615 53.3006 354.258 52.3222 351.28 52.3222C349.187 52.3222 347.4 52.7809 345.88 53.6607L345.858 53.6732L345.836 53.6849C344.332 54.4768 343.134 55.6645 342.24 57.2905L342.233 57.3024L342.226 57.3143C341.347 58.8338 340.888 60.6208 340.888 62.7145V101.881H317.452V32.8569L340.888 32.8569V36.7327C341.822 36.0684 342.811 35.4631 343.855 34.9171C348.158 32.6233 352.97 31.4879 358.262 31.4879C363.393 31.4879 367.96 32.7245 371.92 35.2314C375.928 37.6208 379.089 40.8302 381.384 44.8471C383.686 48.8749 384.834 53.2873 384.834 58.0597V101.881H361.399ZM371.268 36.292C367.526 33.919 363.191 32.7325 358.262 32.7325C353.151 32.7325 348.542 33.8277 344.435 36.0182C343.166 36.6815 341.984 37.4359 340.888 38.2815C340.46 38.6118 340.045 38.956 339.643 39.3141V34.1015L318.697 34.1015V100.637H339.643V62.7145C339.643 62.2511 339.664 61.799 339.705 61.3582C339.849 59.8258 340.244 58.4299 340.888 57.1704C340.971 57.0083 341.058 56.8483 341.149 56.6907C342.153 54.8653 343.522 53.4963 345.256 52.5836C346.991 51.5796 348.998 51.0776 351.28 51.0776C354.566 51.0776 357.258 52.1729 359.358 54.3633C361.548 56.4625 362.643 59.2462 362.643 62.7145V100.637H383.59V58.0597C383.59 53.4963 382.494 49.2979 380.304 45.4646C378.113 41.6312 375.101 38.5737 371.268 36.292ZM127.902 97.625C133.47 100.637 139.676 102.143 146.521 102.143C153.458 102.143 159.664 100.637 165.14 97.625C170.616 94.5218 174.951 90.3234 178.146 85.0298C181.34 79.7362 182.938 73.8037 182.938 67.2323C182.938 60.6609 181.34 54.774 178.146 49.5717C174.951 44.2781 170.616 40.1253 165.14 37.1134C159.664 34.1015 153.458 32.5956 146.521 32.5956C139.585 32.5956 133.378 34.1472 127.902 37.2503C122.426 40.2622 118.091 44.3693 114.896 49.5717C111.702 54.774 110.105 60.6609 110.105 67.2323C110.105 73.8037 111.702 79.7362 114.896 85.0298C118.091 90.3234 122.426 94.5218 127.902 97.625ZM196.104 100.637H217.05L217.05 1.24458L196.104 1.24458L196.104 100.637Z" fill="#F2B125"/>
<path fill-rule="evenodd" clip-rule="evenodd" d="M920.688 34.3553L941.224 34.3553V96.9204C941.224 103.766 939.627 109.698 936.432 114.718C933.238 119.738 928.857 123.662 923.289 126.492C917.722 129.321 911.379 130.736 904.26 130.736C896.958 130.736 890.524 129.458 884.956 126.902C879.48 124.438 875.145 120.924 871.95 116.361L884.819 103.492C885.089 103.814 885.363 104.127 885.64 104.431C887.798 106.8 890.172 108.632 892.76 109.926C895.772 111.387 899.377 112.117 903.575 112.117C908.778 112.117 912.839 110.839 915.76 108.283C918.772 105.728 920.278 102.123 920.278 97.4681V93.2659C919.876 93.5867 919.461 93.8957 919.033 94.1927C917.939 94.9512 916.757 95.6323 915.486 96.2359C911.835 97.97 907.774 98.8371 903.301 98.8371C897.186 98.8371 891.756 97.3768 887.01 94.4562C882.264 91.5355 878.522 87.5653 875.784 82.5455C873.046 77.5257 871.677 71.9583 871.677 65.8432C871.677 59.6369 873.046 54.0695 875.784 49.141C878.522 44.1211 882.264 40.1966 887.01 37.3672C891.756 34.4466 897.186 32.9863 903.301 32.9863C907.865 32.9863 911.926 33.8533 915.486 35.5875C916.917 36.2316 918.237 36.9881 919.444 37.8568C919.873 38.1656 920.288 38.4886 920.688 38.8257V34.3553ZM919.73 58.4504C918.635 56.26 916.992 54.5258 914.801 53.2481C912.702 51.9703 910.192 51.3314 907.272 51.3314C904.442 51.3314 901.932 51.9703 899.742 53.2481C897.551 54.5258 895.863 56.26 894.676 58.4504C893.49 60.6409 892.897 63.1052 892.897 65.8432C892.897 68.3988 893.49 70.8174 894.676 73.0991C895.863 75.2896 897.506 77.0237 899.605 78.3015C901.795 79.5793 904.351 80.2182 907.272 80.2182C910.192 80.2182 912.702 79.5793 914.801 78.3015C916.992 77.0237 918.635 75.3352 919.73 73.236C920.916 71.0456 921.51 68.5813 921.51 65.8432C921.51 63.1052 920.916 60.6409 919.73 58.4504ZM900.242 77.2323C902.213 78.3793 904.542 78.9736 907.272 78.9736C910.007 78.9736 912.284 78.3768 914.154 77.2384L914.164 77.2323L914.174 77.2265C916.177 76.0581 917.648 74.5366 918.626 72.6603L918.631 72.6518L918.636 72.6433C919.714 70.6524 920.265 68.3953 920.265 65.8432C920.265 63.2912 919.714 61.034 918.636 59.0432L918.626 59.0253L918.617 59.007C917.634 57.0409 916.164 55.4836 914.174 54.3231L914.164 54.3172L914.154 54.3112C912.284 53.1728 910.007 52.576 907.272 52.576C904.637 52.576 902.348 53.1688 900.369 54.3231C898.372 55.4881 896.847 57.057 895.771 59.0432C894.692 61.034 894.141 63.2912 894.141 65.8432C894.141 68.1941 894.684 70.4128 895.776 72.5156C896.857 74.5074 898.341 76.073 900.242 77.2323ZM919.444 36.3447V33.1107L942.468 33.1107V96.9204C942.468 103.966 940.822 110.138 937.482 115.386C934.162 120.603 929.609 124.676 923.853 127.601C918.088 130.531 911.547 131.98 904.26 131.98C896.815 131.98 890.199 130.677 884.442 128.036C878.779 125.487 874.263 121.835 870.931 117.075L870.332 116.219L884.9 101.651L885.773 102.692C888.049 105.406 890.563 107.435 893.309 108.81C896.113 110.168 899.522 110.872 903.575 110.872C908.58 110.872 912.314 109.645 914.94 107.347L914.947 107.341L914.954 107.334C917.637 105.058 919.033 101.829 919.033 97.4681V95.6893C918.086 96.2992 917.081 96.8561 916.02 97.3601C912.185 99.1816 907.938 100.082 903.301 100.082C896.979 100.082 891.319 98.569 886.358 95.5161C881.422 92.4788 877.53 88.3465 874.691 83.1415C871.846 77.9262 870.432 72.1516 870.432 65.8432C870.432 59.449 871.844 53.6713 874.693 48.5407C877.533 43.3371 881.426 39.2491 886.365 36.3027C891.324 33.2528 896.982 31.7417 903.301 31.7417C908.018 31.7417 912.265 32.6373 916.014 34.4603C917.232 35.0096 918.376 35.6377 919.444 36.3447Z" fill="#F2B125"/>
<path fill-rule="evenodd" clip-rule="evenodd" d="M507.316 99.4603L507.31 99.4578C501.055 96.8437 495.582 93.2436 490.901 88.6568L490.897 88.6524L490.892 88.6479C486.217 83.973 482.525 78.5501 479.817 72.3877L479.813 72.3774L479.808 72.3669C477.186 66.0908 475.879 59.3553 475.879 52.1729C475.879 44.9847 477.233 38.2871 479.954 32.0949C482.665 25.925 486.409 20.5414 491.184 15.9542C496.049 11.2762 501.708 7.67586 508.151 5.15387C514.604 2.53634 521.515 1.23214 528.873 1.23214C537.331 1.23214 545.035 2.76613 551.966 5.85657C558.97 8.93853 564.786 13.2007 569.389 18.6496L570.128 19.5237L553.67 35.9817L552.805 34.8625C549.81 30.9864 546.308 28.1052 542.3 26.1886C538.291 24.2713 533.733 23.2986 528.599 23.2986C523.135 23.2986 518.287 24.5302 514.021 26.9679L514.012 26.9727L514.004 26.9773C509.742 29.3259 506.394 32.6691 503.95 37.0331C501.605 41.29 500.41 46.3229 500.41 52.1729C500.41 58.0237 501.605 63.1079 503.957 67.4624C506.318 71.8361 509.54 75.227 513.629 77.663C517.705 80.0909 522.408 81.321 527.778 81.321C533.284 81.321 537.861 80.2999 541.562 78.3215C545.361 76.248 548.239 73.3243 550.222 69.5307L550.227 69.5216C550.856 68.3429 551.392 67.0838 551.834 65.7427L524.48 65.3085V44.6307L577.76 44.6307V49.0241C577.76 60.7596 575.636 70.7369 571.32 78.9007C567.105 86.9544 561.185 93.0713 553.565 97.2111C546.055 101.341 537.401 103.387 527.641 103.387C520.459 103.387 513.68 102.081 507.316 99.4603ZM552.968 96.119C560.361 92.1032 566.111 86.1707 570.218 78.3215C574.417 70.3811 576.516 60.6153 576.516 49.0241V45.8753L525.724 45.8753V64.0835L553.492 64.5243C553.381 64.9438 553.262 65.3568 553.135 65.7633C552.65 67.3055 552.047 68.7535 551.325 70.1073C549.226 74.1231 546.169 77.2263 542.153 79.4167C538.228 81.5159 533.437 82.5655 527.778 82.5655C522.211 82.5655 517.282 81.2878 512.992 78.7322C508.703 76.1767 505.326 72.6172 502.861 68.0537C500.397 63.4902 499.165 58.1966 499.165 52.1729C499.165 46.1491 500.397 40.9011 502.861 36.4289C505.417 31.8654 508.931 28.3516 513.403 25.8873C517.875 23.3318 522.941 22.054 528.599 22.054C533.893 22.054 538.639 23.0579 542.837 25.0659C546.688 26.9074 550.078 29.5935 553.007 33.124C553.272 33.443 553.533 33.7688 553.79 34.1015L568.438 19.4528C563.966 14.1592 558.308 10.0064 551.462 6.99455C544.708 3.98266 537.179 2.47672 528.873 2.47672C521.663 2.47672 514.909 3.75449 508.611 6.31003C502.314 8.7743 496.792 12.2882 492.046 16.8516C487.391 21.3238 483.741 26.5718 481.094 32.5956C478.447 38.6194 477.123 45.1451 477.123 52.1729C477.123 59.2006 478.401 65.772 480.957 71.887C483.604 77.9108 487.209 83.2044 491.772 87.7679C496.336 92.2401 501.675 95.754 507.79 98.3095C513.996 100.865 520.613 102.143 527.641 102.143C537.224 102.143 545.667 100.135 552.968 96.119ZM603.189 98.7196L603.178 98.7138L603.167 98.7078C597.509 95.5013 593.016 91.1528 589.71 85.6728C586.391 80.1729 584.739 74.0155 584.739 67.2323C584.739 60.4493 586.391 54.3337 589.715 48.9204C593.023 43.5319 597.517 39.2766 603.174 36.1637C608.854 32.9465 615.274 31.351 622.4 31.351C629.523 31.351 635.939 32.8992 641.619 36.0229C647.283 39.1384 651.779 43.4432 655.088 48.9245C658.41 54.3367 660.061 60.4509 660.061 67.2323C660.061 74.0155 658.409 80.1729 655.09 85.6728C651.783 91.1528 647.291 95.5013 641.633 98.7078L641.626 98.7117L641.619 98.7155C635.939 101.839 629.523 103.387 622.4 103.387C615.365 103.387 608.953 101.838 603.189 98.7196ZM634.434 75.0187L634.438 75.0105C635.613 72.7433 636.215 70.1599 636.215 67.2323C636.215 64.3023 635.613 61.8271 634.457 59.7631L634.452 59.7541L634.447 59.745C633.278 57.5736 631.664 55.9232 629.595 54.7647L629.569 54.7501L629.544 54.7342C627.582 53.5081 625.218 52.8698 622.4 52.8698C619.682 52.8698 617.307 53.5042 615.237 54.746L615.221 54.7556L615.205 54.7647C613.136 55.9232 611.522 57.5736 610.353 59.745C609.187 61.9109 608.585 64.4406 608.585 67.3692C608.585 70.1955 609.182 72.7318 610.358 75.0021C611.527 77.171 613.144 78.87 615.221 80.1197C617.292 81.2757 619.674 81.8686 622.4 81.8686C625.224 81.8686 627.65 81.2726 629.716 80.1197C631.788 78.873 633.352 77.182 634.43 75.0268L634.434 75.0187ZM630.34 81.1965C628.059 82.4743 625.412 83.1132 622.4 83.1132C619.479 83.1132 616.878 82.4743 614.596 81.1965C612.315 79.8275 610.535 77.9564 609.257 75.5834C607.979 73.1192 607.341 70.3811 607.341 67.3692C607.341 64.266 607.979 61.528 609.257 59.155C610.535 56.782 612.315 54.9566 614.596 53.6788C616.878 52.3098 619.479 51.6252 622.4 51.6252C625.412 51.6252 628.013 52.3098 630.204 53.6788C632.485 54.9566 634.265 56.782 635.543 59.155C636.821 61.4367 637.459 64.1291 637.459 67.2323C637.459 70.3354 636.821 73.1192 635.543 75.5834C634.356 77.9564 632.622 79.8275 630.34 81.1965ZM670.738 101.881V0L694.174 0V101.881H670.738ZM721.123 98.5446L721.114 98.5389C716.179 95.4075 712.249 91.1392 709.324 85.7613L709.32 85.7539L709.316 85.7464C706.472 80.3427 705.066 74.2066 705.066 67.3692C705.066 60.5318 706.472 54.3957 709.316 48.992L709.32 48.9845L709.324 48.9771C712.249 43.5992 716.179 39.3309 721.114 36.1995L721.123 36.1938C726.172 33.05 731.879 31.4879 738.209 31.4879C742.843 31.4879 747.047 32.3869 750.796 34.212C752.428 34.9876 753.933 35.8958 755.31 36.9369V32.8569L778.334 32.8569V101.881H755.31V97.9103C753.977 98.9019 752.515 99.7746 750.927 100.529C747.093 102.35 742.846 103.25 738.209 103.25C731.879 103.25 726.172 101.688 721.123 98.5446ZM755.31 96.3345C755.74 95.985 756.155 95.6217 756.554 95.2445V100.637H777.09V34.1015L756.554 34.1015V39.6269C756.154 39.2442 755.739 38.8759 755.31 38.5222C753.803 37.2812 752.119 36.2184 750.257 35.3337C746.697 33.5996 742.681 32.7325 738.209 32.7325C732.094 32.7325 726.618 34.2384 721.78 37.2503C717.034 40.2622 713.247 44.3693 710.417 49.5717C707.679 54.774 706.31 60.7065 706.31 67.3692C706.31 74.0319 707.679 79.9644 710.417 85.1667C713.247 90.3691 717.034 94.4762 721.78 97.4881C726.618 100.5 732.094 102.006 738.209 102.006C742.681 102.006 746.743 101.139 750.393 99.4047C752.214 98.5401 753.852 97.5167 755.31 96.3345ZM734.786 53.6788C737.068 52.3098 739.669 51.6252 742.59 51.6252C745.511 51.6252 748.066 52.3098 750.257 53.6788C752.538 54.9566 754.272 56.782 755.459 59.155C756.737 61.528 757.376 64.266 757.376 67.3692C757.376 71.9327 756.006 75.7203 753.268 78.7322C750.53 81.6528 746.925 83.1132 742.453 83.1132C739.624 83.1132 737.068 82.4286 734.786 81.0596C732.505 79.6905 730.725 77.8195 729.447 75.4465C728.169 73.0735 727.53 70.3811 727.53 67.3692C727.53 64.266 728.169 61.528 729.447 59.155C730.816 56.782 732.596 54.9566 734.786 53.6788ZM730.534 59.7607C729.374 61.9231 728.775 64.4477 728.775 67.3692C728.775 70.1997 729.374 72.6853 730.543 74.8565C731.716 77.035 733.34 78.7401 735.427 79.9924C737.503 81.2379 739.834 81.8686 742.453 81.8686C746.622 81.8686 749.881 80.5223 752.354 77.888C754.854 75.1346 756.131 71.6598 756.131 67.3692C756.131 64.4406 755.529 61.9109 754.363 59.745L754.354 59.7284L754.346 59.7116C753.269 57.5582 751.709 55.9188 749.648 54.7647L749.622 54.7501L749.597 54.7342C747.629 53.5044 745.309 52.8698 742.59 52.8698C739.872 52.8698 737.496 53.5042 735.427 54.746L735.42 54.75L735.413 54.7538C733.43 55.9109 731.803 57.5679 730.534 59.7607ZM837.278 101.881V62.7145C837.278 59.5324 836.285 57.092 834.375 55.2619L834.356 55.2436L834.338 55.2244C832.494 53.3006 830.137 52.3222 827.159 52.3222C825.065 52.3222 823.278 52.7809 821.759 53.6607L821.737 53.6732L821.715 53.6849C820.21 54.4768 819.013 55.6645 818.119 57.2905L818.112 57.3024L818.105 57.3143C817.226 58.8338 816.767 60.6208 816.767 62.7145V101.881H793.331V32.8569L816.767 32.8569V36.7327C817.7 36.0684 818.69 35.4631 819.734 34.9171C824.037 32.6233 828.849 31.4879 834.141 31.4879C839.272 31.4879 843.839 32.7245 847.798 35.2314C851.807 37.6208 854.968 40.8302 857.263 44.8471C859.565 48.8749 860.713 53.2873 860.713 58.0597V101.881H837.278ZM847.147 36.292C843.405 33.919 839.07 32.7325 834.141 32.7325C829.03 32.7325 824.421 33.8277 820.314 36.0182C819.045 36.6815 817.863 37.4359 816.767 38.2815C816.339 38.6118 815.924 38.956 815.522 39.3141V34.1015L794.576 34.1015V100.637H815.522V62.7145C815.522 62.2511 815.543 61.799 815.584 61.3582C815.728 59.8258 816.122 58.4299 816.767 57.1704C816.85 57.0083 816.937 56.8483 817.028 56.6907C818.032 54.8653 819.401 53.4963 821.135 52.5836C822.869 51.5796 824.877 51.0776 827.159 51.0776C830.445 51.0776 833.137 52.1729 835.236 54.3633C837.427 56.4625 838.522 59.2462 838.522 62.7145V100.637H859.468V58.0597C859.468 53.4963 858.373 49.2979 856.183 45.4646C853.992 41.6313 850.98 38.5737 847.147 36.292ZM603.781 97.625C609.348 100.637 615.555 102.143 622.4 102.143C629.336 102.143 635.543 100.637 641.019 97.625C646.495 94.5218 650.83 90.3234 654.025 85.0298C657.219 79.7362 658.816 73.8037 658.816 67.2323C658.816 60.6609 657.219 54.774 654.025 49.5717C650.83 44.2781 646.495 40.1253 641.019 37.1134C635.543 34.1015 629.336 32.5956 622.4 32.5956C615.464 32.5956 609.257 34.1472 603.781 37.2503C598.305 40.2622 593.97 44.3693 590.775 49.5717C587.581 54.774 585.984 60.6609 585.984 67.2323C585.984 73.8037 587.581 79.7362 590.775 85.0298C593.97 90.3234 598.305 94.5218 603.781 97.625ZM671.983 100.637H692.929V1.24458L671.983 1.24458V100.637Z" fill="#F2B125"/>
<path fill-rule="evenodd" clip-rule="evenodd" d="M1396.57 34.3553L1417.1 34.3553V96.9204C1417.1 103.766 1415.51 109.698 1412.31 114.718C1409.12 119.738 1404.74 123.662 1399.17 126.492C1393.6 129.321 1387.26 130.736 1380.14 130.736C1372.84 130.736 1366.4 129.458 1360.84 126.902C1355.36 124.438 1351.03 120.924 1347.83 116.361L1360.7 103.492C1360.97 103.814 1361.24 104.127 1361.52 104.431C1363.68 106.8 1366.05 108.632 1368.64 109.926C1371.65 111.387 1375.26 112.117 1379.46 112.117C1384.66 112.117 1388.72 110.839 1391.64 108.283C1394.65 105.728 1396.16 102.123 1396.16 97.4681V93.2659C1395.76 93.5867 1395.34 93.8957 1394.91 94.1927C1393.82 94.9512 1392.64 95.6323 1391.37 96.2359C1387.72 97.97 1383.65 98.8371 1379.18 98.8371C1373.07 98.8371 1367.64 97.3768 1362.89 94.4562C1358.14 91.5355 1354.4 87.5653 1351.66 82.5455C1348.93 77.5257 1347.56 71.9583 1347.56 65.8432C1347.56 59.6369 1348.93 54.0695 1351.66 49.141C1354.4 44.1211 1358.14 40.1966 1362.89 37.3672C1367.64 34.4466 1373.07 32.9863 1379.18 32.9863C1383.75 32.9863 1387.81 33.8533 1391.37 35.5875C1392.8 36.2316 1394.12 36.9881 1395.32 37.8568C1395.75 38.1656 1396.17 38.4886 1396.57 38.8257V34.3553ZM1395.61 58.4504C1394.52 56.26 1392.87 54.5258 1390.68 53.2481C1388.58 51.9703 1386.07 51.3314 1383.15 51.3314C1380.32 51.3314 1377.81 51.9703 1375.62 53.2481C1373.43 54.5258 1371.74 56.26 1370.56 58.4504C1369.37 60.6409 1368.78 63.1052 1368.78 65.8432C1368.78 68.3988 1369.37 70.8174 1370.56 73.0991C1371.74 75.2896 1373.39 77.0237 1375.49 78.3015C1377.68 79.5793 1380.23 80.2182 1383.15 80.2182C1386.07 80.2182 1388.58 79.5793 1390.68 78.3015C1392.87 77.0237 1394.52 75.3352 1395.61 73.236C1396.8 71.0456 1397.39 68.5813 1397.39 65.8432C1397.39 63.1052 1396.8 60.6409 1395.61 58.4504ZM1376.12 77.2323C1378.09 78.3793 1380.42 78.9736 1383.15 78.9736C1385.89 78.9736 1388.16 78.3768 1390.04 77.2384L1390.05 77.2323L1390.06 77.2265C1392.06 76.0581 1393.53 74.5366 1394.51 72.6603L1394.51 72.6518L1394.52 72.6433C1395.59 70.6524 1396.15 68.3953 1396.15 65.8432C1396.15 63.2912 1395.59 61.034 1394.52 59.0432L1394.51 59.0253L1394.5 59.007C1393.51 57.0409 1392.04 55.4836 1390.06 54.3231L1390.05 54.3172L1390.04 54.3112C1388.16 53.1728 1385.89 52.576 1383.15 52.576C1380.52 52.576 1378.23 53.1688 1376.25 54.3231C1374.25 55.4881 1372.73 57.057 1371.65 59.0432C1370.57 61.034 1370.02 63.2912 1370.02 65.8432C1370.02 68.1941 1370.57 70.4128 1371.66 72.5156C1372.74 74.5074 1374.22 76.073 1376.12 77.2323ZM1395.32 36.3447V33.1107L1418.35 33.1107V96.9204C1418.35 103.966 1416.7 110.138 1413.36 115.386C1410.04 120.603 1405.49 124.676 1399.73 127.601C1393.97 130.531 1387.43 131.98 1380.14 131.98C1372.7 131.98 1366.08 130.677 1360.32 128.036C1354.66 125.487 1350.14 121.835 1346.81 117.075L1346.21 116.219L1360.78 101.651L1361.65 102.692C1363.93 105.406 1366.44 107.435 1369.19 108.81C1371.99 110.168 1375.4 110.872 1379.46 110.872C1384.46 110.872 1388.19 109.645 1390.82 107.347L1390.83 107.341L1390.84 107.334C1393.52 105.058 1394.91 101.829 1394.91 97.4681V95.6893C1393.97 96.2992 1392.96 96.8561 1391.9 97.3601C1388.07 99.1816 1383.82 100.082 1379.18 100.082C1372.86 100.082 1367.2 98.569 1362.24 95.5161C1357.3 92.4788 1353.41 88.3465 1350.57 83.1415C1347.73 77.9262 1346.31 72.1516 1346.31 65.8432C1346.31 59.449 1347.72 53.6713 1350.57 48.5407C1353.41 43.3371 1357.31 39.2491 1362.25 36.3027C1367.21 33.2528 1372.86 31.7417 1379.18 31.7417C1383.9 31.7417 1388.15 32.6373 1391.89 34.4603C1393.11 35.0096 1394.26 35.6377 1395.32 36.3447Z" fill="#F2B125"/>
<path fill-rule="evenodd" clip-rule="evenodd" d="M983.195 99.4603L983.189 99.4578C976.934 96.8437 971.46 93.2436 966.78 88.6568L966.776 88.6524L966.771 88.6479C962.096 83.973 958.404 78.5501 955.696 72.3877L955.692 72.3774L955.687 72.3669C953.065 66.0908 951.758 59.3553 951.758 52.1729C951.758 44.9847 953.112 38.2871 955.833 32.0949C958.544 25.925 962.288 20.5414 967.063 15.9542C971.928 11.2762 977.587 7.67586 984.03 5.15387C990.483 2.53634 997.394 1.23214 1004.75 1.23214C1013.21 1.23214 1020.91 2.76613 1027.85 5.85657C1034.85 8.93853 1040.66 13.2007 1045.27 18.6496L1046.01 19.5237L1029.55 35.9817L1028.68 34.8625C1025.69 30.9864 1022.19 28.1052 1018.18 26.1886C1014.17 24.2713 1009.61 23.2986 1004.48 23.2986C999.014 23.2986 994.165 24.5302 989.899 26.9679L989.891 26.9727L989.883 26.9773C985.62 29.3259 982.273 32.6691 979.828 37.0331C977.484 41.29 976.289 46.3229 976.289 52.1729C976.289 58.0237 977.484 63.1079 979.835 67.4624C982.197 71.8361 985.419 75.227 989.508 77.663C993.584 80.0909 998.287 81.321 1003.66 81.321C1009.16 81.321 1013.74 80.2999 1017.44 78.3215C1021.24 76.248 1024.12 73.3243 1026.1 69.5307L1026.11 69.5216C1026.73 68.3429 1027.27 67.0838 1027.71 65.7427L1000.36 65.3085V44.6307L1053.64 44.6307V49.0241C1053.64 60.7596 1051.51 70.7369 1047.2 78.9007C1042.98 86.9544 1037.06 93.0713 1029.44 97.2111C1021.93 101.341 1013.28 103.387 1003.52 103.387C996.337 103.387 989.559 102.081 983.195 99.4603ZM1028.85 96.119C1036.24 92.1032 1041.99 86.1707 1046.1 78.3215C1050.3 70.3811 1052.39 60.6153 1052.39 49.0241V45.8753L1001.6 45.8753V64.0835L1029.37 64.5243C1029.26 64.9438 1029.14 65.3568 1029.01 65.7633C1028.53 67.3055 1027.93 68.7535 1027.2 70.1073C1025.11 74.1231 1022.05 77.2263 1018.03 79.4167C1014.11 81.5159 1009.32 82.5655 1003.66 82.5655C998.089 82.5655 993.161 81.2878 988.871 78.7322C984.582 76.1767 981.205 72.6172 978.74 68.0537C976.276 63.4902 975.044 58.1966 975.044 52.1729C975.044 46.1491 976.276 40.9011 978.74 36.4289C981.296 31.8654 984.81 28.3516 989.282 25.8873C993.754 23.3318 998.82 22.054 1004.48 22.054C1009.77 22.054 1014.52 23.0579 1018.72 25.0659C1022.57 26.9074 1025.96 29.5935 1028.89 33.124C1029.15 33.443 1029.41 33.7688 1029.67 34.1015L1044.32 19.4528C1039.85 14.1592 1034.19 10.0064 1027.34 6.99455C1020.59 3.98266 1013.06 2.47672 1004.75 2.47672C997.542 2.47672 990.788 3.75449 984.49 6.31003C978.193 8.7743 972.671 12.2882 967.925 16.8516C963.27 21.3238 959.619 26.5718 956.973 32.5956C954.326 38.6194 953.002 45.1451 953.002 52.1729C953.002 59.2006 954.28 65.772 956.836 71.887C959.483 77.9108 963.088 83.2044 967.651 87.7679C972.215 92.2401 977.554 95.754 983.669 98.3095C989.875 100.865 996.492 102.143 1003.52 102.143C1013.1 102.143 1021.55 100.135 1028.85 96.119ZM1079.07 98.7196L1079.06 98.7138L1079.05 98.7078C1073.39 95.5013 1068.9 91.1528 1065.59 85.6728C1062.27 80.1729 1060.62 74.0155 1060.62 67.2323C1060.62 60.4493 1062.27 54.3337 1065.59 48.9204C1068.9 43.5319 1073.4 39.2766 1079.05 36.1637C1084.73 32.9465 1091.15 31.351 1098.28 31.351C1105.4 31.351 1111.82 32.8992 1117.5 36.0229C1123.16 39.1384 1127.66 43.4432 1130.97 48.9245C1134.29 54.3367 1135.94 60.4509 1135.94 67.2323C1135.94 74.0155 1134.29 80.1729 1130.97 85.6728C1127.66 91.1528 1123.17 95.5013 1117.51 98.7078L1117.5 98.7117L1117.5 98.7155C1111.82 101.839 1105.4 103.387 1098.28 103.387C1091.24 103.387 1084.83 101.838 1079.07 98.7196ZM1110.31 75.0187L1110.32 75.0105C1111.49 72.7433 1112.09 70.1599 1112.09 67.2323C1112.09 64.3023 1111.49 61.8271 1110.34 59.7631L1110.33 59.7541L1110.33 59.745C1109.16 57.5736 1107.54 55.9232 1105.47 54.7647L1105.45 54.7501L1105.42 54.7342C1103.46 53.5081 1101.1 52.8698 1098.28 52.8698C1095.56 52.8698 1093.19 53.5042 1091.12 54.746L1091.1 54.7556L1091.08 54.7647C1089.01 55.9232 1087.4 57.5736 1086.23 59.745C1085.07 61.9109 1084.46 64.4406 1084.46 67.3692C1084.46 70.1955 1085.06 72.7318 1086.24 75.0021C1087.41 77.171 1089.02 78.87 1091.1 80.1197C1093.17 81.2757 1095.55 81.8686 1098.28 81.8686C1101.1 81.8686 1103.53 81.2726 1105.59 80.1197C1107.67 78.873 1109.23 77.182 1110.31 75.0268L1110.31 75.0187ZM1106.22 81.1965C1103.94 82.4743 1101.29 83.1132 1098.28 83.1132C1095.36 83.1132 1092.76 82.4743 1090.48 81.1965C1088.19 79.8275 1086.41 77.9564 1085.14 75.5834C1083.86 73.1192 1083.22 70.3811 1083.22 67.3692C1083.22 64.266 1083.86 61.528 1085.14 59.155C1086.41 56.782 1088.19 54.9566 1090.48 53.6788C1092.76 52.3098 1095.36 51.6252 1098.28 51.6252C1101.29 51.6252 1103.89 52.3098 1106.08 53.6788C1108.36 54.9566 1110.14 56.782 1111.42 59.155C1112.7 61.4367 1113.34 64.1291 1113.34 67.2323C1113.34 70.3354 1112.7 73.1192 1111.42 75.5834C1110.24 77.9564 1108.5 79.8275 1106.22 81.1965ZM1146.62 101.881V0L1170.05 0V101.881H1146.62ZM1197 98.5446L1196.99 98.5389C1192.06 95.4075 1188.13 91.1392 1185.2 85.7613L1185.2 85.7539L1185.19 85.7464C1182.35 80.3427 1180.94 74.2066 1180.94 67.3692C1180.94 60.5318 1182.35 54.3957 1185.19 48.992L1185.2 48.9845L1185.2 48.9771C1188.13 43.5992 1192.06 39.3309 1196.99 36.1995L1197 36.1938C1202.05 33.05 1207.76 31.4879 1214.09 31.4879C1218.72 31.4879 1222.93 32.3869 1226.67 34.212C1228.31 34.9876 1229.81 35.8958 1231.19 36.9369V32.8569L1254.21 32.8569V101.881H1231.19V97.9103C1229.86 98.9019 1228.39 99.7746 1226.81 100.529C1222.97 102.35 1218.72 103.25 1214.09 103.25C1207.76 103.25 1202.05 101.688 1197 98.5446ZM1231.19 96.3345C1231.62 95.985 1232.03 95.6217 1232.43 95.2445V100.637H1252.97V34.1015L1232.43 34.1015V39.6269C1232.03 39.2442 1231.62 38.8759 1231.19 38.5222C1229.68 37.2812 1228 36.2184 1226.14 35.3337C1222.58 33.5996 1218.56 32.7325 1214.09 32.7325C1207.97 32.7325 1202.5 34.2384 1197.66 37.2503C1192.91 40.2622 1189.13 44.3693 1186.3 49.5717C1183.56 54.774 1182.19 60.7065 1182.19 67.3692C1182.19 74.0319 1183.56 79.9644 1186.3 85.1667C1189.13 90.3691 1192.91 94.4762 1197.66 97.4881C1202.5 100.5 1207.97 102.006 1214.09 102.006C1218.56 102.006 1222.62 101.139 1226.27 99.4047C1228.09 98.5401 1229.73 97.5167 1231.19 96.3345ZM1210.67 53.6788C1212.95 52.3098 1215.55 51.6252 1218.47 51.6252C1221.39 51.6252 1223.94 52.3098 1226.14 53.6788C1228.42 54.9566 1230.15 56.782 1231.34 59.155C1232.62 61.528 1233.25 64.266 1233.25 67.3692C1233.25 71.9327 1231.89 75.7203 1229.15 78.7322C1226.41 81.6528 1222.8 83.1132 1218.33 83.1132C1215.5 83.1132 1212.95 82.4286 1210.67 81.0596C1208.38 79.6905 1206.6 77.8195 1205.33 75.4465C1204.05 73.0735 1203.41 70.3811 1203.41 67.3692C1203.41 64.266 1204.05 61.528 1205.33 59.155C1206.7 56.782 1208.47 54.9566 1210.67 53.6788ZM1206.41 59.7607C1205.25 61.9231 1204.65 64.4477 1204.65 67.3692C1204.65 70.1997 1205.25 72.6853 1206.42 74.8565C1207.59 77.035 1209.22 78.7401 1211.31 79.9924C1213.38 81.2379 1215.71 81.8686 1218.33 81.8686C1222.5 81.8686 1225.76 80.5223 1228.23 77.888C1230.73 75.1346 1232.01 71.6598 1232.01 67.3692C1232.01 64.4406 1231.41 61.9109 1230.24 59.745L1230.23 59.7284L1230.22 59.7116C1229.15 57.5582 1227.59 55.9188 1225.53 54.7647L1225.5 54.7501L1225.48 54.7342C1223.51 53.5044 1221.19 52.8698 1218.47 52.8698C1215.75 52.8698 1213.38 53.5042 1211.31 54.746L1211.3 54.75L1211.29 54.7538C1209.31 55.9109 1207.68 57.5679 1206.41 59.7607ZM1313.16 101.881V62.7145C1313.16 59.5324 1312.16 57.092 1310.25 55.2619L1310.24 55.2436L1310.22 55.2244C1308.37 53.3006 1306.02 52.3222 1303.04 52.3222C1300.94 52.3222 1299.16 52.7809 1297.64 53.6607L1297.62 53.6732L1297.59 53.6849C1296.09 54.4768 1294.89 55.6645 1294 57.2905L1293.99 57.3024L1293.98 57.3143C1293.1 58.8338 1292.65 60.6208 1292.65 62.7145V101.881H1269.21V32.8569L1292.65 32.8569V36.7327C1293.58 36.0684 1294.57 35.4631 1295.61 34.9171C1299.92 32.6233 1304.73 31.4879 1310.02 31.4879C1315.15 31.4879 1319.72 32.7245 1323.68 35.2314C1327.69 37.6208 1330.85 40.8302 1333.14 44.8471C1335.44 48.8749 1336.59 53.2873 1336.59 58.0597V101.881H1313.16ZM1323.03 36.292C1319.28 33.919 1314.95 32.7325 1310.02 32.7325C1304.91 32.7325 1300.3 33.8277 1296.19 36.0182C1294.92 36.6815 1293.74 37.4359 1292.65 38.2815C1292.22 38.6118 1291.8 38.956 1291.4 39.3141V34.1015L1270.45 34.1015V100.637H1291.4V62.7145C1291.4 62.2511 1291.42 61.799 1291.46 61.3582C1291.61 59.8258 1292 58.4299 1292.65 57.1704C1292.73 57.0083 1292.82 56.8483 1292.91 56.6907C1293.91 54.8653 1295.28 53.4963 1297.01 52.5836C1298.75 51.5796 1300.76 51.0776 1303.04 51.0776C1306.32 51.0776 1309.02 52.1729 1311.12 54.3633C1313.31 56.4625 1314.4 59.2462 1314.4 62.7145V100.637H1335.35V58.0597C1335.35 53.4963 1334.25 49.2979 1332.06 45.4646C1329.87 41.6313 1326.86 38.5737 1323.03 36.292ZM1079.66 97.625C1085.23 100.637 1091.43 102.143 1098.28 102.143C1105.22 102.143 1111.42 100.637 1116.9 97.625C1122.37 94.5218 1126.71 90.3234 1129.9 85.0298C1133.1 79.7362 1134.7 73.8037 1134.7 67.2323C1134.7 60.6609 1133.1 54.774 1129.9 49.5717C1126.71 44.2781 1122.37 40.1253 1116.9 37.1134C1111.42 34.1015 1105.22 32.5956 1098.28 32.5956C1091.34 32.5956 1085.14 34.1472 1079.66 37.2503C1074.18 40.2622 1069.85 44.3693 1066.65 49.5717C1063.46 54.774 1061.86 60.6609 1061.86 67.2323C1061.86 73.8037 1063.46 79.7362 1066.65 85.0298C1069.85 90.3234 1074.18 94.5218 1079.66 97.625ZM1147.86 100.637H1168.81V1.24458L1147.86 1.24458V100.637Z" fill="#F2B125"/>
<path fill-rule="evenodd" clip-rule="evenodd" d="M1872.45 34.3553L1892.98 34.3553V96.9204C1892.98 103.766 1891.39 109.698 1888.19 114.718C1885 119.738 1880.62 123.662 1875.05 126.492C1869.48 129.321 1863.14 130.736 1856.02 130.736C1848.72 130.736 1842.28 129.458 1836.72 126.902C1831.24 124.438 1826.9 120.924 1823.71 116.361L1836.58 103.492C1836.85 103.814 1837.12 104.127 1837.4 104.431C1839.56 106.8 1841.93 108.632 1844.52 109.926C1847.53 111.387 1851.14 112.117 1855.33 112.117C1860.54 112.117 1864.6 110.839 1867.52 108.283C1870.53 105.728 1872.04 102.123 1872.04 97.4681V93.2659C1871.64 93.5867 1871.22 93.8957 1870.79 94.1927C1869.7 94.9512 1868.52 95.6323 1867.24 96.2359C1863.59 97.97 1859.53 98.8371 1855.06 98.8371C1848.95 98.8371 1843.51 97.3768 1838.77 94.4562C1834.02 91.5355 1830.28 87.5653 1827.54 82.5455C1824.8 77.5257 1823.44 71.9583 1823.44 65.8432C1823.44 59.6369 1824.8 54.0695 1827.54 49.141C1830.28 44.1211 1834.02 40.1966 1838.77 37.3672C1843.51 34.4466 1848.95 32.9863 1855.06 32.9863C1859.62 32.9863 1863.69 33.8533 1867.24 35.5875C1868.68 36.2316 1870 36.9881 1871.2 37.8568C1871.63 38.1656 1872.05 38.4886 1872.45 38.8257V34.3553ZM1871.49 58.4504C1870.39 56.26 1868.75 54.5258 1866.56 53.2481C1864.46 51.9703 1861.95 51.3314 1859.03 51.3314C1856.2 51.3314 1853.69 51.9703 1851.5 53.2481C1849.31 54.5258 1847.62 56.26 1846.44 58.4504C1845.25 60.6409 1844.66 63.1052 1844.66 65.8432C1844.66 68.3988 1845.25 70.8174 1846.44 73.0991C1847.62 75.2896 1849.26 77.0237 1851.36 78.3015C1853.55 79.5793 1856.11 80.2182 1859.03 80.2182C1861.95 80.2182 1864.46 79.5793 1866.56 78.3015C1868.75 77.0237 1870.39 75.3352 1871.49 73.236C1872.68 71.0456 1873.27 68.5813 1873.27 65.8432C1873.27 63.1052 1872.68 60.6409 1871.49 58.4504ZM1852 77.2323C1853.97 78.3793 1856.3 78.9736 1859.03 78.9736C1861.77 78.9736 1864.04 78.3768 1865.91 77.2384L1865.92 77.2323L1865.93 77.2265C1867.94 76.0581 1869.41 74.5366 1870.39 72.6603L1870.39 72.6518L1870.39 72.6433C1871.47 70.6524 1872.02 68.3953 1872.02 65.8432C1872.02 63.2912 1871.47 61.034 1870.39 59.0432L1870.38 59.0253L1870.38 59.007C1869.39 57.0409 1867.92 55.4836 1865.93 54.3231L1865.92 54.3172L1865.91 54.3112C1864.04 53.1728 1861.77 52.576 1859.03 52.576C1856.4 52.576 1854.11 53.1688 1852.13 54.3231C1850.13 55.4881 1848.61 57.057 1847.53 59.0432C1846.45 61.034 1845.9 63.2912 1845.9 65.8432C1845.9 68.1941 1846.44 70.4128 1847.53 72.5156C1848.62 74.5074 1850.1 76.073 1852 77.2323ZM1871.2 36.3447V33.1107L1894.23 33.1107V96.9204C1894.23 103.966 1892.58 110.138 1889.24 115.386C1885.92 120.603 1881.37 124.676 1875.61 127.601C1869.85 130.531 1863.31 131.98 1856.02 131.98C1848.57 131.98 1841.96 130.677 1836.2 128.036C1830.54 125.487 1826.02 121.835 1822.69 117.075L1822.09 116.219L1836.66 101.651L1837.53 102.692C1839.81 105.406 1842.32 107.435 1845.07 108.81C1847.87 110.168 1851.28 110.872 1855.33 110.872C1860.34 110.872 1864.07 109.645 1866.7 107.347L1866.71 107.341L1866.71 107.334C1869.4 105.058 1870.79 101.829 1870.79 97.4681V95.6893C1869.84 96.2992 1868.84 96.8561 1867.78 97.3601C1863.94 99.1816 1859.7 100.082 1855.06 100.082C1848.74 100.082 1843.08 98.569 1838.12 95.5161C1833.18 92.4788 1829.29 88.3465 1826.45 83.1415C1823.61 77.9262 1822.19 72.1516 1822.19 65.8432C1822.19 59.449 1823.6 53.6713 1826.45 48.5407C1829.29 43.3371 1833.18 39.2491 1838.12 36.3027C1843.08 33.2528 1848.74 31.7417 1855.06 31.7417C1859.78 31.7417 1864.02 32.6373 1867.77 34.4603C1868.99 35.0096 1870.13 35.6377 1871.2 36.3447Z" fill="#F2B125"/>
<path fill-rule="evenodd" clip-rule="evenodd" d="M1459.07 99.4603L1459.07 99.4578C1452.81 96.8437 1447.34 93.2436 1442.66 88.6568L1442.66 88.6524L1442.65 88.6479C1437.98 83.973 1434.28 78.5501 1431.58 72.3877L1431.57 72.3774L1431.57 72.3669C1428.94 66.0908 1427.64 59.3553 1427.64 52.1729C1427.64 44.9847 1428.99 38.2871 1431.71 32.0949C1434.42 25.925 1438.17 20.5414 1442.94 15.9542C1447.81 11.2762 1453.47 7.67586 1459.91 5.15387C1466.36 2.53634 1473.27 1.23214 1480.63 1.23214C1489.09 1.23214 1496.79 2.76613 1503.73 5.85657C1510.73 8.93853 1516.54 13.2007 1521.15 18.6496L1521.89 19.5237L1505.43 35.9817L1504.56 34.8625C1501.57 30.9864 1498.07 28.1052 1494.06 26.1886C1490.05 24.2713 1485.49 23.2986 1480.36 23.2986C1474.89 23.2986 1470.05 24.5302 1465.78 26.9679L1465.77 26.9727L1465.76 26.9773C1461.5 29.3259 1458.15 32.6691 1455.71 37.0331C1453.36 41.29 1452.17 46.3229 1452.17 52.1729C1452.17 58.0237 1453.36 63.1079 1455.72 67.4624C1458.08 71.8361 1461.3 75.227 1465.39 77.663C1469.46 80.0909 1474.17 81.321 1479.54 81.321C1485.04 81.321 1489.62 80.2999 1493.32 78.3215C1497.12 76.248 1500 73.3243 1501.98 69.5307L1501.99 69.5216C1502.61 68.3429 1503.15 67.0838 1503.59 65.7427L1476.24 65.3085V44.6307L1529.52 44.6307V49.0241C1529.52 60.7596 1527.39 70.7369 1523.08 78.9007C1518.86 86.9544 1512.94 93.0713 1505.32 97.2111C1497.81 101.341 1489.16 103.387 1479.4 103.387C1472.22 103.387 1465.44 102.081 1459.07 99.4603ZM1504.73 96.119C1512.12 92.1032 1517.87 86.1707 1521.98 78.3215C1526.18 70.3811 1528.27 60.6153 1528.27 49.0241V45.8753L1477.48 45.8753V64.0835L1505.25 64.5243C1505.14 64.9438 1505.02 65.3568 1504.89 65.7633C1504.41 67.3055 1503.81 68.7535 1503.08 70.1073C1500.99 74.1231 1497.93 77.2263 1493.91 79.4167C1489.99 81.5159 1485.2 82.5655 1479.54 82.5655C1473.97 82.5655 1469.04 81.2878 1464.75 78.7322C1460.46 76.1767 1457.08 72.6172 1454.62 68.0537C1452.16 63.4902 1450.92 58.1966 1450.92 52.1729C1450.92 46.1491 1452.16 40.9011 1454.62 36.4289C1457.18 31.8654 1460.69 28.3516 1465.16 25.8873C1469.63 23.3318 1474.7 22.054 1480.36 22.054C1485.65 22.054 1490.4 23.0579 1494.6 25.0659C1498.45 26.9074 1501.84 29.5935 1504.77 33.124C1505.03 33.443 1505.29 33.7688 1505.55 34.1015L1520.2 19.4528C1515.73 14.1592 1510.07 10.0064 1503.22 6.99455C1496.47 3.98266 1488.94 2.47672 1480.63 2.47672C1473.42 2.47672 1466.67 3.75449 1460.37 6.31003C1454.07 8.7743 1448.55 12.2882 1443.8 16.8516C1439.15 21.3238 1435.5 26.5718 1432.85 32.5956C1430.21 38.6194 1428.88 45.1451 1428.88 52.1729C1428.88 59.2006 1430.16 65.772 1432.72 71.887C1435.36 77.9108 1438.97 83.2044 1443.53 87.7679C1448.09 92.2401 1453.43 95.754 1459.55 98.3095C1465.76 100.865 1472.37 102.143 1479.4 102.143C1488.98 102.143 1497.43 100.135 1504.73 96.119ZM1554.95 98.7196L1554.94 98.7138L1554.93 98.7078C1549.27 95.5013 1544.78 91.1528 1541.47 85.6728C1538.15 80.1729 1536.5 74.0155 1536.5 67.2323C1536.5 60.4493 1538.15 54.3337 1541.47 48.9204C1544.78 43.5319 1549.28 39.2766 1554.93 36.1637C1560.61 32.9465 1567.03 31.351 1574.16 31.351C1581.28 31.351 1587.7 32.8992 1593.38 36.0229C1599.04 39.1384 1603.54 43.4432 1606.85 48.9245C1610.17 54.3367 1611.82 60.4509 1611.82 67.2323C1611.82 74.0155 1610.17 80.1729 1606.85 85.6728C1603.54 91.1528 1599.05 95.5013 1593.39 98.7078L1593.38 98.7117L1593.38 98.7155C1587.7 101.839 1581.28 103.387 1574.16 103.387C1567.12 103.387 1560.71 101.838 1554.95 98.7196ZM1586.19 75.0187L1586.2 75.0105C1587.37 72.7433 1587.97 70.1599 1587.97 67.2323C1587.97 64.3023 1587.37 61.8271 1586.22 59.7631L1586.21 59.7541L1586.21 59.745C1585.04 57.5736 1583.42 55.9232 1581.35 54.7647L1581.33 54.7501L1581.3 54.7342C1579.34 53.5081 1576.98 52.8698 1574.16 52.8698C1571.44 52.8698 1569.07 53.5042 1567 54.746L1566.98 54.7556L1566.96 54.7647C1564.89 55.9232 1563.28 57.5736 1562.11 59.745C1560.95 61.9109 1560.34 64.4406 1560.34 67.3692C1560.34 70.1955 1560.94 72.7318 1562.12 75.0021C1563.29 77.171 1564.9 78.87 1566.98 80.1197C1569.05 81.2757 1571.43 81.8686 1574.16 81.8686C1576.98 81.8686 1579.41 81.2726 1581.47 80.1197C1583.55 78.873 1585.11 77.182 1586.19 75.0268L1586.19 75.0187ZM1582.1 81.1965C1579.82 82.4743 1577.17 83.1132 1574.16 83.1132C1571.24 83.1132 1568.64 82.4743 1566.36 81.1965C1564.07 79.8275 1562.29 77.9564 1561.02 75.5834C1559.74 73.1192 1559.1 70.3811 1559.1 67.3692C1559.1 64.266 1559.74 61.528 1561.02 59.155C1562.29 56.782 1564.07 54.9566 1566.36 53.6788C1568.64 52.3098 1571.24 51.6252 1574.16 51.6252C1577.17 51.6252 1579.77 52.3098 1581.96 53.6788C1584.24 54.9566 1586.02 56.782 1587.3 59.155C1588.58 61.4367 1589.22 64.1291 1589.22 67.2323C1589.22 70.3354 1588.58 73.1192 1587.3 75.5834C1586.12 77.9564 1584.38 79.8275 1582.1 81.1965ZM1622.5 101.881V0L1645.93 0V101.881H1622.5ZM1672.88 98.5446L1672.87 98.5389C1667.94 95.4075 1664.01 91.1392 1661.08 85.7613L1661.08 85.7539L1661.07 85.7464C1658.23 80.3427 1656.82 74.2066 1656.82 67.3692C1656.82 60.5318 1658.23 54.3957 1661.07 48.992L1661.08 48.9845L1661.08 48.9771C1664.01 43.5992 1667.94 39.3309 1672.87 36.1995L1672.88 36.1938C1677.93 33.05 1683.64 31.4879 1689.97 31.4879C1694.6 31.4879 1698.81 32.3869 1702.55 34.212C1704.19 34.9876 1705.69 35.8958 1707.07 36.9369V32.8569L1730.09 32.8569V101.881H1707.07V97.9103C1705.74 98.9019 1704.27 99.7746 1702.69 100.529C1698.85 102.35 1694.6 103.25 1689.97 103.25C1683.64 103.25 1677.93 101.688 1672.88 98.5446ZM1707.07 96.3345C1707.5 95.985 1707.91 95.6217 1708.31 95.2445V100.637H1728.85V34.1015L1708.31 34.1015V39.6269C1707.91 39.2442 1707.5 38.8759 1707.07 38.5222C1705.56 37.2812 1703.88 36.2184 1702.02 35.3337C1698.46 33.5996 1694.44 32.7325 1689.97 32.7325C1683.85 32.7325 1678.38 34.2384 1673.54 37.2503C1668.79 40.2622 1665.01 44.3693 1662.18 49.5717C1659.44 54.774 1658.07 60.7065 1658.07 67.3692C1658.07 74.0319 1659.44 79.9644 1662.18 85.1667C1665.01 90.3691 1668.79 94.4762 1673.54 97.4881C1678.38 100.5 1683.85 102.006 1689.97 102.006C1694.44 102.006 1698.5 101.139 1702.15 99.4047C1703.97 98.5401 1705.61 97.5167 1707.07 96.3345ZM1686.55 53.6788C1688.83 52.3098 1691.43 51.6252 1694.35 51.6252C1697.27 51.6252 1699.82 52.3098 1702.02 53.6788C1704.3 54.9566 1706.03 56.782 1707.22 59.155C1708.5 61.528 1709.13 64.266 1709.13 67.3692C1709.13 71.9327 1707.77 75.7203 1705.03 78.7322C1702.29 81.6528 1698.68 83.1132 1694.21 83.1132C1691.38 83.1132 1688.83 82.4286 1686.55 81.0596C1684.26 79.6905 1682.48 77.8195 1681.21 75.4465C1679.93 73.0735 1679.29 70.3811 1679.29 67.3692C1679.29 64.266 1679.93 61.528 1681.21 59.155C1682.57 56.782 1684.35 54.9566 1686.55 53.6788ZM1682.29 59.7607C1681.13 61.9231 1680.53 64.4477 1680.53 67.3692C1680.53 70.1997 1681.13 72.6853 1682.3 74.8565C1683.47 77.035 1685.1 78.7401 1687.19 79.9924C1689.26 81.2379 1691.59 81.8686 1694.21 81.8686C1698.38 81.8686 1701.64 80.5223 1704.11 77.888C1706.61 75.1346 1707.89 71.6598 1707.89 67.3692C1707.89 64.4406 1707.29 61.9109 1706.12 59.745L1706.11 59.7284L1706.1 59.7116C1705.03 57.5582 1703.47 55.9188 1701.41 54.7647L1701.38 54.7501L1701.36 54.7342C1699.39 53.5044 1697.07 52.8698 1694.35 52.8698C1691.63 52.8698 1689.26 53.5042 1687.19 54.746L1687.18 54.75L1687.17 54.7538C1685.19 55.9109 1683.56 57.5679 1682.29 59.7607ZM1789.04 101.881V62.7145C1789.04 59.5324 1788.04 57.092 1786.13 55.2619L1786.11 55.2436L1786.1 55.2244C1784.25 53.3006 1781.9 52.3222 1778.92 52.3222C1776.82 52.3222 1775.04 52.7809 1773.52 53.6607L1773.5 53.6732L1773.47 53.6849C1771.97 54.4768 1770.77 55.6645 1769.88 57.2905L1769.87 57.3024L1769.86 57.3143C1768.98 58.8338 1768.53 60.6208 1768.53 62.7145V101.881H1745.09V32.8569L1768.53 32.8569V36.7327C1769.46 36.0684 1770.45 35.4631 1771.49 34.9171C1775.8 32.6233 1780.61 31.4879 1785.9 31.4879C1791.03 31.4879 1795.6 32.7245 1799.56 35.2314C1803.57 37.6208 1806.73 40.8302 1809.02 44.8471C1811.32 48.8749 1812.47 53.2873 1812.47 58.0597V101.881H1789.04ZM1798.91 36.292C1795.16 33.919 1790.83 32.7325 1785.9 32.7325C1780.79 32.7325 1776.18 33.8277 1772.07 36.0182C1770.8 36.6815 1769.62 37.4359 1768.53 38.2815C1768.1 38.6118 1767.68 38.956 1767.28 39.3141V34.1015L1746.33 34.1015V100.637H1767.28V62.7145C1767.28 62.2511 1767.3 61.799 1767.34 61.3582C1767.49 59.8258 1767.88 58.4299 1768.53 57.1704C1768.61 57.0083 1768.7 56.8483 1768.79 56.6907C1769.79 54.8653 1771.16 53.4963 1772.89 52.5836C1774.63 51.5796 1776.64 51.0776 1778.92 51.0776C1782.2 51.0776 1784.9 52.1729 1787 54.3633C1789.19 56.4625 1790.28 59.2462 1790.28 62.7145V100.637H1811.23V58.0597C1811.23 53.4963 1810.13 49.2979 1807.94 45.4646C1805.75 41.6313 1802.74 38.5737 1798.91 36.292ZM1555.54 97.625C1561.11 100.637 1567.31 102.143 1574.16 102.143C1581.1 102.143 1587.3 100.637 1592.78 97.625C1598.25 94.5218 1602.59 90.3234 1605.78 85.0298C1608.98 79.7362 1610.58 73.8037 1610.58 67.2323C1610.58 60.6609 1608.98 54.774 1605.78 49.5717C1602.59 44.2781 1598.25 40.1253 1592.78 37.1134C1587.3 34.1015 1581.1 32.5956 1574.16 32.5956C1567.22 32.5956 1561.02 34.1472 1555.54 37.2503C1550.06 40.2622 1545.73 44.3693 1542.53 49.5717C1539.34 54.774 1537.74 60.6609 1537.74 67.2323C1537.74 73.8037 1539.34 79.7362 1542.53 85.0298C1545.73 90.3234 1550.06 94.5218 1555.54 97.625ZM1623.74 100.637H1644.69V1.24458L1623.74 1.24458V100.637Z" fill="#F2B125"/>
</svg>
