<svg width="70" height="70" viewBox="0 0 70 70" fill="none" xmlns="http://www.w3.org/2000/svg">
<path fill-rule="evenodd" clip-rule="evenodd" d="M13.9874 0.0864773C13.204 0.372863 12.8295 1.37439 13.2287 2.11552C13.5812 2.77008 13.9258 2.86199 16.0268 2.86199C17.7145 2.86199 17.9541 2.83245 18.2672 2.58627C18.7897 2.17529 18.973 1.49748 18.7233 0.899682C18.4016 0.129832 17.9638 -0.0117199 15.9431 0.000725672C14.9803 0.00660657 14.1002 0.0453111 13.9874 0.0864773ZM22.7403 0.0864773C21.9569 0.372863 21.5825 1.37439 21.9817 2.11552C22.3341 2.77008 22.6788 2.86199 24.7798 2.86199C26.4674 2.86199 26.7071 2.83245 27.0201 2.58627C27.5427 2.17529 27.726 1.49748 27.4762 0.899682C27.1546 0.129832 26.7168 -0.0117199 24.6961 0.000725672C23.7332 0.00660657 22.8532 0.0453111 22.7403 0.0864773ZM31.4933 0.0864773C30.7099 0.372863 30.3354 1.37439 30.7347 2.11552C31.0871 2.77008 31.4317 2.86199 33.5327 2.86199C35.2204 2.86199 35.46 2.83245 35.7731 2.58627C36.2957 2.17529 36.4789 1.49748 36.2292 0.899682C35.9075 0.129832 35.4697 -0.0117199 33.449 0.000725672C32.4862 0.00660657 31.6061 0.0453111 31.4933 0.0864773ZM40.2463 0.0864773C39.4629 0.372863 39.0884 1.37439 39.4876 2.11552C39.8401 2.77008 40.1847 2.86199 42.2857 2.86199C43.9734 2.86199 44.213 2.83245 44.526 2.58627C45.0486 2.17529 45.2319 1.49748 44.9821 0.899682C44.6605 0.129832 44.2227 -0.0117199 42.202 0.000725672C41.2392 0.00660657 40.3591 0.0453111 40.2463 0.0864773ZM48.9992 0.0864773C48.2158 0.372863 47.8414 1.37439 48.2406 2.11552C48.593 2.77008 48.9377 2.86199 51.0386 2.86199C52.7263 2.86199 52.9659 2.83245 53.279 2.58627C53.8016 2.17529 53.9848 1.49748 53.7351 0.899682C53.4134 0.129832 52.9757 -0.0117199 50.9549 0.000725672C49.9921 0.00660657 49.112 0.0453111 48.9992 0.0864773ZM57.7522 0.0864773C56.9688 0.372863 56.5943 1.37439 56.9935 2.11552C57.346 2.77008 57.6906 2.86199 59.7916 2.86199C61.4793 2.86199 61.7189 2.83245 62.032 2.58627C62.5545 2.17529 62.7378 1.49748 62.4881 0.899682C62.1664 0.129832 61.7286 -0.0117199 59.7079 0.000725672C58.7451 0.00660657 57.865 0.0453111 57.7522 0.0864773ZM66.5051 0.0800494C65.2924 0.561599 65.2826 2.28853 66.4898 2.77145C66.8503 2.91574 67.0339 3.10023 67.1576 3.44242C67.5053 4.40374 68.8062 4.64116 69.5263 3.87459C69.8288 3.55265 69.8559 3.41233 69.8559 2.17023C69.8559 0.87356 69.84 0.800801 69.4768 0.437553C69.1266 0.0871612 69.007 0.0559787 67.904 0.028489C67.2475 0.0119404 66.618 0.0351904 66.5051 0.0800494ZM6.49046 0.220234C6.3582 0.273162 1.96449 5.66991 0.134577 8.02719C0.0605869 8.12238 0 8.4513 0 8.75806C0 9.20022 0.088487 9.40428 0.42698 9.74277C0.808281 10.1239 0.956945 10.1756 1.81337 10.2239L2.77264 10.2782V20.5337C2.77264 31.9065 2.73927 31.4777 3.6586 31.914C4.28512 32.2112 9.92312 32.2315 10.6231 31.939C11.5829 31.5381 11.5256 32.2518 11.5256 20.6974V10.2833L12.5171 10.2195C13.6548 10.1464 14.0359 9.95708 14.3412 9.31388C14.6243 8.71731 14.5332 8.41041 13.7606 7.35855C12.7979 6.04779 8.38082 0.639829 8.05177 0.369034C7.77646 0.142551 6.89487 0.0585773 6.49046 0.220234ZM8.64286 5.58005C9.32573 6.43566 9.88442 7.18294 9.88442 7.24066C9.88442 7.29837 9.72864 7.38467 9.53827 7.4324C9.34789 7.48027 9.07121 7.71769 8.92337 7.96018C8.66242 8.38811 8.65449 8.70322 8.65408 18.7609L8.65353 29.1209H7.2175H5.78147V18.85C5.78147 7.54003 5.80526 7.86376 4.94802 7.48437C4.72947 7.38768 4.55058 7.25994 4.55058 7.20072C4.55058 6.97574 7.1948 3.81045 7.29559 3.91494C7.35372 3.97512 7.96013 4.72445 8.64286 5.58005ZM67.9245 7.435C67.1414 7.77582 67.0522 8.05167 67.0522 10.1345C67.0522 11.2269 67.1161 12.1527 67.2051 12.3479C67.5822 13.1757 68.8654 13.3305 69.5263 12.628C69.8364 12.2982 69.8585 12.166 69.9002 10.3863C69.9511 8.21237 69.8185 7.762 69.0306 7.43281C68.473 7.1999 68.4647 7.1999 67.9245 7.435ZM15.4067 16.188C14.8442 16.4328 14.5344 16.8972 14.5344 17.4958C14.5344 18.6232 15.2544 19.0003 17.4065 19.0003C19.5586 19.0003 20.2786 18.6232 20.2786 17.4958C20.2786 16.8853 19.9643 16.4278 19.376 16.1821C18.7653 15.9269 15.9973 15.931 15.4067 16.188ZM24.1597 16.188C23.5972 16.4328 23.2874 16.8972 23.2874 17.4958C23.2874 18.6232 24.0073 19.0003 26.1595 19.0003C28.3116 19.0003 29.0315 18.6232 29.0315 17.4958C29.0315 16.8853 28.7172 16.4278 28.129 16.1821C27.5182 15.9269 24.7502 15.931 24.1597 16.188ZM32.9126 16.188C32.3501 16.4328 32.0403 16.8972 32.0403 17.4958C32.0403 18.6232 32.7603 19.0003 34.9124 19.0003C37.0645 19.0003 37.7845 18.6232 37.7845 17.4958C37.7845 16.8853 37.4702 16.4278 36.882 16.1821C36.2712 15.9269 33.5032 15.931 32.9126 16.188ZM41.6656 16.188C41.1031 16.4328 40.7933 16.8972 40.7933 17.4958C40.7933 18.6232 41.5132 19.0003 43.6654 19.0003C45.8175 19.0003 46.5374 18.6232 46.5374 17.4958C46.5374 16.8853 46.2232 16.4278 45.6349 16.1821C45.0241 15.9269 42.2561 15.931 41.6656 16.188ZM50.4186 16.188C49.856 16.4328 49.5463 16.8972 49.5463 17.4958C49.5463 18.1073 49.8607 18.5638 50.4518 18.8108C50.7513 18.936 50.9782 19.1629 51.1033 19.4624C51.3503 20.0535 51.8069 20.3679 52.4183 20.3679C53.404 20.3679 53.9227 19.6104 53.9227 18.1705C53.9227 17.126 53.6365 16.4917 53.0368 16.2071C52.4769 15.9415 51.0097 15.9307 50.4186 16.188ZM67.9245 16.188C67.1414 16.5288 67.0522 16.8046 67.0522 18.8874C67.0522 19.9799 67.1161 20.9057 67.2051 21.1008C67.5822 21.9287 68.8654 22.0835 69.5263 21.3809C69.8364 21.0512 69.8585 20.9189 69.9002 19.1392C69.9511 16.9653 69.8185 16.515 69.0306 16.1858C68.473 15.9529 68.4647 15.9529 67.9245 16.188ZM51.6137 23.5998C51.0791 23.9741 50.9139 24.5997 50.9139 26.2488C50.9139 28.4009 51.291 29.1209 52.4183 29.1209C53.5457 29.1209 53.9227 28.4009 53.9227 26.2488C53.9227 24.0967 53.5457 23.3767 52.4183 23.3767C52.151 23.3767 51.7888 23.4771 51.6137 23.5998ZM67.9245 24.9409C67.1414 25.2817 67.0522 25.5576 67.0522 27.6404C67.0522 28.7329 67.1161 29.6586 67.2051 29.8538C67.5822 30.6816 68.8654 30.8364 69.5263 30.1339C69.8364 29.8041 69.8585 29.6719 69.9002 27.8922C69.9511 25.7183 69.8185 25.2679 69.0306 24.9387C68.473 24.7058 68.4647 24.7058 67.9245 24.9409ZM51.6137 32.3528C51.0791 32.7271 50.9139 33.3527 50.9139 35.0018C50.9139 37.1539 51.291 37.8738 52.4183 37.8738C53.5457 37.8738 53.9227 37.1539 53.9227 35.0018C53.9227 32.8496 53.5457 32.1297 52.4183 32.1297C52.151 32.1297 51.7888 32.2301 51.6137 32.3528ZM67.9245 33.6939C67.1414 34.0347 67.0522 34.3106 67.0522 36.3933C67.0522 37.4858 67.1161 38.4116 67.2051 38.6068C67.5822 39.4346 68.8654 39.5894 69.5263 38.8869C69.8364 38.5571 69.8585 38.4249 69.9002 36.6451C69.9511 34.4713 69.8185 34.0209 69.0306 33.6917C68.473 33.4588 68.4647 33.4588 67.9245 33.6939ZM4.39741 35.3839C3.86498 35.6621 3.55357 35.9476 3.25337 36.4327L2.84102 37.0995L2.79561 41.8289C2.74159 47.4663 2.77838 47.7396 3.71796 48.6792C4.20922 49.1705 4.52829 49.3622 5.07111 49.4924L5.78147 49.6628V51.0674V52.4719L5.2924 52.5513C4.49109 52.6812 3.63945 53.2693 3.22082 53.9816L2.84102 54.6275L2.79561 59.3459C2.74159 64.9774 2.77783 65.245 3.72343 66.1908C4.24259 66.7098 4.51913 66.8708 5.11077 66.9985C5.6581 67.1165 10.4826 67.1469 23.7085 67.1156L41.567 67.0732L42.2341 66.6608C42.7196 66.3605 43.0051 66.0493 43.2833 65.5168L43.6654 64.7854V59.9275C43.6654 56.4799 43.6165 54.9061 43.4972 54.5066C43.2514 53.6841 42.371 52.8604 41.499 52.6368L40.7933 52.456V51.0484V49.6408L41.1694 49.5663C41.9722 49.4071 42.7712 48.8647 43.1867 48.197L43.597 47.5378L43.6377 42.6032C43.6676 38.9894 43.6331 37.5051 43.5091 37.0578C43.2943 36.2833 42.4304 35.3982 41.6664 35.17C41.2334 35.0406 36.9524 35.0018 23.1162 35.0018H5.12882L4.39741 35.3839ZM40.761 42.2845L40.7971 46.6268H23.2893H5.78147V42.2498V37.8727L23.2532 37.9075L40.7249 37.9422L40.761 42.2845ZM9.38509 41.0435C8.59336 41.4267 8.45987 42.7124 9.14493 43.3567C9.47467 43.6669 9.60692 43.6889 11.3866 43.7307C13.5723 43.7818 14.0101 43.6509 14.3468 42.845C14.5965 42.2472 14.4133 41.5694 13.8907 41.1584C13.5754 40.9103 13.3462 40.8836 11.6097 40.892C10.548 40.897 9.54688 40.9653 9.38509 41.0435ZM35.6537 41.0393C35.1911 41.2637 34.8697 41.9348 34.9597 42.4886C35.1223 43.4912 36.1645 44.0265 37.038 43.556C38.3071 42.8726 37.873 40.8669 36.4616 40.892C36.1737 40.897 35.8101 40.9632 35.6537 41.0393ZM51.6137 41.1057C51.0791 41.4801 50.9139 42.1056 50.9139 43.7547C50.9139 45.9069 51.291 46.6268 52.4183 46.6268C53.5457 46.6268 53.9227 45.9069 53.9227 43.7547C53.9227 41.6026 53.5457 40.8827 52.4183 40.8827C52.151 40.8827 51.7888 40.983 51.6137 41.1057ZM67.9245 42.4468C67.1414 42.7877 67.0522 43.0635 67.0522 45.1463C67.0522 46.2388 67.1161 47.1646 67.2051 47.3597C67.5822 48.1876 68.8654 48.3424 69.5263 47.6398C69.8364 47.3101 69.8585 47.1778 69.9002 45.3981C69.9511 43.2242 69.8185 42.7738 69.0306 42.4447C68.473 42.2117 68.4647 42.2117 67.9245 42.4468ZM37.7845 51.0717V52.5077H23.219H8.65353V51.0717V49.6356H23.219H37.7845V51.0717ZM51.6137 49.8587C51.0791 50.233 50.9139 50.8586 50.9139 52.5077C50.9139 54.6598 51.291 55.3798 52.4183 55.3798C53.5457 55.3798 53.9227 54.6598 53.9227 52.5077C53.9227 50.3556 53.5457 49.6356 52.4183 49.6356C52.151 49.6356 51.7888 49.736 51.6137 49.8587ZM67.9245 51.1998C67.1414 51.5406 67.0522 51.8165 67.0522 53.8993C67.0522 54.9917 67.1161 55.9175 67.2051 56.1127C67.5822 56.9405 68.8654 57.0953 69.5263 56.3928C69.8364 56.063 69.8585 55.9308 69.9002 54.1511C69.9511 51.9772 69.8185 51.5268 69.0306 51.1976C68.473 50.9647 68.4647 50.9647 67.9245 51.1998ZM40.761 59.7904L40.7971 64.1327H23.2893H5.78147V59.7557V55.3787L23.2532 55.4134L40.7249 55.4481L40.761 59.7904ZM60.5314 55.6004C59.9526 55.8858 59.6669 56.5316 59.6669 57.5545V58.3886H53.6113C46.8969 58.3886 47.1173 58.3597 46.7281 59.2911C46.4357 59.9911 46.4559 65.6291 46.7531 66.2556C47.1707 67.1354 47.2198 67.1415 53.7724 67.1415H59.6669V67.8981C59.6669 68.8681 59.9457 69.5284 60.47 69.7994C61.0533 70.101 61.4651 70.0668 62.0533 69.6676C63.1103 68.9503 69.1878 64.0323 69.5481 63.6027C69.981 63.0867 70.0411 62.4456 69.7019 61.9613C69.41 61.5447 62.0652 55.6743 61.6277 55.508C61.1773 55.3368 61.0429 55.3482 60.5314 55.6004ZM9.38509 58.5494C8.59336 58.9326 8.45987 60.2184 9.14493 60.8627C9.47467 61.1728 9.60692 61.1949 11.3866 61.2366C13.5723 61.2877 14.0101 61.1568 14.3468 60.3509C14.5965 59.7531 14.4133 59.0753 13.8907 58.6643C13.5754 58.4162 13.3462 58.3895 11.6097 58.3979C10.548 58.4029 9.54688 58.4712 9.38509 58.5494ZM35.6537 58.5452C35.1911 58.7696 34.8697 59.4407 34.9597 59.9945C35.1223 60.9971 36.1645 61.5324 37.038 61.0619C38.3071 60.3785 37.873 58.3729 36.4616 58.3979C36.1737 58.4029 35.8101 58.4691 35.6537 58.5452ZM64.3341 61.2713C65.1897 61.954 65.9414 62.5628 66.0046 62.6238C66.0676 62.6849 65.3458 63.3537 64.4003 64.11L62.6813 65.485L62.4628 65.0246C62.0421 64.138 62.0005 64.1327 55.4407 64.1327H49.5463V62.6967V61.2606L55.5297 61.2601C61.2367 61.2597 61.5336 61.2472 61.954 60.9908C62.1965 60.843 62.4339 60.5663 62.4818 60.3759C62.5295 60.1855 62.6158 60.0298 62.6735 60.0298C62.7312 60.0298 63.4785 60.5884 64.3341 61.2713Z" fill="#E49B00"/>
</svg>
