<svg width="1722" height="170" viewBox="0 0 1722 170" fill="none" xmlns="http://www.w3.org/2000/svg">
<path fill-rule="evenodd" clip-rule="evenodd" d="M404.368 56.4888H423.036V113.365C423.036 119.588 421.584 124.981 418.68 129.545C415.776 134.108 411.793 137.676 406.732 140.248C401.671 142.82 395.905 144.106 389.433 144.106C382.795 144.106 376.946 142.944 371.884 140.621C366.906 138.381 362.965 135.187 360.061 131.038L371.76 119.339C372.005 119.632 372.254 119.917 372.506 120.193C374.468 122.347 376.626 124.012 378.978 125.189C381.716 126.516 384.994 127.18 388.811 127.18C393.54 127.18 397.232 126.018 399.887 123.695C402.625 121.372 403.994 118.095 403.994 113.863V110.043C403.629 110.335 403.252 110.616 402.863 110.886C401.868 111.575 400.793 112.194 399.638 112.743C396.319 114.319 392.627 115.108 388.562 115.108C383.003 115.108 378.066 113.78 373.751 111.125C369.437 108.47 366.035 104.861 363.546 100.297C361.057 95.734 359.812 90.6728 359.812 85.1137C359.812 79.4717 361.057 74.4105 363.546 69.9301C366.035 65.3667 369.437 61.7989 373.751 59.2268C378.066 56.5717 383.003 55.2442 388.562 55.2442C392.71 55.2442 396.402 56.0324 399.638 57.6089C400.94 58.1945 402.139 58.8822 403.236 59.6719C403.626 59.9526 404.003 60.2462 404.368 60.5527V56.4888ZM403.496 78.3931C402.501 76.4018 401.007 74.8253 399.016 73.6637C397.108 72.5022 394.826 71.9214 392.171 71.9214C389.599 71.9214 387.317 72.5022 385.326 73.6637C383.334 74.8253 381.799 76.4018 380.721 78.3931C379.642 80.3844 379.103 82.6246 379.103 85.1137C379.103 87.4369 379.642 89.6356 380.721 91.7099C381.799 93.7012 383.293 95.2777 385.201 96.4393C387.193 97.6009 389.516 98.1817 392.171 98.1817C394.826 98.1817 397.108 97.6009 399.016 96.4393C401.007 95.2777 402.501 93.7427 403.496 91.8344C404.575 89.8431 405.114 87.6029 405.114 85.1137C405.114 82.6246 404.575 80.3844 403.496 78.3931ZM385.78 95.4673C387.572 96.51 389.689 97.0502 392.171 97.0502C394.658 97.0502 396.727 96.5077 398.428 95.4728L398.437 95.4673L398.446 95.462C400.267 94.3999 401.603 93.0167 402.493 91.311L402.497 91.3032L402.502 91.2955C403.482 89.4857 403.983 87.4337 403.983 85.1137C403.983 82.7937 403.482 80.7418 402.502 78.932L402.493 78.9157L402.484 78.8991C401.591 77.1117 400.254 75.696 398.446 74.641L398.437 74.6357L398.428 74.6302C396.727 73.5953 394.658 73.0528 392.171 73.0528C389.775 73.0528 387.695 73.5917 385.896 74.641C384.08 75.7002 382.694 77.1264 381.716 78.932C380.735 80.7418 380.234 82.7937 380.234 85.1137C380.234 87.2508 380.728 89.2679 381.72 91.1795C382.703 92.9901 384.053 94.4134 385.78 95.4673ZM403.236 58.2973V55.3574H424.167V113.365C424.167 119.77 422.671 125.381 419.635 130.152C416.616 134.895 412.477 138.597 407.245 141.257C402.004 143.92 396.058 145.237 389.433 145.237C382.665 145.237 376.651 144.053 371.417 141.651C366.269 139.334 362.163 136.014 359.134 131.687L358.59 130.909L371.833 117.666L372.627 118.612C374.696 121.079 376.981 122.924 379.478 124.173C382.027 125.408 385.125 126.049 388.811 126.049C393.36 126.049 396.755 124.933 399.142 122.844L399.149 122.838L399.155 122.832C401.594 120.763 402.863 117.828 402.863 113.863V112.246C402.002 112.801 401.088 113.307 400.124 113.765C396.638 115.421 392.777 116.239 388.562 116.239C382.814 116.239 377.668 114.864 373.158 112.089C368.671 109.328 365.134 105.571 362.553 100.839C359.967 96.0981 358.681 90.8486 358.681 85.1137C358.681 79.3009 359.964 74.0485 362.555 69.3844C365.136 64.6539 368.675 60.9376 373.165 58.2591C377.673 55.4865 382.817 54.1128 388.562 54.1128C392.849 54.1128 396.71 54.9269 400.118 56.5842C401.226 57.0836 402.265 57.6546 403.236 58.2973Z" fill="#F2B125"/>
<path fill-rule="evenodd" clip-rule="evenodd" d="M28.5789 115.674L28.5734 115.672C22.8869 113.295 17.9112 110.023 13.6563 105.853L13.6523 105.849L13.6482 105.845C9.39838 101.595 6.0419 96.665 3.58036 91.0629L3.57623 91.0535L3.57227 91.044C1.1879 85.3385 0 79.2154 0 72.686C0 66.1514 1.23141 60.0628 3.70482 54.4336C6.16937 48.8246 9.57289 43.9306 13.9133 39.7604C18.3361 35.5078 23.4808 32.2348 29.3375 29.9421C35.2038 27.5626 41.4869 26.3769 48.1759 26.3769C55.8644 26.3769 62.8683 27.7715 69.1694 30.5809C75.536 33.3826 80.8232 37.2573 85.0081 42.2108L85.6794 43.0054L70.7178 57.967L69.9317 56.9496C67.2088 53.4259 64.0253 50.8067 60.3823 49.0643C56.7378 47.3213 52.5937 46.437 47.927 46.437C42.9598 46.437 38.5518 47.5567 34.6737 49.7727L34.6661 49.7771L34.6584 49.7813C30.7837 51.9163 27.7408 54.9556 25.5184 58.9228C23.3868 62.7927 22.3003 67.368 22.3003 72.686C22.3003 78.0049 23.3872 82.6268 25.5248 86.5854C27.6718 90.5614 30.6009 93.6441 34.318 95.8585C38.023 98.0657 42.2988 99.1839 47.1803 99.1839C52.1857 99.1839 56.3464 98.2557 59.7107 96.4572C63.1646 94.5722 65.7813 91.9144 67.5841 88.4657L67.5884 88.4573C68.1599 87.3859 68.6472 86.2412 69.0489 85.022L44.182 84.6273V65.8296L92.6181 65.8296L92.6181 69.8235C92.6181 80.4921 90.6866 89.5622 86.7632 96.9837C82.9318 104.305 77.5498 109.866 70.6229 113.629C63.7952 117.384 55.9284 119.244 47.0558 119.244C40.5263 119.244 34.3639 118.056 28.5789 115.674ZM70.0802 112.636C76.8009 108.986 82.028 103.593 85.7617 96.4572C89.5784 89.2387 91.4867 80.3608 91.4867 69.8235L91.4867 66.961L45.3134 66.961V83.5137L70.5567 83.9144C70.4558 84.2958 70.3473 84.6713 70.2313 85.0408C69.7913 86.4428 69.2431 87.7591 68.5868 88.9898C66.6784 92.6405 63.8989 95.4615 60.2482 97.4528C56.6804 99.3612 52.3245 100.315 47.1803 100.315C42.119 100.315 37.6386 99.1537 33.739 96.8305C29.8393 94.5074 26.7694 91.2715 24.5292 87.123C22.289 82.9744 21.1689 78.1621 21.1689 72.686C21.1689 67.2099 22.289 62.4391 24.5292 58.3735C26.8524 54.225 30.0468 51.0306 34.1124 48.7904C38.1779 46.4672 42.7828 45.3056 47.927 45.3056C52.7393 45.3056 57.0538 46.2183 60.8705 48.0437C64.3709 49.7178 67.4526 52.1596 70.1155 55.3691C70.3561 55.6591 70.5932 55.9553 70.827 56.2578L84.1438 42.9409C80.0782 38.1286 74.934 34.3535 68.7112 31.6154C62.5714 28.8774 55.7263 27.5084 48.1759 27.5084C41.6212 27.5084 35.4814 28.67 29.7564 30.9931C24.0314 33.2334 19.0116 36.4277 14.6972 40.5763C10.4656 44.6418 7.14681 49.4127 4.74065 54.8888C2.3345 60.3648 1.13142 66.2973 1.13142 72.686C1.13142 79.0748 2.29301 85.0487 4.6162 90.6077C7.02235 96.0838 10.2997 100.896 14.4483 105.045C18.5968 109.11 23.4506 112.305 29.0096 114.628C34.6517 116.951 40.6671 118.113 47.0558 118.113C55.7678 118.113 63.4426 116.287 70.0802 112.636ZM115.735 115.001L115.725 114.995L115.715 114.99C110.571 112.075 106.487 108.122 103.481 103.14C100.464 98.1402 98.9622 92.5427 98.9622 86.3762C98.9622 80.2099 100.464 74.6504 103.485 69.7293C106.493 64.8307 110.578 60.9623 115.721 58.1324C120.885 55.2078 126.721 53.7573 133.199 53.7573C139.674 53.7573 145.507 55.1648 150.67 58.0044C155.82 60.8366 159.907 64.75 162.915 69.733C165.935 74.6531 167.436 80.2114 167.436 86.3762C167.436 92.5427 165.934 98.1402 162.917 103.14C159.911 108.122 155.827 112.075 150.683 114.99L150.677 114.993L150.67 114.997C145.507 117.837 139.674 119.244 133.199 119.244C126.804 119.244 120.974 117.835 115.735 115.001ZM144.139 93.4546L144.142 93.4472C145.211 91.3861 145.758 89.0376 145.758 86.3762C145.758 83.7126 145.21 81.4625 144.16 79.5861L144.155 79.5779L144.151 79.5697C143.088 77.5957 141.621 76.0954 139.74 75.0422L139.716 75.0289L139.693 75.0145C137.91 73.8999 135.761 73.3196 133.199 73.3196C130.728 73.3196 128.569 73.8963 126.687 75.0252L126.673 75.0339L126.658 75.0422C124.777 76.0954 123.31 77.5957 122.247 79.5697C121.187 81.5386 120.64 83.8383 120.64 86.5007C120.64 89.07 121.183 91.3757 122.252 93.4396C123.315 95.4112 124.785 96.9558 126.673 98.0919C128.556 99.1428 130.721 99.6817 133.199 99.6817C135.766 99.6817 137.972 99.1399 139.85 98.0919C141.733 96.9585 143.155 95.4212 144.135 93.4621L144.139 93.4546ZM140.418 99.0708C138.343 100.232 135.937 100.813 133.199 100.813C130.544 100.813 128.179 100.232 126.105 99.0708C124.031 97.8262 122.413 96.1253 121.251 93.968C120.09 91.7278 119.509 89.2387 119.509 86.5007C119.509 83.6797 120.09 81.1905 121.251 79.0333C122.413 76.876 124.031 75.2166 126.105 74.055C128.179 72.8105 130.544 72.1882 133.199 72.1882C135.937 72.1882 138.302 72.8105 140.293 74.055C142.367 75.2166 143.985 76.876 145.147 79.0333C146.308 81.1076 146.889 83.5552 146.889 86.3762C146.889 89.1972 146.308 91.7278 145.147 93.968C144.068 96.1253 142.492 97.8262 140.418 99.0708ZM177.142 117.875L177.142 25.2568L198.447 25.2568L198.447 117.875H177.142ZM222.946 114.842L222.937 114.836C218.452 111.99 214.879 108.109 212.22 103.221L212.216 103.214L212.213 103.207C209.627 98.2946 208.349 92.7164 208.349 86.5007C208.349 80.2849 209.627 74.7068 212.213 69.7944L212.216 69.7876L212.22 69.7808C214.879 64.8919 218.452 61.0116 222.937 58.165L222.946 58.1598C227.536 55.3018 232.724 53.8818 238.478 53.8818C242.691 53.8818 246.513 54.699 249.921 56.3582C251.404 57.0633 252.773 57.8889 254.024 58.8353V55.1264H274.955V117.875H254.024V114.265C252.813 115.166 251.484 115.96 250.04 116.645C246.554 118.301 242.694 119.12 238.478 119.12C232.724 119.12 227.536 117.7 222.946 114.842ZM254.024 112.832C254.416 112.515 254.793 112.184 255.156 111.842L255.156 116.744H273.824V56.2578H255.156V61.2807C254.792 60.9328 254.414 60.5981 254.024 60.2765C252.655 59.1483 251.124 58.1821 249.431 57.3779C246.195 55.8014 242.544 55.0132 238.478 55.0132C232.919 55.0132 227.941 56.3822 223.544 59.1203C219.229 61.8583 215.786 65.592 213.214 70.3213C210.725 75.0507 209.48 80.4438 209.48 86.5007C209.48 92.5575 210.725 97.9507 213.214 102.68C215.786 107.409 219.229 111.143 223.544 113.881C227.941 116.619 232.919 117.988 238.478 117.988C242.544 117.988 246.236 117.2 249.555 115.623C251.21 114.837 252.699 113.907 254.024 112.832ZM235.367 74.055C237.441 72.8105 239.806 72.1882 242.461 72.1882C245.116 72.1882 247.439 72.8105 249.431 74.055C251.505 75.2166 253.081 76.876 254.16 79.0333C255.321 81.1905 255.902 83.6797 255.902 86.5007C255.902 90.6492 254.658 94.0925 252.169 96.8305C249.679 99.4856 246.402 100.813 242.337 100.813C239.764 100.813 237.441 100.191 235.367 98.9463C233.293 97.7017 231.675 96.0008 230.513 93.8436C229.352 91.6863 228.771 89.2387 228.771 86.5007C228.771 83.6797 229.352 81.1905 230.513 79.0333C231.758 76.876 233.376 75.2166 235.367 74.055ZM231.502 79.584C230.447 81.5497 229.902 83.8448 229.902 86.5007C229.902 89.0738 230.447 91.3334 231.509 93.3072C232.576 95.2877 234.052 96.8377 235.949 97.9761C237.836 99.1084 239.956 99.6817 242.337 99.6817C246.126 99.6817 249.089 98.4579 251.337 96.0631C253.61 93.56 254.771 90.4011 254.771 86.5007C254.771 83.8383 254.224 81.5386 253.164 79.5697L253.156 79.5546L253.148 79.5393C252.169 77.5817 250.751 76.0913 248.878 75.0422L248.854 75.0289L248.831 75.0145C247.042 73.8965 244.932 73.3196 242.461 73.3196C239.99 73.3196 237.831 73.8963 235.949 75.0252L235.943 75.0288L235.937 75.0323C234.134 76.0842 232.655 77.5905 231.502 79.584ZM328.539 117.875V82.2691C328.539 79.3764 327.637 77.1579 325.901 75.4942L325.884 75.4775L325.867 75.4601C324.191 73.7113 322.048 72.8218 319.341 72.8218C317.438 72.8218 315.813 73.2388 314.432 74.0385L314.412 74.05L314.392 74.0606C313.024 74.7805 311.936 75.8602 311.123 77.3383L311.117 77.3492L311.11 77.36C310.311 78.7413 309.894 80.3659 309.894 82.2691V117.875L288.589 117.875V55.1264L309.894 55.1264V58.6497C310.742 58.0458 311.641 57.4956 312.591 56.9992C316.503 54.9139 320.877 53.8818 325.688 53.8818C330.352 53.8818 334.504 55.0059 338.104 57.2849C341.748 59.4571 344.621 62.3747 346.708 66.0263C348.8 69.6879 349.844 73.6991 349.844 78.0376V117.875H328.539ZM337.512 58.2491C334.11 56.0918 330.169 55.0132 325.688 55.0132C321.042 55.0132 316.852 56.0089 313.118 58.0002C311.965 58.6032 310.89 59.289 309.894 60.0577C309.504 60.3579 309.127 60.6709 308.762 60.9964V56.2578L289.72 56.2578V116.744H308.762V82.2691C308.762 81.8479 308.781 81.4369 308.819 81.0362C308.949 79.6431 309.308 78.3741 309.894 77.2292C309.969 77.0818 310.048 76.9364 310.131 76.7931C311.044 75.1337 312.288 73.8891 313.865 73.0594C315.441 72.1467 317.267 71.6904 319.341 71.6904C322.328 71.6904 324.776 72.686 326.684 74.6773C328.675 76.5856 329.671 79.1163 329.671 82.2691V116.744H348.713V78.0376C348.713 73.8891 347.717 70.0724 345.726 66.5877C343.734 63.1029 340.996 60.3233 337.512 58.2491ZM116.273 114.006C121.334 116.744 126.976 118.113 133.199 118.113C139.505 118.113 145.147 116.744 150.125 114.006C155.103 111.185 159.044 107.368 161.948 102.556C164.852 97.7432 166.304 92.3501 166.304 86.3762C166.304 80.4023 164.852 75.0507 161.948 70.3213C159.044 65.509 155.103 61.7339 150.125 58.9958C145.147 56.2578 139.505 54.8888 133.199 54.8888C126.893 54.8888 121.251 56.2993 116.273 59.1203C111.295 61.8583 107.354 65.592 104.45 70.3213C101.546 75.0507 100.094 80.4023 100.094 86.3762C100.094 92.3501 101.546 97.7432 104.45 102.556C107.354 107.368 111.295 111.185 116.273 114.006ZM178.274 116.744H197.315L197.315 26.3883L178.274 26.3883L178.274 116.744Z" fill="#F2B125"/>
<path fill-rule="evenodd" clip-rule="evenodd" d="M836.978 56.4883H855.646V113.365C855.646 119.588 854.194 124.981 851.29 129.544C848.386 134.108 844.404 137.675 839.343 140.247C834.281 142.82 828.515 144.106 822.043 144.106C815.405 144.106 809.556 142.944 804.495 140.621C799.517 138.381 795.575 135.186 792.671 131.038L804.37 119.339C804.616 119.631 804.865 119.916 805.116 120.193C807.078 122.347 809.236 124.012 811.589 125.188C814.327 126.516 817.604 127.179 821.421 127.179C826.15 127.179 829.842 126.018 832.497 123.695C835.236 121.372 836.605 118.094 836.605 113.863V110.043C836.24 110.334 835.863 110.615 835.473 110.885C834.479 111.575 833.404 112.194 832.249 112.743C828.93 114.319 825.238 115.107 821.172 115.107C815.613 115.107 810.676 113.78 806.362 111.125C802.047 108.47 798.645 104.86 796.156 100.297C793.667 95.7335 792.423 90.6723 792.423 85.1132C792.423 79.4712 793.667 74.41 796.156 69.9296C798.645 65.3662 802.047 61.7984 806.362 59.2263C810.676 56.5713 815.613 55.2437 821.172 55.2437C825.32 55.2437 829.013 56.0319 832.249 57.6084C833.55 58.194 834.749 58.8817 835.846 59.6714C836.237 59.9521 836.614 60.2457 836.978 60.5523V56.4883ZM836.107 78.3926C835.111 76.4013 833.618 74.8249 831.626 73.6633C829.718 72.5017 827.436 71.9209 824.781 71.9209C822.209 71.9209 819.927 72.5017 817.936 73.6633C815.945 74.8249 814.41 76.4013 813.331 78.3926C812.253 80.3839 811.713 82.6241 811.713 85.1132C811.713 87.4364 812.253 89.6352 813.331 91.7094C814.41 93.7007 815.903 95.2772 817.812 96.4388C819.803 97.6004 822.126 98.1812 824.781 98.1812C827.436 98.1812 829.718 97.6004 831.626 96.4388C833.618 95.2772 835.111 93.7422 836.107 91.8339C837.185 89.8426 837.725 87.6024 837.725 85.1132C837.725 82.6241 837.185 80.3839 836.107 78.3926ZM818.391 95.4668C820.182 96.5095 822.3 97.0497 824.781 97.0497C827.268 97.0497 829.338 96.5072 831.038 95.4723L831.047 95.4668L831.056 95.4615C832.877 94.3994 834.214 93.0162 835.104 91.3105L835.108 91.3027L835.112 91.295C836.092 89.4852 836.593 87.4332 836.593 85.1132C836.593 82.7932 836.092 80.7413 835.112 78.9315L835.103 78.9152L835.095 78.8986C834.201 77.1112 832.865 75.6955 831.056 74.6406L831.047 74.6352L831.038 74.6297C829.338 73.5948 827.268 73.0523 824.781 73.0523C822.386 73.0523 820.305 73.5912 818.506 74.6406C816.691 75.6997 815.304 77.1259 814.326 78.9315C813.346 80.7413 812.845 82.7932 812.845 85.1132C812.845 87.2504 813.338 89.2674 814.331 91.179C815.313 92.9896 816.663 94.4129 818.391 95.4668ZM835.846 58.2968V55.3569H856.778V113.365C856.778 119.77 855.281 125.381 852.245 130.152C849.227 134.895 845.088 138.597 839.855 141.256C834.614 143.919 828.668 145.237 822.043 145.237C815.275 145.237 809.261 144.053 804.027 141.651C798.879 139.334 794.774 136.014 791.745 131.686L791.2 130.909L804.444 117.665L805.237 118.612C807.306 121.078 809.591 122.923 812.088 124.173C814.637 125.408 817.736 126.048 821.421 126.048C825.971 126.048 829.365 124.932 831.752 122.843L831.759 122.838L831.765 122.832C834.204 120.763 835.473 117.827 835.473 113.863V112.246C834.612 112.8 833.699 113.306 832.734 113.765C829.248 115.42 825.387 116.239 821.172 116.239C815.425 116.239 810.279 114.864 805.769 112.088C801.282 109.327 797.744 105.57 795.163 100.839C792.577 96.0976 791.291 90.8481 791.291 85.1132C791.291 79.3004 792.575 74.048 795.165 69.3839C797.746 64.6534 801.285 60.9371 805.775 58.2586C810.284 55.486 815.427 54.1123 821.172 54.1123C825.459 54.1123 829.32 54.9264 832.729 56.5837C833.836 57.0831 834.876 57.6541 835.846 58.2968Z" fill="#F2B125"/>
<path fill-rule="evenodd" clip-rule="evenodd" d="M461.19 115.674L461.185 115.672C455.498 113.296 450.523 110.023 446.268 105.853L446.264 105.849L446.26 105.845C442.01 101.595 438.653 96.6652 436.192 91.0631L436.188 91.0537L436.184 91.0442C433.799 85.3388 432.611 79.2156 432.611 72.6863C432.611 66.1516 433.843 60.063 436.316 54.4339C438.781 48.8249 442.184 43.9308 446.525 39.7606C450.947 35.508 456.092 32.235 461.949 29.9423C467.815 27.5628 474.098 26.3772 480.787 26.3772C488.476 26.3772 495.48 27.7717 501.781 30.5812C508.147 33.3829 513.435 37.2575 517.619 42.211L518.291 43.0057L503.329 57.9672L502.543 56.9498C499.82 53.4261 496.637 50.8069 492.994 49.0646C489.349 47.3216 485.205 46.4373 480.538 46.4373C475.571 46.4373 471.163 47.5569 467.285 49.773L467.277 49.7773L467.27 49.7816C463.395 51.9166 460.352 54.9559 458.13 58.923C455.998 62.7929 454.912 67.3682 454.912 72.6863C454.912 78.0051 455.998 82.6271 458.136 86.5856C460.283 90.5617 463.212 93.6443 466.929 95.8588C470.634 98.066 474.91 99.1841 479.792 99.1841C484.797 99.1841 488.958 98.256 492.322 96.4574C495.776 94.5725 498.393 91.9146 500.195 88.4659L500.2 88.4576C500.771 87.3861 501.259 86.2414 501.66 85.0223L476.793 84.6276V65.8298L525.229 65.8298V69.8238C525.229 80.4923 523.298 89.5624 519.375 96.9839C515.543 104.305 510.161 109.866 503.234 113.63C496.407 117.384 488.54 119.244 479.667 119.244C473.138 119.244 466.975 118.056 461.19 115.674ZM502.692 112.637C509.412 108.986 514.639 103.593 518.373 96.4574C522.19 89.239 524.098 80.3611 524.098 69.8238V66.9613L477.925 66.9613V83.514L503.168 83.9146C503.067 84.2961 502.959 84.6715 502.843 85.041C502.403 86.443 501.854 87.7593 501.198 88.99C499.29 92.6408 496.51 95.4618 492.86 97.4531C489.292 99.3614 484.936 100.316 479.792 100.316C474.73 100.316 470.25 99.154 466.35 96.8308C462.451 94.5076 459.381 91.2717 457.141 87.1232C454.9 82.9746 453.78 78.1623 453.78 72.6863C453.78 67.2102 454.9 62.4394 457.141 58.3738C459.464 54.2252 462.658 51.0309 466.724 48.7906C470.789 46.4675 475.394 45.3059 480.538 45.3059C485.351 45.3059 489.665 46.2185 493.482 48.0439C496.982 49.718 500.064 52.1599 502.727 55.3694C502.967 55.6593 503.205 55.9555 503.438 56.258L516.755 42.9412C512.69 38.1289 507.545 34.3537 501.323 31.6157C495.183 28.8776 488.338 27.5086 480.787 27.5086C474.233 27.5086 468.093 28.6702 462.368 30.9934C456.643 33.2336 451.623 36.428 447.308 40.5765C443.077 44.6421 439.758 49.4129 437.352 54.889C434.946 60.3651 433.743 66.2975 433.743 72.6863C433.743 79.075 434.904 85.0489 437.228 90.608C439.634 96.084 442.911 100.896 447.06 105.045C451.208 109.11 456.062 112.305 461.621 114.628C467.263 116.951 473.278 118.113 479.667 118.113C488.379 118.113 496.054 116.287 502.692 112.637ZM548.346 115.001L548.336 114.996L548.326 114.99C543.182 112.075 539.098 108.122 536.092 103.14C533.075 98.1404 531.574 92.5429 531.574 86.3765C531.574 80.2101 533.075 74.6506 536.097 69.7296C539.105 64.831 543.19 60.9626 548.333 58.1327C553.496 55.208 559.332 53.7576 565.81 53.7576C572.285 53.7576 578.119 55.165 583.282 58.0047C588.431 60.8369 592.518 64.7503 595.526 69.7332C598.546 74.6534 600.047 80.2117 600.047 86.3765C600.047 92.5429 598.546 98.1404 595.528 103.14C592.522 108.122 588.438 112.075 583.294 114.99L583.288 114.994L583.282 114.997C578.119 117.837 572.285 119.244 565.81 119.244C559.415 119.244 553.586 117.836 548.346 115.001ZM576.75 93.4549L576.754 93.4475C577.822 91.3864 578.369 89.0379 578.369 86.3765C578.369 83.7128 577.822 81.4627 576.771 79.5863L576.766 79.5782L576.762 79.5699C575.699 77.5959 574.232 76.0956 572.352 75.0424L572.328 75.0291L572.305 75.0147C570.521 73.9001 568.372 73.3199 565.81 73.3199C563.34 73.3199 561.18 73.8965 559.298 75.0255L559.284 75.0342L559.269 75.0424C557.388 76.0956 555.922 77.5959 554.859 79.5699C553.799 81.5389 553.252 83.8386 553.252 86.5009C553.252 89.0703 553.794 91.3759 554.863 93.4399C555.926 95.4115 557.396 96.956 559.284 98.0921C561.167 99.143 563.332 99.682 565.81 99.682C568.378 99.682 570.583 99.1402 572.461 98.0921C574.344 96.9587 575.767 95.4215 576.746 93.4623L576.75 93.4549ZM573.029 99.071C570.955 100.233 568.548 100.813 565.81 100.813C563.155 100.813 560.791 100.233 558.716 99.071C556.642 97.8264 555.024 96.1255 553.863 93.9683C552.701 91.7281 552.12 89.239 552.12 86.5009C552.12 83.6799 552.701 81.1908 553.863 79.0335C555.024 76.8763 556.642 75.2169 558.716 74.0553C560.791 72.8107 563.155 72.1884 565.81 72.1884C568.548 72.1884 570.913 72.8107 572.904 74.0553C574.979 75.2169 576.597 76.8763 577.758 79.0335C578.92 81.1078 579.501 83.5554 579.501 86.3765C579.501 89.1975 578.92 91.7281 577.758 93.9683C576.68 96.1255 575.103 97.8264 573.029 99.071ZM609.754 117.875V25.2571L631.058 25.2571V117.875H609.754ZM655.557 114.842L655.549 114.837C651.063 111.99 647.49 108.11 644.831 103.221L644.827 103.214L644.824 103.207C642.238 98.2948 640.96 92.7167 640.96 86.5009C640.96 80.2852 642.238 74.707 644.824 69.7946L644.827 69.7878L644.831 69.781C647.49 64.8921 651.063 61.0119 655.549 58.1652L655.557 58.16C660.147 55.3021 665.335 53.882 671.09 53.882C675.302 53.882 679.124 54.6993 682.532 56.3585C684.016 57.0635 685.384 57.8892 686.635 58.8356V55.1266H707.567V117.875H686.635V114.265C685.424 115.167 684.095 115.96 682.652 116.646C679.166 118.302 675.305 119.12 671.09 119.12C665.335 119.12 660.147 117.7 655.557 114.842ZM686.635 112.833C687.027 112.515 687.404 112.185 687.767 111.842V116.744H706.435V56.258H687.767V61.281C687.403 60.9331 687.026 60.5983 686.635 60.2767C685.266 59.1486 683.735 58.1824 682.042 57.3781C678.806 55.8017 675.155 55.0135 671.09 55.0135C665.531 55.0135 660.552 56.3825 656.155 59.1205C651.84 61.8586 648.397 65.5922 645.825 70.3216C643.336 75.0509 642.091 80.444 642.091 86.5009C642.091 92.5578 643.336 97.9509 645.825 102.68C648.397 107.41 651.84 111.143 656.155 113.881C660.552 116.619 665.531 117.988 671.09 117.988C675.155 117.988 678.847 117.2 682.166 115.624C683.821 114.838 685.311 113.907 686.635 112.833ZM667.978 74.0553C670.053 72.8107 672.417 72.1884 675.072 72.1884C677.727 72.1884 680.051 72.8107 682.042 74.0553C684.116 75.2169 685.693 76.8763 686.771 79.0335C687.933 81.1908 688.514 83.6799 688.514 86.5009C688.514 90.6495 687.269 94.0927 684.78 96.8308C682.291 99.4859 679.013 100.813 674.948 100.813C672.376 100.813 670.053 100.191 667.978 98.9465C665.904 97.702 664.286 96.0011 663.125 93.8438C661.963 91.6866 661.382 89.239 661.382 86.5009C661.382 83.6799 661.963 81.1908 663.125 79.0335C664.369 76.8763 665.987 75.2169 667.978 74.0553ZM664.113 79.5842C663.058 81.55 662.514 83.845 662.514 86.5009C662.514 89.0741 663.058 91.3337 664.121 93.3074C665.187 95.2879 666.663 96.8379 668.56 97.9764C670.448 99.1087 672.567 99.682 674.948 99.682C678.738 99.682 681.7 98.4581 683.949 96.0634C686.221 93.5603 687.382 90.4014 687.382 86.5009C687.382 83.8386 686.835 81.5389 685.775 79.5699L685.767 79.5548L685.759 79.5395C684.78 77.5819 683.362 76.0916 681.489 75.0424L681.465 75.0291L681.442 75.0147C679.653 73.8967 677.544 73.3199 675.072 73.3199C672.602 73.3199 670.442 73.8965 668.56 75.0255L668.554 75.0291L668.548 75.0326C666.745 76.0844 665.266 77.5908 664.113 79.5842ZM761.151 117.875V82.2694C761.151 79.3766 760.248 77.1581 758.512 75.4944L758.495 75.4778L758.478 75.4604C756.802 73.7115 754.659 72.822 751.952 72.822C750.049 72.822 748.424 73.239 747.043 74.0388L747.023 74.0502L747.003 74.0608C745.635 74.7807 744.547 75.8605 743.734 77.3386L743.728 77.3495L743.722 77.3602C742.922 78.7416 742.505 80.3661 742.505 82.2694V117.875L721.2 117.875V55.1266L742.505 55.1266V58.6499C743.354 58.0461 744.253 57.4958 745.202 56.9994C749.114 54.9142 753.488 53.882 758.3 53.882C762.964 53.882 767.115 55.0062 770.715 57.2851C774.359 59.4573 777.233 62.3749 779.319 66.0266C781.412 69.6882 782.455 73.6993 782.455 78.0379V117.875H761.151ZM770.123 58.2493C766.721 56.0921 762.78 55.0135 758.3 55.0135C753.653 55.0135 749.463 56.0091 745.729 58.0004C744.576 58.6034 743.501 59.2892 742.505 60.0579C742.116 60.3582 741.739 60.6711 741.374 60.9967V56.258L722.332 56.258V116.744H741.374V82.2694C741.374 81.8481 741.392 81.4372 741.43 81.0364C741.561 79.6434 741.919 78.3744 742.505 77.2294C742.58 77.082 742.66 76.9366 742.743 76.7933C743.655 75.1339 744.9 73.8893 746.476 73.0596C748.053 72.1469 749.878 71.6906 751.952 71.6906C754.939 71.6906 757.387 72.6863 759.295 74.6776C761.287 76.5859 762.282 79.1165 762.282 82.2694V116.744H781.324V78.0379C781.324 73.8893 780.328 70.0727 778.337 66.5879C776.346 63.1031 773.608 60.3236 770.123 58.2493ZM548.884 114.006C553.946 116.744 559.588 118.113 565.81 118.113C572.116 118.113 577.758 116.744 582.736 114.006C587.715 111.185 591.656 107.368 594.56 102.556C597.464 97.7435 598.916 92.3504 598.916 86.3765C598.916 80.4025 597.464 75.0509 594.56 70.3216C591.656 65.5093 587.715 61.7341 582.736 58.9961C577.758 56.258 572.116 54.889 565.81 54.889C559.505 54.889 553.863 56.2995 548.884 59.1205C543.906 61.8586 539.965 65.5922 537.061 70.3216C534.157 75.0509 532.705 80.4025 532.705 86.3765C532.705 92.3504 534.157 97.7435 537.061 102.556C539.965 107.368 543.906 111.185 548.884 114.006ZM610.885 116.744H629.927V26.3885L610.885 26.3885V116.744Z" fill="#F2B125"/>
<path fill-rule="evenodd" clip-rule="evenodd" d="M1269.59 56.4888H1288.26V113.365C1288.26 119.588 1286.81 124.981 1283.9 129.545C1281 134.108 1277.02 137.676 1271.95 140.248C1266.89 142.82 1261.13 144.106 1254.65 144.106C1248.02 144.106 1242.17 142.944 1237.11 140.621C1232.13 138.381 1228.19 135.187 1225.28 131.038L1236.98 119.339C1237.23 119.632 1237.48 119.917 1237.73 120.193C1239.69 122.347 1241.85 124.012 1244.2 125.189C1246.94 126.516 1250.22 127.18 1254.03 127.18C1258.76 127.18 1262.45 126.018 1265.11 123.695C1267.85 121.372 1269.22 118.095 1269.22 113.863V110.043C1268.85 110.335 1268.47 110.616 1268.08 110.886C1267.09 111.575 1266.02 112.194 1264.86 112.743C1261.54 114.319 1257.85 115.108 1253.78 115.108C1248.22 115.108 1243.29 113.78 1238.97 111.125C1234.66 108.47 1231.26 104.861 1228.77 100.297C1226.28 95.734 1225.03 90.6728 1225.03 85.1137C1225.03 79.4717 1226.28 74.4105 1228.77 69.9301C1231.26 65.3667 1234.66 61.7989 1238.97 59.2268C1243.29 56.5717 1248.22 55.2442 1253.78 55.2442C1257.93 55.2442 1261.62 56.0324 1264.86 57.6089C1266.16 58.1945 1267.36 58.8822 1268.46 59.6719C1268.85 59.9526 1269.22 60.2462 1269.59 60.5527V56.4888ZM1268.72 78.3931C1267.72 76.4018 1266.23 74.8253 1264.24 73.6637C1262.33 72.5022 1260.05 71.9214 1257.39 71.9214C1254.82 71.9214 1252.54 72.5022 1250.55 73.6637C1248.56 74.8253 1247.02 76.4018 1245.94 78.3931C1244.86 80.3844 1244.32 82.6246 1244.32 85.1137C1244.32 87.4369 1244.86 89.6356 1245.94 91.7099C1247.02 93.7012 1248.51 95.2777 1250.42 96.4393C1252.41 97.6009 1254.74 98.1817 1257.39 98.1817C1260.05 98.1817 1262.33 97.6009 1264.24 96.4393C1266.23 95.2777 1267.72 93.7427 1268.72 91.8344C1269.8 89.8431 1270.34 87.6029 1270.34 85.1137C1270.34 82.6246 1269.8 80.3844 1268.72 78.3931ZM1251 95.4673C1252.79 96.51 1254.91 97.0502 1257.39 97.0502C1259.88 97.0502 1261.95 96.5077 1263.65 95.4728L1263.66 95.4673L1263.67 95.462C1265.49 94.3999 1266.83 93.0167 1267.71 91.311L1267.72 91.3032L1267.72 91.2955C1268.7 89.4857 1269.2 87.4337 1269.2 85.1137C1269.2 82.7937 1268.7 80.7418 1267.72 78.932L1267.71 78.9157L1267.71 78.8991C1266.81 77.1117 1265.48 75.696 1263.67 74.641L1263.66 74.6357L1263.65 74.6302C1261.95 73.5953 1259.88 73.0528 1257.39 73.0528C1255 73.0528 1252.92 73.5917 1251.12 74.641C1249.3 75.7002 1247.92 77.1264 1246.94 78.932C1245.96 80.7418 1245.46 82.7937 1245.46 85.1137C1245.46 87.2508 1245.95 89.2679 1246.94 91.1795C1247.92 92.9901 1249.27 94.4134 1251 95.4673ZM1268.46 58.2973V55.3574H1289.39V113.365C1289.39 119.77 1287.89 125.381 1284.86 130.152C1281.84 134.895 1277.7 138.597 1272.47 141.257C1267.23 143.92 1261.28 145.237 1254.65 145.237C1247.89 145.237 1241.87 144.053 1236.64 141.651C1231.49 139.334 1227.39 136.014 1224.36 131.687L1223.81 130.909L1237.05 117.666L1237.85 118.612C1239.92 121.079 1242.2 122.924 1244.7 124.173C1247.25 125.408 1250.35 126.049 1254.03 126.049C1258.58 126.049 1261.98 124.933 1264.36 122.844L1264.37 122.838L1264.38 122.832C1266.82 120.763 1268.08 117.828 1268.08 113.863V112.246C1267.22 112.801 1266.31 113.307 1265.35 113.765C1261.86 115.421 1258 116.239 1253.78 116.239C1248.04 116.239 1242.89 114.864 1238.38 112.089C1233.89 109.328 1230.36 105.571 1227.77 100.839C1225.19 96.0981 1223.9 90.8486 1223.9 85.1137C1223.9 79.3009 1225.19 74.0485 1227.78 69.3844C1230.36 64.6539 1233.9 60.9376 1238.39 58.2591C1242.9 55.4865 1248.04 54.1128 1253.78 54.1128C1258.07 54.1128 1261.93 54.9269 1265.34 56.5842C1266.45 57.0836 1267.49 57.6546 1268.46 58.2973Z" fill="#F2B125"/>
<path fill-rule="evenodd" clip-rule="evenodd" d="M893.801 115.674L893.795 115.672C888.109 113.296 883.133 110.023 878.878 105.853L878.874 105.849L878.87 105.845C874.62 101.595 871.264 96.6652 868.802 91.0631L868.798 91.0537L868.794 91.0442C866.41 85.3388 865.222 79.2156 865.222 72.6863C865.222 66.1516 866.453 60.063 868.926 54.4339C871.391 48.8249 874.795 43.9308 879.135 39.7606C883.558 35.508 888.702 32.235 894.559 29.9423C900.426 27.5628 906.709 26.3772 913.398 26.3772C921.086 26.3772 928.09 27.7717 934.391 30.5812C940.758 33.3829 946.045 37.2575 950.23 42.211L950.901 43.0057L935.94 57.9672L935.153 56.9498C932.431 53.4261 929.247 50.8069 925.604 49.0646C921.959 47.3216 917.815 46.4373 913.149 46.4373C908.181 46.4373 903.773 47.5569 899.895 49.773L899.888 49.7773L899.88 49.7816C896.005 51.9166 892.962 54.9559 890.74 58.923C888.608 62.7929 887.522 67.3682 887.522 72.6863C887.522 78.0051 888.609 82.6271 890.746 86.5856C892.894 90.5617 895.823 93.6443 899.54 95.8588C903.245 98.066 907.521 99.1841 912.402 99.1841C917.407 99.1841 921.568 98.256 924.932 96.4574C928.386 94.5725 931.003 91.9146 932.806 88.4659L932.81 88.4576C933.382 87.3861 933.869 86.2414 934.271 85.0223L909.404 84.6276V65.8298L957.84 65.8298V69.8238C957.84 80.4923 955.908 89.5624 951.985 96.9839C948.153 104.305 942.771 109.866 935.845 113.63C929.017 117.384 921.15 119.244 912.277 119.244C905.748 119.244 899.586 118.056 893.801 115.674ZM935.302 112.637C942.023 108.986 947.25 103.593 950.983 96.4574C954.8 89.239 956.708 80.3611 956.708 69.8238V66.9613L910.535 66.9613V83.514L935.778 83.9146C935.677 84.2961 935.569 84.6715 935.453 85.041C935.013 86.443 934.465 87.7593 933.808 88.99C931.9 92.6408 929.121 95.4618 925.47 97.4531C921.902 99.3614 917.546 100.316 912.402 100.316C907.341 100.316 902.86 99.154 898.961 96.8308C895.061 94.5076 891.991 91.2717 889.751 87.1232C887.511 82.9746 886.391 78.1623 886.391 72.6863C886.391 67.2102 887.511 62.4394 889.751 58.3738C892.074 54.2252 895.268 51.0309 899.334 48.7906C903.4 46.4675 908.004 45.3059 913.149 45.3059C917.961 45.3059 922.275 46.2185 926.092 48.0439C929.593 49.718 932.674 52.1599 935.337 55.3694C935.578 55.6593 935.815 55.9555 936.049 56.258L949.365 42.9412C945.3 38.1289 940.156 34.3537 933.933 31.6157C927.793 28.8776 920.948 27.5086 913.398 27.5086C906.843 27.5086 900.703 28.6702 894.978 30.9934C889.253 33.2336 884.233 36.428 879.919 40.5765C875.687 44.6421 872.368 49.4129 869.962 54.889C867.556 60.3651 866.353 66.2975 866.353 72.6863C866.353 79.075 867.515 85.0489 869.838 90.608C872.244 96.084 875.521 100.896 879.67 105.045C883.818 109.11 888.672 112.305 894.231 114.628C899.873 116.951 905.889 118.113 912.277 118.113C920.989 118.113 928.664 116.287 935.302 112.637ZM980.956 115.001L980.947 114.996L980.937 114.99C975.793 112.075 971.709 108.122 968.703 103.14C965.685 98.1404 964.184 92.5429 964.184 86.3765C964.184 80.2101 965.685 74.6506 968.707 69.7296C971.715 64.831 975.8 60.9626 980.943 58.1327C986.107 55.208 991.942 53.7576 998.421 53.7576C1004.9 53.7576 1010.73 55.165 1015.89 58.0047C1021.04 60.8369 1025.13 64.7503 1028.14 69.7332C1031.16 74.6534 1032.66 80.2117 1032.66 86.3765C1032.66 92.5429 1031.16 98.1404 1028.14 103.14C1025.13 108.122 1021.05 112.075 1015.9 114.99L1015.9 114.994L1015.89 114.997C1010.73 117.837 1004.9 119.244 998.421 119.244C992.026 119.244 986.196 117.836 980.956 115.001ZM1009.36 93.4549L1009.36 93.4475C1010.43 91.3864 1010.98 89.0379 1010.98 86.3765C1010.98 83.7128 1010.43 81.4627 1009.38 79.5863L1009.38 79.5782L1009.37 79.5699C1008.31 77.5959 1006.84 76.0956 1004.96 75.0424L1004.94 75.0291L1004.92 75.0147C1003.13 73.9001 1000.98 73.3199 998.421 73.3199C995.95 73.3199 993.79 73.8965 991.909 75.0255L991.894 75.0342L991.88 75.0424C989.999 76.0956 988.532 77.5959 987.469 79.5699C986.409 81.5389 985.862 83.8386 985.862 86.5009C985.862 89.0703 986.405 91.3759 987.473 93.4399C988.537 95.4115 990.006 96.956 991.894 98.0921C993.777 99.143 995.943 99.682 998.421 99.682C1000.99 99.682 1003.19 99.1402 1005.07 98.0921C1006.95 96.9587 1008.38 95.4215 1009.36 93.4623L1009.36 93.4549ZM1005.64 99.071C1003.56 100.233 1001.16 100.813 998.421 100.813C995.766 100.813 993.401 100.233 991.327 99.071C989.252 97.8264 987.634 96.1255 986.473 93.9683C985.311 91.7281 984.731 89.239 984.731 86.5009C984.731 83.6799 985.311 81.1908 986.473 79.0335C987.634 76.8763 989.252 75.2169 991.327 74.0553C993.401 72.8107 995.766 72.1884 998.421 72.1884C1001.16 72.1884 1003.52 72.8107 1005.51 74.0553C1007.59 75.2169 1009.21 76.8763 1010.37 79.0335C1011.53 81.1078 1012.11 83.5554 1012.11 86.3765C1012.11 89.1975 1011.53 91.7281 1010.37 93.9683C1009.29 96.1255 1007.71 97.8264 1005.64 99.071ZM1042.36 117.875V25.2571L1063.67 25.2571V117.875H1042.36ZM1088.17 114.842L1088.16 114.837C1083.67 111.99 1080.1 108.11 1077.44 103.221L1077.44 103.214L1077.43 103.207C1074.85 98.2948 1073.57 92.7167 1073.57 86.5009C1073.57 80.2852 1074.85 74.707 1077.43 69.7946L1077.44 69.7878L1077.44 69.781C1080.1 64.8921 1083.67 61.0119 1088.16 58.1652L1088.17 58.16C1092.76 55.3021 1097.95 53.882 1103.7 53.882C1107.91 53.882 1111.73 54.6993 1115.14 56.3585C1116.63 57.0635 1117.99 57.8892 1119.25 58.8356V55.1266H1140.18V117.875H1119.25V114.265C1118.03 115.167 1116.71 115.96 1115.26 116.646C1111.78 118.302 1107.92 119.12 1103.7 119.12C1097.95 119.12 1092.76 117.7 1088.17 114.842ZM1119.25 112.833C1119.64 112.515 1120.01 112.185 1120.38 111.842V116.744H1139.05V56.258H1120.38V61.281C1120.01 60.9331 1119.64 60.5983 1119.25 60.2767C1117.88 59.1486 1116.35 58.1824 1114.65 57.3781C1111.42 55.8017 1107.77 55.0135 1103.7 55.0135C1098.14 55.0135 1093.16 56.3825 1088.77 59.1205C1084.45 61.8586 1081.01 65.5922 1078.44 70.3216C1075.95 75.0509 1074.7 80.444 1074.7 86.5009C1074.7 92.5578 1075.95 97.9509 1078.44 102.68C1081.01 107.41 1084.45 111.143 1088.77 113.881C1093.16 116.619 1098.14 117.988 1103.7 117.988C1107.77 117.988 1111.46 117.2 1114.78 115.624C1116.43 114.838 1117.92 113.907 1119.25 112.833ZM1100.59 74.0553C1102.66 72.8107 1105.03 72.1884 1107.68 72.1884C1110.34 72.1884 1112.66 72.8107 1114.65 74.0553C1116.73 75.2169 1118.3 76.8763 1119.38 79.0335C1120.54 81.1908 1121.12 83.6799 1121.12 86.5009C1121.12 90.6495 1119.88 94.0927 1117.39 96.8308C1114.9 99.4859 1111.62 100.813 1107.56 100.813C1104.99 100.813 1102.66 100.191 1100.59 98.9465C1098.51 97.702 1096.9 96.0011 1095.73 93.8438C1094.57 91.6866 1093.99 89.239 1093.99 86.5009C1093.99 83.6799 1094.57 81.1908 1095.73 79.0335C1096.98 76.8763 1098.6 75.2169 1100.59 74.0553ZM1096.72 79.5842C1095.67 81.55 1095.12 83.845 1095.12 86.5009C1095.12 89.0741 1095.67 91.3337 1096.73 93.3074C1097.8 95.2879 1099.27 96.8379 1101.17 97.9764C1103.06 99.1087 1105.18 99.682 1107.56 99.682C1111.35 99.682 1114.31 98.4581 1116.56 96.0634C1118.83 93.5603 1119.99 90.4014 1119.99 86.5009C1119.99 83.8386 1119.45 81.5389 1118.39 79.5699L1118.38 79.5548L1118.37 79.5395C1117.39 77.5819 1115.97 76.0916 1114.1 75.0424L1114.08 75.0291L1114.05 75.0147C1112.26 73.8967 1110.15 73.3199 1107.68 73.3199C1105.21 73.3199 1103.05 73.8965 1101.17 75.0255L1101.16 75.0291L1101.16 75.0326C1099.36 76.0844 1097.88 77.5908 1096.72 79.5842ZM1193.76 117.875V82.2694C1193.76 79.3766 1192.86 77.1581 1191.12 75.4944L1191.11 75.4778L1191.09 75.4604C1189.41 73.7115 1187.27 72.822 1184.56 72.822C1182.66 72.822 1181.03 73.239 1179.65 74.0388L1179.63 74.0502L1179.61 74.0608C1178.25 74.7807 1177.16 75.8605 1176.34 77.3386L1176.34 77.3495L1176.33 77.3602C1175.53 78.7416 1175.12 80.3661 1175.12 82.2694V117.875L1153.81 117.875V55.1266L1175.12 55.1266V58.6499C1175.96 58.0461 1176.86 57.4958 1177.81 56.9994C1181.72 54.9142 1186.1 53.882 1190.91 53.882C1195.57 53.882 1199.73 55.0062 1203.33 57.2851C1206.97 59.4573 1209.84 62.3749 1211.93 66.0266C1214.02 69.6882 1215.07 73.6993 1215.07 78.0379V117.875H1193.76ZM1202.73 58.2493C1199.33 56.0921 1195.39 55.0135 1190.91 55.0135C1186.26 55.0135 1182.07 56.0091 1178.34 58.0004C1177.19 58.6034 1176.11 59.2892 1175.12 60.0579C1174.73 60.3582 1174.35 60.6711 1173.98 60.9967V56.258L1154.94 56.258V116.744H1173.98V82.2694C1173.98 81.8481 1174 81.4372 1174.04 81.0364C1174.17 79.6434 1174.53 78.3744 1175.12 77.2294C1175.19 77.082 1175.27 76.9366 1175.35 76.7933C1176.27 75.1339 1177.51 73.8893 1179.09 73.0596C1180.66 72.1469 1182.49 71.6906 1184.56 71.6906C1187.55 71.6906 1190 72.6863 1191.91 74.6776C1193.9 76.5859 1194.89 79.1165 1194.89 82.2694V116.744H1213.93V78.0379C1213.93 73.8893 1212.94 70.0727 1210.95 66.5879C1208.96 63.1031 1206.22 60.3236 1202.73 58.2493ZM981.495 114.006C986.556 116.744 992.198 118.113 998.421 118.113C1004.73 118.113 1010.37 116.744 1015.35 114.006C1020.33 111.185 1024.27 107.368 1027.17 102.556C1030.07 97.7435 1031.53 92.3504 1031.53 86.3765C1031.53 80.4025 1030.07 75.0509 1027.17 70.3216C1024.27 65.5093 1020.33 61.7341 1015.35 58.9961C1010.37 56.258 1004.73 54.889 998.421 54.889C992.115 54.889 986.473 56.2995 981.495 59.1205C976.516 61.8586 972.575 65.5922 969.671 70.3216C966.767 75.0509 965.315 80.4025 965.315 86.3765C965.315 92.3504 966.767 97.7435 969.671 102.556C972.575 107.368 976.516 111.185 981.495 114.006ZM1043.5 116.744H1062.54V26.3885L1043.5 26.3885V116.744Z" fill="#F2B125"/>
<path fill-rule="evenodd" clip-rule="evenodd" d="M1702.2 56.4883H1720.87V113.365C1720.87 119.588 1719.42 124.981 1716.51 129.544C1713.61 134.108 1709.63 137.675 1704.57 140.247C1699.5 142.82 1693.74 144.106 1687.27 144.106C1680.63 144.106 1674.78 142.944 1669.72 140.621C1664.74 138.381 1660.8 135.186 1657.89 131.038L1669.59 119.339C1669.84 119.631 1670.09 119.916 1670.34 120.193C1672.3 122.347 1674.46 124.012 1676.81 125.188C1679.55 126.516 1682.83 127.179 1686.64 127.179C1691.37 127.179 1695.07 126.018 1697.72 123.695C1700.46 121.372 1701.83 118.094 1701.83 113.863V110.043C1701.46 110.334 1701.09 110.615 1700.7 110.885C1699.7 111.575 1698.63 112.194 1697.47 112.743C1694.15 114.319 1690.46 115.107 1686.39 115.107C1680.84 115.107 1675.9 113.78 1671.58 111.125C1667.27 108.47 1663.87 104.86 1661.38 100.297C1658.89 95.7335 1657.65 90.6723 1657.65 85.1132C1657.65 79.4712 1658.89 74.41 1661.38 69.9296C1663.87 65.3662 1667.27 61.7984 1671.58 59.2263C1675.9 56.5713 1680.84 55.2437 1686.39 55.2437C1690.54 55.2437 1694.24 56.0319 1697.47 57.6084C1698.77 58.194 1699.97 58.8817 1701.07 59.6714C1701.46 59.9521 1701.84 60.2457 1702.2 60.5523V56.4883ZM1701.33 78.3926C1700.33 76.4013 1698.84 74.8249 1696.85 73.6633C1694.94 72.5017 1692.66 71.9209 1690 71.9209C1687.43 71.9209 1685.15 72.5017 1683.16 73.6633C1681.17 74.8249 1679.63 76.4013 1678.55 78.3926C1677.48 80.3839 1676.94 82.6241 1676.94 85.1132C1676.94 87.4364 1677.48 89.6352 1678.55 91.7094C1679.63 93.7007 1681.13 95.2772 1683.03 96.4388C1685.03 97.6004 1687.35 98.1812 1690 98.1812C1692.66 98.1812 1694.94 97.6004 1696.85 96.4388C1698.84 95.2772 1700.33 93.7422 1701.33 91.8339C1702.41 89.8426 1702.95 87.6024 1702.95 85.1132C1702.95 82.6241 1702.41 80.3839 1701.33 78.3926ZM1683.61 95.4668C1685.4 96.5095 1687.52 97.0497 1690 97.0497C1692.49 97.0497 1694.56 96.5072 1696.26 95.4723L1696.27 95.4668L1696.28 95.4615C1698.1 94.3994 1699.44 93.0162 1700.33 91.3105L1700.33 91.3027L1700.33 91.295C1701.31 89.4852 1701.82 87.4332 1701.82 85.1132C1701.82 82.7932 1701.31 80.7413 1700.33 78.9315L1700.33 78.9152L1700.32 78.8986C1699.42 77.1112 1698.09 75.6955 1696.28 74.6406L1696.27 74.6352L1696.26 74.6297C1694.56 73.5948 1692.49 73.0523 1690 73.0523C1687.61 73.0523 1685.53 73.5912 1683.73 74.6406C1681.91 75.6997 1680.53 77.1259 1679.55 78.9315C1678.57 80.7413 1678.07 82.7932 1678.07 85.1132C1678.07 87.2504 1678.56 89.2674 1679.55 91.179C1680.54 92.9896 1681.89 94.4129 1683.61 95.4668ZM1701.07 58.2968V55.3569H1722V113.365C1722 119.77 1720.5 125.381 1717.47 130.152C1714.45 134.895 1710.31 138.597 1705.08 141.256C1699.84 143.919 1693.89 145.237 1687.27 145.237C1680.5 145.237 1674.48 144.053 1669.25 141.651C1664.1 139.334 1660 136.014 1656.97 131.686L1656.42 130.909L1669.67 117.665L1670.46 118.612C1672.53 121.078 1674.81 122.923 1677.31 124.173C1679.86 125.408 1682.96 126.048 1686.64 126.048C1691.19 126.048 1694.59 124.932 1696.98 122.843L1696.98 122.838L1696.99 122.832C1699.43 120.763 1700.7 117.827 1700.7 113.863V112.246C1699.83 112.8 1698.92 113.306 1697.96 113.765C1694.47 115.42 1690.61 116.239 1686.39 116.239C1680.65 116.239 1675.5 114.864 1670.99 112.088C1666.5 109.327 1662.97 105.57 1660.39 100.839C1657.8 96.0976 1656.51 90.8481 1656.51 85.1132C1656.51 79.3004 1657.8 74.048 1660.39 69.3839C1662.97 64.6534 1666.51 60.9371 1671 58.2586C1675.51 55.486 1680.65 54.1123 1686.39 54.1123C1690.68 54.1123 1694.54 54.9264 1697.95 56.5837C1699.06 57.0831 1700.1 57.6541 1701.07 58.2968Z" fill="#F2B125"/>
<path fill-rule="evenodd" clip-rule="evenodd" d="M1326.41 115.674L1326.41 115.672C1320.72 113.295 1315.75 110.023 1311.49 105.853L1311.49 105.849L1311.48 105.845C1307.23 101.595 1303.88 96.665 1301.41 91.0629L1301.41 91.0535L1301.41 91.044C1299.02 85.3385 1297.83 79.2154 1297.83 72.686C1297.83 66.1514 1299.07 60.0628 1301.54 54.4336C1304 48.8246 1307.41 43.9306 1311.75 39.7604C1316.17 35.5078 1321.31 32.2348 1327.17 29.9421C1333.04 27.5626 1339.32 26.3769 1346.01 26.3769C1353.7 26.3769 1360.7 27.7715 1367 30.5809C1373.37 33.3827 1378.66 37.2573 1382.84 42.2108L1383.51 43.0054L1368.55 57.967L1367.77 56.9496C1365.04 53.4259 1361.86 50.8067 1358.22 49.0643C1354.57 47.3213 1350.43 46.437 1345.76 46.437C1340.79 46.437 1336.39 47.5567 1332.51 49.7727L1332.5 49.7771L1332.49 49.7813C1328.62 51.9163 1325.57 54.9556 1323.35 58.9228C1321.22 62.7927 1320.13 67.368 1320.13 72.686C1320.13 78.0049 1321.22 82.6268 1323.36 86.5854C1325.51 90.5614 1328.43 93.6441 1332.15 95.8585C1335.86 98.0657 1340.13 99.1839 1345.01 99.1839C1350.02 99.1839 1354.18 98.2557 1357.54 96.4572C1361 94.5722 1363.62 91.9144 1365.42 88.4657L1365.42 88.4573C1365.99 87.3859 1366.48 86.2412 1366.88 85.022L1342.02 84.6273V65.8296L1390.45 65.8296V69.8235C1390.45 80.4921 1388.52 89.5622 1384.6 96.9837C1380.77 104.305 1375.38 109.866 1368.46 113.629C1361.63 117.384 1353.76 119.244 1344.89 119.244C1338.36 119.244 1332.2 118.056 1326.41 115.674ZM1367.91 112.636C1374.63 108.986 1379.86 103.593 1383.6 96.4572C1387.41 89.2387 1389.32 80.3608 1389.32 69.8235V66.961L1343.15 66.961V83.5137L1368.39 83.9144C1368.29 84.2958 1368.18 84.6713 1368.07 85.0408C1367.63 86.4428 1367.08 87.7591 1366.42 88.9898C1364.51 92.6405 1361.73 95.4615 1358.08 97.4528C1354.51 99.3612 1350.16 100.315 1345.01 100.315C1339.95 100.315 1335.47 99.1537 1331.57 96.8305C1327.67 94.5074 1324.6 91.2715 1322.36 87.123C1320.12 82.9744 1319 78.1621 1319 72.686C1319 67.2099 1320.12 62.4391 1322.36 58.3735C1324.69 54.225 1327.88 51.0306 1331.95 48.7904C1336.01 46.4672 1340.62 45.3056 1345.76 45.3056C1350.57 45.3056 1354.89 46.2183 1358.7 48.0437C1362.2 49.7178 1365.29 52.1596 1367.95 55.3691C1368.19 55.6591 1368.43 55.9553 1368.66 56.2578L1381.98 42.9409C1377.91 38.1286 1372.77 34.3535 1366.55 31.6154C1360.41 28.8774 1353.56 27.5084 1346.01 27.5084C1339.46 27.5084 1333.32 28.67 1327.59 30.9931C1321.87 33.2334 1316.85 36.4277 1312.53 40.5763C1308.3 44.6418 1304.98 49.4127 1302.57 54.8888C1300.17 60.3648 1298.97 66.2973 1298.97 72.686C1298.97 79.0748 1300.13 85.0487 1302.45 90.6077C1304.86 96.0838 1308.13 100.896 1312.28 105.045C1316.43 109.11 1321.28 112.305 1326.84 114.628C1332.49 116.951 1338.5 118.113 1344.89 118.113C1353.6 118.113 1361.28 116.287 1367.91 112.636ZM1413.57 115.001L1413.56 114.995L1413.55 114.99C1408.41 112.075 1404.32 108.122 1401.31 103.14C1398.3 98.1402 1396.8 92.5427 1396.8 86.3762C1396.8 80.2099 1398.3 74.6504 1401.32 69.7293C1404.33 64.8307 1408.41 60.9623 1413.56 58.1324C1418.72 55.2078 1424.55 53.7573 1431.03 53.7573C1437.51 53.7573 1443.34 55.1648 1448.5 58.0044C1453.65 60.8366 1457.74 64.75 1460.75 69.733C1463.77 74.6531 1465.27 80.2114 1465.27 86.3762C1465.27 92.5427 1463.77 98.1402 1460.75 103.14C1457.74 108.122 1453.66 112.075 1448.52 114.99L1448.51 114.993L1448.5 114.997C1443.34 117.837 1437.51 119.244 1431.03 119.244C1424.64 119.244 1418.81 117.835 1413.57 115.001ZM1441.97 93.4546L1441.98 93.4472C1443.05 91.3861 1443.59 89.0376 1443.59 86.3762C1443.59 83.7126 1443.04 81.4625 1441.99 79.5861L1441.99 79.5779L1441.98 79.5697C1440.92 77.5957 1439.45 76.0954 1437.57 75.0422L1437.55 75.0289L1437.53 75.0145C1435.74 73.8999 1433.59 73.3196 1431.03 73.3196C1428.56 73.3196 1426.4 73.8963 1424.52 75.0252L1424.51 75.0339L1424.49 75.0422C1422.61 76.0954 1421.14 77.5957 1420.08 79.5697C1419.02 81.5386 1418.47 83.8383 1418.47 86.5007C1418.47 89.07 1419.02 91.3757 1420.09 93.4396C1421.15 95.4112 1422.62 96.9558 1424.51 98.0919C1426.39 99.1428 1428.55 99.6817 1431.03 99.6817C1433.6 99.6817 1435.81 99.1399 1437.68 98.0919C1439.57 96.9585 1440.99 95.4212 1441.97 93.4621L1441.97 93.4546ZM1438.25 99.0708C1436.18 100.232 1433.77 100.813 1431.03 100.813C1428.38 100.813 1426.01 100.232 1423.94 99.0708C1421.86 97.8262 1420.25 96.1253 1419.09 93.968C1417.92 91.7278 1417.34 89.2387 1417.34 86.5007C1417.34 83.6797 1417.92 81.1905 1419.09 79.0333C1420.25 76.876 1421.86 75.2166 1423.94 74.055C1426.01 72.8105 1428.38 72.1882 1431.03 72.1882C1433.77 72.1882 1436.14 72.8105 1438.13 74.055C1440.2 75.2166 1441.82 76.876 1442.98 79.0333C1444.14 81.1076 1444.72 83.5552 1444.72 86.3762C1444.72 89.1972 1444.14 91.7278 1442.98 93.968C1441.9 96.1253 1440.33 97.8262 1438.25 99.0708ZM1474.98 117.875V25.2568L1496.28 25.2568V117.875H1474.98ZM1520.78 114.842L1520.77 114.836C1516.29 111.99 1512.71 108.109 1510.05 103.221L1510.05 103.214L1510.05 103.207C1507.46 98.2946 1506.18 92.7164 1506.18 86.5007C1506.18 80.2849 1507.46 74.7068 1510.05 69.7944L1510.05 69.7876L1510.05 69.7808C1512.71 64.8919 1516.29 61.0116 1520.77 58.165L1520.78 58.1598C1525.37 55.3018 1530.56 53.8818 1536.31 53.8818C1540.53 53.8818 1544.35 54.699 1547.75 56.3582C1549.24 57.0633 1550.61 57.8889 1551.86 58.8353V55.1264H1572.79V117.875H1551.86V114.265C1550.65 115.166 1549.32 115.96 1547.87 116.645C1544.39 118.301 1540.53 119.12 1536.31 119.12C1530.56 119.12 1525.37 117.7 1520.78 114.842ZM1551.86 112.832C1552.25 112.515 1552.63 112.184 1552.99 111.842V116.744H1571.66V56.2578H1552.99V61.2807C1552.63 60.9328 1552.25 60.5981 1551.86 60.2765C1550.49 59.1483 1548.96 58.1821 1547.26 57.3779C1544.03 55.8014 1540.38 55.0132 1536.31 55.0132C1530.75 55.0132 1525.78 56.3822 1521.38 59.1203C1517.06 61.8583 1513.62 65.592 1511.05 70.3213C1508.56 75.0507 1507.31 80.4438 1507.31 86.5007C1507.31 92.5575 1508.56 97.9507 1511.05 102.68C1513.62 107.409 1517.06 111.143 1521.38 113.881C1525.78 116.619 1530.75 117.988 1536.31 117.988C1540.38 117.988 1544.07 117.2 1547.39 115.623C1549.04 114.837 1550.53 113.907 1551.86 112.832ZM1533.2 74.055C1535.28 72.8105 1537.64 72.1882 1540.29 72.1882C1542.95 72.1882 1545.27 72.8105 1547.26 74.055C1549.34 75.2166 1550.92 76.876 1551.99 79.0333C1553.16 81.1905 1553.74 83.6797 1553.74 86.5007C1553.74 90.6492 1552.49 94.0925 1550 96.8305C1547.51 99.4856 1544.24 100.813 1540.17 100.813C1537.6 100.813 1535.28 100.191 1533.2 98.9463C1531.13 97.7017 1529.51 96.0008 1528.35 93.8436C1527.19 91.6863 1526.6 89.2387 1526.6 86.5007C1526.6 83.6797 1527.19 81.1905 1528.35 79.0333C1529.59 76.876 1531.21 75.2166 1533.2 74.055ZM1529.34 79.584C1528.28 81.5497 1527.74 83.8448 1527.74 86.5007C1527.74 89.0738 1528.28 91.3334 1529.34 93.3072C1530.41 95.2877 1531.89 96.8377 1533.78 97.9761C1535.67 99.1084 1537.79 99.6817 1540.17 99.6817C1543.96 99.6817 1546.92 98.4579 1549.17 96.0631C1551.44 93.56 1552.6 90.4011 1552.6 86.5007C1552.6 83.8383 1552.06 81.5386 1551 79.5697L1550.99 79.5546L1550.98 79.5393C1550 77.5817 1548.59 76.0913 1546.71 75.0422L1546.69 75.0289L1546.66 75.0145C1544.88 73.8965 1542.77 73.3196 1540.29 73.3196C1537.82 73.3196 1535.66 73.8963 1533.78 75.0252L1533.78 75.0288L1533.77 75.0323C1531.97 76.0842 1530.49 77.5905 1529.34 79.584ZM1626.37 117.875V82.2692C1626.37 79.3764 1625.47 77.1579 1623.74 75.4942L1623.72 75.4775L1623.7 75.4601C1622.02 73.7113 1619.88 72.8218 1617.17 72.8218C1615.27 72.8218 1613.65 73.2388 1612.27 74.0385L1612.25 74.05L1612.23 74.0606C1610.86 74.7805 1609.77 75.8602 1608.96 77.3383L1608.95 77.3492L1608.94 77.36C1608.14 78.7413 1607.73 80.3659 1607.73 82.2692V117.875L1586.42 117.875V55.1264L1607.73 55.1264V58.6497C1608.58 58.0458 1609.48 57.4956 1610.42 56.9992C1614.34 54.9139 1618.71 53.8818 1623.52 53.8818C1628.19 53.8818 1632.34 55.0059 1635.94 57.2849C1639.58 59.4571 1642.46 62.3747 1644.54 66.0263C1646.63 69.6879 1647.68 73.6991 1647.68 78.0376V117.875H1626.37ZM1635.35 58.2491C1631.94 56.0918 1628 55.0132 1623.52 55.0132C1618.88 55.0132 1614.69 56.0089 1610.95 58.0002C1609.8 58.6032 1608.72 59.289 1607.73 60.0577C1607.34 60.3579 1606.96 60.6709 1606.6 60.9964V56.2578L1587.55 56.2578V116.744H1606.6V82.2692C1606.6 81.8479 1606.61 81.4369 1606.65 81.0362C1606.78 79.6431 1607.14 78.3741 1607.73 77.2292C1607.8 77.0818 1607.88 76.9364 1607.97 76.7931C1608.88 75.1337 1610.12 73.8891 1611.7 73.0594C1613.28 72.1467 1615.1 71.6904 1617.17 71.6904C1620.16 71.6904 1622.61 72.686 1624.52 74.6773C1626.51 76.5856 1627.5 79.1163 1627.5 82.2692V116.744H1646.55V78.0376C1646.55 73.8891 1645.55 70.0724 1643.56 66.5877C1641.57 63.1029 1638.83 60.3233 1635.35 58.2491ZM1414.11 114.006C1419.17 116.744 1424.81 118.113 1431.03 118.113C1437.34 118.113 1442.98 116.744 1447.96 114.006C1452.94 111.185 1456.88 107.368 1459.78 102.556C1462.69 97.7432 1464.14 92.3501 1464.14 86.3762C1464.14 80.4023 1462.69 75.0507 1459.78 70.3213C1456.88 65.509 1452.94 61.7339 1447.96 58.9958C1442.98 56.2578 1437.34 54.8888 1431.03 54.8888C1424.73 54.8888 1419.09 56.2993 1414.11 59.1203C1409.13 61.8583 1405.19 65.592 1402.28 70.3213C1399.38 75.0507 1397.93 80.4023 1397.93 86.3762C1397.93 92.3501 1399.38 97.7432 1402.28 102.556C1405.19 107.368 1409.13 111.185 1414.11 114.006ZM1476.11 116.744H1495.15V26.3883L1476.11 26.3883V116.744Z" fill="#F2B125"/>
</svg>
