<svg width="70" height="70" viewBox="0 0 70 70" fill="none" xmlns="http://www.w3.org/2000/svg">
<path fill-rule="evenodd" clip-rule="evenodd" d="M3.25876 0.159774C2.05341 0.538258 0.847655 1.61763 0.295592 2.81203L0 3.45164V27.9361V52.4206L0.360428 53.1893C1.06145 54.6842 2.24149 55.6075 3.82094 55.8967C4.33703 55.9912 7.18995 56.0454 11.6567 56.0454H18.6807L18.6417 57.4325L18.6027 58.8196L15.0704 60.8377C13.1275 61.9478 11.3808 63.001 11.1886 63.1781C10.5725 63.7459 10.4639 64.2207 10.4662 66.334C10.4683 68.1018 10.4975 68.3386 10.774 68.8245C10.9649 69.1599 11.3066 69.4812 11.6848 69.6807L12.2902 70L40.0101 69.9646L67.7299 69.929L68.3995 69.5151C68.8145 69.2585 69.2265 68.8465 69.4831 68.4315L69.897 67.7619L69.933 48.144C69.9568 35.2461 69.9218 28.3503 69.8308 28.0128C69.6218 27.2366 68.9421 26.394 68.2561 26.0608L67.6477 25.7652L67.6097 14.6083L67.5717 3.45164L67.1936 2.68208C66.7477 1.77438 65.702 0.748085 64.7973 0.330071L64.152 0.0320173L33.991 0.00616497C9.43486 -0.0148999 3.72383 0.0136881 3.25876 0.159774ZM63.767 2.43409C64.3397 2.65008 65.0257 3.37435 65.1785 3.92436C65.2615 4.22324 65.3135 8.48654 65.3139 15.0441L65.3147 25.6792H54.8775H44.4404L43.7257 26.0352C43.3327 26.2311 42.8538 26.5977 42.6615 26.8498C41.9368 27.7999 41.9245 27.9598 41.9245 36.4385V44.2819H22.0907H2.25695V24.2518C2.25695 10.4323 2.30209 4.10232 2.40249 3.83668C2.59467 3.32798 3.18339 2.7104 3.69319 2.48279C4.03187 2.33164 9.28413 2.29868 33.7427 2.2943C54.3235 2.29061 63.4996 2.33328 63.767 2.43409ZM45.4809 4.6987C44.6803 4.85122 44.3983 5.05352 44.1765 5.63417C44.0214 6.04029 43.8224 6.27843 43.516 6.42451C43.1114 6.61752 43.0373 6.61314 42.5589 6.36775C41.7529 5.95425 41.3573 6.11948 40.0682 7.40868C38.7808 8.69596 38.6162 9.08922 39.024 9.90363C39.3974 10.6495 39.163 11.185 38.3224 11.5061C37.4939 11.8224 37.3415 12.2235 37.3448 14.0799C37.3477 15.7493 37.5377 16.1862 38.381 16.4616C38.6949 16.5641 38.9194 16.7631 39.069 17.0717C39.2783 17.5028 39.2755 17.5596 39.0232 18.044C38.6521 18.7558 38.7844 19.1958 39.6607 20.1643C40.9948 21.6384 41.8854 22.0384 42.6779 21.5191C43.1664 21.199 43.8981 21.5395 44.1114 22.1859C44.1984 22.4498 44.4158 22.7805 44.5943 22.921C45.2452 23.433 48.1875 23.3966 48.7702 22.8693C48.9086 22.744 49.0619 22.4588 49.1111 22.2355C49.2112 21.7796 49.9375 21.2481 50.2684 21.3886C51.0827 21.7344 51.4471 21.8103 51.7469 21.6964C52.2581 21.502 53.2035 20.6711 53.8141 19.8796C54.4309 19.0801 54.5194 18.5643 54.159 17.8674C53.9629 17.4883 53.9657 17.4219 54.1938 17.0312C54.3339 16.7914 54.6328 16.5422 54.8812 16.4582C55.1229 16.3763 55.4196 16.2102 55.5406 16.0889C56.0209 15.6077 56.0529 12.4744 55.5834 11.9086C55.4834 11.7883 55.1494 11.5816 54.8411 11.4494C54.1211 11.1407 53.8215 10.5371 54.1535 10.0631C54.5457 9.50326 54.4336 8.82044 53.823 8.04801C53.1997 7.25945 52.0367 6.29279 51.5704 6.17584C51.3873 6.12974 51.0383 6.20908 50.7287 6.36706C50.2286 6.62217 50.1744 6.62463 49.7318 6.41207C49.4121 6.25859 49.2139 6.03796 49.1067 5.71611C48.8506 4.94806 48.443 4.74411 47.0459 4.68516C46.3733 4.65671 45.669 4.66286 45.4809 4.6987ZM47.1898 7.39514C47.4346 7.98112 47.676 8.17385 48.6132 8.53155C49.0346 8.69227 49.5769 8.90497 49.8184 9.004C50.199 9.16007 50.3243 9.15214 50.7601 8.94436C51.252 8.70978 51.2694 8.71101 51.5803 9.00318C51.876 9.28099 51.8842 9.32804 51.6987 9.68683C51.4146 10.2362 51.4506 10.6823 51.8414 11.4535C52.0295 11.8246 52.1834 12.218 52.1834 12.3276C52.1834 12.6328 52.8265 13.3286 53.1938 13.4208C53.8833 13.5938 53.7948 14.3612 53.0573 14.6047C52.7029 14.7216 52.5208 14.8946 52.3649 15.2627C52.2483 15.5375 52.0061 16.0867 51.8264 16.4834C51.4568 17.2988 51.4291 17.6001 51.6641 18.2502C51.805 18.6397 51.7953 18.7395 51.5971 18.9376C51.3991 19.1358 51.2992 19.1455 50.9098 19.0046C50.2557 18.7681 49.9322 18.7982 49.2038 19.1631C48.849 19.341 48.3213 19.5634 48.0311 19.6573C47.6052 19.7954 47.4525 19.9438 47.2382 20.4284C46.8763 21.2468 46.4502 21.2576 46.0041 20.4596C45.6505 19.8271 45.6377 19.8179 44.3866 19.3095C43.1913 18.8236 42.8547 18.7763 42.3713 19.0264C41.9811 19.228 41.9463 19.2226 41.6585 18.9164C41.3666 18.6056 41.364 18.5787 41.5845 18.1524C41.8501 17.6387 41.8236 17.4786 41.2468 16.1074C40.7437 14.9115 40.5336 14.6462 39.9953 14.5281C39.6584 14.4541 39.5999 14.3762 39.6041 14.0074C39.6083 13.6344 39.6896 13.5354 40.1841 13.3001C40.7006 13.0545 40.806 12.9151 41.2191 11.9323C41.826 10.488 41.8557 10.3186 41.5935 9.79297C41.3777 9.36019 41.3809 9.33598 41.7022 9.01467C42.0164 8.70061 42.0506 8.69487 42.3516 8.90565C42.7865 9.21027 43.1875 9.18524 43.9466 8.8058C44.3014 8.62853 44.7765 8.43908 45.0022 8.38478C45.544 8.25456 45.8475 7.96526 46.0335 7.40184C46.1613 7.0146 46.252 6.93965 46.5928 6.93965C46.9244 6.93965 47.0347 7.02377 47.1898 7.39514ZM19.5602 9.3922C18.4659 9.57809 18.0891 9.9656 17.4985 11.5129C17.1421 12.4459 17.0562 12.5626 16.6219 12.7025C16.3573 12.7879 15.7517 13.0322 15.2765 13.2454L14.4126 13.6332L13.2668 13.159C11.4113 12.3908 10.9421 12.512 9.32147 14.1772C7.80343 15.7372 7.7018 16.1997 8.47888 18.0151L8.95584 19.1295L8.6277 19.7772C8.44728 20.1334 8.19901 20.7321 8.07618 21.1077C7.85486 21.7842 7.84283 21.7945 6.80504 22.1907C4.95899 22.8956 4.57901 23.4855 4.58557 25.6372C4.59227 27.8182 4.86639 28.2796 6.57442 28.9841C7.29911 29.2832 7.82874 29.5864 7.88783 29.7365C7.94213 29.8748 8.19669 30.4859 8.45316 31.0947L8.91973 32.2015L8.46561 33.2833C7.94911 34.5135 7.88851 35.2717 8.25838 35.8781C8.61032 36.4553 10.2931 38.1017 10.8002 38.365C11.4256 38.6897 12.1976 38.6183 13.3209 38.1316C13.8765 37.891 14.4305 37.7258 14.552 37.7645C14.6734 37.8033 15.292 38.0508 15.9267 38.3142L17.0806 38.7935L17.4737 39.7841C18.2582 41.7609 18.6859 42.0058 21.2294 41.9342C23.3456 41.8746 23.6129 41.704 24.3069 39.9699L24.778 38.7924L25.9307 38.3116C27.5205 37.6484 27.5216 37.6482 28.5199 38.0948C30.2729 38.8789 30.7377 38.8125 32.0961 37.5843C33.9597 35.8996 34.194 35.1146 33.3922 33.2414L32.9302 32.1619L33.1811 31.6904C33.3191 31.4311 33.5601 30.842 33.7169 30.3813L34.0018 29.5436L35.211 29.0424C35.876 28.7668 36.5176 28.4336 36.6366 28.302C37.0973 27.793 37.2738 27.0765 37.2738 25.7169C37.2738 23.4572 36.9799 22.9681 35.1883 22.2459C34.2246 21.8575 34.0721 21.7474 33.8968 21.3144C33.7875 21.0443 33.5261 20.4496 33.316 19.9929L32.9341 19.1625L33.3893 18.0779C34.2001 16.1465 34.043 15.5936 32.1775 13.815C30.7998 12.5013 30.3402 12.4173 28.6165 13.1643L27.5095 13.644L26.339 13.1573C25.6951 12.8896 25.0772 12.6215 24.9658 12.5618C24.8543 12.5019 24.5731 11.9788 24.3408 11.3992C23.7798 9.99938 23.3416 9.5722 22.2908 9.40013C21.3908 9.25281 20.3979 9.2498 19.5602 9.3922ZM45.1079 10.8395C43.8517 11.4752 43.1637 12.5875 43.1586 13.9914C43.1472 17.1123 46.9836 18.6327 49.1246 16.3556C49.8418 15.5928 50.0561 15.047 50.0556 13.9841C50.0546 11.9994 48.7411 10.6416 46.712 10.5278C45.9613 10.4855 45.7117 10.5341 45.1079 10.8395ZM21.6596 11.7078C21.9069 11.7773 22.0881 12.0644 22.4487 12.9583C22.7063 13.5965 23.0233 14.2197 23.1536 14.3433C23.2836 14.4668 23.8211 14.7068 24.3477 14.8766C24.8743 15.0463 25.7191 15.392 26.2251 15.6448C26.731 15.8974 27.2665 16.1042 27.4151 16.1042C27.5636 16.1042 28.2362 15.8653 28.9096 15.5732L30.1338 15.0422L30.8322 15.7494L31.5307 16.4566L30.9562 17.8475L30.3817 19.2385L31.0162 20.578C31.3651 21.3148 31.7141 22.1638 31.7915 22.4647C32.0197 23.3504 32.2655 23.5691 33.6477 24.1163L34.9485 24.6311V25.641C34.9485 26.6193 34.9367 26.655 34.5723 26.7837C34.3655 26.8569 33.7359 27.1157 33.1734 27.359L32.1507 27.8015L31.6536 29.1683C31.3803 29.92 30.9942 30.8366 30.7956 31.2051C30.5971 31.5736 30.4368 31.9737 30.4395 32.0942C30.4423 32.2147 30.683 32.8655 30.9744 33.5406C31.5026 34.7648 31.5033 34.7689 31.2478 35.1278C31.1069 35.3258 30.7808 35.6484 30.5232 35.8449L30.055 36.202L28.7029 35.6436L27.3509 35.0853L26.0545 35.7088C25.3414 36.0517 24.481 36.4016 24.1425 36.4861C23.804 36.5708 23.414 36.7236 23.2758 36.8256C23.1378 36.9276 22.7882 37.5853 22.4989 38.287L21.9731 39.5628L20.9628 39.6023L19.9525 39.6417L19.4334 38.3302C18.8697 36.906 18.7532 36.7859 17.5768 36.4169C17.1631 36.2871 16.3068 35.9327 15.674 35.6293L14.5237 35.0778L13.1487 35.6456L11.7739 36.2134L11.0656 35.514L10.3575 34.8146L10.8896 33.5413C11.1822 32.8409 11.4215 32.169 11.4215 32.0481C11.4215 31.9273 11.1804 31.3487 10.8856 30.7623C10.5907 30.1761 10.2506 29.3561 10.1297 28.9402C10.0088 28.5243 9.83455 28.0811 9.74236 27.9554C9.6503 27.8295 8.99018 27.4855 8.27548 27.1908L6.97602 26.6548V25.6556V24.6564L8.18301 24.1621C8.84683 23.8903 9.50148 23.5511 9.63758 23.4083C9.77382 23.2654 10.0239 22.7178 10.1932 22.1911C10.3625 21.6645 10.7082 20.8296 10.9614 20.3357C11.2144 19.8417 11.4193 19.3185 11.4166 19.173C11.4139 19.0274 11.1713 18.3543 10.8778 17.6772L10.3441 16.4462L11.0342 15.7432L11.7242 15.0402L12.9976 15.5723C13.6979 15.8648 14.3904 16.1042 14.5365 16.1042C14.6827 16.1042 15.2136 15.8897 15.7166 15.6277C16.2194 15.3656 17.0534 15.0228 17.57 14.8659C18.0865 14.709 18.6081 14.4713 18.7291 14.3375C18.85 14.2039 19.1575 13.5778 19.4122 12.9463C19.9011 11.7344 20.0344 11.6175 20.9281 11.6175C21.1538 11.6175 21.4829 11.6582 21.6596 11.7078ZM47.4521 13.2423C47.9162 13.7938 47.9023 14.2511 47.4064 14.7469C46.9797 15.1737 46.6034 15.2441 46.1216 14.9876C45.0406 14.4118 45.4103 12.8214 46.6253 12.8214C46.9853 12.8214 47.1825 12.9218 47.4521 13.2423ZM19.8248 16.4024C17.103 16.6838 14.3576 18.4547 12.9558 20.8333C11.2202 23.7787 11.1704 27.1096 12.8155 30.2307C13.4801 31.4918 15.182 33.138 16.551 33.8441C18.227 34.7086 19.0253 34.9025 20.9281 34.9077C22.3773 34.9116 22.7113 34.8656 23.7807 34.5152C28.6758 32.9108 31.3634 27.7212 29.8236 22.8469C28.4612 18.5343 24.4169 15.9276 19.8248 16.4024ZM22.6226 18.8483C26.0575 19.6401 28.4326 23.234 27.8408 26.7437C27.1697 30.7217 23.2493 33.3595 19.3678 32.4445C14.9742 31.4089 12.7048 26.6298 14.6937 22.6015C15.9027 20.1528 18.188 18.7104 20.8597 18.71C21.4991 18.71 22.2925 18.7721 22.6226 18.8483ZM67.3665 28.2781C67.6053 28.5169 67.6401 28.734 67.6401 29.9879V31.4241H55.945H44.2499V30.1156C44.2499 28.8747 44.3746 28.3363 44.7149 28.1091C44.7977 28.0539 49.8667 28.0078 55.9792 28.0065C66.9119 28.0045 67.0974 28.009 67.3665 28.2781ZM67.6065 47.8041L67.6413 61.7903H55.9456H44.2499V47.8611C44.2499 40.1999 44.2913 33.8905 44.3418 33.8399C44.3924 33.7893 49.6399 33.7637 56.0027 33.7828L67.5717 33.8178L67.6065 47.8041ZM54.149 38.7339C53.8405 38.8682 53.6564 39.0891 53.4899 39.5252C53.1937 40.3009 52.5727 40.5895 51.9227 40.2534C51.2249 39.8926 50.7995 39.9829 50.0058 40.6604C49.0897 41.4424 48.2607 42.4405 48.1809 42.8571C48.1471 43.0339 48.2306 43.4266 48.3664 43.7298C48.5863 44.2211 48.5924 44.3314 48.4207 44.742C48.2835 45.0706 48.1161 45.2253 47.8377 45.2809C47.1039 45.4277 46.8489 45.7713 46.7012 46.8124C46.5595 47.8109 46.6317 49.0138 46.8709 49.6411C46.9977 49.9732 47.6931 50.4372 48.0645 50.4372C48.1462 50.4372 48.3069 50.6622 48.4218 50.9371C48.6032 51.3713 48.6051 51.4761 48.4363 51.7336C48.2381 52.0361 48.1728 52.3414 48.2009 52.8332C48.2366 53.4599 50.538 55.635 51.1651 55.635C51.3439 55.635 51.7033 55.5334 51.9637 55.4092C52.6479 55.0829 53.1744 55.3252 53.4713 56.1029C53.7937 56.9468 54.1194 57.0712 56.0064 57.0712C57.8779 57.0712 58.2395 56.9216 58.4742 56.05C58.5998 55.5838 58.6956 55.4843 59.1497 55.3482C59.5938 55.2151 59.7298 55.2255 59.9967 55.4123C60.7093 55.9114 61.4652 55.5471 62.8691 54.0276C63.7938 53.0268 63.9069 52.679 63.5617 51.8985C63.3298 51.3743 63.3245 51.2784 63.5063 50.8946C63.6495 50.5922 63.8597 50.4246 64.2379 50.3113C64.5298 50.2238 64.8557 50.0163 64.9621 49.8502C65.2221 49.4437 65.3668 47.9195 65.2451 46.8698C65.1335 45.908 64.7837 45.4273 64.0957 45.2897C63.7916 45.2288 63.6411 45.0853 63.494 44.7163C63.3148 44.2671 63.3212 44.1785 63.5682 43.7045C63.7309 43.3925 63.8071 43.0574 63.7589 42.8656C63.6375 42.3819 62.677 41.2446 61.8524 40.6085C61.0525 39.9913 60.6283 39.9115 59.9672 40.2534C59.3305 40.5827 58.7166 40.3068 58.4647 39.578C58.1778 38.7481 57.6617 38.5361 55.945 38.5425C55.1025 38.5457 54.4127 38.6191 54.149 38.7339ZM56.5866 41.3826C56.7696 41.8483 56.9042 41.9502 57.8725 42.3555C59.1866 42.9054 59.7202 42.9981 60.2665 42.7719C60.6367 42.6186 60.7146 42.6303 60.96 42.8757C61.2207 43.1364 61.2242 43.1761 61.0187 43.5735C60.7239 44.1434 60.7438 44.4505 61.124 45.2097C61.3019 45.5645 61.5243 46.0922 61.6182 46.3823C61.7563 46.8083 61.9047 46.9609 62.3893 47.1753C62.8923 47.3977 62.9894 47.5027 62.9894 47.8239C62.9894 48.1437 62.8992 48.2426 62.4448 48.4211C62.0847 48.5625 61.846 48.7665 61.7404 49.0231C61.6526 49.2366 61.4053 49.8029 61.1908 50.2815C60.7472 51.2714 60.7201 51.5257 61.0001 52.0671C61.185 52.4249 61.1772 52.4732 60.8895 52.7435C60.5922 53.0227 60.5569 53.0257 60.0267 52.8175C59.5038 52.6121 59.4399 52.6158 58.8497 52.8845C58.5065 53.0409 57.9279 53.2775 57.5641 53.4102C57.0132 53.6111 56.8572 53.749 56.6324 54.233C56.3972 54.7393 56.3061 54.8143 55.9251 54.8143C55.551 54.8143 55.475 54.7553 55.3982 54.4056C55.3136 54.0204 54.7635 53.4464 54.479 53.4464C54.4078 53.4464 53.9151 53.2558 53.3842 53.0228C52.4385 52.6077 52.4077 52.6036 51.8647 52.817C51.3327 53.0258 51.2978 53.023 51.0005 52.7435C50.7069 52.4678 50.7017 52.4308 50.9027 52.0422C51.1527 51.5588 51.1054 51.2222 50.6195 50.0268C50.0999 48.748 50.1037 48.7534 49.4745 48.4574C49.0014 48.2347 48.9005 48.1201 48.9005 47.8042C48.9005 47.5099 48.9877 47.3903 49.2767 47.2879C49.9586 47.0462 50.059 46.9296 50.5236 45.8401C51.1052 44.476 51.1669 44.1242 50.9135 43.616C50.721 43.2303 50.7277 43.1892 51.0306 42.9047C51.3182 42.6346 51.3955 42.6209 51.7658 42.7742C52.2557 42.9772 52.6727 42.9183 53.688 42.5024C54.1018 42.333 54.5838 42.1398 54.7592 42.0733C54.9425 42.0037 55.175 41.7213 55.3063 41.4087C55.5023 40.9417 55.5944 40.8649 55.9584 40.8636C56.3228 40.8624 56.4108 40.9353 56.5866 41.3826ZM54.9148 44.492C52.5738 45.2137 51.7228 48.1657 53.3032 50.083C54.8057 51.9057 57.9576 51.5462 59.0468 49.428C59.738 48.0838 59.493 46.5328 58.4151 45.4276C57.4012 44.3877 56.2505 44.0803 54.9148 44.492ZM41.9245 50.1636V53.72L23.2876 53.7167C12.5928 53.7148 4.42198 53.6605 4.11407 53.5891C3.37598 53.4179 2.92719 53.0588 2.56471 52.3494C2.27788 51.7879 2.25695 51.5726 2.25695 49.1771V46.6072H22.0907H41.9245V50.1636ZM56.7999 47.0987C57.4441 47.8197 56.9476 48.9326 55.9816 48.9326C55.362 48.9326 54.9475 48.608 54.8408 48.0389C54.6181 46.8518 55.9906 46.193 56.7999 47.0987ZM31.0306 49.064C30.2847 49.3756 30.0739 50.3624 30.6336 50.9221C30.9683 51.2569 30.9778 51.2579 33.7858 51.2579C36.5939 51.2579 36.6033 51.2569 36.938 50.9221C37.3727 50.4875 37.3751 49.8864 36.944 49.3848L36.6141 49.0009L33.969 48.9713C32.514 48.955 31.1918 48.9967 31.0306 49.064ZM41.9245 57.208V58.3707H31.4605H20.9965V57.208V56.0454H31.4605H41.9245V57.208ZM41.9245 61.8587V63.0214L28.9642 63.0189L16.0038 63.0165L17.0981 62.3844C17.6999 62.0368 18.5925 61.5172 19.0815 61.2296L19.9706 60.707L30.9475 60.7015L41.9245 60.696V61.8587ZM67.6401 65.5773C67.6401 66.8896 67.6097 67.0712 67.3427 67.3555L67.0452 67.6721H55.9833H44.9213L44.5857 67.3363C44.2745 67.0252 44.2499 66.9016 44.2499 65.6493C44.2499 64.9061 44.2909 64.257 44.3411 64.2069C44.3912 64.1567 49.6539 64.1157 56.0362 64.1157H67.6401V65.5773ZM41.9264 66.2016C41.9274 66.6719 41.9654 67.195 42.0107 67.3643L42.0932 67.6721H27.4413H12.7894V66.5094V65.3467H27.3569H41.9245L41.9264 66.2016Z" fill="#E49B00"/>
</svg>
