<svg width="82" height="70" viewBox="0 0 82 70" fill="none" xmlns="http://www.w3.org/2000/svg">
<path fill-rule="evenodd" clip-rule="evenodd" d="M74.5475 1.42183C71.6489 2.38606 69.9108 3.04606 69.6673 3.27463C69.4595 3.47005 69.2106 3.8926 69.1144 4.2138C68.8458 5.10998 69.1559 5.83217 70.1425 6.6086C70.5922 6.96263 70.9803 7.30477 71.0049 7.36901C71.0517 7.49146 69.3775 9.73271 68.0253 11.3574C67.4275 12.0758 67.2327 12.4382 67.2327 12.8322C67.2327 13.4862 67.6968 13.9324 68.3771 13.9324C68.7882 13.9324 69.0277 13.7717 69.657 13.0733C70.7121 11.9023 73.7112 7.94653 73.8706 7.51588C74.1149 6.85556 73.8844 6.44237 72.8472 5.68085C72.2918 5.27304 71.8603 4.91631 71.8886 4.88824C71.9168 4.86001 73.4839 4.30612 75.3713 3.65737L78.8027 2.47774L78.7059 6.07707C78.6526 8.05661 78.5822 9.70702 78.5494 9.74477C78.5165 9.78236 78.1674 9.58615 77.7737 9.30857C77.0238 8.78006 76.3454 8.66728 75.9298 9.00212C75.7943 9.11125 75.1263 9.94986 74.445 10.8659C67.4954 20.2106 58.1841 28.3588 47.8021 34.1806C40.0042 38.5534 30.6043 41.9094 21.6304 43.5243C16.2988 44.4836 12.4166 44.8379 6.90596 44.8678L2.96735 44.8892L2.66296 44.5147C2.2688 44.0301 2.27689 43.5287 2.68723 43.0072C3.01556 42.5896 3.01794 42.5892 5.34406 42.5891C22.4534 42.5884 38.1355 37.9676 51.9262 28.8635C56.4781 25.8583 60.1898 22.8735 64.1793 19.0097C65.8191 17.4217 66.1224 17.0532 66.1224 16.6494C66.1224 15.7102 65.2565 15.0892 64.4932 15.481C64.2988 15.5809 63.2117 16.5688 62.0776 17.6766C59.9582 19.7465 57.7263 21.7032 55.6771 23.2879L54.511 24.1897H49.4451C43.6811 24.1897 43.528 24.2192 42.6869 25.4895C42.2585 26.1367 42.2496 26.1997 42.1955 28.9731L42.1405 31.7976L40.6277 32.5142C39.7958 32.9084 39.0888 33.2308 39.0569 33.2308C39.0251 33.2308 38.9989 32.729 38.9989 32.1154C38.9989 30.7999 38.7516 30.1205 38.0616 29.5398C37.1973 28.8126 36.7576 28.7669 31.1355 28.8195L25.8892 28.8689L25.2517 29.291C24.1076 30.0485 24.0166 30.4227 23.9596 34.5984L23.9095 38.266L22.3338 38.5802L20.758 38.8944V36.8506C20.758 35.4681 20.6874 34.6417 20.5395 34.2964C20.2755 33.6791 19.5709 32.9947 18.9632 32.7651C18.6804 32.6582 16.5846 32.5964 13.247 32.5964C8.09479 32.5964 7.96171 32.6043 7.27871 32.9533C5.91603 33.6496 5.69857 34.3131 5.69317 37.7911L5.68937 40.21H4.2136C2.95244 40.21 2.62077 40.2683 1.93158 40.6118C0.251191 41.4491 -0.460047 43.4293 0.309721 45.1271C1.01985 46.6933 1.94363 47.2212 4.14285 47.3171L5.68937 47.3847V53.4615V59.5384L4.77732 59.6409C3.49665 59.7849 2.0204 60.5291 1.31963 61.3844C0.329548 62.5927 0.13778 63.3538 0.13778 66.074C0.13778 68.6838 0.245481 69.1098 1.04174 69.6496C1.4746 69.943 2.47341 69.9517 40.1657 69.9919C65.4305 70.0188 79.0485 69.9784 79.4309 69.8754C79.7529 69.7887 80.2272 69.4978 80.4848 69.2288L80.953 68.7397V66.0935C80.953 63.6456 80.9246 63.3847 80.5752 62.6114C79.8464 60.9986 78.2703 59.9165 76.2342 59.6309L75.4808 59.5252V40.2817C75.4808 27.0974 75.4278 20.8974 75.3125 20.5915C75.062 19.9273 74.2221 19.1319 73.5843 18.9547C73.2752 18.8687 72.5711 18.7981 72.0197 18.7977L71.0171 18.7967L72.4306 17.1709C73.6958 15.7154 75.634 13.3027 76.5213 12.0783L76.8479 11.6277L77.6229 12.1191C78.5184 12.6871 79.1554 12.7383 79.8738 12.3004C80.8905 11.6805 80.9037 11.6174 81.0642 6.61684C81.1446 4.11213 81.1681 1.83613 81.1166 1.55919C81.0193 1.03924 80.0954 0.0799291 79.6916 0.0799291C79.5708 0.0799291 79.377 0.0448746 79.2609 0.00204811C79.1446 -0.040937 77.0236 0.597972 74.5475 1.42183ZM73.0625 40.4082L73.1028 59.5612H67.9471H62.7914V43.158V26.7548L64.9724 24.7731C66.172 23.6831 67.5095 22.426 67.9447 21.9794L68.7359 21.1676L70.8791 21.2113L73.0222 21.2553L73.0625 40.4082ZM49.7055 27.4973C47.8821 28.6749 44.9347 30.3757 44.7175 30.3757C44.5373 30.3757 44.4755 27.2662 44.6468 26.8199C44.7302 26.6024 45.1689 26.5694 47.9381 26.5723L51.1331 26.5754L49.7055 27.4973ZM60.4122 44.0961V59.5612H58.826H57.2398V54.7732C57.2398 50.0758 57.2333 49.9784 56.895 49.6182C56.4074 49.0993 55.6191 49.1228 55.1894 49.6691C54.8734 50.0707 54.8606 50.2718 54.8606 54.8241V59.5612H49.7044H44.5483L44.589 49.0529L44.6298 38.5445L45.5022 38.0913C48.1086 36.7377 50.7294 35.2626 52.5573 34.1205C53.6895 33.4131 54.671 32.8105 54.7383 32.7815C54.8055 32.7523 54.8606 35.6531 54.8606 39.2275C54.8606 46.4489 54.8365 46.2833 55.9208 46.4926C56.3281 46.5713 56.5045 46.5113 56.8328 46.183L57.2398 45.776V38.4194V31.0627L58.7863 29.8574C59.637 29.1945 60.3508 28.6474 60.3725 28.6416C60.3942 28.6357 60.4122 35.5903 60.4122 44.0961ZM36.5855 32.7767L36.6307 34.3051L34.6028 35.0521C31.0416 36.3635 26.5737 37.7248 26.4 37.5511C26.3502 37.5013 26.3096 36.1307 26.3096 34.505C26.3096 32.3989 26.3649 31.4941 26.5021 31.3569C26.6466 31.2124 27.9213 31.1748 31.6175 31.2063L36.5403 31.2481L36.5855 32.7767ZM18.3435 37.1384C18.387 39.1913 18.3824 39.2229 18.0263 39.3106C16.7841 39.6163 8.54193 40.2715 8.18758 40.0926C8.04578 40.0211 8.02579 35.5888 8.16569 35.2243C8.2523 34.9988 8.80841 34.9758 13.2811 35.0131L18.2994 35.0549L18.3435 37.1384ZM42.1712 49.6477V59.5612H40.5838H38.9964L39.0373 50.2712L39.0782 40.9812L40.5058 40.3707C41.2909 40.0349 41.9868 39.7543 42.0523 39.7471C42.1178 39.74 42.1712 44.1952 42.1712 49.6477ZM36.6196 50.758V59.5612H31.4646H26.3096V52.2844V45.0077L27.9563 44.5949C29.9385 44.0983 34.4862 42.7214 35.5886 42.2842C36.0248 42.1112 36.4353 41.9663 36.5007 41.9622C36.566 41.9581 36.6196 45.9162 36.6196 50.758ZM23.9303 52.5821V59.5612H22.3441H20.758V57.3335C20.758 55.1794 20.7451 55.0927 20.3686 54.7163C20.1544 54.5021 19.7944 54.3269 19.5683 54.3269C19.3423 54.3269 18.9822 54.5021 18.7681 54.7163C18.3916 55.0927 18.3787 55.1794 18.3787 57.3335V59.5612H13.2237H8.06862V53.4642V47.3672L8.74274 47.2854C9.11343 47.2403 10.3943 47.1629 11.5888 47.1135C12.7833 47.064 14.6392 46.9193 15.7128 46.7921C18.7166 46.4363 18.3787 46.1943 18.3787 48.7031C18.3787 50.7729 18.393 50.866 18.7681 51.241C19.2643 51.7373 19.8724 51.7373 20.3686 51.241C20.7472 50.8624 20.758 50.7865 20.758 48.4817V46.1118L21.9872 45.8772C22.6633 45.7482 23.377 45.6337 23.5734 45.6228L23.9303 45.6029V52.5821ZM76.6258 62.1061C77.3819 62.3161 78.1609 62.9729 78.4367 63.6331C78.5751 63.9643 78.6531 64.7818 78.6531 65.9008V67.6507H40.5851H2.51703V65.8009C2.51703 64.1207 2.55288 63.8899 2.90818 63.2836C3.27252 62.6619 3.86575 62.2452 4.65836 62.0539C5.33676 61.8902 76.0331 61.9414 76.6258 62.1061Z" fill="#E49B00"/>
</svg>
