<svg width="158" height="59" viewBox="0 0 158 59" fill="none" xmlns="http://www.w3.org/2000/svg">
<path fill-rule="evenodd" clip-rule="evenodd" d="M72.1194 0.194461C64.162 1.2499 57.6806 4.41898 52.1167 9.97464C49.0094 13.0772 46.8646 16.0267 45.0819 19.6488C43.0202 23.8377 41.9978 28.1387 41.9978 32.6232C41.9978 37.1156 42.9264 41.1966 44.7763 44.8331C45.8523 46.948 46.9532 48.5205 48.5735 50.2565C52.0097 53.9383 56.7677 56.7244 61.5965 57.8822C66.3709 59.0271 71.851 58.8614 77.1276 57.413C81.727 56.1504 85.6421 54.0162 89.5068 50.665C92.31 48.2339 95.489 44.2575 97.0916 41.1769C97.4048 40.575 97.6819 40.1035 97.7076 40.1291C97.7332 40.1548 97.9403 40.7363 98.1676 41.4216C100.548 48.5945 106.768 54.6082 114.49 57.2016C118.705 58.6172 122.565 59.0203 127.166 58.5258C130.006 58.2205 130.763 58.0785 133.283 57.3785C142.538 54.8086 150.717 48.1517 154.844 39.8295C157.118 35.244 158.043 30.4318 157.731 24.8169C157.324 17.5046 154.584 11.7317 149.396 7.25515C142.029 0.897912 132.893 -0.867818 121.779 1.91718C116.905 3.13862 112.779 5.13098 109.224 7.97938C104.749 11.5649 100.506 17.3878 98.5632 22.6083L98.0493 23.9895L85.3146 24.0552C75.3939 24.1065 72.5155 24.1577 72.2892 24.2871C72.1294 24.3785 71.8483 24.6504 71.6646 24.8911C71.067 25.6747 67.6654 32.9619 67.3542 34.1254C67.1606 34.8491 67.3056 35.3232 67.8151 35.6339C68.2238 35.8831 68.5166 35.8925 75.9668 35.8929C80.2171 35.8931 83.6945 35.9444 83.6945 36.0069C83.6945 36.2758 81.3012 39.3157 80.5289 40.028C77.6199 42.7104 74.3393 44.0486 70.6725 44.0486C64.7418 44.0486 60.0973 40.5215 58.5478 34.8411C58.2825 33.8684 58.2432 33.4238 58.2451 31.4212C58.2471 29.5061 58.2987 28.8873 58.552 27.7382C59.5204 23.3472 61.9859 19.8239 65.8714 17.2787C68.9111 15.2876 71.5344 14.4913 74.6185 14.6234C76.6296 14.7095 78.0252 15.0798 80.0115 16.0541C81.2774 16.675 81.5232 16.8614 82.9581 18.2889C84.1252 19.4498 84.608 19.8461 84.8546 19.8461C85.0365 19.8461 87.6763 19.1918 90.7207 18.3921C93.7652 17.5924 96.848 16.7854 97.5714 16.5988C99.1893 16.1814 99.6102 15.9794 99.6102 15.62C99.6102 15.1702 97.6967 11.5852 96.7465 10.2545C92.8987 4.86712 86.6623 1.11495 80.0145 0.187753C78.1988 -0.0654523 74.0529 -0.0619009 72.1194 0.194461ZM132.336 14.9101C138.053 16.1267 141.987 20.7966 142.424 26.8832C142.589 29.1783 141.935 32.1589 140.722 34.6438C139.102 37.9638 136.303 40.6926 132.632 42.5313C130.221 43.7391 128.236 44.226 125.786 44.2109C122.141 44.1886 118.924 42.8703 116.433 40.3795C113.93 37.8771 112.733 34.9517 112.741 31.3554C112.749 27.2723 114.712 22.629 117.69 19.651C120.323 17.0178 124.488 15.095 128.482 14.6682C129.327 14.5778 131.38 14.7068 132.336 14.9101ZM13.563 15.1437C13.181 15.4501 11.7373 17.3906 11.785 17.5337C11.8342 17.6817 39.3907 17.8216 39.9898 17.677C40.2705 17.6092 41.8662 15.4311 41.8662 15.1158C41.8662 14.9 13.8325 14.9276 13.563 15.1437ZM2.27411 22.068C2.07286 22.1238 1.56777 22.6419 0.972704 23.4031L0 24.6471L18.3906 24.6804C33.7772 24.7084 36.8261 24.6844 37.056 24.5338C37.2203 24.426 37.4494 23.9855 37.6255 23.4387C37.9753 22.3529 37.9886 22.1365 37.7121 22.0305C37.4221 21.9192 2.67858 21.9559 2.27411 22.068ZM20.2121 29.2068C19.9423 29.3376 18.716 31.3504 18.716 31.6627C18.716 31.7762 19.8818 31.8158 23.2211 31.8161C25.699 31.8162 29.5328 31.855 31.7409 31.9024C35.3129 31.979 35.7788 31.9654 35.9652 31.779C36.2443 31.4999 36.4308 29.5167 36.2038 29.2431C36.0699 29.0819 34.8891 29.0549 28.2692 29.0625C23.2218 29.0683 20.3936 29.1189 20.2121 29.2068Z" fill="#00ACD7"/>
</svg>
