<svg width="83" height="70" viewBox="0 0 83 70" fill="none" xmlns="http://www.w3.org/2000/svg">
<path fill-rule="evenodd" clip-rule="evenodd" d="M4.09453 0.322249C2.83213 0.731701 1.80015 1.51191 1.07405 2.60603C0.024246 4.18748 0 4.42818 0 13.2507C0 20.9925 0.00642278 21.1517 0.332861 21.5666C0.767844 22.1196 1.56588 22.1433 2.05947 21.6181C2.39281 21.2631 2.40854 21.1077 2.40854 18.1659V15.0852H33.1576H63.9067V17.4937V19.9023L43.5545 19.9032C29.3377 19.9037 23.0087 19.957 22.56 20.0795C21.6462 20.3291 20.8848 20.9611 20.5292 21.7652C20.2395 22.42 20.2249 22.8678 20.2673 29.8231L20.3121 37.1874L20.699 37.752C20.9118 38.0624 21.34 38.4906 21.6506 38.7034L22.2153 39.0903L43.0611 39.1322L63.9067 39.1742V41.3401V43.506L43.6348 43.5099C30.2834 43.5126 23.1174 43.5704 22.6435 43.6796C21.6827 43.901 20.9028 44.524 20.5292 45.3689C20.2395 46.0237 20.2249 46.4716 20.2673 53.4266L20.3121 60.791L20.743 61.4421C21.0025 61.8342 21.4539 62.2287 21.8776 62.4338L22.5811 62.7744H43.261H63.9408L63.883 64.0459C63.833 65.1458 63.7601 65.4114 63.3431 66.0129C63.0276 66.4681 62.5602 66.8609 61.9902 67.1499L61.1194 67.5915H39.9457H18.772L18.378 67.9856C17.8756 68.4879 17.8756 69.1035 18.378 69.6058L18.772 70L39.9345 69.9981C57.5694 69.9965 61.2376 69.9587 61.942 69.7712C64.5103 69.0875 66.1333 67.0245 66.3096 64.2195L66.3956 62.8546L73.3 62.7744C78.2841 62.7164 80.299 62.64 80.5438 62.4995C81.1108 62.1743 81.8656 61.2091 82.0537 60.5693C82.175 60.1553 82.2154 57.7036 82.1813 52.8051L82.1314 45.6458L81.6876 45.0057C81.4435 44.6536 80.9377 44.1902 80.5636 43.9758L79.8834 43.5863L73.0993 43.5381L66.3153 43.4899V41.3351V39.1804L73.2853 39.1355L80.2553 39.0903L80.8722 38.5993C81.2115 38.3292 81.6538 37.7873 81.855 37.395L82.221 36.6818L82.1762 29.3759L82.1314 22.07L81.7561 21.4664C81.5498 21.1345 81.044 20.6648 80.6321 20.4227C79.9463 20.0195 79.7177 19.9777 77.9132 19.9259C75.6807 19.8615 75.2885 19.924 74.83 20.4163C74.4141 20.8625 74.4165 21.353 74.8372 21.8877C75.1655 22.3054 75.1964 22.3108 77.2208 22.3108C79.0036 22.3108 79.3063 22.3492 79.5374 22.6045C79.7758 22.8678 79.8031 23.5917 79.8031 29.6374C79.8031 34.665 79.7541 36.4257 79.6104 36.5694C79.3301 36.8498 23.1134 36.8498 22.833 36.5694C22.6891 36.4255 22.6403 34.6366 22.6403 29.51C22.6403 22.8853 22.6512 22.6374 22.9509 22.477C23.161 22.3646 30.9262 22.3108 46.9445 22.3108H70.6274L70.9601 21.8877C71.5013 21.1997 71.3766 20.5185 70.6391 20.1372C70.3144 19.9692 69.6349 19.9023 68.2559 19.9023H66.327L66.2809 12.1548L66.235 4.4073L65.8119 3.5049C65.2966 2.40596 64.4091 1.39598 63.4809 0.851969C61.9486 -0.0460974 63.4118 -0.0051523 33.0773 0.00255504C5.76236 0.00945954 5.0337 0.0174876 4.09453 0.322249ZM61.9902 2.84175C62.5602 3.13077 63.0278 3.52369 63.3438 3.97906L63.8264 4.67497L63.8745 8.67572L63.9225 12.6766H33.153H2.3835L2.43616 8.76982L2.48883 4.86284L2.97295 4.08022C3.3254 3.51068 3.69117 3.17525 4.31611 2.84881L5.17484 2.40018H33.1472H61.1194L61.9902 2.84175ZM7.3862 6.73556C6.69094 7.43083 7.18003 8.66882 8.16111 8.69676C8.85092 8.71635 9.36651 8.21409 9.36651 7.52235C9.36651 6.55026 8.08195 6.03981 7.3862 6.73556ZM11.4122 6.83752C11.0334 7.31891 10.9932 7.81298 11.2998 8.21649C11.7792 8.84785 12.7886 8.84689 13.269 8.21457C13.8006 7.5148 13.1982 6.41442 12.2836 6.41442C11.8929 6.41442 11.6535 6.53067 11.4122 6.83752ZM15.5199 6.7081C15.1457 7.12157 15.1772 8.06122 15.5773 8.42347C16.3181 9.09369 17.5021 8.5834 17.5021 7.59381C17.5021 7.27074 17.3741 6.92873 17.181 6.73556C16.7709 6.32547 15.8794 6.31085 15.5199 6.7081ZM20.5529 6.73556C19.8573 7.43115 20.3222 8.54823 21.3869 8.74011C21.6788 8.79278 28.3646 8.81478 36.2441 8.78925L50.5706 8.74268L50.9229 8.39039C51.3555 7.95766 51.3837 7.18066 50.9828 6.73765C50.6936 6.41811 50.5181 6.41442 35.7821 6.41442C21.0881 6.41442 20.8694 6.41908 20.5529 6.73556ZM53.4814 6.83752C53.0622 7.37029 53.058 7.86244 53.4691 8.30352C53.9135 8.78074 54.4898 8.85492 57.2884 8.79487C59.5448 8.74653 59.7497 8.71683 60.0759 8.39039C60.5079 7.9575 60.5359 7.1805 60.1353 6.73765C59.8618 6.43562 59.6452 6.41442 56.8285 6.41442H53.8141L53.4814 6.83752ZM7.3862 22.7925C6.95363 23.2251 6.96198 24.0946 7.40274 24.4938C7.67314 24.7388 8.03282 24.8088 9.20915 24.8452C10.8134 24.895 11.3446 24.7325 11.663 24.0939C11.8939 23.6309 11.6684 22.8612 11.2336 22.6286C11.0721 22.5422 10.2126 22.4714 9.32364 22.4714C7.92138 22.4714 7.66479 22.5139 7.3862 22.7925ZM0.778923 25.3824C0.544973 25.4681 0.272326 25.7343 0.172934 25.9739C0.0419087 26.2904 0.00449595 31.7521 0.0364493 45.9166L0.0802848 65.4238L0.511896 66.3446C1.1097 67.6204 1.65644 68.2903 2.62371 68.9322C4.10015 69.9122 4.6737 70 9.59034 70H13.9842L14.3782 69.6058C14.8806 69.1035 14.8806 68.4879 14.3782 67.9856L13.9842 67.5915L9.60126 67.5879C4.77486 67.5841 4.46384 67.5304 3.47746 66.5339C2.4132 65.4586 2.49734 67.1146 2.40598 45.4328C2.36053 34.6145 2.30626 25.7468 2.28555 25.7271C2.20896 25.6537 1.29885 25.2015 1.25244 25.2138C1.22595 25.2207 1.01287 25.2966 0.778923 25.3824ZM27.9671 25.8938C27.5362 26.3525 27.5197 26.9709 27.9248 27.4714C28.1992 27.8105 28.3866 27.8564 29.6988 27.9068C31.3829 27.9717 32.001 27.788 32.2679 27.1436C32.4887 26.6109 32.2784 25.9426 31.8111 25.6926C31.6359 25.5988 30.778 25.5222 29.9045 25.5222C28.452 25.5222 28.2864 25.554 27.9671 25.8938ZM36.6099 25.8433C36.1771 26.2761 36.1857 27.1454 36.6267 27.5446C36.9496 27.8368 37.3243 27.8505 45.0398 27.8505C52.7553 27.8505 53.1299 27.8368 53.4528 27.5446C53.9151 27.1263 53.8989 26.322 53.4193 25.8713C53.0479 25.5225 53.0419 25.5222 44.9894 25.5222C37.1451 25.5222 36.9225 25.5307 36.6099 25.8433ZM57.0022 25.8433C56.5695 26.2761 56.578 27.1454 57.0191 27.5446C57.3243 27.8208 57.6291 27.8505 60.1643 27.8505C62.921 27.8505 62.9772 27.8436 63.2786 27.4714C63.6763 26.9803 63.6676 26.4728 63.2527 25.9453L62.92 25.5222H60.1216C57.5374 25.5222 57.2988 25.5468 57.0022 25.8433ZM66.1826 25.8938C65.7518 26.3525 65.7353 26.9709 66.1406 27.4714L66.4474 27.8505H70.7309H75.0145L75.3213 27.4714C75.737 26.958 75.7104 26.2974 75.2568 25.8713C74.8948 25.5314 74.7757 25.5222 70.7085 25.5222C66.5503 25.5222 66.5303 25.5238 66.1826 25.8938ZM7.41655 28.5793C6.95331 29.0109 6.9464 29.8608 7.40274 30.2743C7.88397 30.7102 10.5737 30.8183 11.1726 30.4258C11.6944 30.0838 11.8785 29.5739 11.6826 29.012C11.4562 28.3622 11.118 28.2519 9.35382 28.2519C7.97967 28.2519 7.72099 28.2956 7.41655 28.5793ZM27.9671 31.6743C27.5362 32.133 27.5197 32.7514 27.9248 33.2519C28.1992 33.591 28.3866 33.6369 29.6988 33.6873C31.3829 33.7522 32.001 33.5685 32.2679 32.9241C32.4887 32.3914 32.2784 31.7231 31.8111 31.4731C31.6359 31.3793 30.778 31.3027 29.9045 31.3027C28.452 31.3027 28.2864 31.3345 27.9671 31.6743ZM36.3618 31.6969C35.9234 32.1351 35.8819 32.384 36.149 32.9702C36.4241 33.574 37.0542 33.7508 38.7039 33.6873C40.016 33.6369 40.2034 33.591 40.4778 33.2519C40.8754 32.7608 40.8667 32.2533 40.4518 31.7258C40.1302 31.3168 40.0629 31.3027 38.4375 31.3027C36.8661 31.3027 36.73 31.3286 36.3618 31.6969ZM43.626 31.4811C42.8848 31.9122 42.9752 33.166 43.7737 33.5298C44.0126 33.6387 45.1284 33.7113 46.5652 33.7113C48.002 33.7113 49.1178 33.6387 49.3567 33.5298C50.1714 33.1587 50.2439 31.8853 49.4738 31.4731C49.054 31.2484 44.0139 31.2553 43.626 31.4811ZM52.5366 31.6301C52.0732 32.0619 52.0665 32.9118 52.5231 33.3251C52.8465 33.6176 53.2266 33.631 61.2883 33.631H69.7157L70.0225 33.2519C70.4202 32.7608 70.4116 32.2533 69.9967 31.7258L69.6639 31.3027H61.2759C53.0565 31.3027 52.8809 31.3093 52.5366 31.6301ZM73.614 31.6969C73.1767 32.134 73.1342 32.3842 73.398 32.9635C73.5767 33.3554 74.1483 33.7113 74.5995 33.7113C75.0085 33.7113 75.6283 32.9587 75.6283 32.462C75.6283 31.8837 75.0361 31.3027 74.4465 31.3027C74.1951 31.3027 73.8399 31.4708 73.614 31.6969ZM7.41655 34.3598C6.95331 34.7914 6.9464 35.6413 7.40274 36.0548C7.88397 36.4907 10.5737 36.5988 11.1726 36.2064C11.6944 35.8643 11.8785 35.3544 11.6826 34.7925C11.4562 34.1427 11.118 34.0324 9.35382 34.0324C7.97967 34.0324 7.72099 34.0761 7.41655 34.3598ZM7.41655 40.1403C6.90706 40.615 6.94159 41.4587 7.48817 41.8886C7.84736 42.1712 8.13687 42.2215 9.40601 42.2215C10.7301 42.2215 10.9468 42.1802 11.303 41.8602C11.8838 41.3383 11.9223 40.6559 11.4004 40.134C11.1209 39.8545 10.8653 39.8129 9.42367 39.8129C7.97935 39.8129 7.72308 39.8547 7.41655 40.1403ZM7.41655 45.9208C6.90706 46.3955 6.94159 47.2393 7.48817 47.6691C7.84736 47.9517 8.13687 48.002 9.40601 48.002C10.7301 48.002 10.9468 47.9607 11.303 47.6407C11.8838 47.1188 11.9223 46.4364 11.4004 45.9146C11.1209 45.635 10.8653 45.5934 9.42367 45.5934C7.97935 45.5934 7.72308 45.6352 7.41655 45.9208ZM79.4462 46.1646L79.8031 46.4144V53.1975C79.8031 58.259 79.7541 60.0294 79.6104 60.1731C79.3301 60.4535 23.1134 60.4535 22.833 60.1731C22.6891 60.0293 22.6403 58.241 22.6403 53.1161C22.6403 46.7479 22.6607 46.2399 22.9213 46.088C23.1092 45.9786 32.464 45.9227 51.1458 45.9194C76.1823 45.915 79.1265 45.9406 79.4462 46.1646ZM37.8713 47.6031C37.6378 47.7299 37.3747 48.0342 37.2867 48.2791C37.1987 48.5241 36.3962 50.7251 35.5034 53.1701C34.6106 55.615 33.8802 57.7188 33.8802 57.845C33.8802 57.9712 34.03 58.2649 34.2131 58.4976C34.6265 59.0233 35.488 59.0792 35.9212 58.6085C36.0792 58.4369 36.9943 56.1257 37.9548 53.4722C39.5608 49.0357 39.6854 48.61 39.5053 48.1749C39.3845 47.8833 39.1209 47.636 38.8187 47.5307C38.5489 47.4366 38.3209 47.3626 38.3121 47.3661C38.3031 47.3696 38.1048 47.4762 37.8713 47.6031ZM29.5927 50.6189C28.0957 52.1158 27.7785 52.5164 27.7785 52.9096C27.7785 53.3036 28.0971 53.7039 29.6143 55.2168C31.1521 56.7503 31.5296 57.0473 31.9405 57.0473C32.622 57.0473 33.0773 56.5899 33.0773 55.905C33.0773 55.4283 32.9044 55.1707 31.8824 54.1254L30.6876 52.903L31.8824 51.6753C32.85 50.6809 33.0773 50.3522 33.0773 49.9473C33.0773 49.2949 32.5813 48.8048 31.9209 48.8048C31.4798 48.8048 31.1491 49.0625 29.5927 50.6189ZM41.1599 49.042C40.7295 49.3434 40.5636 49.9924 40.7988 50.454C40.8992 50.6509 41.4591 51.2997 42.0429 51.8959L43.1046 52.9799L41.9546 54.1439C41.322 54.7841 40.7585 55.4964 40.7025 55.7268C40.5552 56.3325 41.2002 57.0473 41.8939 57.0473C42.338 57.0473 42.6601 56.7999 44.1567 55.3079C45.1164 54.3512 45.944 53.3992 45.996 53.1924C46.1432 52.6053 45.7595 52.0568 44.0213 50.3704C42.3122 48.712 41.9024 48.5219 41.1599 49.042ZM7.41655 51.7013C6.90706 52.176 6.94159 53.0198 7.48817 53.4496C7.84736 53.7322 8.13687 53.7825 9.40601 53.7825C10.7301 53.7825 10.9468 53.7412 11.303 53.4212C11.8838 52.8993 11.9223 52.2169 11.4004 51.6951C11.1209 51.4155 10.8653 51.3739 9.42367 51.3739C7.97935 51.3739 7.72308 51.4157 7.41655 51.7013ZM7.41414 57.526C6.92023 58.0518 6.95299 58.8093 7.48817 59.2301C7.84736 59.5127 8.13687 59.563 9.40601 59.563C10.7301 59.563 10.9468 59.5217 11.303 59.2017C11.8964 58.6684 11.9228 57.9966 11.3701 57.4818C11.0644 57.197 10.8071 57.1544 9.39108 57.1544C7.8973 57.1544 7.73464 57.1849 7.41414 57.526Z" fill="#E49B00"/>
</svg>
