<svg width="99" height="80" viewBox="0 0 99 80" fill="none" xmlns="http://www.w3.org/2000/svg">
<path fill-rule="evenodd" clip-rule="evenodd" d="M43.52 0.373827C33.2679 1.98147 23.8758 7.84012 17.8499 16.3869C15.9837 19.0336 13.8592 23.2412 12.8638 26.2623C12.1826 28.3294 12.025 28.6027 11.1193 29.2887C5.47215 33.567 1.96252 39.0539 0.48315 45.9176C-0.125232 48.7407 -0.165129 53.7649 0.397945 56.6598C1.12557 60.4 2.68428 64.1666 4.88608 67.5043C6.47996 69.9205 11.04 74.3819 13.3148 75.7509C17.1707 78.0712 21.1681 79.3743 25.659 79.7752C27.0847 79.9024 37.8174 79.999 50.6687 79.9999C75.4279 80.0022 75.8023 79.9844 79.9451 78.6197C84.3934 77.1543 87.3357 75.2874 90.8205 71.719C95.5654 66.8599 98.1312 61.268 98.8629 54.191C99.8146 44.9882 95.7586 35.6177 88.3464 29.8947C86.8055 28.705 86.6382 28.4941 86.3033 27.3171C84.8744 22.2971 81.5088 16.4864 77.4641 12.0561C73.4317 7.63948 66.3265 3.30554 60.1478 1.49338C55.2452 0.0557063 48.4621 -0.401025 43.52 0.373827ZM55.3184 17.9575C61.5206 19.7833 66.0193 23.6132 68.7245 29.3701C70.0348 32.1586 70.6193 34.6613 70.7973 38.2486L70.9414 41.1458H71.8734C74.279 41.1458 77.0058 42.3637 78.7405 44.2127C81.9285 47.6107 82.6192 52.9671 80.4307 57.3206C79.6719 58.8299 77.8058 60.7043 76.291 61.4778C73.6934 62.8048 74.057 62.7898 49.0069 62.6125C27.581 62.4612 26.0408 62.4239 24.7591 62.027C23.2658 61.5646 21.068 60.2198 20.1132 59.1846C18.4431 57.3736 17.2241 54.2305 17.2241 51.7351C17.2241 46.559 21.1537 41.9647 26.3183 41.1019C30.396 40.4207 34.8649 42.5132 37.0787 46.1403C37.4693 46.7801 37.8025 47.2691 37.8192 47.2269C37.8356 47.1846 40.6273 44.327 44.0231 40.8765L50.1969 34.6032L47.8551 32.2361C43.9911 28.3305 39.721 25.8528 34.6066 24.5487L33.6182 24.2967L34.6066 23.2706C37.1109 20.6699 41.0234 18.5699 45.175 17.5978C47.1937 17.1252 53.2167 17.3387 55.3184 17.9575Z" fill="black"/>
</svg>
