<svg width="78" height="71" viewBox="0 0 78 71" fill="none" xmlns="http://www.w3.org/2000/svg">
<path fill-rule="evenodd" clip-rule="evenodd" d="M6.09697 0.237909C4.83001 0.581408 3.53226 1.35539 2.49497 2.38604C1.45463 3.41992 0.923185 4.24078 0.403475 5.61693L0.0597948 6.52678L0.0184923 27.4679C-0.0267728 50.4488 -0.0647224 49.4045 0.88295 51.2976C1.68964 52.9089 3.02687 54.2399 4.68827 55.0847C6.31324 55.9113 6.64625 55.9328 17.8636 55.9357C27.6346 55.9382 28.1954 55.9531 28.1222 56.2073C28.0795 56.3551 27.5565 58.966 26.9598 62.0091C26.3631 65.0522 25.84 67.6629 25.7974 67.8109C25.726 68.0587 25.3907 68.0799 21.5598 68.0799H17.3997L17.0149 68.4678C16.3732 69.115 16.37 69.9617 17.0069 70.6039L17.3997 71H39H60.6003L60.9851 70.6121C61.6268 69.9649 61.63 69.1182 60.9931 68.4759L60.6003 68.0799H56.4402C52.6093 68.0799 52.274 68.0587 52.2026 67.8109C52.16 67.6629 51.6369 65.0522 51.0402 62.0091C50.4435 58.966 49.9205 56.3551 49.8778 56.2073C49.8046 55.9531 50.3654 55.9382 60.1364 55.9357C71.3538 55.9328 71.6868 55.9113 73.3117 55.0847C74.9731 54.2399 76.3104 52.9089 77.1171 51.2976C78.0647 49.4045 78.0268 50.4488 77.9815 27.4679L77.9402 6.52678L77.5965 5.61693C77.4075 5.11651 77.0723 4.39601 76.8513 4.01578C76.2732 3.02125 74.7081 1.52691 73.647 0.956567C71.7276 -0.0750046 74.2423 -0.00615122 38.9299 0.0050682C11.4783 0.0136749 6.80125 0.046872 6.09697 0.237909ZM70.63 3.08272C72.3334 3.40025 73.6705 4.40323 74.4446 5.94367L74.8921 6.83416L74.9327 23.7786L74.9734 40.7229H39.0026H3.03175V39.2629V37.8028H7.53266C12.6455 37.8028 12.936 37.7524 13.3318 36.7975C13.5419 36.29 13.5381 36.1937 13.2882 35.679C12.8366 34.7496 12.7421 34.7338 7.63889 34.7313L3.0255 34.729L3.06665 20.7816L3.10795 6.83416L3.47967 6.07231C4.23059 4.53356 5.55288 3.46926 7.14249 3.12391C8.29805 2.87278 69.292 2.83328 70.63 3.08272ZM35.3102 9.50776C34.8492 9.92319 34.8124 10.0308 34.7577 11.1227C34.6512 13.2487 35.0706 14.1345 36.1835 14.1345C37.3762 14.1345 37.7807 13.5099 37.7807 11.6679C37.7807 10.2479 37.5219 9.51053 36.928 9.23773C36.3114 8.95432 35.8365 9.03362 35.3102 9.50776ZM29.6091 11.765C29.0789 12.0289 28.7887 12.5413 28.7887 13.2139C28.7887 13.7559 30.3211 15.4945 31.1473 15.8899C32.1383 16.3641 33.2085 15.6743 33.2085 14.5613C33.2085 14.0264 33.0953 13.8345 32.256 12.948C31.4323 12.0779 30.6174 11.5131 30.2033 11.5253C30.1378 11.5271 29.8703 11.6351 29.6091 11.765ZM41.6671 11.7352C41.4157 11.846 40.7813 12.399 40.2574 12.9643C39.4371 13.8492 39.3048 14.0725 39.3048 14.5722C39.3048 15.2141 39.6898 15.7465 40.332 15.9927C40.9807 16.2414 41.6409 15.895 42.7233 14.738C43.5657 13.8375 43.7246 13.5818 43.7246 13.1272C43.7246 12.4331 43.3712 11.8957 42.7774 11.6869C42.2082 11.4868 42.2335 11.4858 41.6671 11.7352ZM35.2066 17.4228C34.7807 17.6607 34.4409 18.2205 34.4331 18.6962C34.4276 19.0412 37.3619 32.108 37.6448 32.9975C37.9424 33.9338 38.9611 34.3787 39.8102 33.9436C39.9932 33.8497 40.7408 33.1792 41.4714 32.4536L42.7998 31.1342L44.5265 32.8355C46.3933 34.6752 46.8639 34.9302 47.638 34.5212C47.8747 34.3961 48.8742 33.4691 49.8591 32.4608C51.5779 30.7012 51.6499 30.6015 51.6499 29.9758C51.6499 29.3517 51.5755 29.2475 49.9013 27.5228L48.1529 25.7215L49.2324 24.654C50.5757 23.3258 51.1926 22.4965 51.1926 22.0188C51.1926 21.4478 50.7938 20.804 50.3234 20.6161C49.86 20.4309 36.041 17.2047 35.7491 17.2137C35.6511 17.2167 35.407 17.3108 35.2066 17.4228ZM26.7519 18.0745C26.1513 18.6803 26.182 19.651 26.8191 20.1916C27.2576 20.5637 27.3905 20.5895 28.8681 20.5895C30.2873 20.5895 30.4888 20.5543 30.8471 20.2434C31.1156 20.0105 31.2741 19.6864 31.3319 19.2519C31.408 18.6796 31.365 18.5531 30.9532 18.1378C30.492 17.6727 30.4766 17.6693 28.8211 17.6693C27.2228 17.6693 27.1372 17.6861 26.7519 18.0745ZM42.4292 21.8313C44.6924 22.3503 46.5747 22.8038 46.612 22.8392C46.6494 22.8747 46.2278 23.3684 45.6752 23.9365C44.0202 25.6384 44.0592 25.8843 46.3572 28.233L48.0517 29.9649L47.5318 30.5056L47.0121 31.0464L45.3303 29.3606C44.4053 28.4334 43.4598 27.6038 43.2293 27.5171C42.6058 27.2827 42.112 27.5363 40.9633 28.6807C39.98 29.6603 39.9521 29.6758 39.8576 29.2962C39.6459 28.4454 37.9331 20.9181 37.9331 20.8381C37.9331 20.7913 38.019 20.7831 38.1237 20.8202C38.2285 20.8572 40.1659 21.3123 42.4292 21.8313ZM31.151 22.3399C30.8995 22.4507 30.2652 23.0036 29.7412 23.5689C28.954 24.4182 28.7887 24.6887 28.7887 25.1266C28.7887 25.8986 29.4603 26.6141 30.1852 26.6141C30.9297 26.6141 31.1793 26.4542 32.2691 25.2795C33.0497 24.438 33.2085 24.1758 33.2085 23.7291C33.2085 23.0376 32.8543 22.5 32.2613 22.2916C31.692 22.0915 31.7173 22.0904 31.151 22.3399ZM15.8884 34.8815C15.1406 35.1858 14.8107 36.4361 15.2945 37.1327C15.8779 37.9727 17.2886 37.913 17.7417 37.0291C18.4274 35.692 17.2499 34.3274 15.8884 34.8815ZM74.9402 46.3711C74.8951 48.7811 74.8663 49.0009 74.4885 49.8134C73.9746 50.9188 73.0388 51.8624 71.9427 52.3807L71.0819 52.7877H39H6.91815L6.05735 52.3807C4.96123 51.8624 4.02545 50.9188 3.51153 49.8134C3.13371 49.0009 3.1049 48.7811 3.05979 46.3711L3.01163 43.7968H39H74.9884L74.9402 46.3711ZM37.6561 45.7328C36.4097 46.3591 35.7683 47.7555 36.118 49.0814C36.4798 50.4534 37.6015 51.3276 39 51.3276C42.112 51.3276 43.1208 47.1282 40.3439 45.7328C39.9071 45.5133 39.3024 45.3337 39 45.3337C38.6976 45.3337 38.0929 45.5133 37.6561 45.7328ZM46.849 56.2841C47.2251 57.8691 49.1485 67.9383 49.0871 68.0003C48.9838 68.1043 29.0162 68.1043 28.9129 68.0003C28.8515 67.9383 30.7749 57.8691 31.151 56.2841L31.233 55.9383H39H46.767L46.849 56.2841Z" fill="#E49B00"/>
</svg>
