<svg width="829" height="140" viewBox="0 0 829 140" fill="none" xmlns="http://www.w3.org/2000/svg">
<path d="M8.51047 136L8.51047 124.752H10.6385L10.6385 136H8.51047ZM5.72647 126.64V124.752H10.4145L10.4145 126.64H5.72647ZM5.72647 136V134.112H12.8945V136H5.72647ZM16.316 136.16C15.932 136.16 15.6173 136.032 15.372 135.776C15.1266 135.52 15.004 135.205 15.004 134.832C15.004 134.459 15.1266 134.144 15.372 133.888C15.6173 133.632 15.932 133.504 16.316 133.504C16.6893 133.504 16.9986 133.632 17.244 133.888C17.4893 134.144 17.612 134.459 17.612 134.832C17.612 135.205 17.4893 135.52 17.244 135.776C16.9986 136.032 16.6893 136.16 16.316 136.16ZM26.752 131.296L26.752 129.6H29.36C29.8933 129.6 30.304 129.467 30.592 129.2C30.8907 128.923 31.04 128.544 31.04 128.064C31.04 127.627 30.8907 127.264 30.592 126.976C30.304 126.677 29.8933 126.528 29.36 126.528H26.752V124.752H29.552C30.2773 124.752 30.912 124.896 31.456 125.184C32.0107 125.461 32.4373 125.845 32.736 126.336C33.0453 126.827 33.2 127.392 33.2 128.032C33.2 128.693 33.0453 129.269 32.736 129.76C32.4373 130.24 32.0107 130.619 31.456 130.896C30.9013 131.163 30.256 131.296 29.52 131.296H26.752ZM25.152 136L25.152 124.752H27.328L27.328 136H25.152ZM31.296 136L27.584 131.136L29.584 130.512L33.936 136H31.296ZM38.4209 136.16C37.6102 136.16 36.8902 135.989 36.2609 135.648C35.6315 135.296 35.1302 134.816 34.7569 134.208C34.3942 133.6 34.2129 132.907 34.2129 132.128C34.2129 131.36 34.3889 130.677 34.7409 130.08C35.1035 129.472 35.5942 128.992 36.2129 128.64C36.8315 128.277 37.5195 128.096 38.2769 128.096C39.0235 128.096 39.6795 128.267 40.2449 128.608C40.8209 128.939 41.2689 129.397 41.5889 129.984C41.9195 130.56 42.0849 131.216 42.0849 131.952C42.0849 132.091 42.0742 132.235 42.0529 132.384C42.0422 132.523 42.0155 132.683 41.9729 132.864L35.4769 132.88V131.312L40.9969 131.296L40.1489 131.952C40.1275 131.493 40.0422 131.109 39.8929 130.8C39.7542 130.491 39.5462 130.256 39.2689 130.096C39.0022 129.925 38.6715 129.84 38.2769 129.84C37.8609 129.84 37.4982 129.936 37.1889 130.128C36.8795 130.309 36.6395 130.571 36.4689 130.912C36.3089 131.243 36.2289 131.637 36.2289 132.096C36.2289 132.565 36.3142 132.976 36.4849 133.328C36.6662 133.669 36.9222 133.936 37.2529 134.128C37.5835 134.309 37.9675 134.4 38.4049 134.4C38.7995 134.4 39.1569 134.336 39.4769 134.208C39.7969 134.069 40.0742 133.867 40.3089 133.6L41.5409 134.832C41.1675 135.269 40.7089 135.6 40.1649 135.824C39.6315 136.048 39.0502 136.16 38.4209 136.16ZM45.7681 136L42.3601 128.272H44.6641L47.1121 134.64H45.9761L48.4401 128.272H50.6641L47.2721 136H45.7681ZM51.6311 136V128.272H53.7431V136H51.6311ZM52.6871 127.024C52.3458 127.024 52.0631 126.912 51.8391 126.688C51.6151 126.453 51.5031 126.165 51.5031 125.824C51.5031 125.493 51.6151 125.211 51.8391 124.976C52.0631 124.741 52.3458 124.624 52.6871 124.624C53.0391 124.624 53.3218 124.741 53.5351 124.976C53.7591 125.211 53.8711 125.493 53.8711 125.824C53.8711 126.165 53.7591 126.453 53.5351 126.688C53.3218 126.912 53.0391 127.024 52.6871 127.024ZM59.2959 136.16C58.4852 136.16 57.7652 135.989 57.1359 135.648C56.5065 135.296 56.0052 134.816 55.6319 134.208C55.2692 133.6 55.0879 132.907 55.0879 132.128C55.0879 131.36 55.2639 130.677 55.6159 130.08C55.9785 129.472 56.4692 128.992 57.0879 128.64C57.7065 128.277 58.3945 128.096 59.1519 128.096C59.8985 128.096 60.5545 128.267 61.1199 128.608C61.6959 128.939 62.1439 129.397 62.4639 129.984C62.7945 130.56 62.9599 131.216 62.9599 131.952C62.9599 132.091 62.9492 132.235 62.9279 132.384C62.9172 132.523 62.8905 132.683 62.8479 132.864L56.3519 132.88V131.312L61.8719 131.296L61.0239 131.952C61.0025 131.493 60.9172 131.109 60.7679 130.8C60.6292 130.491 60.4212 130.256 60.1439 130.096C59.8772 129.925 59.5465 129.84 59.1519 129.84C58.7359 129.84 58.3732 129.936 58.0639 130.128C57.7545 130.309 57.5145 130.571 57.3439 130.912C57.1839 131.243 57.1039 131.637 57.1039 132.096C57.1039 132.565 57.1892 132.976 57.3599 133.328C57.5412 133.669 57.7972 133.936 58.1279 134.128C58.4585 134.309 58.8425 134.4 59.2799 134.4C59.6745 134.4 60.0319 134.336 60.3519 134.208C60.6719 134.069 60.9492 133.867 61.1839 133.6L62.4159 134.832C62.0425 135.269 61.5839 135.6 61.0399 135.824C60.5065 136.048 59.9252 136.16 59.2959 136.16ZM66.2264 136L63.3304 128.272H65.4424L67.3304 133.888L66.6904 133.904L68.6264 128.272H70.1464L72.0824 133.904L71.4424 133.888L73.3304 128.272H75.4424L72.5624 136H71.0424L69.0904 130.656H69.6824L67.7304 136H66.2264ZM81.4083 131.824V130.048H84.0163C84.3576 130.048 84.6669 129.979 84.9443 129.84C85.2216 129.701 85.4403 129.504 85.6003 129.248C85.7603 128.981 85.8403 128.661 85.8403 128.288C85.8403 127.925 85.7603 127.611 85.6003 127.344C85.4403 127.077 85.2216 126.875 84.9443 126.736C84.6669 126.597 84.3576 126.528 84.0163 126.528H81.4083V124.752H84.2403C84.9549 124.752 85.5949 124.896 86.1603 125.184C86.7363 125.472 87.1896 125.883 87.5203 126.416C87.8509 126.939 88.0163 127.563 88.0163 128.288C88.0163 129.013 87.8509 129.643 87.5203 130.176C87.1896 130.699 86.7363 131.104 86.1603 131.392C85.5949 131.68 84.9549 131.824 84.2403 131.824H81.4083ZM79.8083 136V124.752H81.9843V136H79.8083ZM89.4436 136V128.272H91.5396V136H89.4436ZM91.5396 131.728L90.7236 131.184C90.8196 130.235 91.097 129.488 91.5556 128.944C92.0143 128.389 92.6756 128.112 93.5396 128.112C93.913 128.112 94.249 128.176 94.5476 128.304C94.8463 128.421 95.1183 128.619 95.3636 128.896L94.0516 130.4C93.9343 130.272 93.7903 130.176 93.6196 130.112C93.4596 130.048 93.273 130.016 93.0596 130.016C92.6116 130.016 92.2436 130.16 91.9556 130.448C91.6783 130.725 91.5396 131.152 91.5396 131.728ZM99.5131 136.16C98.7345 136.16 98.0305 135.984 97.4011 135.632C96.7825 135.269 96.2865 134.784 95.9131 134.176C95.5505 133.557 95.3691 132.869 95.3691 132.112C95.3691 131.355 95.5505 130.677 95.9131 130.08C96.2758 129.472 96.7718 128.992 97.4011 128.64C98.0305 128.277 98.7291 128.096 99.4971 128.096C100.286 128.096 100.99 128.277 101.609 128.64C102.238 128.992 102.734 129.472 103.097 130.08C103.46 130.677 103.641 131.355 103.641 132.112C103.641 132.869 103.46 133.557 103.097 134.176C102.734 134.784 102.238 135.269 101.609 135.632C100.99 135.984 100.292 136.16 99.5131 136.16ZM99.4971 134.208C99.8918 134.208 100.238 134.123 100.537 133.952C100.846 133.771 101.081 133.525 101.241 133.216C101.412 132.896 101.497 132.533 101.497 132.128C101.497 131.723 101.412 131.365 101.241 131.056C101.07 130.747 100.836 130.507 100.537 130.336C100.238 130.155 99.8918 130.064 99.4971 130.064C99.1131 130.064 98.7718 130.155 98.4731 130.336C98.1745 130.507 97.9398 130.747 97.7691 131.056C97.5985 131.365 97.5131 131.723 97.5131 132.128C97.5131 132.533 97.5985 132.896 97.7691 133.216C97.9398 133.525 98.1745 133.771 98.4731 133.952C98.7718 134.123 99.1131 134.208 99.4971 134.208ZM105.827 136V127.2C105.827 126.645 105.95 126.149 106.195 125.712C106.44 125.264 106.782 124.912 107.219 124.656C107.667 124.389 108.195 124.256 108.803 124.256C109.187 124.256 109.528 124.315 109.827 124.432C110.136 124.549 110.43 124.72 110.707 124.944L109.507 126.416C109.411 126.341 109.304 126.288 109.187 126.256C109.08 126.213 108.952 126.192 108.803 126.192C108.526 126.192 108.307 126.277 108.147 126.448C107.998 126.608 107.923 126.832 107.923 127.12V136H105.827ZM104.035 130.112V128.272H111.699V130.112H104.035ZM110.691 136V128.272H112.787V136H110.691ZM111.731 127.648C111.4 127.648 111.123 127.536 110.899 127.312C110.686 127.088 110.579 126.811 110.579 126.48C110.579 126.149 110.686 125.872 110.899 125.648C111.123 125.424 111.4 125.312 111.731 125.312C112.072 125.312 112.35 125.424 112.563 125.648C112.776 125.872 112.883 126.149 112.883 126.48C112.883 126.811 112.776 127.088 112.563 127.312C112.35 127.536 112.072 127.648 111.731 127.648ZM114.647 136V124.432H116.743V136H114.647ZM122.296 136.16C121.485 136.16 120.765 135.989 120.136 135.648C119.507 135.296 119.005 134.816 118.632 134.208C118.269 133.6 118.088 132.907 118.088 132.128C118.088 131.36 118.264 130.677 118.616 130.08C118.979 129.472 119.469 128.992 120.088 128.64C120.707 128.277 121.395 128.096 122.152 128.096C122.899 128.096 123.555 128.267 124.12 128.608C124.696 128.939 125.144 129.397 125.464 129.984C125.795 130.56 125.96 131.216 125.96 131.952C125.96 132.091 125.949 132.235 125.928 132.384C125.917 132.523 125.891 132.683 125.848 132.864L119.352 132.88V131.312L124.872 131.296L124.024 131.952C124.003 131.493 123.917 131.109 123.768 130.8C123.629 130.491 123.421 130.256 123.144 130.096C122.877 129.925 122.547 129.84 122.152 129.84C121.736 129.84 121.373 129.936 121.064 130.128C120.755 130.309 120.515 130.571 120.344 130.912C120.184 131.243 120.104 131.637 120.104 132.096C120.104 132.565 120.189 132.976 120.36 133.328C120.541 133.669 120.797 133.936 121.128 134.128C121.459 134.309 121.843 134.4 122.28 134.4C122.675 134.4 123.032 134.336 123.352 134.208C123.672 134.069 123.949 133.867 124.184 133.6L125.416 134.832C125.043 135.269 124.584 135.6 124.04 135.824C123.507 136.048 122.925 136.16 122.296 136.16Z" fill="white" fill-opacity="0.8"/>
<path d="M229.416 134.752L233.656 130.32C233.955 130 234.195 129.717 234.376 129.472C234.568 129.216 234.707 128.976 234.792 128.752C234.877 128.517 234.92 128.283 234.92 128.048C234.92 127.579 234.765 127.211 234.456 126.944C234.157 126.677 233.768 126.544 233.288 126.544C232.797 126.544 232.36 126.672 231.976 126.928C231.603 127.184 231.251 127.589 230.92 128.144L229.432 126.88C229.88 126.123 230.435 125.552 231.096 125.168C231.768 124.773 232.536 124.576 233.4 124.576C234.136 124.576 234.776 124.72 235.32 125.008C235.875 125.296 236.301 125.696 236.6 126.208C236.899 126.72 237.048 127.317 237.048 128C237.048 128.459 236.989 128.875 236.872 129.248C236.765 129.621 236.579 129.995 236.312 130.368C236.056 130.731 235.699 131.141 235.24 131.6L232.152 134.752H229.416ZM229.416 136V134.752L231.272 134.112H237.288V136H229.416ZM240.212 136.16C239.828 136.16 239.513 136.032 239.268 135.776C239.022 135.52 238.9 135.205 238.9 134.832C238.9 134.459 239.022 134.144 239.268 133.888C239.513 133.632 239.828 133.504 240.212 133.504C240.585 133.504 240.894 133.632 241.14 133.888C241.385 134.144 241.508 134.459 241.508 134.832C241.508 135.205 241.385 135.52 241.14 135.776C240.894 136.032 240.585 136.16 240.212 136.16ZM246.84 136V124.752H248.376L252.936 132.048H252.056L256.6 124.752H258.136V136H255.976V128.48L256.392 128.608L253.224 133.696H251.752L248.584 128.608L249.016 128.48V136H246.84ZM263.905 136.16C263.095 136.16 262.375 135.989 261.745 135.648C261.116 135.296 260.615 134.816 260.241 134.208C259.879 133.6 259.697 132.907 259.697 132.128C259.697 131.36 259.873 130.677 260.225 130.08C260.588 129.472 261.079 128.992 261.697 128.64C262.316 128.277 263.004 128.096 263.761 128.096C264.508 128.096 265.164 128.267 265.729 128.608C266.305 128.939 266.753 129.397 267.073 129.984C267.404 130.56 267.569 131.216 267.569 131.952C267.569 132.091 267.559 132.235 267.537 132.384C267.527 132.523 267.5 132.683 267.457 132.864L260.961 132.88V131.312L266.481 131.296L265.633 131.952C265.612 131.493 265.527 131.109 265.377 130.8C265.239 130.491 265.031 130.256 264.753 130.096C264.487 129.925 264.156 129.84 263.761 129.84C263.345 129.84 262.983 129.936 262.673 130.128C262.364 130.309 262.124 130.571 261.953 130.912C261.793 131.243 261.713 131.637 261.713 132.096C261.713 132.565 261.799 132.976 261.969 133.328C262.151 133.669 262.407 133.936 262.737 134.128C263.068 134.309 263.452 134.4 263.889 134.4C264.284 134.4 264.641 134.336 264.961 134.208C265.281 134.069 265.559 133.867 265.793 133.6L267.025 134.832C266.652 135.269 266.193 135.6 265.649 135.824C265.116 136.048 264.535 136.16 263.905 136.16ZM272.562 136.16C271.751 136.16 271.031 135.989 270.402 135.648C269.772 135.296 269.271 134.816 268.898 134.208C268.535 133.6 268.354 132.907 268.354 132.128C268.354 131.36 268.53 130.677 268.882 130.08C269.244 129.472 269.735 128.992 270.354 128.64C270.972 128.277 271.66 128.096 272.418 128.096C273.164 128.096 273.82 128.267 274.386 128.608C274.962 128.939 275.41 129.397 275.73 129.984C276.06 130.56 276.226 131.216 276.226 131.952C276.226 132.091 276.215 132.235 276.194 132.384C276.183 132.523 276.156 132.683 276.114 132.864L269.618 132.88V131.312L275.138 131.296L274.29 131.952C274.268 131.493 274.183 131.109 274.034 130.8C273.895 130.491 273.687 130.256 273.41 130.096C273.143 129.925 272.812 129.84 272.418 129.84C272.002 129.84 271.639 129.936 271.33 130.128C271.02 130.309 270.78 130.571 270.61 130.912C270.45 131.243 270.37 131.637 270.37 132.096C270.37 132.565 270.455 132.976 270.626 133.328C270.807 133.669 271.063 133.936 271.394 134.128C271.724 134.309 272.108 134.4 272.546 134.4C272.94 134.4 273.298 134.336 273.618 134.208C273.938 134.069 274.215 133.867 274.45 133.6L275.682 134.832C275.308 135.269 274.85 135.6 274.306 135.824C273.772 136.048 273.191 136.16 272.562 136.16ZM278.47 136V125.056H280.566V136H278.47ZM276.662 130.112V128.272H282.374V130.112H276.662ZM287.814 136V125.056H289.91V136H287.814ZM286.006 130.112V128.272H291.718V130.112H286.006ZM298.097 136V131.568C298.097 131.109 297.953 130.736 297.665 130.448C297.377 130.16 297.003 130.016 296.545 130.016C296.246 130.016 295.979 130.08 295.745 130.208C295.51 130.336 295.323 130.517 295.185 130.752C295.057 130.987 294.993 131.259 294.993 131.568L294.177 131.152C294.177 130.544 294.305 130.016 294.561 129.568C294.817 129.109 295.169 128.752 295.617 128.496C296.075 128.24 296.598 128.112 297.185 128.112C297.771 128.112 298.289 128.24 298.737 128.496C299.195 128.752 299.553 129.104 299.809 129.552C300.065 130 300.193 130.517 300.193 131.104V136H298.097ZM292.897 136V124.432H294.993V136H292.897ZM305.577 136.16C304.766 136.16 304.046 135.989 303.417 135.648C302.788 135.296 302.286 134.816 301.913 134.208C301.55 133.6 301.369 132.907 301.369 132.128C301.369 131.36 301.545 130.677 301.897 130.08C302.26 129.472 302.75 128.992 303.369 128.64C303.988 128.277 304.676 128.096 305.433 128.096C306.18 128.096 306.836 128.267 307.401 128.608C307.977 128.939 308.425 129.397 308.745 129.984C309.076 130.56 309.241 131.216 309.241 131.952C309.241 132.091 309.23 132.235 309.209 132.384C309.198 132.523 309.172 132.683 309.129 132.864L302.633 132.88V131.312L308.153 131.296L307.305 131.952C307.284 131.493 307.198 131.109 307.049 130.8C306.91 130.491 306.702 130.256 306.425 130.096C306.158 129.925 305.828 129.84 305.433 129.84C305.017 129.84 304.654 129.936 304.345 130.128C304.036 130.309 303.796 130.571 303.625 130.912C303.465 131.243 303.385 131.637 303.385 132.096C303.385 132.565 303.47 132.976 303.641 133.328C303.822 133.669 304.078 133.936 304.409 134.128C304.74 134.309 305.124 134.4 305.561 134.4C305.956 134.4 306.313 134.336 306.633 134.208C306.953 134.069 307.23 133.867 307.465 133.6L308.697 134.832C308.324 135.269 307.865 135.6 307.321 135.824C306.788 136.048 306.206 136.16 305.577 136.16ZM319.102 136.16C318.281 136.16 317.518 136.016 316.814 135.728C316.11 135.429 315.492 135.019 314.958 134.496C314.436 133.963 314.03 133.344 313.742 132.64C313.465 131.936 313.326 131.179 313.326 130.368C313.326 129.557 313.465 128.8 313.742 128.096C314.03 127.392 314.436 126.779 314.958 126.256C315.492 125.733 316.105 125.323 316.798 125.024C317.502 124.725 318.27 124.576 319.102 124.576C319.998 124.576 320.788 124.725 321.47 125.024C322.153 125.312 322.756 125.712 323.278 126.224L321.806 127.696C321.497 127.355 321.118 127.088 320.67 126.896C320.222 126.704 319.7 126.608 319.102 126.608C318.58 126.608 318.1 126.699 317.662 126.88C317.236 127.051 316.862 127.307 316.542 127.648C316.222 127.979 315.977 128.379 315.806 128.848C315.636 129.307 315.55 129.813 315.55 130.368C315.55 130.933 315.636 131.445 315.806 131.904C315.977 132.363 316.222 132.763 316.542 133.104C316.862 133.435 317.236 133.691 317.662 133.872C318.1 134.053 318.58 134.144 319.102 134.144C319.732 134.144 320.27 134.048 320.718 133.856C321.177 133.664 321.561 133.392 321.87 133.04L323.342 134.512C322.82 135.035 322.212 135.44 321.518 135.728C320.825 136.016 320.02 136.16 319.102 136.16ZM327.66 136.16C326.956 136.16 326.321 135.984 325.756 135.632C325.191 135.28 324.748 134.8 324.428 134.192C324.108 133.584 323.948 132.901 323.948 132.144C323.948 131.376 324.108 130.688 324.428 130.08C324.748 129.472 325.191 128.992 325.756 128.64C326.321 128.288 326.956 128.112 327.66 128.112C328.215 128.112 328.711 128.224 329.148 128.448C329.585 128.672 329.932 128.987 330.188 129.392C330.455 129.787 330.599 130.235 330.62 130.736V133.52C330.599 134.032 330.455 134.485 330.188 134.88C329.932 135.275 329.585 135.589 329.148 135.824C328.711 136.048 328.215 136.16 327.66 136.16ZM328.044 134.224C328.631 134.224 329.105 134.032 329.468 133.648C329.831 133.253 330.012 132.747 330.012 132.128C330.012 131.723 329.927 131.365 329.756 131.056C329.596 130.736 329.367 130.491 329.068 130.32C328.78 130.139 328.439 130.048 328.044 130.048C327.66 130.048 327.319 130.139 327.02 130.32C326.732 130.491 326.503 130.736 326.332 131.056C326.172 131.365 326.092 131.723 326.092 132.128C326.092 132.544 326.172 132.912 326.332 133.232C326.503 133.541 326.732 133.787 327.02 133.968C327.319 134.139 327.66 134.224 328.044 134.224ZM329.9 136V133.92L330.236 132.032L329.9 130.176V128.272H331.98V136H329.9ZM339.034 136V131.568C339.034 131.109 338.89 130.736 338.602 130.448C338.314 130.16 337.941 130.016 337.482 130.016C337.184 130.016 336.917 130.08 336.682 130.208C336.448 130.336 336.261 130.517 336.122 130.752C335.994 130.987 335.93 131.259 335.93 131.568L335.114 131.152C335.114 130.544 335.242 130.016 335.498 129.568C335.765 129.109 336.128 128.752 336.586 128.496C337.056 128.24 337.584 128.112 338.17 128.112C338.736 128.112 339.242 128.256 339.69 128.544C340.138 128.821 340.49 129.189 340.746 129.648C341.002 130.096 341.13 130.581 341.13 131.104V136H339.034ZM333.834 136V128.272H335.93V136H333.834ZM346.083 136.16C345.368 136.16 344.728 135.984 344.163 135.632C343.597 135.28 343.149 134.8 342.819 134.192C342.499 133.584 342.339 132.901 342.339 132.144C342.339 131.376 342.499 130.688 342.819 130.08C343.149 129.472 343.592 128.992 344.147 128.64C344.712 128.288 345.357 128.112 346.083 128.112C346.637 128.112 347.133 128.224 347.571 128.448C348.019 128.672 348.376 128.987 348.643 129.392C348.92 129.787 349.069 130.235 349.091 130.736V133.488C349.069 133.989 348.925 134.443 348.659 134.848C348.392 135.253 348.035 135.573 347.587 135.808C347.139 136.043 346.637 136.16 346.083 136.16ZM346.435 134.224C346.829 134.224 347.171 134.139 347.459 133.968C347.757 133.787 347.987 133.541 348.147 133.232C348.317 132.912 348.403 132.544 348.403 132.128C348.403 131.723 348.317 131.365 348.147 131.056C347.987 130.736 347.757 130.491 347.459 130.32C347.171 130.139 346.835 130.048 346.451 130.048C346.056 130.048 345.709 130.139 345.411 130.32C345.123 130.501 344.893 130.747 344.723 131.056C344.563 131.365 344.483 131.723 344.483 132.128C344.483 132.544 344.563 132.912 344.723 133.232C344.893 133.541 345.128 133.787 345.427 133.968C345.725 134.139 346.061 134.224 346.435 134.224ZM350.371 136H348.291V133.92L348.627 132.032L348.275 130.176V124.432H350.371V136ZM352.225 136V128.272H354.337V136H352.225ZM353.281 127.024C352.94 127.024 352.657 126.912 352.433 126.688C352.209 126.453 352.097 126.165 352.097 125.824C352.097 125.493 352.209 125.211 352.433 124.976C352.657 124.741 352.94 124.624 353.281 124.624C353.633 124.624 353.916 124.741 354.129 124.976C354.353 125.211 354.465 125.493 354.465 125.824C354.465 126.165 354.353 126.453 354.129 126.688C353.916 126.912 353.633 127.024 353.281 127.024ZM359.458 136.16C358.743 136.16 358.103 135.984 357.538 135.632C356.972 135.28 356.524 134.8 356.194 134.192C355.874 133.584 355.714 132.901 355.714 132.144C355.714 131.376 355.874 130.688 356.194 130.08C356.524 129.472 356.967 128.992 357.522 128.64C358.087 128.288 358.732 128.112 359.458 128.112C360.012 128.112 360.508 128.224 360.946 128.448C361.394 128.672 361.751 128.987 362.018 129.392C362.295 129.787 362.444 130.235 362.466 130.736V133.488C362.444 133.989 362.3 134.443 362.034 134.848C361.767 135.253 361.41 135.573 360.962 135.808C360.514 136.043 360.012 136.16 359.458 136.16ZM359.81 134.224C360.204 134.224 360.546 134.139 360.834 133.968C361.132 133.787 361.362 133.541 361.522 133.232C361.692 132.912 361.778 132.544 361.778 132.128C361.778 131.723 361.692 131.365 361.522 131.056C361.362 130.736 361.132 130.491 360.834 130.32C360.546 130.139 360.21 130.048 359.826 130.048C359.431 130.048 359.084 130.139 358.786 130.32C358.498 130.501 358.268 130.747 358.098 131.056C357.938 131.365 357.858 131.723 357.858 132.128C357.858 132.544 357.938 132.912 358.098 133.232C358.268 133.541 358.503 133.787 358.802 133.968C359.1 134.139 359.436 134.224 359.81 134.224ZM363.746 136H361.666V133.92L362.002 132.032L361.65 130.176V124.432H363.746V136ZM368.832 136.16C368.128 136.16 367.493 135.984 366.928 135.632C366.363 135.28 365.92 134.8 365.6 134.192C365.28 133.584 365.12 132.901 365.12 132.144C365.12 131.376 365.28 130.688 365.6 130.08C365.92 129.472 366.363 128.992 366.928 128.64C367.493 128.288 368.128 128.112 368.832 128.112C369.387 128.112 369.883 128.224 370.32 128.448C370.757 128.672 371.104 128.987 371.36 129.392C371.627 129.787 371.771 130.235 371.792 130.736V133.52C371.771 134.032 371.627 134.485 371.36 134.88C371.104 135.275 370.757 135.589 370.32 135.824C369.883 136.048 369.387 136.16 368.832 136.16ZM369.216 134.224C369.803 134.224 370.277 134.032 370.64 133.648C371.003 133.253 371.184 132.747 371.184 132.128C371.184 131.723 371.099 131.365 370.928 131.056C370.768 130.736 370.539 130.491 370.24 130.32C369.952 130.139 369.611 130.048 369.216 130.048C368.832 130.048 368.491 130.139 368.192 130.32C367.904 130.491 367.675 130.736 367.504 131.056C367.344 131.365 367.264 131.723 367.264 132.128C367.264 132.544 367.344 132.912 367.504 133.232C367.675 133.541 367.904 133.787 368.192 133.968C368.491 134.139 368.832 134.224 369.216 134.224ZM371.072 136V133.92L371.408 132.032L371.072 130.176V128.272H373.152V136H371.072ZM376.142 136V125.056H378.238V136H376.142ZM374.334 130.112V128.272H380.046V130.112H374.334ZM384.733 136.16C383.923 136.16 383.203 135.989 382.573 135.648C381.944 135.296 381.443 134.816 381.069 134.208C380.707 133.6 380.525 132.907 380.525 132.128C380.525 131.36 380.701 130.677 381.053 130.08C381.416 129.472 381.907 128.992 382.525 128.64C383.144 128.277 383.832 128.096 384.589 128.096C385.336 128.096 385.992 128.267 386.557 128.608C387.133 128.939 387.581 129.397 387.901 129.984C388.232 130.56 388.397 131.216 388.397 131.952C388.397 132.091 388.387 132.235 388.365 132.384C388.355 132.523 388.328 132.683 388.285 132.864L381.789 132.88V131.312L387.309 131.296L386.461 131.952C386.44 131.493 386.355 131.109 386.205 130.8C386.067 130.491 385.859 130.256 385.581 130.096C385.315 129.925 384.984 129.84 384.589 129.84C384.173 129.84 383.811 129.936 383.501 130.128C383.192 130.309 382.952 130.571 382.781 130.912C382.621 131.243 382.541 131.637 382.541 132.096C382.541 132.565 382.627 132.976 382.797 133.328C382.979 133.669 383.235 133.936 383.565 134.128C383.896 134.309 384.28 134.4 384.717 134.4C385.112 134.4 385.469 134.336 385.789 134.208C386.109 134.069 386.387 133.867 386.621 133.6L387.853 134.832C387.48 135.269 387.021 135.6 386.477 135.824C385.944 136.048 385.363 136.16 384.733 136.16Z" fill="white" fill-opacity="0.8"/>
<path d="M460.984 136.16C460.227 136.16 459.533 136.027 458.904 135.76C458.275 135.483 457.747 135.088 457.32 134.576L458.76 133.152C458.973 133.472 459.277 133.728 459.672 133.92C460.067 134.112 460.493 134.208 460.952 134.208C461.379 134.208 461.747 134.133 462.056 133.984C462.365 133.824 462.605 133.605 462.776 133.328C462.957 133.04 463.048 132.709 463.048 132.336C463.048 131.941 462.957 131.605 462.776 131.328C462.605 131.051 462.355 130.837 462.024 130.688C461.693 130.539 461.299 130.464 460.84 130.464C460.637 130.464 460.429 130.48 460.216 130.512C460.003 130.533 459.821 130.571 459.672 130.624L460.632 129.408C460.899 129.323 461.16 129.253 461.416 129.2C461.683 129.136 461.928 129.104 462.152 129.104C462.728 129.104 463.245 129.243 463.704 129.52C464.173 129.787 464.541 130.171 464.808 130.672C465.085 131.163 465.224 131.744 465.224 132.416C465.224 133.163 465.048 133.819 464.696 134.384C464.344 134.939 463.848 135.376 463.208 135.696C462.579 136.005 461.837 136.16 460.984 136.16ZM459.672 130.624V129.376L462.552 126.032L465.048 126L462.072 129.408L459.672 130.624ZM457.944 126.64V124.752H465.048V126L463.272 126.64H457.944ZM467.774 136.16C467.39 136.16 467.076 136.032 466.83 135.776C466.585 135.52 466.462 135.205 466.462 134.832C466.462 134.459 466.585 134.144 466.83 133.888C467.076 133.632 467.39 133.504 467.774 133.504C468.148 133.504 468.457 133.632 468.702 133.888C468.948 134.144 469.07 134.459 469.07 134.832C469.07 135.205 468.948 135.52 468.702 135.776C468.457 136.032 468.148 136.16 467.774 136.16ZM474.402 136V124.752H476.578V136H474.402ZM481.458 136V124.752H483.634V136H481.458ZM475.778 131.152V129.232H482.066V131.152H475.778ZM488.941 136.16C488.237 136.16 487.603 135.984 487.037 135.632C486.472 135.28 486.029 134.8 485.709 134.192C485.389 133.584 485.229 132.901 485.229 132.144C485.229 131.376 485.389 130.688 485.709 130.08C486.029 129.472 486.472 128.992 487.037 128.64C487.603 128.288 488.237 128.112 488.941 128.112C489.496 128.112 489.992 128.224 490.429 128.448C490.867 128.672 491.213 128.987 491.469 129.392C491.736 129.787 491.88 130.235 491.901 130.736V133.52C491.88 134.032 491.736 134.485 491.469 134.88C491.213 135.275 490.867 135.589 490.429 135.824C489.992 136.048 489.496 136.16 488.941 136.16ZM489.325 134.224C489.912 134.224 490.387 134.032 490.749 133.648C491.112 133.253 491.293 132.747 491.293 132.128C491.293 131.723 491.208 131.365 491.037 131.056C490.877 130.736 490.648 130.491 490.349 130.32C490.061 130.139 489.72 130.048 489.325 130.048C488.941 130.048 488.6 130.139 488.301 130.32C488.013 130.491 487.784 130.736 487.613 131.056C487.453 131.365 487.373 131.723 487.373 132.128C487.373 132.544 487.453 132.912 487.613 133.232C487.784 133.541 488.013 133.787 488.301 133.968C488.6 134.139 488.941 134.224 489.325 134.224ZM491.181 136V133.92L491.517 132.032L491.181 130.176V128.272H493.261V136H491.181ZM497.772 136.176C497.334 136.176 496.902 136.117 496.476 136C496.06 135.883 495.676 135.723 495.324 135.52C494.972 135.307 494.668 135.051 494.412 134.752L495.66 133.488C495.926 133.787 496.236 134.011 496.588 134.16C496.94 134.309 497.329 134.384 497.756 134.384C498.097 134.384 498.353 134.336 498.524 134.24C498.705 134.144 498.796 134 498.796 133.808C498.796 133.595 498.7 133.429 498.508 133.312C498.326 133.195 498.086 133.099 497.788 133.024C497.489 132.939 497.174 132.848 496.844 132.752C496.524 132.645 496.214 132.512 495.916 132.352C495.617 132.181 495.372 131.952 495.18 131.664C494.998 131.365 494.908 130.981 494.908 130.512C494.908 130.021 495.025 129.595 495.26 129.232C495.505 128.869 495.852 128.587 496.299 128.384C496.748 128.181 497.276 128.08 497.884 128.08C498.524 128.08 499.1 128.192 499.612 128.416C500.134 128.64 500.566 128.976 500.908 129.424L499.644 130.688C499.409 130.4 499.142 130.192 498.844 130.064C498.556 129.936 498.241 129.872 497.9 129.872C497.59 129.872 497.35 129.92 497.18 130.016C497.02 130.112 496.94 130.245 496.94 130.416C496.94 130.608 497.03 130.757 497.212 130.864C497.404 130.971 497.649 131.067 497.948 131.152C498.246 131.227 498.556 131.317 498.876 131.424C499.206 131.52 499.516 131.659 499.804 131.84C500.102 132.021 500.342 132.261 500.524 132.56C500.716 132.859 500.812 133.243 500.812 133.712C500.812 134.469 500.54 135.072 499.996 135.52C499.452 135.957 498.71 136.176 497.772 136.176ZM504.881 136.176C504.444 136.176 504.012 136.117 503.585 136C503.169 135.883 502.785 135.723 502.433 135.52C502.081 135.307 501.777 135.051 501.521 134.752L502.769 133.488C503.036 133.787 503.345 134.011 503.697 134.16C504.049 134.309 504.438 134.384 504.865 134.384C505.206 134.384 505.462 134.336 505.633 134.24C505.814 134.144 505.905 134 505.905 133.808C505.905 133.595 505.809 133.429 505.617 133.312C505.436 133.195 505.196 133.099 504.897 133.024C504.598 132.939 504.284 132.848 503.953 132.752C503.633 132.645 503.324 132.512 503.025 132.352C502.726 132.181 502.481 131.952 502.289 131.664C502.108 131.365 502.017 130.981 502.017 130.512C502.017 130.021 502.134 129.595 502.369 129.232C502.614 128.869 502.961 128.587 503.409 128.384C503.857 128.181 504.385 128.08 504.993 128.08C505.633 128.08 506.209 128.192 506.721 128.416C507.244 128.64 507.676 128.976 508.017 129.424L506.753 130.688C506.518 130.4 506.252 130.192 505.953 130.064C505.665 129.936 505.35 129.872 505.009 129.872C504.7 129.872 504.46 129.92 504.289 130.016C504.129 130.112 504.049 130.245 504.049 130.416C504.049 130.608 504.14 130.757 504.321 130.864C504.513 130.971 504.758 131.067 505.057 131.152C505.356 131.227 505.665 131.317 505.985 131.424C506.316 131.52 506.625 131.659 506.913 131.84C507.212 132.021 507.452 132.261 507.633 132.56C507.825 132.859 507.921 133.243 507.921 133.712C507.921 134.469 507.649 135.072 507.105 135.52C506.561 135.957 505.82 136.176 504.881 136.176ZM509.334 136V124.432H511.43V136H509.334ZM516.983 136.16C516.173 136.16 515.453 135.989 514.823 135.648C514.194 135.296 513.693 134.816 513.319 134.208C512.957 133.6 512.775 132.907 512.775 132.128C512.775 131.36 512.951 130.677 513.303 130.08C513.666 129.472 514.157 128.992 514.775 128.64C515.394 128.277 516.082 128.096 516.839 128.096C517.586 128.096 518.242 128.267 518.807 128.608C519.383 128.939 519.831 129.397 520.151 129.984C520.482 130.56 520.647 131.216 520.647 131.952C520.647 132.091 520.637 132.235 520.615 132.384C520.605 132.523 520.578 132.683 520.535 132.864L514.039 132.88V131.312L519.559 131.296L518.711 131.952C518.69 131.493 518.605 131.109 518.455 130.8C518.317 130.491 518.109 130.256 517.831 130.096C517.565 129.925 517.234 129.84 516.839 129.84C516.423 129.84 516.061 129.936 515.751 130.128C515.442 130.309 515.202 130.571 515.031 130.912C514.871 131.243 514.791 131.637 514.791 132.096C514.791 132.565 514.877 132.976 515.047 133.328C515.229 133.669 515.485 133.936 515.815 134.128C516.146 134.309 516.53 134.4 516.967 134.4C517.362 134.4 517.719 134.336 518.039 134.208C518.359 134.069 518.637 133.867 518.871 133.6L520.103 134.832C519.73 135.269 519.271 135.6 518.727 135.824C518.194 136.048 517.613 136.16 516.983 136.16ZM522.256 132.864V130.96H527.792V132.864H522.256ZM530.436 136V127.44C530.436 126.821 530.57 126.277 530.836 125.808C531.103 125.328 531.482 124.949 531.972 124.672C532.463 124.395 533.039 124.256 533.7 124.256C534.202 124.256 534.634 124.341 534.996 124.512C535.359 124.683 535.684 124.917 535.972 125.216L534.644 126.56C534.527 126.443 534.399 126.352 534.26 126.288C534.122 126.224 533.946 126.192 533.732 126.192C533.348 126.192 533.05 126.299 532.836 126.512C532.634 126.715 532.532 127.008 532.532 127.392V136H530.436ZM528.644 130.112V128.272H534.82V130.112H528.644ZM535.834 136V128.272H537.93V136H535.834ZM537.93 131.728L537.114 131.184C537.21 130.235 537.488 129.488 537.946 128.944C538.405 128.389 539.066 128.112 539.93 128.112C540.304 128.112 540.64 128.176 540.938 128.304C541.237 128.421 541.509 128.619 541.754 128.896L540.442 130.4C540.325 130.272 540.181 130.176 540.01 130.112C539.85 130.048 539.664 130.016 539.45 130.016C539.002 130.016 538.634 130.16 538.346 130.448C538.069 130.725 537.93 131.152 537.93 131.728ZM545.968 136.16C545.157 136.16 544.437 135.989 543.808 135.648C543.178 135.296 542.677 134.816 542.304 134.208C541.941 133.6 541.76 132.907 541.76 132.128C541.76 131.36 541.936 130.677 542.288 130.08C542.65 129.472 543.141 128.992 543.76 128.64C544.378 128.277 545.066 128.096 545.824 128.096C546.57 128.096 547.226 128.267 547.792 128.608C548.368 128.939 548.816 129.397 549.136 129.984C549.466 130.56 549.632 131.216 549.632 131.952C549.632 132.091 549.621 132.235 549.6 132.384C549.589 132.523 549.562 132.683 549.52 132.864L543.024 132.88V131.312L548.544 131.296L547.696 131.952C547.674 131.493 547.589 131.109 547.44 130.8C547.301 130.491 547.093 130.256 546.816 130.096C546.549 129.925 546.218 129.84 545.824 129.84C545.408 129.84 545.045 129.936 544.736 130.128C544.426 130.309 544.186 130.571 544.016 130.912C543.856 131.243 543.776 131.637 543.776 132.096C543.776 132.565 543.861 132.976 544.032 133.328C544.213 133.669 544.469 133.936 544.8 134.128C545.13 134.309 545.514 134.4 545.952 134.4C546.346 134.4 546.704 134.336 547.024 134.208C547.344 134.069 547.621 133.867 547.856 133.6L549.088 134.832C548.714 135.269 548.256 135.6 547.712 135.824C547.178 136.048 546.597 136.16 545.968 136.16ZM554.624 136.16C553.813 136.16 553.093 135.989 552.464 135.648C551.835 135.296 551.333 134.816 550.96 134.208C550.597 133.6 550.416 132.907 550.416 132.128C550.416 131.36 550.592 130.677 550.944 130.08C551.307 129.472 551.797 128.992 552.416 128.64C553.035 128.277 553.723 128.096 554.48 128.096C555.227 128.096 555.883 128.267 556.448 128.608C557.024 128.939 557.472 129.397 557.792 129.984C558.123 130.56 558.288 131.216 558.288 131.952C558.288 132.091 558.277 132.235 558.256 132.384C558.245 132.523 558.219 132.683 558.176 132.864L551.68 132.88V131.312L557.2 131.296L556.352 131.952C556.331 131.493 556.245 131.109 556.096 130.8C555.957 130.491 555.749 130.256 555.472 130.096C555.205 129.925 554.875 129.84 554.48 129.84C554.064 129.84 553.701 129.936 553.392 130.128C553.083 130.309 552.843 130.571 552.672 130.912C552.512 131.243 552.432 131.637 552.432 132.096C552.432 132.565 552.517 132.976 552.688 133.328C552.869 133.669 553.125 133.936 553.456 134.128C553.787 134.309 554.171 134.4 554.608 134.4C555.003 134.4 555.36 134.336 555.68 134.208C556 134.069 556.277 133.867 556.512 133.6L557.744 134.832C557.371 135.269 556.912 135.6 556.368 135.824C555.835 136.048 555.253 136.16 554.624 136.16ZM565.467 136V124.992H567.659V136H565.467ZM561.883 126.688V124.752H571.243V126.688H561.883ZM570.928 136V128.272H573.024V136H570.928ZM573.024 131.728L572.208 131.184C572.304 130.235 572.581 129.488 573.04 128.944C573.499 128.389 574.16 128.112 575.024 128.112C575.397 128.112 575.733 128.176 576.032 128.304C576.331 128.421 576.603 128.619 576.848 128.896L575.536 130.4C575.419 130.272 575.275 130.176 575.104 130.112C574.944 130.048 574.757 130.016 574.544 130.016C574.096 130.016 573.728 130.16 573.44 130.448C573.163 130.725 573.024 131.152 573.024 131.728ZM577.584 136V128.272H579.696V136H577.584ZM578.64 127.024C578.299 127.024 578.016 126.912 577.792 126.688C577.568 126.453 577.456 126.165 577.456 125.824C577.456 125.493 577.568 125.211 577.792 124.976C578.016 124.741 578.299 124.624 578.64 124.624C578.992 124.624 579.275 124.741 579.488 124.976C579.712 125.211 579.824 125.493 579.824 125.824C579.824 126.165 579.712 126.453 579.488 126.688C579.275 126.912 578.992 127.024 578.64 127.024ZM584.785 136.16C584.081 136.16 583.446 135.984 582.881 135.632C582.316 135.28 581.873 134.8 581.553 134.192C581.233 133.584 581.073 132.901 581.073 132.144C581.073 131.376 581.233 130.688 581.553 130.08C581.873 129.472 582.316 128.992 582.881 128.64C583.446 128.288 584.081 128.112 584.785 128.112C585.34 128.112 585.836 128.224 586.273 128.448C586.71 128.672 587.057 128.987 587.313 129.392C587.58 129.787 587.724 130.235 587.745 130.736V133.52C587.724 134.032 587.58 134.485 587.313 134.88C587.057 135.275 586.71 135.589 586.273 135.824C585.836 136.048 585.34 136.16 584.785 136.16ZM585.169 134.224C585.756 134.224 586.23 134.032 586.593 133.648C586.956 133.253 587.137 132.747 587.137 132.128C587.137 131.723 587.052 131.365 586.881 131.056C586.721 130.736 586.492 130.491 586.193 130.32C585.905 130.139 585.564 130.048 585.169 130.048C584.785 130.048 584.444 130.139 584.145 130.32C583.857 130.491 583.628 130.736 583.457 131.056C583.297 131.365 583.217 131.723 583.217 132.128C583.217 132.544 583.297 132.912 583.457 133.232C583.628 133.541 583.857 133.787 584.145 133.968C584.444 134.139 584.785 134.224 585.169 134.224ZM587.025 136V133.92L587.361 132.032L587.025 130.176V128.272H589.105V136H587.025ZM590.959 136V124.432H593.055V136H590.959Z" fill="white" fill-opacity="0.8"/>
<path d="M685.4 132.032L689.24 124.752H691.64L687.704 132.032H685.4ZM685.4 133.312V132.032L686.2 131.408H694.264V133.312H685.4ZM690.712 136V128.832H692.856V136H690.712ZM696.524 136.16C696.14 136.16 695.826 136.032 695.58 135.776C695.335 135.52 695.212 135.205 695.212 134.832C695.212 134.459 695.335 134.144 695.58 133.888C695.826 133.632 696.14 133.504 696.524 133.504C696.898 133.504 697.207 133.632 697.452 133.888C697.698 134.144 697.82 134.459 697.82 134.832C697.82 135.205 697.698 135.52 697.452 135.776C697.207 136.032 696.898 136.16 696.524 136.16ZM706.416 136.16C705.509 136.16 704.731 136.005 704.08 135.696C703.44 135.387 702.859 134.923 702.336 134.304L703.776 132.864C704.107 133.301 704.491 133.643 704.928 133.888C705.365 134.123 705.899 134.24 706.528 134.24C707.093 134.24 707.541 134.128 707.872 133.904C708.213 133.68 708.384 133.371 708.384 132.976C708.384 132.635 708.288 132.357 708.096 132.144C707.904 131.931 707.648 131.749 707.328 131.6C707.019 131.451 706.672 131.317 706.288 131.2C705.915 131.072 705.536 130.928 705.152 130.768C704.779 130.608 704.432 130.411 704.112 130.176C703.803 129.931 703.552 129.621 703.36 129.248C703.168 128.864 703.072 128.384 703.072 127.808C703.072 127.125 703.237 126.544 703.568 126.064C703.899 125.584 704.352 125.216 704.928 124.96C705.504 124.704 706.155 124.576 706.88 124.576C707.648 124.576 708.341 124.72 708.96 125.008C709.579 125.296 710.085 125.669 710.48 126.128L709.04 127.568C708.709 127.205 708.368 126.939 708.016 126.768C707.675 126.597 707.285 126.512 706.848 126.512C706.347 126.512 705.952 126.608 705.664 126.8C705.376 126.992 705.232 127.269 705.232 127.632C705.232 127.941 705.328 128.192 705.52 128.384C705.712 128.576 705.963 128.741 706.272 128.88C706.592 129.019 706.939 129.152 707.312 129.28C707.696 129.408 708.075 129.552 708.448 129.712C708.832 129.872 709.179 130.08 709.488 130.336C709.808 130.592 710.064 130.923 710.256 131.328C710.448 131.723 710.544 132.213 710.544 132.8C710.544 133.845 710.176 134.667 709.44 135.264C708.704 135.861 707.696 136.16 706.416 136.16ZM712.037 136V128.272H714.149V136H712.037ZM713.093 127.024C712.752 127.024 712.469 126.912 712.245 126.688C712.021 126.453 711.909 126.165 711.909 125.824C711.909 125.493 712.021 125.211 712.245 124.976C712.469 124.741 712.752 124.624 713.093 124.624C713.445 124.624 713.728 124.741 713.941 124.976C714.165 125.211 714.277 125.493 714.277 125.824C714.277 126.165 714.165 126.453 713.941 126.688C713.728 126.912 713.445 127.024 713.093 127.024ZM719.238 139.424C718.417 139.424 717.691 139.275 717.062 138.976C716.433 138.688 715.931 138.277 715.558 137.744L716.886 136.416C717.185 136.768 717.515 137.035 717.878 137.216C718.251 137.408 718.699 137.504 719.222 137.504C719.873 137.504 720.385 137.339 720.758 137.008C721.142 136.677 721.334 136.219 721.334 135.632V133.696L721.686 132L721.35 130.304V128.272H723.43V135.6C723.43 136.368 723.249 137.035 722.886 137.6C722.534 138.176 722.043 138.624 721.414 138.944C720.785 139.264 720.059 139.424 719.238 139.424ZM719.142 135.792C718.449 135.792 717.825 135.627 717.27 135.296C716.715 134.955 716.278 134.491 715.958 133.904C715.649 133.317 715.494 132.661 715.494 131.936C715.494 131.211 715.649 130.56 715.958 129.984C716.278 129.408 716.715 128.955 717.27 128.624C717.825 128.283 718.449 128.112 719.142 128.112C719.718 128.112 720.225 128.224 720.662 128.448C721.11 128.672 721.462 128.981 721.718 129.376C721.974 129.76 722.113 130.213 722.134 130.736V133.168C722.113 133.68 721.969 134.139 721.702 134.544C721.446 134.939 721.094 135.248 720.646 135.472C720.209 135.685 719.707 135.792 719.142 135.792ZM719.558 133.888C719.942 133.888 720.273 133.808 720.55 133.648C720.838 133.477 721.062 133.248 721.222 132.96C721.382 132.661 721.462 132.325 721.462 131.952C721.462 131.568 721.382 131.232 721.222 130.944C721.062 130.656 720.838 130.432 720.55 130.272C720.273 130.101 719.942 130.016 719.558 130.016C719.174 130.016 718.838 130.101 718.55 130.272C718.262 130.432 718.038 130.661 717.878 130.96C717.718 131.248 717.638 131.579 717.638 131.952C717.638 132.315 717.718 132.645 717.878 132.944C718.038 133.232 718.262 133.461 718.55 133.632C718.838 133.803 719.174 133.888 719.558 133.888ZM730.472 136V131.568C730.472 131.109 730.328 130.736 730.04 130.448C729.752 130.16 729.378 130.016 728.92 130.016C728.621 130.016 728.354 130.08 728.12 130.208C727.885 130.336 727.698 130.517 727.56 130.752C727.432 130.987 727.368 131.259 727.368 131.568L726.552 131.152C726.552 130.544 726.68 130.016 726.936 129.568C727.202 129.109 727.565 128.752 728.024 128.496C728.493 128.24 729.021 128.112 729.608 128.112C730.173 128.112 730.68 128.256 731.128 128.544C731.576 128.821 731.928 129.189 732.184 129.648C732.44 130.096 732.568 130.581 732.568 131.104V136H730.472ZM725.272 136V128.272H727.368V136H725.272ZM738.517 136V125.056H740.613V136H738.517ZM736.709 130.112V128.272H742.421V130.112H736.709ZM748.8 136V131.568C748.8 131.109 748.656 130.736 748.368 130.448C748.08 130.16 747.707 130.016 747.248 130.016C746.949 130.016 746.683 130.08 746.448 130.208C746.213 130.336 746.027 130.517 745.888 130.752C745.76 130.987 745.696 131.259 745.696 131.568L744.88 131.152C744.88 130.544 745.008 130.016 745.264 129.568C745.52 129.109 745.872 128.752 746.32 128.496C746.779 128.24 747.301 128.112 747.888 128.112C748.475 128.112 748.992 128.24 749.44 128.496C749.899 128.752 750.256 129.104 750.512 129.552C750.768 130 750.896 130.517 750.896 131.104V136H748.8ZM743.6 136V124.432H745.696V136H743.6ZM756.28 136.16C755.47 136.16 754.75 135.989 754.12 135.648C753.491 135.296 752.99 134.816 752.616 134.208C752.254 133.6 752.072 132.907 752.072 132.128C752.072 131.36 752.248 130.677 752.6 130.08C752.963 129.472 753.454 128.992 754.072 128.64C754.691 128.277 755.379 128.096 756.136 128.096C756.883 128.096 757.539 128.267 758.104 128.608C758.68 128.939 759.128 129.397 759.448 129.984C759.779 130.56 759.944 131.216 759.944 131.952C759.944 132.091 759.934 132.235 759.912 132.384C759.902 132.523 759.875 132.683 759.832 132.864L753.336 132.88V131.312L758.856 131.296L758.008 131.952C757.987 131.493 757.902 131.109 757.752 130.8C757.614 130.491 757.406 130.256 757.128 130.096C756.862 129.925 756.531 129.84 756.136 129.84C755.72 129.84 755.358 129.936 755.048 130.128C754.739 130.309 754.499 130.571 754.328 130.912C754.168 131.243 754.088 131.637 754.088 132.096C754.088 132.565 754.174 132.976 754.344 133.328C754.526 133.669 754.782 133.936 755.112 134.128C755.443 134.309 755.827 134.4 756.264 134.4C756.659 134.4 757.016 134.336 757.336 134.208C757.656 134.069 757.934 133.867 758.168 133.6L759.4 134.832C759.027 135.269 758.568 135.6 758.024 135.824C757.491 136.048 756.91 136.16 756.28 136.16ZM769.806 136.16C768.984 136.16 768.222 136.016 767.518 135.728C766.814 135.429 766.195 135.019 765.662 134.496C765.139 133.963 764.734 133.344 764.446 132.64C764.168 131.936 764.03 131.179 764.03 130.368C764.03 129.557 764.168 128.8 764.446 128.096C764.734 127.392 765.139 126.779 765.662 126.256C766.195 125.733 766.808 125.323 767.502 125.024C768.206 124.725 768.974 124.576 769.806 124.576C770.702 124.576 771.491 124.725 772.174 125.024C772.856 125.312 773.459 125.712 773.982 126.224L772.51 127.696C772.2 127.355 771.822 127.088 771.374 126.896C770.926 126.704 770.403 126.608 769.806 126.608C769.283 126.608 768.803 126.699 768.366 126.88C767.939 127.051 767.566 127.307 767.246 127.648C766.926 127.979 766.68 128.379 766.51 128.848C766.339 129.307 766.254 129.813 766.254 130.368C766.254 130.933 766.339 131.445 766.51 131.904C766.68 132.363 766.926 132.763 767.246 133.104C767.566 133.435 767.939 133.691 768.366 133.872C768.803 134.053 769.283 134.144 769.806 134.144C770.435 134.144 770.974 134.048 771.422 133.856C771.88 133.664 772.264 133.392 772.574 133.04L774.046 134.512C773.523 135.035 772.915 135.44 772.222 135.728C771.528 136.016 770.723 136.16 769.806 136.16ZM778.763 136.16C777.984 136.16 777.28 135.984 776.651 135.632C776.032 135.269 775.536 134.784 775.163 134.176C774.8 133.557 774.619 132.869 774.619 132.112C774.619 131.355 774.8 130.677 775.163 130.08C775.526 129.472 776.022 128.992 776.651 128.64C777.28 128.277 777.979 128.096 778.747 128.096C779.536 128.096 780.24 128.277 780.859 128.64C781.488 128.992 781.984 129.472 782.347 130.08C782.71 130.677 782.891 131.355 782.891 132.112C782.891 132.869 782.71 133.557 782.347 134.176C781.984 134.784 781.488 135.269 780.859 135.632C780.24 135.984 779.542 136.16 778.763 136.16ZM778.747 134.208C779.142 134.208 779.488 134.123 779.787 133.952C780.096 133.771 780.331 133.525 780.491 133.216C780.662 132.896 780.747 132.533 780.747 132.128C780.747 131.723 780.662 131.365 780.491 131.056C780.32 130.747 780.086 130.507 779.787 130.336C779.488 130.155 779.142 130.064 778.747 130.064C778.363 130.064 778.022 130.155 777.723 130.336C777.424 130.507 777.19 130.747 777.019 131.056C776.848 131.365 776.763 131.723 776.763 132.128C776.763 132.533 776.848 132.896 777.019 133.216C777.19 133.525 777.424 133.771 777.723 133.952C778.022 134.123 778.363 134.208 778.747 134.208ZM789.441 136V131.568C789.441 131.109 789.297 130.736 789.009 130.448C788.721 130.16 788.347 130.016 787.889 130.016C787.59 130.016 787.323 130.08 787.089 130.208C786.854 130.336 786.667 130.517 786.529 130.752C786.401 130.987 786.337 131.259 786.337 131.568L785.521 131.152C785.521 130.544 785.649 130.016 785.905 129.568C786.171 129.109 786.534 128.752 786.993 128.496C787.462 128.24 787.99 128.112 788.577 128.112C789.142 128.112 789.649 128.256 790.097 128.544C790.545 128.821 790.897 129.189 791.153 129.648C791.409 130.096 791.536 130.581 791.536 131.104V136H789.441ZM784.241 136V128.272H786.337V136L784.241 136ZM794.267 136V125.056H796.363V136H794.267ZM792.459 130.112V128.272H798.171V130.112H792.459ZM799.35 136V128.272H801.446V136H799.35ZM801.446 131.728L800.63 131.184C800.726 130.235 801.003 129.488 801.462 128.944C801.921 128.389 802.582 128.112 803.446 128.112C803.819 128.112 804.155 128.176 804.454 128.304C804.753 128.421 805.025 128.619 805.27 128.896L803.958 130.4C803.841 130.272 803.697 130.176 803.526 130.112C803.366 130.048 803.179 130.016 802.966 130.016C802.518 130.016 802.15 130.16 801.862 130.448C801.585 130.725 801.446 131.152 801.446 131.728ZM809.019 136.16C808.315 136.16 807.681 135.984 807.115 135.632C806.55 135.28 806.107 134.8 805.787 134.192C805.467 133.584 805.307 132.901 805.307 132.144C805.307 131.376 805.467 130.688 805.787 130.08C806.107 129.472 806.55 128.992 807.115 128.64C807.681 128.288 808.315 128.112 809.019 128.112C809.574 128.112 810.07 128.224 810.507 128.448C810.945 128.672 811.291 128.987 811.547 129.392C811.814 129.787 811.958 130.235 811.979 130.736V133.52C811.958 134.032 811.814 134.485 811.547 134.88C811.291 135.275 810.945 135.589 810.507 135.824C810.07 136.048 809.574 136.16 809.019 136.16ZM809.403 134.224C809.99 134.224 810.465 134.032 810.827 133.648C811.19 133.253 811.371 132.747 811.371 132.128C811.371 131.723 811.286 131.365 811.115 131.056C810.955 130.736 810.726 130.491 810.427 130.32C810.139 130.139 809.798 130.048 809.403 130.048C809.019 130.048 808.678 130.139 808.379 130.32C808.091 130.491 807.862 130.736 807.691 131.056C807.531 131.365 807.451 131.723 807.451 132.128C807.451 132.544 807.531 132.912 807.691 133.232C807.862 133.541 808.091 133.787 808.379 133.968C808.678 134.139 809.019 134.224 809.403 134.224ZM811.259 136V133.92L811.595 132.032L811.259 130.176V128.272H813.339V136H811.259ZM818.842 136.16C818.052 136.16 817.343 135.984 816.714 135.632C816.084 135.28 815.588 134.8 815.226 134.192C814.863 133.584 814.682 132.901 814.682 132.144C814.682 131.376 814.863 130.688 815.226 130.08C815.588 129.472 816.084 128.992 816.714 128.64C817.354 128.277 818.063 128.096 818.842 128.096C819.45 128.096 820.01 128.208 820.522 128.432C821.034 128.656 821.476 128.976 821.85 129.392L820.506 130.752C820.303 130.528 820.058 130.357 819.77 130.24C819.492 130.123 819.183 130.064 818.842 130.064C818.458 130.064 818.111 130.155 817.802 130.336C817.503 130.507 817.263 130.747 817.082 131.056C816.911 131.355 816.826 131.712 816.826 132.128C816.826 132.533 816.911 132.896 817.082 133.216C817.263 133.525 817.503 133.771 817.802 133.952C818.111 134.123 818.458 134.208 818.842 134.208C819.194 134.208 819.508 134.149 819.786 134.032C820.074 133.904 820.319 133.723 820.522 133.488L821.882 134.848C821.487 135.275 821.034 135.6 820.522 135.824C820.01 136.048 819.45 136.16 818.842 136.16ZM824.08 136V125.056H826.176V136H824.08ZM822.272 130.112V128.272H827.984V130.112H822.272Z" fill="white" fill-opacity="0.8"/>
<path d="M98 51H762" stroke="white" stroke-opacity="0.2" stroke-width="2" stroke-dasharray="4 4"/>
<circle cx="49.5" cy="48.5" r="48.5" fill="white" fill-opacity="0.08"/>
<circle cx="277.5" cy="48.5" r="48.5" fill="#2D2727"/>
<circle cx="505.5" cy="48.5" r="48.5" fill="#2D2727"/>
<circle cx="733.5" cy="48.5" r="48.5" fill="#2D2727"/>
<path fill-rule="evenodd" clip-rule="evenodd" d="M37.795 25.1471C37.2261 25.3531 36.8329 25.6488 36.5113 26.1122C36.1104 26.6901 35.9917 27.2531 35.9917 28.5776V29.7498L33.9444 29.7789C32.0168 29.8062 31.8753 29.8201 31.5253 30.0153C30.9422 30.3406 30.5599 30.7418 30.2936 31.3079L30.0479 31.8302L30.024 39.6737L30 47.5172L30.3013 47.8318C30.7426 48.2924 31.3113 48.2302 31.6184 47.6876C31.752 47.4516 31.765 46.7576 31.765 39.8776C31.765 31.6786 31.7491 31.947 32.2468 31.7103C32.4227 31.6266 35.7123 31.6004 46.0386 31.6004C60.7836 31.6004 59.9576 31.5711 60.1899 32.1034C60.3425 32.4531 60.3425 69.3549 60.1899 69.7045C59.9575 70.2369 60.7843 70.2075 46.0301 70.2075C31.2758 70.2075 32.1026 70.2369 31.8702 69.7045C31.7913 69.5239 31.765 67.5741 31.765 61.9257C31.765 53.7409 31.7808 54.0082 31.2832 53.7715C30.8181 53.5502 30.2798 53.7396 30.1024 54.1869C30.0266 54.3777 30.0062 56.4669 30.024 62.2114C30.0476 69.8874 30.0501 69.9826 30.2333 70.3961C30.5044 71.0076 30.918 71.453 31.4848 71.7435L31.9851 72H46.0301H60.075L60.5753 71.7435C61.143 71.4525 61.557 71.0061 61.8253 70.3961C61.9789 70.0465 62.0143 69.7558 62.0406 68.6279L62.0722 67.2781L64.1115 67.2491C66.0308 67.2218 66.1727 67.2078 66.5226 67.0127C67.1057 66.6874 67.488 66.2862 67.7543 65.7201L68 65.1978V46.124V27.0503L67.8146 26.632C67.5435 26.0204 67.1299 25.575 66.5631 25.2845L66.0628 25.028L52.1499 25.0074C39.1202 24.9882 38.209 24.997 37.795 25.1471ZM65.8299 26.9515C65.9634 27.0235 66.1198 27.1909 66.1777 27.3235C66.3303 27.6732 66.3303 64.5749 66.1777 64.9246C65.9803 65.377 65.7435 65.4276 63.8226 65.4276H62.0581L62.0352 48.6289L62.0122 31.8302L61.8268 31.4119C61.5667 30.8251 61.1353 30.3435 60.6112 30.0549L60.163 29.8079L48.9579 29.7836L37.7528 29.7592L37.7559 28.6346C37.7592 27.4296 37.8294 27.1647 38.2028 26.9488C38.5287 26.7601 65.4803 26.7628 65.8299 26.9515ZM44.5331 35.3267C40.5978 35.9762 37.5372 39.0932 36.6841 43.3204C36.5406 44.0317 36.5406 46.1941 36.6841 46.9054C37.3469 50.1892 39.2604 52.7443 42.0842 54.1156C45.5678 55.8074 49.7313 55.0881 52.556 52.3063C52.8933 51.9742 53.3678 51.4298 53.6105 51.0964C54.2253 50.2521 54.9656 48.6459 55.2457 47.5488C55.4549 46.7296 55.4805 46.4646 55.4805 45.1129C55.4805 43.7687 55.4543 43.494 55.2506 42.6975C54.8278 41.0446 54.0158 39.5119 52.921 38.3004C50.781 35.9324 47.6306 34.8155 44.5331 35.3267ZM47.9233 37.2861C50.7152 38.0649 52.792 40.2171 53.5227 43.0887C54.0596 45.1986 53.6795 47.6588 52.536 49.4744L52.1505 50.0864L51.8872 49.7368C51.0787 48.6638 50.0495 47.7674 49.1348 47.3399L48.7828 47.1754L49.1191 46.5948C49.5508 45.8494 49.6711 45.2274 49.6224 43.9933C49.5865 43.0838 49.5585 42.9553 49.2583 42.3212C47.723 39.0784 43.2074 39.7149 42.4988 43.2741C42.4421 43.5589 42.4172 44.1603 42.4416 44.6529C42.4891 45.6104 42.6882 46.2852 43.0826 46.8249C43.2121 47.0022 43.3042 47.1569 43.2872 47.1686C43.2702 47.1804 42.9863 47.33 42.6565 47.5009C41.7449 47.9735 40.478 49.1686 40.058 49.952C39.9759 50.1054 39.9568 50.1009 39.7882 49.89C39.4572 49.4759 38.7203 47.8356 38.5299 47.0892C38.2636 46.0453 38.2641 44.1768 38.531 43.1366C38.9416 41.5361 39.957 39.87 41.121 38.8865C42.1485 38.0184 43.6316 37.3236 44.9131 37.11C45.5989 36.9957 47.2226 37.0906 47.9233 37.2861ZM46.9786 42.3246C47.1855 42.4482 47.4629 42.7196 47.595 42.9278C47.8053 43.2593 47.839 43.4136 47.8658 44.1674C47.8935 44.9452 47.8743 45.0757 47.6666 45.5187C47.3538 46.1862 46.8777 46.516 46.1549 46.566C45.7405 46.5947 45.5413 46.5612 45.2744 46.4179C44.4961 46.0002 44.1809 45.3916 44.1809 44.3066C44.1809 43.7136 44.2216 43.5009 44.4118 43.1025C44.9008 42.0782 46.0052 41.7435 46.9786 42.3246ZM47.0426 48.5595C47.8815 48.7155 48.9576 49.2472 49.5884 49.8173C50.038 50.2237 50.7851 51.2118 50.7851 51.4002C50.7851 51.5596 49.7352 52.2524 49.0402 52.5516C47.9107 53.0378 47.3284 53.1509 45.986 53.1449C44.9117 53.1402 44.6537 53.108 43.9786 52.8942C42.8865 52.5483 41.2736 51.6632 41.2759 51.411C41.2764 51.3596 41.4816 51.0328 41.7321 50.6847C42.2421 49.9758 42.9945 49.3476 43.7846 48.971C44.243 48.7525 44.5069 48.6751 45.4577 48.4796C45.8197 48.4052 46.3592 48.4324 47.0426 48.5595ZM30.4538 50.1131C29.9343 50.4137 29.8654 51.0535 30.3033 51.5107C30.7426 51.9693 31.3119 51.906 31.6184 51.3645C32.0766 50.5547 31.2416 49.6572 30.4538 50.1131ZM36.3781 57.0602C36.2758 57.1037 36.1074 57.2518 36.0038 57.3892C35.8242 57.6276 35.8156 57.7338 35.8156 59.6995C35.8156 61.8814 35.863 62.1747 36.251 62.3914C36.4862 62.5229 55.5739 62.5229 55.8091 62.3914C56.1974 62.1745 56.2445 61.8822 56.2445 59.6885V57.6172L55.9876 57.317L55.7306 57.0168L46.1473 56.9989C40.8765 56.9892 36.4804 57.0168 36.3781 57.0602ZM54.4834 59.7285V60.6477H46.0301H37.5767V59.7285V58.8092H46.0301H54.4834V59.7285ZM40.5148 64.947C40.0644 65.328 40.0151 65.8416 40.3873 66.2764L40.6442 66.5766H46.0301H51.4159L51.6828 66.2648C51.9146 65.994 51.9433 65.9035 51.9011 65.5756C51.8689 65.3244 51.7755 65.1289 51.6221 64.9912L51.3916 64.7841L46.0471 64.7862C41.1163 64.7881 40.6881 64.8005 40.5148 64.947Z" fill="#E49B00"/>
<path fill-rule="evenodd" clip-rule="evenodd" d="M256.387 27.1574C254.402 27.6391 252.73 29.3639 252.314 31.3572C252.23 31.7632 252.193 36.1542 252.193 45.9933V60.0496H251.542C250.76 60.0496 250.371 60.2084 250.162 60.6126C249.967 60.9906 249.939 65.7357 250.127 66.6373C250.554 68.688 252.309 70.4439 254.358 70.8716C255.179 71.0428 300.821 71.0428 301.642 70.8716C303.691 70.4439 305.446 68.688 305.873 66.6373C306.061 65.7357 306.033 60.9906 305.838 60.6126C305.629 60.2084 305.24 60.0496 304.458 60.0496H303.807V45.9933C303.807 36.1542 303.77 31.7632 303.686 31.3572C303.259 29.3065 301.504 27.5506 299.455 27.1229C298.57 26.9382 257.153 26.9714 256.387 27.1574ZM299.465 29.4103C300.26 29.7083 300.889 30.2745 301.258 31.0264L301.565 31.6528L301.594 45.8512L301.623 60.0496H300.309H298.995V46.3655C298.995 31.4928 299.026 32.2345 298.397 31.9477C298.183 31.8503 296.145 31.8169 290.401 31.8169C282.032 31.8169 282.237 31.8023 281.958 32.4157C281.793 32.7786 281.793 33.0438 281.958 33.4067C282.236 34.0168 282.089 34.0055 289.75 34.0055H296.808V47.0275V60.0496H293.42H290.033L289.982 59.8034C289.954 59.6679 289.899 59.2622 289.859 58.9017C289.763 58.0226 289.338 56.5862 288.88 55.5949C287.747 53.1406 285.614 50.9774 283.168 49.8029L282.143 49.3105L282.537 48.874C283.162 48.1823 283.66 47.3298 283.958 46.4423C284.201 45.7157 284.233 45.4406 284.232 44.0537C284.231 43.0346 284.175 42.2774 284.072 41.8893C283.476 39.6482 281.559 37.8101 279.323 37.3358C276.058 36.6433 272.788 38.6571 271.928 41.8893C271.825 42.2774 271.769 43.0346 271.768 44.0537C271.767 45.4478 271.798 45.7135 272.047 46.457C272.333 47.3087 273.052 48.5106 273.562 48.9889C273.873 49.281 273.921 49.435 273.701 49.435C273.622 49.435 273.136 49.6502 272.621 49.9132C270.231 51.1337 268.221 53.209 267.12 55.5949C266.662 56.5862 266.237 58.0226 266.141 58.9017C266.101 59.2622 266.046 59.6679 266.018 59.8034L265.967 60.0496H262.58H259.192V47.0275V34.0055H266.24C271.471 34.0055 273.362 33.9718 273.574 33.8747C273.888 33.7318 274.173 33.273 274.173 32.9112C274.173 32.5494 273.888 32.0906 273.574 31.9477C273.361 31.8503 271.323 31.8169 265.578 31.8169C257.21 31.8169 257.415 31.8023 257.135 32.4157C257.036 32.6332 257.005 36.008 257.005 46.3761V60.0496H255.691H254.377L254.406 45.8512L254.435 31.6528L254.742 31.0264C255.105 30.2875 255.734 29.7121 256.504 29.4157C257.048 29.2065 257.498 29.2019 277.969 29.1963C298.645 29.1907 298.884 29.193 299.465 29.4103ZM277.465 31.9697C276.517 32.4955 276.914 34.0055 278 34.0055C278.554 34.0055 279.094 33.4709 279.094 32.9218C279.094 32.1002 278.186 31.5697 277.465 31.9697ZM279.219 39.5869C280.469 39.9816 281.365 40.8379 281.833 42.0874C282.036 42.6283 282.06 42.8888 282.028 44.1824C281.995 45.5276 281.965 45.7138 281.694 46.2651C281.531 46.5982 281.163 47.1046 280.878 47.3904C278.888 49.3809 275.555 48.8101 274.306 46.2651C274.035 45.7138 274.005 45.5276 273.972 44.1824C273.94 42.8888 273.964 42.6283 274.167 42.0874C274.629 40.8554 275.524 39.9884 276.742 39.5928C277.594 39.3165 278.356 39.3146 279.219 39.5869ZM276.906 52.4527V54.0478L277.226 54.3677C277.645 54.7874 278.282 54.811 278.732 54.4237L279.039 54.1599L279.074 52.5087L279.109 50.8574L279.566 50.9268C280.963 51.1386 282.807 51.9483 283.995 52.8716C286.027 54.4505 287.422 56.8666 287.714 59.3109L287.802 60.0496H278H268.198L268.286 59.3109C268.716 55.7093 271.41 52.4717 274.946 51.3082C275.59 51.0962 276.396 50.9023 276.77 50.8696C276.873 50.8604 276.906 51.2432 276.906 52.4527ZM303.788 64.29C303.753 66.2787 303.743 66.3608 303.447 66.9635C303.101 67.6679 302.571 68.1819 301.844 68.5187L301.346 68.7492L278.143 68.7775C255.108 68.8057 254.936 68.8043 254.351 68.5852C253.553 68.2862 252.925 67.7208 252.555 66.9681C252.257 66.3598 252.247 66.2825 252.212 64.29L252.176 62.2382H278H303.824L303.788 64.29ZM273.228 64.5334C272.579 64.8003 272.433 65.7666 272.961 66.2955L273.281 66.6153H278H282.719L283.039 66.2955C283.458 65.8757 283.482 65.239 283.094 64.7885L282.831 64.4815L278.146 64.4592C275.57 64.4471 273.357 64.4805 273.228 64.5334Z" fill="#E49B00"/>
<path fill-rule="evenodd" clip-rule="evenodd" d="M517.62 25.1384C517.439 25.2159 516.825 25.7435 516.255 26.3108L515.219 27.3424L514.803 27.1651C513.485 26.6037 511.347 26.0395 509.514 25.7698C507.83 25.5219 504.522 25.5455 502.768 25.8178C500.243 26.2098 497.901 26.9322 495.705 27.9956C494.069 28.7879 492.865 29.5047 492.596 29.8457C492.326 30.1879 492.395 30.7622 492.741 31.0601C493.13 31.3948 493.571 31.3413 494.337 30.866C499.101 27.9125 504.977 26.7892 510.3 27.8144C511.251 27.9975 513.387 28.5757 513.644 28.7195C513.736 28.7711 509.768 32.7984 499.779 42.7927L485.784 56.7935L485.541 56.0553C485.201 55.0235 484.866 53.6238 484.668 52.4109C484.431 50.9599 484.433 47.6066 484.672 46.0362C485.131 43.0208 486.148 40.1841 487.734 37.4988C488.055 36.9553 488.291 36.4444 488.291 36.2942C488.291 35.9538 487.747 35.396 487.415 35.396C486.943 35.396 486.693 35.6097 486.161 36.468C484.476 39.1874 483.256 42.6695 482.744 46.2237C482.558 47.5109 482.586 51.2119 482.792 52.5515C483.073 54.3813 483.639 56.5089 484.187 57.7956L484.364 58.2117L483.333 59.2487C481.952 60.6366 481.751 61.1772 482.245 62.1656C482.579 62.8334 492.273 72.5198 492.882 72.7941C493.853 73.2314 494.384 73.0231 495.741 71.6729L496.772 70.6464L497.474 70.9326C497.86 71.0901 498.676 71.367 499.286 71.5481C508.444 74.2646 518.359 71.1791 524.31 63.7603C527.91 59.2742 529.679 53.9542 529.489 48.1923C529.397 45.4292 528.907 42.9641 527.977 40.6001L527.646 39.7576L528.673 38.7252C530.023 37.3675 530.231 36.8364 529.794 35.8647C529.52 35.2553 519.838 25.5561 519.171 25.2221C518.642 24.9577 518.108 24.9288 517.62 25.1384ZM510.897 53.887L493.679 71.113L488.783 66.2151L483.887 61.3173L501.104 44.0913L518.322 26.8654L523.218 31.7633L528.114 36.6611L510.897 53.887ZM506.565 31.1542C506.346 31.2644 506.197 31.4312 506.11 31.6638C505.993 31.9735 505.998 32.0468 506.154 32.3669C506.279 32.6236 506.42 32.7538 506.653 32.8292C507.857 33.2184 508.514 31.6073 507.35 31.1206C506.958 30.9567 506.957 30.9567 506.565 31.1542ZM501.784 31.4316C500.741 31.9655 501.342 33.4505 502.474 33.1375C503.176 32.9436 503.412 32.1749 502.932 31.6474C502.603 31.2865 502.212 31.2129 501.784 31.4316ZM489.381 32.362C489.04 32.7038 489.035 33.3022 489.371 33.6385C489.765 34.0331 490.282 34.0351 490.673 33.6433C491.014 33.3021 491.012 32.7063 490.668 32.362C490.479 32.1729 490.327 32.1149 490.024 32.1149C489.721 32.1149 489.57 32.1729 489.381 32.362ZM497.239 33.0675C496.661 33.3856 496.545 34.1059 496.998 34.5595C497.686 35.2482 498.903 34.4936 498.598 33.5676C498.541 33.3958 498.393 33.1885 498.269 33.1069C498.008 32.9363 497.512 32.9173 497.239 33.0675ZM512.351 35.4484C512.025 35.6257 511.904 35.8566 511.904 36.3034C511.904 36.6477 512.02 36.7765 515.113 39.8719L518.321 43.0832H518.735C519.139 43.0832 519.178 43.0543 520.313 41.9348C520.953 41.3031 521.54 40.6653 521.618 40.5173C521.996 39.7957 521.244 38.9481 520.482 39.2377C520.334 39.294 519.871 39.6747 519.452 40.0838L518.69 40.8276L516.07 38.1994C514.629 36.7538 513.336 35.5107 513.197 35.4367C512.881 35.2688 512.677 35.2716 512.351 35.4484ZM493.481 35.8629C492.895 36.0997 492.694 36.9473 493.108 37.4297C493.296 37.6481 493.409 37.6928 493.772 37.6928C494.148 37.6928 494.248 37.6496 494.483 37.3866C495.174 36.6134 494.428 35.48 493.481 35.8629ZM490.575 39.7471C489.926 40.0345 489.763 40.8207 490.251 41.3092C491.108 42.166 492.416 40.8851 491.594 39.9944C491.279 39.6532 490.962 39.5761 490.575 39.7471ZM507.29 40.5113C506.986 40.6766 506.75 41.0939 506.75 41.4685C506.75 41.678 509.427 47.8351 510.41 49.8878C510.618 50.3211 510.92 50.5217 511.346 50.5096C511.752 50.4979 512.055 50.272 512.183 49.8859C512.282 49.586 512.258 49.4811 511.917 48.6873L511.542 47.8174L512.864 46.4871L514.186 45.1569L514.521 45.3046C515.824 45.8795 515.932 45.9103 516.265 45.8003C516.682 45.6626 516.87 45.3859 516.87 44.908C516.87 44.6097 516.813 44.4716 516.612 44.2867C516.228 43.9322 508.263 40.3636 507.866 40.3683C507.69 40.3704 507.431 40.4347 507.29 40.5113ZM526.566 42.2454C527.744 45.8902 527.953 49.7689 527.174 53.489C525.485 61.5519 519.158 68.0777 511.147 70.0202C509.246 70.4809 508.254 70.5928 506.047 70.5953C503.339 70.5984 501.677 70.346 499.263 69.5653L498.195 69.2199L512.194 55.214C519.893 47.5109 526.201 41.2083 526.212 41.2083C526.222 41.2083 526.381 41.6749 526.566 42.2454ZM510.234 43.3557C510.669 43.5571 511.316 43.8536 511.671 44.0146L512.316 44.3071L511.528 45.1C511.094 45.5361 510.709 45.8619 510.673 45.8239C510.636 45.786 510.438 45.3753 510.233 44.9112C510.028 44.4472 509.751 43.8249 509.618 43.5285C509.485 43.2321 509.391 42.9894 509.409 42.9894C509.427 42.9894 509.798 43.1542 510.234 43.3557ZM488.694 44.3743C488.229 44.7401 488.195 45.4971 488.626 45.9019C489.211 46.4517 490.165 45.9774 490.165 45.1369C490.165 44.386 489.27 43.9217 488.694 44.3743ZM502.018 45.7469C501.728 46.037 501.64 46.3924 501.778 46.7237C501.942 47.1218 508.054 53.1821 508.368 53.2591C508.683 53.3362 509.143 53.1611 509.331 52.8928C509.406 52.7852 509.467 52.5281 509.467 52.3213C509.467 51.9522 509.408 51.8858 506.257 48.7329L503.046 45.5206H502.645C502.346 45.5206 502.186 45.5781 502.018 45.7469ZM522.8 47.0875C522.685 47.1089 522.485 47.2535 522.355 47.4088C521.817 48.0486 522.269 48.9892 523.115 48.9892C523.433 48.9892 523.991 48.4314 523.991 48.1141C523.991 47.4398 523.442 46.9666 522.8 47.0875ZM488.328 49.3079C487.689 49.9477 488.116 50.9169 489.026 50.891C489.916 50.8658 490.199 49.5353 489.402 49.1228C488.981 48.9051 488.679 48.9572 488.328 49.3079ZM499.052 49.2136C498.384 49.4524 497.883 49.8292 496.888 50.842C495.917 51.8309 495.881 51.8819 495.881 52.2782V52.6892L499.092 55.9015L502.302 59.1138H502.703C503.337 59.1138 503.772 58.5504 503.617 57.9306C503.583 57.7954 503.104 57.221 502.552 56.6541L501.55 55.6234L502.112 55.6791C502.421 55.7096 503.437 55.7826 504.369 55.8411C505.882 55.936 506.094 55.9312 506.357 55.7952C506.519 55.7116 506.694 55.5621 506.747 55.4628C506.915 55.1503 506.86 54.6435 506.631 54.3769C506.39 54.097 505.976 54.0276 503.817 53.9057C502.763 53.8463 502.625 53.8196 502.684 53.687C502.72 53.6038 502.832 53.3038 502.933 53.0203C503.462 51.5306 502.522 49.6741 501.011 49.2253C500.43 49.0527 499.518 49.0471 499.052 49.2136ZM500.804 51.2711C501.429 51.8968 501.328 52.5493 500.466 53.4378L499.916 54.0046L499.048 53.1389L498.181 52.2732L498.647 51.7923C499.276 51.1434 499.594 50.9586 500.083 50.9582C500.421 50.9579 500.545 51.0118 500.804 51.2711ZM522.435 51.8899C522.096 52.0328 521.836 52.4511 521.836 52.8526C521.836 53.5849 522.669 54.0268 523.287 53.6219C523.562 53.4415 523.746 52.9281 523.666 52.563C523.551 52.0415 522.908 51.6899 522.435 51.8899ZM492.295 55.4342C491.322 56.401 490.462 57.3131 490.384 57.4611C490.215 57.7809 490.28 58.272 490.518 58.4795C491.092 58.9803 491.475 58.909 492.285 58.151L492.895 57.5806L495.63 60.3159C498.307 62.9932 498.373 63.0511 498.742 63.0511C498.949 63.0511 499.207 62.9895 499.314 62.9142C499.582 62.7262 499.757 62.2661 499.68 61.9514C499.638 61.7812 498.682 60.7538 496.904 58.9696L494.191 56.2473L494.532 55.9228C495.453 55.0464 495.637 54.4493 495.138 53.9505C494.921 53.7333 494.782 53.6765 494.465 53.6765C494.071 53.6765 494.037 53.7043 492.295 55.4342ZM520.559 56.5612C519.942 57.0608 520.066 58.0068 520.784 58.2799C521.35 58.4949 522.023 57.9691 522.023 57.3127C522.023 56.5747 521.116 56.1093 520.559 56.5612ZM517.563 60.5574C517.31 60.8109 517.245 60.9501 517.247 61.2371C517.252 62.1396 518.297 62.514 518.879 61.822C519.406 61.1949 519.012 60.2387 518.226 60.2387C517.96 60.2387 517.81 60.3105 517.563 60.5574ZM513.811 63.3254C513.019 63.8084 513.332 65.0197 514.249 65.0197C515.157 65.0197 515.62 64.0363 515.003 63.4189C514.675 63.0907 514.25 63.0575 513.811 63.3254ZM509.497 64.8429C508.813 65.0385 508.601 65.8123 509.083 66.352C509.305 66.6003 509.424 66.6561 509.735 66.6561C510.218 66.6561 510.613 66.3719 510.718 65.9482C510.9 65.214 510.251 64.6269 509.497 64.8429ZM504.307 65.3875C503.624 66.0709 504.329 67.1503 505.286 66.886C505.953 66.7017 506.167 65.8149 505.659 65.3434C505.289 65.0004 504.673 65.0206 504.307 65.3875Z" fill="#E49B00"/>
<path fill-rule="evenodd" clip-rule="evenodd" d="M710.552 25.0839C710.451 25.1253 710.285 25.251 710.184 25.3634C710.001 25.5665 710 25.697 710 48.529V71.4905L710.255 71.7452L710.51 72H728.533H746.557L746.811 71.7452L747.067 71.4905V63.7297V55.9689L746.814 55.7162C746.437 55.3403 745.899 55.3594 745.54 55.7616L745.273 56.0596V63.1338V70.2081H728.533H711.794V48.5215V26.8349H723.061H734.328L734.329 31.6822C734.329 34.3483 734.355 36.6844 734.387 36.8735C734.418 37.0627 734.547 37.3212 734.674 37.4478L734.905 37.6782H740.089H745.273V43.014C745.273 46.7628 745.304 48.4095 745.376 48.5505C745.542 48.8745 745.848 49.0688 746.193 49.0688C746.538 49.0688 746.844 48.8745 747.01 48.5505C747.082 48.4089 747.113 46.6285 747.113 42.504C747.113 37.6013 747.091 36.6182 746.981 36.4101C746.821 36.1101 735.93 25.2426 735.645 25.0985C735.404 24.9772 710.848 24.9629 710.552 25.0839ZM752.703 25.1571C752.507 25.2781 752.114 26.0285 750.909 28.5776L749.366 31.843V51.1935V70.5441L749.644 70.994C749.817 71.2728 750.094 71.5495 750.373 71.7219L750.823 72H753.183H755.543L755.993 71.7219C756.272 71.5495 756.549 71.2728 756.722 70.994L757 70.5441V51.1935V31.843L755.455 28.5749C754.196 25.9119 753.861 25.2781 753.647 25.1519C753.317 24.957 753.023 24.9586 752.703 25.1571ZM740.122 32.0268L743.939 35.8403H740.099H736.259V32.0268C736.259 29.9293 736.27 28.2132 736.283 28.2132C736.296 28.2132 738.023 29.9293 740.122 32.0268ZM753.945 29.7065L754.642 31.1998L753.913 31.2264C753.511 31.2411 752.855 31.2411 752.453 31.2264L751.724 31.1998L752.421 29.7065C752.805 28.8853 753.147 28.2132 753.183 28.2132C753.218 28.2132 753.561 28.8853 753.945 29.7065ZM755.206 48.8431V64.6027H753.183H751.159V48.8431V33.0835H753.183H755.206V48.8431ZM717.174 34.8245C716.589 35.0639 716.433 35.8307 716.879 36.2768L717.132 36.5295L720.004 36.5565C721.584 36.5713 722.973 36.5594 723.091 36.5298C723.21 36.5003 723.406 36.3684 723.528 36.2367C723.924 35.8103 723.775 35.1201 723.228 34.8403C722.991 34.7191 717.467 34.7048 717.174 34.8245ZM726.05 34.8546C725.704 35.0265 725.468 35.5659 725.594 35.8976C725.819 36.4891 726.342 36.7144 726.864 36.4448C727.203 36.2696 727.338 36.0457 727.338 35.6565C727.338 35.2721 727.204 35.0438 726.88 34.8764C726.555 34.7088 726.354 34.7034 726.05 34.8546ZM717.174 40.338C716.589 40.5775 716.433 41.3443 716.879 41.7904L717.132 42.0431L728.487 42.0671L739.841 42.0911L740.141 41.8238C740.389 41.6023 740.44 41.4901 740.44 41.1701C740.44 40.8503 740.389 40.7378 740.142 40.5175L739.843 40.2512L728.601 40.2569C722.417 40.2602 717.275 40.2966 717.174 40.338ZM717.174 45.8515C716.589 46.091 716.433 46.8579 716.879 47.3039L717.132 47.5566L728.487 47.5807L739.841 47.6047L740.141 47.3374C740.389 47.1159 740.44 47.0037 740.44 46.6836C740.44 46.3638 740.389 46.2514 740.142 46.031L739.843 45.7647L728.601 45.7705C722.417 45.7737 717.275 45.8102 717.174 45.8515ZM717.174 51.3651C716.589 51.6046 716.433 52.3714 716.879 52.8175L717.132 53.0702L728.487 53.0942L739.841 53.1182L740.141 52.8509C740.389 52.6294 740.44 52.5172 740.44 52.1972C740.44 51.8774 740.389 51.7649 740.142 51.5446L739.843 51.2783L728.601 51.284C722.417 51.2873 717.275 51.3237 717.174 51.3651ZM745.861 51.3648C745.569 51.4878 745.273 51.9126 745.273 52.2081C745.273 52.3672 745.378 52.587 745.54 52.7679C746.093 53.3867 747.062 53.0234 747.062 52.1972C747.062 51.5868 746.408 51.1339 745.861 51.3648ZM717.174 56.8786C716.589 57.1181 716.433 57.885 716.879 58.331L717.132 58.5837L728.487 58.6078L739.841 58.6318L740.141 58.3644C740.389 58.143 740.44 58.0308 740.44 57.7107C740.44 57.3909 740.389 57.2785 740.142 57.0581L739.843 56.7918L728.601 56.7976C722.417 56.8008 717.275 56.8373 717.174 56.8786ZM717.174 62.3922C716.589 62.6317 716.433 63.3985 716.879 63.8445L717.132 64.0972L728.487 64.1213L739.841 64.1453L740.141 63.878C740.389 63.6565 740.44 63.5443 740.44 63.2243C740.44 62.9045 740.389 62.792 740.142 62.5717L739.843 62.3053L728.601 62.3111C722.417 62.3143 717.275 62.3508 717.174 62.3922ZM755.206 68.214C755.206 69.4709 755.174 70.0197 755.096 70.0978C754.94 70.2536 751.426 70.2536 751.27 70.0978C751.192 70.0197 751.159 69.4709 751.159 68.214V66.4405H753.183H755.206V68.214Z" fill="#E49B00"/>
</svg>
