<svg width="67" height="77" viewBox="0 0 67 77" fill="none" xmlns="http://www.w3.org/2000/svg">
<path fill-rule="evenodd" clip-rule="evenodd" d="M0 1.37846C0 2.1369 0.464672 7.90459 1.03287 14.1953C1.60107 20.4864 2.61802 31.9106 3.29252 39.5822C5.51339 64.8394 5.90293 68.8559 6.15569 69.1034C6.29315 69.238 12.4613 71.0698 19.8628 73.1743L33.3203 77L46.8668 73.1851C54.3171 71.0869 60.5299 69.2527 60.6726 69.109C60.8689 68.9113 63.9928 34.9112 66.9093 1.22398L67 0.177843L33.5 0.0889214L0 0V1.37846ZM54.4743 15.7827C54.3926 16.5976 54.217 18.4416 54.0841 19.88L53.8424 22.4954L37.6329 22.586C22.4192 22.6711 21.4338 22.714 21.5962 23.2835C21.691 23.6172 21.8756 25.5773 22.0061 27.6389L22.243 31.3875H37.6097C46.0617 31.3875 52.9764 31.4266 52.9761 31.4747C52.9757 31.5228 52.5096 36.8187 51.9404 43.2437C51.3715 49.6687 50.902 55.3178 50.8971 55.7973C50.8926 56.2768 50.7524 56.886 50.5859 57.1507C50.419 57.4157 46.4724 58.6937 41.8149 59.9913L33.3473 62.3499L24.8011 59.994C20.1007 58.6982 16.1922 57.575 16.1153 57.4976C15.8269 57.2068 14.9536 44.4523 15.2047 44.1908C15.3487 44.0402 17.2455 43.9617 19.4193 44.0164L23.3721 44.1155L23.6609 47.4282C23.8198 49.2502 23.9957 50.787 24.0514 50.8435C24.1072 50.9 26.2207 51.5001 28.7477 52.177L33.3425 53.4079L37.8372 52.1749C40.3094 51.4966 42.4216 50.8519 42.5303 50.742C42.7218 50.5495 43.5569 43.0233 43.6047 41.0643L43.6279 40.1053H29.1064H14.5852L14.3955 38.6233C14.2913 37.8083 13.8134 32.5121 13.3332 26.8543C12.8529 21.1964 12.3931 16.0575 12.3114 15.434L12.1625 14.3007H33.3927H54.6228L54.4743 15.7827Z" fill="#FF5722"/>
</svg>
