<svg width="16" height="17" viewBox="0 0 16 17" fill="none" xmlns="http://www.w3.org/2000/svg">
<path d="M7.97331 0.328125C4.50664 0.328125 1.54664 2.56813 0.453308 5.66146H15.5466C14.4266 2.56813 11.4666 0.328125 7.97331 0.328125Z" fill="#F2B200"/>
<path d="M7.97331 16.328C11.4666 16.328 14.4266 14.1146 15.52 10.9946H0.453308C1.54664 14.1146 4.50664 16.328 7.97331 16.328Z" fill="#83BF4F"/>
<path d="M0.453333 5.66162C0.16 6.48829 0 7.39495 0 8.32829C0 9.26162 0.16 10.1683 0.453333 10.995H15.5467C15.84 10.1683 16 9.26162 16 8.32829C16 7.39495 15.84 6.48829 15.5467 5.66162H0.453333Z" fill="white"/>
<path d="M7.9733 10.4615C9.15151 10.4615 10.1066 9.50637 10.1066 8.32816C10.1066 7.14995 9.15151 6.19482 7.9733 6.19482C6.79509 6.19482 5.83997 7.14995 5.83997 8.32816C5.83997 9.50637 6.79509 10.4615 7.9733 10.4615Z" fill="#428BC1"/>
<path d="M7.97336 10.1948C9.00429 10.1948 9.84002 9.35902 9.84002 8.32809C9.84002 7.29716 9.00429 6.46143 7.97336 6.46143C6.94242 6.46143 6.10669 7.29716 6.10669 8.32809C6.10669 9.35902 6.94242 10.1948 7.97336 10.1948Z" fill="white"/>
<path d="M7.28 6.72809C7.35364 6.72809 7.41333 6.6684 7.41333 6.59476C7.41333 6.52112 7.35364 6.46143 7.28 6.46143C7.20636 6.46143 7.14667 6.52112 7.14667 6.59476C7.14667 6.6684 7.20636 6.72809 7.28 6.72809Z" fill="#428BC1"/>
<path d="M6.85337 6.96833C6.927 6.96833 6.9867 6.90863 6.9867 6.83499C6.9867 6.76136 6.927 6.70166 6.85337 6.70166C6.77973 6.70166 6.72003 6.76136 6.72003 6.83499C6.72003 6.90863 6.77973 6.96833 6.85337 6.96833Z" fill="#428BC1"/>
<path d="M6.50675 7.31501C6.58038 7.31501 6.64008 7.25531 6.64008 7.18167C6.64008 7.10804 6.58038 7.04834 6.50675 7.04834C6.43311 7.04834 6.37341 7.10804 6.37341 7.18167C6.37341 7.25531 6.43311 7.31501 6.50675 7.31501Z" fill="#428BC1"/>
<path d="M6.2667 7.74128C6.34033 7.74128 6.40003 7.68158 6.40003 7.60794C6.40003 7.5343 6.34033 7.47461 6.2667 7.47461C6.19306 7.47461 6.13336 7.5343 6.13336 7.60794C6.13336 7.68158 6.19306 7.74128 6.2667 7.74128Z" fill="#428BC1"/>
<path d="M6.13339 8.22126C6.20703 8.22126 6.26673 8.16156 6.26673 8.08792C6.26673 8.01429 6.20703 7.95459 6.13339 7.95459C6.05976 7.95459 6.00006 8.01429 6.00006 8.08792C6.00006 8.16156 6.05976 8.22126 6.13339 8.22126Z" fill="#428BC1"/>
<path d="M6.13339 8.70124C6.20703 8.70124 6.26673 8.64154 6.26673 8.5679C6.26673 8.49427 6.20703 8.43457 6.13339 8.43457C6.05976 8.43457 6.00006 8.49427 6.00006 8.5679C6.00006 8.64154 6.05976 8.70124 6.13339 8.70124Z" fill="#428BC1"/>
<path d="M6.2667 9.18122C6.34033 9.18122 6.40003 9.12152 6.40003 9.04788C6.40003 8.97425 6.34033 8.91455 6.2667 8.91455C6.19306 8.91455 6.13336 8.97425 6.13336 9.04788C6.13336 9.12152 6.19306 9.18122 6.2667 9.18122Z" fill="#428BC1"/>
<path d="M6.50675 9.60846C6.58038 9.60846 6.64008 9.54877 6.64008 9.47513C6.64008 9.40149 6.58038 9.3418 6.50675 9.3418C6.43311 9.3418 6.37341 9.40149 6.37341 9.47513C6.37341 9.54877 6.43311 9.60846 6.50675 9.60846Z" fill="#428BC1"/>
<path d="M6.85337 9.95465C6.927 9.95465 6.9867 9.89496 6.9867 9.82132C6.9867 9.74768 6.927 9.68799 6.85337 9.68799C6.77973 9.68799 6.72003 9.74768 6.72003 9.82132C6.72003 9.89496 6.77973 9.95465 6.85337 9.95465Z" fill="#428BC1"/>
<path d="M7.28 10.1944C7.35364 10.1944 7.41333 10.1347 7.41333 10.0611C7.41333 9.98743 7.35364 9.92773 7.28 9.92773C7.20636 9.92773 7.14667 9.98743 7.14667 10.0611C7.14667 10.1347 7.20636 10.1944 7.28 10.1944Z" fill="#428BC1"/>
<path d="M7.73337 10.3013C7.80701 10.3013 7.8667 10.2416 7.8667 10.168C7.8667 10.0944 7.80701 10.0347 7.73337 10.0347C7.65973 10.0347 7.60004 10.0944 7.60004 10.168C7.60004 10.2416 7.65973 10.3013 7.73337 10.3013Z" fill="#428BC1"/>
<path d="M8.10675 10.1947C8.10675 10.1147 8.16008 10.0613 8.21342 10.0347C8.29342 10.0347 8.34675 10.088 8.37342 10.1413C8.37342 10.2213 8.32008 10.2747 8.26675 10.3013C8.16008 10.328 8.10675 10.2747 8.10675 10.1947Z" fill="#428BC1"/>
<path d="M8.69339 10.1944C8.76703 10.1944 8.82673 10.1347 8.82673 10.0611C8.82673 9.98743 8.76703 9.92773 8.69339 9.92773C8.61975 9.92773 8.56006 9.98743 8.56006 10.0611C8.56006 10.1347 8.61975 10.1944 8.69339 10.1944Z" fill="#428BC1"/>
<path d="M9.12009 9.95465C9.19373 9.95465 9.25342 9.89496 9.25342 9.82132C9.25342 9.74768 9.19373 9.68799 9.12009 9.68799C9.04645 9.68799 8.98676 9.74768 8.98676 9.82132C8.98676 9.89496 9.04645 9.95465 9.12009 9.95465Z" fill="#428BC1"/>
<path d="M9.46671 9.60846C9.54035 9.60846 9.60004 9.54877 9.60004 9.47513C9.60004 9.40149 9.54035 9.3418 9.46671 9.3418C9.39307 9.3418 9.33337 9.40149 9.33337 9.47513C9.33337 9.54877 9.39307 9.60846 9.46671 9.60846Z" fill="#428BC1"/>
<path d="M9.7067 9.18122C9.78034 9.18122 9.84003 9.12152 9.84003 9.04788C9.84003 8.97425 9.78034 8.91455 9.7067 8.91455C9.63306 8.91455 9.57336 8.97425 9.57336 9.04788C9.57336 9.12152 9.63306 9.18122 9.7067 9.18122Z" fill="#428BC1"/>
<path d="M9.84006 8.70124C9.9137 8.70124 9.97339 8.64154 9.97339 8.5679C9.97339 8.49427 9.9137 8.43457 9.84006 8.43457C9.76642 8.43457 9.70673 8.49427 9.70673 8.5679C9.70673 8.64154 9.76642 8.70124 9.84006 8.70124Z" fill="#428BC1"/>
<path d="M9.84005 8.22126C9.76005 8.22126 9.70672 8.16792 9.68005 8.11459C9.68005 8.03459 9.73339 7.98126 9.78672 7.95459C9.86672 7.95459 9.92005 8.00792 9.94672 8.06126C9.97339 8.14126 9.92005 8.19459 9.84005 8.22126Z" fill="#428BC1"/>
<path d="M9.7067 7.74128C9.78034 7.74128 9.84003 7.68158 9.84003 7.60794C9.84003 7.5343 9.78034 7.47461 9.7067 7.47461C9.63306 7.47461 9.57336 7.5343 9.57336 7.60794C9.57336 7.68158 9.63306 7.74128 9.7067 7.74128Z" fill="#428BC1"/>
<path d="M9.46671 7.31501C9.54035 7.31501 9.60004 7.25531 9.60004 7.18167C9.60004 7.10804 9.54035 7.04834 9.46671 7.04834C9.39307 7.04834 9.33337 7.10804 9.33337 7.18167C9.33337 7.25531 9.39307 7.31501 9.46671 7.31501Z" fill="#428BC1"/>
<path d="M9.12009 6.96833C9.19373 6.96833 9.25342 6.90863 9.25342 6.83499C9.25342 6.76136 9.19373 6.70166 9.12009 6.70166C9.04645 6.70166 8.98676 6.76136 8.98676 6.83499C8.98676 6.90863 9.04645 6.96833 9.12009 6.96833Z" fill="#428BC1"/>
<path d="M8.8267 6.64823C8.80004 6.72823 8.72004 6.75489 8.64004 6.72823C8.56004 6.70156 8.53337 6.62156 8.56004 6.54156C8.5867 6.46156 8.6667 6.43489 8.7467 6.46156C8.8267 6.51489 8.85337 6.59489 8.8267 6.64823ZM8.3467 6.48823C8.3467 6.56823 8.2667 6.62156 8.1867 6.59489C8.1067 6.59489 8.05337 6.51489 8.08004 6.43489C8.08004 6.35489 8.16004 6.30156 8.24004 6.32823C8.32004 6.35489 8.37337 6.43489 8.3467 6.48823ZM7.8667 6.46156C7.8667 6.54156 7.81337 6.59489 7.76004 6.62156C7.68004 6.62156 7.6267 6.56823 7.60004 6.51489C7.60004 6.43489 7.65337 6.38156 7.7067 6.35489C7.7867 6.32823 7.8667 6.38156 7.8667 6.46156Z" fill="#428BC1"/>
<path d="M7.97343 8.72773C8.19434 8.72773 8.37343 8.54865 8.37343 8.32773C8.37343 8.10682 8.19434 7.92773 7.97343 7.92773C7.75251 7.92773 7.57343 8.10682 7.57343 8.32773C7.57343 8.54865 7.75251 8.72773 7.97343 8.72773Z" fill="#428BC1"/>
<path d="M7.97341 6.46143L7.92007 7.60809L7.97341 8.32809L8.05341 7.60809L7.97341 6.46143ZM7.49341 6.51476L7.73341 7.66143L7.97341 8.32809L7.86674 7.60809L7.49341 6.51476Z" fill="#428BC1"/>
<path d="M7.04008 6.70166L7.57341 7.74166L7.97341 8.32833L7.68008 7.66166L7.04008 6.70166ZM6.66675 6.99499L7.44008 7.87499L7.97341 8.32833L7.52008 7.76833L6.66675 6.99499Z" fill="#428BC1"/>
<path d="M6.37341 7.39453L7.33341 8.03453L7.97341 8.32786L7.38675 7.9012L6.37341 7.39453Z" fill="#428BC1"/>
<path d="M6.18675 7.84814L7.28008 8.19481L7.97342 8.32814L7.30675 8.08814L6.18675 7.84814ZM6.10675 8.32814L7.28008 8.38148L7.97342 8.32814L7.28008 8.27481L6.10675 8.32814Z" fill="#428BC1"/>
<path d="M6.18671 8.80812L7.30671 8.56813L7.97337 8.32812L7.28004 8.46146L6.18671 8.80812ZM6.37337 9.26146L7.38671 8.75479L7.97337 8.32812L7.33337 8.62146L6.37337 9.26146Z" fill="#428BC1"/>
<path d="M6.66675 9.63479L7.52008 8.88812L7.97341 8.32812L7.44008 8.78146L6.66675 9.63479ZM7.04008 9.95479L7.68008 8.96813L7.97341 8.32812L7.57341 8.91479L7.04008 9.95479Z" fill="#428BC1"/>
<path d="M7.49341 10.1415L7.86674 9.04813L7.97341 8.32812L7.73341 8.99479L7.49341 10.1415ZM7.97341 10.1948L8.05341 9.04813L7.97341 8.32812L7.92007 9.04813L7.97341 10.1948ZM8.45341 10.1415L8.24007 8.99479L7.97341 8.32812L8.10674 9.04813L8.45341 10.1415Z" fill="#428BC1"/>
<path d="M8.90672 9.95479L8.40006 8.91479L7.97339 8.32812L8.29339 8.99479L8.90672 9.95479ZM9.30672 9.63479L8.53339 8.78146L7.97339 8.32812L8.45339 8.88812L9.30672 9.63479Z" fill="#428BC1"/>
<path d="M9.60006 9.26148L8.64006 8.62148L7.97339 8.32814L8.56006 8.75481L9.60006 9.26148ZM9.78672 8.80814L8.69339 8.46148L7.97339 8.32814L8.66672 8.56814L9.78672 8.80814ZM9.84006 8.32814L8.69339 8.24814L7.97339 8.32814L8.69339 8.38148L9.84006 8.32814ZM9.78672 7.84814L8.66672 8.08814L7.97339 8.32814L8.69339 8.19481L9.78672 7.84814Z" fill="#428BC1"/>
<path d="M9.60006 7.39482L8.56006 7.90148L7.97339 8.32815L8.64006 8.03482L9.60006 7.39482ZM9.30672 7.02148L8.45339 7.76815L7.97339 8.32815L8.53339 7.87482L9.30672 7.02148Z" fill="#428BC1"/>
<path d="M8.90672 6.70166L8.29339 7.68833L7.97339 8.32833L8.40006 7.74166L8.90672 6.70166Z" fill="#428BC1"/>
<path d="M8.48006 6.51465L8.10672 7.60798L7.97339 8.32798L8.24006 7.66131L8.48006 6.51465Z" fill="#428BC1"/>
</svg>
