<svg width="1080" height="96" viewBox="0 0 1080 96" fill="none" xmlns="http://www.w3.org/2000/svg">
<path d="M3.69245 19.5872L2.99831 20.307L3.01138 20.3196L3.0249 20.3317L3.69245 19.5872ZM3.69245 4.0817L4.3729 4.8145L4.37387 4.8136L3.69245 4.0817ZM20.8424 4.0817L20.1483 4.80155L20.1613 4.81415L20.1749 4.82627L20.8424 4.0817ZM20.8424 19.5872L21.5229 20.3199L21.5238 20.319L20.8424 19.5872ZM22.3695 29.4543H23.3695V28.4543H22.3695V29.4543ZM22.3695 95V96H23.3695V95H22.3695ZM2.28286 95H1.28286L1.28286 96H2.28286L2.28286 95ZM2.28286 29.4543V28.4543H1.28286V29.4543H2.28286ZM12.3849 21.6413C9.06653 21.6413 6.41929 20.6888 4.35999 18.8426L3.0249 20.3317C5.5076 22.5576 8.65533 23.6413 12.3849 23.6413V21.6413ZM4.38658 18.8673C2.38993 16.942 1.40341 14.6178 1.40341 11.8344H-0.596587C-0.596587 15.1592 0.609585 18.0036 2.99831 20.307L4.38658 18.8673ZM1.40341 11.8344C1.40341 8.9654 2.39449 6.65159 4.3729 4.8145L3.012 3.34891C0.605023 5.58396 -0.596587 8.43863 -0.596587 11.8344H1.40341ZM4.37387 4.8136C6.43442 2.89515 9.07685 1.91013 12.3849 1.91013V-0.0898662C8.64501 -0.0898662 5.49248 1.0395 3.01103 3.34981L4.37387 4.8136ZM12.3849 1.91013C15.6084 1.91013 18.1669 2.89092 20.1483 4.80155L21.5365 3.36186C19.1326 1.04373 16.0527 -0.0898662 12.3849 -0.0898662V1.91013ZM20.1749 4.82627C22.2279 6.6669 23.2489 8.97743 23.2489 11.8344H25.2489C25.2489 8.4266 23.9989 5.56865 21.51 3.33713L20.1749 4.82627ZM23.2489 11.8344C23.2489 14.6059 22.2325 16.9266 20.161 18.8553L21.5238 20.319C23.9943 18.0189 25.2489 15.1711 25.2489 11.8344H23.2489ZM20.162 18.8544C18.1822 20.6927 15.6191 21.6413 12.3849 21.6413V23.6413C16.042 23.6413 19.1172 22.5538 21.5229 20.3199L20.162 18.8544ZM21.3695 29.4543L21.3695 95H23.3695L23.3695 29.4543H21.3695ZM22.3695 94H2.28286L2.28286 96H22.3695V94ZM3.28286 95L3.28286 29.4543H1.28286L1.28286 95H3.28286ZM2.28286 30.4543H22.3695V28.4543L2.28286 28.4543L2.28286 30.4543ZM51.7267 91.8284L51.2525 92.7089L51.2582 92.7119L51.7267 91.8284ZM39.6277 80.0819L38.7586 80.5766L38.7644 80.5866L39.6277 80.0819ZM39.7452 44.4898L40.6085 44.9945L40.6118 44.9888L39.7452 44.4898ZM51.9616 32.6258L52.4301 33.5093L52.4301 33.5093L51.9616 32.6258ZM86.7314 32.6258L86.2629 33.5093L86.2629 33.5093L86.7314 32.6258ZM98.9478 44.4898L98.0812 44.9888L98.0845 44.9945L98.9478 44.4898ZM98.8303 80.0819L97.9694 79.5731L97.967 79.5772L98.8303 80.0819ZM86.4964 91.8284L86.0334 90.9421L86.0279 90.945L86.4964 91.8284ZM78.8612 74.3261L78.1442 73.629L78.1391 73.6342L78.1342 73.6394L78.8612 74.3261ZM78.9787 50.1282L78.2415 50.8039L78.2465 50.8094L78.2516 50.8148L78.9787 50.1282ZM59.5968 50.1282L60.3245 50.8143L60.334 50.8039L59.5968 50.1282ZM59.4794 74.3261L58.732 74.9904L58.7371 74.9962L58.7422 75.0018L59.4794 74.3261ZM69.1116 94.9397C62.8372 94.9397 57.2056 93.602 52.1952 90.945L51.2582 92.7119C56.5847 95.5366 62.543 96.9397 69.1116 96.9397V94.9397ZM52.2008 90.948C47.2757 88.296 43.376 84.512 40.491 79.5772L38.7644 80.5866C41.831 85.8321 45.9972 89.8791 51.2526 92.7089L52.2008 90.948ZM40.4968 79.5872C37.6982 74.6708 36.2815 68.8952 36.2815 62.2271H34.2815C34.2815 69.185 35.7622 75.3126 38.7586 80.5766L40.4968 79.5872ZM36.2815 62.2271C36.2815 55.6442 37.7343 49.9108 40.6085 44.9945L38.8819 43.9851C35.8044 49.2492 34.2815 55.3407 34.2815 62.2271H36.2815ZM40.6118 44.9888C43.4956 39.98 47.4312 36.1602 52.4301 33.5093L51.4931 31.7424C46.155 34.5732 41.9463 38.6627 38.8786 43.9909L40.6118 44.9888ZM52.4301 33.5093C57.4405 30.8522 63.0721 29.5145 69.3465 29.5145V27.5145C62.778 27.5145 56.8196 28.9177 51.4931 31.7424L52.4301 33.5093ZM69.3465 29.5145C75.6209 29.5145 81.2524 30.8522 86.2629 33.5093L87.1999 31.7424C81.8734 28.9177 75.915 27.5145 69.3465 27.5145V29.5145ZM86.2629 33.5093C91.2617 36.1602 95.1973 39.98 98.0812 44.9888L99.8144 43.9909C96.7467 38.6627 92.538 34.5732 87.1999 31.7424L86.2629 33.5093ZM98.0845 44.9945C100.959 49.9108 102.411 55.6442 102.411 62.2271H104.411C104.411 55.3407 102.889 49.2492 99.8111 43.9851L98.0845 44.9945ZM102.411 62.2271C102.411 68.8052 100.922 74.5769 97.9694 79.5732L99.6912 80.5906C102.847 75.2499 104.411 69.1185 104.411 62.2271H102.411ZM97.967 79.5772C95.0865 84.5044 91.1143 88.2879 86.0334 90.9421L86.9595 92.7148C92.3722 89.8872 96.6225 85.8397 99.6936 80.5866L97.967 79.5772ZM86.0279 90.945C81.0175 93.602 75.3859 94.9397 69.1116 94.9397V96.9397C75.6801 96.9397 81.6384 95.5366 86.9649 92.7119L86.0279 90.945ZM69.1116 79.5548C73.2272 79.5548 76.739 78.0295 79.5882 75.0127L78.1342 73.6394C75.6583 76.261 72.6703 77.5548 69.1116 77.5548V79.5548ZM79.5782 75.0232C82.5546 71.9617 83.9725 67.6447 83.9725 62.2271H81.9725C81.9725 67.3031 80.6495 71.0521 78.1442 73.629L79.5782 75.0232ZM83.9725 62.2271C83.9725 56.8168 82.5978 52.5038 79.7057 49.4416L78.2516 50.8148C80.6846 53.3909 81.9725 57.1438 81.9725 62.2271H83.9725ZM79.7158 49.4525C76.9414 46.4259 73.4629 44.8994 69.3465 44.8994V46.8994C72.9045 46.8994 75.8474 48.1922 78.2415 50.8039L79.7158 49.4525ZM69.3465 44.8994C65.1582 44.8994 61.6384 46.4211 58.8597 49.4525L60.334 50.8039C62.7238 48.1969 65.7037 46.8994 69.3465 46.8994V44.8994ZM58.8693 49.4422C56.049 52.4334 54.7205 56.7527 54.7205 62.2271H56.7205C56.7205 57.0513 57.9763 53.3047 60.3244 50.8142L58.8693 49.4422ZM54.7205 62.2271C54.7205 67.6231 56.0093 71.9275 58.732 74.9904L60.2268 73.6617C57.9376 71.0863 56.7205 67.3248 56.7205 62.2271H54.7205ZM58.7422 75.0018C61.5166 78.0284 64.9951 79.5548 69.1116 79.5548V77.5548C65.5536 77.5548 62.6106 76.2621 60.2165 73.6503L58.7422 75.0018ZM127.811 93.0031L128.213 92.0873L128.213 92.0873L127.811 93.0031ZM117.239 85.0154L116.439 85.6155L116.446 85.6243L117.239 85.0154ZM112.893 73.5038V72.5038H111.816L111.896 73.5777L112.893 73.5038ZM132.745 73.5038L133.74 73.4009L133.647 72.5038H132.745V73.5038ZM135.916 79.0247L136.516 78.2247L136.516 78.2247L135.916 79.0247ZM148.603 79.7295L149.179 80.5465L149.188 80.5402L148.603 79.7295ZM147.78 71.7418L147.348 72.6434L147.363 72.6505L147.378 72.6571L147.78 71.7418ZM138.266 68.6877L138.508 67.7176L138.501 67.7157L138.493 67.7139L138.266 68.6877ZM126.519 65.2812L126.148 66.2097L126.158 66.2137L126.168 66.2176L126.519 65.2812ZM118.414 59.5254L117.653 60.1744L117.658 60.18L117.663 60.1855L118.414 59.5254ZM118.062 38.6166L117.233 38.0571L117.23 38.0619L118.062 38.6166ZM127.224 31.2162L126.819 30.3017L126.813 30.3046L127.224 31.2162ZM161.054 34.6227L160.399 35.3785L160.405 35.3838L161.054 34.6227ZM169.277 50.833V51.833H170.387L170.271 50.7289L169.277 50.833ZM150.717 50.833L149.726 50.9696L149.845 51.833H150.717V50.833ZM147.663 45.4296L147.034 46.2068L147.043 46.2139L147.051 46.2208L147.663 45.4296ZM135.681 44.8422L136.248 45.6663L136.265 45.6546L136.281 45.6422L135.681 44.8422ZM136.739 52.7124L136.306 53.6139L136.313 53.6172L136.32 53.6204L136.739 52.7124ZM146.136 55.5316L146.386 54.5633L146.369 54.5591L146.353 54.5554L146.136 55.5316ZM158 59.2905L157.62 60.2157L157.631 60.2199L157.641 60.2238L158 59.2905ZM165.988 65.1638L165.218 65.8018L165.227 65.8137L165.238 65.8254L165.988 65.1638ZM169.629 75.9706H170.629V75.962L170.629 75.9534L169.629 75.9706ZM166.34 86.3076L165.528 85.7243L165.525 85.7283L166.34 86.3076ZM157.06 93.3555L156.671 92.4345L156.664 92.4373L157.06 93.3555ZM143.082 94.9397C137.48 94.9397 132.53 93.9808 128.213 92.0873L127.41 93.9189C132.02 95.9409 137.25 96.9397 143.082 96.9397V94.9397ZM128.213 92.0873C123.88 90.1871 120.5 87.6216 118.033 84.4066L116.446 85.6243C119.147 89.144 122.815 91.9036 127.41 93.9189L128.213 92.0873ZM118.039 84.4154C115.568 81.1201 114.189 77.4649 113.89 73.4299L111.896 73.5777C112.223 78.0002 113.742 82.0194 116.439 85.6154L118.039 84.4154ZM112.893 74.5038L132.745 74.5038V72.5038L112.893 72.5038V74.5038ZM131.75 73.6067C132.015 76.1639 133.221 78.2534 135.316 79.8247L136.516 78.2247C134.853 76.9768 133.945 75.3857 133.74 73.4009L131.75 73.6067ZM135.316 79.8247C137.397 81.3849 139.927 82.1391 142.847 82.1391V80.1391C140.285 80.1391 138.195 79.4837 136.516 78.2247L135.316 79.8247ZM142.847 82.1391C145.455 82.1391 147.611 81.6537 149.179 80.5465L148.026 78.9125C146.932 79.6847 145.25 80.1391 142.847 80.1391V82.1391ZM149.188 80.5402C150.825 79.3581 151.717 77.7794 151.717 75.8531H149.717C149.717 77.0593 149.2 78.0648 148.017 78.9188L149.188 80.5402ZM151.717 75.8531C151.717 74.7302 151.421 73.7088 150.797 72.8345C150.178 71.9684 149.283 71.3104 148.183 70.8265L147.378 72.6571C148.236 73.0347 148.809 73.4926 149.169 73.997C149.524 74.4931 149.717 75.0966 149.717 75.8531H151.717ZM148.213 70.8403C146.159 69.8543 142.905 68.8167 138.508 67.7176L138.023 69.6579C142.397 70.7514 145.486 71.7499 147.348 72.6434L148.213 70.8403ZM138.493 67.7139C133.82 66.6235 129.949 65.4994 126.87 64.3449L126.168 66.2176C129.354 67.4124 133.314 68.5593 138.038 69.6616L138.493 67.7139ZM126.891 64.3528C123.907 63.1593 121.335 61.3339 119.165 58.8653L117.663 60.1855C120.035 62.8854 122.866 64.8972 126.148 66.2097L126.891 64.3528ZM119.175 58.8765C117.097 56.4402 116.008 53.1291 116.008 48.8361H114.008C114.008 53.4704 115.189 57.2856 117.653 60.1744L119.175 58.8765ZM116.008 48.8361C116.008 45.2695 116.97 42.0569 118.894 39.1713L117.23 38.0619C115.081 41.2844 114.008 44.8848 114.008 48.8361H116.008ZM118.89 39.176C120.885 36.2207 123.783 33.865 127.635 32.1278L126.813 30.3046C122.677 32.1697 119.467 34.7476 117.233 38.0571L118.89 39.176ZM127.628 32.1308C131.546 30.3982 136.218 29.5145 141.672 29.5145V27.5145C136.006 27.5145 131.046 28.432 126.819 30.3017L127.628 32.1308ZM141.672 29.5145C149.733 29.5145 155.934 31.5087 160.399 35.3784L161.709 33.867C156.777 29.5925 150.057 27.5145 141.672 27.5145V29.5145ZM160.405 35.3838C164.971 39.2756 167.602 44.4356 168.282 50.9371L170.271 50.7289C169.542 43.761 166.691 38.1142 161.703 33.8617L160.405 35.3838ZM169.277 49.833H150.717V51.833H169.277V49.833ZM151.708 50.6963C151.361 48.1811 150.216 46.1389 148.274 44.6383L147.051 46.2208C148.555 47.3828 149.447 48.9428 149.726 50.9696L151.708 50.6963ZM148.292 44.6523C146.423 43.139 143.986 42.4326 141.085 42.4326V44.4326C143.665 44.4326 145.614 45.0576 147.034 46.2068L148.292 44.6523ZM141.085 42.4326C138.622 42.4326 136.575 42.9222 135.081 44.0422L136.281 45.6422C137.294 44.8828 138.849 44.4326 141.085 44.4326V42.4326ZM135.115 44.0182C133.581 45.0728 132.802 46.6 132.802 48.4837H134.802C134.802 47.2349 135.276 46.3345 136.248 45.6663L135.115 44.0182ZM132.802 48.4837C132.802 49.607 133.098 50.6326 133.715 51.5208C134.326 52.4007 135.212 53.0887 136.306 53.6139L137.171 51.8109C136.308 51.3964 135.725 50.9097 135.358 50.38C134.995 49.8587 134.802 49.2398 134.802 48.4837H132.802ZM136.32 53.6204C138.455 54.6061 141.672 55.5641 145.919 56.5078L146.353 54.5554C142.142 53.6197 139.094 52.6982 137.158 51.8045L136.32 53.6204ZM145.886 56.4999C150.717 57.7466 154.624 58.9864 157.62 60.2157L158.379 58.3653C155.268 57.0886 151.265 55.8225 146.386 54.5633L145.886 56.4999ZM157.641 60.2238C160.521 61.3316 163.046 63.1811 165.218 65.8018L166.758 64.5257C164.387 61.6647 161.587 59.5987 158.359 58.3571L157.641 60.2238ZM165.238 65.8254C167.39 68.2646 168.554 71.6155 168.629 75.9878L170.629 75.9534C170.548 71.2416 169.284 67.388 166.737 64.5021L165.238 65.8254ZM168.629 75.9706C168.629 79.6032 167.596 82.8439 165.528 85.7243L167.152 86.8908C169.47 83.663 170.629 80.0124 170.629 75.9706H168.629ZM165.525 85.7283C163.539 88.5238 160.608 90.7686 156.671 92.4345L157.45 94.2765C161.657 92.4967 164.913 90.0429 167.155 86.8868L165.525 85.7283ZM156.664 92.4373C152.82 94.0955 148.3 94.9397 143.082 94.9397V96.9397C148.513 96.9397 153.313 96.0611 157.456 94.2737L156.664 92.4373ZM185.677 19.5872L184.983 20.307L184.996 20.3196L185.009 20.3317L185.677 19.5872ZM185.677 4.0817L186.357 4.8145L186.358 4.8136L185.677 4.0817ZM202.827 4.0817L202.133 4.80155L202.146 4.81415L202.159 4.82627L202.827 4.0817ZM202.827 19.5872L203.507 20.3199L203.508 20.319L202.827 19.5872ZM204.354 29.4543H205.354V28.4543H204.354V29.4543ZM204.354 95V96H205.354V95H204.354ZM184.267 95H183.267V96H184.267V95ZM184.267 29.4543V28.4543H183.267V29.4543H184.267ZM194.369 21.6413C191.051 21.6413 188.404 20.6888 186.344 18.8426L185.009 20.3317C187.492 22.5576 190.64 23.6413 194.369 23.6413V21.6413ZM186.371 18.8673C184.374 16.942 183.388 14.6178 183.388 11.8344H181.388C181.388 15.1592 182.594 18.0036 184.983 20.307L186.371 18.8673ZM183.388 11.8344C183.388 8.9654 184.379 6.65159 186.357 4.8145L184.996 3.34891C182.589 5.58396 181.388 8.43863 181.388 11.8344H183.388ZM186.358 4.8136C188.419 2.89515 191.061 1.91013 194.369 1.91013V-0.0898662C190.629 -0.0898662 187.477 1.0395 184.995 3.34981L186.358 4.8136ZM194.369 1.91013C197.593 1.91013 200.151 2.89092 202.133 4.80155L203.521 3.36186C201.117 1.04373 198.037 -0.0898662 194.369 -0.0898662V1.91013ZM202.159 4.82627C204.212 6.6669 205.233 8.97743 205.233 11.8344H207.233C207.233 8.4266 205.983 5.56865 203.494 3.33713L202.159 4.82627ZM205.233 11.8344C205.233 14.6059 204.217 16.9266 202.145 18.8553L203.508 20.319C205.979 18.0189 207.233 15.1711 207.233 11.8344H205.233ZM202.146 18.8544C200.167 20.6927 197.603 21.6413 194.369 21.6413V23.6413C198.026 23.6413 201.102 22.5538 203.507 20.3199L202.146 18.8544ZM203.354 29.4543L203.354 95H205.354L205.354 29.4543H203.354ZM204.354 94H184.267V96H204.354V94ZM185.267 95L185.267 29.4543H183.267L183.267 95H185.267ZM184.267 30.4543H204.354V28.4543L184.267 28.4543V30.4543ZM233.711 91.8284L233.237 92.7089L233.242 92.7119L233.711 91.8284ZM221.612 80.0819L220.743 80.5766L220.749 80.5866L221.612 80.0819ZM221.729 44.4898L222.593 44.9945L222.596 44.9888L221.729 44.4898ZM233.946 32.6258L234.414 33.5093L234.414 33.5093L233.946 32.6258ZM268.716 32.6258L268.247 33.5093L268.247 33.5093L268.716 32.6258ZM280.932 44.4898L280.065 44.9888L280.069 44.9945L280.932 44.4898ZM280.815 80.0819L279.954 79.5731L279.951 79.5772L280.815 80.0819ZM268.481 91.8284L268.018 90.9421L268.012 90.945L268.481 91.8284ZM260.846 74.3261L260.129 73.629L260.123 73.6342L260.118 73.6394L260.846 74.3261ZM260.963 50.1282L260.226 50.8039L260.231 50.8094L260.236 50.8148L260.963 50.1282ZM241.581 50.1282L242.309 50.8143L242.318 50.8039L241.581 50.1282ZM241.464 74.3261L240.716 74.9904L240.721 74.9962L240.727 75.0018L241.464 74.3261ZM251.096 94.9397C244.821 94.9397 239.19 93.602 234.179 90.945L233.242 92.7119C238.569 95.5366 244.527 96.9397 251.096 96.9397V94.9397ZM234.185 90.948C229.26 88.296 225.36 84.512 222.475 79.5772L220.749 80.5866C223.815 85.8321 227.982 89.8791 233.237 92.7089L234.185 90.948ZM222.481 79.5872C219.683 74.6708 218.266 68.8952 218.266 62.2271H216.266C216.266 69.185 217.747 75.3126 220.743 80.5766L222.481 79.5872ZM218.266 62.2271C218.266 55.6442 219.719 49.9108 222.593 44.9945L220.866 43.9851C217.789 49.2492 216.266 55.3407 216.266 62.2271H218.266ZM222.596 44.9888C225.48 39.98 229.416 36.1602 234.414 33.5093L233.477 31.7424C228.139 34.5732 223.931 38.6627 220.863 43.9909L222.596 44.9888ZM234.414 33.5093C239.425 30.8522 245.056 29.5145 251.331 29.5145V27.5145C244.762 27.5145 238.804 28.9177 233.477 31.7424L234.414 33.5093ZM251.331 29.5145C257.605 29.5145 263.237 30.8522 268.247 33.5093L269.184 31.7424C263.858 28.9177 257.899 27.5145 251.331 27.5145V29.5145ZM268.247 33.5093C273.246 36.1602 277.182 39.98 280.065 44.9888L281.799 43.9909C278.731 38.6627 274.522 34.5732 269.184 31.7424L268.247 33.5093ZM280.069 44.9945C282.943 49.9108 284.396 55.6442 284.396 62.2271H286.396C286.396 55.3407 284.873 49.2492 281.795 43.9851L280.069 44.9945ZM284.396 62.2271C284.396 68.8052 282.906 74.5769 279.954 79.5732L281.676 80.5906C284.831 75.2499 286.396 69.1185 286.396 62.2271H284.396ZM279.951 79.5772C277.071 84.5044 273.099 88.2879 268.018 90.9421L268.944 92.7148C274.357 89.8872 278.607 85.8397 281.678 80.5866L279.951 79.5772ZM268.012 90.945C263.002 93.602 257.37 94.9397 251.096 94.9397V96.9397C257.664 96.9397 263.623 95.5366 268.949 92.7119L268.012 90.945ZM251.096 79.5548C255.211 79.5548 258.723 78.0295 261.573 75.0127L260.118 73.6394C257.643 76.261 254.655 77.5548 251.096 77.5548V79.5548ZM261.563 75.0232C264.539 71.9617 265.957 67.6447 265.957 62.2271H263.957C263.957 67.3031 262.634 71.0521 260.129 73.629L261.563 75.0232ZM265.957 62.2271C265.957 56.8168 264.582 52.5038 261.69 49.4416L260.236 50.8148C262.669 53.3909 263.957 57.1438 263.957 62.2271H265.957ZM261.7 49.4525C258.926 46.4259 255.447 44.8994 251.331 44.8994V46.8994C254.889 46.8994 257.832 48.1922 260.226 50.8039L261.7 49.4525ZM251.331 44.8994C247.143 44.8994 243.623 46.4211 240.844 49.4525L242.318 50.8039C244.708 48.1969 247.688 46.8994 251.331 46.8994V44.8994ZM240.854 49.4422C238.033 52.4334 236.705 56.7527 236.705 62.2271H238.705C238.705 57.0513 239.961 53.3047 242.309 50.8142L240.854 49.4422ZM236.705 62.2271C236.705 67.6231 237.994 71.9275 240.716 74.9904L242.211 73.6617C239.922 71.0863 238.705 67.3248 238.705 62.2271H236.705ZM240.727 75.0018C243.501 78.0284 246.979 79.5548 251.096 79.5548V77.5548C247.538 77.5548 244.595 76.2621 242.201 73.6503L240.727 75.0018ZM309.796 93.0031L310.197 92.0873L310.197 92.0873L309.796 93.0031ZM299.224 85.0154L298.424 85.6155L298.43 85.6243L299.224 85.0154ZM294.877 73.5038V72.5038H293.801L293.88 73.5777L294.877 73.5038ZM314.729 73.5038L315.724 73.4009L315.631 72.5038H314.729V73.5038ZM317.901 79.0247L318.501 78.2247L318.501 78.2247L317.901 79.0247ZM330.587 79.7295L331.164 80.5465L331.172 80.5402L330.587 79.7295ZM329.765 71.7418L329.332 72.6434L329.347 72.6505L329.362 72.6571L329.765 71.7418ZM320.25 68.6877L320.493 67.7176L320.485 67.7157L320.477 67.7139L320.25 68.6877ZM308.503 65.2812L308.132 66.2097L308.142 66.2137L308.152 66.2176L308.503 65.2812ZM300.398 59.5254L299.638 60.1744L299.642 60.18L299.647 60.1855L300.398 59.5254ZM300.046 38.6166L299.217 38.0571L299.214 38.0619L300.046 38.6166ZM309.208 31.2162L308.804 30.3017L308.797 30.3046L309.208 31.2162ZM343.038 34.6227L342.383 35.3785L342.39 35.3838L343.038 34.6227ZM351.261 50.833V51.833H352.371L352.255 50.7289L351.261 50.833ZM332.701 50.833L331.711 50.9696L331.83 51.833H332.701V50.833ZM329.647 45.4296L329.018 46.2068L329.027 46.2139L329.036 46.2208L329.647 45.4296ZM317.666 44.8422L318.232 45.6663L318.249 45.6546L318.266 45.6422L317.666 44.8422ZM318.723 52.7124L318.29 53.6139L318.297 53.6172L318.304 53.6204L318.723 52.7124ZM328.12 55.5316L328.37 54.5633L328.354 54.5591L328.337 54.5554L328.12 55.5316ZM339.984 59.2905L339.605 60.2157L339.615 60.2199L339.625 60.2238L339.984 59.2905ZM347.972 65.1638L347.202 65.8018L347.212 65.8137L347.222 65.8254L347.972 65.1638ZM351.613 75.9706H352.613V75.962L352.613 75.9534L351.613 75.9706ZM348.324 86.3076L347.512 85.7243L347.509 85.7283L348.324 86.3076ZM339.044 93.3555L338.655 92.4345L338.648 92.4373L339.044 93.3555ZM325.066 94.9397C319.464 94.9397 314.514 93.9808 310.197 92.0873L309.394 93.9189C314.004 95.9409 319.235 96.9397 325.066 96.9397V94.9397ZM310.197 92.0873C305.865 90.1871 302.484 87.6216 300.017 84.4066L298.43 85.6243C301.132 89.144 304.799 91.9036 309.394 93.9189L310.197 92.0873ZM300.024 84.4154C297.552 81.1201 296.174 77.4649 295.875 73.4299L293.88 73.5777C294.208 78.0002 295.727 82.0194 298.424 85.6154L300.024 84.4154ZM294.877 74.5038L314.729 74.5038V72.5038L294.877 72.5038V74.5038ZM313.734 73.6067C313.999 76.1639 315.206 78.2534 317.301 79.8247L318.501 78.2247C316.837 76.9768 315.929 75.3857 315.724 73.4009L313.734 73.6067ZM317.301 79.8247C319.381 81.3849 321.911 82.1391 324.831 82.1391V80.1391C322.269 80.1391 320.179 79.4837 318.501 78.2247L317.301 79.8247ZM324.831 82.1391C327.44 82.1391 329.595 81.6537 331.164 80.5465L330.01 78.9125C328.916 79.6847 327.234 80.1391 324.831 80.1391V82.1391ZM331.172 80.5402C332.809 79.3581 333.701 77.7794 333.701 75.8531H331.701C331.701 77.0593 331.184 78.0648 330.001 78.9188L331.172 80.5402ZM333.701 75.8531C333.701 74.7302 333.405 73.7088 332.781 72.8345C332.162 71.9684 331.267 71.3104 330.167 70.8265L329.362 72.6571C330.22 73.0347 330.793 73.4926 331.153 73.997C331.508 74.4931 331.701 75.0966 331.701 75.8531H333.701ZM330.197 70.8403C328.143 69.8543 324.889 68.8167 320.493 67.7176L320.007 69.6579C324.382 70.7514 327.471 71.7499 329.332 72.6434L330.197 70.8403ZM320.477 67.7139C315.804 66.6235 311.933 65.4994 308.855 64.3449L308.152 66.2176C311.339 67.4124 315.299 68.5593 320.023 69.6616L320.477 67.7139ZM308.875 64.3528C305.891 63.1593 303.319 61.3339 301.149 58.8653L299.647 60.1855C302.02 62.8854 304.851 64.8972 308.132 66.2097L308.875 64.3528ZM301.159 58.8765C299.081 56.4402 297.992 53.1291 297.992 48.8361H295.992C295.992 53.4704 297.174 57.2856 299.638 60.1744L301.159 58.8765ZM297.992 48.8361C297.992 45.2695 298.954 42.0569 300.878 39.1713L299.214 38.0619C297.066 41.2844 295.992 44.8848 295.992 48.8361H297.992ZM300.875 39.176C302.87 36.2207 305.767 33.865 309.619 32.1278L308.797 30.3046C304.662 32.1697 301.451 34.7476 299.217 38.0571L300.875 39.176ZM309.613 32.1308C313.53 30.3982 318.202 29.5145 323.657 29.5145V27.5145C317.991 27.5145 313.031 28.432 308.804 30.3017L309.613 32.1308ZM323.657 29.5145C331.717 29.5145 337.918 31.5087 342.383 35.3784L343.693 33.867C338.761 29.5925 332.041 27.5145 323.657 27.5145V29.5145ZM342.39 35.3838C346.955 39.2756 349.586 44.4356 350.266 50.9371L352.255 50.7289C351.526 43.761 348.676 38.1142 343.687 33.8617L342.39 35.3838ZM351.261 49.833H332.701V51.833H351.261V49.833ZM333.692 50.6963C333.345 48.1811 332.201 46.1389 330.259 44.6383L329.036 46.2208C330.54 47.3828 331.431 48.9428 331.711 50.9696L333.692 50.6963ZM330.276 44.6523C328.407 43.139 325.971 42.4326 323.069 42.4326V44.4326C325.65 44.4326 327.598 45.0576 329.018 46.2068L330.276 44.6523ZM323.069 42.4326C320.606 42.4326 318.559 42.9222 317.066 44.0422L318.266 45.6422C319.278 44.8828 320.833 44.4326 323.069 44.4326V42.4326ZM317.099 44.0182C315.565 45.0728 314.786 46.6 314.786 48.4837H316.786C316.786 47.2349 317.26 46.3345 318.232 45.6663L317.099 44.0182ZM314.786 48.4837C314.786 49.607 315.082 50.6326 315.699 51.5208C316.31 52.4007 317.196 53.0887 318.29 53.6139L319.156 51.8109C318.292 51.3964 317.71 50.9097 317.342 50.38C316.98 49.8587 316.786 49.2398 316.786 48.4837H314.786ZM318.304 53.6204C320.44 54.6061 323.657 55.5641 327.903 56.5078L328.337 54.5554C324.126 53.6197 321.078 52.6982 319.142 51.8045L318.304 53.6204ZM327.87 56.4999C332.702 57.7466 336.608 58.9864 339.605 60.2157L340.364 58.3653C337.252 57.0886 333.249 55.8225 328.37 54.5633L327.87 56.4999ZM339.625 60.2238C342.505 61.3316 345.03 63.1811 347.202 65.8018L348.742 64.5257C346.371 61.6647 343.571 59.5987 340.343 58.3571L339.625 60.2238ZM347.222 65.8254C349.374 68.2646 350.538 71.6155 350.613 75.9878L352.613 75.9534C352.532 71.2416 351.268 67.388 348.722 64.5021L347.222 65.8254ZM350.613 75.9706C350.613 79.6032 349.58 82.8439 347.512 85.7243L349.137 86.8908C351.454 83.663 352.613 80.0124 352.613 75.9706H350.613ZM347.509 85.7283C345.523 88.5238 342.592 90.7686 338.655 92.4345L339.434 94.2765C343.641 92.4967 346.897 90.0429 349.139 86.8868L347.509 85.7283ZM338.648 92.4373C334.804 94.0955 330.285 94.9397 325.066 94.9397V96.9397C330.498 96.9397 335.297 96.0611 339.441 94.2737L338.648 92.4373ZM367.661 19.5872L366.967 20.307L366.98 20.3196L366.994 20.3317L367.661 19.5872ZM367.661 4.0817L368.342 4.8145L368.343 4.8136L367.661 4.0817ZM384.811 4.0817L384.117 4.80155L384.13 4.81415L384.144 4.82627L384.811 4.0817ZM384.811 19.5872L385.492 20.3199L385.492 20.319L384.811 19.5872ZM386.338 29.4543H387.338V28.4543H386.338V29.4543ZM386.338 95V96H387.338V95H386.338ZM366.252 95H365.252V96H366.252V95ZM366.252 29.4543V28.4543H365.252V29.4543H366.252ZM376.354 21.6413C373.035 21.6413 370.388 20.6888 368.329 18.8426L366.994 20.3317C369.476 22.5576 372.624 23.6413 376.354 23.6413V21.6413ZM368.355 18.8673C366.359 16.942 365.372 14.6178 365.372 11.8344H363.372C363.372 15.1592 364.578 18.0036 366.967 20.307L368.355 18.8673ZM365.372 11.8344C365.372 8.9654 366.363 6.65159 368.342 4.8145L366.981 3.34891C364.574 5.58396 363.372 8.43863 363.372 11.8344H365.372ZM368.343 4.8136C370.403 2.89515 373.046 1.91013 376.354 1.91013V-0.0898662C372.614 -0.0898662 369.461 1.0395 366.98 3.34981L368.343 4.8136ZM376.354 1.91013C379.577 1.91013 382.136 2.89092 384.117 4.80155L385.505 3.36186C383.101 1.04373 380.021 -0.0898662 376.354 -0.0898662V1.91013ZM384.144 4.82627C386.197 6.6669 387.218 8.97743 387.218 11.8344H389.218C389.218 8.4266 387.968 5.56865 385.479 3.33713L384.144 4.82627ZM387.218 11.8344C387.218 14.6059 386.201 16.9266 384.13 18.8553L385.492 20.319C387.963 18.0189 389.218 15.1711 389.218 11.8344H387.218ZM384.131 18.8544C382.151 20.6927 379.588 21.6413 376.354 21.6413V23.6413C380.011 23.6413 383.086 22.5538 385.492 20.3199L384.131 18.8544ZM385.338 29.4543V95H387.338V29.4543H385.338ZM386.338 94H366.252V96H386.338V94ZM367.252 95V29.4543H365.252V95H367.252ZM366.252 30.4543H386.338V28.4543L366.252 28.4543V30.4543ZM415.695 91.8284L415.221 92.7089L415.227 92.7119L415.695 91.8284ZM403.596 80.0819L402.727 80.5766L402.733 80.5866L403.596 80.0819ZM403.714 44.4898L404.577 44.9945L404.58 44.9888L403.714 44.4898ZM415.93 32.6258L416.399 33.5093L416.399 33.5093L415.93 32.6258ZM450.7 32.6258L450.232 33.5093L450.232 33.5093L450.7 32.6258ZM462.916 44.4898L462.05 44.9888L462.053 44.9945L462.916 44.4898ZM462.799 80.0819L461.938 79.5731L461.936 79.5772L462.799 80.0819ZM450.465 91.8284L450.002 90.9421L449.997 90.945L450.465 91.8284ZM442.83 74.3261L442.113 73.629L442.108 73.6342L442.103 73.6394L442.83 74.3261ZM442.947 50.1282L442.21 50.8039L442.215 50.8094L442.22 50.8148L442.947 50.1282ZM423.566 50.1282L424.293 50.8143L424.303 50.8039L423.566 50.1282ZM423.448 74.3261L422.701 74.9904L422.706 74.9962L422.711 75.0018L423.448 74.3261ZM433.08 94.9397C426.806 94.9397 421.174 93.602 416.164 90.945L415.227 92.7119C420.553 95.5366 426.512 96.9397 433.08 96.9397V94.9397ZM416.169 90.948C411.244 88.296 407.345 84.512 404.46 79.5772L402.733 80.5866C405.8 85.8321 409.966 89.8791 415.221 92.7089L416.169 90.948ZM404.465 79.5872C401.667 74.6708 400.25 68.8952 400.25 62.2271H398.25C398.25 69.185 399.731 75.3126 402.727 80.5766L404.465 79.5872ZM400.25 62.2271C400.25 55.6442 401.703 49.9108 404.577 44.9945L402.851 43.9851C399.773 49.2492 398.25 55.3407 398.25 62.2271H400.25ZM404.58 44.9888C407.464 39.98 411.4 36.1602 416.399 33.5093L415.462 31.7424C410.124 34.5732 405.915 38.6627 402.847 43.9909L404.58 44.9888ZM416.399 33.5093C421.409 30.8522 427.041 29.5145 433.315 29.5145V27.5145C426.747 27.5145 420.788 28.9177 415.462 31.7424L416.399 33.5093ZM433.315 29.5145C439.59 29.5145 445.221 30.8522 450.232 33.5093L451.169 31.7424C445.842 28.9177 439.884 27.5145 433.315 27.5145V29.5145ZM450.232 33.5093C455.23 36.1602 459.166 39.98 462.05 44.9888L463.783 43.9909C460.715 38.6627 456.507 34.5732 451.169 31.7424L450.232 33.5093ZM462.053 44.9945C464.927 49.9108 466.38 55.6442 466.38 62.2271H468.38C468.38 55.3407 466.857 49.2492 463.78 43.9851L462.053 44.9945ZM466.38 62.2271C466.38 68.8052 464.89 74.5769 461.938 79.5732L463.66 80.5906C466.816 75.2499 468.38 69.1185 468.38 62.2271H466.38ZM461.936 79.5772C459.055 84.5044 455.083 88.2879 450.002 90.9421L450.928 92.7148C456.341 89.8872 460.591 85.8397 463.662 80.5866L461.936 79.5772ZM449.997 90.945C444.986 93.602 439.355 94.9397 433.08 94.9397V96.9397C439.649 96.9397 445.607 95.5366 450.934 92.7119L449.997 90.945ZM433.08 79.5548C437.196 79.5548 440.708 78.0295 443.557 75.0127L442.103 73.6394C439.627 76.261 436.639 77.5548 433.08 77.5548V79.5548ZM443.547 75.0232C446.523 71.9617 447.941 67.6447 447.941 62.2271H445.941C445.941 67.3031 444.618 71.0521 442.113 73.629L443.547 75.0232ZM447.941 62.2271C447.941 56.8168 446.566 52.5038 443.674 49.4416L442.22 50.8148C444.653 53.3909 445.941 57.1438 445.941 62.2271H447.941ZM443.684 49.4525C440.91 46.4259 437.432 44.8994 433.315 44.8994V46.8994C436.873 46.8994 439.816 48.1922 442.21 50.8039L443.684 49.4525ZM433.315 44.8994C429.127 44.8994 425.607 46.4211 422.828 49.4525L424.303 50.8039C426.692 48.1969 429.672 46.8994 433.315 46.8994V44.8994ZM422.838 49.4422C420.018 52.4334 418.689 56.7527 418.689 62.2271H420.689C420.689 57.0513 421.945 53.3047 424.293 50.8142L422.838 49.4422ZM418.689 62.2271C418.689 67.6231 419.978 71.9275 422.701 74.9904L424.195 73.6617C421.906 71.0863 420.689 67.3248 420.689 62.2271H418.689ZM422.711 75.0018C425.485 78.0284 428.964 79.5548 433.08 79.5548V77.5548C429.522 77.5548 426.579 76.2621 424.185 73.6503L422.711 75.0018ZM491.78 93.0031L492.182 92.0873L492.182 92.0873L491.78 93.0031ZM481.208 85.0154L480.408 85.6155L480.415 85.6243L481.208 85.0154ZM476.862 73.5038V72.5038H475.785L475.865 73.5777L476.862 73.5038ZM496.713 73.5038L497.708 73.4009L497.615 72.5038H496.713V73.5038ZM499.885 79.0247L500.485 78.2247L500.485 78.2247L499.885 79.0247ZM512.571 79.7295L513.148 80.5465L513.157 80.5402L512.571 79.7295ZM511.749 71.7418L511.316 72.6434L511.331 72.6505L511.346 72.6571L511.749 71.7418ZM502.234 68.6877L502.477 67.7176L502.469 67.7157L502.462 67.7139L502.234 68.6877ZM490.488 65.2812L490.116 66.2097L490.126 66.2137L490.137 66.2176L490.488 65.2812ZM482.383 59.5254L481.622 60.1744L481.627 60.18L481.632 60.1855L482.383 59.5254ZM482.03 38.6166L481.201 38.0571L481.198 38.0619L482.03 38.6166ZM491.193 31.2162L490.788 30.3017L490.781 30.3046L491.193 31.2162ZM525.023 34.6227L524.368 35.3785L524.374 35.3838L525.023 34.6227ZM533.245 50.833V51.833H534.355L534.24 50.7289L533.245 50.833ZM514.686 50.833L513.695 50.9696L513.814 51.833H514.686V50.833ZM511.632 45.4296L511.002 46.2068L511.011 46.2139L511.02 46.2208L511.632 45.4296ZM499.65 44.8422L500.217 45.6663L500.234 45.6546L500.25 45.6422L499.65 44.8422ZM500.707 52.7124L500.275 53.6139L500.281 53.6172L500.288 53.6204L500.707 52.7124ZM510.105 55.5316L510.354 54.5633L510.338 54.5591L510.321 54.5554L510.105 55.5316ZM521.969 59.2905L521.589 60.2157L521.599 60.2199L521.61 60.2238L521.969 59.2905ZM529.956 65.1638L529.186 65.8018L529.196 65.8137L529.206 65.8254L529.956 65.1638ZM533.598 75.9706H534.598V75.962L534.597 75.9534L533.598 75.9706ZM530.309 86.3076L529.496 85.7243L529.493 85.7283L530.309 86.3076ZM521.029 93.3555L520.639 92.4345L520.633 92.4373L521.029 93.3555ZM507.05 94.9397C501.448 94.9397 496.499 93.9808 492.182 92.0873L491.378 93.9189C495.989 95.9409 501.219 96.9397 507.05 96.9397V94.9397ZM492.182 92.0873C487.849 90.1871 484.469 87.6216 482.001 84.4066L480.415 85.6243C483.116 89.144 486.783 91.9036 491.378 93.9189L492.182 92.0873ZM482.008 84.4154C479.537 81.1201 478.158 77.4649 477.859 73.4299L475.865 73.5777C476.192 78.0002 477.711 82.0194 480.408 85.6154L482.008 84.4154ZM476.862 74.5038L496.713 74.5038V72.5038L476.862 72.5038V74.5038ZM495.719 73.6067C495.983 76.1639 497.19 78.2534 499.285 79.8247L500.485 78.2247C498.821 76.9768 497.913 75.3857 497.708 73.4009L495.719 73.6067ZM499.285 79.8247C501.365 81.3849 503.896 82.1391 506.816 82.1391V80.1391C504.254 80.1391 502.164 79.4837 500.485 78.2247L499.285 79.8247ZM506.816 82.1391C509.424 82.1391 511.579 81.6537 513.148 80.5465L511.995 78.9125C510.901 79.6847 509.219 80.1391 506.816 80.1391V82.1391ZM513.157 80.5402C514.793 79.3581 515.686 77.7794 515.686 75.8531H513.686C513.686 77.0593 513.168 78.0648 511.986 78.9188L513.157 80.5402ZM515.686 75.8531C515.686 74.7302 515.39 73.7088 514.765 72.8345C514.147 71.9684 513.251 71.3104 512.152 70.8265L511.346 72.6571C512.204 73.0347 512.778 73.4926 513.138 73.997C513.492 74.4931 513.686 75.0966 513.686 75.8531H515.686ZM512.182 70.8403C510.128 69.8543 506.873 68.8167 502.477 67.7176L501.992 69.6579C506.366 70.7514 509.455 71.7499 511.316 72.6434L512.182 70.8403ZM502.462 67.7139C497.788 66.6235 493.918 65.4994 490.839 64.3449L490.137 66.2176C493.323 67.4124 497.283 68.5593 502.007 69.6616L502.462 67.7139ZM490.859 64.3528C487.876 63.1593 485.303 61.3339 483.134 58.8653L481.632 60.1855C484.004 62.8854 486.835 64.8972 490.116 66.2097L490.859 64.3528ZM483.144 58.8765C481.066 56.4402 479.976 53.1291 479.976 48.8361H477.976C477.976 53.4704 479.158 57.2856 481.622 60.1744L483.144 58.8765ZM479.976 48.8361C479.976 45.2695 480.939 42.0569 482.862 39.1713L481.198 38.0619C479.05 41.2844 477.976 44.8848 477.976 48.8361H479.976ZM482.859 39.176C484.854 36.2207 487.752 33.865 491.604 32.1278L490.781 30.3046C486.646 32.1697 483.435 34.7476 481.201 38.0571L482.859 39.176ZM491.597 32.1308C495.514 30.3982 500.187 29.5145 505.641 29.5145V27.5145C499.975 27.5145 495.015 28.432 490.788 30.3017L491.597 32.1308ZM505.641 29.5145C513.702 29.5145 519.903 31.5087 524.368 35.3784L525.678 33.867C520.745 29.5925 514.025 27.5145 505.641 27.5145V29.5145ZM524.374 35.3838C528.939 39.2756 531.57 44.4356 532.251 50.9371L534.24 50.7289C533.511 43.761 530.66 38.1142 525.671 33.8617L524.374 35.3838ZM533.245 49.833H514.686V51.833H533.245V49.833ZM515.676 50.6963C515.329 48.1811 514.185 46.1389 512.243 44.6383L511.02 46.2208C512.524 47.3828 513.416 48.9428 513.695 50.9696L515.676 50.6963ZM512.261 44.6523C510.391 43.139 507.955 42.4326 505.054 42.4326V44.4326C507.634 44.4326 509.583 45.0576 511.002 46.2068L512.261 44.6523ZM505.054 42.4326C502.591 42.4326 500.543 42.9222 499.05 44.0422L500.25 45.6422C501.263 44.8828 502.818 44.4326 505.054 44.4326V42.4326ZM499.084 44.0182C497.55 45.0728 496.771 46.6 496.771 48.4837H498.771C498.771 47.2349 499.245 46.3345 500.217 45.6663L499.084 44.0182ZM496.771 48.4837C496.771 49.607 497.067 50.6326 497.683 51.5208C498.294 52.4007 499.18 53.0887 500.275 53.6139L501.14 51.8109C500.276 51.3964 499.694 50.9097 499.326 50.38C498.964 49.8587 498.771 49.2398 498.771 48.4837H496.771ZM500.288 53.6204C502.424 54.6061 505.641 55.5641 509.888 56.5078L510.321 54.5554C506.111 53.6197 503.063 52.6982 501.126 51.8045L500.288 53.6204ZM509.855 56.4999C514.686 57.7466 518.593 58.9864 521.589 60.2157L522.348 58.3653C519.236 57.0886 515.234 55.8225 510.354 54.5633L509.855 56.4999ZM521.61 60.2238C524.49 61.3316 527.015 63.1811 529.186 65.8018L530.726 64.5257C528.356 61.6647 525.556 59.5987 522.328 58.3571L521.61 60.2238ZM529.206 65.8254C531.359 68.2646 532.522 71.6155 532.598 75.9878L534.597 75.9534C534.516 71.2416 533.252 67.388 530.706 64.5021L529.206 65.8254ZM532.598 75.9706C532.598 79.6032 531.564 82.8439 529.496 85.7243L531.121 86.8908C533.438 83.663 534.598 80.0124 534.598 75.9706H532.598ZM529.493 85.7283C527.507 88.5238 524.577 90.7686 520.639 92.4345L521.418 94.2765C525.625 92.4967 528.881 90.0429 531.124 86.8868L529.493 85.7283ZM520.633 92.4373C516.789 94.0955 512.269 94.9397 507.05 94.9397V96.9397C512.482 96.9397 517.281 96.0611 521.425 94.2737L520.633 92.4373ZM549.645 19.5872L548.951 20.307L548.964 20.3196L548.978 20.3317L549.645 19.5872ZM549.645 4.0817L550.326 4.8145L550.327 4.8136L549.645 4.0817ZM566.795 4.0817L566.101 4.80155L566.114 4.81415L566.128 4.82627L566.795 4.0817ZM566.795 19.5872L567.476 20.3199L567.477 20.319L566.795 19.5872ZM568.322 29.4543H569.322V28.4543H568.322V29.4543ZM568.322 95V96H569.322V95H568.322ZM548.236 95H547.236V96H548.236V95ZM548.236 29.4543V28.4543L547.236 28.4543V29.4543L548.236 29.4543ZM558.338 21.6413C555.02 21.6413 552.372 20.6888 550.313 18.8426L548.978 20.3317C551.461 22.5576 554.608 23.6413 558.338 23.6413V21.6413ZM550.34 18.8673C548.343 16.942 547.356 14.6178 547.356 11.8344L545.356 11.8344C545.356 15.1592 546.563 18.0036 548.951 20.307L550.34 18.8673ZM547.356 11.8344C547.356 8.9654 548.347 6.65159 550.326 4.8145L548.965 3.34891C546.558 5.58396 545.356 8.43863 545.356 11.8344L547.356 11.8344ZM550.327 4.8136C552.387 2.89515 555.03 1.91013 558.338 1.91013V-0.0898662C554.598 -0.0898662 551.445 1.0395 548.964 3.34981L550.327 4.8136ZM558.338 1.91013C561.561 1.91013 564.12 2.89092 566.101 4.80155L567.49 3.36186C565.086 1.04373 562.006 -0.0898662 558.338 -0.0898662V1.91013ZM566.128 4.82627C568.181 6.6669 569.202 8.97743 569.202 11.8344H571.202C571.202 8.4266 569.952 5.56865 567.463 3.33713L566.128 4.82627ZM569.202 11.8344C569.202 14.6059 568.186 16.9266 566.114 18.8553L567.477 20.319C569.947 18.0189 571.202 15.1711 571.202 11.8344H569.202ZM566.115 18.8544C564.135 20.6927 561.572 21.6413 558.338 21.6413V23.6413C561.995 23.6413 565.07 22.5538 567.476 20.3199L566.115 18.8544ZM567.322 29.4543V95H569.322V29.4543H567.322ZM568.322 94H548.236V96H568.322V94ZM549.236 95V29.4543L547.236 29.4543V95H549.236ZM548.236 30.4543H568.322V28.4543H548.236V30.4543ZM597.68 91.8284L597.206 92.7089L597.211 92.7119L597.68 91.8284ZM585.581 80.0819L584.712 80.5766L584.717 80.5866L585.581 80.0819ZM585.698 44.4898L586.561 44.9945L586.565 44.9888L585.698 44.4898ZM597.915 32.6258L598.383 33.5093L598.383 33.5093L597.915 32.6258ZM632.684 32.6258L632.216 33.5093L632.216 33.5093L632.684 32.6258ZM644.901 44.4898L644.034 44.9888L644.037 44.9945L644.901 44.4898ZM644.783 80.0819L643.922 79.5731L643.92 79.5772L644.783 80.0819ZM632.449 91.8284L631.986 90.9421L631.981 90.945L632.449 91.8284ZM624.814 74.3261L624.097 73.629L624.092 73.6342L624.087 73.6394L624.814 74.3261ZM624.932 50.1282L624.194 50.8039L624.2 50.8094L624.205 50.8148L624.932 50.1282ZM605.55 50.1282L606.277 50.8143L606.287 50.8039L605.55 50.1282ZM605.432 74.3261L604.685 74.9904L604.69 74.9962L604.695 75.0018L605.432 74.3261ZM615.065 94.9397C608.79 94.9397 603.159 93.602 598.148 90.945L597.211 92.7119C602.538 95.5366 608.496 96.9397 615.065 96.9397V94.9397ZM598.154 90.948C593.229 88.296 589.329 84.512 586.444 79.5772L584.717 80.5866C587.784 85.8321 591.95 89.8791 597.206 92.7089L598.154 90.948ZM586.45 79.5872C583.651 74.6708 582.234 68.8952 582.234 62.2271H580.234C580.234 69.185 581.715 75.3126 584.712 80.5766L586.45 79.5872ZM582.234 62.2271C582.234 55.6442 583.687 49.9108 586.561 44.9945L584.835 43.9851C581.757 49.2492 580.234 55.3407 580.234 62.2271H582.234ZM586.565 44.9888C589.449 39.98 593.384 36.1602 598.383 33.5093L597.446 31.7424C592.108 34.5732 587.899 38.6627 584.832 43.9909L586.565 44.9888ZM598.383 33.5093C603.394 30.8522 609.025 29.5145 615.299 29.5145V27.5145C608.731 27.5145 602.773 28.9177 597.446 31.7424L598.383 33.5093ZM615.299 29.5145C621.574 29.5145 627.205 30.8522 632.216 33.5093L633.153 31.7424C627.826 28.9177 621.868 27.5145 615.299 27.5145V29.5145ZM632.216 33.5093C637.215 36.1602 641.15 39.98 644.034 44.9888L645.767 43.9909C642.7 38.6627 638.491 34.5732 633.153 31.7424L632.216 33.5093ZM644.037 44.9945C646.912 49.9108 648.364 55.6442 648.364 62.2271H650.364C650.364 55.3407 648.842 49.2492 645.764 43.9851L644.037 44.9945ZM648.364 62.2271C648.364 68.8052 646.875 74.5769 643.922 79.5732L645.644 80.5906C648.8 75.2499 650.364 69.1185 650.364 62.2271H648.364ZM643.92 79.5772C641.04 84.5044 637.067 88.2879 631.986 90.9421L632.912 92.7148C638.325 89.8872 642.576 85.8397 645.647 80.5866L643.92 79.5772ZM631.981 90.945C626.97 93.602 621.339 94.9397 615.065 94.9397V96.9397C621.633 96.9397 627.591 95.5366 632.918 92.7119L631.981 90.945ZM615.065 79.5548C619.18 79.5548 622.692 78.0295 625.541 75.0127L624.087 73.6394C621.611 76.261 618.623 77.5548 615.065 77.5548V79.5548ZM625.531 75.0232C628.508 71.9617 629.925 67.6447 629.925 62.2271H627.925C627.925 67.3031 626.602 71.0521 624.097 73.629L625.531 75.0232ZM629.925 62.2271C629.925 56.8168 628.551 52.5038 625.659 49.4416L624.205 50.8148C626.638 53.3909 627.925 57.1438 627.925 62.2271H629.925ZM625.669 49.4525C622.894 46.4259 619.416 44.8994 615.299 44.8994V46.8994C618.857 46.8994 621.8 48.1922 624.194 50.8039L625.669 49.4525ZM615.299 44.8994C611.111 44.8994 607.591 46.4211 604.813 49.4525L606.287 50.8039C608.677 48.1969 611.657 46.8994 615.299 46.8994V44.8994ZM604.822 49.4422C602.002 52.4334 600.673 56.7527 600.673 62.2271H602.673C602.673 57.0513 603.929 53.3047 606.277 50.8142L604.822 49.4422ZM600.673 62.2271C600.673 67.6231 601.962 71.9275 604.685 74.9904L606.18 73.6617C603.891 71.0863 602.673 67.3248 602.673 62.2271H600.673ZM604.695 75.0018C607.47 78.0284 610.948 79.5548 615.065 79.5548V77.5548C611.507 77.5548 608.564 76.2621 606.17 73.6503L604.695 75.0018ZM673.764 93.0031L674.166 92.0873L674.166 92.0873L673.764 93.0031ZM663.192 85.0154L662.392 85.6155L662.399 85.6243L663.192 85.0154ZM658.846 73.5038V72.5038H657.769L657.849 73.5777L658.846 73.5038ZM678.698 73.5038L679.692 73.4009L679.6 72.5038H678.698V73.5038ZM681.869 79.0247L682.469 78.2247L682.469 78.2247L681.869 79.0247ZM694.556 79.7295L695.132 80.5465L695.141 80.5402L694.556 79.7295ZM693.733 71.7418L693.301 72.6434L693.316 72.6505L693.331 72.6571L693.733 71.7418ZM684.219 68.6877L684.461 67.7176L684.454 67.7157L684.446 67.7139L684.219 68.6877ZM672.472 65.2812L672.101 66.2097L672.111 66.2137L672.121 66.2176L672.472 65.2812ZM664.367 59.5254L663.606 60.1744L663.611 60.18L663.616 60.1855L664.367 59.5254ZM664.015 38.6166L663.186 38.0571L663.183 38.0619L664.015 38.6166ZM673.177 31.2162L672.772 30.3017L672.766 30.3046L673.177 31.2162ZM707.007 34.6227L706.352 35.3785L706.358 35.3838L707.007 34.6227ZM715.23 50.833V51.833H716.34L716.224 50.7289L715.23 50.833ZM696.67 50.833L695.679 50.9696L695.798 51.833H696.67V50.833ZM693.616 45.4296L692.987 46.2068L692.995 46.2139L693.004 46.2208L693.616 45.4296ZM681.634 44.8422L682.201 45.6663L682.218 45.6546L682.234 45.6422L681.634 44.8422ZM682.692 52.7124L682.259 53.6139L682.266 53.6172L682.273 53.6204L682.692 52.7124ZM692.089 55.5316L692.339 54.5633L692.322 54.5591L692.306 54.5554L692.089 55.5316ZM703.953 59.2905L703.573 60.2157L703.584 60.2199L703.594 60.2238L703.953 59.2905ZM711.941 65.1638L711.17 65.8018L711.18 65.8137L711.191 65.8254L711.941 65.1638ZM715.582 75.9706H716.582V75.962L716.582 75.9534L715.582 75.9706ZM712.293 86.3076L711.481 85.7243L711.478 85.7283L712.293 86.3076ZM703.013 93.3555L702.623 92.4345L702.617 92.4373L703.013 93.3555ZM689.035 94.9397C683.433 94.9397 678.483 93.9808 674.166 92.0873L673.363 93.9189C677.973 95.9409 683.203 96.9397 689.035 96.9397V94.9397ZM674.166 92.0873C669.833 90.1871 666.453 87.6216 663.986 84.4066L662.399 85.6243C665.1 89.144 668.768 91.9036 673.363 93.9189L674.166 92.0873ZM663.992 84.4154C661.521 81.1201 660.142 77.4649 659.843 73.4299L657.849 73.5777C658.176 78.0002 659.695 82.0194 662.392 85.6154L663.992 84.4154ZM658.846 74.5038H678.698V72.5038H658.846V74.5038ZM677.703 73.6067C677.968 76.1639 679.174 78.2534 681.269 79.8247L682.469 78.2247C680.806 76.9768 679.898 75.3857 679.692 73.4009L677.703 73.6067ZM681.269 79.8247C683.35 81.3849 685.88 82.1391 688.8 82.1391V80.1391C686.238 80.1391 684.148 79.4837 682.469 78.2247L681.269 79.8247ZM688.8 82.1391C691.408 82.1391 693.564 81.6537 695.132 80.5465L693.979 78.9125C692.885 79.6847 691.203 80.1391 688.8 80.1391V82.1391ZM695.141 80.5402C696.778 79.3581 697.67 77.7794 697.67 75.8531H695.67C695.67 77.0593 695.153 78.0648 693.97 78.9188L695.141 80.5402ZM697.67 75.8531C697.67 74.7302 697.374 73.7088 696.75 72.8345C696.131 71.9684 695.236 71.3104 694.136 70.8265L693.331 72.6571C694.189 73.0347 694.762 73.4926 695.122 73.997C695.477 74.4931 695.67 75.0966 695.67 75.8531H697.67ZM694.166 70.8403C692.112 69.8543 688.858 68.8167 684.461 67.7176L683.976 69.6579C688.35 70.7514 691.439 71.7499 693.301 72.6434L694.166 70.8403ZM684.446 67.7139C679.773 66.6235 675.902 65.4994 672.823 64.3449L672.121 66.2176C675.307 67.4124 679.267 68.5593 683.991 69.6616L684.446 67.7139ZM672.844 64.3528C669.86 63.1593 667.288 61.3339 665.118 58.8653L663.616 60.1855C665.988 62.8854 668.819 64.8972 672.101 66.2097L672.844 64.3528ZM665.128 58.8765C663.05 56.4402 661.96 53.1291 661.96 48.8361H659.96C659.96 53.4704 661.142 57.2856 663.606 60.1744L665.128 58.8765ZM661.96 48.8361C661.96 45.2695 662.923 42.0569 664.847 39.1713L663.183 38.0619C661.034 41.2844 659.96 44.8848 659.96 48.8361H661.96ZM664.843 39.176C666.838 36.2207 669.736 33.865 673.588 32.1278L672.766 30.3046C668.63 32.1697 665.42 34.7476 663.186 38.0571L664.843 39.176ZM673.581 32.1308C677.499 30.3982 682.171 29.5145 687.625 29.5145V27.5145C681.959 27.5145 676.999 28.432 672.772 30.3017L673.581 32.1308ZM687.625 29.5145C695.686 29.5145 701.887 31.5087 706.352 35.3784L707.662 33.867C702.73 29.5925 696.01 27.5145 687.625 27.5145V29.5145ZM706.358 35.3838C710.924 39.2756 713.555 44.4356 714.235 50.9371L716.224 50.7289C715.495 43.761 712.644 38.1142 707.656 33.8617L706.358 35.3838ZM715.23 49.833H696.67V51.833H715.23V49.833ZM697.661 50.6963C697.314 48.1811 696.169 46.1389 694.227 44.6383L693.004 46.2208C694.508 47.3828 695.4 48.9428 695.679 50.9696L697.661 50.6963ZM694.245 44.6523C692.376 43.139 689.939 42.4326 687.038 42.4326V44.4326C689.618 44.4326 691.567 45.0576 692.987 46.2068L694.245 44.6523ZM687.038 42.4326C684.575 42.4326 682.528 42.9222 681.034 44.0422L682.234 45.6422C683.247 44.8828 684.802 44.4326 687.038 44.4326V42.4326ZM681.068 44.0182C679.534 45.0728 678.755 46.6 678.755 48.4837H680.755C680.755 47.2349 681.229 46.3345 682.201 45.6663L681.068 44.0182ZM678.755 48.4837C678.755 49.607 679.051 50.6326 679.668 51.5208C680.279 52.4007 681.165 53.0887 682.259 53.6139L683.124 51.8109C682.261 51.3964 681.678 50.9097 681.311 50.38C680.948 49.8587 680.755 49.2398 680.755 48.4837H678.755ZM682.273 53.6204C684.408 54.6061 687.625 55.5641 691.872 56.5078L692.306 54.5554C688.095 53.6197 685.047 52.6982 683.111 51.8045L682.273 53.6204ZM691.839 56.4999C696.67 57.7466 700.577 58.9864 703.573 60.2157L704.332 58.3653C701.22 57.0886 697.218 55.8225 692.339 54.5633L691.839 56.4999ZM703.594 60.2238C706.474 61.3316 708.999 63.1811 711.17 65.8018L712.711 64.5257C710.34 61.6647 707.54 59.5987 704.312 58.3571L703.594 60.2238ZM711.191 65.8254C713.343 68.2646 714.507 71.6155 714.582 75.9878L716.582 75.9534C716.501 71.2416 715.237 67.388 712.69 64.5021L711.191 65.8254ZM714.582 75.9706C714.582 79.6032 713.549 82.8439 711.481 85.7243L713.105 86.8908C715.423 83.663 716.582 80.0124 716.582 75.9706H714.582ZM711.478 85.7283C709.491 88.5238 706.561 90.7686 702.624 92.4345L703.403 94.2765C707.609 92.4967 710.866 90.0429 713.108 86.8868L711.478 85.7283ZM702.617 92.4373C698.773 94.0955 694.253 94.9397 689.035 94.9397V96.9397C694.466 96.9397 699.266 96.0611 703.409 94.2737L702.617 92.4373ZM731.63 19.5872L730.936 20.307L730.949 20.3196L730.962 20.3317L731.63 19.5872ZM731.63 4.0817L732.31 4.8145L732.311 4.8136L731.63 4.0817ZM748.78 4.0817L748.086 4.80155L748.099 4.81415L748.112 4.82627L748.78 4.0817ZM748.78 19.5872L749.46 20.3199L749.461 20.319L748.78 19.5872ZM750.307 29.4543H751.307V28.4543H750.307V29.4543ZM750.307 95V96H751.307V95H750.307ZM730.22 95H729.22V96H730.22V95ZM730.22 29.4543V28.4543H729.22V29.4543H730.22ZM740.322 21.6413C737.004 21.6413 734.357 20.6888 732.297 18.8426L730.962 20.3317C733.445 22.5576 736.593 23.6413 740.322 23.6413V21.6413ZM732.324 18.8673C730.327 16.942 729.341 14.6178 729.341 11.8344H727.341C727.341 15.1592 728.547 18.0036 730.936 20.307L732.324 18.8673ZM729.341 11.8344C729.341 8.9654 730.332 6.65159 732.31 4.8145L730.949 3.34891C728.542 5.58396 727.341 8.43863 727.341 11.8344H729.341ZM732.311 4.8136C734.372 2.89515 737.014 1.91013 740.322 1.91013V-0.0898662C736.582 -0.0898662 733.43 1.0395 730.948 3.34981L732.311 4.8136ZM740.322 1.91013C743.546 1.91013 746.104 2.89092 748.086 4.80155L749.474 3.36186C747.07 1.04373 743.99 -0.0898662 740.322 -0.0898662V1.91013ZM748.112 4.82627C750.165 6.6669 751.186 8.97743 751.186 11.8344H753.186C753.186 8.4266 751.936 5.56865 749.447 3.33713L748.112 4.82627ZM751.186 11.8344C751.186 14.6059 750.17 16.9266 748.098 18.8553L749.461 20.319C751.932 18.0189 753.186 15.1711 753.186 11.8344H751.186ZM748.099 18.8544C746.12 20.6927 743.556 21.6413 740.322 21.6413V23.6413C743.979 23.6413 747.055 22.5538 749.46 20.3199L748.099 18.8544ZM749.307 29.4543V95H751.307V29.4543H749.307ZM750.307 94H730.22V96H750.307V94ZM731.22 95V29.4543H729.22V95H731.22ZM730.22 30.4543L750.307 30.4543V28.4543H730.22V30.4543ZM779.664 91.8284L779.19 92.7089L779.195 92.7119L779.664 91.8284ZM767.565 80.0819L766.696 80.5766L766.702 80.5866L767.565 80.0819ZM767.682 44.4898L768.546 44.9945L768.549 44.9888L767.682 44.4898ZM779.899 32.6258L780.367 33.5093L780.367 33.5093L779.899 32.6258ZM814.669 32.6258L814.2 33.5093L814.2 33.5093L814.669 32.6258ZM826.885 44.4898L826.018 44.9888L826.022 44.9945L826.885 44.4898ZM826.768 80.0819L825.907 79.5731L825.904 79.5772L826.768 80.0819ZM814.434 91.8284L813.971 90.9421L813.965 90.945L814.434 91.8284ZM806.798 74.3261L806.081 73.629L806.076 73.6342L806.071 73.6394L806.798 74.3261ZM806.916 50.1282L806.179 50.8039L806.184 50.8094L806.189 50.8148L806.916 50.1282ZM787.534 50.1282L788.262 50.8143L788.271 50.8039L787.534 50.1282ZM787.417 74.3261L786.669 74.9904L786.674 74.9962L786.68 75.0018L787.417 74.3261ZM797.049 94.9397C790.774 94.9397 785.143 93.602 780.132 90.945L779.195 92.7119C784.522 95.5366 790.48 96.9397 797.049 96.9397V94.9397ZM780.138 90.948C775.213 88.296 771.313 84.512 768.428 79.5772L766.702 80.5866C769.768 85.8321 773.935 89.8791 779.19 92.7089L780.138 90.948ZM768.434 79.5872C765.636 74.6708 764.219 68.8952 764.219 62.2271H762.219C762.219 69.185 763.7 75.3126 766.696 80.5766L768.434 79.5872ZM764.219 62.2271C764.219 55.6442 765.672 49.9108 768.546 44.9945L766.819 43.9851C763.742 49.2492 762.219 55.3407 762.219 62.2271H764.219ZM768.549 44.9888C771.433 39.98 775.369 36.1602 780.367 33.5093L779.43 31.7424C774.092 34.5732 769.884 38.6627 766.816 43.9909L768.549 44.9888ZM780.367 33.5093C785.378 30.8522 791.009 29.5145 797.284 29.5145V27.5145C790.715 27.5145 784.757 28.9177 779.43 31.7424L780.367 33.5093ZM797.284 29.5145C803.558 29.5145 809.19 30.8522 814.2 33.5093L815.137 31.7424C809.811 28.9177 803.852 27.5145 797.284 27.5145V29.5145ZM814.2 33.5093C819.199 36.1602 823.135 39.98 826.018 44.9888L827.752 43.9909C824.684 38.6627 820.475 34.5732 815.137 31.7424L814.2 33.5093ZM826.022 44.9945C828.896 49.9108 830.349 55.6442 830.349 62.2271H832.349C832.349 55.3407 830.826 49.2492 827.748 43.9851L826.022 44.9945ZM830.349 62.2271C830.349 68.8052 828.859 74.5769 825.907 79.5732L827.629 80.5906C830.784 75.2499 832.349 69.1185 832.349 62.2271H830.349ZM825.904 79.5772C823.024 84.5044 819.052 88.2879 813.971 90.9421L814.897 92.7148C820.31 89.8872 824.56 85.8397 827.631 80.5866L825.904 79.5772ZM813.965 90.945C808.955 93.602 803.323 94.9397 797.049 94.9397V96.9397C803.617 96.9397 809.576 95.5366 814.902 92.7119L813.965 90.945ZM797.049 79.5548C801.164 79.5548 804.676 78.0295 807.525 75.0127L806.071 73.6394C803.596 76.261 800.608 77.5548 797.049 77.5548V79.5548ZM807.515 75.0232C810.492 71.9617 811.91 67.6447 811.91 62.2271H809.91C809.91 67.3031 808.587 71.0521 806.081 73.629L807.515 75.0232ZM811.91 62.2271C811.91 56.8168 810.535 52.5038 807.643 49.4416L806.189 50.8148C808.622 53.3909 809.91 57.1438 809.91 62.2271H811.91ZM807.653 49.4525C804.879 46.4259 801.4 44.8994 797.284 44.8994V46.8994C800.842 46.8994 803.785 48.1922 806.179 50.8039L807.653 49.4525ZM797.284 44.8994C793.096 44.8994 789.576 46.4211 786.797 49.4525L788.271 50.8039C790.661 48.1969 793.641 46.8994 797.284 46.8994V44.8994ZM786.807 49.4422C783.986 52.4334 782.658 56.7527 782.658 62.2271H784.658C784.658 57.0513 785.914 53.3047 788.262 50.8142L786.807 49.4422ZM782.658 62.2271C782.658 67.6231 783.947 71.9275 786.669 74.9904L788.164 73.6617C785.875 71.0863 784.658 67.3248 784.658 62.2271H782.658ZM786.68 75.0018C789.454 78.0284 792.932 79.5548 797.049 79.5548V77.5548C793.491 77.5548 790.548 76.2621 788.154 73.6503L786.68 75.0018ZM855.749 93.0031L856.15 92.0873L856.15 92.0873L855.749 93.0031ZM845.177 85.0154L844.377 85.6155L844.383 85.6243L845.177 85.0154ZM840.83 73.5038V72.5038H839.754L839.833 73.5777L840.83 73.5038ZM860.682 73.5038L861.677 73.4009L861.584 72.5038H860.682V73.5038ZM863.854 79.0247L864.454 78.2247L864.454 78.2247L863.854 79.0247ZM876.54 79.7295L877.117 80.5465L877.125 80.5402L876.54 79.7295ZM875.718 71.7418L875.285 72.6434L875.3 72.6505L875.315 72.6571L875.718 71.7418ZM866.203 68.6877L866.446 67.7176L866.438 67.7157L866.43 67.7139L866.203 68.6877ZM854.456 65.2812L854.085 66.2097L854.095 66.2137L854.105 66.2176L854.456 65.2812ZM846.351 59.5254L845.591 60.1744L845.595 60.18L845.6 60.1855L846.351 59.5254ZM845.999 38.6166L845.17 38.0571L845.167 38.0619L845.999 38.6166ZM855.161 31.2162L854.757 30.3017L854.75 30.3046L855.161 31.2162ZM888.991 34.6227L888.336 35.3785L888.343 35.3838L888.991 34.6227ZM897.214 50.833V51.833H898.324L898.208 50.7289L897.214 50.833ZM878.654 50.833L877.664 50.9696L877.783 51.833H878.654V50.833ZM875.6 45.4296L874.971 46.2068L874.98 46.2139L874.989 46.2208L875.6 45.4296ZM863.619 44.8422L864.185 45.6663L864.202 45.6546L864.219 45.6422L863.619 44.8422ZM864.676 52.7124L864.243 53.6139L864.25 53.6172L864.257 53.6204L864.676 52.7124ZM874.073 55.5316L874.323 54.5633L874.307 54.5591L874.29 54.5554L874.073 55.5316ZM885.937 59.2905L885.558 60.2157L885.568 60.2199L885.578 60.2238L885.937 59.2905ZM893.925 65.1638L893.155 65.8018L893.165 65.8137L893.175 65.8254L893.925 65.1638ZM897.566 75.9706H898.566V75.962L898.566 75.9534L897.566 75.9706ZM894.277 86.3076L893.465 85.7243L893.462 85.7283L894.277 86.3076ZM884.998 93.3555L884.608 92.4345L884.601 92.4373L884.998 93.3555ZM871.019 94.9397C865.417 94.9397 860.467 93.9808 856.15 92.0873L855.347 93.9189C859.957 95.9409 865.188 96.9397 871.019 96.9397V94.9397ZM856.15 92.0873C851.818 90.1871 848.437 87.6216 845.97 84.4066L844.383 85.6243C847.085 89.144 850.752 91.9036 855.347 93.9189L856.15 92.0873ZM845.977 84.4154C843.505 81.1201 842.127 77.4649 841.828 73.4299L839.833 73.5777C840.161 78.0002 841.68 82.0194 844.377 85.6154L845.977 84.4154ZM840.83 74.5038H860.682V72.5038H840.83V74.5038ZM859.687 73.6067C859.952 76.1639 861.159 78.2534 863.254 79.8247L864.454 78.2247C862.79 76.9768 861.882 75.3857 861.677 73.4009L859.687 73.6067ZM863.254 79.8247C865.334 81.3849 867.864 82.1391 870.784 82.1391V80.1391C868.222 80.1391 866.132 79.4837 864.454 78.2247L863.254 79.8247ZM870.784 82.1391C873.393 82.1391 875.548 81.6537 877.117 80.5465L875.963 78.9125C874.869 79.6847 873.187 80.1391 870.784 80.1391V82.1391ZM877.125 80.5402C878.762 79.3581 879.654 77.7794 879.654 75.8531H877.654C877.654 77.0593 877.137 78.0648 875.955 78.9188L877.125 80.5402ZM879.654 75.8531C879.654 74.7302 879.358 73.7088 878.734 72.8345C878.115 71.9684 877.22 71.3104 876.12 70.8265L875.315 72.6571C876.173 73.0347 876.746 73.4926 877.106 73.997C877.461 74.4931 877.654 75.0966 877.654 75.8531H879.654ZM876.15 70.8403C874.096 69.8543 870.842 68.8167 866.446 67.7176L865.961 69.6579C870.335 70.7514 873.424 71.7499 875.285 72.6434L876.15 70.8403ZM866.43 67.7139C861.757 66.6235 857.886 65.4994 854.808 64.3449L854.105 66.2176C857.292 67.4124 861.252 68.5593 865.976 69.6616L866.43 67.7139ZM854.828 64.3528C851.844 63.1593 849.272 61.3339 847.103 58.8653L845.6 60.1855C847.973 62.8854 850.804 64.8972 854.085 66.2097L854.828 64.3528ZM847.112 58.8765C845.034 56.4402 843.945 53.1291 843.945 48.8361H841.945C841.945 53.4704 843.127 57.2856 845.591 60.1744L847.112 58.8765ZM843.945 48.8361C843.945 45.2695 844.907 42.0569 846.831 39.1713L845.167 38.0619C843.019 41.2844 841.945 44.8848 841.945 48.8361H843.945ZM846.828 39.176C848.823 36.2207 851.72 33.865 855.572 32.1278L854.75 30.3046C850.615 32.1697 847.404 34.7476 845.17 38.0571L846.828 39.176ZM855.566 32.1308C859.483 30.3982 864.155 29.5145 869.61 29.5145V27.5145C863.944 27.5145 858.984 28.432 854.757 30.3017L855.566 32.1308ZM869.61 29.5145C877.67 29.5145 883.871 31.5087 888.336 35.3784L889.646 33.867C884.714 29.5925 877.994 27.5145 869.61 27.5145V29.5145ZM888.343 35.3838C892.908 39.2756 895.539 44.4356 896.219 50.9371L898.208 50.7289C897.479 43.761 894.629 38.1142 889.64 33.8617L888.343 35.3838ZM897.214 49.833H878.654V51.833H897.214V49.833ZM879.645 50.6963C879.298 48.1811 878.154 46.1389 876.212 44.6383L874.989 46.2208C876.493 47.3828 877.384 48.9428 877.664 50.9696L879.645 50.6963ZM876.229 44.6523C874.36 43.139 871.924 42.4326 869.022 42.4326V44.4326C871.603 44.4326 873.551 45.0576 874.971 46.2068L876.229 44.6523ZM869.022 42.4326C866.559 42.4326 864.512 42.9222 863.019 44.0422L864.219 45.6422C865.231 44.8828 866.786 44.4326 869.022 44.4326V42.4326ZM863.052 44.0182C861.518 45.0728 860.739 46.6 860.739 48.4837H862.739C862.739 47.2349 863.213 46.3345 864.185 45.6663L863.052 44.0182ZM860.739 48.4837C860.739 49.607 861.035 50.6326 861.652 51.5208C862.263 52.4007 863.149 53.0887 864.243 53.6139L865.109 51.8109C864.245 51.3964 863.663 50.9097 863.295 50.38C862.933 49.8587 862.739 49.2398 862.739 48.4837H860.739ZM864.257 53.6204C866.393 54.6061 869.61 55.5641 873.856 56.5078L874.29 54.5554C870.079 53.6197 867.031 52.6982 865.095 51.8045L864.257 53.6204ZM873.823 56.4999C878.655 57.7466 882.561 58.9864 885.558 60.2157L886.317 58.3653C883.205 57.0886 879.202 55.8225 874.323 54.5633L873.823 56.4999ZM885.578 60.2238C888.458 61.3316 890.983 63.1811 893.155 65.8018L894.695 64.5257C892.324 61.6647 889.524 59.5987 886.296 58.3571L885.578 60.2238ZM893.175 65.8254C895.327 68.2646 896.491 71.6155 896.566 75.9878L898.566 75.9534C898.485 71.2416 897.221 67.388 894.675 64.5021L893.175 65.8254ZM896.566 75.9706C896.566 79.6032 895.533 82.8439 893.465 85.7243L895.09 86.8908C897.407 83.663 898.566 80.0124 898.566 75.9706H896.566ZM893.462 85.7283C891.476 88.5238 888.545 90.7686 884.608 92.4345L885.387 94.2765C889.594 92.4967 892.85 90.0429 895.092 86.8868L893.462 85.7283ZM884.601 92.4373C880.757 94.0955 876.238 94.9397 871.019 94.9397V96.9397C876.451 96.9397 881.25 96.0611 885.394 94.2737L884.601 92.4373ZM913.614 19.5872L912.92 20.307L912.933 20.3196L912.947 20.3317L913.614 19.5872ZM913.614 4.0817L914.295 4.8145L914.295 4.8136L913.614 4.0817ZM930.764 4.0817L930.07 4.80155L930.083 4.81415L930.096 4.82627L930.764 4.0817ZM930.764 19.5872L931.444 20.3199L931.445 20.319L930.764 19.5872ZM932.291 29.4543H933.291V28.4543H932.291V29.4543ZM932.291 95V96H933.291V95H932.291ZM912.204 95H911.204V96H912.204V95ZM912.204 29.4543V28.4543H911.204V29.4543H912.204ZM922.307 21.6413C918.988 21.6413 916.341 20.6888 914.282 18.8426L912.947 20.3317C915.429 22.5576 918.577 23.6413 922.307 23.6413V21.6413ZM914.308 18.8673C912.312 16.942 911.325 14.6178 911.325 11.8344H909.325C909.325 15.1592 910.531 18.0036 912.92 20.307L914.308 18.8673ZM911.325 11.8344C911.325 8.9654 912.316 6.65159 914.295 4.8145L912.934 3.34891C910.527 5.58396 909.325 8.43863 909.325 11.8344H911.325ZM914.295 4.8136C916.356 2.89515 918.998 1.91013 922.307 1.91013V-0.0898662C918.567 -0.0898662 915.414 1.0395 912.933 3.34981L914.295 4.8136ZM922.307 1.91013C925.53 1.91013 928.089 2.89092 930.07 4.80155L931.458 3.36186C929.054 1.04373 925.974 -0.0898662 922.307 -0.0898662V1.91013ZM930.096 4.82627C932.15 6.6669 933.171 8.97743 933.171 11.8344H935.171C935.171 8.4266 933.921 5.56865 931.432 3.33713L930.096 4.82627ZM933.171 11.8344C933.171 14.6059 932.154 16.9266 930.083 18.8553L931.445 20.319C933.916 18.0189 935.171 15.1711 935.171 11.8344H933.171ZM930.084 18.8544C928.104 20.6927 925.541 21.6413 922.307 21.6413V23.6413C925.964 23.6413 929.039 22.5538 931.444 20.3199L930.084 18.8544ZM931.291 29.4543V95H933.291V29.4543H931.291ZM932.291 94H912.204V96H932.291V94ZM913.204 95V29.4543H911.204V95H913.204ZM912.204 30.4543L932.291 30.4543V28.4543H912.204V30.4543ZM961.648 91.8284L961.174 92.7089L961.18 92.7119L961.648 91.8284ZM949.549 80.0819L948.68 80.5766L948.686 80.5866L949.549 80.0819ZM949.667 44.4898L950.53 44.9945L950.533 44.9888L949.667 44.4898ZM961.883 32.6258L962.352 33.5093L962.352 33.5093L961.883 32.6258ZM996.653 32.6258L996.185 33.5093L996.185 33.5093L996.653 32.6258ZM1008.87 44.4898L1008 44.9888L1008.01 44.9945L1008.87 44.4898ZM1008.75 80.0819L1007.89 79.5731L1007.89 79.5772L1008.75 80.0819ZM996.418 91.8284L995.955 90.9421L995.95 90.945L996.418 91.8284ZM988.783 74.3261L988.066 73.629L988.061 73.6342L988.056 73.6394L988.783 74.3261ZM988.9 50.1282L988.163 50.8039L988.168 50.8094L988.173 50.8148L988.9 50.1282ZM969.519 50.1282L970.246 50.8143L970.256 50.8039L969.519 50.1282ZM969.401 74.3261L968.654 74.9904L968.659 74.9962L968.664 75.0018L969.401 74.3261ZM979.033 94.9397C972.759 94.9397 967.127 93.602 962.117 90.945L961.18 92.7119C966.506 95.5366 972.465 96.9397 979.033 96.9397V94.9397ZM962.122 90.948C957.197 88.296 953.298 84.512 950.413 79.5772L948.686 80.5866C951.753 85.8321 955.919 89.8791 961.174 92.7089L962.122 90.948ZM950.418 79.5872C947.62 74.6708 946.203 68.8952 946.203 62.2271H944.203C944.203 69.185 945.684 75.3126 948.68 80.5766L950.418 79.5872ZM946.203 62.2271C946.203 55.6442 947.656 49.9108 950.53 44.9945L948.804 43.9851C945.726 49.2492 944.203 55.3407 944.203 62.2271H946.203ZM950.533 44.9888C953.417 39.98 957.353 36.1602 962.352 33.5093L961.415 31.7424C956.077 34.5732 951.868 38.6627 948.8 43.9909L950.533 44.9888ZM962.352 33.5093C967.362 30.8522 972.994 29.5145 979.268 29.5145V27.5145C972.7 27.5145 966.741 28.9177 961.415 31.7424L962.352 33.5093ZM979.268 29.5145C985.543 29.5145 991.174 30.8522 996.185 33.5093L997.122 31.7424C991.795 28.9177 985.837 27.5145 979.268 27.5145V29.5145ZM996.185 33.5093C1001.18 36.1602 1005.12 39.98 1008 44.9888L1009.74 43.9909C1006.67 38.6627 1002.46 34.5732 997.122 31.7424L996.185 33.5093ZM1008.01 44.9945C1010.88 49.9108 1012.33 55.6442 1012.33 62.2271H1014.33C1014.33 55.3407 1012.81 49.2492 1009.73 43.9851L1008.01 44.9945ZM1012.33 62.2271C1012.33 68.8052 1010.84 74.5769 1007.89 79.5732L1009.61 80.5906C1012.77 75.2499 1014.33 69.1185 1014.33 62.2271H1012.33ZM1007.89 79.5772C1005.01 84.5044 1001.04 88.2879 995.955 90.9421L996.881 92.7148C1002.29 89.8872 1006.54 85.8397 1009.62 80.5866L1007.89 79.5772ZM995.95 90.945C990.939 93.602 985.308 94.9397 979.033 94.9397V96.9397C985.602 96.9397 991.56 95.5366 996.887 92.7119L995.95 90.945ZM979.033 79.5548C983.149 79.5548 986.661 78.0295 989.51 75.0127L988.056 73.6394C985.58 76.261 982.592 77.5548 979.033 77.5548V79.5548ZM989.5 75.0232C992.476 71.9617 993.894 67.6447 993.894 62.2271H991.894C991.894 67.3031 990.571 71.0521 988.066 73.629L989.5 75.0232ZM993.894 62.2271C993.894 56.8168 992.519 52.5038 989.627 49.4416L988.173 50.8148C990.606 53.3909 991.894 57.1438 991.894 62.2271H993.894ZM989.637 49.4525C986.863 46.4259 983.385 44.8994 979.268 44.8994V46.8994C982.826 46.8994 985.769 48.1922 988.163 50.8039L989.637 49.4525ZM979.268 44.8994C975.08 44.8994 971.56 46.4211 968.781 49.4525L970.256 50.8039C972.645 48.1969 975.625 46.8994 979.268 46.8994V44.8994ZM968.791 49.4422C965.971 52.4334 964.642 56.7527 964.642 62.2271H966.642C966.642 57.0513 967.898 53.3047 970.246 50.8142L968.791 49.4422ZM964.642 62.2271C964.642 67.6231 965.931 71.9275 968.654 74.9904L970.148 73.6617C967.859 71.0863 966.642 67.3248 966.642 62.2271H964.642ZM968.664 75.0018C971.438 78.0284 974.917 79.5548 979.033 79.5548V77.5548C975.475 77.5548 972.532 76.2621 970.138 73.6503L968.664 75.0018ZM1037.73 93.0031L1038.13 92.0873L1038.13 92.0873L1037.73 93.0031ZM1027.16 85.0154L1026.36 85.6155L1026.37 85.6243L1027.16 85.0154ZM1022.81 73.5038V72.5038H1021.74L1021.82 73.5777L1022.81 73.5038ZM1042.67 73.5038L1043.66 73.4009L1043.57 72.5038H1042.67V73.5038ZM1045.84 79.0247L1046.44 78.2247L1046.44 78.2247L1045.84 79.0247ZM1058.52 79.7295L1059.1 80.5465L1059.11 80.5402L1058.52 79.7295ZM1057.7 71.7418L1057.27 72.6434L1057.28 72.6505L1057.3 72.6571L1057.7 71.7418ZM1048.19 68.6877L1048.43 67.7176L1048.42 67.7157L1048.41 67.7139L1048.19 68.6877ZM1036.44 65.2812L1036.07 66.2097L1036.08 66.2137L1036.09 66.2176L1036.44 65.2812ZM1028.34 59.5254L1027.57 60.1744L1027.58 60.18L1027.58 60.1855L1028.34 59.5254ZM1027.98 38.6166L1027.15 38.0571L1027.15 38.0619L1027.98 38.6166ZM1037.15 31.2162L1036.74 30.3017L1036.73 30.3046L1037.15 31.2162ZM1070.98 34.6227L1070.32 35.3785L1070.33 35.3838L1070.98 34.6227ZM1079.2 50.833V51.833H1080.31L1080.19 50.7289L1079.2 50.833ZM1060.64 50.833L1059.65 50.9696L1059.77 51.833H1060.64V50.833ZM1057.58 45.4296L1056.96 46.2068L1056.96 46.2139L1056.97 46.2208L1057.58 45.4296ZM1045.6 44.8422L1046.17 45.6663L1046.19 45.6546L1046.2 45.6422L1045.6 44.8422ZM1046.66 52.7124L1046.23 53.6139L1046.23 53.6172L1046.24 53.6204L1046.66 52.7124ZM1056.06 55.5316L1056.31 54.5633L1056.29 54.5591L1056.27 54.5554L1056.06 55.5316ZM1067.92 59.2905L1067.54 60.2157L1067.55 60.2199L1067.56 60.2238L1067.92 59.2905ZM1075.91 65.1638L1075.14 65.8018L1075.15 65.8137L1075.16 65.8254L1075.91 65.1638ZM1079.55 75.9706H1080.55V75.962L1080.55 75.9534L1079.55 75.9706ZM1076.26 86.3076L1075.45 85.7243L1075.45 85.7283L1076.26 86.3076ZM1066.98 93.3555L1066.59 92.4345L1066.59 92.4373L1066.98 93.3555ZM1053 94.9397C1047.4 94.9397 1042.45 93.9808 1038.13 92.0873L1037.33 93.9189C1041.94 95.9409 1047.17 96.9397 1053 96.9397V94.9397ZM1038.13 92.0873C1033.8 90.1871 1030.42 87.6216 1027.95 84.4066L1026.37 85.6243C1029.07 89.144 1032.74 91.9036 1037.33 93.9189L1038.13 92.0873ZM1027.96 84.4154C1025.49 81.1201 1024.11 77.4649 1023.81 73.4299L1021.82 73.5777C1022.15 78.0002 1023.66 82.0194 1026.36 85.6154L1027.96 84.4154ZM1022.81 74.5038H1042.67V72.5038H1022.81V74.5038ZM1041.67 73.6067C1041.94 76.1639 1043.14 78.2534 1045.24 79.8247L1046.44 78.2247C1044.77 76.9768 1043.87 75.3857 1043.66 73.4009L1041.67 73.6067ZM1045.24 79.8247C1047.32 81.3849 1049.85 82.1391 1052.77 82.1391V80.1391C1050.21 80.1391 1048.12 79.4837 1046.44 78.2247L1045.24 79.8247ZM1052.77 82.1391C1055.38 82.1391 1057.53 81.6537 1059.1 80.5465L1057.95 78.9125C1056.85 79.6847 1055.17 80.1391 1052.77 80.1391V82.1391ZM1059.11 80.5402C1060.75 79.3581 1061.64 77.7794 1061.64 75.8531H1059.64C1059.64 77.0593 1059.12 78.0648 1057.94 78.9188L1059.11 80.5402ZM1061.64 75.8531C1061.64 74.7302 1061.34 73.7088 1060.72 72.8345C1060.1 71.9684 1059.2 71.3104 1058.1 70.8265L1057.3 72.6571C1058.16 73.0347 1058.73 73.4926 1059.09 73.997C1059.45 74.4931 1059.64 75.0966 1059.64 75.8531H1061.64ZM1058.13 70.8403C1056.08 69.8543 1052.83 68.8167 1048.43 67.7176L1047.94 69.6579C1052.32 70.7514 1055.41 71.7499 1057.27 72.6434L1058.13 70.8403ZM1048.41 67.7139C1043.74 66.6235 1039.87 65.4994 1036.79 64.3449L1036.09 66.2176C1039.28 67.4124 1043.24 68.5593 1047.96 69.6616L1048.41 67.7139ZM1036.81 64.3528C1033.83 63.1593 1031.26 61.3339 1029.09 58.8653L1027.58 60.1855C1029.96 62.8854 1032.79 64.8972 1036.07 66.2097L1036.81 64.3528ZM1029.1 58.8765C1027.02 56.4402 1025.93 53.1291 1025.93 48.8361H1023.93C1023.93 53.4704 1025.11 57.2856 1027.57 60.1744L1029.1 58.8765ZM1025.93 48.8361C1025.93 45.2695 1026.89 42.0569 1028.82 39.1713L1027.15 38.0619C1025 41.2844 1023.93 44.8848 1023.93 48.8361H1025.93ZM1028.81 39.176C1030.81 36.2207 1033.7 33.865 1037.56 32.1278L1036.73 30.3046C1032.6 32.1697 1029.39 34.7476 1027.15 38.0571L1028.81 39.176ZM1037.55 32.1308C1041.47 30.3982 1046.14 29.5145 1051.59 29.5145V27.5145C1045.93 27.5145 1040.97 28.432 1036.74 30.3017L1037.55 32.1308ZM1051.59 29.5145C1059.65 29.5145 1065.86 31.5087 1070.32 35.3784L1071.63 33.867C1066.7 29.5925 1059.98 27.5145 1051.59 27.5145V29.5145ZM1070.33 35.3838C1074.89 39.2756 1077.52 44.4356 1078.2 50.9371L1080.19 50.7289C1079.46 43.761 1076.61 38.1142 1071.62 33.8617L1070.33 35.3838ZM1079.2 49.833H1060.64V51.833H1079.2V49.833ZM1061.63 50.6963C1061.28 48.1811 1060.14 46.1389 1058.2 44.6383L1056.97 46.2208C1058.48 47.3828 1059.37 48.9428 1059.65 50.9696L1061.63 50.6963ZM1058.21 44.6523C1056.34 43.139 1053.91 42.4326 1051.01 42.4326V44.4326C1053.59 44.4326 1055.54 45.0576 1056.96 46.2068L1058.21 44.6523ZM1051.01 42.4326C1048.54 42.4326 1046.5 42.9222 1045 44.0422L1046.2 45.6422C1047.22 44.8828 1048.77 44.4326 1051.01 44.4326V42.4326ZM1045.04 44.0182C1043.5 45.0728 1042.72 46.6 1042.72 48.4837H1044.72C1044.72 47.2349 1045.2 46.3345 1046.17 45.6663L1045.04 44.0182ZM1042.72 48.4837C1042.72 49.607 1043.02 50.6326 1043.64 51.5208C1044.25 52.4007 1045.13 53.0887 1046.23 53.6139L1047.09 51.8109C1046.23 51.3964 1045.65 50.9097 1045.28 50.38C1044.92 49.8587 1044.72 49.2398 1044.72 48.4837H1042.72ZM1046.24 53.6204C1048.38 54.6061 1051.59 55.5641 1055.84 56.5078L1056.27 54.5554C1052.06 53.6197 1049.02 52.6982 1047.08 51.8045L1046.24 53.6204ZM1055.81 56.4999C1060.64 57.7466 1064.55 58.9864 1067.54 60.2157L1068.3 58.3653C1065.19 57.0886 1061.19 55.8225 1056.31 54.5633L1055.81 56.4999ZM1067.56 60.2238C1070.44 61.3316 1072.97 63.1811 1075.14 65.8018L1076.68 64.5257C1074.31 61.6647 1071.51 59.5987 1068.28 58.3571L1067.56 60.2238ZM1075.16 65.8254C1077.31 68.2646 1078.48 71.6155 1078.55 75.9878L1080.55 75.9534C1080.47 71.2416 1079.21 67.388 1076.66 64.5021L1075.16 65.8254ZM1078.55 75.9706C1078.55 79.6032 1077.52 82.8439 1075.45 85.7243L1077.07 86.8908C1079.39 83.663 1080.55 80.0124 1080.55 75.9706H1078.55ZM1075.45 85.7283C1073.46 88.5238 1070.53 90.7686 1066.59 92.4345L1067.37 94.2765C1071.58 92.4967 1074.83 90.0429 1077.08 86.8868L1075.45 85.7283ZM1066.59 92.4373C1062.74 94.0955 1058.22 94.9397 1053 94.9397V96.9397C1058.43 96.9397 1063.23 96.0611 1067.38 94.2737L1066.59 92.4373Z" fill="#F2B125"/>
</svg>
