<svg width="1439" height="133" viewBox="0 0 1439 133" fill="none" xmlns="http://www.w3.org/2000/svg">
<path d="M16.3486 98.4433L15.9397 99.4409L15.9397 99.4409L16.3486 98.4433ZM4.7255 89.6667L3.85659 90.3051L3.86078 90.3108L3.86505 90.3164L4.7255 89.6667ZM0.2186 75.6716V74.5934H-0.891311L-0.859153 75.7028L0.2186 75.6716ZM21.8043 75.6716L22.8769 75.5616L22.7776 74.5934H21.8043V75.6716ZM25.0066 82.7877L24.2796 83.584L24.2892 83.5928L24.2991 83.6013L25.0066 82.7877ZM39.2389 83.1435L39.8981 83.9967L39.91 83.9875L39.9216 83.978L39.2389 83.1435ZM39.7133 72.2321L38.9509 72.9945L38.9618 73.0054L38.973 73.016L39.7133 72.2321ZM34.6134 68.9112L34.1791 69.8981L34.1862 69.9012L34.1933 69.9042L34.6134 68.9112ZM26.074 65.9462L25.7558 66.9764L25.7662 66.9795L26.074 65.9462ZM4.13249 53.6115L4.99253 52.9612L4.99253 52.9612L4.13249 53.6115ZM8.87659 22.7748L9.53691 23.6272L9.54431 23.6214L8.87659 22.7748ZM52.9968 22.7748L52.329 23.6214L52.3365 23.6272L52.9968 22.7748ZM62.0106 41.0396V42.1178H63.1446L63.0874 40.9852L62.0106 41.0396ZM40.0691 41.0396L38.9927 41.1029L39.0524 42.1178H40.0691V41.0396ZM37.104 34.7537L36.3965 35.5673L36.4068 35.5762L36.4173 35.5849L37.104 34.7537ZM24.1763 34.3979L24.8708 35.2226L24.8832 35.2122L24.8953 35.2014L24.1763 34.3979ZM25.7182 46.2581L26.2686 45.331L26.2686 45.331L25.7182 46.2581ZM37.5784 51.1208L37.9239 50.0995L37.9171 50.0972L37.9103 50.095L37.5784 51.1208ZM50.6247 56.3393L50.1425 57.3038L50.1516 57.3082L50.6247 56.3393ZM59.4013 63.5741L58.5491 64.2346L58.5491 64.2346L59.4013 63.5741ZM59.4013 88.7179L58.4901 88.1414L58.4859 88.1481L58.4818 88.1549L59.4013 88.7179ZM48.9643 97.9689L48.4821 97.0045L48.4821 97.0045L48.9643 97.9689ZM32.7157 100.33C26.7445 100.33 21.431 99.361 16.7574 97.4456L15.9397 99.4409C20.9125 101.479 26.5104 102.487 32.7157 102.487V100.33ZM16.7574 97.4456C12.0996 95.5367 8.38631 92.7255 5.58595 89.017L3.86505 90.3164C6.91575 94.3565 10.9512 97.3965 15.9397 99.4409L16.7574 97.4456ZM5.59441 89.0283C2.89466 85.3536 1.44903 80.9078 1.29635 75.6403L-0.859153 75.7028C-0.695561 81.3467 0.863417 86.231 3.85659 90.3051L5.59441 89.0283ZM0.2186 76.7498H21.8043V74.5934H0.2186V76.7498ZM20.7317 75.7816C21.0677 79.058 22.2187 81.7023 24.2796 83.584L25.7336 81.9915C24.1573 80.5523 23.1734 78.4524 22.8769 75.5616L20.7317 75.7816ZM24.2991 83.6013C26.3536 85.388 28.9953 86.238 32.1227 86.238V84.0816C29.3991 84.0816 27.2966 83.3502 25.714 81.9741L24.2991 83.6013ZM32.1227 86.238C35.2795 86.238 37.9112 85.532 39.8981 83.9967L38.5796 82.2904C37.0875 83.4434 34.9752 84.0816 32.1227 84.0816V86.238ZM39.9216 83.978C41.9361 82.3298 42.9263 80.0732 42.9263 77.332H40.7699C40.7699 79.4931 40.0206 81.1108 38.5561 82.3091L39.9216 83.978ZM42.9263 77.332C42.9263 74.9963 42.1043 73.0073 40.4536 71.4482L38.973 73.016C40.1687 74.1453 40.7699 75.5562 40.7699 77.332H42.9263ZM40.4757 71.4697C39.0178 70.0118 37.1952 68.8328 35.0335 67.9182L34.1933 69.9042C36.1431 70.7291 37.7204 71.7641 38.9509 72.9945L40.4757 71.4697ZM35.0476 67.9243C33.0096 67.0276 30.113 66.0242 26.3818 64.9128L25.7662 66.9795C29.4674 68.082 32.2637 69.0553 34.1791 69.8981L35.0476 67.9243ZM26.3921 64.916C21.0457 63.2648 16.7144 61.6233 13.3822 59.996L12.4359 61.9337C15.9036 63.6272 20.349 65.3066 25.7558 66.9764L26.3921 64.916ZM13.3822 59.996C10.1456 58.4153 7.34925 56.0782 4.99253 52.9612L3.27245 54.2618C5.81797 57.6284 8.87266 60.1935 12.4359 61.9337L13.3822 59.996ZM4.99253 52.9612C2.71873 49.9539 1.53401 45.9719 1.53401 40.921H-0.6224C-0.6224 46.3071 0.644006 50.7854 3.27245 54.2618L4.99253 52.9612ZM1.53401 40.921C1.53401 33.4708 4.21311 27.7512 9.53688 23.6272L8.2163 21.9224C2.31236 26.4959 -0.6224 32.8738 -0.6224 40.921H1.53401ZM9.54431 23.6214C14.9229 19.3791 21.9822 17.2113 30.8181 17.2113V15.0548C21.6263 15.0548 14.058 17.3149 8.20887 21.9282L9.54431 23.6214ZM30.8181 17.2113C39.8171 17.2113 46.9535 19.3815 52.3291 23.6214L53.6645 21.9282C47.8123 17.3124 40.1629 15.0548 30.8181 15.0548V17.2113ZM52.3365 23.6272C57.6742 27.762 60.5524 33.5436 60.9337 41.094L63.0874 40.9852C62.6781 32.8801 59.5471 26.4851 53.6571 21.9224L52.3365 23.6272ZM62.0106 39.9614L40.0691 39.9614V42.1178L62.0106 42.1178V39.9614ZM41.1454 40.9763C40.9724 38.0355 39.8739 35.6433 37.7907 33.9224L36.4173 35.5849C37.9713 36.8687 38.8495 38.667 38.9927 41.1029L41.1454 40.9763ZM37.8115 33.94C35.7623 32.1581 33.1633 31.3034 30.1065 31.3034V33.4598C32.7425 33.4598 34.8086 34.1865 36.3965 35.5673L37.8115 33.94ZM30.1065 31.3034C27.4501 31.3034 25.198 32.037 23.4574 33.5943L24.8953 35.2014C26.1593 34.0704 27.8606 33.4598 30.1065 33.4598V31.3034ZM23.4818 33.5731C21.6775 35.0925 20.8447 37.2888 20.8447 39.9722H23.0011C23.0011 37.7533 23.6706 36.2333 24.8708 35.2226L23.4818 33.5731ZM20.8447 39.9722C20.8447 43.0826 22.3477 45.5108 25.1677 47.1852L26.2686 45.331C24.0283 44.0008 23.0011 42.2385 23.0011 39.9722H20.8447ZM25.1677 47.1852C27.8038 48.7504 31.8497 50.4007 37.2465 52.1467L37.9103 50.095C32.5538 48.362 28.6929 46.7704 26.2686 45.331L25.1677 47.1852ZM37.233 52.1422C42.5845 53.9523 46.8825 55.6737 50.1425 57.3037L51.1069 55.375C47.7252 53.6841 43.3257 51.9265 37.9239 50.0995L37.233 52.1422ZM50.1516 57.3082C53.3947 58.892 56.1931 61.1946 58.5491 64.2346L60.2535 62.9136C57.7073 59.6281 54.6546 57.1075 51.0979 55.3705L50.1516 57.3082ZM58.5491 64.2346C60.8209 67.166 61.9998 70.9882 61.9998 75.7902H64.1562C64.1562 70.6295 62.884 66.3077 60.2535 62.9136L58.5491 64.2346ZM61.9998 75.7902C61.9998 80.3377 60.8282 84.4457 58.4901 88.1414L60.3125 89.2943C62.8766 85.2413 64.1562 80.7309 64.1562 75.7902H61.9998ZM58.4818 88.1549C56.2282 91.8357 52.9114 94.7898 48.4821 97.0045L49.4465 98.9332C54.1891 96.5619 57.8304 93.3487 60.3209 89.2809L58.4818 88.1549ZM48.4821 97.0045C44.075 99.208 38.8307 100.33 32.7157 100.33V102.487C39.0935 102.487 44.6816 101.316 49.4465 98.9332L48.4821 97.0045ZM136.877 41.2768L136.078 42.0009L136.083 42.0071L136.877 41.2768ZM143.756 100.578V101.656H144.834V100.578H143.756ZM123.593 100.578H122.515V101.656H123.593V100.578ZM120.154 54.3231L119.366 55.0597L119.366 55.0597L120.154 54.3231ZM101.652 54.3231L102.439 55.0597L102.439 55.0597L101.652 54.3231ZM98.2122 100.578V101.656H99.2904V100.578H98.2122ZM77.9311 100.578H76.8529V101.656H77.9311V100.578ZM77.9311 12.8122V11.734H76.8529V12.8122H77.9311ZM98.2122 12.8122H99.2904V11.734H98.2122V12.8122ZM98.2122 43.2931H97.134L97.134 46.7027L99.0944 43.913L98.2122 43.2931ZM106.633 36.2955L106.159 35.3268L106.159 35.3268L106.633 36.2955ZM118.612 34.7644C125.936 34.7644 131.72 37.1925 136.078 42.0008L137.676 40.5528C132.861 35.2403 126.469 32.608 118.612 32.608V34.7644ZM136.083 42.0071C140.437 46.7359 142.677 53.325 142.677 61.9137H144.834C144.834 52.9491 142.488 45.7803 137.67 40.5465L136.083 42.0071ZM142.677 61.9137L142.677 100.578H144.834L144.834 61.9137H142.677ZM143.756 99.4999H123.593V101.656H143.756V99.4999ZM124.671 100.578L124.671 64.6415H122.515L122.515 100.578H124.671ZM124.671 64.6415C124.671 60.0298 123.474 56.2944 120.941 53.5865L119.366 55.0597C121.419 57.254 122.515 60.3976 122.515 64.6415H124.671ZM120.941 53.5865C118.412 50.8832 115.025 49.5682 110.903 49.5682V51.7246C114.529 51.7246 117.309 52.8608 119.366 55.0597L120.941 53.5865ZM110.903 49.5682C106.78 49.5682 103.393 50.8832 100.864 53.5865L102.439 55.0597C104.496 52.8608 107.276 51.7246 110.903 51.7246V49.5682ZM100.864 53.5865C98.3311 56.2944 97.134 60.0298 97.134 64.6415H99.2904C99.2904 60.3976 100.386 57.254 102.439 55.0597L100.864 53.5865ZM97.134 64.6415V100.578H99.2904V64.6415H97.134ZM98.2122 99.4999H77.9311V101.656H98.2122V99.4999ZM79.0093 100.578L79.0093 12.8122L76.8529 12.8122L76.8529 100.578H79.0093ZM77.9311 13.8904L98.2122 13.8904V11.734L77.9311 11.734V13.8904ZM97.134 12.8122V43.2931H99.2904V12.8122H97.134ZM99.0944 43.913C101.035 41.1518 103.694 38.9325 107.107 37.2641L106.159 35.3268C102.456 37.1375 99.5013 39.5832 97.33 42.6731L99.0944 43.913ZM107.107 37.2641C110.501 35.6048 114.329 34.7644 118.612 34.7644V32.608C114.039 32.608 109.882 33.5071 106.159 35.3268L107.107 37.2641ZM172.793 97.3759L172.282 98.3252L172.288 98.3284L172.793 97.3759ZM160.577 85.5156L159.64 86.049L159.646 86.0598L160.577 85.5156ZM160.695 49.579L161.626 50.1232L161.63 50.117L160.695 49.579ZM173.03 37.6001L173.535 38.5527L173.535 38.5527L173.03 37.6001ZM208.136 37.6001L207.631 38.5527L207.631 38.5527L208.136 37.6001ZM220.471 49.579L219.537 50.117L219.54 50.1232L220.471 49.579ZM220.352 85.5156L219.424 84.9671L219.422 84.9714L220.352 85.5156ZM207.899 97.3759L207.4 96.4202L207.394 96.4233L207.899 97.3759ZM200.19 79.7041L199.417 78.9525L199.412 78.9581L199.406 78.9637L200.19 79.7041ZM200.309 55.2719L199.514 56.0005L199.519 56.0064L199.525 56.0122L200.309 55.2719ZM180.739 55.2719L181.524 56.0116L181.529 56.0061L181.534 56.0005L180.739 55.2719ZM180.621 79.7041L179.815 80.4204L179.82 80.4265L179.826 80.4326L180.621 79.7041ZM190.346 100.449C184.021 100.449 178.346 99.1003 173.298 96.4233L172.288 98.3284C177.677 101.186 183.704 102.605 190.346 102.605V100.449ZM173.304 96.4265C168.343 93.755 164.414 89.9434 161.508 84.9714L159.646 86.0598C162.748 91.3667 166.964 95.4619 172.282 98.3252L173.304 96.4265ZM161.514 84.9822C158.695 80.0301 157.267 74.2107 157.267 67.488H155.11C155.11 74.5232 156.608 80.7222 159.64 86.049L161.514 84.9822ZM157.267 67.488C157.267 60.8517 158.731 55.0752 161.626 50.1232L159.765 49.0348C156.65 54.3617 155.11 60.5245 155.11 67.488H157.267ZM161.63 50.117C164.535 45.0707 168.5 41.2231 173.535 38.5527L172.525 36.6476C167.124 39.512 162.865 43.6503 159.761 49.041L161.63 50.117ZM173.535 38.5527C178.583 35.8756 184.258 34.5272 190.583 34.5272V32.3708C183.941 32.3708 177.914 33.7898 172.525 36.6476L173.535 38.5527ZM190.583 34.5272C196.908 34.5272 202.583 35.8756 207.631 38.5527L208.642 36.6476C203.253 33.7898 197.225 32.3708 190.583 32.3708V34.5272ZM207.631 38.5527C212.667 41.2231 216.631 45.0707 219.537 50.117L221.406 49.041C218.302 43.6503 214.043 39.512 208.642 36.6476L207.631 38.5527ZM219.54 50.1232C222.435 55.0752 223.9 60.8517 223.9 67.488H226.056C226.056 60.5245 224.516 54.3617 221.402 49.0348L219.54 50.1232ZM223.9 67.488C223.9 74.119 222.398 79.9342 219.424 84.9671L221.281 86.0641C224.474 80.6599 226.056 74.4568 226.056 67.488H223.9ZM219.422 84.9714C216.52 89.9351 212.519 93.7463 207.4 96.4202L208.398 98.3315C213.875 95.4707 218.176 91.375 221.283 86.0598L219.422 84.9714ZM207.394 96.4233C202.346 99.1003 196.671 100.449 190.346 100.449V102.605C196.988 102.605 203.015 101.186 208.404 98.3284L207.394 96.4233ZM190.346 85.052C194.521 85.052 198.084 83.5039 200.974 80.4444L199.406 78.9637C196.919 81.5971 193.92 82.8956 190.346 82.8956V85.052ZM200.963 80.4557C203.984 77.348 205.419 72.9697 205.419 67.488H203.263C203.263 72.6014 201.93 76.3672 199.417 78.9525L200.963 80.4557ZM205.419 67.488C205.419 62.0141 204.028 57.6402 201.093 54.5316L199.525 56.0122C201.966 58.5966 203.263 62.3667 203.263 67.488H205.419ZM201.103 54.5433C198.289 51.4732 194.759 49.924 190.583 49.924V52.0804C194.157 52.0804 197.11 53.3777 199.514 56.0005L201.103 54.5433ZM190.583 49.924C186.336 49.924 182.763 51.4681 179.944 54.5433L181.534 56.0005C183.934 53.3828 186.924 52.0804 190.583 52.0804V49.924ZM179.955 54.5323C177.091 57.5696 175.747 61.9503 175.747 67.488H177.904C177.904 62.2723 179.169 58.509 181.524 56.0116L179.955 54.5323ZM175.747 67.488C175.747 72.9464 177.051 77.311 179.815 80.4204L181.426 78.9877C179.13 76.4042 177.904 72.6247 177.904 67.488H175.747ZM179.826 80.4326C182.64 83.5027 186.171 85.052 190.346 85.052V82.8956C186.773 82.8956 183.82 81.5983 181.415 78.9755L179.826 80.4326ZM258.391 43.7675H257.312V47.4474L259.298 44.3493L258.391 43.7675ZM266.574 36.2955L266.058 35.3489L266.058 35.3489L266.574 36.2955ZM293.616 37.6001L293.044 38.5144L293.044 38.5144L293.616 37.6001ZM304.053 49.4604L303.085 49.9367L303.091 49.9485L304.053 49.4604ZM304.053 85.397L303.088 84.9148L303.085 84.9208L304.053 85.397ZM293.616 97.3759L294.187 98.2902L294.199 98.2828L293.616 97.3759ZM266.574 98.6805L266.058 99.6271L266.067 99.6318L266.574 98.6805ZM258.391 91.3271L259.291 90.7345L257.312 87.7265V91.3271H258.391ZM258.391 132.126V133.205H259.469V132.126H258.391ZM238.11 132.126H237.031V133.205H238.11V132.126ZM238.11 34.3979V33.3196H237.031V34.3979H238.11ZM258.391 34.3979H259.469V33.3196H258.391V34.3979ZM283.06 55.5091L282.277 56.2501L282.287 56.2609L282.298 56.2715L283.06 55.5091ZM262.423 55.5091L261.65 54.7572L261.645 54.7627L261.64 54.7682L262.423 55.5091ZM262.423 79.4669L261.64 80.2078L261.645 80.2133L261.65 80.2187L262.423 79.4669ZM283.06 79.4669L283.833 80.2187L283.838 80.2136L283.843 80.2084L283.06 79.4669ZM259.298 44.3493C261.169 41.4305 263.757 39.0602 267.09 37.242L266.058 35.3489C262.433 37.326 259.565 39.9371 257.483 43.1856L259.298 44.3493ZM267.09 37.242C270.385 35.4449 274.274 34.5272 278.79 34.5272V32.3708C273.977 32.3708 269.721 33.3508 266.058 35.3489L267.09 37.242ZM278.79 34.5272C284.053 34.5272 288.796 35.8591 293.044 38.5144L294.187 36.6858C289.58 33.8064 284.439 32.3708 278.79 32.3708V34.5272ZM293.044 38.5144C297.285 41.1653 300.635 44.9591 303.085 49.9366L305.02 48.9842C302.41 43.6828 298.801 39.5698 294.187 36.6858L293.044 38.5144ZM303.091 49.9485C305.611 54.9118 306.888 60.7088 306.888 67.3694H309.045C309.045 60.4302 307.713 54.2879 305.014 48.9723L303.091 49.9485ZM306.888 67.3694C306.888 74.0295 305.611 79.8689 303.088 84.9148L305.017 85.8792C307.713 80.488 309.045 74.309 309.045 67.3694H306.888ZM303.085 84.9208C300.634 89.9004 297.281 93.7377 293.033 96.4689L294.199 98.2828C298.806 95.3211 302.411 91.1724 305.02 85.8732L303.085 84.9208ZM293.044 96.4615C288.796 99.1169 284.053 100.449 278.79 100.449V102.605C284.439 102.605 289.58 101.17 294.187 98.2902L293.044 96.4615ZM278.79 100.449C274.357 100.449 270.463 99.5326 267.082 97.7291L266.067 99.6318C269.801 101.624 274.052 102.605 278.79 102.605V100.449ZM267.09 97.7339C263.751 95.9122 261.161 93.5768 259.291 90.7345L257.49 91.9197C259.573 95.0867 262.44 97.6535 266.058 99.627L267.09 97.7339ZM257.312 91.3271V132.126H259.469V91.3271H257.312ZM258.391 131.048L238.11 131.048V133.205L258.391 133.205V131.048ZM239.188 132.126L239.188 34.3979H237.031L237.031 132.126H239.188ZM238.11 35.4761H258.391V33.3196H238.11V35.4761ZM257.312 34.3979V43.7675H259.469V34.3979H257.312ZM288.408 67.3694C288.408 62.1006 286.92 57.8443 283.822 54.7467L282.298 56.2715C284.893 58.8669 286.251 62.5175 286.251 67.3694H288.408ZM283.843 54.7682C280.867 51.6223 277.142 50.0426 272.741 50.0426V52.199C276.564 52.199 279.718 53.5449 282.277 56.2501L283.843 54.7682ZM272.741 50.0426C268.414 50.0426 264.697 51.626 261.65 54.7572L263.196 56.261C265.842 53.5412 269.004 52.199 272.741 52.199V50.0426ZM261.64 54.7682C258.638 57.9419 257.194 62.2259 257.194 67.488H259.35C259.35 62.6293 260.674 58.9274 263.206 56.2501L261.64 54.7682ZM257.194 67.488C257.194 72.75 258.638 77.0341 261.64 80.2078L263.206 78.7259C260.674 76.0485 259.35 72.3467 259.35 67.488H257.194ZM261.65 80.2187C264.697 83.35 268.414 84.9334 272.741 84.9334V82.7769C269.004 82.7769 265.842 81.4348 263.196 78.715L261.65 80.2187ZM272.741 84.9334C277.069 84.9334 280.786 83.35 283.833 80.2187L282.287 78.715C279.641 81.4348 276.479 82.7769 272.741 82.7769V84.9334ZM283.843 80.2084C286.919 76.9609 288.408 72.6408 288.408 67.3694H286.251C286.251 72.2187 284.894 75.9636 282.277 78.7253L283.843 80.2084ZM322.402 24.4352L321.653 25.2114L321.667 25.225L321.682 25.238L322.402 24.4352ZM322.402 8.77968L323.135 9.56979L323.136 9.56882L322.402 8.77968ZM339.718 8.77968L338.969 9.55582L338.983 9.56941L338.998 9.58248L339.718 8.77968ZM339.718 24.4352L340.451 25.2253L340.452 25.2244L339.718 24.4352ZM341.26 34.3979H342.338V33.3196H341.26V34.3979ZM341.26 100.578V101.656H342.338V100.578H341.26ZM320.978 100.578H319.9V101.656H320.978V100.578ZM320.978 34.3979V33.3196H319.9V34.3979H320.978ZM331.178 26.4407C327.842 26.4407 325.186 25.4836 323.121 23.6324L321.682 25.238C324.203 27.4985 327.399 28.5971 331.178 28.5971V26.4407ZM323.15 23.6591C321.148 21.7281 320.159 19.3992 320.159 16.6075H318.003C318.003 19.983 319.228 22.8727 321.653 25.2114L323.15 23.6591ZM320.159 16.6075C320.159 13.7287 321.153 11.411 323.135 9.56978L321.668 7.98958C319.223 10.2599 318.003 13.1607 318.003 16.6075H320.159ZM323.136 9.56882C325.203 7.64522 327.853 6.65562 331.178 6.65562V4.49921C327.387 4.49921 324.187 5.64445 321.667 7.99055L323.136 9.56882ZM331.178 6.65562C334.418 6.65562 336.983 7.64066 338.969 9.55582L340.466 8.00354C338.024 5.64901 334.897 4.49921 331.178 4.49921V6.65562ZM338.998 9.58248C341.056 11.4275 342.079 13.7417 342.079 16.6075H344.235C344.235 13.1478 342.965 10.2434 340.437 7.97688L338.998 9.58248ZM342.079 16.6075C342.079 19.3864 341.061 21.7115 338.983 23.6461L340.452 25.2244C342.96 22.8893 344.235 19.9958 344.235 16.6075H342.079ZM338.984 23.6451C337 25.4877 334.429 26.4407 331.178 26.4407V28.5971C334.885 28.5971 338.008 27.4943 340.451 25.2253L338.984 23.6451ZM340.181 34.3979V100.578H342.338V34.3979H340.181ZM341.26 99.4999H320.978V101.656H341.26V99.4999ZM322.057 100.578V34.3979H319.9V100.578H322.057ZM320.978 35.4761H341.26V33.3196H320.978V35.4761ZM391.538 51.2394V52.3176H392.616V51.2394H391.538ZM380.626 51.2394V50.1612H379.548V51.2394H380.626ZM380.626 100.578V101.656H381.705V100.578H380.626ZM360.345 100.578H359.267V101.656H360.345V100.578ZM360.345 51.2394L361.424 51.2394V50.1612L360.345 50.1612V51.2394ZM352.992 51.2394H351.914V52.3176H352.992V51.2394ZM352.992 34.3979V33.3196H351.914V34.3979H352.992ZM360.345 34.3979V35.4761L361.424 35.4761V34.3979L360.345 34.3979ZM367.343 13.9982L368.063 14.8003L368.071 14.7936L367.343 13.9982ZM391.182 7.71226H392.26V6.74722L391.301 6.64065L391.182 7.71226ZM391.182 24.9096L391.116 25.9858L392.26 26.0559V24.9096H391.182ZM382.998 26.5701L383.697 27.3916L383.697 27.3916L382.998 26.5701ZM380.626 34.3979H379.548V35.4761H380.626V34.3979ZM391.538 34.3979H392.616V33.3196H391.538V34.3979ZM391.538 50.1612H380.626V52.3176H391.538V50.1612ZM379.548 51.2394V100.578H381.705V51.2394H379.548ZM380.626 99.4999H360.345V101.656H380.626V99.4999ZM361.424 100.578V51.2394L359.267 51.2394V100.578H361.424ZM360.345 50.1612H352.992V52.3176H360.345V50.1612ZM354.07 51.2394V34.3979H351.914V51.2394H354.07ZM352.992 35.4761H360.345V33.3196H352.992V35.4761ZM361.424 34.3979V32.5002H359.267V34.3979L361.424 34.3979ZM361.424 32.5002C361.424 24.5652 363.689 18.7295 368.063 14.8003L366.622 13.1961C361.666 17.6481 359.267 24.1471 359.267 32.5002H361.424ZM368.071 14.7936C372.467 10.7704 379.003 8.67186 387.861 8.67186V6.51545C378.692 6.51545 371.549 8.68662 366.615 13.2028L368.071 14.7936ZM387.861 8.67186C389.357 8.67186 390.414 8.71176 391.063 8.78387L391.301 6.64065C390.527 6.55462 389.37 6.51545 387.861 6.51545V8.67186ZM390.104 7.71226V24.9096H392.26V7.71226L390.104 7.71226ZM391.248 23.8335C387.311 23.5924 384.215 24.1207 382.3 25.7486L383.697 27.3916C384.944 26.3311 387.304 25.7524 391.116 25.9858L391.248 23.8335ZM382.3 25.7486C380.355 27.4016 379.548 30.2165 379.548 33.8048H381.705C381.705 30.4352 382.479 28.4268 383.697 27.3916L382.3 25.7486ZM379.548 33.8048V34.3979H381.705V33.8048H379.548ZM380.626 35.4761H391.538V33.3196H380.626V35.4761ZM390.46 34.3979V51.2394H392.616V34.3979H390.46ZM471.043 34.3979L472.035 34.8198L472.673 33.3196H471.043V34.3979ZM429.532 132.008V133.086H430.245L430.525 132.43L429.532 132.008ZM407.709 132.008L406.726 131.565L406.041 133.086H407.709V132.008ZM422.891 98.3247L423.874 98.7677L424.067 98.3393L423.884 97.9062L422.891 98.3247ZM395.968 34.3979V33.3196H394.344L394.974 34.8163L395.968 34.3979ZM418.621 34.3979L419.632 34.024L419.372 33.3196H418.621V34.3979ZM433.921 75.7902L432.909 76.164L433.925 78.9107L434.933 76.1614L433.921 75.7902ZM449.102 34.3979V33.3196L448.349 33.3196L448.089 34.0266L449.102 34.3979ZM470.051 33.9759L428.54 131.586L430.525 132.43L472.035 34.8198L470.051 33.9759ZM429.532 130.93L407.709 130.93V133.086L429.532 133.086V130.93ZM408.692 132.451L423.874 98.7677L421.908 97.8816L406.726 131.565L408.692 132.451ZM423.884 97.9062L396.961 33.9794L394.974 34.8163L421.897 98.7432L423.884 97.9062ZM395.968 35.4761L418.621 35.4761V33.3196L395.968 33.3196V35.4761ZM417.61 34.7717L432.909 76.164L434.932 75.4164L419.632 34.024L417.61 34.7717ZM434.933 76.1614L450.114 34.7691L448.089 34.0266L432.908 75.4189L434.933 76.1614ZM449.102 35.4761H471.043V33.3196H449.102V35.4761Z" fill="#F2B125"/>
<path d="M493.834 98.4433L493.425 99.4409L493.425 99.4409L493.834 98.4433ZM482.211 89.6667L481.342 90.3051L481.346 90.3108L481.35 90.3164L482.211 89.6667ZM477.704 75.6716V74.5934H476.594L476.626 75.7028L477.704 75.6716ZM499.29 75.6716L500.362 75.5616L500.263 74.5934H499.29V75.6716ZM502.492 82.7877L501.765 83.584L501.775 83.5928L501.784 83.6013L502.492 82.7877ZM516.724 83.1435L517.383 83.9967L517.395 83.9875L517.407 83.978L516.724 83.1435ZM517.199 72.2321L516.436 72.9945L516.447 73.0054L516.458 73.016L517.199 72.2321ZM512.099 68.9112L511.664 69.8981L511.672 69.9012L511.679 69.9042L512.099 68.9112ZM503.559 65.9462L503.241 66.9764L503.252 66.9795L503.559 65.9462ZM481.618 53.6115L482.478 52.9612L482.478 52.9612L481.618 53.6115ZM486.362 22.7748L487.022 23.6272L487.03 23.6214L486.362 22.7748ZM530.482 22.7748L529.814 23.6214L529.822 23.6272L530.482 22.7748ZM539.496 41.0396V42.1178H540.63L540.573 40.9852L539.496 41.0396ZM517.554 41.0396L516.478 41.1029L516.538 42.1178H517.554V41.0396ZM514.589 34.7537L513.882 35.5673L513.892 35.5762L513.903 35.5849L514.589 34.7537ZM501.662 34.3979L502.356 35.2226L502.369 35.2122L502.381 35.2014L501.662 34.3979ZM503.204 46.2581L503.754 45.331L503.754 45.331L503.204 46.2581ZM515.064 51.1208L515.409 50.0995L515.402 50.0972L515.396 50.095L515.064 51.1208ZM528.11 56.3393L527.628 57.3038L527.637 57.3082L528.11 56.3393ZM536.887 63.5741L536.034 64.2346L536.034 64.2346L536.887 63.5741ZM536.887 88.7179L535.975 88.1414L535.971 88.1481L535.967 88.1549L536.887 88.7179ZM526.45 97.9689L525.967 97.0045L525.967 97.0045L526.45 97.9689ZM510.201 100.33C504.23 100.33 498.916 99.361 494.243 97.4456L493.425 99.4409C498.398 101.479 503.996 102.487 510.201 102.487V100.33ZM494.243 97.4456C489.585 95.5367 485.872 92.7255 483.071 89.017L481.35 90.3164C484.401 94.3565 488.437 97.3965 493.425 99.4409L494.243 97.4456ZM483.08 89.0283C480.38 85.3536 478.934 80.9078 478.782 75.6403L476.626 75.7028C476.79 81.3467 478.349 86.231 481.342 90.3051L483.08 89.0283ZM477.704 76.7498H499.29V74.5934H477.704V76.7498ZM498.217 75.7816C498.553 79.058 499.704 81.7023 501.765 83.584L503.219 81.9915C501.643 80.5523 500.659 78.4524 500.362 75.5616L498.217 75.7816ZM501.784 83.6013C503.839 85.388 506.481 86.238 509.608 86.238V84.0816C506.884 84.0816 504.782 83.3502 503.199 81.9741L501.784 83.6013ZM509.608 86.238C512.765 86.238 515.397 85.532 517.383 83.9967L516.065 82.2904C514.573 83.4434 512.461 84.0816 509.608 84.0816V86.238ZM517.407 83.978C519.422 82.3298 520.412 80.0732 520.412 77.332H518.255C518.255 79.4931 517.506 81.1108 516.041 82.3091L517.407 83.978ZM520.412 77.332C520.412 74.9963 519.59 73.0073 517.939 71.4482L516.458 73.016C517.654 74.1453 518.255 75.5562 518.255 77.332H520.412ZM517.961 71.4697C516.503 70.0118 514.681 68.8328 512.519 67.9182L511.679 69.9042C513.628 70.7291 515.206 71.7641 516.436 72.9945L517.961 71.4697ZM512.533 67.9243C510.495 67.0276 507.598 66.0242 503.867 64.9128L503.252 66.9795C506.953 68.082 509.749 69.0553 511.664 69.8981L512.533 67.9243ZM503.877 64.916C498.531 63.2648 494.2 61.6233 490.868 59.996L489.921 61.9337C493.389 63.6272 497.834 65.3066 503.241 66.9764L503.877 64.916ZM490.868 59.996C487.631 58.4153 484.835 56.0782 482.478 52.9612L480.758 54.2618C483.303 57.6284 486.358 60.1935 489.921 61.9337L490.868 59.996ZM482.478 52.9612C480.204 49.9539 479.019 45.9719 479.019 40.921H476.863C476.863 46.3071 478.129 50.7854 480.758 54.2618L482.478 52.9612ZM479.019 40.921C479.019 33.4708 481.698 27.7512 487.022 23.6272L485.702 21.9224C479.798 26.4959 476.863 32.8738 476.863 40.921H479.019ZM487.03 23.6214C492.408 19.3791 499.468 17.2113 508.303 17.2113V15.0548C499.112 15.0548 491.543 17.3149 485.694 21.9282L487.03 23.6214ZM508.303 17.2113C517.302 17.2113 524.439 19.3815 529.814 23.6214L531.15 21.9282C525.298 17.3124 517.648 15.0548 508.303 15.0548V17.2113ZM529.822 23.6272C535.16 27.762 538.038 33.5436 538.419 41.094L540.573 40.9852C540.163 32.8801 537.032 26.4851 531.142 21.9224L529.822 23.6272ZM539.496 39.9614L517.554 39.9614V42.1178L539.496 42.1178V39.9614ZM518.631 40.9763C518.458 38.0355 517.359 35.6433 515.276 33.9224L513.903 35.5849C515.457 36.8687 516.335 38.667 516.478 41.1029L518.631 40.9763ZM515.297 33.94C513.248 32.1581 510.649 31.3034 507.592 31.3034V33.4598C510.228 33.4598 512.294 34.1865 513.882 35.5673L515.297 33.94ZM507.592 31.3034C504.935 31.3034 502.683 32.037 500.943 33.5943L502.381 35.2014C503.645 34.0704 505.346 33.4598 507.592 33.4598V31.3034ZM500.967 33.5731C499.163 35.0925 498.33 37.2888 498.33 39.9722H500.486C500.486 37.7533 501.156 36.2333 502.356 35.2226L500.967 33.5731ZM498.33 39.9722C498.33 43.0826 499.833 45.5108 502.653 47.1852L503.754 45.331C501.514 44.0008 500.486 42.2385 500.486 39.9722H498.33ZM502.653 47.1852C505.289 48.7504 509.335 50.4007 514.732 52.1467L515.396 50.095C510.039 48.362 506.178 46.7704 503.754 45.331L502.653 47.1852ZM514.718 52.1422C520.07 53.9523 524.368 55.6737 527.628 57.3037L528.592 55.375C525.211 53.6841 520.811 51.9265 515.409 50.0995L514.718 52.1422ZM527.637 57.3082C530.88 58.892 533.678 61.1946 536.034 64.2346L537.739 62.9136C535.193 59.6281 532.14 57.1075 528.583 55.3705L527.637 57.3082ZM536.034 64.2346C538.306 67.166 539.485 70.9882 539.485 75.7902H541.642C541.642 70.6295 540.369 66.3077 537.739 62.9136L536.034 64.2346ZM539.485 75.7902C539.485 80.3377 538.314 84.4457 535.975 88.1414L537.798 89.2943C540.362 85.2413 541.642 80.7309 541.642 75.7902H539.485ZM535.967 88.1549C533.714 91.8357 530.397 94.7898 525.967 97.0045L526.932 98.9332C531.674 96.5619 535.316 93.3487 537.806 89.2809L535.967 88.1549ZM525.967 97.0045C521.56 99.208 516.316 100.33 510.201 100.33V102.487C516.579 102.487 522.167 101.316 526.932 98.9332L525.967 97.0045ZM614.362 41.2768L613.563 42.0009L613.569 42.0071L614.362 41.2768ZM621.241 100.578V101.656H622.319V100.578H621.241ZM601.078 100.578H600V101.656H601.078V100.578ZM597.639 54.3231L596.852 55.0597L596.852 55.0597L597.639 54.3231ZM579.137 54.3231L579.924 55.0597L579.924 55.0597L579.137 54.3231ZM575.698 100.578V101.656H576.776V100.578H575.698ZM555.416 100.578H554.338V101.656H555.416V100.578ZM555.416 12.8122V11.734H554.338V12.8122H555.416ZM575.698 12.8122H576.776V11.734H575.698V12.8122ZM575.698 43.2931H574.619V46.7027L576.58 43.913L575.698 43.2931ZM584.118 36.2955L583.645 35.3268L583.645 35.3268L584.118 36.2955ZM596.097 34.7644C603.421 34.7644 609.206 37.1925 613.563 42.0008L615.161 40.5528C610.347 35.2403 603.954 32.608 596.097 32.608V34.7644ZM613.569 42.0071C617.922 46.7359 620.163 53.325 620.163 61.9137H622.319C622.319 52.9491 619.974 45.7803 615.155 40.5465L613.569 42.0071ZM620.163 61.9137V100.578H622.319V61.9137H620.163ZM621.241 99.4999H601.078V101.656H621.241V99.4999ZM602.157 100.578V64.6415H600V100.578H602.157ZM602.157 64.6415C602.157 60.0298 600.96 56.2944 598.426 53.5865L596.852 55.0597C598.904 57.254 600 60.3976 600 64.6415H602.157ZM598.426 53.5865C595.897 50.8832 592.51 49.5682 588.388 49.5682V51.7246C592.014 51.7246 594.795 52.8608 596.852 55.0597L598.426 53.5865ZM588.388 49.5682C584.266 49.5682 580.879 50.8832 578.35 53.5865L579.924 55.0597C581.981 52.8608 584.762 51.7246 588.388 51.7246V49.5682ZM578.35 53.5865C575.816 56.2944 574.619 60.0298 574.619 64.6415H576.776C576.776 60.3976 577.872 57.254 579.924 55.0597L578.35 53.5865ZM574.619 64.6415V100.578H576.776V64.6415H574.619ZM575.698 99.4999H555.416V101.656H575.698V99.4999ZM556.495 100.578V12.8122L554.338 12.8122V100.578H556.495ZM555.416 13.8904L575.698 13.8904V11.734L555.416 11.734V13.8904ZM574.619 12.8122V43.2931H576.776V12.8122H574.619ZM576.58 43.913C578.52 41.1518 581.179 38.9325 584.592 37.2641L583.645 35.3268C579.941 37.1375 576.987 39.5832 574.815 42.6731L576.58 43.913ZM584.592 37.2641C587.986 35.6048 591.814 34.7644 596.097 34.7644V32.608C591.525 32.608 587.367 33.5071 583.645 35.3268L584.592 37.2641ZM650.278 97.3759L649.767 98.3252L649.773 98.3284L650.278 97.3759ZM638.062 85.5156L637.125 86.049L637.131 86.0598L638.062 85.5156ZM638.181 49.579L639.112 50.1232L639.115 50.117L638.181 49.579ZM650.515 37.6001L651.021 38.5527L651.021 38.5527L650.515 37.6001ZM685.622 37.6001L685.117 38.5527L685.117 38.5527L685.622 37.6001ZM697.956 49.579L697.022 50.117L697.026 50.1232L697.956 49.579ZM697.838 85.5156L696.91 84.9671L696.907 84.9714L697.838 85.5156ZM685.385 97.3759L684.885 96.4202L684.879 96.4233L685.385 97.3759ZM677.675 79.7041L676.902 78.9525L676.897 78.9581L676.892 78.9637L677.675 79.7041ZM677.794 55.2719L676.999 56.0005L677.005 56.0064L677.01 56.0122L677.794 55.2719ZM658.225 55.2719L659.009 56.0116L659.014 56.0061L659.019 56.0005L658.225 55.2719ZM658.106 79.7041L657.3 80.4204L657.306 80.4265L657.311 80.4326L658.106 79.7041ZM667.831 100.449C661.506 100.449 655.831 99.1003 650.783 96.4233L649.773 98.3284C655.162 101.186 661.189 102.605 667.831 102.605V100.449ZM650.789 96.4265C645.828 93.755 641.9 89.9434 638.993 84.9714L637.131 86.0598C640.234 91.3667 644.45 95.4619 649.767 98.3252L650.789 96.4265ZM638.999 84.9822C636.18 80.0301 634.752 74.2107 634.752 67.488H632.596C632.596 74.5232 634.093 80.7222 637.125 86.049L638.999 84.9822ZM634.752 67.488C634.752 60.8517 636.217 55.0752 639.112 50.1232L637.25 49.0348C634.136 54.3617 632.596 60.5245 632.596 67.488H634.752ZM639.115 50.117C642.021 45.0707 645.985 41.2231 651.021 38.5527L650.01 36.6476C644.609 39.512 640.35 43.6503 637.246 49.041L639.115 50.117ZM651.021 38.5527C656.069 35.8756 661.744 34.5272 668.069 34.5272V32.3708C661.426 32.3708 655.399 33.7898 650.01 36.6476L651.021 38.5527ZM668.069 34.5272C674.394 34.5272 680.069 35.8756 685.117 38.5527L686.127 36.6476C680.738 33.7898 674.711 32.3708 668.069 32.3708V34.5272ZM685.117 38.5527C690.152 41.2231 694.117 45.0707 697.022 50.117L698.891 49.041C695.787 43.6503 691.528 39.512 686.127 36.6476L685.117 38.5527ZM697.026 50.1232C699.921 55.0752 701.385 60.8517 701.385 67.488H703.542C703.542 60.5245 702.001 54.3617 698.887 49.0348L697.026 50.1232ZM701.385 67.488C701.385 74.119 699.884 79.9342 696.91 84.9671L698.766 86.0641C701.959 80.6599 703.542 74.4568 703.542 67.488H701.385ZM696.907 84.9714C694.005 89.9351 690.004 93.7463 684.885 96.4202L685.884 98.3315C691.36 95.4707 695.661 91.375 698.769 86.0598L696.907 84.9714ZM684.879 96.4233C679.831 99.1003 674.156 100.449 667.831 100.449V102.605C674.474 102.605 680.501 101.186 685.89 98.3284L684.879 96.4233ZM667.831 85.052C672.006 85.052 675.57 83.5039 678.459 80.4444L676.892 78.9637C674.404 81.5971 671.406 82.8956 667.831 82.8956V85.052ZM678.448 80.4557C681.47 77.348 682.905 72.9697 682.905 67.488H680.748C680.748 72.6014 679.416 76.3672 676.902 78.9525L678.448 80.4557ZM682.905 67.488C682.905 62.0141 681.514 57.6402 678.578 54.5316L677.01 56.0122C679.451 58.5966 680.748 62.3667 680.748 67.488H682.905ZM678.589 54.5433C675.775 51.4732 672.244 49.924 668.069 49.924V52.0804C671.642 52.0804 674.595 53.3777 676.999 56.0005L678.589 54.5433ZM668.069 49.924C663.821 49.924 660.249 51.4681 657.43 54.5433L659.019 56.0005C661.419 53.3828 664.409 52.0804 668.069 52.0804V49.924ZM657.44 54.5323C654.576 57.5696 653.232 61.9503 653.232 67.488H655.389C655.389 62.2723 656.654 58.509 659.009 56.0116L657.44 54.5323ZM653.232 67.488C653.232 72.9464 654.536 77.311 657.3 80.4204L658.912 78.9877C656.615 76.4042 655.389 72.6247 655.389 67.488H653.232ZM657.311 80.4326C660.125 83.5027 663.656 85.052 667.831 85.052V82.8956C664.258 82.8956 661.305 81.5983 658.901 78.9755L657.311 80.4326ZM735.876 43.7675H734.798V47.4474L736.784 44.3493L735.876 43.7675ZM744.06 36.2955L743.543 35.3489L743.543 35.3489L744.06 36.2955ZM771.101 37.6001L770.529 38.5144L770.529 38.5144L771.101 37.6001ZM781.538 49.4604L780.571 49.9367L780.577 49.9485L781.538 49.4604ZM781.538 85.397L780.574 84.9148L780.571 84.9208L781.538 85.397ZM771.101 97.3759L771.672 98.2902L771.684 98.2828L771.101 97.3759ZM744.06 98.6805L743.543 99.6271L743.552 99.6318L744.06 98.6805ZM735.876 91.3271L736.777 90.7345L734.798 87.7265V91.3271H735.876ZM735.876 132.126V133.205H736.954V132.126H735.876ZM715.595 132.126H714.517V133.205H715.595V132.126ZM715.595 34.3979V33.3196H714.517V34.3979H715.595ZM735.876 34.3979H736.954V33.3196H735.876V34.3979ZM760.545 55.5091L759.762 56.2501L759.772 56.2609L759.783 56.2715L760.545 55.5091ZM739.908 55.5091L739.136 54.7572L739.13 54.7627L739.125 54.7682L739.908 55.5091ZM739.908 79.4669L739.125 80.2078L739.13 80.2133L739.136 80.2187L739.908 79.4669ZM760.545 79.4669L761.318 80.2187L761.323 80.2136L761.328 80.2084L760.545 79.4669ZM736.784 44.3493C738.655 41.4305 741.242 39.0602 744.576 37.242L743.543 35.3489C739.919 37.326 737.051 39.9371 734.968 43.1856L736.784 44.3493ZM744.576 37.242C747.871 35.4449 751.759 34.5272 756.276 34.5272V32.3708C751.462 32.3708 747.207 33.3508 743.543 35.3489L744.576 37.242ZM756.276 34.5272C761.539 34.5272 766.281 35.8591 770.529 38.5144L771.672 36.6858C767.065 33.8064 761.924 32.3708 756.276 32.3708V34.5272ZM770.529 38.5144C774.771 41.1653 778.12 44.9591 780.571 49.9366L782.505 48.9842C779.895 43.6828 776.287 39.5698 771.672 36.6858L770.529 38.5144ZM780.577 49.9485C783.096 54.9118 784.374 60.7088 784.374 67.3694H786.53C786.53 60.4302 785.198 54.2879 782.499 48.9723L780.577 49.9485ZM784.374 67.3694C784.374 74.0295 783.097 79.8689 780.574 84.9148L782.502 85.8792C785.198 80.488 786.53 74.309 786.53 67.3694H784.374ZM780.571 84.9208C778.119 89.9004 774.766 93.7377 770.518 96.4689L771.684 98.2828C776.291 95.3211 779.896 91.1724 782.505 85.8732L780.571 84.9208ZM770.529 96.4615C766.281 99.1169 761.539 100.449 756.276 100.449V102.605C761.924 102.605 767.065 101.17 771.672 98.2902L770.529 96.4615ZM756.276 100.449C751.842 100.449 747.949 99.5326 744.567 97.7291L743.552 99.6318C747.287 101.624 751.537 102.605 756.276 102.605V100.449ZM744.576 97.7339C741.236 95.9122 738.647 93.5768 736.777 90.7345L734.975 91.9197C737.059 95.0867 739.925 97.6535 743.543 99.627L744.576 97.7339ZM734.798 91.3271V132.126H736.954V91.3271H734.798ZM735.876 131.048L715.595 131.048V133.205L735.876 133.205V131.048ZM716.673 132.126V34.3979H714.517V132.126H716.673ZM715.595 35.4761H735.876V33.3196H715.595V35.4761ZM734.798 34.3979V43.7675H736.954V34.3979H734.798ZM765.893 67.3694C765.893 62.1006 764.405 57.8443 761.308 54.7467L759.783 56.2715C762.378 58.8669 763.737 62.5175 763.737 67.3694H765.893ZM761.329 54.7682C758.353 51.6223 754.628 50.0426 750.227 50.0426V52.199C754.049 52.199 757.203 53.5449 759.762 56.2501L761.329 54.7682ZM750.227 50.0426C745.899 50.0426 742.182 51.626 739.136 54.7572L740.681 56.261C743.327 53.5412 746.489 52.199 750.227 52.199V50.0426ZM739.125 54.7682C736.123 57.9419 734.679 62.2259 734.679 67.488H736.836C736.836 62.6293 738.159 58.9274 740.692 56.2501L739.125 54.7682ZM734.679 67.488C734.679 72.75 736.123 77.0341 739.125 80.2078L740.692 78.7259C738.159 76.0485 736.836 72.3467 736.836 67.488H734.679ZM739.136 80.2187C742.182 83.35 745.899 84.9334 750.227 84.9334V82.7769C746.489 82.7769 743.327 81.4348 740.681 78.715L739.136 80.2187ZM750.227 84.9334C754.554 84.9334 758.271 83.35 761.318 80.2187L759.772 78.715C757.126 81.4348 753.964 82.7769 750.227 82.7769V84.9334ZM761.328 80.2084C764.405 76.9609 765.893 72.6408 765.893 67.3694H763.737C763.737 72.2187 762.379 75.9636 759.763 78.7253L761.328 80.2084ZM799.887 24.4352L799.139 25.2114L799.153 25.225L799.167 25.238L799.887 24.4352ZM799.887 8.77968L800.621 9.56979L800.622 9.56882L799.887 8.77968ZM817.203 8.77968L816.455 9.55582L816.469 9.56941L816.483 9.58248L817.203 8.77968ZM817.203 24.4352L817.937 25.2253L817.938 25.2244L817.203 24.4352ZM818.745 34.3979H819.823V33.3196H818.745V34.3979ZM818.745 100.578V101.656H819.823V100.578H818.745ZM798.464 100.578H797.386V101.656H798.464V100.578ZM798.464 34.3979V33.3196H797.386V34.3979H798.464ZM808.664 26.4407C805.327 26.4407 802.672 25.4836 800.607 23.6324L799.167 25.238C801.689 27.4985 804.884 28.5971 808.664 28.5971V26.4407ZM800.635 23.6591C798.633 21.7281 797.644 19.3992 797.644 16.6075H795.488C795.488 19.983 796.713 22.8727 799.139 25.2114L800.635 23.6591ZM797.644 16.6075C797.644 13.7287 798.638 11.411 800.621 9.56978L799.153 7.98958C796.708 10.2599 795.488 13.1607 795.488 16.6075H797.644ZM800.622 9.56882C802.688 7.64522 805.338 6.65562 808.664 6.65562V4.49921C804.873 4.49921 801.672 5.64445 799.152 7.99055L800.622 9.56882ZM808.664 6.65562C811.903 6.65562 814.469 7.64066 816.455 9.55582L817.951 8.00354C815.51 5.64901 812.382 4.49921 808.664 4.49921V6.65562ZM816.483 9.58248C818.541 11.4275 819.564 13.7417 819.564 16.6075H821.721C821.721 13.1478 820.451 10.2434 817.923 7.97688L816.483 9.58248ZM819.564 16.6075C819.564 19.3864 818.546 21.7115 816.468 23.6461L817.938 25.2244C820.446 22.8893 821.721 19.9958 821.721 16.6075H819.564ZM816.469 23.6451C814.485 25.4877 811.915 26.4407 808.664 26.4407V28.5971C812.371 28.5971 815.493 27.4943 817.937 25.2253L816.469 23.6451ZM817.667 34.3979V100.578H819.823V34.3979H817.667ZM818.745 99.4999H798.464V101.656H818.745V99.4999ZM799.542 100.578V34.3979H797.386V100.578H799.542ZM798.464 35.4761H818.745V33.3196H798.464V35.4761ZM869.023 51.2394V52.3176H870.101V51.2394H869.023ZM858.112 51.2394V50.1612H857.034V51.2394H858.112ZM858.112 100.578V101.656H859.19V100.578H858.112ZM837.831 100.578H836.752V101.656H837.831V100.578ZM837.831 51.2394L838.909 51.2394V50.1612L837.831 50.1612V51.2394ZM830.477 51.2394H829.399V52.3176H830.477V51.2394ZM830.477 34.3979V33.3196H829.399V34.3979H830.477ZM837.831 34.3979V35.4761L838.909 35.4761V34.3979L837.831 34.3979ZM844.828 13.9982L845.549 14.8003L845.556 14.7936L844.828 13.9982ZM868.667 7.71226H869.746V6.74722L868.786 6.64065L868.667 7.71226ZM868.667 24.9096L868.601 25.9858L869.746 26.0559V24.9096H868.667ZM860.484 26.5701L861.182 27.3916L861.182 27.3916L860.484 26.5701ZM858.112 34.3979H857.034V35.4761H858.112V34.3979ZM869.023 34.3979H870.101V33.3196H869.023V34.3979ZM869.023 50.1612H858.112V52.3176H869.023V50.1612ZM857.034 51.2394V100.578H859.19V51.2394H857.034ZM858.112 99.4999H837.831V101.656H858.112V99.4999ZM838.909 100.578V51.2394L836.752 51.2394V100.578H838.909ZM837.831 50.1612H830.477V52.3176H837.831V50.1612ZM831.556 51.2394V34.3979H829.399V51.2394H831.556ZM830.477 35.4761H837.831V33.3196H830.477V35.4761ZM838.909 34.3979V32.5002H836.752V34.3979L838.909 34.3979ZM838.909 32.5002C838.909 24.5652 841.175 18.7295 845.549 14.8003L844.108 13.1961C839.152 17.6481 836.752 24.1471 836.752 32.5002H838.909ZM845.556 14.7936C849.952 10.7704 856.488 8.67186 865.346 8.67186V6.51545C856.177 6.51545 849.035 8.68662 844.1 13.2028L845.556 14.7936ZM865.346 8.67186C866.842 8.67186 867.899 8.71176 868.548 8.78387L868.786 6.64065C868.012 6.55462 866.855 6.51545 865.346 6.51545V8.67186ZM867.589 7.71226V24.9096H869.746V7.71226L867.589 7.71226ZM868.733 23.8335C864.797 23.5924 861.701 24.1207 859.785 25.7486L861.182 27.3916C862.43 26.3311 864.789 25.7524 868.601 25.9858L868.733 23.8335ZM859.785 25.7486C857.841 27.4016 857.034 30.2165 857.034 33.8048H859.19C859.19 30.4352 859.964 28.4268 861.182 27.3916L859.785 25.7486ZM857.034 33.8048V34.3979H859.19V33.8048H857.034ZM858.112 35.4761H869.023V33.3196H858.112V35.4761ZM867.945 34.3979V51.2394H870.101V34.3979H867.945ZM948.529 34.3979L949.521 34.8198L950.159 33.3196H948.529V34.3979ZM907.018 132.008V133.086H907.731L908.01 132.43L907.018 132.008ZM885.195 132.008L884.212 131.565L883.526 133.086H885.195V132.008ZM900.376 98.3247L901.359 98.7677L901.552 98.3393L901.37 97.9062L900.376 98.3247ZM873.453 34.3979V33.3196H871.829L872.459 34.8163L873.453 34.3979ZM896.106 34.3979L897.118 34.024L896.857 33.3196H896.106V34.3979ZM911.406 75.7902L910.395 76.164L911.41 78.9107L912.418 76.1614L911.406 75.7902ZM926.587 34.3979V33.3196L925.834 33.3196L925.575 34.0266L926.587 34.3979ZM947.536 33.9759L906.025 131.586L908.01 132.43L949.521 34.8198L947.536 33.9759ZM907.018 130.93L885.195 130.93V133.086L907.018 133.086V130.93ZM886.178 132.451L901.359 98.7677L899.393 97.8816L884.212 131.565L886.178 132.451ZM901.37 97.9062L874.447 33.9794L872.459 34.8163L899.382 98.7432L901.37 97.9062ZM873.453 35.4761L896.106 35.4761V33.3196L873.453 33.3196V35.4761ZM895.095 34.7717L910.395 76.164L912.417 75.4164L897.118 34.024L895.095 34.7717ZM912.418 76.1614L927.599 34.7691L925.575 34.0266L910.394 75.4189L912.418 76.1614ZM926.587 35.4761H948.529V33.3196H926.587V35.4761Z" fill="#F2B125"/>
<path d="M974.088 98.4433L973.679 99.4409L973.679 99.4409L974.088 98.4433ZM962.465 89.6667L961.596 90.3051L961.6 90.3108L961.604 90.3164L962.465 89.6667ZM957.958 75.6716V74.5934H956.848L956.88 75.7028L957.958 75.6716ZM979.544 75.6716L980.616 75.5616L980.517 74.5934H979.544V75.6716ZM982.746 82.7877L982.019 83.584L982.028 83.5928L982.038 83.6013L982.746 82.7877ZM996.978 83.1435L997.637 83.9967L997.649 83.9875L997.661 83.978L996.978 83.1435ZM997.453 72.2321L996.69 72.9945L996.701 73.0054L996.712 73.016L997.453 72.2321ZM992.353 68.9112L991.918 69.8981L991.925 69.9012L991.933 69.9042L992.353 68.9112ZM983.813 65.9462L983.495 66.9764L983.505 66.9795L983.813 65.9462ZM961.872 53.6115L962.732 52.9612L962.732 52.9612L961.872 53.6115ZM966.616 22.7748L967.276 23.6272L967.284 23.6214L966.616 22.7748ZM1010.74 22.7748L1010.07 23.6214L1010.08 23.6272L1010.74 22.7748ZM1019.75 41.0396V42.1178H1020.88L1020.83 40.9852L1019.75 41.0396ZM997.808 41.0396L996.732 41.1029L996.792 42.1178H997.808V41.0396ZM994.843 34.7537L994.136 35.5673L994.146 35.5762L994.157 35.5849L994.843 34.7537ZM981.916 34.3979L982.61 35.2226L982.622 35.2122L982.635 35.2014L981.916 34.3979ZM983.457 46.2581L984.008 45.331L984.008 45.331L983.457 46.2581ZM995.318 51.1208L995.663 50.0995L995.656 50.0972L995.65 50.095L995.318 51.1208ZM1008.36 56.3393L1007.88 57.3038L1007.89 57.3082L1008.36 56.3393ZM1017.14 63.5741L1016.29 64.2346L1016.29 64.2346L1017.14 63.5741ZM1017.14 88.7179L1016.23 88.1414L1016.23 88.1481L1016.22 88.1549L1017.14 88.7179ZM1006.7 97.9689L1006.22 97.0045L1006.22 97.0045L1006.7 97.9689ZM990.455 100.33C984.484 100.33 979.17 99.361 974.497 97.4456L973.679 99.4409C978.652 101.479 984.25 102.487 990.455 102.487V100.33ZM974.497 97.4456C969.839 95.5367 966.126 92.7255 963.325 89.017L961.604 90.3164C964.655 94.3565 968.69 97.3965 973.679 99.4409L974.497 97.4456ZM963.334 89.0283C960.634 85.3536 959.188 80.9078 959.036 75.6403L956.88 75.7028C957.044 81.3467 958.603 86.231 961.596 90.3051L963.334 89.0283ZM957.958 76.7498H979.544V74.5934H957.958V76.7498ZM978.471 75.7816C978.807 79.058 979.958 81.7023 982.019 83.584L983.473 81.9915C981.897 80.5523 980.913 78.4524 980.616 75.5616L978.471 75.7816ZM982.038 83.6013C984.093 85.388 986.735 86.238 989.862 86.238V84.0816C987.138 84.0816 985.036 83.3502 983.453 81.9741L982.038 83.6013ZM989.862 86.238C993.019 86.238 995.651 85.532 997.637 83.9967L996.319 82.2904C994.827 83.4434 992.714 84.0816 989.862 84.0816V86.238ZM997.661 83.978C999.675 82.3298 1000.67 80.0732 1000.67 77.332H998.509C998.509 79.4931 997.76 81.1108 996.295 82.3091L997.661 83.978ZM1000.67 77.332C1000.67 74.9963 999.844 73.0073 998.193 71.4482L996.712 73.016C997.908 74.1453 998.509 75.5562 998.509 77.332H1000.67ZM998.215 71.4697C996.757 70.0118 994.934 68.8328 992.773 67.9182L991.933 69.9042C993.882 70.7291 995.46 71.7641 996.69 72.9945L998.215 71.4697ZM992.787 67.9243C990.749 67.0276 987.852 66.0242 984.121 64.9128L983.505 66.9795C987.207 68.082 990.003 69.0553 991.918 69.8981L992.787 67.9243ZM984.131 64.916C978.785 63.2648 974.454 61.6233 971.121 59.996L970.175 61.9337C973.643 63.6272 978.088 65.3066 983.495 66.9764L984.131 64.916ZM971.121 59.996C967.885 58.4153 965.089 56.0782 962.732 52.9612L961.012 54.2618C963.557 57.6284 966.612 60.1935 970.175 61.9337L971.121 59.996ZM962.732 52.9612C960.458 49.9539 959.273 45.9719 959.273 40.921H957.117C957.117 46.3071 958.383 50.7854 961.012 54.2618L962.732 52.9612ZM959.273 40.921C959.273 33.4708 961.952 27.7512 967.276 23.6272L965.956 21.9224C960.052 26.4959 957.117 32.8738 957.117 40.921H959.273ZM967.284 23.6214C972.662 19.3791 979.721 17.2113 988.557 17.2113V15.0548C979.366 15.0548 971.797 17.3149 965.948 21.9282L967.284 23.6214ZM988.557 17.2113C997.556 17.2113 1004.69 19.3815 1010.07 23.6214L1011.4 21.9282C1005.55 17.3124 997.902 15.0548 988.557 15.0548V17.2113ZM1010.08 23.6272C1015.41 27.762 1018.29 33.5436 1018.67 41.094L1020.83 40.9852C1020.42 32.8801 1017.29 26.4851 1011.4 21.9224L1010.08 23.6272ZM1019.75 39.9614L997.808 39.9614V42.1178L1019.75 42.1178V39.9614ZM998.885 40.9763C998.712 38.0355 997.613 35.6433 995.53 33.9224L994.157 35.5849C995.711 36.8687 996.589 38.667 996.732 41.1029L998.885 40.9763ZM995.551 33.94C993.502 32.1581 990.903 31.3034 987.846 31.3034V33.4598C990.482 33.4598 992.548 34.1865 994.136 35.5673L995.551 33.94ZM987.846 31.3034C985.189 31.3034 982.937 32.037 981.197 33.5943L982.635 35.2014C983.899 34.0704 985.6 33.4598 987.846 33.4598V31.3034ZM981.221 33.5731C979.417 35.0925 978.584 37.2888 978.584 39.9722H980.74C980.74 37.7533 981.41 36.2333 982.61 35.2226L981.221 33.5731ZM978.584 39.9722C978.584 43.0826 980.087 45.5108 982.907 47.1852L984.008 45.331C981.768 44.0008 980.74 42.2385 980.74 39.9722H978.584ZM982.907 47.1852C985.543 48.7504 989.589 50.4007 994.986 52.1467L995.65 50.095C990.293 48.362 986.432 46.7704 984.008 45.331L982.907 47.1852ZM994.972 52.1422C1000.32 53.9523 1004.62 55.6737 1007.88 57.3037L1008.85 55.375C1005.46 53.6841 1001.06 51.9265 995.663 50.0995L994.972 52.1422ZM1007.89 57.3082C1011.13 58.892 1013.93 61.1946 1016.29 64.2346L1017.99 62.9136C1015.45 59.6281 1012.39 57.1075 1008.84 55.3705L1007.89 57.3082ZM1016.29 64.2346C1018.56 67.166 1019.74 70.9882 1019.74 75.7902H1021.9C1021.9 70.6295 1020.62 66.3077 1017.99 62.9136L1016.29 64.2346ZM1019.74 75.7902C1019.74 80.3377 1018.57 84.4457 1016.23 88.1414L1018.05 89.2943C1020.62 85.2413 1021.9 80.7309 1021.9 75.7902H1019.74ZM1016.22 88.1549C1013.97 91.8357 1010.65 94.7898 1006.22 97.0045L1007.19 98.9332C1011.93 96.5619 1015.57 93.3487 1018.06 89.2809L1016.22 88.1549ZM1006.22 97.0045C1001.81 99.208 996.57 100.33 990.455 100.33V102.487C996.833 102.487 1002.42 101.316 1007.19 98.9332L1006.22 97.0045ZM1094.62 41.2768L1093.82 42.0009L1093.82 42.0071L1094.62 41.2768ZM1101.49 100.578V101.656H1102.57V100.578H1101.49ZM1081.33 100.578H1080.25V101.656H1081.33V100.578ZM1077.89 54.3231L1077.11 55.0597L1077.11 55.0597L1077.89 54.3231ZM1059.39 54.3231L1060.18 55.0597L1060.18 55.0597L1059.39 54.3231ZM1055.95 100.578V101.656H1057.03V100.578H1055.95ZM1035.67 100.578H1034.59V101.656H1035.67V100.578ZM1035.67 12.8122V11.734H1034.59V12.8122H1035.67ZM1055.95 12.8122H1057.03V11.734H1055.95V12.8122ZM1055.95 43.2931H1054.87V46.7027L1056.83 43.913L1055.95 43.2931ZM1064.37 36.2955L1063.9 35.3268L1063.9 35.3268L1064.37 36.2955ZM1076.35 34.7644C1083.68 34.7644 1089.46 37.1925 1093.82 42.0008L1095.41 40.5528C1090.6 35.2403 1084.21 32.608 1076.35 32.608V34.7644ZM1093.82 42.0071C1098.18 46.7359 1100.42 53.325 1100.42 61.9137H1102.57C1102.57 52.9491 1100.23 45.7803 1095.41 40.5465L1093.82 42.0071ZM1100.42 61.9137V100.578H1102.57V61.9137H1100.42ZM1101.49 99.4999H1081.33V101.656H1101.49V99.4999ZM1082.41 100.578V64.6415H1080.25V100.578H1082.41ZM1082.41 64.6415C1082.41 60.0298 1081.21 56.2944 1078.68 53.5865L1077.11 55.0597C1079.16 57.254 1080.25 60.3976 1080.25 64.6415H1082.41ZM1078.68 53.5865C1076.15 50.8832 1072.76 49.5682 1068.64 49.5682V51.7246C1072.27 51.7246 1075.05 52.8608 1077.11 55.0597L1078.68 53.5865ZM1068.64 49.5682C1064.52 49.5682 1061.13 50.8832 1058.6 53.5865L1060.18 55.0597C1062.24 52.8608 1065.02 51.7246 1068.64 51.7246V49.5682ZM1058.6 53.5865C1056.07 56.2944 1054.87 60.0298 1054.87 64.6415H1057.03C1057.03 60.3976 1058.13 57.254 1060.18 55.0597L1058.6 53.5865ZM1054.87 64.6415V100.578H1057.03V64.6415H1054.87ZM1055.95 99.4999H1035.67V101.656H1055.95V99.4999ZM1036.75 100.578V12.8122L1034.59 12.8122V100.578H1036.75ZM1035.67 13.8904L1055.95 13.8904V11.734L1035.67 11.734V13.8904ZM1054.87 12.8122V43.2931H1057.03V12.8122H1054.87ZM1056.83 43.913C1058.77 41.1518 1061.43 38.9325 1064.85 37.2641L1063.9 35.3268C1060.2 37.1375 1057.24 39.5832 1055.07 42.6731L1056.83 43.913ZM1064.85 37.2641C1068.24 35.6048 1072.07 34.7644 1076.35 34.7644V32.608C1071.78 32.608 1067.62 33.5071 1063.9 35.3268L1064.85 37.2641ZM1130.53 97.3759L1130.02 98.3252L1130.03 98.3284L1130.53 97.3759ZM1118.32 85.5156L1117.38 86.049L1117.39 86.0598L1118.32 85.5156ZM1118.43 49.579L1119.37 50.1232L1119.37 50.117L1118.43 49.579ZM1130.77 37.6001L1131.27 38.5527L1131.27 38.5527L1130.77 37.6001ZM1165.88 37.6001L1165.37 38.5527L1165.37 38.5527L1165.88 37.6001ZM1178.21 49.579L1177.28 50.117L1177.28 50.1232L1178.21 49.579ZM1178.09 85.5156L1177.16 84.9671L1177.16 84.9714L1178.09 85.5156ZM1165.64 97.3759L1165.14 96.4202L1165.13 96.4233L1165.64 97.3759ZM1157.93 79.7041L1157.16 78.9525L1157.15 78.9581L1157.15 78.9637L1157.93 79.7041ZM1158.05 55.2719L1157.25 56.0005L1157.26 56.0064L1157.26 56.0122L1158.05 55.2719ZM1138.48 55.2719L1139.26 56.0116L1139.27 56.0061L1139.27 56.0005L1138.48 55.2719ZM1138.36 79.7041L1137.55 80.4204L1137.56 80.4265L1137.57 80.4326L1138.36 79.7041ZM1148.09 100.449C1141.76 100.449 1136.09 99.1003 1131.04 96.4233L1130.03 98.3284C1135.42 101.186 1141.44 102.605 1148.09 102.605V100.449ZM1131.04 96.4265C1126.08 93.755 1122.15 89.9434 1119.25 84.9714L1117.39 86.0598C1120.49 91.3667 1124.7 95.4619 1130.02 98.3252L1131.04 96.4265ZM1119.25 84.9822C1116.43 80.0301 1115.01 74.2107 1115.01 67.488H1112.85C1112.85 74.5232 1114.35 80.7222 1117.38 86.049L1119.25 84.9822ZM1115.01 67.488C1115.01 60.8517 1116.47 55.0752 1119.37 50.1232L1117.5 49.0348C1114.39 54.3617 1112.85 60.5245 1112.85 67.488H1115.01ZM1119.37 50.117C1122.27 45.0707 1126.24 41.2231 1131.27 38.5527L1130.26 36.6476C1124.86 39.512 1120.6 43.6503 1117.5 49.041L1119.37 50.117ZM1131.27 38.5527C1136.32 35.8756 1142 34.5272 1148.32 34.5272V32.3708C1141.68 32.3708 1135.65 33.7898 1130.26 36.6476L1131.27 38.5527ZM1148.32 34.5272C1154.65 34.5272 1160.32 35.8756 1165.37 38.5527L1166.38 36.6476C1160.99 33.7898 1154.96 32.3708 1148.32 32.3708V34.5272ZM1165.37 38.5527C1170.41 41.2231 1174.37 45.0707 1177.28 50.117L1179.14 49.041C1176.04 43.6503 1171.78 39.512 1166.38 36.6476L1165.37 38.5527ZM1177.28 50.1232C1180.17 55.0752 1181.64 60.8517 1181.64 67.488H1183.8C1183.8 60.5245 1182.26 54.3617 1179.14 49.0348L1177.28 50.1232ZM1181.64 67.488C1181.64 74.119 1180.14 79.9342 1177.16 84.9671L1179.02 86.0641C1182.21 80.6599 1183.8 74.4568 1183.8 67.488H1181.64ZM1177.16 84.9714C1174.26 89.9351 1170.26 93.7463 1165.14 96.4202L1166.14 98.3315C1171.61 95.4707 1175.92 91.375 1179.02 86.0598L1177.16 84.9714ZM1165.13 96.4233C1160.09 99.1003 1154.41 100.449 1148.09 100.449V102.605C1154.73 102.605 1160.75 101.186 1166.14 98.3284L1165.13 96.4233ZM1148.09 85.052C1152.26 85.052 1155.82 83.5039 1158.71 80.4444L1157.15 78.9637C1154.66 81.5971 1151.66 82.8956 1148.09 82.8956V85.052ZM1158.7 80.4557C1161.72 77.348 1163.16 72.9697 1163.16 67.488H1161C1161 72.6014 1159.67 76.3672 1157.16 78.9525L1158.7 80.4557ZM1163.16 67.488C1163.16 62.0141 1161.77 57.6402 1158.83 54.5316L1157.26 56.0122C1159.7 58.5966 1161 62.3667 1161 67.488H1163.16ZM1158.84 54.5433C1156.03 51.4732 1152.5 49.924 1148.32 49.924V52.0804C1151.9 52.0804 1154.85 53.3777 1157.25 56.0005L1158.84 54.5433ZM1148.32 49.924C1144.08 49.924 1140.5 51.4681 1137.68 54.5433L1139.27 56.0005C1141.67 53.3828 1144.66 52.0804 1148.32 52.0804V49.924ZM1137.69 54.5323C1134.83 57.5696 1133.49 61.9503 1133.49 67.488H1135.64C1135.64 62.2723 1136.91 58.509 1139.26 56.0116L1137.69 54.5323ZM1133.49 67.488C1133.49 72.9464 1134.79 77.311 1137.55 80.4204L1139.17 78.9877C1136.87 76.4042 1135.64 72.6247 1135.64 67.488H1133.49ZM1137.57 80.4326C1140.38 83.5027 1143.91 85.052 1148.09 85.052V82.8956C1144.51 82.8956 1141.56 81.5983 1139.15 78.9755L1137.57 80.4326ZM1216.13 43.7675H1215.05V47.4474L1217.04 44.3493L1216.13 43.7675ZM1224.31 36.2955L1223.8 35.3489L1223.8 35.3489L1224.31 36.2955ZM1251.35 37.6001L1250.78 38.5144L1250.78 38.5144L1251.35 37.6001ZM1261.79 49.4604L1260.82 49.9367L1260.83 49.9485L1261.79 49.4604ZM1261.79 85.397L1260.83 84.9148L1260.82 84.9208L1261.79 85.397ZM1251.35 97.3759L1251.93 98.2902L1251.94 98.2828L1251.35 97.3759ZM1224.31 98.6805L1223.8 99.6271L1223.81 99.6318L1224.31 98.6805ZM1216.13 91.3271L1217.03 90.7345L1215.05 87.7265V91.3271H1216.13ZM1216.13 132.126V133.205H1217.21V132.126H1216.13ZM1195.85 132.126H1194.77V133.205H1195.85V132.126ZM1195.85 34.3979V33.3196H1194.77V34.3979H1195.85ZM1216.13 34.3979H1217.21V33.3196H1216.13V34.3979ZM1240.8 55.5091L1240.02 56.2501L1240.03 56.2609L1240.04 56.2715L1240.8 55.5091ZM1220.16 55.5091L1219.39 54.7572L1219.38 54.7627L1219.38 54.7682L1220.16 55.5091ZM1220.16 79.4669L1219.38 80.2078L1219.38 80.2133L1219.39 80.2187L1220.16 79.4669ZM1240.8 79.4669L1241.57 80.2187L1241.58 80.2136L1241.58 80.2084L1240.8 79.4669ZM1217.04 44.3493C1218.91 41.4305 1221.5 39.0602 1224.83 37.242L1223.8 35.3489C1220.17 37.326 1217.3 39.9371 1215.22 43.1856L1217.04 44.3493ZM1224.83 37.242C1228.12 35.4449 1232.01 34.5272 1236.53 34.5272V32.3708C1231.72 32.3708 1227.46 33.3508 1223.8 35.3489L1224.83 37.242ZM1236.53 34.5272C1241.79 34.5272 1246.53 35.8591 1250.78 38.5144L1251.93 36.6858C1247.32 33.8064 1242.18 32.3708 1236.53 32.3708V34.5272ZM1250.78 38.5144C1255.02 41.1653 1258.37 44.9591 1260.82 49.9366L1262.76 48.9842C1260.15 43.6828 1256.54 39.5698 1251.93 36.6858L1250.78 38.5144ZM1260.83 49.9485C1263.35 54.9118 1264.63 60.7088 1264.63 67.3694H1266.78C1266.78 60.4302 1265.45 54.2879 1262.75 48.9723L1260.83 49.9485ZM1264.63 67.3694C1264.63 74.0295 1263.35 79.8689 1260.83 84.9148L1262.76 85.8792C1265.45 80.488 1266.78 74.309 1266.78 67.3694H1264.63ZM1260.82 84.9208C1258.37 89.9004 1255.02 93.7377 1250.77 96.4689L1251.94 98.2828C1256.54 95.3211 1260.15 91.1724 1262.76 85.8732L1260.82 84.9208ZM1250.78 96.4615C1246.53 99.1169 1241.79 100.449 1236.53 100.449V102.605C1242.18 102.605 1247.32 101.17 1251.93 98.2902L1250.78 96.4615ZM1236.53 100.449C1232.1 100.449 1228.2 99.5326 1224.82 97.7291L1223.81 99.6318C1227.54 101.624 1231.79 102.605 1236.53 102.605V100.449ZM1224.83 97.7339C1221.49 95.9122 1218.9 93.5768 1217.03 90.7345L1215.23 91.9197C1217.31 95.0867 1220.18 97.6535 1223.8 99.627L1224.83 97.7339ZM1215.05 91.3271V132.126H1217.21V91.3271H1215.05ZM1216.13 131.048L1195.85 131.048V133.205L1216.13 133.205V131.048ZM1196.93 132.126V34.3979H1194.77V132.126H1196.93ZM1195.85 35.4761H1216.13V33.3196H1195.85V35.4761ZM1215.05 34.3979V43.7675H1217.21V34.3979H1215.05ZM1246.15 67.3694C1246.15 62.1006 1244.66 57.8443 1241.56 54.7467L1240.04 56.2715C1242.63 58.8669 1243.99 62.5175 1243.99 67.3694H1246.15ZM1241.58 54.7682C1238.61 51.6223 1234.88 50.0426 1230.48 50.0426V52.199C1234.3 52.199 1237.46 53.5449 1240.02 56.2501L1241.58 54.7682ZM1230.48 50.0426C1226.15 50.0426 1222.44 51.626 1219.39 54.7572L1220.94 56.261C1223.58 53.5412 1226.74 52.199 1230.48 52.199V50.0426ZM1219.38 54.7682C1216.38 57.9419 1214.93 62.2259 1214.93 67.488H1217.09C1217.09 62.6293 1218.41 58.9274 1220.95 56.2501L1219.38 54.7682ZM1214.93 67.488C1214.93 72.75 1216.38 77.0341 1219.38 80.2078L1220.95 78.7259C1218.41 76.0485 1217.09 72.3467 1217.09 67.488H1214.93ZM1219.39 80.2187C1222.44 83.35 1226.15 84.9334 1230.48 84.9334V82.7769C1226.74 82.7769 1223.58 81.4348 1220.94 78.715L1219.39 80.2187ZM1230.48 84.9334C1234.81 84.9334 1238.53 83.35 1241.57 80.2187L1240.03 78.715C1237.38 81.4348 1234.22 82.7769 1230.48 82.7769V84.9334ZM1241.58 80.2084C1244.66 76.9609 1246.15 72.6408 1246.15 67.3694H1243.99C1243.99 72.2187 1242.63 75.9636 1240.02 78.7253L1241.58 80.2084ZM1280.14 24.4352L1279.39 25.2114L1279.41 25.225L1279.42 25.238L1280.14 24.4352ZM1280.14 8.77968L1280.87 9.56979L1280.88 9.56882L1280.14 8.77968ZM1297.46 8.77968L1296.71 9.55582L1296.72 9.56941L1296.74 9.58248L1297.46 8.77968ZM1297.46 24.4352L1298.19 25.2253L1298.19 25.2244L1297.46 24.4352ZM1299 34.3979H1300.08V33.3196H1299V34.3979ZM1299 100.578V101.656H1300.08V100.578H1299ZM1278.72 100.578H1277.64V101.656H1278.72V100.578ZM1278.72 34.3979V33.3196H1277.64V34.3979H1278.72ZM1288.92 26.4407C1285.58 26.4407 1282.93 25.4836 1280.86 23.6324L1279.42 25.238C1281.94 27.4985 1285.14 28.5971 1288.92 28.5971V26.4407ZM1280.89 23.6591C1278.89 21.7281 1277.9 19.3992 1277.9 16.6075H1275.74C1275.74 19.983 1276.97 22.8727 1279.39 25.2114L1280.89 23.6591ZM1277.9 16.6075C1277.9 13.7287 1278.89 11.411 1280.87 9.56978L1279.41 7.98958C1276.96 10.2599 1275.74 13.1607 1275.74 16.6075H1277.9ZM1280.88 9.56882C1282.94 7.64522 1285.59 6.65562 1288.92 6.65562V4.49921C1285.13 4.49921 1281.93 5.64445 1279.41 7.99055L1280.88 9.56882ZM1288.92 6.65562C1292.16 6.65562 1294.72 7.64066 1296.71 9.55582L1298.21 8.00354C1295.76 5.64901 1292.64 4.49921 1288.92 4.49921V6.65562ZM1296.74 9.58248C1298.8 11.4275 1299.82 13.7417 1299.82 16.6075H1301.97C1301.97 13.1478 1300.7 10.2434 1298.18 7.97688L1296.74 9.58248ZM1299.82 16.6075C1299.82 19.3864 1298.8 21.7115 1296.72 23.6461L1298.19 25.2244C1300.7 22.8893 1301.97 19.9958 1301.97 16.6075H1299.82ZM1296.72 23.6451C1294.74 25.4877 1292.17 26.4407 1288.92 26.4407V28.5971C1292.62 28.5971 1295.75 27.4943 1298.19 25.2253L1296.72 23.6451ZM1297.92 34.3979V100.578H1300.08V34.3979H1297.92ZM1299 99.4999H1278.72V101.656H1299V99.4999ZM1279.8 100.578V34.3979H1277.64V100.578H1279.8ZM1278.72 35.4761H1299V33.3196H1278.72V35.4761ZM1349.28 51.2394V52.3176H1350.36V51.2394H1349.28ZM1338.37 51.2394V50.1612H1337.29V51.2394H1338.37ZM1338.37 100.578V101.656H1339.44V100.578H1338.37ZM1318.08 100.578H1317.01V101.656H1318.08V100.578ZM1318.08 51.2394L1319.16 51.2394V50.1612L1318.08 50.1612V51.2394ZM1310.73 51.2394H1309.65V52.3176H1310.73V51.2394ZM1310.73 34.3979V33.3196H1309.65V34.3979H1310.73ZM1318.08 34.3979V35.4761L1319.16 35.4761V34.3979L1318.08 34.3979ZM1325.08 13.9982L1325.8 14.8003L1325.81 14.7936L1325.08 13.9982ZM1348.92 7.71226H1350V6.74722L1349.04 6.64065L1348.92 7.71226ZM1348.92 24.9096L1348.86 25.9858L1350 26.0559V24.9096H1348.92ZM1340.74 26.5701L1341.44 27.3916L1341.44 27.3916L1340.74 26.5701ZM1338.37 34.3979H1337.29V35.4761H1338.37V34.3979ZM1349.28 34.3979H1350.36V33.3196H1349.28V34.3979ZM1349.28 50.1612H1338.37V52.3176H1349.28V50.1612ZM1337.29 51.2394V100.578H1339.44V51.2394H1337.29ZM1338.37 99.4999H1318.08V101.656H1338.37V99.4999ZM1319.16 100.578V51.2394L1317.01 51.2394V100.578H1319.16ZM1318.08 50.1612H1310.73V52.3176H1318.08V50.1612ZM1311.81 51.2394V34.3979H1309.65V51.2394H1311.81ZM1310.73 35.4761H1318.08V33.3196H1310.73V35.4761ZM1319.16 34.3979V32.5002H1317.01V34.3979L1319.16 34.3979ZM1319.16 32.5002C1319.16 24.5652 1321.43 18.7295 1325.8 14.8003L1324.36 13.1961C1319.41 17.6481 1317.01 24.1471 1317.01 32.5002H1319.16ZM1325.81 14.7936C1330.21 10.7704 1336.74 8.67186 1345.6 8.67186V6.51545C1336.43 6.51545 1329.29 8.68662 1324.35 13.2028L1325.81 14.7936ZM1345.6 8.67186C1347.1 8.67186 1348.15 8.71176 1348.8 8.78387L1349.04 6.64065C1348.27 6.55462 1347.11 6.51545 1345.6 6.51545V8.67186ZM1347.84 7.71226V24.9096H1350V7.71226L1347.84 7.71226ZM1348.99 23.8335C1345.05 23.5924 1341.95 24.1207 1340.04 25.7486L1341.44 27.3916C1342.68 26.3311 1345.04 25.7524 1348.86 25.9858L1348.99 23.8335ZM1340.04 25.7486C1338.09 27.4016 1337.29 30.2165 1337.29 33.8048H1339.44C1339.44 30.4352 1340.22 28.4268 1341.44 27.3916L1340.04 25.7486ZM1337.29 33.8048V34.3979H1339.44V33.8048H1337.29ZM1338.37 35.4761H1349.28V33.3196H1338.37V35.4761ZM1348.2 34.3979V51.2394H1350.36V34.3979H1348.2ZM1428.78 34.3979L1429.77 34.8198L1430.41 33.3196H1428.78V34.3979ZM1387.27 132.008V133.086H1387.98L1388.26 132.43L1387.27 132.008ZM1365.45 132.008L1364.47 131.565L1363.78 133.086H1365.45V132.008ZM1380.63 98.3247L1381.61 98.7677L1381.81 98.3393L1381.62 97.9062L1380.63 98.3247ZM1353.71 34.3979V33.3196H1352.08L1352.71 34.8163L1353.71 34.3979ZM1376.36 34.3979L1377.37 34.024L1377.11 33.3196H1376.36V34.3979ZM1391.66 75.7902L1390.65 76.164L1391.66 78.9107L1392.67 76.1614L1391.66 75.7902ZM1406.84 34.3979V33.3196L1406.09 33.3196L1405.83 34.0266L1406.84 34.3979ZM1427.79 33.9759L1386.28 131.586L1388.26 132.43L1429.77 34.8198L1427.79 33.9759ZM1387.27 130.93L1365.45 130.93V133.086L1387.27 133.086V130.93ZM1366.43 132.451L1381.61 98.7677L1379.65 97.8816L1364.47 131.565L1366.43 132.451ZM1381.62 97.9062L1354.7 33.9794L1352.71 34.8163L1379.64 98.7432L1381.62 97.9062ZM1353.71 35.4761L1376.36 35.4761V33.3196L1353.71 33.3196V35.4761ZM1375.35 34.7717L1390.65 76.164L1392.67 75.4164L1377.37 34.024L1375.35 34.7717ZM1392.67 76.1614L1407.85 34.7691L1405.83 34.0266L1390.65 75.4189L1392.67 76.1614ZM1406.84 35.4761H1428.78V33.3196H1406.84V35.4761Z" fill="#F2B125"/>
</svg>
