<svg width="1372" height="88" viewBox="0 0 1372 88" fill="none" xmlns="http://www.w3.org/2000/svg">
<path d="M20.3695 71.4946H19.3695V72.4946H20.3695V71.4946ZM46.6817 71.4946H47.6817V70.4946H46.6817V71.4946ZM46.6817 87V88H47.6817V87H46.6817ZM0.282861 87H-0.717139L-0.717139 88H0.282861L0.282861 87ZM0.282861 4.53922V3.53922H-0.717139V4.53922H0.282861ZM20.3695 4.53922H21.3695V3.53922H20.3695V4.53922ZM20.3695 72.4946L46.6817 72.4946V70.4946L20.3695 70.4946V72.4946ZM45.6817 71.4946V87H47.6817V71.4946H45.6817ZM46.6817 86H0.282861L0.282861 88H46.6817V86ZM1.28286 87L1.28286 4.53922H-0.717139L-0.717139 87H1.28286ZM0.282861 5.53922L20.3695 5.53922V3.53922L0.282861 3.53922L0.282861 5.53922ZM19.3695 4.53922L19.3695 71.4946H21.3695L21.3695 4.53922H19.3695ZM58.3769 36.3724L57.4852 35.9196L57.4797 35.9307L58.3769 36.3724ZM68.8313 24.6258L69.3613 25.4738L69.3613 25.4738L68.8313 24.6258ZM95.6134 23.3337L95.1346 24.2116L95.1429 24.216L95.6134 23.3337ZM103.719 30.734L102.867 31.2581L104.719 34.2671V30.734H103.719ZM103.719 21.4543V20.4543L102.719 20.4543V21.4543L103.719 21.4543ZM123.805 21.4543H124.805V20.4543H123.805V21.4543ZM123.805 87V88H124.805V87H123.805ZM103.719 87H102.719V88H103.719V87ZM103.719 77.7202H104.719V74.3072L102.877 77.1806L103.719 77.7202ZM95.496 85.1206L95.0254 84.2382L95.0171 84.2427L95.496 85.1206ZM68.8313 83.8284L68.2905 84.6697L68.3013 84.6764L68.8313 83.8284ZM58.3769 71.9644L57.4771 72.4007L57.4811 72.4089L57.4852 72.4171L58.3769 71.9644ZM99.4898 42.3631L98.7633 43.0504L98.7731 43.0605L99.4898 42.3631ZM79.1683 42.3631L78.4516 41.6658L78.4513 41.666L79.1683 42.3631ZM79.1683 66.0911L78.4327 66.7686L78.442 66.7787L78.4516 66.7885L79.1683 66.0911ZM99.4898 66.0911L98.773 65.3937L98.7633 65.4039L99.4898 66.0911ZM55.618 54.1097C55.618 47.4997 56.8473 41.7434 59.2741 36.8141L57.4797 35.9307C54.8946 41.1817 53.618 47.2502 53.618 54.1097H55.618ZM59.2686 36.8251C61.7793 31.8797 65.1459 28.1084 69.3613 25.4738L68.3013 23.7778C63.746 26.6249 60.143 30.6847 57.4852 35.9197L59.2686 36.8251ZM69.3613 25.4738C73.5804 22.8369 78.2897 21.5145 83.5145 21.5145V19.5145C77.9325 19.5145 72.8529 20.9331 68.3013 23.7778L69.3613 25.4738ZM83.5145 21.5145C87.9972 21.5145 91.8599 22.4254 95.1346 24.2116L96.0923 22.4558C92.4757 20.4831 88.2724 19.5145 83.5145 19.5145V21.5145ZM95.1429 24.216C98.5285 26.0217 101.091 28.3718 102.867 31.2581L104.57 30.2099C102.588 26.988 99.7463 24.4046 96.084 22.4513L95.1429 24.216ZM104.719 30.734V21.4543L102.719 21.4543V30.734H104.719ZM103.719 22.4543H123.805V20.4543H103.719V22.4543ZM122.805 21.4543L122.805 87H124.805L124.805 21.4543H122.805ZM123.805 86H103.719V88H123.805V86ZM104.719 87V77.7202H102.719V87H104.719ZM102.877 77.1806C101.02 80.0763 98.4139 82.431 95.0254 84.2382L95.9666 86.0029C99.626 84.0512 102.501 81.4723 104.56 78.2599L102.877 77.1806ZM95.0171 84.2427C91.7424 86.0289 87.8797 86.9397 83.397 86.9397V88.9397C88.155 88.9397 92.3583 87.9711 95.9748 85.9984L95.0171 84.2427ZM83.397 86.9397C78.2535 86.9397 73.5829 85.6189 69.3613 82.9804L68.3013 84.6764C72.8505 87.5197 77.8904 88.9397 83.397 88.9397V86.9397ZM69.3721 82.9873C65.1501 80.2731 61.7803 76.459 59.2686 71.5117L57.4852 72.4171C60.142 77.6501 63.7418 81.7454 68.2906 84.6696L69.3721 82.9873ZM59.2767 71.5281C56.8472 66.5172 55.618 60.7192 55.618 54.1097H53.618C53.618 60.9695 54.8948 67.0747 57.4771 72.4007L59.2767 71.5281ZM104.719 54.2271C104.719 49.0207 103.249 44.7923 100.207 41.6658L98.7731 43.0605C101.369 45.7288 102.719 49.4099 102.719 54.2271H104.719ZM100.216 41.6759C97.2863 38.5784 93.656 37.0169 89.3878 37.0169V39.0169C93.1072 39.0169 96.2117 40.3528 98.7633 43.0503L100.216 41.6759ZM89.3878 37.0169C85.1203 37.0169 81.4564 38.5775 78.4516 41.6658L79.885 43.0605C82.5185 40.3538 85.6676 39.0169 89.3878 39.0169V37.0169ZM78.4513 41.666C75.4828 44.7193 74.057 48.9122 74.057 54.1097H76.057C76.057 49.2834 77.372 45.6452 79.8853 43.0602L78.4513 41.666ZM74.057 54.1097C74.057 59.3098 75.4836 63.5667 78.4327 66.7686L79.9038 65.4137C77.3712 62.664 76.057 58.9332 76.057 54.1097H74.057ZM78.4516 66.7885C81.4564 69.8768 85.1203 71.4374 89.3878 71.4374V69.4374C85.6676 69.4374 82.5185 68.1004 79.885 65.3938L78.4516 66.7885ZM89.3878 71.4374C93.656 71.4374 97.2863 69.8758 100.216 66.7783L98.7633 65.4039C96.2117 68.1014 93.1072 69.4374 89.3878 69.4374V71.4374ZM100.207 66.7885C103.249 63.6619 104.719 59.4336 104.719 54.2271H102.719C102.719 59.0444 101.369 62.7254 98.7731 65.3938L100.207 66.7885ZM160.773 32.3785H159.773V35.7425L161.61 32.9248L160.773 32.3785ZM169.583 23.921L170.083 24.7869L170.09 24.7828L170.097 24.7785L169.583 23.921ZM181.329 20.7495H182.329V19.7495H181.329V20.7495ZM181.329 42.0107V43.0107H182.329V42.0107H181.329ZM164.532 45.2997L165.177 46.064L165.183 46.0582L165.19 46.0523L164.532 45.2997ZM160.773 87V88H161.773V87H160.773ZM140.686 87H139.686V88H140.686V87ZM140.686 21.4543V20.4543H139.686V21.4543H140.686ZM160.773 21.4543H161.773V20.4543H160.773V21.4543ZM161.61 32.9248C163.879 29.4464 166.703 26.7399 170.083 24.7869L169.082 23.0552C165.415 25.1743 162.365 28.1061 159.935 31.8323L161.61 32.9248ZM170.097 24.7785C173.458 22.762 177.194 21.7495 181.329 21.7495V19.7495C176.85 19.7495 172.755 20.8513 169.068 23.0635L170.097 24.7785ZM180.329 20.7495V42.0107H182.329V20.7495H180.329ZM181.329 41.0107H175.808V43.0107H181.329V41.0107ZM175.808 41.0107C170.673 41.0107 166.634 42.1313 163.873 44.5472L165.19 46.0523C167.441 44.0829 170.92 43.0107 175.808 43.0107V41.0107ZM163.887 44.5355C161.044 46.9339 159.773 51.0647 159.773 56.5764H161.773C161.773 51.2813 163.007 47.8944 165.177 46.064L163.887 44.5355ZM159.773 56.5764V87H161.773V56.5764H159.773ZM160.773 86H140.686V88H160.773V86ZM141.686 87L141.686 21.4543H139.686L139.686 87H141.686ZM140.686 22.4543H160.773V20.4543L140.686 20.4543V22.4543ZM159.773 21.4543V32.3785H161.773V21.4543H159.773ZM193.045 36.3724L192.153 35.9196L192.147 35.9307L193.045 36.3724ZM203.499 24.6258L204.029 25.4738L204.029 25.4738L203.499 24.6258ZM230.281 23.3337L229.802 24.2116L229.811 24.216L230.281 23.3337ZM238.386 30.734L237.535 31.2581L239.386 34.2671V30.734H238.386ZM238.386 21.4543V20.4543H237.386V21.4543H238.386ZM258.473 21.4543H259.473V20.4543H258.473V21.4543ZM258.473 87V88H259.473V87H258.473ZM238.386 87H237.386V88H238.386V87ZM238.386 77.7202H239.386V74.3072L237.544 77.1806L238.386 77.7202ZM230.164 85.1206L229.693 84.2382L229.685 84.2427L230.164 85.1206ZM203.499 83.8284L202.958 84.6697L202.969 84.6764L203.499 83.8284ZM193.045 71.9644L192.145 72.4007L192.149 72.4089L192.153 72.4171L193.045 71.9644ZM234.158 42.3631L233.431 43.0504L233.441 43.0605L234.158 42.3631ZM213.836 42.3631L213.119 41.6658L213.119 41.666L213.836 42.3631ZM213.836 66.0911L213.1 66.7686L213.11 66.7787L213.119 66.7885L213.836 66.0911ZM234.158 66.0911L233.441 65.3937L233.431 65.4039L234.158 66.0911ZM190.286 54.1097C190.286 47.4997 191.515 41.7434 193.942 36.8141L192.147 35.9307C189.562 41.1817 188.286 47.2502 188.286 54.1097H190.286ZM193.936 36.8251C196.447 31.8797 199.814 28.1084 204.029 25.4738L202.969 23.7778C198.414 26.6249 194.811 30.6847 192.153 35.9197L193.936 36.8251ZM204.029 25.4738C208.248 22.8369 212.957 21.5145 218.182 21.5145V19.5145C212.6 19.5145 207.521 20.9331 202.969 23.7778L204.029 25.4738ZM218.182 21.5145C222.665 21.5145 226.528 22.4254 229.802 24.2116L230.76 22.4558C227.143 20.4831 222.94 19.5145 218.182 19.5145V21.5145ZM229.811 24.216C233.196 26.0217 235.758 28.3718 237.535 31.2581L239.238 30.2099C237.255 26.988 234.414 24.4046 230.752 22.4513L229.811 24.216ZM239.386 30.734V21.4543H237.386V30.734H239.386ZM238.386 22.4543H258.473V20.4543H238.386V22.4543ZM257.473 21.4543V87L259.473 87V21.4543H257.473ZM258.473 86L238.386 86V88L258.473 88V86ZM239.386 87V77.7202H237.386V87H239.386ZM237.544 77.1806C235.688 80.0763 233.082 82.431 229.693 84.2382L230.634 86.0029C234.294 84.0512 237.169 81.4723 239.228 78.2599L237.544 77.1806ZM229.685 84.2427C226.41 86.0289 222.547 86.9397 218.065 86.9397V88.9397C222.823 88.9397 227.026 87.9711 230.643 85.9984L229.685 84.2427ZM218.065 86.9397C212.921 86.9397 208.251 85.6189 204.029 82.9804L202.969 84.6764C207.518 87.5197 212.558 88.9397 218.065 88.9397V86.9397ZM204.04 82.9873C199.818 80.2731 196.448 76.459 193.936 71.5117L192.153 72.4171C194.81 77.6501 198.41 81.7454 202.958 84.6696L204.04 82.9873ZM193.944 71.5281C191.515 66.5172 190.286 60.7192 190.286 54.1097H188.286C188.286 60.9695 189.563 67.0747 192.145 72.4007L193.944 71.5281ZM239.386 54.2271C239.386 49.0207 237.916 44.7923 234.874 41.6658L233.441 43.0605C236.037 45.7288 237.386 49.4099 237.386 54.2271H239.386ZM234.884 41.6759C231.954 38.5784 228.324 37.0169 224.056 37.0169V39.0169C227.775 39.0169 230.879 40.3528 233.431 43.0503L234.884 41.6759ZM224.056 37.0169C219.788 37.0169 216.124 38.5775 213.119 41.6658L214.553 43.0605C217.186 40.3538 220.335 39.0169 224.056 39.0169V37.0169ZM213.119 41.666C210.151 44.7193 208.725 48.9122 208.725 54.1097H210.725C210.725 49.2834 212.04 45.6452 214.553 43.0602L213.119 41.666ZM208.725 54.1097C208.725 59.3098 210.151 63.5667 213.1 66.7686L214.572 65.4137C212.039 62.664 210.725 58.9332 210.725 54.1097H208.725ZM213.119 66.7885C216.124 69.8768 219.788 71.4374 224.056 71.4374V69.4374C220.335 69.4374 217.186 68.1004 214.553 65.3938L213.119 66.7885ZM224.056 71.4374C228.324 71.4374 231.954 69.8758 234.884 66.7783L233.431 65.4039C230.879 68.1014 227.775 69.4374 224.056 69.4374V71.4374ZM234.874 66.7885C237.916 63.6619 239.386 59.4336 239.386 54.2271H237.386C237.386 59.0444 236.037 62.7254 233.441 65.3938L234.874 66.7885ZM304.838 68.2055L303.881 68.4964L304.838 71.6434L305.795 68.4964L304.838 68.2055ZM319.051 21.4543V20.4543H318.31L318.094 21.1634L319.051 21.4543ZM340.43 21.4543L341.372 21.7887L341.846 20.4543H340.43V21.4543ZM317.172 87V88H317.878L318.114 87.3344L317.172 87ZM292.386 87L291.444 87.3344L291.68 88H292.386V87ZM269.128 21.4543V20.4543H267.712L268.186 21.7887L269.128 21.4543ZM290.625 21.4543L291.581 21.1634L291.366 20.4543H290.625V21.4543ZM305.795 68.4964L320.008 21.7451L318.094 21.1634L303.881 67.9146L305.795 68.4964ZM319.051 22.4543H340.43V20.4543L319.051 20.4543V22.4543ZM339.487 21.1198L316.229 86.6656L318.114 87.3344L341.372 21.7887L339.487 21.1198ZM317.172 86H292.386V88H317.172V86ZM293.329 86.6656L270.071 21.1198L268.186 21.7887L291.444 87.3344L293.329 86.6656ZM269.128 22.4543H290.625V20.4543L269.128 20.4543V22.4543ZM289.668 21.7451L303.881 68.4964L305.795 67.9146L291.581 21.1634L289.668 21.7451ZM412.668 59.0432V60.0432H413.56L413.662 59.1578L412.668 59.0432ZM367.209 59.0432V58.0432H366.129L366.212 59.1199L367.209 59.0432ZM371.086 68.4405L370.391 69.1599L370.404 69.172L370.417 69.1837L371.086 68.4405ZM390.115 65.2689V64.2689H389.476L389.208 64.8488L390.115 65.2689ZM411.494 65.2689L412.463 65.5156L412.78 64.2689H411.494V65.2689ZM405.503 76.898L404.738 76.2543L404.729 76.2647L405.503 76.898ZM394.814 85.0031L395.227 85.9135L394.814 85.0031ZM363.215 83.8284L362.736 84.7058L362.736 84.7058L363.215 83.8284ZM351.469 72.0819L352.344 71.5974L352.344 71.5974L351.469 72.0819ZM351.351 36.3724L350.477 35.8878L350.471 35.8983L351.351 36.3724ZM363.098 24.6258L363.578 25.5032L363.578 25.5032L363.098 24.6258ZM397.28 24.5084L396.806 25.3884L396.806 25.3884L397.28 24.5084ZM408.792 35.9025L407.918 36.3882L407.924 36.3986L408.792 35.9025ZM392.464 47.884V48.884H393.464V47.884H392.464ZM388.94 39.6614L389.595 38.9057L389.595 38.9057L388.94 39.6614ZM371.556 39.5439L370.915 38.7757L370.909 38.7811L370.903 38.7865L371.556 39.5439ZM367.327 47.884L366.338 47.7335L366.163 48.884H367.327V47.884ZM412.021 53.1699C412.021 55.0078 411.906 56.9272 411.675 58.9286L413.662 59.1578C413.901 57.0871 414.021 55.0909 414.021 53.1699H412.021ZM412.668 58.0432L367.209 58.0432V60.0432L412.668 60.0432V58.0432ZM366.212 59.1199C366.539 63.3625 367.897 66.7521 370.391 69.1599L371.78 67.721C369.732 65.7434 368.506 62.8682 368.206 58.9665L366.212 59.1199ZM370.417 69.1837C372.962 71.4748 376.064 72.612 379.661 72.612V70.612C376.523 70.612 373.908 69.6349 371.755 67.6972L370.417 69.1837ZM379.661 72.612C382.308 72.612 384.621 72.0529 386.552 70.8812C388.488 69.7067 389.972 67.9571 391.023 65.689L389.208 64.8488C388.3 66.8094 387.063 68.2314 385.514 69.1713C383.961 70.114 382.026 70.612 379.661 70.612V72.612ZM390.115 66.2689L411.494 66.2689V64.2689L390.115 64.2689V66.2689ZM410.525 65.0222C409.466 69.1814 407.54 72.9224 404.738 76.2544L406.268 77.5416C409.262 73.9822 411.329 69.9705 412.463 65.5156L410.525 65.0222ZM404.729 76.2647C402.013 79.5842 398.576 82.1944 394.4 84.0927L395.227 85.9135C399.665 83.8963 403.355 81.1031 406.277 77.5312L404.729 76.2647ZM394.4 84.0927C390.238 85.9844 385.566 86.9397 380.365 86.9397V88.9397C385.815 88.9397 390.775 87.9373 395.227 85.9135L394.4 84.0927ZM380.365 86.9397C374.091 86.9397 368.542 85.6019 363.695 82.9511L362.736 84.7058C367.912 87.5367 373.797 88.9397 380.365 88.9397V86.9397ZM363.695 82.9511C358.853 80.3029 355.073 76.5251 352.344 71.5974L350.594 72.5664C353.503 77.819 357.554 81.8723 362.736 84.7058L363.695 82.9511ZM352.344 71.5974C349.62 66.679 348.24 60.8997 348.24 54.2271H346.24C346.24 61.1805 347.68 67.3044 350.594 72.5664L352.344 71.5974ZM348.24 54.2271C348.24 47.5501 349.582 41.767 352.232 36.8465L350.471 35.8983C347.639 41.1581 346.24 47.2782 346.24 54.2271H348.24ZM352.226 36.8569C354.955 31.9292 358.735 28.1514 363.578 25.5032L362.618 23.7485C357.437 26.582 353.386 30.6352 350.477 35.8879L352.226 36.8569ZM363.578 25.5032C368.423 22.8533 374.01 21.5145 380.365 21.5145V19.5145C373.721 19.5145 367.796 20.9166 362.618 23.7485L363.578 25.5032ZM380.365 21.5145C386.565 21.5145 392.036 22.8144 396.806 25.3884L397.755 23.6283C392.658 20.8772 386.852 19.5145 380.365 19.5145V21.5145ZM396.806 25.3884C401.57 27.9596 405.269 31.6203 407.918 36.3882L409.666 35.4169C406.833 30.3176 402.858 26.3822 397.755 23.6283L396.806 25.3884ZM407.924 36.3986C410.644 41.1587 412.021 46.7382 412.021 53.1699H414.021C414.021 46.4456 412.579 40.5134 409.66 35.4064L407.924 36.3986ZM393.464 47.884C393.464 44.1836 392.189 41.1537 389.595 38.9057L388.285 40.4171C390.39 42.2413 391.464 44.6931 391.464 47.884H393.464ZM389.595 38.9057C387.04 36.691 383.861 35.6073 380.13 35.6073V37.6073C383.448 37.6073 386.142 38.5597 388.285 40.4171L389.595 38.9057ZM380.13 35.6073C376.555 35.6073 373.463 36.6528 370.915 38.7757L372.196 40.3122C374.347 38.5196 376.972 37.6073 380.13 37.6073V35.6073ZM370.903 38.7865C368.414 40.9318 366.914 43.9483 366.338 47.7335L368.315 48.0344C368.836 44.6151 370.155 42.0716 372.208 40.3013L370.903 38.7865ZM367.327 48.884L392.464 48.884V46.884L367.327 46.884V48.884ZM446.053 0.0755346H447.053V-0.924465H446.053V0.0755346ZM446.053 87V88H447.053V87H446.053ZM425.967 87H424.967V88H425.967V87ZM425.967 0.0755346V-0.924465H424.967V0.0755346H425.967ZM445.053 0.0755346V87H447.053V0.0755346H445.053ZM446.053 86L425.967 86V88L446.053 88V86ZM426.967 87V0.0755346H424.967V87H426.967ZM425.967 1.07553H446.053V-0.924465H425.967V1.07553ZM483.046 71.4946H482.046V72.4946H483.046V71.4946ZM509.358 71.4946H510.358V70.4946H509.358V71.4946ZM509.358 87V88H510.358V87H509.358ZM462.959 87H461.959V88H462.959V87ZM462.959 4.53922V3.53922H461.959V4.53922H462.959ZM483.046 4.53922H484.046V3.53922H483.046V4.53922ZM483.046 72.4946H509.358V70.4946H483.046V72.4946ZM508.358 71.4946V87H510.358V71.4946H508.358ZM509.358 86H462.959V88H509.358V86ZM463.959 87V4.53922H461.959V87H463.959ZM462.959 5.53922H483.046V3.53922H462.959V5.53922ZM482.046 4.53922V71.4946H484.046V4.53922H482.046ZM521.053 36.3724L520.162 35.9196L520.156 35.9307L521.053 36.3724ZM531.508 24.6258L532.038 25.4738L532.038 25.4738L531.508 24.6258ZM558.29 23.3337L557.811 24.2116L557.819 24.216L558.29 23.3337ZM566.395 30.734L565.543 31.2581L567.395 34.2671V30.734H566.395ZM566.395 21.4543V20.4543H565.395V21.4543H566.395ZM586.482 21.4543H587.482V20.4543H586.482V21.4543ZM586.482 87V88H587.482V87H586.482ZM566.395 87H565.395V88H566.395V87ZM566.395 77.7202H567.395V74.3072L565.553 77.1806L566.395 77.7202ZM558.172 85.1206L557.702 84.2382L557.694 84.2427L558.172 85.1206ZM531.508 83.8284L530.967 84.6697L530.978 84.6764L531.508 83.8284ZM521.053 71.9644L520.153 72.4007L520.157 72.4089L520.162 72.4171L521.053 71.9644ZM562.166 42.3631L561.44 43.0504L561.449 43.0605L562.166 42.3631ZM541.845 42.3631L541.128 41.6658L541.128 41.666L541.845 42.3631ZM541.845 66.0911L541.109 66.7686L541.118 66.7787L541.128 66.7885L541.845 66.0911ZM562.166 66.0911L561.449 65.3937L561.44 65.4039L562.166 66.0911ZM518.294 54.1097C518.294 47.4997 519.524 41.7434 521.95 36.8141L520.156 35.9307C517.571 41.1817 516.294 47.2502 516.294 54.1097H518.294ZM521.945 36.8251C524.456 31.8797 527.822 28.1084 532.038 25.4738L530.978 23.7778C526.422 26.6249 522.819 30.6847 520.162 35.9197L521.945 36.8251ZM532.038 25.4738C536.257 22.8369 540.966 21.5145 546.191 21.5145V19.5145C540.609 19.5145 535.529 20.9331 530.978 23.7778L532.038 25.4738ZM546.191 21.5145C550.674 21.5145 554.536 22.4254 557.811 24.2116L558.769 22.4558C555.152 20.4831 550.949 19.5145 546.191 19.5145V21.5145ZM557.819 24.216C561.205 26.0217 563.767 28.3718 565.543 31.2581L567.247 30.2099C565.264 26.988 562.423 24.4046 558.76 22.4513L557.819 24.216ZM567.395 30.734V21.4543H565.395V30.734H567.395ZM566.395 22.4543L586.482 22.4543V20.4543H566.395V22.4543ZM585.482 21.4543V87H587.482V21.4543H585.482ZM586.482 86H566.395V88H586.482V86ZM567.395 87V77.7202H565.395V87H567.395ZM565.553 77.1806C563.697 80.0763 561.09 82.431 557.702 84.2382L558.643 86.0029C562.302 84.0512 565.178 81.4723 567.237 78.2599L565.553 77.1806ZM557.694 84.2427C554.419 86.0289 550.556 86.9397 546.073 86.9397V88.9397C550.831 88.9397 555.035 87.9711 558.651 85.9984L557.694 84.2427ZM546.073 86.9397C540.93 86.9397 536.259 85.6189 532.038 82.9804L530.978 84.6764C535.527 87.5197 540.567 88.9397 546.073 88.9397V86.9397ZM532.048 82.9873C527.826 80.2731 524.457 76.459 521.945 71.5117L520.162 72.4171C522.818 77.6501 526.418 81.7454 530.967 84.6696L532.048 82.9873ZM521.953 71.5281C519.524 66.5172 518.294 60.7192 518.294 54.1097H516.294C516.294 60.9695 517.571 67.0747 520.153 72.4007L521.953 71.5281ZM567.395 54.2271C567.395 49.0207 565.925 44.7923 562.883 41.6658L561.449 43.0605C564.046 45.7288 565.395 49.4099 565.395 54.2271H567.395ZM562.893 41.6759C559.963 38.5784 556.332 37.0169 552.064 37.0169V39.0169C555.784 39.0169 558.888 40.3528 561.44 43.0503L562.893 41.6759ZM552.064 37.0169C547.797 37.0169 544.133 38.5775 541.128 41.6658L542.561 43.0605C545.195 40.3538 548.344 39.0169 552.064 39.0169V37.0169ZM541.128 41.666C538.159 44.7193 536.733 48.9122 536.733 54.1097H538.733C538.733 49.2834 540.048 45.6452 542.562 43.0602L541.128 41.666ZM536.733 54.1097C536.733 59.3098 538.16 63.5667 541.109 66.7686L542.58 65.4137C540.048 62.664 538.733 58.9332 538.733 54.1097H536.733ZM541.128 66.7885C544.133 69.8768 547.797 71.4374 552.064 71.4374V69.4374C548.344 69.4374 545.195 68.1004 542.561 65.3938L541.128 66.7885ZM552.064 71.4374C556.332 71.4374 559.963 69.8758 562.893 66.7783L561.44 65.4039C558.888 68.1014 555.784 69.4374 552.064 69.4374V71.4374ZM562.883 66.7885C565.925 63.6619 567.395 59.4336 567.395 54.2271H565.395C565.395 59.0444 564.046 62.7254 561.449 65.3938L562.883 66.7885ZM623.449 32.3785H622.449V35.7425L624.287 32.9248L623.449 32.3785ZM632.259 23.921L632.759 24.7869L632.767 24.7828L632.774 24.7785L632.259 23.921ZM644.006 20.7495H645.006V19.7495H644.006V20.7495ZM644.006 42.0107V43.0107H645.006V42.0107H644.006ZM627.208 45.2997L627.853 46.064L627.86 46.0582L627.867 46.0523L627.208 45.2997ZM623.449 87V88H624.449V87H623.449ZM603.363 87H602.363V88H603.363V87ZM603.363 21.4543V20.4543H602.363V21.4543H603.363ZM623.449 21.4543H624.449V20.4543H623.449V21.4543ZM624.287 32.9248C626.555 29.4464 629.379 26.7399 632.759 24.7869L631.759 23.0552C628.091 25.1743 625.042 28.1061 622.612 31.8323L624.287 32.9248ZM632.774 24.7785C636.135 22.762 639.871 21.7495 644.006 21.7495V19.7495C639.526 19.7495 635.432 20.8513 631.745 23.0635L632.774 24.7785ZM643.006 20.7495V42.0107H645.006V20.7495H643.006ZM644.006 41.0107H638.485V43.0107H644.006V41.0107ZM638.485 41.0107C633.349 41.0107 629.311 42.1313 626.55 44.5472L627.867 46.0523C630.117 44.0829 633.597 43.0107 638.485 43.0107V41.0107ZM626.563 44.5355C623.721 46.9339 622.449 51.0647 622.449 56.5764H624.449C624.449 51.2813 625.684 47.8944 627.853 46.064L626.563 44.5355ZM622.449 56.5764V87H624.449V56.5764H622.449ZM623.449 86L603.363 86V88L623.449 88V86ZM604.363 87V21.4543H602.363V87H604.363ZM603.363 22.4543H623.449V20.4543H603.363V22.4543ZM622.449 21.4543V32.3785H624.449V21.4543H622.449ZM655.721 36.3724L654.829 35.9196L654.824 35.9307L655.721 36.3724ZM666.175 24.6258L666.705 25.4738L666.705 25.4738L666.175 24.6258ZM692.958 23.3337L692.479 24.2116L692.487 24.216L692.958 23.3337ZM701.063 30.734L700.211 31.2581L702.063 34.2671V30.734H701.063ZM701.063 21.4543V20.4543H700.063V21.4543H701.063ZM721.149 21.4543L722.149 21.4543V20.4543L721.149 20.4543V21.4543ZM721.149 87V88H722.149V87H721.149ZM701.063 87H700.063V88H701.063V87ZM701.063 77.7202H702.063V74.3072L700.221 77.1806L701.063 77.7202ZM692.84 85.1206L692.37 84.2382L692.361 84.2427L692.84 85.1206ZM666.175 83.8284L665.635 84.6697L665.645 84.6764L666.175 83.8284ZM655.721 71.9644L654.821 72.4007L654.825 72.4089L654.829 72.4171L655.721 71.9644ZM696.834 42.3631L696.107 43.0504L696.117 43.0605L696.834 42.3631ZM676.512 42.3631L675.796 41.6658L675.795 41.666L676.512 42.3631ZM676.512 66.0911L675.777 66.7686L675.786 66.7787L675.796 66.7885L676.512 66.0911ZM696.834 66.0911L696.117 65.3937L696.107 65.4039L696.834 66.0911ZM652.962 54.1097C652.962 47.4997 654.191 41.7434 656.618 36.8141L654.824 35.9307C652.239 41.1817 650.962 47.2502 650.962 54.1097H652.962ZM656.613 36.8251C659.123 31.8797 662.49 28.1084 666.705 25.4738L665.645 23.7778C661.09 26.6249 657.487 30.6847 654.829 35.9197L656.613 36.8251ZM666.705 25.4738C670.925 22.8369 675.634 21.5145 680.859 21.5145V19.5145C675.277 19.5145 670.197 20.9331 665.645 23.7778L666.705 25.4738ZM680.859 21.5145C685.341 21.5145 689.204 22.4254 692.479 24.2116L693.436 22.4558C689.82 20.4831 685.617 19.5145 680.859 19.5145V21.5145ZM692.487 24.216C695.873 26.0217 698.435 28.3718 700.211 31.2581L701.914 30.2099C699.932 26.988 697.09 24.4046 693.428 22.4513L692.487 24.216ZM702.063 30.734V21.4543H700.063V30.734H702.063ZM701.063 22.4543H721.149V20.4543H701.063V22.4543ZM720.149 21.4543V87H722.149V21.4543L720.149 21.4543ZM721.149 86H701.063V88H721.149V86ZM702.063 87V77.7202H700.063V87H702.063ZM700.221 77.1806C698.365 80.0763 695.758 82.431 692.37 84.2382L693.311 86.0029C696.97 84.0512 699.845 81.4723 701.905 78.2599L700.221 77.1806ZM692.361 84.2427C689.087 86.0289 685.224 86.9397 680.741 86.9397V88.9397C685.499 88.9397 689.702 87.9711 693.319 85.9984L692.361 84.2427ZM680.741 86.9397C675.598 86.9397 670.927 85.6189 666.705 82.9804L665.645 84.6764C670.195 87.5197 675.235 88.9397 680.741 88.9397V86.9397ZM666.716 82.9873C662.494 80.2731 659.124 76.459 656.613 71.5117L654.829 72.4171C657.486 77.6501 661.086 81.7454 665.635 84.6696L666.716 82.9873ZM656.621 71.5281C654.191 66.5172 652.962 60.7192 652.962 54.1097H650.962C650.962 60.9695 652.239 67.0747 654.821 72.4007L656.621 71.5281ZM702.063 54.2271C702.063 49.0207 700.593 44.7923 697.551 41.6658L696.117 43.0605C698.713 45.7288 700.063 49.4099 700.063 54.2271H702.063ZM697.56 41.6759C694.63 38.5784 691 37.0169 686.732 37.0169V39.0169C690.451 39.0169 693.556 40.3528 696.107 43.0503L697.56 41.6759ZM686.732 37.0169C682.464 37.0169 678.801 38.5775 675.796 41.6658L677.229 43.0605C679.863 40.3538 683.012 39.0169 686.732 39.0169V37.0169ZM675.795 41.666C672.827 44.7193 671.401 48.9122 671.401 54.1097H673.401C673.401 49.2834 674.716 45.6452 677.229 43.0602L675.795 41.666ZM671.401 54.1097C671.401 59.3098 672.828 63.5667 675.777 66.7686L677.248 65.4137C674.715 62.664 673.401 58.9332 673.401 54.1097H671.401ZM675.796 66.7885C678.801 69.8768 682.464 71.4374 686.732 71.4374V69.4374C683.012 69.4374 679.863 68.1004 677.229 65.3938L675.796 66.7885ZM686.732 71.4374C691 71.4374 694.63 69.8758 697.56 66.7783L696.107 65.4039C693.556 68.1014 690.451 69.4374 686.732 69.4374V71.4374ZM697.551 66.7885C700.593 63.6619 702.063 59.4336 702.063 54.2271H700.063C700.063 59.0444 698.713 62.7254 696.117 65.3938L697.551 66.7885ZM767.514 68.2055L766.557 68.4964L767.514 71.6434L768.471 68.4964L767.514 68.2055ZM781.728 21.4543V20.4543H780.986L780.771 21.1634L781.728 21.4543ZM803.106 21.4543L804.049 21.7887L804.522 20.4543H803.106V21.4543ZM779.848 87V88H780.554L780.791 87.3344L779.848 87ZM755.063 87L754.12 87.3344L754.357 88H755.063V87ZM731.805 21.4543V20.4543H730.389L730.862 21.7887L731.805 21.4543ZM753.301 21.4543L754.258 21.1634L754.042 20.4543H753.301V21.4543ZM768.471 68.4964L782.684 21.7451L780.771 21.1634L766.557 67.9146L768.471 68.4964ZM781.728 22.4543H803.106V20.4543H781.728V22.4543ZM802.164 21.1198L778.906 86.6656L780.791 87.3344L804.049 21.7887L802.164 21.1198ZM779.848 86H755.063V88H779.848V86ZM756.005 86.6656L732.747 21.1198L730.862 21.7887L754.12 87.3344L756.005 86.6656ZM731.805 22.4543L753.301 22.4543V20.4543H731.805V22.4543ZM752.344 21.7451L766.557 68.4964L768.471 67.9146L754.258 21.1634L752.344 21.7451ZM875.345 59.0432V60.0432H876.236L876.338 59.1578L875.345 59.0432ZM829.886 59.0432V58.0432H828.806L828.889 59.1199L829.886 59.0432ZM833.762 68.4405L833.067 69.1599L833.08 69.172L833.093 69.1837L833.762 68.4405ZM852.791 65.2689V64.2689H852.152L851.884 64.8488L852.791 65.2689ZM874.17 65.2689L875.139 65.5156L875.457 64.2689H874.17V65.2689ZM868.179 76.898L867.414 76.2543L867.405 76.2647L868.179 76.898ZM857.49 85.0031L857.904 85.9135L857.49 85.0031ZM825.892 83.8284L825.412 84.7058L825.412 84.7058L825.892 83.8284ZM814.145 72.0819L815.02 71.5974L815.02 71.5974L814.145 72.0819ZM814.028 36.3724L813.153 35.8878L813.147 35.8983L814.028 36.3724ZM825.774 24.6258L826.254 25.5032L826.254 25.5032L825.774 24.6258ZM859.957 24.5084L859.482 25.3884L859.482 25.3884L859.957 24.5084ZM871.468 35.9025L870.594 36.3882L870.6 36.3986L871.468 35.9025ZM855.141 47.884V48.884H856.141V47.884H855.141ZM851.617 39.6614L852.272 38.9057L852.272 38.9057L851.617 39.6614ZM834.232 39.5439L833.592 38.7757L833.585 38.7811L833.579 38.7865L834.232 39.5439ZM830.003 47.884L829.015 47.7335L828.839 48.884H830.003V47.884ZM874.697 53.1699C874.697 55.0078 874.582 56.9272 874.351 58.9286L876.338 59.1578C876.577 57.0871 876.697 55.0909 876.697 53.1699H874.697ZM875.345 58.0432L829.886 58.0432V60.0432L875.345 60.0432V58.0432ZM828.889 59.1199C829.215 63.3625 830.574 66.7521 833.067 69.1599L834.457 67.721C832.408 65.7434 831.183 62.8682 830.883 58.9665L828.889 59.1199ZM833.093 69.1837C835.639 71.4748 838.74 72.612 842.337 72.612V70.612C839.199 70.612 836.584 69.6349 834.431 67.6972L833.093 69.1837ZM842.337 72.612C844.984 72.612 847.297 72.0529 849.228 70.8812C851.164 69.7067 852.649 67.9571 853.699 65.689L851.884 64.8488C850.976 66.8094 849.74 68.2314 848.191 69.1713C846.637 70.114 844.702 70.612 842.337 70.612V72.612ZM852.791 66.2689H874.17V64.2689H852.791V66.2689ZM873.201 65.0222C872.142 69.1814 870.216 72.9224 867.414 76.2544L868.945 77.5416C871.938 73.9822 874.005 69.9705 875.139 65.5156L873.201 65.0222ZM867.405 76.2647C864.69 79.5842 861.253 82.1944 857.076 84.0927L857.904 85.9135C862.342 83.8963 866.031 81.1031 868.953 77.5312L867.405 76.2647ZM857.076 84.0927C852.915 85.9844 848.242 86.9397 843.042 86.9397V88.9397C848.492 88.9397 853.451 87.9373 857.904 85.9135L857.076 84.0927ZM843.042 86.9397C836.767 86.9397 831.219 85.6019 826.372 82.9511L825.412 84.7058C830.589 87.5367 836.474 88.9397 843.042 88.9397V86.9397ZM826.372 82.9511C821.529 80.3029 817.749 76.5251 815.02 71.5974L813.271 72.5664C816.18 77.819 820.231 81.8723 825.412 84.7058L826.372 82.9511ZM815.02 71.5974C812.296 66.679 810.917 60.8997 810.917 54.2271H808.917C808.917 61.1805 810.356 67.3044 813.271 72.5664L815.02 71.5974ZM810.917 54.2271C810.917 47.5501 812.259 41.767 814.908 36.8465L813.147 35.8983C810.315 41.1581 808.917 47.2782 808.917 54.2271H810.917ZM814.903 36.8569C817.632 31.9292 821.412 28.1514 826.254 25.5032L825.295 23.7485C820.113 26.582 816.062 30.6352 813.153 35.8879L814.903 36.8569ZM826.254 25.5032C831.1 22.8533 836.686 21.5145 843.042 21.5145V19.5145C836.398 19.5145 830.473 20.9166 825.295 23.7485L826.254 25.5032ZM843.042 21.5145C849.241 21.5145 854.713 22.8144 859.482 25.3884L860.432 23.6283C855.334 20.8772 849.529 19.5145 843.042 19.5145V21.5145ZM859.482 25.3884C864.246 27.9596 867.945 31.6203 870.594 36.3882L872.343 35.4169C869.51 30.3176 865.535 26.3822 860.432 23.6283L859.482 25.3884ZM870.6 36.3986C873.32 41.1587 874.697 46.7382 874.697 53.1699H876.697C876.697 46.4456 875.255 40.5134 872.337 35.4064L870.6 36.3986ZM856.141 47.884C856.141 44.1836 854.866 41.1537 852.272 38.9057L850.962 40.4171C853.067 42.2413 854.141 44.6931 854.141 47.884H856.141ZM852.272 38.9057C849.716 36.691 846.537 35.6073 842.807 35.6073V37.6073C846.125 37.6073 848.819 38.5597 850.962 40.4171L852.272 38.9057ZM842.807 35.6073C839.231 35.6073 836.139 36.6528 833.592 38.7757L834.872 40.3122C837.023 38.5196 839.648 37.6073 842.807 37.6073V35.6073ZM833.579 38.7865C831.09 40.9318 829.591 43.9483 829.015 47.7335L830.992 48.0344C831.512 44.6151 832.831 42.0716 834.885 40.3013L833.579 38.7865ZM830.003 48.884L855.141 48.884V46.884L830.003 46.884V48.884ZM908.73 0.0755346H909.73V-0.924465H908.73V0.0755346ZM908.73 87V88H909.73V87H908.73ZM888.643 87H887.643V88H888.643V87ZM888.643 0.0755346V-0.924465H887.643V0.0755346H888.643ZM907.73 0.0755346V87H909.73V0.0755346H907.73ZM908.73 86H888.643V88H908.73V86ZM889.643 87V0.0755346H887.643V87H889.643ZM888.643 1.07553L908.73 1.07553V-0.924465L888.643 -0.924465V1.07553ZM945.722 71.4946H944.722V72.4946H945.722V71.4946ZM972.035 71.4946H973.035V70.4946H972.035V71.4946ZM972.035 87V88H973.035V87H972.035ZM925.636 87H924.636V88H925.636V87ZM925.636 4.53922V3.53922H924.636V4.53922H925.636ZM945.722 4.53922H946.722V3.53922H945.722V4.53922ZM945.722 72.4946H972.035V70.4946H945.722V72.4946ZM971.035 71.4946V87H973.035V71.4946H971.035ZM972.035 86L925.636 86V88L972.035 88V86ZM926.636 87V4.53922H924.636V87H926.636ZM925.636 5.53922L945.722 5.53922V3.53922L925.636 3.53922V5.53922ZM944.722 4.53922V71.4946H946.722V4.53922H944.722ZM983.73 36.3724L982.838 35.9196L982.832 35.9307L983.73 36.3724ZM994.184 24.6258L994.714 25.4738L994.714 25.4738L994.184 24.6258ZM1020.97 23.3337L1020.49 24.2116L1020.5 24.216L1020.97 23.3337ZM1029.07 30.734L1028.22 31.2581L1030.07 34.2671V30.734H1029.07ZM1029.07 21.4543V20.4543H1028.07V21.4543H1029.07ZM1049.16 21.4543H1050.16V20.4543H1049.16V21.4543ZM1049.16 87V88H1050.16V87H1049.16ZM1029.07 87H1028.07V88H1029.07V87ZM1029.07 77.7202H1030.07V74.3072L1028.23 77.1806L1029.07 77.7202ZM1020.85 85.1206L1020.38 84.2382L1020.37 84.2427L1020.85 85.1206ZM994.184 83.8284L993.643 84.6697L993.654 84.6764L994.184 83.8284ZM983.73 71.9644L982.83 72.4007L982.834 72.4089L982.838 72.4171L983.73 71.9644ZM1024.84 42.3631L1024.12 43.0504L1024.13 43.0605L1024.84 42.3631ZM1004.52 42.3631L1003.8 41.6658L1003.8 41.666L1004.52 42.3631ZM1004.52 66.0911L1003.79 66.7686L1003.79 66.7787L1003.8 66.7885L1004.52 66.0911ZM1024.84 66.0911L1024.13 65.3937L1024.12 65.4039L1024.84 66.0911ZM980.971 54.1097C980.971 47.4997 982.2 41.7434 984.627 36.8141L982.832 35.9307C980.247 41.1817 978.971 47.2502 978.971 54.1097H980.971ZM984.621 36.8251C987.132 31.8797 990.499 28.1084 994.714 25.4738L993.654 23.7778C989.099 26.6249 985.496 30.6847 982.838 35.9197L984.621 36.8251ZM994.714 25.4738C998.933 22.8369 1003.64 21.5145 1008.87 21.5145V19.5145C1003.29 19.5145 998.206 20.9331 993.654 23.7778L994.714 25.4738ZM1008.87 21.5145C1013.35 21.5145 1017.21 22.4254 1020.49 24.2116L1021.45 22.4558C1017.83 20.4831 1013.63 19.5145 1008.87 19.5145V21.5145ZM1020.5 24.216C1023.88 26.0217 1026.44 28.3718 1028.22 31.2581L1029.92 30.2099C1027.94 26.988 1025.1 24.4046 1021.44 22.4513L1020.5 24.216ZM1030.07 30.734V21.4543H1028.07V30.734H1030.07ZM1029.07 22.4543H1049.16V20.4543L1029.07 20.4543V22.4543ZM1048.16 21.4543V87H1050.16V21.4543H1048.16ZM1049.16 86H1029.07V88H1049.16V86ZM1030.07 87V77.7202H1028.07V87H1030.07ZM1028.23 77.1806C1026.37 80.0763 1023.77 82.431 1020.38 84.2382L1021.32 86.0029C1024.98 84.0512 1027.85 81.4723 1029.91 78.2599L1028.23 77.1806ZM1020.37 84.2427C1017.1 86.0289 1013.23 86.9397 1008.75 86.9397V88.9397C1013.51 88.9397 1017.71 87.9711 1021.33 85.9984L1020.37 84.2427ZM1008.75 86.9397C1003.61 86.9397 998.936 85.6189 994.714 82.9804L993.654 84.6764C998.203 87.5197 1003.24 88.9397 1008.75 88.9397V86.9397ZM994.725 82.9873C990.503 80.2731 987.133 76.459 984.621 71.5117L982.838 72.4171C985.495 77.6501 989.095 81.7454 993.643 84.6696L994.725 82.9873ZM984.629 71.5281C982.2 66.5172 980.971 60.7192 980.971 54.1097H978.971C978.971 60.9695 980.248 67.0747 982.83 72.4007L984.629 71.5281ZM1030.07 54.2271C1030.07 49.0207 1028.6 44.7923 1025.56 41.6658L1024.13 43.0605C1026.72 45.7288 1028.07 49.4099 1028.07 54.2271H1030.07ZM1025.57 41.6759C1022.64 38.5784 1019.01 37.0169 1014.74 37.0169V39.0169C1018.46 39.0169 1021.56 40.3528 1024.12 43.0503L1025.57 41.6759ZM1014.74 37.0169C1010.47 37.0169 1006.81 38.5775 1003.8 41.6658L1005.24 43.0605C1007.87 40.3538 1011.02 39.0169 1014.74 39.0169V37.0169ZM1003.8 41.666C1000.84 44.7193 999.41 48.9122 999.41 54.1097H1001.41C1001.41 49.2834 1002.72 45.6452 1005.24 43.0602L1003.8 41.666ZM999.41 54.1097C999.41 59.3098 1000.84 63.5667 1003.79 66.7686L1005.26 65.4137C1002.72 62.664 1001.41 58.9332 1001.41 54.1097H999.41ZM1003.8 66.7885C1006.81 69.8768 1010.47 71.4374 1014.74 71.4374V69.4374C1011.02 69.4374 1007.87 68.1004 1005.24 65.3938L1003.8 66.7885ZM1014.74 71.4374C1019.01 71.4374 1022.64 69.8758 1025.57 66.7783L1024.12 65.4039C1021.56 68.1014 1018.46 69.4374 1014.74 69.4374V71.4374ZM1025.56 66.7885C1028.6 63.6619 1030.07 59.4336 1030.07 54.2271H1028.07C1028.07 59.0444 1026.72 62.7254 1024.13 65.3938L1025.56 66.7885ZM1086.13 32.3785H1085.13V35.7425L1086.96 32.9248L1086.13 32.3785ZM1094.94 23.921L1095.44 24.7869L1095.44 24.7828L1095.45 24.7785L1094.94 23.921ZM1106.68 20.7495H1107.68V19.7495H1106.68V20.7495ZM1106.68 42.0107V43.0107H1107.68V42.0107H1106.68ZM1089.88 45.2997L1090.53 46.064L1090.54 46.0582L1090.54 46.0523L1089.88 45.2997ZM1086.13 87V88H1087.13V87H1086.13ZM1066.04 87H1065.04V88H1066.04V87ZM1066.04 21.4543V20.4543H1065.04V21.4543H1066.04ZM1086.13 21.4543H1087.13V20.4543H1086.13V21.4543ZM1086.96 32.9248C1089.23 29.4464 1092.06 26.7399 1095.44 24.7869L1094.44 23.0552C1090.77 25.1743 1087.72 28.1061 1085.29 31.8323L1086.96 32.9248ZM1095.45 24.7785C1098.81 22.762 1102.55 21.7495 1106.68 21.7495V19.7495C1102.2 19.7495 1098.11 20.8513 1094.42 23.0635L1095.45 24.7785ZM1105.68 20.7495V42.0107H1107.68V20.7495H1105.68ZM1106.68 41.0107H1101.16V43.0107H1106.68V41.0107ZM1101.16 41.0107C1096.03 41.0107 1091.99 42.1313 1089.23 44.5472L1090.54 46.0523C1092.79 44.0829 1096.27 43.0107 1101.16 43.0107V41.0107ZM1089.24 44.5355C1086.4 46.9339 1085.13 51.0647 1085.13 56.5764H1087.13C1087.13 51.2813 1088.36 47.8944 1090.53 46.064L1089.24 44.5355ZM1085.13 56.5764V87H1087.13V56.5764H1085.13ZM1086.13 86H1066.04V88H1086.13V86ZM1067.04 87V21.4543H1065.04V87H1067.04ZM1066.04 22.4543H1086.13V20.4543L1066.04 20.4543V22.4543ZM1085.13 21.4543V32.3785H1087.13V21.4543H1085.13ZM1118.4 36.3724L1117.51 35.9196L1117.5 35.9307L1118.4 36.3724ZM1128.85 24.6258L1129.38 25.4738L1129.38 25.4738L1128.85 24.6258ZM1155.63 23.3337L1155.16 24.2116L1155.16 24.216L1155.63 23.3337ZM1163.74 30.734L1162.89 31.2581L1164.74 34.2671V30.734H1163.74ZM1163.74 21.4543V20.4543H1162.74V21.4543H1163.74ZM1183.83 21.4543H1184.83V20.4543H1183.83V21.4543ZM1183.83 87V88H1184.83V87H1183.83ZM1163.74 87H1162.74V88H1163.74V87ZM1163.74 77.7202H1164.74V74.3072L1162.9 77.1806L1163.74 77.7202ZM1155.52 85.1206L1155.05 84.2382L1155.04 84.2427L1155.52 85.1206ZM1128.85 83.8284L1128.31 84.6697L1128.32 84.6764L1128.85 83.8284ZM1118.4 71.9644L1117.5 72.4007L1117.5 72.4089L1117.51 72.4171L1118.4 71.9644ZM1159.51 42.3631L1158.78 43.0504L1158.79 43.0605L1159.51 42.3631ZM1139.19 42.3631L1138.47 41.6658L1138.47 41.666L1139.19 42.3631ZM1139.19 66.0911L1138.45 66.7686L1138.46 66.7787L1138.47 66.7885L1139.19 66.0911ZM1159.51 66.0911L1158.79 65.3937L1158.78 65.4039L1159.51 66.0911ZM1115.64 54.1097C1115.64 47.4997 1116.87 41.7434 1119.29 36.8141L1117.5 35.9307C1114.92 41.1817 1113.64 47.2502 1113.64 54.1097H1115.64ZM1119.29 36.8251C1121.8 31.8797 1125.17 28.1084 1129.38 25.4738L1128.32 23.7778C1123.77 26.6249 1120.16 30.6847 1117.51 35.9197L1119.29 36.8251ZM1129.38 25.4738C1133.6 22.8369 1138.31 21.5145 1143.54 21.5145V19.5145C1137.95 19.5145 1132.87 20.9331 1128.32 23.7778L1129.38 25.4738ZM1143.54 21.5145C1148.02 21.5145 1151.88 22.4254 1155.16 24.2116L1156.11 22.4558C1152.5 20.4831 1148.29 19.5145 1143.54 19.5145V21.5145ZM1155.16 24.216C1158.55 26.0217 1161.11 28.3718 1162.89 31.2581L1164.59 30.2099C1162.61 26.988 1159.77 24.4046 1156.1 22.4513L1155.16 24.216ZM1164.74 30.734V21.4543L1162.74 21.4543V30.734H1164.74ZM1163.74 22.4543H1183.83V20.4543L1163.74 20.4543V22.4543ZM1182.83 21.4543V87H1184.83V21.4543H1182.83ZM1183.83 86H1163.74V88H1183.83V86ZM1164.74 87V77.7202H1162.74V87H1164.74ZM1162.9 77.1806C1161.04 80.0763 1158.43 82.431 1155.05 84.2382L1155.99 86.0029C1159.65 84.0512 1162.52 81.4723 1164.58 78.2599L1162.9 77.1806ZM1155.04 84.2427C1151.76 86.0289 1147.9 86.9397 1143.42 86.9397V88.9397C1148.18 88.9397 1152.38 87.9711 1156 85.9984L1155.04 84.2427ZM1143.42 86.9397C1138.27 86.9397 1133.6 85.6189 1129.38 82.9804L1128.32 84.6764C1132.87 87.5197 1137.91 88.9397 1143.42 88.9397V86.9397ZM1129.39 82.9873C1125.17 80.2731 1121.8 76.459 1119.29 71.5117L1117.51 72.4171C1120.16 77.6501 1123.76 81.7454 1128.31 84.6696L1129.39 82.9873ZM1119.3 71.5281C1116.87 66.5172 1115.64 60.7192 1115.64 54.1097H1113.64C1113.64 60.9695 1114.92 67.0747 1117.5 72.4007L1119.3 71.5281ZM1164.74 54.2271C1164.74 49.0207 1163.27 44.7923 1160.23 41.6658L1158.79 43.0605C1161.39 45.7288 1162.74 49.4099 1162.74 54.2271H1164.74ZM1160.24 41.6759C1157.31 38.5784 1153.68 37.0169 1149.41 37.0169V39.0169C1153.13 39.0169 1156.23 40.3528 1158.78 43.0503L1160.24 41.6759ZM1149.41 37.0169C1145.14 37.0169 1141.48 38.5775 1138.47 41.6658L1139.91 43.0605C1142.54 40.3538 1145.69 39.0169 1149.41 39.0169V37.0169ZM1138.47 41.666C1135.5 44.7193 1134.08 48.9122 1134.08 54.1097H1136.08C1136.08 49.2834 1137.39 45.6452 1139.91 43.0602L1138.47 41.666ZM1134.08 54.1097C1134.08 59.3098 1135.5 63.5667 1138.45 66.7686L1139.92 65.4137C1137.39 62.664 1136.08 58.9332 1136.08 54.1097H1134.08ZM1138.47 66.7885C1141.48 69.8768 1145.14 71.4374 1149.41 71.4374V69.4374C1145.69 69.4374 1142.54 68.1004 1139.91 65.3938L1138.47 66.7885ZM1149.41 71.4374C1153.68 71.4374 1157.31 69.8758 1160.24 66.7783L1158.78 65.4039C1156.23 68.1014 1153.13 69.4374 1149.41 69.4374V71.4374ZM1160.23 66.7885C1163.27 63.6619 1164.74 59.4336 1164.74 54.2271H1162.74C1162.74 59.0444 1161.39 62.7254 1158.79 65.3938L1160.23 66.7885ZM1230.19 68.2055L1229.23 68.4964L1230.19 71.6434L1231.15 68.4964L1230.19 68.2055ZM1244.4 21.4543V20.4543H1243.66L1243.45 21.1634L1244.4 21.4543ZM1265.78 21.4543L1266.73 21.7887L1267.2 20.4543H1265.78V21.4543ZM1242.52 87V88H1243.23L1243.47 87.3344L1242.52 87ZM1217.74 87L1216.8 87.3344L1217.03 88H1217.74V87ZM1194.48 21.4543V20.4543H1193.07L1193.54 21.7887L1194.48 21.4543ZM1215.98 21.4543L1216.93 21.1634L1216.72 20.4543H1215.98V21.4543ZM1231.15 68.4964L1245.36 21.7451L1243.45 21.1634L1229.23 67.9146L1231.15 68.4964ZM1244.4 22.4543H1265.78V20.4543L1244.4 20.4543V22.4543ZM1264.84 21.1198L1241.58 86.6656L1243.47 87.3344L1266.73 21.7887L1264.84 21.1198ZM1242.52 86H1217.74V88H1242.52V86ZM1218.68 86.6656L1195.42 21.1198L1193.54 21.7887L1216.8 87.3344L1218.68 86.6656ZM1194.48 22.4543H1215.98V20.4543L1194.48 20.4543V22.4543ZM1215.02 21.7451L1229.23 68.4964L1231.15 67.9146L1216.93 21.1634L1215.02 21.7451ZM1338.02 59.0432V60.0432H1338.91L1339.01 59.1578L1338.02 59.0432ZM1292.56 59.0432V58.0432H1291.48L1291.56 59.1199L1292.56 59.0432ZM1296.44 68.4405L1295.74 69.1599L1295.76 69.172L1295.77 69.1837L1296.44 68.4405ZM1315.47 65.2689V64.2689H1314.83L1314.56 64.8488L1315.47 65.2689ZM1336.85 65.2689L1337.82 65.5156L1338.13 64.2689H1336.85V65.2689ZM1330.86 76.898L1330.09 76.2543L1330.08 76.2647L1330.86 76.898ZM1320.17 85.0031L1320.58 85.9135L1320.17 85.0031ZM1288.57 83.8284L1288.09 84.7058L1288.09 84.7058L1288.57 83.8284ZM1276.82 72.0819L1277.7 71.5974L1277.7 71.5974L1276.82 72.0819ZM1276.7 36.3724L1275.83 35.8878L1275.82 35.8983L1276.7 36.3724ZM1288.45 24.6258L1288.93 25.5032L1288.93 25.5032L1288.45 24.6258ZM1322.63 24.5084L1322.16 25.3884L1322.16 25.3884L1322.63 24.5084ZM1334.14 35.9025L1333.27 36.3882L1333.28 36.3986L1334.14 35.9025ZM1317.82 47.884V48.884H1318.82V47.884H1317.82ZM1314.29 39.6614L1314.95 38.9057L1314.95 38.9057L1314.29 39.6614ZM1296.91 39.5439L1296.27 38.7757L1296.26 38.7811L1296.26 38.7865L1296.91 39.5439ZM1292.68 47.884L1291.69 47.7335L1291.52 48.884H1292.68V47.884ZM1337.37 53.1699C1337.37 55.0078 1337.26 56.9272 1337.03 58.9286L1339.01 59.1578C1339.25 57.0871 1339.37 55.0909 1339.37 53.1699H1337.37ZM1338.02 58.0432H1292.56V60.0432H1338.02V58.0432ZM1291.56 59.1199C1291.89 63.3625 1293.25 66.7521 1295.74 69.1599L1297.13 67.721C1295.08 65.7434 1293.86 62.8682 1293.56 58.9665L1291.56 59.1199ZM1295.77 69.1837C1298.32 71.4748 1301.42 72.612 1305.01 72.612V70.612C1301.88 70.612 1299.26 69.6349 1297.11 67.6972L1295.77 69.1837ZM1305.01 72.612C1307.66 72.612 1309.97 72.0529 1311.9 70.8812C1313.84 69.7067 1315.33 67.9571 1316.38 65.689L1314.56 64.8488C1313.65 66.8094 1312.42 68.2314 1310.87 69.1713C1309.31 70.114 1307.38 70.612 1305.01 70.612V72.612ZM1315.47 66.2689H1336.85V64.2689H1315.47V66.2689ZM1335.88 65.0222C1334.82 69.1814 1332.89 72.9224 1330.09 76.2544L1331.62 77.5416C1334.61 73.9822 1336.68 69.9705 1337.82 65.5156L1335.88 65.0222ZM1330.08 76.2647C1327.37 79.5842 1323.93 82.1944 1319.75 84.0927L1320.58 85.9135C1325.02 83.8963 1328.71 81.1031 1331.63 77.5312L1330.08 76.2647ZM1319.75 84.0927C1315.59 85.9844 1310.92 86.9397 1305.72 86.9397V88.9397C1311.17 88.9397 1316.13 87.9373 1320.58 85.9135L1319.75 84.0927ZM1305.72 86.9397C1299.44 86.9397 1293.9 85.6019 1289.05 82.9511L1288.09 84.7058C1293.26 87.5367 1299.15 88.9397 1305.72 88.9397V86.9397ZM1289.05 82.9511C1284.21 80.3029 1280.43 76.5251 1277.7 71.5974L1275.95 72.5664C1278.86 77.819 1282.91 81.8723 1288.09 84.7058L1289.05 82.9511ZM1277.7 71.5974C1274.97 66.679 1273.59 60.8997 1273.59 54.2271H1271.59C1271.59 61.1805 1273.03 67.3044 1275.95 72.5664L1277.7 71.5974ZM1273.59 54.2271C1273.59 47.5501 1274.94 41.767 1277.58 36.8465L1275.82 35.8983C1272.99 41.1581 1271.59 47.2782 1271.59 54.2271H1273.59ZM1277.58 36.8569C1280.31 31.9292 1284.09 28.1514 1288.93 25.5032L1287.97 23.7485C1282.79 26.582 1278.74 30.6352 1275.83 35.8879L1277.58 36.8569ZM1288.93 25.5032C1293.78 22.8533 1299.36 21.5145 1305.72 21.5145V19.5145C1299.07 19.5145 1293.15 20.9166 1287.97 23.7485L1288.93 25.5032ZM1305.72 21.5145C1311.92 21.5145 1317.39 22.8144 1322.16 25.3884L1323.11 23.6283C1318.01 20.8772 1312.2 19.5145 1305.72 19.5145V21.5145ZM1322.16 25.3884C1326.92 27.9596 1330.62 31.6203 1333.27 36.3882L1335.02 35.4169C1332.19 30.3176 1328.21 26.3822 1323.11 23.6283L1322.16 25.3884ZM1333.28 36.3986C1336 41.1587 1337.37 46.7382 1337.37 53.1699H1339.37C1339.37 46.4456 1337.93 40.5134 1335.01 35.4064L1333.28 36.3986ZM1318.82 47.884C1318.82 44.1836 1317.54 41.1537 1314.95 38.9057L1313.64 40.4171C1315.74 42.2413 1316.82 44.6931 1316.82 47.884H1318.82ZM1314.95 38.9057C1312.39 36.691 1309.21 35.6073 1305.48 35.6073V37.6073C1308.8 37.6073 1311.5 38.5597 1313.64 40.4171L1314.95 38.9057ZM1305.48 35.6073C1301.91 35.6073 1298.82 36.6528 1296.27 38.7757L1297.55 40.3122C1299.7 38.5196 1302.32 37.6073 1305.48 37.6073V35.6073ZM1296.26 38.7865C1293.77 40.9318 1292.27 43.9483 1291.69 47.7335L1293.67 48.0344C1294.19 44.6151 1295.51 42.0716 1297.56 40.3013L1296.26 38.7865ZM1292.68 48.884H1317.82V46.884H1292.68V48.884ZM1371.41 0.0755346H1372.41V-0.924465H1371.41V0.0755346ZM1371.41 87V88H1372.41V87H1371.41ZM1351.32 87H1350.32V88H1351.32V87ZM1351.32 0.0755346V-0.924465H1350.32V0.0755346H1351.32ZM1370.41 0.0755346V87H1372.41V0.0755346H1370.41ZM1371.41 86H1351.32V88H1371.41V86ZM1352.32 87V0.0755346H1350.32V87H1352.32ZM1351.32 1.07553H1371.41V-0.924465H1351.32V1.07553Z" fill="#F2B125"/>
</svg>
