<svg width="105" height="105" viewBox="0 0 105 105" fill="none" xmlns="http://www.w3.org/2000/svg">
<circle cx="52.1032" cy="52.1037" r="52.1033" transform="rotate(-180 52.1032 52.1037)" fill="#1B1414" fill-opacity="0.05"/>
<path d="M73.0881 53.1966C73.6404 53.1966 74.0881 52.7489 74.0881 52.1966C74.0881 51.6443 73.6404 51.1966 73.0881 51.1966V53.1966ZM31.881 51.1966C31.3287 51.1966 30.881 51.6443 30.881 52.1966C30.881 52.7488 31.3287 53.1966 31.881 53.1966L31.881 51.1966ZM38.7811 60.5111C39.1716 60.9016 39.8048 60.9016 40.1953 60.5111C40.5858 60.1206 40.5858 59.4874 40.1953 59.0969L38.7811 60.5111ZM31.5637 51.8795L30.8566 51.1724L30.1495 51.8795L30.8566 52.5866L31.5637 51.8795ZM40.1953 44.6622C40.5858 44.2717 40.5858 43.6385 40.1953 43.248C39.8048 42.8574 39.1716 42.8574 38.7811 43.248L40.1953 44.6622ZM73.0881 51.1966L31.881 51.1966L31.881 53.1966L73.0881 53.1966V51.1966ZM40.1953 59.0969L32.2708 51.1724L30.8566 52.5866L38.7811 60.5111L40.1953 59.0969ZM32.2708 52.5866L40.1953 44.6622L38.7811 43.248L30.8566 51.1724L32.2708 52.5866Z" fill="#1B1414"/>
</svg>
