<svg width="76" height="76" viewBox="0 0 76 76" fill="none" xmlns="http://www.w3.org/2000/svg">
<path fill-rule="evenodd" clip-rule="evenodd" d="M30.6049 0.20184C29.8635 0.612596 29.8571 0.674054 29.8507 7.34278C29.8462 12.1293 29.7935 13.8938 29.6239 14.9392C29.0194 18.6658 27.3735 21.8993 24.7232 24.5669C21.7538 27.5559 18.7181 29.0355 14.0692 29.7593L13.5124 29.8462V50.1767V70.5074L38.4213 70.5009C58.5904 70.4957 63.4339 70.4573 63.8758 70.2996C64.7105 70.0015 65.5264 69.2766 66.0105 68.403C66.3861 67.7251 66.4484 67.4544 66.4484 66.4993C66.4484 65.5442 66.3861 65.2736 66.0105 64.5956C65.5264 63.722 64.7105 62.9971 63.8758 62.6991C63.4528 62.5481 61.5771 62.5027 55.5345 62.4969C50.7498 62.4924 47.5297 62.4316 47.1973 62.3392C46.3336 62.0993 45.9241 61.1681 46.3401 60.3907C46.7213 59.6787 46.8448 59.6707 57.3594 59.6707C68.2843 59.6707 68.0002 59.6942 69.165 58.6973C70.0491 57.9409 70.5321 56.8699 70.5303 55.6706C70.5278 53.9798 69.657 52.6468 68.0817 51.9219L67.3393 51.5803L58.5086 51.5365C48.8421 51.4886 49.325 51.5344 48.9795 50.6311C48.7992 50.1597 49.0768 49.3324 49.4955 49.0926C49.7415 48.9519 52.5731 48.8907 61.474 48.834C73.0741 48.7601 73.1333 48.7583 73.731 48.4383C74.6119 47.9668 75.4984 46.9308 75.8015 46.0185C76.4431 44.0871 75.4828 41.9425 73.5933 41.0874L72.8334 40.7436L59.8877 40.7026L46.9419 40.6615L46.5609 40.2087C46.0812 39.6388 46.0731 39.0286 46.5381 38.4881L46.8964 38.0715L58.6027 37.9973L70.3091 37.9231L70.9772 37.5762C72.4568 36.8078 73.17 35.6392 73.3131 33.7486C73.4159 32.3892 73.1312 31.5536 72.3138 30.8154C71.1939 29.8039 71.6389 29.8327 57.1465 29.8327C44.4897 29.8327 44.0892 29.8241 43.3209 29.5367C42.3748 29.1828 41.57 28.4021 41.1013 27.3833L40.7599 26.641L40.6845 15.9528C40.6178 6.49737 40.5809 5.1943 40.365 4.65632C39.3492 2.12469 37.4914 0.530801 35.1006 0.139492C33.8012 -0.0732337 31.0321 -0.0349342 30.6049 0.20184ZM0 50.2443V76H5.41981H10.8396V50.2443V24.4885H5.41981H0V50.2443ZM6.69206 66.738C8.23574 67.1947 9.50323 68.9279 9.50323 70.5816C9.50323 72.0068 8.52336 73.5408 7.1834 74.2142C6.18987 74.7133 4.67143 74.7204 3.7122 74.2304C2.19599 73.4559 1.43128 72.2354 1.42593 70.5816C1.42162 69.2999 1.84288 68.3652 2.80642 67.5172C3.89157 66.5623 5.20703 66.2985 6.69206 66.738ZM4.97435 69.3086C4.08609 69.6816 3.83262 70.8438 4.49518 71.506C5.31082 72.3216 6.74135 71.7329 6.74135 70.5816C6.74135 69.7043 5.74366 68.9854 4.97435 69.3086Z" fill="black"/>
</svg>
