<svg width="1454" height="132" viewBox="0 0 1454 132" fill="none" xmlns="http://www.w3.org/2000/svg">
<path d="M31.3486 97.8652L31.0452 98.6054L31.0452 98.6054L31.3486 97.8652ZM19.7255 89.0886L19.0807 89.5623L19.0871 89.5706L19.7255 89.0886ZM15.2186 75.0934V74.2934H14.3951L14.4189 75.1166L15.2186 75.0934ZM36.8043 75.0934L37.6001 75.0118L37.5264 74.2934H36.8043V75.0934ZM40.0066 82.2096L39.4671 82.8004L39.4743 82.8069L39.4816 82.8133L40.0066 82.2096ZM54.2389 82.5654L54.728 83.1984L54.7368 83.1916L54.7455 83.1846L54.2389 82.5654ZM54.7133 71.654L54.1476 72.2197L54.1557 72.2277L54.164 72.2356L54.7133 71.654ZM49.6134 68.3331L49.2911 69.0654L49.3017 69.0699L49.6134 68.3331ZM41.074 65.368L40.8379 66.1324L40.8456 66.1347L41.074 65.368ZM19.1325 53.0334L19.7706 52.5509L19.7706 52.5509L19.1325 53.0334ZM23.8766 22.1967L24.3665 22.8291L24.372 22.8248L23.8766 22.1967ZM67.9968 22.1967L67.5013 22.8248L67.5069 22.8291L67.9968 22.1967ZM77.0106 40.4615V41.2615H77.852L77.8096 40.4211L77.0106 40.4615ZM55.0691 40.4615L54.2705 40.5085L54.3148 41.2615H55.0691V40.4615ZM52.104 34.1755L51.5791 34.7792L51.5867 34.7859L51.5945 34.7923L52.104 34.1755ZM39.1763 33.8197L39.6916 34.4317L39.7008 34.4239L39.7098 34.4159L39.1763 33.8197ZM40.7182 45.68L41.1266 44.9921L41.1266 44.9921L40.7182 45.68ZM52.5784 50.5427L52.8348 49.7848L52.8247 49.7815L52.5784 50.5427ZM65.6247 55.7612L65.2669 56.4768L65.2737 56.4801L65.6247 55.7612ZM74.4013 62.996L73.769 63.486L73.769 63.486L74.4013 62.996ZM74.4013 88.1397L73.7252 87.712L73.719 87.722L74.4013 88.1397ZM63.9643 97.3907L63.6065 96.6752L63.6065 96.6752L63.9643 97.3907ZM47.7157 100.03C41.7143 100.03 36.3641 99.0561 31.6519 97.1249L31.0452 98.6054C35.9794 100.628 41.5406 101.63 47.7157 101.63V100.03ZM31.6519 97.1249C26.9514 95.1985 23.1966 92.3578 20.3639 88.6065L19.0871 89.5706C22.1055 93.568 26.0993 96.5784 31.0452 98.6054L31.6519 97.1249ZM20.3702 88.6149C17.6326 84.8887 16.1724 80.3863 16.0183 75.0703L14.4189 75.1166C14.5811 80.712 16.1255 85.5397 19.0808 89.5622L20.3702 88.6149ZM15.2186 75.8934H36.8043V74.2934H15.2186V75.8934ZM36.0085 75.1751C36.3394 78.4018 37.4688 80.9758 39.4671 82.8004L40.546 81.6188C38.9072 80.1225 37.9017 77.9524 37.6001 75.0118L36.0085 75.1751ZM39.4816 82.8133C41.4753 84.5469 44.0474 85.3817 47.1227 85.3817V83.7817C44.347 83.7817 42.1749 83.035 40.5315 81.6059L39.4816 82.8133ZM47.1227 85.3817C50.2402 85.3817 52.805 84.6844 54.728 83.1984L53.7497 81.9324C52.1938 83.1347 50.0144 83.7817 47.1227 83.7817V85.3817ZM54.7455 83.1846C56.689 81.5944 57.6481 79.4202 57.6481 76.7539H56.0481C56.0481 78.9898 55.2677 80.69 53.7323 81.9462L54.7455 83.1846ZM57.6481 76.7539C57.6481 74.4904 56.8546 72.576 55.2626 71.0724L54.164 72.2356C55.4184 73.4203 56.0481 74.9058 56.0481 76.7539H57.6481ZM55.279 71.0883C53.8504 69.6597 52.0595 68.4993 49.9251 67.5963L49.3017 69.0699C51.2788 69.9064 52.8878 70.9599 54.1476 72.2197L55.279 71.0883ZM49.9356 67.6008C47.9134 66.7111 45.0297 65.7116 41.3024 64.6013L40.8456 66.1347C44.5507 67.2384 47.3599 68.2156 49.2912 69.0653L49.9356 67.6008ZM41.31 64.6036C35.9558 62.9501 31.6098 61.3037 28.2602 59.6679L27.558 61.1056C31.0082 62.7906 35.4389 64.4651 40.8379 66.1324L41.31 64.6036ZM28.2602 59.6679C24.9814 58.0666 22.1517 55.7 19.7706 52.5509L18.4944 53.5158C21.0155 56.8503 24.0369 59.386 27.558 61.1056L28.2602 59.6679ZM19.7706 52.5509C17.4511 49.4831 16.2558 45.437 16.2558 40.3429H14.6558C14.6558 45.6857 15.9117 50.1 18.4944 53.5158L19.7706 52.5509ZM16.2558 40.3429C16.2558 32.8156 18.9679 27.0111 24.3665 22.8291L23.3867 21.5642C17.5576 26.0797 14.6558 32.3727 14.6558 40.3429H16.2558ZM24.372 22.8248C29.8113 18.5346 36.9363 16.3549 45.8181 16.3549V14.7549C36.6722 14.7549 29.1696 17.003 23.3812 21.5685L24.372 22.8248ZM45.8181 16.3549C54.8617 16.3549 62.0643 18.5365 67.5013 22.8248L68.4922 21.5685C62.7015 17.0012 55.1183 14.7549 45.8181 14.7549V16.3549ZM67.5069 22.8291C72.9158 27.0191 75.8266 32.8798 76.2116 40.5018L77.8096 40.4211C77.4038 32.3876 74.3055 26.0717 68.4867 21.5642L67.5069 22.8291ZM77.0106 39.6615L55.0691 39.6615V41.2615L77.0106 41.2615V39.6615ZM55.8677 40.4145C55.6986 37.5389 54.6284 35.2232 52.6135 33.5588L51.5945 34.7923C53.2168 36.1324 54.1233 38.0074 54.2705 40.5085L55.8677 40.4145ZM52.629 33.5719C50.6392 31.8417 48.109 31.0035 45.1065 31.0035V32.6035C47.7968 32.6035 49.9317 33.3467 51.5791 34.7792L52.629 33.5719ZM45.1065 31.0035C42.5031 31.0035 40.322 31.7212 38.6429 33.2235L39.7098 34.4159C41.0353 33.2299 42.8076 32.6035 45.1065 32.6035V31.0035ZM38.661 33.2078C36.9346 34.6616 36.1229 36.7706 36.1229 39.3941H37.7229C37.7229 37.1153 38.4134 35.508 39.6916 34.4317L38.661 33.2078ZM36.1229 39.3941C36.1229 42.3955 37.5645 44.7379 40.3097 46.3679L41.1266 44.9921C38.8114 43.6175 37.7229 41.7692 37.7229 39.3941H36.1229ZM40.3097 46.3679C42.9185 47.9168 46.9406 49.5595 52.3322 51.3039L52.8247 49.7815C47.463 48.0469 43.5782 46.4478 41.1266 44.9921L40.3097 46.3679ZM52.3221 51.3005C57.6801 53.1128 61.9912 54.8389 65.2669 56.4768L65.9825 55.0457C62.6165 53.3627 58.23 51.6098 52.8348 49.7849L52.3221 51.3005ZM65.2737 56.4801C68.5573 58.0837 71.3884 60.4144 73.769 63.486L75.0336 62.5059C72.5119 59.2521 69.4921 56.7596 65.9758 55.0424L65.2737 56.4801ZM73.769 63.486C76.0871 66.4771 77.278 70.3638 77.278 75.212H78.878C78.878 70.0977 77.6178 65.8403 75.0336 62.5059L73.769 63.486ZM77.278 75.212C77.278 79.8103 76.0925 83.9702 73.7253 87.712L75.0774 88.5675C77.6124 84.5605 78.878 80.102 78.878 75.212H77.278ZM73.719 87.722C71.4349 91.4528 68.0763 94.4403 63.6065 96.6752L64.3221 98.1063C69.0242 95.7552 72.6236 92.5754 75.0836 88.5575L73.719 87.722ZM63.6065 96.6752C59.1533 98.9018 53.8646 100.03 47.7157 100.03V101.63C54.0596 101.63 59.6034 100.466 64.3221 98.1063L63.6065 96.6752ZM151.877 40.6987L151.284 41.2359L151.288 41.2405L151.877 40.6987ZM158.756 100V100.8H159.556V100H158.756ZM138.593 100H137.793V100.8H138.593V100ZM135.154 53.745L134.569 54.2915L134.569 54.2915L135.154 53.745ZM116.652 53.745L117.236 54.2915L117.236 54.2915L116.652 53.745ZM113.212 100V100.8H114.012V100H113.212ZM92.9311 100H92.1311V100.8H92.9311V100ZM92.9311 12.2341V11.4341H92.1311V12.2341H92.9311ZM113.212 12.2341H114.012V11.4341H113.212V12.2341ZM113.212 42.7149H112.412L112.412 45.2448L113.867 43.1749L113.212 42.7149ZM121.633 35.7174L121.282 34.9987L121.282 34.9987L121.633 35.7174ZM133.612 33.9081C141.005 33.9081 146.867 36.3626 151.284 41.2359L152.469 40.1615C147.714 34.9141 141.4 32.3081 133.612 32.3081V33.9081ZM151.288 41.2405C155.702 46.0345 157.956 52.6984 157.956 61.3355H159.556C159.556 52.4195 157.224 45.3255 152.465 40.1568L151.288 41.2405ZM157.956 61.3355L157.956 100H159.556L159.556 61.3355H157.956ZM158.756 99.2H138.593V100.8H158.756V99.2ZM139.393 100L139.393 64.0634H137.793L137.793 100H139.393ZM139.393 64.0634C139.393 59.4991 138.209 55.8401 135.738 53.1984L134.569 54.2915C136.684 56.5521 137.793 59.772 137.793 64.0634H139.393ZM135.738 53.1984C133.27 50.5602 129.961 49.2683 125.903 49.2683V50.8683C129.593 50.8683 132.452 52.0275 134.569 54.2915L135.738 53.1984ZM125.903 49.2683C121.844 49.2683 118.535 50.5602 116.067 53.1984L117.236 54.2915C119.354 52.0275 122.212 50.8683 125.903 50.8683V49.2683ZM116.067 53.1984C113.596 55.8401 112.412 59.4991 112.412 64.0634H114.012C114.012 59.772 115.121 56.5521 117.236 54.2915L116.067 53.1984ZM112.412 64.0634V100H114.012V64.0634H112.412ZM113.212 99.2H92.9311V100.8H113.212V99.2ZM93.7311 100L93.7311 12.2341H92.1311L92.1311 100H93.7311ZM92.9311 13.0341L113.212 13.0341V11.4341L92.9311 11.4341V13.0341ZM112.412 12.2341V42.7149H114.012V12.2341H112.412ZM113.867 43.1749C115.837 40.3713 118.534 38.1228 121.984 36.4361L121.282 34.9987C117.616 36.7909 114.699 39.2075 112.558 42.255L113.867 43.1749ZM121.984 36.4361C125.421 34.7561 129.291 33.9081 133.612 33.9081V32.3081C129.077 32.3081 124.961 33.1996 121.282 34.9987L121.984 36.4361ZM187.793 96.7977L187.414 97.5021L187.418 97.5045L187.793 96.7977ZM175.577 84.9375L174.881 85.3333L174.886 85.3412L175.577 84.9375ZM175.695 49.0009L176.386 49.4046L176.389 49.4L175.695 49.0009ZM188.03 37.022L188.405 37.7288L188.405 37.7288L188.03 37.022ZM223.136 37.022L222.762 37.7288L222.762 37.7288L223.136 37.022ZM235.471 49.0009L234.778 49.4L234.78 49.4046L235.471 49.0009ZM235.352 84.9375L234.664 84.5305L234.662 84.5337L235.352 84.9375ZM222.899 96.7977L222.529 96.0886L222.524 96.091L222.899 96.7977ZM215.19 79.1259L214.616 78.5682L214.608 78.5766L215.19 79.1259ZM215.309 54.6938L214.719 55.2344L214.727 55.2431L215.309 54.6938ZM195.739 54.6938L196.321 55.2427L196.329 55.2344L195.739 54.6938ZM195.621 79.1259L195.023 79.6575L195.031 79.6665L195.621 79.1259ZM205.346 100.149C198.98 100.149 193.26 98.7913 188.168 96.091L187.418 97.5045C192.763 100.339 198.745 101.749 205.346 101.749V100.149ZM188.172 96.0934C183.165 93.3971 179.199 89.5489 176.267 84.5337L174.886 85.3412C177.963 90.6049 182.142 94.6636 187.414 97.5021L188.172 96.0934ZM176.272 84.5417C173.426 79.5413 171.988 73.6729 171.988 66.9099H170.388C170.388 73.9047 171.877 80.0548 174.882 85.3332L176.272 84.5417ZM171.988 66.9099C171.988 60.2314 173.463 54.405 176.386 49.4046L175.005 48.5971C171.919 53.8756 170.388 59.9886 170.388 66.9099H171.988ZM176.389 49.4C179.32 44.3093 183.322 40.4242 188.405 37.7288L187.655 36.3152C182.301 39.1546 178.08 43.2554 175.002 48.6017L176.389 49.4ZM188.405 37.7288C193.497 35.0284 199.217 33.6709 205.583 33.6709V32.0709C198.982 32.0709 193 33.4808 187.655 36.3152L188.405 37.7288ZM205.583 33.6709C211.949 33.6709 217.67 35.0284 222.762 37.7288L223.511 36.3152C218.166 33.4808 212.184 32.0709 205.583 32.0709V33.6709ZM222.762 37.7288C227.844 40.4242 231.847 44.3093 234.778 49.4L236.164 48.6017C233.086 43.2554 228.865 39.1546 223.511 36.3152L222.762 37.7288ZM234.78 49.4046C237.704 54.405 239.178 60.2314 239.178 66.9099H240.778C240.778 59.9886 239.248 53.8756 236.162 48.5971L234.78 49.4046ZM239.178 66.9099C239.178 73.5844 237.666 79.4497 234.664 84.5305L236.041 85.3444C239.206 79.9882 240.778 73.8351 240.778 66.9099H239.178ZM234.662 84.5337C231.733 89.5428 227.694 93.3906 222.529 96.0886L223.27 97.5068C228.7 94.6701 232.962 90.6111 236.043 85.3412L234.662 84.5337ZM222.524 96.091C217.432 98.7913 211.712 100.149 205.346 100.149V101.749C211.947 101.749 217.929 100.339 223.274 97.5045L222.524 96.091ZM205.346 84.1956C209.443 84.1956 212.934 82.6798 215.772 79.6752L214.608 78.5766C212.069 81.265 208.998 82.5956 205.346 82.5956V84.1956ZM215.764 79.6836C218.719 76.6433 220.141 72.3441 220.141 66.9099H218.541C218.541 72.0708 217.195 75.9156 214.616 78.5683L215.764 79.6836ZM220.141 66.9099C220.141 61.4815 218.762 57.1854 215.89 54.1445L214.727 55.2431C217.232 57.8951 218.541 61.7431 218.541 66.9099H220.141ZM215.898 54.1532C213.137 51.1408 209.681 49.6241 205.583 49.6241V51.2241C209.234 51.2241 212.262 52.5538 214.719 55.2344L215.898 54.1532ZM205.583 49.6241C201.412 49.6241 197.914 51.137 195.149 54.1532L196.329 55.2344C198.783 52.5576 201.848 51.2241 205.583 51.2241V49.6241ZM195.157 54.145C192.359 57.1127 191.025 61.4138 191.025 66.9099H192.625C192.625 61.6527 193.901 57.8097 196.321 55.2426L195.157 54.145ZM191.025 66.9099C191.025 72.3268 192.319 76.6159 195.023 79.6574L196.219 78.5944C193.862 75.943 192.625 72.0881 192.625 66.9099H191.025ZM195.031 79.6665C197.792 82.6789 201.248 84.1956 205.346 84.1956V82.5956C201.695 82.5956 198.667 81.2659 196.21 78.5854L195.031 79.6665ZM273.391 43.1893H272.591V45.9197L274.064 43.6211L273.391 43.1893ZM281.574 35.7174L281.191 35.0151L281.191 35.0151L281.574 35.7174ZM308.616 37.022L308.192 37.7004L308.192 37.7004L308.616 37.022ZM319.053 48.8823L318.335 49.2356L318.339 49.2444L319.053 48.8823ZM319.053 84.8189L318.337 84.4611L318.335 84.4655L319.053 84.8189ZM308.616 96.7977L309.04 97.4762L309.048 97.4707L308.616 96.7977ZM281.574 98.1024L281.191 98.8047L281.198 98.8082L281.574 98.1024ZM273.391 90.749L274.059 90.3093L272.591 88.0774V90.749H273.391ZM273.391 131.548V132.348H274.191V131.548H273.391ZM253.11 131.548H252.31V132.348H253.11V131.548ZM253.11 33.8197V33.0197H252.31V33.8197H253.11ZM273.391 33.8197H274.191V33.0197H273.391V33.8197ZM298.06 54.931L297.479 55.4808L297.486 55.4888L297.494 55.4967L298.06 54.931ZM277.423 54.931L276.85 54.3731L276.842 54.3812L277.423 54.931ZM277.423 78.8887L276.842 79.4385L276.85 79.4466L277.423 78.8887ZM298.06 78.8887L298.633 79.4467L298.641 79.4389L298.06 78.8887ZM274.064 43.6211C275.962 40.6597 278.586 38.2584 281.957 36.4197L281.191 35.0151C277.604 36.9716 274.772 39.5516 272.717 42.7576L274.064 43.6211ZM281.957 36.4197C285.3 34.5966 289.235 33.6709 293.79 33.6709V32.0709C289.015 32.0709 284.807 33.0428 281.191 35.0151L281.957 36.4197ZM293.79 33.6709C299.103 33.6709 303.897 35.0161 308.192 37.7004L309.04 36.3436C304.479 33.4931 299.389 32.0709 293.79 32.0709V33.6709ZM308.192 37.7004C312.481 40.3813 315.864 44.2163 318.335 49.2356L319.77 48.5289C317.181 43.2693 313.606 39.1975 309.04 36.3436L308.192 37.7004ZM318.339 49.2444C320.882 54.2531 322.166 60.0947 322.166 66.7913H323.766C323.766 59.8881 322.442 53.7903 319.766 48.5201L318.339 49.2444ZM322.166 66.7913C322.166 73.4875 320.882 79.3707 318.337 84.4611L319.768 85.1766C322.441 79.83 323.766 73.6948 323.766 66.7913H322.166ZM318.335 84.4655C315.863 89.4864 312.478 93.3638 308.183 96.1248L309.048 97.4707C313.609 94.5387 317.182 90.4302 319.77 85.1722L318.335 84.4655ZM308.192 96.1193C303.897 98.8036 299.103 100.149 293.79 100.149V101.749C299.389 101.749 304.479 100.327 309.04 97.4761L308.192 96.1193ZM293.79 100.149C289.317 100.149 285.378 99.2243 281.951 97.3965L281.198 98.8082C284.887 100.776 289.091 101.749 293.79 101.749V100.149ZM281.957 97.4C278.581 95.5587 275.956 93.1934 274.059 90.3093L272.722 91.1887C274.778 94.3137 277.609 96.8507 281.191 98.8047L281.957 97.4ZM272.591 90.749V131.548H274.191V90.749H272.591ZM273.391 130.748L253.11 130.748V132.348L273.391 132.348V130.748ZM253.91 131.548L253.91 33.8197H252.31L252.31 131.548H253.91ZM253.11 34.6197H273.391V33.0197H253.11V34.6197ZM272.591 33.8197V43.1893H274.191V33.8197H272.591ZM303.13 66.7913C303.13 61.5762 301.658 57.3981 298.626 54.3653L297.494 55.4967C300.154 58.1568 301.53 61.8856 301.53 66.7913H303.13ZM298.641 54.3812C295.719 51.2922 292.068 49.7427 287.741 49.7427V51.3427C291.638 51.3427 294.866 52.7187 297.479 55.4808L298.641 54.3812ZM287.741 49.7427C283.49 49.7427 279.845 51.2949 276.85 54.3731L277.996 55.4889C280.694 52.716 283.928 51.3427 287.741 51.3427V49.7427ZM276.842 54.3812C273.9 57.4909 272.472 61.6999 272.472 66.9099H274.072C274.072 61.9991 275.411 58.2222 278.004 55.4808L276.842 54.3812ZM272.472 66.9099C272.472 72.1199 273.9 76.3288 276.842 79.4385L278.004 78.339C275.411 75.5976 274.072 71.8206 274.072 66.9099H272.472ZM276.85 79.4466C279.845 82.5248 283.49 84.077 287.741 84.077V82.477C283.928 82.477 280.694 81.1037 277.996 78.3308L276.85 79.4466ZM287.741 84.077C291.993 84.077 295.638 82.5248 298.633 79.4466L297.487 78.3308C294.789 81.1037 291.555 82.477 287.741 82.477V84.077ZM298.641 79.4389C301.658 76.2541 303.13 72.0082 303.13 66.7913H301.53C301.53 71.695 300.155 75.5141 297.479 78.3385L298.641 79.4389ZM337.402 23.8571L336.846 24.433L336.857 24.4431L336.868 24.4528L337.402 23.8571ZM337.402 8.20156L337.946 8.78779L337.947 8.78707L337.402 8.20156ZM354.718 8.20156L354.162 8.77743L354.173 8.78752L354.184 8.79721L354.718 8.20156ZM354.718 23.8571L355.262 24.4433L355.263 24.4426L354.718 23.8571ZM356.26 33.8197H357.06V33.0197H356.26V33.8197ZM356.26 100V100.8H357.06V100H356.26ZM335.978 100H335.178V100.8H335.978V100ZM335.978 33.8197V33.0197H335.178V33.8197H335.978ZM346.178 26.1408C342.785 26.1408 340.059 25.1654 337.936 23.2615L336.868 24.4528C339.33 26.6604 342.456 27.7408 346.178 27.7408V26.1408ZM337.957 23.2812C335.9 21.2976 334.881 18.8964 334.881 16.0293H333.281C333.281 19.3296 334.476 22.1469 336.846 24.433L337.957 23.2812ZM334.881 16.0293C334.881 13.0773 335.904 10.6844 337.946 8.78779L336.857 7.61532C334.472 9.83029 333.281 12.6559 333.281 16.0293H334.881ZM337.947 8.78707C340.071 6.80897 342.793 5.79929 346.178 5.79929V4.19929C342.447 4.19929 339.318 5.32445 336.857 7.61604L337.947 8.78707ZM346.178 5.79929C349.48 5.79929 352.118 6.80559 354.162 8.77743L355.273 7.62568C352.89 5.32783 349.835 4.19929 346.178 4.19929V5.79929ZM354.184 8.79721C356.302 10.6966 357.357 13.0869 357.357 16.0293H358.957C358.957 12.6463 357.719 9.81804 355.252 7.6059L354.184 8.79721ZM357.357 16.0293C357.357 18.8869 356.306 21.2853 354.173 23.2716L355.263 24.4426C357.715 22.1592 358.957 19.3391 358.957 16.0293H357.357ZM354.173 23.2709C352.13 25.1684 349.488 26.1408 346.178 26.1408V27.7408C349.826 27.7408 352.878 26.6573 355.262 24.4433L354.173 23.2709ZM355.46 33.8197V100H357.06V33.8197H355.46ZM356.26 99.2H335.978V100.8H356.26V99.2ZM336.778 100V33.8197H335.178V100H336.778ZM335.978 34.6197H356.26V33.0197H335.978V34.6197ZM406.538 50.6613V51.4613H407.338V50.6613H406.538ZM395.626 50.6613V49.8613H394.826V50.6613H395.626ZM395.626 100V100.8H396.426V100H395.626ZM375.345 100H374.545V100.8H375.345V100ZM375.345 50.6613L376.145 50.6613V49.8613L375.345 49.8613V50.6613ZM367.992 50.6613H367.192V51.4613H367.992V50.6613ZM367.992 33.8197V33.0197H367.192V33.8197H367.992ZM375.345 33.8197V34.6197L376.145 34.6197V33.8197L375.345 33.8197ZM382.343 13.4201L382.878 14.0152L382.883 14.0102L382.343 13.4201ZM406.182 7.13413H406.982V6.4181L406.27 6.33903L406.182 7.13413ZM406.182 24.3315L406.133 25.13L406.982 25.182V24.3315H406.182ZM397.998 25.992L398.517 26.6015L398.517 26.6015L397.998 25.992ZM395.626 33.8197H394.826V34.6197H395.626V33.8197ZM406.538 33.8197H407.338V33.0197H406.538V33.8197ZM406.538 49.8613H395.626V51.4613H406.538V49.8613ZM394.826 50.6613V100H396.426V50.6613H394.826ZM395.626 99.2H375.345V100.8H395.626V99.2ZM376.145 100V50.6613L374.545 50.6613V100H376.145ZM375.345 49.8613H367.992V51.4613H375.345V49.8613ZM368.792 50.6613V33.8197H367.192V50.6613H368.792ZM367.992 34.6197H375.345V33.0197H367.992V34.6197ZM376.145 33.8197V31.9221H374.545V33.8197L376.145 33.8197ZM376.145 31.9221C376.145 23.9331 378.428 18.0119 382.877 14.0152L381.808 12.8249C376.927 17.2095 374.545 23.6229 374.545 31.9221H376.145ZM382.883 14.0102C387.348 9.92343 393.963 7.81553 402.861 7.81553V6.21553C393.732 6.21553 386.668 8.37733 381.803 12.8299L382.883 14.0102ZM402.861 7.81553C404.359 7.81553 405.429 7.85534 406.094 7.92924L406.27 6.33903C405.512 6.25479 404.368 6.21553 402.861 6.21553V7.81553ZM405.382 7.13413V24.3315H406.982V7.13413L405.382 7.13413ZM406.231 23.533C402.31 23.293 399.309 23.8277 397.48 25.3824L398.517 26.6015C399.85 25.4678 402.305 24.8956 406.133 25.13L406.231 23.533ZM397.48 25.3824C395.629 26.9558 394.826 29.6666 394.826 33.2267H396.426C396.426 29.8288 397.205 27.7165 398.517 26.6015L397.48 25.3824ZM394.826 33.2267V33.8197H396.426V33.2267H394.826ZM395.626 34.6197H406.538V33.0197H395.626V34.6197ZM405.738 33.8197V50.6613H407.338V33.8197H405.738ZM486.043 33.8197L486.779 34.1328L487.253 33.0197H486.043V33.8197ZM444.532 131.43V132.23H445.061L445.268 131.743L444.532 131.43ZM422.709 131.43L421.98 131.101L421.471 132.23H422.709V131.43ZM437.891 97.7465L438.62 98.0753L438.763 97.7574L438.628 97.436L437.891 97.7465ZM410.968 33.8197V33.0197H409.763L410.23 34.1302L410.968 33.8197ZM433.621 33.8197L434.371 33.5424L434.178 33.0197H433.621V33.8197ZM448.921 75.212L448.17 75.4894L448.924 77.5274L449.672 75.4875L448.921 75.212ZM464.102 33.8197V33.0197L463.543 33.0197L463.351 33.5443L464.102 33.8197ZM485.307 33.5066L443.796 131.117L445.268 131.743L486.779 34.1328L485.307 33.5066ZM444.532 130.63L422.709 130.63V132.23L444.532 132.23V130.63ZM423.439 131.758L438.62 98.0753L437.161 97.4178L421.98 131.101L423.439 131.758ZM438.628 97.436L411.705 33.5092L410.23 34.1302L437.153 98.0571L438.628 97.436ZM410.968 34.6197L433.621 34.6197V33.0197L410.968 33.0197V34.6197ZM432.87 34.0971L448.17 75.4894L449.671 74.9347L434.371 33.5424L432.87 34.0971ZM449.672 75.4875L464.853 34.0952L463.351 33.5443L448.17 74.9366L449.672 75.4875ZM464.102 34.6197H486.043V33.0197H464.102V34.6197Z" fill="#F2B125"/>
<path d="M508.834 97.8652L508.531 98.6054L508.531 98.6054L508.834 97.8652ZM497.211 89.0886L496.566 89.5623L496.572 89.5706L497.211 89.0886ZM492.704 75.0934V74.2934H491.88L491.904 75.1166L492.704 75.0934ZM514.29 75.0934L515.085 75.0118L515.012 74.2934H514.29V75.0934ZM517.492 82.2096L516.952 82.8004L516.96 82.8069L516.967 82.8133L517.492 82.2096ZM531.724 82.5654L532.213 83.1984L532.222 83.1916L532.231 83.1846L531.724 82.5654ZM532.199 71.654L531.633 72.2197L531.641 72.2277L531.649 72.2356L532.199 71.654ZM527.099 68.3331L526.776 69.0654L526.787 69.0699L527.099 68.3331ZM518.559 65.368L518.323 66.1324L518.331 66.1347L518.559 65.368ZM496.618 53.0334L497.256 52.5509L497.256 52.5509L496.618 53.0334ZM501.362 22.1967L501.852 22.8291L501.857 22.8248L501.362 22.1967ZM545.482 22.1967L544.987 22.8248L544.992 22.8291L545.482 22.1967ZM554.496 40.4615V41.2615H555.337L555.295 40.4211L554.496 40.4615ZM532.554 40.4615L531.756 40.5085L531.8 41.2615H532.554V40.4615ZM529.589 34.1755L529.064 34.7792L529.072 34.7859L529.08 34.7923L529.589 34.1755ZM516.662 33.8197L517.177 34.4317L517.186 34.4239L517.195 34.4159L516.662 33.8197ZM518.204 45.68L518.612 44.9921L518.612 44.9921L518.204 45.68ZM530.064 50.5427L530.32 49.7848L530.31 49.7815L530.064 50.5427ZM543.11 55.7612L542.752 56.4768L542.759 56.4801L543.11 55.7612ZM551.887 62.996L551.254 63.486L551.254 63.486L551.887 62.996ZM551.887 88.1397L551.211 87.712L551.204 87.722L551.887 88.1397ZM541.45 97.3907L541.092 96.6752L541.092 96.6752L541.45 97.3907ZM525.201 100.03C519.2 100.03 513.849 99.0561 509.137 97.1249L508.531 98.6054C513.465 100.628 519.026 101.63 525.201 101.63V100.03ZM509.137 97.1249C504.437 95.1985 500.682 92.3578 497.849 88.6065L496.572 89.5706C499.591 93.568 503.585 96.5784 508.531 98.6054L509.137 97.1249ZM497.856 88.6149C495.118 84.8887 493.658 80.3863 493.504 75.0703L491.904 75.1166C492.066 80.712 493.611 85.5397 496.566 89.5622L497.856 88.6149ZM492.704 75.8934H514.29V74.2934H492.704V75.8934ZM513.494 75.1751C513.825 78.4018 514.954 80.9758 516.952 82.8004L518.031 81.6188C516.393 80.1225 515.387 77.9524 515.085 75.0118L513.494 75.1751ZM516.967 82.8133C518.961 84.5469 521.533 85.3817 524.608 85.3817V83.7817C521.832 83.7817 519.66 83.035 518.017 81.6059L516.967 82.8133ZM524.608 85.3817C527.726 85.3817 530.29 84.6844 532.213 83.1984L531.235 81.9324C529.679 83.1347 527.5 83.7817 524.608 83.7817V85.3817ZM532.231 83.1846C534.174 81.5944 535.133 79.4202 535.133 76.7539H533.533C533.533 78.9898 532.753 80.69 531.218 81.9462L532.231 83.1846ZM535.133 76.7539C535.133 74.4904 534.34 72.576 532.748 71.0724L531.649 72.2356C532.904 73.4203 533.533 74.9058 533.533 76.7539H535.133ZM532.764 71.0883C531.336 69.6597 529.545 68.4993 527.41 67.5963L526.787 69.0699C528.764 69.9064 530.373 70.9599 531.633 72.2197L532.764 71.0883ZM527.421 67.6008C525.399 66.7111 522.515 65.7116 518.788 64.6013L518.331 66.1347C522.036 67.2384 524.845 68.2156 526.777 69.0653L527.421 67.6008ZM518.795 64.6036C513.441 62.9501 509.095 61.3037 505.746 59.6679L505.043 61.1056C508.494 62.7906 512.924 64.4651 518.323 66.1324L518.795 64.6036ZM505.746 59.6679C502.467 58.0666 499.637 55.7 497.256 52.5509L495.98 53.5158C498.501 56.8503 501.522 59.386 505.043 61.1056L505.746 59.6679ZM497.256 52.5509C494.936 49.4831 493.741 45.437 493.741 40.3429H492.141C492.141 45.6857 493.397 50.1 495.98 53.5158L497.256 52.5509ZM493.741 40.3429C493.741 32.8156 496.453 27.0111 501.852 22.8291L500.872 21.5642C495.043 26.0797 492.141 32.3727 492.141 40.3429H493.741ZM501.857 22.8248C507.297 18.5346 514.422 16.3549 523.303 16.3549V14.7549C514.158 14.7549 506.655 17.003 500.867 21.5685L501.857 22.8248ZM523.303 16.3549C532.347 16.3549 539.55 18.5365 544.987 22.8248L545.978 21.5685C540.187 17.0012 532.604 14.7549 523.303 14.7549V16.3549ZM544.992 22.8291C550.401 27.0191 553.312 32.8798 553.697 40.5018L555.295 40.4211C554.889 32.3876 551.791 26.0717 545.972 21.5642L544.992 22.8291ZM554.496 39.6615L532.554 39.6615V41.2615L554.496 41.2615V39.6615ZM533.353 40.4145C533.184 37.5389 532.114 35.2232 530.099 33.5588L529.08 34.7923C530.702 36.1324 531.609 38.0074 531.756 40.5085L533.353 40.4145ZM530.114 33.5719C528.125 31.8417 525.594 31.0035 522.592 31.0035V32.6035C525.282 32.6035 527.417 33.3467 529.064 34.7792L530.114 33.5719ZM522.592 31.0035C519.988 31.0035 517.807 31.7212 516.128 33.2235L517.195 34.4159C518.521 33.2299 520.293 32.6035 522.592 32.6035V31.0035ZM516.146 33.2078C514.42 34.6616 513.608 36.7706 513.608 39.3941H515.208C515.208 37.1153 515.899 35.508 517.177 34.4317L516.146 33.2078ZM513.608 39.3941C513.608 42.3955 515.05 44.7379 517.795 46.3679L518.612 44.9921C516.297 43.6175 515.208 41.7692 515.208 39.3941H513.608ZM517.795 46.3679C520.404 47.9168 524.426 49.5595 529.818 51.3039L530.31 49.7815C524.948 48.0469 521.064 46.4478 518.612 44.9921L517.795 46.3679ZM529.807 51.3005C535.165 53.1128 539.477 54.8389 542.752 56.4768L543.468 55.0457C540.102 53.3627 535.715 51.6098 530.32 49.7849L529.807 51.3005ZM542.759 56.4801C546.043 58.0837 548.874 60.4144 551.254 63.486L552.519 62.5059C549.997 59.2521 546.977 56.7596 543.461 55.0424L542.759 56.4801ZM551.254 63.486C553.572 66.4771 554.763 70.3638 554.763 75.212H556.363C556.363 70.0977 555.103 65.8403 552.519 62.5059L551.254 63.486ZM554.763 75.212C554.763 79.8103 553.578 83.9702 551.211 87.712L552.563 88.5675C555.098 84.5605 556.363 80.102 556.363 75.212H554.763ZM551.204 87.722C548.92 91.4528 545.562 94.4403 541.092 96.6752L541.807 98.1063C546.51 95.7552 550.109 92.5754 552.569 88.5575L551.204 87.722ZM541.092 96.6752C536.639 98.9018 531.35 100.03 525.201 100.03V101.63C531.545 101.63 537.089 100.466 541.807 98.1063L541.092 96.6752ZM629.362 40.6987L628.769 41.2359L628.773 41.2405L629.362 40.6987ZM636.241 100V100.8H637.041V100H636.241ZM616.078 100H615.278V100.8H616.078V100ZM612.639 53.745L612.055 54.2915L612.055 54.2915L612.639 53.745ZM594.137 53.745L594.721 54.2915L594.721 54.2915L594.137 53.745ZM590.698 100V100.8H591.498V100H590.698ZM570.416 100H569.616V100.8H570.416V100ZM570.416 12.2341V11.4341H569.616V12.2341H570.416ZM590.698 12.2341H591.498V11.4341H590.698V12.2341ZM590.698 42.7149H589.898V45.2448L591.352 43.1749L590.698 42.7149ZM599.118 35.7174L598.767 34.9987L598.767 34.9987L599.118 35.7174ZM611.097 33.9081C618.49 33.9081 624.353 36.3626 628.769 41.2359L629.955 40.1615C625.199 34.9141 618.886 32.3081 611.097 32.3081V33.9081ZM628.773 41.2405C633.187 46.0345 635.441 52.6984 635.441 61.3355H637.041C637.041 52.4195 634.709 45.3255 629.951 40.1568L628.773 41.2405ZM635.441 61.3355V100H637.041V61.3355H635.441ZM636.241 99.2H616.078V100.8H636.241V99.2ZM616.878 100V64.0634H615.278V100H616.878ZM616.878 64.0634C616.878 59.4991 615.694 55.8401 613.223 53.1984L612.055 54.2915C614.17 56.5521 615.278 59.772 615.278 64.0634H616.878ZM613.223 53.1984C610.755 50.5602 607.446 49.2683 603.388 49.2683V50.8683C607.078 50.8683 609.937 52.0275 612.055 54.2915L613.223 53.1984ZM603.388 49.2683C599.33 49.2683 596.021 50.5602 593.553 53.1984L594.721 54.2915C596.839 52.0275 599.698 50.8683 603.388 50.8683V49.2683ZM593.553 53.1984C591.082 55.8401 589.898 59.4991 589.898 64.0634H591.498C591.498 59.772 592.606 56.5521 594.721 54.2915L593.553 53.1984ZM589.898 64.0634V100H591.498V64.0634H589.898ZM590.698 99.2H570.416V100.8H590.698V99.2ZM571.216 100V12.2341H569.616V100H571.216ZM570.416 13.0341L590.698 13.0341V11.4341L570.416 11.4341V13.0341ZM589.898 12.2341V42.7149H591.498V12.2341H589.898ZM591.352 43.1749C593.322 40.3713 596.02 38.1228 599.47 36.4361L598.767 34.9987C595.101 36.7909 592.184 39.2075 590.043 42.255L591.352 43.1749ZM599.47 36.4361C602.906 34.7561 606.777 33.9081 611.097 33.9081V32.3081C606.562 32.3081 602.447 33.1996 598.767 34.9987L599.47 36.4361ZM665.278 96.7977L664.899 97.5021L664.903 97.5045L665.278 96.7977ZM653.062 84.9375L652.367 85.3333L652.371 85.3412L653.062 84.9375ZM653.181 49.0009L653.871 49.4046L653.874 49.4L653.181 49.0009ZM665.515 37.022L665.89 37.7288L665.89 37.7288L665.515 37.022ZM700.622 37.022L700.247 37.7288L700.247 37.7288L700.622 37.022ZM712.956 49.0009L712.263 49.4L712.266 49.4046L712.956 49.0009ZM712.838 84.9375L712.149 84.5305L712.147 84.5337L712.838 84.9375ZM700.385 96.7977L700.014 96.0886L700.01 96.091L700.385 96.7977ZM692.675 79.1259L692.102 78.5682L692.094 78.5766L692.675 79.1259ZM692.794 54.6938L692.204 55.2344L692.212 55.2431L692.794 54.6938ZM673.225 54.6938L673.807 55.2427L673.814 55.2344L673.225 54.6938ZM673.106 79.1259L672.508 79.6575L672.516 79.6665L673.106 79.1259ZM682.831 100.149C676.465 100.149 670.745 98.7913 665.653 96.091L664.903 97.5045C670.248 100.339 676.23 101.749 682.831 101.749V100.149ZM665.657 96.0934C660.65 93.3971 656.685 89.5489 653.753 84.5337L652.371 85.3412C655.449 90.6049 659.627 94.6636 664.899 97.5021L665.657 96.0934ZM653.757 84.5417C650.911 79.5413 649.474 73.6729 649.474 66.9099H647.874C647.874 73.9047 649.362 80.0548 652.367 85.3332L653.757 84.5417ZM649.474 66.9099C649.474 60.2314 650.948 54.405 653.871 49.4046L652.49 48.5971C649.404 53.8756 647.874 59.9886 647.874 66.9099H649.474ZM653.874 49.4C656.805 44.3093 660.807 40.4242 665.89 37.7288L665.141 36.3152C659.786 39.1546 655.566 43.2554 652.487 48.6017L653.874 49.4ZM665.89 37.7288C670.982 35.0284 676.703 33.6709 683.069 33.6709V32.0709C676.467 32.0709 670.486 33.4808 665.141 36.3152L665.89 37.7288ZM683.069 33.6709C689.435 33.6709 695.155 35.0284 700.247 37.7288L700.997 36.3152C695.652 33.4808 689.67 32.0709 683.069 32.0709V33.6709ZM700.247 37.7288C705.33 40.4242 709.332 44.3093 712.263 49.4L713.65 48.6017C710.572 43.2554 706.351 39.1546 700.997 36.3152L700.247 37.7288ZM712.266 49.4046C715.189 54.405 716.663 60.2314 716.663 66.9099H718.263C718.263 59.9886 716.733 53.8756 713.647 48.5971L712.266 49.4046ZM716.663 66.9099C716.663 73.5844 715.151 79.4497 712.149 84.5305L713.527 85.3444C716.692 79.9882 718.263 73.8351 718.263 66.9099H716.663ZM712.147 84.5337C709.219 89.5428 705.179 93.3906 700.014 96.0886L700.755 97.5068C706.185 94.6701 710.448 90.6111 713.528 85.3412L712.147 84.5337ZM700.01 96.091C694.918 98.7913 689.197 100.149 682.831 100.149V101.749C689.433 101.749 695.414 100.339 700.759 97.5045L700.01 96.091ZM682.831 84.1956C686.928 84.1956 690.419 82.6798 693.257 79.6752L692.094 78.5766C689.555 81.265 686.483 82.5956 682.831 82.5956V84.1956ZM693.249 79.6836C696.205 76.6433 697.626 72.3441 697.626 66.9099H696.026C696.026 72.0708 694.681 75.9156 692.102 78.5683L693.249 79.6836ZM697.626 66.9099C697.626 61.4815 696.248 57.1854 693.376 54.1445L692.212 55.2431C694.717 57.8951 696.026 61.7431 696.026 66.9099H697.626ZM693.384 54.1532C690.622 51.1408 687.166 49.6241 683.069 49.6241V51.2241C686.72 51.2241 689.747 52.5538 692.204 55.2344L693.384 54.1532ZM683.069 49.6241C678.897 49.6241 675.4 51.137 672.635 54.1532L673.814 55.2344C676.268 52.5576 679.333 51.2241 683.069 51.2241V49.6241ZM672.642 54.145C669.844 57.1127 668.511 61.4138 668.511 66.9099H670.111C670.111 61.6527 671.386 57.8097 673.807 55.2426L672.642 54.145ZM668.511 66.9099C668.511 72.3268 669.804 76.6159 672.508 79.6574L673.704 78.5944C671.347 75.943 670.111 72.0881 670.111 66.9099H668.511ZM672.516 79.6665C675.278 82.6789 678.734 84.1956 682.831 84.1956V82.5956C679.18 82.5956 676.153 81.2659 673.696 78.5854L672.516 79.6665ZM750.876 43.1893H750.076V45.9197L751.549 43.6211L750.876 43.1893ZM759.06 35.7174L758.676 35.0151L758.676 35.0151L759.06 35.7174ZM786.101 37.022L785.677 37.7004L785.677 37.7004L786.101 37.022ZM796.538 48.8823L795.82 49.2356L795.825 49.2444L796.538 48.8823ZM796.538 84.8189L795.822 84.4611L795.82 84.4655L796.538 84.8189ZM786.101 96.7977L786.525 97.4762L786.534 97.4707L786.101 96.7977ZM759.06 98.1024L758.676 98.8047L758.683 98.8082L759.06 98.1024ZM750.876 90.749L751.544 90.3093L750.076 88.0774V90.749H750.876ZM750.876 131.548V132.348H751.676V131.548H750.876ZM730.595 131.548H729.795V132.348H730.595V131.548ZM730.595 33.8197V33.0197H729.795V33.8197H730.595ZM750.876 33.8197H751.676V33.0197H750.876V33.8197ZM775.545 54.931L774.964 55.4808L774.972 55.4888L774.98 55.4967L775.545 54.931ZM754.908 54.931L754.335 54.3731L754.327 54.3812L754.908 54.931ZM754.908 78.8887L754.327 79.4385L754.335 79.4466L754.908 78.8887ZM775.545 78.8887L776.119 79.4467L776.126 79.4389L775.545 78.8887ZM751.549 43.6211C753.448 40.6597 756.072 38.2584 759.443 36.4197L758.676 35.0151C755.089 36.9716 752.258 39.5516 750.202 42.7576L751.549 43.6211ZM759.443 36.4197C762.785 34.5966 766.721 33.6709 771.276 33.6709V32.0709C766.5 32.0709 762.292 33.0428 758.676 35.0151L759.443 36.4197ZM771.276 33.6709C776.588 33.6709 781.382 35.0161 785.677 37.7004L786.525 36.3436C781.964 33.4931 776.874 32.0709 771.276 32.0709V33.6709ZM785.677 37.7004C789.966 40.3813 793.349 44.2163 795.82 49.2356L797.256 48.5289C794.666 43.2693 791.091 39.1975 786.525 36.3436L785.677 37.7004ZM795.825 49.2444C798.368 54.2531 799.652 60.0947 799.652 66.7913H801.252C801.252 59.8881 799.927 53.7903 797.251 48.5201L795.825 49.2444ZM799.652 66.7913C799.652 73.4875 798.368 79.3707 795.822 84.4611L797.253 85.1766C799.927 79.83 801.252 73.6948 801.252 66.7913H799.652ZM795.82 84.4655C793.348 89.4864 789.963 93.3638 785.668 96.1248L786.534 97.4707C791.094 94.5387 794.667 90.4302 797.256 85.1722L795.82 84.4655ZM785.677 96.1193C781.382 98.8036 776.588 100.149 771.276 100.149V101.749C776.874 101.749 781.964 100.327 786.525 97.4761L785.677 96.1193ZM771.276 100.149C766.803 100.149 762.863 99.2243 759.436 97.3965L758.683 98.8082C762.372 100.776 766.577 101.749 771.276 101.749V100.149ZM759.443 97.4C756.067 95.5587 753.442 93.1934 751.544 90.3093L750.208 91.1887C752.264 94.3137 755.094 96.8507 758.676 98.8047L759.443 97.4ZM750.076 90.749V131.548H751.676V90.749H750.076ZM750.876 130.748L730.595 130.748V132.348L750.876 132.348V130.748ZM731.395 131.548V33.8197H729.795V131.548H731.395ZM730.595 34.6197H750.876V33.0197H730.595V34.6197ZM750.076 33.8197V43.1893H751.676V33.8197H750.076ZM780.615 66.7913C780.615 61.5762 779.144 57.3981 776.111 54.3653L774.98 55.4967C777.64 58.1568 779.015 61.8856 779.015 66.7913H780.615ZM776.126 54.3812C773.204 51.2922 769.553 49.7427 765.227 49.7427V51.3427C769.124 51.3427 772.351 52.7187 774.964 55.4808L776.126 54.3812ZM765.227 49.7427C760.975 49.7427 757.33 51.2949 754.335 54.3731L755.482 55.4889C758.18 52.716 761.413 51.3427 765.227 51.3427V49.7427ZM754.327 54.3812C751.386 57.4909 749.957 61.6999 749.957 66.9099H751.557C751.557 61.9991 752.896 58.2222 755.49 55.4808L754.327 54.3812ZM749.957 66.9099C749.957 72.1199 751.386 76.3288 754.327 79.4385L755.49 78.339C752.896 75.5976 751.557 71.8206 751.557 66.9099H749.957ZM754.335 79.4466C757.33 82.5248 760.975 84.077 765.227 84.077V82.477C761.413 82.477 758.18 81.1037 755.482 78.3308L754.335 79.4466ZM765.227 84.077C769.478 84.077 773.124 82.5248 776.119 79.4466L774.972 78.3308C772.274 81.1037 769.04 82.477 765.227 82.477V84.077ZM776.126 79.4389C779.143 76.2541 780.615 72.0082 780.615 66.7913H779.015C779.015 71.695 777.64 75.5141 774.965 78.3385L776.126 79.4389ZM814.887 23.8571L814.332 24.433L814.342 24.4431L814.353 24.4528L814.887 23.8571ZM814.887 8.20156L815.431 8.78779L815.432 8.78707L814.887 8.20156ZM832.203 8.20156L831.648 8.77743L831.658 8.78752L831.669 8.79721L832.203 8.20156ZM832.203 23.8571L832.747 24.4433L832.748 24.4426L832.203 23.8571ZM833.745 33.8197H834.545V33.0197H833.745V33.8197ZM833.745 100V100.8H834.545V100H833.745ZM813.464 100H812.664V100.8H813.464V100ZM813.464 33.8197V33.0197H812.664V33.8197H813.464ZM823.664 26.1408C820.27 26.1408 817.545 25.1654 815.421 23.2615L814.353 24.4528C816.815 26.6604 819.941 27.7408 823.664 27.7408V26.1408ZM815.442 23.2812C813.385 21.2976 812.366 18.8964 812.366 16.0293H810.766C810.766 19.3296 811.961 22.1469 814.332 24.433L815.442 23.2812ZM812.366 16.0293C812.366 13.0773 813.389 10.6844 815.431 8.78779L814.343 7.61532C811.957 9.83029 810.766 12.6559 810.766 16.0293H812.366ZM815.432 8.78707C817.557 6.80897 820.278 5.79929 823.664 5.79929V4.19929C819.933 4.19929 816.803 5.32445 814.342 7.61604L815.432 8.78707ZM823.664 5.79929C826.965 5.79929 829.603 6.80559 831.648 8.77743L832.758 7.62568C830.375 5.32783 827.32 4.19929 823.664 4.19929V5.79929ZM831.669 8.79721C833.788 10.6966 834.843 13.0869 834.843 16.0293H836.443C836.443 12.6463 835.204 9.81804 832.737 7.6059L831.669 8.79721ZM834.843 16.0293C834.843 18.8869 833.791 21.2853 831.658 23.2716L832.748 24.4426C835.201 22.1592 836.443 19.3391 836.443 16.0293H834.843ZM831.659 23.2709C829.615 25.1684 826.974 26.1408 823.664 26.1408V27.7408C827.312 27.7408 830.363 26.6573 832.747 24.4433L831.659 23.2709ZM832.945 33.8197V100H834.545V33.8197H832.945ZM833.745 99.2H813.464V100.8H833.745V99.2ZM814.264 100V33.8197H812.664V100H814.264ZM813.464 34.6197H833.745V33.0197H813.464V34.6197ZM884.023 50.6613V51.4613H884.823V50.6613H884.023ZM873.112 50.6613V49.8613H872.312V50.6613H873.112ZM873.112 100V100.8H873.912V100H873.112ZM852.831 100H852.031V100.8H852.831V100ZM852.831 50.6613L853.631 50.6613V49.8613L852.831 49.8613V50.6613ZM845.477 50.6613H844.677V51.4613H845.477V50.6613ZM845.477 33.8197V33.0197H844.677V33.8197H845.477ZM852.831 33.8197V34.6197L853.631 34.6197V33.8197L852.831 33.8197ZM859.828 13.4201L860.363 14.0152L860.368 14.0102L859.828 13.4201ZM883.667 7.13413H884.467V6.4181L883.756 6.33903L883.667 7.13413ZM883.667 24.3315L883.618 25.13L884.467 25.182V24.3315H883.667ZM875.484 25.992L876.002 26.6015L876.002 26.6015L875.484 25.992ZM873.112 33.8197H872.312V34.6197H873.112V33.8197ZM884.023 33.8197H884.823V33.0197H884.023V33.8197ZM884.023 49.8613H873.112V51.4613H884.023V49.8613ZM872.312 50.6613V100H873.912V50.6613H872.312ZM873.112 99.2H852.831V100.8H873.112V99.2ZM853.631 100V50.6613L852.031 50.6613V100H853.631ZM852.831 49.8613H845.477V51.4613H852.831V49.8613ZM846.277 50.6613V33.8197H844.677V50.6613H846.277ZM845.477 34.6197H852.831V33.0197H845.477V34.6197ZM853.631 33.8197V31.9221H852.031V33.8197L853.631 33.8197ZM853.631 31.9221C853.631 23.9331 855.914 18.0119 860.363 14.0152L859.294 12.8249C854.413 17.2095 852.031 23.6229 852.031 31.9221H853.631ZM860.368 14.0102C864.834 9.92343 871.448 7.81553 880.346 7.81553V6.21553C871.217 6.21553 864.153 8.37733 859.288 12.8299L860.368 14.0102ZM880.346 7.81553C881.844 7.81553 882.914 7.85534 883.579 7.92924L883.756 6.33903C882.998 6.25479 881.854 6.21553 880.346 6.21553V7.81553ZM882.867 7.13413V24.3315H884.467V7.13413L882.867 7.13413ZM883.716 23.533C879.796 23.293 876.795 23.8277 874.966 25.3824L876.002 26.6015C877.336 25.4678 879.79 24.8956 883.618 25.13L883.716 23.533ZM874.966 25.3824C873.115 26.9558 872.312 29.6666 872.312 33.2267H873.912C873.912 29.8288 874.69 27.7165 876.002 26.6015L874.966 25.3824ZM872.312 33.2267V33.8197H873.912V33.2267H872.312ZM873.112 34.6197H884.023V33.0197H873.112V34.6197ZM883.223 33.8197V50.6613H884.823V33.8197H883.223ZM963.529 33.8197L964.265 34.1328L964.738 33.0197H963.529V33.8197ZM922.018 131.43V132.23H922.547L922.754 131.743L922.018 131.43ZM900.195 131.43L899.465 131.101L898.957 132.23H900.195V131.43ZM915.376 97.7465L916.105 98.0753L916.249 97.7574L916.113 97.436L915.376 97.7465ZM888.453 33.8197V33.0197H887.248L887.716 34.1302L888.453 33.8197ZM911.106 33.8197L911.857 33.5424L911.663 33.0197H911.106V33.8197ZM926.406 75.212L925.656 75.4894L926.409 77.5274L927.157 75.4875L926.406 75.212ZM941.587 33.8197V33.0197L941.028 33.0197L940.836 33.5443L941.587 33.8197ZM962.792 33.5066L921.281 131.117L922.754 131.743L964.265 34.1328L962.792 33.5066ZM922.018 130.63L900.195 130.63V132.23L922.018 132.23V130.63ZM900.924 131.758L916.105 98.0753L914.647 97.4178L899.465 131.101L900.924 131.758ZM916.113 97.436L889.19 33.5092L887.716 34.1302L914.639 98.0571L916.113 97.436ZM888.453 34.6197L911.106 34.6197V33.0197L888.453 33.0197V34.6197ZM910.356 34.0971L925.656 75.4894L927.156 74.9347L911.857 33.5424L910.356 34.0971ZM927.157 75.4875L942.338 34.0952L940.836 33.5443L925.655 74.9366L927.157 75.4875ZM941.587 34.6197H963.529V33.0197H941.587V34.6197Z" fill="#F2B125"/>
<path d="M989.088 97.8652L988.784 98.6054L988.784 98.6054L989.088 97.8652ZM977.465 89.0886L976.82 89.5623L976.826 89.5706L977.465 89.0886ZM972.958 75.0934V74.2934H972.134L972.158 75.1166L972.958 75.0934ZM994.544 75.0934L995.339 75.0118L995.266 74.2934H994.544V75.0934ZM997.746 82.2096L997.206 82.8004L997.214 82.8069L997.221 82.8133L997.746 82.2096ZM1011.98 82.5654L1012.47 83.1984L1012.48 83.1916L1012.48 83.1846L1011.98 82.5654ZM1012.45 71.654L1011.89 72.2197L1011.89 72.2277L1011.9 72.2356L1012.45 71.654ZM1007.35 68.3331L1007.03 69.0654L1007.04 69.0699L1007.35 68.3331ZM998.813 65.368L998.577 66.1324L998.585 66.1347L998.813 65.368ZM976.872 53.0334L977.51 52.5509L977.51 52.5509L976.872 53.0334ZM981.616 22.1967L982.106 22.8291L982.111 22.8248L981.616 22.1967ZM1025.74 22.1967L1025.24 22.8248L1025.25 22.8291L1025.74 22.1967ZM1034.75 40.4615V41.2615H1035.59L1035.55 40.4211L1034.75 40.4615ZM1012.81 40.4615L1012.01 40.5085L1012.05 41.2615H1012.81V40.4615ZM1009.84 34.1755L1009.32 34.7792L1009.33 34.7859L1009.33 34.7923L1009.84 34.1755ZM996.916 33.8197L997.431 34.4317L997.44 34.4239L997.449 34.4159L996.916 33.8197ZM998.457 45.68L998.866 44.9921L998.866 44.9921L998.457 45.68ZM1010.32 50.5427L1010.57 49.7848L1010.56 49.7815L1010.32 50.5427ZM1023.36 55.7612L1023.01 56.4768L1023.01 56.4801L1023.36 55.7612ZM1032.14 62.996L1031.51 63.486L1031.51 63.486L1032.14 62.996ZM1032.14 88.1397L1031.46 87.712L1031.46 87.722L1032.14 88.1397ZM1021.7 97.3907L1021.35 96.6752L1021.35 96.6752L1021.7 97.3907ZM1005.45 100.03C999.454 100.03 994.103 99.0561 989.391 97.1249L988.784 98.6054C993.719 100.628 999.28 101.63 1005.45 101.63V100.03ZM989.391 97.1249C984.691 95.1985 980.936 92.3578 978.103 88.6065L976.826 89.5706C979.845 93.568 983.839 96.5784 988.784 98.6054L989.391 97.1249ZM978.109 88.6149C975.372 84.8887 973.912 80.3863 973.758 75.0703L972.158 75.1166C972.32 80.712 973.865 85.5397 976.82 89.5622L978.109 88.6149ZM972.958 75.8934H994.544V74.2934H972.958V75.8934ZM993.748 75.1751C994.079 78.4018 995.208 80.9758 997.206 82.8004L998.285 81.6188C996.646 80.1225 995.641 77.9524 995.339 75.0118L993.748 75.1751ZM997.221 82.8133C999.215 84.5469 1001.79 85.3817 1004.86 85.3817V83.7817C1002.09 83.7817 999.914 83.035 998.271 81.6059L997.221 82.8133ZM1004.86 85.3817C1007.98 85.3817 1010.54 84.6844 1012.47 83.1984L1011.49 81.9324C1009.93 83.1347 1007.75 83.7817 1004.86 83.7817V85.3817ZM1012.48 83.1846C1014.43 81.5944 1015.39 79.4202 1015.39 76.7539H1013.79C1013.79 78.9898 1013.01 80.69 1011.47 81.9462L1012.48 83.1846ZM1015.39 76.7539C1015.39 74.4904 1014.59 72.576 1013 71.0724L1011.9 72.2356C1013.16 73.4203 1013.79 74.9058 1013.79 76.7539H1015.39ZM1013.02 71.0883C1011.59 69.6597 1009.8 68.4993 1007.66 67.5963L1007.04 69.0699C1009.02 69.9064 1010.63 70.9599 1011.89 72.2197L1013.02 71.0883ZM1007.67 67.6008C1005.65 66.7111 1002.77 65.7116 999.042 64.6013L998.585 66.1347C1002.29 67.2384 1005.1 68.2156 1007.03 69.0653L1007.67 67.6008ZM999.049 64.6036C993.695 62.9501 989.349 61.3037 985.999 59.6679L985.297 61.1056C988.747 62.7906 993.178 64.4651 998.577 66.1324L999.049 64.6036ZM985.999 59.6679C982.721 58.0666 979.891 55.7 977.51 52.5509L976.234 53.5158C978.755 56.8503 981.776 59.386 985.297 61.1056L985.999 59.6679ZM977.51 52.5509C975.19 49.4831 973.995 45.437 973.995 40.3429H972.395C972.395 45.6857 973.651 50.1 976.234 53.5158L977.51 52.5509ZM973.995 40.3429C973.995 32.8156 976.707 27.0111 982.106 22.8291L981.126 21.5642C975.297 26.0797 972.395 32.3727 972.395 40.3429H973.995ZM982.111 22.8248C987.551 18.5346 994.676 16.3549 1003.56 16.3549V14.7549C994.412 14.7549 986.909 17.003 981.12 21.5685L982.111 22.8248ZM1003.56 16.3549C1012.6 16.3549 1019.8 18.5365 1025.24 22.8248L1026.23 21.5685C1020.44 17.0012 1012.86 14.7549 1003.56 14.7549V16.3549ZM1025.25 22.8291C1030.66 27.0191 1033.57 32.8798 1033.95 40.5018L1035.55 40.4211C1035.14 32.3876 1032.04 26.0717 1026.23 21.5642L1025.25 22.8291ZM1034.75 39.6615L1012.81 39.6615V41.2615L1034.75 41.2615V39.6615ZM1013.61 40.4145C1013.44 37.5389 1012.37 35.2232 1010.35 33.5588L1009.33 34.7923C1010.96 36.1324 1011.86 38.0074 1012.01 40.5085L1013.61 40.4145ZM1010.37 33.5719C1008.38 31.8417 1005.85 31.0035 1002.85 31.0035V32.6035C1005.54 32.6035 1007.67 33.3467 1009.32 34.7792L1010.37 33.5719ZM1002.85 31.0035C1000.24 31.0035 998.061 31.7212 996.382 33.2235L997.449 34.4159C998.775 33.2299 1000.55 32.6035 1002.85 32.6035V31.0035ZM996.4 33.2078C994.674 34.6616 993.862 36.7706 993.862 39.3941H995.462C995.462 37.1153 996.153 35.508 997.431 34.4317L996.4 33.2078ZM993.862 39.3941C993.862 42.3955 995.304 44.7379 998.049 46.3679L998.866 44.9921C996.551 43.6175 995.462 41.7692 995.462 39.3941H993.862ZM998.049 46.3679C1000.66 47.9168 1004.68 49.5595 1010.07 51.3039L1010.56 49.7815C1005.2 48.0469 1001.32 46.4478 998.866 44.9921L998.049 46.3679ZM1010.06 51.3005C1015.42 53.1128 1019.73 54.8389 1023.01 56.4768L1023.72 55.0457C1020.36 53.3627 1015.97 51.6098 1010.57 49.7849L1010.06 51.3005ZM1023.01 56.4801C1026.3 58.0837 1029.13 60.4144 1031.51 63.486L1032.77 62.5059C1030.25 59.2521 1027.23 56.7596 1023.72 55.0424L1023.01 56.4801ZM1031.51 63.486C1033.83 66.4771 1035.02 70.3638 1035.02 75.212H1036.62C1036.62 70.0977 1035.36 65.8403 1032.77 62.5059L1031.51 63.486ZM1035.02 75.212C1035.02 79.8103 1033.83 83.9702 1031.46 87.712L1032.82 88.5675C1035.35 84.5605 1036.62 80.102 1036.62 75.212H1035.02ZM1031.46 87.722C1029.17 91.4528 1025.82 94.4403 1021.35 96.6752L1022.06 98.1063C1026.76 95.7552 1030.36 92.5754 1032.82 88.5575L1031.46 87.722ZM1021.35 96.6752C1016.89 98.9018 1011.6 100.03 1005.45 100.03V101.63C1011.8 101.63 1017.34 100.466 1022.06 98.1063L1021.35 96.6752ZM1109.62 40.6987L1109.02 41.2359L1109.03 41.2405L1109.62 40.6987ZM1116.49 100V100.8H1117.29V100H1116.49ZM1096.33 100H1095.53V100.8H1096.33V100ZM1092.89 53.745L1092.31 54.2915L1092.31 54.2915L1092.89 53.745ZM1074.39 53.745L1074.98 54.2915L1074.98 54.2915L1074.39 53.745ZM1070.95 100V100.8H1071.75V100H1070.95ZM1050.67 100H1049.87V100.8H1050.67V100ZM1050.67 12.2341V11.4341H1049.87V12.2341H1050.67ZM1070.95 12.2341H1071.75V11.4341H1070.95V12.2341ZM1070.95 42.7149H1070.15V45.2448L1071.61 43.1749L1070.95 42.7149ZM1079.37 35.7174L1079.02 34.9987L1079.02 34.9987L1079.37 35.7174ZM1091.35 33.9081C1098.74 33.9081 1104.61 36.3626 1109.02 41.2359L1110.21 40.1615C1105.45 34.9141 1099.14 32.3081 1091.35 32.3081V33.9081ZM1109.03 41.2405C1113.44 46.0345 1115.69 52.6984 1115.69 61.3355H1117.29C1117.29 52.4195 1114.96 45.3255 1110.2 40.1568L1109.03 41.2405ZM1115.69 61.3355V100H1117.29V61.3355H1115.69ZM1116.49 99.2H1096.33V100.8H1116.49V99.2ZM1097.13 100V64.0634H1095.53V100H1097.13ZM1097.13 64.0634C1097.13 59.4991 1095.95 55.8401 1093.48 53.1984L1092.31 54.2915C1094.42 56.5521 1095.53 59.772 1095.53 64.0634H1097.13ZM1093.48 53.1984C1091.01 50.5602 1087.7 49.2683 1083.64 49.2683V50.8683C1087.33 50.8683 1090.19 52.0275 1092.31 54.2915L1093.48 53.1984ZM1083.64 49.2683C1079.58 49.2683 1076.27 50.5602 1073.81 53.1984L1074.98 54.2915C1077.09 52.0275 1079.95 50.8683 1083.64 50.8683V49.2683ZM1073.81 53.1984C1071.34 55.8401 1070.15 59.4991 1070.15 64.0634H1071.75C1071.75 59.772 1072.86 56.5521 1074.98 54.2915L1073.81 53.1984ZM1070.15 64.0634V100H1071.75V64.0634H1070.15ZM1070.95 99.2H1050.67V100.8H1070.95V99.2ZM1051.47 100V12.2341H1049.87V100H1051.47ZM1050.67 13.0341L1070.95 13.0341V11.4341L1050.67 11.4341V13.0341ZM1070.15 12.2341V42.7149H1071.75V12.2341H1070.15ZM1071.61 43.1749C1073.58 40.3713 1076.27 38.1228 1079.72 36.4361L1079.02 34.9987C1075.35 36.7909 1072.44 39.2075 1070.3 42.255L1071.61 43.1749ZM1079.72 36.4361C1083.16 34.7561 1087.03 33.9081 1091.35 33.9081V32.3081C1086.82 32.3081 1082.7 33.1996 1079.02 34.9987L1079.72 36.4361ZM1145.53 96.7977L1145.15 97.5021L1145.16 97.5045L1145.53 96.7977ZM1133.32 84.9375L1132.62 85.3333L1132.63 85.3412L1133.32 84.9375ZM1133.43 49.0009L1134.13 49.4046L1134.13 49.4L1133.43 49.0009ZM1145.77 37.022L1146.14 37.7288L1146.14 37.7288L1145.77 37.022ZM1180.88 37.022L1180.5 37.7288L1180.5 37.7288L1180.88 37.022ZM1193.21 49.0009L1192.52 49.4L1192.52 49.4046L1193.21 49.0009ZM1193.09 84.9375L1192.4 84.5305L1192.4 84.5337L1193.09 84.9375ZM1180.64 96.7977L1180.27 96.0886L1180.26 96.091L1180.64 96.7977ZM1172.93 79.1259L1172.36 78.5682L1172.35 78.5766L1172.93 79.1259ZM1173.05 54.6938L1172.46 55.2344L1172.47 55.2431L1173.05 54.6938ZM1153.48 54.6938L1154.06 55.2427L1154.07 55.2344L1153.48 54.6938ZM1153.36 79.1259L1152.76 79.6575L1152.77 79.6665L1153.36 79.1259ZM1163.09 100.149C1156.72 100.149 1151 98.7913 1145.91 96.091L1145.16 97.5045C1150.5 100.339 1156.48 101.749 1163.09 101.749V100.149ZM1145.91 96.0934C1140.9 93.3971 1136.94 89.5489 1134.01 84.5337L1132.63 85.3412C1135.7 90.6049 1139.88 94.6636 1145.15 97.5021L1145.91 96.0934ZM1134.01 84.5417C1131.16 79.5413 1129.73 73.6729 1129.73 66.9099H1128.13C1128.13 73.9047 1129.62 80.0548 1132.62 85.3332L1134.01 84.5417ZM1129.73 66.9099C1129.73 60.2314 1131.2 54.405 1134.13 49.4046L1132.74 48.5971C1129.66 53.8756 1128.13 59.9886 1128.13 66.9099H1129.73ZM1134.13 49.4C1137.06 44.3093 1141.06 40.4242 1146.14 37.7288L1145.39 36.3152C1140.04 39.1546 1135.82 43.2554 1132.74 48.6017L1134.13 49.4ZM1146.14 37.7288C1151.24 35.0284 1156.96 33.6709 1163.32 33.6709V32.0709C1156.72 32.0709 1150.74 33.4808 1145.39 36.3152L1146.14 37.7288ZM1163.32 33.6709C1169.69 33.6709 1175.41 35.0284 1180.5 37.7288L1181.25 36.3152C1175.91 33.4808 1169.92 32.0709 1163.32 32.0709V33.6709ZM1180.5 37.7288C1185.58 40.4242 1189.59 44.3093 1192.52 49.4L1193.9 48.6017C1190.83 43.2554 1186.6 39.1546 1181.25 36.3152L1180.5 37.7288ZM1192.52 49.4046C1195.44 54.405 1196.92 60.2314 1196.92 66.9099H1198.52C1198.52 59.9886 1196.99 53.8756 1193.9 48.5971L1192.52 49.4046ZM1196.92 66.9099C1196.92 73.5844 1195.41 79.4497 1192.4 84.5305L1193.78 85.3444C1196.95 79.9882 1198.52 73.8351 1198.52 66.9099H1196.92ZM1192.4 84.5337C1189.47 89.5428 1185.43 93.3906 1180.27 96.0886L1181.01 97.5068C1186.44 94.6701 1190.7 90.6111 1193.78 85.3412L1192.4 84.5337ZM1180.26 96.091C1175.17 98.7913 1169.45 100.149 1163.09 100.149V101.749C1169.69 101.749 1175.67 100.339 1181.01 97.5045L1180.26 96.091ZM1163.09 84.1956C1167.18 84.1956 1170.67 82.6798 1173.51 79.6752L1172.35 78.5766C1169.81 81.265 1166.74 82.5956 1163.09 82.5956V84.1956ZM1173.5 79.6836C1176.46 76.6433 1177.88 72.3441 1177.88 66.9099H1176.28C1176.28 72.0708 1174.93 75.9156 1172.36 78.5683L1173.5 79.6836ZM1177.88 66.9099C1177.88 61.4815 1176.5 57.1854 1173.63 54.1445L1172.47 55.2431C1174.97 57.8951 1176.28 61.7431 1176.28 66.9099H1177.88ZM1173.64 54.1532C1170.88 51.1408 1167.42 49.6241 1163.32 49.6241V51.2241C1166.97 51.2241 1170 52.5538 1172.46 55.2344L1173.64 54.1532ZM1163.32 49.6241C1159.15 49.6241 1155.65 51.137 1152.89 54.1532L1154.07 55.2344C1156.52 52.5576 1159.59 51.2241 1163.32 51.2241V49.6241ZM1152.9 54.145C1150.1 57.1127 1148.76 61.4138 1148.76 66.9099H1150.36C1150.36 61.6527 1151.64 57.8097 1154.06 55.2426L1152.9 54.145ZM1148.76 66.9099C1148.76 72.3268 1150.06 76.6159 1152.76 79.6574L1153.96 78.5944C1151.6 75.943 1150.36 72.0881 1150.36 66.9099H1148.76ZM1152.77 79.6665C1155.53 82.6789 1158.99 84.1956 1163.09 84.1956V82.5956C1159.43 82.5956 1156.41 81.2659 1153.95 78.5854L1152.77 79.6665ZM1231.13 43.1893H1230.33V45.9197L1231.8 43.6211L1231.13 43.1893ZM1239.31 35.7174L1238.93 35.0151L1238.93 35.0151L1239.31 35.7174ZM1266.35 37.022L1265.93 37.7004L1265.93 37.7004L1266.35 37.022ZM1276.79 48.8823L1276.07 49.2356L1276.08 49.2444L1276.79 48.8823ZM1276.79 84.8189L1276.08 84.4611L1276.07 84.4655L1276.79 84.8189ZM1266.35 96.7977L1266.78 97.4762L1266.79 97.4707L1266.35 96.7977ZM1239.31 98.1024L1238.93 98.8047L1238.94 98.8082L1239.31 98.1024ZM1231.13 90.749L1231.8 90.3093L1230.33 88.0774V90.749H1231.13ZM1231.13 131.548V132.348H1231.93V131.548H1231.13ZM1210.85 131.548H1210.05V132.348H1210.85V131.548ZM1210.85 33.8197V33.0197H1210.05V33.8197H1210.85ZM1231.13 33.8197H1231.93V33.0197H1231.13V33.8197ZM1255.8 54.931L1255.22 55.4808L1255.23 55.4888L1255.23 55.4967L1255.8 54.931ZM1235.16 54.931L1234.59 54.3731L1234.58 54.3812L1235.16 54.931ZM1235.16 78.8887L1234.58 79.4385L1234.59 79.4466L1235.16 78.8887ZM1255.8 78.8887L1256.37 79.4467L1256.38 79.4389L1255.8 78.8887ZM1231.8 43.6211C1233.7 40.6597 1236.33 38.2584 1239.7 36.4197L1238.93 35.0151C1235.34 36.9716 1232.51 39.5516 1230.46 42.7576L1231.8 43.6211ZM1239.7 36.4197C1243.04 34.5966 1246.97 33.6709 1251.53 33.6709V32.0709C1246.75 32.0709 1242.55 33.0428 1238.93 35.0151L1239.7 36.4197ZM1251.53 33.6709C1256.84 33.6709 1261.64 35.0161 1265.93 37.7004L1266.78 36.3436C1262.22 33.4931 1257.13 32.0709 1251.53 32.0709V33.6709ZM1265.93 37.7004C1270.22 40.3813 1273.6 44.2163 1276.07 49.2356L1277.51 48.5289C1274.92 43.2693 1271.35 39.1975 1266.78 36.3436L1265.93 37.7004ZM1276.08 49.2444C1278.62 54.2531 1279.91 60.0947 1279.91 66.7913H1281.51C1281.51 59.8881 1280.18 53.7903 1277.51 48.5201L1276.08 49.2444ZM1279.91 66.7913C1279.91 73.4875 1278.62 79.3707 1276.08 84.4611L1277.51 85.1766C1280.18 79.83 1281.51 73.6948 1281.51 66.7913H1279.91ZM1276.07 84.4655C1273.6 89.4864 1270.22 93.3638 1265.92 96.1248L1266.79 97.4707C1271.35 94.5387 1274.92 90.4302 1277.51 85.1722L1276.07 84.4655ZM1265.93 96.1193C1261.64 98.8036 1256.84 100.149 1251.53 100.149V101.749C1257.13 101.749 1262.22 100.327 1266.78 97.4761L1265.93 96.1193ZM1251.53 100.149C1247.06 100.149 1243.12 99.2243 1239.69 97.3965L1238.94 98.8082C1242.63 100.776 1246.83 101.749 1251.53 101.749V100.149ZM1239.7 97.4C1236.32 95.5587 1233.7 93.1934 1231.8 90.3093L1230.46 91.1887C1232.52 94.3137 1235.35 96.8507 1238.93 98.8047L1239.7 97.4ZM1230.33 90.749V131.548H1231.93V90.749H1230.33ZM1231.13 130.748L1210.85 130.748V132.348L1231.13 132.348V130.748ZM1211.65 131.548V33.8197H1210.05V131.548H1211.65ZM1210.85 34.6197H1231.13V33.0197H1210.85V34.6197ZM1230.33 33.8197V43.1893H1231.93V33.8197H1230.33ZM1260.87 66.7913C1260.87 61.5762 1259.4 57.3981 1256.36 54.3653L1255.23 55.4967C1257.89 58.1568 1259.27 61.8856 1259.27 66.7913H1260.87ZM1256.38 54.3812C1253.46 51.2922 1249.81 49.7427 1245.48 49.7427V51.3427C1249.38 51.3427 1252.61 52.7187 1255.22 55.4808L1256.38 54.3812ZM1245.48 49.7427C1241.23 49.7427 1237.58 51.2949 1234.59 54.3731L1235.74 55.4889C1238.43 52.716 1241.67 51.3427 1245.48 51.3427V49.7427ZM1234.58 54.3812C1231.64 57.4909 1230.21 61.6999 1230.21 66.9099H1231.81C1231.81 61.9991 1233.15 58.2222 1235.74 55.4808L1234.58 54.3812ZM1230.21 66.9099C1230.21 72.1199 1231.64 76.3288 1234.58 79.4385L1235.74 78.339C1233.15 75.5976 1231.81 71.8206 1231.81 66.9099H1230.21ZM1234.59 79.4466C1237.58 82.5248 1241.23 84.077 1245.48 84.077V82.477C1241.67 82.477 1238.43 81.1037 1235.74 78.3308L1234.59 79.4466ZM1245.48 84.077C1249.73 84.077 1253.38 82.5248 1256.37 79.4466L1255.23 78.3308C1252.53 81.1037 1249.29 82.477 1245.48 82.477V84.077ZM1256.38 79.4389C1259.4 76.2541 1260.87 72.0082 1260.87 66.7913H1259.27C1259.27 71.695 1257.89 75.5141 1255.22 78.3385L1256.38 79.4389ZM1295.14 23.8571L1294.59 24.433L1294.6 24.4431L1294.61 24.4528L1295.14 23.8571ZM1295.14 8.20156L1295.69 8.78779L1295.69 8.78707L1295.14 8.20156ZM1312.46 8.20156L1311.9 8.77743L1311.91 8.78752L1311.92 8.79721L1312.46 8.20156ZM1312.46 23.8571L1313 24.4433L1313 24.4426L1312.46 23.8571ZM1314 33.8197H1314.8V33.0197H1314V33.8197ZM1314 100V100.8H1314.8V100H1314ZM1293.72 100H1292.92V100.8H1293.72V100ZM1293.72 33.8197V33.0197H1292.92V33.8197H1293.72ZM1303.92 26.1408C1300.52 26.1408 1297.8 25.1654 1295.68 23.2615L1294.61 24.4528C1297.07 26.6604 1300.2 27.7408 1303.92 27.7408V26.1408ZM1295.7 23.2812C1293.64 21.2976 1292.62 18.8964 1292.62 16.0293H1291.02C1291.02 19.3296 1292.21 22.1469 1294.59 24.433L1295.7 23.2812ZM1292.62 16.0293C1292.62 13.0773 1293.64 10.6844 1295.69 8.78779L1294.6 7.61532C1292.21 9.83029 1291.02 12.6559 1291.02 16.0293H1292.62ZM1295.69 8.78707C1297.81 6.80897 1300.53 5.79929 1303.92 5.79929V4.19929C1300.19 4.19929 1297.06 5.32445 1294.6 7.61604L1295.69 8.78707ZM1303.92 5.79929C1307.22 5.79929 1309.86 6.80559 1311.9 8.77743L1313.01 7.62568C1310.63 5.32783 1307.57 4.19929 1303.92 4.19929V5.79929ZM1311.92 8.79721C1314.04 10.6966 1315.1 13.0869 1315.1 16.0293H1316.7C1316.7 12.6463 1315.46 9.81804 1312.99 7.6059L1311.92 8.79721ZM1315.1 16.0293C1315.1 18.8869 1314.05 21.2853 1311.91 23.2716L1313 24.4426C1315.45 22.1592 1316.7 19.3391 1316.7 16.0293H1315.1ZM1311.91 23.2709C1309.87 25.1684 1307.23 26.1408 1303.92 26.1408V27.7408C1307.57 27.7408 1310.62 26.6573 1313 24.4433L1311.91 23.2709ZM1313.2 33.8197V100H1314.8V33.8197H1313.2ZM1314 99.2H1293.72V100.8H1314V99.2ZM1294.52 100V33.8197H1292.92V100H1294.52ZM1293.72 34.6197H1314V33.0197H1293.72V34.6197ZM1364.28 50.6613V51.4613H1365.08V50.6613H1364.28ZM1353.37 50.6613V49.8613H1352.57V50.6613H1353.37ZM1353.37 100V100.8H1354.17V100H1353.37ZM1333.08 100H1332.28V100.8H1333.08V100ZM1333.08 50.6613L1333.88 50.6613V49.8613L1333.08 49.8613V50.6613ZM1325.73 50.6613H1324.93V51.4613H1325.73V50.6613ZM1325.73 33.8197V33.0197H1324.93V33.8197H1325.73ZM1333.08 33.8197V34.6197L1333.88 34.6197V33.8197L1333.08 33.8197ZM1340.08 13.4201L1340.62 14.0152L1340.62 14.0102L1340.08 13.4201ZM1363.92 7.13413H1364.72V6.4181L1364.01 6.33903L1363.92 7.13413ZM1363.92 24.3315L1363.87 25.13L1364.72 25.182V24.3315H1363.92ZM1355.74 25.992L1356.26 26.6015L1356.26 26.6015L1355.74 25.992ZM1353.37 33.8197H1352.57V34.6197H1353.37V33.8197ZM1364.28 33.8197H1365.08V33.0197H1364.28V33.8197ZM1364.28 49.8613H1353.37V51.4613H1364.28V49.8613ZM1352.57 50.6613V100H1354.17V50.6613H1352.57ZM1353.37 99.2H1333.08V100.8H1353.37V99.2ZM1333.88 100V50.6613L1332.28 50.6613V100H1333.88ZM1333.08 49.8613H1325.73V51.4613H1333.08V49.8613ZM1326.53 50.6613V33.8197H1324.93V50.6613H1326.53ZM1325.73 34.6197H1333.08V33.0197H1325.73V34.6197ZM1333.88 33.8197V31.9221H1332.28V33.8197L1333.88 33.8197ZM1333.88 31.9221C1333.88 23.9331 1336.17 18.0119 1340.62 14.0152L1339.55 12.8249C1334.67 17.2095 1332.28 23.6229 1332.28 31.9221H1333.88ZM1340.62 14.0102C1345.09 9.92343 1351.7 7.81553 1360.6 7.81553V6.21553C1351.47 6.21553 1344.41 8.37733 1339.54 12.8299L1340.62 14.0102ZM1360.6 7.81553C1362.1 7.81553 1363.17 7.85534 1363.83 7.92924L1364.01 6.33903C1363.25 6.25479 1362.11 6.21553 1360.6 6.21553V7.81553ZM1363.12 7.13413V24.3315H1364.72V7.13413L1363.12 7.13413ZM1363.97 23.533C1360.05 23.293 1357.05 23.8277 1355.22 25.3824L1356.26 26.6015C1357.59 25.4678 1360.04 24.8956 1363.87 25.13L1363.97 23.533ZM1355.22 25.3824C1353.37 26.9558 1352.57 29.6666 1352.57 33.2267H1354.17C1354.17 29.8288 1354.94 27.7165 1356.26 26.6015L1355.22 25.3824ZM1352.57 33.2267V33.8197H1354.17V33.2267H1352.57ZM1353.37 34.6197H1364.28V33.0197H1353.37V34.6197ZM1363.48 33.8197V50.6613H1365.08V33.8197H1363.48ZM1443.78 33.8197L1444.52 34.1328L1444.99 33.0197H1443.78V33.8197ZM1402.27 131.43V132.23H1402.8L1403.01 131.743L1402.27 131.43ZM1380.45 131.43L1379.72 131.101L1379.21 132.23H1380.45V131.43ZM1395.63 97.7465L1396.36 98.0753L1396.5 97.7574L1396.37 97.436L1395.63 97.7465ZM1368.71 33.8197V33.0197H1367.5L1367.97 34.1302L1368.71 33.8197ZM1391.36 33.8197L1392.11 33.5424L1391.92 33.0197H1391.36V33.8197ZM1406.66 75.212L1405.91 75.4894L1406.66 77.5274L1407.41 75.4875L1406.66 75.212ZM1421.84 33.8197V33.0197L1421.28 33.0197L1421.09 33.5443L1421.84 33.8197ZM1443.05 33.5066L1401.54 131.117L1403.01 131.743L1444.52 34.1328L1443.05 33.5066ZM1402.27 130.63L1380.45 130.63V132.23L1402.27 132.23V130.63ZM1381.18 131.758L1396.36 98.0753L1394.9 97.4178L1379.72 131.101L1381.18 131.758ZM1396.37 97.436L1369.44 33.5092L1367.97 34.1302L1394.89 98.0571L1396.37 97.436ZM1368.71 34.6197L1391.36 34.6197V33.0197L1368.71 33.0197V34.6197ZM1390.61 34.0971L1405.91 75.4894L1407.41 74.9347L1392.11 33.5424L1390.61 34.0971ZM1407.41 75.4875L1422.59 34.0952L1421.09 33.5443L1405.91 74.9366L1407.41 75.4875ZM1421.84 34.6197H1443.78V33.0197H1421.84V34.6197Z" fill="#F2B125"/>
</svg>
