<svg width="2020" height="88" viewBox="0 0 2020 88" fill="none" xmlns="http://www.w3.org/2000/svg">
<path d="M118.755 4.53922L119.722 4.79148L120.049 3.53922H118.755V4.53922ZM97.2583 87V88H98.0311L98.226 87.2523L97.2583 87ZM72.943 87L71.9711 87.2356L72.1564 88H72.943V87ZM59.7869 32.7309L60.7587 32.4953L58.817 32.4874L59.7869 32.7309ZM46.1609 87V88H46.9408L47.1307 87.2435L46.1609 87ZM21.8455 87L20.8762 87.2458L21.0674 88H21.8455V87ZM0.936637 4.53922L0.936637 3.53922H-0.34857L-0.0326875 4.78501L0.936637 4.53922ZM22.4328 4.53922L23.4138 4.34532L23.2545 3.53922H22.4328V4.53922ZM34.2968 64.5641L33.3158 64.758L35.2682 64.8017L34.2968 64.5641ZM48.98 4.53922V3.53922H48.1952L48.0087 4.30161L48.98 4.53922ZM71.0635 4.53922L72.0371 4.31061L71.8559 3.53922H71.0635V4.53922ZM85.1594 64.5641L84.1859 64.7927L86.1401 64.7598L85.1594 64.5641ZM97.1409 4.53922V3.53922H96.3208L96.1602 4.34347L97.1409 4.53922ZM117.787 4.28697L96.2907 86.7477L98.226 87.2523L119.722 4.79148L117.787 4.28697ZM97.2583 86L72.943 86V88L97.2583 88V86ZM73.9148 86.7644L60.7587 32.4953L58.815 32.9665L71.9711 87.2356L73.9148 86.7644ZM58.817 32.4874L45.191 86.7565L47.1307 87.2435L60.7567 32.9745L58.817 32.4874ZM46.1609 86H21.8455V88H46.1609V86ZM22.8148 86.7542L1.90596 4.29344L-0.0326875 4.78501L20.8762 87.2458L22.8148 86.7542ZM0.936637 5.53922L22.4328 5.53922V3.53922L0.936637 3.53922L0.936637 5.53922ZM21.4518 4.73312L33.3158 64.758L35.2779 64.3702L23.4138 4.34532L21.4518 4.73312ZM35.2682 64.8017L49.9514 4.77683L48.0087 4.30161L33.3255 64.3265L35.2682 64.8017ZM48.98 5.53922L71.0635 5.53922V3.53922L48.98 3.53922V5.53922ZM70.09 4.76784L84.1859 64.7927L86.1329 64.3355L72.0371 4.31061L70.09 4.76784ZM86.1401 64.7598L98.1215 4.73497L96.1602 4.34347L84.1787 64.3683L86.1401 64.7598ZM97.1409 5.53922L118.755 5.53922V3.53922L97.1409 3.53922V5.53922ZM143.629 83.8284L143.155 84.7089L143.16 84.7119L143.629 83.8284ZM131.53 72.0819L130.661 72.5766L130.667 72.5866L131.53 72.0819ZM131.647 36.4898L132.511 36.9945L132.514 36.9888L131.647 36.4898ZM143.864 24.6258L144.332 25.5093L144.332 25.5093L143.864 24.6258ZM178.633 24.6258L178.165 25.5093L178.165 25.5093L178.633 24.6258ZM190.85 36.4898L189.983 36.9888L189.987 36.9945L190.85 36.4898ZM190.732 72.0819L189.871 71.5731L189.869 71.5772L190.732 72.0819ZM178.399 83.8284L177.936 82.9421L177.93 82.945L178.399 83.8284ZM170.763 66.3261L170.046 65.629L170.041 65.6342L170.036 65.6394L170.763 66.3261ZM170.881 42.1282L170.144 42.8039L170.149 42.8094L170.154 42.8148L170.881 42.1282ZM151.499 42.1282L152.227 42.8143L152.236 42.8039L151.499 42.1282ZM151.381 66.3261L150.634 66.9904L150.639 66.9962L150.644 67.0018L151.381 66.3261ZM161.014 86.9397C154.739 86.9397 149.108 85.602 144.097 82.945L143.16 84.7119C148.487 87.5366 154.445 88.9397 161.014 88.9397V86.9397ZM144.103 82.948C139.178 80.296 135.278 76.512 132.393 71.5772L130.667 72.5866C133.733 77.8321 137.899 81.8791 143.155 84.7089L144.103 82.948ZM132.399 71.5872C129.6 66.6708 128.184 60.8952 128.184 54.2271H126.184C126.184 61.185 127.664 67.3126 130.661 72.5766L132.399 71.5872ZM128.184 54.2271C128.184 47.6442 129.636 41.9108 132.511 36.9945L130.784 35.9851C127.707 41.2492 126.184 47.3407 126.184 54.2271H128.184ZM132.514 36.9888C135.398 31.98 139.333 28.1602 144.332 25.5093L143.395 23.7424C138.057 26.5732 133.848 30.6627 130.781 35.9909L132.514 36.9888ZM144.332 25.5093C149.343 22.8522 154.974 21.5145 161.249 21.5145V19.5145C154.68 19.5145 148.722 20.9177 143.395 23.7424L144.332 25.5093ZM161.249 21.5145C167.523 21.5145 173.155 22.8522 178.165 25.5093L179.102 23.7424C173.775 20.9177 167.817 19.5145 161.249 19.5145V21.5145ZM178.165 25.5093C183.164 28.1602 187.099 31.98 189.983 36.9888L191.717 35.9909C188.649 30.6627 184.44 26.5732 179.102 23.7424L178.165 25.5093ZM189.987 36.9945C192.861 41.9108 194.314 47.6442 194.314 54.2271H196.314C196.314 47.3407 194.791 41.2492 191.713 35.9851L189.987 36.9945ZM194.314 54.2271C194.314 60.8052 192.824 66.5769 189.872 71.5732L191.593 72.5906C194.749 67.2499 196.314 61.1185 196.314 54.2271H194.314ZM189.869 71.5772C186.989 76.5044 183.016 80.2879 177.936 82.9421L178.862 84.7148C184.274 81.8872 188.525 77.8397 191.596 72.5866L189.869 71.5772ZM177.93 82.945C172.92 85.602 167.288 86.9397 161.014 86.9397V88.9397C167.582 88.9397 173.541 87.5366 178.867 84.7119L177.93 82.945ZM161.014 71.5548C165.129 71.5548 168.641 70.0295 171.49 67.0127L170.036 65.6394C167.56 68.261 164.572 69.5548 161.014 69.5548V71.5548ZM171.48 67.0232C174.457 63.9617 175.875 59.6447 175.875 54.2271H173.875C173.875 59.3031 172.552 63.0521 170.046 65.629L171.48 67.0232ZM175.875 54.2271C175.875 48.8168 174.5 44.5038 171.608 41.4416L170.154 42.8148C172.587 45.3909 173.875 49.1438 173.875 54.2271H175.875ZM171.618 41.4525C168.844 38.4259 165.365 36.8994 161.249 36.8994V38.8994C164.807 38.8994 167.749 40.1922 170.144 42.8039L171.618 41.4525ZM161.249 36.8994C157.06 36.8994 153.541 38.4211 150.762 41.4525L152.236 42.8039C154.626 40.1969 157.606 38.8994 161.249 38.8994V36.8994ZM150.771 41.4422C147.951 44.4334 146.623 48.7527 146.623 54.2271H148.623C148.623 49.0513 149.878 45.3047 152.227 42.8142L150.771 41.4422ZM146.623 54.2271C146.623 59.6231 147.911 63.9275 150.634 66.9904L152.129 65.6617C149.84 63.0863 148.623 59.3248 148.623 54.2271H146.623ZM150.644 67.0018C153.419 70.0284 156.897 71.5548 161.014 71.5548V69.5548C157.456 69.5548 154.513 68.2621 152.119 65.6503L150.644 67.0018ZM228.406 32.3785H227.406V35.7425L229.243 32.9248L228.406 32.3785ZM237.216 23.921L237.716 24.7869L237.723 24.7828L237.73 24.7785L237.216 23.921ZM248.962 20.7495H249.962V19.7495H248.962V20.7495ZM248.962 42.0107V43.0107H249.962V42.0107H248.962ZM232.165 45.2997L232.81 46.064L232.816 46.0582L232.823 46.0523L232.165 45.2997ZM228.406 87V88H229.406V87H228.406ZM208.319 87H207.319V88H208.319V87ZM208.319 21.4543V20.4543H207.319V21.4543H208.319ZM228.406 21.4543H229.406V20.4543H228.406V21.4543ZM229.243 32.9248C231.512 29.4464 234.336 26.7399 237.716 24.7869L236.715 23.0552C233.048 25.1743 229.998 28.1061 227.568 31.8323L229.243 32.9248ZM237.73 24.7785C241.091 22.762 244.827 21.7495 248.962 21.7495V19.7495C244.483 19.7495 240.388 20.8513 236.701 23.0635L237.73 24.7785ZM247.962 20.7495V42.0107H249.962V20.7495H247.962ZM248.962 41.0107H243.441V43.0107H248.962V41.0107ZM243.441 41.0107C238.306 41.0107 234.267 42.1313 231.506 44.5472L232.823 46.0523C235.074 44.0829 238.553 43.0107 243.441 43.0107V41.0107ZM231.52 44.5355C228.677 46.9339 227.406 51.0647 227.406 56.5764H229.406C229.406 51.2813 230.64 47.8944 232.81 46.064L231.52 44.5355ZM227.406 56.5764V87H229.406V56.5764H227.406ZM228.406 86H208.319V88H228.406V86ZM209.319 87L209.319 21.4543H207.319L207.319 87H209.319ZM208.319 22.4543L228.406 22.4543V20.4543H208.319V22.4543ZM227.406 21.4543V32.3785H229.406V21.4543H227.406ZM260.678 36.3724L259.786 35.9196L259.78 35.9307L260.678 36.3724ZM271.132 24.6258L271.662 25.4738L271.662 25.4738L271.132 24.6258ZM297.562 23.2162L297.107 24.1067L297.115 24.1107L297.562 23.2162ZM306.019 30.4991L305.187 31.0538L307.019 33.8019V30.4991H306.019ZM306.019 0.0755346V-0.924465H305.019V0.0755346H306.019ZM326.106 0.0755346H327.106V-0.924465H326.106V0.0755346ZM326.106 87V88H327.106V87H326.106ZM306.019 87H305.019V88H306.019V87ZM306.019 77.6028H307.019V73.9924L305.162 77.0883L306.019 77.6028ZM297.914 85.1206L297.444 84.2382L297.435 84.2427L297.914 85.1206ZM271.132 83.8284L270.591 84.6697L270.602 84.6764L271.132 83.8284ZM260.678 71.9644L259.778 72.4007L259.782 72.4089L259.786 72.4171L260.678 71.9644ZM301.791 42.3631L301.064 43.0504L301.074 43.0605L301.791 42.3631ZM281.469 42.3631L280.752 41.6658L280.752 41.666L281.469 42.3631ZM281.469 66.0911L280.733 66.7686L280.743 66.7787L280.752 66.7885L281.469 66.0911ZM301.791 66.0911L301.074 65.3937L301.064 65.4039L301.791 66.0911ZM257.919 54.1097C257.919 47.4997 259.148 41.7434 261.575 36.8141L259.78 35.9307C257.195 41.1817 255.919 47.2502 255.919 54.1097H257.919ZM261.569 36.8251C264.08 31.8797 267.447 28.1084 271.662 25.4738L270.602 23.7778C266.047 26.6249 262.444 30.6847 259.786 35.9197L261.569 36.8251ZM271.662 25.4738C275.881 22.8369 280.59 21.5145 285.815 21.5145V19.5145C280.233 19.5145 275.154 20.9331 270.602 23.7778L271.662 25.4738ZM285.815 21.5145C289.978 21.5145 293.736 22.3838 297.107 24.1067L298.017 22.3258C294.34 20.4464 290.266 19.5145 285.815 19.5145V21.5145ZM297.115 24.1107C300.577 25.8417 303.257 28.1583 305.187 31.0538L306.851 29.9444C304.71 26.7317 301.751 24.193 298.009 22.3218L297.115 24.1107ZM307.019 30.4991V0.0755346H305.019V30.4991H307.019ZM306.019 1.07553H326.106V-0.924465H306.019V1.07553ZM325.106 0.0755346V87H327.106V0.0755346H325.106ZM326.106 86H306.019V88H326.106V86ZM307.019 87V77.6028H305.019V87H307.019ZM305.162 77.0883C303.384 80.0509 300.823 82.4358 297.444 84.2382L298.385 86.0029C302.053 84.0464 304.896 81.4194 306.877 78.1173L305.162 77.0883ZM297.435 84.2427C294.161 86.0289 290.298 86.9397 285.815 86.9397V88.9397C290.573 88.9397 294.776 87.9711 298.393 85.9984L297.435 84.2427ZM285.815 86.9397C280.59 86.9397 275.881 85.6174 271.662 82.9804L270.602 84.6764C275.154 87.5212 280.233 88.9397 285.815 88.9397V86.9397ZM271.673 82.9873C267.451 80.2731 264.081 76.459 261.569 71.5117L259.786 72.4171C262.443 77.6501 266.043 81.7454 270.591 84.6696L271.673 82.9873ZM261.577 71.5281C259.148 66.5172 257.919 60.7192 257.919 54.1097H255.919C255.919 60.9695 257.195 67.0747 259.778 72.4007L261.577 71.5281ZM307.019 54.2271C307.019 49.0207 305.549 44.7923 302.507 41.6658L301.074 43.0605C303.67 45.7288 305.019 49.4099 305.019 54.2271H307.019ZM302.517 41.6759C299.587 38.5784 295.957 37.0169 291.689 37.0169V39.0169C295.408 39.0169 298.512 40.3528 301.064 43.0503L302.517 41.6759ZM291.689 37.0169C287.421 37.0169 283.757 38.5775 280.752 41.6658L282.186 43.0605C284.819 40.3538 287.968 39.0169 291.689 39.0169V37.0169ZM280.752 41.666C277.784 44.7193 276.358 48.9122 276.358 54.1097H278.358C278.358 49.2834 279.673 45.6452 282.186 43.0602L280.752 41.666ZM276.358 54.1097C276.358 59.3098 277.784 63.5667 280.733 66.7686L282.205 65.4137C279.672 62.664 278.358 58.9332 278.358 54.1097H276.358ZM280.752 66.7885C283.757 69.8768 287.421 71.4374 291.689 71.4374V69.4374C287.968 69.4374 284.819 68.1004 282.186 65.3938L280.752 66.7885ZM291.689 71.4374C295.957 71.4374 299.587 69.8758 302.517 66.7783L301.064 65.4039C298.512 68.1014 295.408 69.4374 291.689 69.4374V71.4374ZM302.507 66.7885C305.549 63.6619 307.019 59.4336 307.019 54.2271H305.019C305.019 59.0444 303.67 62.7254 301.074 65.3938L302.507 66.7885ZM402.542 44.2426L403.415 44.7312L403.419 44.7238L402.542 44.2426ZM392.44 53.7573L391.969 52.8753L391.969 52.8753L392.44 53.7573ZM363.074 57.3987V56.3987H362.074V57.3987H363.074ZM363.074 87V88H364.074V87H363.074ZM342.987 87H341.987V88H342.987V87ZM342.987 4.53922V3.53922H341.987V4.53922H342.987ZM392.205 7.94572L392.652 7.05129L392.652 7.05129L392.205 7.94572ZM382.573 23.4512L383.265 22.7292L382.573 23.4512ZM363.074 20.7495V19.7495H362.074V20.7495H363.074ZM363.074 41.4234H362.074V42.4234H363.074V41.4234ZM404.831 31.0864C404.831 35.7036 403.773 39.9222 401.665 43.7613L403.419 44.7238C405.696 40.5753 406.831 36.0232 406.831 31.0864H404.831ZM401.669 43.754C399.583 47.4792 396.367 50.5242 391.969 52.8753L392.911 54.6392C397.596 52.1351 401.115 48.837 403.414 44.7312L401.669 43.754ZM391.969 52.8753C387.609 55.2053 382.144 56.3987 375.525 56.3987V58.3987C382.375 58.3987 388.187 57.1645 392.911 54.6392L391.969 52.8753ZM375.525 56.3987H363.074V58.3987H375.525V56.3987ZM362.074 57.3987V87H364.074V57.3987H362.074ZM363.074 86H342.987V88H363.074V86ZM343.987 87V4.53922H341.987V87H343.987ZM342.987 5.53922L375.525 5.53922V3.53922L342.987 3.53922V5.53922ZM375.525 5.53922C381.992 5.53922 387.389 6.65598 391.758 8.84015L392.652 7.05129C387.937 4.69346 382.214 3.53922 375.525 3.53922V5.53922ZM391.758 8.84015C396.142 11.0322 399.392 14.0336 401.555 17.8373L403.294 16.8487C400.915 12.6646 397.352 9.40119 392.652 7.05129L391.758 8.84015ZM401.555 17.8373C403.73 21.6623 404.831 26.0692 404.831 31.0864H406.831C406.831 25.7667 405.661 21.0112 403.294 16.8487L401.555 17.8373ZM373.998 42.4234C377.972 42.4234 381.127 41.4922 383.265 39.4437L381.881 37.9997C380.26 39.5534 377.698 40.4234 373.998 40.4234V42.4234ZM383.265 39.4437C385.39 37.4071 386.392 34.5719 386.392 31.0864H384.392C384.392 34.179 383.515 36.434 381.881 37.9997L383.265 39.4437ZM386.392 31.0864C386.392 27.6009 385.39 24.7658 383.265 22.7292L381.881 24.1732C383.515 25.7388 384.392 27.9939 384.392 31.0864H386.392ZM383.265 22.7292C381.127 20.6806 377.972 19.7495 373.998 19.7495V21.7495C377.698 21.7495 380.26 22.6194 381.881 24.1732L383.265 22.7292ZM373.998 19.7495L363.074 19.7495V21.7495L373.998 21.7495V19.7495ZM362.074 20.7495V41.4234H364.074V20.7495H362.074ZM363.074 42.4234H373.998V40.4234H363.074V42.4234ZM438.724 32.3785H437.724V35.7425L439.562 32.9248L438.724 32.3785ZM447.534 23.921L448.034 24.7869L448.041 24.7828L448.049 24.7785L447.534 23.921ZM459.281 20.7495H460.281V19.7495H459.281V20.7495ZM459.281 42.0107V43.0107H460.281V42.0107H459.281ZM442.483 45.2997L443.128 46.064L443.135 46.0582L443.142 46.0523L442.483 45.2997ZM438.724 87V88H439.724V87H438.724ZM418.638 87H417.638V88H418.638V87ZM418.638 21.4543V20.4543L417.638 20.4543V21.4543L418.638 21.4543ZM438.724 21.4543H439.724V20.4543H438.724V21.4543ZM439.562 32.9248C441.83 29.4464 444.654 26.7399 448.034 24.7869L447.034 23.0552C443.366 25.1743 440.317 28.1061 437.886 31.8323L439.562 32.9248ZM448.049 24.7785C451.409 22.762 455.146 21.7495 459.281 21.7495V19.7495C454.801 19.7495 450.707 20.8513 447.02 23.0635L448.049 24.7785ZM458.281 20.7495V42.0107H460.281V20.7495H458.281ZM459.281 41.0107H453.76V43.0107H459.281V41.0107ZM453.76 41.0107C448.624 41.0107 444.586 42.1313 441.824 44.5472L443.142 46.0523C445.392 44.0829 448.872 43.0107 453.76 43.0107V41.0107ZM441.838 44.5355C438.996 46.9339 437.724 51.0647 437.724 56.5764H439.724C439.724 51.2813 440.959 47.8944 443.128 46.064L441.838 44.5355ZM437.724 56.5764V87H439.724V56.5764H437.724ZM438.724 86H418.638V88H438.724V86ZM419.638 87V21.4543L417.638 21.4543V87H419.638ZM418.638 22.4543H438.724V20.4543H418.638V22.4543ZM437.724 21.4543V32.3785H439.724V21.4543H437.724ZM532.665 59.0432V60.0432H533.557L533.659 59.1578L532.665 59.0432ZM487.206 59.0432V58.0432H486.126L486.209 59.1199L487.206 59.0432ZM491.083 68.4405L490.388 69.1599L490.401 69.172L490.414 69.1837L491.083 68.4405ZM510.112 65.2689V64.2689H509.473L509.204 64.8488L510.112 65.2689ZM531.491 65.2689L532.46 65.5156L532.777 64.2689H531.491V65.2689ZM525.5 76.898L524.734 76.2543L524.726 76.2647L525.5 76.898ZM514.811 85.0031L515.224 85.9135L514.811 85.0031ZM483.212 83.8284L482.733 84.7058L482.733 84.7058L483.212 83.8284ZM471.466 72.0819L472.341 71.5974L472.341 71.5974L471.466 72.0819ZM471.348 36.3724L470.473 35.8878L470.468 35.8983L471.348 36.3724ZM483.095 24.6258L483.575 25.5032L483.575 25.5032L483.095 24.6258ZM517.277 24.5084L516.802 25.3884L516.802 25.3884L517.277 24.5084ZM528.789 35.9025L527.915 36.3882L527.921 36.3986L528.789 35.9025ZM512.461 47.884V48.884H513.461V47.884H512.461ZM508.937 39.6614L509.592 38.9057L509.592 38.9057L508.937 39.6614ZM491.552 39.5439L490.912 38.7757L490.906 38.7811L490.899 38.7865L491.552 39.5439ZM487.324 47.884L486.335 47.7335L486.16 48.884H487.324V47.884ZM532.018 53.1699C532.018 55.0078 531.903 56.9272 531.672 58.9286L533.659 59.1578C533.898 57.0871 534.018 55.0909 534.018 53.1699H532.018ZM532.665 58.0432H487.206V60.0432H532.665V58.0432ZM486.209 59.1199C486.535 63.3625 487.894 66.7521 490.388 69.1599L491.777 67.721C489.729 65.7434 488.503 62.8682 488.203 58.9665L486.209 59.1199ZM490.414 69.1837C492.959 71.4748 496.061 72.612 499.658 72.612V70.612C496.52 70.612 493.904 69.6349 491.751 67.6972L490.414 69.1837ZM499.658 72.612C502.304 72.612 504.618 72.0529 506.549 70.8812C508.485 69.7067 509.969 67.9571 511.019 65.689L509.204 64.8488C508.297 66.8094 507.06 68.2314 505.511 69.1713C503.958 70.114 502.022 70.612 499.658 70.612V72.612ZM510.112 66.2689H531.491V64.2689H510.112V66.2689ZM530.522 65.0222C529.463 69.1814 527.536 72.9224 524.735 76.2544L526.265 77.5416C529.258 73.9822 531.326 69.9705 532.46 65.5156L530.522 65.0222ZM524.726 76.2647C522.01 79.5842 518.573 82.1944 514.397 84.0927L515.224 85.9135C519.662 83.8963 523.351 81.1031 526.274 77.5312L524.726 76.2647ZM514.397 84.0927C510.235 85.9844 505.563 86.9397 500.362 86.9397V88.9397C505.812 88.9397 510.772 87.9373 515.224 85.9135L514.397 84.0927ZM500.362 86.9397C494.087 86.9397 488.539 85.6019 483.692 82.9511L482.733 84.7058C487.909 87.5367 493.794 88.9397 500.362 88.9397V86.9397ZM483.692 82.9511C478.85 80.3029 475.07 76.5251 472.341 71.5974L470.591 72.5664C473.5 77.819 477.551 81.8723 482.733 84.7058L483.692 82.9511ZM472.341 71.5974C469.617 66.679 468.237 60.8997 468.237 54.2271H466.237C466.237 61.1805 467.677 67.3044 470.591 72.5664L472.341 71.5974ZM468.237 54.2271C468.237 47.5501 469.579 41.767 472.229 36.8465L470.468 35.8983C467.636 41.1581 466.237 47.2782 466.237 54.2271H468.237ZM472.223 36.8569C474.952 31.9292 478.732 28.1514 483.575 25.5032L482.615 23.7485C477.434 26.582 473.383 30.6352 470.474 35.8879L472.223 36.8569ZM483.575 25.5032C488.42 22.8533 494.007 21.5145 500.362 21.5145V19.5145C493.718 19.5145 487.793 20.9166 482.615 23.7485L483.575 25.5032ZM500.362 21.5145C506.562 21.5145 512.033 22.8144 516.802 25.3884L517.752 23.6283C512.655 20.8772 506.849 19.5145 500.362 19.5145V21.5145ZM516.802 25.3884C521.567 27.9596 525.266 31.6203 527.915 36.3882L529.663 35.4169C526.83 30.3176 522.855 26.3822 517.752 23.6283L516.802 25.3884ZM527.921 36.3986C530.641 41.1587 532.018 46.7382 532.018 53.1699H534.018C534.018 46.4456 532.576 40.5134 529.657 35.4064L527.921 36.3986ZM513.461 47.884C513.461 44.1836 512.186 41.1537 509.592 38.9057L508.282 40.4171C510.387 42.2413 511.461 44.6931 511.461 47.884H513.461ZM509.592 38.9057C507.037 36.691 503.858 35.6073 500.127 35.6073V37.6073C503.445 37.6073 506.139 38.5597 508.282 40.4171L509.592 38.9057ZM500.127 35.6073C496.551 35.6073 493.46 36.6528 490.912 38.7757L492.193 40.3122C494.344 38.5196 496.969 37.6073 500.127 37.6073V35.6073ZM490.899 38.7865C488.411 40.9318 486.911 43.9483 486.335 47.7335L488.312 48.0344C488.833 44.6151 490.152 42.0716 492.205 40.3013L490.899 38.7865ZM487.324 48.884H512.461V46.884H487.324V48.884ZM557.358 85.0031L557.76 84.0873L557.76 84.0873L557.358 85.0031ZM546.786 77.0154L545.986 77.6155L545.993 77.6243L546.786 77.0154ZM542.44 65.5038V64.5038H541.363L541.442 65.5777L542.44 65.5038ZM562.291 65.5038L563.286 65.4009L563.193 64.5038H562.291V65.5038ZM565.463 71.0247L566.063 70.2247L566.063 70.2247L565.463 71.0247ZM578.149 71.7295L578.726 72.5465L578.735 72.5402L578.149 71.7295ZM577.327 63.7418L576.894 64.6434L576.909 64.6505L576.924 64.6571L577.327 63.7418ZM567.812 60.6877L568.055 59.7176L568.047 59.7157L568.04 59.7139L567.812 60.6877ZM556.066 57.2812L555.694 58.2097L555.704 58.2137L555.715 58.2176L556.066 57.2812ZM547.961 51.5254L547.2 52.1744L547.205 52.18L547.209 52.1855L547.961 51.5254ZM547.608 30.6166L546.779 30.0571L546.776 30.0619L547.608 30.6166ZM556.771 23.2162L556.366 22.3017L556.359 22.3046L556.771 23.2162ZM590.601 26.6227L589.946 27.3785L589.952 27.3838L590.601 26.6227ZM598.823 42.833V43.833H599.933L599.818 42.7289L598.823 42.833ZM580.264 42.833L579.273 42.9696L579.392 43.833H580.264V42.833ZM577.21 37.4296L576.58 38.2068L576.589 38.2139L576.598 38.2208L577.21 37.4296ZM565.228 36.8422L565.795 37.6663L565.812 37.6546L565.828 37.6422L565.228 36.8422ZM566.285 44.7124L565.853 45.6139L565.859 45.6172L565.866 45.6204L566.285 44.7124ZM575.682 47.5316L575.932 46.5633L575.916 46.5591L575.899 46.5554L575.682 47.5316ZM587.546 51.2905L587.167 52.2157L587.177 52.2199L587.188 52.2238L587.546 51.2905ZM595.534 57.1638L594.764 57.8018L594.774 57.8137L594.784 57.8254L595.534 57.1638ZM599.176 67.9706H600.176V67.962L600.175 67.9534L599.176 67.9706ZM595.887 78.3076L595.074 77.7243L595.071 77.7283L595.887 78.3076ZM586.607 85.3555L586.217 84.4345L586.211 84.4373L586.607 85.3555ZM572.628 86.9397C567.026 86.9397 562.077 85.9808 557.76 84.0873L556.956 85.9189C561.566 87.9409 566.797 88.9397 572.628 88.9397V86.9397ZM557.76 84.0873C553.427 82.1871 550.047 79.6216 547.579 76.4066L545.993 77.6243C548.694 81.144 552.361 83.9036 556.956 85.9189L557.76 84.0873ZM547.586 76.4154C545.115 73.1201 543.736 69.4649 543.437 65.4299L541.442 65.5777C541.77 70.0002 543.289 74.0194 545.986 77.6154L547.586 76.4154ZM542.44 66.5038H562.291V64.5038H542.44V66.5038ZM561.297 65.6067C561.561 68.1639 562.768 70.2534 564.863 71.8247L566.063 70.2247C564.399 68.9768 563.491 67.3857 563.286 65.4009L561.297 65.6067ZM564.863 71.8247C566.943 73.3849 569.474 74.1391 572.393 74.1391V72.1391C569.832 72.1391 567.742 71.4837 566.063 70.2247L564.863 71.8247ZM572.393 74.1391C575.002 74.1391 577.157 73.6537 578.726 72.5465L577.573 70.9125C576.479 71.6847 574.797 72.1391 572.393 72.1391V74.1391ZM578.735 72.5402C580.371 71.3581 581.264 69.7794 581.264 67.8531H579.264C579.264 69.0593 578.746 70.0648 577.564 70.9188L578.735 72.5402ZM581.264 67.8531C581.264 66.7302 580.968 65.7088 580.343 64.8345C579.725 63.9684 578.829 63.3104 577.73 62.8265L576.924 64.6571C577.782 65.0347 578.355 65.4926 578.716 65.997C579.07 66.4931 579.264 67.0966 579.264 67.8531H581.264ZM577.76 62.8403C575.706 61.8543 572.451 60.8167 568.055 59.7176L567.57 61.6579C571.944 62.7514 575.033 63.7499 576.894 64.6434L577.76 62.8403ZM568.04 59.7139C563.366 58.6235 559.495 57.4994 556.417 56.3449L555.715 58.2176C558.901 59.4124 562.861 60.5593 567.585 61.6616L568.04 59.7139ZM556.437 56.3528C553.454 55.1593 550.881 53.3339 548.712 50.8653L547.209 52.1855C549.582 54.8854 552.413 56.8972 555.694 58.2097L556.437 56.3528ZM548.721 50.8765C546.643 48.4402 545.554 45.1291 545.554 40.8361H543.554C543.554 45.4704 544.736 49.2856 547.2 52.1744L548.721 50.8765ZM545.554 40.8361C545.554 37.2695 546.516 34.0569 548.44 31.1713L546.776 30.0619C544.628 33.2844 543.554 36.8848 543.554 40.8361H545.554ZM548.437 31.176C550.432 28.2207 553.33 25.865 557.182 24.1278L556.359 22.3046C552.224 24.1697 549.013 26.7476 546.779 30.0571L548.437 31.176ZM557.175 24.1308C561.092 22.3982 565.764 21.5145 571.219 21.5145V19.5145C565.553 19.5145 560.593 20.432 556.366 22.3017L557.175 24.1308ZM571.219 21.5145C579.279 21.5145 585.481 23.5087 589.946 27.3784L591.256 25.867C586.323 21.5925 579.603 19.5145 571.219 19.5145V21.5145ZM589.952 27.3838C594.517 31.2756 597.148 36.4356 597.829 42.9371L599.818 42.7289C599.089 35.761 596.238 30.1142 591.249 25.8617L589.952 27.3838ZM598.823 41.833H580.264V43.833H598.823V41.833ZM581.254 42.6963C580.907 40.1811 579.763 38.1389 577.821 36.6383L576.598 38.2208C578.102 39.3828 578.993 40.9428 579.273 42.9696L581.254 42.6963ZM577.839 36.6523C575.969 35.139 573.533 34.4326 570.631 34.4326V36.4326C573.212 36.4326 575.161 37.0576 576.58 38.2068L577.839 36.6523ZM570.631 34.4326C568.169 34.4326 566.121 34.9222 564.628 36.0422L565.828 37.6422C566.841 36.8828 568.396 36.4326 570.631 36.4326V34.4326ZM564.662 36.0182C563.128 37.0728 562.349 38.6 562.349 40.4837H564.349C564.349 39.2349 564.823 38.3345 565.795 37.6663L564.662 36.0182ZM562.349 40.4837C562.349 41.607 562.645 42.6326 563.261 43.5208C563.872 44.4007 564.758 45.0887 565.853 45.6139L566.718 43.8109C565.854 43.3964 565.272 42.9097 564.904 42.38C564.542 41.8587 564.349 41.2398 564.349 40.4837H562.349ZM565.866 45.6204C568.002 46.6061 571.219 47.5641 575.466 48.5078L575.899 46.5554C571.689 45.6197 568.641 44.6982 566.704 43.8045L565.866 45.6204ZM575.433 48.4999C580.264 49.7466 584.171 50.9864 587.167 52.2157L587.926 50.3653C584.814 49.0886 580.812 47.8225 575.932 46.5633L575.433 48.4999ZM587.188 52.2238C590.068 53.3316 592.593 55.1811 594.764 57.8018L596.304 56.5257C593.934 53.6647 591.133 51.5987 587.905 50.3571L587.188 52.2238ZM594.784 57.8254C596.937 60.2646 598.1 63.6155 598.176 67.9878L600.175 67.9534C600.094 63.2416 598.83 59.388 596.284 56.5021L594.784 57.8254ZM598.176 67.9706C598.176 71.6032 597.142 74.8439 595.074 77.7243L596.699 78.8908C599.016 75.663 600.176 72.0124 600.176 67.9706H598.176ZM595.071 77.7283C593.085 80.5238 590.155 82.7686 586.217 84.4345L586.996 86.2765C591.203 84.4967 594.459 82.0429 596.702 78.8868L595.071 77.7283ZM586.211 84.4373C582.367 86.0955 577.847 86.9397 572.628 86.9397V88.9397C578.06 88.9397 582.859 88.0611 587.003 86.2737L586.211 84.4373ZM625.208 85.0031L625.61 84.0873L625.61 84.0873L625.208 85.0031ZM614.636 77.0154L613.836 77.6155L613.843 77.6243L614.636 77.0154ZM610.29 65.5038V64.5038H609.213L609.293 65.5777L610.29 65.5038ZM630.141 65.5038L631.136 65.4009L631.043 64.5038H630.141V65.5038ZM633.313 71.0247L633.913 70.2247L633.913 70.2247L633.313 71.0247ZM645.999 71.7295L646.576 72.5465L646.585 72.5402L645.999 71.7295ZM645.177 63.7418L644.744 64.6434L644.759 64.6505L644.774 64.6571L645.177 63.7418ZM635.662 60.6877L635.905 59.7176L635.897 59.7157L635.89 59.7139L635.662 60.6877ZM623.916 57.2812L623.544 58.2097L623.554 58.2137L623.565 58.2176L623.916 57.2812ZM615.811 51.5254L615.05 52.1744L615.055 52.18L615.059 52.1855L615.811 51.5254ZM615.458 30.6166L614.629 30.0571L614.626 30.0619L615.458 30.6166ZM624.621 23.2162L624.216 22.3017L624.209 22.3046L624.621 23.2162ZM658.451 26.6227L657.796 27.3785L657.802 27.3838L658.451 26.6227ZM666.673 42.833V43.833H667.783L667.668 42.7289L666.673 42.833ZM648.114 42.833L647.123 42.9696L647.242 43.833H648.114V42.833ZM645.06 37.4296L644.43 38.2068L644.439 38.2139L644.448 38.2208L645.06 37.4296ZM633.078 36.8422L633.645 37.6663L633.662 37.6546L633.678 37.6422L633.078 36.8422ZM634.135 44.7124L633.703 45.6139L633.709 45.6172L633.716 45.6204L634.135 44.7124ZM643.533 47.5316L643.782 46.5633L643.766 46.5591L643.749 46.5554L643.533 47.5316ZM655.397 51.2905L655.017 52.2157L655.027 52.2199L655.038 52.2238L655.397 51.2905ZM663.384 57.1638L662.614 57.8018L662.624 57.8137L662.634 57.8254L663.384 57.1638ZM667.026 67.9706H668.026V67.962L668.025 67.9534L667.026 67.9706ZM663.737 78.3076L662.924 77.7243L662.921 77.7283L663.737 78.3076ZM654.457 85.3555L654.067 84.4345L654.061 84.4373L654.457 85.3555ZM640.478 86.9397C634.876 86.9397 629.927 85.9808 625.61 84.0873L624.806 85.9189C629.417 87.9409 634.647 88.9397 640.478 88.9397V86.9397ZM625.61 84.0873C621.277 82.1871 617.897 79.6216 615.429 76.4066L613.843 77.6243C616.544 81.144 620.211 83.9036 624.806 85.9189L625.61 84.0873ZM615.436 76.4154C612.965 73.1201 611.586 69.4649 611.287 65.4299L609.293 65.5777C609.62 70.0002 611.139 74.0194 613.836 77.6154L615.436 76.4154ZM610.29 66.5038H630.141V64.5038H610.29V66.5038ZM629.147 65.6067C629.411 68.1639 630.618 70.2534 632.713 71.8247L633.913 70.2247C632.249 68.9768 631.341 67.3857 631.136 65.4009L629.147 65.6067ZM632.713 71.8247C634.793 73.3849 637.324 74.1391 640.243 74.1391V72.1391C637.682 72.1391 635.592 71.4837 633.913 70.2247L632.713 71.8247ZM640.243 74.1391C642.852 74.1391 645.007 73.6537 646.576 72.5465L645.423 70.9125C644.329 71.6847 642.647 72.1391 640.243 72.1391V74.1391ZM646.585 72.5402C648.221 71.3581 649.114 69.7794 649.114 67.8531H647.114C647.114 69.0593 646.596 70.0648 645.414 70.9188L646.585 72.5402ZM649.114 67.8531C649.114 66.7302 648.818 65.7088 648.193 64.8345C647.575 63.9684 646.679 63.3104 645.58 62.8265L644.774 64.6571C645.632 65.0347 646.205 65.4926 646.566 65.997C646.92 66.4931 647.114 67.0966 647.114 67.8531H649.114ZM645.61 62.8403C643.556 61.8543 640.301 60.8167 635.905 59.7176L635.42 61.6579C639.794 62.7514 642.883 63.7499 644.744 64.6434L645.61 62.8403ZM635.89 59.7139C631.216 58.6235 627.346 57.4994 624.267 56.3449L623.565 58.2176C626.751 59.4124 630.711 60.5593 635.435 61.6616L635.89 59.7139ZM624.287 56.3528C621.304 55.1593 618.731 53.3339 616.562 50.8653L615.059 52.1855C617.432 54.8854 620.263 56.8972 623.544 58.2097L624.287 56.3528ZM616.571 50.8765C614.493 48.4402 613.404 45.1291 613.404 40.8361H611.404C611.404 45.4704 612.586 49.2856 615.05 52.1744L616.571 50.8765ZM613.404 40.8361C613.404 37.2695 614.367 34.0569 616.29 31.1713L614.626 30.0619C612.478 33.2844 611.404 36.8848 611.404 40.8361H613.404ZM616.287 31.176C618.282 28.2207 621.18 25.865 625.032 24.1278L624.209 22.3046C620.074 24.1697 616.863 26.7476 614.629 30.0571L616.287 31.176ZM625.025 24.1308C628.942 22.3982 633.615 21.5145 639.069 21.5145V19.5145C633.403 19.5145 628.443 20.432 624.216 22.3017L625.025 24.1308ZM639.069 21.5145C647.13 21.5145 653.331 23.5087 657.796 27.3784L659.106 25.867C654.173 21.5925 647.453 19.5145 639.069 19.5145V21.5145ZM657.802 27.3838C662.367 31.2756 664.998 36.4356 665.679 42.9371L667.668 42.7289C666.939 35.761 664.088 30.1142 659.099 25.8617L657.802 27.3838ZM666.673 41.833L648.114 41.833V43.833L666.673 43.833V41.833ZM649.104 42.6963C648.757 40.1811 647.613 38.1389 645.671 36.6383L644.448 38.2208C645.952 39.3828 646.843 40.9428 647.123 42.9696L649.104 42.6963ZM645.689 36.6523C643.819 35.139 641.383 34.4326 638.481 34.4326V36.4326C641.062 36.4326 643.011 37.0576 644.43 38.2068L645.689 36.6523ZM638.481 34.4326C636.019 34.4326 633.971 34.9222 632.478 36.0422L633.678 37.6422C634.691 36.8828 636.246 36.4326 638.481 36.4326V34.4326ZM632.512 36.0182C630.978 37.0728 630.199 38.6 630.199 40.4837H632.199C632.199 39.2349 632.673 38.3345 633.645 37.6663L632.512 36.0182ZM630.199 40.4837C630.199 41.607 630.495 42.6326 631.111 43.5208C631.722 44.4007 632.608 45.0887 633.703 45.6139L634.568 43.8109C633.704 43.3964 633.122 42.9097 632.754 42.38C632.392 41.8587 632.199 41.2398 632.199 40.4837H630.199ZM633.716 45.6204C635.852 46.6061 639.069 47.5641 643.316 48.5078L643.749 46.5554C639.539 45.6197 636.491 44.6982 634.554 43.8045L633.716 45.6204ZM643.283 48.4999C648.114 49.7466 652.021 50.9864 655.017 52.2157L655.776 50.3653C652.664 49.0886 648.662 47.8225 643.782 46.5633L643.283 48.4999ZM655.038 52.2238C657.918 53.3316 660.443 55.1811 662.614 57.8018L664.154 56.5257C661.784 53.6647 658.984 51.5987 655.756 50.3571L655.038 52.2238ZM662.634 57.8254C664.787 60.2646 665.95 63.6155 666.026 67.9878L668.025 67.9534C667.944 63.2416 666.68 59.388 664.134 56.5021L662.634 57.8254ZM666.026 67.9706C666.026 71.6032 664.992 74.8439 662.924 77.7243L664.549 78.8908C666.866 75.663 668.026 72.0124 668.026 67.9706H666.026ZM662.921 77.7283C660.935 80.5238 658.005 82.7686 654.067 84.4345L654.846 86.2765C659.053 84.4967 662.309 82.0429 664.552 78.8868L662.921 77.7283ZM654.061 84.4373C650.217 86.0955 645.697 86.9397 640.478 86.9397V88.9397C645.91 88.9397 650.709 88.0611 654.853 86.2737L654.061 84.4373ZM795.136 4.53922L796.103 4.79148L796.43 3.53922H795.136V4.53922ZM773.639 87V88H774.412L774.607 87.2523L773.639 87ZM749.324 87L748.352 87.2356L748.537 88H749.324V87ZM736.168 32.7309L737.14 32.4953L735.198 32.4874L736.168 32.7309ZM722.542 87V88H723.322L723.512 87.2435L722.542 87ZM698.226 87L697.257 87.2458L697.448 88H698.226V87ZM677.318 4.53922V3.53922H676.032L676.348 4.78501L677.318 4.53922ZM698.814 4.53922L699.795 4.34532L699.635 3.53922H698.814V4.53922ZM710.678 64.5641L709.697 64.758L711.649 64.8017L710.678 64.5641ZM725.361 4.53922V3.53922H724.576L724.39 4.30161L725.361 4.53922ZM747.445 4.53922L748.418 4.31061L748.237 3.53922H747.445V4.53922ZM761.54 64.5641L760.567 64.7927L762.521 64.7598L761.54 64.5641ZM773.522 4.53922V3.53922H772.702L772.541 4.34347L773.522 4.53922ZM794.168 4.28697L772.672 86.7477L774.607 87.2523L796.103 4.79148L794.168 4.28697ZM773.639 86H749.324V88H773.639V86ZM750.296 86.7644L737.14 32.4953L735.196 32.9665L748.352 87.2356L750.296 86.7644ZM735.198 32.4874L721.572 86.7565L723.512 87.2435L737.138 32.9745L735.198 32.4874ZM722.542 86H698.226V88H722.542V86ZM699.196 86.7542L678.287 4.29344L676.348 4.78501L697.257 87.2458L699.196 86.7542ZM677.318 5.53922L698.814 5.53922V3.53922L677.318 3.53922V5.53922ZM697.833 4.73312L709.697 64.758L711.659 64.3702L699.795 4.34532L697.833 4.73312ZM711.649 64.8017L726.332 4.77683L724.39 4.30161L709.706 64.3265L711.649 64.8017ZM725.361 5.53922L747.445 5.53922V3.53922L725.361 3.53922V5.53922ZM746.471 4.76784L760.567 64.7927L762.514 64.3355L748.418 4.31061L746.471 4.76784ZM762.521 64.7598L774.503 4.73497L772.541 4.34347L760.56 64.3683L762.521 64.7598ZM773.522 5.53922H795.136V3.53922H773.522V5.53922ZM820.01 83.8284L819.536 84.7089L819.541 84.7119L820.01 83.8284ZM807.911 72.0819L807.042 72.5766L807.048 72.5866L807.911 72.0819ZM808.028 36.4898L808.892 36.9945L808.895 36.9888L808.028 36.4898ZM820.245 24.6258L820.713 25.5093L820.713 25.5093L820.245 24.6258ZM855.014 24.6258L854.546 25.5093L854.546 25.5093L855.014 24.6258ZM867.231 36.4898L866.364 36.9888L866.368 36.9945L867.231 36.4898ZM867.113 72.0819L866.253 71.5731L866.25 71.5772L867.113 72.0819ZM854.78 83.8284L854.317 82.9421L854.311 82.945L854.78 83.8284ZM847.144 66.3261L846.427 65.629L846.422 65.6342L846.417 65.6394L847.144 66.3261ZM847.262 42.1282L846.525 42.8039L846.53 42.8094L846.535 42.8148L847.262 42.1282ZM827.88 42.1282L828.608 42.8143L828.617 42.8039L827.88 42.1282ZM827.763 66.3261L827.015 66.9904L827.02 66.9962L827.025 67.0018L827.763 66.3261ZM837.395 86.9397C831.12 86.9397 825.489 85.602 820.478 82.945L819.541 84.7119C824.868 87.5366 830.826 88.9397 837.395 88.9397V86.9397ZM820.484 82.948C815.559 80.296 811.659 76.512 808.774 71.5772L807.048 72.5866C810.114 77.8321 814.28 81.8791 819.536 84.7089L820.484 82.948ZM808.78 71.5872C805.981 66.6708 804.565 60.8952 804.565 54.2271H802.565C802.565 61.185 804.045 67.3126 807.042 72.5766L808.78 71.5872ZM804.565 54.2271C804.565 47.6442 806.017 41.9108 808.892 36.9945L807.165 35.9851C804.088 41.2492 802.565 47.3407 802.565 54.2271H804.565ZM808.895 36.9888C811.779 31.98 815.714 28.1602 820.713 25.5093L819.776 23.7424C814.438 26.5732 810.229 30.6627 807.162 35.9909L808.895 36.9888ZM820.713 25.5093C825.724 22.8522 831.355 21.5145 837.63 21.5145V19.5145C831.061 19.5145 825.103 20.9177 819.776 23.7424L820.713 25.5093ZM837.63 21.5145C843.904 21.5145 849.536 22.8522 854.546 25.5093L855.483 23.7424C850.156 20.9177 844.198 19.5145 837.63 19.5145V21.5145ZM854.546 25.5093C859.545 28.1602 863.48 31.98 866.364 36.9888L868.098 35.9909C865.03 30.6627 860.821 26.5732 855.483 23.7424L854.546 25.5093ZM866.368 36.9945C869.242 41.9108 870.695 47.6442 870.695 54.2271H872.695C872.695 47.3407 871.172 41.2492 868.094 35.9851L866.368 36.9945ZM870.695 54.2271C870.695 60.8052 869.205 66.5769 866.253 71.5732L867.974 72.5906C871.13 67.2499 872.695 61.1185 872.695 54.2271H870.695ZM866.25 71.5772C863.37 76.5044 859.397 80.2879 854.317 82.9421L855.243 84.7148C860.655 81.8872 864.906 77.8397 867.977 72.5866L866.25 71.5772ZM854.311 82.945C849.301 85.602 843.669 86.9397 837.395 86.9397V88.9397C843.963 88.9397 849.922 87.5366 855.248 84.7119L854.311 82.945ZM837.395 71.5548C841.51 71.5548 845.022 70.0295 847.871 67.0127L846.417 65.6394C843.941 68.261 840.953 69.5548 837.395 69.5548V71.5548ZM847.861 67.0232C850.838 63.9617 852.256 59.6447 852.256 54.2271H850.256C850.256 59.3031 848.933 63.0521 846.427 65.629L847.861 67.0232ZM852.256 54.2271C852.256 48.8168 850.881 44.5038 847.989 41.4416L846.535 42.8148C848.968 45.3909 850.256 49.1438 850.256 54.2271H852.256ZM847.999 41.4525C845.225 38.4259 841.746 36.8994 837.63 36.8994V38.8994C841.188 38.8994 844.131 40.1922 846.525 42.8039L847.999 41.4525ZM837.63 36.8994C833.441 36.8994 829.922 38.4211 827.143 41.4525L828.617 42.8039C831.007 40.1969 833.987 38.8994 837.63 38.8994V36.8994ZM827.152 41.4422C824.332 44.4334 823.004 48.7527 823.004 54.2271H825.004C825.004 49.0513 826.259 45.3047 828.608 42.8142L827.152 41.4422ZM823.004 54.2271C823.004 59.6231 824.292 63.9275 827.015 66.9904L828.51 65.6617C826.221 63.0863 825.004 59.3248 825.004 54.2271H823.004ZM827.025 67.0018C829.8 70.0284 833.278 71.5548 837.395 71.5548V69.5548C833.837 69.5548 830.894 68.2621 828.5 65.6503L827.025 67.0018ZM904.787 32.3785H903.787V35.7425L905.624 32.9248L904.787 32.3785ZM913.597 23.921L914.097 24.7869L914.104 24.7828L914.111 24.7785L913.597 23.921ZM925.343 20.7495H926.343V19.7495H925.343V20.7495ZM925.343 42.0107V43.0107L926.343 43.0107V42.0107L925.343 42.0107ZM908.546 45.2997L909.191 46.064L909.197 46.0582L909.204 46.0523L908.546 45.2997ZM904.787 87V88H905.787V87H904.787ZM884.7 87H883.7V88H884.7V87ZM884.7 21.4543V20.4543H883.7V21.4543H884.7ZM904.787 21.4543H905.787V20.4543H904.787V21.4543ZM905.624 32.9248C907.893 29.4464 910.717 26.7399 914.097 24.7869L913.096 23.0552C909.429 25.1743 906.379 28.1061 903.949 31.8323L905.624 32.9248ZM914.111 24.7785C917.472 22.762 921.208 21.7495 925.343 21.7495V19.7495C920.864 19.7495 916.769 20.8513 913.082 23.0635L914.111 24.7785ZM924.343 20.7495V42.0107L926.343 42.0107V20.7495H924.343ZM925.343 41.0107H919.822V43.0107H925.343V41.0107ZM919.822 41.0107C914.687 41.0107 910.648 42.1313 907.887 44.5472L909.204 46.0523C911.455 44.0829 914.934 43.0107 919.822 43.0107V41.0107ZM907.901 44.5355C905.058 46.9339 903.787 51.0647 903.787 56.5764H905.787C905.787 51.2813 907.021 47.8944 909.191 46.064L907.901 44.5355ZM903.787 56.5764V87H905.787V56.5764H903.787ZM904.787 86H884.7V88H904.787V86ZM885.7 87V21.4543H883.7V87H885.7ZM884.7 22.4543H904.787V20.4543L884.7 20.4543V22.4543ZM903.787 21.4543V32.3785H905.787V21.4543H903.787ZM937.059 36.3724L936.167 35.9196L936.161 35.9307L937.059 36.3724ZM947.513 24.6258L948.043 25.4738L948.043 25.4738L947.513 24.6258ZM973.943 23.2162L973.488 24.1067L973.496 24.1107L973.943 23.2162ZM982.4 30.4991L981.568 31.0538L983.4 33.8019V30.4991H982.4ZM982.4 0.0755346V-0.924465H981.4V0.0755346H982.4ZM1002.49 0.0755346H1003.49V-0.924465H1002.49V0.0755346ZM1002.49 87V88H1003.49V87H1002.49ZM982.4 87H981.4V88H982.4V87ZM982.4 77.6028H983.4V73.9924L981.543 77.0883L982.4 77.6028ZM974.295 85.1206L973.825 84.2382L973.816 84.2427L974.295 85.1206ZM947.513 83.8284L946.972 84.6697L946.983 84.6764L947.513 83.8284ZM937.059 71.9644L936.159 72.4007L936.163 72.4089L936.167 72.4171L937.059 71.9644ZM978.172 42.3631L977.445 43.0504L977.455 43.0605L978.172 42.3631ZM957.85 42.3631L957.133 41.6658L957.133 41.666L957.85 42.3631ZM957.85 66.0911L957.114 66.7686L957.124 66.7787L957.133 66.7885L957.85 66.0911ZM978.172 66.0911L977.455 65.3937L977.445 65.4039L978.172 66.0911ZM934.3 54.1097C934.3 47.4997 935.529 41.7434 937.956 36.8141L936.161 35.9307C933.576 41.1817 932.3 47.2502 932.3 54.1097H934.3ZM937.95 36.8251C940.461 31.8797 943.828 28.1084 948.043 25.4738L946.983 23.7778C942.428 26.6249 938.825 30.6847 936.167 35.9197L937.95 36.8251ZM948.043 25.4738C952.262 22.8369 956.971 21.5145 962.196 21.5145V19.5145C956.614 19.5145 951.535 20.9331 946.983 23.7778L948.043 25.4738ZM962.196 21.5145C966.359 21.5145 970.117 22.3838 973.488 24.1067L974.398 22.3258C970.721 20.4464 966.647 19.5145 962.196 19.5145V21.5145ZM973.496 24.1107C976.958 25.8417 979.638 28.1583 981.568 31.0538L983.232 29.9444C981.091 26.7317 978.132 24.193 974.39 22.3218L973.496 24.1107ZM983.4 30.4991V0.0755346H981.4V30.4991H983.4ZM982.4 1.07553L1002.49 1.07553V-0.924465L982.4 -0.924465V1.07553ZM1001.49 0.0755346V87H1003.49V0.0755346H1001.49ZM1002.49 86H982.4V88H1002.49V86ZM983.4 87V77.6028H981.4V87H983.4ZM981.543 77.0883C979.765 80.0509 977.204 82.4358 973.825 84.2382L974.766 86.0029C978.434 84.0464 981.276 81.4194 983.258 78.1173L981.543 77.0883ZM973.816 84.2427C970.542 86.0289 966.679 86.9397 962.196 86.9397V88.9397C966.954 88.9397 971.157 87.9711 974.774 85.9984L973.816 84.2427ZM962.196 86.9397C956.971 86.9397 952.262 85.6174 948.043 82.9804L946.983 84.6764C951.535 87.5212 956.614 88.9397 962.196 88.9397V86.9397ZM948.054 82.9873C943.832 80.2731 940.462 76.459 937.95 71.5117L936.167 72.4171C938.824 77.6501 942.424 81.7454 946.972 84.6696L948.054 82.9873ZM937.958 71.5281C935.529 66.5172 934.3 60.7192 934.3 54.1097H932.3C932.3 60.9695 933.576 67.0747 936.159 72.4007L937.958 71.5281ZM983.4 54.2271C983.4 49.0207 981.93 44.7923 978.888 41.6658L977.455 43.0605C980.051 45.7288 981.4 49.4099 981.4 54.2271H983.4ZM978.898 41.6759C975.968 38.5784 972.338 37.0169 968.07 37.0169V39.0169C971.789 39.0169 974.893 40.3528 977.445 43.0503L978.898 41.6759ZM968.07 37.0169C963.802 37.0169 960.138 38.5775 957.133 41.6658L958.567 43.0605C961.2 40.3538 964.349 39.0169 968.07 39.0169V37.0169ZM957.133 41.666C954.165 44.7193 952.739 48.9122 952.739 54.1097H954.739C954.739 49.2834 956.054 45.6452 958.567 43.0602L957.133 41.666ZM952.739 54.1097C952.739 59.3098 954.165 63.5667 957.114 66.7686L958.586 65.4137C956.053 62.664 954.739 58.9332 954.739 54.1097H952.739ZM957.133 66.7885C960.138 69.8768 963.802 71.4374 968.07 71.4374V69.4374C964.349 69.4374 961.2 68.1004 958.567 65.3938L957.133 66.7885ZM968.07 71.4374C972.338 71.4374 975.968 69.8758 978.898 66.7783L977.445 65.4039C974.893 68.1014 971.789 69.4374 968.07 69.4374V71.4374ZM978.888 66.7885C981.93 63.6619 983.4 59.4336 983.4 54.2271H981.4C981.4 59.0444 980.051 62.7254 977.455 65.3938L978.888 66.7885ZM1078.92 44.2426L1079.8 44.7312L1079.8 44.7238L1078.92 44.2426ZM1068.82 53.7573L1068.35 52.8753L1068.35 52.8753L1068.82 53.7573ZM1039.45 57.3987V56.3987H1038.45V57.3987H1039.45ZM1039.45 87V88H1040.45V87H1039.45ZM1019.37 87H1018.37V88H1019.37V87ZM1019.37 4.53922V3.53922H1018.37V4.53922H1019.37ZM1068.59 7.94572L1069.03 7.05129L1069.03 7.05129L1068.59 7.94572ZM1058.95 23.4512L1059.65 22.7292L1058.95 23.4512ZM1039.45 20.7495V19.7495H1038.45V20.7495H1039.45ZM1039.45 41.4234H1038.45V42.4234H1039.45V41.4234ZM1081.21 31.0864C1081.21 35.7036 1080.15 39.9222 1078.05 43.7613L1079.8 44.7238C1082.08 40.5753 1083.21 36.0232 1083.21 31.0864H1081.21ZM1078.05 43.754C1075.96 47.4792 1072.75 50.5242 1068.35 52.8753L1069.29 54.6392C1073.98 52.1351 1077.5 48.837 1079.8 44.7312L1078.05 43.754ZM1068.35 52.8753C1063.99 55.2053 1058.53 56.3987 1051.91 56.3987V58.3987C1058.76 58.3987 1064.57 57.1645 1069.29 54.6392L1068.35 52.8753ZM1051.91 56.3987H1039.45V58.3987H1051.91V56.3987ZM1038.45 57.3987V87H1040.45V57.3987H1038.45ZM1039.45 86H1019.37V88H1039.45V86ZM1020.37 87V4.53922H1018.37V87H1020.37ZM1019.37 5.53922L1051.91 5.53922V3.53922L1019.37 3.53922V5.53922ZM1051.91 5.53922C1058.37 5.53922 1063.77 6.65598 1068.14 8.84015L1069.03 7.05129C1064.32 4.69346 1058.59 3.53922 1051.91 3.53922V5.53922ZM1068.14 8.84015C1072.52 11.0322 1075.77 14.0336 1077.94 17.8373L1079.67 16.8487C1077.3 12.6646 1073.73 9.40119 1069.03 7.05129L1068.14 8.84015ZM1077.94 17.8373C1080.11 21.6623 1081.21 26.0692 1081.21 31.0864H1083.21C1083.21 25.7667 1082.04 21.0112 1079.67 16.8487L1077.94 17.8373ZM1050.38 42.4234C1054.35 42.4234 1057.51 41.4922 1059.65 39.4437L1058.26 37.9997C1056.64 39.5534 1054.08 40.4234 1050.38 40.4234V42.4234ZM1059.65 39.4437C1061.77 37.4071 1062.77 34.5719 1062.77 31.0864H1060.77C1060.77 34.179 1059.9 36.434 1058.26 37.9997L1059.65 39.4437ZM1062.77 31.0864C1062.77 27.6009 1061.77 24.7658 1059.65 22.7292L1058.26 24.1732C1059.9 25.7388 1060.77 27.9939 1060.77 31.0864H1062.77ZM1059.65 22.7292C1057.51 20.6806 1054.35 19.7495 1050.38 19.7495V21.7495C1054.08 21.7495 1056.64 22.6194 1058.26 24.1732L1059.65 22.7292ZM1050.38 19.7495H1039.45V21.7495H1050.38V19.7495ZM1038.45 20.7495V41.4234H1040.45V20.7495H1038.45ZM1039.45 42.4234H1050.38V40.4234H1039.45V42.4234ZM1115.11 32.3785H1114.11V35.7425L1115.94 32.9248L1115.11 32.3785ZM1123.91 23.921L1124.42 24.7869L1124.42 24.7828L1124.43 24.7785L1123.91 23.921ZM1135.66 20.7495H1136.66V19.7495H1135.66V20.7495ZM1135.66 42.0107V43.0107H1136.66V42.0107H1135.66ZM1118.86 45.2997L1119.51 46.064L1119.52 46.0582L1119.52 46.0523L1118.86 45.2997ZM1115.11 87V88H1116.11V87H1115.11ZM1095.02 87H1094.02V88H1095.02V87ZM1095.02 21.4543V20.4543H1094.02V21.4543H1095.02ZM1115.11 21.4543H1116.11V20.4543H1115.11V21.4543ZM1115.94 32.9248C1118.21 29.4464 1121.03 26.7399 1124.42 24.7869L1123.41 23.0552C1119.75 25.1743 1116.7 28.1061 1114.27 31.8323L1115.94 32.9248ZM1124.43 24.7785C1127.79 22.762 1131.53 21.7495 1135.66 21.7495V19.7495C1131.18 19.7495 1127.09 20.8513 1123.4 23.0635L1124.43 24.7785ZM1134.66 20.7495V42.0107H1136.66V20.7495H1134.66ZM1135.66 41.0107H1130.14V43.0107H1135.66V41.0107ZM1130.14 41.0107C1125 41.0107 1120.97 42.1313 1118.21 44.5472L1119.52 46.0523C1121.77 44.0829 1125.25 43.0107 1130.14 43.0107V41.0107ZM1118.22 44.5355C1115.38 46.9339 1114.11 51.0647 1114.11 56.5764H1116.11C1116.11 51.2813 1117.34 47.8944 1119.51 46.064L1118.22 44.5355ZM1114.11 56.5764V87H1116.11V56.5764H1114.11ZM1115.11 86H1095.02V88H1115.11V86ZM1096.02 87V21.4543H1094.02V87H1096.02ZM1095.02 22.4543L1115.11 22.4543V20.4543H1095.02V22.4543ZM1114.11 21.4543V32.3785H1116.11V21.4543H1114.11ZM1209.05 59.0432V60.0432H1209.94L1210.04 59.1578L1209.05 59.0432ZM1163.59 59.0432V58.0432H1162.51L1162.59 59.1199L1163.59 59.0432ZM1167.46 68.4405L1166.77 69.1599L1166.78 69.172L1166.79 69.1837L1167.46 68.4405ZM1186.49 65.2689V64.2689H1185.85L1185.59 64.8488L1186.49 65.2689ZM1207.87 65.2689L1208.84 65.5156L1209.16 64.2689H1207.87V65.2689ZM1201.88 76.898L1201.12 76.2543L1201.11 76.2647L1201.88 76.898ZM1191.19 85.0031L1191.61 85.9135L1191.19 85.0031ZM1159.59 83.8284L1159.11 84.7058L1159.11 84.7058L1159.59 83.8284ZM1147.85 72.0819L1148.72 71.5974L1148.72 71.5974L1147.85 72.0819ZM1147.73 36.3724L1146.85 35.8878L1146.85 35.8983L1147.73 36.3724ZM1159.48 24.6258L1159.96 25.5032L1159.96 25.5032L1159.48 24.6258ZM1193.66 24.5084L1193.18 25.3884L1193.18 25.3884L1193.66 24.5084ZM1205.17 35.9025L1204.3 36.3882L1204.3 36.3986L1205.17 35.9025ZM1188.84 47.884V48.884H1189.84V47.884H1188.84ZM1185.32 39.6614L1185.97 38.9057L1185.97 38.9057L1185.32 39.6614ZM1167.93 39.5439L1167.29 38.7757L1167.29 38.7811L1167.28 38.7865L1167.93 39.5439ZM1163.7 47.884L1162.72 47.7335L1162.54 48.884H1163.7V47.884ZM1208.4 53.1699C1208.4 55.0078 1208.28 56.9272 1208.05 58.9286L1210.04 59.1578C1210.28 57.0871 1210.4 55.0909 1210.4 53.1699H1208.4ZM1209.05 58.0432L1163.59 58.0432V60.0432L1209.05 60.0432V58.0432ZM1162.59 59.1199C1162.92 63.3625 1164.28 66.7521 1166.77 69.1599L1168.16 67.721C1166.11 65.7434 1164.88 62.8682 1164.58 58.9665L1162.59 59.1199ZM1166.79 69.1837C1169.34 71.4748 1172.44 72.612 1176.04 72.612V70.612C1172.9 70.612 1170.29 69.6349 1168.13 67.6972L1166.79 69.1837ZM1176.04 72.612C1178.69 72.612 1181 72.0529 1182.93 70.8812C1184.87 69.7067 1186.35 67.9571 1187.4 65.689L1185.59 64.8488C1184.68 66.8094 1183.44 68.2314 1181.89 69.1713C1180.34 70.114 1178.4 70.612 1176.04 70.612V72.612ZM1186.49 66.2689L1207.87 66.2689V64.2689L1186.49 64.2689V66.2689ZM1206.9 65.0222C1205.84 69.1814 1203.92 72.9224 1201.12 76.2544L1202.65 77.5416C1205.64 73.9822 1207.71 69.9705 1208.84 65.5156L1206.9 65.0222ZM1201.11 76.2647C1198.39 79.5842 1194.95 82.1944 1190.78 84.0927L1191.61 85.9135C1196.04 83.8963 1199.73 81.1031 1202.65 77.5312L1201.11 76.2647ZM1190.78 84.0927C1186.62 85.9844 1181.94 86.9397 1176.74 86.9397V88.9397C1182.19 88.9397 1187.15 87.9373 1191.61 85.9135L1190.78 84.0927ZM1176.74 86.9397C1170.47 86.9397 1164.92 85.6019 1160.07 82.9511L1159.11 84.7058C1164.29 87.5367 1170.18 88.9397 1176.74 88.9397V86.9397ZM1160.07 82.9511C1155.23 80.3029 1151.45 76.5251 1148.72 71.5974L1146.97 72.5664C1149.88 77.819 1153.93 81.8723 1159.11 84.7058L1160.07 82.9511ZM1148.72 71.5974C1146 66.679 1144.62 60.8997 1144.62 54.2271H1142.62C1142.62 61.1805 1144.06 67.3044 1146.97 72.5664L1148.72 71.5974ZM1144.62 54.2271C1144.62 47.5501 1145.96 41.767 1148.61 36.8465L1146.85 35.8983C1144.02 41.1581 1142.62 47.2782 1142.62 54.2271H1144.62ZM1148.6 36.8569C1151.33 31.9292 1155.11 28.1514 1159.96 25.5032L1159 23.7485C1153.81 26.582 1149.76 30.6352 1146.85 35.8879L1148.6 36.8569ZM1159.96 25.5032C1164.8 22.8533 1170.39 21.5145 1176.74 21.5145V19.5145C1170.1 19.5145 1164.17 20.9166 1159 23.7485L1159.96 25.5032ZM1176.74 21.5145C1182.94 21.5145 1188.41 22.8144 1193.18 25.3884L1194.13 23.6283C1189.04 20.8772 1183.23 19.5145 1176.74 19.5145V21.5145ZM1193.18 25.3884C1197.95 27.9596 1201.65 31.6203 1204.3 36.3882L1206.04 35.4169C1203.21 30.3176 1199.24 26.3822 1194.13 23.6283L1193.18 25.3884ZM1204.3 36.3986C1207.02 41.1587 1208.4 46.7382 1208.4 53.1699H1210.4C1210.4 46.4456 1208.96 40.5134 1206.04 35.4064L1204.3 36.3986ZM1189.84 47.884C1189.84 44.1836 1188.57 41.1537 1185.97 38.9057L1184.66 40.4171C1186.77 42.2413 1187.84 44.6931 1187.84 47.884H1189.84ZM1185.97 38.9057C1183.42 36.691 1180.24 35.6073 1176.51 35.6073V37.6073C1179.83 37.6073 1182.52 38.5597 1184.66 40.4171L1185.97 38.9057ZM1176.51 35.6073C1172.93 35.6073 1169.84 36.6528 1167.29 38.7757L1168.57 40.3122C1170.72 38.5196 1173.35 37.6073 1176.51 37.6073V35.6073ZM1167.28 38.7865C1164.79 40.9318 1163.29 43.9483 1162.72 47.7335L1164.69 48.0344C1165.21 44.6151 1166.53 42.0716 1168.59 40.3013L1167.28 38.7865ZM1163.7 48.884H1188.84V46.884H1163.7V48.884ZM1233.74 85.0031L1234.14 84.0873L1234.14 84.0873L1233.74 85.0031ZM1223.17 77.0154L1222.37 77.6155L1222.37 77.6243L1223.17 77.0154ZM1218.82 65.5038V64.5038H1217.74L1217.82 65.5777L1218.82 65.5038ZM1238.67 65.5038L1239.67 65.4009L1239.57 64.5038H1238.67V65.5038ZM1241.84 71.0247L1242.44 70.2247L1242.44 70.2247L1241.84 71.0247ZM1254.53 71.7295L1255.11 72.5465L1255.12 72.5402L1254.53 71.7295ZM1253.71 63.7418L1253.28 64.6434L1253.29 64.6505L1253.31 64.6571L1253.71 63.7418ZM1244.19 60.6877L1244.44 59.7176L1244.43 59.7157L1244.42 59.7139L1244.19 60.6877ZM1232.45 57.2812L1232.08 58.2097L1232.09 58.2137L1232.1 58.2176L1232.45 57.2812ZM1224.34 51.5254L1223.58 52.1744L1223.59 52.18L1223.59 52.1855L1224.34 51.5254ZM1223.99 30.6166L1223.16 30.0571L1223.16 30.0619L1223.99 30.6166ZM1233.15 23.2162L1232.75 22.3017L1232.74 22.3046L1233.15 23.2162ZM1266.98 26.6227L1266.33 27.3785L1266.33 27.3838L1266.98 26.6227ZM1275.2 42.833V43.833H1276.31L1276.2 42.7289L1275.2 42.833ZM1256.64 42.833L1255.65 42.9696L1255.77 43.833H1256.64V42.833ZM1253.59 37.4296L1252.96 38.2068L1252.97 38.2139L1252.98 38.2208L1253.59 37.4296ZM1241.61 36.8422L1242.18 37.6663L1242.19 37.6546L1242.21 37.6422L1241.61 36.8422ZM1242.67 44.7124L1242.23 45.6139L1242.24 45.6172L1242.25 45.6204L1242.67 44.7124ZM1252.06 47.5316L1252.31 46.5633L1252.3 46.5591L1252.28 46.5554L1252.06 47.5316ZM1263.93 51.2905L1263.55 52.2157L1263.56 52.2199L1263.57 52.2238L1263.93 51.2905ZM1271.92 57.1638L1271.15 57.8018L1271.15 57.8137L1271.17 57.8254L1271.92 57.1638ZM1275.56 67.9706H1276.56V67.962L1276.56 67.9534L1275.56 67.9706ZM1272.27 78.3076L1271.46 77.7243L1271.45 77.7283L1272.27 78.3076ZM1262.99 85.3555L1262.6 84.4345L1262.59 84.4373L1262.99 85.3555ZM1249.01 86.9397C1243.41 86.9397 1238.46 85.9808 1234.14 84.0873L1233.34 85.9189C1237.95 87.9409 1243.18 88.9397 1249.01 88.9397V86.9397ZM1234.14 84.0873C1229.81 82.1871 1226.43 79.6216 1223.96 76.4066L1222.37 77.6243C1225.07 81.144 1228.74 83.9036 1233.34 85.9189L1234.14 84.0873ZM1223.97 76.4154C1221.5 73.1201 1220.12 69.4649 1219.82 65.4299L1217.82 65.5777C1218.15 70.0002 1219.67 74.0194 1222.37 77.6154L1223.97 76.4154ZM1218.82 66.5038H1238.67V64.5038H1218.82V66.5038ZM1237.68 65.6067C1237.94 68.1639 1239.15 70.2534 1241.24 71.8247L1242.44 70.2247C1240.78 68.9768 1239.87 67.3857 1239.67 65.4009L1237.68 65.6067ZM1241.24 71.8247C1243.32 73.3849 1245.85 74.1391 1248.77 74.1391V72.1391C1246.21 72.1391 1244.12 71.4837 1242.44 70.2247L1241.24 71.8247ZM1248.77 74.1391C1251.38 74.1391 1253.54 73.6537 1255.11 72.5465L1253.95 70.9125C1252.86 71.6847 1251.18 72.1391 1248.77 72.1391V74.1391ZM1255.12 72.5402C1256.75 71.3581 1257.64 69.7794 1257.64 67.8531H1255.64C1255.64 69.0593 1255.13 70.0648 1253.94 70.9188L1255.12 72.5402ZM1257.64 67.8531C1257.64 66.7302 1257.35 65.7088 1256.72 64.8345C1256.11 63.9684 1255.21 63.3104 1254.11 62.8265L1253.31 64.6571C1254.16 65.0347 1254.74 65.4926 1255.1 65.997C1255.45 66.4931 1255.64 67.0966 1255.64 67.8531H1257.64ZM1254.14 62.8403C1252.09 61.8543 1248.83 60.8167 1244.44 59.7176L1243.95 61.6579C1248.32 62.7514 1251.41 63.7499 1253.28 64.6434L1254.14 62.8403ZM1244.42 59.7139C1239.75 58.6235 1235.88 57.4994 1232.8 56.3449L1232.1 58.2176C1235.28 59.4124 1239.24 60.5593 1243.97 61.6616L1244.42 59.7139ZM1232.82 56.3528C1229.83 55.1593 1227.26 53.3339 1225.09 50.8653L1223.59 52.1855C1225.96 54.8854 1228.79 56.8972 1232.08 58.2097L1232.82 56.3528ZM1225.1 50.8765C1223.02 48.4402 1221.94 45.1291 1221.94 40.8361H1219.94C1219.94 45.4704 1221.12 49.2856 1223.58 52.1744L1225.1 50.8765ZM1221.94 40.8361C1221.94 37.2695 1222.9 34.0569 1224.82 31.1713L1223.16 30.0619C1221.01 33.2844 1219.94 36.8848 1219.94 40.8361H1221.94ZM1224.82 31.176C1226.81 28.2207 1229.71 25.865 1233.56 24.1278L1232.74 22.3046C1228.6 24.1697 1225.39 26.7476 1223.16 30.0571L1224.82 31.176ZM1233.56 24.1308C1237.47 22.3982 1242.15 21.5145 1247.6 21.5145V19.5145C1241.93 19.5145 1236.97 20.432 1232.75 22.3017L1233.56 24.1308ZM1247.6 21.5145C1255.66 21.5145 1261.86 23.5087 1266.33 27.3784L1267.64 25.867C1262.7 21.5925 1255.98 19.5145 1247.6 19.5145V21.5145ZM1266.33 27.3838C1270.9 31.2756 1273.53 36.4356 1274.21 42.9371L1276.2 42.7289C1275.47 35.761 1272.62 30.1142 1267.63 25.8617L1266.33 27.3838ZM1275.2 41.833H1256.64V43.833H1275.2V41.833ZM1257.64 42.6963C1257.29 40.1811 1256.14 38.1389 1254.2 36.6383L1252.98 38.2208C1254.48 39.3828 1255.37 40.9428 1255.65 42.9696L1257.64 42.6963ZM1254.22 36.6523C1252.35 35.139 1249.91 34.4326 1247.01 34.4326V36.4326C1249.59 36.4326 1251.54 37.0576 1252.96 38.2068L1254.22 36.6523ZM1247.01 34.4326C1244.55 34.4326 1242.5 34.9222 1241.01 36.0422L1242.21 37.6422C1243.22 36.8828 1244.78 36.4326 1247.01 36.4326V34.4326ZM1241.04 36.0182C1239.51 37.0728 1238.73 38.6 1238.73 40.4837H1240.73C1240.73 39.2349 1241.2 38.3345 1242.18 37.6663L1241.04 36.0182ZM1238.73 40.4837C1238.73 41.607 1239.03 42.6326 1239.64 43.5208C1240.25 44.4007 1241.14 45.0887 1242.23 45.6139L1243.1 43.8109C1242.24 43.3964 1241.65 42.9097 1241.29 42.38C1240.92 41.8587 1240.73 41.2398 1240.73 40.4837H1238.73ZM1242.25 45.6204C1244.38 46.6061 1247.6 47.5641 1251.85 48.5078L1252.28 46.5554C1248.07 45.6197 1245.02 44.6982 1243.09 43.8045L1242.25 45.6204ZM1251.81 48.4999C1256.64 49.7466 1260.55 50.9864 1263.55 52.2157L1264.31 50.3653C1261.2 49.0886 1257.19 47.8225 1252.31 46.5633L1251.81 48.4999ZM1263.57 52.2238C1266.45 53.3316 1268.97 55.1811 1271.15 57.8018L1272.69 56.5257C1270.31 53.6647 1267.51 51.5987 1264.29 50.3571L1263.57 52.2238ZM1271.17 57.8254C1273.32 60.2646 1274.48 63.6155 1274.56 67.9878L1276.56 67.9534C1276.48 63.2416 1275.21 59.388 1272.66 56.5021L1271.17 57.8254ZM1274.56 67.9706C1274.56 71.6032 1273.52 74.8439 1271.46 77.7243L1273.08 78.8908C1275.4 75.663 1276.56 72.0124 1276.56 67.9706H1274.56ZM1271.45 77.7283C1269.47 80.5238 1266.54 82.7686 1262.6 84.4345L1263.38 86.2765C1267.58 84.4967 1270.84 82.0429 1273.08 78.8868L1271.45 77.7283ZM1262.59 84.4373C1258.75 86.0955 1254.23 86.9397 1249.01 86.9397V88.9397C1254.44 88.9397 1259.24 88.0611 1263.38 86.2737L1262.59 84.4373ZM1301.59 85.0031L1301.99 84.0873L1301.99 84.0873L1301.59 85.0031ZM1291.02 77.0154L1290.22 77.6155L1290.22 77.6243L1291.02 77.0154ZM1286.67 65.5038V64.5038H1285.59L1285.67 65.5777L1286.67 65.5038ZM1306.52 65.5038L1307.52 65.4009L1307.42 64.5038H1306.52V65.5038ZM1309.69 71.0247L1310.29 70.2247L1310.29 70.2247L1309.69 71.0247ZM1322.38 71.7295L1322.96 72.5465L1322.97 72.5402L1322.38 71.7295ZM1321.56 63.7418L1321.13 64.6434L1321.14 64.6505L1321.16 64.6571L1321.56 63.7418ZM1312.04 60.6877L1312.29 59.7176L1312.28 59.7157L1312.27 59.7139L1312.04 60.6877ZM1300.3 57.2812L1299.93 58.2097L1299.94 58.2137L1299.95 58.2176L1300.3 57.2812ZM1292.19 51.5254L1291.43 52.1744L1291.44 52.18L1291.44 52.1855L1292.19 51.5254ZM1291.84 30.6166L1291.01 30.0571L1291.01 30.0619L1291.84 30.6166ZM1301 23.2162L1300.6 22.3017L1300.59 22.3046L1301 23.2162ZM1334.83 26.6227L1334.18 27.3785L1334.18 27.3838L1334.83 26.6227ZM1343.05 42.833V43.833H1344.16L1344.05 42.7289L1343.05 42.833ZM1324.49 42.833L1323.5 42.9696L1323.62 43.833H1324.49V42.833ZM1321.44 37.4296L1320.81 38.2068L1320.82 38.2139L1320.83 38.2208L1321.44 37.4296ZM1309.46 36.8422L1310.03 37.6663L1310.04 37.6546L1310.06 37.6422L1309.46 36.8422ZM1310.52 44.7124L1310.08 45.6139L1310.09 45.6172L1310.1 45.6204L1310.52 44.7124ZM1319.91 47.5316L1320.16 46.5633L1320.15 46.5591L1320.13 46.5554L1319.91 47.5316ZM1331.78 51.2905L1331.4 52.2157L1331.41 52.2199L1331.42 52.2238L1331.78 51.2905ZM1339.77 57.1638L1339 57.8018L1339.01 57.8137L1339.02 57.8254L1339.77 57.1638ZM1343.41 67.9706H1344.41V67.962L1344.41 67.9534L1343.41 67.9706ZM1340.12 78.3076L1339.31 77.7243L1339.3 77.7283L1340.12 78.3076ZM1330.84 85.3555L1330.45 84.4345L1330.44 84.4373L1330.84 85.3555ZM1316.86 86.9397C1311.26 86.9397 1306.31 85.9808 1301.99 84.0873L1301.19 85.9189C1305.8 87.9409 1311.03 88.9397 1316.86 88.9397V86.9397ZM1301.99 84.0873C1297.66 82.1871 1294.28 79.6216 1291.81 76.4066L1290.22 77.6243C1292.92 81.144 1296.59 83.9036 1301.19 85.9189L1301.99 84.0873ZM1291.82 76.4154C1289.35 73.1201 1287.97 69.4649 1287.67 65.4299L1285.67 65.5777C1286 70.0002 1287.52 74.0194 1290.22 77.6154L1291.82 76.4154ZM1286.67 66.5038H1306.52V64.5038H1286.67V66.5038ZM1305.53 65.6067C1305.79 68.1639 1307 70.2534 1309.09 71.8247L1310.29 70.2247C1308.63 68.9768 1307.72 67.3857 1307.52 65.4009L1305.53 65.6067ZM1309.09 71.8247C1311.17 73.3849 1313.7 74.1391 1316.62 74.1391V72.1391C1314.06 72.1391 1311.97 71.4837 1310.29 70.2247L1309.09 71.8247ZM1316.62 74.1391C1319.23 74.1391 1321.39 73.6537 1322.96 72.5465L1321.8 70.9125C1320.71 71.6847 1319.03 72.1391 1316.62 72.1391V74.1391ZM1322.97 72.5402C1324.6 71.3581 1325.49 69.7794 1325.49 67.8531H1323.49C1323.49 69.0593 1322.98 70.0648 1321.79 70.9188L1322.97 72.5402ZM1325.49 67.8531C1325.49 66.7302 1325.2 65.7088 1324.57 64.8345C1323.96 63.9684 1323.06 63.3104 1321.96 62.8265L1321.16 64.6571C1322.01 65.0347 1322.59 65.4926 1322.95 65.997C1323.3 66.4931 1323.49 67.0966 1323.49 67.8531H1325.49ZM1321.99 62.8403C1319.94 61.8543 1316.68 60.8167 1312.29 59.7176L1311.8 61.6579C1316.18 62.7514 1319.26 63.7499 1321.13 64.6434L1321.99 62.8403ZM1312.27 59.7139C1307.6 58.6235 1303.73 57.4994 1300.65 56.3449L1299.95 58.2176C1303.13 59.4124 1307.09 60.5593 1311.82 61.6616L1312.27 59.7139ZM1300.67 56.3528C1297.68 55.1593 1295.11 53.3339 1292.94 50.8653L1291.44 52.1855C1293.81 54.8854 1296.64 56.8972 1299.93 58.2097L1300.67 56.3528ZM1292.95 50.8765C1290.87 48.4402 1289.79 45.1291 1289.79 40.8361H1287.79C1287.79 45.4704 1288.97 49.2856 1291.43 52.1744L1292.95 50.8765ZM1289.79 40.8361C1289.79 37.2695 1290.75 34.0569 1292.67 31.1713L1291.01 30.0619C1288.86 33.2844 1287.79 36.8848 1287.79 40.8361H1289.79ZM1292.67 31.176C1294.66 28.2207 1297.56 25.865 1301.41 24.1278L1300.59 22.3046C1296.45 24.1697 1293.24 26.7476 1291.01 30.0571L1292.67 31.176ZM1301.41 24.1308C1305.32 22.3982 1310 21.5145 1315.45 21.5145V19.5145C1309.78 19.5145 1304.82 20.432 1300.6 22.3017L1301.41 24.1308ZM1315.45 21.5145C1323.51 21.5145 1329.71 23.5087 1334.18 27.3784L1335.49 25.867C1330.55 21.5925 1323.83 19.5145 1315.45 19.5145V21.5145ZM1334.18 27.3838C1338.75 31.2756 1341.38 36.4356 1342.06 42.9371L1344.05 42.7289C1343.32 35.761 1340.47 30.1142 1335.48 25.8617L1334.18 27.3838ZM1343.05 41.833H1324.49V43.833H1343.05V41.833ZM1325.49 42.6963C1325.14 40.1811 1323.99 38.1389 1322.05 36.6383L1320.83 38.2208C1322.33 39.3828 1323.22 40.9428 1323.5 42.9696L1325.49 42.6963ZM1322.07 36.6523C1320.2 35.139 1317.76 34.4326 1314.86 34.4326V36.4326C1317.44 36.4326 1319.39 37.0576 1320.81 38.2068L1322.07 36.6523ZM1314.86 34.4326C1312.4 34.4326 1310.35 34.9222 1308.86 36.0422L1310.06 37.6422C1311.07 36.8828 1312.63 36.4326 1314.86 36.4326V34.4326ZM1308.89 36.0182C1307.36 37.0728 1306.58 38.6 1306.58 40.4837H1308.58C1308.58 39.2349 1309.05 38.3345 1310.03 37.6663L1308.89 36.0182ZM1306.58 40.4837C1306.58 41.607 1306.88 42.6326 1307.49 43.5208C1308.1 44.4007 1308.99 45.0887 1310.08 45.6139L1310.95 43.8109C1310.09 43.3964 1309.5 42.9097 1309.14 42.38C1308.77 41.8587 1308.58 41.2398 1308.58 40.4837H1306.58ZM1310.1 45.6204C1312.23 46.6061 1315.45 47.5641 1319.7 48.5078L1320.13 46.5554C1315.92 45.6197 1312.87 44.6982 1310.94 43.8045L1310.1 45.6204ZM1319.66 48.4999C1324.49 49.7466 1328.4 50.9864 1331.4 52.2157L1332.16 50.3653C1329.05 49.0886 1325.04 47.8225 1320.16 46.5633L1319.66 48.4999ZM1331.42 52.2238C1334.3 53.3316 1336.82 55.1811 1339 57.8018L1340.54 56.5257C1338.16 53.6647 1335.36 51.5987 1332.14 50.3571L1331.42 52.2238ZM1339.02 57.8254C1341.17 60.2646 1342.33 63.6155 1342.41 67.9878L1344.41 67.9534C1344.33 63.2416 1343.06 59.388 1340.52 56.5021L1339.02 57.8254ZM1342.41 67.9706C1342.41 71.6032 1341.37 74.8439 1339.31 77.7243L1340.93 78.8908C1343.25 75.663 1344.41 72.0124 1344.41 67.9706H1342.41ZM1339.3 77.7283C1337.32 80.5238 1334.39 82.7686 1330.45 84.4345L1331.23 86.2765C1335.43 84.4967 1338.69 82.0429 1340.93 78.8868L1339.3 77.7283ZM1330.44 84.4373C1326.6 86.0955 1322.08 86.9397 1316.86 86.9397V88.9397C1322.29 88.9397 1327.09 88.0611 1331.23 86.2737L1330.44 84.4373ZM1471.52 4.53922L1472.48 4.79148L1472.81 3.53922H1471.52V4.53922ZM1450.02 87V88H1450.79L1450.99 87.2523L1450.02 87ZM1425.7 87L1424.73 87.2356L1424.92 88H1425.7V87ZM1412.55 32.7309L1413.52 32.4953L1411.58 32.4874L1412.55 32.7309ZM1398.92 87V88H1399.7L1399.89 87.2435L1398.92 87ZM1374.61 87L1373.64 87.2458L1373.83 88H1374.61V87ZM1353.7 4.53922V3.53922H1352.41L1352.73 4.78501L1353.7 4.53922ZM1375.19 4.53922L1376.18 4.34532L1376.02 3.53922H1375.19V4.53922ZM1387.06 64.5641L1386.08 64.758L1388.03 64.8017L1387.06 64.5641ZM1401.74 4.53922V3.53922H1400.96L1400.77 4.30161L1401.74 4.53922ZM1423.83 4.53922L1424.8 4.31061L1424.62 3.53922H1423.83V4.53922ZM1437.92 64.5641L1436.95 64.7927L1438.9 64.7598L1437.92 64.5641ZM1449.9 4.53922V3.53922H1449.08L1448.92 4.34347L1449.9 4.53922ZM1470.55 4.28697L1449.05 86.7477L1450.99 87.2523L1472.48 4.79148L1470.55 4.28697ZM1450.02 86H1425.7V88H1450.02V86ZM1426.68 86.7644L1413.52 32.4953L1411.58 32.9665L1424.73 87.2356L1426.68 86.7644ZM1411.58 32.4874L1397.95 86.7565L1399.89 87.2435L1413.52 32.9745L1411.58 32.4874ZM1398.92 86H1374.61V88H1398.92V86ZM1375.58 86.7542L1354.67 4.29344L1352.73 4.78501L1373.64 87.2458L1375.58 86.7542ZM1353.7 5.53922H1375.19V3.53922H1353.7V5.53922ZM1374.21 4.73312L1386.08 64.758L1388.04 64.3702L1376.18 4.34532L1374.21 4.73312ZM1388.03 64.8017L1402.71 4.77683L1400.77 4.30161L1386.09 64.3265L1388.03 64.8017ZM1401.74 5.53922H1423.83V3.53922H1401.74V5.53922ZM1422.85 4.76784L1436.95 64.7927L1438.89 64.3355L1424.8 4.31061L1422.85 4.76784ZM1438.9 64.7598L1450.88 4.73497L1448.92 4.34347L1436.94 64.3683L1438.9 64.7598ZM1449.9 5.53922H1471.52V3.53922H1449.9V5.53922ZM1496.39 83.8284L1495.92 84.7089L1495.92 84.7119L1496.39 83.8284ZM1484.29 72.0819L1483.42 72.5766L1483.43 72.5866L1484.29 72.0819ZM1484.41 36.4898L1485.27 36.9945L1485.28 36.9888L1484.41 36.4898ZM1496.63 24.6258L1497.09 25.5093L1497.09 25.5093L1496.63 24.6258ZM1531.4 24.6258L1530.93 25.5093L1530.93 25.5093L1531.4 24.6258ZM1543.61 36.4898L1542.75 36.9888L1542.75 36.9945L1543.61 36.4898ZM1543.49 72.0819L1542.63 71.5731L1542.63 71.5772L1543.49 72.0819ZM1531.16 83.8284L1530.7 82.9421L1530.69 82.945L1531.16 83.8284ZM1523.53 66.3261L1522.81 65.629L1522.8 65.6342L1522.8 65.6394L1523.53 66.3261ZM1523.64 42.1282L1522.91 42.8039L1522.91 42.8094L1522.92 42.8148L1523.64 42.1282ZM1504.26 42.1282L1504.99 42.8143L1505 42.8039L1504.26 42.1282ZM1504.14 66.3261L1503.4 66.9904L1503.4 66.9962L1503.41 67.0018L1504.14 66.3261ZM1513.78 86.9397C1507.5 86.9397 1501.87 85.602 1496.86 82.945L1495.92 84.7119C1501.25 87.5366 1507.21 88.9397 1513.78 88.9397V86.9397ZM1496.86 82.948C1491.94 80.296 1488.04 76.512 1485.16 71.5772L1483.43 72.5866C1486.5 77.8321 1490.66 81.8791 1495.92 84.7089L1496.86 82.948ZM1485.16 71.5872C1482.36 66.6708 1480.95 60.8952 1480.95 54.2271H1478.95C1478.95 61.185 1480.43 67.3126 1483.42 72.5766L1485.16 71.5872ZM1480.95 54.2271C1480.95 47.6442 1482.4 41.9108 1485.27 36.9945L1483.55 35.9851C1480.47 41.2492 1478.95 47.3407 1478.95 54.2271H1480.95ZM1485.28 36.9888C1488.16 31.98 1492.1 28.1602 1497.09 25.5093L1496.16 23.7424C1490.82 26.5732 1486.61 30.6627 1483.54 35.9909L1485.28 36.9888ZM1497.09 25.5093C1502.1 22.8522 1507.74 21.5145 1514.01 21.5145V19.5145C1507.44 19.5145 1501.48 20.9177 1496.16 23.7424L1497.09 25.5093ZM1514.01 21.5145C1520.28 21.5145 1525.92 22.8522 1530.93 25.5093L1531.86 23.7424C1526.54 20.9177 1520.58 19.5145 1514.01 19.5145V21.5145ZM1530.93 25.5093C1535.93 28.1602 1539.86 31.98 1542.75 36.9888L1544.48 35.9909C1541.41 30.6627 1537.2 26.5732 1531.86 23.7424L1530.93 25.5093ZM1542.75 36.9945C1545.62 41.9108 1547.08 47.6442 1547.08 54.2271H1549.08C1549.08 47.3407 1547.55 41.2492 1544.48 35.9851L1542.75 36.9945ZM1547.08 54.2271C1547.08 60.8052 1545.59 66.5769 1542.63 71.5732L1544.36 72.5906C1547.51 67.2499 1549.08 61.1185 1549.08 54.2271H1547.08ZM1542.63 71.5772C1539.75 76.5044 1535.78 80.2879 1530.7 82.9421L1531.62 84.7148C1537.04 81.8872 1541.29 77.8397 1544.36 72.5866L1542.63 71.5772ZM1530.69 82.945C1525.68 85.602 1520.05 86.9397 1513.78 86.9397V88.9397C1520.34 88.9397 1526.3 87.5366 1531.63 84.7119L1530.69 82.945ZM1513.78 71.5548C1517.89 71.5548 1521.4 70.0295 1524.25 67.0127L1522.8 65.6394C1520.32 68.261 1517.33 69.5548 1513.78 69.5548V71.5548ZM1524.24 67.0232C1527.22 63.9617 1528.64 59.6447 1528.64 54.2271H1526.64C1526.64 59.3031 1525.31 63.0521 1522.81 65.629L1524.24 67.0232ZM1528.64 54.2271C1528.64 48.8168 1527.26 44.5038 1524.37 41.4416L1522.92 42.8148C1525.35 45.3909 1526.64 49.1438 1526.64 54.2271H1528.64ZM1524.38 41.4525C1521.61 38.4259 1518.13 36.8994 1514.01 36.8994V38.8994C1517.57 38.8994 1520.51 40.1922 1522.91 42.8039L1524.38 41.4525ZM1514.01 36.8994C1509.82 36.8994 1506.3 38.4211 1503.52 41.4525L1505 42.8039C1507.39 40.1969 1510.37 38.8994 1514.01 38.8994V36.8994ZM1503.53 41.4422C1500.71 44.4334 1499.38 48.7527 1499.38 54.2271H1501.38C1501.38 49.0513 1502.64 45.3047 1504.99 42.8142L1503.53 41.4422ZM1499.38 54.2271C1499.38 59.6231 1500.67 63.9275 1503.4 66.9904L1504.89 65.6617C1502.6 63.0863 1501.38 59.3248 1501.38 54.2271H1499.38ZM1503.41 67.0018C1506.18 70.0284 1509.66 71.5548 1513.78 71.5548V69.5548C1510.22 69.5548 1507.27 68.2621 1504.88 65.6503L1503.41 67.0018ZM1581.17 32.3785H1580.17V35.7425L1582.01 32.9248L1581.17 32.3785ZM1589.98 23.921L1590.48 24.7869L1590.49 24.7828L1590.49 24.7785L1589.98 23.921ZM1601.72 20.7495H1602.72V19.7495H1601.72V20.7495ZM1601.72 42.0107V43.0107H1602.72V42.0107H1601.72ZM1584.93 45.2997L1585.57 46.064L1585.58 46.0582L1585.59 46.0523L1584.93 45.2997ZM1581.17 87V88H1582.17V87H1581.17ZM1561.08 87H1560.08V88H1561.08V87ZM1561.08 21.4543V20.4543H1560.08V21.4543H1561.08ZM1581.17 21.4543H1582.17V20.4543H1581.17V21.4543ZM1582.01 32.9248C1584.27 29.4464 1587.1 26.7399 1590.48 24.7869L1589.48 23.0552C1585.81 25.1743 1582.76 28.1061 1580.33 31.8323L1582.01 32.9248ZM1590.49 24.7785C1593.85 22.762 1597.59 21.7495 1601.72 21.7495V19.7495C1597.25 19.7495 1593.15 20.8513 1589.46 23.0635L1590.49 24.7785ZM1600.72 20.7495V42.0107H1602.72V20.7495H1600.72ZM1601.72 41.0107H1596.2V43.0107H1601.72V41.0107ZM1596.2 41.0107C1591.07 41.0107 1587.03 42.1313 1584.27 44.5472L1585.59 46.0523C1587.84 44.0829 1591.32 43.0107 1596.2 43.0107V41.0107ZM1584.28 44.5355C1581.44 46.9339 1580.17 51.0647 1580.17 56.5764H1582.17C1582.17 51.2813 1583.4 47.8944 1585.57 46.064L1584.28 44.5355ZM1580.17 56.5764V87H1582.17V56.5764H1580.17ZM1581.17 86H1561.08V88H1581.17V86ZM1562.08 87V21.4543H1560.08V87H1562.08ZM1561.08 22.4543H1581.17V20.4543L1561.08 20.4543V22.4543ZM1580.17 21.4543V32.3785H1582.17V21.4543H1580.17ZM1613.44 36.3724L1612.55 35.9196L1612.54 35.9307L1613.44 36.3724ZM1623.89 24.6258L1624.42 25.4738L1624.42 25.4738L1623.89 24.6258ZM1650.32 23.2162L1649.87 24.1067L1649.88 24.1107L1650.32 23.2162ZM1658.78 30.4991L1657.95 31.0538L1659.78 33.8019V30.4991H1658.78ZM1658.78 0.0755346V-0.924465H1657.78V0.0755346H1658.78ZM1678.87 0.0755346H1679.87V-0.924465H1678.87V0.0755346ZM1678.87 87V88H1679.87V87H1678.87ZM1658.78 87H1657.78V88H1658.78V87ZM1658.78 77.6028H1659.78V73.9924L1657.92 77.0883L1658.78 77.6028ZM1650.68 85.1206L1650.21 84.2382L1650.2 84.2427L1650.68 85.1206ZM1623.89 83.8284L1623.35 84.6697L1623.36 84.6764L1623.89 83.8284ZM1613.44 71.9644L1612.54 72.4007L1612.54 72.4089L1612.55 72.4171L1613.44 71.9644ZM1654.55 42.3631L1653.83 43.0504L1653.84 43.0605L1654.55 42.3631ZM1634.23 42.3631L1633.51 41.6658L1633.51 41.666L1634.23 42.3631ZM1634.23 66.0911L1633.5 66.7686L1633.5 66.7787L1633.51 66.7885L1634.23 66.0911ZM1654.55 66.0911L1653.84 65.3937L1653.83 65.4039L1654.55 66.0911ZM1610.68 54.1097C1610.68 47.4997 1611.91 41.7434 1614.34 36.8141L1612.54 35.9307C1609.96 41.1817 1608.68 47.2502 1608.68 54.1097H1610.68ZM1614.33 36.8251C1616.84 31.8797 1620.21 28.1084 1624.42 25.4738L1623.36 23.7778C1618.81 26.6249 1615.21 30.6847 1612.55 35.9197L1614.33 36.8251ZM1624.42 25.4738C1628.64 22.8369 1633.35 21.5145 1638.58 21.5145V19.5145C1633 19.5145 1627.92 20.9331 1623.36 23.7778L1624.42 25.4738ZM1638.58 21.5145C1642.74 21.5145 1646.5 22.3838 1649.87 24.1067L1650.78 22.3258C1647.1 20.4464 1643.03 19.5145 1638.58 19.5145V21.5145ZM1649.88 24.1107C1653.34 25.8417 1656.02 28.1583 1657.95 31.0538L1659.61 29.9444C1657.47 26.7317 1654.51 24.193 1650.77 22.3218L1649.88 24.1107ZM1659.78 30.4991V0.0755346H1657.78V30.4991H1659.78ZM1658.78 1.07553H1678.87V-0.924465H1658.78V1.07553ZM1677.87 0.0755346V87H1679.87V0.0755346H1677.87ZM1678.87 86L1658.78 86V88L1678.87 88V86ZM1659.78 87V77.6028H1657.78V87H1659.78ZM1657.92 77.0883C1656.15 80.0509 1653.59 82.4358 1650.21 84.2382L1651.15 86.0029C1654.82 84.0464 1657.66 81.4194 1659.64 78.1173L1657.92 77.0883ZM1650.2 84.2427C1646.92 86.0289 1643.06 86.9397 1638.58 86.9397V88.9397C1643.34 88.9397 1647.54 87.9711 1651.16 85.9984L1650.2 84.2427ZM1638.58 86.9397C1633.35 86.9397 1628.64 85.6174 1624.42 82.9804L1623.36 84.6764C1627.92 87.5212 1633 88.9397 1638.58 88.9397V86.9397ZM1624.43 82.9873C1620.21 80.2731 1616.84 76.459 1614.33 71.5117L1612.55 72.4171C1615.2 77.6501 1618.8 81.7454 1623.35 84.6696L1624.43 82.9873ZM1614.34 71.5281C1611.91 66.5172 1610.68 60.7192 1610.68 54.1097H1608.68C1608.68 60.9695 1609.96 67.0747 1612.54 72.4007L1614.34 71.5281ZM1659.78 54.2271C1659.78 49.0207 1658.31 44.7923 1655.27 41.6658L1653.84 43.0605C1656.43 45.7288 1657.78 49.4099 1657.78 54.2271H1659.78ZM1655.28 41.6759C1652.35 38.5784 1648.72 37.0169 1644.45 37.0169V39.0169C1648.17 39.0169 1651.27 40.3528 1653.83 43.0503L1655.28 41.6759ZM1644.45 37.0169C1640.18 37.0169 1636.52 38.5775 1633.51 41.6658L1634.95 43.0605C1637.58 40.3538 1640.73 39.0169 1644.45 39.0169V37.0169ZM1633.51 41.666C1630.55 44.7193 1629.12 48.9122 1629.12 54.1097H1631.12C1631.12 49.2834 1632.43 45.6452 1634.95 43.0602L1633.51 41.666ZM1629.12 54.1097C1629.12 59.3098 1630.55 63.5667 1633.5 66.7686L1634.97 65.4137C1632.43 62.664 1631.12 58.9332 1631.12 54.1097H1629.12ZM1633.51 66.7885C1636.52 69.8768 1640.18 71.4374 1644.45 71.4374V69.4374C1640.73 69.4374 1637.58 68.1004 1634.95 65.3938L1633.51 66.7885ZM1644.45 71.4374C1648.72 71.4374 1652.35 69.8758 1655.28 66.7783L1653.83 65.4039C1651.27 68.1014 1648.17 69.4374 1644.45 69.4374V71.4374ZM1655.27 66.7885C1658.31 63.6619 1659.78 59.4336 1659.78 54.2271H1657.78C1657.78 59.0444 1656.43 62.7254 1653.84 65.3938L1655.27 66.7885ZM1755.3 44.2426L1756.18 44.7312L1756.18 44.7238L1755.3 44.2426ZM1745.2 53.7573L1744.73 52.8753L1744.73 52.8753L1745.2 53.7573ZM1715.84 57.3987V56.3987H1714.84V57.3987H1715.84ZM1715.84 87V88H1716.84V87H1715.84ZM1695.75 87H1694.75V88H1695.75V87ZM1695.75 4.53922V3.53922H1694.75V4.53922H1695.75ZM1744.97 7.94572L1745.41 7.05129L1745.41 7.05129L1744.97 7.94572ZM1735.33 23.4512L1736.03 22.7292L1735.33 23.4512ZM1715.84 20.7495V19.7495H1714.84V20.7495H1715.84ZM1715.84 41.4234H1714.84V42.4234H1715.84V41.4234ZM1757.59 31.0864C1757.59 35.7036 1756.54 39.9222 1754.43 43.7613L1756.18 44.7238C1758.46 40.5753 1759.59 36.0232 1759.59 31.0864H1757.59ZM1754.43 43.754C1752.35 47.4792 1749.13 50.5242 1744.73 52.8753L1745.67 54.6392C1750.36 52.1351 1753.88 48.837 1756.18 44.7312L1754.43 43.754ZM1744.73 52.8753C1740.37 55.2053 1734.91 56.3987 1728.29 56.3987V58.3987C1735.14 58.3987 1740.95 57.1645 1745.67 54.6392L1744.73 52.8753ZM1728.29 56.3987L1715.84 56.3987V58.3987L1728.29 58.3987V56.3987ZM1714.84 57.3987V87H1716.84V57.3987H1714.84ZM1715.84 86H1695.75V88H1715.84V86ZM1696.75 87V4.53922H1694.75V87H1696.75ZM1695.75 5.53922L1728.29 5.53922V3.53922L1695.75 3.53922V5.53922ZM1728.29 5.53922C1734.75 5.53922 1740.15 6.65598 1744.52 8.84015L1745.41 7.05129C1740.7 4.69346 1734.98 3.53922 1728.29 3.53922V5.53922ZM1744.52 8.84015C1748.9 11.0322 1752.15 14.0336 1754.32 17.8373L1756.06 16.8487C1753.68 12.6646 1750.11 9.40119 1745.41 7.05129L1744.52 8.84015ZM1754.32 17.8373C1756.49 21.6623 1757.59 26.0692 1757.59 31.0864H1759.59C1759.59 25.7667 1758.42 21.0112 1756.06 16.8487L1754.32 17.8373ZM1726.76 42.4234C1730.73 42.4234 1733.89 41.4922 1736.03 39.4437L1734.64 37.9997C1733.02 39.5534 1730.46 40.4234 1726.76 40.4234V42.4234ZM1736.03 39.4437C1738.15 37.4071 1739.15 34.5719 1739.15 31.0864H1737.15C1737.15 34.179 1736.28 36.434 1734.64 37.9997L1736.03 39.4437ZM1739.15 31.0864C1739.15 27.6009 1738.15 24.7658 1736.03 22.7292L1734.64 24.1732C1736.28 25.7388 1737.15 27.9939 1737.15 31.0864H1739.15ZM1736.03 22.7292C1733.89 20.6806 1730.73 19.7495 1726.76 19.7495V21.7495C1730.46 21.7495 1733.02 22.6194 1734.64 24.1732L1736.03 22.7292ZM1726.76 19.7495H1715.84V21.7495H1726.76V19.7495ZM1714.84 20.7495V41.4234H1716.84V20.7495H1714.84ZM1715.84 42.4234L1726.76 42.4234V40.4234L1715.84 40.4234V42.4234ZM1791.49 32.3785H1790.49V35.7425L1792.32 32.9248L1791.49 32.3785ZM1800.3 23.921L1800.8 24.7869L1800.8 24.7828L1800.81 24.7785L1800.3 23.921ZM1812.04 20.7495H1813.04V19.7495H1812.04V20.7495ZM1812.04 42.0107V43.0107H1813.04V42.0107H1812.04ZM1795.24 45.2997L1795.89 46.064L1795.9 46.0582L1795.9 46.0523L1795.24 45.2997ZM1791.49 87V88H1792.49V87H1791.49ZM1771.4 87H1770.4V88H1771.4V87ZM1771.4 21.4543V20.4543H1770.4V21.4543H1771.4ZM1791.49 21.4543H1792.49V20.4543H1791.49V21.4543ZM1792.32 32.9248C1794.59 29.4464 1797.42 26.7399 1800.8 24.7869L1799.8 23.0552C1796.13 25.1743 1793.08 28.1061 1790.65 31.8323L1792.32 32.9248ZM1800.81 24.7785C1804.17 22.762 1807.91 21.7495 1812.04 21.7495V19.7495C1807.56 19.7495 1803.47 20.8513 1799.78 23.0635L1800.81 24.7785ZM1811.04 20.7495V42.0107H1813.04V20.7495H1811.04ZM1812.04 41.0107L1806.52 41.0107V43.0107L1812.04 43.0107V41.0107ZM1806.52 41.0107C1801.39 41.0107 1797.35 42.1313 1794.59 44.5472L1795.9 46.0523C1798.15 44.0829 1801.63 43.0107 1806.52 43.0107V41.0107ZM1794.6 44.5355C1791.76 46.9339 1790.49 51.0647 1790.49 56.5764H1792.49C1792.49 51.2813 1793.72 47.8944 1795.89 46.064L1794.6 44.5355ZM1790.49 56.5764V87H1792.49V56.5764H1790.49ZM1791.49 86H1771.4V88H1791.49V86ZM1772.4 87V21.4543H1770.4V87H1772.4ZM1771.4 22.4543H1791.49V20.4543L1771.4 20.4543V22.4543ZM1790.49 21.4543V32.3785H1792.49V21.4543H1790.49ZM1885.43 59.0432V60.0432H1886.32L1886.42 59.1578L1885.43 59.0432ZM1839.97 59.0432V58.0432H1838.89L1838.97 59.1199L1839.97 59.0432ZM1843.84 68.4405L1843.15 69.1599L1843.16 69.172L1843.18 69.1837L1843.84 68.4405ZM1862.87 65.2689V64.2689H1862.23L1861.97 64.8488L1862.87 65.2689ZM1884.25 65.2689L1885.22 65.5156L1885.54 64.2689H1884.25V65.2689ZM1878.26 76.898L1877.5 76.2543L1877.49 76.2647L1878.26 76.898ZM1867.57 85.0031L1867.99 85.9135L1867.57 85.0031ZM1835.97 83.8284L1835.49 84.7058L1835.49 84.7058L1835.97 83.8284ZM1824.23 72.0819L1825.1 71.5974L1825.1 71.5974L1824.23 72.0819ZM1824.11 36.3724L1823.24 35.8878L1823.23 35.8983L1824.11 36.3724ZM1835.86 24.6258L1836.34 25.5032L1836.34 25.5032L1835.86 24.6258ZM1870.04 24.5084L1869.56 25.3884L1869.56 25.3884L1870.04 24.5084ZM1881.55 35.9025L1880.68 36.3882L1880.68 36.3986L1881.55 35.9025ZM1865.22 47.884V48.884H1866.22V47.884H1865.22ZM1861.7 39.6614L1862.35 38.9057L1862.35 38.9057L1861.7 39.6614ZM1844.31 39.5439L1843.67 38.7757L1843.67 38.7811L1843.66 38.7865L1844.31 39.5439ZM1840.09 47.884L1839.1 47.7335L1838.92 48.884H1840.09V47.884ZM1884.78 53.1699C1884.78 55.0078 1884.66 56.9272 1884.43 58.9286L1886.42 59.1578C1886.66 57.0871 1886.78 55.0909 1886.78 53.1699H1884.78ZM1885.43 58.0432H1839.97V60.0432H1885.43V58.0432ZM1838.97 59.1199C1839.3 63.3625 1840.66 66.7521 1843.15 69.1599L1844.54 67.721C1842.49 65.7434 1841.27 62.8682 1840.97 58.9665L1838.97 59.1199ZM1843.18 69.1837C1845.72 71.4748 1848.82 72.612 1852.42 72.612V70.612C1849.28 70.612 1846.67 69.6349 1844.51 67.6972L1843.18 69.1837ZM1852.42 72.612C1855.07 72.612 1857.38 72.0529 1859.31 70.8812C1861.25 69.7067 1862.73 67.9571 1863.78 65.689L1861.97 64.8488C1861.06 66.8094 1859.82 68.2314 1858.27 69.1713C1856.72 70.114 1854.78 70.612 1852.42 70.612V72.612ZM1862.87 66.2689H1884.25V64.2689H1862.87V66.2689ZM1883.28 65.0222C1882.22 69.1814 1880.3 72.9224 1877.5 76.2544L1879.03 77.5416C1882.02 73.9822 1884.09 69.9705 1885.22 65.5156L1883.28 65.0222ZM1877.49 76.2647C1874.77 79.5842 1871.34 82.1944 1867.16 84.0927L1867.99 85.9135C1872.42 83.8963 1876.11 81.1031 1879.04 77.5312L1877.49 76.2647ZM1867.16 84.0927C1863 85.9844 1858.32 86.9397 1853.12 86.9397V88.9397C1858.57 88.9397 1863.53 87.9373 1867.99 85.9135L1867.16 84.0927ZM1853.12 86.9397C1846.85 86.9397 1841.3 85.6019 1836.45 82.9511L1835.49 84.7058C1840.67 87.5367 1846.56 88.9397 1853.12 88.9397V86.9397ZM1836.45 82.9511C1831.61 80.3029 1827.83 76.5251 1825.1 71.5974L1823.35 72.5664C1826.26 77.819 1830.31 81.8723 1835.49 84.7058L1836.45 82.9511ZM1825.1 71.5974C1822.38 66.679 1821 60.8997 1821 54.2271H1819C1819 61.1805 1820.44 67.3044 1823.35 72.5664L1825.1 71.5974ZM1821 54.2271C1821 47.5501 1822.34 41.767 1824.99 36.8465L1823.23 35.8983C1820.4 41.1581 1819 47.2782 1819 54.2271H1821ZM1824.99 36.8569C1827.71 31.9292 1831.49 28.1514 1836.34 25.5032L1835.38 23.7485C1830.2 26.582 1826.14 30.6352 1823.24 35.8879L1824.99 36.8569ZM1836.34 25.5032C1841.18 22.8533 1846.77 21.5145 1853.12 21.5145V19.5145C1846.48 19.5145 1840.56 20.9166 1835.38 23.7485L1836.34 25.5032ZM1853.12 21.5145C1859.32 21.5145 1864.8 22.8144 1869.56 25.3884L1870.51 23.6283C1865.42 20.8772 1859.61 19.5145 1853.12 19.5145V21.5145ZM1869.56 25.3884C1874.33 27.9596 1878.03 31.6203 1880.68 36.3882L1882.43 35.4169C1879.59 30.3176 1875.62 26.3822 1870.51 23.6283L1869.56 25.3884ZM1880.68 36.3986C1883.4 41.1587 1884.78 46.7382 1884.78 53.1699H1886.78C1886.78 46.4456 1885.34 40.5134 1882.42 35.4064L1880.68 36.3986ZM1866.22 47.884C1866.22 44.1836 1864.95 41.1537 1862.35 38.9057L1861.04 40.4171C1863.15 42.2413 1864.22 44.6931 1864.22 47.884H1866.22ZM1862.35 38.9057C1859.8 36.691 1856.62 35.6073 1852.89 35.6073V37.6073C1856.21 37.6073 1858.9 38.5597 1861.04 40.4171L1862.35 38.9057ZM1852.89 35.6073C1849.31 35.6073 1846.22 36.6528 1843.67 38.7757L1844.95 40.3122C1847.11 38.5196 1849.73 37.6073 1852.89 37.6073V35.6073ZM1843.66 38.7865C1841.17 40.9318 1839.67 43.9483 1839.1 47.7335L1841.07 48.0344C1841.59 44.6151 1842.91 42.0716 1844.97 40.3013L1843.66 38.7865ZM1840.09 48.884H1865.22V46.884H1840.09V48.884ZM1910.12 85.0031L1910.52 84.0873L1910.52 84.0873L1910.12 85.0031ZM1899.55 77.0154L1898.75 77.6155L1898.75 77.6243L1899.55 77.0154ZM1895.2 65.5038V64.5038H1894.12L1894.2 65.5777L1895.2 65.5038ZM1915.05 65.5038L1916.05 65.4009L1915.96 64.5038H1915.05V65.5038ZM1918.22 71.0247L1918.82 70.2247L1918.82 70.2247L1918.22 71.0247ZM1930.91 71.7295L1931.49 72.5465L1931.5 72.5402L1930.91 71.7295ZM1930.09 63.7418L1929.66 64.6434L1929.67 64.6505L1929.69 64.6571L1930.09 63.7418ZM1920.57 60.6877L1920.82 59.7176L1920.81 59.7157L1920.8 59.7139L1920.57 60.6877ZM1908.83 57.2812L1908.46 58.2097L1908.47 58.2137L1908.48 58.2176L1908.83 57.2812ZM1900.72 51.5254L1899.96 52.1744L1899.97 52.18L1899.97 52.1855L1900.72 51.5254ZM1900.37 30.6166L1899.54 30.0571L1899.54 30.0619L1900.37 30.6166ZM1909.53 23.2162L1909.13 22.3017L1909.12 22.3046L1909.53 23.2162ZM1943.36 26.6227L1942.71 27.3785L1942.71 27.3838L1943.36 26.6227ZM1951.59 42.833V43.833H1952.7L1952.58 42.7289L1951.59 42.833ZM1933.03 42.833L1932.03 42.9696L1932.15 43.833H1933.03V42.833ZM1929.97 37.4296L1929.34 38.2068L1929.35 38.2139L1929.36 38.2208L1929.97 37.4296ZM1917.99 36.8422L1918.56 37.6663L1918.57 37.6546L1918.59 37.6422L1917.99 36.8422ZM1919.05 44.7124L1918.61 45.6139L1918.62 45.6172L1918.63 45.6204L1919.05 44.7124ZM1928.44 47.5316L1928.69 46.5633L1928.68 46.5591L1928.66 46.5554L1928.44 47.5316ZM1940.31 51.2905L1939.93 52.2157L1939.94 52.2199L1939.95 52.2238L1940.31 51.2905ZM1948.3 57.1638L1947.53 57.8018L1947.54 57.8137L1947.55 57.8254L1948.3 57.1638ZM1951.94 67.9706H1952.94V67.962L1952.94 67.9534L1951.94 67.9706ZM1948.65 78.3076L1947.84 77.7243L1947.83 77.7283L1948.65 78.3076ZM1939.37 85.3555L1938.98 84.4345L1938.97 84.4373L1939.37 85.3555ZM1925.39 86.9397C1919.79 86.9397 1914.84 85.9808 1910.52 84.0873L1909.72 85.9189C1914.33 87.9409 1919.56 88.9397 1925.39 88.9397V86.9397ZM1910.52 84.0873C1906.19 82.1871 1902.81 79.6216 1900.34 76.4066L1898.75 77.6243C1901.46 81.144 1905.12 83.9036 1909.72 85.9189L1910.52 84.0873ZM1900.35 76.4154C1897.88 73.1201 1896.5 69.4649 1896.2 65.4299L1894.2 65.5777C1894.53 70.0002 1896.05 74.0194 1898.75 77.6154L1900.35 76.4154ZM1895.2 66.5038L1915.05 66.5038V64.5038L1895.2 64.5038V66.5038ZM1914.06 65.6067C1914.32 68.1639 1915.53 70.2534 1917.62 71.8247L1918.82 70.2247C1917.16 68.9768 1916.25 67.3857 1916.05 65.4009L1914.06 65.6067ZM1917.62 71.8247C1919.71 73.3849 1922.24 74.1391 1925.16 74.1391V72.1391C1922.59 72.1391 1920.5 71.4837 1918.82 70.2247L1917.62 71.8247ZM1925.16 74.1391C1927.76 74.1391 1929.92 73.6537 1931.49 72.5465L1930.33 70.9125C1929.24 71.6847 1927.56 72.1391 1925.16 72.1391V74.1391ZM1931.5 72.5402C1933.13 71.3581 1934.03 69.7794 1934.03 67.8531H1932.03C1932.03 69.0593 1931.51 70.0648 1930.33 70.9188L1931.5 72.5402ZM1934.03 67.8531C1934.03 66.7302 1933.73 65.7088 1933.11 64.8345C1932.49 63.9684 1931.59 63.3104 1930.49 62.8265L1929.69 64.6571C1930.54 65.0347 1931.12 65.4926 1931.48 65.997C1931.83 66.4931 1932.03 67.0966 1932.03 67.8531H1934.03ZM1930.52 62.8403C1928.47 61.8543 1925.21 60.8167 1920.82 59.7176L1920.33 61.6579C1924.71 62.7514 1927.79 63.7499 1929.66 64.6434L1930.52 62.8403ZM1920.8 59.7139C1916.13 58.6235 1912.26 57.4994 1909.18 56.3449L1908.48 58.2176C1911.66 59.4124 1915.62 60.5593 1920.35 61.6616L1920.8 59.7139ZM1909.2 56.3528C1906.22 55.1593 1903.64 53.3339 1901.47 50.8653L1899.97 52.1855C1902.34 54.8854 1905.17 56.8972 1908.46 58.2097L1909.2 56.3528ZM1901.48 50.8765C1899.41 48.4402 1898.32 45.1291 1898.32 40.8361L1896.32 40.8361C1896.32 45.4704 1897.5 49.2856 1899.96 52.1744L1901.48 50.8765ZM1898.32 40.8361C1898.32 37.2695 1899.28 34.0569 1901.2 31.1713L1899.54 30.0619C1897.39 33.2844 1896.32 36.8848 1896.32 40.8361L1898.32 40.8361ZM1901.2 31.176C1903.19 28.2207 1906.09 25.865 1909.94 24.1278L1909.12 22.3046C1904.99 24.1697 1901.78 26.7476 1899.54 30.0571L1901.2 31.176ZM1909.94 24.1308C1913.85 22.3982 1918.53 21.5145 1923.98 21.5145V19.5145C1918.31 19.5145 1913.35 20.432 1909.13 22.3017L1909.94 24.1308ZM1923.98 21.5145C1932.04 21.5145 1938.24 23.5087 1942.71 27.3784L1944.02 25.867C1939.09 21.5925 1932.37 19.5145 1923.98 19.5145V21.5145ZM1942.71 27.3838C1947.28 31.2756 1949.91 36.4356 1950.59 42.9371L1952.58 42.7289C1951.85 35.761 1949 30.1142 1944.01 25.8617L1942.71 27.3838ZM1951.59 41.833H1933.03V43.833H1951.59V41.833ZM1934.02 42.6963C1933.67 40.1811 1932.52 38.1389 1930.58 36.6383L1929.36 38.2208C1930.86 39.3828 1931.76 40.9428 1932.03 42.9696L1934.02 42.6963ZM1930.6 36.6523C1928.73 35.139 1926.29 34.4326 1923.39 34.4326V36.4326C1925.97 36.4326 1927.92 37.0576 1929.34 38.2068L1930.6 36.6523ZM1923.39 34.4326C1920.93 34.4326 1918.88 34.9222 1917.39 36.0422L1918.59 37.6422C1919.6 36.8828 1921.16 36.4326 1923.39 36.4326V34.4326ZM1917.42 36.0182C1915.89 37.0728 1915.11 38.6 1915.11 40.4837H1917.11C1917.11 39.2349 1917.58 38.3345 1918.56 37.6663L1917.42 36.0182ZM1915.11 40.4837C1915.11 41.607 1915.41 42.6326 1916.02 43.5208C1916.63 44.4007 1917.52 45.0887 1918.61 45.6139L1919.48 43.8109C1918.62 43.3964 1918.03 42.9097 1917.67 42.38C1917.3 41.8587 1917.11 41.2398 1917.11 40.4837H1915.11ZM1918.63 45.6204C1920.76 46.6061 1923.98 47.5641 1928.23 48.5078L1928.66 46.5554C1924.45 45.6197 1921.4 44.6982 1919.47 43.8045L1918.63 45.6204ZM1928.19 48.4999C1933.03 49.7466 1936.93 50.9864 1939.93 52.2157L1940.69 50.3653C1937.58 49.0886 1933.57 47.8225 1928.69 46.5633L1928.19 48.4999ZM1939.95 52.2238C1942.83 53.3316 1945.35 55.1811 1947.53 57.8018L1949.07 56.5257C1946.7 53.6647 1943.9 51.5987 1940.67 50.3571L1939.95 52.2238ZM1947.55 57.8254C1949.7 60.2646 1950.86 63.6155 1950.94 67.9878L1952.94 67.9534C1952.86 63.2416 1951.59 59.388 1949.05 56.5021L1947.55 57.8254ZM1950.94 67.9706C1950.94 71.6032 1949.9 74.8439 1947.84 77.7243L1949.46 78.8908C1951.78 75.663 1952.94 72.0124 1952.94 67.9706H1950.94ZM1947.83 77.7283C1945.85 80.5238 1942.92 82.7686 1938.98 84.4345L1939.76 86.2765C1943.97 84.4967 1947.22 82.0429 1949.46 78.8868L1947.83 77.7283ZM1938.97 84.4373C1935.13 86.0955 1930.61 86.9397 1925.39 86.9397V88.9397C1930.82 88.9397 1935.62 88.0611 1939.76 86.2737L1938.97 84.4373ZM1977.97 85.0031L1978.37 84.0873L1978.37 84.0873L1977.97 85.0031ZM1967.4 77.0154L1966.6 77.6155L1966.6 77.6243L1967.4 77.0154ZM1963.05 65.5038V64.5038H1961.97L1962.05 65.5777L1963.05 65.5038ZM1982.9 65.5038L1983.9 65.4009L1983.81 64.5038H1982.9V65.5038ZM1986.07 71.0247L1986.67 70.2247L1986.67 70.2247L1986.07 71.0247ZM1998.76 71.7295L1999.34 72.5465L1999.35 72.5402L1998.76 71.7295ZM1997.94 63.7418L1997.51 64.6434L1997.52 64.6505L1997.54 64.6571L1997.94 63.7418ZM1988.42 60.6877L1988.67 59.7176L1988.66 59.7157L1988.65 59.7139L1988.42 60.6877ZM1976.68 57.2812L1976.31 58.2097L1976.32 58.2137L1976.33 58.2176L1976.68 57.2812ZM1968.57 51.5254L1967.81 52.1744L1967.82 52.18L1967.82 52.1855L1968.57 51.5254ZM1968.22 30.6166L1967.39 30.0571L1967.39 30.0619L1968.22 30.6166ZM1977.38 23.2162L1976.98 22.3017L1976.97 22.3046L1977.38 23.2162ZM2011.21 26.6227L2010.56 27.3785L2010.56 27.3838L2011.21 26.6227ZM2019.44 42.833V43.833H2020.55L2020.43 42.7289L2019.44 42.833ZM2000.88 42.833L1999.89 42.9696L2000 43.833H2000.88V42.833ZM1997.82 37.4296L1997.19 38.2068L1997.2 38.2139L1997.21 38.2208L1997.82 37.4296ZM1985.84 36.8422L1986.41 37.6663L1986.42 37.6546L1986.44 37.6422L1985.84 36.8422ZM1986.9 44.7124L1986.46 45.6139L1986.47 45.6172L1986.48 45.6204L1986.9 44.7124ZM1996.29 47.5316L1996.54 46.5633L1996.53 46.5591L1996.51 46.5554L1996.29 47.5316ZM2008.16 51.2905L2007.78 52.2157L2007.79 52.2199L2007.8 52.2238L2008.16 51.2905ZM2016.15 57.1638L2015.38 57.8018L2015.39 57.8137L2015.4 57.8254L2016.15 57.1638ZM2019.79 67.9706H2020.79V67.962L2020.79 67.9534L2019.79 67.9706ZM2016.5 78.3076L2015.69 77.7243L2015.68 77.7283L2016.5 78.3076ZM2007.22 85.3555L2006.83 84.4345L2006.82 84.4373L2007.22 85.3555ZM1993.24 86.9397C1987.64 86.9397 1982.69 85.9808 1978.37 84.0873L1977.57 85.9189C1982.18 87.9409 1987.41 88.9397 1993.24 88.9397V86.9397ZM1978.37 84.0873C1974.04 82.1871 1970.66 79.6216 1968.19 76.4066L1966.6 77.6243C1969.31 81.144 1972.97 83.9036 1977.57 85.9189L1978.37 84.0873ZM1968.2 76.4154C1965.73 73.1201 1964.35 69.4649 1964.05 65.4299L1962.05 65.5777C1962.38 70.0002 1963.9 74.0194 1966.6 77.6154L1968.2 76.4154ZM1963.05 66.5038H1982.9V64.5038H1963.05V66.5038ZM1981.91 65.6067C1982.17 68.1639 1983.38 70.2534 1985.47 71.8247L1986.67 70.2247C1985.01 68.9768 1984.1 67.3857 1983.9 65.4009L1981.91 65.6067ZM1985.47 71.8247C1987.56 73.3849 1990.09 74.1391 1993.01 74.1391V72.1391C1990.44 72.1391 1988.35 71.4837 1986.67 70.2247L1985.47 71.8247ZM1993.01 74.1391C1995.61 74.1391 1997.77 73.6537 1999.34 72.5465L1998.18 70.9125C1997.09 71.6847 1995.41 72.1391 1993.01 72.1391V74.1391ZM1999.35 72.5402C2000.98 71.3581 2001.88 69.7794 2001.88 67.8531H1999.88C1999.88 69.0593 1999.36 70.0648 1998.18 70.9188L1999.35 72.5402ZM2001.88 67.8531C2001.88 66.7302 2001.58 65.7088 2000.96 64.8345C2000.34 63.9684 1999.44 63.3104 1998.34 62.8265L1997.54 64.6571C1998.39 65.0347 1998.97 65.4926 1999.33 65.997C1999.68 66.4931 1999.88 67.0966 1999.88 67.8531H2001.88ZM1998.37 62.8403C1996.32 61.8543 1993.06 60.8167 1988.67 59.7176L1988.18 61.6579C1992.56 62.7514 1995.64 63.7499 1997.51 64.6434L1998.37 62.8403ZM1988.65 59.7139C1983.98 58.6235 1980.11 57.4994 1977.03 56.3449L1976.33 58.2176C1979.51 59.4124 1983.47 60.5593 1988.2 61.6616L1988.65 59.7139ZM1977.05 56.3528C1974.07 55.1593 1971.49 53.3339 1969.32 50.8653L1967.82 52.1855C1970.19 54.8854 1973.03 56.8972 1976.31 58.2097L1977.05 56.3528ZM1969.33 50.8765C1967.26 48.4402 1966.17 45.1291 1966.17 40.8361H1964.17C1964.17 45.4704 1965.35 49.2856 1967.81 52.1744L1969.33 50.8765ZM1966.17 40.8361C1966.17 37.2695 1967.13 34.0569 1969.05 31.1713L1967.39 30.0619C1965.24 33.2844 1964.17 36.8848 1964.17 40.8361H1966.17ZM1969.05 31.176C1971.04 28.2207 1973.94 25.865 1977.79 24.1278L1976.97 22.3046C1972.84 24.1697 1969.63 26.7476 1967.39 30.0571L1969.05 31.176ZM1977.79 24.1308C1981.7 22.3982 1986.38 21.5145 1991.83 21.5145V19.5145C1986.17 19.5145 1981.21 20.432 1976.98 22.3017L1977.79 24.1308ZM1991.83 21.5145C1999.89 21.5145 2006.09 23.5087 2010.56 27.3784L2011.87 25.867C2006.94 21.5925 2000.22 19.5145 1991.83 19.5145V21.5145ZM2010.56 27.3838C2015.13 31.2756 2017.76 36.4356 2018.44 42.9371L2020.43 42.7289C2019.7 35.761 2016.85 30.1142 2011.86 25.8617L2010.56 27.3838ZM2019.44 41.833H2000.88V43.833H2019.44V41.833ZM2001.87 42.6963C2001.52 40.1811 2000.37 38.1389 1998.43 36.6383L1997.21 38.2208C1998.71 39.3828 1999.61 40.9428 1999.89 42.9696L2001.87 42.6963ZM1998.45 36.6523C1996.58 35.139 1994.14 34.4326 1991.24 34.4326V36.4326C1993.82 36.4326 1995.77 37.0576 1997.19 38.2068L1998.45 36.6523ZM1991.24 34.4326C1988.78 34.4326 1986.73 34.9222 1985.24 36.0422L1986.44 37.6422C1987.45 36.8828 1989.01 36.4326 1991.24 36.4326V34.4326ZM1985.27 36.0182C1983.74 37.0728 1982.96 38.6 1982.96 40.4837H1984.96C1984.96 39.2349 1985.43 38.3345 1986.41 37.6663L1985.27 36.0182ZM1982.96 40.4837C1982.96 41.607 1983.26 42.6326 1983.87 43.5208C1984.48 44.4007 1985.37 45.0887 1986.46 45.6139L1987.33 43.8109C1986.47 43.3964 1985.88 42.9097 1985.52 42.38C1985.15 41.8587 1984.96 41.2398 1984.96 40.4837H1982.96ZM1986.48 45.6204C1988.61 46.6061 1991.83 47.5641 1996.08 48.5078L1996.51 46.5554C1992.3 45.6197 1989.25 44.6982 1987.32 43.8045L1986.48 45.6204ZM1996.04 48.4999C2000.88 49.7466 2004.78 50.9864 2007.78 52.2157L2008.54 50.3653C2005.43 49.0886 2001.42 47.8225 1996.54 46.5633L1996.04 48.4999ZM2007.8 52.2238C2010.68 53.3316 2013.2 55.1811 2015.38 57.8018L2016.92 56.5257C2014.55 53.6647 2011.75 51.5987 2008.52 50.3571L2007.8 52.2238ZM2015.4 57.8254C2017.55 60.2646 2018.71 63.6155 2018.79 67.9878L2020.79 67.9534C2020.71 63.2416 2019.44 59.388 2016.9 56.5021L2015.4 57.8254ZM2018.79 67.9706C2018.79 71.6032 2017.75 74.8439 2015.69 77.7243L2017.31 78.8908C2019.63 75.663 2020.79 72.0124 2020.79 67.9706H2018.79ZM2015.68 77.7283C2013.7 80.5238 2010.77 82.7686 2006.83 84.4345L2007.61 86.2765C2011.82 84.4967 2015.07 82.0429 2017.31 78.8868L2015.68 77.7283ZM2006.82 84.4373C2002.98 86.0955 1998.46 86.9397 1993.24 86.9397V88.9397C1998.67 88.9397 2003.47 88.0611 2007.61 86.2737L2006.82 84.4373Z" fill="#F2B125"/>
</svg>
