<svg width="72" height="72" viewBox="0 0 72 72" fill="none" xmlns="http://www.w3.org/2000/svg">
<path fill-rule="evenodd" clip-rule="evenodd" d="M0 18.7512V37.5024L0.0680093 37.4324C0.105415 37.3938 8.20538 28.9558 18.0679 18.6812L35.9999 0H17.9999H0V18.7512ZM20.0961 21.0012L0 41.9999V56.9956V71.9912L35.9866 36.0037C55.7792 16.2105 71.9765 0.0124805 71.9805 0.00805078C71.9845 0.00362109 64.8338 0.000580078 56.09 0.0012832L40.1921 0.00254883L20.0961 21.0012ZM21.4452 54.1422C12.4589 63.2885 4.83482 71.0482 4.50285 71.3859L3.8993 72H37.9496H72L54.9103 54.7603C45.511 45.2784 37.8124 37.5187 37.8023 37.5165C37.7922 37.5144 30.4315 44.9959 21.4452 54.1422Z" fill="white"/>
</svg>
