<svg width="81" height="73" viewBox="0 0 81 73" fill="none" xmlns="http://www.w3.org/2000/svg">
<path d="M74.2467 51.3568L74.2391 51.3481C74.3577 50.9411 74.4802 50.537 74.5842 50.1199C79.0372 32.2504 68.169 11.1236 49.7777 0C57.8371 11.0044 61.4006 24.3332 58.2345 35.9895C57.9522 37.0293 57.6127 38.0271 57.2375 38.9968C56.8304 38.7274 56.3172 38.4215 55.6283 38.0389C55.6283 38.0389 37.334 26.6618 17.5055 6.53877C16.9852 6.01037 28.0788 22.5087 40.6687 35.9059C34.7371 32.553 18.2065 20.439 7.74176 10.7919C9.0275 12.9516 10.5567 15.0311 12.2378 17.0333C20.9768 28.1959 32.3735 41.9689 46.0274 52.5449C36.4341 58.4581 22.8784 58.9179 9.38172 52.5512C6.04348 50.9754 2.90511 49.0741 0 46.914C5.71332 56.1181 14.5123 64.0593 25.2216 68.6954C37.9928 74.2232 50.6928 73.8483 60.1519 68.786L60.1445 68.7969C60.1877 68.7694 60.2425 68.7393 60.2874 68.7115C60.6759 68.5013 61.0613 68.2871 61.4383 68.0609C65.9829 65.6848 74.9597 63.2743 79.7777 72.7166C80.9579 75.0276 83.4652 62.7813 74.2467 51.3568Z" fill="white"/>
</svg>
