<svg width="82" height="73" viewBox="0 0 82 73" fill="none" xmlns="http://www.w3.org/2000/svg">
<path fill-rule="evenodd" clip-rule="evenodd" d="M21.4785 0.421611C20.8406 0.625367 19.8237 1.3031 19.2197 1.9278C18.6154 2.55287 14.0437 10.0918 9.06043 18.6815L0 34.2991L0.00329218 36.4783L0.00695015 38.6575L9.06153 54.2751C14.0419 62.8647 18.6088 70.4008 19.2109 71.0222C19.813 71.6433 20.932 72.3381 21.6976 72.5658C23.644 73.1447 58.2141 73.1447 60.1605 72.5658C60.9261 72.3381 62.0462 71.6433 62.6497 71.0222C64.1609 69.4662 81.6317 39.1067 81.9328 37.513C82.0666 36.8055 81.9942 35.6244 81.7722 34.8885C81.2001 32.9926 63.9659 3.29888 62.6454 1.93434C62.0444 1.31327 60.9261 0.618466 60.1605 0.390739C58.3461 -0.148975 23.1777 -0.121009 21.4785 0.421611ZM30.5196 17.974C30.7786 18.2838 33.1566 22.3858 35.8042 27.0896C38.4519 31.793 40.744 35.6661 40.898 35.6967C41.052 35.7272 43.3583 31.8787 46.0228 27.1448C48.6873 22.4104 51.0796 18.2838 51.3386 17.974C51.9977 17.1851 57.6438 17.1648 58.299 17.9485C58.6702 18.3927 57.8783 20.0369 53.7715 27.3478C51.0335 32.2216 48.7937 36.3301 48.7937 36.4783C48.7937 36.6264 51.0335 40.735 53.7715 45.6087C57.8783 52.9196 58.6702 54.5638 58.299 55.008C57.6006 55.8433 52.0219 55.766 51.2888 54.9107C50.9896 54.5609 48.5527 50.3525 45.8736 45.5583C43.1945 40.764 40.9861 36.8146 40.966 36.7815C40.9455 36.7485 38.8023 40.5076 36.203 45.1351C29.7448 56.6315 30.6992 55.5462 27.0485 55.5462C24.8091 55.5462 23.8906 55.4046 23.5592 55.008C23.1879 54.5638 23.9798 52.9196 28.0867 45.6087C30.8246 40.735 33.0644 36.6264 33.0644 36.4783C33.0644 36.3301 30.8422 32.2528 28.1262 27.4179C25.4101 22.583 23.1879 18.4487 23.1879 18.2307C23.1879 17.6108 23.8796 17.4698 27.0756 17.439C29.3417 17.4172 30.1604 17.5443 30.5196 17.974Z" fill="#3498DB"/>
</svg>
