<svg width="127" height="41" viewBox="0 0 127 41" fill="none" xmlns="http://www.w3.org/2000/svg">
<path fill-rule="evenodd" clip-rule="evenodd" d="M117.74 1.76384V3.52769H120.606H123.472V19.6228V35.7178H120.606H117.74V37.2612V38.8046H122.37H127V19.4023V0H122.37H117.74V1.76384ZM0 19.6228V38.8046H4.63021H9.26042V37.2612V35.7178H6.61458H3.96875V19.6228V3.52769H6.61458H9.26042V1.98432V0.440961H4.63021H0V19.6228ZM47.625 19.8071C47.625 26.578 47.5046 32.4318 47.3573 32.8154C47.1399 33.3816 47.4305 33.513 48.9007 33.513C50.5725 33.513 50.7118 33.4217 50.7118 32.3273V31.142L51.6361 32.1341C53.4882 34.122 56.7209 34.51 59.7954 33.114C62.8355 31.7333 64.3819 28.696 64.3819 24.106C64.3819 20.7719 63.1256 18.0155 60.9252 16.5197C58.6775 14.9927 55.0104 14.994 52.7579 16.5228L51.1528 17.612V12.5542V7.49633H49.3889H47.625V19.8071ZM29.5875 8.86287C24.5066 10.412 21.4731 15.0941 21.4784 21.3791C21.4806 24.0716 21.7192 25.4655 22.479 27.2258C24.3977 31.6698 28.7077 34.2724 33.4385 33.8433C37.9143 33.4376 40.9659 31.2566 42.8479 27.1191C44.2313 24.0765 44.278 17.9092 42.9397 14.9927C41.8769 12.6772 39.7576 10.4852 37.5854 9.4542C35.6874 8.55376 31.5943 8.25126 29.5875 8.86287ZM96.1103 8.97884C90.2966 10.5469 87.238 14.8886 87.1793 21.6569C87.1546 24.4605 87.35 25.4227 88.3616 27.4908C90.962 32.8057 96.5337 34.9933 103.607 33.4764C105.454 33.0804 105.832 32.8361 105.827 32.0433C105.813 30.1661 105.384 29.9906 102.16 30.5427C99.5045 30.9973 98.8955 30.9581 96.6757 30.1891C92.3502 28.6907 90.1484 24.3618 91.0365 19.1042C91.9634 13.62 97.0478 10.5072 102.88 11.853C104.092 12.133 105.151 12.2944 105.233 12.212C105.316 12.1295 105.505 11.4526 105.654 10.7074C105.92 9.37836 105.883 9.34396 103.653 8.86552C100.805 8.25479 98.6759 8.28698 96.1103 8.97884ZM68.5438 9.73112C67.7902 10.5641 67.7761 10.7462 68.3802 11.8257C69.5894 13.9873 72.3194 13.455 72.3194 11.0584C72.3194 8.80378 70.0921 8.02064 68.5438 9.73112ZM36.5954 12.7839C39.5905 14.9168 40.9721 20.6731 39.5936 25.2737C37.9827 30.6507 31.7562 32.6077 28.0507 28.9023C23.5792 24.4314 24.4951 15.1232 29.6907 12.23C31.5617 11.1881 34.7085 11.4403 36.5954 12.7839ZM68.3507 25.0691C68.3507 36.3162 67.9137 37.9226 64.852 37.9226C64.105 37.9226 63.941 38.2004 63.941 39.466C63.941 40.8581 64.06 41.0085 65.1536 40.9997C65.8204 40.9944 67.2183 40.6032 68.2594 40.131C69.7667 39.447 70.3456 38.8416 71.0988 37.1642C71.949 35.2707 72.0646 34.0819 72.2357 25.4655L72.4262 15.8746H70.3884H68.3507V25.0691ZM58.5761 19.2621C61.7564 21.2706 61.4887 28.5094 58.1708 30.2252C56.044 31.325 54.3304 31.0463 52.604 29.3199C51.0708 27.7867 51.0584 27.7435 51.2225 24.4905C51.3689 21.5939 51.5369 21.0532 52.6543 19.8869C54.4658 17.9961 56.2698 17.8056 58.5761 19.2621ZM75.4062 23.5914V25.1348H80.0365H84.6667V23.5914V22.048H80.0365H75.4062V23.5914Z" fill="#F1592A"/>
</svg>
