<svg width="66" height="73" viewBox="0 0 66 73" fill="none" xmlns="http://www.w3.org/2000/svg">
<mask id="path-1-outside-1_958_13590" maskUnits="userSpaceOnUse" x="0" y="0" width="66" height="73" fill="black">
<rect fill="white" width="66" height="73"/>
<path fill-rule="evenodd" clip-rule="evenodd" d="M16.4362 1.1923C15.6434 1.48695 15.144 1.90448 14.7287 2.61999C14.4136 3.16291 14.3511 3.43173 14.3511 4.24471C14.3511 5.21794 14.353 5.2228 16.3735 9.40117C17.4859 11.7014 18.3959 13.6268 18.3959 13.6797C18.3959 13.7326 18.0941 14.1302 17.7253 14.5633C15.0463 17.7092 13.1856 22.6844 13.1856 26.7024C13.1856 27.5404 13.2362 27.7808 13.4652 28.0296L13.7448 28.3336H32.9799H52.2148L52.5131 28.0122C52.7605 27.7452 52.8107 27.5275 52.8087 26.7279C52.7984 22.7153 51.0117 17.9093 48.3103 14.6279C47.9201 14.1538 47.5998 13.7165 47.5984 13.6559C47.597 13.5952 48.507 11.6713 49.6208 9.38034C51.6449 5.21669 51.6457 5.2146 51.6457 4.24277C51.6457 3.4377 51.5823 3.16138 51.2773 2.63596C50.3276 1.00013 48.2417 0.519971 46.6791 1.57748C46.0538 2.0007 45.9385 2.19246 44.1362 5.80556L42.2484 9.59043L41.536 9.22483C38.9221 7.88337 35.1234 7.09759 32.1072 7.27422C29.373 7.43431 26.5929 8.13566 24.548 9.18095C23.908 9.50823 23.6702 9.5746 23.6255 9.4388C23.5923 9.33813 22.7743 7.64815 21.8075 5.68337C20.3958 2.81438 19.9545 2.03736 19.5659 1.73716C18.6204 1.00679 17.4727 0.806981 16.4362 1.1923ZM18.0963 3.28204C18.2776 3.41062 19.1404 4.98799 20.1727 7.0776L21.9392 10.6534L20.9783 11.3815C20.4497 11.7821 19.9985 12.0892 19.9753 12.0641C19.7718 11.8428 16.3392 4.45758 16.3392 4.2411C16.3392 3.67972 16.9555 3.09709 17.5769 3.07099C17.6922 3.06626 17.9259 3.1611 18.0963 3.28204ZM49.3491 3.55586C49.5188 3.75109 49.6576 4.05518 49.6576 4.23166C49.6576 4.40814 48.8604 6.18602 47.8861 8.18259C46.9117 10.1792 46.0895 11.8889 46.0588 11.9822C46.0243 12.0867 45.6329 11.866 45.038 11.4065L44.0728 10.6611L45.7141 7.24353C47.5098 3.50407 47.881 2.97573 48.6123 3.11764C48.8479 3.16346 49.1793 3.36049 49.3491 3.55586ZM36.5268 9.73956C43.4514 11.1388 49.0666 16.858 50.3934 23.8632C50.5046 24.4508 50.6302 25.2284 50.6725 25.5912L50.7492 26.2508H32.9945H15.24L15.3251 25.4523C15.6587 22.3301 16.9388 19.0644 18.8204 16.5356C22.9339 11.0073 29.7857 8.37741 36.5268 9.73956ZM22.849 17.6239C21.649 18.176 20.9517 19.2809 20.9533 20.6272C20.9569 23.4579 24.1674 24.9111 26.2722 23.0349C28.4663 21.0792 27.0798 17.3702 24.1546 17.3702C23.717 17.3702 23.1691 17.4767 22.849 17.6239ZM40.5396 17.625C39.3551 18.1753 38.6392 19.3135 38.6481 20.6327C38.6669 23.4566 41.8644 24.9028 43.9597 23.0349C46.1702 21.0644 44.7892 17.3702 41.8421 17.3702C41.4013 17.3702 40.8601 17.4761 40.5396 17.625ZM24.9149 19.7878C25.4764 20.3563 25.3589 21.2558 24.6765 21.6131C24.1538 21.8869 23.5291 21.7516 23.238 21.3019C22.4819 20.1329 23.9483 18.8088 24.9149 19.7878ZM42.483 19.653C43.1845 20.1506 43.076 21.3782 42.3043 21.6754C41.4725 21.9957 40.6908 21.4249 40.7164 20.5156C40.7402 19.6701 41.7868 19.1591 42.483 19.653ZM4.1118 31.1571C2.7341 31.7428 1.78624 32.7116 1.27769 34.0536C1.07682 34.5836 1.04693 35.6882 1.01306 43.7972C0.971791 53.7018 0.985914 53.929 1.71384 55.0945C4.18804 59.0564 10.0626 57.7945 10.7245 53.159C10.8911 51.9929 10.8891 36.1239 10.7224 35.0928C10.4439 33.3706 9.43945 31.9723 7.97536 31.2689C6.87956 30.7425 5.20116 30.6939 4.1118 31.1571ZM13.4599 31.1106C13.1893 31.3846 13.1856 31.5734 13.1856 45.2495V59.1105L13.5029 59.4125C13.804 59.6989 13.9446 59.7144 16.2347 59.7144H18.6492L18.694 63.9842L18.7387 68.2539L19.1226 69.087C19.6243 70.176 20.5549 71.1214 21.603 71.6065C22.3094 71.9337 22.6234 71.9946 23.6062 71.9957C24.5793 71.9967 24.9001 71.9364 25.5498 71.6305C27.0994 70.9009 28.1328 69.5262 28.4072 67.8297C28.4805 67.3757 28.541 65.3641 28.5414 63.3593L28.5422 59.7144H32.9878H37.4334L37.4831 63.9147C37.5302 67.8916 37.5494 68.1571 37.8438 68.9068C38.2782 70.0126 39.1911 70.9918 40.3057 71.5474C41.1241 71.9555 41.3411 72.0027 42.3877 71.9999C43.3583 71.9974 43.6877 71.9349 44.3342 71.6305C45.8594 70.9124 46.8865 69.5958 47.1776 67.9854C47.261 67.5246 47.3266 65.52 47.3266 63.4379V59.7144H49.7708C52.1483 59.7144 52.2231 59.7057 52.5131 59.3931L52.8111 59.0717V45.2562C52.8111 31.5447 52.8091 31.4385 52.5316 31.1369C52.2597 30.8412 52.1659 30.8329 49.1038 30.8329C46.1383 30.8329 45.9396 30.849 45.6813 31.1106C45.3858 31.4098 45.3255 31.9465 45.5413 32.3549C45.7718 32.791 46.4628 32.9157 48.6496 32.9157H50.7545V45.2737V57.6316H48.3735C46.1898 57.6316 45.9632 57.6549 45.6393 57.9129L45.2861 58.1943L45.2438 63.0158C45.2032 67.6363 45.1892 67.8605 44.9074 68.3928C44.5394 69.0883 44.2603 69.345 43.485 69.7012C42.7066 70.0587 42.0746 70.0587 41.2962 69.7012C40.5209 69.345 40.2418 69.0883 39.8738 68.3928C39.592 67.8605 39.578 67.6363 39.5374 63.0158L39.495 58.1943L39.1418 57.9129C38.7999 57.6405 38.606 57.6316 32.9984 57.6316C27.3912 57.6316 27.1969 57.6405 26.8549 57.9129L26.5019 58.1941L26.4595 62.9464C26.4175 67.6364 26.4127 67.7074 26.0887 68.3737C25.724 69.1241 24.8597 69.7823 24.0329 69.9394C22.9578 70.1437 21.6564 69.4687 21.1026 68.4194C20.8055 67.8566 20.793 67.6766 20.7268 62.9997L20.6583 58.162L20.3345 57.8968C20.0437 57.6586 19.7691 57.6316 17.6266 57.6316H15.2423V45.2737V32.9157H28.2591C36.9334 32.9157 41.4009 32.8675 41.6506 32.7714C42.4191 32.4755 42.6289 31.6634 42.0733 31.1348L41.7559 30.8329H27.7451C13.9169 30.8329 13.7305 30.8365 13.4599 31.1106ZM58.2685 31.1649C56.6186 31.8521 55.5947 33.1701 55.2793 35.0127C55.1756 35.6185 55.1405 38.7052 55.1689 44.7183L55.2107 53.5354L55.5289 54.3334C55.9752 55.4527 56.9805 56.5226 58.0377 57.003C60.5779 58.1575 63.3707 57.0891 64.5614 54.5074L64.9456 53.6743L64.9855 44.5354C65.0299 34.3294 65.0294 34.3216 64.1076 32.9579C63.5198 32.0883 62.8927 31.5837 61.8715 31.1582C60.807 30.7148 59.3428 30.7174 58.2685 31.1649ZM6.98376 33.1307C7.63176 33.4048 8.07024 33.8212 8.40288 34.478C8.65653 34.9787 8.66517 35.3548 8.62952 44.2773L8.59237 53.5559L8.20653 54.1463C7.75132 54.8427 6.69322 55.4082 5.85012 55.4055C4.69823 55.402 3.47615 54.4547 3.17834 53.3342C3.07921 52.9618 3.04397 49.8801 3.06975 43.8557C3.11143 34.0862 3.0692 34.5896 3.92081 33.727C4.70824 32.9297 5.94143 32.6895 6.98376 33.1307ZM61.6752 33.416C62.3679 33.9836 62.678 34.4319 62.8262 35.0786C63.0119 35.8895 62.9935 52.5038 62.8061 53.2576C62.187 55.7471 58.8658 56.1427 57.6101 53.8765L57.2673 53.2577L57.2271 44.6777C57.2011 39.0989 57.2374 35.8216 57.3311 35.3084C57.6097 33.7822 58.777 32.858 60.313 32.9478C61.014 32.9888 61.2552 33.0716 61.6752 33.416Z"/>
</mask>
<path fill-rule="evenodd" clip-rule="evenodd" d="M16.4362 1.1923C15.6434 1.48695 15.144 1.90448 14.7287 2.61999C14.4136 3.16291 14.3511 3.43173 14.3511 4.24471C14.3511 5.21794 14.353 5.2228 16.3735 9.40117C17.4859 11.7014 18.3959 13.6268 18.3959 13.6797C18.3959 13.7326 18.0941 14.1302 17.7253 14.5633C15.0463 17.7092 13.1856 22.6844 13.1856 26.7024C13.1856 27.5404 13.2362 27.7808 13.4652 28.0296L13.7448 28.3336H32.9799H52.2148L52.5131 28.0122C52.7605 27.7452 52.8107 27.5275 52.8087 26.7279C52.7984 22.7153 51.0117 17.9093 48.3103 14.6279C47.9201 14.1538 47.5998 13.7165 47.5984 13.6559C47.597 13.5952 48.507 11.6713 49.6208 9.38034C51.6449 5.21669 51.6457 5.2146 51.6457 4.24277C51.6457 3.4377 51.5823 3.16138 51.2773 2.63596C50.3276 1.00013 48.2417 0.519971 46.6791 1.57748C46.0538 2.0007 45.9385 2.19246 44.1362 5.80556L42.2484 9.59043L41.536 9.22483C38.9221 7.88337 35.1234 7.09759 32.1072 7.27422C29.373 7.43431 26.5929 8.13566 24.548 9.18095C23.908 9.50823 23.6702 9.5746 23.6255 9.4388C23.5923 9.33813 22.7743 7.64815 21.8075 5.68337C20.3958 2.81438 19.9545 2.03736 19.5659 1.73716C18.6204 1.00679 17.4727 0.806981 16.4362 1.1923ZM18.0963 3.28204C18.2776 3.41062 19.1404 4.98799 20.1727 7.0776L21.9392 10.6534L20.9783 11.3815C20.4497 11.7821 19.9985 12.0892 19.9753 12.0641C19.7718 11.8428 16.3392 4.45758 16.3392 4.2411C16.3392 3.67972 16.9555 3.09709 17.5769 3.07099C17.6922 3.06626 17.9259 3.1611 18.0963 3.28204ZM49.3491 3.55586C49.5188 3.75109 49.6576 4.05518 49.6576 4.23166C49.6576 4.40814 48.8604 6.18602 47.8861 8.18259C46.9117 10.1792 46.0895 11.8889 46.0588 11.9822C46.0243 12.0867 45.6329 11.866 45.038 11.4065L44.0728 10.6611L45.7141 7.24353C47.5098 3.50407 47.881 2.97573 48.6123 3.11764C48.8479 3.16346 49.1793 3.36049 49.3491 3.55586ZM36.5268 9.73956C43.4514 11.1388 49.0666 16.858 50.3934 23.8632C50.5046 24.4508 50.6302 25.2284 50.6725 25.5912L50.7492 26.2508H32.9945H15.24L15.3251 25.4523C15.6587 22.3301 16.9388 19.0644 18.8204 16.5356C22.9339 11.0073 29.7857 8.37741 36.5268 9.73956ZM22.849 17.6239C21.649 18.176 20.9517 19.2809 20.9533 20.6272C20.9569 23.4579 24.1674 24.9111 26.2722 23.0349C28.4663 21.0792 27.0798 17.3702 24.1546 17.3702C23.717 17.3702 23.1691 17.4767 22.849 17.6239ZM40.5396 17.625C39.3551 18.1753 38.6392 19.3135 38.6481 20.6327C38.6669 23.4566 41.8644 24.9028 43.9597 23.0349C46.1702 21.0644 44.7892 17.3702 41.8421 17.3702C41.4013 17.3702 40.8601 17.4761 40.5396 17.625ZM24.9149 19.7878C25.4764 20.3563 25.3589 21.2558 24.6765 21.6131C24.1538 21.8869 23.5291 21.7516 23.238 21.3019C22.4819 20.1329 23.9483 18.8088 24.9149 19.7878ZM42.483 19.653C43.1845 20.1506 43.076 21.3782 42.3043 21.6754C41.4725 21.9957 40.6908 21.4249 40.7164 20.5156C40.7402 19.6701 41.7868 19.1591 42.483 19.653ZM4.1118 31.1571C2.7341 31.7428 1.78624 32.7116 1.27769 34.0536C1.07682 34.5836 1.04693 35.6882 1.01306 43.7972C0.971791 53.7018 0.985914 53.929 1.71384 55.0945C4.18804 59.0564 10.0626 57.7945 10.7245 53.159C10.8911 51.9929 10.8891 36.1239 10.7224 35.0928C10.4439 33.3706 9.43945 31.9723 7.97536 31.2689C6.87956 30.7425 5.20116 30.6939 4.1118 31.1571ZM13.4599 31.1106C13.1893 31.3846 13.1856 31.5734 13.1856 45.2495V59.1105L13.5029 59.4125C13.804 59.6989 13.9446 59.7144 16.2347 59.7144H18.6492L18.694 63.9842L18.7387 68.2539L19.1226 69.087C19.6243 70.176 20.5549 71.1214 21.603 71.6065C22.3094 71.9337 22.6234 71.9946 23.6062 71.9957C24.5793 71.9967 24.9001 71.9364 25.5498 71.6305C27.0994 70.9009 28.1328 69.5262 28.4072 67.8297C28.4805 67.3757 28.541 65.3641 28.5414 63.3593L28.5422 59.7144H32.9878H37.4334L37.4831 63.9147C37.5302 67.8916 37.5494 68.1571 37.8438 68.9068C38.2782 70.0126 39.1911 70.9918 40.3057 71.5474C41.1241 71.9555 41.3411 72.0027 42.3877 71.9999C43.3583 71.9974 43.6877 71.9349 44.3342 71.6305C45.8594 70.9124 46.8865 69.5958 47.1776 67.9854C47.261 67.5246 47.3266 65.52 47.3266 63.4379V59.7144H49.7708C52.1483 59.7144 52.2231 59.7057 52.5131 59.3931L52.8111 59.0717V45.2562C52.8111 31.5447 52.8091 31.4385 52.5316 31.1369C52.2597 30.8412 52.1659 30.8329 49.1038 30.8329C46.1383 30.8329 45.9396 30.849 45.6813 31.1106C45.3858 31.4098 45.3255 31.9465 45.5413 32.3549C45.7718 32.791 46.4628 32.9157 48.6496 32.9157H50.7545V45.2737V57.6316H48.3735C46.1898 57.6316 45.9632 57.6549 45.6393 57.9129L45.2861 58.1943L45.2438 63.0158C45.2032 67.6363 45.1892 67.8605 44.9074 68.3928C44.5394 69.0883 44.2603 69.345 43.485 69.7012C42.7066 70.0587 42.0746 70.0587 41.2962 69.7012C40.5209 69.345 40.2418 69.0883 39.8738 68.3928C39.592 67.8605 39.578 67.6363 39.5374 63.0158L39.495 58.1943L39.1418 57.9129C38.7999 57.6405 38.606 57.6316 32.9984 57.6316C27.3912 57.6316 27.1969 57.6405 26.8549 57.9129L26.5019 58.1941L26.4595 62.9464C26.4175 67.6364 26.4127 67.7074 26.0887 68.3737C25.724 69.1241 24.8597 69.7823 24.0329 69.9394C22.9578 70.1437 21.6564 69.4687 21.1026 68.4194C20.8055 67.8566 20.793 67.6766 20.7268 62.9997L20.6583 58.162L20.3345 57.8968C20.0437 57.6586 19.7691 57.6316 17.6266 57.6316H15.2423V45.2737V32.9157H28.2591C36.9334 32.9157 41.4009 32.8675 41.6506 32.7714C42.4191 32.4755 42.6289 31.6634 42.0733 31.1348L41.7559 30.8329H27.7451C13.9169 30.8329 13.7305 30.8365 13.4599 31.1106ZM58.2685 31.1649C56.6186 31.8521 55.5947 33.1701 55.2793 35.0127C55.1756 35.6185 55.1405 38.7052 55.1689 44.7183L55.2107 53.5354L55.5289 54.3334C55.9752 55.4527 56.9805 56.5226 58.0377 57.003C60.5779 58.1575 63.3707 57.0891 64.5614 54.5074L64.9456 53.6743L64.9855 44.5354C65.0299 34.3294 65.0294 34.3216 64.1076 32.9579C63.5198 32.0883 62.8927 31.5837 61.8715 31.1582C60.807 30.7148 59.3428 30.7174 58.2685 31.1649ZM6.98376 33.1307C7.63176 33.4048 8.07024 33.8212 8.40288 34.478C8.65653 34.9787 8.66517 35.3548 8.62952 44.2773L8.59237 53.5559L8.20653 54.1463C7.75132 54.8427 6.69322 55.4082 5.85012 55.4055C4.69823 55.402 3.47615 54.4547 3.17834 53.3342C3.07921 52.9618 3.04397 49.8801 3.06975 43.8557C3.11143 34.0862 3.0692 34.5896 3.92081 33.727C4.70824 32.9297 5.94143 32.6895 6.98376 33.1307ZM61.6752 33.416C62.3679 33.9836 62.678 34.4319 62.8262 35.0786C63.0119 35.8895 62.9935 52.5038 62.8061 53.2576C62.187 55.7471 58.8658 56.1427 57.6101 53.8765L57.2673 53.2577L57.2271 44.6777C57.2011 39.0989 57.2374 35.8216 57.3311 35.3084C57.6097 33.7822 58.777 32.858 60.313 32.9478C61.014 32.9888 61.2552 33.0716 61.6752 33.416Z" fill="#E49B00"/>
<path fill-rule="evenodd" clip-rule="evenodd" d="M16.4362 1.1923C15.6434 1.48695 15.144 1.90448 14.7287 2.61999C14.4136 3.16291 14.3511 3.43173 14.3511 4.24471C14.3511 5.21794 14.353 5.2228 16.3735 9.40117C17.4859 11.7014 18.3959 13.6268 18.3959 13.6797C18.3959 13.7326 18.0941 14.1302 17.7253 14.5633C15.0463 17.7092 13.1856 22.6844 13.1856 26.7024C13.1856 27.5404 13.2362 27.7808 13.4652 28.0296L13.7448 28.3336H32.9799H52.2148L52.5131 28.0122C52.7605 27.7452 52.8107 27.5275 52.8087 26.7279C52.7984 22.7153 51.0117 17.9093 48.3103 14.6279C47.9201 14.1538 47.5998 13.7165 47.5984 13.6559C47.597 13.5952 48.507 11.6713 49.6208 9.38034C51.6449 5.21669 51.6457 5.2146 51.6457 4.24277C51.6457 3.4377 51.5823 3.16138 51.2773 2.63596C50.3276 1.00013 48.2417 0.519971 46.6791 1.57748C46.0538 2.0007 45.9385 2.19246 44.1362 5.80556L42.2484 9.59043L41.536 9.22483C38.9221 7.88337 35.1234 7.09759 32.1072 7.27422C29.373 7.43431 26.5929 8.13566 24.548 9.18095C23.908 9.50823 23.6702 9.5746 23.6255 9.4388C23.5923 9.33813 22.7743 7.64815 21.8075 5.68337C20.3958 2.81438 19.9545 2.03736 19.5659 1.73716C18.6204 1.00679 17.4727 0.806981 16.4362 1.1923ZM18.0963 3.28204C18.2776 3.41062 19.1404 4.98799 20.1727 7.0776L21.9392 10.6534L20.9783 11.3815C20.4497 11.7821 19.9985 12.0892 19.9753 12.0641C19.7718 11.8428 16.3392 4.45758 16.3392 4.2411C16.3392 3.67972 16.9555 3.09709 17.5769 3.07099C17.6922 3.06626 17.9259 3.1611 18.0963 3.28204ZM49.3491 3.55586C49.5188 3.75109 49.6576 4.05518 49.6576 4.23166C49.6576 4.40814 48.8604 6.18602 47.8861 8.18259C46.9117 10.1792 46.0895 11.8889 46.0588 11.9822C46.0243 12.0867 45.6329 11.866 45.038 11.4065L44.0728 10.6611L45.7141 7.24353C47.5098 3.50407 47.881 2.97573 48.6123 3.11764C48.8479 3.16346 49.1793 3.36049 49.3491 3.55586ZM36.5268 9.73956C43.4514 11.1388 49.0666 16.858 50.3934 23.8632C50.5046 24.4508 50.6302 25.2284 50.6725 25.5912L50.7492 26.2508H32.9945H15.24L15.3251 25.4523C15.6587 22.3301 16.9388 19.0644 18.8204 16.5356C22.9339 11.0073 29.7857 8.37741 36.5268 9.73956ZM22.849 17.6239C21.649 18.176 20.9517 19.2809 20.9533 20.6272C20.9569 23.4579 24.1674 24.9111 26.2722 23.0349C28.4663 21.0792 27.0798 17.3702 24.1546 17.3702C23.717 17.3702 23.1691 17.4767 22.849 17.6239ZM40.5396 17.625C39.3551 18.1753 38.6392 19.3135 38.6481 20.6327C38.6669 23.4566 41.8644 24.9028 43.9597 23.0349C46.1702 21.0644 44.7892 17.3702 41.8421 17.3702C41.4013 17.3702 40.8601 17.4761 40.5396 17.625ZM24.9149 19.7878C25.4764 20.3563 25.3589 21.2558 24.6765 21.6131C24.1538 21.8869 23.5291 21.7516 23.238 21.3019C22.4819 20.1329 23.9483 18.8088 24.9149 19.7878ZM42.483 19.653C43.1845 20.1506 43.076 21.3782 42.3043 21.6754C41.4725 21.9957 40.6908 21.4249 40.7164 20.5156C40.7402 19.6701 41.7868 19.1591 42.483 19.653ZM4.1118 31.1571C2.7341 31.7428 1.78624 32.7116 1.27769 34.0536C1.07682 34.5836 1.04693 35.6882 1.01306 43.7972C0.971791 53.7018 0.985914 53.929 1.71384 55.0945C4.18804 59.0564 10.0626 57.7945 10.7245 53.159C10.8911 51.9929 10.8891 36.1239 10.7224 35.0928C10.4439 33.3706 9.43945 31.9723 7.97536 31.2689C6.87956 30.7425 5.20116 30.6939 4.1118 31.1571ZM13.4599 31.1106C13.1893 31.3846 13.1856 31.5734 13.1856 45.2495V59.1105L13.5029 59.4125C13.804 59.6989 13.9446 59.7144 16.2347 59.7144H18.6492L18.694 63.9842L18.7387 68.2539L19.1226 69.087C19.6243 70.176 20.5549 71.1214 21.603 71.6065C22.3094 71.9337 22.6234 71.9946 23.6062 71.9957C24.5793 71.9967 24.9001 71.9364 25.5498 71.6305C27.0994 70.9009 28.1328 69.5262 28.4072 67.8297C28.4805 67.3757 28.541 65.3641 28.5414 63.3593L28.5422 59.7144H32.9878H37.4334L37.4831 63.9147C37.5302 67.8916 37.5494 68.1571 37.8438 68.9068C38.2782 70.0126 39.1911 70.9918 40.3057 71.5474C41.1241 71.9555 41.3411 72.0027 42.3877 71.9999C43.3583 71.9974 43.6877 71.9349 44.3342 71.6305C45.8594 70.9124 46.8865 69.5958 47.1776 67.9854C47.261 67.5246 47.3266 65.52 47.3266 63.4379V59.7144H49.7708C52.1483 59.7144 52.2231 59.7057 52.5131 59.3931L52.8111 59.0717V45.2562C52.8111 31.5447 52.8091 31.4385 52.5316 31.1369C52.2597 30.8412 52.1659 30.8329 49.1038 30.8329C46.1383 30.8329 45.9396 30.849 45.6813 31.1106C45.3858 31.4098 45.3255 31.9465 45.5413 32.3549C45.7718 32.791 46.4628 32.9157 48.6496 32.9157H50.7545V45.2737V57.6316H48.3735C46.1898 57.6316 45.9632 57.6549 45.6393 57.9129L45.2861 58.1943L45.2438 63.0158C45.2032 67.6363 45.1892 67.8605 44.9074 68.3928C44.5394 69.0883 44.2603 69.345 43.485 69.7012C42.7066 70.0587 42.0746 70.0587 41.2962 69.7012C40.5209 69.345 40.2418 69.0883 39.8738 68.3928C39.592 67.8605 39.578 67.6363 39.5374 63.0158L39.495 58.1943L39.1418 57.9129C38.7999 57.6405 38.606 57.6316 32.9984 57.6316C27.3912 57.6316 27.1969 57.6405 26.8549 57.9129L26.5019 58.1941L26.4595 62.9464C26.4175 67.6364 26.4127 67.7074 26.0887 68.3737C25.724 69.1241 24.8597 69.7823 24.0329 69.9394C22.9578 70.1437 21.6564 69.4687 21.1026 68.4194C20.8055 67.8566 20.793 67.6766 20.7268 62.9997L20.6583 58.162L20.3345 57.8968C20.0437 57.6586 19.7691 57.6316 17.6266 57.6316H15.2423V45.2737V32.9157H28.2591C36.9334 32.9157 41.4009 32.8675 41.6506 32.7714C42.4191 32.4755 42.6289 31.6634 42.0733 31.1348L41.7559 30.8329H27.7451C13.9169 30.8329 13.7305 30.8365 13.4599 31.1106ZM58.2685 31.1649C56.6186 31.8521 55.5947 33.1701 55.2793 35.0127C55.1756 35.6185 55.1405 38.7052 55.1689 44.7183L55.2107 53.5354L55.5289 54.3334C55.9752 55.4527 56.9805 56.5226 58.0377 57.003C60.5779 58.1575 63.3707 57.0891 64.5614 54.5074L64.9456 53.6743L64.9855 44.5354C65.0299 34.3294 65.0294 34.3216 64.1076 32.9579C63.5198 32.0883 62.8927 31.5837 61.8715 31.1582C60.807 30.7148 59.3428 30.7174 58.2685 31.1649ZM6.98376 33.1307C7.63176 33.4048 8.07024 33.8212 8.40288 34.478C8.65653 34.9787 8.66517 35.3548 8.62952 44.2773L8.59237 53.5559L8.20653 54.1463C7.75132 54.8427 6.69322 55.4082 5.85012 55.4055C4.69823 55.402 3.47615 54.4547 3.17834 53.3342C3.07921 52.9618 3.04397 49.8801 3.06975 43.8557C3.11143 34.0862 3.0692 34.5896 3.92081 33.727C4.70824 32.9297 5.94143 32.6895 6.98376 33.1307ZM61.6752 33.416C62.3679 33.9836 62.678 34.4319 62.8262 35.0786C63.0119 35.8895 62.9935 52.5038 62.8061 53.2576C62.187 55.7471 58.8658 56.1427 57.6101 53.8765L57.2673 53.2577L57.2271 44.6777C57.2011 39.0989 57.2374 35.8216 57.3311 35.3084C57.6097 33.7822 58.777 32.858 60.313 32.9478C61.014 32.9888 61.2552 33.0716 61.6752 33.416Z" stroke="#E49B00" mask="url(#path-1-outside-1_958_13590)"/>
</svg>
