<svg width="68" height="71" viewBox="0 0 68 71" fill="none" xmlns="http://www.w3.org/2000/svg">
<path fill-rule="evenodd" clip-rule="evenodd" d="M32.0671 0.405509C31.6854 0.79007 31.6647 0.87206 31.6647 1.98912V3.16708L31.0603 3.50738L30.4559 3.84783L29.788 3.42886C28.7937 2.80541 28.353 2.65794 27.8783 2.78987C27.4138 2.91889 27.4868 2.81706 25.9045 5.5452C24.3679 8.19453 24.3762 8.46658 26.0218 9.43506L26.9833 10.0008V10.6624V11.3239L26.1566 11.7924C25.1209 12.3793 24.766 12.756 24.7511 13.2839C24.7372 13.7744 27.1054 18.0498 27.5744 18.3808C28.0431 18.7115 28.5021 18.6304 29.5049 18.0401L30.4388 17.4902L31.0517 17.7902L31.6647 18.0903V19.3175C31.6647 20.4263 31.6965 20.5766 31.9934 20.876C32.4478 21.3338 32.9297 21.3954 35.6358 21.3417C38.6045 21.2829 38.5838 21.2962 38.6867 19.3863L38.7555 18.1083L39.3254 17.7923L39.8952 17.4763L40.8537 18.033C41.9992 18.6985 42.4915 18.7392 42.9773 18.2084C43.4063 17.7395 45.5197 14.0583 45.6422 13.5662C45.7916 12.9664 45.4088 12.4627 44.3459 11.8603L43.3687 11.3065L43.3683 10.6544L43.368 10.0022L44.2415 9.50997C46.0231 8.50612 46.0316 8.27444 44.3904 5.43435C43.7145 4.26471 43.0507 3.18775 42.9152 3.04125C42.5184 2.61174 41.7796 2.70552 40.7666 3.31385L39.8862 3.84256L39.2865 3.50489L38.6867 3.16708L38.6823 1.96512C38.6753 0.0428677 38.5972 0 35.1053 0H32.4696L32.0671 0.405509ZM36.346 3.29859C36.346 4.45297 36.5147 4.72571 37.5607 5.26371C37.9907 5.48485 38.5559 5.82682 38.8167 6.02368C39.4444 6.49744 40.0214 6.48121 40.8897 5.96541C41.2749 5.7365 41.634 5.54963 41.6874 5.55019C41.7409 5.55061 42.0245 5.99482 42.3178 6.53726C42.908 7.62934 42.9449 7.51045 41.8218 8.13904C41.4637 8.3395 41.1298 8.6332 41.08 8.79177C41.03 8.9502 40.9877 9.8432 40.9859 10.7763C40.9823 12.7062 40.9888 12.721 42.0899 13.3471C42.49 13.5746 42.8173 13.7927 42.8173 13.8318C42.8173 13.9936 41.7765 15.8135 41.6834 15.8143C41.6278 15.8149 41.2802 15.628 40.9109 15.3991C40.064 14.874 39.4539 14.8583 38.8167 15.3454C38.5559 15.5449 38.0186 15.8609 37.6228 16.0478C36.5714 16.5442 36.346 16.8983 36.346 18.0537V19.0061H35.1757H34.0053V18.0258C34.0053 17.4867 33.941 16.9246 33.8624 16.7767C33.7839 16.6286 33.3347 16.3119 32.8642 16.0726C32.3938 15.8334 31.823 15.4952 31.5958 15.3211C30.8652 14.7612 30.5312 14.7606 29.5418 15.3182L28.6507 15.8204L28.0924 14.8572C27.7853 14.3274 27.534 13.8626 27.534 13.8244C27.534 13.7861 27.8675 13.5624 28.2752 13.3274C28.6828 13.0924 29.0993 12.7995 29.2006 12.6765C29.4249 12.4042 29.5037 9.41425 29.301 8.86196C29.217 8.63306 28.8667 8.3248 28.3549 8.02958C27.908 7.77182 27.5404 7.51947 27.5382 7.46897C27.5358 7.41847 27.785 6.93846 28.0918 6.40227L28.6497 5.42741L29.4343 5.90409C29.8659 6.16629 30.3824 6.38105 30.5822 6.38118C30.7819 6.38146 31.2603 6.16338 31.6451 5.8966C32.0301 5.62982 32.5958 5.31046 32.9023 5.18685C33.7681 4.83781 34.0053 4.43424 34.0053 3.3108V2.35842H35.1757H36.346V3.29859ZM10.5943 4.92715C9.77338 5.18574 8.95634 5.90687 8.53461 6.74521C8.22467 7.36131 8.18942 7.61589 8.1433 9.57823C8.10282 11.3004 8.13559 11.8381 8.30618 12.2498C8.65536 13.0916 9.56795 13.2604 10.1816 12.5966C10.4348 12.3227 10.4608 12.1119 10.4608 10.33C10.4608 9.2493 10.5296 8.16678 10.6134 7.92414C10.897 7.10453 11.0809 7.07525 15.9427 7.07525H20.3367L20.6998 6.70956C21.1575 6.24828 21.1688 5.68892 20.7306 5.17548L20.3984 4.7862L15.8083 4.75845C12.1738 4.73654 11.0883 4.77163 10.5943 4.92715ZM34.0305 7.33912C31.1245 8.35032 30.8658 12.4087 33.6191 13.7912C36.5368 15.2562 39.7316 12.1812 38.3627 9.22558C37.9399 8.31259 37.0978 7.56234 36.1915 7.29112C35.2748 7.01685 34.9347 7.02448 34.0305 7.33912ZM36.0362 9.93213C36.6836 10.6623 36.1648 11.7921 35.1823 11.7921C33.9637 11.7921 33.6054 10.1756 34.6979 9.60778C35.144 9.37596 35.6522 9.49915 36.0362 9.93213ZM47.6855 9.57129C46.9832 9.8568 46.7366 10.8046 47.2109 11.3952L47.474 11.7227L53.4412 11.7921C59.1284 11.8583 59.4376 11.875 60.0282 12.1517C60.908 12.5637 61.428 13.0488 61.821 13.8239L62.1623 14.4973L62.2312 32.9955L62.3 51.4936L62.6251 51.7588C63.2863 52.2982 64.306 51.9734 64.5041 51.1603C64.5464 50.9868 64.5621 42.6041 64.5388 32.5323C64.4919 12.1181 64.5709 13.7142 63.5291 12.1329C62.6186 10.7505 61.1203 9.80908 59.4419 9.56449C58.3485 9.40523 48.0794 9.41106 47.6855 9.57129ZM47.5014 16.6871C46.8156 17.0368 46.6706 17.9083 47.1996 18.501C47.3263 18.6429 47.7838 18.9391 48.2163 19.1594C48.6489 19.3795 49.0672 19.6807 49.1457 19.8287C49.2297 19.9868 49.2886 21.1568 49.2886 22.6655C49.2886 25.1672 49.297 25.2434 49.6149 25.6157C50.0723 26.1515 50.8456 26.1515 51.303 25.6157C51.6221 25.2419 51.6293 25.1739 51.6293 22.5387C51.6293 20.3602 51.5855 19.7305 51.401 19.2516C51.0093 18.2349 50.3787 17.5866 49.2341 17.024C48.0736 16.4536 47.991 16.4375 47.5014 16.6871ZM6.7433 16.9345C4.94097 17.4087 2.50405 18.8087 1.85458 19.743C1.53556 20.2019 1.59545 20.9071 1.9869 21.3014C2.51465 21.8333 2.98706 21.7481 3.98487 20.9412C5.66369 19.5836 7.2548 19.0061 9.31584 19.0061C11.392 19.0061 13.1218 19.6376 14.6785 20.9638C15.3113 21.5028 15.5767 21.642 15.9727 21.642C16.629 21.642 17.0698 21.1834 17.0698 20.501C17.0698 20.0919 16.9605 19.8973 16.4621 19.4185C15.1341 18.1433 13.1682 17.1329 11.3649 16.799C10.076 16.5603 7.92658 16.6234 6.7433 16.9345ZM7.45652 21.629C6.50551 21.9635 5.26867 22.8266 5.00555 23.3393C4.59827 24.1329 5.14145 25.0177 6.03572 25.0177C6.24033 25.0177 6.73572 24.7904 7.13639 24.5127C8.62479 23.4812 10.1871 23.4725 11.5091 24.4884C12.166 24.9934 12.599 25.1282 13.0313 24.9626C13.539 24.7681 13.7558 24.4354 13.7609 23.843C13.7646 23.4257 13.6676 23.25 13.1971 22.8219C12.8847 22.5373 12.2186 22.1086 11.717 21.8692C10.9193 21.4884 10.6411 21.43 9.49704 21.4026C8.51464 21.3792 8.00671 21.4355 7.45652 21.629ZM8.5777 26.3935C8.18116 26.8373 8.1108 27.1229 8.27865 27.6076C8.47981 28.1895 9.10642 28.5073 9.66502 28.3111C10.2098 28.1198 10.4511 27.7872 10.4564 27.2196C10.4658 26.2413 9.20776 25.6882 8.5777 26.3935ZM23.1969 28.7667C22.3421 29.1725 21.7966 29.7113 21.4211 30.5207C21.1408 31.125 21.1304 31.3663 21.0924 38.0413L21.053 44.9374L13.5884 44.9778L6.1237 45.018L5.45193 45.3637C5.08252 45.5538 4.56991 45.9568 4.31298 46.2594C3.45781 47.2659 3.43881 47.454 3.43881 54.8931V61.5963H2.05574C0.757903 61.5963 0.65092 61.6181 0.322537 61.949C-0.0156227 62.2897 -0.0258115 62.3516 0.0190745 63.7872C0.0581776 65.04 0.119311 65.3794 0.409693 65.9538C0.889394 66.9032 1.79111 67.7916 2.72008 68.2303L3.50765 68.6022H16.3814H29.2551L30.0427 68.2303C30.9717 67.7916 31.8734 66.9032 32.3531 65.9538C32.6435 65.3794 32.7046 65.04 32.7437 63.7872C32.7886 62.3516 32.7784 62.2897 32.4402 61.949C32.1119 61.6181 32.0049 61.5963 30.707 61.5963H29.324V58.0587V54.5211H31.5958C32.8453 54.5211 33.8676 54.5541 33.8676 54.5945C33.8676 54.6348 33.372 55.3313 32.7661 56.142C31.5505 57.7687 31.4445 58.1322 31.997 58.7793L32.3294 59.1685H36.3461H40.3629L40.6951 58.7793C41.1293 58.2707 41.1271 57.661 40.6894 57.2201C40.3549 56.8829 40.3254 56.8795 37.7979 56.8795C36.3935 56.8795 35.2445 56.8445 35.2445 56.8019C35.2445 56.7592 35.6142 56.2351 36.066 55.6372L36.8874 54.5499L38.6251 54.5008C40.3322 54.4525 40.3687 54.4448 40.6951 54.0624C41.1198 53.5651 41.1198 52.98 40.6953 52.4826L40.363 52.0933L34.8436 52.0526L29.324 52.012V50.8387V49.6655H35.4271H41.5301L41.809 49.3534C42.2229 48.89 42.285 48.5913 42.0735 48.0811C41.9449 47.771 41.7377 47.5709 41.4346 47.4645C41.1277 47.3568 39.1139 47.3057 35.0519 47.3026L29.1174 47.2983L28.7494 46.6871C27.985 45.4173 26.8751 44.9487 24.632 44.9487H23.3959L23.434 38.2082L23.4723 31.4677L23.8586 31.1329L24.245 30.7982H32.3915H40.538L46.2628 36.5555C51.6108 41.9339 52.0187 42.3125 52.4624 42.3083C52.9878 42.3035 53.2928 42.1198 53.5344 41.663C53.9088 40.9548 53.8557 40.889 48.7749 35.7622L43.855 30.7982H49.7198H55.5846L55.9477 31.1639L56.3106 31.5297V37.4671C56.3106 41.0644 56.3646 43.5475 56.4475 43.7671C56.6254 44.2388 57.4032 44.5819 57.8803 44.399C58.6738 44.0951 58.6655 44.1747 58.6221 37.2307C58.5781 30.1578 58.6227 30.5011 57.6141 29.4848C56.5601 28.423 58.1277 28.5131 40.0636 28.4746L23.8853 28.44L23.1969 28.7667ZM8.57536 31.1328L8.18901 31.4673L8.14509 34.5664C8.098 37.8822 8.18956 38.585 8.70437 38.8626C9.16053 39.1085 9.76856 39.0353 10.1329 38.6904L10.4608 38.3799V34.9296V31.4792L10.1228 31.1387C9.68526 30.6979 9.08026 30.6955 8.57536 31.1328ZM19.4095 50.8347C21.3412 52.775 23.0454 54.3796 23.1969 54.4005C24.1087 54.5268 24.8029 53.7245 24.4974 52.8976C24.4185 52.6841 23.1958 51.339 21.7804 49.9083L19.2067 47.3071H22.4549C24.477 47.3071 25.8683 47.3651 26.1408 47.4608C26.9869 47.7581 26.9833 47.7258 26.9833 54.9997V61.5963H16.3814H5.77949V55.0131C5.77949 50.1115 5.82258 48.3347 5.94829 48.0568C6.26304 47.3605 6.57298 47.3185 11.4237 47.3125L15.8976 47.3071L19.4095 50.8347ZM46.0766 47.5009C45.1197 47.7671 44.3565 48.3703 43.8643 49.2493L43.4369 50.0123V57.9893V65.9663L43.7588 66.6249C43.9359 66.9871 44.337 67.5044 44.6501 67.7745C45.6561 68.6423 46.0578 68.6934 51.4861 68.6451L56.3108 68.6022L56.3127 69.2959C56.315 70.1177 56.529 70.6013 57.0106 70.8738C57.4412 71.1172 57.9877 71.0017 58.3721 70.5859C58.6435 70.2925 58.6513 70.1191 58.6513 64.3805V58.477L62.1623 62.0125L65.6733 65.5481V67.6692C65.6733 70.0049 65.8172 70.6349 66.4133 70.9086C66.8317 71.1006 67.3785 70.9767 67.746 70.6064C68.0153 70.3351 68.0208 70.1729 67.9835 63.7081L67.9452 57.0876L67.6146 56.6205C66.9661 55.7044 66.6117 55.6374 62.4033 55.634L58.6513 55.6309L58.6499 52.891C58.6487 50.2985 58.6311 50.1137 58.3227 49.4574C57.9375 48.6381 57.2805 47.972 56.5172 47.6274C56.0281 47.4066 55.4495 47.3752 51.3539 47.3473C47.8538 47.3235 46.5811 47.3605 46.0766 47.5009ZM55.9785 50.1241L56.3106 50.5134V56.0565V61.5996L51.0441 61.5633L45.7776 61.527L45.7379 56.3939C45.7162 53.5708 45.7361 51.0488 45.7824 50.7894L45.8665 50.3178L49.0644 53.5293C50.898 55.3707 52.3769 56.7476 52.531 56.7567C53.3976 56.8083 53.97 56.3469 53.97 55.5966C53.97 55.2172 53.6352 54.8227 51.3539 52.5131C49.9151 51.0564 48.7378 49.8157 48.7378 49.7562C48.7378 49.6967 50.2923 49.6674 52.1921 49.6914L55.6464 49.7349L55.9785 50.1241ZM65.6733 60.0703C65.6733 61.2148 65.6571 62.1512 65.6371 62.1512C65.6173 62.1512 64.6732 61.2148 63.5392 60.0703L61.4773 57.9893H63.5754H65.6733V60.0703ZM35.5825 61.9369C35.1583 62.3642 35.1242 63.1398 35.5122 63.5308C35.8875 63.909 36.453 63.9844 38.5172 63.9316C40.2012 63.8883 40.3406 63.8636 40.6726 63.5491C41.1456 63.1006 41.1529 62.404 40.6894 61.9369C40.3586 61.6035 40.3046 61.5963 38.1359 61.5963C35.9672 61.5963 35.9133 61.6035 35.5825 61.9369ZM30.4233 64.2669C30.4191 64.8326 29.838 65.651 29.1991 65.9906L28.5922 66.3132H16.3814H4.17061L3.56369 65.9906C2.92482 65.651 2.34364 64.8326 2.33951 64.2669L2.33731 63.9547H16.3814H30.4255L30.4233 64.2669ZM56.3106 64.71C56.3106 65.3083 56.2415 65.5463 55.9785 65.8545L55.6463 66.2438L51.2705 66.2842C48.0732 66.3137 46.786 66.2792 46.4912 66.1562C46.0149 65.9575 45.7087 65.3148 45.7087 64.5141V63.9547H51.0097H56.3106V64.71Z" fill="#E49B00"/>
</svg>
