<svg width="55" height="69" viewBox="0 0 55 69" fill="none" xmlns="http://www.w3.org/2000/svg">
<path d="M47.7331 21.3218L47.5831 21.5218C46.366 20.6089 44.7389 19.8656 43.0461 19.3951C41.3528 18.9245 39.6132 18.7321 38.1741 18.9048C36.4833 19.1076 35.1831 19.47 32.5658 20.4781C29.5731 21.6307 29.0403 21.7938 28.0173 21.7938C26.8923 21.7938 26.3396 21.6344 23.6393 20.5947C22.3818 20.1106 20.9055 19.5894 20.3595 19.4355C19.6198 19.2271 19.0706 18.9611 18.797 18.5979C18.6522 18.4057 18.5849 18.1864 18.6101 17.9499C18.6346 17.721 18.7432 17.4992 18.9053 17.2867C18.9054 17.2867 18.9054 17.2867 18.9054 17.2867L19.1041 17.4384L47.7331 21.3218ZM47.7331 21.3218C48.5759 21.9539 50.208 23.6056 50.2066 23.8251C50.2061 23.9022 50.0053 24.106 49.7604 24.278C49.0642 24.7666 47.102 26.9474 46.4176 27.9928M47.7331 21.3218C45.238 19.4504 41.1043 18.3015 38.1443 18.6566C36.4242 18.8629 35.1021 19.2333 32.476 20.2448C29.472 21.4018 28.9849 21.5438 28.0173 21.5438C26.9453 21.5438 26.4339 21.4028 23.7291 20.3614C22.4713 19.8771 20.9855 19.3523 20.4273 19.1949L46.4176 27.9928M47.7331 21.3218L47.5831 21.5218C47.9898 21.8268 48.5984 22.3875 49.1086 22.9039C49.3628 23.1611 49.5883 23.403 49.7486 23.592C49.8254 23.6824 49.884 23.7569 49.9231 23.8131M47.7331 21.3218L49.9231 23.8131M46.4176 27.9928C45.2616 29.7592 44.4261 31.8406 44.1064 33.7514C43.977 34.5251 43.985 34.6788 44.1695 34.9692L46.4176 27.9928ZM49.9231 23.8131C49.9154 23.8216 49.9067 23.8307 49.8971 23.8405C49.8283 23.9103 49.7288 23.9947 49.6167 24.0734C49.2417 24.3366 48.5591 25.0255 47.8987 25.7594C47.2336 26.4986 46.5614 27.3166 46.2084 27.8559L46.2084 27.8559C45.0352 29.6486 44.1858 31.7623 43.8598 33.7101C43.796 34.0914 43.76 34.3509 43.7706 34.5545C43.7824 34.7823 43.8516 34.935 43.9585 35.1033L43.9585 35.1034C44.1153 35.3499 44.3226 35.5343 44.5693 35.6298C44.8179 35.726 45.0879 35.7244 45.3523 35.6293L45.2677 35.3941L45.3523 35.6293C45.6141 35.5352 45.8048 35.3772 45.9483 35.096C46.081 34.8361 46.1738 34.4696 46.2694 33.959C46.4791 32.8393 46.8429 31.798 47.4623 30.556C47.921 29.6364 48.2922 29.009 48.8824 28.2938C49.4775 27.5726 50.2987 26.7583 51.6654 25.4703C52.2793 24.8918 52.5815 24.29 52.4311 23.5627C52.2891 22.8761 51.7498 22.1311 50.8685 21.2227L50.6891 21.3968L50.8685 21.2227C49.3126 19.6192 47.808 18.5773 45.7981 17.7126L45.6994 17.9423L49.9231 23.8131ZM8.90169 19.6503L8.76639 19.4501C10.3186 18.401 12.1409 17.5468 13.76 17.1127C14.615 16.8835 15.2899 16.8031 15.7646 16.9278C16.0112 16.9925 16.2167 17.116 16.3569 17.3125C16.4953 17.5063 16.551 17.7445 16.551 18.0046C16.551 18.3609 16.4137 18.6538 16.1195 18.8814C15.8434 19.095 15.4382 19.2442 14.9118 19.3667M8.90169 19.6503L0.925759 41.5406L1.17316 41.5048L0.925756 41.5406M8.90169 19.6503L8.76639 19.4501C8.14871 19.8676 7.21186 20.7269 6.33464 21.6294C5.45687 22.5325 4.61359 23.5049 4.19037 24.1575C2.54914 26.6881 1.45776 29.7008 0.923696 33.1549M8.90169 19.6503L0.925756 41.5406M14.9118 19.3667L14.8551 19.1232L14.9118 19.3667C14.9118 19.3667 14.9118 19.3667 14.9118 19.3667ZM14.9118 19.3667C12.104 20.0201 9.835 21.3589 7.74653 23.6011C5.68753 25.8117 4.45168 28.2423 3.67705 31.6274C3.18337 33.7848 3.04584 35.4255 3.1288 38.2251L2.87891 38.2325L3.1288 38.2251C3.28423 43.4772 4.71538 49.0113 7.2439 54.1234C8.36437 56.3886 9.86142 58.7448 11.3645 60.7069C12.8734 62.6768 14.3678 64.2221 15.4779 64.8928L15.3486 65.1068L15.4779 64.8928C16.6231 65.5849 17.657 65.8478 18.7516 65.745C19.9378 65.6338 20.5793 65.446 22.8605 64.5161C25.4109 63.4763 26.6647 63.1857 28.6905 63.182C29.8577 63.1798 30.6788 63.2308 31.6086 63.4507C32.5325 63.6692 33.5549 64.0523 35.1274 64.7003C36.1707 65.1302 36.8816 65.3827 37.5129 65.519C38.1385 65.6541 38.695 65.6769 39.4306 65.6347C40.3584 65.5814 41.1285 65.3862 41.8871 64.9802C42.6501 64.5718 43.4136 63.9435 44.3186 63.0056C46.0487 61.2127 48.5967 57.4724 49.9576 54.7209L50.1817 54.8318L49.9577 54.7209C50.4 53.8267 50.8901 52.7196 51.2577 51.817C51.4416 51.3655 51.5935 50.9684 51.6933 50.6763C51.7434 50.5295 51.7786 50.4143 51.7982 50.3341C51.7986 50.3326 51.7989 50.3312 51.7993 50.3298C51.7553 50.2969 51.6964 50.2553 51.6249 50.2068C51.4646 50.0982 51.2502 49.9614 51.0211 49.8233C48.3509 48.2137 45.8829 45.3079 44.7798 42.4706C44.5726 41.9376 44.3447 41.2084 44.1688 40.5559C44.0807 40.2291 44.0049 39.9187 43.9509 39.6592C43.8984 39.4069 43.862 39.1823 43.862 39.038C43.862 38.5412 44.2396 38.1806 44.6309 38.0247C45.0211 37.8693 45.5431 37.872 45.8722 38.2469L45.6844 38.4118L45.8722 38.2469C45.9289 38.3114 45.9788 38.4093 46.0202 38.5004C46.0655 38.6003 46.1142 38.7237 46.1634 38.861C46.2619 39.136 46.3665 39.4781 46.4543 39.8226C47.3343 43.2776 49.8705 46.5209 52.948 48.1338C54.0229 48.6972 54.4905 49.8489 54.1297 51.02C53.41 53.3555 51.5019 57.216 49.8086 59.7714C46.9705 64.0543 45.1051 66.0782 42.8938 67.1936L42.7812 66.9704L42.8938 67.1936C41.5157 67.8886 40.5384 68.1294 39.0774 68.1294C37.4313 68.1294 36.2962 67.8511 34.0668 66.9224C31.6334 65.9086 30.5354 65.6446 28.8474 65.6434C26.949 65.6421 25.8104 65.9119 23.2948 66.9806C20.57 68.1381 18.4388 68.5126 16.7456 68.0688C15.6067 67.7703 14.2478 67.089 13.277 66.3319C11.5583 64.9913 9.37417 62.3293 7.11979 58.853C4.06321 54.1399 1.85727 47.9674 0.925756 41.5406M0.925756 41.5406C0.807954 40.7282 0.750495 39.0031 0.750003 37.3097C0.749512 35.6174 0.805872 33.9166 0.923696 33.1549M0.923696 33.1549L1.17074 33.1931L0.923694 33.1549C0.923695 33.1549 0.923695 33.1549 0.923696 33.1549ZM41.1682 2.01004L41.1682 2.01001C40.8087 1.2448 40.0609 0.737807 39.2558 0.750222C39.1144 0.752395 38.8556 0.794347 38.5698 0.851709C38.2756 0.91073 37.9295 0.991006 37.6009 1.07851C31.844 2.612 27.1079 8.10792 26.3282 14.1467C26.1922 15.1997 26.1835 15.9963 26.3531 16.601C26.5288 17.227 26.8921 17.6353 27.4494 17.9078L27.5593 17.6833L27.4494 17.9078C27.6613 18.0115 27.8542 18.0749 28.1054 18.0998C28.3471 18.1238 28.6364 18.1114 29.038 18.0768C32.6851 17.7632 36.3928 15.3187 38.7178 11.7362C40.3794 9.17578 41.1987 6.77846 41.3981 3.88166C41.4327 3.37876 41.4467 3.05338 41.4148 2.78345C41.3814 2.50121 41.2992 2.28906 41.1682 2.01004ZM49.9673 23.8853C49.9673 23.8856 49.9666 23.8841 49.9654 23.881C49.9667 23.8837 49.9672 23.8851 49.9673 23.8853ZM39.0363 3.46357C39.0363 3.83055 38.955 4.46214 38.8285 5.13893C38.7026 5.81237 38.5359 6.50892 38.3728 7.00165C37.1784 10.608 34.4725 13.7065 31.4412 14.9761C31.0572 15.1368 30.4912 15.3104 29.9478 15.4441C29.3978 15.5793 28.9039 15.6654 28.6557 15.6654H28.5995L28.6556 14.9871C28.8745 12.3399 30.165 9.43108 32.0748 7.29777C33.5096 5.69498 36.0899 4.07071 38.1495 3.47358L38.1766 3.46573C38.4699 3.38069 38.6821 3.31914 38.8402 3.28134C38.9212 3.26198 38.9814 3.25048 39.0266 3.24505C39.0287 3.24479 39.0308 3.24454 39.0329 3.24432C39.0359 3.2899 39.0363 3.35756 39.0363 3.46357Z" fill="#E49B00" stroke="#E49B00" stroke-width="0.5"/>
</svg>
