<svg width="71" height="71" viewBox="0 0 71 71" fill="none" xmlns="http://www.w3.org/2000/svg">
<path fill-rule="evenodd" clip-rule="evenodd" d="M13.8146 0.229744C7.63463 1.33478 2.69015 5.60919 0.808088 11.4741C-2.05547 20.397 2.9973 29.8827 11.9818 32.4508C13.7877 32.967 15.204 33.1322 17.8199 33.1322H20.1025V31.9486V30.765L17.8462 30.7621C14.3561 30.7576 12.543 30.3977 10.2727 29.2586C8.56094 28.3998 7.90315 27.9142 6.41715 26.4121C4.5629 24.5377 3.49855 22.6558 2.76664 19.9578C2.33241 18.3565 2.29498 15.0161 2.69341 13.4012C3.35607 10.7149 4.58657 8.53888 6.5577 6.5679C9.41831 3.70715 12.4415 2.46023 16.5517 2.44544C18.8144 2.43715 20.1525 2.68068 21.9449 3.42693C25.2974 4.82269 28.2904 7.81423 29.6838 11.1622C30.4363 12.9701 30.6353 14.1329 30.7158 17.1907L30.7926 20.1127H31.976H33.1593L33.0768 17.1167C32.9923 14.053 32.8463 13.0473 32.2197 11.2169C31.1447 8.07639 28.8174 4.94297 26.1684 3.06934C22.6278 0.565146 17.9511 -0.509855 13.8146 0.229744ZM51.7637 0.210067C50.0358 0.503303 48.6442 0.971119 46.9173 1.83958C42.1992 4.2124 38.9292 8.69763 38.0741 13.9694C37.948 14.7471 37.8573 16.3079 37.857 17.7085L37.8564 20.1127H39.0211H40.1859L40.2627 17.1907C40.3253 14.8146 40.4 14.0476 40.663 13.0855C41.4071 10.3647 42.4498 8.56936 44.4431 6.57722C46.469 4.55268 48.3638 3.47679 51.2458 2.7147C52.6382 2.34661 56.1153 2.34039 57.5874 2.70361C60.2277 3.35488 62.4301 4.58834 64.3586 6.496C66.3382 8.45381 67.5147 10.4976 68.2208 13.2052C68.6879 14.9958 68.6832 18.218 68.2111 19.9647C67.4724 22.6972 66.3985 24.5571 64.4114 26.5455C62.8442 28.1138 61.4544 29.0459 59.5859 29.7819C57.7851 30.4913 56.8848 30.6377 53.798 30.7224L50.876 30.8028V31.9676V33.1322L53.2062 33.1293C54.4879 33.1276 56.0024 33.0602 56.572 32.9791C61.9856 32.2095 66.5724 29.0129 69.0409 24.2891C72.2624 18.125 71.4284 10.9397 66.8777 5.65239C63.2771 1.46897 57.2135 -0.71447 51.7637 0.210067ZM11.7839 8.44952L11.7433 10.9894L10.0049 11.5687L8.26652 12.1481V16.7221V21.2963H7.67472H7.08292V22.4799V23.6635H16.5517H26.0205V22.4799V21.2963H25.4287H24.8369V15.1564C24.8369 11.7794 24.8153 9.01647 24.7888 9.01647C24.7623 9.01647 24.2514 9.18291 23.6533 9.38634C23.0551 9.58977 22.5442 9.75621 22.5178 9.75621C22.4913 9.75621 22.4697 8.89071 22.4697 7.83287V5.90953H21.2861H20.1025V8.24535V10.5812L18.9189 10.9691L17.7353 11.3572V10.1867C17.7353 9.54317 17.7155 9.01647 17.6913 9.01647C17.6672 9.01647 16.8683 9.27819 15.916 9.5982L14.1845 10.1798V8.04473V5.90953H13.0045H11.8243L11.7839 8.44952ZM47.3252 8.47009C46.599 8.69897 45.3606 9.98139 45.1379 10.735C45.0116 11.1628 44.958 12.8976 44.958 16.5619C44.958 20.2262 45.0116 21.961 45.1379 22.3887C45.378 23.2014 46.6036 24.427 47.4163 24.6672C47.8535 24.7963 49.8391 24.8471 54.4546 24.8471C61.8658 24.8471 61.8381 24.8509 62.9041 23.6652C63.2559 23.2739 63.6229 22.6897 63.7196 22.3668C63.9652 21.5472 63.9652 11.5766 63.7196 10.7569C63.6229 10.4341 63.2559 9.84986 62.9041 9.45854C61.834 8.26814 61.8794 8.27435 54.3634 8.29181C50.0628 8.30172 47.6667 8.36253 47.3252 8.47009ZM49.6924 14.1947V17.7455H53.2432H56.794V14.1947V10.6439H58.7979C60.7285 10.6439 60.8154 10.6572 61.1651 11.0071L61.5283 11.3702V16.5619V21.7536L61.1651 22.1167L60.8021 22.4799H54.4268H48.0515L47.6884 22.1167L47.3252 21.7536V16.5619V11.3702L47.6884 11.0071C47.9865 10.7089 48.1981 10.6439 48.872 10.6439H49.6924V14.1947ZM54.4268 13.0111V15.3783H53.2432H52.0596V13.0111V10.6439H53.2432H54.4268V13.0111ZM15.3681 16.7838V21.2963H12.9984H10.6287L10.6682 17.5728L10.7077 13.8494L13.0009 13.0721C14.2622 12.6445 15.3107 12.2894 15.3311 12.283C15.3515 12.2765 15.3681 14.302 15.3681 16.7838ZM22.4697 16.7838V21.2963H20.1H17.7303L17.7698 17.5728L17.8093 13.8494L20.1025 13.0721C21.3637 12.6445 22.4124 12.2894 22.4327 12.283C22.453 12.2765 22.4697 14.302 22.4697 16.7838ZM32.5876 24.132L32.1604 25.7842L31.548 26.0423L30.9358 26.3004L29.4908 25.4125L28.0459 24.5245L26.2801 26.2903L24.5143 28.0561L25.3991 29.4958L26.2838 30.9355L26.0493 31.5323C25.782 32.2129 25.7027 32.2546 23.8382 32.6945L22.4697 33.0174V35.4994V37.9814L23.8382 38.3044C25.7027 38.7443 25.782 38.786 26.0493 39.4665L26.2838 40.0634L25.3991 41.5031L24.5143 42.9428L26.2801 44.7085L28.0459 46.4743L29.4908 45.5863L30.9358 44.6985L31.548 44.9565L32.1604 45.2147L32.5876 46.8668L33.0149 48.519H35.4931H37.9712L38.2942 47.1505C38.7344 45.2848 38.7755 45.2068 39.4611 44.9376L40.0626 44.7011L41.4992 45.586L42.936 46.4709L44.6983 44.7085L46.4607 42.9462L45.5726 41.5041L44.6843 40.062L44.9444 39.4451L45.2045 38.8283L46.8566 38.401L48.5088 37.9737V35.4994V33.0251L46.8566 32.5978L45.2045 32.1706L44.9444 31.5538L44.6843 30.9368L45.5726 29.4947L46.4607 28.0527L44.6983 26.2903L42.936 24.5279L41.4992 25.4128L40.0626 26.2977L39.4611 26.0613C38.7755 25.792 38.7344 25.714 38.2942 23.8484L37.9712 22.4799H35.4931H33.0149L32.5876 24.132ZM36.4327 26.2041L36.7135 27.4871L38.4963 28.2219L40.2792 28.9568L41.4134 28.2461L42.5476 27.5352L43.0009 27.9886L43.4544 28.4419L42.7463 29.5835L42.0384 30.7251L42.7679 32.4952L43.4973 34.2651L44.7825 34.5494L46.0676 34.8337V35.4994V36.1652L44.7825 36.4494L43.4973 36.7338L42.7679 38.5037L42.0384 40.2738L42.7463 41.4153L43.4544 42.5569L43.0009 43.0102L42.5476 43.4637L41.4134 42.7528L40.2792 42.042L38.4963 42.7769L36.7135 43.5118L36.432 44.7948L36.1503 46.0778H35.4892H34.8282L34.5458 44.791L34.2633 43.5041L32.4915 42.7748L30.7198 42.0455L29.5757 42.755L28.4317 43.4646L27.978 43.0107L27.5241 42.5569L28.2322 41.4153L28.9401 40.2738L28.2089 38.4995L27.4776 36.7253L26.1943 36.434L24.9108 36.1426V35.4994V34.8563L26.1943 34.5648L27.4776 34.2735L28.2089 32.4993L28.9401 30.7251L28.2322 29.5835L27.5241 28.4419L27.978 27.9882L28.4317 27.5343L29.5757 28.2438L30.7198 28.9534L32.4931 28.2234L34.2664 27.4936L34.5256 26.2813C34.6683 25.6145 34.8164 25.0156 34.8547 24.9502C34.8931 24.8848 35.2007 24.8515 35.5382 24.8762L36.1519 24.921L36.4327 26.2041ZM34.0105 31.0028C31.169 32.0353 29.9641 35.1023 31.3665 37.7333C31.896 38.7269 32.3681 39.1795 33.4761 39.7552C34.1166 40.0879 34.4234 40.1487 35.4892 40.1533C36.6586 40.1585 36.8143 40.1218 37.7085 39.6299C41.1217 37.7524 40.9931 32.8847 37.4865 31.2207C36.5207 30.7624 34.9442 30.6635 34.0105 31.0028ZM36.4256 33.334C37.9573 33.9741 38.3137 35.9298 37.1167 37.1269C36.138 38.1056 34.8128 38.1127 33.8443 37.1443C32.0148 35.3146 34.0336 32.3346 36.4256 33.334ZM13.8886 38.0942C9.80223 38.7401 5.86692 41.1052 3.37442 44.4131C-1.38186 50.7251 -1.08345 59.323 4.1007 65.3465C7.68419 69.5099 13.6798 71.6934 19.0593 70.7938C24.7059 69.8496 29.1228 66.5191 31.5646 61.3647C32.657 59.0585 32.9902 57.4153 33.0816 53.8822L33.1593 50.8862H31.976H30.7926L30.7158 53.8082C30.615 57.638 30.2577 59.0444 28.6967 61.7566C27.8139 63.2906 25.4806 65.6594 24.0231 66.5014C21.3414 68.0507 19.5153 68.5586 16.6257 68.559C12.5241 68.5596 9.40913 67.2824 6.5577 64.431C4.58657 62.46 3.35607 60.2839 2.69341 57.5976C2.29498 55.9827 2.33241 52.6423 2.76664 51.0411C3.49855 48.3431 4.5629 46.4612 6.41715 44.5868C7.90315 43.0847 8.56094 42.5991 10.2727 41.7402C12.543 40.6012 14.3561 40.2412 17.8462 40.2368L20.1025 40.2338V39.0502V37.8666L17.6243 37.881C16.2613 37.8888 14.5803 37.9847 13.8886 38.0942ZM50.876 39.0313V40.1961L53.798 40.2724C56.9872 40.3559 58.0151 40.542 60.0361 41.402C63.269 42.7777 66.1862 45.74 67.5617 49.0438C68.3075 50.8353 68.5514 52.1744 68.544 54.437C68.536 56.8379 68.2745 58.1678 67.4317 60.0975C66.0309 63.3039 63.2937 66.0411 60.0873 67.4419C58.1549 68.2859 56.828 68.5463 54.4268 68.5525C52.1013 68.5584 51.1698 68.3889 49.1509 67.5923C45.7448 66.2482 42.7206 63.2627 41.2946 59.8367C40.5421 58.0287 40.3432 56.866 40.2627 53.8082L40.1859 50.8862H39.0211H37.8564L37.8573 53.2164C37.8577 54.4981 37.9542 56.1791 38.0717 56.9521C38.8568 62.1229 42.0734 66.6336 46.6995 69.0511C51.6734 71.6506 57.1586 71.6496 62.154 69.0485C69.2402 65.3586 72.6612 56.9376 70.172 49.312C68.8425 45.2395 65.9353 41.7988 62.154 39.8228C59.3692 38.3673 57.0882 37.869 53.2062 37.8675L50.876 37.8666V39.0313ZM15.4421 42.7294C14.075 43.0886 12.8738 44.0765 12.2699 45.3381C12.0093 45.8824 11.8991 46.41 11.8527 47.3354C11.7972 48.4392 11.8454 48.7665 12.2472 50.0137C12.4991 50.7952 12.705 51.4968 12.705 51.5727C12.705 51.6486 12.0052 52.2312 11.1498 52.8674C9.38309 54.1815 8.68536 54.9225 8.43829 55.7475C8.2026 56.5341 8.20897 61.827 8.44643 62.631C8.68655 63.4437 9.91216 64.6693 10.7248 64.9094C11.1527 65.0358 12.8933 65.0893 16.5795 65.0893C22.6707 65.0893 22.8021 65.068 23.8455 63.9075C24.1973 63.5162 24.5642 62.9319 24.661 62.6091C24.8947 61.8288 24.898 56.5247 24.6651 55.7475C24.418 54.9225 23.7203 54.1815 21.9536 52.8674C21.0982 52.2312 20.3984 51.6486 20.3984 51.5727C20.3984 51.4968 20.6049 50.7952 20.8572 50.0137C21.2646 48.7523 21.3083 48.45 21.2469 47.3193C21.1881 46.2378 21.1037 45.9066 20.6875 45.1259C19.8764 43.604 18.5807 42.7719 16.8643 42.6705C16.3262 42.6387 15.6862 42.6652 15.4421 42.7294ZM49.6554 46.335L44.958 49.0257V55.8739V62.7221H54.4268H63.8955V55.8619V49.0014L59.3369 46.399C56.8296 44.9678 54.6826 43.7624 54.5655 43.7205C54.4485 43.6787 52.2389 44.8552 49.6554 46.335ZM17.8482 45.3635C18.5518 45.8889 18.8223 46.3964 18.8888 47.3153C18.9427 48.0597 18.848 48.5008 18.2385 50.3438C17.8462 51.5302 17.5558 52.5265 17.5933 52.558C17.6307 52.5894 18.6267 53.3321 19.8066 54.2085C20.9865 55.085 22.0683 55.9351 22.2108 56.0975C22.4379 56.3568 22.4697 56.7377 22.4697 59.1944C22.4697 61.9714 22.4666 61.999 22.1065 62.3589L21.7434 62.7221H16.5517H11.36L10.9969 62.3589C10.6368 61.999 10.6337 61.9714 10.6337 59.1944C10.6337 56.7377 10.6655 56.3568 10.8926 56.0975C11.0351 55.9351 12.1169 55.085 13.2968 54.2085C14.4767 53.3321 15.4727 52.5894 15.5101 52.558C15.5476 52.5265 15.2645 51.5525 14.8813 50.3935C14.1694 48.2405 14.0388 47.2956 14.3424 46.4943C14.5507 45.9445 15.042 45.4225 15.59 45.1688C16.1796 44.8958 17.3579 44.9975 17.8482 45.3635ZM58.0823 48.408L61.5261 50.3684L61.5273 55.3616L61.5283 60.3549H60.3447H59.1611V55.6206V50.8862H54.4268H49.6924V55.6206V60.3549H48.5088H47.3252L47.3299 55.3616L47.3347 50.3684L50.7697 48.4128C52.6591 47.3372 54.3025 46.4551 54.4217 46.4524C54.541 46.4498 56.1882 47.3298 58.0823 48.408ZM56.794 54.437V55.6206H54.4268H52.0596V54.437V53.2534H54.4268H56.794V54.437ZM56.794 59.1713V60.3549H54.4268H52.0596V59.1713V57.9878H54.4268H56.794V59.1713Z" fill="#E49B00"/>
</svg>
