<svg width="701" height="90" viewBox="0 0 701 90" fill="none" xmlns="http://www.w3.org/2000/svg">
<path d="M95.2237 5.49307H96.3051V4.41165H95.2237V5.49307ZM95.2237 89V90.0814H96.3051V89H95.2237ZM74.8822 89H73.8008V90.0814H74.8822V89ZM74.8822 38.9196H75.9637L73.869 38.5418L74.8822 38.9196ZM56.2062 89V90.0814H56.9571L57.2194 89.3779L56.2062 89ZM39.7903 89L38.7775 89.3792L39.0405 90.0814H39.7903V89ZM20.9953 38.8007L22.008 38.4215L19.9139 38.8007H20.9953ZM20.9953 89V90.0814H22.0767V89H20.9953ZM0.653851 89H-0.427565V90.0814H0.653851V89ZM0.653851 5.49307V4.41165H-0.427565V5.49307H0.653851ZM24.6829 5.49307L25.6851 5.08682L25.4114 4.41165H24.6829V5.49307ZM48.1172 63.3056L47.115 63.7118L48.1223 66.1969L49.1208 63.7083L48.1172 63.3056ZM71.3136 5.49307V4.41165H70.5822L70.3099 5.09037L71.3136 5.49307ZM94.1423 5.49307L94.1423 89H96.3051L96.3051 5.49307H94.1423ZM95.2237 87.9186H74.8822V90.0814H95.2237V87.9186ZM75.9637 89V38.9196H73.8008V89H75.9637ZM73.869 38.5418L55.1929 88.6221L57.2194 89.3779L75.8955 39.2975L73.869 38.5418ZM56.2062 87.9186H39.7903V90.0814H56.2062V87.9186ZM40.8031 88.6208L22.008 38.4215L19.9825 39.1799L38.7775 89.3792L40.8031 88.6208ZM19.9139 38.8007L19.9139 89H22.0767L22.0767 38.8007H19.9139ZM20.9953 87.9186H0.653851V90.0814H20.9953L20.9953 87.9186ZM1.73527 89L1.73527 5.49307H-0.427565L-0.427565 89H1.73527ZM0.653851 6.57448L24.6829 6.57448V4.41165L0.653851 4.41165V6.57448ZM23.6807 5.89931L47.115 63.7118L49.1194 62.8993L25.6851 5.08682L23.6807 5.89931ZM49.1208 63.7083L72.3172 5.89576L70.3099 5.09037L47.1136 62.9029L49.1208 63.7083ZM71.3136 6.57448L95.2237 6.57448V4.41165L71.3136 4.41165V6.57448ZM132.572 21.79V20.7086H131.491V21.79H132.572ZM132.572 38.6817H131.491V39.7631H132.572V38.6817ZM159.813 38.6817H160.894V37.6003H159.813V38.6817ZM159.813 54.3839V55.4653H160.894V54.3839H159.813ZM132.572 54.3839V53.3025H131.491V54.3839H132.572ZM132.572 72.7031H131.491V73.7845H132.572V72.7031ZM163.382 72.7031H164.463V71.6216H163.382V72.7031ZM163.382 89V90.0814H164.463V89H163.382ZM112.231 89H111.149V90.0814H112.231V89ZM112.231 5.49307V4.41165H111.149V5.49307H112.231ZM163.382 5.49307H164.463V4.41165L163.382 4.41165V5.49307ZM163.382 21.79V22.8714H164.463V21.79H163.382ZM131.491 21.79V38.6817H133.653V21.79H131.491ZM132.572 39.7631L159.813 39.7631V37.6003L132.572 37.6003V39.7631ZM158.732 38.6817V54.3839H160.894V38.6817H158.732ZM159.813 53.3025H132.572V55.4653H159.813V53.3025ZM131.491 54.3839V72.7031H133.653V54.3839H131.491ZM132.572 73.7845H163.382V71.6216H132.572V73.7845ZM162.3 72.7031L162.3 89H164.463L164.463 72.7031H162.3ZM163.382 87.9186L112.231 87.9186V90.0814L163.382 90.0814V87.9186ZM113.312 89L113.312 5.49307H111.149L111.149 89H113.312ZM112.231 6.57448L163.382 6.57448V4.41165L112.231 4.41165V6.57448ZM162.3 5.49307V21.79H164.463V5.49307H162.3ZM163.382 20.7086L132.572 20.7086V22.8714L163.382 22.8714V20.7086ZM221.553 89L220.606 89.5218L220.914 90.0814H221.553V89ZM204.185 57.4767L205.132 56.9549L204.824 56.3953H204.185V57.4767ZM199.308 57.4767V56.3953H198.227V57.4767H199.308ZM199.308 89V90.0814H200.39V89H199.308ZM178.967 89H177.885V90.0814H178.967V89ZM178.967 5.49307V4.41165H177.885V5.49307H178.967ZM229.88 8.94278L229.396 9.91005L229.403 9.9133L229.88 8.94278ZM240.348 18.4592L239.408 18.9938L239.412 19.0018L240.348 18.4592ZM239.039 46.6518L238.165 46.0157L238.157 46.0262L239.039 46.6518ZM225.24 55.9303L224.931 54.8941L223.614 55.2874L224.306 56.4748L225.24 55.9303ZM244.511 89V90.0814H246.393L245.446 88.4555L244.511 89ZM199.308 43.0831H198.227V44.1645H199.308V43.0831ZM220.244 40.3471L219.496 39.5663L219.488 39.5743L219.48 39.5824L220.244 40.3471ZM220.244 25.1208L219.48 25.8854L219.488 25.8936L219.496 25.9015L220.244 25.1208ZM199.308 22.3848V21.3034H198.227V22.3848H199.308ZM222.5 88.4782L205.132 56.9549L203.238 57.9986L220.606 89.5218L222.5 88.4782ZM204.185 56.3953H199.308V58.5581H204.185V56.3953ZM198.227 57.4767L198.227 89H200.39L200.39 57.4767H198.227ZM199.308 87.9186H178.967V90.0814H199.308V87.9186ZM180.048 89L180.048 5.49307H177.885L177.885 89H180.048ZM178.967 6.57448L213.107 6.57448V4.41165L178.967 4.41165V6.57448ZM213.107 6.57448C219.567 6.57448 224.983 7.70332 229.396 9.91003L230.363 7.97553C225.578 5.58262 219.811 4.41165 213.107 4.41165V6.57448ZM229.403 9.9133C233.911 12.1294 237.228 15.16 239.408 18.9938L241.288 17.9247C238.868 13.6695 235.206 10.3557 230.357 7.97227L229.403 9.9133ZM239.412 19.0018C241.61 22.7902 242.716 27.0417 242.716 31.7823H244.879C244.879 26.6892 243.686 22.0587 241.283 17.9167L239.412 19.0018ZM242.716 31.7823C242.716 37.1122 241.198 41.8445 238.165 46.0157L239.914 47.2878C243.225 42.7356 244.879 37.5549 244.879 31.7823H242.716ZM238.157 46.0262C235.229 50.1551 230.852 53.1255 224.931 54.8941L225.55 56.9665C231.842 55.0871 236.663 51.8718 239.921 47.2773L238.157 46.0262ZM224.306 56.4748L243.577 89.5445L245.446 88.4555L226.175 55.3858L224.306 56.4748ZM244.511 87.9186H221.553V90.0814H244.511V87.9186ZM199.308 44.1645H211.917V42.0017H199.308V44.1645ZM211.917 44.1645C215.804 44.1645 218.907 43.214 221.009 41.1118L219.48 39.5824C217.934 41.1282 215.486 42.0017 211.917 42.0017V44.1645ZM220.993 41.1279C223.162 39.0492 224.181 36.1582 224.181 32.615H222.018C222.018 35.7332 221.134 37.997 219.496 39.5663L220.993 41.1279ZM224.181 32.615C224.181 29.2126 223.151 26.4087 220.993 24.34L219.496 25.9015C221.144 27.4808 222.018 29.6731 222.018 32.615H224.181ZM221.009 24.3561C218.907 22.2539 215.804 21.3034 211.917 21.3034V23.4662C215.486 23.4662 217.934 24.3397 219.48 25.8854L221.009 24.3561ZM211.917 21.3034H199.308V23.4662H211.917V21.3034ZM198.227 22.3848V43.0831H200.39V22.3848H198.227ZM333.65 89V90.0814H334.731V89H333.65ZM313.309 89L312.406 89.596L312.727 90.0814H313.309V89ZM279.287 37.4922L280.19 36.8962L278.206 33.8928V37.4922H279.287ZM279.287 89V90.0814H280.369V89H279.287ZM258.946 89H257.864V90.0814H258.946V89ZM258.946 5.49307V4.41165H257.864V5.49307H258.946ZM279.287 5.49307L280.191 4.89897L279.87 4.41165H279.287V5.49307ZM313.309 57.2388L312.405 57.8329L314.39 60.8521V57.2388H313.309ZM313.309 5.49307V4.41165H312.227V5.49307H313.309ZM333.65 5.49307H334.731V4.41165H333.65V5.49307ZM333.65 87.9186H313.309V90.0814H333.65V87.9186ZM314.211 88.404L280.19 36.8962L278.385 38.0882L312.406 89.596L314.211 88.404ZM278.206 37.4922V89H280.369V37.4922L278.206 37.4922ZM279.287 87.9186H258.946V90.0814H279.287V87.9186ZM260.027 89V5.49307H257.864V89H260.027ZM258.946 6.57448L279.287 6.57448V4.41165L258.946 4.41165V6.57448ZM278.384 6.08716L312.405 57.8329L314.212 56.6447L280.191 4.89897L278.384 6.08716ZM314.39 57.2388V5.49307L312.227 5.49307V57.2388H314.39ZM313.309 6.57448L333.65 6.57448V4.41165L313.309 4.41165V6.57448ZM332.569 5.49307V89H334.731V5.49307H332.569ZM364.573 86.8588L364.163 87.8594L364.573 86.8588ZM352.915 78.0561L352.044 78.6964L352.048 78.7021L352.052 78.7077L352.915 78.0561ZM348.395 64.0193V62.9379H347.282L347.314 64.0506L348.395 64.0193ZM370.045 64.0193L371.121 63.909L371.021 62.9379H370.045V64.0193ZM373.257 71.1566L372.528 71.9552L372.537 71.9641L372.547 71.9727L373.257 71.1566ZM387.531 71.5135L388.193 72.3692L388.205 72.36L388.216 72.3505L387.531 71.5135ZM388.007 60.5696L387.243 61.3343L387.253 61.3452L387.265 61.3558L388.007 60.5696ZM382.892 57.2388L382.457 58.2287L382.464 58.2318L382.471 58.2348L382.892 57.2388ZM374.327 54.2649L374.008 55.2982L374.019 55.3013L374.327 54.2649ZM361.123 49.2688L360.649 50.2405L361.123 49.2688ZM352.32 41.8935L353.183 41.2413L353.183 41.2413L352.32 41.8935ZM357.079 10.965L357.741 11.82L357.748 11.8141L357.079 10.965ZM401.33 10.965L400.661 11.8142L400.668 11.8199L401.33 10.965ZM410.371 29.2842V30.3656H411.508L411.451 29.2297L410.371 29.2842ZM388.364 29.2842L387.285 29.3477L387.344 30.3656H388.364V29.2842ZM385.39 22.9796L384.681 23.7956L384.691 23.8046L384.701 23.8133L385.39 22.9796ZM372.424 22.6227L373.121 23.4499L373.133 23.4394L373.145 23.4286L372.424 22.6227ZM373.97 34.5183L374.523 33.5884L374.523 33.5884L373.97 34.5183ZM385.866 39.3955L386.212 38.371L386.206 38.3688L386.199 38.3665L385.866 39.3955ZM398.951 44.6295L398.467 45.5968L398.477 45.6012L398.951 44.6295ZM407.754 51.8858L406.899 52.5483L406.899 52.5483L407.754 51.8858ZM407.754 77.1044L406.84 76.5263L406.836 76.533L406.832 76.5398L407.754 77.1044ZM397.286 86.383L396.802 85.4157L396.802 85.4157L397.286 86.383ZM380.989 88.7513C375 88.7513 369.67 87.7792 364.983 85.8582L364.163 87.8594C369.15 89.9035 374.765 90.9141 380.989 90.9141V88.7513ZM364.983 85.8582C360.311 83.9435 356.587 81.124 353.778 77.4044L352.052 78.7077C355.112 82.7599 359.159 85.8089 364.163 87.8594L364.983 85.8582ZM353.787 77.4158C351.079 73.7302 349.629 69.2712 349.476 63.988L347.314 64.0506C347.478 69.7114 349.042 74.6102 352.044 78.6964L353.787 77.4158ZM348.395 65.1007H370.045V62.9379H348.395V65.1007ZM368.969 64.1296C369.306 67.4158 370.461 70.068 372.528 71.9552L373.986 70.358C372.405 68.9145 371.418 66.8084 371.121 63.909L368.969 64.1296ZM372.547 71.9727C374.608 73.7646 377.257 74.6172 380.394 74.6172V72.4543C377.662 72.4543 375.554 71.7208 373.966 70.3406L372.547 71.9727ZM380.394 74.6172C383.56 74.6172 386.2 73.9091 388.193 72.3692L386.87 70.6578C385.374 71.8142 383.255 72.4543 380.394 72.4543V74.6172ZM388.216 72.3505C390.237 70.6973 391.23 68.434 391.23 65.6847L389.067 65.6847C389.067 67.8522 388.315 69.4748 386.847 70.6765L388.216 72.3505ZM391.23 65.6847C391.23 63.342 390.405 61.3471 388.75 59.7834L387.265 61.3558C388.464 62.4884 389.067 63.9036 389.067 65.6847L391.23 65.6847ZM388.772 59.8049C387.31 58.3427 385.482 57.1602 383.313 56.2429L382.471 58.2348C384.426 59.0621 386.008 60.1001 387.243 61.3343L388.772 59.8049ZM383.328 56.249C381.284 55.3496 378.378 54.3432 374.636 53.2285L374.019 55.3013C377.731 56.4071 380.535 57.3833 382.457 58.2287L383.328 56.249ZM374.646 53.2317C369.284 51.5756 364.94 49.9292 361.598 48.2971L360.649 50.2405C364.127 51.9391 368.585 53.6235 374.008 55.2982L374.646 53.2317ZM361.598 48.2971C358.352 46.7117 355.547 44.3675 353.183 41.2413L351.458 42.5457C354.011 45.9224 357.075 48.4951 360.649 50.2405L361.598 48.2971ZM353.183 41.2413C350.903 38.2251 349.714 34.2312 349.714 29.1653H347.551C347.551 34.5674 348.822 39.0591 351.458 42.5457L353.183 41.2413ZM349.714 29.1653C349.714 21.6929 352.401 15.9563 357.741 11.8199L356.416 10.1101C350.495 14.6972 347.551 21.0941 347.551 29.1653H349.714ZM357.748 11.8141C363.143 7.55919 370.223 5.38493 379.086 5.38493V3.22209C369.866 3.22209 362.276 5.48884 356.409 10.1159L357.748 11.8141ZM379.086 5.38493C388.111 5.38493 395.269 7.56166 400.661 11.8141L402 10.1159C396.13 5.48637 388.458 3.22209 379.086 3.22209V5.38493ZM400.668 11.8199C406.022 15.9671 408.908 21.7659 409.291 29.3388L411.451 29.2297C411.04 21.1004 407.9 14.6864 401.993 10.1101L400.668 11.8199ZM410.371 28.2028H388.364V30.3656H410.371V28.2028ZM389.444 29.2207C389.27 26.2712 388.168 23.8718 386.079 22.1458L384.701 23.8133C386.26 25.1009 387.141 26.9046 387.285 29.3477L389.444 29.2207ZM386.1 22.1635C384.044 20.3763 381.438 19.519 378.372 19.519V21.6819C381.016 21.6819 383.088 22.4107 384.681 23.7956L386.1 22.1635ZM378.372 19.519C375.708 19.519 373.449 20.2548 371.703 21.8168L373.145 23.4286C374.413 22.2943 376.119 21.6819 378.372 21.6819V19.519ZM371.727 21.7955C369.918 23.3195 369.082 25.5222 369.082 28.2136H371.245C371.245 25.9882 371.917 24.4637 373.121 23.4499L371.727 21.7955ZM369.082 28.2136C369.082 31.3332 370.59 33.7688 373.418 35.4481L374.523 33.5884C372.275 32.2542 371.245 30.4866 371.245 28.2136H369.082ZM373.418 35.4481C376.062 37.018 380.12 38.6731 385.533 40.4244L386.199 38.3665C380.826 36.6284 376.954 35.0321 374.523 33.5884L373.418 35.4481ZM385.52 40.4199C390.887 42.2353 395.198 43.9619 398.468 45.5968L399.435 43.6623C396.043 41.9664 391.63 40.2036 386.212 38.371L385.52 40.4199ZM398.477 45.6012C401.729 47.1898 404.536 49.4992 406.899 52.5483L408.609 51.2234C406.055 47.9281 402.993 45.4 399.426 43.6578L398.477 45.6012ZM406.899 52.5483C409.178 55.4884 410.36 59.322 410.36 64.1382H412.523C412.523 58.9622 411.247 54.6276 408.609 51.2234L406.899 52.5483ZM410.36 64.1382C410.36 68.6993 409.185 72.8196 406.84 76.5263L408.668 77.6826C411.24 73.6175 412.523 69.0937 412.523 64.1382H410.36ZM406.832 76.5398C404.571 80.2316 401.245 83.1945 396.802 85.4157L397.769 87.3502C402.526 84.9719 406.178 81.749 408.676 77.6691L406.832 76.5398ZM396.802 85.4157C392.382 87.6258 387.122 88.7513 380.989 88.7513V90.9141C387.386 90.9141 392.99 89.7397 397.769 87.3502L396.802 85.4157ZM463.334 71.7514H464.416V70.67H463.334V71.7514ZM463.334 89V90.0814H464.416V89H463.334ZM435.736 83.647L435.02 84.457L435.029 84.4647L435.736 83.647ZM429.551 39.5144H430.632V38.433H429.551V39.5144ZM421.462 39.5144H420.38V40.5958H421.462V39.5144ZM421.462 22.6227V21.5413H420.38V22.6227H421.462ZM429.551 22.6227V23.7041H430.632V22.6227H429.551ZM429.551 6.44471V5.3633H428.469V6.44471H429.551ZM449.892 6.44471H450.974V5.3633H449.892V6.44471ZM449.892 22.6227H448.811V23.7041H449.892V22.6227ZM463.215 22.6227H464.297V21.5413H463.215V22.6227ZM463.215 39.5144V40.5958H464.297V39.5144H463.215ZM449.892 39.5144V38.433H448.811V39.5144H449.892ZM451.32 70.4429L450.589 71.2401L450.589 71.2401L451.32 70.4429ZM462.253 71.7514V89H464.416V71.7514H462.253ZM463.334 87.9186H452.985V90.0814H463.334V87.9186ZM452.985 87.9186C445.777 87.9186 440.311 86.1759 436.444 82.8293L435.029 84.4647C439.409 88.2554 445.442 90.0814 452.985 90.0814V87.9186ZM436.453 82.837C432.655 79.477 430.632 73.9327 430.632 65.9226H428.469C428.469 74.2491 430.571 80.5211 435.02 84.457L436.453 82.837ZM430.632 65.9226V39.5144H428.469V65.9226H430.632ZM429.551 38.433H421.462V40.5958H429.551V38.433ZM422.543 39.5144V22.6227H420.38V39.5144H422.543ZM421.462 23.7041H429.551V21.5413H421.462V23.7041ZM430.632 22.6227V6.44471H428.469V22.6227H430.632ZM429.551 7.52613L449.892 7.52613V5.3633L429.551 5.3633V7.52613ZM448.811 6.44471V22.6227H450.974V6.44471H448.811ZM449.892 23.7041L463.215 23.7041V21.5413L449.892 21.5413V23.7041ZM462.134 22.6227V39.5144H464.297V22.6227H462.134ZM463.215 38.433L449.892 38.433V40.5958L463.215 40.5958V38.433ZM448.811 39.5144V66.1605H450.974V39.5144H448.811ZM448.811 66.1605C448.811 68.2851 449.318 70.0748 450.589 71.2401L452.05 69.6457C451.418 69.0663 450.974 68.0011 450.974 66.1605H448.811ZM450.589 71.2401C451.841 72.3882 453.766 72.8328 456.078 72.8328V70.67C453.948 70.67 452.701 70.2423 452.05 69.6457L450.589 71.2401ZM456.078 72.8328H463.334V70.67H456.078V72.8328ZM476.806 37.7301L475.841 37.2405L475.836 37.2524L476.806 37.7301ZM487.393 25.8345L487.966 26.7515L487.966 26.7515L487.393 25.8345ZM514.515 24.526L513.997 25.4754L514.006 25.4802L514.515 24.526ZM522.723 32.0202L521.802 32.587L523.804 35.8409V32.0202H522.723ZM522.723 22.6227V21.5413H521.641V22.6227H522.723ZM543.064 22.6227H544.146V21.5413H543.064V22.6227ZM543.064 89V90.0814H544.146V89H543.064ZM522.723 89H521.641V90.0814H522.723V89ZM522.723 79.6025H523.804V75.9116L521.812 79.0189L522.723 79.6025ZM514.396 87.0967L513.887 86.1425L513.878 86.1473L514.396 87.0967ZM487.393 85.7882L486.808 86.6979L486.82 86.7052L487.393 85.7882ZM476.806 73.7737L475.833 74.2455L475.837 74.2544L475.842 74.2632L476.806 73.7737ZM518.44 43.7968L517.655 44.54L517.66 44.5455L517.665 44.5509L518.44 43.7968ZM497.861 43.7968L497.086 43.0427L497.086 43.043L497.861 43.7968ZM497.861 67.8259L497.066 68.5585L497.076 68.5694L497.086 68.58L497.861 67.8259ZM518.44 67.8259L517.665 67.0717L517.66 67.0772L517.655 67.0827L518.44 67.8259ZM474.081 55.6924C474.081 49.0072 475.324 43.1886 477.776 38.2077L475.836 37.2524C473.212 42.5811 471.918 48.7374 471.918 55.6924H474.081ZM477.77 38.2196C480.308 33.2215 483.709 29.4123 487.966 26.7515L486.82 24.9175C482.195 27.808 478.538 31.9291 475.842 37.2405L477.77 38.2196ZM487.966 26.7515C492.227 24.0883 496.984 22.7525 502.262 22.7525V20.5896C496.597 20.5896 491.441 22.0295 486.82 24.9175L487.966 26.7515ZM502.262 22.7525C506.792 22.7525 510.692 23.6729 513.997 25.4754L515.033 23.5766C511.358 21.5725 507.09 20.5896 502.262 20.5896V22.7525ZM514.006 25.4802C517.425 27.3037 520.01 29.6756 521.802 32.587L523.644 31.4534C521.629 28.1791 518.742 25.5549 515.024 23.5718L514.006 25.4802ZM523.804 32.0202V22.6227H521.641V32.0202H523.804ZM522.723 23.7041H543.064V21.5413H522.723V23.7041ZM541.983 22.6227V89H544.146V22.6227H541.983ZM543.064 87.9186H522.723V90.0814H543.064V87.9186ZM523.804 89V79.6025H521.641V89H523.804ZM521.812 79.0189C519.939 81.9405 517.309 84.3173 513.887 86.1425L514.905 88.0509C518.62 86.0695 521.541 83.4502 523.633 80.1861L521.812 79.0189ZM513.878 86.1473C510.573 87.9498 506.673 88.8702 502.143 88.8702V91.0331C506.971 91.0331 511.239 90.0502 514.914 88.0461L513.878 86.1473ZM502.143 88.8702C496.947 88.8702 492.23 87.5361 487.966 84.8712L486.82 86.7052C491.438 89.5916 496.554 91.0331 502.143 91.0331V88.8702ZM487.978 84.8785C483.713 82.1372 480.309 78.2844 477.77 73.2841L475.842 74.2632C478.537 79.5725 482.19 83.7294 486.808 86.6979L487.978 84.8785ZM477.779 73.3019C475.324 68.2382 474.081 62.3771 474.081 55.6924H471.918C471.918 62.6479 473.212 68.841 475.833 74.2455L477.779 73.3019ZM523.804 55.8113C523.804 50.5254 522.311 46.2247 519.215 43.0427L517.665 44.5509C520.279 47.2374 521.641 50.9464 521.641 55.8113H523.804ZM519.226 43.0537C516.246 39.9032 512.551 38.314 508.21 38.314V40.4769C511.958 40.4769 515.084 41.822 517.655 44.54L519.226 43.0537ZM508.21 38.314C503.87 38.314 500.142 39.9021 497.086 43.0427L498.636 44.5509C501.29 41.8231 504.462 40.4769 508.21 40.4769V38.314ZM497.086 43.043C494.064 46.1511 492.616 50.4162 492.616 55.6924H494.779C494.779 50.8177 496.107 47.1524 498.636 44.5506L497.086 43.043ZM492.616 55.6924C492.616 60.9715 494.065 65.3005 497.066 68.5585L498.656 67.0932C496.106 64.3242 494.779 60.5642 494.779 55.6924H492.616ZM497.086 68.58C500.142 71.7206 503.87 73.3087 508.21 73.3087V71.1458C504.462 71.1458 501.29 69.7996 498.636 67.0717L497.086 68.58ZM508.21 73.3087C512.551 73.3087 516.246 71.7195 519.226 68.569L517.655 67.0827C515.084 69.8007 511.958 71.1458 508.21 71.1458V73.3087ZM519.215 68.58C522.311 65.398 523.804 61.0972 523.804 55.8113H521.641C521.641 60.6763 520.279 64.3853 517.665 67.0717L519.215 68.58ZM560.278 37.7301L559.332 37.2061L559.326 37.2174L560.278 37.7301ZM572.055 25.8345L571.536 24.8857L571.53 24.8892L572.055 25.8345ZM610.24 28.2136L609.572 29.064L609.578 29.0685L610.24 28.2136ZM621.303 46.6518V47.7332H622.648L622.359 46.4194L621.303 46.6518ZM599.653 46.6518L598.635 47.0175L598.892 47.7332H599.653V46.6518ZM580.144 43.4399L580.998 44.1039L581.002 44.0982L581.006 44.0925L580.144 43.4399ZM580.144 68.3017L579.282 68.9543L579.286 68.96L579.29 68.9656L580.144 68.3017ZM599.653 64.9709V63.8895H598.892L598.635 64.6052L599.653 64.9709ZM621.303 64.9709L622.358 65.2078L622.654 63.8895H621.303V64.9709ZM610.24 83.2901L609.57 82.441L609.57 82.441L610.24 83.2901ZM572.055 85.7882L571.53 86.7335L571.536 86.737L572.055 85.7882ZM560.278 73.8926L559.326 74.4054L559.332 74.4166L560.278 73.8926ZM557.196 55.8113C557.196 49.0589 558.554 43.214 561.231 38.2428L559.326 37.2174C556.452 42.5556 555.034 48.7649 555.034 55.8113H557.196ZM561.224 38.254C563.984 33.2706 567.767 29.454 572.58 26.7798L571.53 24.8892C566.351 27.7663 562.282 31.8801 559.332 37.2061L561.224 38.254ZM572.574 26.7833C577.471 24.105 583.078 22.7525 589.423 22.7525V20.5896C582.761 20.5896 576.79 22.0127 571.536 24.8857L572.574 26.7833ZM589.423 22.7525C597.552 22.7525 604.244 24.8777 609.572 29.0639L610.908 27.3633C605.133 22.8261 597.947 20.5896 589.423 20.5896V22.7525ZM609.578 29.0685C614.98 33.2537 618.548 39.1643 620.247 46.8841L622.359 46.4194C620.568 38.2785 616.761 31.897 610.902 27.3587L609.578 29.0685ZM621.303 45.5703H599.653V47.7332H621.303V45.5703ZM600.67 46.286C599.702 43.5923 598.25 41.4883 596.269 40.0639C594.286 38.6376 591.862 37.9572 589.066 37.9572V40.12C591.503 40.12 593.461 40.7084 595.007 41.8199C596.555 42.9332 597.779 44.6357 598.635 47.0175L600.67 46.286ZM589.066 37.9572C585.005 37.9572 581.71 39.5789 579.282 42.7874L581.006 44.0925C583.019 41.4325 585.672 40.12 589.066 40.12V37.9572ZM579.29 42.776C576.865 45.894 575.732 50.2912 575.732 55.8113H577.895C577.895 50.5462 578.982 46.6958 580.998 44.1039L579.29 42.776ZM575.732 55.8113C575.732 61.3343 576.866 65.7627 579.282 68.9543L581.006 67.6491C578.981 64.9722 577.895 61.0737 577.895 55.8113H575.732ZM579.29 68.9656C581.723 72.0932 585.017 73.6655 589.066 73.6655V71.5027C585.66 71.5027 583.006 70.22 580.998 67.6378L579.29 68.9656ZM589.066 73.6655C591.862 73.6655 594.286 72.9851 596.269 71.5588C598.25 70.1344 599.702 68.0304 600.67 65.3367L598.635 64.6052C597.779 66.987 596.555 68.6895 595.007 69.8028C593.461 70.9143 591.503 71.5027 589.066 71.5027V73.6655ZM599.653 66.0524H621.303V63.8895H599.653V66.0524ZM620.248 64.7341C618.551 72.2921 614.984 78.171 609.57 82.441L610.91 84.1392C616.757 79.5273 620.565 73.1933 622.358 65.2078L620.248 64.7341ZM609.57 82.441C604.158 86.7095 597.465 88.8702 589.423 88.8702V91.0331C597.875 91.0331 605.06 88.7528 610.91 84.1392L609.57 82.441ZM589.423 88.8702C583.078 88.8702 577.471 87.5177 572.574 84.8394L571.536 86.737C576.79 89.61 582.761 91.0331 589.423 91.0331V88.8702ZM572.58 84.8429C567.767 82.1687 563.984 78.3521 561.224 73.3687L559.332 74.4166C562.282 79.7426 566.351 83.8564 571.53 86.7335L572.58 84.8429ZM561.231 73.3799C558.554 68.4087 557.196 62.5638 557.196 55.8113H555.034C555.034 62.8578 556.452 69.0671 559.326 74.4053L561.231 73.3799ZM675.126 89L674.252 89.6356L674.575 90.0814H675.126V89ZM654.904 61.1644L655.779 60.5287L653.823 57.8359V61.1644H654.904ZM654.904 89V90.0814L655.985 90.0814V89L654.904 89ZM634.563 89H633.481V90.0814H634.563V89ZM634.563 0.97275V-0.108666H633.481V0.97275H634.563ZM654.904 0.97275H655.985V-0.108666H654.904V0.97275ZM654.904 49.6256H653.823V52.8891L655.771 50.2714L654.904 49.6256ZM675.007 22.6227V21.5413H674.464L674.14 21.9769L675.007 22.6227ZM700.107 22.6227L700.94 23.3127L702.408 21.5413H700.107V22.6227ZM672.509 55.9303L671.677 55.2403L671.1 55.9358L671.682 56.6267L672.509 55.9303ZM700.345 89V90.0814H702.669L701.172 88.3036L700.345 89ZM676.001 88.3644L655.779 60.5287L654.029 61.8L674.252 89.6356L676.001 88.3644ZM653.823 61.1644V89L655.985 89V61.1644L653.823 61.1644ZM654.904 87.9186H634.563V90.0814H654.904V87.9186ZM635.644 89V0.97275H633.481V89H635.644ZM634.563 2.05417L654.904 2.05417V-0.108666L634.563 -0.108666V2.05417ZM653.823 0.97275V49.6256H655.985V0.97275H653.823ZM655.771 50.2714L675.875 23.2685L674.14 21.9769L654.037 48.9799L655.771 50.2714ZM675.007 23.7041L700.107 23.7041V21.5413L675.007 21.5413V23.7041ZM699.274 21.9327L671.677 55.2403L673.342 56.6203L700.94 23.3127L699.274 21.9327ZM671.682 56.6267L699.518 89.6964L701.172 88.3036L673.337 55.2339L671.682 56.6267ZM700.345 87.9186H675.126V90.0814H700.345V87.9186Z" fill="#E49B00"/>
</svg>
