<svg width="73" height="74" viewBox="0 0 73 74" fill="none" xmlns="http://www.w3.org/2000/svg">
<path fill-rule="evenodd" clip-rule="evenodd" d="M50.8514 0.727633C50.2723 0.969629 50.1446 1.30377 50.0707 2.77046L49.9993 4.18901L48.9993 4.58015C48.4493 4.79529 47.8065 5.07543 47.5708 5.20257L47.1422 5.43385L46.1992 4.50387C45.4154 3.73073 45.1544 3.56016 44.6524 3.49288L44.0485 3.41188L41.4168 6.04356C39.3026 8.15781 38.7852 8.75109 38.7852 9.06094V9.44679L21.528 9.48522L4.27065 9.52379L3.19124 10.0574C1.89112 10.6999 1.08127 11.5272 0.452136 12.8552L0 13.8094V34.888V55.9666L0.533564 57.046C1.17613 58.3462 2.00326 59.1561 3.33138 59.7852L4.28565 60.2374L16.3212 60.2769L28.3567 60.3166V62.7289V65.1413L26.0353 65.1893C23.8429 65.2346 23.6664 65.2596 22.8568 65.6376C21.4318 66.3031 20.4433 67.4313 20.0117 68.8841C19.7393 69.8015 19.7037 72.4016 19.9561 72.9555C20.3264 73.7683 19.7487 73.7372 34.4352 73.7372H47.9565L48.459 73.2346L48.9614 72.7322L48.9027 70.9132C48.8515 69.3272 48.796 68.9907 48.4702 68.2837C47.9495 67.1544 47.0705 66.254 45.9492 65.7016C45.0208 65.2441 44.9726 65.2366 42.6817 65.1893L40.3566 65.1413V62.725V60.3088L52.035 60.3071C64.4808 60.3052 64.3862 60.3101 65.7689 59.6032C67.1502 58.8971 68.3302 57.2563 68.6399 55.6109C68.7305 55.1297 68.7847 50.3961 68.7847 42.9819V31.1225L69.5164 30.3488C70.2044 29.6214 70.2436 29.5402 70.17 28.9922C70.1061 28.5155 69.9226 28.2378 69.1619 27.4665L68.2319 26.5236L68.4632 26.095C68.5903 25.8593 68.8705 25.2164 69.0856 24.6664L69.4767 23.6665L70.9131 23.595C73.1141 23.4856 72.999 23.7302 72.999 19.1665C72.999 14.6029 73.1141 14.8474 70.9131 14.738L69.4767 14.6666L69.0856 13.6666C68.8705 13.1166 68.5903 12.4738 68.4632 12.238L68.2319 11.8095L69.1619 10.8665C69.935 10.0826 70.1056 9.82165 70.1729 9.31965L70.2539 8.71581L67.6019 6.06384L64.9499 3.41188L64.3461 3.49288C63.8441 3.56016 63.5831 3.73073 62.7993 4.50387L61.8563 5.43385L61.4277 5.20257C61.192 5.07543 60.5491 4.79529 59.9992 4.58015L58.9992 4.18901L58.9277 2.7526C58.819 0.566206 59.0354 0.673919 54.6741 0.636491C52.7315 0.61992 51.0113 0.660919 50.8514 0.727633ZM56.0918 4.58558C56.1584 6.0487 56.4133 6.42427 57.5835 6.78183C58.7799 7.1474 60.1706 7.72768 60.9697 8.19496C62.0614 8.83309 62.4987 8.75652 63.5547 7.74253L64.4428 6.88983L65.6082 8.06396L66.7738 9.23808L65.9222 10.1166C65.2505 10.8096 65.0705 11.0898 65.0705 11.4423C65.0705 11.6896 65.4146 12.6053 65.8408 13.4922C66.2645 14.3739 66.6911 15.4166 66.7886 15.8094C67.1373 17.2125 67.6712 17.5951 69.2802 17.5951H70.2133V19.1487V20.7021L68.9999 20.7658C67.4475 20.8472 67.2348 21.0286 66.7143 22.715C66.5043 23.3955 66.0485 24.4897 65.7015 25.1469C64.8227 26.8108 64.8437 27.1037 65.9222 28.2164L66.7738 29.0949L65.6082 30.2691L64.4428 31.4432L63.5547 30.5905C62.4314 29.5118 62.1416 29.4909 60.4796 30.3689C59.8224 30.7161 58.733 31.1666 58.0585 31.3703C56.3741 31.879 56.1805 32.1058 56.0985 33.6672L56.0348 34.8806H54.4992H52.9637L52.9 33.6672C52.818 32.1058 52.6244 31.879 50.94 31.3703C50.2654 31.1666 49.176 30.7161 48.5189 30.3689C46.8569 29.4909 46.5671 29.5118 45.4438 30.5905L44.5557 31.4432L43.3902 30.2691L42.2247 29.0949L43.0762 28.2164C44.1548 27.1037 44.1758 26.8108 43.2968 25.1469C42.9497 24.4897 42.4991 23.4003 42.2954 22.7257C41.7867 21.0413 41.56 20.8478 39.9986 20.7658L38.7852 20.7021V19.1665V17.631L39.9986 17.5673C41.56 17.4853 41.7867 17.2917 42.2954 15.6073C42.4991 14.9327 42.9497 13.8433 43.2968 13.1862C44.1748 11.5242 44.1539 11.2343 43.0752 10.1111L42.2225 9.22294L43.3967 8.05753L44.5708 6.89197L45.4494 7.74353C46.5421 8.80266 46.8999 8.84209 48.3159 8.05953C48.8489 7.76496 49.954 7.29754 50.7717 7.02097C52.6543 6.38427 52.8343 6.17884 52.9067 4.58558L52.9581 3.45245H54.4992H56.0403L56.0918 4.58558ZM53.1421 10.3926C51.9071 10.6909 51.4716 10.8331 50.7759 11.1653C48.3513 12.3232 46.8119 14.151 45.9018 16.9523C45.6576 17.7037 45.6576 20.6294 45.9018 21.3808C46.4538 23.0796 47.3538 24.5902 48.3733 25.5287C51.446 28.357 55.6911 28.7991 59.1636 26.6524C62.2735 24.7299 63.9538 20.7908 63.1388 17.3334C62.1718 13.2317 58.9482 10.5236 54.8564 10.3754C54.0707 10.3469 53.2992 10.3548 53.1421 10.3926ZM40.0023 13.488L39.5274 14.6666L38.0882 14.738C35.8831 14.8474 35.9995 14.5997 35.9995 19.1828V22.9055L36.4003 23.2503C36.7629 23.5622 36.9299 23.595 38.1533 23.595C39.4217 23.595 39.5136 23.6149 39.6359 23.9164C39.7076 24.0933 39.9859 24.7623 40.2543 25.4034L40.7424 26.569L39.8249 27.4865C39.0589 28.2524 38.8939 28.5044 38.8259 29.0107L38.7446 29.6172L41.3966 32.2692L44.0485 34.9211L44.6551 34.8399C45.1614 34.7719 45.4134 34.6069 46.1792 33.8409L47.0968 32.9233L48.2623 33.4115C48.9035 33.6799 49.5724 33.9582 49.7493 34.0299C50.0509 34.1522 50.0707 34.244 50.0707 35.5124C50.0707 36.7358 50.1036 36.9028 50.4154 37.2654L50.7603 37.6663H54.4992H58.2382L58.583 37.2654C58.895 36.9027 58.9277 36.736 58.9277 35.511C58.9277 34.3512 58.9636 34.1444 59.1777 34.0676C59.3152 34.0183 59.9844 33.7407 60.665 33.4509L61.9021 32.9239L62.8195 33.8412C63.5617 34.5834 63.845 34.773 64.3035 34.8344C64.7709 34.8971 64.9477 34.8453 65.3124 34.5384C65.5556 34.3337 65.7935 34.1663 65.8411 34.1663C66.0015 34.1663 65.9366 54.7706 65.7745 55.3547C65.6911 55.6549 65.3981 56.1493 65.1234 56.4534C64.1357 57.5467 66.8273 57.463 34.0605 57.4194L4.69336 57.3803L4.11423 56.997C3.79566 56.7863 3.38252 56.3684 3.1961 56.0684C2.88682 55.571 2.85282 55.3384 2.80825 53.416L2.75953 51.3089H29.5557H56.3518L56.8151 50.8949C57.4403 50.3364 57.47 49.5007 56.8856 48.9161L56.4928 48.5232L29.6392 48.4864L2.78567 48.4495V46.4554V44.4612L8.58374 44.4209L14.3819 44.3804L14.7265 43.9796C15.1941 43.436 15.1941 42.6106 14.7265 42.0671L14.3819 41.6662L8.58374 41.6258L2.78567 41.5855L2.78653 28.1974C2.78696 19.2127 2.8371 14.6301 2.93867 14.2644C3.12367 13.5982 4.03623 12.6543 4.67293 12.4708C4.95679 12.3889 12.1397 12.3302 22.81 12.3223L40.4771 12.3095L40.0023 13.488ZM56.0049 13.3869C60.4573 14.5392 61.977 20.1338 58.7217 23.389C55.2842 26.8267 49.4282 24.9276 48.6025 20.1075C47.8807 15.8937 51.8314 12.3069 56.0049 13.3869ZM20.1819 17.675C19.626 17.9767 19.4997 18.3015 19.4997 19.4311V20.4286L18.763 20.8539L18.0263 21.2793L17.144 20.7943C16.0719 20.2051 15.6381 20.1856 15.0795 20.7022C14.6469 21.1023 12.2685 25.114 12.1251 25.6854C11.9787 26.2688 12.4487 26.9413 13.3618 27.4548L14.2141 27.9342V28.7634V29.5925L13.4484 30.0246C11.7245 30.9975 11.7231 31.3395 13.4311 34.3092C14.1314 35.527 14.8484 36.668 15.0242 36.8448C15.4858 37.3088 16.2272 37.2667 17.1935 36.7214L17.9816 36.2766L18.7402 36.6857L19.4987 37.0948L19.4993 38.1415C19.4997 39.1077 19.5319 39.2204 19.9173 39.6058L20.3349 40.0234H23.3264H26.3178L26.6769 39.6642C27.0738 39.2675 27.2139 38.763 27.2139 37.732C27.2139 37.065 27.2309 37.0381 27.8925 36.6631L28.571 36.2783L29.3823 36.7223C30.3627 37.2588 31.0516 37.2975 31.556 36.8448C32.0745 36.3793 34.3769 32.3276 34.4579 31.7378C34.5454 31.1018 34.1889 30.6262 33.194 30.0518L32.4638 29.6302L32.4633 28.7912L32.4625 27.9521L33.2311 27.4935C34.0667 26.9948 34.4975 26.4441 34.4988 25.8734C34.4998 25.3597 31.8034 20.7643 31.3554 20.5165C30.7999 20.2089 30.3536 20.2741 29.437 20.7961L28.5887 21.2792L27.9033 20.9015L27.218 20.5236L27.2159 19.6977C27.2136 18.7338 26.951 18.0131 26.4829 17.6852C26.0158 17.358 20.7816 17.3494 20.1819 17.675ZM24.3568 21.1346C24.3568 22.1622 24.5579 22.462 25.5262 22.8786C25.9403 23.0567 26.6898 23.4836 27.1916 23.8273C27.6936 24.171 28.2479 24.4522 28.4235 24.4522C28.599 24.4522 29.045 24.2914 29.4144 24.095C29.7839 23.8986 30.1087 23.7379 30.1363 23.7379C30.1917 23.7379 31.071 25.2687 31.071 25.365C31.071 25.398 30.7829 25.5939 30.4307 25.8001C30.0787 26.0066 29.7332 26.2858 29.6629 26.4208C29.5927 26.556 29.534 27.5985 29.5324 28.7378C29.5294 31.0505 29.5814 31.2199 30.4566 31.7465C30.7553 31.926 31.0223 32.0899 31.05 32.1106C31.0777 32.1312 30.8886 32.5333 30.6297 33.0043L30.159 33.8604L29.5667 33.5135C28.731 33.0236 27.9913 33.0502 27.3319 33.5937C26.8128 34.0217 25.5086 34.7377 25.2484 34.7377C25.1724 34.7377 24.9405 34.9072 24.7334 35.1143C24.4121 35.4356 24.3568 35.614 24.3568 36.3286V37.1663H23.3568H22.3568V36.5163C22.3568 35.4776 22.0587 35.0763 20.8853 34.536C20.3197 34.2754 19.607 33.8607 19.3014 33.6143C18.6303 33.0729 17.9032 33.0222 17.1532 33.4647C16.875 33.6289 16.5803 33.7407 16.4983 33.7135C16.4163 33.6862 16.1569 33.327 15.9218 32.9153L15.4944 32.167L16.2042 31.7302C16.5946 31.4901 16.959 31.1523 17.014 30.9799C17.069 30.8075 17.1153 29.7514 17.117 28.6332C17.1205 26.3633 17.0959 26.2967 16.0439 25.7053L15.5016 25.4006L15.9469 24.6049C16.1918 24.1673 16.4098 23.7892 16.4312 23.7645C16.4528 23.7399 16.8002 23.8922 17.2033 24.103C18.095 24.5693 18.4932 24.5189 19.4723 23.8153C19.8581 23.5382 20.5204 23.1577 20.944 22.9699C22.0193 22.493 22.2555 22.1846 22.3295 21.1612L22.3911 20.3094H23.374H24.3568V21.1346ZM22.714 27.4751C21.8323 27.96 21.6546 29.0575 22.3458 29.7488C22.8875 30.2905 23.5885 30.3136 24.1874 29.8097C24.7231 29.3588 24.8464 28.8747 24.5848 28.2485C24.2674 27.4888 23.3662 27.1163 22.714 27.4751ZM18.6583 41.7942C17.3679 42.5093 17.946 44.4519 19.4493 44.4519C19.9906 44.4519 20.7854 43.602 20.7854 43.0233C20.7854 42.6939 20.6497 42.4305 20.2997 42.0805C19.7713 41.5521 19.2569 41.4623 18.6583 41.7942ZM60.9991 48.6104C60.1142 49.1194 59.9397 50.2001 60.631 50.8914C61.2 51.4603 61.8951 51.4616 62.5293 50.8949C63.4305 50.0896 62.9873 48.6877 61.7771 48.516C61.5064 48.4775 61.1563 48.5201 60.9991 48.6104ZM33.6581 52.9369C32.3677 53.652 32.9458 55.5946 34.4491 55.5946C34.9904 55.5946 35.7852 54.7447 35.7852 54.166C35.7852 53.8366 35.6495 53.5732 35.2995 53.2232C34.7711 52.6948 34.2567 52.605 33.6581 52.9369ZM37.4995 62.7373V65.1659H34.3567H31.2138V62.7373V60.3088H34.3567H37.4995V62.7373ZM44.7358 68.2574C45.4619 68.602 45.9584 69.3309 46.0391 70.1718L46.1071 70.8801H34.3748H22.6425V70.3894C22.6425 69.4334 23.1688 68.5938 23.9997 68.2247C24.3429 68.072 26.3983 68.033 34.3351 68.0285C43.2302 68.0235 44.2924 68.047 44.7358 68.2574Z" fill="#E49B00"/>
</svg>
