<svg width="71" height="70" viewBox="0 0 71 70" fill="none" xmlns="http://www.w3.org/2000/svg">
<path fill-rule="evenodd" clip-rule="evenodd" d="M45.7826 0.0913106C44.9168 0.308855 43.6846 1.03811 43.0864 1.68705C42.7792 2.02034 42.3338 2.70444 42.0965 3.20699C41.7026 4.04173 41.6674 4.22767 41.6904 5.35233C41.7042 6.02959 41.7342 6.78484 41.7571 7.03057C41.7967 7.45649 41.6611 7.59797 38.8582 10.0532L35.9178 12.6291L35.2325 12.3099C34.1838 11.8216 33.053 11.9149 32.1166 12.567C31.9086 12.7119 31.6798 12.8103 31.6084 12.7855C31.537 12.7609 30.5605 12.0326 29.4386 11.1672L27.3987 9.59377L27.3266 8.54394C27.2055 6.77841 26.3342 5.47273 24.7687 4.71037C23.8551 4.26543 22.0877 4.28007 21.1388 4.74033C20.2664 5.16352 19.4449 5.98499 19.0217 6.85736C18.7514 7.41476 18.6894 7.75681 18.6869 8.70443C18.6852 9.38895 18.7545 9.99397 18.8558 10.1751C19.0167 10.4635 18.8357 10.7057 15.9908 14.0061C14.3205 15.9439 12.8795 17.6114 12.7886 17.7119C12.651 17.8636 12.5157 17.8579 11.9848 17.6777C10.6898 17.2379 9.68237 17.4835 8.68345 18.4824C7.29923 19.8667 7.29923 21.6226 8.68345 23.0068C10.0675 24.3909 11.8207 24.3909 13.2107 23.0068C14.0367 22.1843 14.3125 21.4055 14.1793 20.2715L14.0921 19.5301L16.8479 16.3407C18.3636 14.5863 19.7763 12.9528 19.9873 12.7104L20.3708 12.2698L21.1653 12.6412C22.6751 13.3469 24.777 13.0462 25.8002 11.9781C26.0112 11.7579 26.2327 11.5777 26.2924 11.5777C26.3522 11.5777 27.3566 12.3195 28.5243 13.2261C30.4495 14.7206 30.6478 14.914 30.6478 15.2967C30.6478 16.1324 30.9671 16.8318 31.6693 17.534C33.0534 18.9181 34.8066 18.9181 36.1965 17.534C36.9597 16.7741 37.2766 15.9786 37.1942 15.0296L37.1468 14.4821L40.1256 11.8577L43.1046 9.23352L43.6371 9.65533C43.9299 9.88725 44.5288 10.2448 44.968 10.4497C45.661 10.7732 45.9391 10.8225 47.0734 10.8238C48.3105 10.825 48.436 10.7976 49.4246 10.3091C50.5237 9.76575 51.3749 8.95796 51.8718 7.98613C52.0161 7.704 52.1703 7.47305 52.2144 7.47305C52.2584 7.47305 52.8365 7.57224 53.499 7.69333L54.7033 7.91375L54.8591 8.53272C55.2058 9.90955 55.9772 10.8874 57.2297 11.538C57.8399 11.8549 58.1123 11.909 59.1064 11.9116C60.1715 11.9144 60.3421 11.8754 61.1315 11.4497C62.0917 10.932 62.5063 10.5027 63.0421 9.47159C63.3506 8.87778 63.4056 8.59812 63.4082 7.60987C63.4109 6.54404 63.3722 6.37465 62.9445 5.58151C62.4382 4.64237 61.8563 4.08606 60.8894 3.61676C60.4049 3.38171 60.0152 3.31439 59.1064 3.30892C58.0919 3.30276 57.8512 3.35037 57.2205 3.68189C56.4549 4.08428 55.4802 4.99126 55.3406 5.43114C55.2918 5.58506 55.133 5.69438 54.9585 5.69425C54.616 5.69397 52.6774 5.33701 52.6221 5.26395C52.602 5.23727 52.5061 4.8461 52.4091 4.39459C51.8662 1.8682 49.8763 0.128799 47.3926 0.00962879C46.7992 -0.0188299 46.0747 0.0179748 45.7826 0.0913106ZM48.0765 2.30342C48.8281 2.52548 49.9615 3.6589 50.1836 4.41046C50.5625 5.69329 50.2953 6.71602 49.3284 7.68293C47.9442 9.06714 46.1883 9.06714 44.8041 7.68293C43.4198 6.29872 43.4198 4.54427 44.8041 3.15705C45.7638 2.1952 46.7977 1.92553 48.0765 2.30342ZM60.0108 5.64225C61.4123 6.30734 61.7185 8.04003 60.6276 9.13104C59.7262 10.0324 58.4475 10.0208 57.5749 9.1034C55.9079 7.35101 57.8366 4.61063 60.0108 5.64225ZM23.8902 6.73682C25.2917 7.4019 25.5979 9.1346 24.507 10.2256C23.6056 11.127 22.3269 11.1153 21.4543 10.198C19.7872 8.44557 21.716 5.70519 23.8902 6.73682ZM34.6901 14.5131C35.3689 15.1918 34.888 16.3664 33.9315 16.3664C33.6649 16.3664 33.3845 16.2423 33.1728 16.0305C32.961 15.8188 32.8369 15.5383 32.8369 15.2718C32.8369 15.0053 32.961 14.7248 33.1728 14.5131C33.3845 14.3013 33.6649 14.1773 33.9315 14.1773C34.198 14.1773 34.4785 14.3013 34.6901 14.5131ZM11.7043 19.986C11.9161 20.1976 12.0402 20.4781 12.0402 20.7446C12.0402 21.0112 11.9161 21.2916 11.7043 21.5033C11.4926 21.7151 11.2122 21.8392 10.9456 21.8392C10.6791 21.8392 10.3986 21.7151 10.187 21.5033C9.97517 21.2916 9.85107 21.0112 9.85107 20.7446C9.85107 20.4781 9.97517 20.1976 10.187 19.986C10.3986 19.7742 10.6791 19.6501 10.9456 19.6501C11.2122 19.6501 11.4926 19.7742 11.7043 19.986ZM43.9878 20.9337C43.4826 21.1632 43.0273 21.6455 42.834 22.1559C42.7331 22.4221 42.688 28.4199 42.688 41.5565V60.5718L43.0239 60.9076C43.4681 61.352 44.097 61.352 44.5412 60.9076L44.8771 60.5718V41.7527V22.9338H47.0662H49.2554V41.7527V60.5718L49.5913 60.9076C50.0361 61.3525 50.6643 61.352 51.1101 60.9062L51.4474 60.569L51.4117 41.3509C51.3762 22.1818 51.3754 22.1319 51.094 21.7551C50.4074 20.8355 50.3312 20.8162 47.2277 20.7802C45.074 20.7552 44.3001 20.7918 43.9878 20.9337ZM56.028 24.2174C55.5228 24.4469 55.0675 24.9291 54.8742 25.4396C54.7736 25.7051 54.7282 31.2245 54.7282 43.1984V60.5718L55.0641 60.9076C55.5083 61.352 56.1372 61.352 56.5814 60.9076L56.9173 60.5718V43.3946V26.2175H59.1064H61.2956V45.5837V64.9501L61.6315 65.2859C61.9645 65.619 61.9884 65.6217 64.5793 65.6217C67.1701 65.6217 67.194 65.6245 67.5271 65.9576C67.9715 66.4019 67.9715 67.0307 67.5271 67.475L67.1913 67.8109H53.0863H38.9814L38.6456 68.1468C38.2012 68.591 38.2012 69.2199 38.6456 69.6641L38.9814 70H53.0985C63.7824 70 67.3525 69.9595 67.7787 69.8336C68.5302 69.6116 69.6636 68.4781 69.8857 67.7266C70.2439 66.5144 70.0042 65.492 69.1352 64.5255C68.3012 63.5979 67.7331 63.4326 65.3772 63.4326H63.4876L63.4519 44.4246C63.4164 25.4675 63.4155 25.4155 63.1342 25.0387C62.4476 24.1192 62.3714 24.0999 59.2679 24.0639C57.1142 24.0389 56.3403 24.0755 56.028 24.2174ZM19.9074 26.4065C19.4022 26.636 18.9469 27.1183 18.7536 27.6288C18.6531 27.8938 18.6076 33.0945 18.6076 44.2929V60.5718L18.9435 60.9076C19.3877 61.352 20.0166 61.352 20.4608 60.9076L20.7967 60.5718V44.4891V28.4066H22.9858H25.175V44.4891V60.5718L25.5109 60.9076C25.9558 61.3527 26.5839 61.352 27.0298 60.9061L27.3674 60.5686L27.3315 44.0872C27.2958 27.6823 27.2943 27.6039 27.0136 27.2279C26.327 26.3083 26.2508 26.289 23.1473 26.253C20.9936 26.228 20.2197 26.2647 19.9074 26.4065ZM31.9476 34.0685C31.4424 34.2979 30.9871 34.7802 30.7938 35.2907C30.6943 35.5533 30.6478 39.6389 30.6478 48.1239V60.5718L30.9837 60.9076C31.4279 61.352 32.0568 61.352 32.501 60.9076L32.8369 60.5718V48.3201V36.0685H35.026H37.2152V48.3201V60.5718L37.5511 60.9076C37.9961 61.3528 38.6241 61.352 39.0706 60.9055L39.4085 60.5676L39.3721 47.9176C39.3362 35.3829 39.3333 35.2642 39.0538 34.8898C38.3672 33.9702 38.291 33.951 35.1875 33.915C33.0338 33.8899 32.2599 33.9266 31.9476 34.0685ZM7.86718 40.6359C7.36204 40.8653 6.9067 41.3476 6.71337 41.8581C6.61459 42.1189 6.56738 45.6657 6.56738 52.8379V63.4326H4.70197C2.38027 63.4326 1.91343 63.5622 1.0215 64.4541C0.312908 65.1627 0 65.8557 0 66.7163C0 67.9812 1.09757 69.4862 2.27341 69.8336C2.6996 69.9595 6.26966 70 16.9536 70H31.0707L31.4065 69.6641C31.8508 69.2199 31.8508 68.591 31.4065 68.1468L31.0707 67.8109H16.9657H2.86078L2.52502 67.475C2.31322 67.2633 2.18913 66.9828 2.18913 66.7163C2.18913 66.4498 2.31322 66.1693 2.52502 65.9576C2.85804 65.6245 2.88199 65.6217 5.47282 65.6217C8.06365 65.6217 8.08759 65.619 8.42062 65.2859L8.75651 64.9501V53.7929V42.6359H10.9456H13.1348V51.6038V60.5718L13.4707 60.9076C13.916 61.3531 14.5437 61.352 14.9909 60.9049L15.3295 60.5662L15.2924 51.2006C15.256 41.984 15.251 41.8289 14.9734 41.4572C14.2867 40.5376 14.2106 40.5183 11.1071 40.4824C8.95339 40.4573 8.17954 40.494 7.86718 40.6359ZM11.2815 63.7685C11.0697 63.9802 10.9456 64.2607 10.9456 64.5272C10.9456 64.7937 11.0697 65.0742 11.2815 65.2859L11.6173 65.6217H35.026H58.4348L58.7705 65.2859C59.2149 64.8416 59.2149 64.2128 58.7705 63.7685L58.4348 63.4326H35.026H11.6173L11.2815 63.7685ZM34.2674 68.1468C33.5886 68.8254 34.0695 70 35.026 70C35.2926 70 35.573 69.8759 35.7847 69.6641C35.9965 69.4524 36.1206 69.172 36.1206 68.9054C36.1206 68.6389 35.9965 68.3584 35.7847 68.1468C35.573 67.935 35.2926 67.8109 35.026 67.8109C34.7595 67.8109 34.479 67.935 34.2674 68.1468Z" fill="#E49B00"/>
</svg>
