<svg width="70" height="70" viewBox="0 0 70 70" fill="none" xmlns="http://www.w3.org/2000/svg">
<path fill-rule="evenodd" clip-rule="evenodd" d="M36.1382 0.0656048C31.9108 0.547434 28.775 1.54353 25.7745 3.35737C20.4689 6.56468 16.4529 11.9274 15.02 17.7179L14.6774 19.1024L13.2936 19.1833C7.13293 19.5438 1.98202 23.7654 0.389384 29.7595C0.0742794 30.9456 0.0278761 31.3887 0.0250015 33.2403C0.0222638 35.1015 0.0656558 35.5252 0.378434 36.6906C1.48431 40.8104 4.15723 44.0722 7.93219 45.9086C9.33429 46.5907 11.7935 47.2785 12.34 47.1414C12.9336 46.9923 13.3472 46.4611 13.3472 45.8474C13.3472 44.967 12.9607 44.6487 11.4308 44.2698C9.79244 43.864 8.82317 43.4338 7.52401 42.5355C3.03712 39.4338 1.43421 33.4592 3.75849 28.4994C4.85971 26.1497 6.57897 24.3496 8.83535 23.1842C10.7575 22.1913 11.6917 21.9776 14.1947 21.9582C16.8289 21.9378 16.9086 21.8933 17.2486 20.2516C18.2077 15.6211 19.8462 12.3568 22.7644 9.26237C27.3317 4.41958 34.1962 1.99703 40.723 2.92455C45.4408 3.595 49.3038 5.53327 52.7065 8.93741C54.9057 11.1375 56.3513 13.3199 57.4256 16.0615C57.6026 16.5132 57.8275 17.009 57.9254 17.1633C58.0232 17.3174 58.7357 17.7601 59.5087 18.1469C63.1284 19.9583 65.7971 23.2424 66.8237 27.149C67.1365 28.3392 67.1839 28.7948 67.187 30.6396C67.1903 32.5103 67.1484 32.9152 66.8332 34.0631C65.4636 39.0508 61.8253 42.7299 56.8896 44.1186C56.0529 44.354 55.6234 44.553 55.4045 44.8071C54.9277 45.3602 55.0374 46.2965 55.6321 46.7532C56.4733 47.399 60.1589 46.152 62.8593 44.308C67.3988 41.2083 70.2711 35.3893 69.9739 29.8949C69.6505 23.9143 66.4277 18.777 61.2181 15.9372L60.0769 15.3151L59.6128 14.191C58.663 11.8908 56.7753 9.1066 54.8015 7.09497C51.0368 3.25827 46.2346 0.885398 40.8195 0.186336C39.3604 -0.00215231 37.2167 -0.0573162 36.1382 0.0656048ZM22.4191 22.911C20.5891 23.4039 18.8018 24.8053 18.0229 26.358C17.5507 27.2996 17.1791 28.7113 17.1819 29.5533C17.1873 31.1581 17.9863 33.0806 19.1454 34.2772L19.8646 35.0198L19.1277 35.7806C18.1891 36.7497 17.4721 38.2247 17.2752 39.592C16.9922 41.5561 17.7177 43.7539 19.1303 45.2124L19.8646 45.9705L19.1277 46.7313C17.9653 47.9313 17.1799 49.8503 17.1799 51.49C17.1799 52.2871 17.5632 53.7155 18.0229 54.6323C18.536 55.655 19.826 56.9388 20.8704 57.4659C22.3842 58.2301 22.9006 58.2857 28.507 58.2879L33.6059 58.29L33.6013 60.1721L33.5967 62.0542L32.8874 62.4649C30.0711 64.095 30.3194 68.3265 33.3117 69.6964C34.1957 70.1012 35.7537 70.1012 36.6377 69.6964C39.63 68.3265 39.8783 64.095 37.062 62.4649L36.3527 62.0542L36.348 60.1721L36.3435 58.29H41.5163C47.1384 58.29 47.5458 58.2471 49.0704 57.4958C50.0375 57.0193 51.5017 55.558 51.9781 54.5941C53.3448 51.8288 52.8793 48.7972 50.7549 46.6282L50.1253 45.9855L50.8931 45.1562C53.4327 42.4132 53.3734 38.351 50.7549 35.6775L50.1253 35.0349L50.8931 34.2055C52.9056 32.0319 53.3132 29.0976 51.9781 26.3962C51.5017 25.4322 50.0375 23.971 49.0704 23.4945C47.4177 22.6799 47.7694 22.6995 34.9117 22.7094C25.2387 22.7168 23.0065 22.7528 22.4191 22.911ZM47.7355 25.8912C48.676 26.3531 49.3843 27.1395 49.757 28.1357C50.4867 30.0861 49.6122 32.2763 47.7355 33.1978L46.952 33.5825L35.3853 33.6253C27.2806 33.6551 23.6082 33.6225 23.1151 33.5162C21.0518 33.071 19.6004 30.8182 20.0447 28.7503C20.3538 27.3123 21.4799 26.063 22.8604 25.6265C23.2872 25.4915 26.0065 25.4591 35.18 25.4799L46.952 25.5064L47.7355 25.8912ZM23.9742 28.3996C23.2199 29.1541 23.6546 30.4767 24.7275 30.6913C25.5452 30.8549 35.4207 30.7723 35.9327 30.5977C36.2525 30.4884 36.4983 30.2724 36.6727 29.9469C36.9839 29.3663 36.8998 28.8564 36.4127 28.3692L36.0822 28.0388H30.2087H24.3352L23.9742 28.3996ZM39.4813 28.4389C39.1851 28.7351 39.0812 28.9689 39.0812 29.3392C39.0812 30.0338 39.6862 30.6396 40.3801 30.6396C41.0594 30.6396 41.3945 30.4319 41.6319 29.864C42.2021 28.4993 40.5294 27.3908 39.4813 28.4389ZM44.2722 28.4389C43.7334 28.9777 43.7263 29.6507 44.2532 30.2404C44.9227 30.9898 46.1519 30.7225 46.47 29.7583C46.9075 28.4329 45.2646 27.4465 44.2722 28.4389ZM47.7355 36.8419C49.6122 37.7634 50.4867 39.9535 49.757 41.9039C49.3843 42.9002 48.676 43.6866 47.7355 44.1484L46.952 44.5332L35.3853 44.5759C27.2806 44.6057 23.6082 44.5732 23.1151 44.4668C21.0518 44.0217 19.6004 41.7688 20.0447 39.7009C20.2466 38.7619 20.9639 37.6496 21.6939 37.1437C22.7914 36.383 22.4387 36.4018 35.18 36.4305L46.952 36.4571L47.7355 36.8419ZM23.9742 39.3503C23.2199 40.1048 23.6546 41.4273 24.7275 41.6419C25.5452 41.8055 35.4207 41.723 35.9327 41.5483C36.2525 41.4391 36.4983 41.2231 36.6727 40.8976C36.9839 40.3169 36.8998 39.807 36.4127 39.3199L36.0822 38.9894H30.2087H24.3352L23.9742 39.3503ZM39.4813 39.3895C39.1851 39.6858 39.0812 39.9196 39.0812 40.2898C39.0812 40.9845 39.6862 41.5902 40.3801 41.5902C41.0594 41.5902 41.3945 41.3826 41.6319 40.8146C42.2021 39.4499 40.5294 38.3414 39.4813 39.3895ZM44.2722 39.3895C43.7478 39.9139 43.7307 40.5799 44.2265 41.169C44.8646 41.9275 46.1553 41.6628 46.47 40.709C46.9075 39.3835 45.2646 38.3971 44.2722 39.3895ZM47.7355 47.7925C49.6122 48.714 50.4867 50.9042 49.757 52.8546C49.3843 53.8508 48.676 54.6372 47.7355 55.0991L46.952 55.4839L35.3853 55.5216C27.6416 55.5468 23.5924 55.5115 23.1343 55.4147C21.0707 54.9786 19.6007 52.7169 20.0432 50.6587C20.2466 49.7123 20.9614 48.6019 21.6939 48.0943C22.7914 47.3337 22.4387 47.3524 35.18 47.3812L46.952 47.4077L47.7355 47.7925ZM23.9742 50.3009C23.2199 51.0554 23.6546 52.378 24.7275 52.5926C25.5452 52.7562 35.4207 52.6736 35.9327 52.499C36.2525 52.3897 36.4983 52.1737 36.6727 51.8482C36.9839 51.2676 36.8998 50.7577 36.4127 50.2705L36.0822 49.9401H30.2087H24.3352L23.9742 50.3009ZM39.4813 50.3402C39.1851 50.6364 39.0812 50.8702 39.0812 51.2405C39.0812 52.6809 41.1999 53.0438 41.6738 51.6844C42.1405 50.3453 40.4889 49.3326 39.4813 50.3402ZM44.2722 50.3402C43.7478 50.8646 43.7307 51.5305 44.2265 52.1197C44.8646 52.8781 46.1553 52.6134 46.47 51.6596C46.9075 50.3342 45.2646 49.3478 44.2722 50.3402ZM0.822346 64.7159C-0.0490523 65.0727 -0.280659 66.2149 0.383635 66.8794L0.760064 67.2558L13.4142 67.2921L26.0683 67.3285L26.5145 66.9297C26.8844 66.5993 26.9609 66.4323 26.9609 65.9554C26.9609 65.4791 26.8842 65.3115 26.5168 64.9833L26.0729 64.5866L13.5845 64.5952C6.71585 64.6 0.972917 64.6543 0.822346 64.7159ZM35.9297 65.069C36.7339 65.8726 36.1221 67.2496 34.9607 67.2496C34.496 67.2496 34.3282 67.1701 33.9876 66.789C33.6447 66.4053 33.589 66.2489 33.6536 65.8512C33.845 64.6717 35.1006 64.2403 35.9297 65.069ZM43.6668 64.7148C43.2345 64.8935 42.9089 65.333 42.8248 65.8512C42.7602 66.2494 42.8159 66.4053 43.1615 66.7922L43.5759 67.2558H56.3825H69.1893L69.5658 66.8794C70.091 66.354 70.091 65.5568 69.5658 65.0315L69.1893 64.655L56.5649 64.6283C49.6215 64.6137 43.8174 64.6527 43.6668 64.7148Z" fill="#E49B00"/>
</svg>
