<svg width="71" height="70" viewBox="0 0 71 70" fill="none" xmlns="http://www.w3.org/2000/svg">
<path fill-rule="evenodd" clip-rule="evenodd" d="M2.78953 0.218503C1.4354 0.688087 0.409027 1.82289 0.120432 3.16921C0.0117291 3.67617 -0.0190745 12.7662 0.0107708 35.4315L0.0525268 66.9881L0.346735 67.6246C0.722813 68.4382 1.61434 69.3297 2.42796 69.7058L3.06443 70H29.0079H54.9514L55.5878 69.7058C56.4015 69.3297 57.293 68.4382 57.6691 67.6246C57.9531 67.0101 57.9645 66.7918 57.9986 61.3065C58.0375 55.0338 58.0477 55.1171 57.1855 54.6946C56.74 54.4764 56.6327 54.4702 56.2283 54.6393C55.3329 55.0134 55.3688 54.7723 55.2936 60.928L55.2252 66.5318L54.7768 66.9321L54.3286 67.3325L28.9392 67.2972L3.54976 67.2619L3.17026 66.8823L2.79062 66.5028V35.0208V3.53886L3.17026 3.15936L3.54976 2.77972L28.9392 2.7444L54.3286 2.70908L54.7768 3.10952L55.2252 3.50997L55.2936 11.5273L55.3621 19.5445L55.7261 19.9086C56.2366 20.4188 57.0889 20.4188 57.5992 19.9083L57.9633 19.5443V11.2989C57.9633 3.15142 57.9597 3.046 57.6691 2.41706C57.293 1.60343 56.4015 0.711908 55.5878 0.33583L54.9514 0.041622L29.2133 0.0110922C5.08173 -0.0175209 3.4323 -0.00451495 2.78953 0.218503ZM26.7672 7.56988C21.8073 8.60146 18.1392 12.0353 16.7959 16.9043C16.3736 18.4342 16.3776 21.4668 16.8037 23.0416C18.0425 27.6208 21.5918 31.0877 26.2201 32.2395C27.51 32.5605 30.5058 32.5605 31.7957 32.2395C35.6345 31.2841 38.6794 28.8148 40.3642 25.2907C41.2724 23.391 41.5143 22.2703 41.5143 19.9613C41.5143 18.3517 41.4584 17.7734 41.2193 16.9043C39.966 12.3507 36.5645 8.95317 32.0648 7.76086C30.668 7.39081 28.0775 7.2973 26.7672 7.56988ZM31.9514 10.5738C33.4969 11.0595 34.6552 11.7812 35.9216 13.0476C37.2021 14.3281 37.909 15.4711 38.4201 17.0863C38.7372 18.0888 38.7872 18.4775 38.7813 19.8928C38.7735 21.7747 38.5504 22.791 37.8203 24.2738C37.004 25.9318 37.1131 25.9088 35.9447 24.6681C35.1045 23.7757 33.713 22.7389 33.0662 22.5233C32.9938 22.4992 33.142 22.0577 33.3958 21.5424C33.7952 20.731 33.8646 20.4361 33.9122 19.3447C33.9792 17.8149 33.7261 16.79 33.0267 15.7588C32.0987 14.3905 30.7128 13.6701 29.0079 13.6701C25.9375 13.6701 23.9421 16.0128 24.1053 19.4258C24.1533 20.4277 24.2335 20.7572 24.6217 21.5458C24.8745 22.0593 25.0221 22.4992 24.9496 22.5233C24.3028 22.7389 22.9113 23.7757 22.0711 24.6681C20.9027 25.9088 21.0118 25.9318 20.1955 24.2738C19.4485 22.7567 19.2386 21.7796 19.2403 19.8244C19.2414 18.2745 19.2808 18.0004 19.6569 16.9179C20.2338 15.2582 20.821 14.3263 22.0942 13.0502C23.3706 11.7708 24.5351 11.0482 26.0644 10.5866C27.5281 10.1448 27.7476 10.1181 29.4186 10.1781C30.4583 10.2154 31.1592 10.325 31.9514 10.5738ZM30.2785 16.7507C30.8553 17.1691 31.1984 18.0013 31.1984 18.9821C31.1984 20.0564 30.955 20.6411 30.2995 21.1411C29.8704 21.4685 29.6503 21.5357 29.0079 21.5357C27.6257 21.5357 26.8174 20.6045 26.8174 19.0121C26.8174 17.7796 27.277 16.9012 28.118 16.5263C28.578 16.3213 29.8716 16.4557 30.2785 16.7507ZM62.908 17.2308C61.9877 17.4602 60.7637 18.2078 60.1299 18.9276C59.3702 19.7904 42.1877 49.5088 41.9994 50.2857C41.831 50.9804 40.7817 60.408 40.7817 61.227C40.7817 62.0353 41.1919 62.528 41.9495 62.6296C42.5426 62.7091 42.6024 62.6686 50.1635 57.0641L51.9471 55.742L60.589 40.761C65.3419 32.5212 69.3553 25.53 69.5072 25.2247C70.89 22.4488 69.5912 18.9649 66.6591 17.5852C65.9206 17.2377 65.5759 17.1617 64.6055 17.133C63.9642 17.1139 63.2003 17.158 62.908 17.2308ZM65.4598 20.0247C66.2178 20.3413 66.7326 20.8559 67.0654 21.6297C67.5368 22.7255 67.4077 23.4629 66.4473 25.159C66.0196 25.9146 65.6117 26.5327 65.5411 26.5327C65.4706 26.5327 64.2753 25.8783 62.8851 25.0785L60.3575 23.6243L60.614 23.1961C60.7552 22.9606 61.0442 22.4598 61.2561 22.0833C61.8745 20.9852 62.3727 20.4203 62.9948 20.1124C63.6841 19.7713 64.7616 19.7329 65.4598 20.0247ZM30.5878 24.5517C32.2438 24.9771 33.8857 26.096 34.6366 27.311L34.9383 27.7992L34.6085 28.0521C34.0522 28.4784 32.41 29.2323 31.4722 29.4919C30.8534 29.6632 30.1027 29.7382 29.0079 29.7382C27.9131 29.7382 27.1624 29.6632 26.5436 29.4919C25.6058 29.2323 23.9636 28.4784 23.4073 28.0521L23.0775 27.7992L23.3792 27.311C23.5451 27.0424 24.017 26.5156 24.4277 26.1402C26.0925 24.6186 28.4653 24.0068 30.5878 24.5517ZM61.7966 27.6089C63.1616 28.4057 64.1065 29.0403 64.0817 29.1435C64.0379 29.3254 50.701 52.4884 50.4757 52.7738C50.384 52.89 49.6499 52.5301 47.8237 51.4732C46.4349 50.6694 45.2982 49.9503 45.2977 49.875C45.2971 49.7997 47.0034 46.7809 49.0892 43.1666C59.4161 25.2732 58.9964 25.9781 59.2406 26.1187C59.3663 26.1911 60.5166 26.8617 61.7966 27.6089ZM10.5257 37.1118C10.0104 37.3679 9.65982 38.1715 9.84766 38.6656C10.0666 39.2416 10.3694 39.5227 10.8724 39.617C12.3913 39.9019 13.0503 37.7993 11.6642 37.0904C11.2791 36.8935 10.9522 36.8997 10.5257 37.1118ZM16.4811 37.0669C15.6096 37.4236 15.3779 38.5661 16.0423 39.2306L16.4188 39.6071L26.6101 39.644L36.8015 39.6806L37.2483 39.2814C37.6187 38.9505 37.6952 38.7836 37.6952 38.3065C37.6952 37.8301 37.6185 37.6625 37.2511 37.3342L36.8071 36.9375L26.781 36.9461C21.2666 36.9509 16.6317 37.0052 16.4811 37.0669ZM10.5257 44.7784C10.0104 45.0346 9.65982 45.8382 9.84766 46.3323C10.0666 46.9083 10.3694 47.1893 10.8724 47.2836C12.3913 47.5686 13.0503 45.466 11.6642 44.7571C11.2791 44.5602 10.9522 44.5664 10.5257 44.7784ZM16.4811 44.7335C15.6096 45.0903 15.3779 46.2328 16.0423 46.8973L16.4188 47.2738L26.6101 47.3106L36.8015 47.3473L37.2483 46.9481C37.6187 46.6172 37.6952 46.4503 37.6952 45.9732C37.6952 45.4968 37.6185 45.3292 37.2511 45.0009L36.8071 44.6041L26.781 44.6128C21.2666 44.6176 16.6317 44.6719 16.4811 44.7335ZM10.5257 52.4451C10.0104 52.7013 9.65982 53.5049 9.84766 53.999C10.0666 54.5749 10.3694 54.856 10.8724 54.9503C12.3913 55.2352 13.0503 53.1326 11.6642 52.4237C11.2791 52.2269 10.9522 52.233 10.5257 52.4451ZM16.4811 52.4002C15.6096 52.757 15.3779 53.8994 16.0423 54.564L16.4188 54.9405L26.6101 54.9773L36.8015 55.014L37.2483 54.6148C37.6187 54.2839 37.6952 54.117 37.6952 53.6399C37.6952 53.1634 37.6185 52.9959 37.2511 52.6676L36.8071 52.2708L26.781 52.2794C21.2666 52.2842 16.6317 52.3386 16.4811 52.4002ZM48.3037 54.9944C48.2945 55.0927 43.8975 58.3074 43.8447 58.2545C43.8039 58.2137 44.3213 53.4627 44.4171 52.9987C44.4749 52.7189 44.6 52.77 46.3951 53.8058C47.4491 54.4139 48.3081 54.9488 48.3037 54.9944ZM28.5134 60.0717C28.0824 60.2458 27.6389 60.8804 27.6389 61.3228C27.6389 61.5604 27.7951 61.8878 28.0382 62.16L28.4374 62.6071L32.616 62.647L36.7945 62.6868L37.2448 62.2846C37.6188 61.9504 37.6952 61.7846 37.6952 61.3065C37.6952 60.8301 37.6185 60.6625 37.2511 60.3342L36.8071 59.9375L32.8048 59.9461C30.6035 59.9509 28.6725 60.0075 28.5134 60.0717Z" fill="#E49B00"/>
</svg>
