<svg width="135" height="134" viewBox="0 0 135 134" fill="none" xmlns="http://www.w3.org/2000/svg">
<rect x="0.227539" y="67.7485" width="44.547" height="44.547" rx="4" transform="rotate(-45 0.227539 67.7485)" fill="white" fill-opacity="0.1"/>
<path fill-rule="evenodd" clip-rule="evenodd" d="M31.6666 48.9745C31.6552 49.0066 31.625 49.103 31.5994 49.1887C31.4983 49.5279 31.2735 49.8048 30.1219 51.0084C27.9008 53.3299 27.182 54.2166 26.2849 55.7413C25.9828 56.2548 25.4482 57.3184 25.2154 57.8691C24.3625 59.8871 23.7967 62.3255 23.4655 65.4115C23.3524 66.4653 23.3428 68.0036 23.4443 68.8346C23.7766 71.5576 24.3988 73.8155 25.3254 75.6598C26.3049 77.6095 28.0739 79.7794 30.1857 81.6214C30.4562 81.8574 30.5383 81.9105 30.5631 81.8659C30.626 81.7529 30.9075 80.552 31.0003 80.0007C31.0525 79.6907 31.1325 79.1062 31.178 78.7018C31.2626 77.9507 31.3033 77.8028 31.4549 77.6961C31.5944 77.5977 31.8835 77.617 32.0216 77.7339C32.1648 77.8552 32.1972 77.958 32.2787 78.5504C32.4113 79.5148 32.6505 80.525 32.8422 80.93C32.9479 81.1531 33.0965 81.3161 33.4181 81.5616C33.4834 81.6114 33.5368 81.6771 33.5368 81.7076C33.5368 81.7381 33.5526 81.7631 33.5718 81.7631C33.6968 81.7631 35.2405 80.2148 35.8644 79.4637C39.0366 75.6448 40.6028 71.2381 40.3871 66.7384C40.1924 62.6763 38.8769 58.8358 36.4499 55.2441C35.5191 53.8666 34.7536 52.9357 33.4396 51.5836C32.3823 50.4955 32.0759 50.057 31.7935 49.2276C31.7343 49.0539 31.6783 48.9419 31.6666 48.9745ZM30.1728 77.0901C30.042 77.3818 29.9988 77.5895 29.9337 78.2383L29.8869 78.705L29.6383 78.433C27.9579 76.5945 26.9276 74.8972 26.247 72.8455C25.6872 71.1581 25.2395 68.6217 25.2434 67.1601C25.2475 65.6221 25.6213 62.9371 26.0917 61.0658C26.4402 59.68 26.8025 58.6752 27.3837 57.4832C28.0856 56.0432 28.8334 54.9467 30.0335 53.5972L30.2658 53.3361L30.2761 65.0865L30.2863 76.837L30.1728 77.0901ZM31.7043 78.3752C31.6911 78.4715 31.6533 78.7782 31.6202 79.0566C31.4931 80.1267 31.3119 81.0449 31.0455 81.9696L30.9508 82.2982L31.0593 82.6065C31.2999 83.2906 31.4141 84.1153 31.4929 85.7385L31.5394 86.6961L32.0055 86.8358C32.2618 86.9126 32.4764 86.9705 32.4825 86.9644C32.4885 86.9584 32.5106 86.4296 32.5316 85.7893C32.5915 83.9615 32.6698 82.973 32.7856 82.5804C32.8203 82.4629 32.9007 82.2631 32.9641 82.1366C33.0733 81.9189 33.0757 81.9045 33.0082 81.8684C32.8631 81.7907 32.546 81.4251 32.4262 81.1973C32.2206 80.8065 32.0005 79.9243 31.8144 78.7451C31.7376 78.2583 31.7258 78.2187 31.7043 78.3752Z" fill="white"/>
<rect x="34.7295" y="31.4995" width="44.547" height="44.547" rx="4" transform="rotate(-45 34.7295 31.4995)" fill="white" fill-opacity="0.1"/>
<path fill-rule="evenodd" clip-rule="evenodd" d="M64.6642 14.5023C62.4033 14.7233 60.5736 15.2293 58.7112 16.1487C56.8881 17.0486 55.4803 18.0859 53.9394 19.6647C50.723 22.9602 49.1517 26.8039 49.1417 31.4007C49.1373 33.4285 49.337 34.8973 49.8445 36.5703C50.6084 39.0887 51.9716 41.3386 53.9762 43.3899C56.7645 46.2429 59.7443 47.7955 63.5818 48.395C64.7501 48.5775 67.6037 48.578 68.7772 48.3959C72.5985 47.8028 75.6219 46.2253 78.3921 43.3793C81.1159 40.581 82.6406 37.4695 83.0982 33.7756C83.244 32.5988 83.2431 30.3247 83.0965 29.1983C82.6242 25.5706 81.0953 22.4187 78.5197 19.7633C77.4566 18.6673 76.6547 17.9885 75.5198 17.2239C73.3039 15.731 70.6907 14.8014 67.9529 14.5321C67.2301 14.461 65.2685 14.4433 64.6642 14.5023ZM60.4088 24.9115C61.2734 25.0145 61.9273 25.2396 62.5579 25.651C64.0497 26.6242 64.9225 28.1101 65.2788 30.283C65.3373 30.6399 65.3853 31.1835 65.3855 31.4908L65.3858 32.0497H60.614H55.8423L55.8932 32.6324C56.0499 34.4283 56.8665 35.57 58.3719 36.0982C58.8987 36.283 60.0045 36.3514 60.6499 36.239C61.7218 36.0525 62.7003 35.3079 62.9807 34.4654L63.1246 34.0327L64.147 34.0128C64.9921 33.9962 65.1693 34.0105 65.1693 34.0952C65.1693 34.3155 64.8573 35.2065 64.6483 35.5831C63.6444 37.3922 61.4439 38.3733 58.9837 38.1086C58.5721 38.0643 58.0176 37.9615 57.7516 37.8801C56.0337 37.3543 54.7325 36.0736 54.1258 34.3114C53.673 32.9963 53.5438 31.0276 53.8273 29.7658C54.4891 26.8207 56.6621 24.951 59.5429 24.8477C59.6829 24.8427 60.0725 24.8714 60.4088 24.9115ZM78.0561 24.9555C78.0314 25.0198 77.0185 26.3984 75.8051 28.0191C74.5917 29.6398 73.61 30.9938 73.6235 31.0279C73.6369 31.0621 74.7763 32.6633 76.1553 34.5862C77.5344 36.509 78.6628 38.1048 78.6628 38.1322C78.6628 38.1597 78.0407 38.1734 77.2803 38.1627L75.8979 38.1431L74.0874 35.4545C73.0916 33.9758 72.2444 32.7724 72.2047 32.7803C72.165 32.7883 71.3208 33.9981 70.3286 35.4689L68.5246 38.1431L67.2078 38.1627C66.4834 38.1735 65.8909 38.1673 65.8909 38.1489C65.8909 38.1304 66.98 36.5874 68.3112 34.7199C69.6424 32.8524 70.749 31.279 70.7704 31.2232C70.8005 31.1448 68.0348 27.2879 66.412 25.145L66.2346 24.9107H67.6459H69.0572L70.3761 26.8397C71.1015 27.9006 71.8124 28.9366 71.9559 29.142L72.2167 29.5155L73.8545 27.2147L75.4922 24.914L76.7708 24.8925C77.4741 24.8808 78.0611 24.8637 78.0752 24.8548C78.0894 24.8459 78.0808 24.8912 78.0561 24.9555ZM58.7119 26.7934C58.1181 26.9145 57.4487 27.2786 57.0054 27.7216C56.4394 28.2871 55.9758 29.2573 55.9192 29.9945L55.897 30.283L59.5229 30.3016L63.1489 30.3203V30.1545C63.1489 29.8626 62.9358 29.1426 62.7154 28.6899C62.3183 27.874 61.6337 27.2682 60.7316 26.9343C60.2284 26.748 59.2643 26.6808 58.7119 26.7934Z" fill="white"/>
<rect x="35.166" y="102.251" width="44.547" height="44.547" rx="4" transform="rotate(-45 35.166 102.251)" fill="white" fill-opacity="0.1"/>
<path fill-rule="evenodd" clip-rule="evenodd" d="M65.9395 86.1995C65.3333 86.4264 60.2571 89.4126 60.3162 89.5075C60.3522 89.5656 60.3325 89.5779 60.2673 89.5377C60.1633 89.4738 53.7146 93.1133 53.0587 93.6061C52.8947 93.7292 52.6343 94.0813 52.4799 94.3884L52.1993 94.9468V102.421C52.1993 110.745 52.1744 110.402 52.8319 111.119C53.2219 111.545 56.2991 113.343 57.4499 113.819C58.138 114.103 58.2289 114.117 59.3759 114.117C60.4821 114.117 60.621 114.097 61.089 113.876C62.0011 113.445 62.6154 112.642 62.8423 111.584C62.9215 111.215 62.9433 109.103 62.9227 103.757L62.8947 96.4368L61.9359 96.4105C61.3084 96.3932 60.9325 96.421 60.8478 96.4908C60.7393 96.5804 60.7183 97.7421 60.7171 103.746L60.7155 110.894L60.5087 111.255C60.1336 111.911 59.3282 112.18 58.4499 111.944C57.8474 111.782 54.3517 109.745 54.291 109.521C54.2196 109.256 54.2225 95.5214 54.2941 95.3359C54.3257 95.2539 54.473 95.1245 54.6212 95.0482C54.777 94.9682 54.8639 94.8663 54.8272 94.8072C54.7888 94.7454 54.8057 94.7307 54.8697 94.77C54.9975 94.8486 56.2025 94.1974 56.1337 94.0869C56.1073 94.0442 56.1343 93.9794 56.1939 93.9427C56.2666 93.8981 56.2774 93.9163 56.2265 93.998C56.1118 94.1826 56.2445 94.1153 58.1721 93.0111C66.3896 88.3035 65.5519 88.7986 65.464 88.7021C65.426 88.6604 65.4439 88.6541 65.5037 88.6882C65.5635 88.7222 65.8682 88.6012 66.1807 88.419C66.4932 88.2369 66.8044 88.1091 66.8722 88.1349C66.94 88.1608 68.5236 89.056 70.3912 90.1242C72.2589 91.1925 73.8323 92.0385 73.888 92.0044C73.9436 91.9703 73.9639 91.9827 73.9333 92.0321C73.8866 92.1071 77.3537 94.1808 77.5258 94.1808C77.5571 94.1808 77.553 94.1329 77.5167 94.0744C77.4754 94.008 77.4914 93.9932 77.559 94.0348C77.6187 94.0715 77.6457 94.1363 77.6192 94.179C77.5927 94.2216 77.8525 94.4115 78.1965 94.601C78.5405 94.7904 78.9368 95.025 79.0771 95.1222L79.3323 95.2991L79.3086 102.497L79.2849 109.694L73.1733 113.216C69.8119 115.152 66.9911 116.761 66.9049 116.79C66.8056 116.823 66.1412 116.486 65.0957 115.871C64.1869 115.337 63.3824 114.9 63.308 114.9C63.2334 114.9 63.0283 114.988 62.8522 115.094C62.676 115.201 62.2416 115.399 61.8869 115.533C61.5322 115.668 61.2281 115.82 61.2109 115.871C61.176 115.975 65.477 118.551 65.9912 118.734C66.4184 118.886 67.3393 118.884 67.7716 118.73C68.3818 118.514 78.592 112.582 78.5291 112.481C78.4939 112.425 78.5138 112.412 78.5774 112.451C78.7372 112.549 80.3353 111.616 80.777 111.166C81.4909 110.44 81.4611 110.821 81.4601 102.429L81.4592 94.9635L81.2427 94.5011C81.1236 94.2469 80.8979 93.9112 80.7411 93.7552C80.3504 93.3666 73.531 89.453 73.3928 89.538C73.3282 89.5776 73.3081 89.5655 73.3437 89.5084C73.4022 89.4143 68.3227 86.4255 67.7203 86.1995C67.5618 86.1401 67.1612 86.0914 66.8302 86.0914C66.4991 86.0914 66.0983 86.1401 65.9395 86.1995ZM61.7372 88.8747C61.7372 88.8938 61.6643 88.9664 61.5751 89.0359C61.4283 89.1503 61.425 89.1471 61.5401 89.0011C61.6611 88.8477 61.7372 88.799 61.7372 88.8747ZM78.2319 92.5923C78.347 92.7384 78.3437 92.7416 78.1969 92.6271C78.0426 92.5068 77.9936 92.4312 78.0698 92.4312C78.089 92.4312 78.162 92.5036 78.2319 92.5923ZM69.0526 95.9863C68.3553 96.0719 67.3163 96.3316 66.8489 96.5372C66.2074 96.8192 65.794 97.1167 65.8711 97.2408C65.905 97.2954 65.8913 97.3145 65.8406 97.2833C65.6934 97.1929 65.1944 97.7723 64.9371 98.3324C64.638 98.9834 64.5487 99.8022 64.6948 100.554C65.0531 102.395 66.4669 103.121 70.4879 103.526C72.2058 103.699 73.4931 104.047 73.9311 104.458C74.209 104.719 74.2382 104.796 74.2382 105.271C74.2382 105.843 74.1543 106.066 73.7931 106.451C73.2379 107.043 71.47 107.349 69.5964 107.179C67.567 106.995 66.8334 106.532 66.498 105.225C66.4142 104.899 66.2985 104.602 66.2407 104.565C66.0914 104.468 64.495 104.48 64.3386 104.579C64.2471 104.637 64.2135 104.822 64.2257 105.199C64.288 107.119 65.4997 108.413 67.8025 109.016C68.8444 109.29 71.2577 109.361 72.4517 109.155C74.1388 108.863 75.3387 108.216 75.9896 107.247C76.4356 106.582 76.6009 105.954 76.5868 104.975C76.5774 104.315 76.5358 104.131 76.2784 103.611C75.6585 102.359 74.54 101.902 70.7956 101.368C67.9982 100.97 67.3284 100.771 67.0633 100.261C66.6784 99.5212 67.1862 98.5976 68.1648 98.2578C68.5426 98.1267 68.9386 98.0943 70.1638 98.0943C72.0786 98.0943 72.5893 98.222 73.2173 98.8582C73.4478 99.0917 73.666 99.2748 73.7024 99.2651C73.7388 99.2555 73.7422 99.316 73.7098 99.3997C73.6775 99.4834 73.6895 99.5285 73.7363 99.4999C73.7832 99.4714 73.8292 99.592 73.8385 99.768C73.8479 99.944 73.9218 100.188 74.0027 100.311C74.1402 100.52 74.2039 100.534 74.9735 100.534C75.4266 100.534 75.8632 100.509 75.9437 100.479C76.2776 100.351 76.0174 98.9086 75.5076 98.0609C74.7028 96.7229 73.1416 96.0584 70.6268 95.9837C69.9392 95.9633 69.2309 95.9644 69.0526 95.9863ZM73.0801 98.3235C73.1125 98.3756 73.0753 98.3911 72.9929 98.3597C72.8325 98.2984 72.8032 98.2324 72.9363 98.2324C72.9843 98.2324 73.0489 98.2734 73.0801 98.3235ZM67.4476 108.68C67.4476 108.754 67.4121 108.792 67.3688 108.766C67.3256 108.739 67.3141 108.679 67.3435 108.631C67.4183 108.511 67.4476 108.525 67.4476 108.68ZM57.4894 111.746C57.6045 111.892 57.6013 111.895 57.4544 111.78C57.3001 111.66 57.2512 111.584 57.3274 111.584C57.3465 111.584 57.4195 111.657 57.4894 111.746ZM60.4099 111.903C60.4099 111.976 60.3745 112.015 60.3312 111.988C60.288 111.962 60.2765 111.902 60.3058 111.854C60.3807 111.734 60.4099 111.747 60.4099 111.903ZM58.5888 113.979C58.6652 114.028 58.686 114.068 58.6351 114.068C58.5841 114.068 58.48 114.028 58.4036 113.979C58.3272 113.93 58.3063 113.889 58.3573 113.889C58.4082 113.889 58.5124 113.93 58.5888 113.979ZM69.5643 117.552C69.5359 117.58 69.4611 117.552 69.3983 117.489C69.3075 117.398 69.3182 117.388 69.4501 117.438C69.5414 117.472 69.5928 117.524 69.5643 117.552Z" fill="white"/>
<rect x="71.416" y="67.7485" width="44.547" height="44.547" rx="4" transform="rotate(-45 71.416 67.7485)" fill="white" fill-opacity="0.1"/>
<path fill-rule="evenodd" clip-rule="evenodd" d="M95.4939 54.2924C90.7729 55.9946 88.0392 57.0692 88.0125 57.233C87.9896 57.3751 88.4815 61.9195 89.1059 67.3317L90.2409 77.172L95.1355 79.912C97.8275 81.419 100.726 83.0329 101.577 83.4983L103.124 84.3445L109.558 80.7583L115.991 77.172L117.136 67.1663C117.766 61.663 118.216 57.1014 118.138 57.0294C117.994 56.8988 103.105 51.5506 102.993 51.5896C102.96 51.6009 99.5856 52.8171 95.4939 54.2924ZM107.891 65.9297L112.598 76.5464L110.783 76.4949L108.969 76.4431L108.052 74.1197L107.135 71.7963H103.115H99.0944L98.1777 74.1197L97.261 76.4431L95.4469 76.4949L93.6327 76.5464L98.3601 65.8814C100.96 60.0156 103.109 55.2381 103.136 55.2646C103.162 55.2912 105.302 60.0905 107.891 65.9297ZM101.779 65.4333C101.067 67.1506 100.484 68.629 100.484 68.7183C100.484 68.8076 101.668 68.8807 103.115 68.8807C104.562 68.8807 105.746 68.8065 105.746 68.7159C105.746 68.547 103.258 62.4948 103.14 62.3762C103.104 62.3401 102.492 63.7158 101.779 65.4333Z" fill="white"/>
</svg>
