<svg width="65" height="70" viewBox="0 0 65 70" fill="none" xmlns="http://www.w3.org/2000/svg">
<path fill-rule="evenodd" clip-rule="evenodd" d="M30.8709 0.092191C30.0042 0.309946 28.7708 1.0399 28.1721 1.68947C27.8646 2.02309 27.4179 2.70785 27.1796 3.21088C26.7828 4.04835 26.7461 4.24159 26.7461 5.49607V6.86642L18.3517 11.522C13.7349 14.0826 9.83534 16.2339 9.68619 16.3027C9.47734 16.399 9.32902 16.3489 9.04169 16.0848C7.52645 14.6925 5.13115 14.359 3.1856 15.2694C0.992023 16.2959 -0.344088 18.779 0.0774526 21.0457C0.426682 22.9233 1.53819 24.395 3.19148 25.1687L4.08044 25.5847V35.0006V44.4167L3.0622 44.9198C-0.298346 46.5808 -1.03488 50.997 1.60804 53.64C3.64357 55.6754 7.00288 55.8062 9.04443 53.9297C9.39627 53.6063 9.44653 53.5966 9.82246 53.7803C10.0435 53.8882 13.9417 56.0385 18.4853 58.5586L26.7461 63.1406V64.5231C26.7461 65.8436 26.769 65.9521 27.2576 66.9405C27.8737 68.187 28.6666 68.9634 29.9399 69.5665C30.7672 69.9585 30.9792 70 32.1558 70C33.3323 70 33.5443 69.9585 34.3717 69.5665C35.6448 68.9634 36.4379 68.187 37.0539 66.9406C37.5366 65.9639 37.5662 65.8284 37.5803 64.529L37.5952 63.1524L40.3194 61.6396C51.2626 55.5627 54.7675 53.6341 54.8686 53.6341C54.9322 53.6341 55.0955 53.7569 55.2312 53.9068C56.0095 54.7667 57.8388 55.3567 59.338 55.2313C61.8119 55.0242 63.7564 53.1959 64.2341 50.6275C64.6562 48.3579 63.3198 45.8778 61.12 44.8485L60.2311 44.4324V35.0086V25.5847L61.12 25.1687C62.7733 24.395 63.8848 22.9233 64.2341 21.0457C64.4192 20.0502 64.2487 18.9257 63.7497 17.8489C62.2632 14.6421 57.8388 13.7235 55.2668 16.0877L54.8905 16.4337L54.3766 16.1503C51.2849 14.4446 38.2919 7.25907 37.9916 7.08883C37.5985 6.86615 37.5961 6.85629 37.5807 5.48813C37.5662 4.18913 37.5365 4.053 37.0539 3.07653C36.1284 1.20397 34.4842 0.105338 32.4638 0.00919761C31.8801 -0.0186038 31.1633 0.0187843 30.8709 0.092191ZM33.7128 3.19417C35.3932 4.37799 35.2253 6.88409 33.4011 7.84714C31.1267 9.04781 28.5684 6.58101 29.6884 4.26733C30.0098 3.60325 30.6501 3.02462 31.2909 2.81906C31.9825 2.59706 33.114 2.77236 33.7128 3.19417ZM28.3965 9.40977C28.5812 9.70833 29.9289 10.4728 30.6464 10.6859C32.2377 11.1585 34.0997 10.8112 35.4365 9.79255L36.1835 9.22324L36.7375 9.52084C37.0422 9.68464 40.9209 11.8348 45.3568 14.2991L53.4221 18.7797L53.4193 20.2177L53.4164 21.6557L45.2171 26.2048C40.7074 28.707 36.8289 30.8563 36.5981 30.9813C36.1815 31.207 36.1741 31.2051 35.4673 30.6702C34.4079 29.8683 33.5535 29.5984 32.0873 29.6021C31.0327 29.6048 30.736 29.6602 30.033 29.9854C29.581 30.1944 28.9759 30.5536 28.6883 30.7837L28.1652 31.202L27.3872 30.7852C26.9592 30.556 23.0736 28.4077 18.7522 26.0115L10.8952 21.6546V20.2181V18.7816L19.437 14.033C24.135 11.4215 28.0521 9.27939 28.1418 9.27309C28.2315 9.26666 28.3461 9.32815 28.3965 9.40977ZM6.51382 17.6906C7.94005 18.2865 8.584 19.965 7.93019 21.3818C7.19187 22.9814 5.24331 23.4378 3.76833 22.3566C3.16765 21.9163 2.66148 20.7515 2.7457 20.0036C2.95456 18.1512 4.84245 16.9922 6.51382 17.6906ZM60.3604 17.9366C60.9787 18.3458 61.6006 19.4895 61.6006 20.2177C61.6006 20.8475 61.0298 22 60.5402 22.3589C59.0682 23.4378 57.1188 22.9799 56.3813 21.3818C55.743 19.9988 56.3249 18.384 57.6975 17.7288C58.4515 17.3689 59.643 17.4619 60.3604 17.9366ZM18.1748 28.818L26.7227 33.5706L26.7343 34.9473C26.7454 36.25 26.7737 36.3799 27.2576 37.359C27.8706 38.5991 28.6702 39.3853 29.9066 39.9639L30.7882 40.3764L30.753 49.8333L30.7178 59.2902L30.206 59.4674C29.9244 59.5647 29.4086 59.8484 29.0597 60.0974C28.7109 60.3465 28.3556 60.6001 28.2705 60.6611C28.1762 60.7286 24.7535 58.9087 19.5097 56.003L10.9036 51.2342L10.8812 49.7978C10.8607 48.4794 10.8224 48.2868 10.4142 47.4518C9.85506 46.308 8.6433 45.1436 7.61122 44.7586L6.88798 44.4888V35.001V25.5132L7.43579 25.3298C7.73708 25.229 8.29174 24.9053 8.66836 24.6106C9.04498 24.3157 9.41475 24.0725 9.49008 24.07C9.5654 24.0676 13.4736 26.2042 18.1748 28.818ZM55.2823 24.375C55.5558 24.6662 56.6374 25.2679 57.2524 25.471C57.4775 25.5454 57.492 26.1221 57.492 35.0086C57.492 43.895 57.4775 44.4717 57.2524 44.5461C55.8212 45.0189 54.4524 46.2268 53.8211 47.5736C53.4996 48.2597 53.4495 48.5473 53.4329 49.7995L53.414 51.2375L45.2157 55.7869C40.7068 58.2892 36.8289 60.4386 36.5981 60.5634C36.1807 60.7892 36.1753 60.7877 35.434 60.2258C35.0245 59.9153 34.4429 59.5788 34.1416 59.4781L33.5938 59.2948L33.5586 49.8356L33.5234 40.3764L34.4049 39.9639C35.6415 39.3853 36.4409 38.5991 37.0539 37.3588C37.5372 36.3811 37.5661 36.248 37.579 34.9472L37.5925 33.5706L40.5919 31.9051C42.2416 30.989 46.0873 28.851 49.1379 27.1539C52.1885 25.4569 54.7508 24.0648 54.8319 24.0604C54.9128 24.0559 55.1156 24.1975 55.2823 24.375ZM33.6866 32.7576C35.2829 33.882 35.2766 36.1395 33.6742 37.2683C33.1639 37.6278 32.9738 37.6791 32.1558 37.6791C31.3377 37.6791 31.1476 37.6278 30.6374 37.2683C28.913 36.0538 29.0643 33.5711 30.9232 32.5774C31.7827 32.1179 32.8801 32.1895 33.6866 32.7576ZM6.51382 47.2724C8.82024 48.236 8.69534 51.6242 6.32483 52.4066C5.61103 52.6422 4.55704 52.4844 3.92678 52.0477C3.3094 51.6197 2.71092 50.5133 2.71092 49.7995C2.71092 49.1518 3.3131 47.9595 3.82393 47.5958C4.60251 47.0414 5.65759 46.9146 6.51382 47.2724ZM60.3728 47.543C61.0023 47.9792 61.6006 49.079 61.6006 49.7995C61.6006 50.5133 61.0021 51.6197 60.3847 52.0477C59.7545 52.4844 58.7005 52.6422 57.9867 52.4066C56.1311 51.7942 55.5139 49.3515 56.8481 47.9002C57.6894 46.985 59.3279 46.819 60.3728 47.543ZM33.6866 62.3394C35.2829 63.4638 35.2766 65.7213 33.6742 66.8501C33.1639 67.2096 32.9738 67.2609 32.1558 67.2609C31.3377 67.2609 31.1476 67.2096 30.6374 66.8501C28.913 65.6356 29.0643 63.1529 30.9232 62.1592C31.7827 61.6997 32.8801 61.7713 33.6866 62.3394Z" fill="#E49B00"/>
</svg>
