<svg width="1580" height="101" viewBox="0 0 1580 101" fill="none" xmlns="http://www.w3.org/2000/svg">
<path fill-rule="evenodd" clip-rule="evenodd" d="M0 99.4257L0 1.57433L16.9296 1.57433L49.7566 53.0214L82.4654 1.57433L99.5306 1.57433L99.5306 99.4257H76.0038V49.6429L57.3487 78.8881L42.0456 78.8881L23.3925 49.4835L23.3925 99.4257H0ZM22.1703 45.271L42.7155 77.6582L56.6809 77.6582L77.2261 45.45V98.1958H98.3084L98.3084 2.80416L83.1345 2.80416L49.7584 55.3006L16.2619 2.80416L1.22224 2.80416L1.22224 98.1958H22.1703L22.1703 45.271ZM117.953 99.4257L117.953 1.57433L187.808 1.57433V22.2746L141.48 22.2746V39.4067L183.779 39.4067V59.5665L141.48 59.5665V78.5903H188.479L188.479 99.4257L117.953 99.4257ZM187.257 98.1958L187.257 79.8201H140.258V58.3367L182.557 58.3367V40.6366L140.258 40.6366V21.0448L186.585 21.0448V2.80416L119.176 2.80416L119.176 98.1958L187.257 98.1958ZM195.56 99.4257L234.128 1.57433L254.86 1.57433L293.015 99.4257H268.074L261.856 82.1309H226.407L220.101 99.4257H195.56ZM225.554 80.901H262.714L268.932 98.1958H291.223L254.027 2.80416L234.959 2.80416L197.359 98.1958H219.247L225.554 80.901ZM244.264 29.5874L231.86 63.6062L256.495 63.6062L244.264 29.5874ZM254.754 62.3764L244.256 33.1801L233.61 62.3764L254.754 62.3764ZM302.718 99.4257V1.57433L317.733 1.57433L318.086 0L319.307 1.57433H319.592L319.804 2.21441L362.473 57.2238V1.57433L386 1.57433V99.4257H370.313L369.96 101L368.739 99.4257H368.424L368.23 98.7695L326.244 44.6418V99.4257L302.718 99.4257ZM325.022 41.0672L369.335 98.1958H384.778V2.80416L363.695 2.80416V60.7983L318.711 2.80416L303.94 2.80416V98.1958L325.022 98.1958V41.0672Z" fill="#F2B125"/>
<path fill-rule="evenodd" clip-rule="evenodd" d="M398 99.4257V1.57433L414.93 1.57433L447.757 53.0214L480.465 1.57433L497.531 1.57433V99.4257H474.004V49.6429L455.349 78.8881L440.046 78.8881L421.393 49.4835V99.4257H398ZM420.17 45.271L440.715 77.6582L454.681 77.6582L475.226 45.45V98.1958H496.308V2.80416L481.134 2.80416L447.758 55.3006L414.262 2.80416L399.222 2.80416V98.1958H420.17V45.271ZM515.953 99.4257V1.57433L585.808 1.57433V22.2746L539.48 22.2746V39.4067L581.779 39.4067V59.5665L539.48 59.5665V78.5903H586.479V99.4257L515.953 99.4257ZM585.257 98.1958V79.8201H538.258V58.3367L580.557 58.3367V40.6366L538.258 40.6366V21.0448L584.585 21.0448V2.80416L517.176 2.80416V98.1958L585.257 98.1958ZM593.56 99.4257L632.128 1.57433L652.86 1.57433L691.015 99.4257H666.074L659.856 82.1309H624.407L618.101 99.4257H593.56ZM623.554 80.901H660.714L666.932 98.1958H689.223L652.027 2.80416L632.959 2.80416L595.359 98.1958H617.247L623.554 80.901ZM642.264 29.5874L629.86 63.6062L654.495 63.6062L642.264 29.5874ZM652.754 62.3764L642.256 33.1801L631.61 62.3764L652.754 62.3764ZM700.718 99.4257V1.57433L715.733 1.57433L716.086 0L717.307 1.57433H717.592L717.804 2.21441L760.473 57.2238V1.57433L784 1.57433V99.4257H768.313L767.96 101L766.739 99.4257H766.424L766.23 98.7695L724.244 44.6418V99.4257L700.718 99.4257ZM723.022 41.0672L767.335 98.1958H782.778V2.80416L761.695 2.80416V60.7983L716.711 2.80416L701.94 2.80416V98.1958L723.022 98.1958V41.0672Z" fill="#F2B125"/>
<path fill-rule="evenodd" clip-rule="evenodd" d="M796 99.4257V1.57433L812.93 1.57433L845.757 53.0214L878.465 1.57433L895.531 1.57433V99.4257H872.004V49.6429L853.349 78.8881L838.046 78.8881L819.393 49.4835V99.4257H796ZM818.17 45.271L838.715 77.6582L852.681 77.6582L873.226 45.45V98.1958H894.308V2.80416L879.134 2.80416L845.758 55.3006L812.262 2.80416L797.222 2.80416V98.1958H818.17V45.271ZM913.953 99.4257V1.57433L983.808 1.57433V22.2746L937.48 22.2746V39.4067L979.779 39.4067V59.5665L937.48 59.5665V78.5903H984.479V99.4257L913.953 99.4257ZM983.257 98.1958V79.8201H936.258V58.3367L978.557 58.3367V40.6366L936.258 40.6366V21.0448L982.585 21.0448V2.80416L915.176 2.80416V98.1958L983.257 98.1958ZM991.56 99.4257L1030.13 1.57433L1050.86 1.57433L1089.02 99.4257H1064.07L1057.86 82.1309H1022.41L1016.1 99.4257H991.56ZM1021.55 80.901H1058.71L1064.93 98.1958H1087.22L1050.03 2.80416L1030.96 2.80416L993.359 98.1958H1015.25L1021.55 80.901ZM1040.26 29.5874L1027.86 63.6062L1052.5 63.6062L1040.26 29.5874ZM1050.75 62.3764L1040.26 33.1801L1029.61 62.3764L1050.75 62.3764ZM1098.72 99.4257V1.57433L1113.73 1.57433L1114.09 0L1115.31 1.57433H1115.59L1115.8 2.21441L1158.47 57.2238V1.57433L1182 1.57433V99.4257H1166.31L1165.96 101L1164.74 99.4257H1164.42L1164.23 98.7695L1122.24 44.6418V99.4257L1098.72 99.4257ZM1121.02 41.0672L1165.34 98.1958H1180.78V2.80416L1159.7 2.80416V60.7983L1114.71 2.80416L1099.94 2.80416V98.1958L1121.02 98.1958V41.0672Z" fill="#F2B125"/>
<path fill-rule="evenodd" clip-rule="evenodd" d="M1194 99.4257V1.57433L1210.93 1.57433L1243.76 53.0214L1276.47 1.57433L1293.53 1.57433V99.4257H1270V49.6429L1251.35 78.8881L1236.05 78.8881L1217.39 49.4835V99.4257H1194ZM1216.17 45.271L1236.72 77.6582L1250.68 77.6582L1271.23 45.45V98.1958H1292.31V2.80416L1277.13 2.80416L1243.76 55.3006L1210.26 2.80416L1195.22 2.80416V98.1958H1216.17V45.271ZM1311.95 99.4257V1.57433L1381.81 1.57433V22.2746L1335.48 22.2746V39.4067L1377.78 39.4067V59.5665L1335.48 59.5665V78.5903H1382.48V99.4257L1311.95 99.4257ZM1381.26 98.1958V79.8201H1334.26V58.3367L1376.56 58.3367V40.6366L1334.26 40.6366V21.0448L1380.59 21.0448V2.80416L1313.18 2.80416V98.1958L1381.26 98.1958ZM1389.56 99.4257L1428.13 1.57433L1448.86 1.57433L1487.02 99.4257H1462.07L1455.86 82.1309H1420.41L1414.1 99.4257H1389.56ZM1419.55 80.901H1456.71L1462.93 98.1958H1485.22L1448.03 2.80416L1428.96 2.80416L1391.36 98.1958H1413.25L1419.55 80.901ZM1438.26 29.5874L1425.86 63.6062L1450.5 63.6062L1438.26 29.5874ZM1448.75 62.3764L1438.26 33.1801L1427.61 62.3764L1448.75 62.3764ZM1496.72 99.4257V1.57433L1511.73 1.57433L1512.09 0L1513.31 1.57433H1513.59L1513.8 2.21441L1556.47 57.2238V1.57433L1580 1.57433V99.4257H1564.31L1563.96 101L1562.74 99.4257H1562.42L1562.23 98.7695L1520.24 44.6418V99.4257L1496.72 99.4257ZM1519.02 41.0672L1563.34 98.1958H1578.78V2.80416L1557.7 2.80416V60.7983L1512.71 2.80416L1497.94 2.80416V98.1958L1519.02 98.1958V41.0672Z" fill="#F2B125"/>
</svg>
