<svg width="80" height="71" viewBox="0 0 80 71" fill="none" xmlns="http://www.w3.org/2000/svg">
<g clip-path="url(#clip0_2_160)">
<path d="M39.5814 10.4701C40.5089 11.3745 41.4385 12.2747 42.3617 13.1813C42.9019 13.713 43.4525 14.228 43.957 14.7996C44.6061 15.5219 44.5684 16.4305 43.9173 17.0397C43.2661 17.649 42.4183 17.6385 41.7399 16.9686C39.3574 14.6209 36.9924 12.2573 34.6448 9.87756C33.8911 9.11549 33.9246 8.31155 34.695 7.53483C36.9938 5.21513 39.3016 2.90451 41.6185 0.602949C42.3722 -0.14865 43.3269 -0.184234 43.9738 0.479434C44.6207 1.1431 44.5788 2.03079 43.8461 2.78239C42.4517 4.19347 41.0386 5.5836 39.5124 7.10565C40.2053 7.17264 40.7538 7.23545 41.3024 7.27523C48.4478 7.80072 54.515 10.6543 59.5438 15.7354C61.7518 17.9671 63.5485 20.571 64.8511 23.4273C65.0605 23.8774 65.2698 24.0721 65.8225 24.091C68.1506 24.1705 70.1751 25.0519 71.9128 26.6033C72.0279 26.7059 72.1452 26.8126 72.3964 27.022C73.081 26.2913 73.7384 25.5565 74.4335 24.8509C75.2039 24.0721 76.1084 24.0135 76.7825 24.6416C77.4838 25.3178 77.4399 26.2453 76.6359 27.0534C73.6881 30.0179 70.7369 32.9776 67.7821 35.9323C66.7709 36.9435 65.7869 36.8556 64.9746 35.6957C64.4345 34.9253 63.9055 34.1486 63.3877 33.3656C62.8182 32.5093 62.9375 31.6132 63.6766 31.0836C64.4156 30.5539 65.3347 30.7528 65.9628 31.6405C66.1722 31.9357 66.3815 32.2371 66.5574 32.4988L69.9197 29.1051C68.3725 27.3779 65.6655 26.7226 63.2935 27.5433C60.9214 28.364 59.1523 30.6146 58.9974 32.9364C58.7546 36.5311 60.8963 39.3679 64.3403 40.0211C67.4932 40.6199 70.5457 38.6603 71.6155 35.3524C71.9567 34.293 72.7188 33.7738 73.573 34.0188C74.5402 34.2951 74.959 35.1577 74.6051 36.2757C73.4495 39.9248 70.9749 42.1649 67.2504 42.9752C66.6809 43.0987 66.4129 43.2808 66.2433 43.8272C63.6033 52.0446 58.3128 57.9108 50.443 61.4134C47.0013 62.9484 43.2724 63.7334 39.504 63.7164H15.2434V67.0808C15.2434 69.48 14.921 69.8025 12.549 69.8025H2.0475C0.558954 69.8025 0.00833758 69.2602 0.00415039 67.78C0.00415039 64.0451 0.00415039 60.3094 0.00415039 56.573C0.00415039 55.074 0.525472 54.5527 2.03705 54.5506C5.74689 54.5423 9.45675 54.5423 13.1666 54.5506C14.7054 54.5506 15.2413 55.0991 15.2434 56.6254C15.2434 57.9046 15.2434 59.1838 15.2434 60.5425C15.4926 60.5613 15.7145 60.5928 15.9364 60.5948C23.8523 60.5948 31.7681 60.6283 39.684 60.5948C50.3153 60.5362 59.9395 53.4327 63.1846 43.3164C63.216 43.218 63.2307 43.1071 63.2642 42.9689C58.8236 41.5662 56.125 38.6205 55.9471 33.9183C55.7838 29.5657 58.0406 26.5258 61.9515 24.7065C58.4866 16.7215 49.7668 10.3779 39.5814 10.4701ZM12.0549 66.6181V57.7517H3.21364V66.6181H12.0549Z" fill="#E49B00"/>
<path d="M11.0521 35.3839C11.5671 23.4504 17.0209 14.7075 27.916 9.53218C28.7953 9.11347 29.5008 9.22024 29.9949 9.78969C30.4492 10.3131 30.5916 10.9475 30.2043 11.519C29.9152 11.9114 29.5283 12.221 29.0821 12.4171C24.5913 14.4542 20.9569 17.5004 18.2687 21.629C14.7682 27.0053 13.4946 32.8778 14.4479 39.2465C15.2497 44.5705 17.5778 49.1388 21.2939 53.0182C22.1104 53.8703 22.1774 54.7328 21.4866 55.4279C20.7957 56.123 19.8661 56.0288 19.081 55.2186C14.5798 50.5645 11.923 45.0332 11.1861 38.5891C11.1442 38.227 11.0709 37.8648 11.0605 37.5026C11.0374 36.7928 11.0521 36.0873 11.0521 35.3839Z" fill="#E49B00"/>
<path d="M74.3979 63.7079H71.1256C67.3927 63.7079 63.6577 63.7079 59.9249 63.7079C58.8969 63.7079 58.229 63.0798 58.2332 62.1587C58.2332 61.3066 58.9158 60.6492 59.86 60.5906C60.0693 60.578 60.2787 60.5906 60.488 60.5906H74.0252C73.841 60.3582 73.7405 60.1991 73.6065 60.0693C72.3922 58.8487 71.1675 57.6344 69.9553 56.4117C69.1555 55.6036 69.0843 54.6678 69.7459 53.9957C70.4075 53.3237 71.3475 53.3677 72.1556 54.1716C74.4321 56.4383 76.7015 58.7105 78.964 60.9883C79.8266 61.8572 79.8203 62.6988 78.9493 63.5739C76.7022 65.8308 74.4502 68.0828 72.1933 70.3299C71.3559 71.1548 70.4682 71.226 69.7815 70.5393C69.0948 69.8526 69.1785 68.923 69.9699 68.1275C71.3852 66.7059 72.8088 65.2928 74.3979 63.7079Z" fill="#E49B00"/>
</g>
<defs>
<clipPath id="clip0_2_160">
<rect width="79.6068" height="71" fill="white"/>
</clipPath>
</defs>
</svg>
