<svg width="135" height="134" viewBox="0 0 135 134" fill="none" xmlns="http://www.w3.org/2000/svg">
<rect y="67.875" width="44.6302" height="44.6302" rx="4" transform="rotate(-45 0 67.875)" fill="white" fill-opacity="0.1"/>
<path fill-rule="evenodd" clip-rule="evenodd" d="M31.4985 49.0659C31.4871 49.0981 31.4568 49.1947 31.4312 49.2805C31.3299 49.6204 31.1046 49.8978 29.9509 51.1036C27.7257 53.4295 27.0055 54.3178 26.1067 55.8454C25.804 56.3598 25.2685 57.4254 25.0353 57.9772C24.1807 59.9989 23.6139 62.4419 23.2821 65.5336C23.1688 66.5894 23.1592 68.1305 23.2608 68.9631C23.5937 71.6912 24.2171 73.9533 25.1454 75.801C26.1268 77.7543 27.8991 79.9283 30.0148 81.7738C30.2859 82.0102 30.3681 82.0634 30.3929 82.0188C30.4559 81.9055 30.738 80.7024 30.831 80.1501C30.8833 79.8395 30.9634 79.2539 31.009 78.8487C31.0937 78.0962 31.1345 77.9481 31.2863 77.8411C31.4262 77.7426 31.7157 77.7619 31.8541 77.879C31.9977 78.0006 32.0301 78.1036 32.1117 78.697C32.2445 79.6633 32.4842 80.6753 32.6763 81.0811C32.7821 81.3046 32.931 81.4679 33.2533 81.7138C33.3187 81.7637 33.3722 81.8296 33.3722 81.8601C33.3722 81.8907 33.388 81.9157 33.4073 81.9157C33.5325 81.9157 35.079 80.3645 35.7041 79.612C38.8822 75.786 40.4513 71.371 40.2353 66.863C40.0402 62.7934 38.7223 58.9457 36.2907 55.3472C35.3582 53.9672 34.5912 53.0345 33.2748 51.6799C32.2155 50.5898 31.9086 50.1505 31.6256 49.3195C31.5664 49.1455 31.5102 49.0333 31.4985 49.0659ZM30.0019 77.234C29.8709 77.5262 29.8275 77.7343 29.7623 78.3843L29.7154 78.8519L29.4664 78.5794C27.7828 76.7375 26.7507 75.037 26.0688 72.9815C25.5079 71.291 25.0593 68.7498 25.0633 67.2855C25.0674 65.7446 25.4419 63.0546 25.9132 61.1798C26.2623 59.7914 26.6253 58.7848 27.2075 57.5905C27.9108 56.1479 28.66 55.0492 29.8624 53.6973L30.0951 53.4357L30.1054 65.208L30.1157 76.9804L30.0019 77.234ZM31.5363 78.5215C31.5231 78.618 31.4851 78.9253 31.452 79.2042C31.3247 80.2762 31.1432 81.1962 30.8762 82.1227L30.7813 82.4518L30.89 82.7607C31.1311 83.4461 31.2455 84.2723 31.3245 85.8986L31.371 86.8579L31.838 86.9979C32.0948 87.0749 32.3098 87.1329 32.3159 87.1268C32.3219 87.1207 32.3441 86.5909 32.3651 85.9495C32.4251 84.1183 32.5035 83.1279 32.6196 82.7346C32.6544 82.6168 32.7349 82.4167 32.7984 82.2899C32.9078 82.0719 32.9102 82.0574 32.8426 82.0212C32.6973 81.9434 32.3795 81.5771 32.2595 81.3489C32.0535 80.9574 31.833 80.0735 31.6466 78.8921C31.5696 78.4044 31.5578 78.3647 31.5363 78.5215Z" fill="white"/>
<rect x="34.5664" y="31.5583" width="44.6302" height="44.6302" rx="4" transform="rotate(-45 34.5664 31.5583)" fill="white" fill-opacity="0.1"/>
<path fill-rule="evenodd" clip-rule="evenodd" d="M64.5574 14.5294C62.2923 14.7508 60.4592 15.2577 58.5933 16.1788C56.7668 17.0804 55.3564 18.1196 53.8127 19.7014C50.5902 23.0031 49.016 26.8539 49.0059 31.4593C49.0015 33.4909 49.2016 34.9624 49.7101 36.6385C50.4754 39.1616 51.8411 41.4157 53.8495 43.4708C56.643 46.3291 59.6284 47.8847 63.473 48.4853C64.6435 48.6682 67.5024 48.6687 68.6781 48.4862C72.5065 47.8919 75.5356 46.3115 78.3109 43.4603C81.0398 40.6567 82.5674 37.5394 83.0258 33.8386C83.1719 32.6596 83.171 30.3813 83.0241 29.2527C82.551 25.6183 81.0191 22.4606 78.4387 19.8002C77.3737 18.7021 76.5703 18.0221 75.4333 17.256C73.2133 15.7603 70.5952 14.829 67.8522 14.5592C67.1281 14.488 65.1629 14.4702 64.5574 14.5294ZM60.294 24.9579C61.1603 25.0612 61.8154 25.2867 62.4472 25.6988C63.9418 26.6739 64.8162 28.1625 65.1731 30.3394C65.2318 30.6971 65.2799 31.2417 65.2801 31.5496L65.2803 32.1095H60.4997H55.7191L55.7701 32.6933C55.9271 34.4925 56.7452 35.6364 58.2534 36.1656C58.7812 36.3507 59.889 36.4192 60.5356 36.3066C61.6096 36.1197 62.5898 35.3738 62.8708 34.5297L63.015 34.0962L64.0392 34.0762C64.8859 34.0596 65.0635 34.074 65.0635 34.1589C65.0635 34.3796 64.7509 35.2722 64.5415 35.6495C63.5357 37.462 61.3311 38.4449 58.8663 38.1797C58.4539 38.1353 57.8984 38.0323 57.6319 37.9507C55.9108 37.424 54.6072 36.1409 53.9993 34.3754C53.5458 33.0579 53.4163 31.0855 53.7003 29.8213C54.3634 26.8707 56.5404 24.9975 59.4265 24.894C59.5668 24.889 59.9572 24.9178 60.294 24.9579ZM77.9743 25.0021C77.9495 25.0665 76.9348 26.4477 75.7191 28.0714C74.5035 29.6951 73.5199 31.0516 73.5334 31.0858C73.5469 31.1201 74.6884 32.7243 76.07 34.6507C77.4517 36.5771 78.5822 38.1759 78.5822 38.2034C78.5822 38.2309 77.9589 38.2446 77.1971 38.2339L75.8121 38.2142L73.9982 35.5206C73.0005 34.0391 72.1518 32.8335 72.112 32.8415C72.0722 32.8495 71.2264 34.0615 70.2324 35.5351L68.4251 38.2142L67.1057 38.2339C66.3801 38.2447 65.7864 38.2385 65.7864 38.2201C65.7864 38.2016 66.8776 36.6557 68.2112 34.7847C69.5449 32.9137 70.6536 31.3373 70.675 31.2815C70.7052 31.2029 67.9343 27.3388 66.3085 25.192L66.1307 24.9572H67.5447H68.9587L70.28 26.8897C71.0068 27.9527 71.719 28.9906 71.8627 29.1964L72.1241 29.5705L73.7649 27.2655L75.4056 24.9605L76.6867 24.9389C77.3912 24.9272 77.9793 24.9101 77.9935 24.9012C78.0077 24.8922 77.9991 24.9376 77.9743 25.0021ZM58.594 26.8434C57.9991 26.9647 57.3285 27.3295 56.8844 27.7733C56.3173 28.3398 55.8528 29.3119 55.7961 30.0505L55.7739 30.3394L59.4066 30.3582L63.0393 30.3769V30.2108C63.0393 29.9183 62.8258 29.197 62.605 28.7434C62.2072 27.926 61.5213 27.3191 60.6175 26.9845C60.1134 26.7979 59.1475 26.7306 58.594 26.8434Z" fill="white"/>
<rect x="35.0039" y="102.442" width="44.6302" height="44.6302" rx="4" transform="rotate(-45 35.0039 102.442)" fill="white" fill-opacity="0.1"/>
<path fill-rule="evenodd" clip-rule="evenodd" d="M65.8342 86.3604C65.227 86.5877 60.1413 89.5794 60.2005 89.6746C60.2366 89.7328 60.2168 89.745 60.1515 89.7048C60.0473 89.6408 53.5865 93.2871 52.9294 93.7807C52.7651 93.9041 52.5042 94.2569 52.3496 94.5645L52.0685 95.124V102.612C52.0685 110.951 52.0435 110.609 52.7022 111.327C53.093 111.753 56.1759 113.555 57.3288 114.031C58.0182 114.316 58.1093 114.33 59.2584 114.33C60.3667 114.33 60.5058 114.31 60.9747 114.089C61.8885 113.657 62.504 112.853 62.7313 111.793C62.8107 111.422 62.8325 109.307 62.8119 103.951L62.7838 96.6167L61.8232 96.5904C61.1946 96.5731 60.8179 96.6009 60.7331 96.6708C60.6244 96.7606 60.6033 97.9245 60.6021 103.939L60.6005 111.101L60.3934 111.463C60.0176 112.12 59.2106 112.39 58.3307 112.153C57.7271 111.991 54.2248 109.95 54.164 109.725C54.0925 109.46 54.0954 95.6996 54.1671 95.5138C54.1988 95.4316 54.3463 95.302 54.4949 95.2255C54.6509 95.1454 54.738 95.0433 54.7012 94.9841C54.6628 94.9222 54.6797 94.9074 54.7438 94.9468C54.8719 95.0256 56.0791 94.3732 56.0102 94.2625C55.9837 94.2197 56.0108 94.1547 56.0705 94.118C56.1434 94.0733 56.1541 94.0915 56.1032 94.1734C55.9882 94.3583 56.1212 94.2909 58.0523 93.1847C66.2852 88.4683 65.446 88.9643 65.3579 88.8676C65.3198 88.8258 65.3377 88.8195 65.3977 88.8537C65.4576 88.8878 65.7628 88.7665 66.0759 88.584C66.389 88.4015 66.7007 88.2735 66.7688 88.2994C66.8367 88.3253 68.4232 89.2222 70.2943 90.2924C72.1655 91.3626 73.7419 92.2103 73.7976 92.176C73.8533 92.1419 73.8737 92.1544 73.843 92.2038C73.7962 92.279 77.2697 94.3565 77.4422 94.3565C77.4736 94.3565 77.4695 94.3085 77.4331 94.2499C77.3917 94.1834 77.4077 94.1686 77.4755 94.2103C77.5353 94.247 77.5623 94.3119 77.5358 94.3547C77.5093 94.3975 77.7695 94.5877 78.1142 94.7775C78.4588 94.9673 78.8558 95.2023 78.9964 95.2997L79.2521 95.4769L79.2284 102.688L79.2046 109.899L73.0816 113.427C69.7139 115.367 66.8879 116.978 66.8015 117.008C66.702 117.041 66.0364 116.703 64.9889 116.087C64.0784 115.552 63.2724 115.114 63.1978 115.114C63.1231 115.114 62.9176 115.202 62.7412 115.309C62.5646 115.416 62.1294 115.614 61.7741 115.749C61.4188 115.884 61.114 116.036 61.0969 116.087C61.0619 116.192 65.3709 118.772 65.8861 118.955C66.3141 119.108 67.2367 119.106 67.6698 118.952C68.2811 118.735 78.5104 112.792 78.4474 112.691C78.4121 112.634 78.4321 112.622 78.4957 112.661C78.6559 112.759 80.2569 111.824 80.6995 111.374C81.4148 110.646 81.3849 111.028 81.3839 102.62L81.3829 95.1407L81.166 94.6775C81.0467 94.4227 80.8206 94.0865 80.6635 93.9302C80.2721 93.5409 73.44 89.6199 73.3015 89.7051C73.2368 89.7448 73.2167 89.7327 73.2523 89.6754C73.3109 89.5811 68.2219 86.5868 67.6184 86.3604C67.4596 86.3008 67.0583 86.2521 66.7266 86.2521C66.395 86.2521 65.9934 86.3008 65.8342 86.3604ZM61.6241 89.0406C61.6241 89.0597 61.5511 89.1324 61.4618 89.202C61.3146 89.3167 61.3114 89.3135 61.4267 89.1671C61.5479 89.0135 61.6241 88.9646 61.6241 89.0406ZM78.1496 92.7651C78.2649 92.9114 78.2617 92.9146 78.1145 92.8C77.96 92.6794 77.9109 92.6036 77.9872 92.6036C78.0065 92.6036 78.0796 92.6763 78.1496 92.7651ZM68.9532 96.1654C68.2546 96.2511 67.2137 96.5114 66.7454 96.7173C66.1026 96.9999 65.6885 97.298 65.7658 97.4222C65.7997 97.4769 65.786 97.4961 65.7352 97.4648C65.5878 97.3742 65.0878 97.9547 64.83 98.5159C64.5303 99.1681 64.4409 99.9884 64.5873 100.741C64.9462 102.587 66.3627 103.313 70.3912 103.719C72.1123 103.892 73.4019 104.241 73.8408 104.653C74.1193 104.914 74.1485 104.991 74.1485 105.467C74.1485 106.041 74.0644 106.263 73.7025 106.649C73.1463 107.242 71.3751 107.55 69.498 107.379C67.4648 107.194 66.7299 106.731 66.3939 105.422C66.3099 105.095 66.1939 104.797 66.136 104.76C65.9865 104.663 64.3871 104.675 64.2304 104.774C64.1387 104.832 64.1051 105.017 64.1173 105.395C64.1797 107.319 65.3937 108.615 67.7008 109.22C68.7446 109.494 71.1624 109.566 72.3586 109.359C74.0489 109.066 75.251 108.418 75.9031 107.447C76.35 106.781 76.5156 106.151 76.5015 105.171C76.492 104.51 76.4504 104.326 76.1925 103.805C75.5714 102.55 74.4508 102.092 70.6995 101.557C67.8969 101.158 67.2258 100.959 66.9601 100.448C66.5746 99.7069 67.0833 98.7816 68.0638 98.4412C68.4422 98.3098 68.839 98.2773 70.0665 98.2773C71.9848 98.2773 72.4965 98.4053 73.1257 99.0427C73.3566 99.2766 73.5752 99.46 73.6117 99.4504C73.6482 99.4407 73.6515 99.5013 73.6191 99.5851C73.5867 99.669 73.5987 99.7142 73.6456 99.6856C73.6926 99.657 73.7387 99.7779 73.7481 99.9542C73.7574 100.13 73.8315 100.375 73.9126 100.498C74.0503 100.707 74.1142 100.722 74.8852 100.722C75.3391 100.722 75.7765 100.697 75.8572 100.666C76.1917 100.538 75.931 99.0931 75.4202 98.2438C74.6139 96.9034 73.0499 96.2377 70.5303 96.1628C69.8415 96.1424 69.1318 96.1435 68.9532 96.1654ZM72.9882 98.507C73.0206 98.5592 72.9834 98.5747 72.9009 98.5432C72.7402 98.4819 72.7108 98.4157 72.8442 98.4157C72.8922 98.4157 72.957 98.4568 72.9882 98.507ZM67.3452 108.883C67.3452 108.956 67.3096 108.995 67.2663 108.968C67.223 108.942 67.2115 108.881 67.2409 108.834C67.3158 108.713 67.3452 108.727 67.3452 108.883ZM57.3684 111.954C57.4837 112.1 57.4805 112.104 57.3334 111.989C57.1788 111.868 57.1297 111.793 57.2061 111.793C57.2253 111.793 57.2984 111.865 57.3684 111.954ZM60.2944 112.112C60.2944 112.185 60.2589 112.224 60.2155 112.197C60.1722 112.171 60.1607 112.11 60.1901 112.063C60.2651 111.942 60.2944 111.956 60.2944 112.112ZM58.4698 114.191C58.5464 114.24 58.5672 114.281 58.5162 114.281C58.4652 114.281 58.3608 114.24 58.2843 114.191C58.2077 114.142 58.1869 114.102 58.2379 114.102C58.2889 114.102 58.3933 114.142 58.4698 114.191ZM69.4659 117.771C69.4374 117.8 69.3625 117.772 69.2995 117.708C69.2086 117.617 69.2193 117.607 69.3515 117.657C69.4429 117.691 69.4944 117.743 69.4659 117.771Z" fill="white"/>
<rect x="71.3184" y="67.9751" width="44.6302" height="44.6302" rx="4" transform="rotate(-45 71.3184 67.9751)" fill="white" fill-opacity="0.1"/>
<path d="M122.367 67.4218C122.367 64.8521 119.149 62.4168 114.215 60.9066C115.354 55.8779 114.847 51.8771 112.618 50.5962C112.104 50.2957 111.503 50.1534 110.847 50.1534V51.9166C111.21 51.9166 111.503 51.9878 111.748 52.1222C112.823 52.7389 113.29 55.0872 112.926 58.1076C112.839 58.8509 112.697 59.6336 112.523 60.4322C110.973 60.0527 109.281 59.7602 107.502 59.5704C106.435 58.1076 105.328 56.7793 104.213 55.617C106.79 53.2212 109.21 51.9087 110.855 51.9087V50.1455C108.68 50.1455 105.834 51.6952 102.956 54.3835C100.078 51.7111 97.2312 50.1771 95.0568 50.1771V51.9403C96.6935 51.9403 99.1209 53.245 101.699 55.6249C100.592 56.7872 99.4846 58.1076 98.433 59.5704C96.6461 59.7602 94.954 60.0527 93.4043 60.4401C93.2224 59.6495 93.088 58.8825 92.9931 58.1472C92.6215 55.1268 93.0801 52.7785 94.1475 52.1538C94.3847 52.0115 94.6931 51.9483 95.0568 51.9483V50.185C94.3926 50.185 93.7917 50.3274 93.2699 50.6278C91.0481 51.9087 90.55 55.9016 91.6964 60.9145C86.7784 62.4326 83.5762 64.86 83.5762 67.4218C83.5762 69.9915 86.7942 72.4268 91.7281 73.937C90.5895 78.9657 91.0955 82.9665 93.3252 84.2474C93.8392 84.5479 94.4401 84.6902 95.1043 84.6902C97.2786 84.6902 100.125 83.1405 103.003 80.4522C105.881 83.1247 108.728 84.6586 110.902 84.6586C111.566 84.6586 112.167 84.5163 112.689 84.2158C114.911 82.9349 115.409 78.942 114.262 73.9291C119.165 72.4189 122.367 69.9836 122.367 67.4218ZM112.072 62.148C111.78 63.168 111.416 64.2196 111.005 65.2712C110.681 64.6386 110.341 64.0061 109.969 63.3736C109.605 62.741 109.218 62.1243 108.83 61.5234C109.953 61.6894 111.036 61.895 112.072 62.148ZM108.451 70.5687C107.834 71.6361 107.202 72.6482 106.545 73.5891C105.367 73.6919 104.173 73.7472 102.971 73.7472C101.778 73.7472 100.584 73.6919 99.4134 73.597C98.7572 72.6561 98.1167 71.6519 97.5 70.5924C96.8991 69.5567 96.3535 68.505 95.8554 67.4455C96.3456 66.386 96.8991 65.3265 97.4921 64.2907C98.1088 63.2233 98.7414 62.2113 99.3976 61.2703C100.576 61.1676 101.77 61.1122 102.971 61.1122C104.165 61.1122 105.359 61.1676 106.53 61.2624C107.186 62.2033 107.826 63.2075 108.443 64.267C109.044 65.3028 109.589 66.3544 110.088 67.4139C109.589 68.4734 109.044 69.5329 108.451 70.5687ZM111.005 69.5408C111.432 70.6003 111.795 71.6599 112.096 72.6877C111.06 72.9408 109.969 73.1542 108.838 73.3203C109.226 72.7115 109.613 72.0868 109.977 71.4464C110.341 70.8138 110.681 70.1734 111.005 69.5408ZM102.987 77.9774C102.252 77.2183 101.517 76.3723 100.789 75.4472C101.501 75.4788 102.228 75.5026 102.964 75.5026C103.707 75.5026 104.442 75.4867 105.162 75.4472C104.45 76.3723 103.715 77.2183 102.987 77.9774ZM97.1047 73.3203C95.9819 73.1542 94.8987 72.9487 93.8629 72.6956C94.1554 71.6757 94.5192 70.6241 94.9303 69.5725C95.2545 70.205 95.5945 70.8376 95.9661 71.4701C96.3377 72.1026 96.7172 72.7194 97.1047 73.3203ZM102.948 56.8663C103.683 57.6253 104.418 58.4713 105.146 59.3964C104.434 59.3648 103.707 59.3411 102.971 59.3411C102.228 59.3411 101.493 59.3569 100.773 59.3964C101.485 58.4713 102.22 57.6253 102.948 56.8663ZM97.0968 61.5234C96.7093 62.1322 96.3219 62.7568 95.9582 63.3973C95.5945 64.0298 95.2545 64.6624 94.9303 65.2949C94.5033 64.2354 94.1396 63.1759 93.8392 62.148C94.875 61.9029 95.9661 61.6894 97.0968 61.5234ZM89.9411 71.4227C87.1421 70.2287 85.3315 68.6632 85.3315 67.4218C85.3315 66.1805 87.1421 64.607 89.9411 63.421C90.6211 63.1284 91.3643 62.8675 92.1313 62.6224C92.582 64.1721 93.175 65.7851 93.9103 67.4376C93.1829 69.0822 92.5978 70.6873 92.155 72.2291C91.3723 71.984 90.629 71.7152 89.9411 71.4227ZM94.195 82.7214C93.1197 82.1047 92.6532 79.7564 93.0169 76.736C93.1038 75.9928 93.2462 75.21 93.4201 74.4114C94.9698 74.7909 96.6619 75.0835 98.4409 75.2733C99.5083 76.736 100.615 78.0643 101.73 79.2266C99.1525 81.6224 96.7331 82.9349 95.0884 82.9349C94.7326 82.927 94.4322 82.8559 94.195 82.7214ZM112.95 76.6965C113.321 79.7169 112.863 82.0652 111.795 82.6898C111.558 82.8321 111.25 82.8954 110.886 82.8954C109.249 82.8954 106.822 81.5908 104.244 79.2108C105.351 78.0485 106.458 76.7281 107.51 75.2653C109.297 75.0756 110.989 74.783 112.539 74.3956C112.721 75.1942 112.863 75.9611 112.95 76.6965ZM115.994 71.4227C115.314 71.7152 114.571 71.9761 113.804 72.2212C113.353 70.6715 112.76 69.0585 112.025 67.406C112.752 65.7614 113.337 64.1563 113.78 62.6145C114.563 62.8596 115.306 63.1284 116.002 63.421C118.801 64.6149 120.612 66.1805 120.612 67.4218C120.604 68.6632 118.793 70.2366 115.994 71.4227Z" fill="white"/>
<path d="M102.963 71.0356C104.959 71.0356 106.576 69.4179 106.576 67.4222C106.576 65.4266 104.959 63.8088 102.963 63.8088C100.967 63.8088 99.3496 65.4266 99.3496 67.4222C99.3496 69.4179 100.967 71.0356 102.963 71.0356Z" fill="white"/>
</svg>
