<svg width="86" height="70" viewBox="0 0 86 70" fill="none" xmlns="http://www.w3.org/2000/svg">
<g clip-path="url(#clip0_2_119)">
<path d="M85.19 42.3128C85.1278 42.4928 85.0523 42.6683 85.0034 42.8505C84.2724 45.5699 81.8063 47.6627 79.178 47.7938C76.0676 47.9516 73.4882 46.383 72.4129 43.5992C72.1907 43.0482 71.9574 42.846 71.3598 42.8527C68.8092 42.8882 66.2498 42.8682 63.7103 42.8705C63.466 42.8705 63.2216 42.8949 62.8972 42.9127C62.8816 43.2393 62.8572 43.5325 62.8572 43.828C62.8572 47.0695 62.8728 50.3133 62.8572 53.5548C62.8283 57.5872 60.4133 60.4777 56.5009 61.1842C56.0353 61.252 55.5647 61.2788 55.0945 61.2642C49.6883 61.2642 44.2821 61.2642 38.8759 61.2642H37.885C38.0849 63.0904 38.276 64.8189 38.4737 66.6096C39.7912 66.6096 41.0598 66.5963 42.3284 66.6096C43.3571 66.6252 44.0303 67.1806 44.1547 68.0693C44.1913 68.2812 44.185 68.4983 44.1362 68.7078C44.0873 68.9172 43.9969 69.1147 43.8703 69.2885C43.7437 69.4624 43.5835 69.609 43.3992 69.7198C43.2149 69.8305 43.0101 69.9032 42.7972 69.9333C42.4683 69.9793 42.1362 69.9986 41.8041 69.9911H21.0176C20.7688 69.9911 20.5177 69.9911 20.2711 69.9711C19.2735 69.8711 18.6648 69.2335 18.6626 68.307C18.6587 68.0863 18.6992 67.8671 18.7817 67.6624C18.8642 67.4577 18.9871 67.2717 19.143 67.1154C19.2988 66.9591 19.4845 66.8358 19.689 66.7527C19.8935 66.6696 20.1126 66.6285 20.3333 66.6319C21.6308 66.5919 22.9327 66.6319 24.3324 66.6319C24.5346 64.8545 24.7279 63.1037 24.9345 61.2819H23.9703C18.5374 61.2819 13.1053 61.2819 7.67391 61.2819C3.20157 61.2819 0.0289375 58.1115 0.0289375 53.657C0.0289375 42.104 0.102265 30.551 -0.0154862 18.9847C-0.0532556 15.2077 2.7039 11.0975 7.72723 11.1486C10.1934 11.1731 12.6617 11.1486 15.1278 11.162C15.6543 11.162 15.9098 11.0553 15.9898 10.4666C16.4342 7.24282 19.0425 4.97889 22.3506 4.95223C25.5388 4.92779 28.7248 4.95223 31.9041 4.95223H72.1174C72.5318 3.53015 73.3876 2.27669 74.5613 1.37302C75.3977 0.739881 76.3723 0.314056 77.4052 0.130478C78.4381 -0.0530995 79.4997 0.0108002 80.5031 0.316933C81.5065 0.623066 82.423 1.16271 83.1775 1.8916C83.932 2.62049 84.5029 3.51786 84.8434 4.5101C84.9478 4.8167 85.0656 5.11663 85.1834 5.41879V7.74716C85.1167 7.95378 85.0434 8.1604 84.9834 8.37146C83.8503 12.3883 79.4424 14.4279 75.7254 12.6416C73.9058 11.7685 72.7528 10.311 72.1285 8.3648H22.6617C22.3569 8.3577 22.0519 8.36957 21.7486 8.40034C20.3844 8.57364 19.2491 9.91334 19.4446 11.1553H31.733C39.4617 11.1553 47.1918 11.1553 54.9234 11.1553C58.9025 11.1553 61.7797 13.2993 62.6195 16.9029C62.784 17.7727 62.8584 18.6572 62.8416 19.5423C62.8772 21.0264 62.8528 22.5128 62.8528 24.0302H72.144C72.2351 23.7814 72.3085 23.5859 72.3907 23.3637C72.8876 22.0918 73.765 21.0043 74.9031 20.2497C76.0413 19.4952 77.3846 19.1103 78.7496 19.1478C80.1146 19.1852 81.4348 19.6431 82.5298 20.4589C83.6249 21.2747 84.4414 22.4086 84.8679 23.7058C84.9612 23.9858 85.0901 24.2568 85.1878 24.5323V26.8607C85.1273 26.9828 85.0753 27.109 85.0323 27.2384C84.2236 30.1733 81.9219 32.1862 79.2069 32.3484C75.9765 32.5439 73.5615 31.0287 72.3373 27.9738C72.144 27.4939 71.8641 27.4694 71.4597 27.4717C68.8292 27.4717 66.1987 27.4717 63.5682 27.4717C63.346 27.4717 63.1416 27.5072 62.9016 27.5272V39.4557H72.1485C72.2373 39.2135 72.3107 38.978 72.4084 38.7536C73.5193 36.2186 75.4588 34.7434 78.2093 34.5834C80.8154 34.4301 82.875 35.5565 84.2502 37.8071C84.6568 38.4737 84.8834 39.2579 85.1923 39.9867L85.19 42.3128ZM19.3424 20.2799H20.4066C21.8752 20.2955 23.3482 20.2377 24.8101 20.3488C25.9002 20.4331 26.9177 20.9274 27.6578 21.7322C28.3978 22.537 28.8053 23.5923 28.7981 24.6856C28.8188 30.4517 28.8188 36.2156 28.7981 41.9773C28.7981 44.319 26.983 46.2808 24.6368 46.3208C19.9549 46.3963 15.2722 46.3963 10.5888 46.3208C8.20046 46.2853 6.39196 44.3212 6.38308 41.9351C6.3579 36.1986 6.3579 30.4621 6.38308 24.7256C6.37601 23.7612 6.68846 22.8217 7.27166 22.0536C7.85486 21.2855 8.67597 20.7321 9.60681 20.4799C10.1986 20.3408 10.8053 20.2759 11.4131 20.2866C12.8772 20.2599 14.3413 20.2866 15.8321 20.2866V14.5212C13.1438 14.5212 10.5133 14.6123 7.89164 14.4968C5.27 14.3812 3.33266 16.3275 3.34821 19.0424C3.40376 28.7158 3.37043 38.387 3.37043 48.0582V49.0002H4.5457C16.352 49.0002 28.1582 49.0002 39.9645 49.0002C40.3502 48.9889 40.7358 49.024 41.1132 49.1046C41.4839 49.1844 41.8127 49.3969 42.0377 49.7021C42.2628 50.0074 42.3685 50.3843 42.3351 50.762C42.2884 51.573 41.8685 52.1217 41.0709 52.3039C40.6641 52.3825 40.2499 52.4167 39.8357 52.4061C28.0561 52.4061 16.2809 52.4061 4.51017 52.4061H3.47039C2.97717 55.8698 4.7279 57.916 8.09382 57.916H54.9856C58.176 57.916 60.0489 55.5587 59.3291 52.4372C59.1069 52.4261 58.8492 52.4083 58.6048 52.4061C57.1074 52.4061 55.6099 52.4328 54.1147 52.3906C53.0372 52.3595 52.3107 51.6418 52.2973 50.7132C52.284 49.7845 53.0594 49.0424 54.1614 48.9958C54.4102 48.9958 54.659 48.9958 54.9079 48.9958H59.4069V42.9171H56.5186C55.9321 45.3388 54.6457 46.3586 52.2018 46.3608H39.9823C38.2627 46.3608 36.5453 46.383 34.8279 46.3608C32.5617 46.3208 31.0398 44.83 30.9443 42.5683C30.9065 41.6796 30.9088 40.7909 30.9443 39.9022C31.0265 37.5272 32.6128 36.0098 34.999 36.0075C40.8169 36.0075 46.6364 36.0075 52.4573 36.0075C52.7886 36.0023 53.1196 36.0344 53.4437 36.1031C55.2389 36.5119 56.1831 37.7294 56.5142 39.4357H59.4024V27.5161H56.5542C56.0387 29.9289 54.8234 31.1775 52.8061 31.1908C46.7334 31.2234 40.6607 31.2234 34.5879 31.1908C32.5995 31.1797 31.0909 29.6823 30.9598 27.685C30.8865 26.5541 30.9065 25.4143 30.9287 24.279C30.9776 21.8685 32.484 20.311 34.8856 20.2955C40.7629 20.2599 46.6378 20.2599 52.5106 20.2955C54.4591 20.2955 55.8788 21.4063 56.3498 23.1237C56.4275 23.4081 56.4608 23.7036 56.5142 23.988H59.4357C59.4357 22.2861 59.3513 20.6554 59.4535 19.0224C59.6268 16.243 57.4917 14.4768 54.9301 14.4923C43.3771 14.5701 31.8241 14.5257 20.2711 14.5257H19.3447L19.3424 20.2799ZM9.74011 33.3281C9.74011 36.072 9.74011 38.8158 9.74011 41.5485C9.74011 42.6594 10.0889 42.9793 11.1909 42.9815C15.43 42.9815 19.669 42.9815 23.9081 42.9815C25.1011 42.9815 25.4477 42.6505 25.4477 41.4663C25.4477 36.0364 25.4477 30.6058 25.4477 25.1744C25.4477 23.9924 25.1011 23.6614 23.9081 23.6614H11.3575C10.0245 23.6614 9.74013 23.9436 9.73791 25.2588C9.73643 27.9575 9.73714 30.6473 9.74011 33.3281ZM43.697 27.8538C46.5475 27.8538 49.398 27.8383 52.2485 27.8649C52.9016 27.8649 53.1571 27.6427 53.1083 26.9984C53.0705 26.4741 53.1083 25.9476 53.1083 25.421C53.0883 23.4215 53.366 23.6747 51.3309 23.6725C45.9632 23.6725 40.5955 23.6725 35.2256 23.6547C34.4968 23.6547 34.2325 23.8769 34.2836 24.6056C34.3369 25.3786 34.3369 26.1544 34.2836 26.9273C34.2325 27.6694 34.5213 27.876 35.2389 27.8671C38.0516 27.8338 40.8754 27.8538 43.697 27.8538V27.8538ZM43.6415 42.9904C46.5297 42.9904 49.4046 42.9904 52.2862 42.9904C52.8994 42.9904 53.146 42.7883 53.1083 42.1706C53.0727 41.593 53.1083 41.0087 53.1083 40.4266C53.1083 39.4068 53.0705 39.369 52.0174 39.369H40.04C38.4337 39.369 36.8252 39.3935 35.2189 39.3579C34.4924 39.3424 34.2102 39.6045 34.2769 40.3288C34.3291 40.8533 34.3291 41.3817 34.2769 41.9062C34.188 42.7305 34.4613 43.0171 35.3278 43.0038C38.1071 42.9571 40.871 42.9904 43.6415 42.9904V42.9904ZM27.7583 66.5585H35.0678C34.8701 64.7812 34.6812 63.0526 34.4879 61.3064H28.3315C28.1449 63.0615 27.9561 64.7812 27.7583 66.5585V66.5585ZM78.6359 37.9516C78.2078 37.9354 77.7808 38.006 77.3806 38.1591C76.9805 38.3122 76.6154 38.5446 76.3074 38.8424C75.9994 39.1403 75.7548 39.4973 75.5884 39.8921C75.422 40.2869 75.3371 40.7113 75.3389 41.1397C75.3222 42.0041 75.6484 42.84 76.2463 43.4645C76.8442 44.089 77.665 44.4513 78.5293 44.4723C79.3933 44.4672 80.222 44.129 80.8429 43.528C81.4637 42.9271 81.8287 42.1098 81.8619 41.2464C81.8672 40.3816 81.5303 39.5499 80.9247 38.9326C80.3191 38.3154 79.4939 37.9627 78.6293 37.9516H78.6359ZM75.3389 6.59852C75.33 7.02587 75.4062 7.45072 75.563 7.84838C75.7197 8.24603 75.954 8.60857 76.252 8.91492C76.5501 9.22128 76.9061 9.46534 77.2993 9.63292C77.6926 9.8005 78.1152 9.88827 78.5426 9.89113C78.97 9.89521 79.3941 9.81507 79.7905 9.65527C80.187 9.49547 80.5481 9.25915 80.8532 8.9598C81.1584 8.66045 81.4015 8.30393 81.5689 7.9106C81.7362 7.51727 81.8245 7.09483 81.8286 6.6674C81.8326 6.23997 81.7525 5.81592 81.5927 5.41946C81.4329 5.023 81.1966 4.6619 80.8972 4.35677C80.5979 4.05165 80.2413 3.80847 79.848 3.64113C79.4547 3.47378 79.0323 3.38555 78.6048 3.38146C78.1768 3.37072 77.751 3.44618 77.3528 3.60335C76.9545 3.76051 76.5919 3.99618 76.2866 4.29632C75.9813 4.59646 75.7395 4.95494 75.5755 5.35045C75.4115 5.74595 75.3288 6.17039 75.3322 6.59852H75.3389ZM78.5759 29.0158C79.0034 29.0166 79.4268 28.9333 79.822 28.7706C80.2172 28.6078 80.5766 28.3688 80.8794 28.0672C81.1823 27.7655 81.4227 27.4072 81.5871 27.0127C81.7515 26.6181 81.8365 26.195 81.8374 25.7676C81.8383 25.3402 81.755 24.9168 81.5922 24.5215C81.4295 24.1263 81.1904 23.767 80.8888 23.4641C80.5872 23.1613 80.2289 22.9208 79.8343 22.7564C79.4398 22.592 79.0167 22.507 78.5893 22.5061C77.726 22.5043 76.8974 22.8456 76.2858 23.4547C75.6741 24.0639 75.3295 24.891 75.3278 25.7543C75.326 26.6175 75.6672 27.4461 76.2764 28.0577C76.8855 28.6694 77.7127 29.014 78.5759 29.0158V29.0158Z" fill="#E49B00"/>
<path d="M31.3774 56.9274C30.6576 56.9274 29.9355 56.9518 29.2179 56.9274C28.2092 56.883 27.5049 56.1876 27.4872 55.2722C27.4694 54.3569 28.1137 53.6059 29.1468 53.5726C30.6687 53.5259 32.195 53.5259 33.7169 53.5726C33.94 53.5686 34.1615 53.6106 34.3677 53.6959C34.5739 53.7813 34.7603 53.9081 34.9153 54.0686C35.0704 54.229 35.1907 54.4197 35.2689 54.6287C35.3471 54.8377 35.3815 55.0605 35.3699 55.2833C35.3388 56.2098 34.6434 56.8852 33.6214 56.9252C32.8749 56.9518 32.1261 56.9274 31.3774 56.9274Z" fill="#E49B00"/>
<path d="M48.9935 50.7175C48.9865 51.165 48.8026 51.5915 48.482 51.9037C48.1615 52.216 47.7303 52.3886 47.2828 52.3838C46.8456 52.364 46.4331 52.1752 46.1324 51.8573C45.8316 51.5393 45.6661 51.1169 45.6707 50.6793C45.6754 50.2416 45.8497 49.8229 46.1571 49.5113C46.4644 49.1997 46.8808 49.0196 47.3183 49.009C47.7657 49.0178 48.1917 49.2016 48.5049 49.5211C48.8182 49.8405 48.9936 50.2701 48.9935 50.7175Z" fill="#E49B00"/>
<path d="M17.5894 36.1054C17.0251 36.8341 16.5296 37.4962 16.0097 38.1427C15.3143 39.0069 14.3101 39.158 13.5369 38.5359C12.7638 37.9139 12.7104 36.9607 13.3503 36.092C13.9279 35.3144 14.5145 34.5368 15.1277 33.797C15.4054 33.4571 15.4121 33.1993 15.1277 32.855C14.5145 32.1085 13.9279 31.3375 13.3503 30.5599C12.7082 29.6935 12.7927 28.7181 13.5325 28.116C14.3101 27.4895 15.3099 27.6361 16.0053 28.5026C16.5252 29.1469 17.0206 29.8112 17.5871 30.5444C18.1181 29.8601 18.6158 29.2113 19.1224 28.5759C19.8578 27.6472 20.8398 27.4651 21.6418 28.1094C22.4438 28.7537 22.4816 29.6846 21.7907 30.6133C21.2463 31.3464 20.702 32.0796 20.1177 32.7794C19.7955 33.166 19.7644 33.446 20.1044 33.8503C20.7109 34.5679 21.2708 35.3255 21.8284 36.0832C22.4949 36.9718 22.3816 37.9938 21.5907 38.5715C20.7998 39.1491 19.86 38.9736 19.1801 38.1405C18.9158 37.8205 18.6736 37.474 18.4181 37.1562C18.1626 36.8385 17.9093 36.5142 17.5894 36.1054Z" fill="#E49B00"/>
</g>
<defs>
<clipPath id="clip0_2_119">
<rect width="85.19" height="70" fill="white"/>
</clipPath>
</defs>
</svg>
