<svg width="1538" height="103" viewBox="0 0 1538 103" fill="none" xmlns="http://www.w3.org/2000/svg">
<path fill-rule="evenodd" clip-rule="evenodd" d="M0.266113 99.7703V2.60015H17.857L49.969 52.6163L81.9655 2.60015H99.6908V99.7703H75.329V52.2639L57.7757 79.6121H42.0457L24.4954 52.1165V99.7703H0.266113ZM22.7251 46.0528L43.0159 77.8418H56.8084L77.0992 46.2285V98.0001H97.9206V4.37041H82.9345L49.9717 55.8972L16.8898 4.37041H2.03638V98.0001H22.7251V46.0528ZM116.759 99.7703V2.60015H186.875V24.0444H141.121V39.7337H182.896V60.6475H141.121V78.1935H187.538V99.7703H116.759ZM185.768 98.0001V79.9638H139.351V58.8772H181.126V41.504H139.351V22.2741H185.105V4.37041H118.529V98.0001H185.768ZM223.596 44.0238H238.449C242.604 44.0238 245.787 42.9628 247.998 40.8409C250.296 38.719 251.446 35.8455 251.446 32.2206C251.446 28.8609 250.341 26.0759 248.13 23.8655C245.92 21.6552 242.737 20.55 238.582 20.55H223.596V44.0238ZM225.366 22.3203V42.2535H238.449C242.314 42.2535 244.994 41.2704 246.772 39.5638L246.784 39.5518L246.797 39.5401C248.674 37.8075 249.675 35.4374 249.675 32.2206C249.675 29.2916 248.73 26.9692 246.878 25.1173C245.098 23.3371 242.427 22.3203 238.582 22.3203H225.366ZM223.596 98.0001H202.774V4.37041H240.969C247.158 4.37041 252.595 5.56399 257.281 7.95115C261.967 10.2499 265.636 13.477 268.288 17.6324C270.941 21.7878 272.267 26.5621 272.267 31.9554C272.267 37.437 270.941 42.2555 268.288 46.4109C265.636 50.4779 261.923 53.6608 257.148 55.9596C255.031 56.979 252.748 57.7724 250.301 58.3398C249.669 58.4861 249.027 58.6174 248.374 58.7336L278.368 98.0001H253.7L225.772 59.4077H223.596V98.0001ZM225.366 61.8666V99.7703H201.004V2.60015H240.969C247.383 2.60015 253.1 3.83721 258.073 6.36765C263.026 8.80025 266.945 12.2381 269.781 16.6799C272.632 21.1464 274.037 26.2576 274.037 31.9554C274.037 37.7354 272.635 42.8923 269.781 47.3634L269.776 47.3707L269.771 47.378C266.926 51.7401 262.954 55.1289 257.916 57.5546C255.899 58.5257 253.751 59.2983 251.475 59.8764L281.947 99.7703H252.796L225.366 61.8666ZM288.357 99.7703V2.60015H303.3L303.811 0.333984L305.579 2.60015H305.991L306.298 3.52151L347.373 56.148V2.60015H371.735V99.7703H356.129L355.618 102.036L353.849 99.7703H353.393L353.112 98.8257L312.719 47.0721V99.7703H288.357ZM310.949 41.9267L354.713 98.0001H369.964V4.37041H349.143V61.2934L304.715 4.37041H290.127V98.0001H310.949V41.9267ZM388.92 99.7703V2.60015H406.511L438.623 52.6164L470.62 2.60015H488.345V99.7703H463.983V52.2639L446.43 79.6121H430.7L413.149 52.1166V99.7703H388.92ZM411.379 46.0528L431.67 77.8418H445.462L465.753 46.2285V98.0001H486.575V4.37041H471.589L438.626 55.8972L405.544 4.37041H390.69V98.0001H411.379V46.0528ZM505.413 99.7703V2.60015H575.529V24.0444H529.775V39.7337H571.55V60.6475H529.775V78.1935H576.192V99.7703H505.413ZM574.422 98.0001V79.9638H528.005V58.8772H569.78V41.504H528.005V22.2741H573.759V4.37041H507.184V98.0001H574.422ZM612.25 44.0238H627.103C631.258 44.0238 634.441 42.9628 636.652 40.8409C638.95 38.719 640.1 35.8455 640.1 32.2206C640.1 28.8609 638.995 26.0759 636.784 23.8655C634.574 21.6552 631.391 20.55 627.236 20.55H612.25V44.0238ZM614.02 22.3203V42.2535H627.103C630.968 42.2535 633.648 41.2704 635.426 39.5638L635.438 39.5518L635.451 39.5401C637.328 37.8075 638.329 35.4374 638.329 32.2206C638.329 29.2916 637.384 26.9692 635.532 25.1173C633.752 23.3371 631.081 22.3203 627.236 22.3203H614.02ZM612.25 98.0001H591.428V4.37041H629.623C635.812 4.37041 641.249 5.56399 645.935 7.95115C650.621 10.2499 654.29 13.477 656.943 17.6324C659.595 21.7878 660.921 26.5621 660.921 31.9554C660.921 37.437 659.595 42.2555 656.943 46.4109C654.29 50.4779 650.577 53.6608 645.802 55.9596C643.685 56.979 641.403 57.7724 638.955 58.3398C638.323 58.4861 637.681 58.6174 637.028 58.7336L667.022 98.0001H642.354L614.426 59.4077H612.25V98.0001ZM614.02 61.8666V99.7703H589.658V2.60015H629.623C636.036 2.60015 641.753 3.83708 646.726 6.36723C651.68 8.79985 655.599 12.2379 658.435 16.6799C661.286 21.1464 662.691 26.2576 662.691 31.9554C662.691 37.7354 661.289 42.8923 658.435 47.3634L658.43 47.3707L658.425 47.378C655.58 51.7401 651.608 55.1289 646.57 57.5546C644.553 58.5257 642.405 59.2983 640.129 59.8764L670.601 99.7703H641.45L614.02 61.8666ZM677.011 99.7703V2.60015H691.954L692.465 0.333984L694.233 2.60015H694.645L694.953 3.52142L736.027 56.148V2.60015H760.389V99.7703H744.783L744.272 102.036L742.503 99.7703H742.047L741.766 98.8259L701.373 47.0721V99.7703H677.011ZM699.603 41.9267L743.367 98.0001H758.618V4.37041H737.797V61.2933L693.369 4.37041H678.781V98.0001H699.603V41.9267ZM777.574 99.7703V2.60015H795.165L827.277 52.6163L859.274 2.60015H876.999V99.7703H852.637V52.264L835.084 79.6121H819.354L801.803 52.1165V99.7703H777.574ZM800.033 46.0529L820.324 77.8418H834.116L854.407 46.2285V98.0001H875.229V4.37041H860.243L827.28 55.8972L794.198 4.37041H779.344V98.0001H800.033V46.0529ZM894.067 99.7703V2.60015H964.183V24.0444H918.429V39.7337H960.204V60.6475H918.429V78.1935H964.846V99.7703H894.067ZM963.076 98.0001V79.9638H916.659V58.8772H958.434V41.504H916.659V22.2741H962.413V4.37041H895.838V98.0001H963.076ZM1000.9 44.0238H1015.76C1019.91 44.0238 1023.1 42.9628 1025.31 40.8409C1027.6 38.719 1028.75 35.8455 1028.75 32.2206C1028.75 28.8609 1027.65 26.0759 1025.44 23.8655C1023.23 21.6552 1020.05 20.55 1015.89 20.55H1000.9V44.0238ZM1002.67 22.3203V42.2535H1015.76C1019.62 42.2535 1022.3 41.2704 1024.08 39.5638L1024.09 39.5518L1024.1 39.5401C1025.98 37.8075 1026.98 35.4374 1026.98 32.2206C1026.98 29.2916 1026.04 26.9692 1024.19 25.1173C1022.41 23.3371 1019.74 22.3203 1015.89 22.3203H1002.67ZM1000.9 98.0001H980.082V4.37041H1018.28C1024.47 4.37041 1029.9 5.56399 1034.59 7.95115C1039.28 10.2499 1042.94 13.477 1045.6 17.6324C1048.25 21.7878 1049.58 26.5621 1049.58 31.9554C1049.58 37.437 1048.25 42.2555 1045.6 46.4109C1042.94 50.4779 1039.23 53.6608 1034.46 55.9596C1032.34 56.979 1030.06 57.7724 1027.61 58.3398C1026.98 58.4861 1026.34 58.6174 1025.68 58.7336L1055.68 98.0001H1031.01L1003.08 59.4077H1000.9V98.0001ZM1002.67 61.8666V99.7703H978.312V2.60015H1018.28C1024.69 2.60015 1030.41 3.83735 1035.38 6.36806C1040.33 8.80064 1044.25 12.2384 1047.09 16.6799C1049.94 21.1464 1051.35 26.2576 1051.35 31.9554C1051.35 37.7354 1049.94 42.8923 1047.09 47.3634L1047.08 47.3707L1047.08 47.378C1044.23 51.7401 1040.26 55.1289 1035.22 57.5546C1033.21 58.5257 1031.06 59.2984 1028.78 59.8764L1059.26 99.7703H1030.1L1002.67 61.8666ZM1065.67 99.7703V2.60015H1080.61L1081.12 0.333984L1082.89 2.60015H1083.3L1083.61 3.52159L1124.68 56.1481V2.60015H1149.04V99.7703H1133.44L1132.93 102.036L1131.16 99.7703H1130.7L1130.42 98.8258L1090.03 47.072V99.7703H1065.67ZM1088.26 41.9267L1132.02 98.0001H1147.27V4.37041H1126.45V61.2934L1082.02 4.37041H1067.44V98.0001H1088.26V41.9267ZM1166.23 99.7703V2.60015H1183.82L1215.93 52.6163L1247.93 2.60015H1265.65V99.7703H1241.29V52.2639L1223.74 79.6121H1208.01L1190.46 52.1166V99.7703H1166.23ZM1188.69 46.053L1208.98 77.8418H1222.77L1243.06 46.2285V98.0001H1263.88V4.37041H1248.9L1215.93 55.8972L1182.85 4.37041H1168V98.0001H1188.69V46.053ZM1282.72 99.7703V2.60015H1352.84V24.0444H1307.08V39.7337H1348.86V60.6475H1307.08V78.1935H1353.5V99.7703H1282.72ZM1351.73 98.0001V79.9638H1305.31V58.8772H1347.09V41.504H1305.31V22.2741H1351.07V4.37041H1284.49V98.0001H1351.73ZM1389.56 44.0238H1404.41C1408.57 44.0238 1411.75 42.9628 1413.96 40.8409C1416.26 38.719 1417.41 35.8455 1417.41 32.2206C1417.41 28.8609 1416.3 26.0759 1414.09 23.8655C1411.88 21.6552 1408.7 20.55 1404.54 20.55H1389.56V44.0238ZM1391.33 22.3203V42.2535H1404.41C1408.28 42.2535 1410.96 41.2704 1412.73 39.5638L1412.75 39.5518L1412.76 39.5401C1414.64 37.8075 1415.64 35.4374 1415.64 32.2206C1415.64 29.2916 1414.69 26.9692 1412.84 25.1173C1411.06 23.3371 1408.39 22.3203 1404.54 22.3203H1391.33ZM1389.56 98.0001H1368.74V4.37041H1406.93C1413.12 4.37041 1418.56 5.56399 1423.24 7.95115C1427.93 10.2499 1431.6 13.477 1434.25 17.6324C1436.9 21.7878 1438.23 26.5621 1438.23 31.9554C1438.23 37.437 1436.9 42.2555 1434.25 46.4109C1431.6 50.4779 1427.88 53.6608 1423.11 55.9596C1420.99 56.979 1418.71 57.7724 1416.26 58.3398C1415.63 58.4861 1414.99 58.6174 1414.34 58.7336L1444.33 98.0001H1419.66L1391.73 59.4077H1389.56V98.0001ZM1391.33 61.8665V99.7703H1366.97V2.60015H1406.93C1413.35 2.60015 1419.06 3.83735 1424.04 6.36807C1428.99 8.80064 1432.91 12.2384 1435.74 16.6799C1438.59 21.1464 1440 26.2576 1440 31.9554C1440 37.7354 1438.6 42.8923 1435.74 47.3634L1435.74 47.3707L1435.73 47.378C1432.89 51.7401 1428.92 55.1289 1423.88 57.5546C1421.86 58.5257 1419.71 59.2983 1417.44 59.8764L1447.91 99.7703H1418.76L1391.33 61.8665ZM1454.32 99.7703V2.60015H1469.26L1469.77 0.333984L1471.54 2.60015H1471.95L1472.26 3.52159L1513.33 56.1481V2.60015H1537.7V99.7703H1522.09L1521.58 102.036L1519.81 99.7703H1519.36L1519.07 98.8258L1478.68 47.072V99.7703H1454.32ZM1476.91 41.9267L1520.68 98.0001H1535.93V4.37041H1515.11V61.2934L1470.68 4.37041H1456.09V98.0001H1476.91V41.9267Z" fill="#F2B125"/>
</svg>
