<svg width="71" height="71" viewBox="0 0 71 71" fill="none" xmlns="http://www.w3.org/2000/svg">
<g clip-path="url(#clip0_2_127)">
<path d="M0 8.6365C0.64426 7.77193 1.27001 6.89441 1.93649 6.04465C3.29412 4.31675 4.66101 2.60304 6.03715 0.903531C6.89432 -0.160979 7.88848 -0.164681 8.74194 0.903531C10.5562 3.14733 12.3816 5.38003 14.1552 7.6553C14.4847 8.07926 14.7624 8.67908 14.7587 9.1956C14.7587 9.92502 14.0349 10.3841 13.161 10.4304C12.75 10.4526 12.3372 10.4304 11.8485 10.4304V30.4247C11.8485 32.1612 11.4078 32.6037 9.68426 32.6037H4.9745C3.45086 32.6037 2.92694 32.0872 2.92508 30.5839V10.4378C1.74209 10.4378 0.50541 10.61 0 9.1919V8.6365ZM4.60794 7.39611C5.75946 7.72009 5.9557 8.50691 5.952 9.46959C5.93719 15.8875 5.93719 22.3054 5.952 28.7233V29.5194H8.87894V28.6493C8.87894 22.3215 8.8919 15.9936 8.86598 9.66583C8.86598 8.62539 8.94003 7.71639 10.1767 7.38686L7.39973 3.91934L4.60794 7.39611Z" fill="#E49B00"/>
<path d="M61.5434 70.9999C60.4586 70.3279 60.54 69.2467 60.5956 68.0749H49.3025C47.7992 68.0749 47.2846 67.5491 47.2827 66.0254C47.2827 64.3852 47.2827 62.7455 47.2827 61.1065C47.2827 59.668 47.7937 59.157 49.2562 59.1552C52.7441 59.1552 56.2314 59.1552 59.718 59.1552H60.59C60.59 58.6368 60.5808 58.1999 60.59 57.7648C60.581 57.4741 60.656 57.1868 60.806 56.9376C60.9561 56.6884 61.1748 56.4877 61.4361 56.3597C61.6916 56.2187 61.9847 56.1607 62.2746 56.1939C62.5646 56.2271 62.837 56.3497 63.0541 56.5448C65.4368 58.4443 67.8028 60.3641 70.1928 62.2543C71.2647 63.104 71.2295 64.1241 70.1928 64.9443C67.6658 66.9455 65.1609 68.9764 62.6487 70.9962L61.5434 70.9999ZM50.3281 65.0553H51.1557C54.5454 65.0553 57.9352 65.072 61.325 65.0553C62.3617 65.0553 63.2855 65.1386 63.6243 66.3957L67.0993 63.6187L63.6299 60.8417C63.2966 62.0007 62.4691 62.158 61.4564 62.1377C57.9981 62.1025 54.538 62.1247 51.089 62.1247H50.3374L50.3281 65.0553Z" fill="#E49B00"/>
<path d="M41.453 50.3837V53.2088C42.8378 53.3939 43.8393 54.04 44.2429 55.4174C44.3166 55.6826 44.3527 55.9568 44.3503 56.232C44.3577 59.1645 44.3577 62.097 44.3503 65.0295C44.3503 66.766 43.0969 68.0453 41.3456 68.0694C39.5443 68.0934 37.7429 68.0694 35.9416 68.0694H6.43154C4.10443 68.0694 2.92699 66.9012 2.92514 64.5944C2.92514 61.9384 2.92514 59.2848 2.92514 56.6337C2.92514 54.638 3.86006 53.5272 5.84467 53.2107V50.3837C5.56142 50.3152 5.2652 50.2652 4.9838 50.1745C4.38635 49.9757 3.86665 49.5939 3.49845 49.0831C3.13025 48.5724 2.93225 47.9586 2.93255 47.329C2.91403 44.3669 2.90663 41.4177 2.93255 38.463C2.94921 36.758 4.25069 35.5194 5.9539 35.5176C17.7542 35.5176 29.5552 35.5176 41.3567 35.5176C43.1025 35.5176 44.3466 36.7783 44.3503 38.5408C44.3503 41.2659 44.2818 43.9911 44.3725 46.7144C44.4558 48.8638 43.3765 50.0727 41.453 50.3837ZM41.316 47.2901V38.5389H5.98907V47.2901H41.316ZM41.3382 56.2894H6.00019V65.0239H41.3382V56.2894ZM38.3761 50.3874H8.92342V53.2144H38.3798L38.3761 50.3874Z" fill="#E49B00"/>
<path d="M17.78 16.2788C18.2632 16.2788 18.7483 16.2547 19.2315 16.2788C20.1072 16.3362 20.7125 16.9767 20.6977 17.8005C20.7017 18.1878 20.5523 18.561 20.282 18.8385C20.0118 19.116 19.6428 19.2753 19.2555 19.2816C18.2447 19.3242 17.2302 19.326 16.2175 19.2816C15.8322 19.2724 15.466 19.1118 15.1982 18.8346C14.9304 18.5574 14.7825 18.186 14.7865 17.8005C14.7865 16.9786 15.3844 16.3399 16.2675 16.288C16.7655 16.2547 17.2746 16.2788 17.78 16.2788Z" fill="#E49B00"/>
<path d="M51.7204 35.4806C51.7204 34.9974 51.6963 34.5124 51.7204 34.0311C51.722 33.8339 51.7627 33.6391 51.8401 33.4577C51.9174 33.2764 52.0299 33.1121 52.171 32.9744C52.3121 32.8368 52.4791 32.7284 52.6623 32.6555C52.8455 32.5827 53.0413 32.5468 53.2384 32.55C53.6248 32.547 53.9969 32.6962 54.274 32.9655C54.5512 33.2347 54.7112 33.6022 54.7195 33.9885C54.7621 34.9993 54.7621 36.0138 54.7195 37.0246C54.7122 37.4111 54.5524 37.779 54.275 38.0481C53.9975 38.3172 53.6249 38.4657 53.2384 38.4613C53.0412 38.4647 52.8453 38.429 52.662 38.3562C52.4787 38.2835 52.3116 38.1751 52.1705 38.0374C52.0293 37.8997 51.9168 37.7353 51.8396 37.5539C51.7623 37.3724 51.7218 37.1774 51.7204 36.9802C51.6963 36.5026 51.7204 35.9953 51.7204 35.4806Z" fill="#E49B00"/>
<path d="M54.7343 44.428C54.7343 44.889 54.7528 45.3537 54.7343 45.8091C54.6917 46.7348 54.0586 47.3568 53.2107 47.3475C53.014 47.3476 52.8192 47.3084 52.6378 47.2324C52.4564 47.1563 52.292 47.0449 52.1541 46.9046C52.0162 46.7643 51.9077 46.598 51.8348 46.4153C51.7619 46.2326 51.7262 46.0372 51.7296 45.8406C51.6981 44.8742 51.6981 43.906 51.7296 42.9414C51.7264 42.7449 51.7623 42.5497 51.8353 42.3672C51.9083 42.1848 52.0169 42.0186 52.1548 41.8785C52.2926 41.7385 52.457 41.6272 52.6383 41.5513C52.8195 41.4753 53.0141 41.4363 53.2107 41.4363C54.0586 41.4363 54.6917 42.0565 54.7306 42.9784C54.7528 43.4598 54.7343 43.9448 54.7343 44.428Z" fill="#E49B00"/>
<path d="M44.3262 19.2907C43.8411 19.2907 43.3561 19.3148 42.8747 19.2907C41.9991 19.2352 41.3937 18.5984 41.3937 17.7764C41.3937 17.5801 41.4326 17.3859 41.5083 17.2048C41.584 17.0238 41.695 16.8596 41.8347 16.7218C41.9743 16.584 42.14 16.4754 42.3221 16.4021C42.5041 16.3289 42.6989 16.2926 42.8951 16.2953C43.8615 16.2632 44.8285 16.2632 45.7961 16.2953C46.6811 16.3249 47.2938 16.9525 47.305 17.7764C47.3161 18.628 46.6922 19.2574 45.7702 19.3037C45.2926 19.3111 44.8094 19.2926 44.3262 19.2907Z" fill="#E49B00"/>
<path d="M54.7343 53.2366C54.7343 53.7198 54.7528 54.2048 54.7343 54.6862C54.6899 55.6118 54.0512 56.232 53.2014 56.2172C52.385 56.2024 51.7574 55.5859 51.7204 54.701C51.6907 53.7346 51.6889 52.7664 51.7204 51.8018C51.7184 51.6052 51.7556 51.41 51.8299 51.2279C51.9041 51.0458 52.0139 50.8803 52.1528 50.741C52.2917 50.6018 52.4569 50.4916 52.6389 50.4169C52.8208 50.3422 53.0159 50.3045 53.2125 50.306C54.0327 50.306 54.6677 50.9095 54.7195 51.787C54.7565 52.2684 54.7325 52.7534 54.7343 53.2366Z" fill="#E49B00"/>
<path d="M35.5028 19.2907C35.0196 19.2907 34.5364 19.3111 34.0532 19.2907C33.1386 19.2463 32.511 18.6039 32.5277 17.756C32.5443 16.9377 33.1608 16.3138 34.0495 16.2879C35.0159 16.2601 35.9841 16.2564 36.9486 16.2879C37.1444 16.2879 37.3382 16.3266 37.5188 16.402C37.6995 16.4774 37.8635 16.5878 38.0012 16.7269C38.1389 16.866 38.2477 17.031 38.3212 17.2124C38.3948 17.3938 38.4316 17.588 38.4297 17.7837C38.4297 18.6057 37.8261 19.2352 36.9486 19.287C36.471 19.3129 35.9878 19.2907 35.5028 19.2907Z" fill="#E49B00"/>
<path d="M26.6257 19.2907C26.1426 19.2907 25.6575 19.3111 25.1762 19.2907C24.2616 19.2444 23.6359 18.5965 23.6562 17.7485C23.6766 16.9321 24.2968 16.3138 25.1854 16.2879C26.15 16.2601 27.1201 16.2564 28.0846 16.2879C28.281 16.2878 28.4754 16.3269 28.6566 16.4027C28.8377 16.4785 29.002 16.5896 29.1398 16.7295C29.2776 16.8694 29.3863 17.0353 29.4594 17.2175C29.5325 17.3998 29.5686 17.5948 29.5656 17.7911C29.5656 18.6131 28.9566 19.237 28.0735 19.287C27.594 19.3129 27.1089 19.2907 26.6257 19.2907Z" fill="#E49B00"/>
<path d="M54.7343 26.6349C54.7343 27.12 54.7528 27.6032 54.7343 28.0864C54.688 29.012 54.0456 29.6267 53.1959 29.6082C52.3776 29.5915 51.7556 28.975 51.7296 28.0864C51.7019 27.12 51.6982 26.1517 51.7296 25.1872C51.7296 24.9913 51.7685 24.7973 51.8439 24.6166C51.9194 24.4358 52.03 24.2717 52.1693 24.134C52.3086 23.9962 52.4738 23.8875 52.6555 23.8141C52.8371 23.7406 53.0315 23.7039 53.2273 23.7061C54.0475 23.7061 54.6788 24.3134 54.7288 25.1872C54.7565 25.6685 54.7325 26.1517 54.7343 26.6349Z" fill="#E49B00"/>
<path d="M16.2527 0.0481433C16.7822 0.0481433 17.3135 0.0296301 17.8411 0.0481433C18.2015 0.0670442 18.5426 0.216861 18.8003 0.469459C19.058 0.722057 19.2146 1.06006 19.2407 1.41998C19.3018 2.12533 18.7631 2.90103 18.0318 2.94361C16.8605 3.01596 15.6857 3.01596 14.5143 2.94361C13.7257 2.89548 13.2443 2.17531 13.3073 1.36999C13.3371 1.01168 13.4992 0.677296 13.762 0.431933C14.0249 0.18657 14.3696 0.047791 14.7291 0.0425952C15.2382 0.0333386 15.7454 0.0481433 16.2527 0.0481433Z" fill="#E49B00"/>
<path d="M25.1705 0.0481497C25.6537 0.0481497 26.1369 0.0370418 26.6201 0.0481497C27.0041 0.0485813 27.3732 0.196275 27.6515 0.460799C27.9298 0.725322 28.0961 1.08652 28.116 1.46996C28.132 1.84286 28.0029 2.20746 27.7557 2.48712C27.5085 2.76677 27.1625 2.9397 26.7904 2.96954C25.6879 3.03063 24.5828 3.03063 23.4803 2.96954C22.6342 2.91955 22.1269 2.22901 22.1843 1.40146C22.2094 1.03055 22.3759 0.68341 22.6494 0.431612C22.9229 0.179814 23.2826 0.0425603 23.6543 0.0481497C24.156 0.0370418 24.6633 0.0481497 25.1705 0.0481497Z" fill="#E49B00"/>
<path d="M34.0217 0.0480864C34.5271 0.0480864 35.0344 0.0332758 35.5416 0.0480864C35.9143 0.0568468 36.2699 0.205803 36.5376 0.465232C36.8053 0.724662 36.9653 1.07548 36.9857 1.44768C37.0084 1.8206 36.8847 2.18765 36.6409 2.4708C36.3972 2.75395 36.0526 2.93086 35.6805 2.96392C34.5552 3.02871 33.4271 3.02871 32.3018 2.96392C31.4984 2.91393 31.0059 2.22339 31.0522 1.42547C31.0699 1.05386 31.2307 0.703514 31.5009 0.447797C31.7711 0.19208 32.1298 0.0508344 32.5018 0.0536458C33.0072 0.0351326 33.5145 0.0480864 34.0217 0.0480864Z" fill="#E49B00"/>
<path d="M42.8636 0.0481433C43.3949 0.0481433 43.9244 0.0296301 44.4539 0.0481433C44.8143 0.0665586 45.1555 0.215924 45.4136 0.468182C45.6716 0.72044 45.8287 1.05824 45.8553 1.41813C45.9164 2.12163 45.3777 2.89918 44.6483 2.94361C43.4769 3.01589 42.3021 3.01589 41.1307 2.94361C40.3421 2.89548 39.8607 2.17717 39.9218 1.37184C39.9512 1.01352 40.1129 0.678935 40.3753 0.433232C40.6378 0.18753 40.9823 0.0482891 41.3418 0.0425952C41.8509 0.0333386 42.3582 0.0481433 42.8636 0.0481433Z" fill="#E49B00"/>
<path d="M51.7463 0.0482401C52.2535 0.0482401 52.7608 0.0352809 53.2662 0.0482401C53.639 0.0525497 53.9966 0.197344 54.2673 0.453702C54.5381 0.710061 54.7022 1.05912 54.7269 1.43118C54.7824 2.17171 54.2196 2.91224 53.431 2.96038C52.3057 3.02517 51.1776 3.02517 50.0523 2.96038C49.2433 2.91409 48.7564 2.23835 48.7841 1.43673C48.7984 1.06537 48.9553 0.71382 49.2222 0.455205C49.4891 0.19659 49.8454 0.0508242 50.2171 0.0482401C50.7336 0.0352809 51.2408 0.0482401 51.7463 0.0482401Z" fill="#E49B00"/>
<path d="M60.5993 0.048023C61.1288 0.048023 61.6583 0.0295098 62.1878 0.048023C62.5601 0.0650615 62.9123 0.221857 63.1741 0.487113C63.4359 0.752369 63.5881 1.10659 63.6003 1.4791C63.6262 2.19371 63.0782 2.91388 62.3303 2.96016C61.1822 3.02773 60.0312 3.02773 58.8831 2.96016C58.0908 2.91202 57.6076 2.19926 57.6668 1.39579C57.6935 1.03691 57.853 0.700854 58.1142 0.453327C58.3754 0.2058 58.7196 0.0645832 59.0794 0.0572774C59.5848 0.0332102 60.092 0.048023 60.5993 0.048023Z" fill="#E49B00"/>
<path d="M70.9667 10.4008C70.9667 10.908 70.9815 11.4153 70.9667 11.9207C70.9617 12.2923 70.814 12.6478 70.5541 12.9135C70.2943 13.1792 69.9422 13.3348 69.5708 13.3481C68.7692 13.3795 68.0897 12.8815 68.0508 12.0706C67.987 10.9459 67.987 9.81853 68.0508 8.69383C68.0953 7.91628 68.8525 7.35532 69.5874 7.41641C69.9584 7.44542 70.3052 7.61179 70.5599 7.88297C70.8147 8.15416 70.959 8.51064 70.9648 8.88267C70.9815 9.38808 70.9667 9.89534 70.9667 10.4008Z" fill="#E49B00"/>
<path d="M70.9667 28.1714C70.9667 28.6787 70.9852 29.1859 70.9667 29.6914C70.9536 30.0506 70.8075 30.3922 70.5568 30.6498C70.306 30.9075 69.9684 31.0627 69.6096 31.0854C68.808 31.1354 68.1082 30.6448 68.0601 29.8469C67.9944 28.6988 67.9944 27.5478 68.0601 26.3997C68.1027 25.6592 68.8413 25.1149 69.5541 25.1519C69.9264 25.169 70.2786 25.3258 70.5405 25.591C70.8023 25.8563 70.9545 26.2105 70.9667 26.583C70.9833 27.1125 70.9667 27.642 70.9667 28.1714Z" fill="#E49B00"/>
<path d="M70.9667 37.0394C70.9667 37.5466 70.9833 38.0539 70.9667 38.5593C70.9545 38.9186 70.8089 39.2604 70.5584 39.5181C70.3078 39.7759 69.9703 39.931 69.6115 39.9534C68.8099 40.0052 68.1082 39.5128 68.0601 38.7185C67.9944 37.5704 67.9944 36.4195 68.0601 35.2714C68.1027 34.5309 68.8395 33.9755 69.5523 34.0217C69.9233 34.0432 70.2733 34.201 70.535 34.4648C70.7968 34.7286 70.9518 35.0798 70.9704 35.451C70.9704 35.4972 70.9704 35.5435 70.9704 35.588C70.9691 36.073 70.9679 36.5568 70.9667 37.0394Z" fill="#E49B00"/>
<path d="M70.9666 19.2462C70.9666 19.7516 70.9796 20.2589 70.9666 20.7643C70.9676 21.1363 70.8256 21.4944 70.5699 21.7646C70.3142 22.0347 69.9644 22.1963 69.593 22.2158C68.7673 22.262 68.0878 21.7437 68.0415 20.8976C67.9805 19.7951 67.9805 18.69 68.0415 17.5874C68.0773 17.2168 68.2556 16.8746 68.5388 16.6328C68.822 16.3911 69.188 16.2687 69.5596 16.2915C69.9315 16.3119 70.2821 16.4716 70.5415 16.7389C70.8008 17.0062 70.95 17.3614 70.9592 17.7337C70.9833 18.2317 70.9666 18.739 70.9666 19.2462Z" fill="#E49B00"/>
<path d="M70.9667 45.8905C70.9667 46.3737 70.9778 46.8569 70.9667 47.3401C70.9445 48.1861 70.3576 48.7971 69.5578 48.8211C68.7581 48.8452 68.0768 48.3268 68.0342 47.466C67.9768 46.3855 67.9768 45.3028 68.0342 44.2224C68.0621 43.852 68.2315 43.5066 68.5073 43.2577C68.783 43.0089 69.1439 42.8757 69.5153 42.8858C69.8984 42.9023 70.2607 43.0651 70.5276 43.3406C70.7945 43.6161 70.9456 43.9833 70.95 44.3668C70.9796 44.876 70.9667 45.3832 70.9667 45.8905Z" fill="#E49B00"/>
<path d="M70.9667 54.7178C70.9667 55.2472 70.9852 55.7767 70.9667 56.3062C70.9521 56.6655 70.8043 57.0065 70.5521 57.2628C70.2999 57.5192 69.9613 57.6724 69.6023 57.6928C68.8006 57.741 68.1064 57.2485 68.0601 56.4487C67.9935 55.3007 67.9935 54.1497 68.0601 53.0016C68.1027 52.2611 68.8469 51.7205 69.5597 51.7612C69.9316 51.7801 70.2828 51.9385 70.5432 52.2047C70.8036 52.471 70.9541 52.8255 70.9648 53.1978C70.9833 53.7032 70.9667 54.2105 70.9667 54.7178Z" fill="#E49B00"/>
<path d="M52.5386 16.2804C54.29 16.2804 54.738 16.7247 54.7343 18.489C54.7517 18.834 54.7375 19.1798 54.6917 19.5221C54.6376 19.8435 54.4769 20.1374 54.2354 20.3564C53.9939 20.5753 53.6858 20.7066 53.3606 20.7292C52.6645 20.7884 52.1424 20.4385 51.8277 19.785C51.7085 19.5366 51.5142 19.3319 51.2723 19.2C50.5466 18.8575 50.1893 18.315 50.2911 17.5634C50.3385 17.2174 50.5066 16.8993 50.7657 16.6652C51.0249 16.4312 51.3584 16.2962 51.7074 16.2841C51.9832 16.2619 52.2628 16.2804 52.5386 16.2804Z" fill="#E49B00"/>
<path d="M68.7506 0C69.182 0.051837 69.6393 0.025923 70.0466 0.166623C70.7704 0.423957 71.0278 1.02009 70.9722 1.76802C70.9093 2.71775 71.2777 3.82113 70.0651 4.35987C69.2579 4.73013 68.41 4.30618 68.0583 3.43421C67.9666 3.22421 67.8013 3.05498 67.5936 2.95842C66.8197 2.64184 66.4069 1.99018 66.5513 1.22188C66.679 0.542444 67.2918 0.0629544 68.0545 0.0444412C68.2841 0.0444412 68.5155 0.0444412 68.7469 0.0444412L68.7506 0Z" fill="#E49B00"/>
<path d="M11.8447 44.3909C11.3393 44.3909 10.8321 44.4039 10.3248 44.3909C9.9537 44.3911 9.59659 44.2492 9.32671 43.9945C9.05684 43.7398 8.89464 43.3914 8.87336 43.0209C8.82708 42.1897 9.34175 41.514 10.1915 41.4677C11.294 41.4066 12.3991 41.4066 13.5017 41.4677C13.8735 41.5007 14.2178 41.6774 14.4614 41.9601C14.7051 42.2429 14.829 42.6095 14.8068 42.9821C14.7849 43.3537 14.6247 43.7038 14.3579 43.9634C14.0911 44.223 13.7368 44.3735 13.3647 44.3854C12.8593 44.4057 12.352 44.3909 11.8447 44.3909Z" fill="#E49B00"/>
<path d="M36.9728 41.4362C37.2657 41.4362 37.5521 41.523 37.7956 41.6858C38.0392 41.8485 38.229 42.0798 38.3411 42.3505C38.4532 42.6211 38.4825 42.9189 38.4254 43.2062C38.3682 43.4935 38.2272 43.7574 38.02 43.9645C37.8129 44.1716 37.549 44.3127 37.2617 44.3698C36.9744 44.427 36.6766 44.3977 36.406 44.2856C36.1354 44.1735 35.9041 43.9836 35.7413 43.7401C35.5786 43.4965 35.4917 43.2102 35.4917 42.9172C35.489 42.722 35.5254 42.5282 35.5989 42.3472C35.6723 42.1663 35.7813 42.0019 35.9194 41.8639C36.0575 41.7258 36.2219 41.6168 36.4028 41.5433C36.5837 41.4699 36.7775 41.4334 36.9728 41.4362Z" fill="#E49B00"/>
<path d="M11.8151 62.1284C11.3097 62.1284 10.8024 62.1432 10.2952 62.1284C9.92405 62.1215 9.56971 61.9725 9.30519 61.7121C9.04066 61.4517 8.8861 61.0998 8.87336 60.7288C8.84189 59.9253 9.33805 59.2588 10.1526 59.2144C11.2779 59.1505 12.406 59.1505 13.5313 59.2144C14.307 59.2607 14.8698 60.0198 14.805 60.7529C14.7742 61.1235 14.6067 61.4694 14.335 61.7233C14.0633 61.9772 13.7069 62.1209 13.3351 62.1266C12.8296 62.1395 12.3224 62.1284 11.8151 62.1284Z" fill="#E49B00"/>
<path d="M38.4408 60.6419C38.443 60.9341 38.3586 61.2205 38.1983 61.4649C38.038 61.7093 37.809 61.9009 37.5401 62.0154C37.2712 62.1299 36.9744 62.1623 36.6871 62.1085C36.3998 62.0547 36.1349 61.917 35.9257 61.7129C35.7164 61.5089 35.5723 61.2474 35.5113 60.9616C35.4504 60.6757 35.4754 60.3782 35.5832 60.1065C35.691 59.8348 35.8767 59.6011 36.1171 59.4348C36.3574 59.2685 36.6416 59.177 36.9339 59.1719C37.1306 59.1646 37.3268 59.1974 37.5104 59.2682C37.6941 59.339 37.8615 59.4464 38.0024 59.5839C38.1433 59.7213 38.2549 59.886 38.3302 60.0679C38.4056 60.2497 38.4432 60.445 38.4408 60.6419Z" fill="#E49B00"/>
</g>
<defs>
<clipPath id="clip0_2_127">
<rect width="70.9852" height="71" fill="white"/>
</clipPath>
</defs>
</svg>
