<svg width="109" height="108" viewBox="0 0 109 108" fill="none" xmlns="http://www.w3.org/2000/svg">
<path fill-rule="evenodd" clip-rule="evenodd" d="M24.1646 1.06573C24.1504 1.10512 24.1128 1.2233 24.081 1.32834C23.9553 1.74427 23.6758 2.08375 22.2441 3.55953C19.4826 6.40608 18.5889 7.49324 17.4735 9.36279C17.0979 9.99234 16.4333 11.2965 16.1439 11.9718C15.0834 14.446 14.38 17.4359 13.9682 21.2197C13.8276 22.5119 13.8157 24.3979 13.9418 25.4169C14.3549 28.7558 15.1286 31.5241 16.2806 33.7856C17.4984 36.1761 19.6978 38.8367 22.3234 41.0953C22.6597 41.3846 22.7618 41.4498 22.7926 41.3951C22.8708 41.2565 23.2207 39.7841 23.3362 39.1081C23.4011 38.728 23.5005 38.0113 23.5571 37.5155C23.6622 36.5945 23.7128 36.4132 23.9013 36.2823C24.0748 36.1617 24.4342 36.1854 24.6059 36.3287C24.784 36.4775 24.8243 36.6035 24.9255 37.3298C25.0904 38.5124 25.3878 39.7509 25.6262 40.2475C25.7575 40.5211 25.9423 40.721 26.3422 41.0219C26.4233 41.083 26.4897 41.1636 26.4897 41.201C26.4897 41.2384 26.5093 41.269 26.5333 41.269C26.6887 41.269 28.6079 39.3706 29.3836 38.4496C33.3275 33.7672 35.2747 28.3639 35.0066 22.8467C34.7646 17.8661 33.129 13.1571 30.1116 8.75305C28.9543 7.06414 28.0026 5.92269 26.3689 4.2648C25.0543 2.93065 24.6734 2.39306 24.3223 1.37609C24.2488 1.16309 24.179 1.02577 24.1646 1.06573ZM22.3074 35.5393C22.1448 35.8969 22.0909 36.1516 22.01 36.9471L21.9518 37.5193L21.6427 37.1858C19.5535 34.9317 18.2727 32.8505 17.4264 30.3349C16.7304 28.2659 16.1738 25.1559 16.1786 23.3637C16.1837 21.478 16.6484 18.1858 17.2334 15.8913C17.6666 14.1921 18.1171 12.9601 18.8396 11.4985C19.7124 9.73297 20.6421 8.38841 22.1342 6.73382L22.4229 6.41363L22.4357 20.8213L22.4485 35.229L22.3074 35.5393ZM24.2115 37.115C24.1951 37.2332 24.148 37.6092 24.1069 37.9506C23.9488 39.2626 23.7236 40.3884 23.3923 41.5223L23.2746 41.9251L23.4095 42.3032C23.7086 43.1419 23.8506 44.1531 23.9486 46.1435L24.0064 47.3176L24.5859 47.4888C24.9045 47.5831 25.1714 47.6541 25.1789 47.6466C25.1864 47.6392 25.2139 46.9908 25.24 46.2057C25.3145 43.9646 25.4118 42.7526 25.5558 42.2712C25.5989 42.1271 25.6989 41.8822 25.7777 41.727C25.9135 41.4601 25.9165 41.4424 25.8325 41.3981C25.6522 41.3029 25.2579 40.8545 25.1089 40.5753C24.8533 40.0962 24.5797 39.0145 24.3483 37.5686C24.2528 36.9717 24.2381 36.9231 24.2115 37.115Z" fill="white"/>
<path fill-rule="evenodd" clip-rule="evenodd" d="M82.4357 3.21955C79.695 3.48747 77.4771 4.10085 75.2194 5.21528C73.0095 6.30611 71.3029 7.56355 69.4351 9.47738C65.5361 13.4723 63.6314 18.1316 63.6192 23.7038C63.6139 26.1619 63.856 27.9425 64.4712 29.9705C65.3972 33.0233 67.0496 35.7506 69.4797 38.2371C72.8596 41.6955 76.4718 43.5777 81.1236 44.3044C82.5399 44.5256 85.999 44.5262 87.4215 44.3054C92.0536 43.5865 95.7187 41.6742 99.0767 38.2244C102.378 34.8322 104.227 31.0605 104.781 26.5827C104.958 25.1562 104.957 22.3995 104.779 21.034C104.207 16.6366 102.353 12.8159 99.2313 9.59696C97.9427 8.26837 96.9707 7.44554 95.5949 6.51861C92.9088 4.7089 89.7411 3.58205 86.4222 3.25565C85.5461 3.16946 83.1682 3.14796 82.4357 3.21955ZM77.2772 15.8376C78.3253 15.9625 79.118 16.2353 79.8824 16.734C81.6908 17.9137 82.7488 19.715 83.1807 22.3489C83.2516 22.7816 83.3099 23.4405 83.31 23.8131L83.3104 24.4905H77.5261H71.7418L71.8034 25.1969C71.9934 27.3738 72.9833 28.7579 74.8081 29.3982C75.4467 29.6222 76.7871 29.7051 77.5696 29.5689C78.8689 29.3427 80.055 28.4402 80.3949 27.4189L80.5694 26.8944L81.8087 26.8702C82.8332 26.8501 83.048 26.8675 83.048 26.9702C83.048 27.2372 82.6698 28.3172 82.4164 28.7738C81.1995 30.9668 78.532 32.156 75.5498 31.8352C75.0508 31.7815 74.3786 31.6568 74.0562 31.5581C71.9738 30.9208 70.3964 29.3684 69.661 27.2321C69.1122 25.6381 68.9555 23.2515 69.2992 21.722C70.1015 18.1519 72.7355 15.8855 76.2276 15.7602C76.3973 15.7542 76.8696 15.789 77.2772 15.8376ZM98.6694 15.891C98.6394 15.9689 97.4116 17.64 95.9407 19.6046C94.4699 21.5693 93.2798 23.2105 93.2961 23.252C93.3124 23.2934 94.6936 25.2344 96.3653 27.5653C98.037 29.8962 99.4049 31.8305 99.4049 31.8638C99.4049 31.8971 98.6508 31.9137 97.729 31.9007L96.0532 31.8769L93.8585 28.6178C92.6514 26.8253 91.6244 25.3666 91.5763 25.3762C91.5282 25.3859 90.5048 26.8524 89.3021 28.6353L87.1153 31.8769L85.519 31.9008C84.641 31.9138 83.9227 31.9063 83.9227 31.884C83.9227 31.8616 85.243 29.9912 86.8566 27.7274C88.4702 25.4636 89.8118 23.5562 89.8377 23.4887C89.8741 23.3937 86.5216 18.7183 84.5544 16.1207L84.3393 15.8366H86.0501H87.761L89.3597 18.1749C90.2391 19.461 91.1008 20.7169 91.2747 20.9658L91.5909 21.4186L93.5762 18.6295L95.5614 15.8406L97.1114 15.8146C97.9639 15.8003 98.6755 15.7797 98.6926 15.7689C98.7097 15.758 98.6993 15.813 98.6694 15.891ZM75.2203 18.1189C74.5005 18.2656 73.689 18.707 73.1517 19.244C72.4656 19.9295 71.9036 21.1056 71.8349 21.9992L71.8081 22.3489L76.2035 22.3715L80.5988 22.3942V22.1932C80.5988 21.8394 80.3405 20.9665 80.0734 20.4178C79.592 19.4288 78.7621 18.6944 77.6686 18.2896C77.0586 18.0638 75.89 17.9823 75.2203 18.1189Z" fill="white"/>
<path fill-rule="evenodd" clip-rule="evenodd" d="M82.6409 63.6623C81.8951 63.9411 75.65 67.6092 75.7226 67.7258C75.767 67.7972 75.7427 67.8122 75.6625 67.7629C75.5346 67.6844 67.6006 72.155 66.7937 72.7603C66.5919 72.9115 66.2716 73.3441 66.0817 73.7213L65.7365 74.4072V83.5877C65.7365 93.8129 65.7058 93.3925 66.5147 94.273C66.9946 94.7954 70.7804 97.0047 72.1962 97.5886C73.0428 97.9376 73.1546 97.9549 74.5657 97.9549C75.9267 97.9549 76.0976 97.931 76.6734 97.6594C77.7955 97.1301 78.5513 96.1439 78.8304 94.8444C78.9279 94.3901 78.9547 91.7965 78.9294 85.2299L78.8949 76.2375L77.7153 76.2051C76.9434 76.184 76.4808 76.218 76.3767 76.3037C76.2432 76.4138 76.2173 77.8408 76.2158 85.2154L76.2139 93.996L75.9595 94.44C75.498 95.2452 74.5071 95.5763 73.4265 95.2864C72.6853 95.0876 68.3845 92.5853 68.3098 92.3095C68.222 91.9843 68.2255 75.113 68.3136 74.8852C68.3526 74.7844 68.5337 74.6255 68.7161 74.5317C68.9077 74.4334 69.0147 74.3083 68.9695 74.2357C68.9223 74.1598 68.943 74.1417 69.0218 74.19C69.1791 74.2866 70.6615 73.4867 70.577 73.351C70.5444 73.2985 70.5776 73.2188 70.651 73.1738C70.7404 73.119 70.7537 73.1414 70.6911 73.2417C70.55 73.4685 70.7132 73.3858 73.0847 72.0295C83.1947 66.2468 82.1641 66.8549 82.0559 66.7364C82.0092 66.6852 82.0312 66.6775 82.1048 66.7193C82.1784 66.7612 82.5532 66.6124 82.9377 66.3887C83.3222 66.165 83.705 66.008 83.7885 66.0397C83.8719 66.0715 85.8201 67.1712 88.1179 68.4833C90.4157 69.7955 92.3515 70.8348 92.42 70.7928C92.4883 70.751 92.5134 70.7662 92.4757 70.8269C92.4182 70.919 96.6837 73.4662 96.8955 73.4662C96.934 73.4662 96.929 73.4074 96.8844 73.3356C96.8336 73.254 96.8531 73.2358 96.9364 73.2869C97.0098 73.3319 97.0431 73.4116 97.0105 73.4641C96.9779 73.5164 97.2975 73.7497 97.7207 73.9825C98.1439 74.2151 98.6314 74.5032 98.8041 74.6227L99.1181 74.84L99.0889 83.6812L99.0598 92.5225L91.5407 96.8479C87.4052 99.2269 83.9348 101.202 83.8287 101.238C83.7066 101.279 82.8891 100.865 81.6028 100.11C80.4847 99.4533 79.495 98.9166 79.4034 98.9168C79.3117 98.9171 79.0593 99.0245 78.8426 99.1557C78.6258 99.2869 78.0914 99.5296 77.6551 99.6949C77.2187 99.8603 76.8445 100.047 76.8234 100.11C76.7804 100.238 82.072 103.402 82.7046 103.626C83.2301 103.813 84.3631 103.811 84.8949 103.622C85.6457 103.356 98.2073 96.0702 98.1299 95.9459C98.0866 95.8763 98.1111 95.8611 98.1893 95.9091C98.3859 96.0297 100.352 94.883 100.895 94.3308C101.774 93.4384 101.737 93.9067 101.736 83.5979L101.735 74.4277L101.468 73.8597C101.322 73.5474 101.044 73.1351 100.851 72.9435C100.371 72.4662 91.9808 67.6588 91.8107 67.7632C91.7313 67.8119 91.7065 67.797 91.7503 67.7268C91.8223 67.6112 85.573 63.9399 84.8318 63.6623C84.6369 63.5893 84.144 63.5296 83.7368 63.5296C83.3295 63.5296 82.8363 63.5893 82.6409 63.6623ZM77.4708 66.9485C77.4708 66.9719 77.3812 67.061 77.2715 67.1464C77.0908 67.287 77.0868 67.2831 77.2284 67.1037C77.3773 66.9152 77.4708 66.8554 77.4708 66.9485ZM97.7642 71.515C97.9058 71.6944 97.9018 71.6984 97.7211 71.5578C97.5313 71.41 97.4711 71.3171 97.5648 71.3171C97.5884 71.3171 97.6782 71.4061 97.7642 71.515ZM86.471 75.6841C85.6131 75.7892 84.3349 76.1083 83.7598 76.3607C82.9705 76.7072 82.4619 77.0727 82.5568 77.225C82.5985 77.2921 82.5817 77.3156 82.5192 77.2773C82.3382 77.1662 81.7243 77.8779 81.4077 78.566C81.0397 79.3656 80.9299 80.3714 81.1096 81.2946C81.5504 83.5569 83.2898 84.4479 88.2368 84.9451C90.3504 85.1576 91.9341 85.5858 92.473 86.0905C92.8149 86.4106 92.8508 86.5055 92.8508 87.0887C92.8508 87.7917 92.7476 88.0651 92.3032 88.538C91.6202 89.2652 89.4451 89.6422 87.1401 89.4331C84.6433 89.2065 83.7407 88.6384 83.3281 87.0332C83.225 86.6324 83.0826 86.267 83.0115 86.2213C82.8279 86.1032 80.8638 86.118 80.6714 86.239C80.5588 86.3097 80.5174 86.5371 80.5325 87.0007C80.6091 89.3597 82.0999 90.9481 84.933 91.6898C86.2149 92.0254 89.1839 92.1137 90.6528 91.86C92.7286 91.5016 94.2047 90.7066 95.0055 89.5159C95.5543 88.7 95.7576 87.9276 95.7403 86.7252C95.7287 85.9149 95.6775 85.6891 95.3608 85.0505C94.5982 83.5125 93.2221 82.9503 88.6154 82.2952C85.1738 81.8056 84.3497 81.5616 84.0235 80.9353C83.55 80.0263 84.1748 78.8917 85.3788 78.4744C85.8435 78.3133 86.3307 78.2735 87.8381 78.2735C90.1938 78.2735 90.8221 78.4304 91.5948 79.2118C91.8783 79.4987 92.1469 79.7236 92.1916 79.7117C92.2364 79.6998 92.2405 79.7741 92.2008 79.8769C92.161 79.9798 92.1757 80.0352 92.2333 80.0001C92.291 79.9651 92.3476 80.1132 92.3591 80.3294C92.3706 80.5455 92.4615 80.8457 92.5611 80.9966C92.7303 81.253 92.8087 81.2709 93.7555 81.2709C94.3129 81.2709 94.85 81.2401 94.9491 81.2023C95.3599 81.0457 95.0398 79.2737 94.4125 78.2324C93.4224 76.5889 91.5017 75.7727 88.4077 75.6809C87.5618 75.6558 86.6903 75.6572 86.471 75.6841ZM91.426 78.555C91.4658 78.619 91.4201 78.638 91.3187 78.5995C91.1214 78.5242 91.0853 78.4431 91.2491 78.4431C91.3082 78.4431 91.3877 78.4935 91.426 78.555ZM84.4963 91.2764C84.4963 91.367 84.4527 91.4144 84.3995 91.3817C84.3463 91.349 84.3321 91.2749 84.3682 91.217C84.4603 91.069 84.4963 91.0857 84.4963 91.2764ZM72.2448 95.0423C72.3864 95.2217 72.3825 95.2257 72.2018 95.0851C72.012 94.9372 71.9517 94.8444 72.0455 94.8444C72.069 94.8444 72.1588 94.9335 72.2448 95.0423ZM75.8379 95.2353C75.8379 95.3259 75.7943 95.3733 75.7411 95.3406C75.6879 95.3079 75.6738 95.2338 75.7099 95.1759C75.8019 95.0279 75.8379 95.0446 75.8379 95.2353ZM73.5974 97.7853C73.6913 97.8456 73.717 97.8949 73.6543 97.8949C73.5917 97.8949 73.4635 97.8456 73.3695 97.7853C73.2755 97.725 73.2499 97.6757 73.3125 97.6757C73.3752 97.6757 73.5034 97.725 73.5974 97.7853ZM87.1005 102.175C87.0656 102.21 86.9736 102.175 86.8963 102.098C86.7846 101.986 86.7977 101.973 86.9601 102.034C87.0724 102.077 87.1356 102.14 87.1005 102.175Z" fill="white"/>
<path fill-rule="evenodd" clip-rule="evenodd" d="M15.6437 66.8499C9.838 68.9408 6.47613 70.2608 6.44332 70.462C6.41521 70.6366 7.02015 76.2188 7.78799 82.8669L9.18375 94.9545L15.203 98.3202C18.5136 100.171 22.0783 102.154 23.1248 102.725L25.0271 103.765L32.9391 99.3597L40.8509 94.9545L42.2589 82.6637C43.0332 75.9036 43.5873 70.3004 43.4902 70.212C43.3137 70.0515 25.0035 63.4819 24.8656 63.5298C24.8254 63.5437 20.6756 65.0376 15.6437 66.8499ZM30.8889 81.1447L36.6775 94.186L34.446 94.1227L32.2146 94.0591L31.0873 91.2051L29.9599 88.3511H25.0158H20.0716L18.9443 91.2051L17.8169 94.0591L15.586 94.1227L13.355 94.186L19.1685 81.0854C22.3659 73.8801 25.0086 68.0116 25.0412 68.0441C25.0736 68.0767 27.7051 73.9721 30.8889 81.1447ZM23.3732 80.5349C22.4971 82.6444 21.7802 84.4605 21.7802 84.5702C21.7802 84.6798 23.2362 84.7696 25.0158 84.7696C26.796 84.7696 28.2513 84.6785 28.2513 84.5673C28.2513 84.3598 25.192 76.9255 25.0468 76.7798C25.0026 76.7354 24.2495 78.4252 23.3732 80.5349Z" fill="white"/>
</svg>
