<svg width="109" height="108" viewBox="0 0 109 108" fill="none" xmlns="http://www.w3.org/2000/svg">
<path fill-rule="evenodd" clip-rule="evenodd" d="M24.2095 1.06573C24.1953 1.10512 24.1577 1.2233 24.126 1.32834C24.0002 1.74427 23.7207 2.08375 22.289 3.55953C19.5275 6.40608 18.6338 7.49324 17.5185 9.36279C17.1428 9.99234 16.4782 11.2965 16.1888 11.9718C15.1283 14.446 14.4249 17.4359 14.0132 21.2197C13.8725 22.5119 13.8606 24.3979 13.9867 25.4169C14.3999 28.7558 15.1735 31.5241 16.3255 33.7856C17.5433 36.1761 19.7428 38.8367 22.3683 41.0953C22.7046 41.3846 22.8067 41.4498 22.8375 41.3951C22.9157 41.2565 23.2657 39.7841 23.3811 39.1081C23.446 38.728 23.5454 38.0113 23.602 37.5155C23.7071 36.5945 23.7577 36.4132 23.9462 36.2823C24.1198 36.1617 24.4791 36.1854 24.6508 36.3287C24.8289 36.4775 24.8692 36.6035 24.9705 37.3298C25.1353 38.5124 25.4327 39.7509 25.6711 40.2475C25.8024 40.5211 25.9872 40.721 26.3871 41.0219C26.4682 41.083 26.5347 41.1636 26.5347 41.201C26.5347 41.2384 26.5543 41.269 26.5782 41.269C26.7336 41.269 28.6528 39.3706 29.4285 38.4496C33.3724 33.7672 35.3197 28.3639 35.0515 22.8467C34.8095 17.8661 33.174 13.1571 30.1565 8.75305C28.9993 7.06414 28.0475 5.92269 26.4139 4.2648C25.0992 2.93065 24.7184 2.39306 24.3672 1.37609C24.2937 1.16309 24.2239 1.02577 24.2095 1.06573ZM22.3523 35.5393C22.1897 35.8969 22.1359 36.1516 22.0549 36.9471L21.9967 37.5193L21.6877 37.1858C19.5985 34.9317 18.3176 32.8505 17.4714 30.3349C16.7753 28.2659 16.2187 25.1559 16.2235 23.3637C16.2286 21.478 16.6934 18.1858 17.2783 15.8913C17.7115 14.1921 18.162 12.9601 18.8845 11.4985C19.7573 9.73297 20.687 8.38841 22.1791 6.73382L22.4679 6.41363L22.4807 20.8213L22.4934 35.229L22.3523 35.5393ZM24.2564 37.115C24.24 37.2332 24.1929 37.6092 24.1518 37.9506C23.9938 39.2626 23.7685 40.3884 23.4372 41.5223L23.3195 41.9251L23.4544 42.3032C23.7535 43.1419 23.8955 44.1531 23.9935 46.1435L24.0513 47.3176L24.6308 47.4888C24.9494 47.5831 25.2163 47.6541 25.2238 47.6466C25.2313 47.6392 25.2588 46.9908 25.2849 46.2057C25.3594 43.9646 25.4567 42.7526 25.6007 42.2712C25.6439 42.1271 25.7438 41.8822 25.8227 41.727C25.9584 41.4601 25.9614 41.4424 25.8774 41.3981C25.6971 41.3029 25.3028 40.8545 25.1538 40.5753C24.8983 40.0962 24.6246 39.0145 24.3932 37.5686C24.2977 36.9717 24.283 36.9231 24.2564 37.115Z" fill="white"/>
<path fill-rule="evenodd" clip-rule="evenodd" d="M82.4806 3.21955C79.7399 3.48747 77.522 4.10085 75.2643 5.21528C73.0544 6.30611 71.3479 7.56355 69.48 9.47738C65.5811 13.4723 63.6763 18.1316 63.6641 23.7038C63.6588 26.1619 63.9009 27.9425 64.5161 29.9705C65.4422 33.0233 67.0945 35.7506 69.5246 38.2371C72.9046 41.6955 76.5167 43.5777 81.1686 44.3044C82.5848 44.5256 86.0439 44.5262 87.4664 44.3054C92.0986 43.5865 95.7636 41.6742 99.1216 38.2244C102.423 34.8322 104.272 31.0605 104.826 26.5827C105.003 25.1562 105.002 22.3995 104.824 21.034C104.252 16.6366 102.398 12.8159 99.2763 9.59696C97.9876 8.26837 97.0156 7.44554 95.6399 6.51861C92.9537 4.7089 89.786 3.58205 86.4671 3.25565C85.591 3.16946 83.2132 3.14796 82.4806 3.21955ZM77.3222 15.8376C78.3702 15.9625 79.163 16.2353 79.9274 16.734C81.7357 17.9137 82.7938 19.715 83.2256 22.3489C83.2965 22.7816 83.3548 23.4405 83.355 23.8131L83.3553 24.4905H77.571H71.7867L71.8484 25.1969C72.0384 27.3738 73.0283 28.7579 74.8531 29.3982C75.4917 29.6222 76.8321 29.7051 77.6145 29.5689C78.9138 29.3427 80.0999 28.4402 80.4398 27.4189L80.6144 26.8944L81.8536 26.8702C82.8781 26.8501 83.0929 26.8675 83.0929 26.9702C83.0929 27.2372 82.7147 28.3172 82.4614 28.7738C81.2444 30.9668 78.5769 32.156 75.5947 31.8352C75.0957 31.7815 74.4236 31.6568 74.1012 31.5581C72.0187 30.9208 70.4413 29.3684 69.7059 27.2321C69.1571 25.6381 69.0004 23.2515 69.3441 21.722C70.1464 18.1519 72.7804 15.8855 76.2725 15.7602C76.4422 15.7542 76.9145 15.789 77.3222 15.8376ZM98.7143 15.891C98.6843 15.9689 97.4565 17.64 95.9856 19.6046C94.5148 21.5693 93.3247 23.2105 93.3411 23.252C93.3573 23.2934 94.7385 25.2344 96.4102 27.5653C98.0819 29.8962 99.4498 31.8305 99.4498 31.8638C99.4498 31.8971 98.6957 31.9137 97.774 31.9007L96.0981 31.8769L93.9034 28.6178C92.6963 26.8253 91.6693 25.3666 91.6212 25.3762C91.5731 25.3859 90.5497 26.8524 89.347 28.6353L87.1603 31.8769L85.5639 31.9008C84.6859 31.9138 83.9676 31.9063 83.9676 31.884C83.9676 31.8616 85.2879 29.9912 86.9015 27.7274C88.5152 25.4636 89.8567 23.5562 89.8826 23.4887C89.9191 23.3937 86.5665 18.7183 84.5993 16.1207L84.3842 15.8366H86.095H87.8059L89.4046 18.1749C90.284 19.461 91.1457 20.7169 91.3196 20.9658L91.6358 21.4186L93.6211 18.6295L95.6064 15.8406L97.1563 15.8146C98.0088 15.8003 98.7204 15.7797 98.7375 15.7689C98.7547 15.758 98.7443 15.813 98.7143 15.891ZM75.2652 18.1189C74.5454 18.2656 73.734 18.707 73.1966 19.244C72.5105 19.9295 71.9485 21.1056 71.8799 21.9992L71.853 22.3489L76.2484 22.3715L80.6437 22.3942V22.1932C80.6437 21.8394 80.3854 20.9665 80.1183 20.4178C79.637 19.4288 78.807 18.6944 77.7135 18.2896C77.1036 18.0638 75.9349 17.9823 75.2652 18.1189Z" fill="white"/>
<path fill-rule="evenodd" clip-rule="evenodd" d="M82.6858 63.6623C81.9401 63.9411 75.6949 67.6092 75.7676 67.7258C75.8119 67.7972 75.7876 67.8122 75.7074 67.7629C75.5795 67.6844 67.6456 72.155 66.8386 72.7603C66.6369 72.9115 66.3165 73.3441 66.1266 73.7213L65.7814 74.4072V83.5877C65.7814 93.8129 65.7508 93.3925 66.5596 94.273C67.0395 94.7954 70.8254 97.0047 72.2411 97.5886C73.0877 97.9376 73.1996 97.9549 74.6107 97.9549C75.9716 97.9549 76.1425 97.931 76.7183 97.6594C77.8404 97.1301 78.5962 96.1439 78.8754 94.8444C78.9729 94.3901 78.9996 91.7965 78.9744 85.2299L78.9398 76.2375L77.7602 76.2051C76.9883 76.184 76.5257 76.218 76.4216 76.3037C76.2881 76.4138 76.2622 77.8408 76.2608 85.2154L76.2588 93.996L76.0044 94.44C75.5429 95.2452 74.552 95.5763 73.4714 95.2864C72.7302 95.0876 68.4294 92.5853 68.3548 92.3095C68.2669 91.9843 68.2705 75.113 68.3585 74.8852C68.3975 74.7844 68.5786 74.6255 68.761 74.5317C68.9526 74.4334 69.0596 74.3083 69.0144 74.2357C68.9672 74.1598 68.988 74.1417 69.0667 74.19C69.224 74.2866 70.7064 73.4867 70.6219 73.351C70.5893 73.2985 70.6226 73.2188 70.6959 73.1738C70.7854 73.119 70.7986 73.1414 70.736 73.2417C70.5949 73.4685 70.7581 73.3858 73.1296 72.0295C83.2396 66.2468 82.209 66.8549 82.1008 66.7364C82.0541 66.6852 82.0761 66.6775 82.1497 66.7193C82.2233 66.7612 82.5981 66.6124 82.9826 66.3887C83.3671 66.165 83.7499 66.008 83.8334 66.0397C83.9168 66.0715 85.865 67.1712 88.1628 68.4833C90.4606 69.7955 92.3964 70.8348 92.4649 70.7928C92.5332 70.751 92.5583 70.7662 92.5206 70.8269C92.4632 70.919 96.7287 73.4662 96.9405 73.4662C96.979 73.4662 96.9739 73.4074 96.9293 73.3356C96.8785 73.254 96.8981 73.2358 96.9813 73.2869C97.0547 73.3319 97.088 73.4116 97.0554 73.4641C97.0228 73.5164 97.3424 73.7497 97.7656 73.9825C98.1889 74.2151 98.6763 74.5032 98.8491 74.6227L99.163 74.84L99.1339 83.6812L99.1047 92.5225L91.5856 96.8479C87.4501 99.2269 83.9797 101.202 83.8736 101.238C83.7515 101.279 82.9341 100.865 81.6477 100.11C80.5297 99.4533 79.5399 98.9166 79.4483 98.9168C79.3566 98.9171 79.1042 99.0245 78.8875 99.1557C78.6707 99.2869 78.1363 99.5296 77.7 99.6949C77.2636 99.8603 76.8894 100.047 76.8683 100.11C76.8254 100.238 82.1169 103.402 82.7495 103.626C83.275 103.813 84.408 103.811 84.9398 103.622C85.6906 103.356 98.2522 96.0702 98.1748 95.9459C98.1315 95.8763 98.156 95.8611 98.2342 95.9091C98.4308 96.0297 100.397 94.883 100.94 94.3308C101.819 93.4384 101.782 93.9067 101.781 83.5979L101.78 74.4277L101.513 73.8597C101.367 73.5474 101.089 73.1351 100.896 72.9435C100.416 72.4662 92.0257 67.6588 91.8556 67.7632C91.7762 67.8119 91.7515 67.797 91.7952 67.7268C91.8672 67.6112 85.6179 63.9399 84.8767 63.6623C84.6818 63.5893 84.189 63.5296 83.7817 63.5296C83.3744 63.5296 82.8812 63.5893 82.6858 63.6623ZM77.5158 66.9485C77.5158 66.9719 77.4261 67.061 77.3164 67.1464C77.1357 67.287 77.1317 67.2831 77.2733 67.1037C77.4222 66.9152 77.5158 66.8554 77.5158 66.9485ZM97.8091 71.515C97.9507 71.6944 97.9468 71.6984 97.7661 71.5578C97.5763 71.41 97.516 71.3171 97.6098 71.3171C97.6333 71.3171 97.7231 71.4061 97.8091 71.515ZM86.5159 75.6841C85.658 75.7892 84.3798 76.1083 83.8047 76.3607C83.0154 76.7072 82.5068 77.0727 82.6017 77.225C82.6434 77.2921 82.6266 77.3156 82.5642 77.2773C82.3831 77.1662 81.7692 77.8779 81.4526 78.566C81.0846 79.3656 80.9748 80.3714 81.1545 81.2946C81.5953 83.5569 83.3347 84.4479 88.2817 84.9451C90.3953 85.1576 91.979 85.5858 92.518 86.0905C92.8599 86.4106 92.8957 86.5055 92.8957 87.0887C92.8957 87.7917 92.7925 88.0651 92.3481 88.538C91.6651 89.2652 89.49 89.6422 87.185 89.4331C84.6882 89.2065 83.7857 88.6384 83.373 87.0332C83.2699 86.6324 83.1275 86.267 83.0564 86.2213C82.8728 86.1032 80.9087 86.118 80.7163 86.239C80.6037 86.3097 80.5624 86.5371 80.5774 87.0007C80.6541 89.3597 82.1448 90.9481 84.9779 91.6898C86.2598 92.0254 89.2288 92.1137 90.6978 91.86C92.7735 91.5016 94.2496 90.7066 95.0504 89.5159C95.5992 88.7 95.8026 87.9276 95.7852 86.7252C95.7736 85.9149 95.7225 85.6891 95.4058 85.0505C94.6431 83.5125 93.267 82.9503 88.6603 82.2952C85.2187 81.8056 84.3946 81.5616 84.0684 80.9353C83.595 80.0263 84.2197 78.8917 85.4237 78.4744C85.8884 78.3133 86.3757 78.2735 87.883 78.2735C90.2388 78.2735 90.8671 78.4304 91.6397 79.2118C91.9233 79.4987 92.1918 79.7236 92.2366 79.7117C92.2813 79.6998 92.2854 79.7741 92.2457 79.8769C92.2059 79.9798 92.2206 80.0352 92.2783 80.0001C92.3359 79.9651 92.3925 80.1132 92.404 80.3294C92.4155 80.5455 92.5065 80.8457 92.606 80.9966C92.7752 81.253 92.8536 81.2709 93.8004 81.2709C94.3579 81.2709 94.8949 81.2401 94.994 81.2023C95.4048 81.0457 95.0847 79.2737 94.4574 78.2324C93.4673 76.5889 91.5466 75.7727 88.4526 75.6809C87.6067 75.6558 86.7352 75.6572 86.5159 75.6841ZM91.4709 78.555C91.5107 78.619 91.4651 78.638 91.3637 78.5995C91.1663 78.5242 91.1302 78.4431 91.2941 78.4431C91.3531 78.4431 91.4326 78.4935 91.4709 78.555ZM84.5412 91.2764C84.5412 91.367 84.4976 91.4144 84.4444 91.3817C84.3912 91.349 84.3771 91.2749 84.4132 91.217C84.5052 91.069 84.5412 91.0857 84.5412 91.2764ZM72.2898 95.0423C72.4314 95.2217 72.4274 95.2257 72.2467 95.0851C72.0569 94.9372 71.9966 94.8444 72.0904 94.8444C72.114 94.8444 72.2037 94.9335 72.2898 95.0423ZM75.8829 95.2353C75.8829 95.3259 75.8392 95.3733 75.786 95.3406C75.7328 95.3079 75.7187 95.2338 75.7548 95.1759C75.8469 95.0279 75.8829 95.0446 75.8829 95.2353ZM73.6423 97.7853C73.7363 97.8456 73.7619 97.8949 73.6992 97.8949C73.6366 97.8949 73.5084 97.8456 73.4144 97.7853C73.3204 97.725 73.2948 97.6757 73.3575 97.6757C73.4201 97.6757 73.5483 97.725 73.6423 97.7853ZM87.1455 102.175C87.1105 102.21 87.0185 102.175 86.9412 102.098C86.8295 101.986 86.8426 101.973 87.005 102.034C87.1173 102.077 87.1805 102.14 87.1455 102.175Z" fill="white"/>
<path d="M44.6264 84.0339C44.6264 81.3515 41.2672 78.8094 36.1171 77.233C37.3056 71.9838 36.7773 67.8075 34.4499 66.4704C33.9134 66.1568 33.2861 66.0083 32.6011 66.0083V67.8488C32.9807 67.8488 33.2861 67.9231 33.542 68.0634C34.6644 68.7071 35.1514 71.1584 34.7717 74.3113C34.681 75.0871 34.5324 75.9042 34.3508 76.7378C32.7331 76.3416 30.9669 76.0363 29.1098 75.8382C27.9956 74.3113 26.8401 72.9247 25.6764 71.7114C28.367 69.2106 30.8926 67.8405 32.6093 67.8405V66C30.3396 66 27.3684 67.6177 24.3641 70.4239C21.3598 67.6342 18.3886 66.033 16.1188 66.033V67.8735C17.8273 67.8735 20.3611 69.2354 23.0518 71.7197C21.8963 72.9329 20.7408 74.3113 19.6431 75.8382C17.7778 76.0363 16.0115 76.3416 14.3939 76.7461C14.204 75.9207 14.0637 75.1201 13.9647 74.3525C13.5768 71.1997 14.0555 68.7484 15.1697 68.0964C15.4173 67.9478 15.7392 67.8818 16.1188 67.8818V66.0413C15.4255 66.0413 14.7983 66.1898 14.2535 66.5035C11.9343 67.8405 11.4143 72.0085 12.6111 77.2413C7.47743 78.8259 4.13477 81.3598 4.13477 84.0339C4.13477 86.7163 7.49394 89.2584 12.6441 90.8348C11.4556 96.084 11.9838 100.26 14.3113 101.597C14.8478 101.911 15.4751 102.06 16.1684 102.06C18.4381 102.06 21.4093 100.442 24.4136 97.6357C27.4179 100.425 30.3891 102.027 32.6588 102.027C33.3521 102.027 33.9794 101.878 34.5241 101.564C36.8434 100.227 37.3633 96.0592 36.1666 90.8265C41.2837 89.2501 44.6264 86.708 44.6264 84.0339ZM33.8804 78.5288C33.575 79.5935 33.1953 80.6912 32.7661 81.7889C32.4277 81.1287 32.0728 80.4684 31.6849 79.8081C31.3053 79.1478 30.9009 78.504 30.4964 77.8768C31.6684 78.0501 32.7991 78.2647 33.8804 78.5288ZM30.1003 87.3188C29.4565 88.433 28.7962 89.4895 28.1112 90.4716C26.8814 90.5789 25.6351 90.6367 24.3806 90.6367C23.1343 90.6367 21.888 90.5789 20.6665 90.4799C19.9815 89.4977 19.3129 88.4495 18.6692 87.3435C18.0419 86.2623 17.4724 85.1646 16.9524 84.0587C17.4642 82.9527 18.0419 81.8467 18.6609 80.7655C19.3047 79.6513 19.965 78.5948 20.65 77.6127C21.8798 77.5054 23.1261 77.4476 24.3806 77.4476C25.6269 77.4476 26.8731 77.5054 28.0947 77.6044C28.7797 78.5866 29.4482 79.6348 30.092 80.7407C30.7193 81.822 31.2888 82.9197 31.8087 84.0256C31.2888 85.1316 30.7193 86.2376 30.1003 87.3188ZM32.7661 86.2458C33.2118 87.3518 33.5915 88.4578 33.9051 89.5307C32.8239 89.7948 31.6849 90.0177 30.5047 90.191C30.9091 89.5555 31.3135 88.9035 31.6932 88.2349C32.0728 87.5746 32.4277 86.9061 32.7661 86.2458ZM24.3971 95.0523C23.6295 94.26 22.8619 93.3769 22.1026 92.4112C22.8454 92.4442 23.6048 92.469 24.3723 92.469C25.1482 92.469 25.9157 92.4525 26.6668 92.4112C25.924 93.3769 25.1564 94.26 24.3971 95.0523ZM18.2565 90.191C17.0845 90.0177 15.9538 89.8031 14.8726 89.539C15.1779 88.4743 15.5576 87.3766 15.9868 86.2788C16.3252 86.9391 16.6801 87.5994 17.068 88.2597C17.4559 88.92 17.8521 89.5637 18.2565 90.191ZM24.3558 73.0155C25.1234 73.8078 25.891 74.6909 26.6503 75.6566C25.9075 75.6236 25.1482 75.5988 24.3806 75.5988C23.6048 75.5988 22.8372 75.6153 22.0861 75.6566C22.8289 74.6909 23.5965 73.8078 24.3558 73.0155ZM18.2482 77.8768C17.8438 78.5123 17.4394 79.1643 17.0597 79.8329C16.6801 80.4931 16.3252 81.1534 15.9868 81.8137C15.5411 80.7077 15.1614 79.6018 14.8478 78.5288C15.929 78.273 17.068 78.0501 18.2482 77.8768ZM10.7788 88.2102C7.85709 86.9639 5.96704 85.3297 5.96704 84.0339C5.96704 82.7381 7.85709 81.0956 10.7788 79.8576C11.4886 79.5522 12.2645 79.2799 13.065 79.024C13.5355 80.6417 14.1545 82.3254 14.9221 84.0504C14.1628 85.7671 13.552 87.4426 13.0898 89.052C12.2727 88.7962 11.4969 88.5155 10.7788 88.2102ZM15.2192 100.004C14.0967 99.3606 13.6098 96.9093 13.9894 93.7565C14.0802 92.9807 14.2288 92.1636 14.4104 91.33C16.0281 91.7262 17.7943 92.0315 19.6513 92.2296C20.7656 93.7565 21.921 95.1431 23.0848 96.3564C20.3941 98.8572 17.8686 100.227 16.1519 100.227C15.7804 100.219 15.4668 100.145 15.2192 100.004ZM34.7965 93.7152C35.1844 96.8681 34.7057 99.3194 33.5915 99.9714C33.3439 100.12 33.022 100.186 32.6423 100.186C30.9339 100.186 28.4 98.8242 25.7094 96.3399C26.8649 95.1266 28.0204 93.7483 29.1181 92.2214C30.9834 92.0233 32.7496 91.7179 34.3673 91.3135C34.5571 92.1471 34.7057 92.9477 34.7965 93.7152ZM37.9741 88.2102C37.2643 88.5155 36.4885 88.7879 35.6879 89.0438C35.2174 87.4261 34.5984 85.7424 33.8308 84.0174C34.5902 82.3007 35.2009 80.6252 35.6631 79.0158C36.4802 79.2716 37.256 79.5522 37.9823 79.8576C40.9041 81.1039 42.7941 82.7381 42.7941 84.0339C42.7859 85.3297 40.8958 86.9721 37.9741 88.2102Z" fill="white"/>
<path d="M24.3715 87.8062C26.4546 87.8062 28.1433 86.1174 28.1433 84.0343C28.1433 81.9512 26.4546 80.2625 24.3715 80.2625C22.2883 80.2625 20.5996 81.9512 20.5996 84.0343C20.5996 86.1174 22.2883 87.8062 24.3715 87.8062Z" fill="white"/>
</svg>
