<svg width="1395" height="88" viewBox="0 0 1395 88" fill="none" xmlns="http://www.w3.org/2000/svg">
<path d="M74.0512 87V88H75.0512V87H74.0512ZM53.9646 87L53.1302 87.5511L53.4267 88H53.9646V87ZM20.3695 36.1374L21.2039 35.5863L19.3695 32.809L19.3695 36.1374H20.3695ZM20.3695 87V88H21.3695V87H20.3695ZM0.282861 87H-0.717139L-0.717139 88H0.282861L0.282861 87ZM0.282861 4.53922V3.53922H-0.717139V4.53922H0.282861ZM20.3695 4.53922L21.205 3.98985L20.9088 3.53922H20.3695V4.53922ZM53.9646 55.6367L53.129 56.1861L54.9646 58.978V55.6367H53.9646ZM53.9646 4.53922V3.53922H52.9646V4.53922H53.9646ZM74.0512 4.53922H75.0512V3.53922H74.0512V4.53922ZM74.0512 86H53.9646V88H74.0512V86ZM54.799 86.4489L21.2039 35.5863L19.535 36.6886L53.1302 87.5511L54.799 86.4489ZM19.3695 36.1374L19.3695 87H21.3695L21.3695 36.1374H19.3695ZM20.3695 86H0.282861L0.282861 88H20.3695V86ZM1.28286 87L1.28286 4.53922H-0.717139L-0.717139 87H1.28286ZM0.282861 5.53922L20.3695 5.53922V3.53922L0.282861 3.53922L0.282861 5.53922ZM19.5339 5.08859L53.129 56.1861L54.8002 55.0873L21.205 3.98985L19.5339 5.08859ZM54.9646 55.6367L54.9646 4.53922H52.9646L52.9646 55.6367H54.9646ZM53.9646 5.53922L74.0512 5.53922V3.53922L53.9646 3.53922V5.53922ZM73.0512 4.53922V87H75.0512V4.53922H73.0512ZM103.412 83.8284L102.938 84.7089L102.944 84.7119L103.412 83.8284ZM91.3131 72.0819L90.444 72.5766L90.4498 72.5866L91.3131 72.0819ZM91.4306 36.4898L92.2939 36.9945L92.2972 36.9888L91.4306 36.4898ZM103.647 24.6258L104.115 25.5093L104.115 25.5093L103.647 24.6258ZM138.417 24.6258L137.948 25.5093L137.948 25.5093L138.417 24.6258ZM150.633 36.4898L149.767 36.9888L149.77 36.9945L150.633 36.4898ZM150.516 72.0819L149.655 71.5731L149.652 71.5772L150.516 72.0819ZM138.182 83.8284L137.719 82.9421L137.713 82.945L138.182 83.8284ZM130.547 66.3261L129.83 65.629L129.825 65.6342L129.82 65.6394L130.547 66.3261ZM130.664 42.1282L129.927 42.8039L129.932 42.8094L129.937 42.8148L130.664 42.1282ZM111.282 42.1282L112.01 42.8143L112.019 42.8039L111.282 42.1282ZM111.165 66.3261L110.417 66.9904L110.422 66.9962L110.428 67.0018L111.165 66.3261ZM120.797 86.9397C114.523 86.9397 108.891 85.602 103.881 82.945L102.944 84.7119C108.27 87.5366 114.228 88.9397 120.797 88.9397V86.9397ZM103.886 82.948C98.9611 80.296 95.0614 76.512 92.1764 71.5772L90.4498 72.5866C93.5164 77.8321 97.6826 81.8791 102.938 84.7089L103.886 82.948ZM92.1822 71.5872C89.3836 66.6708 87.9669 60.8952 87.9669 54.2271H85.9669C85.9669 61.185 87.4476 67.3126 90.444 72.5766L92.1822 71.5872ZM87.9669 54.2271C87.9669 47.6442 89.4197 41.9108 92.2939 36.9945L90.5673 35.9851C87.4898 41.2492 85.9669 47.3407 85.9669 54.2271H87.9669ZM92.2972 36.9888C95.181 31.98 99.1166 28.1602 104.115 25.5093L103.178 23.7424C97.8404 26.5732 93.6317 30.6627 90.564 35.9909L92.2972 36.9888ZM104.115 25.5093C109.126 22.8522 114.758 21.5145 121.032 21.5145V19.5145C114.463 19.5145 108.505 20.9177 103.178 23.7424L104.115 25.5093ZM121.032 21.5145C127.306 21.5145 132.938 22.8522 137.948 25.5093L138.885 23.7424C133.559 20.9177 127.6 19.5145 121.032 19.5145V21.5145ZM137.948 25.5093C142.947 28.1602 146.883 31.98 149.767 36.9888L151.5 35.9909C148.432 30.6627 144.223 26.5732 138.885 23.7424L137.948 25.5093ZM149.77 36.9945C152.644 41.9108 154.097 47.6442 154.097 54.2271H156.097C156.097 47.3407 154.574 41.2492 151.496 35.9851L149.77 36.9945ZM154.097 54.2271C154.097 60.8052 152.607 66.5769 149.655 71.5732L151.377 72.5906C154.533 67.2499 156.097 61.1185 156.097 54.2271H154.097ZM149.652 71.5772C146.772 76.5044 142.8 80.2879 137.719 82.9421L138.645 84.7148C144.058 81.8872 148.308 77.8397 151.379 72.5866L149.652 71.5772ZM137.713 82.945C132.703 85.602 127.071 86.9397 120.797 86.9397V88.9397C127.365 88.9397 133.324 87.5366 138.65 84.7119L137.713 82.945ZM120.797 71.5548C124.913 71.5548 128.424 70.0295 131.274 67.0127L129.82 65.6394C127.344 68.261 124.356 69.5548 120.797 69.5548V71.5548ZM131.264 67.0232C134.24 63.9617 135.658 59.6447 135.658 54.2271H133.658C133.658 59.3031 132.335 63.0521 129.83 65.629L131.264 67.0232ZM135.658 54.2271C135.658 48.8168 134.283 44.5038 131.391 41.4416L129.937 42.8148C132.37 45.3909 133.658 49.1438 133.658 54.2271H135.658ZM131.401 41.4525C128.627 38.4259 125.148 36.8994 121.032 36.8994V38.8994C124.59 38.8994 127.533 40.1922 129.927 42.8039L131.401 41.4525ZM121.032 36.8994C116.844 36.8994 113.324 38.4211 110.545 41.4525L112.019 42.8039C114.409 40.1969 117.389 38.8994 121.032 38.8994V36.8994ZM110.555 41.4422C107.734 44.4334 106.406 48.7527 106.406 54.2271H108.406C108.406 49.0513 109.662 45.3047 112.01 42.8142L110.555 41.4422ZM106.406 54.2271C106.406 59.6231 107.695 63.9275 110.417 66.9904L111.912 65.6617C109.623 63.0863 108.406 59.3248 108.406 54.2271H106.406ZM110.428 67.0018C113.202 70.0284 116.681 71.5548 120.797 71.5548V69.5548C117.239 69.5548 114.296 68.2621 111.902 65.6503L110.428 67.0018ZM167.868 36.3724L166.976 35.9196L166.97 35.9307L167.868 36.3724ZM178.322 24.6258L178.852 25.4738L178.852 25.4738L178.322 24.6258ZM204.752 23.2162L204.297 24.1067L204.305 24.1107L204.752 23.2162ZM213.209 30.4991L212.377 31.0538L214.209 33.8019V30.4991L213.209 30.4991ZM213.209 0.0755346V-0.924465H212.209V0.0755346H213.209ZM233.296 0.0755346H234.296V-0.924465H233.296V0.0755346ZM233.296 87V88H234.296V87H233.296ZM213.209 87H212.209V88H213.209V87ZM213.209 77.6028L214.209 77.6028V73.9924L212.352 77.0883L213.209 77.6028ZM205.104 85.1206L204.634 84.2382L204.625 84.2427L205.104 85.1206ZM178.322 83.8284L177.781 84.6697L177.792 84.6764L178.322 83.8284ZM167.868 71.9644L166.968 72.4007L166.972 72.4089L166.976 72.4171L167.868 71.9644ZM208.98 42.3631L208.254 43.0504L208.264 43.0605L208.98 42.3631ZM188.659 42.3631L187.942 41.6658L187.942 41.666L188.659 42.3631ZM188.659 66.0911L187.923 66.7686L187.933 66.7787L187.942 66.7885L188.659 66.0911ZM208.98 66.0911L208.264 65.3937L208.254 65.4039L208.98 66.0911ZM165.109 54.1097C165.109 47.4997 166.338 41.7434 168.765 36.8141L166.97 35.9307C164.385 41.1817 163.109 47.2502 163.109 54.1097H165.109ZM168.759 36.8251C171.27 31.8797 174.637 28.1084 178.852 25.4738L177.792 23.7778C173.237 26.6249 169.634 30.6847 166.976 35.9197L168.759 36.8251ZM178.852 25.4738C183.071 22.8369 187.78 21.5145 193.005 21.5145V19.5145C187.423 19.5145 182.344 20.9331 177.792 23.7778L178.852 25.4738ZM193.005 21.5145C197.168 21.5145 200.926 22.3838 204.297 24.1067L205.207 22.3258C201.53 20.4464 197.456 19.5145 193.005 19.5145V21.5145ZM204.305 24.1107C207.767 25.8417 210.447 28.1583 212.377 31.0538L214.041 29.9444C211.899 26.7317 208.941 24.193 205.199 22.3218L204.305 24.1107ZM214.209 30.4991V0.0755346H212.209V30.4991L214.209 30.4991ZM213.209 1.07553H233.296V-0.924465H213.209V1.07553ZM232.296 0.0755346L232.296 87H234.296L234.296 0.0755346H232.296ZM233.296 86H213.209V88H233.296V86ZM214.209 87V77.6028L212.209 77.6028V87H214.209ZM212.352 77.0883C210.574 80.0509 208.013 82.4358 204.634 84.2382L205.575 86.0029C209.243 84.0464 212.085 81.4194 214.067 78.1173L212.352 77.0883ZM204.625 84.2427C201.351 86.0289 197.488 86.9397 193.005 86.9397V88.9397C197.763 88.9397 201.966 87.9711 205.583 85.9984L204.625 84.2427ZM193.005 86.9397C187.78 86.9397 183.071 85.6174 178.852 82.9804L177.792 84.6764C182.344 87.5212 187.423 88.9397 193.005 88.9397V86.9397ZM178.863 82.9873C174.641 80.2731 171.271 76.459 168.759 71.5117L166.976 72.4171C169.633 77.6501 173.233 81.7454 177.781 84.6696L178.863 82.9873ZM168.767 71.5281C166.338 66.5172 165.109 60.7192 165.109 54.1097H163.109C163.109 60.9695 164.385 67.0747 166.968 72.4007L168.767 71.5281ZM214.209 54.2271C214.209 49.0207 212.739 44.7923 209.697 41.6658L208.264 43.0605C210.86 45.7288 212.209 49.4099 212.209 54.2271L214.209 54.2271ZM209.707 41.6759C206.777 38.5784 203.147 37.0169 198.878 37.0169V39.0169C202.598 39.0169 205.702 40.3528 208.254 43.0503L209.707 41.6759ZM198.878 37.0169C194.611 37.0169 190.947 38.5775 187.942 41.6658L189.376 43.0605C192.009 40.3538 195.158 39.0169 198.878 39.0169V37.0169ZM187.942 41.666C184.973 44.7193 183.548 48.9122 183.548 54.1097H185.548C185.548 49.2834 186.863 45.6452 189.376 43.0602L187.942 41.666ZM183.548 54.1097C183.548 59.3098 184.974 63.5667 187.923 66.7686L189.395 65.4137C186.862 62.664 185.548 58.9332 185.548 54.1097H183.548ZM187.942 66.7885C190.947 69.8768 194.611 71.4374 198.878 71.4374V69.4374C195.158 69.4374 192.009 68.1004 189.376 65.3938L187.942 66.7885ZM198.878 71.4374C203.147 71.4374 206.777 69.8758 209.707 66.7783L208.254 65.4039C205.702 68.1014 202.598 69.4374 198.878 69.4374V71.4374ZM209.697 66.7885C212.739 63.6619 214.209 59.4336 214.209 54.2271L212.209 54.2271C212.209 59.0444 210.86 62.7254 208.264 65.3938L209.697 66.7885ZM311.611 59.0432V60.0432H312.503L312.605 59.1578L311.611 59.0432ZM266.152 59.0432V58.0432H265.072L265.155 59.1199L266.152 59.0432ZM270.029 68.4405L269.334 69.1599L269.347 69.172L269.36 69.1837L270.029 68.4405ZM289.058 65.2689V64.2689H288.419L288.151 64.8488L289.058 65.2689ZM310.437 65.2689L311.406 65.5156L311.723 64.2689H310.437V65.2689ZM304.446 76.898L303.681 76.2543L303.672 76.2647L304.446 76.898ZM293.757 85.0031L294.17 85.9135L293.757 85.0031ZM262.158 83.8284L261.679 84.7058L261.679 84.7058L262.158 83.8284ZM250.412 72.0819L251.287 71.5974L251.287 71.5974L250.412 72.0819ZM250.294 36.3724L249.42 35.8878L249.414 35.8983L250.294 36.3724ZM262.041 24.6258L262.521 25.5032L262.521 25.5032L262.041 24.6258ZM296.223 24.5084L295.748 25.3884L295.748 25.3884L296.223 24.5084ZM307.735 35.9025L306.861 36.3882L306.867 36.3986L307.735 35.9025ZM291.407 47.884V48.884H292.407V47.884H291.407ZM287.883 39.6614L288.538 38.9057L288.538 38.9057L287.883 39.6614ZM270.498 39.5439L269.858 38.7757L269.852 38.7811L269.846 38.7865L270.498 39.5439ZM266.27 47.884L265.281 47.7335L265.106 48.884H266.27V47.884ZM310.964 53.1699C310.964 55.0078 310.849 56.9272 310.618 58.9286L312.605 59.1578C312.844 57.0871 312.964 55.0909 312.964 53.1699H310.964ZM311.611 58.0432L266.152 58.0432V60.0432L311.611 60.0432V58.0432ZM265.155 59.1199C265.482 63.3625 266.84 66.7521 269.334 69.1599L270.723 67.721C268.675 65.7434 267.449 62.8682 267.149 58.9665L265.155 59.1199ZM269.36 69.1837C271.905 71.4748 275.007 72.612 278.604 72.612V70.612C275.466 70.612 272.851 69.6349 270.698 67.6972L269.36 69.1837ZM278.604 72.612C281.251 72.612 283.564 72.0529 285.495 70.8812C287.431 69.7067 288.915 67.9571 289.965 65.689L288.151 64.8488C287.243 66.8094 286.006 68.2314 284.457 69.1713C282.904 70.114 280.968 70.612 278.604 70.612V72.612ZM289.058 66.2689L310.437 66.2689V64.2689L289.058 64.2689V66.2689ZM309.468 65.0222C308.409 69.1814 306.482 72.9224 303.681 76.2544L305.211 77.5416C308.204 73.9822 310.272 69.9705 311.406 65.5156L309.468 65.0222ZM303.672 76.2647C300.956 79.5842 297.519 82.1944 293.343 84.0927L294.17 85.9135C298.608 83.8963 302.298 81.1031 305.22 77.5312L303.672 76.2647ZM293.343 84.0927C289.181 85.9844 284.509 86.9397 279.308 86.9397V88.9397C284.758 88.9397 289.718 87.9373 294.17 85.9135L293.343 84.0927ZM279.308 86.9397C273.033 86.9397 267.485 85.6019 262.638 82.9511L261.679 84.7058C266.855 87.5367 272.74 88.9397 279.308 88.9397V86.9397ZM262.638 82.9511C257.796 80.3029 254.016 76.5251 251.287 71.5974L249.537 72.5664C252.446 77.819 256.497 81.8723 261.679 84.7058L262.638 82.9511ZM251.287 71.5974C248.563 66.679 247.183 60.8997 247.183 54.2271H245.183C245.183 61.1805 246.623 67.3044 249.537 72.5664L251.287 71.5974ZM247.183 54.2271C247.183 47.5501 248.525 41.767 251.175 36.8465L249.414 35.8983C246.582 41.1581 245.183 47.2782 245.183 54.2271H247.183ZM251.169 36.8569C253.898 31.9292 257.678 28.1514 262.521 25.5032L261.561 23.7485C256.38 26.582 252.329 30.6352 249.42 35.8879L251.169 36.8569ZM262.521 25.5032C267.366 22.8533 272.953 21.5145 279.308 21.5145V19.5145C272.664 19.5145 266.739 20.9166 261.561 23.7485L262.521 25.5032ZM279.308 21.5145C285.508 21.5145 290.979 22.8144 295.748 25.3884L296.698 23.6283C291.601 20.8772 285.795 19.5145 279.308 19.5145V21.5145ZM295.748 25.3884C300.513 27.9596 304.212 31.6203 306.861 36.3882L308.609 35.4169C305.776 30.3176 301.801 26.3822 296.698 23.6283L295.748 25.3884ZM306.867 36.3986C309.587 41.1587 310.964 46.7382 310.964 53.1699H312.964C312.964 46.4456 311.522 40.5134 308.603 35.4064L306.867 36.3986ZM292.407 47.884C292.407 44.1836 291.132 41.1537 288.538 38.9057L287.228 40.4171C289.333 42.2413 290.407 44.6931 290.407 47.884H292.407ZM288.538 38.9057C285.983 36.691 282.804 35.6073 279.073 35.6073V37.6073C282.391 37.6073 285.085 38.5597 287.228 40.4171L288.538 38.9057ZM279.073 35.6073C275.497 35.6073 272.406 36.6528 269.858 38.7757L271.139 40.3122C273.29 38.5196 275.915 37.6073 279.073 37.6073V35.6073ZM269.846 38.7865C267.357 40.9318 265.857 43.9483 265.281 47.7335L267.258 48.0344C267.779 44.6151 269.098 42.0716 271.151 40.3013L269.846 38.7865ZM266.27 48.884H291.407V46.884H266.27V48.884ZM376.595 4.53922H377.595V3.53922H376.595V4.53922ZM369.194 80.7743L368.505 80.0502L368.499 80.0557L369.194 80.7743ZM328.551 80.4219L327.866 81.1505L327.866 81.1505L328.551 80.4219ZM320.681 59.3956V58.3956H319.681V59.3956H320.681ZM340.65 59.3956H341.65V58.3956H340.65V59.3956ZM342.765 67.2658L341.977 67.8821L341.984 67.8906L341.991 67.899L342.765 67.2658ZM354.511 67.5007L353.749 66.8531L353.749 66.8531L354.511 67.5007ZM356.508 4.53922V3.53922H355.508V4.53922H356.508ZM375.595 4.53922V60.6877H377.595V4.53922H375.595ZM375.595 60.6877C375.595 69.1863 373.189 75.5891 368.505 80.0502L369.884 81.4985C375.067 76.5623 377.595 69.574 377.595 60.6877H375.595ZM368.499 80.0557C363.871 84.5345 357.564 86.8223 349.46 86.8223V88.8223C357.958 88.8223 364.807 86.4114 369.89 81.4929L368.499 80.0557ZM349.46 86.8223C340.966 86.8223 334.261 84.4178 329.236 79.6934L327.866 81.1505C333.335 86.2932 340.569 88.8223 349.46 88.8223V86.8223ZM329.236 79.6934C324.24 74.9956 321.681 68.2804 321.681 59.3956H319.681C319.681 68.6788 322.369 75.9811 327.866 81.1505L329.236 79.6934ZM320.681 60.3956H340.65V58.3956H320.681V60.3956ZM339.65 59.3956C339.65 62.9567 340.375 65.8356 341.977 67.8821L343.552 66.6495C342.334 65.0937 341.65 62.7258 341.65 59.3956H339.65ZM341.991 67.899C343.628 69.9001 345.975 70.85 348.873 70.85V68.85C346.445 68.85 344.72 68.0771 343.538 66.6326L341.991 67.899ZM348.873 70.85C351.535 70.85 353.717 69.9793 355.273 68.1484L353.749 66.8531C352.643 68.1546 351.066 68.85 348.873 68.85V70.85ZM355.273 68.1484C356.814 66.3354 357.508 63.7968 357.508 60.6877H355.508C355.508 63.5302 354.871 65.5336 353.749 66.8531L355.273 68.1484ZM357.508 60.6877V4.53922H355.508V60.6877H357.508ZM356.508 5.53922L376.595 5.53922V3.53922L356.508 3.53922V5.53922ZM408.795 84.8856L408.416 85.8109L408.416 85.8109L408.795 84.8856ZM397.283 76.1932L396.477 76.7853L396.485 76.7958L397.283 76.1932ZM392.82 62.3322V61.3322H391.79L391.82 62.3612L392.82 62.3322ZM414.198 62.3322L415.193 62.2302L415.101 61.3322H414.198V62.3322ZM417.37 69.3802L416.696 70.1187L416.704 70.1268L416.714 70.1348L417.37 69.3802ZM431.466 69.7326L432.077 70.5239L432.088 70.5153L432.099 70.5065L431.466 69.7326ZM431.936 58.9257L431.228 59.6329L431.239 59.643L431.249 59.6528L431.936 58.9257ZM426.885 55.6367L426.482 56.552L426.488 56.5549L426.495 56.5577L426.885 55.6367ZM418.427 52.7001L418.132 53.6556L418.142 53.6585L418.427 52.7001ZM405.388 47.7665L404.949 48.6651L404.949 48.6651L405.388 47.7665ZM396.696 40.4837L397.494 39.8806L397.494 39.8806L396.696 40.4837ZM401.394 9.94263L402.007 10.7332L402.014 10.7278L401.394 9.94263ZM445.092 9.94263L444.472 10.7278L444.479 10.7332L445.092 9.94263ZM454.019 28.0323V29.0323H455.071L455.018 27.9819L454.019 28.0323ZM432.288 28.0323L431.29 28.091L431.345 29.0323H432.288V28.0323ZM429.351 21.8067L428.695 22.5613L428.705 22.5696L428.714 22.5776L429.351 21.8067ZM416.548 21.4543L417.192 22.2192L417.203 22.2095L417.214 22.1995L416.548 21.4543ZM418.075 33.2008L418.585 32.3409L418.585 32.3409L418.075 33.2008ZM429.821 38.0169L430.142 37.0695L430.129 37.0654L429.821 38.0169ZM442.742 43.1854L442.295 44.0798L442.304 44.0839L442.742 43.1854ZM451.435 50.3508L450.644 50.9633L450.644 50.9633L451.435 50.3508ZM451.435 75.2535L450.59 74.7188L450.586 74.725L450.582 74.7313L451.435 75.2535ZM441.098 84.4158L440.651 83.5213L440.651 83.5213L441.098 84.4158ZM425.005 86.8223C419.084 86.8223 413.812 85.8612 409.174 83.9603L408.416 85.8109C413.331 87.8256 418.867 88.8223 425.005 88.8223V86.8223ZM409.174 83.9603C404.55 82.0654 400.863 79.274 398.081 75.5906L396.485 76.7958C399.499 80.7867 403.485 83.7903 408.416 85.8109L409.174 83.9603ZM398.089 75.6011C395.406 71.9491 393.971 67.5321 393.819 62.3033L391.82 62.3612C391.982 67.9392 393.522 72.7628 396.477 76.7853L398.089 75.6011ZM392.82 63.3322H414.198V61.3322H392.82V63.3322ZM413.203 62.4343C413.535 65.6672 414.67 68.269 416.696 70.1187L418.044 68.6417C416.468 67.2024 415.488 65.1055 415.193 62.2302L413.203 62.4343ZM416.714 70.1348C418.734 71.8913 421.333 72.7295 424.418 72.7295V70.7295C421.708 70.7295 419.608 70.0014 418.026 68.6256L416.714 70.1348ZM424.418 72.7295C427.535 72.7295 430.125 72.0324 432.077 70.5239L430.854 68.9413C429.361 70.0953 427.252 70.7295 424.418 70.7295V72.7295ZM432.099 70.5065C434.077 68.8883 435.05 66.6734 435.05 63.9768H433.05C433.05 66.1354 432.3 67.7577 430.832 68.9586L432.099 70.5065ZM435.05 63.9768C435.05 61.6811 434.243 59.7293 432.622 58.1987L431.249 59.6528C432.447 60.7847 433.05 62.2003 433.05 63.9768H435.05ZM432.643 58.2186C431.206 56.7819 429.408 55.6187 427.274 54.7157L426.495 56.5577C428.433 57.3775 430.003 58.4071 431.228 59.6329L432.643 58.2186ZM427.287 54.7214C425.273 53.835 422.407 52.8422 418.712 51.7417L418.142 53.6585C421.808 54.7507 424.581 55.7156 426.482 56.552L427.287 54.7214ZM418.722 51.7446C413.425 50.1087 409.132 48.4818 405.827 46.868L404.949 48.6651C408.38 50.3403 412.779 52.0024 418.132 53.6555L418.722 51.7446ZM405.827 46.868C402.611 45.2974 399.834 42.9755 397.494 39.8806L395.898 41.0868C398.413 44.4133 401.431 46.9466 404.949 48.6651L405.827 46.868ZM397.494 39.8806C395.23 36.8873 394.054 32.9279 394.054 27.9149H392.054C392.054 33.2388 393.306 37.6585 395.898 41.0868L397.494 39.8806ZM394.054 27.9149C394.054 20.5173 396.716 14.8318 402.007 10.7332L400.782 9.15209C394.953 13.6676 392.054 19.9636 392.054 27.9149H394.054ZM402.014 10.7278C407.356 6.5145 414.363 4.36457 423.126 4.36457V2.36457C414.033 2.36457 406.553 4.60002 400.775 9.15747L402.014 10.7278ZM423.126 4.36457C432.049 4.36457 439.133 6.51678 444.472 10.7278L445.711 9.15747C439.93 4.59773 432.37 2.36457 423.126 2.36457V4.36457ZM444.479 10.7332C449.783 14.8418 452.642 20.5873 453.02 28.0828L455.018 27.9819C454.613 19.9719 451.52 13.6576 445.704 9.15209L444.479 10.7332ZM454.019 27.0323H432.288V29.0323H454.019V27.0323ZM433.286 27.9736C433.116 25.0769 432.035 22.7263 429.988 21.0357L428.714 22.5776C430.27 23.8628 431.147 25.6626 431.29 28.091L433.286 27.9736ZM430.007 21.052C427.992 19.2998 425.435 18.4573 422.421 18.4573V20.4573C425.045 20.4573 427.108 21.1811 428.695 22.5613L430.007 21.052ZM422.421 18.4573C419.803 18.4573 417.59 19.18 415.881 20.709L417.214 22.1995C418.481 21.066 420.184 20.4573 422.421 20.4573V18.4573ZM415.903 20.6893C414.135 22.1782 413.316 24.3321 413.316 26.9751H415.316C415.316 24.7629 415.984 23.2362 417.192 22.2192L415.903 20.6893ZM413.316 26.9751C413.316 30.0291 414.789 32.4132 417.564 34.0607L418.585 32.3409C416.348 31.0126 415.316 29.2462 415.316 26.9751H413.316ZM417.564 34.0607C420.168 35.6069 424.17 37.2395 429.513 38.9683L430.129 37.0654C424.823 35.3487 420.993 33.7705 418.585 32.3409L417.564 34.0607ZM429.501 38.9642C434.803 40.7574 439.063 42.4635 442.295 44.0798L443.19 42.2909C439.844 40.6182 435.49 38.8786 430.142 37.0696L429.501 38.9642ZM442.304 44.0839C445.525 45.6574 448.305 47.9448 450.644 50.9633L452.225 49.7382C449.709 46.4919 446.694 44.0023 443.181 42.2868L442.304 44.0839ZM450.644 50.9633C452.906 53.8812 454.076 57.6825 454.076 62.4497H456.076C456.076 57.3498 454.819 53.0852 452.225 49.7382L450.644 50.9633ZM454.076 62.4497C454.076 66.966 452.912 71.0473 450.59 74.7188L452.28 75.7881C454.812 71.7852 456.076 67.3307 456.076 62.4497H454.076ZM450.582 74.7313C448.342 78.3891 445.047 81.323 440.651 83.5213L441.545 85.3102C446.232 82.9666 449.828 79.7923 452.288 75.7756L450.582 74.7313ZM440.651 83.5213C436.275 85.7094 431.07 86.8223 425.005 86.8223V88.8223C431.313 88.8223 436.837 87.6641 441.545 85.3102L440.651 83.5213ZM543.555 87V88H544.555V87H543.555ZM523.469 87L522.634 87.5511L522.931 88H523.469V87ZM489.874 36.1374L490.708 35.5863L488.874 32.809V36.1374H489.874ZM489.874 87V88H490.874V87H489.874ZM469.787 87H468.787V88H469.787V87ZM469.787 4.53922V3.53922H468.787V4.53922H469.787ZM489.874 4.53922L490.709 3.98985L490.413 3.53922H489.874V4.53922ZM523.469 55.6367L522.633 56.1861L524.469 58.978V55.6367H523.469ZM523.469 4.53922V3.53922H522.469V4.53922H523.469ZM543.555 4.53922H544.555V3.53922H543.555V4.53922ZM543.555 86H523.469V88H543.555V86ZM524.303 86.4489L490.708 35.5863L489.039 36.6886L522.634 87.5511L524.303 86.4489ZM488.874 36.1374V87H490.874V36.1374H488.874ZM489.874 86H469.787V88H489.874V86ZM470.787 87V4.53922H468.787V87H470.787ZM469.787 5.53922H489.874V3.53922H469.787V5.53922ZM489.038 5.08859L522.633 56.1861L524.304 55.0873L490.709 3.98985L489.038 5.08859ZM524.469 55.6367V4.53922H522.469V55.6367H524.469ZM523.469 5.53922H543.555V3.53922H523.469V5.53922ZM542.555 4.53922V87H544.555V4.53922H542.555ZM572.916 83.8284L572.442 84.7089L572.448 84.7119L572.916 83.8284ZM560.817 72.0819L559.948 72.5766L559.954 72.5866L560.817 72.0819ZM560.935 36.4898L561.798 36.9945L561.801 36.9888L560.935 36.4898ZM573.151 24.6258L573.62 25.5093L573.62 25.5093L573.151 24.6258ZM607.921 24.6258L607.452 25.5093L607.452 25.5093L607.921 24.6258ZM620.137 36.4898L619.271 36.9888L619.274 36.9945L620.137 36.4898ZM620.02 72.0819L619.159 71.5731L619.157 71.5772L620.02 72.0819ZM607.686 83.8284L607.223 82.9421L607.217 82.945L607.686 83.8284ZM600.051 66.3261L599.334 65.629L599.329 65.6342L599.324 65.6394L600.051 66.3261ZM600.168 42.1282L599.431 42.8039L599.436 42.8094L599.441 42.8148L600.168 42.1282ZM580.786 42.1282L581.514 42.8143L581.523 42.8039L580.786 42.1282ZM580.669 66.3261L579.921 66.9904L579.927 66.9962L579.932 67.0018L580.669 66.3261ZM590.301 86.9397C584.027 86.9397 578.395 85.602 573.385 82.945L572.448 84.7119C577.774 87.5366 583.733 88.9397 590.301 88.9397V86.9397ZM573.39 82.948C568.465 80.296 564.565 76.512 561.681 71.5772L559.954 72.5866C563.02 77.8321 567.187 81.8791 572.442 84.7089L573.39 82.948ZM561.686 71.5872C558.888 66.6708 557.471 60.8952 557.471 54.2271H555.471C555.471 61.185 556.952 67.3126 559.948 72.5766L561.686 71.5872ZM557.471 54.2271C557.471 47.6442 558.924 41.9108 561.798 36.9945L560.071 35.9851C556.994 41.2492 555.471 47.3407 555.471 54.2271H557.471ZM561.801 36.9888C564.685 31.98 568.621 28.1602 573.62 25.5093L572.683 23.7424C567.344 26.5732 563.136 30.6627 560.068 35.9909L561.801 36.9888ZM573.62 25.5093C578.63 22.8522 584.262 21.5145 590.536 21.5145V19.5145C583.967 19.5145 578.009 20.9177 572.683 23.7424L573.62 25.5093ZM590.536 21.5145C596.81 21.5145 602.442 22.8522 607.452 25.5093L608.389 23.7424C603.063 20.9177 597.104 19.5145 590.536 19.5145V21.5145ZM607.452 25.5093C612.451 28.1602 616.387 31.98 619.271 36.9888L621.004 35.9909C617.936 30.6627 613.727 26.5732 608.389 23.7424L607.452 25.5093ZM619.274 36.9945C622.148 41.9108 623.601 47.6442 623.601 54.2271H625.601C625.601 47.3407 624.078 41.2492 621.001 35.9851L619.274 36.9945ZM623.601 54.2271C623.601 60.8052 622.111 66.5769 619.159 71.5732L620.881 72.5906C624.037 67.2499 625.601 61.1185 625.601 54.2271H623.601ZM619.157 71.5772C616.276 76.5044 612.304 80.2879 607.223 82.9421L608.149 84.7148C613.562 81.8872 617.812 77.8397 620.883 72.5866L619.157 71.5772ZM607.217 82.945C602.207 85.602 596.575 86.9397 590.301 86.9397V88.9397C596.87 88.9397 602.828 87.5366 608.154 84.7119L607.217 82.945ZM590.301 71.5548C594.417 71.5548 597.928 70.0295 600.778 67.0127L599.324 65.6394C596.848 68.261 593.86 69.5548 590.301 69.5548V71.5548ZM600.768 67.0232C603.744 63.9617 605.162 59.6447 605.162 54.2271H603.162C603.162 59.3031 601.839 63.0521 599.334 65.629L600.768 67.0232ZM605.162 54.2271C605.162 48.8168 603.787 44.5038 600.895 41.4416L599.441 42.8148C601.874 45.3909 603.162 49.1438 603.162 54.2271H605.162ZM600.905 41.4525C598.131 38.4259 594.652 36.8994 590.536 36.8994V38.8994C594.094 38.8994 597.037 40.1922 599.431 42.8039L600.905 41.4525ZM590.536 36.8994C586.348 36.8994 582.828 38.4211 580.049 41.4525L581.523 42.8039C583.913 40.1969 586.893 38.8994 590.536 38.8994V36.8994ZM580.059 41.4422C577.238 44.4334 575.91 48.7527 575.91 54.2271H577.91C577.91 49.0513 579.166 45.3047 581.514 42.8142L580.059 41.4422ZM575.91 54.2271C575.91 59.6231 577.199 63.9275 579.921 66.9904L581.416 65.6617C579.127 63.0863 577.91 59.3248 577.91 54.2271H575.91ZM579.932 67.0018C582.706 70.0284 586.185 71.5548 590.301 71.5548V69.5548C586.743 69.5548 583.8 68.2621 581.406 65.6503L579.932 67.0018ZM637.372 36.3724L636.48 35.9196L636.474 35.9307L637.372 36.3724ZM647.826 24.6258L648.356 25.4738L648.356 25.4738L647.826 24.6258ZM674.256 23.2162L673.801 24.1067L673.809 24.1107L674.256 23.2162ZM682.713 30.4991L681.881 31.0538L683.713 33.8019V30.4991H682.713ZM682.713 0.0755346V-0.924465H681.713V0.0755346H682.713ZM702.8 0.0755346H703.8V-0.924465H702.8V0.0755346ZM702.8 87V88H703.8V87H702.8ZM682.713 87H681.713V88H682.713V87ZM682.713 77.6028H683.713V73.9924L681.856 77.0883L682.713 77.6028ZM674.608 85.1206L674.138 84.2382L674.129 84.2427L674.608 85.1206ZM647.826 83.8284L647.285 84.6697L647.296 84.6764L647.826 83.8284ZM637.372 71.9644L636.472 72.4007L636.476 72.4089L636.48 72.4171L637.372 71.9644ZM678.485 42.3631L677.758 43.0504L677.768 43.0605L678.485 42.3631ZM658.163 42.3631L657.446 41.6658L657.446 41.666L658.163 42.3631ZM658.163 66.0911L657.428 66.7686L657.437 66.7787L657.446 66.7885L658.163 66.0911ZM678.485 66.0911L677.768 65.3937L677.758 65.4039L678.485 66.0911ZM634.613 54.1097C634.613 47.4997 635.842 41.7434 638.269 36.8141L636.474 35.9307C633.889 41.1817 632.613 47.2502 632.613 54.1097H634.613ZM638.263 36.8251C640.774 31.8797 644.141 28.1084 648.356 25.4738L647.296 23.7778C642.741 26.6249 639.138 30.6847 636.48 35.9197L638.263 36.8251ZM648.356 25.4738C652.575 22.8369 657.284 21.5145 662.509 21.5145V19.5145C656.927 19.5145 651.848 20.9331 647.296 23.7778L648.356 25.4738ZM662.509 21.5145C666.672 21.5145 670.43 22.3838 673.801 24.1067L674.711 22.3258C671.034 20.4464 666.96 19.5145 662.509 19.5145V21.5145ZM673.809 24.1107C677.271 25.8417 679.951 28.1583 681.881 31.0538L683.545 29.9444C681.404 26.7317 678.445 24.193 674.703 22.3218L673.809 24.1107ZM683.713 30.4991V0.0755346H681.713V30.4991H683.713ZM682.713 1.07553H702.8V-0.924465H682.713V1.07553ZM701.8 0.0755346V87H703.8V0.0755346H701.8ZM702.8 86H682.713V88H702.8V86ZM683.713 87V77.6028H681.713V87H683.713ZM681.856 77.0883C680.078 80.0509 677.517 82.4358 674.138 84.2382L675.079 86.0029C678.747 84.0464 681.59 81.4194 683.571 78.1173L681.856 77.0883ZM674.129 84.2427C670.855 86.0289 666.992 86.9397 662.509 86.9397V88.9397C667.267 88.9397 671.47 87.9711 675.087 85.9984L674.129 84.2427ZM662.509 86.9397C657.284 86.9397 652.575 85.6174 648.356 82.9804L647.296 84.6764C651.848 87.5212 656.927 88.9397 662.509 88.9397V86.9397ZM648.367 82.9873C644.145 80.2731 640.775 76.459 638.263 71.5117L636.48 72.4171C639.137 77.6501 642.737 81.7454 647.285 84.6696L648.367 82.9873ZM638.271 71.5281C635.842 66.5172 634.613 60.7192 634.613 54.1097H632.613C632.613 60.9695 633.89 67.0747 636.472 72.4007L638.271 71.5281ZM683.713 54.2271C683.713 49.0207 682.243 44.7923 679.201 41.6658L677.768 43.0605C680.364 45.7288 681.713 49.4099 681.713 54.2271H683.713ZM679.211 41.6759C676.281 38.5784 672.651 37.0169 668.383 37.0169V39.0169C672.102 39.0169 675.206 40.3528 677.758 43.0503L679.211 41.6759ZM668.383 37.0169C664.115 37.0169 660.451 38.5775 657.446 41.6658L658.88 43.0605C661.513 40.3538 664.662 39.0169 668.383 39.0169V37.0169ZM657.446 41.666C654.478 44.7193 653.052 48.9122 653.052 54.1097H655.052C655.052 49.2834 656.367 45.6452 658.88 43.0602L657.446 41.666ZM653.052 54.1097C653.052 59.3098 654.478 63.5667 657.428 66.7686L658.899 65.4137C656.366 62.664 655.052 58.9332 655.052 54.1097H653.052ZM657.446 66.7885C660.451 69.8768 664.115 71.4374 668.383 71.4374V69.4374C664.662 69.4374 661.513 68.1004 658.88 65.3938L657.446 66.7885ZM668.383 71.4374C672.651 71.4374 676.281 69.8758 679.211 66.7783L677.758 65.4039C675.206 68.1014 672.102 69.4374 668.383 69.4374V71.4374ZM679.201 66.7885C682.243 63.6619 683.713 59.4336 683.713 54.2271H681.713C681.713 59.0444 680.364 62.7254 677.768 65.3938L679.201 66.7885ZM781.115 59.0432V60.0432H782.007L782.109 59.1578L781.115 59.0432ZM735.656 59.0432V58.0432H734.576L734.659 59.1199L735.656 59.0432ZM739.533 68.4405L738.838 69.1599L738.851 69.172L738.864 69.1837L739.533 68.4405ZM758.562 65.2689V64.2689H757.923L757.655 64.8488L758.562 65.2689ZM779.941 65.2689L780.91 65.5156L781.227 64.2689H779.941V65.2689ZM773.95 76.898L773.185 76.2543L773.176 76.2647L773.95 76.898ZM763.261 85.0031L763.674 85.9135L763.261 85.0031ZM731.662 83.8284L731.183 84.7058L731.183 84.7058L731.662 83.8284ZM719.916 72.0819L720.791 71.5974L720.791 71.5974L719.916 72.0819ZM719.798 36.3724L718.924 35.8878L718.918 35.8983L719.798 36.3724ZM731.545 24.6258L732.025 25.5032L732.025 25.5032L731.545 24.6258ZM765.727 24.5084L765.253 25.3884L765.253 25.3884L765.727 24.5084ZM777.239 35.9025L776.365 36.3882L776.371 36.3986L777.239 35.9025ZM760.911 47.884V48.884H761.911V47.884H760.911ZM757.387 39.6614L758.042 38.9057L758.042 38.9057L757.387 39.6614ZM740.003 39.5439L739.362 38.7757L739.356 38.7811L739.35 38.7865L740.003 39.5439ZM735.774 47.884L734.785 47.7335L734.61 48.884H735.774V47.884ZM780.468 53.1699C780.468 55.0078 780.353 56.9272 780.122 58.9286L782.109 59.1578C782.348 57.0871 782.468 55.0909 782.468 53.1699H780.468ZM781.115 58.0432L735.656 58.0432V60.0432L781.115 60.0432V58.0432ZM734.659 59.1199C734.986 63.3625 736.344 66.7521 738.838 69.1599L740.227 67.721C738.179 65.7434 736.953 62.8682 736.653 58.9665L734.659 59.1199ZM738.864 69.1837C741.409 71.4748 744.511 72.612 748.108 72.612V70.612C744.97 70.612 742.355 69.6349 740.202 67.6972L738.864 69.1837ZM748.108 72.612C750.755 72.612 753.068 72.0529 754.999 70.8812C756.935 69.7067 758.419 67.9571 759.47 65.689L757.655 64.8488C756.747 66.8094 755.51 68.2314 753.961 69.1713C752.408 70.114 750.473 70.612 748.108 70.612V72.612ZM758.562 66.2689H779.941V64.2689H758.562V66.2689ZM778.972 65.0222C777.913 69.1814 775.987 72.9224 773.185 76.2544L774.715 77.5416C777.709 73.9822 779.776 69.9705 780.91 65.5156L778.972 65.0222ZM773.176 76.2647C770.46 79.5842 767.023 82.1944 762.847 84.0927L763.674 85.9135C768.112 83.8963 771.802 81.1031 774.724 77.5312L773.176 76.2647ZM762.847 84.0927C758.685 85.9844 754.013 86.9397 748.812 86.9397V88.9397C754.262 88.9397 759.222 87.9373 763.674 85.9135L762.847 84.0927ZM748.812 86.9397C742.538 86.9397 736.99 85.6019 732.142 82.9511L731.183 84.7058C736.359 87.5367 742.244 88.9397 748.812 88.9397V86.9397ZM732.142 82.9511C727.3 80.3029 723.52 76.5251 720.791 71.5974L719.041 72.5664C721.95 77.819 726.001 81.8723 731.183 84.7058L732.142 82.9511ZM720.791 71.5974C718.067 66.679 716.687 60.8997 716.687 54.2271H714.687C714.687 61.1805 716.127 67.3044 719.041 72.5664L720.791 71.5974ZM716.687 54.2271C716.687 47.5501 718.029 41.767 720.679 36.8465L718.918 35.8983C716.086 41.1581 714.687 47.2782 714.687 54.2271H716.687ZM720.673 36.8569C723.402 31.9292 727.182 28.1514 732.025 25.5032L731.065 23.7485C725.884 26.582 721.833 30.6352 718.924 35.8879L720.673 36.8569ZM732.025 25.5032C736.87 22.8533 742.457 21.5145 748.812 21.5145V19.5145C742.168 19.5145 736.243 20.9166 731.065 23.7485L732.025 25.5032ZM748.812 21.5145C755.012 21.5145 760.483 22.8144 765.253 25.3884L766.202 23.6283C761.105 20.8772 755.299 19.5145 748.812 19.5145V21.5145ZM765.253 25.3884C770.017 27.9596 773.716 31.6203 776.365 36.3882L778.113 35.4169C775.28 30.3176 771.305 26.3822 766.202 23.6283L765.253 25.3884ZM776.371 36.3986C779.091 41.1587 780.468 46.7382 780.468 53.1699H782.468C782.468 46.4456 781.026 40.5134 778.107 35.4064L776.371 36.3986ZM761.911 47.884C761.911 44.1836 760.636 41.1537 758.042 38.9057L756.732 40.4171C758.837 42.2413 759.911 44.6931 759.911 47.884H761.911ZM758.042 38.9057C755.487 36.691 752.308 35.6073 748.578 35.6073V37.6073C751.895 37.6073 754.589 38.5597 756.732 40.4171L758.042 38.9057ZM748.578 35.6073C745.002 35.6073 741.91 36.6528 739.362 38.7757L740.643 40.3122C742.794 38.5196 745.419 37.6073 748.578 37.6073V35.6073ZM739.35 38.7865C736.861 40.9318 735.361 43.9483 734.785 47.7335L736.762 48.0344C737.283 44.6151 738.602 42.0716 740.655 40.3013L739.35 38.7865ZM735.774 48.884L760.911 48.884V46.884L735.774 46.884V48.884ZM846.099 4.53922H847.099V3.53922H846.099V4.53922ZM838.698 80.7743L838.009 80.0502L838.003 80.0557L838.698 80.7743ZM798.055 80.4219L797.37 81.1505L797.37 81.1505L798.055 80.4219ZM790.185 59.3956V58.3956H789.185V59.3956H790.185ZM810.154 59.3956H811.154V58.3956H810.154V59.3956ZM812.269 67.2658L811.481 67.8821L811.488 67.8906L811.495 67.899L812.269 67.2658ZM824.015 67.5007L823.253 66.8531L823.253 66.8531L824.015 67.5007ZM826.012 4.53922V3.53922H825.012V4.53922H826.012ZM845.099 4.53922V60.6877H847.099V4.53922H845.099ZM845.099 60.6877C845.099 69.1863 842.693 75.5891 838.009 80.0502L839.388 81.4985C844.571 76.5623 847.099 69.574 847.099 60.6877H845.099ZM838.003 80.0557C833.375 84.5345 827.068 86.8223 818.964 86.8223V88.8223C827.462 88.8223 834.311 86.4114 839.394 81.4929L838.003 80.0557ZM818.964 86.8223C810.471 86.8223 803.765 84.4178 798.74 79.6934L797.37 81.1505C802.839 86.2932 810.073 88.8223 818.964 88.8223V86.8223ZM798.74 79.6934C793.744 74.9956 791.185 68.2804 791.185 59.3956H789.185C789.185 68.6788 791.873 75.9811 797.37 81.1505L798.74 79.6934ZM790.185 60.3956H810.154V58.3956H790.185V60.3956ZM809.154 59.3956C809.154 62.9567 809.88 65.8356 811.481 67.8821L813.056 66.6495C811.839 65.0937 811.154 62.7258 811.154 59.3956H809.154ZM811.495 67.899C813.132 69.9001 815.479 70.85 818.377 70.85V68.85C815.949 68.85 814.224 68.0771 813.043 66.6326L811.495 67.899ZM818.377 70.85C821.039 70.85 823.221 69.9793 824.777 68.1484L823.253 66.8531C822.147 68.1546 820.57 68.85 818.377 68.85V70.85ZM824.777 68.1484C826.318 66.3354 827.012 63.7968 827.012 60.6877H825.012C825.012 63.5302 824.375 65.5336 823.253 66.8531L824.777 68.1484ZM827.012 60.6877V4.53922H825.012V60.6877H827.012ZM826.012 5.53922H846.099V3.53922H826.012V5.53922ZM878.299 84.8856L877.92 85.8109L877.92 85.8109L878.299 84.8856ZM866.787 76.1932L865.981 76.7853L865.989 76.7958L866.787 76.1932ZM862.324 62.3322V61.3322H861.294L861.324 62.3612L862.324 62.3322ZM883.702 62.3322L884.697 62.2302L884.605 61.3322H883.702V62.3322ZM886.874 69.3802L886.2 70.1187L886.209 70.1268L886.218 70.1348L886.874 69.3802ZM900.97 69.7326L901.581 70.5239L901.592 70.5153L901.603 70.5065L900.97 69.7326ZM901.44 58.9257L900.732 59.6329L900.743 59.643L900.753 59.6528L901.44 58.9257ZM896.389 55.6367L895.986 56.552L895.992 56.5549L895.999 56.5577L896.389 55.6367ZM887.931 52.7001L887.636 53.6556L887.646 53.6585L887.931 52.7001ZM874.892 47.7665L874.454 48.6651L874.454 48.6651L874.892 47.7665ZM866.2 40.4837L866.998 39.8806L866.998 39.8806L866.2 40.4837ZM870.899 9.94263L871.511 10.7332L871.518 10.7278L870.899 9.94263ZM914.596 9.94263L913.976 10.7278L913.983 10.7332L914.596 9.94263ZM923.523 28.0323V29.0323H924.575L924.522 27.9819L923.523 28.0323ZM901.792 28.0323L900.794 28.091L900.849 29.0323H901.792V28.0323ZM898.855 21.8067L898.199 22.5613L898.209 22.5696L898.218 22.5776L898.855 21.8067ZM886.052 21.4543L886.696 22.2192L886.707 22.2095L886.718 22.1995L886.052 21.4543ZM887.579 33.2008L888.089 32.3409L888.089 32.3409L887.579 33.2008ZM899.325 38.0169L899.646 37.0695L899.633 37.0654L899.325 38.0169ZM912.246 43.1854L911.799 44.0798L911.808 44.0839L912.246 43.1854ZM920.939 50.3508L920.148 50.9633L920.148 50.9633L920.939 50.3508ZM920.939 75.2535L920.094 74.7188L920.09 74.725L920.086 74.7313L920.939 75.2535ZM910.602 84.4158L910.155 83.5213L910.155 83.5213L910.602 84.4158ZM894.509 86.8223C888.588 86.8223 883.316 85.8612 878.678 83.9603L877.92 85.8109C882.835 87.8256 888.371 88.8223 894.509 88.8223V86.8223ZM878.678 83.9603C874.055 82.0654 870.367 79.274 867.585 75.5906L865.989 76.7958C869.003 80.7867 872.989 83.7903 877.92 85.8109L878.678 83.9603ZM867.593 75.6011C864.91 71.9491 863.475 67.5321 863.323 62.3033L861.324 62.3612C861.486 67.9392 863.026 72.7628 865.981 76.7853L867.593 75.6011ZM862.324 63.3322H883.702V61.3322H862.324V63.3322ZM882.708 62.4343C883.039 65.6672 884.174 68.269 886.2 70.1187L887.548 68.6417C885.972 67.2024 884.992 65.1055 884.697 62.2302L882.708 62.4343ZM886.218 70.1348C888.238 71.8913 890.837 72.7295 893.922 72.7295V70.7295C891.212 70.7295 889.112 70.0014 887.53 68.6256L886.218 70.1348ZM893.922 72.7295C897.039 72.7295 899.629 72.0324 901.581 70.5239L900.358 68.9413C898.865 70.0953 896.756 70.7295 893.922 70.7295V72.7295ZM901.603 70.5065C903.581 68.8883 904.554 66.6734 904.554 63.9768H902.554C902.554 66.1354 901.804 67.7577 900.336 68.9586L901.603 70.5065ZM904.554 63.9768C904.554 61.6811 903.747 59.7293 902.126 58.1987L900.753 59.6528C901.952 60.7847 902.554 62.2003 902.554 63.9768H904.554ZM902.147 58.2186C900.71 56.7819 898.913 55.6187 896.778 54.7157L895.999 56.5577C897.937 57.3775 899.507 58.4071 900.732 59.6329L902.147 58.2186ZM896.791 54.7214C894.777 53.835 891.911 52.8422 888.217 51.7417L887.646 53.6585C891.312 54.7507 894.085 55.7156 895.986 56.552L896.791 54.7214ZM888.226 51.7446C882.929 50.1087 878.636 48.4818 875.331 46.868L874.454 48.6651C877.884 50.3403 882.283 52.0024 887.636 53.6555L888.226 51.7446ZM875.331 46.868C872.115 45.2974 869.338 42.9755 866.998 39.8806L865.402 41.0868C867.917 44.4133 870.935 46.9466 874.454 48.6651L875.331 46.868ZM866.998 39.8806C864.734 36.8873 863.558 32.9279 863.558 27.9149H861.558C861.558 33.2388 862.81 37.6585 865.402 41.0868L866.998 39.8806ZM863.558 27.9149C863.558 20.5173 866.22 14.8318 871.511 10.7332L870.286 9.15209C864.457 13.6676 861.558 19.9636 861.558 27.9149H863.558ZM871.518 10.7278C876.86 6.5145 883.867 4.36457 892.63 4.36457V2.36457C883.537 2.36457 876.057 4.60002 870.279 9.15747L871.518 10.7278ZM892.63 4.36457C901.553 4.36457 908.637 6.51678 913.976 10.7278L915.215 9.15747C909.434 4.59773 901.874 2.36457 892.63 2.36457V4.36457ZM913.983 10.7332C919.287 14.8418 922.146 20.5873 922.524 28.0828L924.522 27.9819C924.117 19.9719 921.024 13.6576 915.208 9.15209L913.983 10.7332ZM923.523 27.0323L901.792 27.0323V29.0323L923.523 29.0323V27.0323ZM902.79 27.9736C902.62 25.0769 901.539 22.7263 899.492 21.0357L898.218 22.5776C899.774 23.8628 900.651 25.6626 900.794 28.091L902.79 27.9736ZM899.512 21.052C897.496 19.2998 894.939 18.4573 891.925 18.4573V20.4573C894.549 20.4573 896.612 21.1811 898.199 22.5613L899.512 21.052ZM891.925 18.4573C889.307 18.4573 887.094 19.18 885.385 20.709L886.718 22.1995C887.985 21.066 889.688 20.4573 891.925 20.4573V18.4573ZM885.407 20.6893C883.639 22.1782 882.82 24.3321 882.82 26.9751H884.82C884.82 24.7629 885.488 23.2362 886.696 22.2192L885.407 20.6893ZM882.82 26.9751C882.82 30.0291 884.293 32.4132 887.068 34.0607L888.089 32.3409C885.852 31.0126 884.82 29.2462 884.82 26.9751H882.82ZM887.068 34.0607C889.672 35.6069 893.674 37.2395 899.017 38.9683L899.633 37.0654C894.327 35.3487 890.497 33.7705 888.089 32.3409L887.068 34.0607ZM899.005 38.9642C904.307 40.7574 908.567 42.4635 911.799 44.0798L912.694 42.2909C909.348 40.6182 904.994 38.8786 899.646 37.0696L899.005 38.9642ZM911.808 44.0839C915.029 45.6574 917.809 47.9448 920.148 50.9633L921.729 49.7382C919.213 46.4919 916.198 44.0023 912.685 42.2868L911.808 44.0839ZM920.148 50.9633C922.41 53.8812 923.58 57.6825 923.58 62.4497H925.58C925.58 57.3498 924.323 53.0852 921.729 49.7382L920.148 50.9633ZM923.58 62.4497C923.58 66.966 922.417 71.0473 920.094 74.7188L921.784 75.7881C924.316 71.7852 925.58 67.3307 925.58 62.4497H923.58ZM920.086 74.7313C917.847 78.3891 914.551 81.323 910.155 83.5213L911.049 85.3102C915.736 82.9666 919.333 79.7923 921.792 75.7756L920.086 74.7313ZM910.155 83.5213C905.779 85.7094 900.574 86.8223 894.509 86.8223V88.8223C900.817 88.8223 906.341 87.6641 911.049 85.3102L910.155 83.5213ZM1013.06 87V88H1014.06V87H1013.06ZM992.973 87L992.138 87.5511L992.435 88H992.973V87ZM959.378 36.1374L960.212 35.5863L958.378 32.809V36.1374H959.378ZM959.378 87V88H960.378V87H959.378ZM939.291 87H938.291V88H939.291V87ZM939.291 4.53922V3.53922H938.291V4.53922H939.291ZM959.378 4.53922L960.213 3.98985L959.917 3.53922H959.378V4.53922ZM992.973 55.6367L992.137 56.1861L993.973 58.978V55.6367H992.973ZM992.973 4.53922V3.53922H991.973V4.53922H992.973ZM1013.06 4.53922H1014.06V3.53922H1013.06V4.53922ZM1013.06 86H992.973V88H1013.06V86ZM993.807 86.4489L960.212 35.5863L958.543 36.6886L992.138 87.5511L993.807 86.4489ZM958.378 36.1374V87H960.378V36.1374H958.378ZM959.378 86H939.291V88H959.378V86ZM940.291 87V4.53922H938.291V87H940.291ZM939.291 5.53922L959.378 5.53922V3.53922L939.291 3.53922V5.53922ZM958.542 5.08859L992.137 56.1861L993.808 55.0873L960.213 3.98985L958.542 5.08859ZM993.973 55.6367V4.53922H991.973V55.6367H993.973ZM992.973 5.53922H1013.06V3.53922H992.973V5.53922ZM1012.06 4.53922V87H1014.06V4.53922H1012.06ZM1042.42 83.8284L1041.95 84.7089L1041.95 84.7119L1042.42 83.8284ZM1030.32 72.0819L1029.45 72.5766L1029.46 72.5866L1030.32 72.0819ZM1030.44 36.4898L1031.3 36.9945L1031.31 36.9888L1030.44 36.4898ZM1042.66 24.6258L1043.12 25.5093L1043.12 25.5093L1042.66 24.6258ZM1077.42 24.6258L1076.96 25.5093L1076.96 25.5093L1077.42 24.6258ZM1089.64 36.4898L1088.77 36.9888L1088.78 36.9945L1089.64 36.4898ZM1089.52 72.0819L1088.66 71.5731L1088.66 71.5772L1089.52 72.0819ZM1077.19 83.8284L1076.73 82.9421L1076.72 82.945L1077.19 83.8284ZM1069.55 66.3261L1068.84 65.629L1068.83 65.6342L1068.83 65.6394L1069.55 66.3261ZM1069.67 42.1282L1068.94 42.8039L1068.94 42.8094L1068.95 42.8148L1069.67 42.1282ZM1050.29 42.1282L1051.02 42.8143L1051.03 42.8039L1050.29 42.1282ZM1050.17 66.3261L1049.43 66.9904L1049.43 66.9962L1049.44 67.0018L1050.17 66.3261ZM1059.81 86.9397C1053.53 86.9397 1047.9 85.602 1042.89 82.945L1041.95 84.7119C1047.28 87.5366 1053.24 88.9397 1059.81 88.9397V86.9397ZM1042.89 82.948C1037.97 80.296 1034.07 76.512 1031.18 71.5772L1029.46 72.5866C1032.52 77.8321 1036.69 81.8791 1041.95 84.7089L1042.89 82.948ZM1031.19 71.5872C1028.39 66.6708 1026.98 60.8952 1026.98 54.2271H1024.98C1024.98 61.185 1026.46 67.3126 1029.45 72.5766L1031.19 71.5872ZM1026.98 54.2271C1026.98 47.6442 1028.43 41.9108 1031.3 36.9945L1029.58 35.9851C1026.5 41.2492 1024.98 47.3407 1024.98 54.2271H1026.98ZM1031.31 36.9888C1034.19 31.98 1038.12 28.1602 1043.12 25.5093L1042.19 23.7424C1036.85 26.5732 1032.64 30.6627 1029.57 35.9909L1031.31 36.9888ZM1043.12 25.5093C1048.13 22.8522 1053.77 21.5145 1060.04 21.5145V19.5145C1053.47 19.5145 1047.51 20.9177 1042.19 23.7424L1043.12 25.5093ZM1060.04 21.5145C1066.31 21.5145 1071.95 22.8522 1076.96 25.5093L1077.89 23.7424C1072.57 20.9177 1066.61 19.5145 1060.04 19.5145V21.5145ZM1076.96 25.5093C1081.96 28.1602 1085.89 31.98 1088.77 36.9888L1090.51 35.9909C1087.44 30.6627 1083.23 26.5732 1077.89 23.7424L1076.96 25.5093ZM1088.78 36.9945C1091.65 41.9108 1093.11 47.6442 1093.11 54.2271H1095.11C1095.11 47.3407 1093.58 41.2492 1090.5 35.9851L1088.78 36.9945ZM1093.11 54.2271C1093.11 60.8052 1091.62 66.5769 1088.66 71.5732L1090.38 72.5906C1093.54 67.2499 1095.11 61.1185 1095.11 54.2271H1093.11ZM1088.66 71.5772C1085.78 76.5044 1081.81 80.2879 1076.73 82.9421L1077.65 84.7148C1083.07 81.8872 1087.32 77.8397 1090.39 72.5866L1088.66 71.5772ZM1076.72 82.945C1071.71 85.602 1066.08 86.9397 1059.81 86.9397V88.9397C1066.37 88.9397 1072.33 87.5366 1077.66 84.7119L1076.72 82.945ZM1059.81 71.5548C1063.92 71.5548 1067.43 70.0295 1070.28 67.0127L1068.83 65.6394C1066.35 68.261 1063.36 69.5548 1059.81 69.5548V71.5548ZM1070.27 67.0232C1073.25 63.9617 1074.67 59.6447 1074.67 54.2271H1072.67C1072.67 59.3031 1071.34 63.0521 1068.84 65.629L1070.27 67.0232ZM1074.67 54.2271C1074.67 48.8168 1073.29 44.5038 1070.4 41.4416L1068.95 42.8148C1071.38 45.3909 1072.67 49.1438 1072.67 54.2271H1074.67ZM1070.41 41.4525C1067.64 38.4259 1064.16 36.8994 1060.04 36.8994V38.8994C1063.6 38.8994 1066.54 40.1922 1068.94 42.8039L1070.41 41.4525ZM1060.04 36.8994C1055.85 36.8994 1052.33 38.4211 1049.55 41.4525L1051.03 42.8039C1053.42 40.1969 1056.4 38.8994 1060.04 38.8994V36.8994ZM1049.56 41.4422C1046.74 44.4334 1045.41 48.7527 1045.41 54.2271H1047.41C1047.41 49.0513 1048.67 45.3047 1051.02 42.8142L1049.56 41.4422ZM1045.41 54.2271C1045.41 59.6231 1046.7 63.9275 1049.43 66.9904L1050.92 65.6617C1048.63 63.0863 1047.41 59.3248 1047.41 54.2271H1045.41ZM1049.44 67.0018C1052.21 70.0284 1055.69 71.5548 1059.81 71.5548V69.5548C1056.25 69.5548 1053.3 68.2621 1050.91 65.6503L1049.44 67.0018ZM1106.88 36.3724L1105.98 35.9196L1105.98 35.9307L1106.88 36.3724ZM1117.33 24.6258L1117.86 25.4738L1117.86 25.4738L1117.33 24.6258ZM1143.76 23.2162L1143.3 24.1067L1143.31 24.1107L1143.76 23.2162ZM1152.22 30.4991L1151.39 31.0538L1153.22 33.8019V30.4991H1152.22ZM1152.22 0.0755346V-0.924465H1151.22V0.0755346H1152.22ZM1172.3 0.0755346H1173.3V-0.924465H1172.3V0.0755346ZM1172.3 87V88H1173.3V87H1172.3ZM1152.22 87H1151.22V88H1152.22V87ZM1152.22 77.6028H1153.22V73.9924L1151.36 77.0883L1152.22 77.6028ZM1144.11 85.1206L1143.64 84.2382L1143.63 84.2427L1144.11 85.1206ZM1117.33 83.8284L1116.79 84.6697L1116.8 84.6764L1117.33 83.8284ZM1106.88 71.9644L1105.98 72.4007L1105.98 72.4089L1105.98 72.4171L1106.88 71.9644ZM1147.99 42.3631L1147.26 43.0504L1147.27 43.0605L1147.99 42.3631ZM1127.67 42.3631L1126.95 41.6658L1126.95 41.666L1127.67 42.3631ZM1127.67 66.0911L1126.93 66.7686L1126.94 66.7787L1126.95 66.7885L1127.67 66.0911ZM1147.99 66.0911L1147.27 65.3937L1147.26 65.4039L1147.99 66.0911ZM1104.12 54.1097C1104.12 47.4997 1105.35 41.7434 1107.77 36.8141L1105.98 35.9307C1103.39 41.1817 1102.12 47.2502 1102.12 54.1097H1104.12ZM1107.77 36.8251C1110.28 31.8797 1113.64 28.1084 1117.86 25.4738L1116.8 23.7778C1112.24 26.6249 1108.64 30.6847 1105.98 35.9197L1107.77 36.8251ZM1117.86 25.4738C1122.08 22.8369 1126.79 21.5145 1132.01 21.5145V19.5145C1126.43 19.5145 1121.35 20.9331 1116.8 23.7778L1117.86 25.4738ZM1132.01 21.5145C1136.18 21.5145 1139.93 22.3838 1143.3 24.1067L1144.21 22.3258C1140.54 20.4464 1136.46 19.5145 1132.01 19.5145V21.5145ZM1143.31 24.1107C1146.77 25.8417 1149.45 28.1583 1151.39 31.0538L1153.05 29.9444C1150.91 26.7317 1147.95 24.193 1144.21 22.3218L1143.31 24.1107ZM1153.22 30.4991V0.0755346H1151.22V30.4991H1153.22ZM1152.22 1.07553L1172.3 1.07553V-0.924465L1152.22 -0.924465V1.07553ZM1171.3 0.0755346V87H1173.3V0.0755346H1171.3ZM1172.3 86H1152.22V88H1172.3V86ZM1153.22 87V77.6028H1151.22V87H1153.22ZM1151.36 77.0883C1149.58 80.0509 1147.02 82.4358 1143.64 84.2382L1144.58 86.0029C1148.25 84.0464 1151.09 81.4194 1153.07 78.1173L1151.36 77.0883ZM1143.63 84.2427C1140.36 86.0289 1136.5 86.9397 1132.01 86.9397V88.9397C1136.77 88.9397 1140.97 87.9711 1144.59 85.9984L1143.63 84.2427ZM1132.01 86.9397C1126.79 86.9397 1122.08 85.6174 1117.86 82.9804L1116.8 84.6764C1121.35 87.5212 1126.43 88.9397 1132.01 88.9397V86.9397ZM1117.87 82.9873C1113.65 80.2731 1110.28 76.459 1107.77 71.5117L1105.98 72.4171C1108.64 77.6501 1112.24 81.7454 1116.79 84.6696L1117.87 82.9873ZM1107.78 71.5281C1105.35 66.5172 1104.12 60.7192 1104.12 54.1097H1102.12C1102.12 60.9695 1103.39 67.0747 1105.98 72.4007L1107.78 71.5281ZM1153.22 54.2271C1153.22 49.0207 1151.75 44.7923 1148.71 41.6658L1147.27 43.0605C1149.87 45.7288 1151.22 49.4099 1151.22 54.2271H1153.22ZM1148.72 41.6759C1145.79 38.5784 1142.15 37.0169 1137.89 37.0169V39.0169C1141.61 39.0169 1144.71 40.3528 1147.26 43.0503L1148.72 41.6759ZM1137.89 37.0169C1133.62 37.0169 1129.96 38.5775 1126.95 41.6658L1128.38 43.0605C1131.02 40.3538 1134.17 39.0169 1137.89 39.0169V37.0169ZM1126.95 41.666C1123.98 44.7193 1122.56 48.9122 1122.56 54.1097H1124.56C1124.56 49.2834 1125.87 45.6452 1128.38 43.0602L1126.95 41.666ZM1122.56 54.1097C1122.56 59.3098 1123.98 63.5667 1126.93 66.7686L1128.4 65.4137C1125.87 62.664 1124.56 58.9332 1124.56 54.1097H1122.56ZM1126.95 66.7885C1129.96 69.8768 1133.62 71.4374 1137.89 71.4374V69.4374C1134.17 69.4374 1131.02 68.1004 1128.38 65.3938L1126.95 66.7885ZM1137.89 71.4374C1142.15 71.4374 1145.79 69.8758 1148.72 66.7783L1147.26 65.4039C1144.71 68.1014 1141.61 69.4374 1137.89 69.4374V71.4374ZM1148.71 66.7885C1151.75 63.6619 1153.22 59.4336 1153.22 54.2271H1151.22C1151.22 59.0444 1149.87 62.7254 1147.27 65.3938L1148.71 66.7885ZM1250.62 59.0432V60.0432H1251.51L1251.61 59.1578L1250.62 59.0432ZM1205.16 59.0432V58.0432H1204.08L1204.16 59.1199L1205.16 59.0432ZM1209.04 68.4405L1208.34 69.1599L1208.35 69.172L1208.37 69.1837L1209.04 68.4405ZM1228.07 65.2689V64.2689H1227.43L1227.16 64.8488L1228.07 65.2689ZM1249.44 65.2689L1250.41 65.5156L1250.73 64.2689H1249.44V65.2689ZM1243.45 76.898L1242.69 76.2543L1242.68 76.2647L1243.45 76.898ZM1232.76 85.0031L1233.18 85.9135L1232.76 85.0031ZM1201.17 83.8284L1200.69 84.7058L1200.69 84.7058L1201.17 83.8284ZM1189.42 72.0819L1190.29 71.5974L1190.29 71.5974L1189.42 72.0819ZM1189.3 36.3724L1188.43 35.8878L1188.42 35.8983L1189.3 36.3724ZM1201.05 24.6258L1201.53 25.5032L1201.53 25.5032L1201.05 24.6258ZM1235.23 24.5084L1234.76 25.3884L1234.76 25.3884L1235.23 24.5084ZM1246.74 35.9025L1245.87 36.3882L1245.87 36.3986L1246.74 35.9025ZM1230.42 47.884V48.884H1231.42V47.884H1230.42ZM1226.89 39.6614L1227.55 38.9057L1227.55 38.9057L1226.89 39.6614ZM1209.51 39.5439L1208.87 38.7757L1208.86 38.7811L1208.85 38.7865L1209.51 39.5439ZM1205.28 47.884L1204.29 47.7335L1204.11 48.884H1205.28V47.884ZM1249.97 53.1699C1249.97 55.0078 1249.86 56.9272 1249.63 58.9286L1251.61 59.1578C1251.85 57.0871 1251.97 55.0909 1251.97 53.1699H1249.97ZM1250.62 58.0432H1205.16V60.0432H1250.62V58.0432ZM1204.16 59.1199C1204.49 63.3625 1205.85 66.7521 1208.34 69.1599L1209.73 67.721C1207.68 65.7434 1206.46 62.8682 1206.16 58.9665L1204.16 59.1199ZM1208.37 69.1837C1210.91 71.4748 1214.01 72.612 1217.61 72.612V70.612C1214.47 70.612 1211.86 69.6349 1209.71 67.6972L1208.37 69.1837ZM1217.61 72.612C1220.26 72.612 1222.57 72.0529 1224.5 70.8812C1226.44 69.7067 1227.92 67.9571 1228.97 65.689L1227.16 64.8488C1226.25 66.8094 1225.01 68.2314 1223.47 69.1713C1221.91 70.114 1219.98 70.612 1217.61 70.612V72.612ZM1228.07 66.2689H1249.44V64.2689H1228.07V66.2689ZM1248.48 65.0222C1247.42 69.1814 1245.49 72.9224 1242.69 76.2544L1244.22 77.5416C1247.21 73.9822 1249.28 69.9705 1250.41 65.5156L1248.48 65.0222ZM1242.68 76.2647C1239.96 79.5842 1236.53 82.1944 1232.35 84.0927L1233.18 85.9135C1237.62 83.8963 1241.31 81.1031 1244.23 77.5312L1242.68 76.2647ZM1232.35 84.0927C1228.19 85.9844 1223.52 86.9397 1218.32 86.9397V88.9397C1223.77 88.9397 1228.73 87.9373 1233.18 85.9135L1232.35 84.0927ZM1218.32 86.9397C1212.04 86.9397 1206.49 85.6019 1201.65 82.9511L1200.69 84.7058C1205.86 87.5367 1211.75 88.9397 1218.32 88.9397V86.9397ZM1201.65 82.9511C1196.8 80.3029 1193.02 76.5251 1190.29 71.5974L1188.55 72.5664C1191.45 77.819 1195.51 81.8723 1200.69 84.7058L1201.65 82.9511ZM1190.29 71.5974C1187.57 66.679 1186.19 60.8997 1186.19 54.2271L1184.19 54.2271C1184.19 61.1805 1185.63 67.3044 1188.55 72.5664L1190.29 71.5974ZM1186.19 54.2271C1186.19 47.5501 1187.53 41.767 1190.18 36.8465L1188.42 35.8983C1185.59 41.1581 1184.19 47.2782 1184.19 54.2271L1186.19 54.2271ZM1190.18 36.8569C1192.91 31.9292 1196.69 28.1514 1201.53 25.5032L1200.57 23.7485C1195.39 26.582 1191.34 30.6352 1188.43 35.8879L1190.18 36.8569ZM1201.53 25.5032C1206.37 22.8533 1211.96 21.5145 1218.32 21.5145V19.5145C1211.67 19.5145 1205.75 20.9166 1200.57 23.7485L1201.53 25.5032ZM1218.32 21.5145C1224.52 21.5145 1229.99 22.8144 1234.76 25.3884L1235.71 23.6283C1230.61 20.8772 1224.8 19.5145 1218.32 19.5145V21.5145ZM1234.76 25.3884C1239.52 27.9596 1243.22 31.6203 1245.87 36.3882L1247.62 35.4169C1244.78 30.3176 1240.81 26.3822 1235.71 23.6283L1234.76 25.3884ZM1245.87 36.3986C1248.59 41.1587 1249.97 46.7382 1249.97 53.1699H1251.97C1251.97 46.4456 1250.53 40.5134 1247.61 35.4064L1245.87 36.3986ZM1231.42 47.884C1231.42 44.1836 1230.14 41.1537 1227.55 38.9057L1226.24 40.4171C1228.34 42.2413 1229.42 44.6931 1229.42 47.884H1231.42ZM1227.55 38.9057C1224.99 36.691 1221.81 35.6073 1218.08 35.6073V37.6073C1221.4 37.6073 1224.09 38.5597 1226.24 40.4171L1227.55 38.9057ZM1218.08 35.6073C1214.51 35.6073 1211.41 36.6528 1208.87 38.7757L1210.15 40.3122C1212.3 38.5196 1214.92 37.6073 1218.08 37.6073V35.6073ZM1208.85 38.7865C1206.37 40.9318 1204.87 43.9483 1204.29 47.7335L1206.27 48.0344C1206.79 44.6151 1208.11 42.0716 1210.16 40.3013L1208.85 38.7865ZM1205.28 48.884H1230.42V46.884H1205.28V48.884ZM1315.6 4.53922H1316.6V3.53922H1315.6V4.53922ZM1308.2 80.7743L1307.51 80.0502L1307.51 80.0557L1308.2 80.7743ZM1267.56 80.4219L1266.87 81.1505L1266.87 81.1505L1267.56 80.4219ZM1259.69 59.3956V58.3956H1258.69V59.3956H1259.69ZM1279.66 59.3956H1280.66V58.3956H1279.66V59.3956ZM1281.77 67.2658L1280.99 67.8821L1280.99 67.8906L1281 67.899L1281.77 67.2658ZM1293.52 67.5007L1292.76 66.8531L1292.76 66.8531L1293.52 67.5007ZM1295.52 4.53922V3.53922H1294.52V4.53922H1295.52ZM1314.6 4.53922V60.6877H1316.6V4.53922H1314.6ZM1314.6 60.6877C1314.6 69.1863 1312.2 75.5891 1307.51 80.0502L1308.89 81.4985C1314.07 76.5623 1316.6 69.574 1316.6 60.6877H1314.6ZM1307.51 80.0557C1302.88 84.5345 1296.57 86.8223 1288.47 86.8223V88.8223C1296.97 88.8223 1303.82 86.4114 1308.9 81.4929L1307.51 80.0557ZM1288.47 86.8223C1279.97 86.8223 1273.27 84.4178 1268.24 79.6934L1266.87 81.1505C1272.34 86.2932 1279.58 88.8223 1288.47 88.8223V86.8223ZM1268.24 79.6934C1263.25 74.9956 1260.69 68.2804 1260.69 59.3956H1258.69C1258.69 68.6788 1261.38 75.9811 1266.87 81.1505L1268.24 79.6934ZM1259.69 60.3956L1279.66 60.3956V58.3956L1259.69 58.3956V60.3956ZM1278.66 59.3956C1278.66 62.9567 1279.38 65.8356 1280.99 67.8821L1282.56 66.6495C1281.34 65.0937 1280.66 62.7258 1280.66 59.3956H1278.66ZM1281 67.899C1282.64 69.9001 1284.98 70.85 1287.88 70.85V68.85C1285.45 68.85 1283.73 68.0771 1282.55 66.6326L1281 67.899ZM1287.88 70.85C1290.54 70.85 1292.72 69.9793 1294.28 68.1484L1292.76 66.8531C1291.65 68.1546 1290.07 68.85 1287.88 68.85V70.85ZM1294.28 68.1484C1295.82 66.3354 1296.52 63.7968 1296.52 60.6877H1294.52C1294.52 63.5302 1293.88 65.5336 1292.76 66.8531L1294.28 68.1484ZM1296.52 60.6877V4.53922L1294.52 4.53922V60.6877H1296.52ZM1295.52 5.53922L1315.6 5.53922V3.53922L1295.52 3.53922V5.53922ZM1347.8 84.8856L1347.42 85.8109L1347.42 85.8109L1347.8 84.8856ZM1336.29 76.1932L1335.49 76.7853L1335.49 76.7958L1336.29 76.1932ZM1331.83 62.3322V61.3322H1330.8L1330.83 62.3612L1331.83 62.3322ZM1353.21 62.3322L1354.2 62.2302L1354.11 61.3322H1353.21V62.3322ZM1356.38 69.3802L1355.7 70.1187L1355.71 70.1268L1355.72 70.1348L1356.38 69.3802ZM1370.47 69.7326L1371.09 70.5239L1371.1 70.5153L1371.11 70.5065L1370.47 69.7326ZM1370.94 58.9257L1370.24 59.6329L1370.25 59.643L1370.26 59.6528L1370.94 58.9257ZM1365.89 55.6367L1365.49 56.552L1365.5 56.5549L1365.5 56.5577L1365.89 55.6367ZM1357.44 52.7001L1357.14 53.6556L1357.15 53.6585L1357.44 52.7001ZM1344.4 47.7665L1343.96 48.6651L1343.96 48.6651L1344.4 47.7665ZM1335.7 40.4837L1336.5 39.8806L1336.5 39.8806L1335.7 40.4837ZM1340.4 9.94263L1341.01 10.7332L1341.02 10.7278L1340.4 9.94263ZM1384.1 9.94263L1383.48 10.7278L1383.49 10.7332L1384.1 9.94263ZM1393.03 28.0323V29.0323H1394.08L1394.03 27.9819L1393.03 28.0323ZM1371.3 28.0323L1370.3 28.091L1370.35 29.0323H1371.3V28.0323ZM1368.36 21.8067L1367.7 22.5613L1367.71 22.5696L1367.72 22.5776L1368.36 21.8067ZM1355.56 21.4543L1356.2 22.2192L1356.21 22.2095L1356.22 22.1995L1355.56 21.4543ZM1357.08 33.2008L1357.59 32.3409L1357.59 32.3409L1357.08 33.2008ZM1368.83 38.0169L1369.15 37.0695L1369.14 37.0654L1368.83 38.0169ZM1381.75 43.1854L1381.3 44.0798L1381.31 44.0839L1381.75 43.1854ZM1390.44 50.3508L1389.65 50.9633L1389.65 50.9633L1390.44 50.3508ZM1390.44 75.2535L1389.6 74.7188L1389.59 74.725L1389.59 74.7313L1390.44 75.2535ZM1380.11 84.4158L1379.66 83.5213L1379.66 83.5213L1380.11 84.4158ZM1364.01 86.8223C1358.09 86.8223 1352.82 85.8612 1348.18 83.9603L1347.42 85.8109C1352.34 87.8256 1357.87 88.8223 1364.01 88.8223V86.8223ZM1348.18 83.9603C1343.56 82.0654 1339.87 79.274 1337.09 75.5906L1335.49 76.7958C1338.51 80.7867 1342.49 83.7903 1347.42 85.8109L1348.18 83.9603ZM1337.1 75.6011C1334.41 71.9491 1332.98 67.5321 1332.83 62.3033L1330.83 62.3612C1330.99 67.9392 1332.53 72.7628 1335.49 76.7853L1337.1 75.6011ZM1331.83 63.3322H1353.21V61.3322H1331.83V63.3322ZM1352.21 62.4343C1352.54 65.6672 1353.68 68.269 1355.7 70.1187L1357.05 68.6417C1355.48 67.2024 1354.5 65.1055 1354.2 62.2302L1352.21 62.4343ZM1355.72 70.1348C1357.74 71.8913 1360.34 72.7295 1363.43 72.7295V70.7295C1360.72 70.7295 1358.62 70.0014 1357.03 68.6256L1355.72 70.1348ZM1363.43 72.7295C1366.54 72.7295 1369.13 72.0324 1371.09 70.5239L1369.86 68.9413C1368.37 70.0953 1366.26 70.7295 1363.43 70.7295V72.7295ZM1371.11 70.5065C1373.08 68.8883 1374.06 66.6734 1374.06 63.9768H1372.06C1372.06 66.1354 1371.31 67.7577 1369.84 68.9586L1371.11 70.5065ZM1374.06 63.9768C1374.06 61.6811 1373.25 59.7293 1371.63 58.1987L1370.26 59.6528C1371.46 60.7847 1372.06 62.2003 1372.06 63.9768H1374.06ZM1371.65 58.2186C1370.21 56.7819 1368.42 55.6187 1366.28 54.7157L1365.5 56.5577C1367.44 57.3775 1369.01 58.4071 1370.24 59.6329L1371.65 58.2186ZM1366.3 54.7214C1364.28 53.835 1361.42 52.8422 1357.72 51.7417L1357.15 53.6585C1360.82 54.7507 1363.59 55.7156 1365.49 56.552L1366.3 54.7214ZM1357.73 51.7446C1352.43 50.1087 1348.14 48.4818 1344.84 46.868L1343.96 48.6651C1347.39 50.3403 1351.79 52.0024 1357.14 53.6555L1357.73 51.7446ZM1344.84 46.868C1341.62 45.2974 1338.84 42.9755 1336.5 39.8806L1334.91 41.0868C1337.42 44.4133 1340.44 46.9466 1343.96 48.6651L1344.84 46.868ZM1336.5 39.8806C1334.24 36.8873 1333.06 32.9279 1333.06 27.9149H1331.06C1331.06 33.2388 1332.31 37.6585 1334.91 41.0868L1336.5 39.8806ZM1333.06 27.9149C1333.06 20.5173 1335.72 14.8318 1341.01 10.7332L1339.79 9.15209C1333.96 13.6676 1331.06 19.9636 1331.06 27.9149H1333.06ZM1341.02 10.7278C1346.36 6.5145 1353.37 4.36457 1362.13 4.36457V2.36457C1353.04 2.36457 1345.56 4.60002 1339.78 9.15747L1341.02 10.7278ZM1362.13 4.36457C1371.06 4.36457 1378.14 6.51678 1383.48 10.7278L1384.72 9.15747C1378.94 4.59773 1371.38 2.36457 1362.13 2.36457V4.36457ZM1383.49 10.7332C1388.79 14.8418 1391.65 20.5873 1392.03 28.0828L1394.03 27.9819C1393.62 19.9719 1390.53 13.6576 1384.71 9.15209L1383.49 10.7332ZM1393.03 27.0323H1371.3V29.0323H1393.03V27.0323ZM1372.29 27.9736C1372.12 25.0769 1371.04 22.7263 1369 21.0357L1367.72 22.5776C1369.28 23.8628 1370.15 25.6626 1370.3 28.091L1372.29 27.9736ZM1369.02 21.052C1367 19.2998 1364.44 18.4573 1361.43 18.4573V20.4573C1364.05 20.4573 1366.12 21.1811 1367.7 22.5613L1369.02 21.052ZM1361.43 18.4573C1358.81 18.4573 1356.6 19.18 1354.89 20.709L1356.22 22.1995C1357.49 21.066 1359.19 20.4573 1361.43 20.4573V18.4573ZM1354.91 20.6893C1353.14 22.1782 1352.32 24.3321 1352.32 26.9751H1354.32C1354.32 24.7629 1354.99 23.2362 1356.2 22.2192L1354.91 20.6893ZM1352.32 26.9751C1352.32 30.0291 1353.8 32.4132 1356.57 34.0607L1357.59 32.3409C1355.36 31.0126 1354.32 29.2462 1354.32 26.9751H1352.32ZM1356.57 34.0607C1359.18 35.6069 1363.18 37.2395 1368.52 38.9683L1369.14 37.0654C1363.83 35.3487 1360 33.7705 1357.59 32.3409L1356.57 34.0607ZM1368.51 38.9642C1373.81 40.7574 1378.07 42.4635 1381.3 44.0798L1382.2 42.2909C1378.85 40.6182 1374.5 38.8786 1369.15 37.0696L1368.51 38.9642ZM1381.31 44.0839C1384.53 45.6574 1387.31 47.9448 1389.65 50.9633L1391.23 49.7382C1388.72 46.4919 1385.7 44.0023 1382.19 42.2868L1381.31 44.0839ZM1389.65 50.9633C1391.91 53.8812 1393.08 57.6825 1393.08 62.4497H1395.08C1395.08 57.3498 1393.83 53.0852 1391.23 49.7382L1389.65 50.9633ZM1393.08 62.4497C1393.08 66.966 1391.92 71.0473 1389.6 74.7188L1391.29 75.7881C1393.82 71.7852 1395.08 67.3307 1395.08 62.4497H1393.08ZM1389.59 74.7313C1387.35 78.3891 1384.06 81.323 1379.66 83.5213L1380.55 85.3102C1385.24 82.9666 1388.84 79.7923 1391.3 75.7756L1389.59 74.7313ZM1379.66 83.5213C1375.28 85.7094 1370.08 86.8223 1364.01 86.8223V88.8223C1370.32 88.8223 1375.85 87.6641 1380.55 85.3102L1379.66 83.5213Z" fill="#F2B125"/>
</svg>
