<svg width="148" height="48" viewBox="0 0 148 48" fill="none" xmlns="http://www.w3.org/2000/svg">
<path fill-rule="evenodd" clip-rule="evenodd" d="M137.046 2.30562V4.34953H140.368H143.689V23.0002V41.6508H140.368H137.046V43.4392V45.2276H142.412H147.777V22.7447V0.261719H142.412H137.046V2.30562ZM0.612305 23.0002V45.2276H5.97769H11.3431V43.4392V41.6508H8.27715H5.21121V23.0002V4.34953H8.27715H11.3431V2.56111V0.772695H5.97769H0.612305V23.0002ZM55.7992 23.2137C55.7992 31.0598 55.6597 37.843 55.489 38.2875C55.2371 38.9436 55.5738 39.0959 57.2775 39.0959C59.2146 39.0959 59.3761 38.9901 59.3761 37.7219V36.3484L60.4471 37.4981C62.5933 39.8016 66.3393 40.2512 69.902 38.6335C73.4247 37.0336 75.2168 33.514 75.2168 28.1953C75.2168 24.3318 73.7609 21.1376 71.2111 19.4044C68.6066 17.6349 64.3572 17.6364 61.7471 19.408L59.8871 20.6701V14.8092V8.94831H57.8431H55.7992V23.2137ZM34.8977 10.5318C29.01 12.3269 25.4949 17.7524 25.5011 25.0354C25.5036 28.1554 25.7801 29.7706 26.6605 31.8104C28.8838 36.96 33.8782 39.9758 39.3601 39.4786C44.5467 39.0085 48.0827 36.4812 50.2636 31.6868C51.8666 28.161 51.9208 21.0145 50.3699 17.6349C49.1384 14.9518 46.6826 12.4117 44.1655 11.217C41.9662 10.1736 37.2232 9.8231 34.8977 10.5318ZM111.983 10.6662C105.246 12.4832 101.702 17.5143 101.634 25.3573C101.605 28.6061 101.832 29.721 103.004 32.1175C106.017 38.2763 112.474 40.8113 120.67 39.0535C122.81 38.5946 123.248 38.3116 123.242 37.3928C123.227 35.2176 122.729 35.0142 118.994 35.654C115.916 36.1808 115.21 36.1353 112.638 35.2442C107.626 33.5079 105.074 28.4916 106.104 22.3992C107.178 16.0442 113.069 12.4373 119.828 13.9968C121.232 14.3212 122.459 14.5082 122.554 14.4127C122.65 14.3171 122.87 13.5328 123.042 12.6692C123.35 11.1292 123.307 11.0893 120.723 10.5349C117.423 9.82719 114.956 9.86449 111.983 10.6662ZM80.0395 11.5379C79.1662 12.5032 79.1498 12.7142 79.8499 13.9651C81.251 16.4699 84.4146 15.8531 84.4146 13.076C84.4146 10.4634 81.8336 9.55586 80.0395 11.5379ZM43.0183 15.0754C46.4889 17.547 48.0899 24.2173 46.4925 29.5483C44.6259 35.7792 37.4107 38.0469 33.1169 33.7531C27.9354 28.5724 28.9967 17.7862 35.0172 14.4336C37.1854 13.2262 40.8318 13.5185 43.0183 15.0754ZM79.8157 29.3112C79.8157 42.3442 79.3093 44.2057 75.7615 44.2057C74.8959 44.2057 74.7058 44.5276 74.7058 45.9941C74.7058 47.6072 74.8437 47.7815 76.111 47.7713C76.8836 47.7651 78.5034 47.3119 79.7099 46.7646C81.4565 45.9721 82.1274 45.2705 83.0002 43.3268C83.9853 41.1327 84.1192 39.7551 84.3175 29.7706L84.5382 18.6569H82.1769H79.8157V29.3112ZM68.4891 22.5822C72.1743 24.9097 71.8642 33.2979 68.0195 35.2861C65.555 36.5604 63.5693 36.2375 61.5687 34.237C59.792 32.4604 59.7777 32.4103 59.9678 28.6408C60.1375 25.2842 60.3321 24.6578 61.627 23.3062C63.7261 21.1152 65.8166 20.8944 68.4891 22.5822ZM87.9915 27.5989V29.3874H93.3569H98.7223V27.5989V25.8105H93.3569H87.9915V27.5989Z" fill="white"/>
</svg>
