<svg width="1186" height="83" viewBox="0 0 1186 83" fill="none" xmlns="http://www.w3.org/2000/svg">
<path d="M59.8379 40.2426L60.7104 40.7312L60.7144 40.7238L59.8379 40.2426ZM49.7358 49.7573L49.2645 48.8753L49.2645 48.8753L49.7358 49.7573ZM20.3695 53.3987V52.3987H19.3695V53.3987H20.3695ZM20.3695 83V84H21.3695V83H20.3695ZM0.282861 83H-0.717139L-0.717139 84H0.282861L0.282861 83ZM0.282861 0.539222V-0.460778H-0.717139V0.539222H0.282861ZM49.5009 3.94572L49.9481 3.05129L49.9481 3.05129L49.5009 3.94572ZM39.8687 19.4512L40.5606 18.7292L39.8687 19.4512ZM20.3695 16.7495V15.7495H19.3695V16.7495H20.3695ZM20.3695 37.4234H19.3695V38.4234H20.3695V37.4234ZM62.1269 27.0864C62.1269 31.7036 61.069 35.9222 58.9613 39.7613L60.7144 40.7238C62.9921 36.5753 64.1269 32.0232 64.1269 27.0864H62.1269ZM58.9654 39.754C56.8792 43.4792 53.6634 46.5242 49.2645 48.8753L50.2072 50.6392C54.8923 48.1351 58.4111 44.837 60.7104 40.7312L58.9654 39.754ZM49.2645 48.8753C44.9053 51.2053 39.44 52.3987 32.8208 52.3987V54.3987C39.671 54.3987 45.4824 53.1645 50.2072 50.6392L49.2645 48.8753ZM32.8208 52.3987H20.3695L20.3695 54.3987H32.8208V52.3987ZM19.3695 53.3987L19.3695 83H21.3695L21.3695 53.3987H19.3695ZM20.3695 82H0.282861L0.282861 84H20.3695V82ZM1.28286 83L1.28286 0.539222H-0.717139L-0.717139 83H1.28286ZM0.282861 1.53922L32.8208 1.53922V-0.460778L0.282861 -0.460778L0.282861 1.53922ZM32.8208 1.53922C39.2879 1.53922 44.6854 2.65598 49.0537 4.84015L49.9481 3.05129C45.2324 0.693459 39.5098 -0.460778 32.8208 -0.460778V1.53922ZM49.0537 4.84015C53.4379 7.03224 56.6883 10.0336 58.8511 13.8373L60.5897 12.8487C58.2105 8.66463 54.6479 5.40119 49.9481 3.05129L49.0537 4.84015ZM58.8511 13.8373C61.0262 17.6623 62.1269 22.0692 62.1269 27.0864H64.1269C64.1269 21.7667 62.9566 17.0112 60.5897 12.8487L58.8511 13.8373ZM31.2938 38.4234C35.268 38.4234 38.423 37.4922 40.5606 35.4437L39.1768 33.9997C37.5556 35.5534 34.994 36.4234 31.2938 36.4234V38.4234ZM40.5606 35.4437C42.6858 33.4071 43.6879 30.5719 43.6879 27.0864H41.6879C41.6879 30.179 40.8106 32.434 39.1768 33.9997L40.5606 35.4437ZM43.6879 27.0864C43.6879 23.6009 42.6858 20.7658 40.5606 18.7292L39.1768 20.1732C40.8106 21.7388 41.6879 23.9939 41.6879 27.0864H43.6879ZM40.5606 18.7292C38.423 16.6806 35.268 15.7495 31.2938 15.7495V17.7495C34.994 17.7495 37.5556 18.6194 39.1768 20.1732L40.5606 18.7292ZM31.2938 15.7495H20.3695V17.7495H31.2938V15.7495ZM19.3695 16.7495L19.3695 37.4234H21.3695L21.3695 16.7495H19.3695ZM20.3695 38.4234H31.2938V36.4234H20.3695V38.4234ZM147.352 0.539222L148.352 0.539222V-0.460778L147.352 -0.460778V0.539222ZM147.352 83V84H148.352V83H147.352ZM127.266 83H126.266V84H127.266V83ZM127.266 49.0525H128.266V48.0525H127.266V49.0525ZM96.02 49.0525V48.0525H95.02V49.0525H96.02ZM96.02 83V84H97.02V83H96.02ZM75.9334 83H74.9334V84H75.9334V83ZM75.9334 0.539222V-0.460778H74.9334V0.539222H75.9334ZM96.02 0.539222H97.02V-0.460778H96.02V0.539222ZM96.02 32.8422H95.02V33.8422H96.02V32.8422ZM127.266 32.8422V33.8422H128.266V32.8422H127.266ZM127.266 0.539222V-0.460778H126.266V0.539222H127.266ZM146.352 0.539222L146.352 83H148.352L148.352 0.539222L146.352 0.539222ZM147.352 82H127.266V84H147.352V82ZM128.266 83V49.0525H126.266V83H128.266ZM127.266 48.0525L96.02 48.0525V50.0525L127.266 50.0525V48.0525ZM95.02 49.0525V83H97.02V49.0525H95.02ZM96.02 82L75.9334 82V84L96.02 84V82ZM76.9334 83V0.539222H74.9334V83H76.9334ZM75.9334 1.53922H96.02V-0.460778H75.9334V1.53922ZM95.02 0.539222V32.8422H97.02V0.539222H95.02ZM96.02 33.8422L127.266 33.8422V31.8422L96.02 31.8422V33.8422ZM128.266 32.8422V0.539222H126.266V32.8422H128.266ZM127.266 1.53922H147.352V-0.460778H127.266V1.53922ZM223.757 40.2426L224.63 40.7312L224.634 40.7238L223.757 40.2426ZM213.655 49.7573L213.184 48.8753L213.184 48.8753L213.655 49.7573ZM184.289 53.3987V52.3987H183.289V53.3987H184.289ZM184.289 83V84H185.289V83H184.289ZM164.202 83H163.202V84H164.202V83ZM164.202 0.539222V-0.460778H163.202V0.539222H164.202ZM213.42 3.94572L213.868 3.05129L213.868 3.05129L213.42 3.94572ZM203.788 19.4512L204.48 18.7292L203.788 19.4512ZM184.289 16.7495V15.7495H183.289V16.7495H184.289ZM184.289 37.4234H183.289V38.4234H184.289V37.4234ZM226.046 27.0864C226.046 31.7036 224.988 35.9222 222.881 39.7613L224.634 40.7238C226.912 36.5753 228.046 32.0232 228.046 27.0864H226.046ZM222.885 39.754C220.799 43.4792 217.583 46.5242 213.184 48.8753L214.127 50.6392C218.812 48.1351 222.331 44.837 224.63 40.7312L222.885 39.754ZM213.184 48.8753C208.825 51.2053 203.359 52.3987 196.74 52.3987V54.3987C203.59 54.3987 209.402 53.1645 214.127 50.6392L213.184 48.8753ZM196.74 52.3987H184.289V54.3987H196.74V52.3987ZM183.289 53.3987V83H185.289V53.3987H183.289ZM184.289 82H164.202V84H184.289V82ZM165.202 83L165.202 0.539222H163.202L163.202 83H165.202ZM164.202 1.53922L196.74 1.53922V-0.460778L164.202 -0.460778V1.53922ZM196.74 1.53922C203.207 1.53922 208.605 2.65598 212.973 4.84015L213.868 3.05129C209.152 0.693459 203.429 -0.460778 196.74 -0.460778V1.53922ZM212.973 4.84015C217.357 7.03224 220.608 10.0336 222.771 13.8373L224.509 12.8487C222.13 8.66463 218.567 5.40119 213.868 3.05129L212.973 4.84015ZM222.771 13.8373C224.946 17.6623 226.046 22.0692 226.046 27.0864H228.046C228.046 21.7667 226.876 17.0112 224.509 12.8487L222.771 13.8373ZM195.213 38.4234C199.187 38.4234 202.342 37.4922 204.48 35.4437L203.096 33.9997C201.475 35.5534 198.913 36.4234 195.213 36.4234V38.4234ZM204.48 35.4437C206.605 33.4071 207.607 30.5719 207.607 27.0864H205.607C205.607 30.179 204.73 32.434 203.096 33.9997L204.48 35.4437ZM207.607 27.0864C207.607 23.6009 206.605 20.7658 204.48 18.7292L203.096 20.1732C204.73 21.7388 205.607 23.9939 205.607 27.0864H207.607ZM204.48 18.7292C202.342 16.6806 199.187 15.7495 195.213 15.7495V17.7495C198.913 17.7495 201.475 18.6194 203.096 20.1732L204.48 18.7292ZM195.213 15.7495L184.289 15.7495V17.7495L195.213 17.7495V15.7495ZM183.289 16.7495V37.4234H185.289V16.7495H183.289ZM184.289 38.4234H195.213V36.4234H184.289V38.4234ZM299.408 40.2426L300.28 40.7312L300.284 40.7238L299.408 40.2426ZM289.306 49.7573L288.834 48.8753L288.834 48.8753L289.306 49.7573ZM259.939 53.3987V52.3987H258.939V53.3987H259.939ZM259.939 83V84H260.939V83H259.939ZM239.853 83H238.853V84H239.853V83ZM239.853 0.539222V-0.460778H238.853V0.539222H239.853ZM289.071 3.94572L289.518 3.05129L289.518 3.05129L289.071 3.94572ZM279.439 19.4512L280.131 18.7292L279.439 19.4512ZM259.939 16.7495V15.7495H258.939V16.7495H259.939ZM259.939 37.4234H258.939V38.4234H259.939V37.4234ZM301.697 27.0864C301.697 31.7036 300.639 35.9222 298.531 39.7613L300.284 40.7238C302.562 36.5753 303.697 32.0232 303.697 27.0864L301.697 27.0864ZM298.535 39.754C296.449 43.4792 293.233 46.5242 288.834 48.8753L289.777 50.6392C294.462 48.1351 297.981 44.837 300.28 40.7312L298.535 39.754ZM288.834 48.8753C284.475 51.2053 279.01 52.3987 272.391 52.3987V54.3987C279.241 54.3987 285.052 53.1645 289.777 50.6392L288.834 48.8753ZM272.391 52.3987H259.939V54.3987H272.391V52.3987ZM258.939 53.3987V83H260.939V53.3987H258.939ZM259.939 82L239.853 82V84L259.939 84V82ZM240.853 83L240.853 0.539222H238.853L238.853 83H240.853ZM239.853 1.53922H272.391V-0.460778H239.853V1.53922ZM272.391 1.53922C278.858 1.53922 284.255 2.65598 288.624 4.84015L289.518 3.05129C284.802 0.693459 279.08 -0.460778 272.391 -0.460778V1.53922ZM288.624 4.84015C293.008 7.03224 296.258 10.0336 298.421 13.8373L300.16 12.8487C297.781 8.66463 294.218 5.40119 289.518 3.05129L288.624 4.84015ZM298.421 13.8373C300.596 17.6623 301.697 22.0692 301.697 27.0864L303.697 27.0864C303.697 21.7667 302.527 17.0112 300.16 12.8487L298.421 13.8373ZM270.864 38.4234C274.838 38.4234 277.993 37.4922 280.131 35.4437L278.747 33.9997C277.126 35.5534 274.564 36.4234 270.864 36.4234V38.4234ZM280.131 35.4437C282.256 33.4071 283.258 30.5719 283.258 27.0864H281.258C281.258 30.179 280.381 32.434 278.747 33.9997L280.131 35.4437ZM283.258 27.0864C283.258 23.6009 282.256 20.7658 280.131 18.7292L278.747 20.1732C280.381 21.7388 281.258 23.9939 281.258 27.0864H283.258ZM280.131 18.7292C277.993 16.6806 274.838 15.7495 270.864 15.7495V17.7495C274.564 17.7495 277.126 18.6194 278.747 20.1732L280.131 18.7292ZM270.864 15.7495H259.939V17.7495H270.864V15.7495ZM258.939 16.7495V37.4234H260.939V16.7495H258.939ZM259.939 38.4234H270.864V36.4234H259.939V38.4234ZM386.922 0.539222H387.922V-0.460778H386.922V0.539222ZM386.922 83V84H387.922V83H386.922ZM366.836 83H365.836V84H366.836V83ZM366.836 49.0525H367.836V48.0525H366.836V49.0525ZM335.59 49.0525V48.0525H334.59V49.0525H335.59ZM335.59 83V84H336.59V83H335.59ZM315.503 83H314.503V84H315.503V83ZM315.503 0.539222V-0.460778H314.503V0.539222H315.503ZM335.59 0.539222H336.59V-0.460778H335.59V0.539222ZM335.59 32.8422H334.59V33.8422H335.59V32.8422ZM366.836 32.8422V33.8422H367.836V32.8422H366.836ZM366.836 0.539222V-0.460778H365.836V0.539222H366.836ZM385.922 0.539222V83H387.922V0.539222H385.922ZM386.922 82H366.836V84H386.922V82ZM367.836 83V49.0525H365.836V83H367.836ZM366.836 48.0525H335.59V50.0525H366.836V48.0525ZM334.59 49.0525V83H336.59V49.0525H334.59ZM335.59 82H315.503V84H335.59V82ZM316.503 83V0.539222H314.503V83H316.503ZM315.503 1.53922L335.59 1.53922V-0.460778L315.503 -0.460778V1.53922ZM334.59 0.539222V32.8422H336.59V0.539222H334.59ZM335.59 33.8422H366.836V31.8422H335.59V33.8422ZM367.836 32.8422V0.539222H365.836V32.8422H367.836ZM366.836 1.53922L386.922 1.53922V-0.460778L366.836 -0.460778V1.53922ZM463.327 40.2426L464.2 40.7312L464.204 40.7238L463.327 40.2426ZM453.225 49.7573L452.754 48.8753L452.754 48.8753L453.225 49.7573ZM423.859 53.3987V52.3987H422.859V53.3987H423.859ZM423.859 83V84H424.859V83H423.859ZM403.772 83H402.772V84H403.772V83ZM403.772 0.539222V-0.460778H402.772V0.539222H403.772ZM452.99 3.94572L453.437 3.05129L453.437 3.05129L452.99 3.94572ZM443.358 19.4512L444.05 18.7292L443.358 19.4512ZM423.859 16.7495V15.7495H422.859V16.7495H423.859ZM423.859 37.4234H422.859V38.4234H423.859V37.4234ZM465.616 27.0864C465.616 31.7036 464.558 35.9222 462.451 39.7613L464.204 40.7238C466.481 36.5753 467.616 32.0232 467.616 27.0864H465.616ZM462.455 39.754C460.369 43.4792 457.153 46.5242 452.754 48.8753L453.697 50.6392C458.382 48.1351 461.901 44.837 464.2 40.7312L462.455 39.754ZM452.754 48.8753C448.395 51.2053 442.929 52.3987 436.31 52.3987V54.3987C443.16 54.3987 448.972 53.1645 453.697 50.6392L452.754 48.8753ZM436.31 52.3987H423.859V54.3987H436.31V52.3987ZM422.859 53.3987V83H424.859V53.3987H422.859ZM423.859 82H403.772V84H423.859V82ZM404.772 83V0.539222H402.772V83H404.772ZM403.772 1.53922L436.31 1.53922V-0.460778L403.772 -0.460778V1.53922ZM436.31 1.53922C442.777 1.53922 448.175 2.65598 452.543 4.84015L453.437 3.05129C448.722 0.693459 442.999 -0.460778 436.31 -0.460778V1.53922ZM452.543 4.84015C456.927 7.03224 460.178 10.0336 462.34 13.8373L464.079 12.8487C461.7 8.66463 458.137 5.40119 453.437 3.05129L452.543 4.84015ZM462.34 13.8373C464.516 17.6623 465.616 22.0692 465.616 27.0864H467.616C467.616 21.7667 466.446 17.0112 464.079 12.8487L462.34 13.8373ZM434.783 38.4234C438.757 38.4234 441.912 37.4922 444.05 35.4437L442.666 33.9997C441.045 35.5534 438.483 36.4234 434.783 36.4234V38.4234ZM444.05 35.4437C446.175 33.4071 447.177 30.5719 447.177 27.0864H445.177C445.177 30.179 444.3 32.434 442.666 33.9997L444.05 35.4437ZM447.177 27.0864C447.177 23.6009 446.175 20.7658 444.05 18.7292L442.666 20.1732C444.3 21.7388 445.177 23.9939 445.177 27.0864H447.177ZM444.05 18.7292C441.912 16.6806 438.757 15.7495 434.783 15.7495V17.7495C438.483 17.7495 441.045 18.6194 442.666 20.1732L444.05 18.7292ZM434.783 15.7495H423.859V17.7495H434.783V15.7495ZM422.859 16.7495V37.4234H424.859V16.7495H422.859ZM423.859 38.4234H434.783V36.4234H423.859V38.4234ZM538.978 40.2426L539.85 40.7312L539.854 40.7238L538.978 40.2426ZM528.876 49.7573L528.404 48.8753L528.404 48.8753L528.876 49.7573ZM499.509 53.3987V52.3987H498.509V53.3987H499.509ZM499.509 83V84H500.509V83H499.509ZM479.423 83H478.423V84H479.423V83ZM479.423 0.539222V-0.460778H478.423V0.539222H479.423ZM528.641 3.94572L529.088 3.05129L529.088 3.05129L528.641 3.94572ZM519.009 19.4512L519.701 18.7292L519.009 19.4512ZM499.509 16.7495V15.7495H498.509V16.7495H499.509ZM499.509 37.4234H498.509V38.4234H499.509V37.4234ZM541.267 27.0864C541.267 31.7036 540.209 35.9222 538.101 39.7613L539.854 40.7238C542.132 36.5753 543.267 32.0232 543.267 27.0864H541.267ZM538.105 39.754C536.019 43.4792 532.803 46.5242 528.404 48.8753L529.347 50.6392C534.032 48.1351 537.551 44.837 539.85 40.7312L538.105 39.754ZM528.404 48.8753C524.045 51.2053 518.58 52.3987 511.961 52.3987V54.3987C518.811 54.3987 524.622 53.1645 529.347 50.6392L528.404 48.8753ZM511.961 52.3987H499.509V54.3987H511.961V52.3987ZM498.509 53.3987V83H500.509V53.3987H498.509ZM499.509 82H479.423V84H499.509V82ZM480.423 83V0.539222H478.423V83H480.423ZM479.423 1.53922L511.961 1.53922V-0.460778L479.423 -0.460778V1.53922ZM511.961 1.53922C518.428 1.53922 523.825 2.65598 528.194 4.84015L529.088 3.05129C524.372 0.693459 518.65 -0.460778 511.961 -0.460778V1.53922ZM528.194 4.84015C532.578 7.03224 535.828 10.0336 537.991 13.8373L539.73 12.8487C537.35 8.66463 533.788 5.40119 529.088 3.05129L528.194 4.84015ZM537.991 13.8373C540.166 17.6623 541.267 22.0692 541.267 27.0864H543.267C543.267 21.7667 542.097 17.0112 539.73 12.8487L537.991 13.8373ZM510.434 38.4234C514.408 38.4234 517.563 37.4922 519.701 35.4437L518.317 33.9997C516.695 35.5534 514.134 36.4234 510.434 36.4234V38.4234ZM519.701 35.4437C521.826 33.4071 522.828 30.5719 522.828 27.0864H520.828C520.828 30.179 519.95 32.434 518.317 33.9997L519.701 35.4437ZM522.828 27.0864C522.828 23.6009 521.826 20.7658 519.701 18.7292L518.317 20.1732C519.95 21.7388 520.828 23.9939 520.828 27.0864H522.828ZM519.701 18.7292C517.563 16.6806 514.408 15.7495 510.434 15.7495V17.7495C514.134 17.7495 516.695 18.6194 518.317 20.1732L519.701 18.7292ZM510.434 15.7495L499.509 15.7495V17.7495L510.434 17.7495V15.7495ZM498.509 16.7495V37.4234H500.509V16.7495H498.509ZM499.509 38.4234H510.434V36.4234H499.509V38.4234ZM626.492 0.539222H627.492V-0.460778H626.492V0.539222ZM626.492 83V84H627.492V83H626.492ZM606.406 83H605.406V84H606.406V83ZM606.406 49.0525H607.406V48.0525H606.406V49.0525ZM575.16 49.0525V48.0525H574.16V49.0525H575.16ZM575.16 83V84H576.16V83H575.16ZM555.073 83H554.073V84H555.073V83ZM555.073 0.539222V-0.460778H554.073V0.539222H555.073ZM575.16 0.539222H576.16V-0.460778H575.16V0.539222ZM575.16 32.8422H574.16V33.8422H575.16V32.8422ZM606.406 32.8422V33.8422H607.406V32.8422H606.406ZM606.406 0.539222V-0.460778H605.406V0.539222H606.406ZM625.492 0.539222V83H627.492V0.539222H625.492ZM626.492 82L606.406 82V84L626.492 84V82ZM607.406 83V49.0525H605.406V83H607.406ZM606.406 48.0525H575.16V50.0525H606.406V48.0525ZM574.16 49.0525V83H576.16V49.0525H574.16ZM575.16 82H555.073V84H575.16V82ZM556.073 83V0.539222H554.073V83H556.073ZM555.073 1.53922H575.16V-0.460778H555.073V1.53922ZM574.16 0.539222V32.8422H576.16V0.539222H574.16ZM575.16 33.8422H606.406V31.8422H575.16V33.8422ZM607.406 32.8422V0.539222H605.406V32.8422H607.406ZM606.406 1.53922H626.492V-0.460778H606.406V1.53922ZM702.897 40.2426L703.77 40.7312L703.774 40.7238L702.897 40.2426ZM692.795 49.7573L692.324 48.8753L692.324 48.8753L692.795 49.7573ZM663.429 53.3987V52.3987H662.429V53.3987H663.429ZM663.429 83V84H664.429V83H663.429ZM643.342 83H642.342V84H643.342V83ZM643.342 0.539222V-0.460778H642.342V0.539222H643.342ZM692.56 3.94572L693.007 3.05129L693.007 3.05129L692.56 3.94572ZM682.928 19.4512L683.62 18.7292L682.928 19.4512ZM663.429 16.7495V15.7495H662.429V16.7495H663.429ZM663.429 37.4234H662.429V38.4234H663.429V37.4234ZM705.186 27.0864C705.186 31.7036 704.128 35.9222 702.021 39.7613L703.774 40.7238C706.051 36.5753 707.186 32.0232 707.186 27.0864H705.186ZM702.025 39.754C699.939 43.4792 696.723 46.5242 692.324 48.8753L693.267 50.6392C697.952 48.1351 701.47 44.837 703.77 40.7312L702.025 39.754ZM692.324 48.8753C687.965 51.2053 682.499 52.3987 675.88 52.3987V54.3987C682.73 54.3987 688.542 53.1645 693.267 50.6392L692.324 48.8753ZM675.88 52.3987H663.429V54.3987H675.88V52.3987ZM662.429 53.3987V83H664.429V53.3987H662.429ZM663.429 82H643.342V84H663.429V82ZM644.342 83V0.539222H642.342V83H644.342ZM643.342 1.53922H675.88V-0.460778H643.342V1.53922ZM675.88 1.53922C682.347 1.53922 687.745 2.65598 692.113 4.84015L693.007 3.05129C688.292 0.693459 682.569 -0.460778 675.88 -0.460778V1.53922ZM692.113 4.84015C696.497 7.03224 699.748 10.0336 701.91 13.8373L703.649 12.8487C701.27 8.66463 697.707 5.40119 693.007 3.05129L692.113 4.84015ZM701.91 13.8373C704.085 17.6623 705.186 22.0692 705.186 27.0864H707.186C707.186 21.7667 706.016 17.0112 703.649 12.8487L701.91 13.8373ZM674.353 38.4234C678.327 38.4234 681.482 37.4922 683.62 35.4437L682.236 33.9997C680.615 35.5534 678.053 36.4234 674.353 36.4234V38.4234ZM683.62 35.4437C685.745 33.4071 686.747 30.5719 686.747 27.0864H684.747C684.747 30.179 683.87 32.434 682.236 33.9997L683.62 35.4437ZM686.747 27.0864C686.747 23.6009 685.745 20.7658 683.62 18.7292L682.236 20.1732C683.87 21.7388 684.747 23.9939 684.747 27.0864H686.747ZM683.62 18.7292C681.482 16.6806 678.327 15.7495 674.353 15.7495V17.7495C678.053 17.7495 680.615 18.6194 682.236 20.1732L683.62 18.7292ZM674.353 15.7495H663.429V17.7495H674.353V15.7495ZM662.429 16.7495V37.4234H664.429V16.7495H662.429ZM663.429 38.4234H674.353V36.4234H663.429V38.4234ZM778.548 40.2426L779.42 40.7312L779.424 40.7238L778.548 40.2426ZM768.446 49.7573L767.974 48.8753L767.974 48.8753L768.446 49.7573ZM739.079 53.3987V52.3987H738.079V53.3987H739.079ZM739.079 83V84H740.079V83H739.079ZM718.993 83H717.993V84H718.993V83ZM718.993 0.539222V-0.460778H717.993V0.539222H718.993ZM768.211 3.94572L768.658 3.05129L768.658 3.05129L768.211 3.94572ZM758.579 19.4512L759.271 18.7292L758.579 19.4512ZM739.079 16.7495V15.7495H738.079V16.7495H739.079ZM739.079 37.4234H738.079V38.4234H739.079V37.4234ZM780.837 27.0864C780.837 31.7036 779.779 35.9222 777.671 39.7613L779.424 40.7238C781.702 36.5753 782.837 32.0232 782.837 27.0864H780.837ZM777.675 39.754C775.589 43.4792 772.373 46.5242 767.974 48.8753L768.917 50.6392C773.602 48.1351 777.121 44.837 779.42 40.7312L777.675 39.754ZM767.974 48.8753C763.615 51.2053 758.15 52.3987 751.531 52.3987V54.3987C758.381 54.3987 764.192 53.1645 768.917 50.6392L767.974 48.8753ZM751.531 52.3987L739.079 52.3987V54.3987L751.531 54.3987V52.3987ZM738.079 53.3987V83H740.079V53.3987H738.079ZM739.079 82H718.993V84H739.079V82ZM719.993 83V0.539222H717.993V83H719.993ZM718.993 1.53922L751.531 1.53922V-0.460778L718.993 -0.460778V1.53922ZM751.531 1.53922C757.998 1.53922 763.395 2.65598 767.764 4.84015L768.658 3.05129C763.942 0.693459 758.22 -0.460778 751.531 -0.460778V1.53922ZM767.764 4.84015C772.148 7.03224 775.398 10.0336 777.561 13.8373L779.3 12.8487C776.92 8.66463 773.358 5.40119 768.658 3.05129L767.764 4.84015ZM777.561 13.8373C779.736 17.6623 780.837 22.0692 780.837 27.0864H782.837C782.837 21.7667 781.667 17.0112 779.3 12.8487L777.561 13.8373ZM750.004 38.4234C753.978 38.4234 757.133 37.4922 759.271 35.4437L757.887 33.9997C756.265 35.5534 753.704 36.4234 750.004 36.4234V38.4234ZM759.271 35.4437C761.396 33.4071 762.398 30.5719 762.398 27.0864H760.398C760.398 30.179 759.52 32.434 757.887 33.9997L759.271 35.4437ZM762.398 27.0864C762.398 23.6009 761.396 20.7658 759.271 18.7292L757.887 20.1732C759.52 21.7388 760.398 23.9939 760.398 27.0864H762.398ZM759.271 18.7292C757.133 16.6806 753.978 15.7495 750.004 15.7495V17.7495C753.704 17.7495 756.265 18.6194 757.887 20.1732L759.271 18.7292ZM750.004 15.7495H739.079V17.7495H750.004V15.7495ZM738.079 16.7495V37.4234H740.079V16.7495H738.079ZM739.079 38.4234L750.004 38.4234V36.4234L739.079 36.4234V38.4234ZM866.062 0.539222H867.062V-0.460778H866.062V0.539222ZM866.062 83V84H867.062V83H866.062ZM845.976 83H844.976V84H845.976V83ZM845.976 49.0525H846.976V48.0525H845.976V49.0525ZM814.73 49.0525V48.0525H813.73V49.0525H814.73ZM814.73 83V84H815.73V83H814.73ZM794.643 83H793.643V84H794.643V83ZM794.643 0.539222V-0.460778H793.643V0.539222H794.643ZM814.73 0.539222H815.73V-0.460778H814.73V0.539222ZM814.73 32.8422H813.73V33.8422H814.73V32.8422ZM845.976 32.8422V33.8422H846.976V32.8422H845.976ZM845.976 0.539222V-0.460778H844.976V0.539222H845.976ZM865.062 0.539222V83H867.062V0.539222H865.062ZM866.062 82H845.976V84H866.062V82ZM846.976 83V49.0525H844.976V83H846.976ZM845.976 48.0525L814.73 48.0525V50.0525L845.976 50.0525V48.0525ZM813.73 49.0525V83H815.73V49.0525H813.73ZM814.73 82H794.643V84H814.73V82ZM795.643 83V0.539222H793.643V83H795.643ZM794.643 1.53922L814.73 1.53922V-0.460778L794.643 -0.460778V1.53922ZM813.73 0.539222V32.8422H815.73V0.539222H813.73ZM814.73 33.8422L845.976 33.8422V31.8422L814.73 31.8422V33.8422ZM846.976 32.8422V0.539222H844.976V32.8422H846.976ZM845.976 1.53922L866.062 1.53922V-0.460778L845.976 -0.460778V1.53922ZM942.467 40.2426L943.34 40.7312L943.344 40.7238L942.467 40.2426ZM932.365 49.7573L931.894 48.8753L931.894 48.8753L932.365 49.7573ZM902.999 53.3987V52.3987H901.999V53.3987H902.999ZM902.999 83V84H903.999V83H902.999ZM882.912 83H881.912V84H882.912V83ZM882.912 0.539222V-0.460778H881.912V0.539222H882.912ZM932.13 3.94572L932.577 3.05129L932.577 3.05129L932.13 3.94572ZM922.498 19.4512L923.19 18.7292L922.498 19.4512ZM902.999 16.7495V15.7495H901.999V16.7495H902.999ZM902.999 37.4234H901.999V38.4234H902.999V37.4234ZM944.756 27.0864C944.756 31.7036 943.698 35.9222 941.591 39.7613L943.344 40.7238C945.621 36.5753 946.756 32.0232 946.756 27.0864H944.756ZM941.595 39.754C939.509 43.4792 936.293 46.5242 931.894 48.8753L932.837 50.6392C937.522 48.1351 941.04 44.837 943.34 40.7312L941.595 39.754ZM931.894 48.8753C927.535 51.2053 922.069 52.3987 915.45 52.3987V54.3987C922.3 54.3987 928.112 53.1645 932.837 50.6392L931.894 48.8753ZM915.45 52.3987H902.999V54.3987H915.45V52.3987ZM901.999 53.3987V83H903.999V53.3987H901.999ZM902.999 82H882.912V84H902.999V82ZM883.912 83V0.539222H881.912V83H883.912ZM882.912 1.53922L915.45 1.53922V-0.460778L882.912 -0.460778V1.53922ZM915.45 1.53922C921.917 1.53922 927.315 2.65598 931.683 4.84015L932.577 3.05129C927.862 0.693459 922.139 -0.460778 915.45 -0.460778V1.53922ZM931.683 4.84015C936.067 7.03224 939.318 10.0336 941.48 13.8373L943.219 12.8487C940.84 8.66463 937.277 5.40119 932.577 3.05129L931.683 4.84015ZM941.48 13.8373C943.655 17.6623 944.756 22.0692 944.756 27.0864H946.756C946.756 21.7667 945.586 17.0112 943.219 12.8487L941.48 13.8373ZM913.923 38.4234C917.897 38.4234 921.052 37.4922 923.19 35.4437L921.806 33.9997C920.185 35.5534 917.623 36.4234 913.923 36.4234V38.4234ZM923.19 35.4437C925.315 33.4071 926.317 30.5719 926.317 27.0864H924.317C924.317 30.179 923.44 32.434 921.806 33.9997L923.19 35.4437ZM926.317 27.0864C926.317 23.6009 925.315 20.7658 923.19 18.7292L921.806 20.1732C923.44 21.7388 924.317 23.9939 924.317 27.0864H926.317ZM923.19 18.7292C921.052 16.6806 917.897 15.7495 913.923 15.7495V17.7495C917.623 17.7495 920.185 18.6194 921.806 20.1732L923.19 18.7292ZM913.923 15.7495H902.999V17.7495H913.923V15.7495ZM901.999 16.7495V37.4234H903.999V16.7495H901.999ZM902.999 38.4234H913.923V36.4234H902.999V38.4234ZM1018.12 40.2426L1018.99 40.7312L1018.99 40.7238L1018.12 40.2426ZM1008.02 49.7573L1007.54 48.8753L1007.54 48.8753L1008.02 49.7573ZM978.649 53.3987V52.3987H977.649V53.3987H978.649ZM978.649 83V84H979.649V83H978.649ZM958.563 83H957.563V84H958.563V83ZM958.563 0.539222V-0.460778H957.563V0.539222H958.563ZM1007.78 3.94572L1008.23 3.05129L1008.23 3.05129L1007.78 3.94572ZM998.149 19.4512L998.84 18.7292L998.149 19.4512ZM978.649 16.7495V15.7495H977.649V16.7495H978.649ZM978.649 37.4234H977.649V38.4234H978.649V37.4234ZM1020.41 27.0864C1020.41 31.7036 1019.35 35.9222 1017.24 39.7613L1018.99 40.7238C1021.27 36.5753 1022.41 32.0232 1022.41 27.0864H1020.41ZM1017.25 39.754C1015.16 43.4792 1011.94 46.5242 1007.54 48.8753L1008.49 50.6392C1013.17 48.1351 1016.69 44.837 1018.99 40.7312L1017.25 39.754ZM1007.54 48.8753C1003.19 51.2053 997.72 52.3987 991.101 52.3987V54.3987C997.951 54.3987 1003.76 53.1645 1008.49 50.6392L1007.54 48.8753ZM991.101 52.3987H978.649V54.3987H991.101V52.3987ZM977.649 53.3987V83H979.649V53.3987H977.649ZM978.649 82L958.563 82V84L978.649 84V82ZM959.563 83V0.539222H957.563V83H959.563ZM958.563 1.53922L991.101 1.53922V-0.460778L958.563 -0.460778V1.53922ZM991.101 1.53922C997.568 1.53922 1002.97 2.65598 1007.33 4.84015L1008.23 3.05129C1003.51 0.693459 997.79 -0.460778 991.101 -0.460778V1.53922ZM1007.33 4.84015C1011.72 7.03224 1014.97 10.0336 1017.13 13.8373L1018.87 12.8487C1016.49 8.66463 1012.93 5.40119 1008.23 3.05129L1007.33 4.84015ZM1017.13 13.8373C1019.31 17.6623 1020.41 22.0692 1020.41 27.0864H1022.41C1022.41 21.7667 1021.24 17.0112 1018.87 12.8487L1017.13 13.8373ZM989.574 38.4234C993.548 38.4234 996.703 37.4922 998.84 35.4437L997.457 33.9997C995.835 35.5534 993.274 36.4234 989.574 36.4234V38.4234ZM998.84 35.4437C1000.97 33.4071 1001.97 30.5719 1001.97 27.0864H999.968C999.968 30.179 999.09 32.434 997.457 33.9997L998.84 35.4437ZM1001.97 27.0864C1001.97 23.6009 1000.97 20.7658 998.84 18.7292L997.457 20.1732C999.09 21.7388 999.968 23.9939 999.968 27.0864H1001.97ZM998.84 18.7292C996.703 16.6806 993.548 15.7495 989.574 15.7495V17.7495C993.274 17.7495 995.835 18.6194 997.457 20.1732L998.84 18.7292ZM989.574 15.7495L978.649 15.7495V17.7495L989.574 17.7495V15.7495ZM977.649 16.7495V37.4234H979.649V16.7495H977.649ZM978.649 38.4234H989.574V36.4234H978.649V38.4234ZM1105.63 0.539222H1106.63V-0.460778H1105.63V0.539222ZM1105.63 83V84H1106.63V83H1105.63ZM1085.55 83H1084.55V84H1085.55V83ZM1085.55 49.0525H1086.55V48.0525H1085.55V49.0525ZM1054.3 49.0525V48.0525H1053.3V49.0525H1054.3ZM1054.3 83V84H1055.3V83H1054.3ZM1034.21 83H1033.21V84H1034.21V83ZM1034.21 0.539222V-0.460778H1033.21V0.539222H1034.21ZM1054.3 0.539222H1055.3V-0.460778H1054.3V0.539222ZM1054.3 32.8422H1053.3V33.8422H1054.3V32.8422ZM1085.55 32.8422V33.8422H1086.55V32.8422H1085.55ZM1085.55 0.539222V-0.460778H1084.55V0.539222H1085.55ZM1104.63 0.539222V83H1106.63V0.539222H1104.63ZM1105.63 82H1085.55V84H1105.63V82ZM1086.55 83V49.0525H1084.55V83H1086.55ZM1085.55 48.0525H1054.3V50.0525H1085.55V48.0525ZM1053.3 49.0525V83H1055.3V49.0525H1053.3ZM1054.3 82H1034.21V84H1054.3V82ZM1035.21 83V0.539222H1033.21V83H1035.21ZM1034.21 1.53922H1054.3V-0.460778H1034.21V1.53922ZM1053.3 0.539222V32.8422H1055.3V0.539222H1053.3ZM1054.3 33.8422H1085.55V31.8422H1054.3V33.8422ZM1086.55 32.8422V0.539222H1084.55V32.8422H1086.55ZM1085.55 1.53922H1105.63V-0.460778H1085.55V1.53922ZM1182.04 40.2426L1182.91 40.7312L1182.91 40.7238L1182.04 40.2426ZM1171.94 49.7573L1171.46 48.8753L1171.46 48.8753L1171.94 49.7573ZM1142.57 53.3987V52.3987H1141.57V53.3987H1142.57ZM1142.57 83V84H1143.57V83H1142.57ZM1122.48 83H1121.48V84H1122.48V83ZM1122.48 0.539222V-0.460778H1121.48V0.539222H1122.48ZM1171.7 3.94572L1172.15 3.05129L1172.15 3.05129L1171.7 3.94572ZM1162.07 19.4512L1162.76 18.7292L1162.07 19.4512ZM1142.57 16.7495V15.7495H1141.57V16.7495H1142.57ZM1142.57 37.4234H1141.57V38.4234H1142.57V37.4234ZM1184.33 27.0864C1184.33 31.7036 1183.27 35.9222 1181.16 39.7613L1182.91 40.7238C1185.19 36.5753 1186.33 32.0232 1186.33 27.0864L1184.33 27.0864ZM1181.16 39.754C1179.08 43.4792 1175.86 46.5242 1171.46 48.8753L1172.41 50.6392C1177.09 48.1351 1180.61 44.837 1182.91 40.7312L1181.16 39.754ZM1171.46 48.8753C1167.1 51.2053 1161.64 52.3987 1155.02 52.3987V54.3987C1161.87 54.3987 1167.68 53.1645 1172.41 50.6392L1171.46 48.8753ZM1155.02 52.3987H1142.57V54.3987H1155.02V52.3987ZM1141.57 53.3987V83L1143.57 83V53.3987H1141.57ZM1142.57 82L1122.48 82V84L1142.57 84V82ZM1123.48 83V0.539222H1121.48V83H1123.48ZM1122.48 1.53922H1155.02V-0.460778H1122.48V1.53922ZM1155.02 1.53922C1161.49 1.53922 1166.88 2.65598 1171.25 4.84015L1172.15 3.05129C1167.43 0.693459 1161.71 -0.460778 1155.02 -0.460778V1.53922ZM1171.25 4.84015C1175.64 7.03224 1178.89 10.0336 1181.05 13.8373L1182.79 12.8487C1180.41 8.66463 1176.85 5.40119 1172.15 3.05129L1171.25 4.84015ZM1181.05 13.8373C1183.23 17.6623 1184.33 22.0692 1184.33 27.0864L1186.33 27.0864C1186.33 21.7667 1185.16 17.0112 1182.79 12.8487L1181.05 13.8373ZM1153.49 38.4234C1157.47 38.4234 1160.62 37.4922 1162.76 35.4437L1161.38 33.9997C1159.75 35.5534 1157.19 36.4234 1153.49 36.4234V38.4234ZM1162.76 35.4437C1164.89 33.4071 1165.89 30.5719 1165.89 27.0864H1163.89C1163.89 30.179 1163.01 32.434 1161.38 33.9997L1162.76 35.4437ZM1165.89 27.0864C1165.89 23.6009 1164.89 20.7658 1162.76 18.7292L1161.38 20.1732C1163.01 21.7388 1163.89 23.9939 1163.89 27.0864H1165.89ZM1162.76 18.7292C1160.62 16.6806 1157.47 15.7495 1153.49 15.7495V17.7495C1157.19 17.7495 1159.75 18.6194 1161.38 20.1732L1162.76 18.7292ZM1153.49 15.7495H1142.57V17.7495H1153.49V15.7495ZM1141.57 16.7495V37.4234H1143.57V16.7495H1141.57ZM1142.57 38.4234H1153.49V36.4234H1142.57V38.4234Z" fill="#F2B125"/>
</svg>
