<svg width="1312" height="119" viewBox="0 0 1312 119" fill="none" xmlns="http://www.w3.org/2000/svg">
<path d="M59.8379 44.2426L60.7104 44.7312L60.7144 44.7238L59.8379 44.2426ZM49.7358 53.7573L49.2645 52.8753L49.2645 52.8753L49.7358 53.7573ZM20.3695 57.3987V56.3987H19.3695V57.3987H20.3695ZM20.3695 87V88H21.3695V87H20.3695ZM0.282861 87H-0.717139L-0.717139 88H0.282861L0.282861 87ZM0.282861 4.53922V3.53922H-0.717139V4.53922H0.282861ZM49.5009 7.94572L49.9481 7.05129L49.9481 7.05129L49.5009 7.94572ZM39.8687 23.4512L40.5606 22.7292L39.8687 23.4512ZM20.3695 20.7495V19.7495H19.3695V20.7495H20.3695ZM20.3695 41.4234H19.3695V42.4234H20.3695V41.4234ZM62.1269 31.0864C62.1269 35.7036 61.069 39.9222 58.9613 43.7613L60.7144 44.7238C62.9921 40.5753 64.1269 36.0232 64.1269 31.0864H62.1269ZM58.9654 43.754C56.8792 47.4792 53.6634 50.5242 49.2645 52.8753L50.2072 54.6392C54.8923 52.1351 58.4111 48.837 60.7104 44.7312L58.9654 43.754ZM49.2645 52.8753C44.9053 55.2053 39.44 56.3987 32.8208 56.3987V58.3987C39.671 58.3987 45.4824 57.1645 50.2072 54.6392L49.2645 52.8753ZM32.8208 56.3987H20.3695L20.3695 58.3987H32.8208V56.3987ZM19.3695 57.3987L19.3695 87H21.3695L21.3695 57.3987H19.3695ZM20.3695 86H0.282861L0.282861 88H20.3695V86ZM1.28286 87L1.28286 4.53922H-0.717139L-0.717139 87H1.28286ZM0.282861 5.53922L32.8208 5.53922V3.53922L0.282861 3.53922L0.282861 5.53922ZM32.8208 5.53922C39.2879 5.53922 44.6854 6.65598 49.0537 8.84015L49.9481 7.05129C45.2324 4.69346 39.5098 3.53922 32.8208 3.53922V5.53922ZM49.0537 8.84015C53.4379 11.0322 56.6883 14.0336 58.8511 17.8373L60.5897 16.8487C58.2105 12.6646 54.6479 9.40119 49.9481 7.05129L49.0537 8.84015ZM58.8511 17.8373C61.0262 21.6623 62.1269 26.0692 62.1269 31.0864H64.1269C64.1269 25.7667 62.9566 21.0112 60.5897 16.8487L58.8511 17.8373ZM31.2938 42.4234C35.268 42.4234 38.423 41.4922 40.5606 39.4437L39.1768 37.9997C37.5556 39.5534 34.994 40.4234 31.2938 40.4234V42.4234ZM40.5606 39.4437C42.6858 37.4071 43.6879 34.5719 43.6879 31.0864H41.6879C41.6879 34.179 40.8106 36.434 39.1768 37.9997L40.5606 39.4437ZM43.6879 31.0864C43.6879 27.6009 42.6858 24.7658 40.5606 22.7292L39.1768 24.1732C40.8106 25.7388 41.6879 27.9939 41.6879 31.0864H43.6879ZM40.5606 22.7292C38.423 20.6806 35.268 19.7495 31.2938 19.7495V21.7495C34.994 21.7495 37.5556 22.6194 39.1768 24.1732L40.5606 22.7292ZM31.2938 19.7495H20.3695V21.7495H31.2938V19.7495ZM19.3695 20.7495L19.3695 41.4234H21.3695L21.3695 20.7495H19.3695ZM20.3695 42.4234H31.2938V40.4234H20.3695V42.4234ZM142.889 21.4543L143.809 21.8456L144.401 20.4543H142.889V21.4543ZM101.776 118.128V119.128H102.437L102.696 118.52L101.776 118.128ZM80.1622 118.128L79.2505 117.717L78.6146 119.128H80.1622V118.128ZM95.1977 84.7682L96.1094 85.1791L96.2885 84.7817L96.1193 84.38L95.1977 84.7682ZM68.5331 21.4543V20.4543H67.0269L67.6115 21.8424L68.5331 21.4543ZM90.969 21.4543L91.907 21.1076L91.6655 20.4543H90.969V21.4543ZM106.122 62.4497L105.184 62.7964L106.126 65.3439L107.061 62.794L106.122 62.4497ZM121.158 21.4543V20.4543H120.459L120.219 21.1099L121.158 21.4543ZM141.968 21.0629L100.856 117.737L102.696 118.52L143.809 21.8456L141.968 21.0629ZM101.776 117.128L80.1622 117.128V119.128L101.776 119.128V117.128ZM81.0738 118.539L96.1094 85.1791L94.2861 84.3573L79.2505 117.717L81.0738 118.539ZM96.1193 84.38L69.4547 21.0661L67.6115 21.8424L94.2761 85.1563L96.1193 84.38ZM68.5331 22.4543H90.969V20.4543H68.5331V22.4543ZM90.031 21.801L105.184 62.7964L107.06 62.103L91.907 21.1076L90.031 21.801ZM107.061 62.794L122.096 21.7986L120.219 21.1099L105.183 62.1054L107.061 62.794ZM121.158 22.4543L142.889 22.4543V20.4543H121.158V22.4543ZM189.033 69.9675H190.033V68.9675H189.033V69.9675ZM189.033 87V88H190.033V87H189.033ZM161.781 81.7141L161.119 82.4631L161.127 82.4702L161.781 81.7141ZM155.673 38.1344H156.673V37.1344H155.673V38.1344ZM147.686 38.1344H146.686V39.1344H147.686V38.1344ZM147.686 21.4543V20.4543L146.686 20.4543V21.4543L147.686 21.4543ZM155.673 21.4543V22.4543H156.673V21.4543H155.673ZM155.673 5.47895V4.47895H154.673V5.47895H155.673ZM175.76 5.47895H176.76V4.47895H175.76V5.47895ZM175.76 21.4543H174.76V22.4543H175.76V21.4543ZM188.916 21.4543H189.916V20.4543H188.916V21.4543ZM188.916 38.1344V39.1344H189.916V38.1344H188.916ZM175.76 38.1344V37.1344H174.76V38.1344H175.76ZM177.169 68.6754L176.494 69.4125L176.494 69.4125L177.169 68.6754ZM188.033 69.9675V87H190.033V69.9675H188.033ZM189.033 86H178.814V88H189.033V86ZM178.814 86C171.686 86 166.271 84.2766 162.436 80.9579L161.127 82.4702C165.436 86.1995 171.376 88 178.814 88V86ZM162.444 80.9651C158.673 77.629 156.673 72.1314 156.673 64.2117H154.673C154.673 72.4239 156.746 78.5945 161.119 82.463L162.444 80.9651ZM156.673 64.2117L156.673 38.1344H154.673L154.673 64.2117H156.673ZM155.673 37.1344H147.686V39.1344H155.673V37.1344ZM148.686 38.1344V21.4543L146.686 21.4543V38.1344H148.686ZM147.686 22.4543H155.673V20.4543H147.686V22.4543ZM156.673 21.4543V5.47895H154.673V21.4543H156.673ZM155.673 6.47895H175.76V4.47895H155.673V6.47895ZM174.76 5.47895V21.4543H176.76V5.47895H174.76ZM175.76 22.4543H188.916V20.4543H175.76V22.4543ZM187.916 21.4543V38.1344H189.916V21.4543H187.916ZM188.916 37.1344H175.76V39.1344H188.916V37.1344ZM174.76 38.1344L174.76 64.4466H176.76L176.76 38.1344H174.76ZM174.76 64.4466C174.76 66.5357 175.258 68.2802 176.494 69.4125L177.845 67.9382C177.201 67.3477 176.76 66.2731 176.76 64.4466H174.76ZM176.494 69.4125C177.712 70.529 179.591 70.9675 181.868 70.9675V68.9675C179.76 68.9675 178.507 68.5446 177.845 67.9382L176.494 69.4125ZM181.868 70.9675H189.033V68.9675H181.868V70.9675ZM260.952 28.2673L260.211 28.9388L260.216 28.9446L260.952 28.2673ZM267.765 87V88H268.765V87H267.765ZM247.795 87H246.795V88H247.795V87ZM244.389 41.1885L243.659 41.8716L243.659 41.8716L244.389 41.1885ZM226.064 41.1885L226.795 41.8716L226.795 41.8716L226.064 41.1885ZM222.658 87V88H223.658V87H222.658ZM202.571 87H201.571V88H202.571V87ZM202.571 0.0755346V-0.924465H201.571V0.0755346H202.571ZM222.658 0.0755346H223.658V-0.924465H222.658V0.0755346ZM222.658 30.2642H221.658V33.4265L223.476 30.8391L222.658 30.2642ZM230.998 23.3337L230.559 22.4353L230.559 22.4353L230.998 23.3337ZM242.862 21.7495C250.132 21.7495 255.881 24.1607 260.211 28.9388L261.693 27.5957C256.939 22.3501 250.627 19.7495 242.862 19.7495V21.7495ZM260.216 28.9446C264.542 33.644 266.765 40.1881 266.765 48.7062H268.765C268.765 39.8395 266.445 32.7576 261.687 27.5899L260.216 28.9446ZM266.765 48.7062V87H268.765V48.7062H266.765ZM267.765 86L247.795 86V88L267.765 88V86ZM248.795 87V51.408H246.795V87H248.795ZM248.795 51.408C248.795 46.852 247.613 43.1711 245.119 40.5053L243.659 41.8716C245.707 44.0611 246.795 47.1931 246.795 51.408H248.795ZM245.119 40.5053C242.629 37.8438 239.294 36.547 235.227 36.547V38.547C238.834 38.547 241.607 39.6779 243.659 41.8716L245.119 40.5053ZM235.227 36.547C231.159 36.547 227.824 37.8438 225.334 40.5053L226.795 41.8716C228.847 39.6779 231.62 38.547 235.227 38.547V36.547ZM225.334 40.5053C222.84 43.1711 221.658 46.852 221.658 51.408H223.658C223.658 47.1931 224.746 44.0611 226.795 41.8716L225.334 40.5053ZM221.658 51.408V87H223.658V51.408H221.658ZM222.658 86H202.571V88H222.658V86ZM203.571 87L203.571 0.0755346H201.571L201.571 87H203.571ZM202.571 1.07553H222.658V-0.924465H202.571V1.07553ZM221.658 0.0755346V30.2642H223.658V0.0755346H221.658ZM223.476 30.8391C225.405 28.0941 228.048 25.8889 231.437 24.2321L230.559 22.4353C226.9 24.2241 223.983 26.6393 221.84 29.6892L223.476 30.8391ZM231.437 24.2321C234.809 22.5836 238.611 21.7495 242.862 21.7495V19.7495C238.342 19.7495 234.235 20.6381 230.559 22.4353L231.437 24.2321ZM296.523 83.8284L296.049 84.7089L296.055 84.7119L296.523 83.8284ZM284.425 72.0819L283.555 72.5766L283.561 72.5866L284.425 72.0819ZM284.542 36.4898L285.405 36.9945L285.409 36.9888L284.542 36.4898ZM296.758 24.6258L297.227 25.5093L297.227 25.5093L296.758 24.6258ZM331.528 24.6258L331.06 25.5093L331.06 25.5093L331.528 24.6258ZM343.745 36.4898L342.878 36.9888L342.881 36.9945L343.745 36.4898ZM343.627 72.0819L342.766 71.5731L342.764 71.5772L343.627 72.0819ZM331.293 83.8284L330.83 82.9421L330.825 82.945L331.293 83.8284ZM323.658 66.3261L322.941 65.629L322.936 65.6342L322.931 65.6394L323.658 66.3261ZM323.775 42.1282L323.038 42.8039L323.043 42.8094L323.048 42.8148L323.775 42.1282ZM304.394 42.1282L305.121 42.8143L305.131 42.8039L304.394 42.1282ZM304.276 66.3261L303.529 66.9904L303.534 66.9962L303.539 67.0018L304.276 66.3261ZM313.908 86.9397C307.634 86.9397 302.002 85.602 296.992 82.945L296.055 84.7119C301.381 87.5366 307.34 88.9397 313.908 88.9397V86.9397ZM296.998 82.948C292.073 80.296 288.173 76.512 285.288 71.5772L283.561 72.5866C286.628 77.8321 290.794 81.8791 296.049 84.7089L296.998 82.948ZM285.294 71.5872C282.495 66.6708 281.078 60.8952 281.078 54.2271H279.078C279.078 61.185 280.559 67.3126 283.555 72.5766L285.294 71.5872ZM281.078 54.2271C281.078 47.6442 282.531 41.9108 285.405 36.9945L283.679 35.9851C280.601 41.2492 279.078 47.3407 279.078 54.2271H281.078ZM285.409 36.9888C288.292 31.98 292.228 28.1602 297.227 25.5093L296.29 23.7424C290.952 26.5732 286.743 30.6627 283.675 35.9909L285.409 36.9888ZM297.227 25.5093C302.237 22.8522 307.869 21.5145 314.143 21.5145V19.5145C307.575 19.5145 301.616 20.9177 296.29 23.7424L297.227 25.5093ZM314.143 21.5145C320.418 21.5145 326.049 22.8522 331.06 25.5093L331.997 23.7424C326.67 20.9177 320.712 19.5145 314.143 19.5145V21.5145ZM331.06 25.5093C336.059 28.1602 339.994 31.98 342.878 36.9888L344.611 35.9909C341.543 30.6627 337.335 26.5732 331.997 23.7424L331.06 25.5093ZM342.881 36.9945C345.755 41.9108 347.208 47.6442 347.208 54.2271H349.208C349.208 47.3407 347.685 41.2492 344.608 35.9851L342.881 36.9945ZM347.208 54.2271C347.208 60.8052 345.719 66.5769 342.766 71.5732L344.488 72.5906C347.644 67.2499 349.208 61.1185 349.208 54.2271H347.208ZM342.764 71.5772C339.883 76.5044 335.911 80.2879 330.83 82.9421L331.756 84.7148C337.169 81.8872 341.419 77.8397 344.49 72.5866L342.764 71.5772ZM330.825 82.945C325.814 85.602 320.183 86.9397 313.908 86.9397V88.9397C320.477 88.9397 326.435 87.5366 331.762 84.7119L330.825 82.945ZM313.908 71.5548C318.024 71.5548 321.536 70.0295 324.385 67.0127L322.931 65.6394C320.455 68.261 317.467 69.5548 313.908 69.5548V71.5548ZM324.375 67.0232C327.351 63.9617 328.769 59.6447 328.769 54.2271H326.769C326.769 59.3031 325.446 63.0521 322.941 65.629L324.375 67.0232ZM328.769 54.2271C328.769 48.8168 327.395 44.5038 324.502 41.4416L323.048 42.8148C325.481 45.3909 326.769 49.1438 326.769 54.2271H328.769ZM324.513 41.4525C321.738 38.4259 318.26 36.8994 314.143 36.8994V38.8994C317.701 38.8994 320.644 40.1922 323.038 42.8039L324.513 41.4525ZM314.143 36.8994C309.955 36.8994 306.435 38.4211 303.657 41.4525L305.131 42.8039C307.521 40.1969 310.501 38.8994 314.143 38.8994V36.8994ZM303.666 41.4422C300.846 44.4334 299.517 48.7527 299.517 54.2271H301.517C301.517 49.0513 302.773 45.3047 305.121 42.8142L303.666 41.4422ZM299.517 54.2271C299.517 59.6231 300.806 63.9275 303.529 66.9904L305.024 65.6617C302.734 63.0863 301.517 59.3248 301.517 54.2271H299.517ZM303.539 67.0018C306.313 70.0284 309.792 71.5548 313.908 71.5548V69.5548C310.35 69.5548 307.407 68.2621 305.013 65.6503L303.539 67.0018ZM419.477 28.2673L418.736 28.9388L418.741 28.9448L418.747 28.9508L419.477 28.2673ZM426.407 87V88H427.407V87H426.407ZM406.438 87H405.438V88H406.438V87ZM403.032 41.1885L402.301 41.8716L402.301 41.8716L403.032 41.1885ZM384.707 41.1885L385.437 41.8716L385.437 41.8716L384.707 41.1885ZM381.301 87V88H382.301V87H381.301ZM361.214 87H360.214V88H361.214V87ZM361.214 21.4543V20.4543H360.214V21.4543H361.214ZM381.301 21.4543H382.301V20.4543H381.301V21.4543ZM381.301 30.1467H380.301V33.3091L382.119 30.7216L381.301 30.1467ZM389.523 23.3337L389.954 24.2362L389.962 24.2322L389.97 24.2281L389.523 23.3337ZM401.152 21.7495C408.586 21.7495 414.41 24.1653 418.736 28.9388L420.218 27.5957C415.46 22.3454 409.067 19.7495 401.152 19.7495V21.7495ZM418.747 28.9508C423.148 33.6506 425.407 40.1925 425.407 48.7062H427.407C427.407 39.8351 425.046 32.751 420.207 27.5837L418.747 28.9508ZM425.407 48.7062V87H427.407V48.7062H425.407ZM426.407 86H406.438V88H426.407V86ZM407.438 87V51.408H405.438V87H407.438ZM407.438 51.408C407.438 46.852 406.256 43.1711 403.762 40.5053L402.301 41.8716C404.35 44.0611 405.438 47.1931 405.438 51.408H407.438ZM403.762 40.5053C401.272 37.8438 397.937 36.547 393.869 36.547V38.547C397.477 38.547 400.249 39.6779 402.301 41.8716L403.762 40.5053ZM393.869 36.547C389.802 36.547 386.467 37.8438 383.977 40.5053L385.437 41.8716C387.49 39.6779 390.262 38.547 393.869 38.547V36.547ZM383.977 40.5053C381.483 43.1711 380.301 46.852 380.301 51.408H382.301C382.301 47.1931 383.389 44.0611 385.437 41.8716L383.977 40.5053ZM380.301 51.408V87H382.301V51.408H380.301ZM381.301 86H361.214V88H381.301V86ZM362.214 87V21.4543H360.214V87H362.214ZM361.214 22.4543H381.301V20.4543L361.214 20.4543V22.4543ZM380.301 21.4543V30.1467H382.301V21.4543H380.301ZM382.119 30.7216C384.048 27.9757 386.651 25.8126 389.954 24.2362L389.092 22.4312C385.504 24.1438 382.625 26.5227 380.482 29.5718L382.119 30.7216ZM389.97 24.2281C393.261 22.5826 396.982 21.7495 401.152 21.7495V19.7495C396.708 19.7495 392.676 20.6392 389.076 22.4393L389.97 24.2281ZM502.27 44.2426L503.142 44.7312L503.146 44.7238L502.27 44.2426ZM492.168 53.7573L491.696 52.8753L491.696 52.8753L492.168 53.7573ZM462.801 57.3987V56.3987H461.801V57.3987H462.801ZM462.801 87V88H463.801V87H462.801ZM442.715 87H441.715V88H442.715V87ZM442.715 4.53922V3.53922H441.715V4.53922H442.715ZM491.933 7.94572L492.38 7.05129L492.38 7.05129L491.933 7.94572ZM482.301 23.4512L482.993 22.7292L482.301 23.4512ZM462.801 20.7495V19.7495H461.801V20.7495H462.801ZM462.801 41.4234H461.801V42.4234H462.801V41.4234ZM504.559 31.0864C504.559 35.7036 503.501 39.9222 501.393 43.7613L503.146 44.7238C505.424 40.5753 506.559 36.0232 506.559 31.0864H504.559ZM501.397 43.754C499.311 47.4792 496.095 50.5242 491.696 52.8753L492.639 54.6392C497.324 52.1351 500.843 48.837 503.142 44.7312L501.397 43.754ZM491.696 52.8753C487.337 55.2053 481.872 56.3987 475.253 56.3987V58.3987C482.103 58.3987 487.914 57.1645 492.639 54.6392L491.696 52.8753ZM475.253 56.3987H462.801V58.3987H475.253V56.3987ZM461.801 57.3987V87H463.801V57.3987H461.801ZM462.801 86H442.715V88H462.801V86ZM443.715 87V4.53922H441.715V87H443.715ZM442.715 5.53922L475.253 5.53922V3.53922L442.715 3.53922V5.53922ZM475.253 5.53922C481.72 5.53922 487.117 6.65598 491.486 8.84015L492.38 7.05129C487.664 4.69346 481.942 3.53922 475.253 3.53922V5.53922ZM491.486 8.84015C495.87 11.0322 499.12 14.0336 501.283 17.8373L503.022 16.8487C500.642 12.6646 497.08 9.40119 492.38 7.05129L491.486 8.84015ZM501.283 17.8373C503.458 21.6623 504.559 26.0692 504.559 31.0864H506.559C506.559 25.7667 505.389 21.0112 503.022 16.8487L501.283 17.8373ZM473.726 42.4234C477.7 42.4234 480.855 41.4922 482.993 39.4437L481.609 37.9997C479.988 39.5534 477.426 40.4234 473.726 40.4234V42.4234ZM482.993 39.4437C485.118 37.4071 486.12 34.5719 486.12 31.0864H484.12C484.12 34.179 483.243 36.434 481.609 37.9997L482.993 39.4437ZM486.12 31.0864C486.12 27.6009 485.118 24.7658 482.993 22.7292L481.609 24.1732C483.243 25.7388 484.12 27.9939 484.12 31.0864H486.12ZM482.993 22.7292C480.855 20.6806 477.7 19.7495 473.726 19.7495V21.7495C477.426 21.7495 479.988 22.6194 481.609 24.1732L482.993 22.7292ZM473.726 19.7495H462.801V21.7495H473.726V19.7495ZM461.801 20.7495V41.4234H463.801V20.7495H461.801ZM462.801 42.4234H473.726V40.4234H462.801V42.4234ZM585.321 21.4543L586.241 21.8456L586.833 20.4543H585.321V21.4543ZM544.208 118.128V119.128H544.869L545.128 118.52L544.208 118.128ZM522.594 118.128L521.682 117.717L521.046 119.128H522.594V118.128ZM537.63 84.7682L538.541 85.1791L538.72 84.7817L538.551 84.38L537.63 84.7682ZM510.965 21.4543V20.4543H509.459L510.043 21.8424L510.965 21.4543ZM533.401 21.4543L534.339 21.1076L534.097 20.4543H533.401V21.4543ZM548.554 62.4497L547.616 62.7964L548.558 65.3439L549.493 62.794L548.554 62.4497ZM563.59 21.4543V20.4543H562.891L562.651 21.1099L563.59 21.4543ZM584.4 21.0629L543.287 117.737L545.128 118.52L586.241 21.8456L584.4 21.0629ZM544.208 117.128H522.594V119.128H544.208V117.128ZM523.506 118.539L538.541 85.1791L536.718 84.3573L521.682 117.717L523.506 118.539ZM538.551 84.38L511.887 21.0661L510.043 21.8424L536.708 85.1563L538.551 84.38ZM510.965 22.4543H533.401V20.4543H510.965V22.4543ZM532.463 21.801L547.616 62.7964L549.492 62.103L534.339 21.1076L532.463 21.801ZM549.493 62.794L564.528 21.7986L562.651 21.1099L547.615 62.1054L549.493 62.794ZM563.59 22.4543L585.321 22.4543V20.4543H563.59V22.4543ZM631.465 69.9675H632.465V68.9675H631.465V69.9675ZM631.465 87V88H632.465V87H631.465ZM604.213 81.7141L603.551 82.4631L603.559 82.4702L604.213 81.7141ZM598.105 38.1344H599.105V37.1344H598.105V38.1344ZM590.117 38.1344H589.117V39.1344H590.117V38.1344ZM590.117 21.4543V20.4543L589.117 20.4543V21.4543L590.117 21.4543ZM598.105 21.4543V22.4543H599.105V21.4543H598.105ZM598.105 5.47895V4.47895H597.105V5.47895H598.105ZM618.192 5.47895H619.192V4.47895H618.192V5.47895ZM618.192 21.4543H617.192V22.4543H618.192V21.4543ZM631.348 21.4543H632.348V20.4543H631.348V21.4543ZM631.348 38.1344V39.1344H632.348V38.1344H631.348ZM618.192 38.1344V37.1344H617.192V38.1344H618.192ZM619.601 68.6754L618.926 69.4125L618.926 69.4125L619.601 68.6754ZM630.465 69.9675V87H632.465V69.9675H630.465ZM631.465 86H621.246V88H631.465V86ZM621.246 86C614.118 86 608.703 84.2766 604.868 80.9579L603.559 82.4702C607.868 86.1995 613.808 88 621.246 88V86ZM604.876 80.9651C601.105 77.629 599.105 72.1314 599.105 64.2117H597.105C597.105 72.4239 599.178 78.5945 603.551 82.463L604.876 80.9651ZM599.105 64.2117V38.1344H597.105V64.2117H599.105ZM598.105 37.1344H590.117V39.1344H598.105V37.1344ZM591.117 38.1344V21.4543L589.117 21.4543V38.1344H591.117ZM590.117 22.4543H598.105V20.4543H590.117V22.4543ZM599.105 21.4543V5.47895H597.105V21.4543H599.105ZM598.105 6.47895H618.192V4.47895H598.105V6.47895ZM617.192 5.47895V21.4543H619.192V5.47895H617.192ZM618.192 22.4543H631.348V20.4543H618.192V22.4543ZM630.348 21.4543V38.1344H632.348V21.4543H630.348ZM631.348 37.1344H618.192V39.1344H631.348V37.1344ZM617.192 38.1344V64.4466H619.192V38.1344H617.192ZM617.192 64.4466C617.192 66.5357 617.69 68.2802 618.926 69.4125L620.277 67.9382C619.633 67.3477 619.192 66.2731 619.192 64.4466H617.192ZM618.926 69.4125C620.144 70.529 622.023 70.9675 624.3 70.9675V68.9675C622.192 68.9675 620.939 68.5446 620.277 67.9382L618.926 69.4125ZM624.3 70.9675H631.465V68.9675H624.3V70.9675ZM703.384 28.2673L702.643 28.9388L702.648 28.9446L703.384 28.2673ZM710.197 87V88H711.197V87H710.197ZM690.227 87H689.227V88H690.227V87ZM686.821 41.1885L686.091 41.8716L686.091 41.8716L686.821 41.1885ZM668.496 41.1885L669.227 41.8716L669.227 41.8716L668.496 41.1885ZM665.09 87V88H666.09V87H665.09ZM645.003 87H644.003V88H645.003V87ZM645.003 0.0755346V-0.924465H644.003V0.0755346H645.003ZM665.09 0.0755346H666.09V-0.924465H665.09V0.0755346ZM665.09 30.2642H664.09V33.4265L665.908 30.8391L665.09 30.2642ZM673.43 23.3337L672.991 22.4353L672.991 22.4353L673.43 23.3337ZM685.294 21.7495C692.564 21.7495 698.312 24.1607 702.643 28.9388L704.125 27.5957C699.371 22.3501 693.059 19.7495 685.294 19.7495V21.7495ZM702.648 28.9446C706.974 33.644 709.197 40.1881 709.197 48.7062H711.197C711.197 39.8395 708.877 32.7576 704.119 27.5899L702.648 28.9446ZM709.197 48.7062V87H711.197V48.7062H709.197ZM710.197 86H690.227V88H710.197V86ZM691.227 87V51.408H689.227V87H691.227ZM691.227 51.408C691.227 46.852 690.045 43.1711 687.551 40.5053L686.091 41.8716C688.139 44.0611 689.227 47.1931 689.227 51.408H691.227ZM687.551 40.5053C685.061 37.8438 681.726 36.547 677.659 36.547V38.547C681.266 38.547 684.038 39.6779 686.091 41.8716L687.551 40.5053ZM677.659 36.547C673.591 36.547 670.256 37.8438 667.766 40.5053L669.227 41.8716C671.279 39.6779 674.051 38.547 677.659 38.547V36.547ZM667.766 40.5053C665.272 43.1711 664.09 46.852 664.09 51.408H666.09C666.09 47.1931 667.178 44.0611 669.227 41.8716L667.766 40.5053ZM664.09 51.408V87H666.09V51.408H664.09ZM665.09 86H645.003V88H665.09V86ZM646.003 87V0.0755346H644.003V87H646.003ZM645.003 1.07553H665.09V-0.924465H645.003V1.07553ZM664.09 0.0755346V30.2642H666.09V0.0755346H664.09ZM665.908 30.8391C667.837 28.0941 670.48 25.8889 673.869 24.2321L672.991 22.4353C669.332 24.2241 666.415 26.6393 664.272 29.6892L665.908 30.8391ZM673.869 24.2321C677.241 22.5836 681.043 21.7495 685.294 21.7495V19.7495C680.774 19.7495 676.667 20.6381 672.991 22.4353L673.869 24.2321ZM738.955 83.8284L738.481 84.7089L738.487 84.7119L738.955 83.8284ZM726.857 72.0819L725.987 72.5766L725.993 72.5866L726.857 72.0819ZM726.974 36.4898L727.837 36.9945L727.841 36.9888L726.974 36.4898ZM739.19 24.6258L739.659 25.5093L739.659 25.5093L739.19 24.6258ZM773.96 24.6258L773.492 25.5093L773.492 25.5093L773.96 24.6258ZM786.177 36.4898L785.31 36.9888L785.313 36.9945L786.177 36.4898ZM786.059 72.0819L785.198 71.5731L785.196 71.5772L786.059 72.0819ZM773.725 83.8284L773.262 82.9421L773.257 82.945L773.725 83.8284ZM766.09 66.3261L765.373 65.629L765.368 65.6342L765.363 65.6394L766.09 66.3261ZM766.207 42.1282L765.47 42.8039L765.475 42.8094L765.48 42.8148L766.207 42.1282ZM746.826 42.1282L747.553 42.8143L747.563 42.8039L746.826 42.1282ZM746.708 66.3261L745.961 66.9904L745.966 66.9962L745.971 67.0018L746.708 66.3261ZM756.34 86.9397C750.066 86.9397 744.434 85.602 739.424 82.945L738.487 84.7119C743.813 87.5366 749.772 88.9397 756.34 88.9397V86.9397ZM739.43 82.948C734.505 80.296 730.605 76.512 727.72 71.5772L725.993 72.5866C729.06 77.8321 733.226 81.8791 738.481 84.7089L739.43 82.948ZM727.726 71.5872C724.927 66.6708 723.51 60.8952 723.51 54.2271H721.51C721.51 61.185 722.991 67.3126 725.987 72.5766L727.726 71.5872ZM723.51 54.2271C723.51 47.6442 724.963 41.9108 727.837 36.9945L726.111 35.9851C723.033 41.2492 721.51 47.3407 721.51 54.2271H723.51ZM727.841 36.9888C730.724 31.98 734.66 28.1602 739.659 25.5093L738.722 23.7424C733.384 26.5732 729.175 30.6627 726.107 35.9909L727.841 36.9888ZM739.659 25.5093C744.669 22.8522 750.301 21.5145 756.575 21.5145V19.5145C750.007 19.5145 744.048 20.9177 738.722 23.7424L739.659 25.5093ZM756.575 21.5145C762.85 21.5145 768.481 22.8522 773.492 25.5093L774.429 23.7424C769.102 20.9177 763.144 19.5145 756.575 19.5145V21.5145ZM773.492 25.5093C778.491 28.1602 782.426 31.98 785.31 36.9888L787.043 35.9909C783.975 30.6627 779.767 26.5732 774.429 23.7424L773.492 25.5093ZM785.313 36.9945C788.187 41.9108 789.64 47.6442 789.64 54.2271H791.64C791.64 47.3407 790.117 41.2492 787.04 35.9851L785.313 36.9945ZM789.64 54.2271C789.64 60.8052 788.151 66.5769 785.198 71.5732L786.92 72.5906C790.076 67.2499 791.64 61.1185 791.64 54.2271H789.64ZM785.196 71.5772C782.315 76.5044 778.343 80.2879 773.262 82.9421L774.188 84.7148C779.601 81.8872 783.851 77.8397 786.922 72.5866L785.196 71.5772ZM773.257 82.945C768.246 85.602 762.615 86.9397 756.34 86.9397V88.9397C762.909 88.9397 768.867 87.5366 774.194 84.7119L773.257 82.945ZM756.34 71.5548C760.456 71.5548 763.968 70.0295 766.817 67.0127L765.363 65.6394C762.887 68.261 759.899 69.5548 756.34 69.5548V71.5548ZM766.807 67.0232C769.783 63.9617 771.201 59.6447 771.201 54.2271H769.201C769.201 59.3031 767.878 63.0521 765.373 65.629L766.807 67.0232ZM771.201 54.2271C771.201 48.8168 769.827 44.5038 766.934 41.4416L765.48 42.8148C767.913 45.3909 769.201 49.1438 769.201 54.2271H771.201ZM766.945 41.4525C764.17 38.4259 760.692 36.8994 756.575 36.8994V38.8994C760.133 38.8994 763.076 40.1922 765.47 42.8039L766.945 41.4525ZM756.575 36.8994C752.387 36.8994 748.867 38.4211 746.088 41.4525L747.563 42.8039C749.953 40.1969 752.932 38.8994 756.575 38.8994V36.8994ZM746.098 41.4422C743.278 44.4334 741.949 48.7527 741.949 54.2271H743.949C743.949 49.0513 745.205 45.3047 747.553 42.8142L746.098 41.4422ZM741.949 54.2271C741.949 59.6231 743.238 63.9275 745.961 66.9904L747.456 65.6617C745.166 63.0863 743.949 59.3248 743.949 54.2271H741.949ZM745.971 67.0018C748.745 70.0284 752.224 71.5548 756.34 71.5548V69.5548C752.782 69.5548 749.839 68.2621 747.445 65.6503L745.971 67.0018ZM861.909 28.2673L861.168 28.9388L861.173 28.9448L861.179 28.9508L861.909 28.2673ZM868.839 87V88H869.839V87H868.839ZM848.87 87H847.87V88H848.87V87ZM845.464 41.1885L844.733 41.8716L844.733 41.8716L845.464 41.1885ZM827.139 41.1885L827.869 41.8716L827.869 41.8716L827.139 41.1885ZM823.732 87V88H824.732V87H823.732ZM803.646 87H802.646V88H803.646V87ZM803.646 21.4543V20.4543H802.646V21.4543H803.646ZM823.732 21.4543H824.732V20.4543H823.732V21.4543ZM823.732 30.1467H822.732V33.3091L824.551 30.7216L823.732 30.1467ZM831.955 23.3337L832.386 24.2362L832.394 24.2322L832.402 24.2281L831.955 23.3337ZM843.584 21.7495C851.018 21.7495 856.842 24.1653 861.168 28.9388L862.65 27.5957C857.892 22.3454 851.499 19.7495 843.584 19.7495V21.7495ZM861.179 28.9508C865.58 33.6506 867.839 40.1925 867.839 48.7062H869.839C869.839 39.8351 867.478 32.751 862.639 27.5837L861.179 28.9508ZM867.839 48.7062V87H869.839V48.7062H867.839ZM868.839 86H848.87V88H868.839V86ZM849.87 87V51.408H847.87V87H849.87ZM849.87 51.408C849.87 46.852 848.688 43.1711 846.194 40.5053L844.733 41.8716C846.782 44.0611 847.87 47.1931 847.87 51.408H849.87ZM846.194 40.5053C843.704 37.8438 840.369 36.547 836.301 36.547V38.547C839.908 38.547 842.681 39.6779 844.733 41.8716L846.194 40.5053ZM836.301 36.547C832.234 36.547 828.899 37.8438 826.409 40.5053L827.869 41.8716C829.921 39.6779 832.694 38.547 836.301 38.547V36.547ZM826.409 40.5053C823.915 43.1711 822.732 46.852 822.732 51.408H824.732C824.732 47.1931 825.821 44.0611 827.869 41.8716L826.409 40.5053ZM822.732 51.408V87H824.732V51.408H822.732ZM823.732 86H803.646V88H823.732V86ZM804.646 87V21.4543H802.646V87H804.646ZM803.646 22.4543H823.732V20.4543L803.646 20.4543V22.4543ZM822.732 21.4543V30.1467H824.732V21.4543H822.732ZM824.551 30.7216C826.48 27.9757 829.083 25.8126 832.386 24.2362L831.524 22.4312C827.936 24.1438 825.057 26.5227 822.914 29.5718L824.551 30.7216ZM832.402 24.2281C835.693 22.5826 839.414 21.7495 843.584 21.7495V19.7495C839.14 19.7495 835.108 20.6392 831.508 22.4393L832.402 24.2281ZM944.702 44.2426L945.574 44.7312L945.578 44.7238L944.702 44.2426ZM934.6 53.7573L934.128 52.8753L934.128 52.8753L934.6 53.7573ZM905.233 57.3987V56.3987H904.233V57.3987H905.233ZM905.233 87V88H906.233V87H905.233ZM885.147 87H884.147V88H885.147V87ZM885.147 4.53922V3.53922H884.147V4.53922H885.147ZM934.365 7.94572L934.812 7.05129L934.812 7.05129L934.365 7.94572ZM924.733 23.4512L925.425 22.7292L924.733 23.4512ZM905.233 20.7495V19.7495H904.233V20.7495H905.233ZM905.233 41.4234H904.233V42.4234H905.233V41.4234ZM946.991 31.0864C946.991 35.7036 945.933 39.9222 943.825 43.7613L945.578 44.7238C947.856 40.5753 948.991 36.0232 948.991 31.0864H946.991ZM943.829 43.754C941.743 47.4792 938.527 50.5242 934.128 52.8753L935.071 54.6392C939.756 52.1351 943.275 48.837 945.574 44.7312L943.829 43.754ZM934.128 52.8753C929.769 55.2053 924.304 56.3987 917.685 56.3987V58.3987C924.535 58.3987 930.346 57.1645 935.071 54.6392L934.128 52.8753ZM917.685 56.3987H905.233V58.3987H917.685V56.3987ZM904.233 57.3987V87H906.233V57.3987H904.233ZM905.233 86H885.147V88H905.233V86ZM886.147 87V4.53922H884.147V87H886.147ZM885.147 5.53922L917.685 5.53922V3.53922L885.147 3.53922V5.53922ZM917.685 5.53922C924.152 5.53922 929.549 6.65598 933.918 8.84015L934.812 7.05129C930.096 4.69346 924.374 3.53922 917.685 3.53922V5.53922ZM933.918 8.84015C938.302 11.0322 941.552 14.0336 943.715 17.8373L945.454 16.8487C943.074 12.6646 939.512 9.40119 934.812 7.05129L933.918 8.84015ZM943.715 17.8373C945.89 21.6623 946.991 26.0692 946.991 31.0864H948.991C948.991 25.7667 947.821 21.0112 945.454 16.8487L943.715 17.8373ZM916.158 42.4234C920.132 42.4234 923.287 41.4922 925.425 39.4437L924.041 37.9997C922.419 39.5534 919.858 40.4234 916.158 40.4234V42.4234ZM925.425 39.4437C927.55 37.4071 928.552 34.5719 928.552 31.0864H926.552C926.552 34.179 925.674 36.434 924.041 37.9997L925.425 39.4437ZM928.552 31.0864C928.552 27.6009 927.55 24.7658 925.425 22.7292L924.041 24.1732C925.674 25.7388 926.552 27.9939 926.552 31.0864H928.552ZM925.425 22.7292C923.287 20.6806 920.132 19.7495 916.158 19.7495V21.7495C919.858 21.7495 922.419 22.6194 924.041 24.1732L925.425 22.7292ZM916.158 19.7495H905.233V21.7495H916.158V19.7495ZM904.233 20.7495V41.4234H906.233V20.7495H904.233ZM905.233 42.4234H916.158V40.4234H905.233V42.4234ZM1027.75 21.4543L1028.67 21.8456L1029.26 20.4543H1027.75V21.4543ZM986.64 118.128V119.128H987.301L987.56 118.52L986.64 118.128ZM965.026 118.128L964.114 117.717L963.478 119.128H965.026V118.128ZM980.062 84.7682L980.973 85.1791L981.152 84.7817L980.983 84.38L980.062 84.7682ZM953.397 21.4543V20.4543H951.891L952.475 21.8424L953.397 21.4543ZM975.833 21.4543L976.771 21.1076L976.529 20.4543H975.833V21.4543ZM990.986 62.4497L990.048 62.7964L990.99 65.3439L991.925 62.794L990.986 62.4497ZM1006.02 21.4543V20.4543H1005.32L1005.08 21.1099L1006.02 21.4543ZM1026.83 21.0629L985.719 117.737L987.56 118.52L1028.67 21.8456L1026.83 21.0629ZM986.64 117.128L965.026 117.128V119.128L986.64 119.128V117.128ZM965.938 118.539L980.973 85.1791L979.15 84.3573L964.114 117.717L965.938 118.539ZM980.983 84.38L954.319 21.0661L952.475 21.8424L979.14 85.1563L980.983 84.38ZM953.397 22.4543H975.833V20.4543H953.397V22.4543ZM974.895 21.801L990.048 62.7964L991.924 62.103L976.771 21.1076L974.895 21.801ZM991.925 62.794L1006.96 21.7986L1005.08 21.1099L990.047 62.1054L991.925 62.794ZM1006.02 22.4543L1027.75 22.4543V20.4543H1006.02V22.4543ZM1073.9 69.9675H1074.9V68.9675H1073.9V69.9675ZM1073.9 87V88H1074.9V87H1073.9ZM1046.65 81.7141L1045.98 82.4631L1045.99 82.4702L1046.65 81.7141ZM1040.54 38.1344H1041.54V37.1344H1040.54V38.1344ZM1032.55 38.1344H1031.55V39.1344H1032.55V38.1344ZM1032.55 21.4543V20.4543H1031.55V21.4543H1032.55ZM1040.54 21.4543V22.4543H1041.54V21.4543H1040.54ZM1040.54 5.47895V4.47895H1039.54V5.47895H1040.54ZM1060.62 5.47895H1061.62V4.47895H1060.62V5.47895ZM1060.62 21.4543H1059.62V22.4543H1060.62V21.4543ZM1073.78 21.4543H1074.78V20.4543H1073.78V21.4543ZM1073.78 38.1344V39.1344H1074.78V38.1344H1073.78ZM1060.62 38.1344V37.1344H1059.62V38.1344H1060.62ZM1062.03 68.6754L1061.36 69.4125L1061.36 69.4125L1062.03 68.6754ZM1072.9 69.9675V87H1074.9V69.9675H1072.9ZM1073.9 86H1063.68V88H1073.9V86ZM1063.68 86C1056.55 86 1051.13 84.2766 1047.3 80.9579L1045.99 82.4702C1050.3 86.1995 1056.24 88 1063.68 88V86ZM1047.31 80.9651C1043.54 77.629 1041.54 72.1314 1041.54 64.2117H1039.54C1039.54 72.4239 1041.61 78.5945 1045.98 82.463L1047.31 80.9651ZM1041.54 64.2117V38.1344H1039.54V64.2117H1041.54ZM1040.54 37.1344H1032.55V39.1344H1040.54V37.1344ZM1033.55 38.1344V21.4543H1031.55V38.1344H1033.55ZM1032.55 22.4543H1040.54V20.4543H1032.55V22.4543ZM1041.54 21.4543V5.47895H1039.54V21.4543H1041.54ZM1040.54 6.47895H1060.62V4.47895H1040.54V6.47895ZM1059.62 5.47895V21.4543H1061.62V5.47895H1059.62ZM1060.62 22.4543H1073.78V20.4543H1060.62V22.4543ZM1072.78 21.4543V38.1344H1074.78V21.4543H1072.78ZM1073.78 37.1344H1060.62V39.1344H1073.78V37.1344ZM1059.62 38.1344V64.4466H1061.62V38.1344H1059.62ZM1059.62 64.4466C1059.62 66.5357 1060.12 68.2802 1061.36 69.4125L1062.71 67.9382C1062.06 67.3477 1061.62 66.2731 1061.62 64.4466H1059.62ZM1061.36 69.4125C1062.58 70.529 1064.45 70.9675 1066.73 70.9675V68.9675C1064.62 68.9675 1063.37 68.5446 1062.71 67.9382L1061.36 69.4125ZM1066.73 70.9675H1073.9V68.9675H1066.73V70.9675ZM1145.82 28.2673L1145.07 28.9388L1145.08 28.9446L1145.82 28.2673ZM1152.63 87V88H1153.63V87H1152.63ZM1132.66 87H1131.66V88H1132.66V87ZM1129.25 41.1885L1128.52 41.8716L1128.52 41.8716L1129.25 41.1885ZM1110.93 41.1885L1111.66 41.8716L1111.66 41.8716L1110.93 41.1885ZM1107.52 87V88H1108.52V87H1107.52ZM1087.44 87H1086.44V88H1087.44V87ZM1087.44 0.0755346V-0.924465H1086.44V0.0755346H1087.44ZM1107.52 0.0755346H1108.52V-0.924465H1107.52V0.0755346ZM1107.52 30.2642H1106.52V33.4265L1108.34 30.8391L1107.52 30.2642ZM1115.86 23.3337L1115.42 22.4353L1115.42 22.4353L1115.86 23.3337ZM1127.73 21.7495C1135 21.7495 1140.74 24.1607 1145.07 28.9388L1146.56 27.5957C1141.8 22.3501 1135.49 19.7495 1127.73 19.7495V21.7495ZM1145.08 28.9446C1149.41 33.644 1151.63 40.1881 1151.63 48.7062H1153.63C1153.63 39.8395 1151.31 32.7576 1146.55 27.5899L1145.08 28.9446ZM1151.63 48.7062V87H1153.63V48.7062H1151.63ZM1152.63 86L1132.66 86V88L1152.63 88V86ZM1133.66 87V51.408H1131.66V87H1133.66ZM1133.66 51.408C1133.66 46.852 1132.48 43.1711 1129.98 40.5053L1128.52 41.8716C1130.57 44.0611 1131.66 47.1931 1131.66 51.408H1133.66ZM1129.98 40.5053C1127.49 37.8438 1124.16 36.547 1120.09 36.547V38.547C1123.7 38.547 1126.47 39.6779 1128.52 41.8716L1129.98 40.5053ZM1120.09 36.547C1116.02 36.547 1112.69 37.8438 1110.2 40.5053L1111.66 41.8716C1113.71 39.6779 1116.48 38.547 1120.09 38.547V36.547ZM1110.2 40.5053C1107.7 43.1711 1106.52 46.852 1106.52 51.408H1108.52C1108.52 47.1931 1109.61 44.0611 1111.66 41.8716L1110.2 40.5053ZM1106.52 51.408V87H1108.52V51.408H1106.52ZM1107.52 86H1087.44V88H1107.52V86ZM1088.44 87V0.0755346H1086.44V87H1088.44ZM1087.44 1.07553H1107.52V-0.924465H1087.44V1.07553ZM1106.52 0.0755346V30.2642H1108.52V0.0755346H1106.52ZM1108.34 30.8391C1110.27 28.0941 1112.91 25.8889 1116.3 24.2321L1115.42 22.4353C1111.76 24.2241 1108.85 26.6393 1106.7 29.6892L1108.34 30.8391ZM1116.3 24.2321C1119.67 22.5836 1123.47 21.7495 1127.73 21.7495V19.7495C1123.21 19.7495 1119.1 20.6381 1115.42 22.4353L1116.3 24.2321ZM1181.39 83.8284L1180.91 84.7089L1180.92 84.7119L1181.39 83.8284ZM1169.29 72.0819L1168.42 72.5766L1168.43 72.5866L1169.29 72.0819ZM1169.41 36.4898L1170.27 36.9945L1170.27 36.9888L1169.41 36.4898ZM1181.62 24.6258L1182.09 25.5093L1182.09 25.5093L1181.62 24.6258ZM1216.39 24.6258L1215.92 25.5093L1215.92 25.5093L1216.39 24.6258ZM1228.61 36.4898L1227.74 36.9888L1227.75 36.9945L1228.61 36.4898ZM1228.49 72.0819L1227.63 71.5731L1227.63 71.5772L1228.49 72.0819ZM1216.16 83.8284L1215.69 82.9421L1215.69 82.945L1216.16 83.8284ZM1208.52 66.3261L1207.8 65.629L1207.8 65.6342L1207.79 65.6394L1208.52 66.3261ZM1208.64 42.1282L1207.9 42.8039L1207.91 42.8094L1207.91 42.8148L1208.64 42.1282ZM1189.26 42.1282L1189.99 42.8143L1189.99 42.8039L1189.26 42.1282ZM1189.14 66.3261L1188.39 66.9904L1188.4 66.9962L1188.4 67.0018L1189.14 66.3261ZM1198.77 86.9397C1192.5 86.9397 1186.87 85.602 1181.86 82.945L1180.92 84.7119C1186.25 87.5366 1192.2 88.9397 1198.77 88.9397V86.9397ZM1181.86 82.948C1176.94 80.296 1173.04 76.512 1170.15 71.5772L1168.43 72.5866C1171.49 77.8321 1175.66 81.8791 1180.91 84.7089L1181.86 82.948ZM1170.16 71.5872C1167.36 66.6708 1165.94 60.8952 1165.94 54.2271H1163.94C1163.94 61.185 1165.42 67.3126 1168.42 72.5766L1170.16 71.5872ZM1165.94 54.2271C1165.94 47.6442 1167.4 41.9108 1170.27 36.9945L1168.54 35.9851C1165.47 41.2492 1163.94 47.3407 1163.94 54.2271H1165.94ZM1170.27 36.9888C1173.16 31.98 1177.09 28.1602 1182.09 25.5093L1181.15 23.7424C1175.82 26.5732 1171.61 30.6627 1168.54 35.9909L1170.27 36.9888ZM1182.09 25.5093C1187.1 22.8522 1192.73 21.5145 1199.01 21.5145V19.5145C1192.44 19.5145 1186.48 20.9177 1181.15 23.7424L1182.09 25.5093ZM1199.01 21.5145C1205.28 21.5145 1210.91 22.8522 1215.92 25.5093L1216.86 23.7424C1211.53 20.9177 1205.58 19.5145 1199.01 19.5145V21.5145ZM1215.92 25.5093C1220.92 28.1602 1224.86 31.98 1227.74 36.9888L1229.48 35.9909C1226.41 30.6627 1222.2 26.5732 1216.86 23.7424L1215.92 25.5093ZM1227.75 36.9945C1230.62 41.9108 1232.07 47.6442 1232.07 54.2271H1234.07C1234.07 47.3407 1232.55 41.2492 1229.47 35.9851L1227.75 36.9945ZM1232.07 54.2271C1232.07 60.8052 1230.58 66.5769 1227.63 71.5732L1229.35 72.5906C1232.51 67.2499 1234.07 61.1185 1234.07 54.2271H1232.07ZM1227.63 71.5772C1224.75 76.5044 1220.78 80.2879 1215.69 82.9421L1216.62 84.7148C1222.03 81.8872 1226.28 77.8397 1229.35 72.5866L1227.63 71.5772ZM1215.69 82.945C1210.68 85.602 1205.05 86.9397 1198.77 86.9397V88.9397C1205.34 88.9397 1211.3 87.5366 1216.63 84.7119L1215.69 82.945ZM1198.77 71.5548C1202.89 71.5548 1206.4 70.0295 1209.25 67.0127L1207.79 65.6394C1205.32 68.261 1202.33 69.5548 1198.77 69.5548V71.5548ZM1209.24 67.0232C1212.22 63.9617 1213.63 59.6447 1213.63 54.2271H1211.63C1211.63 59.3031 1210.31 63.0521 1207.8 65.629L1209.24 67.0232ZM1213.63 54.2271C1213.63 48.8168 1212.26 44.5038 1209.37 41.4416L1207.91 42.8148C1210.35 45.3909 1211.63 49.1438 1211.63 54.2271H1213.63ZM1209.38 41.4525C1206.6 38.4259 1203.12 36.8994 1199.01 36.8994V38.8994C1202.57 38.8994 1205.51 40.1922 1207.9 42.8039L1209.38 41.4525ZM1199.01 36.8994C1194.82 36.8994 1191.3 38.4211 1188.52 41.4525L1189.99 42.8039C1192.38 40.1969 1195.36 38.8994 1199.01 38.8994V36.8994ZM1188.53 41.4422C1185.71 44.4334 1184.38 48.7527 1184.38 54.2271L1186.38 54.2271C1186.38 49.0513 1187.64 45.3047 1189.99 42.8142L1188.53 41.4422ZM1184.38 54.2271C1184.38 59.6231 1185.67 63.9275 1188.39 66.9904L1189.89 65.6617C1187.6 63.0863 1186.38 59.3248 1186.38 54.2271L1184.38 54.2271ZM1188.4 67.0018C1191.18 70.0284 1194.66 71.5548 1198.77 71.5548V69.5548C1195.21 69.5548 1192.27 68.2621 1189.88 65.6503L1188.4 67.0018ZM1304.34 28.2673L1303.6 28.9388L1303.61 28.9448L1303.61 28.9508L1304.34 28.2673ZM1311.27 87V88H1312.27V87H1311.27ZM1291.3 87H1290.3V88H1291.3V87ZM1287.9 41.1885L1287.17 41.8716L1287.17 41.8716L1287.9 41.1885ZM1269.57 41.1885L1270.3 41.8716L1270.3 41.8716L1269.57 41.1885ZM1266.16 87V88H1267.16V87H1266.16ZM1246.08 87H1245.08V88H1246.08V87ZM1246.08 21.4543V20.4543H1245.08V21.4543H1246.08ZM1266.16 21.4543H1267.16V20.4543H1266.16V21.4543ZM1266.16 30.1467H1265.16V33.3091L1266.98 30.7216L1266.16 30.1467ZM1274.39 23.3337L1274.82 24.2362L1274.83 24.2322L1274.83 24.2281L1274.39 23.3337ZM1286.02 21.7495C1293.45 21.7495 1299.27 24.1653 1303.6 28.9388L1305.08 27.5957C1300.32 22.3454 1293.93 19.7495 1286.02 19.7495V21.7495ZM1303.61 28.9508C1308.01 33.6506 1310.27 40.1925 1310.27 48.7062H1312.27C1312.27 39.8351 1309.91 32.751 1305.07 27.5837L1303.61 28.9508ZM1310.27 48.7062V87H1312.27V48.7062H1310.27ZM1311.27 86H1291.3V88H1311.27V86ZM1292.3 87V51.408H1290.3V87H1292.3ZM1292.3 51.408C1292.3 46.852 1291.12 43.1711 1288.63 40.5053L1287.17 41.8716C1289.21 44.0611 1290.3 47.1931 1290.3 51.408H1292.3ZM1288.63 40.5053C1286.14 37.8438 1282.8 36.547 1278.73 36.547V38.547C1282.34 38.547 1285.11 39.6779 1287.17 41.8716L1288.63 40.5053ZM1278.73 36.547C1274.67 36.547 1271.33 37.8438 1268.84 40.5053L1270.3 41.8716C1272.35 39.6779 1275.13 38.547 1278.73 38.547V36.547ZM1268.84 40.5053C1266.35 43.1711 1265.16 46.852 1265.16 51.408H1267.16C1267.16 47.1931 1268.25 44.0611 1270.3 41.8716L1268.84 40.5053ZM1265.16 51.408V87H1267.16V51.408H1265.16ZM1266.16 86H1246.08V88H1266.16V86ZM1247.08 87V21.4543H1245.08V87H1247.08ZM1246.08 22.4543H1266.16V20.4543L1246.08 20.4543V22.4543ZM1265.16 21.4543V30.1467H1267.16V21.4543H1265.16ZM1266.98 30.7216C1268.91 27.9757 1271.51 25.8126 1274.82 24.2362L1273.96 22.4312C1270.37 24.1438 1267.49 26.5227 1265.35 29.5718L1266.98 30.7216ZM1274.83 24.2281C1278.13 22.5826 1281.85 21.7495 1286.02 21.7495V19.7495C1281.57 19.7495 1277.54 20.6392 1273.94 22.4393L1274.83 24.2281Z" fill="#F2B125"/>
</svg>
