<svg width="75" height="75" viewBox="0 0 75 75" fill="none" xmlns="http://www.w3.org/2000/svg">
<path fill-rule="evenodd" clip-rule="evenodd" d="M50.774 0.150032C49.2538 0.507934 47.7501 1.77224 47.0426 3.28721L46.632 4.16621L46.5901 13.1394L46.548 22.1126H45.1838C41.9637 22.1126 39.4174 23.4011 37.7674 25.8657C36.3535 27.9778 36.3867 27.7207 36.298 37.2022L36.2204 45.4795L35.6947 46.5792C35.014 48.003 34.0575 48.9616 32.651 49.6287C31.7055 50.0775 31.3952 50.1488 30.126 50.2099L28.679 50.2795L28.637 41.1405L28.5951 32.0014L28.1848 31.1224C27.6462 29.9687 26.5167 28.8355 25.3844 28.3127L24.4891 27.8994H14.2975H4.10596L3.21072 28.3127C2.07835 28.8355 0.948917 29.9687 0.410303 31.1224L0 32.0014V51.4128V70.8242L0.410303 71.7032C0.950384 72.86 2.08114 73.9945 3.18901 74.4912C4.23926 74.9622 6.17302 75.1591 6.74478 74.8533C7.41507 74.4951 7.47388 73.4753 6.85153 73.0031C6.71251 72.8977 6.24356 72.8092 5.80935 72.8067C4.60586 72.7995 3.89377 72.525 3.14869 71.7806C2.35374 70.9864 2.1263 70.3216 2.1263 68.7928V67.6745H14.2975H26.4688V68.7928C26.4688 69.408 26.3881 70.1826 26.2896 70.5142C26.0538 71.3071 24.9725 72.3874 24.1788 72.623C23.7442 72.7519 21.8128 72.802 17.2777 72.802C11.1427 72.802 10.9719 72.8098 10.6592 73.1007C10.2243 73.5055 10.2278 74.2994 10.6664 74.7075C10.9905 75.0092 11.0758 75.0124 17.7419 74.9696L24.4891 74.9263L25.4015 74.5052C26.5195 73.9892 27.6468 72.8461 28.1997 71.6671L28.5951 70.8242L28.637 61.6313L28.6788 52.4383H29.8234C33.8557 52.4383 37.2249 49.8746 38.2005 46.0639C38.4743 44.9942 38.4934 44.4369 38.4934 37.479C38.4934 32.5239 38.5485 29.7787 38.6584 29.2617C39.0607 27.3685 40.3245 25.7968 42.1478 24.9223C43.1539 24.4398 43.361 24.3955 44.8922 24.3369L46.5484 24.2736L46.5902 33.7778L46.632 43.282L47.0423 44.161C47.5809 45.3147 48.7103 46.4479 49.8427 46.9708L50.738 47.3841H60.7829H70.8278L71.7402 46.963C72.8582 46.447 73.9855 45.3039 74.5385 44.1248L74.9338 43.282L74.9797 39.0335C75.0244 34.8865 75.0183 34.777 74.7174 34.4553C74.3197 34.03 73.5083 34.0116 73.1008 34.4187C72.843 34.6762 72.8075 34.907 72.8075 36.3232V37.9347H60.7829H48.7583V31.1224V24.3101H53.4108H58.0631L56.9302 25.4487C55.9412 26.4424 55.7971 26.654 55.7971 27.1108C55.7971 27.7652 56.1637 28.1192 56.8413 28.1192C57.3015 28.1192 57.5581 27.9088 59.5793 25.8743C61.4094 24.0322 61.8094 23.5546 61.8094 23.2114C61.8094 22.8681 61.4094 22.3905 59.5793 20.5484C57.5173 18.4729 57.309 18.3036 56.8158 18.3036C56.1537 18.3036 55.7971 18.6654 55.7971 19.3374C55.7971 19.7624 55.9629 20.002 56.9302 20.974L58.0631 22.1126H53.4108H48.7583V16.3258V10.539H60.7829H72.8075V20.4734C72.8075 30.2686 72.8118 30.4125 73.1065 30.7285C73.5102 31.1615 74.3063 31.1595 74.7119 30.7245C75.0137 30.4008 75.0145 30.3616 74.9743 17.283L74.9338 4.16621L74.5235 3.28721C73.9849 2.13351 72.8555 1.00032 71.7231 0.477462L70.8278 0.0641819L65.0346 0.0199386C59.3297 -0.0235723 59.2364 -0.0196167 58.9123 0.282029C58.4729 0.69106 58.4689 1.48451 58.9043 1.88973C59.215 2.17907 59.3938 2.18845 64.5696 2.18845C68.3536 2.18845 70.0902 2.24075 70.5175 2.36747C71.3112 2.60305 72.3925 3.68335 72.6283 4.47621C72.7269 4.80789 72.8075 5.81318 72.8075 6.71035V8.3415H60.7829H48.7583V6.71035C48.7583 4.65963 48.935 4.05487 49.7807 3.20985C50.6221 2.36938 51.2292 2.18962 53.2479 2.18376C54.9483 2.17878 55.2384 2.08267 55.4793 1.44408C55.6358 1.02933 55.4652 0.471748 55.0966 0.192077C54.8026 -0.0311903 51.6725 -0.0615161 50.774 0.150032ZM56.3037 4.30612C55.8138 4.79544 55.825 5.44341 56.3301 5.84028C56.6998 6.13094 56.8912 6.14398 60.7772 6.14398C64.832 6.14398 64.8381 6.14354 65.1566 5.80498C65.6077 5.32518 65.5778 4.63414 65.089 4.25016C64.7195 3.95965 64.5275 3.94646 60.6832 3.94646H56.6636L56.3037 4.30612ZM24.1788 30.2027C24.9725 30.4383 26.0538 31.5186 26.2896 32.3114C26.3881 32.6431 26.4688 33.6484 26.4688 34.5456V36.1767H14.2975H2.1263V34.5456C2.1263 33.6484 2.20695 32.6431 2.3055 32.3114C2.5259 31.5701 3.61427 30.4415 4.32592 30.2162C5.09198 29.9736 23.3648 29.9613 24.1788 30.2027ZM9.77938 32.0804C9.31408 32.5135 9.34561 33.2833 9.84478 33.6755C10.2142 33.9659 10.4064 33.9792 14.2358 33.9792C18.1822 33.9792 18.2459 33.9744 18.6078 33.6496C19.1382 33.1734 19.1734 32.5508 18.6968 32.0747C18.4173 31.7954 18.208 31.7817 14.2519 31.7817C10.2765 31.7817 10.0866 31.7944 9.77938 32.0804ZM26.4688 44.3075V50.2408H23.5543H20.6398L20.559 49.8379C20.3125 48.6092 18.7235 47.4573 17.275 47.4573C16.326 47.4573 15.9106 47.7887 15.9106 48.5454C15.9106 49.1838 16.4592 49.6529 17.2135 49.6595C18.1136 49.6674 18.5501 50.2162 18.5501 51.3396C18.5501 52.0535 18.3639 52.5393 17.9763 52.8365C17.646 53.09 10.8025 53.09 10.4721 52.8365C10.0845 52.5393 9.8983 52.0535 9.8983 51.3396C9.8983 50.1213 10.3268 49.6664 11.4813 49.6595C12.1066 49.6557 12.328 49.5848 12.6178 49.2952C13.0822 48.8313 13.0765 48.2751 12.6022 47.8013C12.2553 47.4548 12.1453 47.4303 11.1582 47.48C9.80298 47.5484 8.87416 48.0707 8.21574 49.1344C7.7981 49.8095 7.772 49.939 7.772 51.3396C7.772 52.7401 7.7981 52.8696 8.21574 53.5447C8.49069 53.9888 8.93281 54.4306 9.37699 54.7053L10.0944 55.1486L14.0502 55.1921L18.006 55.2355L18.8019 54.8465C19.6497 54.4321 20.4151 53.5585 20.559 52.8412L20.6398 52.4383H23.5543H26.4688V58.9576V65.4769H14.2975H2.1263V51.9256V38.3742H14.2975H26.4688V44.3075ZM72.8075 41.2506C72.8075 41.8658 72.7269 42.6403 72.6283 42.972C72.3925 43.7649 71.3112 44.8452 70.5175 45.0808C70.0701 45.2135 67.5506 45.2598 60.7829 45.2598C54.0152 45.2598 51.4957 45.2135 51.0482 45.0808C50.2546 44.8452 49.1733 43.7649 48.9375 42.972C48.8389 42.6403 48.7583 41.8658 48.7583 41.2506V40.1322H60.7829H72.8075V41.2506Z" fill="#E49B00"/>
</svg>
