<svg width="47" height="38" viewBox="0 0 47 38" fill="none" xmlns="http://www.w3.org/2000/svg">
<path d="M21.2379 4.75097L22.5546 5.45922L23.2675 4.13377L21.9374 3.42959L21.2379 4.75097ZM12.7455 20.5396L13.1329 21.9836L13.7564 21.8164L14.0622 21.2478L12.7455 20.5396ZM7.84146 21.8553L6.52503 21.1465L4.88232 24.1972L8.22889 23.2994L7.84146 21.8553ZM9.75523 19.2239L8.75503 18.1125L8.72581 18.1388L8.69801 18.1666L9.75523 19.2239ZM17.8888 20.7788L16.8072 21.8112L16.8192 21.8237L16.8315 21.836L17.8888 20.7788ZM17.6495 34.6536L18.7281 35.6891L18.7382 35.6785L18.7482 35.6678L17.6495 34.6536ZM3.53547 34.6536L2.47825 35.7109H2.47825L3.53547 34.6536ZM1.26287 23.4102L2.6886 23.8605L2.69185 23.8502L2.69495 23.8399L1.26287 23.4102ZM3.8943 17.4297L2.57994 16.717L2.57507 16.7261L3.8943 17.4297ZM13.1043 0.444987L13.8039 -0.876393L12.4956 -1.569L11.79 -0.267715L13.1043 0.444987ZM46.9541 4.75097L48.2709 5.45922L48.9838 4.13377L47.6537 3.42959L46.9541 4.75097ZM38.4618 20.5396L38.8492 21.9836L39.4727 21.8164L39.7785 21.2478L38.4618 20.5396ZM33.5578 21.8553L32.2413 21.1465L30.5986 24.1972L33.9452 23.2994L33.5578 21.8553ZM43.605 20.7788L42.5235 21.8112L42.5355 21.8237L42.5478 21.836L43.605 20.7788ZM43.2462 34.6536L42.1685 33.6174L42.1676 33.6182L43.2462 34.6536ZM29.2518 34.6536L30.309 33.5964L29.2518 34.6536ZM26.9792 23.4102L28.4049 23.8605L28.4081 23.8502L28.4112 23.8399L26.9792 23.4102ZM29.6106 17.4297L28.2962 16.717L28.2914 16.7261L29.6106 17.4297ZM38.8206 0.444987L39.5202 -0.876393L38.2119 -1.569L37.5063 -0.267715L38.8206 0.444987ZM19.9211 4.04273L11.4288 19.8313L14.0622 21.2478L22.5546 5.45922L19.9211 4.04273ZM12.3581 19.0955L7.45403 20.4112L8.22889 23.2994L13.1329 21.9836L12.3581 19.0955ZM9.15788 22.5641C9.65785 21.6356 10.2126 20.8809 10.8124 20.2811L8.69801 18.1666C7.86253 19.0021 7.14143 20.0017 6.52503 21.1465L9.15788 22.5641ZM10.7554 20.3352C11.3424 19.8069 11.8373 19.6425 12.2671 19.6425L12.2671 16.6522C10.9425 16.6522 9.76286 17.2055 8.75503 18.1125L10.7554 20.3352ZM12.2671 19.6425C13.862 19.6425 15.3628 20.2979 16.8072 21.8112L18.9703 19.7464C17.0656 17.7511 14.8186 16.6522 12.2671 16.6522L12.2671 19.6425ZM16.8315 21.836C18.2871 23.2916 19.0251 25.0958 19.0251 27.3574H22.0153C22.0153 24.3561 20.999 21.7746 18.946 19.7216L16.8315 21.836ZM19.0251 27.3574C19.0251 29.7679 18.2128 31.8391 16.5509 33.6395L18.7482 35.6678C20.9138 33.3217 22.0153 30.5287 22.0153 27.3574H19.0251ZM16.571 33.6182C14.9423 35.3147 12.9809 36.1488 10.5925 36.1488V39.139C13.786 39.139 16.5292 37.9796 18.7281 35.6891L16.571 33.6182ZM10.5925 36.1488C8.29516 36.1488 6.31828 35.322 4.59269 33.5964L2.47825 35.7109C4.73969 37.9723 7.4675 39.139 10.5925 39.139V36.1488ZM4.59269 33.5964C2.88526 31.889 2.04034 29.8396 2.04034 27.3574H-0.949928C-0.949928 30.6165 0.198666 33.4313 2.47825 35.7109L4.59269 33.5964ZM2.04034 27.3574C2.04034 26.4433 2.23838 25.2862 2.6886 23.8605L-0.162863 22.96C-0.669529 24.5644 -0.949928 26.0387 -0.949928 27.3574H2.04034ZM2.69495 23.8399C3.13288 22.3801 3.95917 20.4852 5.21354 18.1333L2.57507 16.7261C1.27775 19.1586 0.349747 21.2508 -0.169208 22.9806L2.69495 23.8399ZM5.20864 18.1424L14.4187 1.15769L11.79 -0.267715L2.57997 16.717L5.20864 18.1424ZM12.4048 1.76637L20.5383 6.07235L21.9374 3.42959L13.8039 -0.876393L12.4048 1.76637ZM45.6374 4.04273L37.145 19.8313L39.7785 21.2478L48.2709 5.45922L45.6374 4.04273ZM38.0744 19.0955L33.1703 20.4112L33.9452 23.2994L38.8492 21.9836L38.0744 19.0955ZM34.8742 22.5641C35.3741 21.6356 35.9289 20.8809 36.5287 20.2811L34.4143 18.1666C33.5788 19.0021 32.8577 20.0017 32.2413 21.1465L34.8742 22.5641ZM36.5287 20.2811C36.9849 19.8249 37.4489 19.6425 37.9833 19.6425V16.6522C36.604 16.6522 35.3935 17.1875 34.4143 18.1666L36.5287 20.2811ZM37.9833 19.6425C39.5783 19.6425 41.0791 20.2979 42.5235 21.8112L44.6866 19.7464C42.7819 17.7511 40.5349 16.6522 37.9833 16.6522V19.6425ZM42.5478 21.836C44.0034 23.2916 44.7413 25.0958 44.7413 27.3574H47.7316C47.7316 24.3561 46.7153 21.7746 44.6623 19.7216L42.5478 21.836ZM44.7413 27.3574C44.7413 29.749 43.9033 31.8132 42.1685 33.6174L44.324 35.6899C46.5762 33.3476 47.7316 30.5476 47.7316 27.3574H44.7413ZM42.1676 33.6182C40.539 35.3147 38.5776 36.1488 36.1892 36.1488V39.139C39.3826 39.139 42.1259 37.9796 44.3248 35.6891L42.1676 33.6182ZM36.1892 36.1488C33.9845 36.1488 32.0443 35.3317 30.309 33.5964L28.1945 35.7109C30.4463 37.9626 33.131 39.139 36.1892 39.139V36.1488ZM30.309 33.5964C28.6016 31.889 27.7566 29.8396 27.7566 27.3574H24.7664C24.7664 30.6165 25.915 33.4313 28.1945 35.7109L30.309 33.5964ZM27.7566 27.3574C27.7566 26.4433 27.9547 25.2862 28.4049 23.8605L25.5534 22.96C25.0468 24.5644 24.7664 26.0387 24.7664 27.3574H27.7566ZM28.4112 23.8399C28.8492 22.3801 29.6755 20.4852 30.9298 18.1333L28.2914 16.7261C26.994 19.1586 26.066 21.2508 25.5471 22.9806L28.4112 23.8399ZM30.9249 18.1424L40.135 1.15769L37.5063 -0.267715L28.2963 16.717L30.9249 18.1424ZM38.1211 1.76637L46.2546 6.07235L47.6537 3.42959L39.5202 -0.876393L38.1211 1.76637Z" fill="#E49B00"/>
</svg>
