<svg width="2297" height="96" viewBox="0 0 2297 96" fill="none" xmlns="http://www.w3.org/2000/svg">
<path d="M42.3355 95L41.4596 95.4826L41.7447 96H42.3355V95ZM25.1855 63.8716L26.0614 63.3891L25.7763 62.8716H25.1855V63.8716ZM20.3695 63.8716V62.8716H19.3695V63.8716H20.3695ZM20.3695 95V96H21.3695V95H20.3695ZM0.282861 95H-0.717139L-0.717139 96H0.282861L0.282861 95ZM0.282861 12.5392V11.5392H-0.717139V12.5392H0.282861ZM50.5581 15.9457L50.1109 16.8402L50.117 16.8432L50.5581 15.9457ZM60.8951 25.343L60.0257 25.8373L60.03 25.8447L60.8951 25.343ZM59.6029 53.1823L58.7941 52.5941L58.7872 52.6039L59.6029 53.1823ZM45.9769 62.3446L45.6907 61.3864L44.4731 61.7501L45.1129 62.8481L45.9769 62.3446ZM65.0064 95V96H66.7465L65.8704 94.4965L65.0064 95ZM20.3695 49.6583H19.3695V50.6583H20.3695V49.6583ZM41.0434 46.9566L40.3515 46.2346L40.3438 46.242L40.3363 46.2495L41.0434 46.9566ZM41.0434 31.921L40.3363 32.6281L40.3438 32.6357L40.3515 32.643L41.0434 31.921ZM20.3695 29.2193V28.2193H19.3695V29.2193H20.3695ZM43.2114 94.5174L26.0614 63.3891L24.3097 64.3542L41.4596 95.4826L43.2114 94.5174ZM25.1855 62.8716H20.3695V64.8716H25.1855V62.8716ZM19.3695 63.8716L19.3695 95H21.3695L21.3695 63.8716H19.3695ZM20.3695 94H0.282861L0.282861 96H20.3695V94ZM1.28286 95L1.28286 12.5392H-0.717139L-0.717139 95H1.28286ZM0.282861 13.5392L33.9955 13.5392V11.5392L0.282861 11.5392L0.282861 13.5392ZM33.9955 13.5392C40.3821 13.5392 45.7411 14.6552 50.1109 16.8401L51.0053 15.0513C46.2911 12.6942 40.6083 11.5392 33.9955 11.5392V13.5392ZM50.117 16.8432C54.5799 19.0368 57.8656 22.0383 60.0258 25.8373L61.7643 24.8487C59.3825 20.66 55.7769 17.3966 50.9992 15.0483L50.117 16.8432ZM60.03 25.8447C62.2062 29.5967 63.3016 33.8068 63.3016 38.4991H65.3016C65.3016 33.4809 64.1259 28.9202 61.7601 24.8412L60.03 25.8447ZM63.3016 38.4991C63.3016 43.7761 61.7985 48.4632 58.7942 52.5941L60.4117 53.7705C63.6722 49.2872 65.3016 44.1855 65.3016 38.4991H63.3016ZM58.7872 52.6039C55.8858 56.6956 51.5492 59.6365 45.6907 61.3864L46.2631 63.3028C52.4645 61.4504 57.2119 58.2831 60.4187 53.7607L58.7872 52.6039ZM45.1129 62.8481L64.1423 95.5035L65.8704 94.4965L46.8409 61.8411L45.1129 62.8481ZM65.0064 94H42.3355V96H65.0064V94ZM20.3695 50.6583H32.8208V48.6583H20.3695V50.6583ZM32.8208 50.6583C36.6483 50.6583 39.6921 49.7221 41.7505 47.6637L40.3363 46.2495C38.7924 47.7934 36.3545 48.6583 32.8208 48.6583V50.6583ZM41.7353 47.6786C43.8605 45.642 44.8626 42.8069 44.8626 39.3214H42.8626C42.8626 42.4139 41.9852 44.669 40.3515 46.2346L41.7353 47.6786ZM44.8626 39.3214C44.8626 35.976 43.8508 33.2264 41.7353 31.199L40.3515 32.643C41.9948 34.2179 42.8626 36.4019 42.8626 39.3214H44.8626ZM41.7505 31.2139C39.6921 29.1555 36.6483 28.2193 32.8208 28.2193V30.2193C36.3545 30.2193 38.7924 31.0843 40.3363 32.6281L41.7505 31.2139ZM32.8208 28.2193H20.3695V30.2193H32.8208V28.2193ZM19.3695 29.2193L19.3695 49.6583H21.3695L21.3695 29.2193H19.3695ZM140.695 67.0432V68.0432H141.586L141.688 67.1578L140.695 67.0432ZM95.2354 67.0432V66.0432H94.1555L94.2383 67.1199L95.2354 67.0432ZM99.1117 76.4405L98.4171 77.1599L98.4297 77.172L98.4428 77.1837L99.1117 76.4405ZM118.141 73.2689V72.2689H117.502L117.234 72.8488L118.141 73.2689ZM139.52 73.2689L140.489 73.5156L140.806 72.2689H139.52V73.2689ZM133.529 84.898L132.764 84.2543L132.755 84.2647L133.529 84.898ZM122.84 93.0031L123.254 93.9135L122.84 93.0031ZM91.2415 91.8284L90.7617 92.7058L90.7617 92.7058L91.2415 91.8284ZM79.495 80.0819L80.3698 79.5974L80.3698 79.5974L79.495 80.0819ZM79.3775 44.3724L78.5027 43.8878L78.497 43.8983L79.3775 44.3724ZM91.1241 32.6258L91.6039 33.5032L91.6039 33.5032L91.1241 32.6258ZM125.307 32.5084L124.832 33.3884L124.832 33.3884L125.307 32.5084ZM136.818 43.9025L135.944 44.3882L135.95 44.3986L136.818 43.9025ZM120.49 55.884V56.884H121.49V55.884H120.49ZM116.966 47.6614L117.621 46.9057L117.621 46.9057L116.966 47.6614ZM99.5816 47.5439L98.9414 46.7757L98.935 46.7811L98.9286 46.7865L99.5816 47.5439ZM95.3528 55.884L94.3642 55.7335L94.1891 56.884H95.3528V55.884ZM140.047 61.1699C140.047 63.0078 139.932 64.9272 139.701 66.9286L141.688 67.1578C141.927 65.0871 142.047 63.0909 142.047 61.1699H140.047ZM140.695 66.0432L95.2354 66.0432V68.0432L140.695 68.0432V66.0432ZM94.2383 67.1199C94.5647 71.3625 95.9234 74.7521 98.4171 77.1599L99.8063 75.721C97.7581 73.7434 96.5325 70.8682 96.2324 66.9665L94.2383 67.1199ZM98.4428 77.1837C100.988 79.4748 104.09 80.612 107.687 80.612V78.612C104.549 78.612 101.934 77.6349 99.7807 75.6972L98.4428 77.1837ZM107.687 80.612C110.334 80.612 112.647 80.0529 114.578 78.8812C116.514 77.7067 117.999 75.9571 119.049 73.689L117.234 72.8488C116.326 74.8094 115.09 76.2314 113.54 77.1713C111.987 78.114 110.052 78.612 107.687 78.612V80.612ZM118.141 74.2689L139.52 74.2689V72.2689L118.141 72.2689V74.2689ZM138.551 73.0222C137.492 77.1814 135.566 80.9224 132.764 84.2544L134.294 85.5416C137.288 81.9822 139.355 77.9705 140.489 73.5156L138.551 73.0222ZM132.755 84.2647C130.039 87.5842 126.602 90.1944 122.426 92.0927L123.254 93.9135C127.691 91.8963 131.381 89.1031 134.303 85.5312L132.755 84.2647ZM122.426 92.0927C118.264 93.9844 113.592 94.9397 108.391 94.9397V96.9397C113.841 96.9397 118.801 95.9373 123.254 93.9135L122.426 92.0927ZM108.391 94.9397C102.117 94.9397 96.5686 93.6019 91.7213 90.9511L90.7617 92.7058C95.9382 95.5367 101.824 96.9397 108.391 96.9397V94.9397ZM91.7213 90.9511C86.8789 88.3029 83.099 84.5251 80.3698 79.5974L78.6202 80.5664C81.5293 85.819 85.5804 89.8723 90.7617 92.7058L91.7213 90.9511ZM80.3698 79.5974C77.6458 74.679 76.2662 68.8997 76.2662 62.2271H74.2662C74.2662 69.1805 75.7059 75.3044 78.6202 80.5664L80.3698 79.5974ZM76.2662 62.2271C76.2662 55.5501 77.6085 49.767 80.258 44.8465L78.497 43.8983C75.6648 49.1581 74.2662 55.2782 74.2662 62.2271H76.2662ZM80.2523 44.8569C82.9815 39.9292 86.7615 36.1514 91.6039 33.5032L90.6443 31.7485C85.4629 34.582 81.4119 38.6352 78.5027 43.8879L80.2523 44.8569ZM91.6039 33.5032C96.4494 30.8533 102.036 29.5145 108.391 29.5145V27.5145C101.747 27.5145 95.8225 28.9166 90.6443 31.7485L91.6039 33.5032ZM108.391 29.5145C114.591 29.5145 120.062 30.8144 124.832 33.3884L125.781 31.6283C120.684 28.8772 114.878 27.5145 108.391 27.5145V29.5145ZM124.832 33.3884C129.596 35.9596 133.295 39.6203 135.944 44.3882L137.692 43.4169C134.859 38.3176 130.884 34.3822 125.781 31.6283L124.832 33.3884ZM135.95 44.3986C138.67 49.1587 140.047 54.7382 140.047 61.1699H142.047C142.047 54.4456 140.605 48.5134 137.686 43.4064L135.95 44.3986ZM121.49 55.884C121.49 52.1836 120.215 49.1537 117.621 46.9057L116.312 48.4171C118.416 50.2413 119.49 52.6931 119.49 55.884H121.49ZM117.621 46.9057C115.066 44.691 111.887 43.6073 108.157 43.6073V45.6073C111.474 45.6073 114.168 46.5597 116.312 48.4171L117.621 46.9057ZM108.157 43.6073C104.581 43.6073 101.489 44.6528 98.9414 46.7757L100.222 48.3122C102.373 46.5196 104.998 45.6073 108.157 45.6073V43.6073ZM98.9286 46.7865C96.4401 48.9318 94.9402 51.9483 94.3642 55.7335L96.3414 56.0344C96.8618 52.6151 98.181 50.0716 100.235 48.3013L98.9286 46.7865ZM95.3528 56.884H120.49V54.884H95.3528V56.884ZM153.758 44.3724L152.866 43.9196L152.861 43.9307L153.758 44.3724ZM164.212 32.6258L164.742 33.4738L164.742 33.4738L164.212 32.6258ZM190.995 31.3337L190.516 32.2116L190.524 32.216L190.995 31.3337ZM199.1 38.734L198.248 39.2581L200.1 42.2671V38.734H199.1ZM199.1 29.4543V28.4543H198.1V29.4543H199.1ZM219.186 29.4543H220.186V28.4543H219.186V29.4543ZM219.186 95V96H220.186V95H219.186ZM199.1 95H198.1V96H199.1V95ZM199.1 85.7202H200.1V82.3072L198.258 85.1806L199.1 85.7202ZM190.877 93.1206L190.406 92.2382L190.398 92.2427L190.877 93.1206ZM164.212 91.8284L163.672 92.6697L163.682 92.6764L164.212 91.8284ZM153.758 79.9644L152.858 80.4007L152.862 80.4089L152.866 80.4171L153.758 79.9644ZM194.871 50.3631L194.144 51.0504L194.154 51.0605L194.871 50.3631ZM174.549 50.3631L173.833 49.6658L173.832 49.666L174.549 50.3631ZM174.549 74.0911L173.814 74.7686L173.823 74.7787L173.833 74.7885L174.549 74.0911ZM194.871 74.0911L194.154 73.3937L194.144 73.4039L194.871 74.0911ZM150.999 62.1097C150.999 55.4997 152.228 49.7434 154.655 44.8141L152.861 43.9307C150.276 49.1817 148.999 55.2502 148.999 62.1097H150.999ZM154.65 44.8251C157.16 39.8797 160.527 36.1084 164.742 33.4738L163.682 31.7778C159.127 34.6249 155.524 38.6847 152.866 43.9197L154.65 44.8251ZM164.742 33.4738C168.962 30.8369 173.671 29.5145 178.896 29.5145V27.5145C173.314 27.5145 168.234 28.9331 163.682 31.7778L164.742 33.4738ZM178.896 29.5145C183.378 29.5145 187.241 30.4254 190.516 32.2116L191.473 30.4558C187.857 28.4831 183.653 27.5145 178.896 27.5145V29.5145ZM190.524 32.216C193.91 34.0217 196.472 36.3718 198.248 39.2581L199.951 38.2099C197.969 34.988 195.127 32.4046 191.465 30.4513L190.524 32.216ZM200.1 38.734V29.4543H198.1V38.734H200.1ZM199.1 30.4543L219.186 30.4543V28.4543H199.1V30.4543ZM218.186 29.4543L218.186 95H220.186L220.186 29.4543H218.186ZM219.186 94H199.1V96H219.186V94ZM200.1 95V85.7202H198.1V95H200.1ZM198.258 85.1806C196.401 88.0763 193.795 90.431 190.406 92.2382L191.348 94.0029C195.007 92.0512 197.882 89.4723 199.942 86.2599L198.258 85.1806ZM190.398 92.2427C187.123 94.0289 183.261 94.9397 178.778 94.9397V96.9397C183.536 96.9397 187.739 95.9711 191.356 93.9984L190.398 92.2427ZM178.778 94.9397C173.635 94.9397 168.964 93.6189 164.742 90.9804L163.682 92.6764C168.232 95.5197 173.271 96.9397 178.778 96.9397V94.9397ZM164.753 90.9873C160.531 88.2731 157.161 84.459 154.65 79.5117L152.866 80.4171C155.523 85.6501 159.123 89.7454 163.672 92.6696L164.753 90.9873ZM154.658 79.5281C152.228 74.5172 150.999 68.7192 150.999 62.1097H148.999C148.999 68.9695 150.276 75.0747 152.858 80.4007L154.658 79.5281ZM200.1 62.2271C200.1 57.0207 198.63 52.7923 195.588 49.6658L194.154 51.0605C196.75 53.7288 198.1 57.4099 198.1 62.2271H200.1ZM195.597 49.6759C192.667 46.5784 189.037 45.0169 184.769 45.0169V47.0169C188.488 47.0169 191.593 48.3528 194.144 51.0503L195.597 49.6759ZM184.769 45.0169C180.501 45.0169 176.837 46.5775 173.833 49.6658L175.266 51.0605C177.9 48.3538 181.049 47.0169 184.769 47.0169V45.0169ZM173.832 49.666C170.864 52.7193 169.438 56.9122 169.438 62.1097H171.438C171.438 57.2834 172.753 53.6452 175.266 51.0602L173.832 49.666ZM169.438 62.1097C169.438 67.3098 170.865 71.5667 173.814 74.7686L175.285 73.4137C172.752 70.664 171.438 66.9332 171.438 62.1097H169.438ZM173.833 74.7885C176.837 77.8768 180.501 79.4374 184.769 79.4374V77.4374C181.049 77.4374 177.9 76.1004 175.266 73.3938L173.833 74.7885ZM184.769 79.4374C189.037 79.4374 192.667 77.8758 195.597 74.7783L194.144 73.4039C191.593 76.1014 188.488 77.4374 184.769 77.4374V79.4374ZM195.588 74.7885C198.63 71.6619 200.1 67.4336 200.1 62.2271H198.1C198.1 67.0444 196.75 70.7254 194.154 73.3938L195.588 74.7885ZM236.185 44.3724L235.31 43.8878L235.304 43.8983L236.185 44.3724ZM247.814 32.6258L247.334 31.7484L247.328 31.7517L247.814 32.6258ZM285.52 34.9751L284.902 35.7615L284.908 35.7657L285.52 34.9751ZM296.445 53.1823V54.1823H297.688L297.421 52.9674L296.445 53.1823ZM275.066 53.1823L274.125 53.5205L274.363 54.1823H275.066V53.1823ZM255.802 50.0107L256.591 50.6247L256.599 50.6142L255.802 50.0107ZM255.802 74.561L255.004 75.1645L255.012 75.1749L255.802 74.561ZM275.066 71.272V70.272H274.363L274.125 70.9338L275.066 71.272ZM296.445 71.272L297.42 71.491L297.694 70.272H296.445V71.272ZM285.52 89.3617L284.901 88.5765L284.901 88.5765L285.52 89.3617ZM247.814 91.8284L247.328 92.7026L247.334 92.7058L247.814 91.8284ZM236.185 80.0819L235.304 80.556L235.31 80.5664L236.185 80.0819ZM233.073 62.2271C233.073 55.5501 234.416 49.767 237.065 44.8465L235.304 43.8983C232.472 49.1581 231.073 55.2782 231.073 62.2271H233.073ZM237.06 44.8569C239.791 39.9251 243.535 36.147 248.299 33.5L247.328 31.7517C242.226 34.5864 238.217 38.6393 235.31 43.8879L237.06 44.8569ZM248.294 33.5032C253.141 30.8524 258.689 29.5145 264.964 29.5145V27.5145C258.396 27.5145 252.511 28.9176 247.334 31.7485L248.294 33.5032ZM264.964 29.5145C273.004 29.5145 279.627 31.6166 284.902 35.7614L286.138 34.1888C280.45 29.7195 273.369 27.5145 264.964 27.5145V29.5145ZM284.908 35.7657C290.257 39.9095 293.788 45.7608 295.468 53.3971L297.421 52.9674C295.656 44.9417 291.903 38.6549 286.133 34.1846L284.908 35.7657ZM296.445 52.1823H275.066V54.1823H296.445V52.1823ZM276.007 52.8441C275.055 50.1939 273.628 48.1289 271.685 46.7321C269.74 45.3335 267.361 44.6645 264.611 44.6645V46.6645C267.03 46.6645 268.978 47.2484 270.518 48.3558C272.06 49.4649 273.276 51.1588 274.125 53.5205L276.007 52.8441ZM264.611 44.6645C260.622 44.6645 257.389 46.2562 255.004 49.4073L256.599 50.6142C258.6 47.9702 261.239 46.6645 264.611 46.6645V44.6645ZM255.012 49.3968C252.63 52.4592 251.512 56.7841 251.512 62.2271H253.512C253.512 57.0199 254.587 53.2006 256.591 50.6247L255.012 49.3968ZM251.512 62.2271C251.512 67.6727 252.631 72.029 255.004 75.1644L256.599 73.9576C254.586 71.298 253.512 67.4317 253.512 62.2271H251.512ZM255.012 75.1749C257.401 78.2463 260.633 79.7898 264.611 79.7898V77.7898C261.228 77.7898 258.587 76.5141 256.591 73.9471L255.012 75.1749ZM264.611 79.7898C267.361 79.7898 269.74 79.1207 271.685 77.7222C273.628 76.3254 275.055 74.2603 276.007 71.6102L274.125 70.9338C273.276 73.2955 272.06 74.9893 270.518 76.0984C268.978 77.2058 267.03 77.7898 264.611 77.7898V79.7898ZM275.066 72.272H296.445V70.272H275.066V72.272ZM295.469 71.0529C293.79 78.5297 290.261 84.3492 284.901 88.5765L286.14 90.1468C291.9 85.6034 295.653 79.3631 297.42 71.491L295.469 71.0529ZM284.901 88.5765C279.543 92.8023 272.919 94.9397 264.964 94.9397V96.9397C273.297 96.9397 280.377 94.6918 286.14 90.1468L284.901 88.5765ZM264.964 94.9397C258.689 94.9397 253.141 93.6019 248.294 90.9511L247.334 92.7058C252.511 95.5367 258.396 96.9397 264.964 96.9397V94.9397ZM248.299 90.9543C243.535 88.3072 239.791 84.5292 237.06 79.5974L235.31 80.5664C238.217 85.815 242.226 89.8679 247.328 92.7026L248.299 90.9543ZM237.065 79.6078C234.416 74.6873 233.073 68.9042 233.073 62.2271H231.073C231.073 69.1761 232.472 75.2961 235.304 80.556L237.065 79.6078ZM346.07 77.9675H347.07V76.9675H346.07V77.9675ZM346.07 95V96H347.07V95H346.07ZM318.818 89.7141L318.155 90.4631L318.164 90.4702L318.818 89.7141ZM312.71 46.1344H313.71V45.1344H312.71V46.1344ZM304.722 46.1344H303.722V47.1344H304.722V46.1344ZM304.722 29.4543V28.4543H303.722V29.4543H304.722ZM312.71 29.4543V30.4543H313.71V29.4543H312.71ZM312.71 13.4789V12.4789H311.71V13.4789H312.71ZM332.796 13.4789H333.796V12.4789H332.796V13.4789ZM332.796 29.4543H331.796V30.4543H332.796V29.4543ZM345.953 29.4543H346.953V28.4543H345.953V29.4543ZM345.953 46.1344V47.1344H346.953V46.1344H345.953ZM332.796 46.1344V45.1344H331.796V46.1344H332.796ZM334.206 76.6754L333.53 77.4125L333.53 77.4125L334.206 76.6754ZM345.07 77.9675V95H347.07V77.9675H345.07ZM346.07 94H335.851V96H346.07V94ZM335.851 94C328.723 94 323.307 92.2766 319.472 88.9579L318.164 90.4702C322.473 94.1995 328.413 96 335.851 96V94ZM319.481 88.9651C315.709 85.629 313.71 80.1314 313.71 72.2117H311.71C311.71 80.4239 313.782 86.5945 318.155 90.463L319.481 88.9651ZM313.71 72.2117V46.1344H311.71V72.2117H313.71ZM312.71 45.1344H304.722V47.1344H312.71V45.1344ZM305.722 46.1344V29.4543H303.722V46.1344H305.722ZM304.722 30.4543H312.71V28.4543H304.722V30.4543ZM313.71 29.4543V13.4789H311.71V29.4543H313.71ZM312.71 14.4789L332.796 14.4789V12.4789L312.71 12.4789V14.4789ZM331.796 13.4789V29.4543H333.796V13.4789H331.796ZM332.796 30.4543H345.953V28.4543H332.796V30.4543ZM344.953 29.4543V46.1344H346.953V29.4543H344.953ZM345.953 45.1344H332.796V47.1344H345.953V45.1344ZM331.796 46.1344V72.4466H333.796V46.1344H331.796ZM331.796 72.4466C331.796 74.5357 332.295 76.2802 333.53 77.4125L334.882 75.9382C334.238 75.3477 333.796 74.2731 333.796 72.4466H331.796ZM333.53 77.4125C334.748 78.529 336.628 78.9675 338.905 78.9675V76.9675C336.796 76.9675 335.543 76.5446 334.882 75.9382L333.53 77.4125ZM338.905 78.9675H346.07V76.9675H338.905V78.9675ZM433.376 95V96H434.376V95H433.376ZM413.29 95L412.455 95.5511L412.752 96H413.29V95ZM379.695 44.1374L380.529 43.5863L378.695 40.809V44.1374H379.695ZM379.695 95V96H380.695V95H379.695ZM359.608 95H358.608V96H359.608V95ZM359.608 12.5392V11.5392H358.608V12.5392H359.608ZM379.695 12.5392L380.53 11.9899L380.234 11.5392H379.695V12.5392ZM413.29 63.6367L412.454 64.1861L414.29 66.978V63.6367H413.29ZM413.29 12.5392V11.5392L412.29 11.5392V12.5392L413.29 12.5392ZM433.376 12.5392H434.376V11.5392H433.376V12.5392ZM433.376 94H413.29V96H433.376V94ZM414.124 94.4489L380.529 43.5863L378.86 44.6886L412.455 95.5511L414.124 94.4489ZM378.695 44.1374V95H380.695V44.1374H378.695ZM379.695 94H359.608V96H379.695V94ZM360.608 95V12.5392H358.608V95H360.608ZM359.608 13.5392L379.695 13.5392V11.5392L359.608 11.5392V13.5392ZM378.859 13.0886L412.454 64.1861L414.125 63.0873L380.53 11.9899L378.859 13.0886ZM414.29 63.6367V12.5392L412.29 12.5392V63.6367H414.29ZM413.29 13.5392H433.376V11.5392H413.29V13.5392ZM432.376 12.5392V95H434.376V12.5392H432.376ZM450.051 44.3724L449.159 43.9196L449.154 43.9307L450.051 44.3724ZM460.505 32.6258L461.035 33.4738L461.035 33.4738L460.505 32.6258ZM487.287 31.3337L486.809 32.2116L486.817 32.216L487.287 31.3337ZM495.393 38.734L494.541 39.2581L496.393 42.2671V38.734H495.393ZM495.393 29.4543V28.4543H494.393V29.4543H495.393ZM515.479 29.4543H516.479V28.4543H515.479V29.4543ZM515.479 95V96H516.479V95H515.479ZM495.393 95H494.393V96H495.393V95ZM495.393 85.7202H496.393V82.3072L494.551 85.1806L495.393 85.7202ZM487.17 93.1206L486.699 92.2382L486.691 92.2427L487.17 93.1206ZM460.505 91.8284L459.965 92.6697L459.975 92.6764L460.505 91.8284ZM450.051 79.9644L449.151 80.4007L449.155 80.4089L449.159 80.4171L450.051 79.9644ZM491.164 50.3631L490.437 51.0504L490.447 51.0605L491.164 50.3631ZM470.842 50.3631L470.126 49.6658L470.125 49.666L470.842 50.3631ZM470.842 74.0911L470.107 74.7686L470.116 74.7787L470.126 74.7885L470.842 74.0911ZM491.164 74.0911L490.447 73.3937L490.437 73.4039L491.164 74.0911ZM447.292 62.1097C447.292 55.4997 448.521 49.7434 450.948 44.8141L449.154 43.9307C446.569 49.1817 445.292 55.2502 445.292 62.1097H447.292ZM450.943 44.8251C453.453 39.8797 456.82 36.1084 461.035 33.4738L459.975 31.7778C455.42 34.6249 451.817 38.6847 449.159 43.9197L450.943 44.8251ZM461.035 33.4738C465.254 30.8369 469.964 29.5145 475.189 29.5145V27.5145C469.606 27.5145 464.527 28.9331 459.975 31.7778L461.035 33.4738ZM475.189 29.5145C479.671 29.5145 483.534 30.4254 486.809 32.2116L487.766 30.4558C484.15 28.4831 479.946 27.5145 475.189 27.5145V29.5145ZM486.817 32.216C490.203 34.0217 492.765 36.3718 494.541 39.2581L496.244 38.2099C494.262 34.988 491.42 32.4046 487.758 30.4513L486.817 32.216ZM496.393 38.734V29.4543H494.393V38.734H496.393ZM495.393 30.4543H515.479V28.4543L495.393 28.4543V30.4543ZM514.479 29.4543V95H516.479V29.4543H514.479ZM515.479 94H495.393V96H515.479V94ZM496.393 95V85.7202H494.393V95H496.393ZM494.551 85.1806C492.694 88.0763 490.088 90.431 486.699 92.2382L487.641 94.0029C491.3 92.0512 494.175 89.4723 496.234 86.2599L494.551 85.1806ZM486.691 92.2427C483.416 94.0289 479.554 94.9397 475.071 94.9397V96.9397C479.829 96.9397 484.032 95.9711 487.649 93.9984L486.691 92.2427ZM475.071 94.9397C469.927 94.9397 465.257 93.6189 461.035 90.9804L459.975 92.6764C464.525 95.5197 469.564 96.9397 475.071 96.9397V94.9397ZM461.046 90.9873C456.824 88.2731 453.454 84.459 450.943 79.5117L449.159 80.4171C451.816 85.6501 455.416 89.7454 459.965 92.6696L461.046 90.9873ZM450.951 79.5281C448.521 74.5172 447.292 68.7192 447.292 62.1097H445.292C445.292 68.9695 446.569 75.0747 449.151 80.4007L450.951 79.5281ZM496.393 62.2271C496.393 57.0207 494.923 52.7923 491.881 49.6658L490.447 51.0605C493.043 53.7288 494.393 57.4099 494.393 62.2271H496.393ZM491.89 49.6759C488.96 46.5784 485.33 45.0169 481.062 45.0169V47.0169C484.781 47.0169 487.886 48.3528 490.437 51.0503L491.89 49.6759ZM481.062 45.0169C476.794 45.0169 473.13 46.5775 470.126 49.6658L471.559 51.0605C474.193 48.3538 477.342 47.0169 481.062 47.0169V45.0169ZM470.125 49.666C467.157 52.7193 465.731 56.9122 465.731 62.1097H467.731C467.731 57.2834 469.046 53.6452 471.559 51.0602L470.125 49.666ZM465.731 62.1097C465.731 67.3098 467.158 71.5667 470.107 74.7686L471.578 73.4137C469.045 70.664 467.731 66.9332 467.731 62.1097H465.731ZM470.126 74.7885C473.13 77.8768 476.794 79.4374 481.062 79.4374V77.4374C477.342 77.4374 474.193 76.1004 471.559 73.3938L470.126 74.7885ZM481.062 79.4374C485.33 79.4374 488.96 77.8758 491.89 74.7783L490.437 73.4039C487.886 76.1014 484.781 77.4374 481.062 77.4374V79.4374ZM491.881 74.7885C494.923 71.6619 496.393 67.4336 496.393 62.2271H494.393C494.393 67.0444 493.043 70.7254 490.447 73.3938L491.881 74.7885ZM568.892 77.9675H569.892V76.9675H568.892V77.9675ZM568.892 95V96H569.892V95H568.892ZM541.64 89.7141L540.977 90.4631L540.986 90.4702L541.64 89.7141ZM535.532 46.1344H536.532V45.1344H535.532V46.1344ZM527.544 46.1344H526.544V47.1344H527.544V46.1344ZM527.544 29.4543V28.4543H526.544V29.4543H527.544ZM535.532 29.4543V30.4543H536.532V29.4543H535.532ZM535.532 13.4789V12.4789H534.532V13.4789H535.532ZM555.618 13.4789H556.618V12.4789H555.618V13.4789ZM555.618 29.4543H554.618V30.4543H555.618V29.4543ZM568.775 29.4543H569.775V28.4543H568.775V29.4543ZM568.775 46.1344V47.1344H569.775V46.1344H568.775ZM555.618 46.1344V45.1344H554.618V46.1344H555.618ZM557.028 76.6754L556.352 77.4125L556.352 77.4125L557.028 76.6754ZM567.892 77.9675V95H569.892V77.9675H567.892ZM568.892 94H558.673V96H568.892V94ZM558.673 94C551.545 94 546.129 92.2766 542.294 88.9579L540.986 90.4702C545.295 94.1995 551.235 96 558.673 96V94ZM542.303 88.9651C538.531 85.629 536.532 80.1314 536.532 72.2117H534.532C534.532 80.4239 536.604 86.5945 540.977 90.463L542.303 88.9651ZM536.532 72.2117V46.1344H534.532V72.2117H536.532ZM535.532 45.1344H527.544V47.1344H535.532V45.1344ZM528.544 46.1344V29.4543H526.544V46.1344H528.544ZM527.544 30.4543H535.532V28.4543H527.544V30.4543ZM536.532 29.4543V13.4789H534.532V29.4543H536.532ZM535.532 14.4789L555.618 14.4789V12.4789L535.532 12.4789V14.4789ZM554.618 13.4789V29.4543H556.618V13.4789H554.618ZM555.618 30.4543L568.775 30.4543V28.4543H555.618V30.4543ZM567.775 29.4543V46.1344H569.775V29.4543H567.775ZM568.775 45.1344L555.618 45.1344V47.1344L568.775 47.1344V45.1344ZM554.618 46.1344V72.4466H556.618V46.1344H554.618ZM554.618 72.4466C554.618 74.5357 555.117 76.2802 556.352 77.4125L557.704 75.9382C557.06 75.3477 556.618 74.2731 556.618 72.4466H554.618ZM556.352 77.4125C557.57 78.529 559.45 78.9675 561.727 78.9675V76.9675C559.618 76.9675 558.365 76.5446 557.704 75.9382L556.352 77.4125ZM561.727 78.9675L568.892 78.9675V76.9675L561.727 76.9675V78.9675ZM583.839 19.5872L583.145 20.307L583.158 20.3196L583.172 20.3317L583.839 19.5872ZM583.839 4.0817L584.52 4.8145L584.521 4.8136L583.839 4.0817ZM600.989 4.0817L600.295 4.80155L600.308 4.81415L600.322 4.82627L600.989 4.0817ZM600.989 19.5872L601.67 20.3199L601.671 20.319L600.989 19.5872ZM602.516 29.4543H603.516V28.4543H602.516V29.4543ZM602.516 95V96H603.516V95H602.516ZM582.43 95H581.43V96H582.43V95ZM582.43 29.4543V28.4543H581.43V29.4543H582.43ZM592.532 21.6413C589.214 21.6413 586.566 20.6888 584.507 18.8426L583.172 20.3317C585.655 22.5576 588.802 23.6413 592.532 23.6413V21.6413ZM584.534 18.8673C582.537 16.942 581.55 14.6178 581.55 11.8344H579.55C579.55 15.1592 580.757 18.0036 583.145 20.307L584.534 18.8673ZM581.55 11.8344C581.55 8.9654 582.542 6.65159 584.52 4.8145L583.159 3.34891C580.752 5.58396 579.55 8.43863 579.55 11.8344H581.55ZM584.521 4.8136C586.581 2.89515 589.224 1.91013 592.532 1.91013V-0.0898662C588.792 -0.0898662 585.64 1.0395 583.158 3.34981L584.521 4.8136ZM592.532 1.91013C595.755 1.91013 598.314 2.89092 600.295 4.80155L601.684 3.36186C599.28 1.04373 596.2 -0.0898662 592.532 -0.0898662V1.91013ZM600.322 4.82627C602.375 6.6669 603.396 8.97743 603.396 11.8344H605.396C605.396 8.4266 604.146 5.56865 601.657 3.33713L600.322 4.82627ZM603.396 11.8344C603.396 14.6059 602.38 16.9266 600.308 18.8553L601.671 20.319C604.141 18.0189 605.396 15.1711 605.396 11.8344H603.396ZM600.309 18.8544C598.329 20.6927 595.766 21.6413 592.532 21.6413V23.6413C596.189 23.6413 599.264 22.5538 601.67 20.3199L600.309 18.8544ZM601.516 29.4543V95H603.516V29.4543H601.516ZM602.516 94H582.43V96H602.516V94ZM583.43 95V29.4543H581.43V95H583.43ZM582.43 30.4543H602.516V28.4543L582.43 28.4543V30.4543ZM648.906 76.2055L647.949 76.4964L648.906 79.6434L649.863 76.4964L648.906 76.2055ZM663.119 29.4543V28.4543H662.378L662.163 29.1634L663.119 29.4543ZM684.498 29.4543L685.441 29.7887L685.914 28.4543H684.498V29.4543ZM661.24 95V96H661.946L662.182 95.3344L661.24 95ZM636.455 95L635.512 95.3344L635.749 96H636.455V95ZM613.197 29.4543V28.4543H611.781L612.254 29.7887L613.197 29.4543ZM634.693 29.4543L635.65 29.1634L635.434 28.4543H634.693V29.4543ZM649.863 76.4964L664.076 29.7451L662.163 29.1634L647.949 75.9146L649.863 76.4964ZM663.119 30.4543H684.498V28.4543L663.119 28.4543V30.4543ZM683.556 29.1198L660.298 94.6656L662.182 95.3344L685.441 29.7887L683.556 29.1198ZM661.24 94H636.455V96H661.24V94ZM637.397 94.6656L614.139 29.1198L612.254 29.7887L635.512 95.3344L637.397 94.6656ZM613.197 30.4543H634.693V28.4543L613.197 28.4543V30.4543ZM633.736 29.7451L647.949 76.4964L649.863 75.9146L635.65 29.1634L633.736 29.7451ZM756.737 67.0432V68.0432H757.628L757.73 67.1578L756.737 67.0432ZM711.278 67.0432V66.0432H710.198L710.281 67.1199L711.278 67.0432ZM715.154 76.4405L714.459 77.1599L714.472 77.172L714.485 77.1837L715.154 76.4405ZM734.183 73.2689V72.2689H733.544L733.276 72.8488L734.183 73.2689ZM755.562 73.2689L756.531 73.5156L756.849 72.2689H755.562V73.2689ZM749.571 84.898L748.806 84.2543L748.797 84.2647L749.571 84.898ZM738.882 93.0031L739.296 93.9135L738.882 93.0031ZM707.284 91.8284L706.804 92.7058L706.804 92.7058L707.284 91.8284ZM695.537 80.0819L696.412 79.5974L696.412 79.5974L695.537 80.0819ZM695.42 44.3724L694.545 43.8878L694.539 43.8983L695.42 44.3724ZM707.166 32.6258L707.646 33.5032L707.646 33.5032L707.166 32.6258ZM741.349 32.5084L740.874 33.3884L740.874 33.3884L741.349 32.5084ZM752.86 43.9025L751.986 44.3882L751.992 44.3986L752.86 43.9025ZM736.533 55.884V56.884H737.533V55.884H736.533ZM733.009 47.6614L733.664 46.9057L733.664 46.9057L733.009 47.6614ZM715.624 47.5439L714.984 46.7757L714.977 46.7811L714.971 46.7865L715.624 47.5439ZM711.395 55.884L710.406 55.7335L710.231 56.884H711.395V55.884ZM756.089 61.1699C756.089 63.0078 755.974 64.9272 755.743 66.9286L757.73 67.1578C757.969 65.0871 758.089 63.0909 758.089 61.1699H756.089ZM756.737 66.0432L711.278 66.0432V68.0432L756.737 68.0432V66.0432ZM710.281 67.1199C710.607 71.3625 711.966 74.7521 714.459 77.1599L715.849 75.721C713.8 73.7434 712.575 70.8682 712.275 66.9665L710.281 67.1199ZM714.485 77.1837C717.031 79.4748 720.132 80.612 723.729 80.612V78.612C720.591 78.612 717.976 77.6349 715.823 75.6972L714.485 77.1837ZM723.729 80.612C726.376 80.612 728.689 80.0529 730.62 78.8812C732.556 77.7067 734.041 75.9571 735.091 73.689L733.276 72.8488C732.368 74.8094 731.132 76.2314 729.583 77.1713C728.029 78.114 726.094 78.612 723.729 78.612V80.612ZM734.183 74.2689L755.562 74.2689V72.2689L734.183 72.2689V74.2689ZM754.593 73.0222C753.534 77.1814 751.608 80.9224 748.806 84.2544L750.337 85.5416C753.33 81.9822 755.397 77.9705 756.531 73.5156L754.593 73.0222ZM748.797 84.2647C746.082 87.5842 742.645 90.1944 738.468 92.0927L739.296 93.9135C743.734 91.8963 747.423 89.1031 750.345 85.5312L748.797 84.2647ZM738.468 92.0927C734.307 93.9844 729.634 94.9397 724.434 94.9397V96.9397C729.884 96.9397 734.843 95.9373 739.296 93.9135L738.468 92.0927ZM724.434 94.9397C718.159 94.9397 712.611 93.6019 707.764 90.9511L706.804 92.7058C711.98 95.5367 717.866 96.9397 724.434 96.9397V94.9397ZM707.764 90.9511C702.921 88.3029 699.141 84.5251 696.412 79.5974L694.662 80.5664C697.572 85.819 701.623 89.8723 706.804 92.7058L707.764 90.9511ZM696.412 79.5974C693.688 74.679 692.309 68.8997 692.309 62.2271H690.309C690.309 69.1805 691.748 75.3044 694.662 80.5664L696.412 79.5974ZM692.309 62.2271C692.309 55.5501 693.651 49.767 696.3 44.8465L694.539 43.8983C691.707 49.1581 690.309 55.2782 690.309 62.2271H692.309ZM696.295 44.8569C699.024 39.9292 702.804 36.1514 707.646 33.5032L706.687 31.7485C701.505 34.582 697.454 38.6352 694.545 43.8879L696.295 44.8569ZM707.646 33.5032C712.492 30.8533 718.078 29.5145 724.434 29.5145V27.5145C717.79 27.5145 711.865 28.9166 706.687 31.7485L707.646 33.5032ZM724.434 29.5145C730.633 29.5145 736.105 30.8144 740.874 33.3884L741.824 31.6283C736.726 28.8772 730.921 27.5145 724.434 27.5145V29.5145ZM740.874 33.3884C745.638 35.9596 749.337 39.6203 751.986 44.3882L753.735 43.4169C750.902 38.3176 746.926 34.3822 741.824 31.6283L740.874 33.3884ZM751.992 44.3986C754.712 49.1587 756.089 54.7382 756.089 61.1699H758.089C758.089 54.4456 756.647 48.5134 753.729 43.4064L751.992 44.3986ZM737.533 55.884C737.533 52.1836 736.257 49.1537 733.664 46.9057L732.354 48.4171C734.459 50.2413 735.533 52.6931 735.533 55.884H737.533ZM733.664 46.9057C731.108 44.691 727.929 43.6073 724.199 43.6073V45.6073C727.516 45.6073 730.211 46.5597 732.354 48.4171L733.664 46.9057ZM724.199 43.6073C720.623 43.6073 717.531 44.6528 714.984 46.7757L716.264 48.3122C718.415 46.5196 721.04 45.6073 724.199 45.6073V43.6073ZM714.971 46.7865C712.482 48.9318 710.983 51.9483 710.406 55.7335L712.384 56.0344C712.904 52.6151 714.223 50.0716 716.277 48.3013L714.971 46.7865ZM711.395 56.884H736.533V54.884H711.395V56.884ZM812.088 95L811.212 95.4826L811.497 96H812.088V95ZM794.938 63.8716L795.814 63.3891L795.529 62.8716H794.938V63.8716ZM790.122 63.8716V62.8716H789.122V63.8716H790.122ZM790.122 95V96H791.122V95H790.122ZM770.035 95H769.035V96H770.035V95ZM770.035 12.5392V11.5392H769.035V12.5392H770.035ZM820.31 15.9457L819.863 16.8402L819.869 16.8432L820.31 15.9457ZM830.647 25.343L829.778 25.8373L829.782 25.8447L830.647 25.343ZM829.355 53.1823L828.546 52.5941L828.539 52.6039L829.355 53.1823ZM815.729 62.3446L815.443 61.3864L814.225 61.7501L814.865 62.8481L815.729 62.3446ZM834.759 95V96H836.499L835.623 94.4965L834.759 95ZM790.122 49.6583H789.122V50.6583H790.122V49.6583ZM810.796 46.9566L810.104 46.2346L810.096 46.242L810.089 46.2495L810.796 46.9566ZM810.796 31.921L810.089 32.6281L810.096 32.6357L810.104 32.643L810.796 31.921ZM790.122 29.2193V28.2193H789.122V29.2193H790.122ZM812.964 94.5174L795.814 63.3891L794.062 64.3542L811.212 95.4826L812.964 94.5174ZM794.938 62.8716H790.122V64.8716H794.938V62.8716ZM789.122 63.8716V95H791.122V63.8716H789.122ZM790.122 94L770.035 94V96L790.122 96V94ZM771.035 95V12.5392H769.035V95H771.035ZM770.035 13.5392H803.748V11.5392H770.035V13.5392ZM803.748 13.5392C810.134 13.5392 815.493 14.6552 819.863 16.8401L820.758 15.0513C816.043 12.6942 810.361 11.5392 803.748 11.5392V13.5392ZM819.869 16.8432C824.332 19.0368 827.618 22.0383 829.778 25.8373L831.517 24.8487C829.135 20.66 825.529 17.3966 820.751 15.0483L819.869 16.8432ZM829.782 25.8447C831.958 29.5967 833.054 33.8068 833.054 38.4991H835.054C835.054 33.4809 833.878 28.9202 831.512 24.8412L829.782 25.8447ZM833.054 38.4991C833.054 43.7761 831.551 48.4632 828.546 52.5941L830.164 53.7705C833.424 49.2872 835.054 44.1855 835.054 38.4991H833.054ZM828.539 52.6039C825.638 56.6956 821.301 59.6365 815.443 61.3864L816.015 63.3028C822.217 61.4504 826.964 58.2831 830.171 53.7607L828.539 52.6039ZM814.865 62.8481L833.895 95.5035L835.623 94.4965L816.593 61.8411L814.865 62.8481ZM834.759 94H812.088V96H834.759V94ZM790.122 50.6583H802.573V48.6583H790.122V50.6583ZM802.573 50.6583C806.401 50.6583 809.444 49.7221 811.503 47.6637L810.089 46.2495C808.545 47.7934 806.107 48.6583 802.573 48.6583V50.6583ZM811.488 47.6786C813.613 45.642 814.615 42.8069 814.615 39.3214H812.615C812.615 42.4139 811.737 44.669 810.104 46.2346L811.488 47.6786ZM814.615 39.3214C814.615 35.976 813.603 33.2264 811.488 31.199L810.104 32.643C811.747 34.2179 812.615 36.4019 812.615 39.3214H814.615ZM811.503 31.2139C809.444 29.1555 806.401 28.2193 802.573 28.2193V30.2193C806.107 30.2193 808.545 31.0843 810.089 32.6281L811.503 31.2139ZM802.573 28.2193H790.122V30.2193H802.573V28.2193ZM789.122 29.2193V49.6583H791.122V29.2193H789.122ZM910.447 67.0432V68.0432H911.338L911.44 67.1578L910.447 67.0432ZM864.988 67.0432V66.0432H863.908L863.991 67.1199L864.988 67.0432ZM868.864 76.4405L868.169 77.1599L868.182 77.172L868.195 77.1837L868.864 76.4405ZM887.893 73.2689V72.2689H887.254L886.986 72.8488L887.893 73.2689ZM909.272 73.2689L910.241 73.5156L910.559 72.2689H909.272V73.2689ZM903.281 84.898L902.516 84.2543L902.507 84.2647L903.281 84.898ZM892.592 93.0031L893.006 93.9135L892.592 93.0031ZM860.994 91.8284L860.514 92.7058L860.514 92.7058L860.994 91.8284ZM849.247 80.0819L850.122 79.5974L850.122 79.5974L849.247 80.0819ZM849.13 44.3724L848.255 43.8878L848.249 43.8983L849.13 44.3724ZM860.876 32.6258L861.356 33.5032L861.356 33.5032L860.876 32.6258ZM895.059 32.5084L894.584 33.3884L894.584 33.3884L895.059 32.5084ZM906.57 43.9025L905.696 44.3882L905.702 44.3986L906.57 43.9025ZM890.243 55.884V56.884H891.243V55.884H890.243ZM886.719 47.6614L887.374 46.9057L887.374 46.9057L886.719 47.6614ZM869.334 47.5439L868.694 46.7757L868.687 46.7811L868.681 46.7865L869.334 47.5439ZM865.105 55.884L864.117 55.7335L863.941 56.884H865.105V55.884ZM909.799 61.1699C909.799 63.0078 909.684 64.9272 909.453 66.9286L911.44 67.1578C911.679 65.0871 911.799 63.0909 911.799 61.1699H909.799ZM910.447 66.0432H864.988V68.0432H910.447V66.0432ZM863.991 67.1199C864.317 71.3625 865.676 74.7521 868.169 77.1599L869.559 75.721C867.51 73.7434 866.285 70.8682 865.985 66.9665L863.991 67.1199ZM868.195 77.1837C870.741 79.4748 873.842 80.612 877.439 80.612V78.612C874.301 78.612 871.686 77.6349 869.533 75.6972L868.195 77.1837ZM877.439 80.612C880.086 80.612 882.399 80.0529 884.33 78.8812C886.266 77.7067 887.751 75.9571 888.801 73.689L886.986 72.8488C886.078 74.8094 884.842 76.2314 883.293 77.1713C881.739 78.114 879.804 78.612 877.439 78.612V80.612ZM887.893 74.2689H909.272V72.2689H887.893V74.2689ZM908.303 73.0222C907.244 77.1814 905.318 80.9224 902.516 84.2544L904.047 85.5416C907.04 81.9822 909.107 77.9705 910.241 73.5156L908.303 73.0222ZM902.507 84.2647C899.792 87.5842 896.355 90.1944 892.178 92.0927L893.006 93.9135C897.444 91.8963 901.133 89.1031 904.055 85.5312L902.507 84.2647ZM892.178 92.0927C888.017 93.9844 883.344 94.9397 878.144 94.9397V96.9397C883.594 96.9397 888.553 95.9373 893.006 93.9135L892.178 92.0927ZM878.144 94.9397C871.869 94.9397 866.321 93.6019 861.474 90.9511L860.514 92.7058C865.691 95.5367 871.576 96.9397 878.144 96.9397V94.9397ZM861.474 90.9511C856.631 88.3029 852.851 84.5251 850.122 79.5974L848.372 80.5664C851.282 85.819 855.333 89.8723 860.514 92.7058L861.474 90.9511ZM850.122 79.5974C847.398 74.679 846.019 68.8997 846.019 62.2271H844.019C844.019 69.1805 845.458 75.3044 848.372 80.5664L850.122 79.5974ZM846.019 62.2271C846.019 55.5501 847.361 49.767 850.01 44.8465L848.249 43.8983C845.417 49.1581 844.019 55.2782 844.019 62.2271H846.019ZM850.005 44.8569C852.734 39.9292 856.514 36.1514 861.356 33.5032L860.397 31.7485C855.215 34.582 851.164 38.6352 848.255 43.8879L850.005 44.8569ZM861.356 33.5032C866.202 30.8533 871.788 29.5145 878.144 29.5145V27.5145C871.5 27.5145 865.575 28.9166 860.397 31.7485L861.356 33.5032ZM878.144 29.5145C884.343 29.5145 889.815 30.8144 894.584 33.3884L895.534 31.6283C890.436 28.8772 884.631 27.5145 878.144 27.5145V29.5145ZM894.584 33.3884C899.348 35.9596 903.047 39.6203 905.696 44.3882L907.445 43.4169C904.612 38.3176 900.636 34.3822 895.534 31.6283L894.584 33.3884ZM905.702 44.3986C908.422 49.1587 909.799 54.7382 909.799 61.1699H911.799C911.799 54.4456 910.357 48.5134 907.439 43.4064L905.702 44.3986ZM891.243 55.884C891.243 52.1836 889.967 49.1537 887.374 46.9057L886.064 48.4171C888.169 50.2413 889.243 52.6931 889.243 55.884H891.243ZM887.374 46.9057C884.818 44.691 881.639 43.6073 877.909 43.6073V45.6073C881.226 45.6073 883.921 46.5597 886.064 48.4171L887.374 46.9057ZM877.909 43.6073C874.333 43.6073 871.241 44.6528 868.694 46.7757L869.974 48.3122C872.125 46.5196 874.75 45.6073 877.909 45.6073V43.6073ZM868.681 46.7865C866.192 48.9318 864.693 51.9483 864.117 55.7335L866.094 56.0344C866.614 52.6151 867.933 50.0716 869.987 48.3013L868.681 46.7865ZM865.105 56.884H890.243V54.884H865.105V56.884ZM923.51 44.3724L922.618 43.9196L922.613 43.9307L923.51 44.3724ZM933.965 32.6258L934.495 33.4738L934.495 33.4738L933.965 32.6258ZM960.747 31.3337L960.268 32.2116L960.276 32.216L960.747 31.3337ZM968.852 38.734L968 39.2581L969.852 42.2671V38.734H968.852ZM968.852 29.4543V28.4543H967.852V29.4543H968.852ZM988.938 29.4543H989.938V28.4543H988.938V29.4543ZM988.938 95V96H989.938V95H988.938ZM968.852 95H967.852V96H968.852V95ZM968.852 85.7202H969.852V82.3072L968.01 85.1806L968.852 85.7202ZM960.629 93.1206L960.159 92.2382L960.15 92.2427L960.629 93.1206ZM933.965 91.8284L933.424 92.6697L933.435 92.6764L933.965 91.8284ZM923.51 79.9644L922.61 80.4007L922.614 80.4089L922.619 80.4171L923.51 79.9644ZM964.623 50.3631L963.897 51.0504L963.906 51.0605L964.623 50.3631ZM944.302 50.3631L943.585 49.6658L943.585 49.666L944.302 50.3631ZM944.302 74.0911L943.566 74.7686L943.575 74.7787L943.585 74.7885L944.302 74.0911ZM964.623 74.0911L963.906 73.3937L963.897 73.4039L964.623 74.0911ZM920.751 62.1097C920.751 55.4997 921.981 49.7434 924.407 44.8141L922.613 43.9307C920.028 49.1817 918.751 55.2502 918.751 62.1097H920.751ZM924.402 44.8251C926.913 39.8797 930.279 36.1084 934.495 33.4738L933.435 31.7778C928.879 34.6249 925.276 38.6847 922.619 43.9197L924.402 44.8251ZM934.495 33.4738C938.714 30.8369 943.423 29.5145 948.648 29.5145V27.5145C943.066 27.5145 937.986 28.9331 933.435 31.7778L934.495 33.4738ZM948.648 29.5145C953.131 29.5145 956.993 30.4254 960.268 32.2116L961.226 30.4558C957.609 28.4831 953.406 27.5145 948.648 27.5145V29.5145ZM960.276 32.216C963.662 34.0217 966.224 36.3718 968 39.2581L969.704 38.2099C967.721 34.988 964.88 32.4046 961.217 30.4513L960.276 32.216ZM969.852 38.734V29.4543H967.852V38.734H969.852ZM968.852 30.4543H988.938V28.4543L968.852 28.4543V30.4543ZM987.938 29.4543V95H989.938V29.4543H987.938ZM988.938 94H968.852V96H988.938V94ZM969.852 95V85.7202H967.852V95H969.852ZM968.01 85.1806C966.154 88.0763 963.547 90.431 960.159 92.2382L961.1 94.0029C964.759 92.0512 967.635 89.4723 969.694 86.2599L968.01 85.1806ZM960.15 92.2427C956.876 94.0289 953.013 94.9397 948.53 94.9397V96.9397C953.288 96.9397 957.492 95.9711 961.108 93.9984L960.15 92.2427ZM948.53 94.9397C943.387 94.9397 938.716 93.6189 934.495 90.9804L933.435 92.6764C937.984 95.5197 943.024 96.9397 948.53 96.9397V94.9397ZM934.505 90.9873C930.283 88.2731 926.914 84.459 924.402 79.5117L922.619 80.4171C925.275 85.6501 928.875 89.7454 933.424 92.6696L934.505 90.9873ZM924.41 79.5281C921.98 74.5172 920.751 68.7192 920.751 62.1097H918.751C918.751 68.9695 920.028 75.0747 922.61 80.4007L924.41 79.5281ZM969.852 62.2271C969.852 57.0207 968.382 52.7923 965.34 49.6658L963.906 51.0605C966.503 53.7288 967.852 57.4099 967.852 62.2271H969.852ZM965.35 49.6759C962.42 46.5784 958.789 45.0169 954.521 45.0169V47.0169C958.24 47.0169 961.345 48.3528 963.897 51.0503L965.35 49.6759ZM954.521 45.0169C950.254 45.0169 946.59 46.5775 943.585 49.6658L945.018 51.0605C947.652 48.3538 950.801 47.0169 954.521 47.0169V45.0169ZM943.585 49.666C940.616 52.7193 939.19 56.9122 939.19 62.1097H941.19C941.19 57.2834 942.505 53.6452 945.019 51.0602L943.585 49.666ZM939.19 62.1097C939.19 67.3098 940.617 71.5667 943.566 74.7686L945.037 73.4137C942.505 70.664 941.19 66.9332 941.19 62.1097H939.19ZM943.585 74.7885C946.59 77.8768 950.254 79.4374 954.521 79.4374V77.4374C950.801 77.4374 947.652 76.1004 945.018 73.3938L943.585 74.7885ZM954.521 79.4374C958.789 79.4374 962.42 77.8758 965.35 74.7783L963.897 73.4039C961.345 76.1014 958.24 77.4374 954.521 77.4374V79.4374ZM965.34 74.7885C968.382 71.6619 969.852 67.4336 969.852 62.2271H967.852C967.852 67.0444 966.503 70.7254 963.906 73.3938L965.34 74.7885ZM1005.94 44.3724L1005.06 43.8878L1005.06 43.8983L1005.94 44.3724ZM1017.57 32.6258L1017.09 31.7484L1017.08 31.7517L1017.57 32.6258ZM1055.27 34.9751L1054.65 35.7615L1054.66 35.7657L1055.27 34.9751ZM1066.2 53.1823V54.1823H1067.44L1067.17 52.9674L1066.2 53.1823ZM1044.82 53.1823L1043.88 53.5205L1044.11 54.1823H1044.82V53.1823ZM1025.55 50.0107L1026.34 50.6247L1026.35 50.6142L1025.55 50.0107ZM1025.55 74.561L1024.76 75.1645L1024.76 75.1749L1025.55 74.561ZM1044.82 71.272V70.272H1044.11L1043.88 70.9338L1044.82 71.272ZM1066.2 71.272L1067.17 71.491L1067.45 70.272H1066.2V71.272ZM1055.27 89.3617L1054.65 88.5765L1054.65 88.5765L1055.27 89.3617ZM1017.57 91.8284L1017.08 92.7026L1017.09 92.7058L1017.57 91.8284ZM1005.94 80.0819L1005.06 80.556L1005.06 80.5664L1005.94 80.0819ZM1002.83 62.2271C1002.83 55.5501 1004.17 49.767 1006.82 44.8465L1005.06 43.8983C1002.22 49.1581 1000.83 55.2782 1000.83 62.2271H1002.83ZM1006.81 44.8569C1009.54 39.9251 1013.29 36.147 1018.05 33.5L1017.08 31.7517C1011.98 34.5864 1007.97 38.6393 1005.06 43.8879L1006.81 44.8569ZM1018.05 33.5032C1022.89 30.8524 1028.44 29.5145 1034.72 29.5145V27.5145C1028.15 27.5145 1022.26 28.9176 1017.09 31.7485L1018.05 33.5032ZM1034.72 29.5145C1042.76 29.5145 1049.38 31.6166 1054.65 35.7614L1055.89 34.1888C1050.2 29.7195 1043.12 27.5145 1034.72 27.5145V29.5145ZM1054.66 35.7657C1060.01 39.9095 1063.54 45.7608 1065.22 53.3971L1067.17 52.9674C1065.41 44.9417 1061.66 38.6549 1055.88 34.1846L1054.66 35.7657ZM1066.2 52.1823H1044.82V54.1823H1066.2V52.1823ZM1045.76 52.8441C1044.81 50.1939 1043.38 48.1289 1041.44 46.7321C1039.49 45.3335 1037.11 44.6645 1034.36 44.6645V46.6645C1036.78 46.6645 1038.73 47.2484 1040.27 48.3558C1041.81 49.4649 1043.03 51.1588 1043.88 53.5205L1045.76 52.8441ZM1034.36 44.6645C1030.37 44.6645 1027.14 46.2562 1024.76 49.4073L1026.35 50.6142C1028.35 47.9702 1030.99 46.6645 1034.36 46.6645V44.6645ZM1024.76 49.3968C1022.38 52.4592 1021.26 56.7841 1021.26 62.2271H1023.26C1023.26 57.0199 1024.34 53.2006 1026.34 50.6247L1024.76 49.3968ZM1021.26 62.2271C1021.26 67.6727 1022.38 72.029 1024.76 75.1644L1026.35 73.9576C1024.34 71.298 1023.26 67.4317 1023.26 62.2271H1021.26ZM1024.76 75.1749C1027.15 78.2463 1030.39 79.7898 1034.36 79.7898V77.7898C1030.98 77.7898 1028.34 76.5141 1026.34 73.9471L1024.76 75.1749ZM1034.36 79.7898C1037.11 79.7898 1039.49 79.1207 1041.44 77.7222C1043.38 76.3254 1044.81 74.2603 1045.76 71.6102L1043.88 70.9338C1043.03 73.2955 1041.81 74.9893 1040.27 76.0984C1038.73 77.2058 1036.78 77.7898 1034.36 77.7898V79.7898ZM1044.82 72.272H1066.2V70.272H1044.82V72.272ZM1065.22 71.0529C1063.54 78.5297 1060.01 84.3492 1054.65 88.5765L1055.89 90.1468C1061.65 85.6034 1065.41 79.3631 1067.17 71.491L1065.22 71.0529ZM1054.65 88.5765C1049.3 92.8023 1042.67 94.9397 1034.72 94.9397V96.9397C1043.05 96.9397 1050.13 94.6918 1055.89 90.1468L1054.65 88.5765ZM1034.72 94.9397C1028.44 94.9397 1022.89 93.6019 1018.05 90.9511L1017.09 92.7058C1022.26 95.5367 1028.15 96.9397 1034.72 96.9397V94.9397ZM1018.05 90.9543C1013.29 88.3072 1009.54 84.5292 1006.81 79.5974L1005.06 80.5664C1007.97 85.815 1011.98 89.8679 1017.08 92.7026L1018.05 90.9543ZM1006.82 79.6078C1004.17 74.6873 1002.83 68.9042 1002.83 62.2271H1000.83C1000.83 69.1761 1002.22 75.2961 1005.06 80.556L1006.82 79.6078ZM1115.82 77.9675H1116.82V76.9675H1115.82V77.9675ZM1115.82 95V96H1116.82V95H1115.82ZM1088.57 89.7141L1087.91 90.4631L1087.92 90.4702L1088.57 89.7141ZM1082.46 46.1344H1083.46V45.1344H1082.46V46.1344ZM1074.47 46.1344H1073.47V47.1344H1074.47V46.1344ZM1074.47 29.4543V28.4543H1073.47V29.4543H1074.47ZM1082.46 29.4543V30.4543H1083.46V29.4543H1082.46ZM1082.46 13.4789V12.4789H1081.46V13.4789H1082.46ZM1102.55 13.4789H1103.55V12.4789H1102.55V13.4789ZM1102.55 29.4543H1101.55V30.4543H1102.55V29.4543ZM1115.7 29.4543H1116.7V28.4543H1115.7V29.4543ZM1115.7 46.1344V47.1344H1116.7V46.1344H1115.7ZM1102.55 46.1344V45.1344H1101.55V46.1344H1102.55ZM1103.96 76.6754L1103.28 77.4125L1103.28 77.4125L1103.96 76.6754ZM1114.82 77.9675V95H1116.82V77.9675H1114.82ZM1115.82 94H1105.6V96H1115.82V94ZM1105.6 94C1098.48 94 1093.06 92.2766 1089.22 88.9579L1087.92 90.4702C1092.23 94.1995 1098.16 96 1105.6 96V94ZM1089.23 88.9651C1085.46 85.629 1083.46 80.1314 1083.46 72.2117H1081.46C1081.46 80.4239 1083.53 86.5945 1087.91 90.463L1089.23 88.9651ZM1083.46 72.2117V46.1344H1081.46V72.2117H1083.46ZM1082.46 45.1344H1074.47V47.1344H1082.46V45.1344ZM1075.47 46.1344V29.4543H1073.47V46.1344H1075.47ZM1074.47 30.4543H1082.46V28.4543L1074.47 28.4543V30.4543ZM1083.46 29.4543V13.4789H1081.46V29.4543H1083.46ZM1082.46 14.4789H1102.55V12.4789H1082.46V14.4789ZM1101.55 13.4789V29.4543H1103.55V13.4789H1101.55ZM1102.55 30.4543H1115.7V28.4543H1102.55V30.4543ZM1114.7 29.4543V46.1344H1116.7V29.4543H1114.7ZM1115.7 45.1344H1102.55V47.1344H1115.7V45.1344ZM1101.55 46.1344V72.4466H1103.55V46.1344H1101.55ZM1101.55 72.4466C1101.55 74.5357 1102.05 76.2802 1103.28 77.4125L1104.63 75.9382C1103.99 75.3477 1103.55 74.2731 1103.55 72.4466H1101.55ZM1103.28 77.4125C1104.5 78.529 1106.38 78.9675 1108.66 78.9675V76.9675C1106.55 76.9675 1105.3 76.5446 1104.63 75.9382L1103.28 77.4125ZM1108.66 78.9675H1115.82V76.9675H1108.66V78.9675ZM1203.13 95V96H1204.13V95H1203.13ZM1183.04 95L1182.21 95.5511L1182.5 96H1183.04V95ZM1149.45 44.1374L1150.28 43.5863L1148.45 40.809V44.1374H1149.45ZM1149.45 95V96H1150.45V95H1149.45ZM1129.36 95H1128.36V96H1129.36V95ZM1129.36 12.5392V11.5392H1128.36V12.5392H1129.36ZM1149.45 12.5392L1150.28 11.9899L1149.99 11.5392H1149.45V12.5392ZM1183.04 63.6367L1182.21 64.1861L1184.04 66.978V63.6367H1183.04ZM1183.04 12.5392V11.5392H1182.04V12.5392H1183.04ZM1203.13 12.5392H1204.13V11.5392H1203.13V12.5392ZM1203.13 94H1183.04V96H1203.13V94ZM1183.88 94.4489L1150.28 43.5863L1148.61 44.6886L1182.21 95.5511L1183.88 94.4489ZM1148.45 44.1374V95H1150.45V44.1374H1148.45ZM1149.45 94L1129.36 94V96L1149.45 96V94ZM1130.36 95V12.5392H1128.36V95H1130.36ZM1129.36 13.5392H1149.45V11.5392H1129.36V13.5392ZM1148.61 13.0886L1182.21 64.1861L1183.88 63.0873L1150.28 11.9899L1148.61 13.0886ZM1184.04 63.6367V12.5392H1182.04V63.6367H1184.04ZM1183.04 13.5392H1203.13V11.5392H1183.04V13.5392ZM1202.13 12.5392V95H1204.13V12.5392H1202.13ZM1219.8 44.3724L1218.91 43.9196L1218.91 43.9307L1219.8 44.3724ZM1230.26 32.6258L1230.79 33.4738L1230.79 33.4738L1230.26 32.6258ZM1257.04 31.3337L1256.56 32.2116L1256.57 32.216L1257.04 31.3337ZM1265.14 38.734L1264.29 39.2581L1266.14 42.2671V38.734H1265.14ZM1265.14 29.4543V28.4543H1264.14V29.4543H1265.14ZM1285.23 29.4543H1286.23V28.4543H1285.23V29.4543ZM1285.23 95V96H1286.23V95H1285.23ZM1265.14 95H1264.14V96H1265.14V95ZM1265.14 85.7202H1266.14V82.3072L1264.3 85.1806L1265.14 85.7202ZM1256.92 93.1206L1256.45 92.2382L1256.44 92.2427L1256.92 93.1206ZM1230.26 91.8284L1229.72 92.6697L1229.73 92.6764L1230.26 91.8284ZM1219.8 79.9644L1218.9 80.4007L1218.91 80.4089L1218.91 80.4171L1219.8 79.9644ZM1260.92 50.3631L1260.19 51.0504L1260.2 51.0605L1260.92 50.3631ZM1240.59 50.3631L1239.88 49.6658L1239.88 49.666L1240.59 50.3631ZM1240.59 74.0911L1239.86 74.7686L1239.87 74.7787L1239.88 74.7885L1240.59 74.0911ZM1260.92 74.0911L1260.2 73.3937L1260.19 73.4039L1260.92 74.0911ZM1217.04 62.1097C1217.04 55.4997 1218.27 49.7434 1220.7 44.8141L1218.91 43.9307C1216.32 49.1817 1215.04 55.2502 1215.04 62.1097H1217.04ZM1220.69 44.8251C1223.21 39.8797 1226.57 36.1084 1230.79 33.4738L1229.73 31.7778C1225.17 34.6249 1221.57 38.6847 1218.91 43.9197L1220.69 44.8251ZM1230.79 33.4738C1235.01 30.8369 1239.72 29.5145 1244.94 29.5145V27.5145C1239.36 27.5145 1234.28 28.9331 1229.73 31.7778L1230.79 33.4738ZM1244.94 29.5145C1249.42 29.5145 1253.29 30.4254 1256.56 32.2116L1257.52 30.4558C1253.9 28.4831 1249.7 27.5145 1244.94 27.5145V29.5145ZM1256.57 32.216C1259.95 34.0217 1262.52 36.3718 1264.29 39.2581L1266 38.2099C1264.01 34.988 1261.17 32.4046 1257.51 30.4513L1256.57 32.216ZM1266.14 38.734V29.4543H1264.14V38.734H1266.14ZM1265.14 30.4543L1285.23 30.4543V28.4543H1265.14V30.4543ZM1284.23 29.4543V95H1286.23V29.4543H1284.23ZM1285.23 94H1265.14V96H1285.23V94ZM1266.14 95V85.7202H1264.14V95H1266.14ZM1264.3 85.1806C1262.45 88.0763 1259.84 90.431 1256.45 92.2382L1257.39 94.0029C1261.05 92.0512 1263.93 89.4723 1265.99 86.2599L1264.3 85.1806ZM1256.44 92.2427C1253.17 94.0289 1249.31 94.9397 1244.82 94.9397V96.9397C1249.58 96.9397 1253.78 95.9711 1257.4 93.9984L1256.44 92.2427ZM1244.82 94.9397C1239.68 94.9397 1235.01 93.6189 1230.79 90.9804L1229.73 92.6764C1234.28 95.5197 1239.32 96.9397 1244.82 96.9397V94.9397ZM1230.8 90.9873C1226.58 88.2731 1223.21 84.459 1220.69 79.5117L1218.91 80.4171C1221.57 85.6501 1225.17 89.7454 1229.72 92.6696L1230.8 90.9873ZM1220.7 79.5281C1218.27 74.5172 1217.04 68.7192 1217.04 62.1097H1215.04C1215.04 68.9695 1216.32 75.0747 1218.9 80.4007L1220.7 79.5281ZM1266.14 62.2271C1266.14 57.0207 1264.67 52.7923 1261.63 49.6658L1260.2 51.0605C1262.8 53.7288 1264.14 57.4099 1264.14 62.2271H1266.14ZM1261.64 49.6759C1258.71 46.5784 1255.08 45.0169 1250.81 45.0169V47.0169C1254.53 47.0169 1257.64 48.3528 1260.19 51.0503L1261.64 49.6759ZM1250.81 45.0169C1246.55 45.0169 1242.88 46.5775 1239.88 49.6658L1241.31 51.0605C1243.94 48.3538 1247.09 47.0169 1250.81 47.0169V45.0169ZM1239.88 49.666C1236.91 52.7193 1235.48 56.9122 1235.48 62.1097H1237.48C1237.48 57.2834 1238.8 53.6452 1241.31 51.0602L1239.88 49.666ZM1235.48 62.1097C1235.48 67.3098 1236.91 71.5667 1239.86 74.7686L1241.33 73.4137C1238.8 70.664 1237.48 66.9332 1237.48 62.1097H1235.48ZM1239.88 74.7885C1242.88 77.8768 1246.55 79.4374 1250.81 79.4374V77.4374C1247.09 77.4374 1243.94 76.1004 1241.31 73.3938L1239.88 74.7885ZM1250.81 79.4374C1255.08 79.4374 1258.71 77.8758 1261.64 74.7783L1260.19 73.4039C1257.64 76.1014 1254.53 77.4374 1250.81 77.4374V79.4374ZM1261.63 74.7885C1264.67 71.6619 1266.14 67.4336 1266.14 62.2271H1264.14C1264.14 67.0444 1262.8 70.7254 1260.2 73.3938L1261.63 74.7885ZM1338.64 77.9675H1339.64V76.9675H1338.64V77.9675ZM1338.64 95V96H1339.64V95H1338.64ZM1311.39 89.7141L1310.73 90.4631L1310.74 90.4702L1311.39 89.7141ZM1305.28 46.1344H1306.28V45.1344H1305.28V46.1344ZM1297.3 46.1344H1296.3V47.1344H1297.3V46.1344ZM1297.3 29.4543V28.4543L1296.3 28.4543V29.4543L1297.3 29.4543ZM1305.28 29.4543V30.4543H1306.28V29.4543H1305.28ZM1305.28 13.4789V12.4789H1304.28V13.4789H1305.28ZM1325.37 13.4789H1326.37V12.4789H1325.37V13.4789ZM1325.37 29.4543H1324.37V30.4543H1325.37V29.4543ZM1338.53 29.4543H1339.53V28.4543H1338.53V29.4543ZM1338.53 46.1344V47.1344H1339.53V46.1344H1338.53ZM1325.37 46.1344V45.1344H1324.37V46.1344H1325.37ZM1326.78 76.6754L1326.1 77.4125L1326.1 77.4125L1326.78 76.6754ZM1337.64 77.9675V95H1339.64V77.9675H1337.64ZM1338.64 94H1328.42V96H1338.64V94ZM1328.42 94C1321.3 94 1315.88 92.2766 1312.05 88.9579L1310.74 90.4702C1315.05 94.1995 1320.99 96 1328.42 96V94ZM1312.05 88.9651C1308.28 85.629 1306.28 80.1314 1306.28 72.2117H1304.28C1304.28 80.4239 1306.36 86.5945 1310.73 90.463L1312.05 88.9651ZM1306.28 72.2117V46.1344H1304.28V72.2117H1306.28ZM1305.28 45.1344H1297.3V47.1344H1305.28V45.1344ZM1298.3 46.1344V29.4543L1296.3 29.4543V46.1344H1298.3ZM1297.3 30.4543H1305.28V28.4543H1297.3V30.4543ZM1306.28 29.4543V13.4789H1304.28V29.4543H1306.28ZM1305.28 14.4789H1325.37V12.4789H1305.28V14.4789ZM1324.37 13.4789V29.4543H1326.37V13.4789H1324.37ZM1325.37 30.4543H1338.53V28.4543H1325.37V30.4543ZM1337.53 29.4543V46.1344H1339.53V29.4543H1337.53ZM1338.53 45.1344H1325.37V47.1344H1338.53V45.1344ZM1324.37 46.1344V72.4466H1326.37V46.1344H1324.37ZM1324.37 72.4466C1324.37 74.5357 1324.87 76.2802 1326.1 77.4125L1327.46 75.9382C1326.81 75.3477 1326.37 74.2731 1326.37 72.4466H1324.37ZM1326.1 77.4125C1327.32 78.529 1329.2 78.9675 1331.48 78.9675V76.9675C1329.37 76.9675 1328.12 76.5446 1327.46 75.9382L1326.1 77.4125ZM1331.48 78.9675H1338.64V76.9675H1331.48V78.9675ZM1353.59 19.5872L1352.9 20.307L1352.91 20.3196L1352.92 20.3317L1353.59 19.5872ZM1353.59 4.0817L1354.27 4.8145L1354.27 4.8136L1353.59 4.0817ZM1370.74 4.0817L1370.05 4.80155L1370.06 4.81415L1370.07 4.82627L1370.74 4.0817ZM1370.74 19.5872L1371.42 20.3199L1371.42 20.319L1370.74 19.5872ZM1372.27 29.4543H1373.27V28.4543H1372.27V29.4543ZM1372.27 95V96H1373.27V95H1372.27ZM1352.18 95H1351.18V96H1352.18V95ZM1352.18 29.4543V28.4543H1351.18V29.4543H1352.18ZM1362.28 21.6413C1358.97 21.6413 1356.32 20.6888 1354.26 18.8426L1352.92 20.3317C1355.41 22.5576 1358.55 23.6413 1362.28 23.6413V21.6413ZM1354.29 18.8673C1352.29 16.942 1351.3 14.6178 1351.3 11.8344H1349.3C1349.3 15.1592 1350.51 18.0036 1352.9 20.307L1354.29 18.8673ZM1351.3 11.8344C1351.3 8.9654 1352.29 6.65159 1354.27 4.8145L1352.91 3.34891C1350.5 5.58396 1349.3 8.43863 1349.3 11.8344H1351.3ZM1354.27 4.8136C1356.33 2.89515 1358.98 1.91013 1362.28 1.91013V-0.0898662C1358.54 -0.0898662 1355.39 1.0395 1352.91 3.34981L1354.27 4.8136ZM1362.28 1.91013C1365.51 1.91013 1368.07 2.89092 1370.05 4.80155L1371.44 3.36186C1369.03 1.04373 1365.95 -0.0898662 1362.28 -0.0898662V1.91013ZM1370.07 4.82627C1372.13 6.6669 1373.15 8.97743 1373.15 11.8344H1375.15C1375.15 8.4266 1373.9 5.56865 1371.41 3.33713L1370.07 4.82627ZM1373.15 11.8344C1373.15 14.6059 1372.13 16.9266 1370.06 18.8553L1371.42 20.319C1373.89 18.0189 1375.15 15.1711 1375.15 11.8344H1373.15ZM1370.06 18.8544C1368.08 20.6927 1365.52 21.6413 1362.28 21.6413V23.6413C1365.94 23.6413 1369.02 22.5538 1371.42 20.3199L1370.06 18.8544ZM1371.27 29.4543V95H1373.27V29.4543H1371.27ZM1372.27 94H1352.18V96H1372.27V94ZM1353.18 95V29.4543H1351.18V95H1353.18ZM1352.18 30.4543L1372.27 30.4543V28.4543H1352.18V30.4543ZM1418.66 76.2055L1417.7 76.4964L1418.66 79.6434L1419.62 76.4964L1418.66 76.2055ZM1432.87 29.4543V28.4543H1432.13L1431.91 29.1634L1432.87 29.4543ZM1454.25 29.4543L1455.19 29.7887L1455.67 28.4543H1454.25V29.4543ZM1430.99 95V96H1431.7L1431.93 95.3344L1430.99 95ZM1406.21 95L1405.26 95.3344L1405.5 96H1406.21V95ZM1382.95 29.4543V28.4543H1381.53L1382.01 29.7887L1382.95 29.4543ZM1404.45 29.4543L1405.4 29.1634L1405.19 28.4543H1404.45V29.4543ZM1419.62 76.4964L1433.83 29.7451L1431.91 29.1634L1417.7 75.9146L1419.62 76.4964ZM1432.87 30.4543L1454.25 30.4543V28.4543H1432.87V30.4543ZM1453.31 29.1198L1430.05 94.6656L1431.93 95.3344L1455.19 29.7887L1453.31 29.1198ZM1430.99 94H1406.21V96H1430.99V94ZM1407.15 94.6656L1383.89 29.1198L1382.01 29.7887L1405.26 95.3344L1407.15 94.6656ZM1382.95 30.4543H1404.45V28.4543L1382.95 28.4543V30.4543ZM1403.49 29.7451L1417.7 76.4964L1419.62 75.9146L1405.4 29.1634L1403.49 29.7451ZM1526.49 67.0432V68.0432H1527.38L1527.48 67.1578L1526.49 67.0432ZM1481.03 67.0432V66.0432H1479.95L1480.03 67.1199L1481.03 67.0432ZM1484.91 76.4405L1484.21 77.1599L1484.22 77.172L1484.24 77.1837L1484.91 76.4405ZM1503.94 73.2689V72.2689H1503.3L1503.03 72.8488L1503.94 73.2689ZM1525.31 73.2689L1526.28 73.5156L1526.6 72.2689H1525.31V73.2689ZM1519.32 84.898L1518.56 84.2543L1518.55 84.2647L1519.32 84.898ZM1508.63 93.0031L1509.05 93.9135L1508.63 93.0031ZM1477.04 91.8284L1476.56 92.7058L1476.56 92.7058L1477.04 91.8284ZM1465.29 80.0819L1466.16 79.5974L1466.16 79.5974L1465.29 80.0819ZM1465.17 44.3724L1464.3 43.8878L1464.29 43.8983L1465.17 44.3724ZM1476.92 32.6258L1477.4 33.5032L1477.4 33.5032L1476.92 32.6258ZM1511.1 32.5084L1510.63 33.3884L1510.63 33.3884L1511.1 32.5084ZM1522.61 43.9025L1521.74 44.3882L1521.74 44.3986L1522.61 43.9025ZM1506.28 55.884V56.884H1507.28V55.884H1506.28ZM1502.76 47.6614L1503.42 46.9057L1503.42 46.9057L1502.76 47.6614ZM1485.38 47.5439L1484.74 46.7757L1484.73 46.7811L1484.72 46.7865L1485.38 47.5439ZM1481.15 55.884L1480.16 55.7335L1479.98 56.884H1481.15V55.884ZM1525.84 61.1699C1525.84 63.0078 1525.73 64.9272 1525.5 66.9286L1527.48 67.1578C1527.72 65.0871 1527.84 63.0909 1527.84 61.1699H1525.84ZM1526.49 66.0432H1481.03V68.0432H1526.49V66.0432ZM1480.03 67.1199C1480.36 71.3625 1481.72 74.7521 1484.21 77.1599L1485.6 75.721C1483.55 73.7434 1482.33 70.8682 1482.03 66.9665L1480.03 67.1199ZM1484.24 77.1837C1486.78 79.4748 1489.88 80.612 1493.48 80.612V78.612C1490.34 78.612 1487.73 77.6349 1485.58 75.6972L1484.24 77.1837ZM1493.48 80.612C1496.13 80.612 1498.44 80.0529 1500.37 78.8812C1502.31 77.7067 1503.79 75.9571 1504.84 73.689L1503.03 72.8488C1502.12 74.8094 1500.88 76.2314 1499.34 77.1713C1497.78 78.114 1495.85 78.612 1493.48 78.612V80.612ZM1503.94 74.2689H1525.31V72.2689H1503.94V74.2689ZM1524.35 73.0222C1523.29 77.1814 1521.36 80.9224 1518.56 84.2544L1520.09 85.5416C1523.08 81.9822 1525.15 77.9705 1526.28 73.5156L1524.35 73.0222ZM1518.55 84.2647C1515.83 87.5842 1512.4 90.1944 1508.22 92.0927L1509.05 93.9135C1513.49 91.8963 1517.18 89.1031 1520.1 85.5312L1518.55 84.2647ZM1508.22 92.0927C1504.06 93.9844 1499.39 94.9397 1494.19 94.9397V96.9397C1499.64 96.9397 1504.6 95.9373 1509.05 93.9135L1508.22 92.0927ZM1494.19 94.9397C1487.91 94.9397 1482.36 93.6019 1477.52 90.9511L1476.56 92.7058C1481.73 95.5367 1487.62 96.9397 1494.19 96.9397V94.9397ZM1477.52 90.9511C1472.67 88.3029 1468.89 84.5251 1466.16 79.5974L1464.41 80.5664C1467.32 85.819 1471.37 89.8723 1476.56 92.7058L1477.52 90.9511ZM1466.16 79.5974C1463.44 74.679 1462.06 68.8997 1462.06 62.2271H1460.06C1460.06 69.1805 1461.5 75.3044 1464.41 80.5664L1466.16 79.5974ZM1462.06 62.2271C1462.06 55.5501 1463.4 49.767 1466.05 44.8465L1464.29 43.8983C1461.46 49.1581 1460.06 55.2782 1460.06 62.2271H1462.06ZM1466.05 44.8569C1468.78 39.9292 1472.56 36.1514 1477.4 33.5032L1476.44 31.7485C1471.26 34.582 1467.21 38.6352 1464.3 43.8879L1466.05 44.8569ZM1477.4 33.5032C1482.24 30.8533 1487.83 29.5145 1494.19 29.5145V27.5145C1487.54 27.5145 1481.62 28.9166 1476.44 31.7485L1477.4 33.5032ZM1494.19 29.5145C1500.39 29.5145 1505.86 30.8144 1510.63 33.3884L1511.58 31.6283C1506.48 28.8772 1500.67 27.5145 1494.19 27.5145V29.5145ZM1510.63 33.3884C1515.39 35.9596 1519.09 39.6203 1521.74 44.3882L1523.49 43.4169C1520.65 38.3176 1516.68 34.3822 1511.58 31.6283L1510.63 33.3884ZM1521.74 44.3986C1524.46 49.1587 1525.84 54.7382 1525.84 61.1699H1527.84C1527.84 54.4456 1526.4 48.5134 1523.48 43.4064L1521.74 44.3986ZM1507.28 55.884C1507.28 52.1836 1506.01 49.1537 1503.42 46.9057L1502.11 48.4171C1504.21 50.2413 1505.28 52.6931 1505.28 55.884H1507.28ZM1503.42 46.9057C1500.86 44.691 1497.68 43.6073 1493.95 43.6073V45.6073C1497.27 45.6073 1499.96 46.5597 1502.11 48.4171L1503.42 46.9057ZM1493.95 43.6073C1490.38 43.6073 1487.28 44.6528 1484.74 46.7757L1486.02 48.3122C1488.17 46.5196 1490.79 45.6073 1493.95 45.6073V43.6073ZM1484.72 46.7865C1482.23 48.9318 1480.73 51.9483 1480.16 55.7335L1482.14 56.0344C1482.66 52.6151 1483.98 50.0716 1486.03 48.3013L1484.72 46.7865ZM1481.15 56.884H1506.28V54.884H1481.15V56.884ZM1581.84 95L1580.96 95.4826L1581.25 96H1581.84V95ZM1564.69 63.8716L1565.57 63.3891L1565.28 62.8716H1564.69V63.8716ZM1559.87 63.8716V62.8716H1558.87V63.8716H1559.87ZM1559.87 95V96H1560.87V95H1559.87ZM1539.79 95H1538.79V96H1539.79V95ZM1539.79 12.5392V11.5392H1538.79V12.5392H1539.79ZM1590.06 15.9457L1589.62 16.8402L1589.62 16.8432L1590.06 15.9457ZM1600.4 25.343L1599.53 25.8373L1599.53 25.8447L1600.4 25.343ZM1599.11 53.1823L1598.3 52.5941L1598.29 52.6039L1599.11 53.1823ZM1585.48 62.3446L1585.2 61.3864L1583.98 61.7501L1584.62 62.8481L1585.48 62.3446ZM1604.51 95V96H1606.25L1605.37 94.4965L1604.51 95ZM1559.87 49.6583H1558.87V50.6583H1559.87V49.6583ZM1580.55 46.9566L1579.86 46.2346L1579.85 46.242L1579.84 46.2495L1580.55 46.9566ZM1580.55 31.921L1579.84 32.6281L1579.85 32.6357L1579.86 32.643L1580.55 31.921ZM1559.87 29.2193V28.2193H1558.87V29.2193H1559.87ZM1582.72 94.5174L1565.57 63.3891L1563.81 64.3542L1580.96 95.4826L1582.72 94.5174ZM1564.69 62.8716H1559.87V64.8716H1564.69V62.8716ZM1558.87 63.8716V95H1560.87V63.8716H1558.87ZM1559.87 94H1539.79V96H1559.87V94ZM1540.79 95V12.5392H1538.79V95H1540.79ZM1539.79 13.5392L1573.5 13.5392V11.5392L1539.79 11.5392V13.5392ZM1573.5 13.5392C1579.89 13.5392 1585.25 14.6552 1589.62 16.8401L1590.51 15.0513C1585.8 12.6942 1580.11 11.5392 1573.5 11.5392V13.5392ZM1589.62 16.8432C1594.08 19.0368 1597.37 22.0383 1599.53 25.8373L1601.27 24.8487C1598.89 20.66 1595.28 17.3966 1590.5 15.0483L1589.62 16.8432ZM1599.53 25.8447C1601.71 29.5967 1602.81 33.8068 1602.81 38.4991H1604.81C1604.81 33.4809 1603.63 28.9202 1601.26 24.8412L1599.53 25.8447ZM1602.81 38.4991C1602.81 43.7761 1601.3 48.4632 1598.3 52.5941L1599.92 53.7705C1603.18 49.2872 1604.81 44.1855 1604.81 38.4991H1602.81ZM1598.29 52.6039C1595.39 56.6956 1591.05 59.6365 1585.2 61.3864L1585.77 63.3028C1591.97 61.4504 1596.72 58.2831 1599.92 53.7607L1598.29 52.6039ZM1584.62 62.8481L1603.65 95.5035L1605.37 94.4965L1586.35 61.8411L1584.62 62.8481ZM1604.51 94H1581.84V96H1604.51V94ZM1559.87 50.6583H1572.33V48.6583H1559.87V50.6583ZM1572.33 50.6583C1576.15 50.6583 1579.2 49.7221 1581.26 47.6637L1579.84 46.2495C1578.3 47.7934 1575.86 48.6583 1572.33 48.6583V50.6583ZM1581.24 47.6786C1583.36 45.642 1584.37 42.8069 1584.37 39.3214H1582.37C1582.37 42.4139 1581.49 44.669 1579.86 46.2346L1581.24 47.6786ZM1584.37 39.3214C1584.37 35.976 1583.36 33.2264 1581.24 31.199L1579.86 32.643C1581.5 34.2179 1582.37 36.4019 1582.37 39.3214H1584.37ZM1581.26 31.2139C1579.2 29.1555 1576.15 28.2193 1572.33 28.2193V30.2193C1575.86 30.2193 1578.3 31.0843 1579.84 32.6281L1581.26 31.2139ZM1572.33 28.2193L1559.87 28.2193V30.2193H1572.33V28.2193ZM1558.87 29.2193V49.6583H1560.87V29.2193H1558.87ZM1680.2 67.0432V68.0432H1681.09L1681.19 67.1578L1680.2 67.0432ZM1634.74 67.0432V66.0432H1633.66L1633.74 67.1199L1634.74 67.0432ZM1638.62 76.4405L1637.92 77.1599L1637.93 77.172L1637.95 77.1837L1638.62 76.4405ZM1657.65 73.2689V72.2689H1657.01L1656.74 72.8488L1657.65 73.2689ZM1679.02 73.2689L1679.99 73.5156L1680.31 72.2689H1679.02V73.2689ZM1673.03 84.898L1672.27 84.2543L1672.26 84.2647L1673.03 84.898ZM1662.34 93.0031L1662.76 93.9135L1662.34 93.0031ZM1630.75 91.8284L1630.27 92.7058L1630.27 92.7058L1630.75 91.8284ZM1619 80.0819L1619.87 79.5974L1619.87 79.5974L1619 80.0819ZM1618.88 44.3724L1618.01 43.8878L1618 43.8983L1618.88 44.3724ZM1630.63 32.6258L1631.11 33.5032L1631.11 33.5032L1630.63 32.6258ZM1664.81 32.5084L1664.34 33.3884L1664.34 33.3884L1664.81 32.5084ZM1676.32 43.9025L1675.45 44.3882L1675.45 44.3986L1676.32 43.9025ZM1660 55.884V56.884H1661V55.884H1660ZM1656.47 47.6614L1657.13 46.9057L1657.13 46.9057L1656.47 47.6614ZM1639.09 47.5439L1638.45 46.7757L1638.44 46.7811L1638.43 46.7865L1639.09 47.5439ZM1634.86 55.884L1633.87 55.7335L1633.69 56.884H1634.86V55.884ZM1679.55 61.1699C1679.55 63.0078 1679.44 64.9272 1679.21 66.9286L1681.19 67.1578C1681.43 65.0871 1681.55 63.0909 1681.55 61.1699H1679.55ZM1680.2 66.0432H1634.74V68.0432H1680.2V66.0432ZM1633.74 67.1199C1634.07 71.3625 1635.43 74.7521 1637.92 77.1599L1639.31 75.721C1637.26 73.7434 1636.04 70.8682 1635.74 66.9665L1633.74 67.1199ZM1637.95 77.1837C1640.49 79.4748 1643.59 80.612 1647.19 80.612V78.612C1644.05 78.612 1641.44 77.6349 1639.29 75.6972L1637.95 77.1837ZM1647.19 80.612C1649.84 80.612 1652.15 80.0529 1654.08 78.8812C1656.02 77.7067 1657.5 75.9571 1658.55 73.689L1656.74 72.8488C1655.83 74.8094 1654.59 76.2314 1653.05 77.1713C1651.49 78.114 1649.56 78.612 1647.19 78.612V80.612ZM1657.65 74.2689H1679.02V72.2689H1657.65V74.2689ZM1678.06 73.0222C1677 77.1814 1675.07 80.9224 1672.27 84.2544L1673.8 85.5416C1676.79 81.9822 1678.86 77.9705 1679.99 73.5156L1678.06 73.0222ZM1672.26 84.2647C1669.54 87.5842 1666.11 90.1944 1661.93 92.0927L1662.76 93.9135C1667.2 91.8963 1670.89 89.1031 1673.81 85.5312L1672.26 84.2647ZM1661.93 92.0927C1657.77 93.9844 1653.1 94.9397 1647.9 94.9397V96.9397C1653.35 96.9397 1658.31 95.9373 1662.76 93.9135L1661.93 92.0927ZM1647.9 94.9397C1641.62 94.9397 1636.07 93.6019 1631.23 90.9511L1630.27 92.7058C1635.44 95.5367 1641.33 96.9397 1647.9 96.9397V94.9397ZM1631.23 90.9511C1626.38 88.3029 1622.6 84.5251 1619.87 79.5974L1618.12 80.5664C1621.03 85.819 1625.09 89.8723 1630.27 92.7058L1631.23 90.9511ZM1619.87 79.5974C1617.15 74.679 1615.77 68.8997 1615.77 62.2271H1613.77C1613.77 69.1805 1615.21 75.3044 1618.12 80.5664L1619.87 79.5974ZM1615.77 62.2271C1615.77 55.5501 1617.11 49.767 1619.76 44.8465L1618 43.8983C1615.17 49.1581 1613.77 55.2782 1613.77 62.2271H1615.77ZM1619.76 44.8569C1622.49 39.9292 1626.27 36.1514 1631.11 33.5032L1630.15 31.7485C1624.97 34.582 1620.92 38.6352 1618.01 43.8879L1619.76 44.8569ZM1631.11 33.5032C1635.95 30.8533 1641.54 29.5145 1647.9 29.5145V27.5145C1641.25 27.5145 1635.33 28.9166 1630.15 31.7485L1631.11 33.5032ZM1647.9 29.5145C1654.1 29.5145 1659.57 30.8144 1664.34 33.3884L1665.29 31.6283C1660.19 28.8772 1654.38 27.5145 1647.9 27.5145V29.5145ZM1664.34 33.3884C1669.1 35.9596 1672.8 39.6203 1675.45 44.3882L1677.2 43.4169C1674.36 38.3176 1670.39 34.3822 1665.29 31.6283L1664.34 33.3884ZM1675.45 44.3986C1678.17 49.1587 1679.55 54.7382 1679.55 61.1699H1681.55C1681.55 54.4456 1680.11 48.5134 1677.19 43.4064L1675.45 44.3986ZM1661 55.884C1661 52.1836 1659.72 49.1537 1657.13 46.9057L1655.82 48.4171C1657.92 50.2413 1659 52.6931 1659 55.884H1661ZM1657.13 46.9057C1654.57 44.691 1651.39 43.6073 1647.66 43.6073V45.6073C1650.98 45.6073 1653.67 46.5597 1655.82 48.4171L1657.13 46.9057ZM1647.66 43.6073C1644.09 43.6073 1640.99 44.6528 1638.45 46.7757L1639.73 48.3122C1641.88 46.5196 1644.5 45.6073 1647.66 45.6073V43.6073ZM1638.43 46.7865C1635.94 48.9318 1634.44 51.9483 1633.87 55.7335L1635.85 56.0344C1636.37 52.6151 1637.69 50.0716 1639.74 48.3013L1638.43 46.7865ZM1634.86 56.884H1660V54.884H1634.86V56.884ZM1693.26 44.3724L1692.37 43.9196L1692.37 43.9307L1693.26 44.3724ZM1703.72 32.6258L1704.25 33.4738L1704.25 33.4738L1703.72 32.6258ZM1730.5 31.3337L1730.02 32.2116L1730.03 32.216L1730.5 31.3337ZM1738.6 38.734L1737.75 39.2581L1739.6 42.2671V38.734H1738.6ZM1738.6 29.4543V28.4543L1737.6 28.4543V29.4543L1738.6 29.4543ZM1758.69 29.4543H1759.69V28.4543H1758.69V29.4543ZM1758.69 95V96H1759.69V95H1758.69ZM1738.6 95H1737.6V96H1738.6V95ZM1738.6 85.7202H1739.6V82.3072L1737.76 85.1806L1738.6 85.7202ZM1730.38 93.1206L1729.91 92.2382L1729.9 92.2427L1730.38 93.1206ZM1703.72 91.8284L1703.18 92.6697L1703.19 92.6764L1703.72 91.8284ZM1693.26 79.9644L1692.36 80.4007L1692.37 80.4089L1692.37 80.4171L1693.26 79.9644ZM1734.38 50.3631L1733.65 51.0504L1733.66 51.0605L1734.38 50.3631ZM1714.05 50.3631L1713.34 49.6658L1713.34 49.666L1714.05 50.3631ZM1714.05 74.0911L1713.32 74.7686L1713.33 74.7787L1713.34 74.7885L1714.05 74.0911ZM1734.38 74.0911L1733.66 73.3937L1733.65 73.4039L1734.38 74.0911ZM1690.5 62.1097C1690.5 55.4997 1691.73 49.7434 1694.16 44.8141L1692.37 43.9307C1689.78 49.1817 1688.5 55.2502 1688.5 62.1097H1690.5ZM1694.15 44.8251C1696.66 39.8797 1700.03 36.1084 1704.25 33.4738L1703.19 31.7778C1698.63 34.6249 1695.03 38.6847 1692.37 43.9197L1694.15 44.8251ZM1704.25 33.4738C1708.47 30.8369 1713.18 29.5145 1718.4 29.5145V27.5145C1712.82 27.5145 1707.74 28.9331 1703.19 31.7778L1704.25 33.4738ZM1718.4 29.5145C1722.88 29.5145 1726.75 30.4254 1730.02 32.2116L1730.98 30.4558C1727.36 28.4831 1723.16 27.5145 1718.4 27.5145V29.5145ZM1730.03 32.216C1733.41 34.0217 1735.98 36.3718 1737.75 39.2581L1739.46 38.2099C1737.47 34.988 1734.63 32.4046 1730.97 30.4513L1730.03 32.216ZM1739.6 38.734V29.4543L1737.6 29.4543V38.734H1739.6ZM1738.6 30.4543H1758.69V28.4543H1738.6V30.4543ZM1757.69 29.4543V95H1759.69V29.4543H1757.69ZM1758.69 94H1738.6V96H1758.69V94ZM1739.6 95V85.7202H1737.6V95H1739.6ZM1737.76 85.1806C1735.91 88.0763 1733.3 90.431 1729.91 92.2382L1730.85 94.0029C1734.51 92.0512 1737.39 89.4723 1739.45 86.2599L1737.76 85.1806ZM1729.9 92.2427C1726.63 94.0289 1722.77 94.9397 1718.28 94.9397V96.9397C1723.04 96.9397 1727.24 95.9711 1730.86 93.9984L1729.9 92.2427ZM1718.28 94.9397C1713.14 94.9397 1708.47 93.6189 1704.25 90.9804L1703.19 92.6764C1707.74 95.5197 1712.78 96.9397 1718.28 96.9397V94.9397ZM1704.26 90.9873C1700.04 88.2731 1696.67 84.459 1694.15 79.5117L1692.37 80.4171C1695.03 85.6501 1698.63 89.7454 1703.18 92.6696L1704.26 90.9873ZM1694.16 79.5281C1691.73 74.5172 1690.5 68.7192 1690.5 62.1097H1688.5C1688.5 68.9695 1689.78 75.0747 1692.36 80.4007L1694.16 79.5281ZM1739.6 62.2271C1739.6 57.0207 1738.13 52.7923 1735.09 49.6658L1733.66 51.0605C1736.25 53.7288 1737.6 57.4099 1737.6 62.2271H1739.6ZM1735.1 49.6759C1732.17 46.5784 1728.54 45.0169 1724.27 45.0169V47.0169C1727.99 47.0169 1731.1 48.3528 1733.65 51.0503L1735.1 49.6759ZM1724.27 45.0169C1720.01 45.0169 1716.34 46.5775 1713.34 49.6658L1714.77 51.0605C1717.4 48.3538 1720.55 47.0169 1724.27 47.0169V45.0169ZM1713.34 49.666C1710.37 52.7193 1708.94 56.9122 1708.94 62.1097H1710.94C1710.94 57.2834 1712.26 53.6452 1714.77 51.0602L1713.34 49.666ZM1708.94 62.1097C1708.94 67.3098 1710.37 71.5667 1713.32 74.7686L1714.79 73.4137C1712.26 70.664 1710.94 66.9332 1710.94 62.1097H1708.94ZM1713.34 74.7885C1716.34 77.8768 1720.01 79.4374 1724.27 79.4374V77.4374C1720.55 77.4374 1717.4 76.1004 1714.77 73.3938L1713.34 74.7885ZM1724.27 79.4374C1728.54 79.4374 1732.17 77.8758 1735.1 74.7783L1733.65 73.4039C1731.1 76.1014 1727.99 77.4374 1724.27 77.4374V79.4374ZM1735.09 74.7885C1738.13 71.6619 1739.6 67.4336 1739.6 62.2271H1737.6C1737.6 67.0444 1736.25 70.7254 1733.66 73.3938L1735.09 74.7885ZM1775.69 44.3724L1774.81 43.8878L1774.81 43.8983L1775.69 44.3724ZM1787.32 32.6258L1786.84 31.7484L1786.83 31.7517L1787.32 32.6258ZM1825.02 34.9751L1824.41 35.7615L1824.41 35.7657L1825.02 34.9751ZM1835.95 53.1823V54.1823H1837.19L1836.93 52.9674L1835.95 53.1823ZM1814.57 53.1823L1813.63 53.5205L1813.87 54.1823H1814.57V53.1823ZM1795.31 50.0107L1796.1 50.6247L1796.1 50.6142L1795.31 50.0107ZM1795.31 74.561L1794.51 75.1645L1794.52 75.1749L1795.31 74.561ZM1814.57 71.272V70.272H1813.87L1813.63 70.9338L1814.57 71.272ZM1835.95 71.272L1836.92 71.491L1837.2 70.272H1835.95V71.272ZM1825.02 89.3617L1824.41 88.5765L1824.41 88.5765L1825.02 89.3617ZM1787.32 91.8284L1786.83 92.7026L1786.84 92.7058L1787.32 91.8284ZM1775.69 80.0819L1774.81 80.556L1774.81 80.5664L1775.69 80.0819ZM1772.58 62.2271C1772.58 55.5501 1773.92 49.767 1776.57 44.8465L1774.81 43.8983C1771.98 49.1581 1770.58 55.2782 1770.58 62.2271H1772.58ZM1776.56 44.8569C1779.3 39.9251 1783.04 36.147 1787.8 33.5L1786.83 31.7517C1781.73 34.5864 1777.72 38.6393 1774.81 43.8879L1776.56 44.8569ZM1787.8 33.5032C1792.65 30.8524 1798.19 29.5145 1804.47 29.5145V27.5145C1797.9 27.5145 1792.02 28.9176 1786.84 31.7485L1787.8 33.5032ZM1804.47 29.5145C1812.51 29.5145 1819.13 31.6166 1824.41 35.7614L1825.64 34.1888C1819.95 29.7195 1812.87 27.5145 1804.47 27.5145V29.5145ZM1824.41 35.7657C1829.76 39.9095 1833.29 45.7608 1834.97 53.3971L1836.93 52.9674C1835.16 44.9417 1831.41 38.6549 1825.64 34.1846L1824.41 35.7657ZM1835.95 52.1823H1814.57V54.1823H1835.95V52.1823ZM1815.51 52.8441C1814.56 50.1939 1813.13 48.1289 1811.19 46.7321C1809.24 45.3335 1806.87 44.6645 1804.12 44.6645V46.6645C1806.53 46.6645 1808.48 47.2484 1810.02 48.3558C1811.56 49.4649 1812.78 51.1588 1813.63 53.5205L1815.51 52.8441ZM1804.12 44.6645C1800.13 44.6645 1796.89 46.2562 1794.51 49.4073L1796.1 50.6142C1798.1 47.9702 1800.74 46.6645 1804.12 46.6645V44.6645ZM1794.52 49.3968C1792.13 52.4592 1791.02 56.7841 1791.02 62.2271H1793.02C1793.02 57.0199 1794.09 53.2006 1796.1 50.6247L1794.52 49.3968ZM1791.02 62.2271C1791.02 67.6727 1792.14 72.029 1794.51 75.1644L1796.1 73.9576C1794.09 71.298 1793.02 67.4317 1793.02 62.2271H1791.02ZM1794.52 75.1749C1796.91 78.2463 1800.14 79.7898 1804.12 79.7898V77.7898C1800.73 77.7898 1798.09 76.5141 1796.1 73.9471L1794.52 75.1749ZM1804.12 79.7898C1806.87 79.7898 1809.24 79.1207 1811.19 77.7222C1813.13 76.3254 1814.56 74.2603 1815.51 71.6102L1813.63 70.9338C1812.78 73.2955 1811.56 74.9893 1810.02 76.0984C1808.48 77.2058 1806.53 77.7898 1804.12 77.7898V79.7898ZM1814.57 72.272H1835.95V70.272H1814.57V72.272ZM1834.97 71.0529C1833.3 78.5297 1829.77 84.3492 1824.41 88.5765L1825.64 90.1468C1831.4 85.6034 1835.16 79.3631 1836.92 71.491L1834.97 71.0529ZM1824.41 88.5765C1819.05 92.8023 1812.42 94.9397 1804.47 94.9397V96.9397C1812.8 96.9397 1819.88 94.6918 1825.64 90.1468L1824.41 88.5765ZM1804.47 94.9397C1798.19 94.9397 1792.65 93.6019 1787.8 90.9511L1786.84 92.7058C1792.02 95.5367 1797.9 96.9397 1804.47 96.9397V94.9397ZM1787.8 90.9543C1783.04 88.3072 1779.3 84.5292 1776.56 79.5974L1774.81 80.5664C1777.72 85.815 1781.73 89.8679 1786.83 92.7026L1787.8 90.9543ZM1776.57 79.6078C1773.92 74.6873 1772.58 68.9042 1772.58 62.2271H1770.58C1770.58 69.1761 1771.98 75.2961 1774.81 80.556L1776.57 79.6078ZM1885.57 77.9675H1886.57V76.9675H1885.57V77.9675ZM1885.57 95V96H1886.57V95H1885.57ZM1858.32 89.7141L1857.66 90.4631L1857.67 90.4702L1858.32 89.7141ZM1852.21 46.1344H1853.21V45.1344H1852.21V46.1344ZM1844.23 46.1344H1843.23V47.1344H1844.23V46.1344ZM1844.23 29.4543V28.4543H1843.23V29.4543H1844.23ZM1852.21 29.4543V30.4543H1853.21V29.4543H1852.21ZM1852.21 13.4789V12.4789H1851.21V13.4789H1852.21ZM1872.3 13.4789H1873.3V12.4789H1872.3V13.4789ZM1872.3 29.4543H1871.3V30.4543H1872.3V29.4543ZM1885.46 29.4543H1886.46V28.4543H1885.46V29.4543ZM1885.46 46.1344V47.1344H1886.46V46.1344H1885.46ZM1872.3 46.1344V45.1344H1871.3V46.1344H1872.3ZM1873.71 76.6754L1873.03 77.4125L1873.03 77.4125L1873.71 76.6754ZM1884.57 77.9675V95H1886.57V77.9675H1884.57ZM1885.57 94H1875.36V96H1885.57V94ZM1875.36 94C1868.23 94 1862.81 92.2766 1858.98 88.9579L1857.67 90.4702C1861.98 94.1995 1867.92 96 1875.36 96V94ZM1858.99 88.9651C1855.21 85.629 1853.21 80.1314 1853.21 72.2117H1851.21C1851.21 80.4239 1853.29 86.5945 1857.66 90.463L1858.99 88.9651ZM1853.21 72.2117V46.1344H1851.21V72.2117H1853.21ZM1852.21 45.1344H1844.23V47.1344H1852.21V45.1344ZM1845.23 46.1344V29.4543H1843.23V46.1344H1845.23ZM1844.23 30.4543H1852.21V28.4543H1844.23V30.4543ZM1853.21 29.4543V13.4789H1851.21V29.4543H1853.21ZM1852.21 14.4789L1872.3 14.4789V12.4789L1852.21 12.4789V14.4789ZM1871.3 13.4789V29.4543H1873.3V13.4789H1871.3ZM1872.3 30.4543H1885.46V28.4543H1872.3V30.4543ZM1884.46 29.4543V46.1344H1886.46V29.4543H1884.46ZM1885.46 45.1344H1872.3V47.1344H1885.46V45.1344ZM1871.3 46.1344V72.4466H1873.3V46.1344H1871.3ZM1871.3 72.4466C1871.3 74.5357 1871.8 76.2802 1873.03 77.4125L1874.39 75.9382C1873.74 75.3477 1873.3 74.2731 1873.3 72.4466H1871.3ZM1873.03 77.4125C1874.25 78.529 1876.13 78.9675 1878.41 78.9675V76.9675C1876.3 76.9675 1875.05 76.5446 1874.39 75.9382L1873.03 77.4125ZM1878.41 78.9675H1885.57V76.9675H1878.41V78.9675ZM1972.88 95V96H1973.88V95H1972.88ZM1952.79 95L1951.96 95.5511L1952.26 96H1952.79V95ZM1919.2 44.1374L1920.03 43.5863L1918.2 40.809V44.1374H1919.2ZM1919.2 95V96H1920.2V95H1919.2ZM1899.11 95H1898.11V96H1899.11V95ZM1899.11 12.5392V11.5392H1898.11V12.5392H1899.11ZM1919.2 12.5392L1920.03 11.9899L1919.74 11.5392H1919.2V12.5392ZM1952.79 63.6367L1951.96 64.1861L1953.79 66.978V63.6367H1952.79ZM1952.79 12.5392V11.5392H1951.79V12.5392H1952.79ZM1972.88 12.5392H1973.88V11.5392H1972.88V12.5392ZM1972.88 94H1952.79V96H1972.88V94ZM1953.63 94.4489L1920.03 43.5863L1918.36 44.6886L1951.96 95.5511L1953.63 94.4489ZM1918.2 44.1374V95H1920.2V44.1374H1918.2ZM1919.2 94H1899.11V96H1919.2V94ZM1900.11 95V12.5392H1898.11V95H1900.11ZM1899.11 13.5392L1919.2 13.5392V11.5392L1899.11 11.5392V13.5392ZM1918.36 13.0886L1951.96 64.1861L1953.63 63.0873L1920.03 11.9899L1918.36 13.0886ZM1953.79 63.6367V12.5392H1951.79V63.6367H1953.79ZM1952.79 13.5392L1972.88 13.5392V11.5392L1952.79 11.5392V13.5392ZM1971.88 12.5392V95H1973.88V12.5392H1971.88ZM1989.56 44.3724L1988.66 43.9196L1988.66 43.9307L1989.56 44.3724ZM2000.01 32.6258L2000.54 33.4738L2000.54 33.4738L2000.01 32.6258ZM2026.79 31.3337L2026.31 32.2116L2026.32 32.216L2026.79 31.3337ZM2034.9 38.734L2034.05 39.2581L2035.9 42.2671V38.734H2034.9ZM2034.9 29.4543V28.4543H2033.9V29.4543H2034.9ZM2054.98 29.4543H2055.98V28.4543H2054.98V29.4543ZM2054.98 95V96H2055.98V95H2054.98ZM2034.9 95H2033.9V96H2034.9V95ZM2034.9 85.7202H2035.9V82.3072L2034.06 85.1806L2034.9 85.7202ZM2026.67 93.1206L2026.2 92.2382L2026.2 92.2427L2026.67 93.1206ZM2000.01 91.8284L1999.47 92.6697L1999.48 92.6764L2000.01 91.8284ZM1989.56 79.9644L1988.66 80.4007L1988.66 80.4089L1988.66 80.4171L1989.56 79.9644ZM2030.67 50.3631L2029.94 51.0504L2029.95 51.0605L2030.67 50.3631ZM2010.35 50.3631L2009.63 49.6658L2009.63 49.666L2010.35 50.3631ZM2010.35 74.0911L2009.61 74.7686L2009.62 74.7787L2009.63 74.7885L2010.35 74.0911ZM2030.67 74.0911L2029.95 73.3937L2029.94 73.4039L2030.67 74.0911ZM1986.8 62.1097C1986.8 55.4997 1988.03 49.7434 1990.45 44.8141L1988.66 43.9307C1986.07 49.1817 1984.8 55.2502 1984.8 62.1097H1986.8ZM1990.45 44.8251C1992.96 39.8797 1996.32 36.1084 2000.54 33.4738L1999.48 31.7778C1994.92 34.6249 1991.32 38.6847 1988.66 43.9197L1990.45 44.8251ZM2000.54 33.4738C2004.76 30.8369 2009.47 29.5145 2014.69 29.5145V27.5145C2009.11 27.5145 2004.03 28.9331 1999.48 31.7778L2000.54 33.4738ZM2014.69 29.5145C2019.18 29.5145 2023.04 30.4254 2026.31 32.2116L2027.27 30.4558C2023.65 28.4831 2019.45 27.5145 2014.69 27.5145V29.5145ZM2026.32 32.216C2029.71 34.0217 2032.27 36.3718 2034.05 39.2581L2035.75 38.2099C2033.77 34.988 2030.92 32.4046 2027.26 30.4513L2026.32 32.216ZM2035.9 38.734V29.4543H2033.9V38.734H2035.9ZM2034.9 30.4543H2054.98V28.4543L2034.9 28.4543V30.4543ZM2053.98 29.4543V95H2055.98V29.4543H2053.98ZM2054.98 94H2034.9V96H2054.98V94ZM2035.9 95V85.7202H2033.9V95H2035.9ZM2034.06 85.1806C2032.2 88.0763 2029.59 90.431 2026.2 92.2382L2027.15 94.0029C2030.8 92.0512 2033.68 89.4723 2035.74 86.2599L2034.06 85.1806ZM2026.2 92.2427C2022.92 94.0289 2019.06 94.9397 2014.58 94.9397V96.9397C2019.33 96.9397 2023.54 95.9711 2027.15 93.9984L2026.2 92.2427ZM2014.58 94.9397C2009.43 94.9397 2004.76 93.6189 2000.54 90.9804L1999.48 92.6764C2004.03 95.5197 2009.07 96.9397 2014.58 96.9397V94.9397ZM2000.55 90.9873C1996.33 88.2731 1992.96 84.459 1990.45 79.5117L1988.66 80.4171C1991.32 85.6501 1994.92 89.7454 1999.47 92.6696L2000.55 90.9873ZM1990.46 79.5281C1988.03 74.5172 1986.8 68.7192 1986.8 62.1097H1984.8C1984.8 68.9695 1986.07 75.0747 1988.66 80.4007L1990.46 79.5281ZM2035.9 62.2271C2035.9 57.0207 2034.43 52.7923 2031.39 49.6658L2029.95 51.0605C2032.55 53.7288 2033.9 57.4099 2033.9 62.2271H2035.9ZM2031.39 49.6759C2028.46 46.5784 2024.83 45.0169 2020.57 45.0169V47.0169C2024.29 47.0169 2027.39 48.3528 2029.94 51.0503L2031.39 49.6759ZM2020.57 45.0169C2016.3 45.0169 2012.64 46.5775 2009.63 49.6658L2011.06 51.0605C2013.7 48.3538 2016.85 47.0169 2020.57 47.0169V45.0169ZM2009.63 49.666C2006.66 52.7193 2005.24 56.9122 2005.24 62.1097H2007.24C2007.24 57.2834 2008.55 53.6452 2011.06 51.0602L2009.63 49.666ZM2005.24 62.1097C2005.24 67.3098 2006.66 71.5667 2009.61 74.7686L2011.08 73.4137C2008.55 70.664 2007.24 66.9332 2007.24 62.1097H2005.24ZM2009.63 74.7885C2012.64 77.8768 2016.3 79.4374 2020.57 79.4374V77.4374C2016.85 77.4374 2013.7 76.1004 2011.06 73.3938L2009.63 74.7885ZM2020.57 79.4374C2024.83 79.4374 2028.46 77.8758 2031.39 74.7783L2029.94 73.4039C2027.39 76.1014 2024.29 77.4374 2020.57 77.4374V79.4374ZM2031.39 74.7885C2034.43 71.6619 2035.9 67.4336 2035.9 62.2271H2033.9C2033.9 67.0444 2032.55 70.7254 2029.95 73.3938L2031.39 74.7885ZM2108.4 77.9675H2109.4V76.9675H2108.4V77.9675ZM2108.4 95V96H2109.4V95H2108.4ZM2081.14 89.7141L2080.48 90.4631L2080.49 90.4702L2081.14 89.7141ZM2075.04 46.1344H2076.04V45.1344H2075.04V46.1344ZM2067.05 46.1344H2066.05V47.1344H2067.05V46.1344ZM2067.05 29.4543V28.4543H2066.05V29.4543H2067.05ZM2075.04 29.4543V30.4543H2076.04V29.4543H2075.04ZM2075.04 13.4789V12.4789H2074.04V13.4789H2075.04ZM2095.12 13.4789H2096.12V12.4789H2095.12V13.4789ZM2095.12 29.4543H2094.12V30.4543H2095.12V29.4543ZM2108.28 29.4543H2109.28V28.4543H2108.28V29.4543ZM2108.28 46.1344V47.1344H2109.28V46.1344H2108.28ZM2095.12 46.1344V45.1344H2094.12V46.1344H2095.12ZM2096.53 76.6754L2095.86 77.4125L2095.86 77.4125L2096.53 76.6754ZM2107.4 77.9675V95H2109.4V77.9675H2107.4ZM2108.4 94H2098.18V96H2108.4V94ZM2098.18 94C2091.05 94 2085.63 92.2766 2081.8 88.9579L2080.49 90.4702C2084.8 94.1995 2090.74 96 2098.18 96V94ZM2081.81 88.9651C2078.04 85.629 2076.04 80.1314 2076.04 72.2117H2074.04C2074.04 80.4239 2076.11 86.5945 2080.48 90.463L2081.81 88.9651ZM2076.04 72.2117V46.1344H2074.04V72.2117H2076.04ZM2075.04 45.1344L2067.05 45.1344V47.1344L2075.04 47.1344V45.1344ZM2068.05 46.1344V29.4543H2066.05V46.1344H2068.05ZM2067.05 30.4543L2075.04 30.4543V28.4543H2067.05V30.4543ZM2076.04 29.4543V13.4789H2074.04V29.4543H2076.04ZM2075.04 14.4789L2095.12 14.4789V12.4789L2075.04 12.4789V14.4789ZM2094.12 13.4789V29.4543H2096.12V13.4789H2094.12ZM2095.12 30.4543H2108.28V28.4543H2095.12V30.4543ZM2107.28 29.4543V46.1344H2109.28V29.4543H2107.28ZM2108.28 45.1344H2095.12V47.1344H2108.28V45.1344ZM2094.12 46.1344V72.4466H2096.12V46.1344H2094.12ZM2094.12 72.4466C2094.12 74.5357 2094.62 76.2802 2095.86 77.4125L2097.21 75.9382C2096.56 75.3477 2096.12 74.2731 2096.12 72.4466H2094.12ZM2095.86 77.4125C2097.07 78.529 2098.95 78.9675 2101.23 78.9675V76.9675C2099.12 76.9675 2097.87 76.5446 2097.21 75.9382L2095.86 77.4125ZM2101.23 78.9675H2108.4V76.9675H2101.23V78.9675ZM2123.34 19.5872L2122.65 20.307L2122.66 20.3196L2122.68 20.3317L2123.34 19.5872ZM2123.34 4.0817L2124.02 4.8145L2124.03 4.8136L2123.34 4.0817ZM2140.49 4.0817L2139.8 4.80155L2139.81 4.81415L2139.83 4.82627L2140.49 4.0817ZM2140.49 19.5872L2141.17 20.3199L2141.18 20.319L2140.49 19.5872ZM2142.02 29.4543H2143.02V28.4543H2142.02V29.4543ZM2142.02 95V96H2143.02V95H2142.02ZM2121.93 95H2120.93V96H2121.93V95ZM2121.93 29.4543V28.4543H2120.93V29.4543H2121.93ZM2132.04 21.6413C2128.72 21.6413 2126.07 20.6888 2124.01 18.8426L2122.68 20.3317C2125.16 22.5576 2128.31 23.6413 2132.04 23.6413V21.6413ZM2124.04 18.8673C2122.04 16.942 2121.06 14.6178 2121.06 11.8344H2119.06C2119.06 15.1592 2120.26 18.0036 2122.65 20.307L2124.04 18.8673ZM2121.06 11.8344C2121.06 8.9654 2122.05 6.65159 2124.02 4.8145L2122.66 3.34891C2120.26 5.58396 2119.06 8.43863 2119.06 11.8344H2121.06ZM2124.03 4.8136C2126.09 2.89515 2128.73 1.91013 2132.04 1.91013V-0.0898662C2128.3 -0.0898662 2125.14 1.0395 2122.66 3.34981L2124.03 4.8136ZM2132.04 1.91013C2135.26 1.91013 2137.82 2.89092 2139.8 4.80155L2141.19 3.36186C2138.78 1.04373 2135.7 -0.0898662 2132.04 -0.0898662V1.91013ZM2139.83 4.82627C2141.88 6.6669 2142.9 8.97743 2142.9 11.8344H2144.9C2144.9 8.4266 2143.65 5.56865 2141.16 3.33713L2139.83 4.82627ZM2142.9 11.8344C2142.9 14.6059 2141.88 16.9266 2139.81 18.8553L2141.18 20.319C2143.65 18.0189 2144.9 15.1711 2144.9 11.8344H2142.9ZM2139.81 18.8544C2137.83 20.6927 2135.27 21.6413 2132.04 21.6413V23.6413C2135.69 23.6413 2138.77 22.5538 2141.17 20.3199L2139.81 18.8544ZM2141.02 29.4543V95H2143.02V29.4543H2141.02ZM2142.02 94H2121.93V96H2142.02V94ZM2122.93 95V29.4543H2120.93V95H2122.93ZM2121.93 30.4543H2142.02V28.4543L2121.93 28.4543V30.4543ZM2188.41 76.2055L2187.45 76.4964L2188.41 79.6434L2189.37 76.4964L2188.41 76.2055ZM2202.62 29.4543V28.4543H2201.88L2201.67 29.1634L2202.62 29.4543ZM2224 29.4543L2224.95 29.7887L2225.42 28.4543L2224 28.4543V29.4543ZM2200.74 95V96H2201.45L2201.69 95.3344L2200.74 95ZM2175.96 95L2175.02 95.3344L2175.25 96H2175.96V95ZM2152.7 29.4543V28.4543H2151.29L2151.76 29.7887L2152.7 29.4543ZM2174.2 29.4543L2175.15 29.1634L2174.94 28.4543H2174.2V29.4543ZM2189.37 76.4964L2203.58 29.7451L2201.67 29.1634L2187.45 75.9146L2189.37 76.4964ZM2202.62 30.4543H2224V28.4543H2202.62V30.4543ZM2223.06 29.1198L2199.8 94.6656L2201.69 95.3344L2224.95 29.7887L2223.06 29.1198ZM2200.74 94H2175.96V96H2200.74V94ZM2176.9 94.6656L2153.64 29.1198L2151.76 29.7887L2175.02 95.3344L2176.9 94.6656ZM2152.7 30.4543L2174.2 30.4543V28.4543H2152.7V30.4543ZM2173.24 29.7451L2187.45 76.4964L2189.37 75.9146L2175.15 29.1634L2173.24 29.7451ZM2296.24 67.0432V68.0432H2297.13L2297.23 67.1578L2296.24 67.0432ZM2250.78 67.0432V66.0432H2249.7L2249.79 67.1199L2250.78 67.0432ZM2254.66 76.4405L2253.96 77.1599L2253.98 77.172L2253.99 77.1837L2254.66 76.4405ZM2273.69 73.2689V72.2689H2273.05L2272.78 72.8488L2273.69 73.2689ZM2295.07 73.2689L2296.04 73.5156L2296.35 72.2689H2295.07V73.2689ZM2289.08 84.898L2288.31 84.2543L2288.3 84.2647L2289.08 84.898ZM2278.39 93.0031L2278.8 93.9135L2278.39 93.0031ZM2246.79 91.8284L2246.31 92.7058L2246.31 92.7058L2246.79 91.8284ZM2235.04 80.0819L2235.92 79.5974L2235.92 79.5974L2235.04 80.0819ZM2234.92 44.3724L2234.05 43.8878L2234.04 43.8983L2234.92 44.3724ZM2246.67 32.6258L2247.15 33.5032L2247.15 33.5032L2246.67 32.6258ZM2280.85 32.5084L2280.38 33.3884L2280.38 33.3884L2280.85 32.5084ZM2292.36 43.9025L2291.49 44.3882L2291.5 44.3986L2292.36 43.9025ZM2276.04 55.884V56.884H2277.04V55.884H2276.04ZM2272.51 47.6614L2273.17 46.9057L2273.17 46.9057L2272.51 47.6614ZM2255.13 47.5439L2254.49 46.7757L2254.48 46.7811L2254.48 46.7865L2255.13 47.5439ZM2250.9 55.884L2249.91 55.7335L2249.74 56.884H2250.9V55.884ZM2295.59 61.1699C2295.59 63.0078 2295.48 64.9272 2295.25 66.9286L2297.23 67.1578C2297.47 65.0871 2297.59 63.0909 2297.59 61.1699H2295.59ZM2296.24 66.0432H2250.78V68.0432H2296.24V66.0432ZM2249.79 67.1199C2250.11 71.3625 2251.47 74.7521 2253.96 77.1599L2255.35 75.721C2253.3 73.7434 2252.08 70.8682 2251.78 66.9665L2249.79 67.1199ZM2253.99 77.1837C2256.54 79.4748 2259.64 80.612 2263.23 80.612V78.612C2260.1 78.612 2257.48 77.6349 2255.33 75.6972L2253.99 77.1837ZM2263.23 80.612C2265.88 80.612 2268.19 80.0529 2270.12 78.8812C2272.06 77.7067 2273.55 75.9571 2274.6 73.689L2272.78 72.8488C2271.87 74.8094 2270.64 76.2314 2269.09 77.1713C2267.53 78.114 2265.6 78.612 2263.23 78.612V80.612ZM2273.69 74.2689H2295.07V72.2689H2273.69V74.2689ZM2294.1 73.0222C2293.04 77.1814 2291.11 80.9224 2288.31 84.2544L2289.84 85.5416C2292.83 81.9822 2294.9 77.9705 2296.04 73.5156L2294.1 73.0222ZM2288.3 84.2647C2285.59 87.5842 2282.15 90.1944 2277.97 92.0927L2278.8 93.9135C2283.24 91.8963 2286.93 89.1031 2289.85 85.5312L2288.3 84.2647ZM2277.97 92.0927C2273.81 93.9844 2269.14 94.9397 2263.94 94.9397V96.9397C2269.39 96.9397 2274.35 95.9373 2278.8 93.9135L2277.97 92.0927ZM2263.94 94.9397C2257.66 94.9397 2252.12 93.6019 2247.27 90.9511L2246.31 92.7058C2251.48 95.5367 2257.37 96.9397 2263.94 96.9397V94.9397ZM2247.27 90.9511C2242.43 88.3029 2238.65 84.5251 2235.92 79.5974L2234.17 80.5664C2237.08 85.819 2241.13 89.8723 2246.31 92.7058L2247.27 90.9511ZM2235.92 79.5974C2233.19 74.679 2231.81 68.8997 2231.81 62.2271H2229.81C2229.81 69.1805 2231.25 75.3044 2234.17 80.5664L2235.92 79.5974ZM2231.81 62.2271C2231.81 55.5501 2233.16 49.767 2235.8 44.8465L2234.04 43.8983C2231.21 49.1581 2229.81 55.2782 2229.81 62.2271H2231.81ZM2235.8 44.8569C2238.53 39.9292 2242.31 36.1514 2247.15 33.5032L2246.19 31.7485C2241.01 34.582 2236.96 38.6352 2234.05 43.8879L2235.8 44.8569ZM2247.15 33.5032C2252 30.8533 2257.58 29.5145 2263.94 29.5145V27.5145C2257.29 27.5145 2251.37 28.9166 2246.19 31.7485L2247.15 33.5032ZM2263.94 29.5145C2270.14 29.5145 2275.61 30.8144 2280.38 33.3884L2281.33 31.6283C2276.23 28.8772 2270.43 27.5145 2263.94 27.5145V29.5145ZM2280.38 33.3884C2285.14 35.9596 2288.84 39.6203 2291.49 44.3882L2293.24 43.4169C2290.41 38.3176 2286.43 34.3822 2281.33 31.6283L2280.38 33.3884ZM2291.5 44.3986C2294.22 49.1587 2295.59 54.7382 2295.59 61.1699H2297.59C2297.59 54.4456 2296.15 48.5134 2293.23 43.4064L2291.5 44.3986ZM2277.04 55.884C2277.04 52.1836 2275.76 49.1537 2273.17 46.9057L2271.86 48.4171C2273.96 50.2413 2275.04 52.6931 2275.04 55.884H2277.04ZM2273.17 46.9057C2270.61 44.691 2267.43 43.6073 2263.7 43.6073V45.6073C2267.02 45.6073 2269.72 46.5597 2271.86 48.4171L2273.17 46.9057ZM2263.7 43.6073C2260.13 43.6073 2257.04 44.6528 2254.49 46.7757L2255.77 48.3122C2257.92 46.5196 2260.54 45.6073 2263.7 45.6073V43.6073ZM2254.48 46.7865C2251.99 48.9318 2250.49 51.9483 2249.91 55.7335L2251.89 56.0344C2252.41 52.6151 2253.73 50.0716 2255.78 48.3013L2254.48 46.7865ZM2250.9 56.884H2276.04V54.884H2250.9V56.884Z" fill="#F2B125"/>
</svg>
