<svg width="1499" height="85" viewBox="0 0 1499 85" fill="none" xmlns="http://www.w3.org/2000/svg">
<path d="M42.3355 84L41.4596 84.4826L41.7447 85H42.3355V84ZM25.1855 52.8716L26.0614 52.3891L25.7763 51.8716H25.1855V52.8716ZM20.3695 52.8716V51.8716H19.3695V52.8716H20.3695ZM20.3695 84V85H21.3695V84H20.3695ZM0.282861 84H-0.717139L-0.717139 85H0.282861L0.282861 84ZM0.282861 1.53922V0.539222H-0.717139V1.53922H0.282861ZM50.5581 4.94572L50.1109 5.84017L50.117 5.84317L50.5581 4.94572ZM60.8951 14.343L60.0257 14.8373L60.03 14.8447L60.8951 14.343ZM59.6029 42.1823L58.7941 41.5941L58.7872 41.6039L59.6029 42.1823ZM45.9769 51.3446L45.6907 50.3864L44.4731 50.7501L45.1129 51.8481L45.9769 51.3446ZM65.0064 84V85H66.7465L65.8704 83.4965L65.0064 84ZM20.3695 38.6583H19.3695V39.6583H20.3695V38.6583ZM41.0434 35.9566L40.3515 35.2346L40.3438 35.242L40.3363 35.2495L41.0434 35.9566ZM41.0434 20.921L40.3363 21.6281L40.3438 21.6357L40.3515 21.643L41.0434 20.921ZM20.3695 18.2193V17.2193H19.3695V18.2193H20.3695ZM43.2114 83.5174L26.0614 52.3891L24.3097 53.3542L41.4596 84.4826L43.2114 83.5174ZM25.1855 51.8716H20.3695V53.8716H25.1855V51.8716ZM19.3695 52.8716L19.3695 84H21.3695L21.3695 52.8716H19.3695ZM20.3695 83H0.282861L0.282861 85H20.3695V83ZM1.28286 84L1.28286 1.53922H-0.717139L-0.717139 84H1.28286ZM0.282861 2.53922L33.9955 2.53922V0.539222L0.282861 0.539222L0.282861 2.53922ZM33.9955 2.53922C40.3821 2.53922 45.7411 3.65524 50.1109 5.84015L51.0053 4.05129C46.2911 1.6942 40.6083 0.539222 33.9955 0.539222V2.53922ZM50.117 5.84317C54.5799 8.03681 57.8656 11.0383 60.0258 14.8373L61.7643 13.8487C59.3825 9.65996 55.7769 6.39663 50.9992 4.04827L50.117 5.84317ZM60.03 14.8447C62.2062 18.5967 63.3016 22.8068 63.3016 27.4991H65.3016C65.3016 22.4809 64.1259 17.9202 61.7601 13.8412L60.03 14.8447ZM63.3016 27.4991C63.3016 32.7761 61.7985 37.4632 58.7942 41.5941L60.4117 42.7705C63.6722 38.2872 65.3016 33.1855 65.3016 27.4991H63.3016ZM58.7872 41.6039C55.8858 45.6956 51.5492 48.6365 45.6907 50.3864L46.2631 52.3028C52.4645 50.4504 57.2119 47.2831 60.4187 42.7607L58.7872 41.6039ZM45.1129 51.8481L64.1423 84.5035L65.8704 83.4965L46.8409 50.8411L45.1129 51.8481ZM65.0064 83H42.3355V85H65.0064V83ZM20.3695 39.6583H32.8208V37.6583H20.3695V39.6583ZM32.8208 39.6583C36.6483 39.6583 39.6921 38.7221 41.7505 36.6637L40.3363 35.2495C38.7924 36.7934 36.3545 37.6583 32.8208 37.6583V39.6583ZM41.7353 36.6786C43.8605 34.642 44.8626 31.8069 44.8626 28.3214H42.8626C42.8626 31.4139 41.9852 33.669 40.3515 35.2346L41.7353 36.6786ZM44.8626 28.3214C44.8626 24.976 43.8508 22.2264 41.7353 20.199L40.3515 21.643C41.9948 23.2179 42.8626 25.4019 42.8626 28.3214H44.8626ZM41.7505 20.2139C39.6921 18.1555 36.6483 17.2193 32.8208 17.2193V19.2193C36.3545 19.2193 38.7924 20.0843 40.3363 21.6281L41.7505 20.2139ZM32.8208 17.2193H20.3695V19.2193H32.8208V17.2193ZM19.3695 18.2193L19.3695 38.6583H21.3695L21.3695 18.2193H19.3695ZM140.695 56.0432V57.0432H141.586L141.688 56.1578L140.695 56.0432ZM95.2354 56.0432V55.0432H94.1555L94.2383 56.1199L95.2354 56.0432ZM99.1117 65.4405L98.4171 66.1599L98.4297 66.172L98.4428 66.1837L99.1117 65.4405ZM118.141 62.2689V61.2689H117.502L117.234 61.8488L118.141 62.2689ZM139.52 62.2689L140.489 62.5156L140.806 61.2689H139.52V62.2689ZM133.529 73.898L132.764 73.2543L132.755 73.2647L133.529 73.898ZM122.84 82.0031L123.254 82.9135L122.84 82.0031ZM91.2415 80.8284L90.7617 81.7058L90.7617 81.7058L91.2415 80.8284ZM79.495 69.0819L80.3698 68.5974L80.3698 68.5974L79.495 69.0819ZM79.3775 33.3724L78.5027 32.8878L78.497 32.8983L79.3775 33.3724ZM91.1241 21.6258L91.6039 22.5032L91.6039 22.5032L91.1241 21.6258ZM125.307 21.5084L124.832 22.3884L124.832 22.3884L125.307 21.5084ZM136.818 32.9025L135.944 33.3882L135.95 33.3986L136.818 32.9025ZM120.49 44.884V45.884H121.49V44.884H120.49ZM116.966 36.6614L117.621 35.9057L117.621 35.9057L116.966 36.6614ZM99.5816 36.5439L98.9414 35.7757L98.935 35.7811L98.9286 35.7865L99.5816 36.5439ZM95.3528 44.884L94.3642 44.7335L94.1891 45.884H95.3528V44.884ZM140.047 50.1699C140.047 52.0078 139.932 53.9272 139.701 55.9286L141.688 56.1578C141.927 54.0871 142.047 52.0909 142.047 50.1699H140.047ZM140.695 55.0432L95.2354 55.0432V57.0432L140.695 57.0432V55.0432ZM94.2383 56.1199C94.5647 60.3625 95.9234 63.7521 98.4171 66.1599L99.8063 64.721C97.7581 62.7434 96.5325 59.8682 96.2324 55.9665L94.2383 56.1199ZM98.4428 66.1837C100.988 68.4748 104.09 69.612 107.687 69.612V67.612C104.549 67.612 101.934 66.6349 99.7807 64.6972L98.4428 66.1837ZM107.687 69.612C110.334 69.612 112.647 69.0529 114.578 67.8812C116.514 66.7067 117.999 64.9571 119.049 62.689L117.234 61.8488C116.326 63.8094 115.09 65.2314 113.54 66.1713C111.987 67.114 110.052 67.612 107.687 67.612V69.612ZM118.141 63.2689L139.52 63.2689V61.2689L118.141 61.2689V63.2689ZM138.551 62.0222C137.492 66.1814 135.566 69.9224 132.764 73.2544L134.294 74.5416C137.288 70.9822 139.355 66.9705 140.489 62.5156L138.551 62.0222ZM132.755 73.2647C130.039 76.5842 126.602 79.1944 122.426 81.0927L123.254 82.9135C127.691 80.8963 131.381 78.1031 134.303 74.5312L132.755 73.2647ZM122.426 81.0927C118.264 82.9844 113.592 83.9397 108.391 83.9397V85.9397C113.841 85.9397 118.801 84.9373 123.254 82.9135L122.426 81.0927ZM108.391 83.9397C102.117 83.9397 96.5686 82.6019 91.7213 79.9511L90.7617 81.7058C95.9382 84.5367 101.824 85.9397 108.391 85.9397V83.9397ZM91.7213 79.9511C86.8789 77.3029 83.099 73.5251 80.3698 68.5974L78.6202 69.5664C81.5293 74.819 85.5804 78.8723 90.7617 81.7058L91.7213 79.9511ZM80.3698 68.5974C77.6458 63.679 76.2662 57.8997 76.2662 51.2271H74.2662C74.2662 58.1805 75.7059 64.3044 78.6202 69.5664L80.3698 68.5974ZM76.2662 51.2271C76.2662 44.5501 77.6085 38.767 80.258 33.8465L78.497 32.8983C75.6648 38.1581 74.2662 44.2782 74.2662 51.2271H76.2662ZM80.2523 33.8569C82.9815 28.9292 86.7615 25.1514 91.6039 22.5032L90.6443 20.7485C85.4629 23.582 81.4119 27.6352 78.5027 32.8879L80.2523 33.8569ZM91.6039 22.5032C96.4494 19.8533 102.036 18.5145 108.391 18.5145V16.5145C101.747 16.5145 95.8225 17.9166 90.6443 20.7485L91.6039 22.5032ZM108.391 18.5145C114.591 18.5145 120.062 19.8144 124.832 22.3884L125.781 20.6283C120.684 17.8772 114.878 16.5145 108.391 16.5145V18.5145ZM124.832 22.3884C129.596 24.9596 133.295 28.6203 135.944 33.3882L137.692 32.4169C134.859 27.3176 130.884 23.3822 125.781 20.6283L124.832 22.3884ZM135.95 33.3986C138.67 38.1587 140.047 43.7382 140.047 50.1699H142.047C142.047 43.4456 140.605 37.5134 137.686 32.4064L135.95 33.3986ZM121.49 44.884C121.49 41.1836 120.215 38.1537 117.621 35.9057L116.312 37.4171C118.416 39.2413 119.49 41.6931 119.49 44.884H121.49ZM117.621 35.9057C115.066 33.691 111.887 32.6073 108.157 32.6073V34.6073C111.474 34.6073 114.168 35.5597 116.312 37.4171L117.621 35.9057ZM108.157 32.6073C104.581 32.6073 101.489 33.6528 98.9414 35.7757L100.222 37.3122C102.373 35.5196 104.998 34.6073 108.157 34.6073V32.6073ZM98.9286 35.7865C96.4401 37.9318 94.9402 40.9483 94.3642 44.7335L96.3414 45.0344C96.8618 41.6151 98.181 39.0716 100.235 37.3013L98.9286 35.7865ZM95.3528 45.884H120.49V43.884H95.3528V45.884ZM153.758 33.3724L152.866 32.9196L152.861 32.9307L153.758 33.3724ZM164.212 21.6258L164.742 22.4738L164.742 22.4738L164.212 21.6258ZM190.995 20.3337L190.516 21.2116L190.524 21.216L190.995 20.3337ZM199.1 27.734L198.248 28.2581L200.1 31.2671V27.734H199.1ZM199.1 18.4543V17.4543H198.1V18.4543H199.1ZM219.186 18.4543H220.186V17.4543H219.186V18.4543ZM219.186 84V85H220.186V84H219.186ZM199.1 84H198.1V85H199.1V84ZM199.1 74.7202H200.1V71.3072L198.258 74.1806L199.1 74.7202ZM190.877 82.1206L190.406 81.2382L190.398 81.2427L190.877 82.1206ZM164.212 80.8284L163.672 81.6697L163.682 81.6764L164.212 80.8284ZM153.758 68.9644L152.858 69.4007L152.862 69.4089L152.866 69.4171L153.758 68.9644ZM194.871 39.3631L194.144 40.0504L194.154 40.0605L194.871 39.3631ZM174.549 39.3631L173.833 38.6658L173.832 38.666L174.549 39.3631ZM174.549 63.0911L173.814 63.7686L173.823 63.7787L173.833 63.7885L174.549 63.0911ZM194.871 63.0911L194.154 62.3937L194.144 62.4039L194.871 63.0911ZM150.999 51.1097C150.999 44.4997 152.228 38.7434 154.655 33.8141L152.861 32.9307C150.276 38.1817 148.999 44.2502 148.999 51.1097H150.999ZM154.65 33.8251C157.16 28.8797 160.527 25.1084 164.742 22.4738L163.682 20.7778C159.127 23.6249 155.524 27.6847 152.866 32.9197L154.65 33.8251ZM164.742 22.4738C168.962 19.8369 173.671 18.5145 178.896 18.5145V16.5145C173.314 16.5145 168.234 17.9331 163.682 20.7778L164.742 22.4738ZM178.896 18.5145C183.378 18.5145 187.241 19.4254 190.516 21.2116L191.473 19.4558C187.857 17.4831 183.653 16.5145 178.896 16.5145V18.5145ZM190.524 21.216C193.91 23.0217 196.472 25.3718 198.248 28.2581L199.951 27.2099C197.969 23.988 195.127 21.4046 191.465 19.4513L190.524 21.216ZM200.1 27.734V18.4543H198.1V27.734H200.1ZM199.1 19.4543L219.186 19.4543V17.4543H199.1V19.4543ZM218.186 18.4543L218.186 84H220.186L220.186 18.4543H218.186ZM219.186 83H199.1V85H219.186V83ZM200.1 84V74.7202H198.1V84H200.1ZM198.258 74.1806C196.401 77.0763 193.795 79.431 190.406 81.2382L191.348 83.0029C195.007 81.0512 197.882 78.4723 199.942 75.2599L198.258 74.1806ZM190.398 81.2427C187.123 83.0289 183.261 83.9397 178.778 83.9397V85.9397C183.536 85.9397 187.739 84.9711 191.356 82.9984L190.398 81.2427ZM178.778 83.9397C173.635 83.9397 168.964 82.6189 164.742 79.9804L163.682 81.6764C168.232 84.5197 173.271 85.9397 178.778 85.9397V83.9397ZM164.753 79.9873C160.531 77.2731 157.161 73.459 154.65 68.5117L152.866 69.4171C155.523 74.6501 159.123 78.7454 163.672 81.6696L164.753 79.9873ZM154.658 68.5281C152.228 63.5172 150.999 57.7192 150.999 51.1097H148.999C148.999 57.9695 150.276 64.0747 152.858 69.4007L154.658 68.5281ZM200.1 51.2271C200.1 46.0207 198.63 41.7923 195.588 38.6658L194.154 40.0605C196.75 42.7288 198.1 46.4099 198.1 51.2271H200.1ZM195.597 38.6759C192.667 35.5784 189.037 34.0169 184.769 34.0169V36.0169C188.488 36.0169 191.593 37.3528 194.144 40.0503L195.597 38.6759ZM184.769 34.0169C180.501 34.0169 176.837 35.5775 173.833 38.6658L175.266 40.0605C177.9 37.3538 181.049 36.0169 184.769 36.0169V34.0169ZM173.832 38.666C170.864 41.7193 169.438 45.9122 169.438 51.1097H171.438C171.438 46.2834 172.753 42.6452 175.266 40.0602L173.832 38.666ZM169.438 51.1097C169.438 56.3098 170.865 60.5667 173.814 63.7686L175.285 62.4137C172.752 59.664 171.438 55.9332 171.438 51.1097H169.438ZM173.833 63.7885C176.837 66.8768 180.501 68.4374 184.769 68.4374V66.4374C181.049 66.4374 177.9 65.1004 175.266 62.3938L173.833 63.7885ZM184.769 68.4374C189.037 68.4374 192.667 66.8758 195.597 63.7783L194.144 62.4039C191.593 65.1014 188.488 66.4374 184.769 66.4374V68.4374ZM195.588 63.7885C198.63 60.6619 200.1 56.4336 200.1 51.2271H198.1C198.1 56.0444 196.75 59.7254 194.154 62.3938L195.588 63.7885ZM236.185 33.3724L235.31 32.8878L235.304 32.8983L236.185 33.3724ZM247.814 21.6258L247.334 20.7484L247.328 20.7517L247.814 21.6258ZM285.52 23.9751L284.902 24.7615L284.908 24.7657L285.52 23.9751ZM296.445 42.1823V43.1823H297.688L297.421 41.9674L296.445 42.1823ZM275.066 42.1823L274.125 42.5205L274.363 43.1823H275.066V42.1823ZM255.802 39.0107L256.591 39.6247L256.599 39.6142L255.802 39.0107ZM255.802 63.561L255.004 64.1645L255.012 64.1749L255.802 63.561ZM275.066 60.272V59.272H274.363L274.125 59.9338L275.066 60.272ZM296.445 60.272L297.42 60.491L297.694 59.272H296.445V60.272ZM285.52 78.3617L284.901 77.5765L284.901 77.5765L285.52 78.3617ZM247.814 80.8284L247.328 81.7026L247.334 81.7058L247.814 80.8284ZM236.185 69.0819L235.304 69.556L235.31 69.5664L236.185 69.0819ZM233.073 51.2271C233.073 44.5501 234.416 38.767 237.065 33.8465L235.304 32.8983C232.472 38.1581 231.073 44.2782 231.073 51.2271H233.073ZM237.06 33.8569C239.791 28.9251 243.535 25.147 248.299 22.5L247.328 20.7517C242.226 23.5864 238.217 27.6393 235.31 32.8879L237.06 33.8569ZM248.294 22.5032C253.141 19.8524 258.689 18.5145 264.964 18.5145V16.5145C258.396 16.5145 252.511 17.9176 247.334 20.7485L248.294 22.5032ZM264.964 18.5145C273.004 18.5145 279.627 20.6166 284.902 24.7614L286.138 23.1888C280.45 18.7195 273.369 16.5145 264.964 16.5145V18.5145ZM284.908 24.7657C290.257 28.9095 293.788 34.7608 295.468 42.3971L297.421 41.9674C295.656 33.9417 291.903 27.6549 286.133 23.1846L284.908 24.7657ZM296.445 41.1823H275.066V43.1823H296.445V41.1823ZM276.007 41.8441C275.055 39.1939 273.628 37.1289 271.685 35.7321C269.74 34.3335 267.361 33.6645 264.611 33.6645V35.6645C267.03 35.6645 268.978 36.2484 270.518 37.3558C272.06 38.4649 273.276 40.1588 274.125 42.5205L276.007 41.8441ZM264.611 33.6645C260.622 33.6645 257.389 35.2562 255.004 38.4073L256.599 39.6142C258.6 36.9702 261.239 35.6645 264.611 35.6645V33.6645ZM255.012 38.3968C252.63 41.4592 251.512 45.7841 251.512 51.2271H253.512C253.512 46.0199 254.587 42.2006 256.591 39.6247L255.012 38.3968ZM251.512 51.2271C251.512 56.6727 252.631 61.029 255.004 64.1644L256.599 62.9576C254.586 60.298 253.512 56.4317 253.512 51.2271H251.512ZM255.012 64.1749C257.401 67.2463 260.633 68.7898 264.611 68.7898V66.7898C261.228 66.7898 258.587 65.5141 256.591 62.9471L255.012 64.1749ZM264.611 68.7898C267.361 68.7898 269.74 68.1207 271.685 66.7222C273.628 65.3254 275.055 63.2603 276.007 60.6102L274.125 59.9338C273.276 62.2955 272.06 63.9893 270.518 65.0984C268.978 66.2058 267.03 66.7898 264.611 66.7898V68.7898ZM275.066 61.272H296.445V59.272H275.066V61.272ZM295.469 60.0529C293.79 67.5297 290.261 73.3492 284.901 77.5765L286.14 79.1468C291.9 74.6034 295.653 68.3631 297.42 60.491L295.469 60.0529ZM284.901 77.5765C279.543 81.8023 272.919 83.9397 264.964 83.9397V85.9397C273.297 85.9397 280.377 83.6918 286.14 79.1468L284.901 77.5765ZM264.964 83.9397C258.689 83.9397 253.141 82.6019 248.294 79.9511L247.334 81.7058C252.511 84.5367 258.396 85.9397 264.964 85.9397V83.9397ZM248.299 79.9543C243.535 77.3072 239.791 73.5292 237.06 68.5974L235.31 69.5664C238.217 74.815 242.226 78.8679 247.328 81.7026L248.299 79.9543ZM237.065 68.6078C234.416 63.6873 233.073 57.9042 233.073 51.2271H231.073C231.073 58.1761 232.472 64.2961 235.304 69.556L237.065 68.6078ZM346.07 66.9675H347.07V65.9675H346.07V66.9675ZM346.07 84V85H347.07V84H346.07ZM318.818 78.7141L318.155 79.4631L318.164 79.4702L318.818 78.7141ZM312.71 35.1344H313.71V34.1344H312.71V35.1344ZM304.722 35.1344H303.722V36.1344H304.722V35.1344ZM304.722 18.4543V17.4543H303.722V18.4543H304.722ZM312.71 18.4543V19.4543H313.71V18.4543H312.71ZM312.71 2.47895V1.47895H311.71V2.47895H312.71ZM332.796 2.47895H333.796V1.47895H332.796V2.47895ZM332.796 18.4543H331.796V19.4543H332.796V18.4543ZM345.953 18.4543H346.953V17.4543H345.953V18.4543ZM345.953 35.1344V36.1344H346.953V35.1344H345.953ZM332.796 35.1344V34.1344H331.796V35.1344H332.796ZM334.206 65.6754L333.53 66.4125L333.53 66.4125L334.206 65.6754ZM345.07 66.9675V84H347.07V66.9675H345.07ZM346.07 83H335.851V85H346.07V83ZM335.851 83C328.723 83 323.307 81.2766 319.472 77.9579L318.164 79.4702C322.473 83.1995 328.413 85 335.851 85V83ZM319.481 77.9651C315.709 74.629 313.71 69.1314 313.71 61.2117H311.71C311.71 69.4239 313.782 75.5945 318.155 79.463L319.481 77.9651ZM313.71 61.2117V35.1344H311.71V61.2117H313.71ZM312.71 34.1344H304.722V36.1344H312.71V34.1344ZM305.722 35.1344V18.4543H303.722V35.1344H305.722ZM304.722 19.4543H312.71V17.4543H304.722V19.4543ZM313.71 18.4543V2.47895H311.71V18.4543H313.71ZM312.71 3.47895L332.796 3.47895V1.47895L312.71 1.47895V3.47895ZM331.796 2.47895V18.4543H333.796V2.47895H331.796ZM332.796 19.4543H345.953V17.4543H332.796V19.4543ZM344.953 18.4543V35.1344H346.953V18.4543H344.953ZM345.953 34.1344H332.796V36.1344H345.953V34.1344ZM331.796 35.1344V61.4466H333.796V35.1344H331.796ZM331.796 61.4466C331.796 63.5357 332.295 65.2802 333.53 66.4125L334.882 64.9382C334.238 64.3477 333.796 63.2731 333.796 61.4466H331.796ZM333.53 66.4125C334.748 67.529 336.628 67.9675 338.905 67.9675V65.9675C336.796 65.9675 335.543 65.5446 334.882 64.9382L333.53 66.4125ZM338.905 67.9675H346.07V65.9675H338.905V67.9675ZM411.293 1.53922H412.293V0.539222H411.293V1.53922ZM403.892 77.7743L403.203 77.0502L403.197 77.0557L403.892 77.7743ZM363.249 77.4219L362.564 78.1505L362.564 78.1505L363.249 77.4219ZM355.379 56.3956V55.3956H354.379V56.3956H355.379ZM375.348 56.3956H376.348V55.3956H375.348V56.3956ZM377.463 64.2658L376.675 64.8821L376.682 64.8906L376.689 64.899L377.463 64.2658ZM389.209 64.5007L388.447 63.8531L388.447 63.8531L389.209 64.5007ZM391.206 1.53922V0.539222H390.206V1.53922H391.206ZM410.293 1.53922V57.6877H412.293V1.53922H410.293ZM410.293 57.6877C410.293 66.1863 407.887 72.5891 403.203 77.0502L404.582 78.4985C409.765 73.5623 412.293 66.574 412.293 57.6877H410.293ZM403.197 77.0557C398.569 81.5345 392.262 83.8223 384.158 83.8223V85.8223C392.656 85.8223 399.505 83.4114 404.588 78.4929L403.197 77.0557ZM384.158 83.8223C375.665 83.8223 368.959 81.4178 363.934 76.6934L362.564 78.1505C368.034 83.2932 375.267 85.8223 384.158 85.8223V83.8223ZM363.934 76.6934C358.938 71.9956 356.379 65.2804 356.379 56.3956H354.379C354.379 65.6788 357.067 72.9811 362.564 78.1505L363.934 76.6934ZM355.379 57.3956H375.348V55.3956H355.379V57.3956ZM374.348 56.3956C374.348 59.9567 375.074 62.8356 376.675 64.8821L378.25 63.6495C377.033 62.0937 376.348 59.7258 376.348 56.3956H374.348ZM376.689 64.899C378.326 66.9001 380.674 67.85 383.571 67.85V65.85C381.143 65.85 379.419 65.0771 378.237 63.6326L376.689 64.899ZM383.571 67.85C386.233 67.85 388.415 66.9793 389.971 65.1484L388.447 63.8531C387.341 65.1546 385.764 65.85 383.571 65.85V67.85ZM389.971 65.1484C391.512 63.3354 392.206 60.7968 392.206 57.6877L390.206 57.6877C390.206 60.5302 389.569 62.5336 388.447 63.8531L389.971 65.1484ZM392.206 57.6877V1.53922H390.206V57.6877L392.206 57.6877ZM391.206 2.53922H411.293V0.539222H391.206V2.53922ZM443.493 81.8856L443.114 82.8109L443.114 82.8109L443.493 81.8856ZM431.981 73.1932L431.175 73.7853L431.183 73.7958L431.981 73.1932ZM427.518 59.3322V58.3322H426.488L426.518 59.3612L427.518 59.3322ZM448.896 59.3322L449.891 59.2302L449.799 58.3322H448.896V59.3322ZM452.068 66.3802L451.394 67.1187L451.403 67.1268L451.412 67.1348L452.068 66.3802ZM466.164 66.7326L466.775 67.5239L466.786 67.5153L466.797 67.5065L466.164 66.7326ZM466.634 55.9257L465.927 56.6329L465.937 56.643L465.947 56.6528L466.634 55.9257ZM461.583 52.6367L461.18 53.552L461.186 53.5549L461.193 53.5577L461.583 52.6367ZM453.125 49.7001L452.83 50.6556L452.84 50.6585L453.125 49.7001ZM440.086 44.7665L439.648 45.6651L439.648 45.6651L440.086 44.7665ZM431.394 37.4837L432.192 36.8806L432.192 36.8806L431.394 37.4837ZM436.093 6.94263L436.705 7.73321L436.712 7.7278L436.093 6.94263ZM479.79 6.94263L479.171 7.72783L479.177 7.73318L479.79 6.94263ZM488.717 25.0323V26.0323H489.769L489.716 24.9819L488.717 25.0323ZM466.986 25.0323L465.988 25.091L466.043 26.0323H466.986V25.0323ZM464.049 18.8067L463.393 19.5613L463.403 19.5696L463.413 19.5776L464.049 18.8067ZM451.246 18.4543L451.89 19.2192L451.901 19.2095L451.913 19.1995L451.246 18.4543ZM452.773 30.2008L453.283 29.3409L453.283 29.3409L452.773 30.2008ZM464.519 35.0169L464.84 34.0695L464.827 34.0654L464.519 35.0169ZM477.441 40.1854L476.993 41.0798L477.002 41.0839L477.441 40.1854ZM486.133 47.3508L485.343 47.9633L485.343 47.9633L486.133 47.3508ZM486.133 72.2535L485.288 71.7188L485.284 71.725L485.28 71.7313L486.133 72.2535ZM475.796 81.4158L475.349 80.5213L475.349 80.5213L475.796 81.4158ZM459.703 83.8223C453.782 83.8223 448.51 82.8612 443.872 80.9603L443.114 82.8109C448.029 84.8256 453.565 85.8223 459.703 85.8223V83.8223ZM443.872 80.9603C439.249 79.0654 435.561 76.274 432.779 72.5906L431.183 73.7958C434.197 77.7867 438.183 80.7903 443.114 82.8109L443.872 80.9603ZM432.787 72.6011C430.104 68.9491 428.669 64.5321 428.517 59.3033L426.518 59.3612C426.68 64.9392 428.22 69.7628 431.175 73.7853L432.787 72.6011ZM427.518 60.3322H448.896V58.3322H427.518V60.3322ZM447.902 59.4343C448.233 62.6672 449.368 65.269 451.394 67.1187L452.742 65.6417C451.166 64.2024 450.186 62.1055 449.891 59.2302L447.902 59.4343ZM451.412 67.1348C453.432 68.8913 456.031 69.7295 459.116 69.7295V67.7295C456.406 67.7295 454.306 67.0014 452.724 65.6256L451.412 67.1348ZM459.116 69.7295C462.233 69.7295 464.823 69.0324 466.775 67.5239L465.552 65.9413C464.059 67.0953 461.951 67.7295 459.116 67.7295V69.7295ZM466.797 67.5065C468.775 65.8883 469.748 63.6734 469.748 60.9768H467.748C467.748 63.1354 466.998 64.7577 465.531 65.9586L466.797 67.5065ZM469.748 60.9768C469.748 58.6811 468.941 56.7293 467.32 55.1987L465.947 56.6528C467.146 57.7847 467.748 59.2003 467.748 60.9768H469.748ZM467.341 55.2186C465.904 53.7819 464.107 52.6187 461.972 51.7157L461.193 53.5577C463.131 54.3775 464.701 55.4071 465.927 56.6329L467.341 55.2186ZM461.985 51.7214C459.971 50.835 457.105 49.8422 453.411 48.7417L452.84 50.6585C456.506 51.7507 459.279 52.7156 461.18 53.552L461.985 51.7214ZM453.42 48.7446C448.123 47.1087 443.83 45.4818 440.525 43.868L439.648 45.6651C443.078 47.3403 447.477 49.0024 452.83 50.6555L453.42 48.7446ZM440.525 43.868C437.309 42.2974 434.532 39.9755 432.192 36.8806L430.596 38.0868C433.112 41.4133 436.129 43.9466 439.648 45.6651L440.525 43.868ZM432.192 36.8806C429.929 33.8873 428.753 29.9279 428.753 24.9149H426.753C426.753 30.2388 428.004 34.6585 430.596 38.0868L432.192 36.8806ZM428.753 24.9149C428.753 17.5173 431.414 11.8318 436.705 7.73318L435.48 6.15209C429.651 10.6676 426.753 16.9636 426.753 24.9149H428.753ZM436.712 7.7278C442.054 3.5145 449.061 1.36457 457.824 1.36457V-0.635432C448.731 -0.635432 441.252 1.60002 435.473 6.15747L436.712 7.7278ZM457.824 1.36457C466.747 1.36457 473.832 3.51678 479.171 7.7278L480.409 6.15747C474.628 1.59773 467.068 -0.635432 457.824 -0.635432V1.36457ZM479.177 7.73318C484.481 11.8418 487.34 17.5873 487.718 25.0828L489.716 24.9819C489.311 16.9719 486.218 10.6576 480.402 6.15209L479.177 7.73318ZM488.717 24.0323L466.986 24.0323V26.0323L488.717 26.0323V24.0323ZM467.984 24.9736C467.814 22.0769 466.733 19.7263 464.686 18.0357L463.413 19.5776C464.968 20.8628 465.845 22.6626 465.988 25.091L467.984 24.9736ZM464.706 18.052C462.691 16.2998 460.133 15.4573 457.119 15.4573V17.4573C459.743 17.4573 461.806 18.1811 463.393 19.5613L464.706 18.052ZM457.119 15.4573C454.501 15.4573 452.288 16.18 450.579 17.709L451.913 19.1995C453.179 18.066 454.882 17.4573 457.119 17.4573V15.4573ZM450.602 17.6893C448.834 19.1782 448.014 21.3321 448.014 23.9751H450.014C450.014 21.7629 450.682 20.2362 451.89 19.2192L450.602 17.6893ZM448.014 23.9751C448.014 27.0291 449.488 29.4132 452.262 31.0607L453.283 29.3409C451.046 28.0126 450.014 26.2462 450.014 23.9751H448.014ZM452.262 31.0607C454.866 32.6069 458.868 34.2395 464.212 35.9683L464.827 34.0654C459.521 32.3487 455.691 30.7705 453.283 29.3409L452.262 31.0607ZM464.199 35.9642C469.501 37.7574 473.761 39.4635 476.993 41.0798L477.888 39.2909C474.542 37.6182 470.188 35.8786 464.84 34.0696L464.199 35.9642ZM477.002 41.0839C480.224 42.6574 483.003 44.9448 485.343 47.9633L486.923 46.7382C484.408 43.4919 481.392 41.0023 477.879 39.2868L477.002 41.0839ZM485.343 47.9633C487.604 50.8812 488.774 54.6825 488.774 59.4497H490.774C490.774 54.3498 489.517 50.0852 486.923 46.7382L485.343 47.9633ZM488.774 59.4497C488.774 63.966 487.611 68.0473 485.288 71.7188L486.978 72.7881C489.511 68.7852 490.774 64.3307 490.774 59.4497H488.774ZM485.28 71.7313C483.041 75.3891 479.746 78.323 475.349 80.5213L476.243 82.3102C480.93 79.9666 484.527 76.7923 486.986 72.7756L485.28 71.7313ZM475.349 80.5213C470.973 82.7094 465.768 83.8223 459.703 83.8223V85.8223C466.012 85.8223 471.535 84.6641 476.243 82.3102L475.349 80.5213ZM546.538 84L545.662 84.4826L545.947 85H546.538V84ZM529.388 52.8716L530.264 52.3891L529.979 51.8716H529.388V52.8716ZM524.572 52.8716V51.8716H523.572V52.8716H524.572ZM524.572 84V85H525.572V84H524.572ZM504.485 84H503.485V85H504.485V84ZM504.485 1.53922V0.539222H503.485V1.53922H504.485ZM554.76 4.94572L554.313 5.84017L554.319 5.84317L554.76 4.94572ZM565.097 14.343L564.228 14.8373L564.232 14.8447L565.097 14.343ZM563.805 42.1823L562.996 41.5941L562.989 41.6039L563.805 42.1823ZM550.179 51.3446L549.893 50.3864L548.675 50.7501L549.315 51.8481L550.179 51.3446ZM569.209 84V85H570.949L570.073 83.4965L569.209 84ZM524.572 38.6583H523.572V39.6583H524.572V38.6583ZM545.246 35.9566L544.554 35.2346L544.546 35.242L544.539 35.2495L545.246 35.9566ZM545.246 20.921L544.539 21.6281L544.546 21.6357L544.554 21.643L545.246 20.921ZM524.572 18.2193V17.2193H523.572V18.2193H524.572ZM547.414 83.5174L530.264 52.3891L528.512 53.3542L545.662 84.4826L547.414 83.5174ZM529.388 51.8716H524.572V53.8716H529.388V51.8716ZM523.572 52.8716V84H525.572V52.8716H523.572ZM524.572 83H504.485V85H524.572V83ZM505.485 84V1.53922H503.485V84H505.485ZM504.485 2.53922H538.198V0.539222H504.485V2.53922ZM538.198 2.53922C544.584 2.53922 549.943 3.65524 554.313 5.84015L555.208 4.05129C550.493 1.6942 544.811 0.539222 538.198 0.539222V2.53922ZM554.319 5.84317C558.782 8.03681 562.068 11.0383 564.228 14.8373L565.967 13.8487C563.585 9.65996 559.979 6.39663 555.201 4.04827L554.319 5.84317ZM564.232 14.8447C566.408 18.5967 567.504 22.8068 567.504 27.4991H569.504C569.504 22.4809 568.328 17.9202 565.962 13.8412L564.232 14.8447ZM567.504 27.4991C567.504 32.7761 566.001 37.4632 562.996 41.5941L564.614 42.7705C567.875 38.2872 569.504 33.1855 569.504 27.4991H567.504ZM562.989 41.6039C560.088 45.6956 555.751 48.6365 549.893 50.3864L550.465 52.3028C556.667 50.4504 561.414 47.2831 564.621 42.7607L562.989 41.6039ZM549.315 51.8481L568.345 84.5035L570.073 83.4965L551.043 50.8411L549.315 51.8481ZM569.209 83H546.538V85H569.209V83ZM524.572 39.6583H537.023V37.6583H524.572V39.6583ZM537.023 39.6583C540.851 39.6583 543.894 38.7221 545.953 36.6637L544.539 35.2495C542.995 36.7934 540.557 37.6583 537.023 37.6583V39.6583ZM545.938 36.6786C548.063 34.642 549.065 31.8069 549.065 28.3214H547.065C547.065 31.4139 546.187 33.669 544.554 35.2346L545.938 36.6786ZM549.065 28.3214C549.065 24.976 548.053 22.2264 545.938 20.199L544.554 21.643C546.197 23.2179 547.065 25.4019 547.065 28.3214H549.065ZM545.953 20.2139C543.894 18.1555 540.851 17.2193 537.023 17.2193V19.2193C540.557 19.2193 542.995 20.0843 544.539 21.6281L545.953 20.2139ZM537.023 17.2193H524.572V19.2193H537.023V17.2193ZM523.572 18.2193V38.6583H525.572V18.2193H523.572ZM644.897 56.0432V57.0432H645.788L645.89 56.1578L644.897 56.0432ZM599.438 56.0432V55.0432H598.358L598.441 56.1199L599.438 56.0432ZM603.314 65.4405L602.619 66.1599L602.632 66.172L602.645 66.1837L603.314 65.4405ZM622.343 62.2689V61.2689H621.704L621.436 61.8488L622.343 62.2689ZM643.722 62.2689L644.691 62.5156L645.009 61.2689H643.722V62.2689ZM637.731 73.898L636.966 73.2543L636.957 73.2647L637.731 73.898ZM627.042 82.0031L627.456 82.9135L627.042 82.0031ZM595.444 80.8284L594.964 81.7058L594.964 81.7058L595.444 80.8284ZM583.697 69.0819L584.572 68.5974L584.572 68.5974L583.697 69.0819ZM583.58 33.3724L582.705 32.8878L582.699 32.8983L583.58 33.3724ZM595.326 21.6258L595.806 22.5032L595.806 22.5032L595.326 21.6258ZM629.509 21.5084L629.034 22.3884L629.034 22.3884L629.509 21.5084ZM641.02 32.9025L640.146 33.3882L640.152 33.3986L641.02 32.9025ZM624.693 44.884V45.884H625.693V44.884H624.693ZM621.169 36.6614L621.824 35.9057L621.824 35.9057L621.169 36.6614ZM603.784 36.5439L603.144 35.7757L603.137 35.7811L603.131 35.7865L603.784 36.5439ZM599.555 44.884L598.566 44.7335L598.391 45.884H599.555V44.884ZM644.249 50.1699C644.249 52.0078 644.134 53.9272 643.903 55.9286L645.89 56.1578C646.129 54.0871 646.249 52.0909 646.249 50.1699H644.249ZM644.897 55.0432H599.438V57.0432H644.897V55.0432ZM598.441 56.1199C598.767 60.3625 600.126 63.7521 602.619 66.1599L604.009 64.721C601.96 62.7434 600.735 59.8682 600.435 55.9665L598.441 56.1199ZM602.645 66.1837C605.191 68.4748 608.292 69.612 611.889 69.612V67.612C608.751 67.612 606.136 66.6349 603.983 64.6972L602.645 66.1837ZM611.889 69.612C614.536 69.612 616.849 69.0529 618.78 67.8812C620.716 66.7067 622.201 64.9571 623.251 62.689L621.436 61.8488C620.528 63.8094 619.292 65.2314 617.743 66.1713C616.189 67.114 614.254 67.612 611.889 67.612V69.612ZM622.343 63.2689H643.722V61.2689H622.343V63.2689ZM642.753 62.0222C641.694 66.1814 639.768 69.9224 636.966 73.2544L638.497 74.5416C641.49 70.9822 643.557 66.9705 644.691 62.5156L642.753 62.0222ZM636.957 73.2647C634.241 76.5842 630.805 79.1944 626.628 81.0927L627.456 82.9135C631.894 80.8963 635.583 78.1031 638.505 74.5312L636.957 73.2647ZM626.628 81.0927C622.467 82.9844 617.794 83.9397 612.594 83.9397V85.9397C618.044 85.9397 623.003 84.9373 627.456 82.9135L626.628 81.0927ZM612.594 83.9397C606.319 83.9397 600.771 82.6019 595.924 79.9511L594.964 81.7058C600.14 84.5367 606.026 85.9397 612.594 85.9397V83.9397ZM595.924 79.9511C591.081 77.3029 587.301 73.5251 584.572 68.5974L582.822 69.5664C585.732 74.819 589.783 78.8723 594.964 81.7058L595.924 79.9511ZM584.572 68.5974C581.848 63.679 580.468 57.8997 580.468 51.2271H578.468C578.468 58.1805 579.908 64.3044 582.822 69.5664L584.572 68.5974ZM580.468 51.2271C580.468 44.5501 581.811 38.767 584.46 33.8465L582.699 32.8983C579.867 38.1581 578.468 44.2782 578.468 51.2271H580.468ZM584.455 33.8569C587.184 28.9292 590.964 25.1514 595.806 22.5032L594.847 20.7485C589.665 23.582 585.614 27.6352 582.705 32.8879L584.455 33.8569ZM595.806 22.5032C600.652 19.8533 606.238 18.5145 612.594 18.5145V16.5145C605.95 16.5145 600.025 17.9166 594.847 20.7485L595.806 22.5032ZM612.594 18.5145C618.793 18.5145 624.264 19.8144 629.034 22.3884L629.984 20.6283C624.886 17.8772 619.081 16.5145 612.594 16.5145V18.5145ZM629.034 22.3884C633.798 24.9596 637.497 28.6203 640.146 33.3882L641.895 32.4169C639.062 27.3176 635.086 23.3822 629.984 20.6283L629.034 22.3884ZM640.152 33.3986C642.872 38.1587 644.249 43.7382 644.249 50.1699H646.249C646.249 43.4456 644.807 37.5134 641.889 32.4064L640.152 33.3986ZM625.693 44.884C625.693 41.1836 624.417 38.1537 621.824 35.9057L620.514 37.4171C622.619 39.2413 623.693 41.6931 623.693 44.884H625.693ZM621.824 35.9057C619.268 33.691 616.089 32.6073 612.359 32.6073V34.6073C615.676 34.6073 618.371 35.5597 620.514 37.4171L621.824 35.9057ZM612.359 32.6073C608.783 32.6073 605.691 33.6528 603.144 35.7757L604.424 37.3122C606.575 35.5196 609.2 34.6073 612.359 34.6073V32.6073ZM603.131 35.7865C600.642 37.9318 599.142 40.9483 598.566 44.7335L600.544 45.0344C601.064 41.6151 602.383 39.0716 604.437 37.3013L603.131 35.7865ZM599.555 45.884H624.693V43.884H599.555V45.884ZM657.96 33.3724L657.068 32.9196L657.063 32.9307L657.96 33.3724ZM668.415 21.6258L668.945 22.4738L668.945 22.4738L668.415 21.6258ZM695.197 20.3337L694.718 21.2116L694.726 21.216L695.197 20.3337ZM703.302 27.734L702.45 28.2581L704.302 31.2671V27.734H703.302ZM703.302 18.4543V17.4543H702.302V18.4543H703.302ZM723.389 18.4543H724.389V17.4543H723.389V18.4543ZM723.389 84V85H724.389V84H723.389ZM703.302 84H702.302V85H703.302V84ZM703.302 74.7202H704.302V71.3072L702.46 74.1806L703.302 74.7202ZM695.079 82.1206L694.609 81.2382L694.6 81.2427L695.079 82.1206ZM668.415 80.8284L667.874 81.6697L667.885 81.6764L668.415 80.8284ZM657.96 68.9644L657.06 69.4007L657.064 69.4089L657.069 69.4171L657.96 68.9644ZM699.073 39.3631L698.347 40.0504L698.356 40.0605L699.073 39.3631ZM678.752 39.3631L678.035 38.6658L678.035 38.666L678.752 39.3631ZM678.752 63.0911L678.016 63.7686L678.025 63.7787L678.035 63.7885L678.752 63.0911ZM699.073 63.0911L698.356 62.3937L698.347 62.4039L699.073 63.0911ZM655.201 51.1097C655.201 44.4997 656.431 38.7434 658.857 33.8141L657.063 32.9307C654.478 38.1817 653.201 44.2502 653.201 51.1097H655.201ZM658.852 33.8251C661.363 28.8797 664.729 25.1084 668.945 22.4738L667.885 20.7778C663.329 23.6249 659.726 27.6847 657.069 32.9197L658.852 33.8251ZM668.945 22.4738C673.164 19.8369 677.873 18.5145 683.098 18.5145V16.5145C677.516 16.5145 672.436 17.9331 667.885 20.7778L668.945 22.4738ZM683.098 18.5145C687.581 18.5145 691.443 19.4254 694.718 21.2116L695.676 19.4558C692.059 17.4831 687.856 16.5145 683.098 16.5145V18.5145ZM694.726 21.216C698.112 23.0217 700.674 25.3718 702.45 28.2581L704.154 27.2099C702.171 23.988 699.33 21.4046 695.667 19.4513L694.726 21.216ZM704.302 27.734V18.4543H702.302V27.734H704.302ZM703.302 19.4543H723.389V17.4543L703.302 17.4543V19.4543ZM722.389 18.4543V84H724.389V18.4543H722.389ZM723.389 83H703.302V85H723.389V83ZM704.302 84V74.7202H702.302V84H704.302ZM702.46 74.1806C700.604 77.0763 697.997 79.431 694.609 81.2382L695.55 83.0029C699.209 81.0512 702.085 78.4723 704.144 75.2599L702.46 74.1806ZM694.6 81.2427C691.326 83.0289 687.463 83.9397 682.98 83.9397V85.9397C687.738 85.9397 691.942 84.9711 695.558 82.9984L694.6 81.2427ZM682.98 83.9397C677.837 83.9397 673.166 82.6189 668.945 79.9804L667.885 81.6764C672.434 84.5197 677.474 85.9397 682.98 85.9397V83.9397ZM668.955 79.9873C664.733 77.2731 661.364 73.459 658.852 68.5117L657.069 69.4171C659.725 74.6501 663.325 78.7454 667.874 81.6696L668.955 79.9873ZM658.86 68.5281C656.43 63.5172 655.201 57.7192 655.201 51.1097H653.201C653.201 57.9695 654.478 64.0747 657.06 69.4007L658.86 68.5281ZM704.302 51.2271C704.302 46.0207 702.832 41.7923 699.79 38.6658L698.356 40.0605C700.953 42.7288 702.302 46.4099 702.302 51.2271H704.302ZM699.8 38.6759C696.87 35.5784 693.239 34.0169 688.971 34.0169V36.0169C692.691 36.0169 695.795 37.3528 698.347 40.0503L699.8 38.6759ZM688.971 34.0169C684.704 34.0169 681.04 35.5775 678.035 38.6658L679.468 40.0605C682.102 37.3538 685.251 36.0169 688.971 36.0169V34.0169ZM678.035 38.666C675.066 41.7193 673.64 45.9122 673.64 51.1097H675.64C675.64 46.2834 676.955 42.6452 679.469 40.0602L678.035 38.666ZM673.64 51.1097C673.64 56.3098 675.067 60.5667 678.016 63.7686L679.487 62.4137C676.955 59.664 675.64 55.9332 675.64 51.1097H673.64ZM678.035 63.7885C681.04 66.8768 684.704 68.4374 688.971 68.4374V66.4374C685.251 66.4374 682.102 65.1004 679.468 62.3938L678.035 63.7885ZM688.971 68.4374C693.239 68.4374 696.87 66.8758 699.8 63.7783L698.347 62.4039C695.795 65.1014 692.691 66.4374 688.971 66.4374V68.4374ZM699.79 63.7885C702.832 60.6619 704.302 56.4336 704.302 51.2271H702.302C702.302 56.0444 700.953 59.7254 698.356 62.3938L699.79 63.7885ZM740.387 33.3724L739.512 32.8878L739.507 32.8983L740.387 33.3724ZM752.016 21.6258L751.536 20.7484L751.53 20.7517L752.016 21.6258ZM789.723 23.9751L789.105 24.7615L789.11 24.7657L789.723 23.9751ZM800.647 42.1823V43.1823H801.891L801.623 41.9674L800.647 42.1823ZM779.268 42.1823L778.327 42.5205L778.565 43.1823H779.268V42.1823ZM760.004 39.0107L760.793 39.6247L760.801 39.6142L760.004 39.0107ZM760.004 63.561L759.206 64.1645L759.214 64.1749L760.004 63.561ZM779.268 60.272V59.272H778.565L778.327 59.9338L779.268 60.272ZM800.647 60.272L801.623 60.491L801.896 59.272H800.647V60.272ZM789.723 78.3617L789.103 77.5765L789.103 77.5765L789.723 78.3617ZM752.016 80.8284L751.53 81.7026L751.536 81.7058L752.016 80.8284ZM740.387 69.0819L739.506 69.556L739.512 69.5664L740.387 69.0819ZM737.276 51.2271C737.276 44.5501 738.618 38.767 741.267 33.8465L739.507 32.8983C736.674 38.1581 735.276 44.2782 735.276 51.2271H737.276ZM741.262 33.8569C743.993 28.9251 747.737 25.147 752.502 22.5L751.53 20.7517C746.428 23.5864 742.419 27.6393 739.512 32.8879L741.262 33.8569ZM752.496 22.5032C757.343 19.8524 762.891 18.5145 769.166 18.5145V16.5145C762.598 16.5145 756.713 17.9176 751.536 20.7485L752.496 22.5032ZM769.166 18.5145C777.206 18.5145 783.829 20.6166 789.105 24.7614L790.34 23.1888C784.652 18.7195 777.571 16.5145 769.166 16.5145V18.5145ZM789.11 24.7657C794.459 28.9095 797.99 34.7608 799.67 42.3971L801.623 41.9674C799.858 33.9417 796.106 27.6549 790.335 23.1846L789.11 24.7657ZM800.647 41.1823H779.268V43.1823H800.647V41.1823ZM780.209 41.8441C779.257 39.1939 777.83 37.1289 775.887 35.7321C773.943 34.3335 771.564 33.6645 768.814 33.6645V35.6645C771.232 35.6645 773.18 36.2484 774.72 37.3558C776.262 38.4649 777.478 40.1588 778.327 42.5205L780.209 41.8441ZM768.814 33.6645C764.825 33.6645 761.591 35.2562 759.206 38.4073L760.801 39.6142C762.802 36.9702 765.442 35.6645 768.814 35.6645V33.6645ZM759.214 38.3968C756.833 41.4592 755.715 45.7841 755.715 51.2271H757.715C757.715 46.0199 758.79 42.2006 760.793 39.6247L759.214 38.3968ZM755.715 51.2271C755.715 56.6727 756.834 61.029 759.206 64.1644L760.801 62.9576C758.789 60.298 757.715 56.4317 757.715 51.2271H755.715ZM759.214 64.1749C761.603 67.2463 764.835 68.7898 768.814 68.7898V66.7898C765.431 66.7898 762.79 65.5141 760.793 62.9471L759.214 64.1749ZM768.814 68.7898C771.564 68.7898 773.943 68.1207 775.887 66.7222C777.83 65.3254 779.257 63.2603 780.209 60.6102L778.327 59.9338C777.478 62.2955 776.262 63.9893 774.72 65.0984C773.18 66.2058 771.232 66.7898 768.814 66.7898V68.7898ZM779.268 61.272H800.647V59.272H779.268V61.272ZM799.671 60.0529C797.993 67.5297 794.463 73.3492 789.103 77.5765L790.342 79.1468C796.102 74.6034 799.855 68.3631 801.623 60.491L799.671 60.0529ZM789.103 77.5765C783.746 81.8023 777.121 83.9397 769.166 83.9397V85.9397C777.5 85.9397 784.579 83.6918 790.342 79.1468L789.103 77.5765ZM769.166 83.9397C762.891 83.9397 757.343 82.6019 752.496 79.9511L751.536 81.7058C756.713 84.5367 762.598 85.9397 769.166 85.9397V83.9397ZM752.502 79.9543C747.737 77.3072 743.993 73.5292 741.262 68.5974L739.512 69.5664C742.419 74.815 746.428 78.8679 751.53 81.7026L752.502 79.9543ZM741.267 68.6078C738.618 63.6873 737.276 57.9042 737.276 51.2271H735.276C735.276 58.1761 736.674 64.2961 739.507 69.556L741.267 68.6078ZM850.272 66.9675H851.272V65.9675H850.272V66.9675ZM850.272 84V85H851.272V84H850.272ZM823.02 78.7141L822.358 79.4631L822.366 79.4702L823.02 78.7141ZM816.912 35.1344H817.912V34.1344H816.912V35.1344ZM808.924 35.1344H807.924V36.1344H808.924V35.1344ZM808.924 18.4543V17.4543H807.924V18.4543H808.924ZM816.912 18.4543V19.4543H817.912V18.4543H816.912ZM816.912 2.47895V1.47895H815.912V2.47895H816.912ZM836.999 2.47895H837.999V1.47895H836.999V2.47895ZM836.999 18.4543H835.999V19.4543H836.999V18.4543ZM850.155 18.4543H851.155V17.4543H850.155V18.4543ZM850.155 35.1344V36.1344H851.155V35.1344H850.155ZM836.999 35.1344V34.1344H835.999V35.1344H836.999ZM838.408 65.6754L837.733 66.4125L837.733 66.4125L838.408 65.6754ZM849.272 66.9675V84H851.272V66.9675H849.272ZM850.272 83H840.053V85H850.272V83ZM840.053 83C832.925 83 827.51 81.2766 823.675 77.9579L822.366 79.4702C826.675 83.1995 832.615 85 840.053 85V83ZM823.683 77.9651C819.912 74.629 817.912 69.1314 817.912 61.2117H815.912C815.912 69.4239 817.985 75.5945 822.358 79.463L823.683 77.9651ZM817.912 61.2117V35.1344H815.912V61.2117H817.912ZM816.912 34.1344H808.924V36.1344H816.912V34.1344ZM809.924 35.1344V18.4543H807.924V35.1344H809.924ZM808.924 19.4543H816.912V17.4543L808.924 17.4543V19.4543ZM817.912 18.4543V2.47895H815.912V18.4543H817.912ZM816.912 3.47895H836.999V1.47895H816.912V3.47895ZM835.999 2.47895V18.4543H837.999V2.47895H835.999ZM836.999 19.4543H850.155V17.4543H836.999V19.4543ZM849.155 18.4543V35.1344H851.155V18.4543H849.155ZM850.155 34.1344H836.999V36.1344H850.155V34.1344ZM835.999 35.1344V61.4466H837.999V35.1344H835.999ZM835.999 61.4466C835.999 63.5357 836.497 65.2802 837.733 66.4125L839.084 64.9382C838.44 64.3477 837.999 63.2731 837.999 61.4466H835.999ZM837.733 66.4125C838.951 67.529 840.83 67.9675 843.107 67.9675V65.9675C840.999 65.9675 839.746 65.5446 839.084 64.9382L837.733 66.4125ZM843.107 67.9675H850.272V65.9675H843.107V67.9675ZM915.495 1.53922H916.495V0.539222H915.495V1.53922ZM908.095 77.7743L907.405 77.0502L907.399 77.0557L908.095 77.7743ZM867.452 77.4219L866.767 78.1505L866.767 78.1505L867.452 77.4219ZM859.581 56.3956V55.3956H858.581V56.3956H859.581ZM879.551 56.3956H880.551V55.3956H879.551V56.3956ZM881.665 64.2658L880.877 64.8821L880.884 64.8906L880.891 64.899L881.665 64.2658ZM893.412 64.5007L892.65 63.8531L892.65 63.8531L893.412 64.5007ZM895.408 1.53922V0.539222H894.408V1.53922H895.408ZM914.495 1.53922V57.6877H916.495V1.53922H914.495ZM914.495 57.6877C914.495 66.1863 912.089 72.5891 907.405 77.0502L908.784 78.4985C913.967 73.5623 916.495 66.574 916.495 57.6877H914.495ZM907.399 77.0557C902.771 81.5345 896.465 83.8223 888.36 83.8223V85.8223C896.858 85.8223 903.708 83.4114 908.79 78.4929L907.399 77.0557ZM888.36 83.8223C879.867 83.8223 873.161 81.4178 868.137 76.6934L866.767 78.1505C872.236 83.2932 879.469 85.8223 888.36 85.8223V83.8223ZM868.137 76.6934C863.141 71.9956 860.581 65.2804 860.581 56.3956H858.581C858.581 65.6788 861.269 72.9811 866.767 78.1505L868.137 76.6934ZM859.581 57.3956H879.551V55.3956H859.581V57.3956ZM878.551 56.3956C878.551 59.9567 879.276 62.8356 880.877 64.8821L882.452 63.6495C881.235 62.0937 880.551 59.7258 880.551 56.3956H878.551ZM880.891 64.899C882.528 66.9001 884.876 67.85 887.773 67.85V65.85C885.345 65.85 883.621 65.0771 882.439 63.6326L880.891 64.899ZM887.773 67.85C890.435 67.85 892.617 66.9793 894.173 65.1484L892.65 63.8531C891.543 65.1546 889.966 65.85 887.773 65.85V67.85ZM894.173 65.1484C895.714 63.3354 896.408 60.7968 896.408 57.6877H894.408C894.408 60.5302 893.771 62.5336 892.65 63.8531L894.173 65.1484ZM896.408 57.6877V1.53922H894.408V57.6877H896.408ZM895.408 2.53922L915.495 2.53922V0.539222L895.408 0.539222V2.53922ZM947.695 81.8856L947.316 82.8109L947.316 82.8109L947.695 81.8856ZM936.184 73.1932L935.378 73.7853L935.386 73.7958L936.184 73.1932ZM931.72 59.3322V58.3322H930.691L930.72 59.3612L931.72 59.3322ZM953.099 59.3322L954.093 59.2302L954.001 58.3322H953.099V59.3322ZM956.27 66.3802L955.596 67.1187L955.605 67.1268L955.614 67.1348L956.27 66.3802ZM970.366 66.7326L970.978 67.5239L970.989 67.5153L970.999 67.5065L970.366 66.7326ZM970.836 55.9257L970.129 56.6329L970.139 56.643L970.149 56.6528L970.836 55.9257ZM965.785 52.6367L965.382 53.552L965.389 53.5549L965.395 53.5577L965.785 52.6367ZM957.327 49.7001L957.032 50.6556L957.042 50.6585L957.327 49.7001ZM944.289 44.7665L943.85 45.6651L943.85 45.6651L944.289 44.7665ZM935.596 37.4837L936.394 36.8806L936.394 36.8806L935.596 37.4837ZM940.295 6.94263L940.907 7.73321L940.914 7.7278L940.295 6.94263ZM983.992 6.94263L983.373 7.72783L983.38 7.73318L983.992 6.94263ZM992.919 25.0323V26.0323H993.971L993.918 24.9819L992.919 25.0323ZM971.188 25.0323L970.19 25.091L970.245 26.0323H971.188V25.0323ZM968.252 18.8067L967.596 19.5613L967.605 19.5696L967.615 19.5776L968.252 18.8067ZM955.448 18.4543L956.092 19.2192L956.104 19.2095L956.115 19.1995L955.448 18.4543ZM956.975 30.2008L957.486 29.3409L957.486 29.3409L956.975 30.2008ZM968.722 35.0169L969.042 34.0695L969.029 34.0654L968.722 35.0169ZM981.643 40.1854L981.196 41.0798L981.204 41.0839L981.643 40.1854ZM990.335 47.3508L989.545 47.9633L989.545 47.9633L990.335 47.3508ZM990.335 72.2535L989.49 71.7188L989.486 71.725L989.482 71.7313L990.335 72.2535ZM979.998 81.4158L979.551 80.5213L979.551 80.5213L979.998 81.4158ZM963.905 83.8223C957.984 83.8223 952.713 82.8612 948.074 80.9603L947.316 82.8109C952.232 84.8256 957.767 85.8223 963.905 85.8223V83.8223ZM948.074 80.9603C943.451 79.0654 939.763 76.274 936.982 72.5906L935.386 73.7958C938.399 77.7867 942.386 80.7903 947.316 82.8109L948.074 80.9603ZM936.989 72.6011C934.306 68.9491 932.871 64.5321 932.72 59.3033L930.72 59.3612C930.882 64.9392 932.422 69.7628 935.378 73.7853L936.989 72.6011ZM931.72 60.3322H953.099V58.3322H931.72V60.3322ZM952.104 59.4343C952.435 62.6672 953.57 65.269 955.596 67.1187L956.944 65.6417C955.368 64.2024 954.388 62.1055 954.093 59.2302L952.104 59.4343ZM955.614 67.1348C957.634 68.8913 960.233 69.7295 963.318 69.7295V67.7295C960.608 67.7295 958.509 67.0014 956.926 65.6256L955.614 67.1348ZM963.318 69.7295C966.435 69.7295 969.025 69.0324 970.978 67.5239L969.755 65.9413C968.261 67.0953 966.153 67.7295 963.318 67.7295V69.7295ZM970.999 67.5065C972.977 65.8883 973.95 63.6734 973.95 60.9768H971.95C971.95 63.1354 971.201 64.7577 969.733 65.9586L970.999 67.5065ZM973.95 60.9768C973.95 58.6811 973.143 56.7293 971.523 55.1987L970.149 56.6528C971.348 57.7847 971.95 59.2003 971.95 60.9768H973.95ZM971.543 55.2186C970.106 53.7819 968.309 52.6187 966.175 51.7157L965.395 53.5577C967.333 54.3775 968.903 55.4071 970.129 56.6329L971.543 55.2186ZM966.188 51.7214C964.173 50.835 961.307 49.8422 957.613 48.7417L957.042 50.6585C960.709 51.7507 963.481 52.7156 965.382 53.552L966.188 51.7214ZM957.622 48.7446C952.325 47.1087 948.032 45.4818 944.728 43.868L943.85 45.6651C947.28 47.3403 951.679 49.0024 957.032 50.6555L957.622 48.7446ZM944.728 43.868C941.512 42.2974 938.734 39.9755 936.394 36.8806L934.799 38.0868C937.314 41.4133 940.331 43.9466 943.85 45.6651L944.728 43.868ZM936.394 36.8806C934.131 33.8873 932.955 29.9279 932.955 24.9149H930.955C930.955 30.2388 932.207 34.6585 934.799 38.0868L936.394 36.8806ZM932.955 24.9149C932.955 17.5173 935.616 11.8318 940.907 7.73318L939.683 6.15209C933.853 10.6676 930.955 16.9636 930.955 24.9149H932.955ZM940.914 7.7278C946.256 3.5145 953.264 1.36457 962.026 1.36457V-0.635432C952.934 -0.635432 945.454 1.60002 939.676 6.15747L940.914 7.7278ZM962.026 1.36457C970.95 1.36457 978.034 3.51678 983.373 7.7278L984.611 6.15747C978.83 1.59773 971.27 -0.635432 962.026 -0.635432V1.36457ZM983.38 7.73318C988.684 11.8418 991.542 17.5873 991.921 25.0828L993.918 24.9819C993.514 16.9719 990.421 10.6576 984.604 6.15209L983.38 7.73318ZM992.919 24.0323H971.188V26.0323H992.919V24.0323ZM972.187 24.9736C972.016 22.0769 970.935 19.7263 968.889 18.0357L967.615 19.5776C969.171 20.8628 970.047 22.6626 970.19 25.091L972.187 24.9736ZM968.908 18.052C966.893 16.2998 964.336 15.4573 961.321 15.4573V17.4573C963.945 17.4573 966.008 18.1811 967.596 19.5613L968.908 18.052ZM961.321 15.4573C958.703 15.4573 956.49 16.18 954.781 17.709L956.115 19.1995C957.382 18.066 959.084 17.4573 961.321 17.4573V15.4573ZM954.804 17.6893C953.036 19.1782 952.216 21.3321 952.216 23.9751H954.216C954.216 21.7629 954.884 20.2362 956.092 19.2192L954.804 17.6893ZM952.216 23.9751C952.216 27.0291 953.69 29.4132 956.464 31.0607L957.486 29.3409C955.248 28.0126 954.216 26.2462 954.216 23.9751H952.216ZM956.464 31.0607C959.069 32.6069 963.07 34.2395 968.414 35.9683L969.029 34.0654C963.723 32.3487 959.893 30.7705 957.486 29.3409L956.464 31.0607ZM968.401 35.9642C973.703 37.7574 977.963 39.4635 981.196 41.0798L982.09 39.2909C978.745 37.6182 974.39 35.8786 969.042 34.0696L968.401 35.9642ZM981.204 41.0839C984.426 42.6574 987.205 44.9448 989.545 47.9633L991.126 46.7382C988.61 43.4919 985.594 41.0023 982.082 39.2868L981.204 41.0839ZM989.545 47.9633C991.806 50.8812 992.977 54.6825 992.977 59.4497H994.977C994.977 54.3498 993.72 50.0852 991.126 46.7382L989.545 47.9633ZM992.977 59.4497C992.977 63.966 991.813 68.0473 989.49 71.7188L991.18 72.7881C993.713 68.7852 994.977 64.3307 994.977 59.4497H992.977ZM989.482 71.7313C987.243 75.3891 983.948 78.323 979.551 80.5213L980.445 82.3102C985.133 79.9666 988.729 76.7923 991.188 72.7756L989.482 71.7313ZM979.551 80.5213C975.175 82.7094 969.97 83.8223 963.905 83.8223V85.8223C970.214 85.8223 975.738 84.6641 980.445 82.3102L979.551 80.5213ZM1050.74 84L1049.86 84.4826L1050.15 85H1050.74V84ZM1033.59 52.8716L1034.47 52.3891L1034.18 51.8716H1033.59V52.8716ZM1028.77 52.8716V51.8716H1027.77V52.8716H1028.77ZM1028.77 84V85H1029.77V84H1028.77ZM1008.69 84H1007.69V85H1008.69V84ZM1008.69 1.53922V0.539222H1007.69V1.53922H1008.69ZM1058.96 4.94572L1058.52 5.84017L1058.52 5.84317L1058.96 4.94572ZM1069.3 14.343L1068.43 14.8373L1068.43 14.8447L1069.3 14.343ZM1068.01 42.1823L1067.2 41.5941L1067.19 41.6039L1068.01 42.1823ZM1054.38 51.3446L1054.1 50.3864L1052.88 50.7501L1053.52 51.8481L1054.38 51.3446ZM1073.41 84V85H1075.15L1074.27 83.4965L1073.41 84ZM1028.77 38.6583H1027.77V39.6583H1028.77V38.6583ZM1049.45 35.9566L1048.76 35.2346L1048.75 35.242L1048.74 35.2495L1049.45 35.9566ZM1049.45 20.921L1048.74 21.6281L1048.75 21.6357L1048.76 21.643L1049.45 20.921ZM1028.77 18.2193V17.2193H1027.77V18.2193H1028.77ZM1051.62 83.5174L1034.47 52.3891L1032.71 53.3542L1049.86 84.4826L1051.62 83.5174ZM1033.59 51.8716H1028.77V53.8716H1033.59V51.8716ZM1027.77 52.8716V84H1029.77V52.8716H1027.77ZM1028.77 83H1008.69V85H1028.77V83ZM1009.69 84V1.53922H1007.69V84H1009.69ZM1008.69 2.53922L1042.4 2.53922V0.539222L1008.69 0.539222V2.53922ZM1042.4 2.53922C1048.79 2.53922 1054.15 3.65524 1058.52 5.84015L1059.41 4.05129C1054.7 1.6942 1049.01 0.539222 1042.4 0.539222V2.53922ZM1058.52 5.84317C1062.98 8.03681 1066.27 11.0383 1068.43 14.8373L1070.17 13.8487C1067.79 9.65996 1064.18 6.39663 1059.4 4.04827L1058.52 5.84317ZM1068.43 14.8447C1070.61 18.5967 1071.71 22.8068 1071.71 27.4991H1073.71C1073.71 22.4809 1072.53 17.9202 1070.16 13.8412L1068.43 14.8447ZM1071.71 27.4991C1071.71 32.7761 1070.2 37.4632 1067.2 41.5941L1068.82 42.7705C1072.08 38.2872 1073.71 33.1855 1073.71 27.4991H1071.71ZM1067.19 41.6039C1064.29 45.6956 1059.95 48.6365 1054.1 50.3864L1054.67 52.3028C1060.87 50.4504 1065.62 47.2831 1068.82 42.7607L1067.19 41.6039ZM1053.52 51.8481L1072.55 84.5035L1074.27 83.4965L1055.25 50.8411L1053.52 51.8481ZM1073.41 83H1050.74V85H1073.41V83ZM1028.77 39.6583H1041.23V37.6583H1028.77V39.6583ZM1041.23 39.6583C1045.05 39.6583 1048.1 38.7221 1050.16 36.6637L1048.74 35.2495C1047.2 36.7934 1044.76 37.6583 1041.23 37.6583V39.6583ZM1050.14 36.6786C1052.26 34.642 1053.27 31.8069 1053.27 28.3214H1051.27C1051.27 31.4139 1050.39 33.669 1048.76 35.2346L1050.14 36.6786ZM1053.27 28.3214C1053.27 24.976 1052.26 22.2264 1050.14 20.199L1048.76 21.643C1050.4 23.2179 1051.27 25.4019 1051.27 28.3214H1053.27ZM1050.16 20.2139C1048.1 18.1555 1045.05 17.2193 1041.23 17.2193V19.2193C1044.76 19.2193 1047.2 20.0843 1048.74 21.6281L1050.16 20.2139ZM1041.23 17.2193L1028.77 17.2193V19.2193H1041.23V17.2193ZM1027.77 18.2193V38.6583H1029.77V18.2193H1027.77ZM1149.1 56.0432V57.0432H1149.99L1150.09 56.1578L1149.1 56.0432ZM1103.64 56.0432V55.0432H1102.56L1102.64 56.1199L1103.64 56.0432ZM1107.52 65.4405L1106.82 66.1599L1106.83 66.172L1106.85 66.1837L1107.52 65.4405ZM1126.55 62.2689V61.2689H1125.91L1125.64 61.8488L1126.55 62.2689ZM1147.92 62.2689L1148.89 62.5156L1149.21 61.2689H1147.92V62.2689ZM1141.93 73.898L1141.17 73.2543L1141.16 73.2647L1141.93 73.898ZM1131.24 82.0031L1131.66 82.9135L1131.24 82.0031ZM1099.65 80.8284L1099.17 81.7058L1099.17 81.7058L1099.65 80.8284ZM1087.9 69.0819L1088.77 68.5974L1088.77 68.5974L1087.9 69.0819ZM1087.78 33.3724L1086.91 32.8878L1086.9 32.8983L1087.78 33.3724ZM1099.53 21.6258L1100.01 22.5032L1100.01 22.5032L1099.53 21.6258ZM1133.71 21.5084L1133.24 22.3884L1133.24 22.3884L1133.71 21.5084ZM1145.22 32.9025L1144.35 33.3882L1144.35 33.3986L1145.22 32.9025ZM1128.89 44.884V45.884H1129.89V44.884H1128.89ZM1125.37 36.6614L1126.03 35.9057L1126.03 35.9057L1125.37 36.6614ZM1107.99 36.5439L1107.35 35.7757L1107.34 35.7811L1107.33 35.7865L1107.99 36.5439ZM1103.76 44.884L1102.77 44.7335L1102.59 45.884H1103.76V44.884ZM1148.45 50.1699C1148.45 52.0078 1148.34 53.9272 1148.11 55.9286L1150.09 56.1578C1150.33 54.0871 1150.45 52.0909 1150.45 50.1699H1148.45ZM1149.1 55.0432H1103.64V57.0432H1149.1V55.0432ZM1102.64 56.1199C1102.97 60.3625 1104.33 63.7521 1106.82 66.1599L1108.21 64.721C1106.16 62.7434 1104.94 59.8682 1104.64 55.9665L1102.64 56.1199ZM1106.85 66.1837C1109.39 68.4748 1112.49 69.612 1116.09 69.612V67.612C1112.95 67.612 1110.34 66.6349 1108.19 64.6972L1106.85 66.1837ZM1116.09 69.612C1118.74 69.612 1121.05 69.0529 1122.98 67.8812C1124.92 66.7067 1126.4 64.9571 1127.45 62.689L1125.64 61.8488C1124.73 63.8094 1123.49 65.2314 1121.95 66.1713C1120.39 67.114 1118.46 67.612 1116.09 67.612V69.612ZM1126.55 63.2689H1147.92V61.2689H1126.55V63.2689ZM1146.96 62.0222C1145.9 66.1814 1143.97 69.9224 1141.17 73.2544L1142.7 74.5416C1145.69 70.9822 1147.76 66.9705 1148.89 62.5156L1146.96 62.0222ZM1141.16 73.2647C1138.44 76.5842 1135.01 79.1944 1130.83 81.0927L1131.66 82.9135C1136.1 80.8963 1139.79 78.1031 1142.71 74.5312L1141.16 73.2647ZM1130.83 81.0927C1126.67 82.9844 1122 83.9397 1116.8 83.9397V85.9397C1122.25 85.9397 1127.21 84.9373 1131.66 82.9135L1130.83 81.0927ZM1116.8 83.9397C1110.52 83.9397 1104.97 82.6019 1100.13 79.9511L1099.17 81.7058C1104.34 84.5367 1110.23 85.9397 1116.8 85.9397V83.9397ZM1100.13 79.9511C1095.28 77.3029 1091.5 73.5251 1088.77 68.5974L1087.02 69.5664C1089.93 74.819 1093.98 78.8723 1099.17 81.7058L1100.13 79.9511ZM1088.77 68.5974C1086.05 63.679 1084.67 57.8997 1084.67 51.2271H1082.67C1082.67 58.1805 1084.11 64.3044 1087.02 69.5664L1088.77 68.5974ZM1084.67 51.2271C1084.67 44.5501 1086.01 38.767 1088.66 33.8465L1086.9 32.8983C1084.07 38.1581 1082.67 44.2782 1082.67 51.2271H1084.67ZM1088.66 33.8569C1091.39 28.9292 1095.17 25.1514 1100.01 22.5032L1099.05 20.7485C1093.87 23.582 1089.82 27.6352 1086.91 32.8879L1088.66 33.8569ZM1100.01 22.5032C1104.85 19.8533 1110.44 18.5145 1116.8 18.5145V16.5145C1110.15 16.5145 1104.23 17.9166 1099.05 20.7485L1100.01 22.5032ZM1116.8 18.5145C1123 18.5145 1128.47 19.8144 1133.24 22.3884L1134.19 20.6283C1129.09 17.8772 1123.28 16.5145 1116.8 16.5145V18.5145ZM1133.24 22.3884C1138 24.9596 1141.7 28.6203 1144.35 33.3882L1146.1 32.4169C1143.26 27.3176 1139.29 23.3822 1134.19 20.6283L1133.24 22.3884ZM1144.35 33.3986C1147.07 38.1587 1148.45 43.7382 1148.45 50.1699H1150.45C1150.45 43.4456 1149.01 37.5134 1146.09 32.4064L1144.35 33.3986ZM1129.89 44.884C1129.89 41.1836 1128.62 38.1537 1126.03 35.9057L1124.72 37.4171C1126.82 39.2413 1127.89 41.6931 1127.89 44.884H1129.89ZM1126.03 35.9057C1123.47 33.691 1120.29 32.6073 1116.56 32.6073V34.6073C1119.88 34.6073 1122.57 35.5597 1124.72 37.4171L1126.03 35.9057ZM1116.56 32.6073C1112.99 32.6073 1109.89 33.6528 1107.35 35.7757L1108.63 37.3122C1110.78 35.5196 1113.4 34.6073 1116.56 34.6073V32.6073ZM1107.33 35.7865C1104.84 37.9318 1103.34 40.9483 1102.77 44.7335L1104.75 45.0344C1105.27 41.6151 1106.59 39.0716 1108.64 37.3013L1107.33 35.7865ZM1103.76 45.884H1128.89V43.884H1103.76V45.884ZM1162.16 33.3724L1161.27 32.9196L1161.27 32.9307L1162.16 33.3724ZM1172.62 21.6258L1173.15 22.4738L1173.15 22.4738L1172.62 21.6258ZM1199.4 20.3337L1198.92 21.2116L1198.93 21.216L1199.4 20.3337ZM1207.5 27.734L1206.65 28.2581L1208.5 31.2671V27.734H1207.5ZM1207.5 18.4543V17.4543H1206.5V18.4543H1207.5ZM1227.59 18.4543H1228.59V17.4543H1227.59V18.4543ZM1227.59 84V85H1228.59V84H1227.59ZM1207.5 84H1206.5V85H1207.5V84ZM1207.5 74.7202H1208.5V71.3072L1206.66 74.1806L1207.5 74.7202ZM1199.28 82.1206L1198.81 81.2382L1198.8 81.2427L1199.28 82.1206ZM1172.62 80.8284L1172.08 81.6697L1172.09 81.6764L1172.62 80.8284ZM1162.16 68.9644L1161.26 69.4007L1161.27 69.4089L1161.27 69.4171L1162.16 68.9644ZM1203.28 39.3631L1202.55 40.0504L1202.56 40.0605L1203.28 39.3631ZM1182.95 39.3631L1182.24 38.6658L1182.24 38.666L1182.95 39.3631ZM1182.95 63.0911L1182.22 63.7686L1182.23 63.7787L1182.24 63.7885L1182.95 63.0911ZM1203.28 63.0911L1202.56 62.3937L1202.55 62.4039L1203.28 63.0911ZM1159.4 51.1097C1159.4 44.4997 1160.63 38.7434 1163.06 33.8141L1161.27 32.9307C1158.68 38.1817 1157.4 44.2502 1157.4 51.1097H1159.4ZM1163.05 33.8251C1165.56 28.8797 1168.93 25.1084 1173.15 22.4738L1172.09 20.7778C1167.53 23.6249 1163.93 27.6847 1161.27 32.9197L1163.05 33.8251ZM1173.15 22.4738C1177.37 19.8369 1182.08 18.5145 1187.3 18.5145V16.5145C1181.72 16.5145 1176.64 17.9331 1172.09 20.7778L1173.15 22.4738ZM1187.3 18.5145C1191.78 18.5145 1195.65 19.4254 1198.92 21.2116L1199.88 19.4558C1196.26 17.4831 1192.06 16.5145 1187.3 16.5145V18.5145ZM1198.93 21.216C1202.31 23.0217 1204.88 25.3718 1206.65 28.2581L1208.36 27.2099C1206.37 23.988 1203.53 21.4046 1199.87 19.4513L1198.93 21.216ZM1208.5 27.734V18.4543L1206.5 18.4543V27.734H1208.5ZM1207.5 19.4543H1227.59V17.4543L1207.5 17.4543V19.4543ZM1226.59 18.4543V84H1228.59V18.4543H1226.59ZM1227.59 83H1207.5V85H1227.59V83ZM1208.5 84V74.7202H1206.5V84H1208.5ZM1206.66 74.1806C1204.81 77.0763 1202.2 79.431 1198.81 81.2382L1199.75 83.0029C1203.41 81.0512 1206.29 78.4723 1208.35 75.2599L1206.66 74.1806ZM1198.8 81.2427C1195.53 83.0289 1191.67 83.9397 1187.18 83.9397V85.9397C1191.94 85.9397 1196.14 84.9711 1199.76 82.9984L1198.8 81.2427ZM1187.18 83.9397C1182.04 83.9397 1177.37 82.6189 1173.15 79.9804L1172.09 81.6764C1176.64 84.5197 1181.68 85.9397 1187.18 85.9397V83.9397ZM1173.16 79.9873C1168.94 77.2731 1165.57 73.459 1163.05 68.5117L1161.27 69.4171C1163.93 74.6501 1167.53 78.7454 1172.08 81.6696L1173.16 79.9873ZM1163.06 68.5281C1160.63 63.5172 1159.4 57.7192 1159.4 51.1097H1157.4C1157.4 57.9695 1158.68 64.0747 1161.26 69.4007L1163.06 68.5281ZM1208.5 51.2271C1208.5 46.0207 1207.03 41.7923 1203.99 38.6658L1202.56 40.0605C1205.15 42.7288 1206.5 46.4099 1206.5 51.2271H1208.5ZM1204 38.6759C1201.07 35.5784 1197.44 34.0169 1193.17 34.0169V36.0169C1196.89 36.0169 1200 37.3528 1202.55 40.0503L1204 38.6759ZM1193.17 34.0169C1188.91 34.0169 1185.24 35.5775 1182.24 38.6658L1183.67 40.0605C1186.3 37.3538 1189.45 36.0169 1193.17 36.0169V34.0169ZM1182.24 38.666C1179.27 41.7193 1177.84 45.9122 1177.84 51.1097H1179.84C1179.84 46.2834 1181.16 42.6452 1183.67 40.0602L1182.24 38.666ZM1177.84 51.1097C1177.84 56.3098 1179.27 60.5667 1182.22 63.7686L1183.69 62.4137C1181.16 59.664 1179.84 55.9332 1179.84 51.1097H1177.84ZM1182.24 63.7885C1185.24 66.8768 1188.91 68.4374 1193.17 68.4374V66.4374C1189.45 66.4374 1186.3 65.1004 1183.67 62.3938L1182.24 63.7885ZM1193.17 68.4374C1197.44 68.4374 1201.07 66.8758 1204 63.7783L1202.55 62.4039C1200 65.1014 1196.89 66.4374 1193.17 66.4374V68.4374ZM1203.99 63.7885C1207.03 60.6619 1208.5 56.4336 1208.5 51.2271H1206.5C1206.5 56.0444 1205.15 59.7254 1202.56 62.3938L1203.99 63.7885ZM1244.59 33.3724L1243.71 32.8878L1243.71 32.8983L1244.59 33.3724ZM1256.22 21.6258L1255.74 20.7484L1255.73 20.7517L1256.22 21.6258ZM1293.92 23.9751L1293.31 24.7615L1293.31 24.7657L1293.92 23.9751ZM1304.85 42.1823V43.1823H1306.09L1305.83 41.9674L1304.85 42.1823ZM1283.47 42.1823L1282.53 42.5205L1282.77 43.1823H1283.47V42.1823ZM1264.21 39.0107L1265 39.6247L1265 39.6142L1264.21 39.0107ZM1264.21 63.561L1263.41 64.1645L1263.42 64.1749L1264.21 63.561ZM1283.47 60.272V59.272H1282.77L1282.53 59.9338L1283.47 60.272ZM1304.85 60.272L1305.82 60.491L1306.1 59.272H1304.85V60.272ZM1293.92 78.3617L1293.31 77.5765L1293.31 77.5765L1293.92 78.3617ZM1256.22 80.8284L1255.73 81.7026L1255.74 81.7058L1256.22 80.8284ZM1244.59 69.0819L1243.71 69.556L1243.71 69.5664L1244.59 69.0819ZM1241.48 51.2271C1241.48 44.5501 1242.82 38.767 1245.47 33.8465L1243.71 32.8983C1240.88 38.1581 1239.48 44.2782 1239.48 51.2271H1241.48ZM1245.46 33.8569C1248.2 28.9251 1251.94 25.147 1256.7 22.5L1255.73 20.7517C1250.63 23.5864 1246.62 27.6393 1243.71 32.8879L1245.46 33.8569ZM1256.7 22.5032C1261.55 19.8524 1267.09 18.5145 1273.37 18.5145V16.5145C1266.8 16.5145 1260.92 17.9176 1255.74 20.7485L1256.7 22.5032ZM1273.37 18.5145C1281.41 18.5145 1288.03 20.6166 1293.31 24.7614L1294.54 23.1888C1288.85 18.7195 1281.77 16.5145 1273.37 16.5145V18.5145ZM1293.31 24.7657C1298.66 28.9095 1302.19 34.7608 1303.87 42.3971L1305.83 41.9674C1304.06 33.9417 1300.31 27.6549 1294.54 23.1846L1293.31 24.7657ZM1304.85 41.1823H1283.47V43.1823H1304.85V41.1823ZM1284.41 41.8441C1283.46 39.1939 1282.03 37.1289 1280.09 35.7321C1278.14 34.3335 1275.77 33.6645 1273.02 33.6645V35.6645C1275.43 35.6645 1277.38 36.2484 1278.92 37.3558C1280.46 38.4649 1281.68 40.1588 1282.53 42.5205L1284.41 41.8441ZM1273.02 33.6645C1269.03 33.6645 1265.79 35.2562 1263.41 38.4073L1265 39.6142C1267 36.9702 1269.64 35.6645 1273.02 35.6645V33.6645ZM1263.42 38.3968C1261.03 41.4592 1259.92 45.7841 1259.92 51.2271H1261.92C1261.92 46.0199 1262.99 42.2006 1265 39.6247L1263.42 38.3968ZM1259.92 51.2271C1259.92 56.6727 1261.04 61.029 1263.41 64.1644L1265 62.9576C1262.99 60.298 1261.92 56.4317 1261.92 51.2271H1259.92ZM1263.42 64.1749C1265.81 67.2463 1269.04 68.7898 1273.02 68.7898V66.7898C1269.63 66.7898 1266.99 65.5141 1265 62.9471L1263.42 64.1749ZM1273.02 68.7898C1275.77 68.7898 1278.14 68.1207 1280.09 66.7222C1282.03 65.3254 1283.46 63.2603 1284.41 60.6102L1282.53 59.9338C1281.68 62.2955 1280.46 63.9893 1278.92 65.0984C1277.38 66.2058 1275.43 66.7898 1273.02 66.7898V68.7898ZM1283.47 61.272H1304.85V59.272H1283.47V61.272ZM1303.87 60.0529C1302.19 67.5297 1298.67 73.3492 1293.31 77.5765L1294.54 79.1468C1300.3 74.6034 1304.06 68.3631 1305.82 60.491L1303.87 60.0529ZM1293.31 77.5765C1287.95 81.8023 1281.32 83.9397 1273.37 83.9397V85.9397C1281.7 85.9397 1288.78 83.6918 1294.54 79.1468L1293.31 77.5765ZM1273.37 83.9397C1267.09 83.9397 1261.55 82.6019 1256.7 79.9511L1255.74 81.7058C1260.92 84.5367 1266.8 85.9397 1273.37 85.9397V83.9397ZM1256.7 79.9543C1251.94 77.3072 1248.2 73.5292 1245.46 68.5974L1243.71 69.5664C1246.62 74.815 1250.63 78.8679 1255.73 81.7026L1256.7 79.9543ZM1245.47 68.6078C1242.82 63.6873 1241.48 57.9042 1241.48 51.2271H1239.48C1239.48 58.1761 1240.88 64.2961 1243.71 69.556L1245.47 68.6078ZM1354.47 66.9675H1355.47V65.9675H1354.47V66.9675ZM1354.47 84V85H1355.47V84H1354.47ZM1327.22 78.7141L1326.56 79.4631L1326.57 79.4702L1327.22 78.7141ZM1321.11 35.1344H1322.11V34.1344H1321.11V35.1344ZM1313.13 35.1344H1312.13V36.1344H1313.13V35.1344ZM1313.13 18.4543V17.4543H1312.13V18.4543H1313.13ZM1321.11 18.4543V19.4543H1322.11V18.4543H1321.11ZM1321.11 2.47895V1.47895H1320.11V2.47895H1321.11ZM1341.2 2.47895H1342.2V1.47895H1341.2V2.47895ZM1341.2 18.4543L1340.2 18.4543V19.4543H1341.2V18.4543ZM1354.36 18.4543H1355.36V17.4543H1354.36V18.4543ZM1354.36 35.1344V36.1344H1355.36V35.1344H1354.36ZM1341.2 35.1344V34.1344H1340.2V35.1344H1341.2ZM1342.61 65.6754L1341.93 66.4125L1341.93 66.4125L1342.61 65.6754ZM1353.47 66.9675V84H1355.47V66.9675H1353.47ZM1354.47 83H1344.26V85H1354.47V83ZM1344.26 83C1337.13 83 1331.71 81.2766 1327.88 77.9579L1326.57 79.4702C1330.88 83.1995 1336.82 85 1344.26 85V83ZM1327.89 77.9651C1324.11 74.629 1322.11 69.1314 1322.11 61.2117H1320.11C1320.11 69.4239 1322.19 75.5945 1326.56 79.463L1327.89 77.9651ZM1322.11 61.2117V35.1344H1320.11V61.2117H1322.11ZM1321.11 34.1344H1313.13V36.1344H1321.11V34.1344ZM1314.13 35.1344V18.4543H1312.13V35.1344H1314.13ZM1313.13 19.4543H1321.11V17.4543H1313.13V19.4543ZM1322.11 18.4543V2.47895H1320.11V18.4543H1322.11ZM1321.11 3.47895L1341.2 3.47895V1.47895L1321.11 1.47895V3.47895ZM1340.2 2.47895V18.4543L1342.2 18.4543V2.47895L1340.2 2.47895ZM1341.2 19.4543H1354.36V17.4543H1341.2V19.4543ZM1353.36 18.4543V35.1344H1355.36V18.4543H1353.36ZM1354.36 34.1344H1341.2V36.1344H1354.36V34.1344ZM1340.2 35.1344V61.4466H1342.2V35.1344H1340.2ZM1340.2 61.4466C1340.2 63.5357 1340.7 65.2802 1341.93 66.4125L1343.29 64.9382C1342.64 64.3477 1342.2 63.2731 1342.2 61.4466H1340.2ZM1341.93 66.4125C1343.15 67.529 1345.03 67.9675 1347.31 67.9675V65.9675C1345.2 65.9675 1343.95 65.5446 1343.29 64.9382L1341.93 66.4125ZM1347.31 67.9675H1354.47V65.9675H1347.31V67.9675ZM1419.7 1.53922H1420.7V0.539222H1419.7V1.53922ZM1412.3 77.7743L1411.61 77.0502L1411.6 77.0557L1412.3 77.7743ZM1371.65 77.4219L1370.97 78.1505L1370.97 78.1505L1371.65 77.4219ZM1363.78 56.3956V55.3956H1362.78V56.3956H1363.78ZM1383.75 56.3956H1384.75V55.3956H1383.75V56.3956ZM1385.87 64.2658L1385.08 64.8821L1385.09 64.8906L1385.09 64.899L1385.87 64.2658ZM1397.61 64.5007L1396.85 63.8531L1396.85 63.8531L1397.61 64.5007ZM1399.61 1.53922V0.539222H1398.61V1.53922H1399.61ZM1418.7 1.53922V57.6877H1420.7V1.53922H1418.7ZM1418.7 57.6877C1418.7 66.1863 1416.29 72.5891 1411.61 77.0502L1412.99 78.4985C1418.17 73.5623 1420.7 66.574 1420.7 57.6877H1418.7ZM1411.6 77.0557C1406.97 81.5345 1400.67 83.8223 1392.56 83.8223V85.8223C1401.06 85.8223 1407.91 83.4114 1412.99 78.4929L1411.6 77.0557ZM1392.56 83.8223C1384.07 83.8223 1377.36 81.4178 1372.34 76.6934L1370.97 78.1505C1376.44 83.2932 1383.67 85.8223 1392.56 85.8223V83.8223ZM1372.34 76.6934C1367.34 71.9956 1364.78 65.2804 1364.78 56.3956H1362.78C1362.78 65.6788 1365.47 72.9811 1370.97 78.1505L1372.34 76.6934ZM1363.78 57.3956H1383.75V55.3956H1363.78V57.3956ZM1382.75 56.3956C1382.75 59.9567 1383.48 62.8356 1385.08 64.8821L1386.65 63.6495C1385.44 62.0937 1384.75 59.7258 1384.75 56.3956H1382.75ZM1385.09 64.899C1386.73 66.9001 1389.08 67.85 1391.98 67.85V65.85C1389.55 65.85 1387.82 65.0771 1386.64 63.6326L1385.09 64.899ZM1391.98 67.85C1394.64 67.85 1396.82 66.9793 1398.38 65.1484L1396.85 63.8531C1395.75 65.1546 1394.17 65.85 1391.98 65.85V67.85ZM1398.38 65.1484C1399.92 63.3354 1400.61 60.7968 1400.61 57.6877H1398.61C1398.61 60.5302 1397.97 62.5336 1396.85 63.8531L1398.38 65.1484ZM1400.61 57.6877V1.53922H1398.61V57.6877H1400.61ZM1399.61 2.53922H1419.7V0.539222H1399.61V2.53922ZM1451.9 81.8856L1451.52 82.8109L1451.52 82.8109L1451.9 81.8856ZM1440.39 73.1932L1439.58 73.7853L1439.59 73.7958L1440.39 73.1932ZM1435.92 59.3322V58.3322H1434.89L1434.92 59.3612L1435.92 59.3322ZM1457.3 59.3322L1458.3 59.2302L1458.2 58.3322H1457.3V59.3322ZM1460.47 66.3802L1459.8 67.1187L1459.81 67.1268L1459.82 67.1348L1460.47 66.3802ZM1474.57 66.7326L1475.18 67.5239L1475.19 67.5153L1475.2 67.5065L1474.57 66.7326ZM1475.04 55.9257L1474.33 56.6329L1474.34 56.643L1474.35 56.6528L1475.04 55.9257ZM1469.99 52.6367L1469.58 53.552L1469.59 53.5549L1469.6 53.5577L1469.99 52.6367ZM1461.53 49.7001L1461.23 50.6556L1461.24 50.6585L1461.53 49.7001ZM1448.49 44.7665L1448.05 45.6651L1448.05 45.6651L1448.49 44.7665ZM1439.8 37.4837L1440.6 36.8806L1440.6 36.8806L1439.8 37.4837ZM1444.5 6.94263L1445.11 7.73321L1445.12 7.7278L1444.5 6.94263ZM1488.19 6.94263L1487.58 7.72783L1487.58 7.73318L1488.19 6.94263ZM1497.12 25.0323V26.0323H1498.17L1498.12 24.9819L1497.12 25.0323ZM1475.39 25.0323L1474.39 25.091L1474.45 26.0323H1475.39V25.0323ZM1472.45 18.8067L1471.8 19.5613L1471.81 19.5696L1471.82 19.5776L1472.45 18.8067ZM1459.65 18.4543L1460.29 19.2192L1460.31 19.2095L1460.32 19.1995L1459.65 18.4543ZM1461.18 30.2008L1461.69 29.3409L1461.69 29.3409L1461.18 30.2008ZM1472.92 35.0169L1473.24 34.0695L1473.23 34.0654L1472.92 35.0169ZM1485.85 40.1854L1485.4 41.0798L1485.41 41.0839L1485.85 40.1854ZM1494.54 47.3508L1493.75 47.9633L1493.75 47.9633L1494.54 47.3508ZM1494.54 72.2535L1493.69 71.7188L1493.69 71.725L1493.68 71.7313L1494.54 72.2535ZM1484.2 81.4158L1483.75 80.5213L1483.75 80.5213L1484.2 81.4158ZM1468.11 83.8223C1462.19 83.8223 1456.91 82.8612 1452.28 80.9603L1451.52 82.8109C1456.43 84.8256 1461.97 85.8223 1468.11 85.8223V83.8223ZM1452.28 80.9603C1447.65 79.0654 1443.97 76.274 1441.18 72.5906L1439.59 73.7958C1442.6 77.7867 1446.59 80.7903 1451.52 82.8109L1452.28 80.9603ZM1441.19 72.6011C1438.51 68.9491 1437.07 64.5321 1436.92 59.3033L1434.92 59.3612C1435.08 64.9392 1436.62 69.7628 1439.58 73.7853L1441.19 72.6011ZM1435.92 60.3322L1457.3 60.3322V58.3322L1435.92 58.3322V60.3322ZM1456.31 59.4343C1456.64 62.6672 1457.77 65.269 1459.8 67.1187L1461.15 65.6417C1459.57 64.2024 1458.59 62.1055 1458.3 59.2302L1456.31 59.4343ZM1459.82 67.1348C1461.84 68.8913 1464.44 69.7295 1467.52 69.7295V67.7295C1464.81 67.7295 1462.71 67.0014 1461.13 65.6256L1459.82 67.1348ZM1467.52 69.7295C1470.64 69.7295 1473.23 69.0324 1475.18 67.5239L1473.96 65.9413C1472.46 67.0953 1470.36 67.7295 1467.52 67.7295V69.7295ZM1475.2 67.5065C1477.18 65.8883 1478.15 63.6734 1478.15 60.9768H1476.15C1476.15 63.1354 1475.4 64.7577 1473.94 65.9586L1475.2 67.5065ZM1478.15 60.9768C1478.15 58.6811 1477.35 56.7293 1475.72 55.1987L1474.35 56.6528C1475.55 57.7847 1476.15 59.2003 1476.15 60.9768H1478.15ZM1475.75 55.2186C1474.31 53.7819 1472.51 52.6187 1470.38 51.7157L1469.6 53.5577C1471.54 54.3775 1473.11 55.4071 1474.33 56.6329L1475.75 55.2186ZM1470.39 51.7214C1468.38 50.835 1465.51 49.8422 1461.82 48.7417L1461.24 50.6585C1464.91 51.7507 1467.68 52.7156 1469.58 53.552L1470.39 51.7214ZM1461.82 48.7446C1456.53 47.1087 1452.23 45.4818 1448.93 43.868L1448.05 45.6651C1451.48 47.3403 1455.88 49.0024 1461.23 50.6555L1461.82 48.7446ZM1448.93 43.868C1445.71 42.2974 1442.94 39.9755 1440.6 36.8806L1439 38.0868C1441.52 41.4133 1444.53 43.9466 1448.05 45.6651L1448.93 43.868ZM1440.6 36.8806C1438.33 33.8873 1437.16 29.9279 1437.16 24.9149H1435.16C1435.16 30.2388 1436.41 34.6585 1439 38.0868L1440.6 36.8806ZM1437.16 24.9149C1437.16 17.5173 1439.82 11.8318 1445.11 7.73318L1443.88 6.15209C1438.06 10.6676 1435.16 16.9636 1435.16 24.9149H1437.16ZM1445.12 7.7278C1450.46 3.5145 1457.47 1.36457 1466.23 1.36457V-0.635432C1457.14 -0.635432 1449.66 1.60002 1443.88 6.15747L1445.12 7.7278ZM1466.23 1.36457C1475.15 1.36457 1482.24 3.51678 1487.58 7.7278L1488.81 6.15747C1483.03 1.59773 1475.47 -0.635432 1466.23 -0.635432V1.36457ZM1487.58 7.73318C1492.89 11.8418 1495.74 17.5873 1496.12 25.0828L1498.12 24.9819C1497.72 16.9719 1494.62 10.6576 1488.81 6.15209L1487.58 7.73318ZM1497.12 24.0323H1475.39V26.0323H1497.12V24.0323ZM1476.39 24.9736C1476.22 22.0769 1475.14 19.7263 1473.09 18.0357L1471.82 19.5776C1473.37 20.8628 1474.25 22.6626 1474.39 25.091L1476.39 24.9736ZM1473.11 18.052C1471.1 16.2998 1468.54 15.4573 1465.52 15.4573V17.4573C1468.15 17.4573 1470.21 18.1811 1471.8 19.5613L1473.11 18.052ZM1465.52 15.4573C1462.91 15.4573 1460.69 16.18 1458.98 17.709L1460.32 19.1995C1461.58 18.066 1463.29 17.4573 1465.52 17.4573V15.4573ZM1459.01 17.6893C1457.24 19.1782 1456.42 21.3321 1456.42 23.9751H1458.42C1458.42 21.7629 1459.09 20.2362 1460.29 19.2192L1459.01 17.6893ZM1456.42 23.9751C1456.42 27.0291 1457.89 29.4132 1460.67 31.0607L1461.69 29.3409C1459.45 28.0126 1458.42 26.2462 1458.42 23.9751H1456.42ZM1460.67 31.0607C1463.27 32.6069 1467.27 34.2395 1472.62 35.9683L1473.23 34.0654C1467.93 32.3487 1464.1 30.7705 1461.69 29.3409L1460.67 31.0607ZM1472.6 35.9642C1477.91 37.7574 1482.17 39.4635 1485.4 41.0798L1486.29 39.2909C1482.95 37.6182 1478.59 35.8786 1473.24 34.0696L1472.6 35.9642ZM1485.41 41.0839C1488.63 42.6574 1491.41 44.9448 1493.75 47.9633L1495.33 46.7382C1492.81 43.4919 1489.8 41.0023 1486.28 39.2868L1485.41 41.0839ZM1493.75 47.9633C1496.01 50.8812 1497.18 54.6825 1497.18 59.4497H1499.18C1499.18 54.3498 1497.92 50.0852 1495.33 46.7382L1493.75 47.9633ZM1497.18 59.4497C1497.18 63.966 1496.02 68.0473 1493.69 71.7188L1495.38 72.7881C1497.92 68.7852 1499.18 64.3307 1499.18 59.4497H1497.18ZM1493.68 71.7313C1491.45 75.3891 1488.15 78.323 1483.75 80.5213L1484.65 82.3102C1489.33 79.9666 1492.93 76.7923 1495.39 72.7756L1493.68 71.7313ZM1483.75 80.5213C1479.38 82.7094 1474.17 83.8223 1468.11 83.8223V85.8223C1474.42 85.8223 1479.94 84.6641 1484.65 82.3102L1483.75 80.5213Z" fill="#F2B125"/>
</svg>
