<svg width="84" height="71" viewBox="0 0 84 71" fill="none" xmlns="http://www.w3.org/2000/svg">
<path fill-rule="evenodd" clip-rule="evenodd" d="M6.21665 0.242282C3.15416 1.06111 0.729422 3.60324 0.162517 6.58947C0.0557654 7.15229 -0.00159124 15.5914 3.3596e-05 30.5445C0.00263333 55.9894 -0.0480615 54.6845 1.01718 56.6785C1.68645 57.9312 3.05878 59.2937 4.32063 59.9581C6.19471 60.9451 6.44023 60.9654 16.5303 60.968C23.3728 60.9697 25.67 61.0176 25.67 61.1581C25.67 61.2614 25.1947 63.1087 24.6138 65.2634C24.033 67.4179 23.5577 69.2899 23.5577 69.4235C23.5577 69.8942 23.9512 70.5148 24.3937 70.7419C25.0668 71.0875 51.6249 71.0854 52.2982 70.7397C52.6924 70.5372 52.8547 70.5377 53.562 70.7435C54.249 70.9436 56.242 70.9729 66.5472 70.9355L78.7208 70.8911L79.6528 70.4575C80.8435 69.9034 82.1126 68.6434 82.6709 67.4611L83.1079 66.5357L83.1516 46.1738C83.1951 25.8264 83.195 25.8111 82.8523 24.8012C82.0631 22.4754 80.1931 20.9904 77.7053 20.7134L76.6898 20.6005L76.6873 13.9671C76.6847 6.63125 76.6279 6.08811 75.6752 4.28382C75.0255 3.05332 73.4648 1.50165 72.2985 0.926733C70.2868 -0.0650199 72.4307 -0.0069471 38.2689 0.00466744C11.9799 0.0135397 6.9319 0.0509643 6.21665 0.242282ZM70.5828 3.69116C71.567 4.17203 72.487 5.09264 72.9832 6.09279C73.3554 6.84305 73.3593 6.91226 73.406 13.7411L73.4533 20.6324L63.7382 20.7158C58.3951 20.7618 50.5621 20.8547 46.3317 20.9223L38.6402 21.0454L38.2481 21.498C37.673 22.1623 37.708 23.1007 38.3312 23.7195L38.8061 24.191H44.2547H49.7031L49.4666 24.8566C49.3207 25.2668 49.2301 26.133 49.2301 27.115V28.7078H29.9961C19.4175 28.7078 10.5346 28.7529 10.2566 28.8081C8.96603 29.0644 8.46461 30.6204 9.3893 31.4999L9.84425 31.9327L29.4966 31.9737L49.1488 32.0147L49.1938 34.3134L49.239 36.6121H29.5616H9.88406L9.40912 37.0836C8.90201 37.5871 8.77024 38.4261 9.10154 39.0407C9.5487 39.8703 8.72474 39.8384 29.7239 39.8384H49.2301V42.3387V44.8391H26.2387H3.24726L3.24824 26.1671C3.24873 13.2554 3.30348 7.29602 3.42535 6.84983C3.82961 5.36946 5.10477 4.0183 6.62091 3.46387C7.12981 3.27771 12.2952 3.24658 38.5062 3.27126L69.7842 3.30094L70.5828 3.69116ZM22.0953 11.7258C21.0878 12.0054 21.1666 11.8526 18.7015 18.3113C17.2307 22.1652 17.0671 22.7979 17.3882 23.3933C17.5991 23.7846 18.3776 24.191 18.9164 24.191C19.8406 24.191 20.1914 23.5714 22.0672 18.6257C23.0433 16.0527 23.8906 13.7897 23.9506 13.5964C24.0661 13.224 23.716 12.2086 23.4064 12.0188C23.0831 11.8204 22.3474 11.656 22.0953 11.7258ZM12.5004 12.057C11.7432 12.4324 8.93418 16.989 8.93418 17.8419C8.93418 18.6026 11.7499 23.4738 12.3788 23.8013C13.4914 24.3804 14.7857 23.6174 14.7828 22.3843C14.7823 22.1802 14.243 21.0765 13.5843 19.9317L12.387 17.8501L13.5853 15.8761C14.9415 13.6419 15.0429 13.1775 14.3368 12.4332C13.7569 11.8221 13.2031 11.7086 12.5004 12.057ZM27.3294 12.013C26.7199 12.2758 26.2392 13.1928 26.4146 13.7577C26.4746 13.951 27.0331 14.9576 27.6555 15.9947L28.7874 17.8806L27.6032 19.9228C26.2177 22.3119 26.1241 22.8426 26.9573 23.5817C27.5956 24.1478 28.4052 24.1818 28.9856 23.6667C29.5247 23.1881 32.1799 18.6081 32.28 17.9837C32.3953 17.2644 29.4404 12.3829 28.6699 12.0199C28.0343 11.7204 28.0079 11.7202 27.3294 12.013ZM77.9968 24.029C78.6501 24.2092 79.5105 25.0182 79.767 25.6936C79.8618 25.9433 79.9394 26.4697 79.9394 26.8631V27.5786H66.2096H52.4797V26.756C52.4797 25.3852 53.1768 24.3926 54.3956 24.0277C55.0416 23.8345 77.2957 23.8356 77.9968 24.029ZM79.9394 45.4037V60.0025H66.2096H52.4797V45.4037V30.8048H66.2096H79.9394V45.4037ZM66.6333 40.4433C66.2682 40.7841 65.8138 41.8017 64.6697 44.8391C63.851 47.0128 63.1476 48.893 63.1066 49.0176C62.9797 49.4037 63.3634 50.2848 63.7748 50.5525C64.3462 50.9241 65.2189 50.8757 65.7176 50.4447C66.2291 50.0027 69.2155 42.3615 69.2155 41.4952C69.2155 41.0997 69.0807 40.8088 68.7406 40.4712C68.1017 39.8369 67.2942 39.8261 66.6333 40.4433ZM59.1042 40.4781C58.5574 40.9051 56.2169 44.8373 56.2169 45.3288C56.2169 45.5437 56.8119 46.7519 57.539 48.0137C58.6171 49.8845 58.9633 50.356 59.4137 50.5683C60.4656 51.0638 61.6438 50.2997 61.6438 49.1219C61.6438 48.787 61.3201 48.0584 60.7176 47.0366C60.2083 46.1728 59.7915 45.4259 59.7915 45.3767C59.7915 45.3274 60.1594 44.6824 60.6089 43.9435C61.6305 42.2647 61.8027 41.7943 61.5951 41.2521C61.1939 40.2045 59.9497 39.8179 59.1042 40.4781ZM71.2501 40.5239C70.9975 40.7419 70.7908 41.1281 70.7326 41.4902C70.6475 42.0214 70.7484 42.2808 71.5775 43.6602C72.0955 44.5219 72.5193 45.3054 72.5193 45.4014C72.5193 45.4972 72.1323 46.2265 71.659 47.0218C70.571 48.8506 70.4691 49.4413 71.1172 50.1616C71.5121 50.6002 71.7095 50.6904 72.2762 50.6904C72.7083 50.6904 73.0792 50.5826 73.2854 50.3974C73.8629 49.8785 76.0731 45.927 76.0886 45.3858C76.105 44.8116 73.7964 40.798 73.2188 40.3963C72.7026 40.0374 71.742 40.0997 71.2501 40.5239ZM49.2301 52.9047V57.7441H47.2016C45.1932 57.7441 45.1678 57.7488 44.6462 58.2116C44.2101 58.5984 44.1192 58.7959 44.1192 59.3572C44.1192 59.9186 44.2101 60.1161 44.6462 60.5029C45.1259 60.9286 45.2796 60.9704 46.3643 60.9704H47.5555L48.4497 64.3176L49.3436 67.6649L43.8436 67.7073C40.8186 67.7307 35.8687 67.7307 32.8438 67.7073L27.3437 67.6649L28.2377 64.3176L29.1318 60.9704H30.323C31.4078 60.9704 31.5615 60.9286 32.0411 60.5029C32.7523 59.8722 32.7861 58.9285 32.1214 58.2684L31.6747 57.8248L19.2889 57.7441L6.90314 57.6635L6.17197 57.2834C5.17546 56.7654 4.27985 55.8876 3.76169 54.9211C3.34492 54.1438 3.32737 54.0052 3.27554 51.0899L3.22192 48.0653H26.226H49.2301V52.9047ZM36.122 50.9199C34.9799 51.1408 34.5336 52.7166 35.3681 53.5814L35.8047 54.0339H38.3053H40.806L41.2809 53.5624C42.2051 52.6448 41.7329 51.1661 40.4334 50.908C39.8868 50.7994 36.6992 50.8083 36.122 50.9199ZM37.3345 58.2116C36.8984 58.5984 36.8074 58.7959 36.8074 59.3572C36.8074 60.9694 38.9998 61.5556 39.737 60.1404C40.1983 59.2547 39.97 58.4039 39.1594 57.9877C38.4527 57.6251 37.9224 57.6901 37.3345 58.2116ZM79.9394 64.4133C79.9394 65.8962 79.495 66.843 78.5461 67.3816L77.9084 67.7436L66.0344 67.7042L54.1603 67.6649L53.5466 67.2C52.7381 66.5878 52.4797 65.9201 52.4797 64.4438V63.2288H66.2096H79.9394V64.4133Z" fill="#E49B00"/>
</svg>
