<svg width="68" height="71" viewBox="0 0 68 71" fill="none" xmlns="http://www.w3.org/2000/svg">
<path fill-rule="evenodd" clip-rule="evenodd" d="M14.0233 0.312117C13.7984 0.536841 13.6358 1.00432 13.4433 1.98076C13.2764 2.82667 13.1176 3.31524 13.0215 3.27848C12.9366 3.24616 12.3761 2.90102 11.776 2.5115C11.1758 2.12198 10.5266 1.80334 10.333 1.80334C10.0734 1.80334 9.58499 2.19162 8.46731 3.28652C6.716 5.0022 6.65558 5.17601 7.41507 6.3135C7.66903 6.69401 8.01424 7.23085 8.1821 7.50648L8.48726 8.00768L7.05744 8.30994C6.27102 8.47613 5.5379 8.70099 5.42837 8.80947C5.31883 8.91795 5.19325 9.27334 5.1493 9.59933L5.06948 10.1922L4.32785 10.2982C2.64952 10.5382 1.01835 11.8254 0.370065 13.4214L0.046203 14.2187L0.00699352 30.7123C-0.016588 40.6297 0.0206681 47.5859 0.100622 48.1591C0.349135 49.9418 1.30286 51.2788 2.87543 52.0491L3.80627 52.505L6.41237 52.5504L9.01848 52.5956L9.18034 53.244C9.78829 55.679 11.6867 57.7559 14.0454 58.5662C15.2289 58.9728 17.6733 59.0073 18.6611 58.6315C18.9992 58.5028 19.3074 58.429 19.3459 58.4673C19.3844 58.5056 18.8644 60.6857 18.1903 63.3119C16.8202 68.6488 16.7979 68.8844 17.5761 69.8228C18.8478 71.3568 21.4916 71.3484 22.5014 69.8074C22.7458 69.4343 23.4308 66.9881 24.9571 61.0362C26.1211 56.4967 27.1026 52.7357 27.138 52.6784C27.1733 52.6213 27.9521 52.5744 28.8685 52.5744H30.5347V60.6736V68.7728L30.9232 69.5121C31.2394 70.1137 31.4538 70.3259 32.0743 70.651C32.73 70.9943 32.9437 71.0398 33.5968 70.975C34.5518 70.8804 35.3453 70.351 35.7914 69.511L36.1161 68.8995V60.737V52.5744H37.8603C38.8196 52.5744 39.6045 52.6081 39.6045 52.6493C39.6045 53.0863 43.8973 69.2889 44.1181 69.6851C45.3986 71.9834 49.6473 70.9939 49.6504 68.3965C49.6509 67.944 46.3636 54.6413 45.8016 52.8213C45.7325 52.5975 46.2661 52.5802 54.2825 52.5439L62.8372 52.505L63.7071 52.1055C64.759 51.6226 65.707 50.6637 66.2307 49.5528L66.6046 48.7596L66.6433 36.8186L66.6818 24.8774L66.3889 24.5073C66.0228 24.0445 65.2779 23.9994 64.8605 24.4145C64.5858 24.6875 64.5814 24.8768 64.5814 36.2935C64.5814 44.5852 64.5359 48.0459 64.4222 48.4236C64.2037 49.1484 63.5283 49.9235 62.8471 50.231C62.3035 50.4765 61.4541 50.4876 43.0635 50.4906L23.8478 50.4936L23.6964 49.904C23.3051 48.3812 22.5919 47.1835 21.4507 46.1331C20.5585 45.3119 19.8007 44.8738 18.5347 44.4471C17.4888 44.0947 15.4035 44.093 14.3486 44.4437C11.8378 45.2785 9.88792 47.2501 9.24759 49.6022L9.0002 50.5107L6.53572 50.4674C4.11924 50.4251 4.05994 50.4169 3.49664 50.0458C3.18059 49.8377 2.74594 49.3696 2.53063 49.0054L2.13924 48.3435V32.8763V17.4092L4.51134 17.3716L6.88344 17.334L7.06247 17.7371C7.16084 17.9588 7.83312 18.7091 8.5562 19.4047C10.1974 20.983 10.2991 20.9977 11.9553 19.8955C12.5946 19.4699 13.1346 19.1422 13.1551 19.1672C13.1758 19.1921 13.3039 19.7918 13.4399 20.4998C13.5828 21.2442 13.8015 21.9318 13.9583 22.1298C14.2261 22.4683 14.2559 22.4724 16.4302 22.4724C18.3894 22.4724 18.6565 22.4444 18.8631 22.2173C18.9908 22.0771 19.2224 21.3747 19.3777 20.6567C19.533 19.9387 19.6737 19.3071 19.6904 19.253C19.707 19.1991 20.2544 19.4944 20.9068 19.9092C22.6041 20.9886 22.6172 20.9859 24.4324 19.1756C25.2561 18.3541 25.93 17.6051 25.93 17.511C25.93 17.3763 29.0205 17.3398 40.4062 17.3398H54.8821L50.0017 22.1932L45.1213 27.0464L42.3979 24.3544C38.6494 20.6492 38.7499 20.6602 35.7324 23.6266C33.9744 25.3547 33.744 25.6342 33.744 26.0382C33.744 26.6318 34.1631 27.0501 34.7578 27.0501C35.1552 27.0501 35.4359 26.8283 36.9538 25.3157L38.6942 23.5813L41.347 26.2027C42.8062 27.6444 44.1371 28.893 44.3046 28.9775C44.6959 29.1745 45.5359 29.1746 45.9277 28.9778C46.0953 28.8936 49.576 25.5073 53.6627 21.4527C61.6077 13.5703 61.4374 13.7707 60.8263 13.0203C60.5861 12.7251 60.4288 12.688 59.2314 12.645C58.1379 12.6058 57.8604 12.5503 57.6608 12.3311C57.308 11.9434 57.3493 11.2488 57.7443 10.9308C58.0482 10.6861 58.3141 10.6714 61.7395 10.7096C65.0416 10.7465 65.4341 10.7755 65.658 10.9982C65.8805 11.2193 65.9118 11.6027 65.9523 14.6049C66.0037 18.4026 65.9328 18.8739 65.2696 19.1471C64.8939 19.3017 64.7977 19.2895 64.4678 19.0454C64.1177 18.7861 64.0877 18.6785 64.0121 17.4084C63.9409 16.2136 63.8925 16.0177 63.6129 15.7927C63.4379 15.6518 63.0987 15.5365 62.8592 15.5365C62.4695 15.5365 61.5166 16.4379 53.7685 24.1371L45.1132 32.7375L42.4636 30.0984C39.6301 27.2761 39.3093 27.0589 38.2574 27.251C37.786 27.337 37.1525 27.9117 33.0397 31.9853C29.9166 35.0785 28.2625 36.6217 28.0701 36.6217C27.5775 36.6217 27.0463 36.0989 27.0463 35.6142C27.0463 35.2388 27.3858 34.8421 29.6187 32.6072C31.2187 31.0057 32.2262 29.8897 32.2841 29.6546C32.3596 29.3482 32.2947 29.1946 31.9408 28.8428C31.5878 28.4918 31.4319 28.4265 31.1243 28.5005C30.5997 28.6264 25.5666 33.5992 25.2209 34.3329C24.5887 35.6744 25.1262 37.4235 26.4137 38.2149C27.2782 38.7462 28.4703 38.7906 29.3487 38.3242C29.6562 38.1608 31.8787 36.0628 34.2995 33.6505L38.6922 29.2733L41.4158 31.9663C43.1662 33.697 44.2795 34.694 44.5315 34.756C44.7472 34.8092 45.182 34.8183 45.4978 34.7761C46.0396 34.7038 46.5179 34.2563 53.9897 26.8292L61.9073 18.9588L62.1124 19.4471C62.6566 20.7419 64.2157 21.5441 65.5631 21.2227C66.5057 20.998 67.2686 20.412 67.6675 19.6065C67.9947 18.9459 68 18.8702 68 14.9123C68 11.2508 67.9766 10.8459 67.7395 10.4039C67.3735 9.72182 66.9723 9.31454 66.3256 8.96858C65.7903 8.68213 65.5989 8.66992 61.6511 8.66992C57.6508 8.66992 57.5184 8.67866 56.9481 8.98176C56.6253 9.15321 56.1858 9.51208 55.9713 9.77939L55.5813 10.2652H41.6627H27.744V9.77051C27.744 8.81446 27.5076 8.64758 25.5812 8.2435C24.9672 8.11477 24.4459 7.99339 24.4228 7.97397C24.3996 7.95455 24.7292 7.40702 25.1553 6.75713C25.6272 6.03731 25.93 5.4239 25.93 5.18766C25.93 4.63626 23.0958 1.80334 22.5442 1.80334C22.3306 1.80334 21.6658 2.12822 20.9827 2.5663C20.3284 2.98592 19.7701 3.32925 19.7422 3.32925C19.7142 3.32925 19.584 2.81432 19.4528 2.18482C19.1539 0.750607 18.9816 0.302268 18.6643 0.133447C18.5263 0.0600652 17.496 0 16.3747 0C14.446 0 14.319 0.0169237 14.0233 0.312117ZM17.3273 2.32354C17.3642 2.45699 17.4987 3.05237 17.6264 3.64636C17.8412 4.64708 17.8984 4.75292 18.4032 5.08501C18.7029 5.28227 19.2181 5.47384 19.5482 5.51074C20.0864 5.57108 20.2625 5.50519 21.2589 4.87055L22.3697 4.16309L22.9752 4.76499L23.5807 5.36689L22.8587 6.46346C22.2107 7.44781 22.1435 7.62093 22.2026 8.15222C22.2388 8.47793 22.4306 8.98814 22.629 9.28611C22.9631 9.78799 23.0696 9.84487 24.0762 10.0584C25.8141 10.4272 25.6693 10.3125 25.6225 11.2821L25.5812 12.1377L24.3986 12.3858C23.1195 12.6541 22.6789 12.9359 22.3539 13.694C22.018 14.4777 22.1227 14.9711 22.8622 16.0914L23.549 17.1318L22.9427 17.7371L22.3363 18.3425L21.2239 17.6331C20.0086 16.8581 19.7199 16.8027 18.8835 17.1846C18.0969 17.5436 17.8474 17.8793 17.6185 18.8867C17.5082 19.3711 17.3849 19.9108 17.3441 20.0861C17.2755 20.3822 17.2091 20.4018 16.4026 20.3635L15.5348 20.3223L15.2892 19.1432C15.0122 17.8133 14.6429 17.3339 13.6932 17.0717C12.8819 16.8478 12.788 16.873 11.6239 17.6285L10.5377 18.3335L9.92016 17.7195L9.30257 17.1055L10.0117 16.0258C10.7863 14.8462 10.8496 14.5111 10.4582 13.6638C10.0816 12.8484 9.78941 12.6593 8.48238 12.3852L7.30205 12.1377L7.26061 11.2751C7.21428 10.3114 7.08479 10.4262 8.55787 10.1242C9.75453 9.87899 9.98783 9.7307 10.3667 8.97468C10.5615 8.58641 10.7207 8.11546 10.7207 7.92833C10.7207 7.74106 10.3996 7.09019 10.0071 6.48191L9.2935 5.37604L9.90299 4.76998L10.5125 4.16406L11.5584 4.85599C12.755 5.64765 13.2135 5.71687 14.1805 5.25147C14.8692 4.92007 15.0585 4.58868 15.3185 3.25989C15.5603 2.02377 15.5067 2.08078 16.4278 2.08078C17.1018 2.08078 17.2728 2.12697 17.3273 2.32354ZM15.7066 6.95022C14.7493 7.09713 13.8987 7.55115 13.2312 8.27096C12.3728 9.19677 12.0605 9.98636 12.0581 11.2362C12.0548 13.0175 12.9845 14.4674 14.6277 15.2434C15.7325 15.7651 17.1789 15.7535 18.2881 15.2138C19.2937 14.7249 20.2501 13.682 20.5724 12.7233C21.6395 9.54953 19.0197 6.4414 15.7066 6.95022ZM17.7284 9.37891C19.3532 10.4119 18.9348 12.8957 17.0412 13.4597C16.1755 13.7176 15.5074 13.5345 14.8199 12.851C14.0307 12.0664 13.8876 11.261 14.3679 10.3087C15.0553 8.94569 16.4433 8.56172 17.7284 9.37891ZM5.13925 12.8907C5.13925 13.6398 5.53441 13.9129 7.05061 14.2119C7.7261 14.3452 8.32512 14.4824 8.38192 14.517C8.43857 14.5516 8.38429 14.7328 8.26122 14.9195L8.0374 15.2591H5.07213H2.107L2.20426 14.7389C2.45347 13.4054 3.5618 12.3683 4.75553 12.3514C5.10995 12.3464 5.13925 12.3876 5.13925 12.8907ZM55.372 12.5303C55.372 12.9221 56.2214 13.9661 56.7961 14.2807C57.1257 14.4611 57.4211 14.63 57.4527 14.6556C57.484 14.6814 57.3959 14.8276 57.2566 14.9808C57.0057 15.2563 56.8425 15.2591 40.9117 15.2591H24.8202L24.5888 14.908C24.4614 14.7149 24.3816 14.5365 24.4112 14.5115C24.4408 14.4865 25.0589 14.3534 25.7849 14.2155C27.3248 13.9231 27.744 13.6283 27.744 12.8377V12.346H41.558C52.9518 12.346 55.372 12.3783 55.372 12.5303ZM8.35875 26.3059C8.09377 26.6406 8.0695 26.8558 8.0695 28.8657C8.0695 31.2117 8.16089 31.637 8.71931 31.89C8.9501 31.9945 10.825 32.044 14.5566 32.044H20.0539L20.4455 31.7093L20.837 31.3744V28.9226C20.837 26.5132 20.8313 26.4661 20.5076 26.2056C20.1951 25.954 19.8815 25.9404 14.4131 25.9404H8.64787L8.35875 26.3059ZM18.7853 28.9575L18.744 29.8939L14.4532 29.9305L10.1625 29.9673V28.9942V28.0212H14.4945H18.8264L18.7853 28.9575ZM8.67843 34.0097C8.37271 34.1567 8.0695 34.6695 8.0695 35.0394C8.0695 35.1537 8.22368 35.4003 8.41206 35.5876L8.75447 35.9281H12.8074C16.6742 35.9281 16.8731 35.9154 17.1393 35.6507C17.5548 35.2376 17.5114 34.4952 17.0507 34.1349C16.6982 33.8592 16.5242 33.8478 12.8297 33.8568C10.4812 33.8625 8.8601 33.9221 8.67843 34.0097ZM46.7843 39.3205C46.5959 39.5078 46.4418 39.8227 46.4418 40.0203C46.4418 40.218 46.5959 40.5329 46.7843 40.7202L47.1267 41.0607H53.3878H59.6489L59.9524 40.7397C60.3816 40.2854 60.3532 39.6311 59.8881 39.2675C59.5287 38.9863 59.3815 38.98 53.3237 38.98H47.1267L46.7843 39.3205ZM38.6913 43.8982C38.5029 44.0855 38.3487 44.4004 38.3487 44.5981C38.3487 44.7957 38.5029 45.1106 38.6913 45.2979L39.0337 45.6385H49.2771C59.4288 45.6385 59.5238 45.6358 59.8881 45.3509C60.3966 44.9533 60.3966 44.2428 59.8881 43.8452C59.5238 43.5603 59.4288 43.5577 49.2771 43.5577H39.0337L38.6913 43.8982ZM17.5287 46.3375C19.1379 46.7064 20.4999 47.7696 21.2164 49.2163C21.6416 50.0743 21.6742 50.2396 21.6742 51.5307C21.6742 52.7694 21.6304 53.0154 21.2732 53.7843C20.781 54.8435 19.6907 55.9102 18.57 56.4288C17.8787 56.7487 17.583 56.8006 16.4416 56.8028C15.2903 56.805 15.0104 56.7561 14.3133 56.4313C13.2832 55.9514 12.0733 54.8122 11.6327 53.9073C10.9618 52.5296 10.9314 50.69 11.5565 49.2852C11.8787 48.5613 12.9629 47.3905 13.7193 46.9498C14.8339 46.3004 16.3233 46.061 17.5287 46.3375ZM15.7474 49.3804C15.3531 49.7724 15.2942 50.1414 15.3477 51.8833C15.3915 53.3143 15.4201 53.4518 15.7246 53.6966C16.1517 54.0402 16.7868 54.0345 17.1393 53.6841C17.3906 53.4343 17.4184 53.2218 17.4184 51.5441C17.4184 49.6971 17.4153 49.679 17.0507 49.394C16.588 49.0321 16.1028 49.0271 15.7474 49.3804ZM24.9017 52.8171C24.863 52.9506 23.9432 56.5244 22.8579 60.7588C21.7585 65.048 20.7872 68.5652 20.6647 68.7004C20.3778 69.0173 19.7648 69.0099 19.361 68.6849L19.0402 68.4266L20.5849 62.4079C21.9512 57.0839 22.1864 56.3036 22.6225 55.6474C23.0909 54.9426 23.5787 53.7876 23.7594 52.9559C23.8332 52.6161 23.9041 52.5744 24.4072 52.5744C24.8791 52.5744 24.9605 52.6143 24.9017 52.8171ZM33.9893 60.6514L33.9533 68.7285L33.5738 68.8611C33.2731 68.9662 33.1355 68.9408 32.911 68.7389C32.6326 68.4885 32.6277 68.3474 32.6277 60.5292V52.5744H33.3265H34.0253L33.9893 60.6514ZM45.5729 60.308C46.6652 64.5615 47.5587 68.1303 47.5585 68.2386C47.5571 68.9124 46.3423 69.2122 45.9683 68.6311C45.8578 68.4593 44.8811 64.8545 43.7977 60.6201C42.7143 56.3857 41.8007 52.8432 41.7672 52.7478C41.7224 52.6203 41.955 52.5744 42.6465 52.5744H43.5867L45.5729 60.308Z" fill="white"/>
</svg>
