<svg width="70" height="71" viewBox="0 0 70 71" fill="none" xmlns="http://www.w3.org/2000/svg">
<path fill-rule="evenodd" clip-rule="evenodd" d="M11.4668 0.327417C10.6705 0.697963 9.94024 1.49661 9.73984 2.21606C9.66545 2.48302 9.60439 4.4331 9.60397 6.54973L9.60314 10.398H6.364H3.12472L2.26677 10.8264C1.25964 11.3294 0.54631 12.1688 0.234609 13.2179C-0.0782029 14.2704 -0.0782029 55.2013 0.234609 56.2539C0.54631 57.303 1.25964 58.1424 2.26677 58.6454L3.12472 59.0737H7.0579C10.8059 59.0737 11.004 59.0607 11.2685 58.7964C11.6818 58.3834 11.6386 57.6412 11.1804 57.2811C10.8316 57.0069 10.647 56.9936 7.17628 56.9936C3.6246 56.9936 3.52663 56.9861 3.06629 56.6788C2.1323 56.0553 2.1094 55.9179 2.10926 50.9265L2.10898 46.4541H35H67.891L67.8907 50.9265C67.8906 55.8477 67.8652 56.0127 67.0135 56.6371L66.6217 56.9243L40.8063 56.9936L14.991 57.0629L14.7258 57.3903C14.3825 57.814 14.3894 58.2528 14.7469 58.7068L15.0333 59.0707L20.6798 59.1069L26.3262 59.1431V61.915V64.6867L25.6453 64.7841C23.3444 65.113 21.4234 67.186 21.2862 69.4879C21.2349 70.3495 21.2538 70.4198 21.612 70.7013L21.9921 71H35H48.0079L48.388 70.7013C48.7462 70.4196 48.7652 70.3492 48.716 69.4786C48.5861 67.1825 46.6533 65.1126 44.3288 64.7803L43.6738 64.6867V61.915V59.1431L55.4008 59.0737L67.1277 59.0044L67.8742 58.5913C68.7633 58.0993 69.4805 57.2128 69.7654 56.2539C70.0782 55.2013 70.0782 14.2704 69.7654 13.2179C69.4537 12.1688 68.7404 11.3294 67.7332 10.8264C66.188 10.0549 64.9766 10.3193 64.9766 11.428C64.9766 11.9905 65.4914 12.4782 66.0851 12.4782C66.6065 12.4782 67.3574 13.0125 67.6479 13.5904C67.8745 14.0411 67.8906 15.0763 67.8907 29.2235L67.891 44.374H64.0052H60.1193V28.4261V12.4782H61.1414C62.4046 12.4782 62.8949 12.1846 62.8949 11.428C62.8949 10.6239 62.5296 10.398 61.2295 10.398H60.1193L60.1185 6.54973C60.118 4.4331 60.057 2.48302 59.9826 2.21606C59.7822 1.49661 59.0519 0.697963 58.2556 0.327417L57.5519 0H34.8612H12.1706L11.4668 0.327417ZM57.3913 2.23132C57.5773 2.31605 57.7988 2.53738 57.8835 2.72321C57.989 2.95466 58.0376 5.0032 58.0376 9.22578V15.3904H39.9869C26.5298 15.3904 21.8593 15.4315 21.6332 15.5517C20.9419 15.9196 20.8037 16.5119 21.2708 17.1052L21.5584 17.4706H39.7981H58.0376V30.9223V44.374H34.8612H11.6848V30.9223V17.4706H14.3696C16.8837 17.4706 17.0704 17.4528 17.3071 17.1914C17.6535 16.8089 17.6292 16.1377 17.2556 15.764C16.9673 15.4756 16.8146 15.4575 14.3182 15.4166L11.6848 15.3736V9.21733C11.6848 2.78714 11.7079 2.52143 12.2905 2.23964C12.7236 2.0301 56.9314 2.02191 57.3913 2.23132ZM18.1143 4.74692C17.6298 5.28596 14.3217 11.1678 14.3217 11.4902C14.3217 11.6592 14.475 11.9505 14.6624 12.1377L15.003 12.4782H18.8709C22.7347 12.4782 22.7393 12.4778 23.0407 12.1573C23.2067 11.9807 23.3424 11.6608 23.3424 11.4464C23.3424 11.0323 19.9019 4.92512 19.49 4.60825C19.1249 4.32729 18.4283 4.3976 18.1143 4.74692ZM27.9463 6.00389C27.5455 6.43033 27.5541 7.07518 27.9658 7.46167L28.287 7.76315H37.7257H47.1643L47.4661 7.44226C47.8669 7.01582 47.8583 6.37097 47.4467 5.98448L47.1254 5.68299H37.6868H28.2482L27.9463 6.00389ZM19.7259 9.02332C20.1217 9.71892 20.4187 10.315 20.3858 10.3477C20.3529 10.3806 19.6356 10.3897 18.7915 10.3681L17.257 10.3287L18.0245 8.97741C18.4467 8.23424 18.8402 7.65596 18.8992 7.69243C18.9582 7.72876 19.3301 8.32771 19.7259 9.02332ZM28.3385 10.219C27.7071 10.4511 27.4516 11.1652 27.7805 11.7794C28.0428 12.2691 28.6724 12.3395 32.7655 12.3374C37.0222 12.3352 37.2438 12.3029 37.6227 11.6285C37.9055 11.1248 37.6292 10.4708 37.0478 10.2684C36.6112 10.1162 28.7396 10.0717 28.3385 10.219ZM9.60314 28.4261V44.374H5.85606H2.10898L2.10926 29.2235C2.1094 12.3193 2.04195 13.4767 3.06629 12.793C3.52066 12.4897 3.64861 12.4782 6.5705 12.4782H9.60314V28.4261ZM14.9094 20.6653C14.7366 20.7346 14.5336 20.9532 14.4584 21.1508C14.2509 21.6962 14.2746 41.068 14.4834 41.5258C14.5858 41.7505 14.8273 41.9332 15.1426 42.0248C15.4727 42.1205 18.9418 42.1551 25.4551 42.1274L35.2699 42.0858L35.5861 41.7699L35.9021 41.4541V31.3225V21.1909L35.5127 20.8562L35.1232 20.5215L25.1735 20.5302C19.5443 20.5352 15.0873 20.5939 14.9094 20.6653ZM39.3051 21.5346C38.731 21.7316 38.4824 22.2577 38.688 22.8414C38.9447 23.5711 38.9097 23.5681 47.2543 23.5703C55.4317 23.5725 55.6332 23.5578 55.8697 22.9421C56.127 22.272 55.8227 21.6926 55.105 21.4869C54.3922 21.2827 39.9126 21.3265 39.3051 21.5346ZM33.751 28.1597V33.7179L33.3231 33.624C32.4903 33.4412 31.1859 33.816 29.9439 34.5951C28.5707 35.4567 28.1004 35.6373 27.2297 35.6373C26.3603 35.6373 25.2867 35.0822 23.6414 33.7819C21.2435 31.8872 19.6665 31.4234 17.4442 31.9596C16.9863 32.0701 16.5647 32.1627 16.5075 32.1654C16.379 32.1715 16.3674 22.8224 16.496 22.6941C16.5467 22.6432 20.45 22.6016 25.1697 22.6016H33.751V28.1597ZM27.081 25.1454C25.682 25.5291 24.8682 26.5333 24.7627 28.0057C24.6898 29.0247 24.8707 29.605 25.4899 30.339C26.0981 31.0596 26.872 31.3965 27.933 31.4025C28.7121 31.4069 28.9456 31.3461 29.5254 30.988C31.2991 29.8922 31.6371 27.4935 30.2226 26.0382C29.378 25.1691 28.2072 24.8364 27.081 25.1454ZM38.974 26.356C38.496 26.7317 38.4755 27.4209 38.9294 27.8472L39.2507 28.1487H47.3157H55.3806L55.6682 27.7833C56.0498 27.2986 56.0315 26.8249 55.6152 26.409L55.2746 26.0686H47.3071C39.4568 26.0686 39.3343 26.0727 38.974 26.356ZM28.7447 27.5434C29.1206 28.0207 29.1088 28.4607 28.7074 28.9268C28.29 29.4118 27.6417 29.434 27.1578 28.9797C26.4496 28.315 26.932 27.178 27.9222 27.178C28.3348 27.178 28.523 27.2615 28.7447 27.5434ZM39.203 30.8496C38.4427 31.1799 38.4198 32.3083 39.1658 32.6854C39.6286 32.9195 54.5774 32.9428 55.2442 32.7105C56.2237 32.3692 56.2004 31.1665 55.2069 30.789C54.9605 30.6954 52.1666 30.6468 47.2384 30.6503C41.0531 30.6548 39.5666 30.6916 39.203 30.8496ZM20.1245 34.0602C20.5259 34.1899 21.3166 34.6653 21.9792 35.1756C24.6524 37.2342 25.6503 37.7174 27.2279 37.7174C28.4845 37.7174 29.4441 37.4033 30.7564 36.562C31.7627 35.917 31.9529 35.8461 32.8082 35.7979L33.751 35.7446V37.8405V39.9363H25.0741H16.3974L16.435 37.2667L16.4728 34.5972L17.0156 34.3325C18.1041 33.8015 19.0623 33.7176 20.1245 34.0602ZM38.974 35.6474C38.496 36.0231 38.4755 36.7123 38.9294 37.1386L39.2507 37.4401H47.2627H55.2746L55.6152 37.0996C55.8025 36.9124 55.9559 36.5976 55.9559 36.4C55.9559 36.2024 55.8025 35.8876 55.6152 35.7004L55.2746 35.3599H47.3071C39.4568 35.3599 39.3343 35.3641 38.974 35.6474ZM39.203 40.141C38.3772 40.4997 38.4076 41.6115 39.2528 41.9644C39.6605 42.1346 40.4149 42.1639 43.4932 42.1286C47.2373 42.0858 47.2377 42.0858 47.5028 41.7584C48.0021 41.1417 47.7889 40.3448 47.0562 40.0895C46.3693 39.8503 39.7725 39.8936 39.203 40.141ZM34.5677 48.7257C33.4054 49.1407 32.5813 50.1357 32.4188 51.3204C32.1686 53.1446 33.7114 54.9107 35.5551 54.9107C36.27 54.9107 37.4128 54.425 37.8711 53.9263C38.3442 53.4116 38.7408 52.4095 38.7426 51.7239C38.7446 51.0095 38.26 49.8692 37.7592 49.4096C36.9199 48.6393 35.6009 48.3566 34.5677 48.7257ZM36.3531 51.1188C36.5249 51.3075 36.6654 51.5491 36.6654 51.6558C36.6654 52.0668 36.3341 52.5445 35.9344 52.71C35.4195 52.923 34.8891 52.6786 34.6107 52.1002C34.3842 51.6293 34.6153 51.0579 35.1388 50.7949C35.5732 50.5766 35.9516 50.6775 36.3531 51.1188ZM41.5227 61.9166V64.7595H35H28.4773V61.9166V59.0737H35H41.5227V61.9166ZM45.1927 67.3251C45.5794 67.5672 46.0013 67.9874 46.202 68.3305L46.547 68.9198H35.0092H23.4715L23.6348 68.6078C24.0165 67.8786 24.3579 67.536 25.0417 67.1955L25.7675 66.8341L35.1479 66.8716L44.5284 66.909L45.1927 67.3251Z" fill="white"/>
</svg>
