<svg width="74" height="71" viewBox="0 0 74 71" fill="none" xmlns="http://www.w3.org/2000/svg">
<path fill-rule="evenodd" clip-rule="evenodd" d="M6.63162 0.117403C6.0374 0.381279 2.29095 3.61408 2.10696 4.02178C1.88514 4.51322 2.08769 5.32661 2.51676 5.66744C3.17849 6.19289 3.84936 6.06837 4.83997 5.2361L5.70382 4.51019V33.1945V61.8787H3.41287C0.90981 61.8787 0.472745 61.9848 0.164859 62.6674C-0.125328 63.3104 -0.0396853 63.7468 0.479597 64.2711L0.964907 64.7611H3.33436H5.70382V67.2737C5.70382 68.6556 5.7652 69.9494 5.84013 70.1485C6.02869 70.6491 6.63904 71.017 7.25167 70.9994C7.63592 70.9884 7.86588 70.8716 8.1622 70.5368L8.55858 70.0887V67.4249V64.7611H38.5456H68.5326L68.0568 65.348C67.795 65.671 67.4688 66.1087 67.3318 66.3208C66.5252 67.5705 67.9443 69.0528 69.2004 68.2727C69.6874 67.9702 72.7862 64.263 72.9758 63.756C73.216 63.1135 72.9911 62.6793 71.4685 60.8453C69.2662 58.1924 69.2018 58.1317 68.5895 58.1317C67.9127 58.1317 67.5657 58.3243 67.2968 58.8494C66.8907 59.6424 66.9545 59.8228 68.2283 61.4824L68.5325 61.8787H61.5977H54.6631V42.6765V23.4742L57.8353 20.2691L61.0075 17.064L62.9496 19.0069C65.0304 21.0885 65.2116 21.1883 66.085 20.7323C66.3142 20.6125 66.568 20.3899 66.6488 20.2372C66.7446 20.0565 66.7958 17.1428 66.7958 11.869V3.77794L66.3786 3.35669L65.9614 2.93544H57.946H49.9307L49.5135 3.35669C49.1833 3.69003 49.0963 3.90563 49.0963 4.39C49.0963 4.98332 49.1563 5.06316 51.0551 6.99792L53.0137 8.99378L49.8823 12.1578L46.7509 15.3219L39.442 15.3617L32.1332 15.4014L31.7671 15.7488C31.0895 16.3917 31.1943 17.6497 31.9598 18.0633C32.1352 18.1581 34.3374 18.2117 38.0599 18.2117H43.8855L35.4648 26.7145L27.0441 35.2174H17.8013H8.55858V26.7145V18.2117H14.563C18.4082 18.2117 20.6661 18.1584 20.8419 18.0633C21.1882 17.8762 21.5478 17.1857 21.5478 16.7079C21.5478 16.5071 21.3604 16.131 21.1314 15.8721L20.715 15.4014L14.6368 15.361L8.55858 15.3205V9.90805V4.49578L9.42743 5.22875C10.1533 5.8411 10.3902 5.96187 10.8658 5.96187C11.9074 5.96187 12.6022 4.84079 12.1222 3.93517C12.0029 3.71006 8.81794 0.873578 7.98763 0.252872C7.61551 -0.0252717 7.07453 -0.079315 6.63162 0.117403ZM63.941 10.8945V15.9711L62.8273 14.8532C61.5889 13.6102 61.0482 13.3841 60.2877 13.7917C60.0596 13.9139 49.2106 24.7835 36.1786 37.9463L12.4842 61.8787H10.5214H8.55858V59.9702V58.0617L32.4511 33.9213C51.0955 15.0837 56.3598 9.68755 56.4169 9.35594C56.5328 8.68177 56.2966 8.27536 55.0513 7.00671L53.8843 5.81775H58.9127H63.941V10.8945ZM26.1154 15.4859C25.1887 15.8612 24.9589 17.0663 25.6762 17.7905C26.7021 18.8262 28.4199 17.7835 27.9676 16.3997C27.7129 15.6208 26.8426 15.1915 26.1154 15.4859ZM51.8083 44.1525V61.8787H43.3867H34.9652V52.6198V43.3608L43.3506 34.8935C47.9626 30.2366 51.7523 26.4263 51.7722 26.4263C51.792 26.4263 51.8083 34.4031 51.8083 44.1525ZM24.1171 38.1361C24.1171 38.1563 20.6164 41.7067 16.3378 46.026L8.55858 53.8793V45.9896V38.0997H16.3378C20.6164 38.0997 24.1171 38.1161 24.1171 38.1361ZM32.1104 54.0965V61.8787H24.3673H16.6243L24.3312 54.0965C28.5699 49.8163 32.0543 46.3143 32.0743 46.3143C32.0941 46.3143 32.1104 49.8163 32.1104 54.0965Z" fill="#E49B00"/>
</svg>
