<svg width="61" height="71" viewBox="0 0 61 71" fill="none" xmlns="http://www.w3.org/2000/svg">
<path fill-rule="evenodd" clip-rule="evenodd" d="M28.6091 0.85114C25.1923 2.746 24.1621 3.2889 21.5511 4.57005C15.8085 7.38797 9.668 9.76353 3.37373 11.6023C1.15706 12.2499 0.730592 12.4193 0.393471 12.7864L0 13.2147L0.0560699 23.3733C0.103331 31.9554 0.148495 33.7797 0.347048 35.1286C1.47433 42.7872 3.87822 48.9253 8.07426 54.8593C13.0083 61.8373 21.1976 68.2821 28.0249 70.5603C30.4258 71.3615 32.1729 71.1101 35.7017 69.4559C42.0868 66.4629 48.6592 60.8931 52.9257 54.8593C57.1218 48.9253 59.5257 42.7872 60.653 35.1286C60.8515 33.7797 60.8967 31.9554 60.9439 23.3733L61 13.2147L60.6065 12.7864C60.2693 12.4193 59.8432 12.25 57.6263 11.6027C49.0899 9.10983 41.1977 5.7429 32.2478 0.776023C31.4788 0.349203 30.6909 0 30.4968 0C30.3027 0 29.4533 0.383082 28.6091 0.85114ZM33.0644 4.63503C40.6547 8.75605 48.2978 11.9378 56.6125 14.4377L58.0458 14.8687L58.0451 22.187C58.0448 26.212 57.9798 30.5362 57.9008 31.7962C57.2285 42.5092 52.9242 51.7997 45.2318 59.1417C41.1353 63.0514 36.6672 66.0121 32.5686 67.5323C30.7999 68.1882 30.2001 68.1882 28.4314 67.5323C24.3328 66.0121 19.8647 63.0514 15.7682 59.1417C8.0758 51.7997 3.77153 42.5092 3.09925 31.7962C3.02024 30.5362 2.95523 26.212 2.95495 22.187L2.95425 14.8687L4.38747 14.4402C6.99844 13.6597 11.6513 12.0712 13.9258 11.1835C18.6251 9.34976 24.56 6.56322 28.5424 4.32082C29.5037 3.77945 30.3746 3.33569 30.4776 3.33444C30.5807 3.33333 31.7447 3.91857 33.0644 4.63503ZM19.6393 12.0376C19.2243 12.1178 18.6611 12.7031 18.5766 13.1418C18.4692 13.6995 18.7299 14.4177 19.1354 14.6815C19.5964 14.9814 20.4118 14.9676 20.8976 14.6515C21.7886 14.0719 21.6398 12.5541 20.6518 12.1442C20.3823 12.0324 20.1126 11.9494 20.0525 11.9598C19.9923 11.9702 19.8064 12.0052 19.6393 12.0376ZM15.1191 13.8741C14.9269 13.9384 13.7628 14.3647 12.5323 14.8214C11.3019 15.2782 9.48077 15.9195 8.48549 16.2466C7.42868 16.5939 6.5461 16.9702 6.36433 17.1507C5.93059 17.5814 5.86235 18.2459 5.91479 21.5219C5.95408 23.9633 5.99561 24.4191 6.20716 24.7283C6.6609 25.3913 7.40883 25.5701 8.14571 25.1918C8.8496 24.8304 8.96677 24.3209 8.96677 21.6227V19.2158L9.98051 18.8957C12.845 17.9914 16.4394 16.5744 16.8189 16.1998C17.9137 15.1192 16.6339 13.368 15.1191 13.8741ZM42.7348 21.7079C42.4272 21.8078 41.9238 22.051 41.6162 22.2488C41.3086 22.4463 37.5972 26.0493 33.3687 30.255L25.6806 37.902L22.672 34.9263C19.0744 31.3682 18.763 31.1714 16.7271 31.1714C15.673 31.1714 15.3553 31.2268 14.7696 31.513C12.2723 32.7331 11.2371 35.5214 12.3706 37.975C12.7067 38.7026 13.3879 39.4353 17.7476 43.7582C23.5741 49.5355 23.5174 49.4941 25.6061 49.4973C27.9644 49.5009 27.1946 50.1325 38.4284 38.9761C49.6211 27.8604 49.027 28.5705 49.027 26.3117C49.027 25.2494 48.9719 24.9476 48.6599 24.2984C48.1891 23.3187 47.2749 22.4112 46.3004 21.9559C45.3913 21.5312 43.653 21.4104 42.7348 21.7079ZM44.8581 24.5854C45.7844 24.9339 46.2788 25.8769 46.0203 26.8021C45.9147 27.1801 43.8029 29.3495 36.2004 36.8896C27.4262 45.5919 26.4631 46.505 25.9639 46.5948C25.5317 46.6724 25.288 46.628 24.8333 46.3885C24.4934 46.2094 22.3711 44.2061 19.7001 41.5431C14.9112 36.7685 14.7051 36.5096 14.9318 35.5536C15.0832 34.9148 15.6489 34.3141 16.2506 34.1532C17.3124 33.8692 17.5413 34.0321 21.3414 37.7767C23.264 39.6712 25.0145 41.2876 25.2312 41.3687C25.4481 41.4497 25.7942 41.4773 26.0003 41.4299C26.2503 41.3726 29.1476 38.5986 34.6948 33.1054C39.2706 28.5743 43.2032 24.7707 43.4339 24.6531C43.9283 24.4008 44.3182 24.3823 44.8581 24.5854ZM46.8406 48.1826C46.7148 48.2556 46.1832 48.9158 45.6593 49.6499C43.7523 52.3212 41.5517 54.6657 38.8517 56.9024C37.4302 58.0799 37.1603 58.4344 37.1851 59.0906C37.2094 59.7324 37.4138 60.0743 37.9319 60.3404C38.6569 60.7126 39.1569 60.5081 40.8105 59.1628C44.3097 56.316 49.0969 50.7601 49.0969 49.5458C49.0969 48.9751 48.7286 48.3317 48.312 48.1744C47.8663 48.0061 47.1381 48.0101 46.8406 48.1826ZM34.3296 60.1185C33.4042 60.4898 33.1504 61.7429 33.8444 62.5142C34.9337 63.7249 36.9545 62.4126 36.3207 60.906C36.004 60.1535 35.1169 59.8026 34.3296 60.1185Z" fill="#E49B00"/>
</svg>
