<?xml version="1.0" encoding="utf-8"?>
<!-- Generator: Adobe Illustrator 19.2.1, SVG Export Plug-In . SVG Version: 6.00 Build 0)  -->
<svg version="1.1" id="layer" xmlns="http://www.w3.org/2000/svg" xmlns:xlink="http://www.w3.org/1999/xlink" x="0px" y="0px"
	 viewBox="0 0 652 652" style="enable-background:new 0 0 652 652;" xml:space="preserve">
<path d="M212.7,293.1c0,0-15.6,3.7-29.2,3.9c-5.8,0.1-10.8-1.7-15-2.6c2.3,3.5,5.7,6.2,9.7,7.6c3.7,1.4,8.8,3.5,6.5,7
	c-2.6,4-6.5,0.6-7.6-0.2c-3.7-2.8-5.5-4.9-12.1-8.8c-7.3-4.3-17.5-4.4-27.7-3.4c0,0,8.4,1.8,12.1,5.6c0,0-16.2-3.3-26.7,1.8
	c15.3,0.6,32.2,3,35.1,4.3s1.5,2.3-1.3,2.9c-6.9,1.5-19.4,2-27.3-0.3c-11.3-3.3-20.8-12.7-36.9-10.1c14.2,3,21.8,16.3,37.4,19.5
	c15.5,3.2,26-3,29.5-3.9c3.5-0.8,6.7,0.3,7.5,2.7s-2.3,5.4-6.5,6.2c-3.2,0.6-4.2,0.7-9.9,1.2c-9.4,1-18.9,0.3-28-2.3
	c-14.5-3.8-24.5-13.4-29.3-15.9c-4.4-2.3-9.2-3.7-14.2-4.4c0,0,7.8,4.1,10.8,9.1c-7-2.7-17.3-4.3-30.9-1.5c-13,2.6-25.7,6.4-38,11.4
	c8.5,2.5,19.3,0.6,24,0.2c25.4-2.1,34,3.5,41.9,6.4c24.8,8.8,33.3,0.9,35,3.5c1.2,1.9-6.7,5.1-8.9,5.6c-11.1,2.1-16.6,0.1-27-2.4
	c5.1,5.1,14.9,8.8,26,8.4c11.3-0.6,23.2-2.3,32.7-6.3c6.8-3,13.8-5.6,20.9-7.7c2.2-0.6,9.9-2.7,11.5-0.5c0.9,1.2-0.6,2.2-3,3.3
	c-1.9,0.8-4.5,1.6-6.8,2.6c-5.5,2.1-15.8,5.9-19,8.6c9.5-1.4,19.1-2.1,28.7-2.2c14.1,0,23.8,3,34.5,7c11.4,4.2,21.4,2.8,30-4.3
	c7.7-6.4,11.3-14,11.1-22.7c0-8-3.2-15.6-8.9-21.2C235.8,293.3,225.6,290.7,212.7,293.1z M223.2,346.1c-13.3,0-24-10.8-24-24
	c0-13.3,10.8-24,24-24c13.3,0,24,10.8,24,24C247.2,335.4,236.5,346.1,223.2,346.1L223.2,346.1z M218.5,304c-0.4,0.4-0.7,0.8-0.9,1.3
	c-6.1,0.3-11,5.1-11.2,11.2c-0.5,0.3-0.9,0.6-1.3,0.9c-3.7,3.7-1.6,11.8,4.7,18.1c6.3,6.3,14.4,8.4,18.1,4.7
	c0.4-0.4,0.7-0.8,0.9-1.3c6.1-0.2,11.1-5.1,11.3-11.2c0.5-0.2,0.9-0.6,1.3-0.9c3.7-3.7,1.6-11.8-4.7-18.1
	C230.4,302.4,222.2,300.3,218.5,304z M229.7,314.3l-7.1,2l-0.5-8.5C222.1,307.8,229.6,306.9,229.7,314.3z M226.4,321.2l-4.1,4.1
	l-0.9-5L226.4,321.2z M209.4,320.6l8.5,0.5l-2,7.1C208.4,328,209.4,320.6,209.4,320.6L209.4,320.6z M236.6,325.1l-2.9,0.5l-0.6,2.8
	l-2.8,0.8l-0.8,2.8l-2.8,0.6l-0.5,2.9c-5.3,1-11.4-3.6-11.4-3.6c2.7,0.9,5.6,0.9,8.3,0l0.6-2.8l3.1-0.2l0.7-2.4l2.4-0.7l0.2-3.1
	l2.8-0.6c0.9-2.7,0.9-5.6,0-8.3C233,313.8,237.6,319.8,236.6,325.1L236.6,325.1z M442.3,310.8l-11,30.1h-10.5l9.5-26.2
	c0.5-0.9,0.2-1.9-0.7-2.4c-0.3-0.2-0.6-0.2-1-0.2h-10.4c-1.6,0.1-3,1.1-3.6,2.6l-9.5,26.2h-10.5l9.5-26.2c0.5-0.8,0.2-1.9-0.7-2.4
	c-0.3-0.2-0.6-0.2-1-0.2h-13.1L379,340.9h-10.5l13.8-38H436C441.1,303,444,306.5,442.3,310.8z M529,303l-11.9,32.7
	c-1,2.9-4.8,5.2-8.4,5.2h-23.6c-5.1,0-7.9-3.5-6.3-7.9l11-30.1h10.5l-9.5,26.2c-0.5,0.8-0.2,1.9,0.7,2.4c0.3,0.2,0.6,0.2,1,0.2h13.1
	c1.6-0.1,3-1.1,3.6-2.6l9.5-26.2L529,303L529,303z M373,310.8c1.6-4.3-1.2-7.8-6.3-7.8h-26.2c-3.6,0-7.4,2.4-8.4,5.2l0,0l-9.1,24.9
	c-1.6,4.3,1.2,7.9,6.3,7.9H362l3.3-9.2h-28.8c-1,0.1-1.8-0.7-1.9-1.7c0-0.3,0.1-0.7,0.2-1l1-2.6h31.4l3.3-9.2L373,310.8z M361,314.7
	l-0.9,2.6h-21l1-2.6c0.6-1.5,2-2.5,3.6-2.6h15.7c1-0.1,1.8,0.7,1.9,1.6C361.3,314.1,361.2,314.4,361,314.7L361,314.7z M620.6,302.9
	l-13.8,38h-10.5l5.2-14.4h-18.3l-5.2,14.4h-10.5l13.9-37.9h10.5l-5.3,14.4h18.3l5.2-14.4L620.6,302.9L620.6,302.9z M479.8,312.1
	h-18.3c-1.6,0.1-3,1.1-3.6,2.6l-9.5,26.2H438l11.9-32.7c1-2.9,4.8-5.2,8.4-5.2h24.9L479.8,312.1L479.8,312.1z M319.3,325.2
	l-3.8,10.5c-1.1,2.9-4.8,5.2-8.5,5.2h-32.7l3.3-9.2h26.2c1.6-0.1,3-1.1,3.6-2.6c0.5-0.8,0.2-1.9-0.7-2.4c-0.3-0.2-0.6-0.2-1-0.2h-17
	c-5.1,0-7.9-3.5-6.3-7.8l3.8-10.5c1.1-2.9,4.8-5.2,8.5-5.2h32.7l-3.3,9.2h-26.2c-1.6,0.1-3,1.1-3.6,2.6l0,0
	c-0.5,0.8-0.2,1.9,0.7,2.4c0.3,0.2,0.6,0.2,1,0.2h17C318,317.4,320.9,320.9,319.3,325.2z M566.7,325.2l-3.8,10.5
	c-1.1,2.9-4.8,5.2-8.5,5.2h-32.7l3.3-9.2h26.2c1.6-0.1,3-1.1,3.6-2.6c0.5-0.9,0.1-1.9-0.7-2.4c-0.3-0.2-0.6-0.2-1-0.2h-17
	c-5.1,0-7.9-3.5-6.3-7.8l3.8-10.5l0,0c1.1-2.9,4.8-5.2,8.5-5.2h32.7l-3.3,9.2h-26.1c-1.6,0.1-3,1.1-3.6,2.6
	c-0.5,0.9-0.2,1.9,0.7,2.4c0.3,0.2,0.6,0.2,1,0.2h17C565.5,317.4,568.3,320.9,566.7,325.2z"/>
</svg>
