<svg width="92" height="92" viewBox="0 0 92 92" fill="none" xmlns="http://www.w3.org/2000/svg">
<path fill-rule="evenodd" clip-rule="evenodd" d="M26.7948 1.68693C25.8465 2.60926 24.9526 3.63987 24.8083 3.97733C24.1829 5.44026 25.7399 6.59217 27.1204 5.68785L27.6099 5.36705L27.6127 7.3357C27.6158 9.52128 27.8092 10.123 28.636 10.5193C29.2637 10.8204 30.1798 10.5448 30.492 9.96146C30.5934 9.77194 30.6764 8.66276 30.6764 7.49648C30.6764 5.55677 30.8138 5.01483 31.1628 5.57938C31.3974 5.95882 32.1881 6.14106 32.7211 5.93851C33.395 5.68229 33.7292 5.21662 33.7367 4.52349C33.7417 4.05897 33.3923 3.60825 31.7684 1.98435C29.1745 -0.609025 29.1565 -0.610175 26.7948 1.68693ZM28.4204 13.9359C28.2864 13.99 28.0491 14.2807 27.8933 14.5821C27.6566 15.0397 27.6103 16.4191 27.6127 22.9486C27.6158 31.391 27.6281 31.4991 28.636 31.9822C29.2637 32.2833 30.1798 32.0077 30.492 31.4244C30.6018 31.2191 30.6764 27.7559 30.6764 22.8605V14.6411L30.2329 14.2243C29.8145 13.8315 29.0017 13.7021 28.4204 13.9359ZM85.058 21.6168C84.1097 22.5391 83.2158 23.5697 83.0715 23.9072C82.4461 25.3701 84.0031 26.522 85.3836 25.6177L85.8731 25.2969L85.876 29.5651C85.8791 34.196 85.9534 34.5949 86.8992 35.0483C87.5269 35.3494 88.443 35.0738 88.7552 34.4905C88.8579 34.2985 88.9396 32.1892 88.9396 29.7259C88.9396 25.647 89.0295 24.8676 89.426 25.5092C89.6606 25.8887 90.4514 26.0709 90.9844 25.8684C91.6582 25.6121 91.9925 25.1465 91.9999 24.4533C92.0049 23.9888 91.6555 23.5381 90.0316 21.9142C87.4378 19.3208 87.4198 19.3197 85.058 21.6168ZM48.7878 29.3509C45.4672 29.8292 41.1528 31.638 38.4284 33.6941C32.9927 37.7964 29.8275 43.6822 29.2332 50.7929C28.8558 55.3074 30.5223 61.1396 33.3641 65.2497C36.7108 70.0906 42.21 73.5904 48.2098 74.6984C50.2108 75.0679 54.0823 75.0978 55.9749 74.7584C67.1087 72.7614 75.1398 63.2803 75.1391 52.1344C75.1381 39.3147 64.7949 29.0259 52.0459 29.1625C50.8864 29.175 49.4203 29.2597 48.7878 29.3509ZM5.32955 32.3482C3.54045 34.0886 3.07703 34.796 3.22364 35.5629C3.41664 36.5728 4.68655 36.9835 5.65498 36.3492L6.14447 36.0284L6.14735 41.8297C6.15041 48.1037 6.19009 48.3759 7.17059 48.8459C7.79827 49.147 8.71438 48.8714 9.02659 48.2881C9.13334 48.0888 9.21096 45.4351 9.21096 41.9905C9.21096 38.7162 9.26213 36.0372 9.32442 36.0372C9.3869 36.0372 9.65732 36.2096 9.92526 36.4204C10.1934 36.6312 10.6204 36.8037 10.8745 36.8037C11.5587 36.8037 12.2774 35.9923 12.2774 35.2199C12.2774 34.6574 12.0289 34.3324 10.2929 32.6242C7.6896 30.0628 7.67963 30.0622 5.32955 32.3482ZM55.2082 32.4067C59.0693 33.0243 62.7531 34.8082 65.7278 37.5005C67.1833 38.8176 67.6082 39.6339 67.239 40.4039C66.9412 41.0254 66.086 41.4748 65.5343 41.2996C65.314 41.2297 64.53 40.6185 63.7921 39.9415C62.0605 38.3527 61.0942 37.6971 59.1703 36.8062C57.0202 35.8105 55.4955 35.451 52.8973 35.3268C48.209 35.103 44.1083 36.6424 40.4508 39.9994C39.0134 41.3186 38.7192 41.4638 38.0212 41.1984C37.3465 40.9418 37.0148 40.4766 37.0058 39.774C36.9996 39.2974 37.2879 38.9205 38.6912 37.5702C41.2293 35.1279 44.6306 33.3386 48.117 32.6114C50.1637 32.1846 53.2608 32.0951 55.2082 32.4067ZM86.6836 38.465C86.0354 38.7258 85.8731 39.6132 85.876 42.8785C85.8791 46.3896 85.9917 46.8779 86.8992 47.3129C87.5269 47.6139 88.443 47.3384 88.7552 46.755C88.8566 46.5655 88.9396 44.7814 88.9396 42.7903C88.9396 39.2539 88.9292 39.1604 88.4961 38.7534C88.0777 38.3605 87.2649 38.2312 86.6836 38.465ZM42.2941 45.1526C44.438 46.4779 45.2477 49.6433 43.6169 50.3246C42.5724 50.7609 41.6918 50.2508 41.485 49.0899C41.1536 47.2287 39.0914 46.9775 38.4765 48.7235C38.3023 49.2185 38.8455 49.7163 40.7273 50.787C43.0577 52.1127 43.6022 52.5592 44.0727 53.5312C44.6346 54.6919 44.5944 55.8555 43.9485 57.1291C41.9725 61.0246 36.3509 60.3165 35.4674 56.0607C35.2912 55.2124 35.3048 54.9343 35.5454 54.4692C36.2813 53.046 38.1166 53.527 38.4185 55.2221C38.5712 56.0801 39.1264 56.6057 39.8798 56.6057C40.5763 56.6057 41.4091 55.8821 41.4091 55.2768C41.4091 54.7429 40.9587 54.3822 38.9243 53.2876C36.8548 52.174 35.7949 51.1501 35.5001 49.9796C35.0122 48.0418 36.0304 45.9735 37.9606 44.9824C39.3865 44.2502 40.9324 44.3107 42.2941 45.1526ZM54.7648 44.8856C55.2345 45.327 55.347 46.1514 55.0206 46.7612C54.741 47.2836 53.7959 47.5352 52.1132 47.5352H50.6085V49.0682V50.6013H52.4649C54.107 50.6013 54.3722 50.6494 54.7648 51.0179C55.2345 51.4592 55.347 52.2836 55.0206 52.8934C54.741 53.4158 53.7959 53.6674 52.1132 53.6674H50.6085V55.2005V56.7336H52.4649C54.107 56.7336 54.3722 56.7817 54.7648 57.1502C55.324 57.6756 55.3589 58.6909 54.8357 59.2141C54.3358 59.7138 53.4155 59.8616 51.4033 59.7654C49.4925 59.6742 48.6638 59.2984 48.0212 58.2319C47.6683 57.6463 47.6329 57.1933 47.5761 52.5176C47.5114 47.196 47.5896 46.4806 48.3403 45.5265C49.0051 44.6812 49.7139 44.4847 52.1295 44.4765C54.1216 44.4698 54.3615 44.507 54.7648 44.8856ZM65.8491 44.9209C67.0721 45.4902 67.9861 46.4041 68.5555 47.627C68.9714 48.52 69.0038 48.8312 69.0055 51.9565C69.0076 55.775 68.8367 56.5758 67.7463 57.8492C67.3805 58.2768 66.5932 58.8651 65.9969 59.1569C63.3103 60.4712 60.174 59.3392 58.805 56.5611C58.401 55.7413 58.3706 55.4314 58.3706 52.1344C58.3706 48.6361 58.3777 48.5746 58.9093 47.4922C59.5232 46.2422 60.6463 45.1875 61.7983 44.7789C63.0424 44.3378 64.7234 44.3968 65.8491 44.9209ZM62.7012 47.7776C61.6655 48.3097 61.4424 48.9147 61.3686 51.3906C61.2787 54.4081 61.4146 55.2444 62.1075 55.9373C63.0784 56.9079 64.5158 56.8416 65.4618 55.7823C65.8045 55.3985 65.8516 55.032 65.9061 52.322C65.9557 49.8443 65.9114 49.1838 65.6632 48.7037C65.1335 47.6797 63.74 47.2439 62.7012 47.7776ZM6.8605 52.3739C6.34916 52.7622 6.14428 53.5917 6.14735 55.2609C6.15041 57.0264 6.38653 57.6685 7.17059 58.0443C7.79827 58.3454 8.71438 58.0698 9.02659 57.4865C9.12797 57.297 9.21096 56.2027 9.21096 55.0548C9.21096 53.1209 9.17838 52.9371 8.76747 52.551C8.27415 52.0876 7.35056 52.0019 6.8605 52.3739ZM6.8605 61.5723C6.34916 61.9605 6.14428 62.7901 6.14735 64.4593C6.15041 66.2248 6.38653 66.8669 7.17059 67.2427C7.79827 67.5438 8.71438 67.2682 9.02659 66.6849C9.12797 66.4953 9.21096 65.4011 9.21096 64.2532C9.21096 62.3193 9.17838 62.1355 8.76747 61.7494C8.27415 61.286 7.35056 61.2003 6.8605 61.5723ZM40.4105 64.0725C44.3184 67.7394 49.1123 69.3974 54.0646 68.7955C57.8864 68.3308 61.1321 66.782 64.099 64.007C65.3045 62.8794 65.8033 62.678 66.6173 62.9904C67.0395 63.1523 67.4389 64.1137 67.327 64.6986C67.2212 65.2522 64.8905 67.5066 63.33 68.5646C58.5841 71.7823 52.5076 72.7924 46.9671 71.2846C42.7679 70.1419 37.001 66.1368 37.001 64.3632C37.001 63.6126 37.7651 62.8658 38.5331 62.8658C38.995 62.8658 39.4059 63.1301 40.4105 64.0725ZM20.2149 67.7373C19.477 68.0587 18.86 68.8283 18.5733 69.7847L18.3533 70.5195L10.1545 70.5731C0.8498 70.6342 1.31706 70.5528 0.436974 72.2672L0 73.1182L0.0536635 81.4542C0.106369 89.6414 0.114802 89.8024 0.525327 90.461C0.755122 90.8299 1.22947 91.3042 1.57943 91.515C2.20519 91.8919 2.60172 91.899 25.8863 91.949L49.5571 92L50.4071 91.5658C52.0687 90.717 52.0385 90.8502 52.1015 84.149L52.1573 78.2474L51.5505 78.1261C51.2168 78.0595 50.5234 78.0048 50.0096 78.0048H49.0753V78.8672V79.7295H41.4091H33.7428V78.1965V76.6634L38.4863 76.6525L43.2298 76.6418L41.6392 75.8942C37.7494 74.066 33.8783 71.0811 31.8882 68.3753L31.2187 67.465L26.0124 67.4725C22.0898 67.4782 20.6603 67.5434 20.2149 67.7373ZM69.7041 69.3953C69.3231 69.6949 69.1991 69.9645 69.1991 70.4926C69.1991 71.1047 69.372 71.3669 70.5721 72.5749L71.9453 73.9572L70.8596 75.1296C69.0745 77.0576 68.7499 76.5208 76.0487 83.7111C79.5021 87.113 82.7821 90.2508 83.3377 90.6839C85.1555 92.1008 87.4918 92.271 89.4414 91.1286C90.4012 90.5662 91.0608 89.7636 91.6404 88.4536C92.1554 87.2895 92.081 85.4092 91.4729 84.2182C91.1126 83.5128 86.2936 78.6276 79.5228 72.1045C76.8322 69.5122 76.6581 69.4647 75.1059 70.8972L74.0863 71.8383L72.623 70.4181C71.0254 68.8678 70.5754 68.7101 69.7041 69.3953ZM18.4104 78.1965V79.7295H10.7442H3.07799V78.1965V76.6634H10.7442H18.4104V78.1965ZM86.0659 82.701L87.1081 83.7561L85.4892 85.3833L83.8705 87.0103L82.7625 85.9141L81.6548 84.8178L83.2327 83.2318C84.1005 82.3595 84.8585 81.6459 84.9171 81.6459C84.9758 81.6459 85.4927 82.1207 86.0659 82.701ZM18.4104 84.3287V85.8618H10.7442H3.07799V84.3287V82.7957H10.7442H18.4104V84.3287ZM49.0753 84.3287V85.8618H41.4091H33.7428V84.3287V82.7957H41.4091H49.0753V84.3287Z" fill="black"/>
</svg>
