<svg width="77" height="71" viewBox="0 0 77 71" fill="none" xmlns="http://www.w3.org/2000/svg">
<path fill-rule="evenodd" clip-rule="evenodd" d="M12.2844 1.29836C9.40369 4.27224 6.17867 7.75279 6.01255 8.067C5.91505 8.25165 5.87683 8.56827 5.92769 8.77082C6.09245 9.42723 6.43943 9.59548 7.72761 9.64333L8.92715 9.68787L9.00239 14.6286C9.07356 19.2984 9.09357 19.5809 9.36969 19.7827C9.80484 20.1007 10.5626 20.0493 10.8976 19.6793C11.1687 19.3797 11.1842 19.0581 11.1842 13.751C11.1842 8.42982 11.1693 8.12283 10.8954 7.82036C10.7367 7.6449 10.4158 7.45152 10.1822 7.39073C9.76106 7.28102 9.77415 7.26266 11.887 4.98839L14.0163 2.69681L15.4652 4.23597C18.1972 7.13851 18.3827 7.35536 18.1335 7.35536C17.698 7.35536 17.1634 7.68417 16.9938 8.05617C16.8753 8.31666 16.8268 12.5 16.8268 22.4861C16.8268 30.3813 16.7693 36.5494 16.6956 36.5494C16.6235 36.5494 16.0451 36.8884 15.4104 37.3028C14.1436 38.1299 12.437 39.752 11.7649 40.7681L11.3347 41.4184L11.2594 32.2277C11.1877 23.459 11.1711 23.0226 10.8976 22.7204C10.5289 22.3131 9.60412 22.2893 9.25232 22.678C9.02646 22.9277 9.00058 24.1016 8.96567 35.7136L8.92715 48.475L7.9491 48.8045C6.08387 49.4328 4.80112 50.2259 3.435 51.5951C0.945777 54.09 -0.179136 56.9686 0.0230958 60.3259C0.193277 63.1508 1.26432 65.5306 3.28047 67.5641C4.72363 69.0196 6.05498 69.8742 7.87386 70.5125L9.07762 70.9351L27.8453 70.9762C46.5097 71.017 46.6147 71.0154 46.9173 70.7128C47.3689 70.2612 47.3239 69.4572 46.8253 69.065C46.4292 68.7534 46.413 68.7531 28.2738 68.7531C12.5864 68.7531 9.99699 68.7222 9.22207 68.526C5.88992 67.6825 3.15227 64.8746 2.45544 61.5856C1.41765 56.6865 4.52516 51.8452 9.40429 50.7596C10.0322 50.6198 10.6649 50.3866 10.8103 50.2412C10.997 50.0544 11.1069 49.6075 11.1845 48.7182C11.3897 46.3661 12.0821 44.3231 13.2748 42.5501C14.4833 40.7539 16.5876 38.9943 18.5827 38.1118C20.8126 37.1256 24.0372 36.8583 26.3817 37.4654C28.957 38.1323 29.15 38.0616 29.5397 36.3099C30.6156 31.4738 34.3217 27.4324 39.0247 25.9667C42.6034 24.8513 46.213 25.124 49.554 26.762C52.7828 28.3449 55.2129 30.9679 56.5307 34.2921C56.9936 35.4596 57.4537 37.4035 57.4537 38.1913C57.4537 38.828 57.7519 39.405 58.1189 39.4782C58.2911 39.5126 59.312 39.5747 60.3879 39.6162C64.5581 39.7777 67.8597 41.2206 70.6362 44.0948C73.0975 46.6427 74.483 49.7905 74.7052 53.3392C75.1529 60.4872 70.158 67.0123 63.1279 68.4631C61.9108 68.7142 61.0517 68.7493 56.0703 68.7511L50.3985 68.7531L49.9887 69.1055C49.4511 69.5679 49.4257 70.331 49.9343 70.7429C50.2739 71.0179 50.5661 71.0279 56.6175 70.9744C62.4836 70.9224 63.0286 70.8952 64.079 70.6027C68.1321 69.4739 71.2858 67.3856 73.6053 64.2948C77.9537 58.5001 78.1389 50.844 74.0781 44.7404C72.7142 42.6905 70.2343 40.4149 68.2499 39.3923L67.6857 39.1014V37.1686C67.6857 35.4409 67.6525 35.1935 67.3737 34.8391C66.983 34.3422 66.1776 34.2954 65.7295 34.7436C65.4688 35.0043 65.4286 35.2451 65.4286 36.5494C65.4286 37.3844 65.3659 38.0542 65.2876 38.0542C65.2101 38.0542 64.5839 37.9189 63.8958 37.7534C63.2078 37.588 61.9848 37.4085 61.1778 37.3546L59.7108 37.2565V29.1696C59.7108 21.6503 59.6919 21.0597 59.4438 20.7532C59.297 20.5718 58.9664 20.378 58.7092 20.3226L58.2417 20.2218L60.4071 17.9645L62.5727 15.7073L64.7372 17.9645L66.9017 20.2218L66.4285 20.3423C65.4137 20.6007 65.4286 20.5118 65.4286 26.3047C65.4286 31.3519 65.4388 31.5376 65.7354 31.8559C66.1802 32.3334 66.9709 32.301 67.3737 31.7888C67.6732 31.4081 67.6857 31.216 67.6857 26.9733V22.5543H68.8835C69.9221 22.5543 70.1222 22.5105 70.3882 22.2249C70.9038 21.6716 70.7826 21.1586 69.9051 20.1788C67.3296 17.3028 63.1968 13.0483 62.9082 12.9758C62.722 12.929 62.4173 12.9295 62.2311 12.9767C61.9397 13.0508 58.443 16.6491 55.3847 20.0222C54.3315 21.1838 54.2007 21.671 54.7925 22.2271C55.0877 22.5045 55.317 22.5543 56.2972 22.5543H57.4537V26.785V31.0157L56.8274 30.0778C55.9538 28.7695 54.1461 26.9721 52.6763 25.9504L51.4349 25.0876V18.253V11.4184H52.5734C53.8825 11.4184 54.1813 11.3009 54.436 10.686C54.583 10.331 54.5797 10.1688 54.419 9.86815C54.2645 9.57877 49.3073 4.21355 47.2661 2.12663C46.8173 1.66765 45.971 1.66765 45.5222 2.12663C43.4811 4.21355 38.5238 9.57877 38.3693 9.86815C38.2086 10.1688 38.2053 10.331 38.3523 10.686C38.607 11.3009 38.9059 11.4184 40.215 11.4184H41.3534V17.2702V23.1221L40.6453 23.2283C39.4661 23.4051 37.4891 24.0315 36.381 24.5791L35.3346 25.0963V22.2452V19.3941H36.5274C37.6368 19.3941 37.7421 19.3664 38.0321 18.9976C38.6699 18.1868 38.6131 18.1012 34.5844 13.8068C32.5169 11.6028 30.6887 9.76372 30.522 9.72008C30.3551 9.67644 30.0811 9.67674 29.913 9.72068C29.7451 9.76462 27.9169 11.598 25.8504 13.7946C22.5764 17.275 22.0933 17.8499 22.0933 18.2641C22.0933 19.092 22.5888 19.3941 23.9462 19.3941H25.1027V27.1441V34.894L23.4099 34.8966C21.953 34.8988 20.3778 35.1056 19.3637 35.4274C19.0924 35.5136 19.0839 35.1225 19.0839 22.5644V9.61263H20.2001C20.814 9.61263 21.4259 9.5705 21.5599 9.51918C21.9621 9.36478 22.2641 8.63207 22.1015 8.2047C22.0238 8.00034 20.294 6.06661 18.2572 3.90731C13.7754 -0.844088 14.1859 -0.664711 12.2844 1.29836ZM50.0944 8.44638C50.6222 9.05855 50.6672 9.16118 50.4079 9.16118C49.9028 9.16118 49.6288 9.32746 49.398 9.77395C49.2141 10.1295 49.1779 11.3438 49.1779 17.1454C49.1779 23.7004 49.1631 24.0855 48.9145 23.9859C48.1945 23.6975 45.8099 23.1748 44.7766 23.0787L43.6105 22.9704V16.585C43.6105 9.58088 43.5906 9.41234 42.7426 9.22544C42.5164 9.17562 42.2766 9.1225 42.2096 9.1073C42.1425 9.09226 43.0557 8.04398 44.2388 6.77795L46.3899 4.47599L47.9341 6.10378C48.7833 6.99902 49.7555 8.05331 50.0944 8.44638ZM32.426 14.781C34.5558 17.0592 34.5576 17.0618 34.1127 17.1567C33.8675 17.2091 33.5345 17.3719 33.3723 17.5186C33.0925 17.7719 33.0776 18.007 33.0776 22.1483V26.5113L31.7983 27.785C29.9097 29.6651 28.6271 31.7108 27.7318 34.2703L27.3821 35.2702L27.3709 26.5965C27.3605 18.5248 27.3412 17.8997 27.0928 17.593C26.9459 17.4116 26.6129 17.2178 26.3528 17.1624L25.8798 17.0616L28.0116 14.7776C29.1842 13.5213 30.1773 12.495 30.2186 12.497C30.26 12.4989 31.2533 13.5267 32.426 14.781ZM26.948 46.3485C24.7002 47.2126 23.7033 49.8343 24.8673 51.8208C25.3904 52.7132 25.8027 52.9761 28.17 53.9261C30.7319 54.9542 30.9975 55.0939 31.4797 55.6671C31.9636 56.2422 31.9809 56.8118 31.5348 57.4739C31.0882 58.1367 30.4207 58.5103 29.4856 58.6211C28.4193 58.7475 26.8228 58.2209 25.9548 57.4568C25.0267 56.6398 24.6201 56.5718 24.0531 57.1388C23.8028 57.3892 23.598 57.7362 23.598 57.9099C23.598 58.3805 24.6814 59.4674 25.6821 60.0009C28.3218 61.4079 31.3327 61.0979 32.996 59.2477C34.4556 57.6243 34.5018 55.6883 33.1179 54.149C32.259 53.1937 31.8865 52.9772 29.3876 51.9808C27.1557 51.091 26.6074 50.6913 26.6074 49.9544C26.6074 49.4503 27.0711 48.8178 27.6665 48.5099C28.5838 48.0354 30.3867 48.3148 31.6073 49.1207C32.3163 49.5887 32.9261 49.5964 33.3523 49.1428C34.0162 48.436 33.6963 47.6721 32.4367 46.9572C30.7444 45.9965 28.5087 45.7485 26.948 46.3485ZM36.5468 46.3224C36.3858 46.4835 36.2129 46.8389 36.1627 47.1125C36.1123 47.3861 36.0915 50.4353 36.1166 53.8886L36.1622 60.1673L36.505 60.51C36.8393 60.8443 36.923 60.8526 39.9411 60.8526H43.0346L43.3979 60.4304C43.8562 59.8975 43.8562 59.5506 43.398 59.0176L43.0351 58.5954L40.7648 58.5439L38.4945 58.4926V56.5614V54.6302L40.6148 54.5813C42.6326 54.5347 42.7489 54.5151 43.0223 54.177C43.4114 53.6957 43.3863 53.0768 42.9613 52.6774C42.6387 52.3745 42.461 52.3502 40.5538 52.3502H38.4945V50.3187V48.2872H40.664C41.8572 48.2872 42.9431 48.245 43.077 48.1937C43.4445 48.0527 43.7817 47.2937 43.6717 46.8553C43.48 46.0913 43.1986 46.0299 39.8904 46.0299C37.0691 46.0299 36.8174 46.0519 36.5468 46.3224ZM50.079 46.3116C46.82 47.3549 44.598 50.604 44.869 53.9303C45.3953 60.3929 53.0555 63.2259 57.5998 58.6387C59.8839 56.3331 60.374 52.8873 58.8469 49.8715C58.0473 48.2924 56.0534 46.7257 54.2186 46.2347C53.1551 45.9501 51.0879 45.9885 50.079 46.3116ZM54.5216 48.7392C55.4791 49.2021 56.5379 50.2602 56.9997 51.2154C57.5351 52.3229 57.5969 54.079 57.1428 55.2847C56.6764 56.5236 55.3048 57.9049 54.1434 58.3055C51.5867 59.1874 48.8236 58.1025 47.6795 55.7674C46.6697 53.707 46.9848 51.5795 48.543 49.9357C49.7483 48.6644 50.7442 48.2583 52.4903 48.3264C53.4632 48.3644 53.952 48.4637 54.5216 48.7392Z" fill="#E49B00"/>
</svg>
