<svg width="1440" height="131" viewBox="0 0 1440 131" fill="none" xmlns="http://www.w3.org/2000/svg">
<path d="M30.8802 96.897L30.4775 97.8798L30.4775 97.8798L30.8802 96.897ZM19.4308 88.2516L18.5748 88.8805L18.5832 88.8916L19.4308 88.2516ZM14.9913 74.4656V73.4035H13.8979L13.9296 74.4963L14.9913 74.4656ZM36.2544 74.4656L37.311 74.3572L37.2132 73.4035H36.2544V74.4656ZM39.4089 81.4754L38.6927 82.2597L38.7022 82.2684L38.712 82.2769L39.4089 81.4754ZM53.4286 81.8259L54.078 82.6663L54.0897 82.6573L54.1011 82.6479L53.4286 81.8259ZM53.8959 71.0775L53.1449 71.8285L53.1556 71.8392L53.1666 71.8496L53.8959 71.0775ZM48.8722 67.8062L48.4444 68.7784L48.4513 68.7814L48.4583 68.7844L48.8722 67.8062ZM40.4604 64.8854L40.1469 65.9003L40.1571 65.9033L40.4604 64.8854ZM18.8467 52.7351L19.6939 52.0945L19.6939 52.0945L18.8467 52.7351ZM23.5199 22.3591L24.1704 23.1988L24.1776 23.193L23.5199 22.3591ZM66.9809 22.3591L66.3231 23.193L66.3305 23.1987L66.9809 22.3591ZM75.86 40.351V41.4131H76.9771L76.9208 40.2974L75.86 40.351ZM54.2464 40.351L53.1861 40.4134L53.2449 41.4131H54.2464V40.351ZM51.3256 34.159L50.6287 34.9605L50.6388 34.9693L50.6492 34.9778L51.3256 34.159ZM38.5911 33.8085L39.2752 34.6209L39.2874 34.6106L39.2993 34.6L38.5911 33.8085ZM40.1099 45.4916L40.6521 44.5783L40.6521 44.5783L40.1099 45.4916ZM51.7929 50.2816L52.1333 49.2754L52.1199 49.2711L51.7929 50.2816ZM64.6443 55.4222L64.1693 56.3722L64.1782 56.3765L64.6443 55.4222ZM73.2898 62.5488L72.4503 63.1994L72.4503 63.1994L73.2898 62.5488ZM73.2898 87.3169L72.3922 86.7491L72.388 86.7557L72.384 86.7624L73.2898 87.3169ZM63.0087 96.4297L62.5337 95.4798L62.5337 95.4798L63.0087 96.4297ZM47.0029 98.7557C41.1208 98.7557 35.8867 97.801 31.283 95.9143L30.4775 97.8798C35.376 99.8874 40.8903 100.88 47.0029 100.88V98.7557ZM31.283 95.9143C26.6948 94.0339 23.0369 91.2647 20.2784 87.6116L18.5832 88.8916C21.5884 92.8714 25.5635 95.8659 30.4775 97.8798L31.283 95.9143ZM20.2868 87.6227C17.6273 84.003 16.2033 79.6236 16.0529 74.4348L13.9296 74.4963C14.0908 80.0559 15.6265 84.8672 18.5749 88.8804L20.2868 87.6227ZM14.9913 75.5277H36.2544V73.4035H14.9913V75.5277ZM35.1979 74.5739C35.5289 77.8014 36.6626 80.4062 38.6927 82.2597L40.125 80.6911C38.5723 79.2734 37.6031 77.2049 37.311 74.3572L35.1979 74.5739ZM38.712 82.2769C40.7358 84.0368 43.338 84.8741 46.4187 84.8741V82.7499C43.7358 82.7499 41.6647 82.0295 40.1058 80.6739L38.712 82.2769ZM46.4187 84.8741C49.5283 84.8741 52.1208 84.1787 54.078 82.6663L52.7791 80.9855C51.3093 82.1213 49.2285 82.7499 46.4187 82.7499V84.8741ZM54.1011 82.6479C56.0855 81.0243 57.0609 78.8014 57.0609 76.1012H54.9367C54.9367 78.23 54.1986 79.8236 52.756 81.0039L54.1011 82.6479ZM57.0609 76.1012C57.0609 73.8004 56.2512 71.8411 54.6251 70.3053L53.1666 71.8496C54.3445 72.962 54.9367 74.3519 54.9367 76.1012H57.0609ZM54.6469 70.3265C53.2108 68.8904 51.4154 67.729 49.286 66.8281L48.4583 68.7844C50.379 69.597 51.9328 70.6164 53.1449 71.8285L54.6469 70.3265ZM49.2999 66.8341C47.2924 65.9507 44.439 64.9624 40.7636 63.8675L40.1571 65.9033C43.8031 66.9894 46.5576 67.9482 48.4444 68.7784L49.2999 66.8341ZM40.7737 63.8706C35.5072 62.2442 31.2406 60.6272 27.9582 59.0242L27.0261 60.9329C30.442 62.6012 34.8209 64.2554 40.147 65.9003L40.7737 63.8706ZM27.9582 59.0242C24.77 57.4671 22.0154 55.1649 19.6939 52.0945L17.9995 53.3756C20.507 56.692 23.516 59.2187 27.0261 60.9329L27.9582 59.0242ZM19.6939 52.0945C17.454 49.1321 16.287 45.2096 16.287 40.2342H14.1628C14.1628 45.5398 15.4103 49.9512 17.9995 53.3756L19.6939 52.0945ZM16.287 40.2342C16.287 32.8953 18.9261 27.2612 24.1703 23.1987L22.8695 21.5195C17.0537 26.0246 14.1628 32.3072 14.1628 40.2342H16.287ZM24.1776 23.193C29.4759 19.0141 36.4297 16.8787 45.1336 16.8787V14.7545C36.0792 14.7545 28.6239 16.9807 22.8622 21.5252L24.1776 23.193ZM45.1336 16.8787C53.9982 16.8787 61.028 19.0165 66.3232 23.193L67.6387 21.5252C61.8739 16.9783 54.3388 14.7545 45.1336 14.7545V16.8787ZM66.3305 23.1987C71.5884 27.2718 74.4237 32.967 74.7993 40.4046L76.9208 40.2974C76.5176 32.3134 73.4334 26.014 67.6313 21.5195L66.3305 23.1987ZM75.86 39.2889L54.2464 39.2889V41.4131L75.86 41.4131V39.2889ZM55.3066 40.2886C55.1362 37.3918 54.0541 35.0353 52.002 33.3402L50.6492 34.9778C52.18 36.2424 53.045 38.0139 53.1861 40.4134L55.3066 40.2886ZM52.0225 33.3575C50.0039 31.6022 47.4438 30.7603 44.4326 30.7603V32.8845C47.0293 32.8845 49.0645 33.6003 50.6287 34.9605L52.0225 33.3575ZM44.4326 30.7603C41.8159 30.7603 39.5974 31.4829 37.8829 33.017L39.2993 34.6C40.5444 33.4859 42.2203 32.8845 44.4326 32.8845V30.7603ZM37.9069 32.9961C36.1296 34.4928 35.3092 36.6562 35.3092 39.2995H37.4334C37.4334 37.1139 38.0928 35.6166 39.2752 34.6209L37.9069 32.9961ZM35.3092 39.2995C35.3092 42.3634 36.7898 44.7555 39.5676 46.4048L40.6521 44.5783C38.4452 43.268 37.4334 41.532 37.4334 39.2995H35.3092ZM39.5676 46.4048C42.1643 47.9466 46.1498 49.5722 51.466 51.2921L52.1199 49.2711C46.8434 47.564 43.0402 45.9962 40.6521 44.5783L39.5676 46.4048ZM51.4526 51.2877C56.7242 53.0708 60.958 54.7665 64.1693 56.3721L65.1193 54.4722C61.7881 52.8066 57.4543 51.0753 52.1332 49.2755L51.4526 51.2877ZM64.1782 56.3765C67.3729 57.9367 70.1295 60.2049 72.4503 63.1994L74.1293 61.8982C71.6211 58.6618 68.614 56.1789 65.1104 54.4678L64.1782 56.3765ZM72.4503 63.1994C74.6881 66.087 75.8494 69.8522 75.8494 74.5824H77.9736C77.9736 69.4988 76.7204 65.2416 74.1293 61.8982L72.4503 63.1994ZM75.8494 74.5824C75.8494 79.0619 74.6954 83.1086 72.3922 86.7491L74.1873 87.8848C76.7132 83.8923 77.9736 79.4493 77.9736 74.5824H75.8494ZM72.384 86.7624C70.164 90.3882 66.8968 93.2982 62.5337 95.4798L63.4837 97.3797C68.1554 95.0438 71.7423 91.8786 74.1956 87.8715L72.384 86.7624ZM62.5337 95.4798C58.1924 97.6504 53.0265 98.7557 47.0029 98.7557V100.88C53.2854 100.88 58.79 99.7265 63.4837 97.3797L62.5337 95.4798ZM149.608 40.5847L148.821 41.2979L148.826 41.304L149.608 40.5847ZM156.384 99V100.062H157.446V99H156.384ZM136.523 99H135.46V100.062H136.523V99ZM133.134 53.436L132.359 54.1616L132.359 54.1616L133.134 53.436ZM114.909 53.436L115.684 54.1616L115.684 54.1616L114.909 53.436ZM111.521 99V100.062H112.583V99H111.521ZM91.5427 99H90.4806V100.062H91.5427V99ZM91.5427 12.5453V11.4832H90.4806V12.5453H91.5427ZM111.521 12.5453H112.583V11.4832H111.521V12.5453ZM111.521 42.5708L110.459 42.5708L110.459 45.9295L112.39 43.1814L111.521 42.5708ZM119.816 35.6778L119.349 34.7236L119.349 34.7236L119.816 35.6778ZM131.616 34.1696C138.83 34.1696 144.528 36.5614 148.821 41.2979L150.395 39.8715C145.652 34.6384 139.355 32.0454 131.616 32.0454V34.1696ZM148.826 41.304C153.115 45.9623 155.322 52.4529 155.322 60.9132H157.446C157.446 52.0826 155.135 45.0209 150.389 39.8653L148.826 41.304ZM155.322 60.9132L155.322 99H157.446L157.446 60.9132H155.322ZM156.384 97.9379H136.523V100.062H156.384V97.9379ZM137.585 99L137.585 63.6003H135.46L135.46 99H137.585ZM137.585 63.6003C137.585 59.0575 136.405 55.3779 133.91 52.7105L132.359 54.1616C134.381 56.3232 135.46 59.4198 135.46 63.6003H137.585ZM133.91 52.7105C131.419 50.0475 128.082 48.7522 124.022 48.7522V50.8764C127.594 50.8764 130.333 51.9956 132.359 54.1616L133.91 52.7105ZM124.022 48.7522C119.961 48.7522 116.624 50.0475 114.133 52.7105L115.684 54.1616C117.711 51.9956 120.449 50.8764 124.022 50.8764V48.7522ZM114.133 52.7105C111.638 55.3779 110.459 59.0575 110.459 63.6003L112.583 63.6003C112.583 59.4198 113.662 56.3232 115.684 54.1616L114.133 52.7105ZM110.459 63.6003V99H112.583V63.6003L110.459 63.6003ZM111.521 97.9379H91.5427V100.062H111.521V97.9379ZM92.6048 99L92.6048 12.5453H90.4806L90.4806 99H92.6048ZM91.5427 13.6074L111.521 13.6074V11.4832L91.5427 11.4832V13.6074ZM110.459 12.5453V42.5708L112.583 42.5708V12.5453H110.459ZM112.39 43.1814C114.301 40.4616 116.921 38.2754 120.282 36.632L119.349 34.7236C115.701 36.5072 112.791 38.9164 110.652 41.9601L112.39 43.1814ZM120.282 36.632C123.626 34.9975 127.396 34.1696 131.616 34.1696V32.0454C127.112 32.0454 123.016 32.9311 119.349 34.7236L120.282 36.632ZM184.987 95.8456L184.484 96.7807L184.49 96.7839L184.987 95.8456ZM172.954 84.1625L172.031 84.688L172.037 84.6985L172.954 84.1625ZM173.07 48.7628L173.987 49.2989L173.991 49.2928L173.07 48.7628ZM185.221 36.9629L185.718 37.9012L185.718 37.9012L185.221 36.9629ZM219.803 36.9629L219.305 37.9012L219.305 37.9012L219.803 36.9629ZM231.953 48.7628L231.033 49.2928L231.036 49.2989L231.953 48.7628ZM231.836 84.1625L230.922 83.6222L230.919 83.6265L231.836 84.1625ZM219.569 95.8456L219.077 94.9042L219.071 94.9073L219.569 95.8456ZM211.975 78.4378L211.214 77.6974L211.208 77.703L211.203 77.7085L211.975 78.4378ZM212.092 54.3707L211.309 55.0884L211.314 55.0942L211.32 55.0999L212.092 54.3707ZM192.815 54.3707L193.588 55.0993L193.593 55.0939L193.598 55.0884L192.815 54.3707ZM192.698 78.4378L191.904 79.1434L191.91 79.1495L191.915 79.1555L192.698 78.4378ZM202.278 98.8725C196.048 98.8725 190.457 97.5443 185.485 94.9072L184.49 96.7839C189.798 99.599 195.735 100.997 202.278 100.997V98.8725ZM185.491 94.9104C180.603 92.2788 176.734 88.5242 173.871 83.6265L172.037 84.6985C175.093 89.9262 179.246 93.9602 184.484 96.7807L185.491 94.9104ZM173.877 83.6371C171.1 78.759 169.693 73.0265 169.693 66.4042H167.569C167.569 73.3343 169.044 79.4407 172.031 84.6879L173.877 83.6371ZM169.693 66.4042C169.693 59.8671 171.136 54.1769 173.987 49.2989L172.154 48.2268C169.086 53.4741 167.569 59.5448 167.569 66.4042H169.693ZM173.991 49.2928C176.853 44.3219 180.758 40.5318 185.718 37.9012L184.723 36.0246C179.403 38.8462 175.207 42.9227 172.15 48.2329L173.991 49.2928ZM185.718 37.9012C190.691 35.2642 196.281 33.9359 202.512 33.9359V31.8117C195.969 31.8117 190.032 33.2095 184.723 36.0246L185.718 37.9012ZM202.512 33.9359C208.742 33.9359 214.332 35.2642 219.305 37.9012L220.3 36.0246C214.992 33.2095 209.055 31.8117 202.512 31.8117V33.9359ZM219.305 37.9012C224.266 40.5318 228.171 44.3219 231.033 49.2928L232.874 48.2329C229.816 42.9227 225.621 38.8462 220.3 36.0246L219.305 37.9012ZM231.036 49.2989C233.888 54.1769 235.331 59.8671 235.331 66.4042H237.455C237.455 59.5448 235.938 53.4741 232.87 48.2268L231.036 49.2989ZM235.331 66.4042C235.331 72.9362 233.851 78.6645 230.922 83.6222L232.751 84.7028C235.896 79.3794 237.455 73.2689 237.455 66.4042H235.331ZM230.919 83.6265C228.061 88.516 224.119 92.2702 219.077 94.9042L220.061 96.787C225.456 93.9688 229.692 89.9343 232.753 84.6985L230.919 83.6265ZM219.071 94.9073C214.099 97.5443 208.509 98.8725 202.278 98.8725V100.997C208.821 100.997 214.758 99.599 220.067 96.7839L219.071 94.9073ZM202.278 83.7058C206.39 83.7058 209.901 82.1809 212.747 79.1671L211.203 77.7085C208.753 80.3026 205.799 81.5816 202.278 81.5816V83.7058ZM212.737 79.1782C215.713 76.1169 217.126 71.8041 217.126 66.4042H215.002C215.002 71.4413 213.689 75.1508 211.214 77.6974L212.737 79.1782ZM217.126 66.4042C217.126 61.0122 215.756 56.7035 212.864 53.6414L211.32 55.0999C213.724 57.6457 215.002 61.3595 215.002 66.4042H217.126ZM212.875 53.653C210.103 50.6288 206.625 49.1027 202.512 49.1027V51.2269C206.032 51.2269 208.941 52.5047 211.309 55.0884L212.875 53.653ZM202.512 49.1027C198.328 49.1027 194.809 50.6237 192.032 53.653L193.598 55.0884C195.961 52.5098 198.907 51.2269 202.512 51.2269V49.1027ZM192.042 53.6421C189.221 56.634 187.897 60.9493 187.897 66.4042H190.022C190.022 61.2665 191.268 57.5594 193.588 55.0993L192.042 53.6421ZM187.897 66.4042C187.897 71.7811 189.182 76.0805 191.904 79.1434L193.492 77.7322C191.23 75.1872 190.022 71.4643 190.022 66.4042H187.897ZM191.915 79.1555C194.687 82.1797 198.165 83.7058 202.278 83.7058V81.5816C198.758 81.5816 195.849 80.3038 193.481 77.7201L191.915 79.1555ZM269.306 43.0381H268.244V46.663L270.2 43.6113L269.306 43.0381ZM277.367 35.6778L276.859 34.7454L276.859 34.7454L277.367 35.6778ZM304.005 36.9629L303.442 37.8636L303.442 37.8636L304.005 36.9629ZM314.286 48.646L313.333 49.1151L313.339 49.1268L314.286 48.646ZM314.286 84.0457L313.336 83.5707L313.333 83.5766L314.286 84.0457ZM304.005 95.8456L304.568 96.7463L304.579 96.739L304.005 95.8456ZM277.367 97.1307L276.859 98.0632L276.868 98.0679L277.367 97.1307ZM269.306 89.8872L270.193 89.3035L268.244 86.3404V89.8872H269.306ZM269.306 130.077V131.139H270.368V130.077H269.306ZM249.328 130.077H248.266V131.139H249.328V130.077ZM249.328 33.8085V32.7464H248.266V33.8085H249.328ZM269.306 33.8085H270.368V32.7464H269.306V33.8085ZM293.607 54.6043L292.835 55.3342L292.845 55.3449L292.856 55.3554L293.607 54.6043ZM273.278 54.6043L272.517 53.8637L272.512 53.869L272.507 53.8745L273.278 54.6043ZM273.278 78.2041L272.507 78.934L272.512 78.9394L272.517 78.9448L273.278 78.2041ZM293.607 78.2041L294.368 78.9448L294.373 78.9397L294.378 78.9346L293.607 78.2041ZM270.2 43.6113C272.043 40.7361 274.592 38.4012 277.876 36.6102L276.859 34.7454C273.288 36.6929 270.463 39.265 268.412 42.4649L270.2 43.6113ZM277.876 36.6102C281.121 34.8399 284.952 33.9359 289.401 33.9359V31.8117C284.659 31.8117 280.467 32.7771 276.859 34.7454L277.876 36.6102ZM289.401 33.9359C294.585 33.9359 299.257 35.2479 303.442 37.8636L304.568 36.0623C300.029 33.2259 294.965 31.8117 289.401 31.8117V33.9359ZM303.442 37.8636C307.62 40.4748 310.919 44.212 313.333 49.1151L315.239 48.1769C312.668 42.9547 309.113 38.9031 304.568 36.0623L303.442 37.8636ZM313.339 49.1268C315.821 54.0159 317.079 59.7263 317.079 66.2874H319.203C319.203 59.452 317.891 53.4014 315.233 48.1652L313.339 49.1268ZM317.079 66.2874C317.079 72.8481 315.821 78.6002 313.336 83.5707L315.236 84.5207C317.891 79.2101 319.203 73.1233 319.203 66.2874H317.079ZM313.333 83.5766C310.918 88.4818 307.615 92.2618 303.43 94.9522L304.579 96.739C309.117 93.8215 312.669 89.7348 315.239 84.5148L313.333 83.5766ZM303.442 94.9449C299.257 97.5606 294.585 98.8725 289.401 98.8725V100.997C294.965 100.997 300.029 99.5826 304.568 96.7462L303.442 94.9449ZM289.401 98.8725C285.034 98.8725 281.198 97.9701 277.867 96.1936L276.868 98.0679C280.546 100.03 284.733 100.997 289.401 100.997V98.8725ZM277.876 96.1983C274.586 94.4038 272.035 92.1033 270.193 89.3035L268.419 90.471C270.471 93.5906 273.295 96.1191 276.859 98.0631L277.876 96.1983ZM268.244 89.8872V130.077H270.368V89.8872H268.244ZM269.306 129.015L249.328 129.015V131.139L269.306 131.139V129.015ZM250.39 130.077L250.39 33.8085H248.266L248.266 130.077H250.39ZM249.328 34.8706H269.306V32.7464H249.328V34.8706ZM268.244 33.8085V43.0381H270.368V33.8085H268.244ZM298.875 66.2874C298.875 61.0973 297.409 56.9046 294.358 53.8533L292.856 55.3554C295.412 57.912 296.751 61.508 296.751 66.2874H298.875ZM294.378 53.8745C291.447 50.7756 287.778 49.2195 283.443 49.2195V51.3437C287.208 51.3437 290.315 52.6695 292.835 55.3342L294.378 53.8745ZM283.443 49.2195C279.18 49.2195 275.518 50.7792 272.517 53.8637L274.04 55.345C276.646 52.6659 279.761 51.3437 283.443 51.3437V49.2195ZM272.507 53.8745C269.549 57.0007 268.127 61.2208 268.127 66.4042H270.251C270.251 61.6181 271.555 57.9716 274.05 55.3342L272.507 53.8745ZM268.127 66.4042C268.127 71.5877 269.549 75.8078 272.507 78.934L274.05 77.4743C271.555 74.8369 270.251 71.1904 270.251 66.4042H268.127ZM272.517 78.9448C275.518 82.0293 279.18 83.589 283.443 83.589V81.4648C279.761 81.4648 276.646 80.1426 274.04 77.4635L272.517 78.9448ZM283.443 83.589C287.705 83.589 291.367 82.0293 294.368 78.9448L292.846 77.4635C290.239 80.1426 287.124 81.4648 283.443 81.4648V83.589ZM294.378 78.9346C297.408 75.7357 298.875 71.4801 298.875 66.2874H296.751C296.751 71.0643 295.413 74.7532 292.836 77.4737L294.378 78.9346ZM332.361 23.9947L331.624 24.7593L331.637 24.7727L331.652 24.7855L332.361 23.9947ZM332.361 8.57307L333.084 9.35137L333.085 9.35041L332.361 8.57307ZM349.418 8.57307L348.681 9.33762L348.695 9.351L348.709 9.36388L349.418 8.57307ZM349.418 23.9947L350.141 24.773L350.142 24.7721L349.418 23.9947ZM350.937 33.8085H351.999V32.7464H350.937V33.8085ZM350.937 99V100.062H351.999V99H350.937ZM330.959 99H329.897V100.062H330.959V99ZM330.959 33.8085V32.7464H329.897V33.8085H330.959ZM341.006 25.9702C337.72 25.9702 335.104 25.0274 333.07 23.2039L331.652 24.7855C334.135 27.0122 337.283 28.0944 341.006 28.0944V25.9702ZM333.098 23.2302C331.125 21.328 330.152 19.034 330.152 16.2839H328.027C328.027 19.609 329.235 22.4555 331.624 24.7593L333.098 23.2302ZM330.152 16.2839C330.152 13.4482 331.13 11.1651 333.084 9.35137L331.638 7.79477C329.23 10.0312 328.027 12.8887 328.027 16.2839H330.152ZM333.085 9.35041C335.12 7.45556 337.731 6.48074 341.006 6.48074V4.35655C337.272 4.35655 334.119 5.48468 331.637 7.79573L333.085 9.35041ZM341.006 6.48074C344.197 6.48074 346.724 7.45107 348.681 9.33762L350.155 7.80853C347.75 5.48917 344.669 4.35655 341.006 4.35655V6.48074ZM348.709 9.36388C350.736 11.1814 351.744 13.4609 351.744 16.2839H353.868C353.868 12.8759 352.617 10.0149 350.127 7.78227L348.709 9.36388ZM351.744 16.2839C351.744 19.0213 350.741 21.3117 348.694 23.2174L350.142 24.7721C352.612 22.4718 353.868 19.6217 353.868 16.2839H351.744ZM348.695 23.2164C346.741 25.0315 344.209 25.9702 341.006 25.9702V28.0944C344.658 28.0944 347.734 27.0081 350.141 24.773L348.695 23.2164ZM349.875 33.8085V99H351.999V33.8085H349.875ZM350.937 97.9379H330.959V100.062H350.937V97.9379ZM332.021 99V33.8085L329.897 33.8085V99H332.021ZM330.959 34.8706L350.937 34.8706V32.7464L330.959 32.7464V34.8706ZM400.464 50.3984V51.4605H401.526V50.3984H400.464ZM389.716 50.3984V49.3364H388.653V50.3984H389.716ZM389.716 99V100.062H390.778V99H389.716ZM369.737 99H368.675V100.062H369.737V99ZM369.737 50.3984H370.8V49.3364H369.737V50.3984ZM362.494 50.3984H361.432V51.4605H362.494V50.3984ZM362.494 33.8085V32.7464H361.432V33.8085H362.494ZM369.737 33.8085V34.8706H370.8V33.8085H369.737ZM376.631 13.7136L377.34 14.5038L377.348 14.4971L376.631 13.7136ZM400.113 7.52159L401.176 7.52159V6.57097L400.231 6.46599L400.113 7.52159ZM400.113 24.462L400.049 25.5222L401.176 25.5912V24.462H400.113ZM392.052 26.0977L392.74 26.9069L392.74 26.9069L392.052 26.0977ZM389.716 33.8085H388.653V34.8706H389.716V33.8085ZM400.464 33.8085H401.526V32.7464H400.464V33.8085ZM400.464 49.3364H389.716V51.4605H400.464V49.3364ZM388.653 50.3984V99H390.778V50.3984H388.653ZM389.716 97.9379H369.737V100.062H389.716V97.9379ZM370.8 99V50.3984H368.675V99H370.8ZM369.737 49.3364H362.494V51.4605H369.737V49.3364ZM363.556 50.3984V33.8085H361.432V50.3984H363.556ZM362.494 34.8706H369.737V32.7464H362.494V34.8706ZM370.8 33.8085V31.9392H368.675V33.8085H370.8ZM370.8 31.9392C370.8 24.1227 373.032 18.3743 377.34 14.5037L375.921 12.9235C371.039 17.309 368.675 23.7109 368.675 31.9392H370.8ZM377.348 14.4971C381.678 10.534 388.116 8.46686 396.842 8.46686V6.34267C387.81 6.34267 380.774 8.4814 375.913 12.9301L377.348 14.4971ZM396.842 8.46686C398.316 8.46686 399.357 8.50617 399.996 8.5772L400.231 6.46599C399.468 6.38125 398.328 6.34267 396.842 6.34267V8.46686ZM399.051 7.52159V24.462H401.176V7.52159L399.051 7.52159ZM400.178 23.4019C396.301 23.1645 393.251 23.6849 391.364 25.2884L392.74 26.9069C393.969 25.8623 396.293 25.2922 400.049 25.5222L400.178 23.4019ZM391.364 25.2884C389.449 26.9168 388.653 29.6896 388.653 33.2243H390.778C390.778 29.905 391.54 27.9267 392.74 26.9069L391.364 25.2884ZM388.653 33.2243V33.8085H390.778V33.2243H388.653ZM389.716 34.8706H400.464V32.7464H389.716V34.8706ZM399.402 33.8085V50.3984H401.526V33.8085H399.402ZM478.782 33.8085L479.759 34.2241L480.387 32.7464H478.782V33.8085ZM437.891 129.96V131.022H438.593L438.868 130.376L437.891 129.96ZM416.394 129.96L415.426 129.524L414.75 131.022H416.394V129.96ZM431.348 96.7802L432.317 97.2166L432.507 96.7946L432.327 96.368L431.348 96.7802ZM404.828 33.8085V32.7464H403.228L403.849 34.2207L404.828 33.8085ZM427.142 33.8085L428.139 33.4403L427.882 32.7464H427.142V33.8085ZM442.214 74.5824L441.217 74.9506L442.217 77.6563L443.211 74.9481L442.214 74.5824ZM457.168 33.8085V32.7464H456.426L456.171 33.4428L457.168 33.8085ZM477.804 33.3928L436.913 129.544L438.868 130.376L479.759 34.2241L477.804 33.3928ZM437.891 128.898H416.394V131.022H437.891V128.898ZM417.362 130.397L432.317 97.2166L430.38 96.3438L415.426 129.524L417.362 130.397ZM432.327 96.368L405.807 33.3963L403.849 34.2207L430.37 97.1925L432.327 96.368ZM404.828 34.8706L427.142 34.8706V32.7464L404.828 32.7464V34.8706ZM426.146 34.1767L441.217 74.9506L443.21 74.2142L428.139 33.4403L426.146 34.1767ZM443.211 74.9481L458.165 34.1742L456.171 33.4428L441.216 74.2167L443.211 74.9481ZM457.168 34.8706L478.782 34.8706V32.7464L457.168 32.7464V34.8706Z" fill="white" fill-opacity="0.4"/>
<path d="M508.025 96.897L507.622 97.8798L507.622 97.8798L508.025 96.897ZM496.575 88.2516L495.719 88.8805L495.728 88.8916L496.575 88.2516ZM492.136 74.4656V73.4035H491.042L491.074 74.4963L492.136 74.4656ZM513.399 74.4656L514.456 74.3572L514.358 73.4035H513.399V74.4656ZM516.553 81.4754L515.837 82.2597L515.847 82.2684L515.856 82.2769L516.553 81.4754ZM530.573 81.8259L531.223 82.6663L531.234 82.6573L531.246 82.6479L530.573 81.8259ZM531.04 71.0775L530.289 71.8285L530.3 71.8392L530.311 71.8496L531.04 71.0775ZM526.017 67.8062L525.589 68.7784L525.596 68.7814L525.603 68.7844L526.017 67.8062ZM517.605 64.8854L517.291 65.9003L517.302 65.9033L517.605 64.8854ZM495.991 52.7351L496.838 52.0945L496.838 52.0945L495.991 52.7351ZM500.664 22.3591L501.315 23.1988L501.322 23.193L500.664 22.3591ZM544.125 22.3591L543.468 23.193L543.475 23.1987L544.125 22.3591ZM553.005 40.351V41.4131H554.122L554.065 40.2974L553.005 40.351ZM531.391 40.351L530.331 40.4134L530.389 41.4131H531.391V40.351ZM528.47 34.159L527.773 34.9605L527.783 34.9693L527.794 34.9778L528.47 34.159ZM515.736 33.8085L516.42 34.6209L516.432 34.6106L516.444 34.6L515.736 33.8085ZM517.254 45.4916L517.797 44.5783L517.797 44.5783L517.254 45.4916ZM528.937 50.2816L529.278 49.2754L529.264 49.2711L528.937 50.2816ZM541.789 55.4222L541.314 56.3722L541.323 56.3765L541.789 55.4222ZM550.434 62.5488L549.595 63.1994L549.595 63.1994L550.434 62.5488ZM550.434 87.3169L549.537 86.7491L549.533 86.7557L549.528 86.7624L550.434 87.3169ZM540.153 96.4297L539.678 95.4798L539.678 95.4798L540.153 96.4297ZM524.147 98.7557C518.265 98.7557 513.031 97.801 508.428 95.9143L507.622 97.8798C512.521 99.8874 518.035 100.88 524.147 100.88V98.7557ZM508.428 95.9143C503.839 94.0339 500.181 91.2647 497.423 87.6116L495.728 88.8916C498.733 92.8714 502.708 95.8659 507.622 97.8798L508.428 95.9143ZM497.431 87.6227C494.772 84.003 493.348 79.6236 493.197 74.4348L491.074 74.4963C491.235 80.0559 492.771 84.8672 495.719 88.8804L497.431 87.6227ZM492.136 75.5277H513.399V73.4035H492.136V75.5277ZM512.342 74.5739C512.673 77.8014 513.807 80.4062 515.837 82.2597L517.27 80.6911C515.717 79.2734 514.748 77.2049 514.456 74.3572L512.342 74.5739ZM515.856 82.2769C517.88 84.0368 520.483 84.8741 523.563 84.8741V82.7499C520.88 82.7499 518.809 82.0295 517.25 80.6739L515.856 82.2769ZM523.563 84.8741C526.673 84.8741 529.265 84.1787 531.223 82.6663L529.924 80.9855C528.454 82.1213 526.373 82.7499 523.563 82.7499V84.8741ZM531.246 82.6479C533.23 81.0243 534.205 78.8014 534.205 76.1012H532.081C532.081 78.23 531.343 79.8236 529.901 81.0039L531.246 82.6479ZM534.205 76.1012C534.205 73.8004 533.396 71.8411 531.77 70.3053L530.311 71.8496C531.489 72.962 532.081 74.3519 532.081 76.1012H534.205ZM531.791 70.3265C530.355 68.8904 528.56 67.729 526.431 66.8281L525.603 68.7844C527.524 69.597 529.077 70.6164 530.289 71.8285L531.791 70.3265ZM526.444 66.8341C524.437 65.9507 521.584 64.9624 517.908 63.8675L517.302 65.9033C520.948 66.9894 523.702 67.9482 525.589 68.7784L526.444 66.8341ZM517.918 63.8706C512.652 62.2442 508.385 60.6272 505.103 59.0242L504.171 60.9329C507.586 62.6012 511.965 64.2554 517.291 65.9003L517.918 63.8706ZM505.103 59.0242C501.915 57.4671 499.16 55.1649 496.838 52.0945L495.144 53.3756C497.652 56.692 500.661 59.2187 504.171 60.9329L505.103 59.0242ZM496.838 52.0945C494.599 49.1321 493.432 45.2096 493.432 40.2342H491.307C491.307 45.5398 492.555 49.9512 495.144 53.3756L496.838 52.0945ZM493.432 40.2342C493.432 32.8953 496.071 27.2612 501.315 23.1987L500.014 21.5195C494.198 26.0246 491.307 32.3072 491.307 40.2342H493.432ZM501.322 23.193C506.62 19.0141 513.574 16.8787 522.278 16.8787V14.7545C513.224 14.7545 505.768 16.9807 500.007 21.5252L501.322 23.193ZM522.278 16.8787C531.143 16.8787 538.173 19.0165 543.468 23.193L544.783 21.5252C539.018 16.9783 531.483 14.7545 522.278 14.7545V16.8787ZM543.475 23.1987C548.733 27.2718 551.568 32.967 551.944 40.4046L554.065 40.2974C553.662 32.3134 550.578 26.014 544.776 21.5195L543.475 23.1987ZM553.005 39.2889L531.391 39.2889V41.4131L553.005 41.4131V39.2889ZM532.451 40.2886C532.281 37.3918 531.199 35.0353 529.147 33.3402L527.794 34.9778C529.324 36.2424 530.189 38.0139 530.331 40.4134L532.451 40.2886ZM529.167 33.3575C527.148 31.6022 524.588 30.7603 521.577 30.7603V32.8845C524.174 32.8845 526.209 33.6003 527.773 34.9605L529.167 33.3575ZM521.577 30.7603C518.96 30.7603 516.742 31.4829 515.027 33.017L516.444 34.6C517.689 33.4859 519.365 32.8845 521.577 32.8845V30.7603ZM515.051 32.9961C513.274 34.4928 512.454 36.6562 512.454 39.2995H514.578C514.578 37.1139 515.237 35.6166 516.42 34.6209L515.051 32.9961ZM512.454 39.2995C512.454 42.3634 513.934 44.7555 516.712 46.4048L517.797 44.5783C515.59 43.268 514.578 41.532 514.578 39.2995H512.454ZM516.712 46.4048C519.309 47.9466 523.294 49.5722 528.611 51.2921L529.264 49.2711C523.988 47.564 520.185 45.9962 517.797 44.5783L516.712 46.4048ZM528.597 51.2877C533.869 53.0708 538.103 54.7665 541.314 56.3721L542.264 54.4722C538.933 52.8066 534.599 51.0753 529.278 49.2755L528.597 51.2877ZM541.323 56.3765C544.517 57.9367 547.274 60.2049 549.595 63.1994L551.274 61.8982C548.766 58.6618 545.759 56.1789 542.255 54.4678L541.323 56.3765ZM549.595 63.1994C551.833 66.087 552.994 69.8522 552.994 74.5824H555.118C555.118 69.4988 553.865 65.2416 551.274 61.8982L549.595 63.1994ZM552.994 74.5824C552.994 79.0619 551.84 83.1086 549.537 86.7491L551.332 87.8848C553.858 83.8923 555.118 79.4493 555.118 74.5824H552.994ZM549.528 86.7624C547.309 90.3882 544.041 93.2982 539.678 95.4798L540.628 97.3797C545.3 95.0438 548.887 91.8786 551.34 87.8715L549.528 86.7624ZM539.678 95.4798C535.337 97.6504 530.171 98.7557 524.147 98.7557V100.88C530.43 100.88 535.935 99.7265 540.628 97.3797L539.678 95.4798ZM626.752 40.5847L625.965 41.2979L625.971 41.304L626.752 40.5847ZM633.528 99V100.062H634.59V99H633.528ZM613.667 99H612.605V100.062H613.667V99ZM610.279 53.436L609.503 54.1616L609.503 54.1616L610.279 53.436ZM592.053 53.436L592.829 54.1616L592.829 54.1616L592.053 53.436ZM588.665 99V100.062H589.727V99H588.665ZM568.687 99H567.625V100.062H568.687V99ZM568.687 12.5453V11.4832H567.625V12.5453H568.687ZM588.665 12.5453H589.727V11.4832H588.665V12.5453ZM588.665 42.5708L587.603 42.5708V45.9295L589.534 43.1814L588.665 42.5708ZM596.96 35.6778L596.494 34.7236L596.494 34.7236L596.96 35.6778ZM608.76 34.1696C615.975 34.1696 621.673 36.5614 625.965 41.2979L627.539 39.8715C622.797 34.6384 616.5 32.0454 608.76 32.0454V34.1696ZM625.971 41.304C630.259 45.9623 632.466 52.4529 632.466 60.9132H634.59C634.59 52.0826 632.28 45.0209 627.533 39.8653L625.971 41.304ZM632.466 60.9132V99H634.59V60.9132H632.466ZM633.528 97.9379H613.667V100.062H633.528V97.9379ZM614.729 99V63.6003H612.605V99H614.729ZM614.729 63.6003C614.729 59.0575 613.55 55.3779 611.055 52.7105L609.503 54.1616C611.525 56.3232 612.605 59.4198 612.605 63.6003H614.729ZM611.055 52.7105C608.563 50.0475 605.227 48.7522 601.166 48.7522V50.8764C604.738 50.8764 607.477 51.9956 609.503 54.1616L611.055 52.7105ZM601.166 48.7522C597.105 48.7522 593.769 50.0475 591.278 52.7105L592.829 54.1616C594.855 51.9956 597.594 50.8764 601.166 50.8764V48.7522ZM591.278 52.7105C588.782 55.3779 587.603 59.0575 587.603 63.6003L589.727 63.6003C589.727 59.4198 590.807 56.3232 592.829 54.1616L591.278 52.7105ZM587.603 63.6003V99H589.727V63.6003L587.603 63.6003ZM588.665 97.9379H568.687V100.062H588.665V97.9379ZM569.749 99V12.5453H567.625V99H569.749ZM568.687 13.6074L588.665 13.6074V11.4832L568.687 11.4832V13.6074ZM587.603 12.5453V42.5708L589.727 42.5708V12.5453H587.603ZM589.534 43.1814C591.446 40.4616 594.065 38.2754 597.427 36.632L596.494 34.7236C592.846 36.5072 589.935 38.9164 587.796 41.9601L589.534 43.1814ZM597.427 36.632C600.77 34.9975 604.541 34.1696 608.76 34.1696V32.0454C604.256 32.0454 600.16 32.9311 596.494 34.7236L597.427 36.632ZM662.132 95.8456L661.628 96.7807L661.634 96.7839L662.132 95.8456ZM650.098 84.1625L649.175 84.688L649.181 84.6985L650.098 84.1625ZM650.215 48.7628L651.132 49.2989L651.135 49.2928L650.215 48.7628ZM662.365 36.9629L662.863 37.9012L662.863 37.9012L662.365 36.9629ZM696.947 36.9629L696.45 37.9012L696.45 37.9012L696.947 36.9629ZM709.098 48.7628L708.177 49.2928L708.181 49.2989L709.098 48.7628ZM708.981 84.1625L708.066 83.6222L708.064 83.6265L708.981 84.1625ZM696.714 95.8456L696.222 94.9042L696.216 94.9073L696.714 95.8456ZM689.12 78.4378L688.358 77.6974L688.353 77.703L688.347 77.7085L689.12 78.4378ZM689.236 54.3707L688.453 55.0884L688.459 55.0942L688.464 55.0999L689.236 54.3707ZM669.959 54.3707L670.732 55.0993L670.737 55.0939L670.742 55.0884L669.959 54.3707ZM669.843 78.4378L669.049 79.1434L669.054 79.1495L669.06 79.1555L669.843 78.4378ZM679.423 98.8725C673.192 98.8725 667.602 97.5443 662.629 94.9072L661.634 96.7839C666.942 99.599 672.88 100.997 679.423 100.997V98.8725ZM662.635 94.9104C657.748 92.2788 653.878 88.5242 651.015 83.6265L649.181 84.6985C652.237 89.9262 656.39 93.9602 661.628 96.7807L662.635 94.9104ZM651.021 83.6371C648.244 78.759 646.838 73.0265 646.838 66.4042H644.713C644.713 73.3343 646.188 79.4407 649.175 84.6879L651.021 83.6371ZM646.838 66.4042C646.838 59.8671 648.28 54.1769 651.132 49.2989L649.298 48.2268C646.23 53.4741 644.713 59.5448 644.713 66.4042H646.838ZM651.135 49.2928C653.997 44.3219 657.903 40.5318 662.863 37.9012L661.868 36.0246C656.547 38.8462 652.352 42.9227 649.295 48.2329L651.135 49.2928ZM662.863 37.9012C667.836 35.2642 673.426 33.9359 679.656 33.9359V31.8117C673.113 31.8117 667.176 33.2095 661.868 36.0246L662.863 37.9012ZM679.656 33.9359C685.887 33.9359 691.477 35.2642 696.45 37.9012L697.445 36.0246C692.136 33.2095 686.199 31.8117 679.656 31.8117V33.9359ZM696.45 37.9012C701.41 40.5318 705.315 44.3219 708.177 49.2928L710.018 48.2329C706.961 42.9227 702.766 38.8462 697.445 36.0246L696.45 37.9012ZM708.181 49.2989C711.032 54.1769 712.475 59.8671 712.475 66.4042H714.599C714.599 59.5448 713.082 53.4741 710.015 48.2268L708.181 49.2989ZM712.475 66.4042C712.475 72.9362 710.996 78.6645 708.066 83.6222L709.895 84.7028C713.041 79.3794 714.599 73.2689 714.599 66.4042H712.475ZM708.064 83.6265C705.205 88.516 701.264 92.2702 696.222 94.9042L697.205 96.787C702.6 93.9688 706.837 89.9343 709.898 84.6985L708.064 83.6265ZM696.216 94.9073C691.243 97.5443 685.653 98.8725 679.423 98.8725V100.997C685.966 100.997 691.903 99.599 697.211 96.7839L696.216 94.9073ZM679.423 83.7058C683.535 83.7058 687.045 82.1809 689.892 79.1671L688.347 77.7085C685.897 80.3026 682.943 81.5816 679.423 81.5816V83.7058ZM689.881 79.1782C692.857 76.1169 694.271 71.8041 694.271 66.4042H692.147C692.147 71.4413 690.834 75.1508 688.358 77.6974L689.881 79.1782ZM694.271 66.4042C694.271 61.0122 692.901 56.7035 690.009 53.6414L688.464 55.0999C690.869 57.6457 692.147 61.3595 692.147 66.4042H694.271ZM690.019 53.653C687.247 50.6288 683.769 49.1027 679.656 49.1027V51.2269C683.176 51.2269 686.085 52.5047 688.453 55.0884L690.019 53.653ZM679.656 49.1027C675.472 49.1027 671.953 50.6237 669.176 53.653L670.742 55.0884C673.106 52.5098 676.052 51.2269 679.656 51.2269V49.1027ZM669.187 53.6421C666.366 56.634 665.042 60.9493 665.042 66.4042H667.166C667.166 61.2665 668.413 57.5594 670.732 55.0993L669.187 53.6421ZM665.042 66.4042C665.042 71.7811 666.326 76.0805 669.049 79.1434L670.636 77.7322C668.374 75.1872 667.166 71.4643 667.166 66.4042H665.042ZM669.06 79.1555C671.832 82.1797 675.31 83.7058 679.423 83.7058V81.5816C675.903 81.5816 672.994 80.3038 670.625 77.7201L669.06 79.1555ZM746.451 43.0381H745.388V46.663L747.345 43.6113L746.451 43.0381ZM754.512 35.6778L754.003 34.7454L754.003 34.7454L754.512 35.6778ZM781.149 36.9629L780.586 37.8636L780.586 37.8636L781.149 36.9629ZM791.43 48.646L790.477 49.1151L790.483 49.1268L791.43 48.646ZM791.43 84.0457L790.48 83.5707L790.477 83.5766L791.43 84.0457ZM781.149 95.8456L781.712 96.7463L781.724 96.739L781.149 95.8456ZM754.512 97.1307L754.003 98.0632L754.012 98.0679L754.512 97.1307ZM746.451 89.8872L747.338 89.3035L745.388 86.3404V89.8872H746.451ZM746.451 130.077V131.139H747.513V130.077H746.451ZM726.473 130.077H725.41V131.139H726.473V130.077ZM726.473 33.8085V32.7464H725.41V33.8085H726.473ZM746.451 33.8085H747.513V32.7464H746.451V33.8085ZM770.751 54.6043L769.98 55.3342L769.99 55.3449L770 55.3554L770.751 54.6043ZM750.423 54.6043L749.662 53.8637L749.656 53.869L749.651 53.8745L750.423 54.6043ZM750.423 78.2041L749.651 78.934L749.656 78.9394L749.662 78.9448L750.423 78.2041ZM770.751 78.2041L771.513 78.9448L771.518 78.9397L771.522 78.9346L770.751 78.2041ZM747.345 43.6113C749.188 40.7361 751.737 38.4012 755.02 36.6102L754.003 34.7454C750.433 36.6929 747.608 39.265 745.556 42.4649L747.345 43.6113ZM755.02 36.6102C758.266 34.8399 762.096 33.9359 766.545 33.9359V31.8117C761.804 31.8117 757.612 32.7771 754.003 34.7454L755.02 36.6102ZM766.545 33.9359C771.73 33.9359 776.401 35.2479 780.586 37.8636L781.712 36.0623C777.174 33.2259 772.109 31.8117 766.545 31.8117V33.9359ZM780.586 37.8636C784.764 40.4748 788.064 44.212 790.477 49.1151L792.383 48.1769C789.812 42.9547 786.258 38.9031 781.712 36.0623L780.586 37.8636ZM790.483 49.1268C792.966 54.0159 794.224 59.7263 794.224 66.2874H796.348C796.348 59.452 795.036 53.4014 792.377 48.1652L790.483 49.1268ZM794.224 66.2874C794.224 72.8481 792.966 78.6002 790.48 83.5707L792.38 84.5207C795.036 79.2101 796.348 73.1233 796.348 66.2874H794.224ZM790.477 83.5766C788.063 88.4818 784.76 92.2618 780.575 94.9522L781.724 96.739C786.262 93.8215 789.813 89.7348 792.383 84.5148L790.477 83.5766ZM780.586 94.9449C776.401 97.5606 771.73 98.8725 766.545 98.8725V100.997C772.109 100.997 777.174 99.5826 781.712 96.7462L780.586 94.9449ZM766.545 98.8725C762.178 98.8725 758.343 97.9701 755.012 96.1936L754.012 98.0679C757.691 100.03 761.878 100.997 766.545 100.997V98.8725ZM755.02 96.1983C751.73 94.4038 749.18 92.1033 747.338 89.3035L745.563 90.471C747.616 93.5906 750.439 96.1191 754.003 98.0631L755.02 96.1983ZM745.388 89.8872V130.077H747.513V89.8872H745.388ZM746.451 129.015L726.473 129.015V131.139L746.451 131.139V129.015ZM727.535 130.077V33.8085H725.41V130.077H727.535ZM726.473 34.8706H746.451V32.7464H726.473V34.8706ZM745.388 33.8085V43.0381H747.513V33.8085H745.388ZM776.019 66.2874C776.019 61.0973 774.554 56.9046 771.502 53.8533L770 55.3554C772.557 57.912 773.895 61.508 773.895 66.2874H776.019ZM771.523 53.8745C768.592 50.7756 764.922 49.2195 760.587 49.2195V51.3437C764.352 51.3437 767.459 52.6695 769.98 55.3342L771.523 53.8745ZM760.587 49.2195C756.324 49.2195 752.663 50.7792 749.662 53.8637L751.184 55.345C753.791 52.6659 756.906 51.3437 760.587 51.3437V49.2195ZM749.651 53.8745C746.694 57.0007 745.272 61.2208 745.272 66.4042H747.396C747.396 61.6181 748.7 57.9716 751.194 55.3342L749.651 53.8745ZM745.272 66.4042C745.272 71.5877 746.694 75.8078 749.651 78.934L751.194 77.4743C748.7 74.8369 747.396 71.1904 747.396 66.4042H745.272ZM749.662 78.9448C752.663 82.0293 756.324 83.589 760.587 83.589V81.4648C756.906 81.4648 753.791 80.1426 751.184 77.4635L749.662 78.9448ZM760.587 83.589C764.85 83.589 768.511 82.0293 771.513 78.9448L769.99 77.4635C767.383 80.1426 764.269 81.4648 760.587 81.4648V83.589ZM771.522 78.9346C774.553 75.7357 776.019 71.4801 776.019 66.2874H773.895C773.895 71.0643 772.558 74.7532 769.98 77.4737L771.522 78.9346ZM809.505 23.9947L808.768 24.7593L808.782 24.7727L808.796 24.7855L809.505 23.9947ZM809.505 8.57307L810.228 9.35137L810.229 9.35041L809.505 8.57307ZM826.563 8.57307L825.825 9.33762L825.839 9.351L825.854 9.36388L826.563 8.57307ZM826.563 23.9947L827.285 24.773L827.286 24.7721L826.563 23.9947ZM828.081 33.8085H829.144V32.7464H828.081V33.8085ZM828.081 99V100.062H829.144V99H828.081ZM808.103 99H807.041V100.062H808.103V99ZM808.103 33.8085V32.7464H807.041V33.8085H808.103ZM818.151 25.9702C814.864 25.9702 812.248 25.0274 810.214 23.2039L808.796 24.7855C811.28 27.0122 814.428 28.0944 818.151 28.0944V25.9702ZM810.243 23.2302C808.27 21.328 807.296 19.034 807.296 16.2839H805.172C805.172 19.609 806.379 22.4555 808.768 24.7593L810.243 23.2302ZM807.296 16.2839C807.296 13.4482 808.275 11.1651 810.228 9.35137L808.783 7.79477C806.374 10.0312 805.172 12.8887 805.172 16.2839H807.296ZM810.229 9.35041C812.264 7.45556 814.875 6.48074 818.151 6.48074V4.35655C814.417 4.35655 811.264 5.48468 808.782 7.79573L810.229 9.35041ZM818.151 6.48074C821.342 6.48074 823.869 7.45107 825.825 9.33762L827.3 7.80853C824.895 5.48917 821.814 4.35655 818.151 4.35655V6.48074ZM825.854 9.36388C827.881 11.1814 828.889 13.4609 828.889 16.2839H831.013C831.013 12.8759 829.762 10.0149 827.272 7.78227L825.854 9.36388ZM828.889 16.2839C828.889 19.0213 827.886 21.3117 825.839 23.2174L827.286 24.7721C829.757 22.4718 831.013 19.6217 831.013 16.2839H828.889ZM825.84 23.2164C823.885 25.0315 821.353 25.9702 818.151 25.9702V28.0944C821.802 28.0944 824.878 27.0081 827.285 24.773L825.84 23.2164ZM827.019 33.8085V99H829.144V33.8085H827.019ZM828.081 97.9379H808.103V100.062H828.081V97.9379ZM809.165 99V33.8085L807.041 33.8085V99H809.165ZM808.103 34.8706L828.081 34.8706V32.7464L808.103 32.7464V34.8706ZM877.608 50.3984V51.4605H878.671V50.3984H877.608ZM866.86 50.3984V49.3364H865.798V50.3984H866.86ZM866.86 99V100.062H867.922V99H866.86ZM846.882 99H845.82V100.062H846.882V99ZM846.882 50.3984H847.944V49.3364H846.882V50.3984ZM839.639 50.3984H838.576V51.4605H839.639V50.3984ZM839.639 33.8085V32.7464H838.576V33.8085H839.639ZM846.882 33.8085V34.8706H847.944V33.8085H846.882ZM853.775 13.7136L854.485 14.5038L854.492 14.4971L853.775 13.7136ZM877.258 7.52159L878.32 7.52159V6.57097L877.375 6.46599L877.258 7.52159ZM877.258 24.462L877.193 25.5222L878.32 25.5912V24.462H877.258ZM869.197 26.0977L869.885 26.9069L869.885 26.9069L869.197 26.0977ZM866.86 33.8085H865.798V34.8706H866.86V33.8085ZM877.608 33.8085H878.671V32.7464H877.608V33.8085ZM877.608 49.3364H866.86V51.4605H877.608V49.3364ZM865.798 50.3984V99H867.922V50.3984H865.798ZM866.86 97.9379H846.882V100.062H866.86V97.9379ZM847.944 99V50.3984H845.82V99H847.944ZM846.882 49.3364H839.639V51.4605H846.882V49.3364ZM840.701 50.3984V33.8085H838.576V50.3984H840.701ZM839.639 34.8706H846.882V32.7464H839.639V34.8706ZM847.944 33.8085V31.9392H845.82V33.8085H847.944ZM847.944 31.9392C847.944 24.1227 850.176 18.3743 854.485 14.5037L853.065 12.9235C848.183 17.309 845.82 23.7109 845.82 31.9392H847.944ZM854.492 14.4971C858.822 10.534 865.261 8.46686 873.987 8.46686V6.34267C864.954 6.34267 857.919 8.4814 853.058 12.9301L854.492 14.4971ZM873.987 8.46686C875.46 8.46686 876.501 8.50617 877.141 8.5772L877.375 6.46599C876.613 6.38125 875.473 6.34267 873.987 6.34267V8.46686ZM876.196 7.52159V24.462H878.32V7.52159L876.196 7.52159ZM877.323 23.4019C873.445 23.1645 870.395 23.6849 868.509 25.2884L869.885 26.9069C871.114 25.8623 873.438 25.2922 877.193 25.5222L877.323 23.4019ZM868.509 25.2884C866.593 26.9168 865.798 29.6896 865.798 33.2243H867.922C867.922 29.905 868.685 27.9267 869.885 26.9069L868.509 25.2884ZM865.798 33.2243V33.8085H867.922V33.2243H865.798ZM866.86 34.8706H877.608V32.7464H866.86V34.8706ZM876.546 33.8085V50.3984H878.671V33.8085H876.546ZM955.926 33.8085L956.904 34.2241L957.532 32.7464H955.926V33.8085ZM915.035 129.96V131.022H915.738L916.013 130.376L915.035 129.96ZM893.539 129.96L892.57 129.524L891.895 131.022H893.539V129.96ZM908.493 96.7802L909.461 97.2166L909.651 96.7946L909.472 96.368L908.493 96.7802ZM881.972 33.8085V32.7464H880.373L880.993 34.2207L881.972 33.8085ZM904.287 33.8085L905.283 33.4403L905.027 32.7464H904.287V33.8085ZM919.358 74.5824L918.362 74.9506L919.362 77.6563L920.355 74.9481L919.358 74.5824ZM934.312 33.8085V32.7464H933.571L933.315 33.4428L934.312 33.8085ZM954.949 33.3928L914.058 129.544L916.013 130.376L956.904 34.2241L954.949 33.3928ZM915.035 128.898H893.539V131.022H915.035V128.898ZM894.507 130.397L909.461 97.2166L907.525 96.3438L892.57 129.524L894.507 130.397ZM909.472 96.368L882.951 33.3963L880.993 34.2207L907.514 97.1925L909.472 96.368ZM881.972 34.8706L904.287 34.8706V32.7464L881.972 32.7464V34.8706ZM903.291 34.1767L918.362 74.9506L920.354 74.2142L905.283 33.4403L903.291 34.1767ZM920.355 74.9481L935.31 34.1742L933.315 33.4428L918.361 74.2167L920.355 74.9481ZM934.312 34.8706L955.926 34.8706V32.7464L934.312 32.7464V34.8706Z" fill="white" fill-opacity="0.4"/>
<path d="M987.034 96.897L986.631 97.8798L986.631 97.8798L987.034 96.897ZM975.584 88.2516L974.728 88.8805L974.737 88.8916L975.584 88.2516ZM971.145 74.4656V73.4035H970.051L970.083 74.4963L971.145 74.4656ZM992.408 74.4656L993.464 74.3572L993.367 73.4035H992.408V74.4656ZM995.562 81.4754L994.846 82.2597L994.856 82.2684L994.865 82.2769L995.562 81.4754ZM1009.58 81.8259L1010.23 82.6663L1010.24 82.6573L1010.25 82.6479L1009.58 81.8259ZM1010.05 71.0775L1009.3 71.8285L1009.31 71.8392L1009.32 71.8496L1010.05 71.0775ZM1005.03 67.8062L1004.6 68.7784L1004.6 68.7814L1004.61 68.7844L1005.03 67.8062ZM996.614 64.8854L996.3 65.9003L996.31 65.9033L996.614 64.8854ZM975 52.7351L975.847 52.0945L975.847 52.0945L975 52.7351ZM979.673 22.3591L980.324 23.1988L980.331 23.193L979.673 22.3591ZM1023.13 22.3591L1022.48 23.193L1022.48 23.1987L1023.13 22.3591ZM1032.01 40.351V41.4131H1033.13L1033.07 40.2974L1032.01 40.351ZM1010.4 40.351L1009.34 40.4134L1009.4 41.4131H1010.4V40.351ZM1007.48 34.159L1006.78 34.9605L1006.79 34.9693L1006.8 34.9778L1007.48 34.159ZM994.744 33.8085L995.429 34.6209L995.441 34.6106L995.453 34.6L994.744 33.8085ZM996.263 45.4916L996.805 44.5783L996.805 44.5783L996.263 45.4916ZM1007.95 50.2816L1008.29 49.2754L1008.27 49.2711L1007.95 50.2816ZM1020.8 55.4222L1020.32 56.3722L1020.33 56.3765L1020.8 55.4222ZM1029.44 62.5488L1028.6 63.1994L1028.6 63.1994L1029.44 62.5488ZM1029.44 87.3169L1028.55 86.7491L1028.54 86.7557L1028.54 86.7624L1029.44 87.3169ZM1019.16 96.4297L1018.69 95.4798L1018.69 95.4798L1019.16 96.4297ZM1003.16 98.7557C997.274 98.7557 992.04 97.801 987.436 95.9143L986.631 97.8798C991.529 99.8874 997.044 100.88 1003.16 100.88V98.7557ZM987.436 95.9143C982.848 94.0339 979.19 91.2647 976.432 87.6116L974.737 88.8916C977.742 92.8714 981.717 95.8659 986.631 97.8798L987.436 95.9143ZM976.44 87.6227C973.781 84.003 972.357 79.6236 972.206 74.4348L970.083 74.4963C970.244 80.0559 971.78 84.8672 974.728 88.8804L976.44 87.6227ZM971.145 75.5277H992.408V73.4035H971.145V75.5277ZM991.351 74.5739C991.682 77.8014 992.816 80.4062 994.846 82.2597L996.278 80.6911C994.726 79.2734 993.756 77.2049 993.464 74.3572L991.351 74.5739ZM994.865 82.2769C996.889 84.0368 999.491 84.8741 1002.57 84.8741V82.7499C999.889 82.7499 997.818 82.0295 996.259 80.6739L994.865 82.2769ZM1002.57 84.8741C1005.68 84.8741 1008.27 84.1787 1010.23 82.6663L1008.93 80.9855C1007.46 82.1213 1005.38 82.7499 1002.57 82.7499V84.8741ZM1010.25 82.6479C1012.24 81.0243 1013.21 78.8014 1013.21 76.1012H1011.09C1011.09 78.23 1010.35 79.8236 1008.91 81.0039L1010.25 82.6479ZM1013.21 76.1012C1013.21 73.8004 1012.4 71.8411 1010.78 70.3053L1009.32 71.8496C1010.5 72.962 1011.09 74.3519 1011.09 76.1012H1013.21ZM1010.8 70.3265C1009.36 68.8904 1007.57 67.729 1005.44 66.8281L1004.61 68.7844C1006.53 69.597 1008.09 70.6164 1009.3 71.8285L1010.8 70.3265ZM1005.45 66.8341C1003.45 65.9507 1000.59 64.9624 996.917 63.8675L996.31 65.9033C999.956 66.9894 1002.71 67.9482 1004.6 68.7784L1005.45 66.8341ZM996.927 63.8706C991.66 62.2442 987.394 60.6272 984.112 59.0242L983.179 60.9329C986.595 62.6012 990.974 64.2554 996.3 65.9003L996.927 63.8706ZM984.112 59.0242C980.923 57.4671 978.169 55.1649 975.847 52.0945L974.153 53.3756C976.66 56.692 979.669 59.2187 983.179 60.9329L984.112 59.0242ZM975.847 52.0945C973.607 49.1321 972.44 45.2096 972.44 40.2342H970.316C970.316 45.5398 971.564 49.9512 974.153 53.3756L975.847 52.0945ZM972.44 40.2342C972.44 32.8953 975.079 27.2612 980.324 23.1987L979.023 21.5195C973.207 26.0246 970.316 32.3072 970.316 40.2342H972.44ZM980.331 23.193C985.629 19.0141 992.583 16.8787 1001.29 16.8787V14.7545C992.232 14.7545 984.777 16.9807 979.015 21.5252L980.331 23.193ZM1001.29 16.8787C1010.15 16.8787 1017.18 19.0165 1022.48 23.193L1023.79 21.5252C1018.03 16.9783 1010.49 14.7545 1001.29 14.7545V16.8787ZM1022.48 23.1987C1027.74 27.2718 1030.58 32.967 1030.95 40.4046L1033.07 40.2974C1032.67 32.3134 1029.59 26.014 1023.78 21.5195L1022.48 23.1987ZM1032.01 39.2889L1010.4 39.2889V41.4131L1032.01 41.4131V39.2889ZM1011.46 40.2886C1011.29 37.3918 1010.21 35.0353 1008.16 33.3402L1006.8 34.9778C1008.33 36.2424 1009.2 38.0139 1009.34 40.4134L1011.46 40.2886ZM1008.18 33.3575C1006.16 31.6022 1003.6 30.7603 1000.59 30.7603V32.8845C1003.18 32.8845 1005.22 33.6003 1006.78 34.9605L1008.18 33.3575ZM1000.59 30.7603C997.969 30.7603 995.751 31.4829 994.036 33.017L995.453 34.6C996.698 33.4859 998.374 32.8845 1000.59 32.8845V30.7603ZM994.06 32.9961C992.283 34.4928 991.463 36.6562 991.463 39.2995H993.587C993.587 37.1139 994.246 35.6166 995.429 34.6209L994.06 32.9961ZM991.463 39.2995C991.463 42.3634 992.943 44.7555 995.721 46.4048L996.805 44.5783C994.599 43.268 993.587 41.532 993.587 39.2995H991.463ZM995.721 46.4048C998.318 47.9466 1002.3 49.5722 1007.62 51.2921L1008.27 49.2711C1003 47.564 999.193 45.9962 996.805 44.5783L995.721 46.4048ZM1007.61 51.2877C1012.88 53.0708 1017.11 54.7665 1020.32 56.3721L1021.27 54.4722C1017.94 52.8066 1013.61 51.0753 1008.29 49.2755L1007.61 51.2877ZM1020.33 56.3765C1023.53 57.9367 1026.28 60.2049 1028.6 63.1994L1030.28 61.8982C1027.77 58.6618 1024.77 56.1789 1021.26 54.4678L1020.33 56.3765ZM1028.6 63.1994C1030.84 66.087 1032 69.8522 1032 74.5824H1034.13C1034.13 69.4988 1032.87 65.2416 1030.28 61.8982L1028.6 63.1994ZM1032 74.5824C1032 79.0619 1030.85 83.1086 1028.55 86.7491L1030.34 87.8848C1032.87 83.8923 1034.13 79.4493 1034.13 74.5824H1032ZM1028.54 86.7624C1026.32 90.3882 1023.05 93.2982 1018.69 95.4798L1019.64 97.3797C1024.31 95.0438 1027.9 91.8786 1030.35 87.8715L1028.54 86.7624ZM1018.69 95.4798C1014.35 97.6504 1009.18 98.7557 1003.16 98.7557V100.88C1009.44 100.88 1014.94 99.7265 1019.64 97.3797L1018.69 95.4798ZM1105.76 40.5847L1104.97 41.2979L1104.98 41.304L1105.76 40.5847ZM1112.54 99V100.062H1113.6V99H1112.54ZM1092.68 99H1091.61V100.062H1092.68V99ZM1089.29 53.436L1088.51 54.1616L1088.51 54.1616L1089.29 53.436ZM1071.06 53.436L1071.84 54.1616L1071.84 54.1616L1071.06 53.436ZM1067.67 99V100.062H1068.74V99H1067.67ZM1047.7 99H1046.63V100.062H1047.7V99ZM1047.7 12.5453V11.4832H1046.63V12.5453H1047.7ZM1067.67 12.5453H1068.74V11.4832H1067.67V12.5453ZM1067.67 42.5708L1066.61 42.5708V45.9295L1068.54 43.1814L1067.67 42.5708ZM1075.97 35.6778L1075.5 34.7236L1075.5 34.7236L1075.97 35.6778ZM1087.77 34.1696C1094.98 34.1696 1100.68 36.5614 1104.97 41.2979L1106.55 39.8715C1101.81 34.6384 1095.51 32.0454 1087.77 32.0454V34.1696ZM1104.98 41.304C1109.27 45.9623 1111.47 52.4529 1111.47 60.9132H1113.6C1113.6 52.0826 1111.29 45.0209 1106.54 39.8653L1104.98 41.304ZM1111.47 60.9132V99H1113.6V60.9132H1111.47ZM1112.54 97.9379H1092.68V100.062H1112.54V97.9379ZM1093.74 99V63.6003H1091.61V99H1093.74ZM1093.74 63.6003C1093.74 59.0575 1092.56 55.3779 1090.06 52.7105L1088.51 54.1616C1090.53 56.3232 1091.61 59.4198 1091.61 63.6003H1093.74ZM1090.06 52.7105C1087.57 50.0475 1084.24 48.7522 1080.17 48.7522V50.8764C1083.75 50.8764 1086.49 51.9956 1088.51 54.1616L1090.06 52.7105ZM1080.17 48.7522C1076.11 48.7522 1072.78 50.0475 1070.29 52.7105L1071.84 54.1616C1073.86 51.9956 1076.6 50.8764 1080.17 50.8764V48.7522ZM1070.29 52.7105C1067.79 55.3779 1066.61 59.0575 1066.61 63.6003L1068.74 63.6003C1068.74 59.4198 1069.82 56.3232 1071.84 54.1616L1070.29 52.7105ZM1066.61 63.6003V99H1068.74V63.6003L1066.61 63.6003ZM1067.67 97.9379H1047.7V100.062H1067.67V97.9379ZM1048.76 99V12.5453H1046.63V99H1048.76ZM1047.7 13.6074L1067.67 13.6074V11.4832L1047.7 11.4832V13.6074ZM1066.61 12.5453V42.5708L1068.74 42.5708V12.5453H1066.61ZM1068.54 43.1814C1070.45 40.4616 1073.07 38.2754 1076.44 36.632L1075.5 34.7236C1071.85 36.5072 1068.94 38.9164 1066.81 41.9601L1068.54 43.1814ZM1076.44 36.632C1079.78 34.9975 1083.55 34.1696 1087.77 34.1696V32.0454C1083.26 32.0454 1079.17 32.9311 1075.5 34.7236L1076.44 36.632ZM1141.14 95.8456L1140.64 96.7807L1140.64 96.7839L1141.14 95.8456ZM1129.11 84.1625L1128.18 84.688L1128.19 84.6985L1129.11 84.1625ZM1129.22 48.7628L1130.14 49.2989L1130.14 49.2928L1129.22 48.7628ZM1141.37 36.9629L1141.87 37.9012L1141.87 37.9012L1141.37 36.9629ZM1175.96 36.9629L1175.46 37.9012L1175.46 37.9012L1175.96 36.9629ZM1188.11 48.7628L1187.19 49.2928L1187.19 49.2989L1188.11 48.7628ZM1187.99 84.1625L1187.08 83.6222L1187.07 83.6265L1187.99 84.1625ZM1175.72 95.8456L1175.23 94.9042L1175.22 94.9073L1175.72 95.8456ZM1168.13 78.4378L1167.37 77.6974L1167.36 77.703L1167.36 77.7085L1168.13 78.4378ZM1168.25 54.3707L1167.46 55.0884L1167.47 55.0942L1167.47 55.0999L1168.25 54.3707ZM1148.97 54.3707L1149.74 55.0993L1149.75 55.0939L1149.75 55.0884L1148.97 54.3707ZM1148.85 78.4378L1148.06 79.1434L1148.06 79.1495L1148.07 79.1555L1148.85 78.4378ZM1158.43 98.8725C1152.2 98.8725 1146.61 97.5443 1141.64 94.9072L1140.64 96.7839C1145.95 99.599 1151.89 100.997 1158.43 100.997V98.8725ZM1141.64 94.9104C1136.76 92.2788 1132.89 88.5242 1130.02 83.6265L1128.19 84.6985C1131.25 89.9262 1135.4 93.9602 1140.64 96.7807L1141.64 94.9104ZM1130.03 83.6371C1127.25 78.759 1125.85 73.0265 1125.85 66.4042H1123.72C1123.72 73.3343 1125.2 79.4407 1128.18 84.6879L1130.03 83.6371ZM1125.85 66.4042C1125.85 59.8671 1127.29 54.1769 1130.14 49.2989L1128.31 48.2268C1125.24 53.4741 1123.72 59.5448 1123.72 66.4042H1125.85ZM1130.14 49.2928C1133.01 44.3219 1136.91 40.5318 1141.87 37.9012L1140.88 36.0246C1135.56 38.8462 1131.36 42.9227 1128.3 48.2329L1130.14 49.2928ZM1141.87 37.9012C1146.84 35.2642 1152.43 33.9359 1158.67 33.9359V31.8117C1152.12 31.8117 1146.18 33.2095 1140.88 36.0246L1141.87 37.9012ZM1158.67 33.9359C1164.9 33.9359 1170.49 35.2642 1175.46 37.9012L1176.45 36.0246C1171.15 33.2095 1165.21 31.8117 1158.67 31.8117V33.9359ZM1175.46 37.9012C1180.42 40.5318 1184.32 44.3219 1187.19 49.2928L1189.03 48.2329C1185.97 42.9227 1181.77 38.8462 1176.45 36.0246L1175.46 37.9012ZM1187.19 49.2989C1190.04 54.1769 1191.48 59.8671 1191.48 66.4042H1193.61C1193.61 59.5448 1192.09 53.4741 1189.02 48.2268L1187.19 49.2989ZM1191.48 66.4042C1191.48 72.9362 1190 78.6645 1187.08 83.6222L1188.9 84.7028C1192.05 79.3794 1193.61 73.2689 1193.61 66.4042H1191.48ZM1187.07 83.6265C1184.21 88.516 1180.27 92.2702 1175.23 94.9042L1176.21 96.787C1181.61 93.9688 1185.85 89.9343 1188.91 84.6985L1187.07 83.6265ZM1175.22 94.9073C1170.25 97.5443 1164.66 98.8725 1158.43 98.8725V100.997C1164.97 100.997 1170.91 99.599 1176.22 96.7839L1175.22 94.9073ZM1158.43 83.7058C1162.54 83.7058 1166.05 82.1809 1168.9 79.1671L1167.36 77.7085C1164.91 80.3026 1161.95 81.5816 1158.43 81.5816V83.7058ZM1168.89 79.1782C1171.87 76.1169 1173.28 71.8041 1173.28 66.4042H1171.16C1171.16 71.4413 1169.84 75.1508 1167.37 77.6974L1168.89 79.1782ZM1173.28 66.4042C1173.28 61.0122 1171.91 56.7035 1169.02 53.6414L1167.47 55.0999C1169.88 57.6457 1171.16 61.3595 1171.16 66.4042H1173.28ZM1169.03 53.653C1166.26 50.6288 1162.78 49.1027 1158.67 49.1027V51.2269C1162.18 51.2269 1165.09 52.5047 1167.46 55.0884L1169.03 53.653ZM1158.67 49.1027C1154.48 49.1027 1150.96 50.6237 1148.19 53.653L1149.75 55.0884C1152.11 52.5098 1155.06 51.2269 1158.67 51.2269V49.1027ZM1148.2 53.6421C1145.37 56.634 1144.05 60.9493 1144.05 66.4042H1146.17C1146.17 61.2665 1147.42 57.5594 1149.74 55.0993L1148.2 53.6421ZM1144.05 66.4042C1144.05 71.7811 1145.33 76.0805 1148.06 79.1434L1149.65 77.7322C1147.38 75.1872 1146.17 71.4643 1146.17 66.4042H1144.05ZM1148.07 79.1555C1150.84 82.1797 1154.32 83.7058 1158.43 83.7058V81.5816C1154.91 81.5816 1152 80.3038 1149.63 77.7201L1148.07 79.1555ZM1225.46 43.0381H1224.4V46.663L1226.35 43.6113L1225.46 43.0381ZM1233.52 35.6778L1233.01 34.7454L1233.01 34.7454L1233.52 35.6778ZM1260.16 36.9629L1259.6 37.8636L1259.6 37.8636L1260.16 36.9629ZM1270.44 48.646L1269.49 49.1151L1269.49 49.1268L1270.44 48.646ZM1270.44 84.0457L1269.49 83.5707L1269.49 83.5766L1270.44 84.0457ZM1260.16 95.8456L1260.72 96.7463L1260.73 96.739L1260.16 95.8456ZM1233.52 97.1307L1233.01 98.0632L1233.02 98.0679L1233.52 97.1307ZM1225.46 89.8872L1226.35 89.3035L1224.4 86.3404V89.8872H1225.46ZM1225.46 130.077V131.139H1226.52V130.077H1225.46ZM1205.48 130.077H1204.42V131.139H1205.48V130.077ZM1205.48 33.8085V32.7464H1204.42V33.8085H1205.48ZM1225.46 33.8085H1226.52V32.7464H1225.46V33.8085ZM1249.76 54.6043L1248.99 55.3342L1249 55.3449L1249.01 55.3554L1249.76 54.6043ZM1229.43 54.6043L1228.67 53.8637L1228.67 53.869L1228.66 53.8745L1229.43 54.6043ZM1229.43 78.2041L1228.66 78.934L1228.67 78.9394L1228.67 78.9448L1229.43 78.2041ZM1249.76 78.2041L1250.52 78.9448L1250.53 78.9397L1250.53 78.9346L1249.76 78.2041ZM1226.35 43.6113C1228.2 40.7361 1230.75 38.4012 1234.03 36.6102L1233.01 34.7454C1229.44 36.6929 1226.62 39.265 1224.57 42.4649L1226.35 43.6113ZM1234.03 36.6102C1237.27 34.8399 1241.11 33.9359 1245.55 33.9359V31.8117C1240.81 31.8117 1236.62 32.7771 1233.01 34.7454L1234.03 36.6102ZM1245.55 33.9359C1250.74 33.9359 1255.41 35.2479 1259.6 37.8636L1260.72 36.0623C1256.18 33.2259 1251.12 31.8117 1245.55 31.8117V33.9359ZM1259.6 37.8636C1263.77 40.4748 1267.07 44.212 1269.49 49.1151L1271.39 48.1769C1268.82 42.9547 1265.27 38.9031 1260.72 36.0623L1259.6 37.8636ZM1269.49 49.1268C1271.97 54.0159 1273.23 59.7263 1273.23 66.2874H1275.36C1275.36 59.452 1274.04 53.4014 1271.39 48.1652L1269.49 49.1268ZM1273.23 66.2874C1273.23 72.8481 1271.97 78.6002 1269.49 83.5707L1271.39 84.5207C1274.04 79.2101 1275.36 73.1233 1275.36 66.2874H1273.23ZM1269.49 83.5766C1267.07 88.4818 1263.77 92.2618 1259.58 94.9522L1260.73 96.739C1265.27 93.8215 1268.82 89.7348 1271.39 84.5148L1269.49 83.5766ZM1259.6 94.9449C1255.41 97.5606 1250.74 98.8725 1245.55 98.8725V100.997C1251.12 100.997 1256.18 99.5826 1260.72 96.7462L1259.6 94.9449ZM1245.55 98.8725C1241.19 98.8725 1237.35 97.9701 1234.02 96.1936L1233.02 98.0679C1236.7 100.03 1240.89 100.997 1245.55 100.997V98.8725ZM1234.03 96.1983C1230.74 94.4038 1228.19 92.1033 1226.35 89.3035L1224.57 90.471C1226.62 93.5906 1229.45 96.1191 1233.01 98.0631L1234.03 96.1983ZM1224.4 89.8872V130.077H1226.52V89.8872H1224.4ZM1225.46 129.015L1205.48 129.015V131.139L1225.46 131.139V129.015ZM1206.54 130.077V33.8085H1204.42V130.077H1206.54ZM1205.48 34.8706H1225.46V32.7464H1205.48V34.8706ZM1224.4 33.8085V43.0381H1226.52V33.8085H1224.4ZM1255.03 66.2874C1255.03 61.0973 1253.56 56.9046 1250.51 53.8533L1249.01 55.3554C1251.57 57.912 1252.9 61.508 1252.9 66.2874H1255.03ZM1250.53 53.8745C1247.6 50.7756 1243.93 49.2195 1239.6 49.2195V51.3437C1243.36 51.3437 1246.47 52.6695 1248.99 55.3342L1250.53 53.8745ZM1239.6 49.2195C1235.33 49.2195 1231.67 50.7792 1228.67 53.8637L1230.19 55.345C1232.8 52.6659 1235.91 51.3437 1239.6 51.3437V49.2195ZM1228.66 53.8745C1225.7 57.0007 1224.28 61.2208 1224.28 66.4042H1226.4C1226.4 61.6181 1227.71 57.9716 1230.2 55.3342L1228.66 53.8745ZM1224.28 66.4042C1224.28 71.5877 1225.7 75.8078 1228.66 78.934L1230.2 77.4743C1227.71 74.8369 1226.4 71.1904 1226.4 66.4042H1224.28ZM1228.67 78.9448C1231.67 82.0293 1235.33 83.589 1239.6 83.589V81.4648C1235.91 81.4648 1232.8 80.1426 1230.19 77.4635L1228.67 78.9448ZM1239.6 83.589C1243.86 83.589 1247.52 82.0293 1250.52 78.9448L1249 77.4635C1246.39 80.1426 1243.28 81.4648 1239.6 81.4648V83.589ZM1250.53 78.9346C1253.56 75.7357 1255.03 71.4801 1255.03 66.2874H1252.9C1252.9 71.0643 1251.57 74.7532 1248.99 77.4737L1250.53 78.9346ZM1288.51 23.9947L1287.78 24.7593L1287.79 24.7727L1287.81 24.7855L1288.51 23.9947ZM1288.51 8.57307L1289.24 9.35137L1289.24 9.35041L1288.51 8.57307ZM1305.57 8.57307L1304.83 9.33762L1304.85 9.351L1304.86 9.36388L1305.57 8.57307ZM1305.57 23.9947L1306.29 24.773L1306.3 24.7721L1305.57 23.9947ZM1307.09 33.8085H1308.15V32.7464H1307.09V33.8085ZM1307.09 99V100.062H1308.15V99H1307.09ZM1287.11 99H1286.05V100.062H1287.11V99ZM1287.11 33.8085V32.7464H1286.05V33.8085H1287.11ZM1297.16 25.9702C1293.87 25.9702 1291.26 25.0274 1289.22 23.2039L1287.81 24.7855C1290.29 27.0122 1293.44 28.0944 1297.16 28.0944V25.9702ZM1289.25 23.2302C1287.28 21.328 1286.3 19.034 1286.3 16.2839H1284.18C1284.18 19.609 1285.39 22.4555 1287.78 24.7593L1289.25 23.2302ZM1286.3 16.2839C1286.3 13.4482 1287.28 11.1651 1289.24 9.35137L1287.79 7.79477C1285.38 10.0312 1284.18 12.8887 1284.18 16.2839H1286.3ZM1289.24 9.35041C1291.27 7.45556 1293.88 6.48074 1297.16 6.48074V4.35655C1293.43 4.35655 1290.27 5.48468 1287.79 7.79573L1289.24 9.35041ZM1297.16 6.48074C1300.35 6.48074 1302.88 7.45107 1304.83 9.33762L1306.31 7.80853C1303.9 5.48917 1300.82 4.35655 1297.16 4.35655V6.48074ZM1304.86 9.36388C1306.89 11.1814 1307.9 13.4609 1307.9 16.2839H1310.02C1310.02 12.8759 1308.77 10.0149 1306.28 7.78227L1304.86 9.36388ZM1307.9 16.2839C1307.9 19.0213 1306.89 21.3117 1304.85 23.2174L1306.3 24.7721C1308.77 22.4718 1310.02 19.6217 1310.02 16.2839H1307.9ZM1304.85 23.2164C1302.89 25.0315 1300.36 25.9702 1297.16 25.9702V28.0944C1300.81 28.0944 1303.89 27.0081 1306.29 24.773L1304.85 23.2164ZM1306.03 33.8085V99H1308.15V33.8085H1306.03ZM1307.09 97.9379H1287.11V100.062H1307.09V97.9379ZM1288.17 99V33.8085L1286.05 33.8085V99H1288.17ZM1287.11 34.8706L1307.09 34.8706V32.7464L1287.11 32.7464V34.8706ZM1356.62 50.3984V51.4605H1357.68V50.3984H1356.62ZM1345.87 50.3984V49.3364H1344.81V50.3984H1345.87ZM1345.87 99V100.062H1346.93V99H1345.87ZM1325.89 99H1324.83V100.062H1325.89V99ZM1325.89 50.3984H1326.95V49.3364H1325.89V50.3984ZM1318.65 50.3984H1317.59V51.4605H1318.65V50.3984ZM1318.65 33.8085V32.7464H1317.59V33.8085H1318.65ZM1325.89 33.8085V34.8706H1326.95V33.8085H1325.89ZM1332.78 13.7136L1333.49 14.5038L1333.5 14.4971L1332.78 13.7136ZM1356.27 7.52159L1357.33 7.52159V6.57097L1356.38 6.46599L1356.27 7.52159ZM1356.27 24.462L1356.2 25.5222L1357.33 25.5912V24.462H1356.27ZM1348.21 26.0977L1348.89 26.9069L1348.89 26.9069L1348.21 26.0977ZM1345.87 33.8085H1344.81V34.8706H1345.87V33.8085ZM1356.62 33.8085H1357.68V32.7464H1356.62V33.8085ZM1356.62 49.3364H1345.87V51.4605H1356.62V49.3364ZM1344.81 50.3984V99H1346.93V50.3984H1344.81ZM1345.87 97.9379H1325.89V100.062H1345.87V97.9379ZM1326.95 99V50.3984H1324.83V99H1326.95ZM1325.89 49.3364H1318.65V51.4605H1325.89V49.3364ZM1319.71 50.3984V33.8085H1317.59V50.3984H1319.71ZM1318.65 34.8706H1325.89V32.7464H1318.65V34.8706ZM1326.95 33.8085V31.9392H1324.83V33.8085H1326.95ZM1326.95 31.9392C1326.95 24.1227 1329.18 18.3743 1333.49 14.5037L1332.07 12.9235C1327.19 17.309 1324.83 23.7109 1324.83 31.9392H1326.95ZM1333.5 14.4971C1337.83 10.534 1344.27 8.46686 1353 8.46686V6.34267C1343.96 6.34267 1336.93 8.4814 1332.07 12.9301L1333.5 14.4971ZM1353 8.46686C1354.47 8.46686 1355.51 8.50617 1356.15 8.5772L1356.38 6.46599C1355.62 6.38125 1354.48 6.34267 1353 6.34267V8.46686ZM1355.2 7.52159V24.462H1357.33V7.52159L1355.2 7.52159ZM1356.33 23.4019C1352.45 23.1645 1349.4 23.6849 1347.52 25.2884L1348.89 26.9069C1350.12 25.8623 1352.45 25.2922 1356.2 25.5222L1356.33 23.4019ZM1347.52 25.2884C1345.6 26.9168 1344.81 29.6896 1344.81 33.2243H1346.93C1346.93 29.905 1347.69 27.9267 1348.89 26.9069L1347.52 25.2884ZM1344.81 33.2243V33.8085H1346.93V33.2243H1344.81ZM1345.87 34.8706H1356.62V32.7464H1345.87V34.8706ZM1355.56 33.8085V50.3984H1357.68V33.8085H1355.56ZM1434.93 33.8085L1435.91 34.2241L1436.54 32.7464H1434.93V33.8085ZM1394.04 129.96V131.022H1394.75L1395.02 130.376L1394.04 129.96ZM1372.55 129.96L1371.58 129.524L1370.9 131.022H1372.55V129.96ZM1387.5 96.7802L1388.47 97.2166L1388.66 96.7946L1388.48 96.368L1387.5 96.7802ZM1360.98 33.8085V32.7464H1359.38L1360 34.2207L1360.98 33.8085ZM1383.3 33.8085L1384.29 33.4403L1384.04 32.7464H1383.3V33.8085ZM1398.37 74.5824L1397.37 74.9506L1398.37 77.6563L1399.36 74.9481L1398.37 74.5824ZM1413.32 33.8085V32.7464H1412.58L1412.32 33.4428L1413.32 33.8085ZM1433.96 33.3928L1393.07 129.544L1395.02 130.376L1435.91 34.2241L1433.96 33.3928ZM1394.04 128.898H1372.55V131.022H1394.04V128.898ZM1373.52 130.397L1388.47 97.2166L1386.53 96.3438L1371.58 129.524L1373.52 130.397ZM1388.48 96.368L1361.96 33.3963L1360 34.2207L1386.52 97.1925L1388.48 96.368ZM1360.98 34.8706L1383.3 34.8706V32.7464L1360.98 32.7464V34.8706ZM1382.3 34.1767L1397.37 74.9506L1399.36 74.2142L1384.29 33.4403L1382.3 34.1767ZM1399.36 74.9481L1414.32 34.1742L1412.32 33.4428L1397.37 74.2167L1399.36 74.9481ZM1413.32 34.8706L1434.93 34.8706V32.7464L1413.32 32.7464V34.8706Z" fill="white" fill-opacity="0.4"/>
</svg>
