<svg width="1487" height="103" viewBox="0 0 1487 103" fill="none" xmlns="http://www.w3.org/2000/svg">
<path d="M37.4995 81.4458L37.1279 82.2403L37.1355 82.2438L37.1433 82.2473L37.4995 81.4458ZM26.5009 73.0521L25.8837 72.4289L25.2906 73.0161L25.8478 73.6376L26.5009 73.0521ZM36.3417 63.3077L37.0029 62.7313L36.3887 62.0269L35.7246 62.6844L36.3417 63.3077ZM43.5777 69.1929L43.163 69.9658L43.1741 69.9718L43.1854 69.9774L43.5777 69.1929ZM60.3651 69.4824L59.8908 68.7446L59.8846 68.7485L59.8786 68.7526L60.3651 69.4824ZM61.3299 60.1239L60.7097 60.7441L60.7097 60.7441L61.3299 60.1239ZM56.6989 57.133L56.3401 57.9334L56.3501 57.9378L56.6989 57.133ZM50.4277 54.721L50.1432 55.5507L50.1503 55.5531L50.4277 54.721ZM43.6742 52.1161L43.3095 52.9138L43.319 52.9181L43.3287 52.9223L43.6742 52.1161ZM37.403 48.3534L36.8438 49.0291L36.8564 49.0395L36.8694 49.0495L37.403 48.3534ZM32.8685 42.6611L32.0839 43.0534L32.0885 43.0623L32.8685 42.6611ZM34.1227 23.1723L33.3976 22.6786L33.3905 22.6894L34.1227 23.1723ZM42.6129 16.3223L42.9584 17.1285L42.9704 17.1232L42.6129 16.3223ZM68.0834 16.4188L67.7395 17.2256L67.7442 17.2276L68.0834 16.4188ZM77.9243 23.2688L78.5414 23.892L79.132 23.3073L78.5798 22.6861L77.9243 23.2688ZM68.0834 33.0132L67.4538 33.6238L68.0708 34.2601L68.7005 33.6364L68.0834 33.0132ZM61.8123 28.2857L61.42 29.0703L61.4296 29.0749L61.8123 28.2857ZM48.4981 28.2857L48.963 29.0295L48.9739 29.0226L48.9846 29.0155L48.4981 28.2857ZM47.9192 36.7759L47.317 37.4135L47.3266 37.4226L47.3365 37.4314L47.9192 36.7759ZM52.4538 39.4773L52.1184 40.2878L52.128 40.2917L52.4538 39.4773ZM58.7249 41.7928L58.4405 42.6225L58.4476 42.6249L58.7249 41.7928ZM65.575 44.4942L65.9396 43.6965L65.9396 43.6965L65.575 44.4942ZM71.7496 48.4499L71.1769 49.1142L71.1891 49.1247L71.2017 49.1348L71.7496 48.4499ZM76.3806 54.4316L75.5879 54.8071L75.5919 54.8153L76.3806 54.4316ZM71.1708 78.6479L71.7152 79.3356L71.721 79.3309L71.1708 78.6479ZM51.9714 83.2701C46.4672 83.2701 41.7704 82.3842 37.8557 80.6443L37.1433 82.2473C41.3328 84.1093 46.2839 85.0243 51.9714 85.0243V83.2701ZM37.8711 80.6513C34.004 78.8425 30.4306 76.1213 27.1539 72.4666L25.8478 73.6376C29.2604 77.4439 33.0194 80.3185 37.1279 82.2403L37.8711 80.6513ZM27.118 73.6753L36.9589 63.9309L35.7246 62.6844L25.8837 72.4289L27.118 73.6753ZM35.6806 63.8841C37.9293 66.4634 40.4227 68.4954 43.163 69.9658L43.9924 68.4201C41.4585 67.0604 39.1279 65.1689 37.0029 62.7313L35.6806 63.8841ZM43.1854 69.9774C46.0279 71.3986 49.2857 72.0961 52.9362 72.0961V70.3419C49.5115 70.3419 46.5303 69.6886 43.9699 68.4084L43.1854 69.9774ZM52.9362 72.0961C56.2384 72.0961 58.9125 71.5049 60.8516 70.2121L59.8786 68.7526C58.3444 69.7753 56.0659 70.3419 52.9362 70.3419V72.0961ZM60.8394 70.2201C62.8792 68.9088 63.9436 67.0293 63.9436 64.6584H62.1894C62.1894 66.404 61.4529 67.7404 59.8908 68.7446L60.8394 70.2201ZM63.9436 64.6584C63.9436 62.5957 63.2956 60.8493 61.9501 59.5037L60.7097 60.7441C61.6796 61.714 62.1894 62.9905 62.1894 64.6584H63.9436ZM61.9501 59.5037C60.6955 58.2492 59.051 57.1964 57.0476 56.3282L56.3501 57.9378C58.2059 58.742 59.6487 59.6831 60.7097 60.7441L61.9501 59.5037ZM57.0576 56.3327C55.1613 55.4826 53.0431 54.6683 50.7051 53.889L50.1503 55.5531C52.4433 56.3174 54.5059 57.1112 56.3401 57.9334L57.0576 56.3327ZM50.7122 53.8914C48.4822 53.1268 46.2514 52.2664 44.0197 51.3099L43.3287 52.9223C45.5993 53.8954 47.8708 54.7716 50.1432 55.5507L50.7122 53.8914ZM44.0388 51.3184C41.8465 50.3162 39.813 49.0959 37.9367 47.6573L36.8694 49.0495C38.8522 50.5697 40.9994 51.8578 43.3095 52.9138L44.0388 51.3184ZM37.9622 47.6777C36.1925 46.2131 34.7545 44.4106 33.6485 42.26L32.0885 43.0623C33.298 45.4141 34.883 47.4064 36.8438 49.0291L37.9622 47.6777ZM33.653 42.2689C32.5733 40.1095 32.0089 37.3595 32.0089 33.978H30.2548C30.2548 37.543 30.8482 40.5818 32.084 43.0534L33.653 42.2689ZM32.0089 33.978C32.0089 29.9417 32.9694 26.5138 34.8549 23.6552L33.3905 22.6894C31.2882 25.8769 30.2548 29.6527 30.2548 33.978H32.0089ZM34.8477 23.6659C36.805 20.7911 39.4987 18.6112 42.9584 17.1285L42.2674 15.5161C38.5233 17.1207 35.5568 19.5075 33.3977 22.6787L34.8477 23.6659ZM42.9704 17.1232C46.4405 15.5741 50.4635 14.7874 55.0587 14.7874V13.0332C50.2633 13.0332 45.9891 13.8545 42.2553 15.5214L42.9704 17.1232ZM55.0587 14.7874C59.7139 14.7874 63.9367 15.6048 67.7395 17.2256L68.4273 15.6119C64.3831 13.8882 59.9228 13.0332 55.0587 13.0332V14.7874ZM67.7442 17.2276C71.6252 18.8551 74.7929 21.0661 77.2688 23.8515L78.5798 22.6861C75.9102 19.6827 72.5172 17.327 68.4226 15.6099L67.7442 17.2276ZM77.3072 22.6456L67.4663 32.39L68.7005 33.6364L78.5414 23.892L77.3072 22.6456ZM68.7131 32.4026C66.6009 30.2244 64.4296 28.58 62.1949 27.4965L61.4296 29.0749C63.44 30.0497 65.4495 31.5569 67.4538 33.6238L68.7131 32.4026ZM62.2045 27.5012C60.0078 26.4029 57.5226 25.865 54.7693 25.865V27.6191C57.2902 27.6191 59.5003 28.1103 61.42 29.0702L62.2045 27.5012ZM54.7693 25.865C52.0289 25.865 49.7482 26.3982 48.0116 27.5559L48.9846 29.0155C50.3354 28.115 52.2354 27.6191 54.7693 27.6191V25.865ZM48.0333 27.542C46.2256 28.6718 45.3055 30.3722 45.3055 32.5308H47.0597C47.0597 30.9589 47.6834 29.8292 48.963 29.0295L48.0333 27.542ZM45.3055 32.5308C45.3055 34.4845 45.9669 36.1385 47.317 37.4135L48.5215 36.1382C47.5561 35.2265 47.0597 34.0504 47.0597 32.5308H45.3055ZM47.3365 37.4314C48.5859 38.542 50.1886 39.4892 52.1184 40.2878L52.7891 38.6669C50.9884 37.9218 49.5681 37.068 48.502 36.1204L47.3365 37.4314ZM52.128 40.2917C54.073 41.0697 56.1773 41.8466 58.4405 42.6225L59.0094 40.9631C56.7701 40.1954 54.6937 39.4286 52.7795 38.663L52.128 40.2917ZM58.4476 42.6249C60.733 43.3867 62.9872 44.2756 65.2103 45.2919L65.9396 43.6965C63.6604 42.6546 61.3479 41.7426 59.0023 40.9607L58.4476 42.6249ZM65.2103 45.2919C67.3866 46.2868 69.3747 47.5605 71.1769 49.1142L72.3223 47.7856C70.394 46.1233 68.2657 44.7599 65.9396 43.6965L65.2103 45.2919ZM71.2017 49.1348C73.0177 50.5876 74.4818 52.4718 75.588 54.8071L77.1733 54.0561C75.964 51.5031 74.3407 49.3995 72.2975 47.765L71.2017 49.1348ZM75.5919 54.8153C76.6754 57.0423 77.2402 59.8604 77.2402 63.3077H78.9943C78.9943 59.6798 78.4014 56.5805 77.1693 54.0479L75.5919 54.8153ZM77.2402 63.3077C77.2402 69.5666 75.024 74.4176 70.6205 77.9649L71.721 79.3309C76.5795 75.4171 78.9943 70.0414 78.9943 63.3077H77.2402ZM70.6263 77.9602C66.2001 81.4643 60.017 83.2701 51.9714 83.2701V85.0243C60.2629 85.0243 66.8794 83.1639 71.7152 79.3356L70.6263 77.9602ZM119.315 83.0859H118.438V83.963H119.315V83.0859ZM116.999 50.4759L116.366 51.0828L116.379 51.0963L116.392 51.1092L116.999 50.4759ZM107.062 49.2217L107.47 49.9979L107.486 49.9896L107.501 49.9808L107.062 49.2217ZM104.167 52.1161L104.926 52.5555L104.931 52.5472L104.936 52.5388L104.167 52.1161ZM103.106 56.3612L102.719 57.1483L103.983 57.7696V56.3612H103.106ZM97.4139 53.5633H96.5368V54.1095L97.027 54.3504L97.4139 53.5633ZM106.193 37.5477L106.607 38.3211L106.614 38.3174L106.621 38.3136L106.193 37.5477ZM125.393 37.5477L124.965 38.3136L124.972 38.3174L124.979 38.3211L125.393 37.5477ZM131.76 43.8189L130.991 44.2402L130.997 44.2511L131.004 44.262L131.76 43.8189ZM134.076 83.0859V83.963H134.953V83.0859H134.076ZM88.3448 83.0859H87.4677V83.963H88.3448V83.0859ZM88.3448 13.042V12.1649H87.4677V13.042H88.3448ZM103.106 13.042H103.983V12.1649H103.106V13.042ZM103.106 83.0859V83.963H103.983V83.0859H103.106ZM120.192 83.0859V56.3612H118.438V83.0859H120.192ZM120.192 56.3612C120.192 53.7154 119.348 51.5117 117.606 49.8427L116.392 51.1092C117.738 52.3989 118.438 54.1187 118.438 56.3612H120.192ZM117.632 49.8691C115.973 48.1375 113.839 47.2834 111.307 47.2834V49.0375C113.405 49.0375 115.067 49.7271 116.366 51.0828L117.632 49.8691ZM111.307 47.2834C109.566 47.2834 107.996 47.6676 106.622 48.4627L107.501 49.9808C108.572 49.3608 109.831 49.0375 111.307 49.0375V47.2834ZM106.653 48.4456C105.269 49.1739 104.184 50.2665 103.399 51.6934L104.936 52.5388C105.566 51.393 106.41 50.5559 107.47 49.9979L106.653 48.4456ZM103.408 51.6766C102.613 53.0499 102.229 54.6207 102.229 56.3612H103.983C103.983 54.8857 104.306 53.6264 104.926 52.5555L103.408 51.6766ZM103.493 55.574L97.8008 52.7761L97.027 54.3504L102.719 57.1483L103.493 55.574ZM98.2909 53.5633C98.2909 50.0229 99.0353 46.9586 100.495 44.3428L98.9635 43.4879C97.3361 46.4036 96.5368 49.7712 96.5368 53.5633H98.2909ZM100.495 44.3428C101.958 41.7222 103.991 39.7204 106.607 38.3211L105.78 36.7743C102.864 38.3337 100.588 40.577 98.9635 43.4879L100.495 44.3428ZM106.621 38.3136C109.239 36.8524 112.272 36.1093 115.745 36.1093V34.3551C112.014 34.3551 108.679 35.1557 105.766 36.7819L106.621 38.3136ZM115.745 36.1093C119.285 36.1093 122.35 36.8536 124.965 38.3136L125.82 36.7819C122.905 35.1545 119.537 34.3551 115.745 34.3551V36.1093ZM124.979 38.3211C127.598 39.7217 129.595 41.691 130.991 44.2402L132.53 43.3976C130.967 40.5439 128.72 38.3325 125.807 36.7743L124.979 38.3211ZM131.004 44.262C132.457 46.7447 133.199 49.6742 133.199 53.0809H134.953C134.953 49.4125 134.151 46.1673 132.517 43.3758L131.004 44.262ZM133.199 53.0809V83.0859H134.953V53.0809H133.199ZM134.076 82.2089L119.315 82.2089V83.963L134.076 83.963V82.2089ZM89.2219 83.0859L89.2219 13.042H87.4677L87.4677 83.0859H89.2219ZM88.3448 13.9191L103.106 13.9191V12.1649L88.3448 12.1649V13.9191ZM102.229 13.042L102.229 83.0859H103.983L103.983 13.042H102.229ZM103.106 82.2089H88.3448V83.963H103.106V82.2089ZM154.941 80.9634L154.509 81.7265L154.516 81.7307L154.524 81.7348L154.941 80.9634ZM145.776 72.0873L146.527 71.6341L146.527 71.6341L145.776 72.0873ZM145.776 47.0992L145.028 46.6402L145.028 46.6402L145.776 47.0992ZM154.941 38.416L155.364 39.1846L155.374 39.1791L154.941 38.416ZM190.349 47.0992L189.598 47.5523L189.602 47.5581L190.349 47.0992ZM190.349 72.0873L191.1 72.5405L191.1 72.5405L190.349 72.0873ZM181.183 80.9634L181.606 81.732L181.616 81.7265L181.183 80.9634ZM173.658 69.3859L174.087 70.1511L174.098 70.1447L174.109 70.138L173.658 69.3859ZM177.324 65.4302L176.546 65.0265L176.54 65.038L177.324 65.4302ZM177.324 53.8527L176.552 54.2685L176.556 54.2749L176.559 54.2813L177.324 53.8527ZM173.562 49.9936L173.097 50.7373L173.115 50.7485L173.133 50.7588L173.562 49.9936ZM162.563 49.9936L162.992 50.7588L163.003 50.7524L163.014 50.7456L162.563 49.9936ZM158.8 53.8527L159.573 54.2685L159.573 54.2685L158.8 53.8527ZM158.8 65.4302L158.022 65.834L158.028 65.8461L158.8 65.4302ZM162.563 69.3859L162.112 70.138L162.123 70.1447L162.134 70.1511L162.563 69.3859ZM168.062 83.2701C163.372 83.2701 159.143 82.2396 155.358 80.192L154.524 81.7348C158.586 83.9323 163.105 85.0243 168.062 85.0243V83.2701ZM155.374 80.2003C151.643 78.0863 148.698 75.2333 146.527 71.6341L145.025 72.5405C147.355 76.4023 150.521 79.4668 154.509 81.7265L155.374 80.2003ZM146.527 71.6341C144.363 68.049 143.276 64.0267 143.276 59.545H141.522C141.522 64.3253 142.686 68.6645 145.025 72.5405L146.527 71.6341ZM143.276 59.545C143.276 55.0631 144.363 51.0757 146.523 47.5581L145.028 46.6402C142.686 50.4551 141.522 54.7648 141.522 59.545H143.276ZM146.523 47.5581C148.693 44.0247 151.635 41.2356 155.364 39.1846L154.518 37.6475C150.529 39.8415 147.361 42.8412 145.028 46.6402L146.523 47.5581ZM155.374 39.1791C159.088 37.0744 163.31 36.0128 168.062 36.0128V34.2587C163.038 34.2587 158.513 35.3839 154.509 37.653L155.374 39.1791ZM168.062 36.0128C172.819 36.0128 177.045 37.0443 180.761 39.0881L181.606 37.551C177.604 35.3497 173.082 34.2587 168.062 34.2587V36.0128ZM180.761 39.0881C184.486 41.1371 187.428 43.9555 189.598 47.5523L191.1 46.646C188.768 42.7818 185.599 39.7471 181.606 37.551L180.761 39.0881ZM189.602 47.5581C191.761 51.0757 192.849 55.0631 192.849 59.545H194.603C194.603 54.7648 193.439 50.4551 191.096 46.6402L189.602 47.5581ZM192.849 59.545C192.849 64.0267 191.761 68.049 189.598 71.6341L191.1 72.5405C193.439 68.6645 194.603 64.3253 194.603 59.545H192.849ZM189.598 71.6341C187.426 75.2333 184.482 78.0863 180.751 80.2003L181.616 81.7265C185.604 79.4668 188.77 76.4023 191.1 72.5405L189.598 71.6341ZM180.761 80.1949C177.045 82.2386 172.819 83.2701 168.062 83.2701V85.0243C173.082 85.0243 177.604 83.9333 181.606 81.7319L180.761 80.1949ZM168.062 71.6137C170.312 71.6137 172.329 71.1354 174.087 70.1511L173.23 68.6206C171.771 69.4373 170.058 69.8595 168.062 69.8595V71.6137ZM174.109 70.138C175.86 69.0876 177.198 67.6444 178.109 65.8225L176.54 65.038C175.779 66.5606 174.672 67.7545 173.207 68.6338L174.109 70.138ZM178.103 65.834C179.075 63.9585 179.552 61.8556 179.552 59.545H177.798C177.798 61.6081 177.374 63.4287 176.546 65.0265L178.103 65.834ZM179.552 59.545C179.552 57.2361 179.076 55.1856 178.09 53.4242L176.559 54.2813C177.374 55.7359 177.798 57.4801 177.798 59.545H179.552ZM178.097 53.4369C177.12 51.6226 175.748 50.2128 173.99 49.2283L173.133 50.7588C174.591 51.5752 175.728 52.7383 176.552 54.2685L178.097 53.4369ZM174.026 49.2498C172.322 48.1842 170.321 47.6693 168.062 47.6693V49.4234C170.048 49.4234 171.714 49.8733 173.097 50.7373L174.026 49.2498ZM168.062 47.6693C165.861 47.6693 163.869 48.187 162.112 49.2415L163.014 50.7456C164.473 49.8705 166.147 49.4234 168.062 49.4234V47.6693ZM162.134 49.2283C160.376 50.2128 159.005 51.6226 158.028 53.4369L159.573 54.2685C160.397 52.7383 161.534 51.5752 162.992 50.7588L162.134 49.2283ZM158.028 53.4369C157.049 55.2552 156.572 57.3316 156.572 59.6415H158.327C158.327 57.5776 158.751 55.7949 159.573 54.2685L158.028 53.4369ZM156.572 59.6415C156.572 61.8923 157.051 63.9622 158.022 65.834L159.579 65.0265C158.749 63.425 158.327 61.6357 158.327 59.6415H156.572ZM158.028 65.8461C159.002 67.6554 160.367 69.0909 162.112 70.138L163.014 68.6338C161.543 67.7513 160.399 66.5497 159.573 65.0144L158.028 65.8461ZM162.134 70.1511C163.888 71.1332 165.872 71.6137 168.062 71.6137V69.8595C166.136 69.8595 164.454 69.4395 162.992 68.6206L162.134 70.1511ZM221.335 82.2176L221.704 81.4218L221.704 81.4218L221.335 82.2176ZM214.871 77.2007L214.175 77.7335L214.182 77.7435L214.871 77.2007ZM211.977 69.7718H211.1V69.8125L211.104 69.853L211.977 69.7718ZM211.977 49.9936L211.104 49.9123L211.1 49.9528V49.9936H211.977ZM214.871 42.4682L214.167 41.9451L214.167 41.9451L214.871 42.4682ZM221.335 37.1618L221.72 37.9501L221.72 37.9501L221.335 37.1618ZM241.789 38.416L241.325 39.1606L241.332 39.1644L241.789 38.416ZM249.893 47.0992L249.117 47.5077L249.123 47.5182L249.893 47.0992ZM249.893 72.1838L249.123 71.7647L249.117 71.7753L249.893 72.1838ZM241.789 80.8669L241.332 80.1185L241.325 80.1224L241.789 80.8669ZM232.816 69.2894L232.365 68.5373L232.358 68.5414L232.352 68.5456L232.816 69.2894ZM236.579 65.3338L235.807 64.9179L235.807 64.9179L236.579 65.3338ZM236.579 53.8527L235.807 54.2685L235.807 54.2685L236.579 53.8527ZM232.816 49.9936L232.352 50.7373L232.37 50.7485L232.388 50.7588L232.816 49.9936ZM221.914 49.9936L222.356 50.7512L222.366 50.7456L221.914 49.9936ZM218.248 53.8527L219.02 54.2685L219.02 54.2685L218.248 53.8527ZM218.152 65.3338L217.367 65.726L217.373 65.7379L217.379 65.7496L218.152 65.3338ZM221.914 69.2894L221.463 70.0415L221.463 70.0415L221.914 69.2894ZM203.004 102.864H202.127V103.741H203.004V102.864ZM203.004 36.197V35.3199H202.127V36.197H203.004ZM217.766 36.197H218.643V35.3199H217.766V36.197ZM217.766 48.2569L218.624 48.4387L218.643 48.3488V48.2569H217.766ZM215.354 59.6415L214.496 59.4597L214.459 59.6342L214.493 59.8093L215.354 59.6415ZM217.573 71.026H218.45V70.9413L218.434 70.8582L217.573 71.026ZM217.573 102.864V103.741H218.45V102.864H217.573ZM230.019 83.1736C226.983 83.1736 224.216 82.586 221.704 81.4218L220.967 83.0134C223.729 84.2934 226.75 84.9278 230.019 84.9278V83.1736ZM221.704 81.4218C219.183 80.2533 217.141 78.664 215.56 76.6579L214.182 77.7435C215.946 79.9825 218.214 81.7378 220.967 83.0134L221.704 81.4218ZM215.568 76.6679C213.997 74.6132 213.092 72.2937 212.85 69.6906L211.104 69.853C211.376 72.7813 212.401 75.4145 214.175 77.7335L215.568 76.6679ZM212.854 69.7718V49.9936H211.1V69.7718H212.854ZM212.85 50.0748C213.093 47.4707 213.998 45.1147 215.575 42.9912L214.167 41.9451C212.4 44.324 211.376 46.985 211.104 49.9123L212.85 50.0748ZM215.575 42.9912C217.16 40.858 219.203 39.1779 221.72 37.9501L220.951 36.3735C218.194 37.7185 215.927 39.576 214.167 41.9451L215.575 42.9912ZM221.72 37.9501C224.229 36.7264 226.99 36.1093 230.019 36.1093V34.3551C226.744 34.3551 223.717 35.0244 220.951 36.3735L221.72 37.9501ZM230.019 36.1093C234.311 36.1093 238.07 37.1336 241.325 39.1606L242.253 37.6715C238.69 35.4534 234.603 34.3551 230.019 34.3551V36.1093ZM241.332 39.1644C244.667 41.203 247.26 43.9788 249.117 47.5077L250.669 46.6907C248.668 42.8871 245.857 39.8742 242.246 37.6676L241.332 39.1644ZM249.123 47.5182C251.038 51.0404 252.007 55.0739 252.007 59.6415H253.761C253.761 54.8184 252.736 50.4903 250.664 46.6801L249.123 47.5182ZM252.007 59.6415C252.007 64.209 251.038 68.2425 249.123 71.7647L250.664 72.6028C252.736 68.7926 253.761 64.4646 253.761 59.6415H252.007ZM249.117 71.7753C247.26 75.3041 244.667 78.08 241.332 80.1185L242.246 81.6153C245.857 79.4088 248.668 76.3958 250.669 72.5923L249.117 71.7753ZM241.325 80.1224C238.07 82.1493 234.311 83.1736 230.019 83.1736V84.9278C234.603 84.9278 238.69 83.8296 242.253 81.6115L241.325 80.1224ZM227.317 71.6137C229.576 71.6137 231.576 71.0987 233.281 70.0332L232.352 68.5456C230.969 69.4097 229.303 69.8595 227.317 69.8595V71.6137ZM233.268 70.0415C235.013 68.9944 236.377 67.5589 237.351 65.7496L235.807 64.9179C234.98 66.4532 233.836 67.6548 232.365 68.5373L233.268 70.0415ZM237.351 65.7496C238.328 63.935 238.807 61.8918 238.807 59.6415H237.053C237.053 61.6362 236.631 63.3879 235.807 64.9179L237.351 65.7496ZM238.807 59.6415C238.807 57.3316 238.33 55.2552 237.351 53.4369L235.807 54.2685C236.629 55.7949 237.053 57.5776 237.053 59.6415H238.807ZM237.351 53.4369C236.374 51.6226 235.003 50.2128 233.245 49.2283L232.388 50.7588C233.846 51.5752 234.983 52.7383 235.807 54.2685L237.351 53.4369ZM233.281 49.2498C231.581 48.1869 229.614 47.6693 227.414 47.6693V49.4234C229.33 49.4234 230.965 49.8706 232.352 50.7373L233.281 49.2498ZM227.414 47.6693C225.212 47.6693 223.22 48.187 221.463 49.2415L222.366 50.7456C223.824 49.8705 225.498 49.4234 227.414 49.4234V47.6693ZM221.472 49.2359C219.78 50.2229 218.448 51.6317 217.476 53.4369L219.02 54.2685C219.849 52.7291 220.961 51.5651 222.356 50.7512L221.472 49.2359ZM217.476 53.4369C216.497 55.2552 216.02 57.3316 216.02 59.6415H217.774C217.774 57.5776 218.198 55.7949 219.02 54.2685L217.476 53.4369ZM216.02 59.6415C216.02 61.8817 216.462 63.9163 217.367 65.726L218.936 64.9415C218.169 63.4065 217.774 61.6464 217.774 59.6415H216.02ZM217.379 65.7496C218.354 67.5589 219.718 68.9944 221.463 70.0415L222.366 68.5373C220.895 67.6548 219.751 66.4532 218.924 64.9179L217.379 65.7496ZM221.463 70.0415C223.216 71.0933 225.175 71.6137 227.317 71.6137V69.8595C225.472 69.8595 223.829 69.4151 222.366 68.5373L221.463 70.0415ZM203.881 102.864L203.881 36.197H202.127L202.127 102.864H203.881ZM203.004 37.0741H217.766V35.3199H203.004V37.0741ZM216.889 36.197V48.2569H218.643V36.197H216.889ZM216.908 48.0751L214.496 59.4597L216.212 59.8233L218.624 48.4387L216.908 48.0751ZM214.493 59.8093L216.712 71.1938L218.434 70.8582L216.215 59.4737L214.493 59.8093ZM216.696 71.026L216.696 102.864H218.45L218.45 71.026H216.696ZM217.573 101.987H203.004V103.741H217.573V101.987ZM262.313 83.0859H261.436V83.963H262.313V83.0859ZM262.313 36.197V35.3199H261.436V36.197H262.313ZM277.074 36.197H277.951V35.3199H277.074V36.197ZM277.074 83.0859V83.963H277.951V83.0859H277.074ZM263.953 27.4174L263.307 28.0112L263.32 28.0247L263.333 28.0376L263.953 27.4174ZM263.953 15.8399L263.333 15.2197L263.326 15.2263L263.32 15.233L263.953 15.8399ZM275.434 27.4174L276.067 28.0243L276.073 28.0178L276.079 28.0112L275.434 27.4174ZM263.19 83.0859V36.197H261.436V83.0859H263.19ZM262.313 37.0741H277.074V35.3199H262.313V37.0741ZM276.197 36.197V83.0859H277.951V36.197H276.197ZM277.074 82.2089H262.313V83.963H277.074V82.2089ZM269.742 28.8558C267.643 28.8558 265.941 28.1656 264.573 26.7972L263.333 28.0376C265.052 29.7565 267.209 30.61 269.742 30.61V28.8558ZM264.598 26.8236C263.273 25.3828 262.611 23.6672 262.611 21.6286H260.857C260.857 24.0925 261.674 26.236 263.307 28.0112L264.598 26.8236ZM262.611 21.6286C262.611 19.5187 263.277 17.8129 264.586 16.4468L263.32 15.233C261.67 16.9543 260.857 19.1076 260.857 21.6286H262.611ZM264.573 16.4601C265.941 15.0917 267.643 14.4015 269.742 14.4015V12.6473C267.209 12.6473 265.052 13.5008 263.333 15.2197L264.573 16.4601ZM269.742 14.4015C271.84 14.4015 273.501 15.091 274.801 16.4468L276.067 15.233C274.408 13.5015 272.274 12.6473 269.742 12.6473V14.4015ZM274.801 16.4468C276.11 17.8129 276.776 19.5187 276.776 21.6286H278.53C278.53 19.1076 277.717 16.9543 276.067 15.233L274.801 16.4468ZM276.776 21.6286C276.776 23.6672 276.114 25.3828 274.788 26.8236L276.079 28.0112C277.713 26.236 278.53 24.0925 278.53 21.6286H276.776ZM274.801 26.8105C273.501 28.1663 271.84 28.8558 269.742 28.8558V30.61C272.274 30.61 274.408 29.7558 276.067 28.0243L274.801 26.8105ZM295.38 83.0859H294.503V83.963H295.38V83.0859ZM297.889 21.9181L297.124 21.4881L297.121 21.4935L297.889 21.9181ZM305.125 14.6821L305.555 15.4467L305.567 15.4397L305.125 14.6821ZM324.517 13.6209L324.151 14.4179L324.164 14.4237L324.177 14.4292L324.517 13.6209ZM330.885 17.9624L331.505 18.5826L332.114 17.9732L331.516 17.3532L330.885 17.9624ZM321.623 27.2244L321.002 27.8446L321.623 28.4648L322.243 27.8446L321.623 27.2244ZM319.404 25.7773L319.011 26.5617L319.049 26.5807L319.089 26.5959L319.404 25.7773ZM311.878 26.935L311.258 26.3148L311.258 26.3148L311.878 26.935ZM310.142 83.0859V83.963H311.019V83.0859H310.142ZM285.057 48.7393H284.18V49.6164H285.057V48.7393ZM285.057 36.197V35.3199H284.18V36.197H285.057ZM323.649 36.197H324.526V35.3199H323.649V36.197ZM323.649 48.7393V49.6164H324.526V48.7393H323.649ZM296.257 83.0859V32.1449H294.503V83.0859H296.257ZM296.257 32.1449C296.257 28.4836 297.063 25.2232 298.656 22.3427L297.121 21.4935C295.37 24.659 294.503 28.2165 294.503 32.1449H296.257ZM298.653 22.3481C300.311 19.4008 302.607 17.1045 305.555 15.4466L304.695 13.9177C301.467 15.7331 298.94 18.2607 297.124 21.4881L298.653 22.3481ZM305.567 15.4397C308.497 13.7306 312.004 12.8578 316.123 12.8578V11.1036C311.752 11.1036 307.927 12.0318 304.683 13.9245L305.567 15.4397ZM316.123 12.8578C319.241 12.8578 321.909 13.3878 324.151 14.4179L324.883 12.8239C322.365 11.6671 319.438 11.1036 316.123 11.1036V12.8578ZM324.177 14.4292C326.514 15.4134 328.537 16.7937 330.254 18.5717L331.516 17.3532C329.63 15.4006 327.408 13.8866 324.857 12.8125L324.177 14.4292ZM330.264 17.3422L321.002 26.6043L322.243 27.8446L331.505 18.5826L330.264 17.3422ZM322.243 26.6043C321.514 25.8757 320.671 25.325 319.718 24.9586L319.089 26.5959C319.809 26.8727 320.445 27.2868 321.002 27.8446L322.243 26.6043ZM319.796 24.9928C318.874 24.5319 317.8 24.3213 316.606 24.3213V26.0755C317.598 26.0755 318.389 26.2508 319.011 26.5617L319.796 24.9928ZM316.606 24.3213C314.433 24.3213 312.615 24.958 311.258 26.3148L312.498 27.5552C313.457 26.5965 314.79 26.0755 316.606 26.0755V24.3213ZM311.258 26.3148C309.901 27.6716 309.264 29.4899 309.264 31.6625H311.019C311.019 29.8472 311.54 28.5139 312.498 27.5552L311.258 26.3148ZM309.264 31.6625V83.0859L311.019 83.0859V31.6625H309.264ZM310.142 82.2089L295.38 82.2089V83.963L310.142 83.963V82.2089ZM285.934 48.7393V36.197H284.18V48.7393H285.934ZM285.057 37.0741L323.649 37.0741V35.3199L285.057 35.3199V37.0741ZM322.772 36.197V48.7393H324.526V36.197H322.772ZM323.649 47.8622L285.057 47.8622V49.6164L323.649 49.6164V47.8622ZM346.879 83.2789L346.067 83.6115L346.291 84.156H346.879V83.2789ZM327.583 36.197V35.3199H326.276L326.772 36.5296L327.583 36.197ZM343.502 36.197L344.336 35.9235L344.138 35.3199H343.502V36.197ZM355.755 73.5345V74.4116H356.966L356.589 73.261L355.755 73.5345ZM349.87 73.5345L349.038 73.2552L348.65 74.4116H349.87V73.5345ZM362.412 36.197V35.3199H361.782L361.581 35.9177L362.412 36.197ZM378.331 36.197L379.138 36.5409L379.659 35.3199H378.331V36.197ZM358.264 83.2789V84.156H358.843L359.07 83.6228L358.264 83.2789ZM334.819 102.864L334.023 102.495L333.446 103.741H334.819V102.864ZM348.905 72.4732L349.568 71.899L348.68 70.8734L348.109 72.1044L348.905 72.4732ZM358.264 83.2789L359.071 83.621L359.284 83.1178L358.927 82.7047L358.264 83.2789ZM349.966 102.864V103.741H350.547L350.774 103.206L349.966 102.864ZM347.691 82.9463L328.395 35.8644L326.772 36.5296L346.067 83.6115L347.691 82.9463ZM327.583 37.0741L343.502 37.0741V35.3199L327.583 35.3199V37.0741ZM342.669 36.4705L354.922 73.808L356.589 73.261L344.336 35.9235L342.669 36.4705ZM355.755 72.6574H349.87V74.4116H355.755V72.6574ZM350.701 73.8138L363.244 36.4763L361.581 35.9177L349.038 73.2552L350.701 73.8138ZM362.412 37.0741L378.331 37.0741V35.3199L362.412 35.3199V37.0741ZM377.524 35.8531L357.457 82.935L359.07 83.6228L379.138 36.5409L377.524 35.8531ZM358.264 82.4018H346.879V84.156H358.264V82.4018ZM335.615 103.233L349.701 72.842L348.109 72.1044L334.023 102.495L335.615 103.233ZM348.242 73.0474L357.601 83.8531L358.927 82.7047L349.568 71.899L348.242 73.0474ZM357.456 82.9368L349.159 102.522L350.774 103.206L359.071 83.621L357.456 82.9368ZM349.966 101.987H334.819V103.741H349.966V101.987Z" fill="white" fill-opacity="0.4"/>
<path d="M399.459 81.4458L399.088 82.2403L399.096 82.2438L399.103 82.2473L399.459 81.4458ZM388.461 73.0521L387.844 72.4289L387.251 73.0161L387.808 73.6376L388.461 73.0521ZM398.302 63.3077L398.963 62.7313L398.349 62.0269L397.685 62.6844L398.302 63.3077ZM405.538 69.1929L405.123 69.9658L405.134 69.9718L405.145 69.9774L405.538 69.1929ZM422.325 69.4824L421.851 68.7446L421.845 68.7485L421.839 68.7526L422.325 69.4824ZM423.29 60.1239L422.67 60.7441L422.67 60.7441L423.29 60.1239ZM418.659 57.133L418.3 57.9334L418.31 57.9378L418.659 57.133ZM412.388 54.721L412.103 55.5507L412.11 55.5531L412.388 54.721ZM405.634 52.1161L405.269 52.9138L405.279 52.9181L405.289 52.9223L405.634 52.1161ZM399.363 48.3534L398.804 49.0291L398.816 49.0395L398.829 49.0495L399.363 48.3534ZM394.828 42.6611L394.044 43.0534L394.048 43.0623L394.828 42.6611ZM396.083 23.1723L395.358 22.6786L395.351 22.6894L396.083 23.1723ZM404.573 16.3223L404.918 17.1285L404.93 17.1232L404.573 16.3223ZM430.043 16.4188L429.699 17.2256L429.704 17.2276L430.043 16.4188ZM439.884 23.2688L440.501 23.892L441.092 23.3073L440.54 22.6861L439.884 23.2688ZM430.043 33.0132L429.414 33.6238L430.031 34.2601L430.661 33.6364L430.043 33.0132ZM423.772 28.2857L423.38 29.0703L423.39 29.0749L423.772 28.2857ZM410.458 28.2857L410.923 29.0295L410.934 29.0226L410.945 29.0155L410.458 28.2857ZM409.879 36.7759L409.277 37.4135L409.287 37.4226L409.297 37.4314L409.879 36.7759ZM414.414 39.4773L414.078 40.2878L414.088 40.2917L414.414 39.4773ZM420.685 41.7928L420.4 42.6225L420.408 42.6249L420.685 41.7928ZM427.535 44.4942L427.9 43.6965L427.9 43.6965L427.535 44.4942ZM433.71 48.4499L433.137 49.1142L433.149 49.1247L433.162 49.1348L433.71 48.4499ZM438.341 54.4316L437.548 54.8071L437.552 54.8153L438.341 54.4316ZM433.131 78.6479L433.675 79.3356L433.681 79.3309L433.131 78.6479ZM413.931 83.2701C408.427 83.2701 403.73 82.3842 399.816 80.6443L399.103 82.2473C403.293 84.1093 408.244 85.0243 413.931 85.0243V83.2701ZM399.831 80.6513C395.964 78.8425 392.391 76.1213 389.114 72.4666L387.808 73.6376C391.22 77.4439 394.979 80.3185 399.088 82.2403L399.831 80.6513ZM389.078 73.6753L398.919 63.9309L397.685 62.6844L387.844 72.4289L389.078 73.6753ZM397.641 63.8841C399.889 66.4634 402.383 68.4954 405.123 69.9658L405.952 68.4201C403.418 67.0604 401.088 65.1689 398.963 62.7313L397.641 63.8841ZM405.145 69.9774C407.988 71.3986 411.246 72.0961 414.896 72.0961V70.3419C411.471 70.3419 408.49 69.6886 405.93 68.4084L405.145 69.9774ZM414.896 72.0961C418.198 72.0961 420.872 71.5049 422.812 70.2121L421.839 68.7526C420.304 69.7753 418.026 70.3419 414.896 70.3419V72.0961ZM422.799 70.2201C424.839 68.9088 425.904 67.0293 425.904 64.6584H424.149C424.149 66.404 423.413 67.7404 421.851 68.7446L422.799 70.2201ZM425.904 64.6584C425.904 62.5957 425.256 60.8493 423.91 59.5037L422.67 60.7441C423.64 61.714 424.149 62.9905 424.149 64.6584H425.904ZM423.91 59.5037C422.655 58.2492 421.011 57.1964 419.008 56.3282L418.31 57.9378C420.166 58.742 421.609 59.6831 422.67 60.7441L423.91 59.5037ZM419.018 56.3327C417.121 55.4826 415.003 54.6683 412.665 53.889L412.11 55.5531C414.403 56.3174 416.466 57.1112 418.3 57.9334L419.018 56.3327ZM412.672 53.8914C410.442 53.1268 408.211 52.2664 405.98 51.3099L405.289 52.9223C407.559 53.8954 409.831 54.7716 412.103 55.5507L412.672 53.8914ZM405.999 51.3184C403.806 50.3162 401.773 49.0959 399.897 47.6573L398.829 49.0495C400.812 50.5697 402.959 51.8578 405.269 52.9138L405.999 51.3184ZM399.922 47.6777C398.152 46.2131 396.714 44.4106 395.608 42.26L394.048 43.0623C395.258 45.4141 396.843 47.4064 398.804 49.0291L399.922 47.6777ZM395.613 42.2689C394.533 40.1095 393.969 37.3595 393.969 33.978H392.215C392.215 37.543 392.808 40.5818 394.044 43.0534L395.613 42.2689ZM393.969 33.978C393.969 29.9417 394.929 26.5138 396.815 23.6552L395.351 22.6894C393.248 25.8769 392.215 29.6527 392.215 33.978H393.969ZM396.808 23.6659C398.765 20.7911 401.459 18.6112 404.918 17.1285L404.227 15.5161C400.483 17.1207 397.517 19.5075 395.358 22.6787L396.808 23.6659ZM404.93 17.1232C408.4 15.5741 412.423 14.7874 417.019 14.7874V13.0332C412.223 13.0332 407.949 13.8545 404.215 15.5214L404.93 17.1232ZM417.019 14.7874C421.674 14.7874 425.897 15.6048 429.699 17.2256L430.387 15.6119C426.343 13.8882 421.883 13.0332 417.019 13.0332V14.7874ZM429.704 17.2276C433.585 18.8551 436.753 21.0661 439.229 23.8515L440.54 22.6861C437.87 19.6827 434.477 17.327 430.383 15.6099L429.704 17.2276ZM439.267 22.6456L429.426 32.39L430.661 33.6364L440.501 23.892L439.267 22.6456ZM430.673 32.4026C428.561 30.2244 426.39 28.58 424.155 27.4965L423.39 29.0749C425.4 30.0497 427.409 31.5569 429.414 33.6238L430.673 32.4026ZM424.164 27.5012C421.968 26.4029 419.483 25.865 416.729 25.865V27.6191C419.25 27.6191 421.46 28.1103 423.38 29.0702L424.164 27.5012ZM416.729 25.865C413.989 25.865 411.708 26.3982 409.972 27.5559L410.945 29.0155C412.295 28.115 414.195 27.6191 416.729 27.6191V25.865ZM409.993 27.542C408.186 28.6718 407.265 30.3722 407.265 32.5308H409.02C409.02 30.9589 409.643 29.8292 410.923 29.0295L409.993 27.542ZM407.265 32.5308C407.265 34.4845 407.927 36.1385 409.277 37.4135L410.481 36.1382C409.516 35.2265 409.02 34.0504 409.02 32.5308H407.265ZM409.297 37.4314C410.546 38.542 412.149 39.4892 414.078 40.2878L414.749 38.6669C412.948 37.9218 411.528 37.068 410.462 36.1204L409.297 37.4314ZM414.088 40.2917C416.033 41.0697 418.137 41.8466 420.4 42.6225L420.969 40.9631C418.73 40.1954 416.654 39.4286 414.739 38.663L414.088 40.2917ZM420.408 42.6249C422.693 43.3867 424.947 44.2756 427.17 45.2919L427.9 43.6965C425.62 42.6546 423.308 41.7426 420.962 40.9607L420.408 42.6249ZM427.17 45.2919C429.347 46.2868 431.335 47.5605 433.137 49.1142L434.282 47.7856C432.354 46.1233 430.226 44.7599 427.9 43.6965L427.17 45.2919ZM433.162 49.1348C434.978 50.5876 436.442 52.4718 437.548 54.8071L439.133 54.0561C437.924 51.5031 436.301 49.3995 434.257 47.765L433.162 49.1348ZM437.552 54.8153C438.635 57.0423 439.2 59.8604 439.2 63.3077H440.954C440.954 59.6798 440.361 56.5805 439.129 54.0479L437.552 54.8153ZM439.2 63.3077C439.2 69.5666 436.984 74.4176 432.58 77.9649L433.681 79.3309C438.539 75.4171 440.954 70.0414 440.954 63.3077H439.2ZM432.586 77.9602C428.16 81.4643 421.977 83.2701 413.931 83.2701V85.0243C422.223 85.0243 428.839 83.1639 433.675 79.3356L432.586 77.9602ZM481.275 83.0859H480.398V83.963H481.275V83.0859ZM478.959 50.4759L478.326 51.0828L478.339 51.0963L478.352 51.1092L478.959 50.4759ZM469.022 49.2217L469.43 49.9979L469.446 49.9896L469.461 49.9808L469.022 49.2217ZM466.127 52.1161L466.886 52.5555L466.891 52.5472L466.896 52.5388L466.127 52.1161ZM465.066 56.3612L464.679 57.1483L465.943 57.7696V56.3612H465.066ZM459.374 53.5633H458.497V54.1095L458.987 54.3504L459.374 53.5633ZM468.153 37.5477L468.567 38.3211L468.574 38.3174L468.581 38.3136L468.153 37.5477ZM487.353 37.5477L486.925 38.3136L486.932 38.3174L486.939 38.3211L487.353 37.5477ZM493.72 43.8189L492.951 44.2402L492.957 44.2511L492.964 44.262L493.72 43.8189ZM496.036 83.0859V83.963H496.913V83.0859H496.036ZM450.305 83.0859H449.428V83.963H450.305V83.0859ZM450.305 13.042V12.1649H449.428V13.042H450.305ZM465.066 13.042H465.943V12.1649H465.066V13.042ZM465.066 83.0859V83.963H465.943V83.0859H465.066ZM482.152 83.0859V56.3612H480.398V83.0859H482.152ZM482.152 56.3612C482.152 53.7154 481.308 51.5117 479.566 49.8427L478.352 51.1092C479.698 52.3989 480.398 54.1187 480.398 56.3612H482.152ZM479.592 49.8691C477.933 48.1375 475.799 47.2834 473.267 47.2834V49.0375C475.365 49.0375 477.027 49.7271 478.326 51.0828L479.592 49.8691ZM473.267 47.2834C471.526 47.2834 469.956 47.6676 468.582 48.4627L469.461 49.9808C470.532 49.3608 471.791 49.0375 473.267 49.0375V47.2834ZM468.613 48.4456C467.229 49.1739 466.144 50.2665 465.359 51.6934L466.896 52.5388C467.526 51.393 468.37 50.5559 469.43 49.9979L468.613 48.4456ZM465.368 51.6766C464.573 53.0499 464.189 54.6207 464.189 56.3612H465.943C465.943 54.8857 466.266 53.6264 466.886 52.5555L465.368 51.6766ZM465.453 55.574L459.761 52.7761L458.987 54.3504L464.679 57.1483L465.453 55.574ZM460.251 53.5633C460.251 50.0229 460.995 46.9586 462.455 44.3428L460.923 43.4879C459.296 46.4036 458.497 49.7712 458.497 53.5633H460.251ZM462.455 44.3428C463.918 41.7222 465.951 39.7204 468.567 38.3211L467.74 36.7743C464.824 38.3337 462.548 40.577 460.923 43.4879L462.455 44.3428ZM468.581 38.3136C471.199 36.8524 474.232 36.1093 477.705 36.1093V34.3551C473.974 34.3551 470.639 35.1557 467.726 36.7819L468.581 38.3136ZM477.705 36.1093C481.245 36.1093 484.31 36.8536 486.925 38.3136L487.78 36.7819C484.865 35.1545 481.497 34.3551 477.705 34.3551V36.1093ZM486.939 38.3211C489.558 39.7217 491.555 41.691 492.951 44.2402L494.49 43.3976C492.927 40.5439 490.68 38.3325 487.766 36.7743L486.939 38.3211ZM492.964 44.262C494.417 46.7447 495.159 49.6742 495.159 53.0809H496.913C496.913 49.4125 496.111 46.1673 494.477 43.3758L492.964 44.262ZM495.159 53.0809V83.0859H496.913V53.0809H495.159ZM496.036 82.2089L481.275 82.2089V83.963L496.036 83.963V82.2089ZM451.182 83.0859L451.182 13.042H449.428L449.428 83.0859H451.182ZM450.305 13.9191L465.066 13.9191V12.1649L450.305 12.1649V13.9191ZM464.189 13.042V83.0859H465.943V13.042H464.189ZM465.066 82.2089H450.305V83.963H465.066V82.2089ZM516.901 80.9634L516.469 81.7265L516.476 81.7307L516.484 81.7348L516.901 80.9634ZM507.736 72.0873L508.487 71.6341L508.487 71.6341L507.736 72.0873ZM507.736 47.0992L506.988 46.6402L506.988 46.6402L507.736 47.0992ZM516.901 38.416L517.324 39.1846L517.333 39.1791L516.901 38.416ZM552.309 47.0992L551.558 47.5523L551.562 47.5581L552.309 47.0992ZM552.309 72.0873L553.06 72.5405L553.06 72.5405L552.309 72.0873ZM543.143 80.9634L543.566 81.732L543.576 81.7265L543.143 80.9634ZM535.618 69.3859L536.047 70.1511L536.058 70.1447L536.069 70.138L535.618 69.3859ZM539.284 65.4302L538.506 65.0265L538.5 65.038L539.284 65.4302ZM539.284 53.8527L538.512 54.2685L538.515 54.2749L538.519 54.2813L539.284 53.8527ZM535.522 49.9936L535.057 50.7373L535.075 50.7485L535.093 50.7588L535.522 49.9936ZM524.523 49.9936L524.951 50.7588L524.963 50.7524L524.974 50.7456L524.523 49.9936ZM520.76 53.8527L521.533 54.2685L521.533 54.2685L520.76 53.8527ZM520.76 65.4302L519.982 65.834L519.988 65.8461L520.76 65.4302ZM524.523 69.3859L524.072 70.138L524.083 70.1447L524.094 70.1511L524.523 69.3859ZM530.022 83.2701C525.332 83.2701 521.103 82.2396 517.318 80.192L516.484 81.7348C520.546 83.9323 525.065 85.0243 530.022 85.0243V83.2701ZM517.333 80.2003C513.603 78.0863 510.658 75.2333 508.487 71.6341L506.985 72.5405C509.315 76.4023 512.481 79.4668 516.469 81.7265L517.333 80.2003ZM508.487 71.6341C506.323 68.049 505.236 64.0267 505.236 59.545H503.482C503.482 64.3253 504.646 68.6645 506.985 72.5405L508.487 71.6341ZM505.236 59.545C505.236 55.0631 506.323 51.0757 508.483 47.5581L506.988 46.6402C504.646 50.4551 503.482 54.7648 503.482 59.545H505.236ZM508.483 47.5581C510.653 44.0247 513.595 41.2356 517.324 39.1846L516.478 37.6475C512.489 39.8415 509.321 42.8412 506.988 46.6402L508.483 47.5581ZM517.333 39.1791C521.048 37.0744 525.27 36.0128 530.022 36.0128V34.2587C524.998 34.2587 520.473 35.3839 516.469 37.653L517.333 39.1791ZM530.022 36.0128C534.779 36.0128 539.005 37.0443 542.721 39.0881L543.566 37.551C539.564 35.3497 535.042 34.2587 530.022 34.2587V36.0128ZM542.721 39.0881C546.446 41.1371 549.388 43.9555 551.558 47.5523L553.06 46.646C550.728 42.7818 547.559 39.7471 543.566 37.551L542.721 39.0881ZM551.562 47.5581C553.721 51.0757 554.809 55.0631 554.809 59.545H556.563C556.563 54.7648 555.399 50.4551 553.056 46.6402L551.562 47.5581ZM554.809 59.545C554.809 64.0267 553.721 68.049 551.558 71.6341L553.06 72.5405C555.399 68.6645 556.563 64.3253 556.563 59.545H554.809ZM551.558 71.6341C549.386 75.2333 546.442 78.0863 542.711 80.2003L543.576 81.7265C547.564 79.4668 550.729 76.4023 553.06 72.5405L551.558 71.6341ZM542.721 80.1949C539.005 82.2386 534.779 83.2701 530.022 83.2701V85.0243C535.042 85.0243 539.564 83.9333 543.566 81.7319L542.721 80.1949ZM530.022 71.6137C532.272 71.6137 534.289 71.1354 536.047 70.1511L535.19 68.6206C533.731 69.4373 532.018 69.8595 530.022 69.8595V71.6137ZM536.069 70.138C537.82 69.0876 539.158 67.6444 540.069 65.8225L538.5 65.038C537.738 66.5606 536.632 67.7545 535.167 68.6338L536.069 70.138ZM540.063 65.834C541.035 63.9585 541.512 61.8556 541.512 59.545H539.758C539.758 61.6081 539.334 63.4287 538.506 65.0265L540.063 65.834ZM541.512 59.545C541.512 57.2361 541.036 55.1856 540.05 53.4242L538.519 54.2813C539.334 55.7359 539.758 57.4801 539.758 59.545H541.512ZM540.057 53.4369C539.08 51.6226 537.708 50.2128 535.95 49.2283L535.093 50.7588C536.551 51.5752 537.688 52.7383 538.512 54.2685L540.057 53.4369ZM535.986 49.2498C534.282 48.1842 532.281 47.6693 530.022 47.6693V49.4234C532.008 49.4234 533.674 49.8733 535.057 50.7373L535.986 49.2498ZM530.022 47.6693C527.821 47.6693 525.829 48.187 524.072 49.2415L524.974 50.7456C526.433 49.8705 528.107 49.4234 530.022 49.4234V47.6693ZM524.094 49.2283C522.336 50.2128 520.965 51.6226 519.988 53.4369L521.533 54.2685C522.356 52.7383 523.494 51.5752 524.951 50.7588L524.094 49.2283ZM519.988 53.4369C519.009 55.2552 518.532 57.3316 518.532 59.6415H520.287C520.287 57.5776 520.711 55.7949 521.533 54.2685L519.988 53.4369ZM518.532 59.6415C518.532 61.8923 519.011 63.9622 519.982 65.834L521.539 65.0265C520.708 63.425 520.287 61.6357 520.287 59.6415H518.532ZM519.988 65.8461C520.962 67.6554 522.327 69.0909 524.072 70.138L524.974 68.6338C523.503 67.7513 522.359 66.5497 521.533 65.0144L519.988 65.8461ZM524.094 70.1511C525.848 71.1332 527.832 71.6137 530.022 71.6137V69.8595C528.096 69.8595 526.414 69.4395 524.951 68.6206L524.094 70.1511ZM583.295 82.2176L583.664 81.4218L583.664 81.4218L583.295 82.2176ZM576.831 77.2007L576.134 77.7335L576.142 77.7435L576.831 77.2007ZM573.937 69.7718H573.06V69.8125L573.064 69.853L573.937 69.7718ZM573.937 49.9936L573.064 49.9123L573.06 49.9528V49.9936H573.937ZM576.831 42.4682L576.127 41.9451L576.127 41.9451L576.831 42.4682ZM583.295 37.1618L583.68 37.9501L583.68 37.9501L583.295 37.1618ZM603.749 38.416L603.285 39.1606L603.292 39.1644L603.749 38.416ZM611.853 47.0992L611.077 47.5077L611.083 47.5182L611.853 47.0992ZM611.853 72.1838L611.083 71.7647L611.077 71.7753L611.853 72.1838ZM603.749 80.8669L603.292 80.1185L603.285 80.1224L603.749 80.8669ZM594.776 69.2894L594.325 68.5373L594.318 68.5414L594.312 68.5456L594.776 69.2894ZM598.539 65.3338L597.767 64.9179L597.767 64.9179L598.539 65.3338ZM598.539 53.8527L597.767 54.2685L597.767 54.2685L598.539 53.8527ZM594.776 49.9936L594.312 50.7373L594.329 50.7485L594.348 50.7588L594.776 49.9936ZM583.874 49.9936L584.316 50.7512L584.326 50.7456L583.874 49.9936ZM580.208 53.8527L580.98 54.2685L580.98 54.2685L580.208 53.8527ZM580.112 65.3338L579.327 65.726L579.333 65.7379L579.339 65.7496L580.112 65.3338ZM583.874 69.2894L583.423 70.0415L583.423 70.0415L583.874 69.2894ZM564.964 102.864H564.087V103.741H564.964V102.864ZM564.964 36.197V35.3199H564.087V36.197H564.964ZM579.726 36.197H580.603V35.3199H579.726V36.197ZM579.726 48.2569L580.584 48.4387L580.603 48.3488V48.2569H579.726ZM577.314 59.6415L576.456 59.4597L576.419 59.6342L576.453 59.8093L577.314 59.6415ZM579.533 71.026H580.41V70.9413L580.394 70.8582L579.533 71.026ZM579.533 102.864V103.741H580.41V102.864H579.533ZM591.979 83.1736C588.943 83.1736 586.176 82.586 583.664 81.4218L582.927 83.0134C585.689 84.2934 588.71 84.9278 591.979 84.9278V83.1736ZM583.664 81.4218C581.143 80.2533 579.101 78.664 577.52 76.6579L576.142 77.7435C577.906 79.9825 580.174 81.7378 582.927 83.0134L583.664 81.4218ZM577.528 76.6679C575.957 74.6132 575.052 72.2937 574.81 69.6906L573.064 69.853C573.336 72.7813 574.361 75.4145 576.135 77.7335L577.528 76.6679ZM574.814 69.7718V49.9936H573.06V69.7718H574.814ZM574.81 50.0748C575.052 47.4707 575.958 45.1147 577.535 42.9912L576.127 41.9451C574.36 44.324 573.336 46.985 573.064 49.9123L574.81 50.0748ZM577.535 42.9912C579.12 40.858 581.163 39.1779 583.68 37.9501L582.911 36.3735C580.154 37.7185 577.887 39.576 576.127 41.9451L577.535 42.9912ZM583.68 37.9501C586.189 36.7264 588.95 36.1093 591.979 36.1093V34.3551C588.704 34.3551 585.676 35.0244 582.911 36.3735L583.68 37.9501ZM591.979 36.1093C596.271 36.1093 600.03 37.1336 603.285 39.1606L604.213 37.6715C600.65 35.4534 596.563 34.3551 591.979 34.3551V36.1093ZM603.292 39.1644C606.627 41.203 609.22 43.9788 611.077 47.5077L612.629 46.6907C610.628 42.8871 607.817 39.8742 604.206 37.6676L603.292 39.1644ZM611.083 47.5182C612.998 51.0404 613.967 55.0739 613.967 59.6415H615.721C615.721 54.8184 614.696 50.4903 612.624 46.6801L611.083 47.5182ZM613.967 59.6415C613.967 64.209 612.998 68.2425 611.083 71.7647L612.624 72.6028C614.696 68.7926 615.721 64.4646 615.721 59.6415H613.967ZM611.077 71.7753C609.22 75.3041 606.627 78.08 603.292 80.1185L604.206 81.6153C607.817 79.4088 610.628 76.3958 612.629 72.5923L611.077 71.7753ZM603.285 80.1224C600.03 82.1493 596.271 83.1736 591.979 83.1736V84.9278C596.563 84.9278 600.65 83.8296 604.213 81.6115L603.285 80.1224ZM589.277 71.6137C591.536 71.6137 593.536 71.0987 595.241 70.0332L594.312 68.5456C592.929 69.4097 591.263 69.8595 589.277 69.8595V71.6137ZM595.228 70.0415C596.973 68.9944 598.337 67.5589 599.311 65.7496L597.767 64.9179C596.94 66.4532 595.796 67.6548 594.325 68.5373L595.228 70.0415ZM599.311 65.7496C600.288 63.935 600.767 61.8918 600.767 59.6415H599.013C599.013 61.6362 598.591 63.3879 597.767 64.9179L599.311 65.7496ZM600.767 59.6415C600.767 57.3316 600.29 55.2552 599.311 53.4369L597.767 54.2685C598.589 55.7949 599.013 57.5776 599.013 59.6415H600.767ZM599.311 53.4369C598.334 51.6226 596.963 50.2128 595.205 49.2283L594.348 50.7588C595.806 51.5752 596.943 52.7383 597.767 54.2685L599.311 53.4369ZM595.241 49.2498C593.541 48.1869 591.574 47.6693 589.374 47.6693V49.4234C591.289 49.4234 592.925 49.8706 594.312 50.7373L595.241 49.2498ZM589.374 47.6693C587.172 47.6693 585.18 48.187 583.423 49.2415L584.326 50.7456C585.784 49.8705 587.458 49.4234 589.374 49.4234V47.6693ZM583.432 49.2359C581.74 50.2229 580.408 51.6317 579.436 53.4369L580.98 54.2685C581.809 52.7291 582.921 51.5651 584.316 50.7512L583.432 49.2359ZM579.436 53.4369C578.457 55.2552 577.98 57.3316 577.98 59.6415H579.734C579.734 57.5776 580.158 55.7949 580.98 54.2685L579.436 53.4369ZM577.98 59.6415C577.98 61.8817 578.422 63.9163 579.327 65.726L580.896 64.9415C580.129 63.4065 579.734 61.6464 579.734 59.6415H577.98ZM579.339 65.7496C580.314 67.5589 581.678 68.9944 583.423 70.0415L584.326 68.5373C582.855 67.6548 581.711 66.4532 580.884 64.9179L579.339 65.7496ZM583.423 70.0415C585.176 71.0933 587.135 71.6137 589.277 71.6137V69.8595C587.432 69.8595 585.788 69.4151 584.326 68.5373L583.423 70.0415ZM565.841 102.864L565.841 36.197H564.087L564.087 102.864H565.841ZM564.964 37.0741H579.726V35.3199H564.964V37.0741ZM578.849 36.197V48.2569H580.603V36.197H578.849ZM578.868 48.0751L576.456 59.4597L578.172 59.8233L580.584 48.4387L578.868 48.0751ZM576.453 59.8093L578.672 71.1938L580.394 70.8582L578.175 59.4737L576.453 59.8093ZM578.656 71.026V102.864H580.41V71.026H578.656ZM579.533 101.987H564.964V103.741H579.533V101.987ZM624.273 83.0859H623.396V83.963H624.273V83.0859ZM624.273 36.197V35.3199H623.396V36.197H624.273ZM639.034 36.197H639.911V35.3199H639.034V36.197ZM639.034 83.0859V83.963H639.911V83.0859H639.034ZM625.913 27.4174L625.267 28.0112L625.28 28.0247L625.293 28.0376L625.913 27.4174ZM625.913 15.8399L625.293 15.2197L625.286 15.2263L625.28 15.233L625.913 15.8399ZM637.394 27.4174L638.027 28.0243L638.033 28.0178L638.039 28.0112L637.394 27.4174ZM625.15 83.0859V36.197H623.396V83.0859H625.15ZM624.273 37.0741H639.034V35.3199H624.273V37.0741ZM638.157 36.197V83.0859H639.911V36.197H638.157ZM639.034 82.2089H624.273V83.963H639.034V82.2089ZM631.702 28.8558C629.603 28.8558 627.901 28.1656 626.533 26.7972L625.293 28.0376C627.012 29.7565 629.169 30.61 631.702 30.61V28.8558ZM626.558 26.8236C625.233 25.3828 624.571 23.6672 624.571 21.6286H622.817C622.817 24.0925 623.634 26.236 625.267 28.0112L626.558 26.8236ZM624.571 21.6286C624.571 19.5187 625.237 17.8129 626.546 16.4468L625.28 15.233C623.63 16.9543 622.817 19.1076 622.817 21.6286H624.571ZM626.533 16.4601C627.901 15.0917 629.603 14.4015 631.702 14.4015V12.6473C629.169 12.6473 627.012 13.5008 625.293 15.2197L626.533 16.4601ZM631.702 14.4015C633.8 14.4015 635.461 15.091 636.761 16.4468L638.027 15.233C636.368 13.5015 634.234 12.6473 631.702 12.6473V14.4015ZM636.761 16.4468C638.07 17.8129 638.736 19.5187 638.736 21.6286H640.49C640.49 19.1076 639.677 16.9543 638.027 15.233L636.761 16.4468ZM638.736 21.6286C638.736 23.6672 638.074 25.3828 636.748 26.8236L638.039 28.0112C639.673 26.236 640.49 24.0925 640.49 21.6286H638.736ZM636.761 26.8105C635.461 28.1663 633.8 28.8558 631.702 28.8558V30.61C634.234 30.61 636.368 29.7558 638.027 28.0243L636.761 26.8105ZM657.34 83.0859H656.463V83.963H657.34V83.0859ZM659.849 21.9181L659.084 21.4881L659.081 21.4935L659.849 21.9181ZM667.085 14.6821L667.515 15.4467L667.527 15.4397L667.085 14.6821ZM686.477 13.6209L686.111 14.4179L686.124 14.4237L686.137 14.4292L686.477 13.6209ZM692.845 17.9624L693.465 18.5826L694.074 17.9732L693.476 17.3532L692.845 17.9624ZM683.583 27.2244L682.962 27.8446L683.583 28.4648L684.203 27.8446L683.583 27.2244ZM681.364 25.7773L680.971 26.5617L681.009 26.5807L681.049 26.5959L681.364 25.7773ZM673.838 26.935L673.218 26.3148L673.218 26.3148L673.838 26.935ZM672.102 83.0859V83.963H672.979V83.0859H672.102ZM647.017 48.7393H646.14V49.6164H647.017V48.7393ZM647.017 36.197V35.3199H646.14V36.197H647.017ZM685.609 36.197H686.486V35.3199H685.609V36.197ZM685.609 48.7393V49.6164H686.486V48.7393H685.609ZM658.217 83.0859V32.1449H656.463V83.0859H658.217ZM658.217 32.1449C658.217 28.4836 659.023 25.2232 660.616 22.3427L659.081 21.4935C657.33 24.659 656.463 28.2165 656.463 32.1449H658.217ZM660.613 22.3481C662.271 19.4008 664.567 17.1045 667.515 15.4466L666.655 13.9177C663.427 15.7331 660.9 18.2607 659.084 21.4881L660.613 22.3481ZM667.527 15.4397C670.457 13.7306 673.964 12.8578 678.083 12.8578V11.1036C673.712 11.1036 669.887 12.0318 666.643 13.9245L667.527 15.4397ZM678.083 12.8578C681.201 12.8578 683.869 13.3878 686.111 14.4179L686.843 12.8239C684.325 11.6671 681.397 11.1036 678.083 11.1036V12.8578ZM686.137 14.4292C688.474 15.4134 690.497 16.7937 692.214 18.5717L693.476 17.3532C691.59 15.4006 689.368 13.8866 686.817 12.8125L686.137 14.4292ZM692.224 17.3422L682.962 26.6043L684.203 27.8446L693.465 18.5826L692.224 17.3422ZM684.203 26.6043C683.474 25.8757 682.631 25.325 681.678 24.9586L681.049 26.5959C681.769 26.8727 682.405 27.2868 682.962 27.8446L684.203 26.6043ZM681.756 24.9928C680.834 24.5319 679.76 24.3213 678.566 24.3213V26.0755C679.558 26.0755 680.349 26.2508 680.971 26.5617L681.756 24.9928ZM678.566 24.3213C676.393 24.3213 674.575 24.958 673.218 26.3148L674.458 27.5552C675.417 26.5965 676.75 26.0755 678.566 26.0755V24.3213ZM673.218 26.3148C671.861 27.6716 671.224 29.4899 671.224 31.6625H672.979C672.979 29.8472 673.5 28.5139 674.458 27.5552L673.218 26.3148ZM671.224 31.6625V83.0859L672.979 83.0859V31.6625H671.224ZM672.102 82.2089L657.34 82.2089V83.963L672.102 83.963V82.2089ZM647.894 48.7393V36.197H646.14V48.7393H647.894ZM647.017 37.0741L685.609 37.0741V35.3199L647.017 35.3199V37.0741ZM684.732 36.197V48.7393H686.486V36.197H684.732ZM685.609 47.8622L647.017 47.8622V49.6164L685.609 49.6164V47.8622ZM708.839 83.2789L708.027 83.6115L708.251 84.156H708.839V83.2789ZM689.543 36.197V35.3199H688.236L688.732 36.5296L689.543 36.197ZM705.462 36.197L706.296 35.9235L706.098 35.3199H705.462V36.197ZM717.715 73.5345V74.4116H718.926L718.548 73.261L717.715 73.5345ZM711.83 73.5345L710.998 73.2552L710.61 74.4116H711.83V73.5345ZM724.372 36.197V35.3199H723.742L723.541 35.9177L724.372 36.197ZM740.291 36.197L741.098 36.5409L741.619 35.3199H740.291V36.197ZM720.224 83.2789V84.156H720.803L721.03 83.6228L720.224 83.2789ZM696.779 102.864L695.983 102.495L695.406 103.741H696.779V102.864ZM710.865 72.4732L711.528 71.899L710.64 70.8734L710.069 72.1044L710.865 72.4732ZM720.224 83.2789L721.031 83.621L721.244 83.1178L720.887 82.7047L720.224 83.2789ZM711.926 102.864V103.741H712.507L712.734 103.206L711.926 102.864ZM709.651 82.9463L690.355 35.8644L688.732 36.5296L708.027 83.6115L709.651 82.9463ZM689.543 37.0741L705.462 37.0741V35.3199L689.543 35.3199V37.0741ZM704.629 36.4705L716.882 73.808L718.548 73.261L706.296 35.9235L704.629 36.4705ZM717.715 72.6574H711.83V74.4116H717.715V72.6574ZM712.661 73.8138L725.204 36.4763L723.541 35.9177L710.998 73.2552L712.661 73.8138ZM724.372 37.0741L740.291 37.0741V35.3199L724.372 35.3199V37.0741ZM739.484 35.8531L719.417 82.935L721.03 83.6228L741.098 36.5409L739.484 35.8531ZM720.224 82.4018H708.839V84.156H720.224V82.4018ZM697.575 103.233L711.661 72.842L710.069 72.1044L695.983 102.495L697.575 103.233ZM710.202 73.0474L719.561 83.8531L720.887 82.7047L711.528 71.899L710.202 73.0474ZM719.416 82.9368L711.119 102.522L712.734 103.206L721.031 83.621L719.416 82.9368ZM711.926 101.987H696.779V103.741H711.926V101.987Z" fill="white" fill-opacity="0.4"/>
<path d="M754.629 81.4458L754.258 82.2403L754.265 82.2438L754.273 82.2473L754.629 81.4458ZM743.631 73.0521L743.014 72.4289L742.421 73.0161L742.978 73.6376L743.631 73.0521ZM753.472 63.3077L754.133 62.7313L753.519 62.0269L752.854 62.6844L753.472 63.3077ZM760.708 69.1929L760.293 69.9658L760.304 69.9718L760.315 69.9774L760.708 69.1929ZM777.495 69.4824L777.021 68.7446L777.015 68.7485L777.008 68.7526L777.495 69.4824ZM778.46 60.1239L777.84 60.7441L777.84 60.7441L778.46 60.1239ZM773.829 57.133L773.47 57.9334L773.48 57.9378L773.829 57.133ZM767.558 54.721L767.273 55.5507L767.28 55.5531L767.558 54.721ZM760.804 52.1161L760.439 52.9138L760.449 52.9181L760.459 52.9223L760.804 52.1161ZM754.533 48.3534L753.974 49.0291L753.986 49.0395L753.999 49.0495L754.533 48.3534ZM749.998 42.6611L749.214 43.0534L749.218 43.0623L749.998 42.6611ZM751.253 23.1723L750.528 22.6786L750.52 22.6894L751.253 23.1723ZM759.743 16.3223L760.088 17.1285L760.1 17.1232L759.743 16.3223ZM785.213 16.4188L784.869 17.2256L784.874 17.2276L785.213 16.4188ZM795.054 23.2688L795.671 23.892L796.262 23.3073L795.71 22.6861L795.054 23.2688ZM785.213 33.0132L784.584 33.6238L785.201 34.2601L785.83 33.6364L785.213 33.0132ZM778.942 28.2857L778.55 29.0703L778.559 29.0749L778.942 28.2857ZM765.628 28.2857L766.093 29.0295L766.104 29.0226L766.115 29.0155L765.628 28.2857ZM765.049 36.7759L764.447 37.4135L764.457 37.4226L764.466 37.4314L765.049 36.7759ZM769.584 39.4773L769.248 40.2878L769.258 40.2917L769.584 39.4773ZM775.855 41.7928L775.57 42.6225L775.577 42.6249L775.855 41.7928ZM782.705 44.4942L783.069 43.6965L783.069 43.6965L782.705 44.4942ZM788.88 48.4499L788.307 49.1142L788.319 49.1247L788.332 49.1348L788.88 48.4499ZM793.511 54.4316L792.718 54.8071L792.722 54.8153L793.511 54.4316ZM788.301 78.6479L788.845 79.3356L788.851 79.3309L788.301 78.6479ZM769.101 83.2701C763.597 83.2701 758.9 82.3842 754.986 80.6443L754.273 82.2473C758.463 84.1093 763.414 85.0243 769.101 85.0243V83.2701ZM755.001 80.6513C751.134 78.8425 747.56 76.1213 744.284 72.4666L742.978 73.6376C746.39 77.4439 750.149 80.3185 754.258 82.2403L755.001 80.6513ZM744.248 73.6753L754.089 63.9309L752.854 62.6844L743.014 72.4289L744.248 73.6753ZM752.81 63.8841C755.059 66.4634 757.553 68.4954 760.293 69.9658L761.122 68.4201C758.588 67.0604 756.258 65.1689 754.133 62.7313L752.81 63.8841ZM760.315 69.9774C763.158 71.3986 766.416 72.0961 770.066 72.0961V70.3419C766.641 70.3419 763.66 69.6886 761.1 68.4084L760.315 69.9774ZM770.066 72.0961C773.368 72.0961 776.042 71.5049 777.981 70.2121L777.008 68.7526C775.474 69.7753 773.196 70.3419 770.066 70.3419V72.0961ZM777.969 70.2201C780.009 68.9088 781.073 67.0293 781.073 64.6584H779.319C779.319 66.404 778.583 67.7404 777.021 68.7446L777.969 70.2201ZM781.073 64.6584C781.073 62.5957 780.426 60.8493 779.08 59.5037L777.84 60.7441C778.809 61.714 779.319 62.9905 779.319 64.6584H781.073ZM779.08 59.5037C777.825 58.2492 776.181 57.1964 774.177 56.3282L773.48 57.9378C775.336 58.742 776.779 59.6831 777.84 60.7441L779.08 59.5037ZM774.188 56.3327C772.291 55.4826 770.173 54.6683 767.835 53.889L767.28 55.5531C769.573 56.3174 771.636 57.1112 773.47 57.9334L774.188 56.3327ZM767.842 53.8914C765.612 53.1268 763.381 52.2664 761.15 51.3099L760.459 52.9223C762.729 53.8954 765.001 54.7716 767.273 55.5507L767.842 53.8914ZM761.169 51.3184C758.976 50.3162 756.943 49.0959 755.067 47.6573L753.999 49.0495C755.982 50.5697 758.129 51.8578 760.439 52.9138L761.169 51.3184ZM755.092 47.6777C753.322 46.2131 751.884 44.4106 750.778 42.26L749.218 43.0623C750.428 45.4141 752.013 47.4064 753.974 49.0291L755.092 47.6777ZM750.783 42.2689C749.703 40.1095 749.139 37.3595 749.139 33.978H747.385C747.385 37.543 747.978 40.5818 749.214 43.0534L750.783 42.2689ZM749.139 33.978C749.139 29.9417 750.099 26.5138 751.985 23.6552L750.52 22.6894C748.418 25.8769 747.385 29.6527 747.385 33.978H749.139ZM751.978 23.6659C753.935 20.7911 756.629 18.6112 760.088 17.1285L759.397 15.5161C755.653 17.1207 752.687 19.5075 750.528 22.6787L751.978 23.6659ZM760.1 17.1232C763.57 15.5741 767.593 14.7874 772.189 14.7874V13.0332C767.393 13.0332 763.119 13.8545 759.385 15.5214L760.1 17.1232ZM772.189 14.7874C776.844 14.7874 781.067 15.6048 784.869 17.2256L785.557 15.6119C781.513 13.8882 777.053 13.0332 772.189 13.0332V14.7874ZM784.874 17.2276C788.755 18.8551 791.923 21.0661 794.399 23.8515L795.71 22.6861C793.04 19.6827 789.647 17.327 785.552 15.6099L784.874 17.2276ZM794.437 22.6456L784.596 32.39L785.83 33.6364L795.671 23.892L794.437 22.6456ZM785.843 32.4026C783.731 30.2244 781.559 28.58 779.325 27.4965L778.559 29.0749C780.57 30.0497 782.579 31.5569 784.584 33.6238L785.843 32.4026ZM779.334 27.5012C777.138 26.4029 774.652 25.865 771.899 25.865V27.6191C774.42 27.6191 776.63 28.1103 778.55 29.0702L779.334 27.5012ZM771.899 25.865C769.159 25.865 766.878 26.3982 765.141 27.5559L766.115 29.0155C767.465 28.115 769.365 27.6191 771.899 27.6191V25.865ZM765.163 27.542C763.355 28.6718 762.435 30.3722 762.435 32.5308H764.19C764.19 30.9589 764.813 29.8292 766.093 29.0295L765.163 27.542ZM762.435 32.5308C762.435 34.4845 763.097 36.1385 764.447 37.4135L765.651 36.1382C764.686 35.2265 764.19 34.0504 764.19 32.5308H762.435ZM764.466 37.4314C765.716 38.542 767.318 39.4892 769.248 40.2878L769.919 38.6669C768.118 37.9218 766.698 37.068 765.632 36.1204L764.466 37.4314ZM769.258 40.2917C771.203 41.0697 773.307 41.8466 775.57 42.6225L776.139 40.9631C773.9 40.1954 771.824 39.4286 769.909 38.663L769.258 40.2917ZM775.577 42.6249C777.863 43.3867 780.117 44.2756 782.34 45.2919L783.069 43.6965C780.79 42.6546 778.478 41.7426 776.132 40.9607L775.577 42.6249ZM782.34 45.2919C784.516 46.2868 786.505 47.5605 788.307 49.1142L789.452 47.7856C787.524 46.1233 785.396 44.7599 783.069 43.6965L782.34 45.2919ZM788.332 49.1348C790.148 50.5876 791.612 52.4718 792.718 54.8071L794.303 54.0561C793.094 51.5031 791.471 49.3995 789.427 47.765L788.332 49.1348ZM792.722 54.8153C793.805 57.0423 794.37 59.8604 794.37 63.3077H796.124C796.124 59.6798 795.531 56.5805 794.299 54.0479L792.722 54.8153ZM794.37 63.3077C794.37 69.5666 792.154 74.4176 787.75 77.9649L788.851 79.3309C793.709 75.4171 796.124 70.0414 796.124 63.3077H794.37ZM787.756 77.9602C783.33 81.4643 777.147 83.2701 769.101 83.2701V85.0243C777.393 85.0243 784.009 83.1639 788.845 79.3356L787.756 77.9602ZM836.445 83.0859H835.567V83.963H836.445V83.0859ZM834.129 50.4759L833.496 51.0828L833.509 51.0963L833.522 51.1092L834.129 50.4759ZM824.192 49.2217L824.6 49.9979L824.616 49.9896L824.631 49.9808L824.192 49.2217ZM821.297 52.1161L822.056 52.5555L822.061 52.5472L822.066 52.5388L821.297 52.1161ZM820.236 56.3612L819.849 57.1483L821.113 57.7696V56.3612H820.236ZM814.544 53.5633H813.667V54.1095L814.157 54.3504L814.544 53.5633ZM823.323 37.5477L823.737 38.3211L823.744 38.3174L823.751 38.3136L823.323 37.5477ZM842.523 37.5477L842.095 38.3136L842.102 38.3174L842.109 38.3211L842.523 37.5477ZM848.89 43.8189L848.121 44.2402L848.127 44.2511L848.133 44.262L848.89 43.8189ZM851.206 83.0859V83.963H852.083V83.0859H851.206ZM805.475 83.0859H804.598V83.963H805.475V83.0859ZM805.475 13.042V12.1649H804.598V13.042H805.475ZM820.236 13.042H821.113V12.1649H820.236V13.042ZM820.236 83.0859V83.963H821.113V83.0859H820.236ZM837.322 83.0859V56.3612H835.567V83.0859H837.322ZM837.322 56.3612C837.322 53.7154 836.477 51.5117 834.736 49.8427L833.522 51.1092C834.868 52.3989 835.567 54.1187 835.567 56.3612H837.322ZM834.762 49.8691C833.103 48.1375 830.969 47.2834 828.437 47.2834V49.0375C830.535 49.0375 832.197 49.7271 833.496 51.0828L834.762 49.8691ZM828.437 47.2834C826.696 47.2834 825.126 47.6676 823.752 48.4627L824.631 49.9808C825.702 49.3608 826.961 49.0375 828.437 49.0375V47.2834ZM823.783 48.4456C822.399 49.1739 821.314 50.2665 820.529 51.6934L822.066 52.5388C822.696 51.393 823.54 50.5559 824.6 49.9979L823.783 48.4456ZM820.538 51.6766C819.743 53.0499 819.359 54.6207 819.359 56.3612H821.113C821.113 54.8857 821.436 53.6264 822.056 52.5555L820.538 51.6766ZM820.623 55.574L814.931 52.7761L814.157 54.3504L819.849 57.1483L820.623 55.574ZM815.421 53.5633C815.421 50.0229 816.165 46.9586 817.625 44.3428L816.093 43.4879C814.466 46.4036 813.667 49.7712 813.667 53.5633H815.421ZM817.625 44.3428C819.088 41.7222 821.121 39.7204 823.737 38.3211L822.91 36.7743C819.994 38.3337 817.718 40.577 816.093 43.4879L817.625 44.3428ZM823.751 38.3136C826.369 36.8524 829.402 36.1093 832.875 36.1093V34.3551C829.144 34.3551 825.809 35.1557 822.896 36.7819L823.751 38.3136ZM832.875 36.1093C836.415 36.1093 839.48 36.8536 842.095 38.3136L842.95 36.7819C840.034 35.1545 836.667 34.3551 832.875 34.3551V36.1093ZM842.109 38.3211C844.728 39.7217 846.725 41.691 848.121 44.2402L849.66 43.3976C848.097 40.5439 845.849 38.3325 842.936 36.7743L842.109 38.3211ZM848.133 44.262C849.587 46.7447 850.329 49.6742 850.329 53.0809H852.083C852.083 49.4125 851.281 46.1673 849.647 43.3758L848.133 44.262ZM850.329 53.0809V83.0859H852.083V53.0809H850.329ZM851.206 82.2089L836.445 82.2089V83.963L851.206 83.963V82.2089ZM806.352 83.0859V13.042H804.598V83.0859H806.352ZM805.475 13.9191L820.236 13.9191V12.1649L805.475 12.1649V13.9191ZM819.359 13.042V83.0859H821.113V13.042H819.359ZM820.236 82.2089H805.475V83.963H820.236V82.2089ZM872.071 80.9634L871.639 81.7265L871.646 81.7307L871.654 81.7348L872.071 80.9634ZM862.905 72.0873L863.656 71.6341L863.656 71.6341L862.905 72.0873ZM862.905 47.0992L862.158 46.6402L862.158 46.6402L862.905 47.0992ZM872.071 38.416L872.494 39.1846L872.503 39.1791L872.071 38.416ZM907.479 47.0992L906.728 47.5523L906.731 47.5581L907.479 47.0992ZM907.479 72.0873L908.23 72.5405L908.23 72.5405L907.479 72.0873ZM898.313 80.9634L898.736 81.732L898.746 81.7265L898.313 80.9634ZM890.788 69.3859L891.217 70.1511L891.228 70.1447L891.239 70.138L890.788 69.3859ZM894.454 65.4302L893.675 65.0265L893.67 65.038L894.454 65.4302ZM894.454 53.8527L893.682 54.2685L893.685 54.2749L893.689 54.2813L894.454 53.8527ZM890.692 49.9936L890.227 50.7373L890.245 50.7485L890.263 50.7588L890.692 49.9936ZM879.693 49.9936L880.121 50.7588L880.133 50.7524L880.144 50.7456L879.693 49.9936ZM875.93 53.8527L876.702 54.2685L876.702 54.2685L875.93 53.8527ZM875.93 65.4302L875.151 65.834L875.158 65.8461L875.93 65.4302ZM879.693 69.3859L879.242 70.138L879.253 70.1447L879.264 70.1511L879.693 69.3859ZM885.192 83.2701C880.502 83.2701 876.273 82.2396 872.488 80.192L871.654 81.7348C875.716 83.9323 880.235 85.0243 885.192 85.0243V83.2701ZM872.503 80.2003C868.773 78.0863 865.828 75.2333 863.656 71.6341L862.155 72.5405C864.485 76.4023 867.651 79.4668 871.639 81.7265L872.503 80.2003ZM863.656 71.6341C861.493 68.049 860.406 64.0267 860.406 59.545H858.652C858.652 64.3253 859.816 68.6645 862.155 72.5405L863.656 71.6341ZM860.406 59.545C860.406 55.0631 861.493 51.0757 863.653 47.5581L862.158 46.6402C859.816 50.4551 858.652 54.7648 858.652 59.545H860.406ZM863.653 47.5581C865.823 44.0247 868.764 41.2356 872.494 39.1846L871.648 37.6475C867.659 39.8415 864.491 42.8412 862.158 46.6402L863.653 47.5581ZM872.503 39.1791C876.218 37.0744 880.44 36.0128 885.192 36.0128V34.2587C880.168 34.2587 875.643 35.3839 871.639 37.653L872.503 39.1791ZM885.192 36.0128C889.949 36.0128 894.175 37.0443 897.891 39.0881L898.736 37.551C894.734 35.3497 890.212 34.2587 885.192 34.2587V36.0128ZM897.891 39.0881C901.616 41.1371 904.557 43.9555 906.728 47.5523L908.23 46.646C905.898 42.7818 902.729 39.7471 898.736 37.551L897.891 39.0881ZM906.731 47.5581C908.891 51.0757 909.979 55.0631 909.979 59.545H911.733C911.733 54.7648 910.569 50.4551 908.226 46.6402L906.731 47.5581ZM909.979 59.545C909.979 64.0267 908.891 68.049 906.728 71.6341L908.23 72.5405C910.569 68.6645 911.733 64.3253 911.733 59.545H909.979ZM906.728 71.6341C904.556 75.2333 901.612 78.0863 897.881 80.2003L898.746 81.7265C902.734 79.4668 905.899 76.4023 908.23 72.5405L906.728 71.6341ZM897.891 80.1949C894.175 82.2386 889.949 83.2701 885.192 83.2701V85.0243C890.212 85.0243 894.734 83.9333 898.736 81.7319L897.891 80.1949ZM885.192 71.6137C887.442 71.6137 889.459 71.1354 891.217 70.1511L890.359 68.6206C888.901 69.4373 887.188 69.8595 885.192 69.8595V71.6137ZM891.239 70.138C892.99 69.0876 894.328 67.6444 895.239 65.8225L893.67 65.038C892.908 66.5606 891.802 67.7545 890.337 68.6338L891.239 70.138ZM895.233 65.834C896.205 63.9585 896.682 61.8556 896.682 59.545H894.928C894.928 61.6081 894.504 63.4287 893.676 65.0265L895.233 65.834ZM896.682 59.545C896.682 57.2361 896.206 55.1856 895.219 53.4242L893.689 54.2813C894.503 55.7359 894.928 57.4801 894.928 59.545H896.682ZM895.226 53.4369C894.249 51.6226 892.878 50.2128 891.12 49.2283L890.263 50.7588C891.721 51.5752 892.858 52.7383 893.682 54.2685L895.226 53.4369ZM891.156 49.2498C889.451 48.1842 887.451 47.6693 885.192 47.6693V49.4234C887.178 49.4234 888.844 49.8733 890.227 50.7373L891.156 49.2498ZM885.192 47.6693C882.991 47.6693 880.999 48.187 879.242 49.2415L880.144 50.7456C881.603 49.8705 883.277 49.4234 885.192 49.4234V47.6693ZM879.264 49.2283C877.506 50.2128 876.135 51.6226 875.158 53.4369L876.702 54.2685C877.526 52.7383 878.663 51.5752 880.121 50.7588L879.264 49.2283ZM875.158 53.4369C874.179 55.2552 873.702 57.3316 873.702 59.6415H875.457C875.457 57.5776 875.881 55.7949 876.702 54.2685L875.158 53.4369ZM873.702 59.6415C873.702 61.8923 874.181 63.9622 875.152 65.834L876.709 65.0265C875.878 63.425 875.457 61.6357 875.457 59.6415H873.702ZM875.158 65.8461C876.132 67.6554 877.497 69.0909 879.242 70.138L880.144 68.6338C878.673 67.7513 877.529 66.5497 876.702 65.0144L875.158 65.8461ZM879.264 70.1511C881.018 71.1332 883.002 71.6137 885.192 71.6137V69.8595C883.266 69.8595 881.584 69.4395 880.121 68.6206L879.264 70.1511ZM938.465 82.2176L938.834 81.4218L938.834 81.4218L938.465 82.2176ZM932.001 77.2007L931.304 77.7335L931.312 77.7435L932.001 77.2007ZM929.107 69.7718H928.23V69.8125L928.234 69.853L929.107 69.7718ZM929.107 49.9936L928.234 49.9123L928.23 49.9528V49.9936H929.107ZM932.001 42.4682L931.297 41.9451L931.297 41.9451L932.001 42.4682ZM938.465 37.1618L938.85 37.9501L938.85 37.9501L938.465 37.1618ZM958.919 38.416L958.455 39.1606L958.462 39.1644L958.919 38.416ZM967.023 47.0992L966.247 47.5077L966.253 47.5182L967.023 47.0992ZM967.023 72.1838L966.253 71.7647L966.247 71.7753L967.023 72.1838ZM958.919 80.8669L958.462 80.1185L958.455 80.1224L958.919 80.8669ZM949.946 69.2894L949.495 68.5373L949.488 68.5414L949.481 68.5456L949.946 69.2894ZM953.709 65.3338L952.937 64.9179L952.937 64.9179L953.709 65.3338ZM953.709 53.8527L952.937 54.2685L952.937 54.2685L953.709 53.8527ZM949.946 49.9936L949.481 50.7373L949.499 50.7485L949.518 50.7588L949.946 49.9936ZM939.044 49.9936L939.486 50.7512L939.495 50.7456L939.044 49.9936ZM935.378 53.8527L936.15 54.2685L936.15 54.2685L935.378 53.8527ZM935.282 65.3338L934.497 65.726L934.503 65.7379L934.509 65.7496L935.282 65.3338ZM939.044 69.2894L938.593 70.0415L938.593 70.0415L939.044 69.2894ZM920.134 102.864H919.257V103.741H920.134V102.864ZM920.134 36.197V35.3199H919.257V36.197H920.134ZM934.896 36.197H935.773V35.3199H934.896V36.197ZM934.896 48.2569L935.754 48.4387L935.773 48.3488V48.2569H934.896ZM932.484 59.6415L931.626 59.4597L931.589 59.6342L931.623 59.8093L932.484 59.6415ZM934.703 71.026H935.58V70.9413L935.564 70.8582L934.703 71.026ZM934.703 102.864V103.741H935.58V102.864H934.703ZM947.148 83.1736C944.113 83.1736 941.346 82.586 938.834 81.4218L938.097 83.0134C940.859 84.2934 943.88 84.9278 947.148 84.9278V83.1736ZM938.834 81.4218C936.312 80.2533 934.271 78.664 932.69 76.6579L931.312 77.7435C933.076 79.9825 935.344 81.7378 938.097 83.0134L938.834 81.4218ZM932.698 76.6679C931.127 74.6132 930.222 72.2937 929.98 69.6906L928.234 69.853C928.506 72.7813 929.531 75.4145 931.304 77.7335L932.698 76.6679ZM929.984 69.7718V49.9936H928.23V69.7718H929.984ZM929.98 50.0748C930.222 47.4707 931.128 45.1147 932.705 42.9912L931.297 41.9451C929.53 44.324 928.506 46.985 928.234 49.9123L929.98 50.0748ZM932.705 42.9912C934.29 40.858 936.333 39.1779 938.85 37.9501L938.081 36.3735C935.323 37.7185 933.057 39.576 931.297 41.9451L932.705 42.9912ZM938.85 37.9501C941.358 36.7264 944.12 36.1093 947.148 36.1093V34.3551C943.874 34.3551 940.846 35.0244 938.081 36.3735L938.85 37.9501ZM947.148 36.1093C951.44 36.1093 955.2 37.1336 958.455 39.1606L959.383 37.6715C955.82 35.4534 951.733 34.3551 947.148 34.3551V36.1093ZM958.462 39.1644C961.797 41.203 964.39 43.9788 966.247 47.5077L967.799 46.6907C965.797 42.8871 962.987 39.8742 959.376 37.6676L958.462 39.1644ZM966.253 47.5182C968.168 51.0404 969.137 55.0739 969.137 59.6415H970.891C970.891 54.8184 969.866 50.4903 967.794 46.6801L966.253 47.5182ZM969.137 59.6415C969.137 64.209 968.168 68.2425 966.253 71.7647L967.794 72.6028C969.866 68.7926 970.891 64.4646 970.891 59.6415H969.137ZM966.247 71.7753C964.39 75.3041 961.797 78.08 958.462 80.1185L959.376 81.6153C962.987 79.4088 965.797 76.3958 967.799 72.5923L966.247 71.7753ZM958.455 80.1224C955.2 82.1493 951.44 83.1736 947.148 83.1736V84.9278C951.733 84.9278 955.82 83.8296 959.383 81.6115L958.455 80.1224ZM944.447 71.6137C946.706 71.6137 948.706 71.0987 950.411 70.0332L949.481 68.5456C948.099 69.4097 946.433 69.8595 944.447 69.8595V71.6137ZM950.398 70.0415C952.143 68.9944 953.507 67.5589 954.481 65.7496L952.937 64.9179C952.11 66.4532 950.966 67.6548 949.495 68.5373L950.398 70.0415ZM954.481 65.7496C955.458 63.935 955.937 61.8918 955.937 59.6415H954.183C954.183 61.6362 953.761 63.3879 952.937 64.9179L954.481 65.7496ZM955.937 59.6415C955.937 57.3316 955.46 55.2552 954.481 53.4369L952.937 54.2685C953.759 55.7949 954.183 57.5776 954.183 59.6415H955.937ZM954.481 53.4369C953.504 51.6226 952.133 50.2128 950.375 49.2283L949.518 50.7588C950.976 51.5752 952.113 52.7383 952.937 54.2685L954.481 53.4369ZM950.411 49.2498C948.711 48.1869 946.744 47.6693 944.544 47.6693V49.4234C946.459 49.4234 948.095 49.8706 949.481 50.7373L950.411 49.2498ZM944.544 47.6693C942.342 47.6693 940.35 48.187 938.593 49.2415L939.495 50.7456C940.954 49.8705 942.628 49.4234 944.544 49.4234V47.6693ZM938.602 49.2359C936.91 50.2229 935.578 51.6317 934.606 53.4369L936.15 54.2685C936.979 52.7291 938.091 51.5651 939.486 50.7512L938.602 49.2359ZM934.606 53.4369C933.627 55.2552 933.15 57.3316 933.15 59.6415H934.904C934.904 57.5776 935.328 55.7949 936.15 54.2685L934.606 53.4369ZM933.15 59.6415C933.15 61.8817 933.592 63.9163 934.497 65.726L936.066 64.9415C935.299 63.4065 934.904 61.6464 934.904 59.6415H933.15ZM934.509 65.7496C935.484 67.5589 936.848 68.9944 938.593 70.0415L939.495 68.5373C938.025 67.6548 936.88 66.4532 936.054 64.9179L934.509 65.7496ZM938.593 70.0415C940.346 71.0933 942.305 71.6137 944.447 71.6137V69.8595C942.602 69.8595 940.958 69.4151 939.495 68.5373L938.593 70.0415ZM921.011 102.864L921.011 36.197H919.257L919.257 102.864H921.011ZM920.134 37.0741H934.896V35.3199H920.134V37.0741ZM934.019 36.197V48.2569H935.773V36.197H934.019ZM934.038 48.0751L931.626 59.4597L933.342 59.8233L935.754 48.4387L934.038 48.0751ZM931.623 59.8093L933.842 71.1938L935.564 70.8582L933.344 59.4737L931.623 59.8093ZM933.826 71.026V102.864H935.58V71.026H933.826ZM934.703 101.987H920.134V103.741H934.703V101.987ZM979.443 83.0859H978.566V83.963H979.443V83.0859ZM979.443 36.197V35.3199H978.566V36.197H979.443ZM994.204 36.197H995.081V35.3199H994.204V36.197ZM994.204 83.0859V83.963H995.081V83.0859H994.204ZM981.083 27.4174L980.437 28.0112L980.45 28.0247L980.463 28.0376L981.083 27.4174ZM981.083 15.8399L980.463 15.2197L980.456 15.2263L980.45 15.233L981.083 15.8399ZM992.564 27.4174L993.197 28.0243L993.203 28.0178L993.209 28.0112L992.564 27.4174ZM980.32 83.0859V36.197H978.566V83.0859H980.32ZM979.443 37.0741H994.204V35.3199H979.443V37.0741ZM993.327 36.197V83.0859H995.081V36.197H993.327ZM994.204 82.2089H979.443V83.963H994.204V82.2089ZM986.872 28.8558C984.773 28.8558 983.071 28.1656 981.703 26.7972L980.463 28.0376C982.181 29.7565 984.339 30.61 986.872 30.61V28.8558ZM981.728 26.8236C980.403 25.3828 979.741 23.6672 979.741 21.6286H977.987C977.987 24.0925 978.804 26.236 980.437 28.0112L981.728 26.8236ZM979.741 21.6286C979.741 19.5187 980.407 17.8129 981.716 16.4468L980.45 15.233C978.8 16.9543 977.987 19.1076 977.987 21.6286H979.741ZM981.703 16.4601C983.071 15.0917 984.773 14.4015 986.872 14.4015V12.6473C984.339 12.6473 982.181 13.5008 980.463 15.2197L981.703 16.4601ZM986.872 14.4015C988.97 14.4015 990.631 15.091 991.931 16.4468L993.197 15.233C991.538 13.5015 989.404 12.6473 986.872 12.6473V14.4015ZM991.931 16.4468C993.24 17.8129 993.906 19.5187 993.906 21.6286H995.66C995.66 19.1076 994.847 16.9543 993.197 15.233L991.931 16.4468ZM993.906 21.6286C993.906 23.6672 993.244 25.3828 991.918 26.8236L993.209 28.0112C994.842 26.236 995.66 24.0925 995.66 21.6286H993.906ZM991.931 26.8105C990.631 28.1663 988.97 28.8558 986.872 28.8558V30.61C989.404 30.61 991.538 29.7558 993.197 28.0243L991.931 26.8105ZM1012.51 83.0859H1011.63V83.963H1012.51V83.0859ZM1015.02 21.9181L1014.25 21.4881L1014.25 21.4935L1015.02 21.9181ZM1022.25 14.6821L1022.68 15.4467L1022.7 15.4397L1022.25 14.6821ZM1041.65 13.6209L1041.28 14.4179L1041.29 14.4237L1041.31 14.4292L1041.65 13.6209ZM1048.01 17.9624L1048.63 18.5826L1049.24 17.9732L1048.65 17.3532L1048.01 17.9624ZM1038.75 27.2244L1038.13 27.8446L1038.75 28.4648L1039.37 27.8446L1038.75 27.2244ZM1036.53 25.7773L1036.14 26.5617L1036.18 26.5807L1036.22 26.5959L1036.53 25.7773ZM1029.01 26.935L1028.39 26.3148L1028.39 26.3148L1029.01 26.935ZM1027.27 83.0859V83.963H1028.15V83.0859H1027.27ZM1002.19 48.7393H1001.31V49.6164H1002.19V48.7393ZM1002.19 36.197V35.3199H1001.31V36.197H1002.19ZM1040.78 36.197H1041.66V35.3199H1040.78V36.197ZM1040.78 48.7393V49.6164H1041.66V48.7393H1040.78ZM1013.39 83.0859V32.1449H1011.63V83.0859H1013.39ZM1013.39 32.1449C1013.39 28.4836 1014.19 25.2232 1015.79 22.3427L1014.25 21.4935C1012.5 24.659 1011.63 28.2165 1011.63 32.1449H1013.39ZM1015.78 22.3481C1017.44 19.4008 1019.74 17.1045 1022.68 15.4466L1021.82 13.9177C1018.6 15.7331 1016.07 18.2607 1014.25 21.4881L1015.78 22.3481ZM1022.7 15.4397C1025.63 13.7306 1029.13 12.8578 1033.25 12.8578V11.1036C1028.88 11.1036 1025.06 12.0318 1021.81 13.9245L1022.7 15.4397ZM1033.25 12.8578C1036.37 12.8578 1039.04 13.3878 1041.28 14.4179L1042.01 12.8239C1039.5 11.6671 1036.57 11.1036 1033.25 11.1036V12.8578ZM1041.31 14.4292C1043.64 15.4134 1045.67 16.7937 1047.38 18.5717L1048.65 17.3532C1046.76 15.4006 1044.54 13.8866 1041.99 12.8125L1041.31 14.4292ZM1047.39 17.3422L1038.13 26.6043L1039.37 27.8446L1048.63 18.5826L1047.39 17.3422ZM1039.37 26.6043C1038.64 25.8757 1037.8 25.325 1036.85 24.9586L1036.22 26.5959C1036.94 26.8727 1037.57 27.2868 1038.13 27.8446L1039.37 26.6043ZM1036.93 24.9928C1036 24.5319 1034.93 24.3213 1033.74 24.3213V26.0755C1034.73 26.0755 1035.52 26.2508 1036.14 26.5617L1036.93 24.9928ZM1033.74 24.3213C1031.56 24.3213 1029.74 24.958 1028.39 26.3148L1029.63 27.5552C1030.59 26.5965 1031.92 26.0755 1033.74 26.0755V24.3213ZM1028.39 26.3148C1027.03 27.6716 1026.39 29.4899 1026.39 31.6625H1028.15C1028.15 29.8472 1028.67 28.5139 1029.63 27.5552L1028.39 26.3148ZM1026.39 31.6625V83.0859L1028.15 83.0859V31.6625H1026.39ZM1027.27 82.2089L1012.51 82.2089V83.963L1027.27 83.963V82.2089ZM1003.06 48.7393V36.197H1001.31V48.7393H1003.06ZM1002.19 37.0741L1040.78 37.0741V35.3199L1002.19 35.3199V37.0741ZM1039.9 36.197V48.7393H1041.66V36.197H1039.9ZM1040.78 47.8622L1002.19 47.8622V49.6164L1040.78 49.6164V47.8622ZM1064.01 83.2789L1063.2 83.6115L1063.42 84.156H1064.01V83.2789ZM1044.71 36.197V35.3199H1043.41L1043.9 36.5296L1044.71 36.197ZM1060.63 36.197L1061.47 35.9235L1061.27 35.3199H1060.63V36.197ZM1072.89 73.5345V74.4116H1074.1L1073.72 73.261L1072.89 73.5345ZM1067 73.5345L1066.17 73.2552L1065.78 74.4116H1067V73.5345ZM1079.54 36.197V35.3199H1078.91L1078.71 35.9177L1079.54 36.197ZM1095.46 36.197L1096.27 36.5409L1096.79 35.3199H1095.46V36.197ZM1075.39 83.2789V84.156H1075.97L1076.2 83.6228L1075.39 83.2789ZM1051.95 102.864L1051.15 102.495L1050.58 103.741H1051.95V102.864ZM1066.04 72.4732L1066.7 71.899L1065.81 70.8734L1065.24 72.1044L1066.04 72.4732ZM1075.39 83.2789L1076.2 83.621L1076.41 83.1178L1076.06 82.7047L1075.39 83.2789ZM1067.1 102.864V103.741H1067.68L1067.9 103.206L1067.1 102.864ZM1064.82 82.9463L1045.52 35.8644L1043.9 36.5296L1063.2 83.6115L1064.82 82.9463ZM1044.71 37.0741L1060.63 37.0741V35.3199L1044.71 35.3199V37.0741ZM1059.8 36.4705L1072.05 73.808L1073.72 73.261L1061.47 35.9235L1059.8 36.4705ZM1072.89 72.6574H1067V74.4116H1072.89V72.6574ZM1067.83 73.8138L1080.37 36.4763L1078.71 35.9177L1066.17 73.2552L1067.83 73.8138ZM1079.54 37.0741L1095.46 37.0741V35.3199L1079.54 35.3199V37.0741ZM1094.65 35.8531L1074.59 82.935L1076.2 83.6228L1096.27 36.5409L1094.65 35.8531ZM1075.39 82.4018H1064.01V84.156H1075.39V82.4018ZM1052.74 103.233L1066.83 72.842L1065.24 72.1044L1051.15 102.495L1052.74 103.233ZM1065.37 73.0474L1074.73 83.8531L1076.06 82.7047L1066.7 71.899L1065.37 73.0474ZM1074.59 82.9368L1066.29 102.522L1067.9 103.206L1076.2 83.621L1074.59 82.9368ZM1067.1 101.987H1051.95V103.741H1067.1V101.987Z" fill="white" fill-opacity="0.4"/>
<path d="M1120.81 81.4458L1120.44 82.2403L1120.44 82.2438L1120.45 82.2473L1120.81 81.4458ZM1109.81 73.0521L1109.19 72.4289L1108.6 73.0161L1109.16 73.6376L1109.81 73.0521ZM1119.65 63.3077L1120.31 62.7313L1119.7 62.0269L1119.03 62.6844L1119.65 63.3077ZM1126.89 69.1929L1126.47 69.9658L1126.48 69.9718L1126.49 69.9774L1126.89 69.1929ZM1143.67 69.4824L1143.2 68.7446L1143.19 68.7485L1143.19 68.7526L1143.67 69.4824ZM1144.64 60.1239L1144.02 60.7441L1144.02 60.7441L1144.64 60.1239ZM1140.01 57.133L1139.65 57.9334L1139.66 57.9378L1140.01 57.133ZM1133.74 54.721L1133.45 55.5507L1133.46 55.5531L1133.74 54.721ZM1126.98 52.1161L1126.62 52.9138L1126.63 52.9181L1126.64 52.9223L1126.98 52.1161ZM1120.71 48.3534L1120.15 49.0291L1120.16 49.0395L1120.18 49.0495L1120.71 48.3534ZM1116.18 42.6611L1115.39 43.0534L1115.4 43.0623L1116.18 42.6611ZM1117.43 23.1723L1116.71 22.6786L1116.7 22.6894L1117.43 23.1723ZM1125.92 16.3223L1126.27 17.1285L1126.28 17.1232L1125.92 16.3223ZM1151.39 16.4188L1151.05 17.2256L1151.05 17.2276L1151.39 16.4188ZM1161.23 23.2688L1161.85 23.892L1162.44 23.3073L1161.89 22.6861L1161.23 23.2688ZM1151.39 33.0132L1150.76 33.6238L1151.38 34.2601L1152.01 33.6364L1151.39 33.0132ZM1145.12 28.2857L1144.73 29.0703L1144.74 29.0749L1145.12 28.2857ZM1131.81 28.2857L1132.27 29.0295L1132.28 29.0226L1132.29 29.0155L1131.81 28.2857ZM1131.23 36.7759L1130.63 37.4135L1130.64 37.4226L1130.65 37.4314L1131.23 36.7759ZM1135.76 39.4773L1135.43 40.2878L1135.44 40.2917L1135.76 39.4773ZM1142.03 41.7928L1141.75 42.6225L1141.76 42.6249L1142.03 41.7928ZM1148.88 44.4942L1149.25 43.6965L1149.25 43.6965L1148.88 44.4942ZM1155.06 48.4499L1154.49 49.1142L1154.5 49.1247L1154.51 49.1348L1155.06 48.4499ZM1159.69 54.4316L1158.9 54.8071L1158.9 54.8153L1159.69 54.4316ZM1154.48 78.6479L1155.02 79.3356L1155.03 79.3309L1154.48 78.6479ZM1135.28 83.2701C1129.78 83.2701 1125.08 82.3842 1121.16 80.6443L1120.45 82.2473C1124.64 84.1093 1129.59 85.0243 1135.28 85.0243V83.2701ZM1121.18 80.6513C1117.31 78.8425 1113.74 76.1213 1110.46 72.4666L1109.16 73.6376C1112.57 77.4439 1116.33 80.3185 1120.44 82.2403L1121.18 80.6513ZM1110.43 73.6753L1120.27 63.9309L1119.03 62.6844L1109.19 72.4289L1110.43 73.6753ZM1118.99 63.8841C1121.24 66.4634 1123.73 68.4954 1126.47 69.9658L1127.3 68.4201C1124.77 67.0604 1122.44 65.1689 1120.31 62.7313L1118.99 63.8841ZM1126.49 69.9774C1129.34 71.3986 1132.59 72.0961 1136.24 72.0961V70.3419C1132.82 70.3419 1129.84 69.6886 1127.28 68.4084L1126.49 69.9774ZM1136.24 72.0961C1139.55 72.0961 1142.22 71.5049 1144.16 70.2121L1143.19 68.7526C1141.65 69.7753 1139.37 70.3419 1136.24 70.3419V72.0961ZM1144.15 70.2201C1146.19 68.9088 1147.25 67.0293 1147.25 64.6584H1145.5C1145.5 66.404 1144.76 67.7404 1143.2 68.7446L1144.15 70.2201ZM1147.25 64.6584C1147.25 62.5957 1146.6 60.8493 1145.26 59.5037L1144.02 60.7441C1144.99 61.714 1145.5 62.9905 1145.5 64.6584H1147.25ZM1145.26 59.5037C1144 58.2492 1142.36 57.1964 1140.36 56.3282L1139.66 57.9378C1141.51 58.742 1142.96 59.6831 1144.02 60.7441L1145.26 59.5037ZM1140.37 56.3327C1138.47 55.4826 1136.35 54.6683 1134.01 53.889L1133.46 55.5531C1135.75 56.3174 1137.81 57.1112 1139.65 57.9334L1140.37 56.3327ZM1134.02 53.8914C1131.79 53.1268 1129.56 52.2664 1127.33 51.3099L1126.64 52.9223C1128.91 53.8954 1131.18 54.7716 1133.45 55.5507L1134.02 53.8914ZM1127.35 51.3184C1125.16 50.3162 1123.12 49.0959 1121.25 47.6573L1120.18 49.0495C1122.16 50.5697 1124.31 51.8578 1126.62 52.9138L1127.35 51.3184ZM1121.27 47.6777C1119.5 46.2131 1118.06 44.4106 1116.96 42.26L1115.4 43.0623C1116.61 45.4141 1118.19 47.4064 1120.15 49.0291L1121.27 47.6777ZM1116.96 42.2689C1115.88 40.1095 1115.32 37.3595 1115.32 33.978H1113.56C1113.56 37.543 1114.16 40.5818 1115.39 43.0534L1116.96 42.2689ZM1115.32 33.978C1115.32 29.9417 1116.28 26.5138 1118.16 23.6552L1116.7 22.6894C1114.6 25.8769 1113.56 29.6527 1113.56 33.978H1115.32ZM1118.16 23.6659C1120.11 20.7911 1122.81 18.6112 1126.27 17.1285L1125.58 15.5161C1121.83 17.1207 1118.87 19.5075 1116.71 22.6787L1118.16 23.6659ZM1126.28 17.1232C1129.75 15.5741 1133.77 14.7874 1138.37 14.7874V13.0332C1133.57 13.0332 1129.3 13.8545 1125.56 15.5214L1126.28 17.1232ZM1138.37 14.7874C1143.02 14.7874 1147.25 15.6048 1151.05 17.2256L1151.74 15.6119C1147.69 13.8882 1143.23 13.0332 1138.37 13.0332V14.7874ZM1151.05 17.2276C1154.93 18.8551 1158.1 21.0661 1160.58 23.8515L1161.89 22.6861C1159.22 19.6827 1155.83 17.327 1151.73 15.6099L1151.05 17.2276ZM1160.62 22.6456L1150.77 32.39L1152.01 33.6364L1161.85 23.892L1160.62 22.6456ZM1152.02 32.4026C1149.91 30.2244 1147.74 28.58 1145.5 27.4965L1144.74 29.0749C1146.75 30.0497 1148.76 31.5569 1150.76 33.6238L1152.02 32.4026ZM1145.51 27.5012C1143.32 26.4029 1140.83 25.865 1138.08 25.865V27.6191C1140.6 27.6191 1142.81 28.1103 1144.73 29.0702L1145.51 27.5012ZM1138.08 25.865C1135.34 25.865 1133.06 26.3982 1131.32 27.5559L1132.29 29.0155C1133.64 28.115 1135.54 27.6191 1138.08 27.6191V25.865ZM1131.34 27.542C1129.53 28.6718 1128.61 30.3722 1128.61 32.5308H1130.37C1130.37 30.9589 1130.99 29.8292 1132.27 29.0295L1131.34 27.542ZM1128.61 32.5308C1128.61 34.4845 1129.28 36.1385 1130.63 37.4135L1131.83 36.1382C1130.86 35.2265 1130.37 34.0504 1130.37 32.5308H1128.61ZM1130.65 37.4314C1131.89 38.542 1133.5 39.4892 1135.43 40.2878L1136.1 38.6669C1134.3 37.9218 1132.88 37.068 1131.81 36.1204L1130.65 37.4314ZM1135.44 40.2917C1137.38 41.0697 1139.49 41.8466 1141.75 42.6225L1142.32 40.9631C1140.08 40.1954 1138 39.4286 1136.09 38.663L1135.44 40.2917ZM1141.76 42.6249C1144.04 43.3867 1146.3 44.2756 1148.52 45.2919L1149.25 43.6965C1146.97 42.6546 1144.66 41.7426 1142.31 40.9607L1141.76 42.6249ZM1148.52 45.2919C1150.7 46.2868 1152.68 47.5605 1154.49 49.1142L1155.63 47.7856C1153.7 46.1233 1151.57 44.7599 1149.25 43.6965L1148.52 45.2919ZM1154.51 49.1348C1156.33 50.5876 1157.79 52.4718 1158.9 54.8071L1160.48 54.0561C1159.27 51.5031 1157.65 49.3995 1155.61 47.765L1154.51 49.1348ZM1158.9 54.8153C1159.98 57.0423 1160.55 59.8604 1160.55 63.3077H1162.3C1162.3 59.6798 1161.71 56.5805 1160.48 54.0479L1158.9 54.8153ZM1160.55 63.3077C1160.55 69.5666 1158.33 74.4176 1153.93 77.9649L1155.03 79.3309C1159.89 75.4171 1162.3 70.0414 1162.3 63.3077H1160.55ZM1153.93 77.9602C1149.51 81.4643 1143.33 83.2701 1135.28 83.2701V85.0243C1143.57 85.0243 1150.19 83.1639 1155.02 79.3356L1153.93 77.9602ZM1202.62 83.0859H1201.75V83.963H1202.62V83.0859ZM1200.31 50.4759L1199.67 51.0828L1199.69 51.0963L1199.7 51.1092L1200.31 50.4759ZM1190.37 49.2217L1190.78 49.9979L1190.79 49.9896L1190.81 49.9808L1190.37 49.2217ZM1187.48 52.1161L1188.24 52.5555L1188.24 52.5472L1188.24 52.5388L1187.48 52.1161ZM1186.41 56.3612L1186.03 57.1483L1187.29 57.7696V56.3612H1186.41ZM1180.72 53.5633H1179.85V54.1095L1180.34 54.3504L1180.72 53.5633ZM1189.5 37.5477L1189.92 38.3211L1189.92 38.3174L1189.93 38.3136L1189.5 37.5477ZM1208.7 37.5477L1208.27 38.3136L1208.28 38.3174L1208.29 38.3211L1208.7 37.5477ZM1215.07 43.8189L1214.3 44.2402L1214.31 44.2511L1214.31 44.262L1215.07 43.8189ZM1217.38 83.0859V83.963H1218.26V83.0859H1217.38ZM1171.65 83.0859H1170.78V83.963H1171.65V83.0859ZM1171.65 13.042V12.1649H1170.78V13.042H1171.65ZM1186.41 13.042H1187.29V12.1649H1186.41V13.042ZM1186.41 83.0859V83.963H1187.29V83.0859H1186.41ZM1203.5 83.0859V56.3612H1201.75V83.0859H1203.5ZM1203.5 56.3612C1203.5 53.7154 1202.66 51.5117 1200.91 49.8427L1199.7 51.1092C1201.05 52.3989 1201.75 54.1187 1201.75 56.3612H1203.5ZM1200.94 49.8691C1199.28 48.1375 1197.15 47.2834 1194.62 47.2834V49.0375C1196.71 49.0375 1198.38 49.7271 1199.67 51.0828L1200.94 49.8691ZM1194.62 47.2834C1192.87 47.2834 1191.3 47.6676 1189.93 48.4627L1190.81 49.9808C1191.88 49.3608 1193.14 49.0375 1194.62 49.0375V47.2834ZM1189.96 48.4456C1188.58 49.1739 1187.49 50.2665 1186.71 51.6934L1188.24 52.5388C1188.87 51.393 1189.72 50.5559 1190.78 49.9979L1189.96 48.4456ZM1186.72 51.6766C1185.92 53.0499 1185.54 54.6207 1185.54 56.3612H1187.29C1187.29 54.8857 1187.62 53.6264 1188.24 52.5555L1186.72 51.6766ZM1186.8 55.574L1181.11 52.7761L1180.34 54.3504L1186.03 57.1483L1186.8 55.574ZM1181.6 53.5633C1181.6 50.0229 1182.34 46.9586 1183.8 44.3428L1182.27 43.4879C1180.64 46.4036 1179.85 49.7712 1179.85 53.5633H1181.6ZM1183.8 44.3428C1185.27 41.7222 1187.3 39.7204 1189.92 38.3211L1189.09 36.7743C1186.17 38.3337 1183.9 40.577 1182.27 43.4879L1183.8 44.3428ZM1189.93 38.3136C1192.55 36.8524 1195.58 36.1093 1199.05 36.1093V34.3551C1195.32 34.3551 1191.99 35.1557 1189.07 36.7819L1189.93 38.3136ZM1199.05 36.1093C1202.59 36.1093 1205.66 36.8536 1208.27 38.3136L1209.13 36.7819C1206.21 35.1545 1202.85 34.3551 1199.05 34.3551V36.1093ZM1208.29 38.3211C1210.91 39.7217 1212.9 41.691 1214.3 44.2402L1215.84 43.3976C1214.28 40.5439 1212.03 38.3325 1209.12 36.7743L1208.29 38.3211ZM1214.31 44.262C1215.77 46.7447 1216.51 49.6742 1216.51 53.0809H1218.26C1218.26 49.4125 1217.46 46.1673 1215.83 43.3758L1214.31 44.262ZM1216.51 53.0809V83.0859H1218.26V53.0809H1216.51ZM1217.38 82.2089L1202.62 82.2089V83.963L1217.38 83.963V82.2089ZM1172.53 83.0859V13.042H1170.78V83.0859H1172.53ZM1171.65 13.9191L1186.41 13.9191V12.1649L1171.65 12.1649V13.9191ZM1185.54 13.042V83.0859H1187.29V13.042H1185.54ZM1186.41 82.2089H1171.65V83.963H1186.41V82.2089ZM1238.25 80.9634L1237.82 81.7265L1237.82 81.7307L1237.83 81.7348L1238.25 80.9634ZM1229.08 72.0873L1229.84 71.6341L1229.84 71.6341L1229.08 72.0873ZM1229.08 47.0992L1228.34 46.6402L1228.34 46.6402L1229.08 47.0992ZM1238.25 38.416L1238.67 39.1846L1238.68 39.1791L1238.25 38.416ZM1273.66 47.0992L1272.91 47.5523L1272.91 47.5581L1273.66 47.0992ZM1273.66 72.0873L1274.41 72.5405L1274.41 72.5405L1273.66 72.0873ZM1264.49 80.9634L1264.91 81.732L1264.92 81.7265L1264.49 80.9634ZM1256.97 69.3859L1257.4 70.1511L1257.41 70.1447L1257.42 70.138L1256.97 69.3859ZM1260.63 65.4302L1259.85 65.0265L1259.85 65.038L1260.63 65.4302ZM1260.63 53.8527L1259.86 54.2685L1259.86 54.2749L1259.87 54.2813L1260.63 53.8527ZM1256.87 49.9936L1256.41 50.7373L1256.42 50.7485L1256.44 50.7588L1256.87 49.9936ZM1245.87 49.9936L1246.3 50.7588L1246.31 50.7524L1246.32 50.7456L1245.87 49.9936ZM1242.11 53.8527L1242.88 54.2685L1242.88 54.2685L1242.11 53.8527ZM1242.11 65.4302L1241.33 65.834L1241.34 65.8461L1242.11 65.4302ZM1245.87 69.3859L1245.42 70.138L1245.43 70.1447L1245.44 70.1511L1245.87 69.3859ZM1251.37 83.2701C1246.68 83.2701 1242.45 82.2396 1238.67 80.192L1237.83 81.7348C1241.89 83.9323 1246.41 85.0243 1251.37 85.0243V83.2701ZM1238.68 80.2003C1234.95 78.0863 1232.01 75.2333 1229.84 71.6341L1228.33 72.5405C1230.66 76.4023 1233.83 79.4668 1237.82 81.7265L1238.68 80.2003ZM1229.84 71.6341C1227.67 68.049 1226.58 64.0267 1226.58 59.545H1224.83C1224.83 64.3253 1225.99 68.6645 1228.33 72.5405L1229.84 71.6341ZM1226.58 59.545C1226.58 55.0631 1227.67 51.0757 1229.83 47.5581L1228.34 46.6402C1225.99 50.4551 1224.83 54.7648 1224.83 59.545H1226.58ZM1229.83 47.5581C1232 44.0247 1234.94 41.2356 1238.67 39.1846L1237.83 37.6475C1233.84 39.8415 1230.67 42.8412 1228.34 46.6402L1229.83 47.5581ZM1238.68 39.1791C1242.4 37.0744 1246.62 36.0128 1251.37 36.0128V34.2587C1246.35 34.2587 1241.82 35.3839 1237.82 37.653L1238.68 39.1791ZM1251.37 36.0128C1256.13 36.0128 1260.35 37.0443 1264.07 39.0881L1264.91 37.551C1260.91 35.3497 1256.39 34.2587 1251.37 34.2587V36.0128ZM1264.07 39.0881C1267.79 41.1371 1270.74 43.9555 1272.91 47.5523L1274.41 46.646C1272.08 42.7818 1268.91 39.7471 1264.91 37.551L1264.07 39.0881ZM1272.91 47.5581C1275.07 51.0757 1276.16 55.0631 1276.16 59.545H1277.91C1277.91 54.7648 1276.75 50.4551 1274.41 46.6402L1272.91 47.5581ZM1276.16 59.545C1276.16 64.0267 1275.07 68.049 1272.91 71.6341L1274.41 72.5405C1276.75 68.6645 1277.91 64.3253 1277.91 59.545H1276.16ZM1272.91 71.6341C1270.73 75.2333 1267.79 78.0863 1264.06 80.2003L1264.92 81.7265C1268.91 79.4668 1272.08 76.4023 1274.41 72.5405L1272.91 71.6341ZM1264.07 80.1949C1260.35 82.2386 1256.13 83.2701 1251.37 83.2701V85.0243C1256.39 85.0243 1260.91 83.9333 1264.91 81.7319L1264.07 80.1949ZM1251.37 71.6137C1253.62 71.6137 1255.64 71.1354 1257.4 70.1511L1256.54 68.6206C1255.08 69.4373 1253.37 69.8595 1251.37 69.8595V71.6137ZM1257.42 70.138C1259.17 69.0876 1260.51 67.6444 1261.42 65.8225L1259.85 65.038C1259.09 66.5606 1257.98 67.7545 1256.52 68.6338L1257.42 70.138ZM1261.41 65.834C1262.38 63.9585 1262.86 61.8556 1262.86 59.545H1261.11C1261.11 61.6081 1260.68 63.4287 1259.85 65.0265L1261.41 65.834ZM1262.86 59.545C1262.86 57.2361 1262.38 55.1856 1261.4 53.4242L1259.87 54.2813C1260.68 55.7359 1261.11 57.4801 1261.11 59.545H1262.86ZM1261.41 53.4369C1260.43 51.6226 1259.06 50.2128 1257.3 49.2283L1256.44 50.7588C1257.9 51.5752 1259.04 52.7383 1259.86 54.2685L1261.41 53.4369ZM1257.34 49.2498C1255.63 48.1842 1253.63 47.6693 1251.37 47.6693V49.4234C1253.36 49.4234 1255.02 49.8733 1256.41 50.7373L1257.34 49.2498ZM1251.37 47.6693C1249.17 47.6693 1247.18 48.187 1245.42 49.2415L1246.32 50.7456C1247.78 49.8705 1249.46 49.4234 1251.37 49.4234V47.6693ZM1245.44 49.2283C1243.68 50.2128 1242.31 51.6226 1241.34 53.4369L1242.88 54.2685C1243.71 52.7383 1244.84 51.5752 1246.3 50.7588L1245.44 49.2283ZM1241.34 53.4369C1240.36 55.2552 1239.88 57.3316 1239.88 59.6415H1241.64C1241.64 57.5776 1242.06 55.7949 1242.88 54.2685L1241.34 53.4369ZM1239.88 59.6415C1239.88 61.8923 1240.36 63.9622 1241.33 65.834L1242.89 65.0265C1242.06 63.425 1241.64 61.6357 1241.64 59.6415H1239.88ZM1241.34 65.8461C1242.31 67.6554 1243.68 69.0909 1245.42 70.138L1246.32 68.6338C1244.85 67.7513 1243.71 66.5497 1242.88 65.0144L1241.34 65.8461ZM1245.44 70.1511C1247.2 71.1332 1249.18 71.6137 1251.37 71.6137V69.8595C1249.44 69.8595 1247.76 69.4395 1246.3 68.6206L1245.44 70.1511ZM1304.64 82.2176L1305.01 81.4218L1305.01 81.4218L1304.64 82.2176ZM1298.18 77.2007L1297.48 77.7335L1297.49 77.7435L1298.18 77.2007ZM1295.29 69.7718H1294.41V69.8125L1294.41 69.853L1295.29 69.7718ZM1295.29 49.9936L1294.41 49.9123L1294.41 49.9528V49.9936H1295.29ZM1298.18 42.4682L1297.48 41.9451L1297.48 41.9451L1298.18 42.4682ZM1304.64 37.1618L1305.03 37.9501L1305.03 37.9501L1304.64 37.1618ZM1325.1 38.416L1324.63 39.1606L1324.64 39.1644L1325.1 38.416ZM1333.2 47.0992L1332.43 47.5077L1332.43 47.5182L1333.2 47.0992ZM1333.2 72.1838L1332.43 71.7647L1332.43 71.7753L1333.2 72.1838ZM1325.1 80.8669L1324.64 80.1185L1324.63 80.1224L1325.1 80.8669ZM1316.13 69.2894L1315.67 68.5373L1315.67 68.5414L1315.66 68.5456L1316.13 69.2894ZM1319.89 65.3338L1319.12 64.9179L1319.12 64.9179L1319.89 65.3338ZM1319.89 53.8527L1319.12 54.2685L1319.12 54.2685L1319.89 53.8527ZM1316.13 49.9936L1315.66 50.7373L1315.68 50.7485L1315.7 50.7588L1316.13 49.9936ZM1305.22 49.9936L1305.66 50.7512L1305.67 50.7456L1305.22 49.9936ZM1301.56 53.8527L1302.33 54.2685L1302.33 54.2685L1301.56 53.8527ZM1301.46 65.3338L1300.68 65.726L1300.68 65.7379L1300.69 65.7496L1301.46 65.3338ZM1305.22 69.2894L1304.77 70.0415L1304.77 70.0415L1305.22 69.2894ZM1286.31 102.864H1285.44V103.741H1286.31V102.864ZM1286.31 36.197V35.3199H1285.44V36.197H1286.31ZM1301.07 36.197H1301.95V35.3199H1301.07V36.197ZM1301.07 48.2569L1301.93 48.4387L1301.95 48.3488V48.2569H1301.07ZM1298.66 59.6415L1297.8 59.4597L1297.77 59.6342L1297.8 59.8093L1298.66 59.6415ZM1300.88 71.026H1301.76V70.9413L1301.74 70.8582L1300.88 71.026ZM1300.88 102.864V103.741H1301.76V102.864H1300.88ZM1313.33 83.1736C1310.29 83.1736 1307.52 82.586 1305.01 81.4218L1304.28 83.0134C1307.04 84.2934 1310.06 84.9278 1313.33 84.9278V83.1736ZM1305.01 81.4218C1302.49 80.2533 1300.45 78.664 1298.87 76.6579L1297.49 77.7435C1299.25 79.9825 1301.52 81.7378 1304.28 83.0134L1305.01 81.4218ZM1298.88 76.6679C1297.31 74.6132 1296.4 72.2937 1296.16 69.6906L1294.41 69.853C1294.68 72.7813 1295.71 75.4145 1297.48 77.7335L1298.88 76.6679ZM1296.16 69.7718V49.9936H1294.41V69.7718H1296.16ZM1296.16 50.0748C1296.4 47.4707 1297.31 45.1147 1298.88 42.9912L1297.48 41.9451C1295.71 44.324 1294.68 46.985 1294.41 49.9123L1296.16 50.0748ZM1298.88 42.9912C1300.47 40.858 1302.51 39.1779 1305.03 37.9501L1304.26 36.3735C1301.5 37.7185 1299.24 39.576 1297.48 41.9451L1298.88 42.9912ZM1305.03 37.9501C1307.54 36.7264 1310.3 36.1093 1313.33 36.1093V34.3551C1310.05 34.3551 1307.03 35.0244 1304.26 36.3735L1305.03 37.9501ZM1313.33 36.1093C1317.62 36.1093 1321.38 37.1336 1324.63 39.1606L1325.56 37.6715C1322 35.4534 1317.91 34.3551 1313.33 34.3551V36.1093ZM1324.64 39.1644C1327.98 41.203 1330.57 43.9788 1332.43 47.5077L1333.98 46.6907C1331.98 42.8871 1329.17 39.8742 1325.55 37.6676L1324.64 39.1644ZM1332.43 47.5182C1334.35 51.0404 1335.32 55.0739 1335.32 59.6415H1337.07C1337.07 54.8184 1336.04 50.4903 1333.97 46.6801L1332.43 47.5182ZM1335.32 59.6415C1335.32 64.209 1334.35 68.2425 1332.43 71.7647L1333.97 72.6028C1336.04 68.7926 1337.07 64.4646 1337.07 59.6415H1335.32ZM1332.43 71.7753C1330.57 75.3041 1327.98 78.08 1324.64 80.1185L1325.55 81.6153C1329.17 79.4088 1331.98 76.3958 1333.98 72.5923L1332.43 71.7753ZM1324.63 80.1224C1321.38 82.1493 1317.62 83.1736 1313.33 83.1736V84.9278C1317.91 84.9278 1322 83.8296 1325.56 81.6115L1324.63 80.1224ZM1310.63 71.6137C1312.88 71.6137 1314.89 71.0987 1316.59 70.0332L1315.66 68.5456C1314.28 69.4097 1312.61 69.8595 1310.63 69.8595V71.6137ZM1316.58 70.0415C1318.32 68.9944 1319.69 67.5589 1320.66 65.7496L1319.12 64.9179C1318.29 66.4532 1317.14 67.6548 1315.67 68.5373L1316.58 70.0415ZM1320.66 65.7496C1321.64 63.935 1322.12 61.8918 1322.12 59.6415H1320.36C1320.36 61.6362 1319.94 63.3879 1319.12 64.9179L1320.66 65.7496ZM1322.12 59.6415C1322.12 57.3316 1321.64 55.2552 1320.66 53.4369L1319.12 54.2685C1319.94 55.7949 1320.36 57.5776 1320.36 59.6415H1322.12ZM1320.66 53.4369C1319.68 51.6226 1318.31 50.2128 1316.55 49.2283L1315.7 50.7588C1317.15 51.5752 1318.29 52.7383 1319.12 54.2685L1320.66 53.4369ZM1316.59 49.2498C1314.89 48.1869 1312.92 47.6693 1310.72 47.6693V49.4234C1312.64 49.4234 1314.27 49.8706 1315.66 50.7373L1316.59 49.2498ZM1310.72 47.6693C1308.52 47.6693 1306.53 48.187 1304.77 49.2415L1305.67 50.7456C1307.13 49.8705 1308.81 49.4234 1310.72 49.4234V47.6693ZM1304.78 49.2359C1303.09 50.2229 1301.76 51.6317 1300.78 53.4369L1302.33 54.2685C1303.16 52.7291 1304.27 51.5651 1305.66 50.7512L1304.78 49.2359ZM1300.78 53.4369C1299.81 55.2552 1299.33 57.3316 1299.33 59.6415H1301.08C1301.08 57.5776 1301.51 55.7949 1302.33 54.2685L1300.78 53.4369ZM1299.33 59.6415C1299.33 61.8817 1299.77 63.9163 1300.68 65.726L1302.24 64.9415C1301.48 63.4065 1301.08 61.6464 1301.08 59.6415H1299.33ZM1300.69 65.7496C1301.66 67.5589 1303.03 68.9944 1304.77 70.0415L1305.67 68.5373C1304.2 67.6548 1303.06 66.4532 1302.23 64.9179L1300.69 65.7496ZM1304.77 70.0415C1306.52 71.0933 1308.48 71.6137 1310.63 71.6137V69.8595C1308.78 69.8595 1307.14 69.4151 1305.67 68.5373L1304.77 70.0415ZM1287.19 102.864V36.197H1285.44V102.864H1287.19ZM1286.31 37.0741H1301.07V35.3199H1286.31V37.0741ZM1300.2 36.197V48.2569H1301.95V36.197H1300.2ZM1300.22 48.0751L1297.8 59.4597L1299.52 59.8233L1301.93 48.4387L1300.22 48.0751ZM1297.8 59.8093L1300.02 71.1938L1301.74 70.8582L1299.52 59.4737L1297.8 59.8093ZM1300 71.026V102.864H1301.76V71.026H1300ZM1300.88 101.987H1286.31V103.741H1300.88V101.987ZM1345.62 83.0859H1344.74V83.963H1345.62V83.0859ZM1345.62 36.197V35.3199H1344.74V36.197H1345.62ZM1360.38 36.197H1361.26V35.3199H1360.38V36.197ZM1360.38 83.0859V83.963H1361.26V83.0859H1360.38ZM1347.26 27.4174L1346.62 28.0112L1346.63 28.0247L1346.64 28.0376L1347.26 27.4174ZM1347.26 15.8399L1346.64 15.2197L1346.63 15.2263L1346.63 15.233L1347.26 15.8399ZM1358.74 27.4174L1359.38 28.0243L1359.38 28.0178L1359.39 28.0112L1358.74 27.4174ZM1346.5 83.0859V36.197H1344.74V83.0859H1346.5ZM1345.62 37.0741H1360.38V35.3199H1345.62V37.0741ZM1359.51 36.197V83.0859H1361.26V36.197H1359.51ZM1360.38 82.2089H1345.62V83.963H1360.38V82.2089ZM1353.05 28.8558C1350.95 28.8558 1349.25 28.1656 1347.88 26.7972L1346.64 28.0376C1348.36 29.7565 1350.52 30.61 1353.05 30.61V28.8558ZM1347.91 26.8236C1346.58 25.3828 1345.92 23.6672 1345.92 21.6286H1344.17C1344.17 24.0925 1344.98 26.236 1346.62 28.0112L1347.91 26.8236ZM1345.92 21.6286C1345.92 19.5187 1346.59 17.8129 1347.89 16.4468L1346.63 15.233C1344.98 16.9543 1344.17 19.1076 1344.17 21.6286H1345.92ZM1347.88 16.4601C1349.25 15.0917 1350.95 14.4015 1353.05 14.4015V12.6473C1350.52 12.6473 1348.36 13.5008 1346.64 15.2197L1347.88 16.4601ZM1353.05 14.4015C1355.15 14.4015 1356.81 15.091 1358.11 16.4468L1359.38 15.233C1357.72 13.5015 1355.58 12.6473 1353.05 12.6473V14.4015ZM1358.11 16.4468C1359.42 17.8129 1360.08 19.5187 1360.08 21.6286H1361.84C1361.84 19.1076 1361.03 16.9543 1359.38 15.233L1358.11 16.4468ZM1360.08 21.6286C1360.08 23.6672 1359.42 25.3828 1358.1 26.8236L1359.39 28.0112C1361.02 26.236 1361.84 24.0925 1361.84 21.6286H1360.08ZM1358.11 26.8105C1356.81 28.1663 1355.15 28.8558 1353.05 28.8558V30.61C1355.58 30.61 1357.72 29.7558 1359.38 28.0243L1358.11 26.8105ZM1378.69 83.0859H1377.81V83.963H1378.69V83.0859ZM1381.2 21.9181L1380.43 21.4881L1380.43 21.4935L1381.2 21.9181ZM1388.43 14.6821L1388.86 15.4467L1388.88 15.4397L1388.43 14.6821ZM1407.83 13.6209L1407.46 14.4179L1407.47 14.4237L1407.49 14.4292L1407.83 13.6209ZM1414.19 17.9624L1414.81 18.5826L1415.42 17.9732L1414.82 17.3532L1414.19 17.9624ZM1404.93 27.2244L1404.31 27.8446L1404.93 28.4648L1405.55 27.8446L1404.93 27.2244ZM1402.71 25.7773L1402.32 26.5617L1402.36 26.5807L1402.4 26.5959L1402.71 25.7773ZM1395.19 26.935L1394.57 26.3148L1394.57 26.3148L1395.19 26.935ZM1393.45 83.0859V83.963H1394.33V83.0859H1393.45ZM1368.37 48.7393H1367.49V49.6164H1368.37V48.7393ZM1368.37 36.197V35.3199H1367.49V36.197H1368.37ZM1406.96 36.197H1407.83V35.3199H1406.96V36.197ZM1406.96 48.7393V49.6164H1407.83V48.7393H1406.96ZM1379.57 83.0859V32.1449H1377.81V83.0859H1379.57ZM1379.57 32.1449C1379.57 28.4836 1380.37 25.2232 1381.96 22.3427L1380.43 21.4935C1378.68 24.659 1377.81 28.2165 1377.81 32.1449H1379.57ZM1381.96 22.3481C1383.62 19.4008 1385.92 17.1045 1388.86 15.4466L1388 13.9177C1384.78 15.7331 1382.25 18.2607 1380.43 21.4881L1381.96 22.3481ZM1388.88 15.4397C1391.81 13.7306 1395.31 12.8578 1399.43 12.8578V11.1036C1395.06 11.1036 1391.24 12.0318 1387.99 13.9245L1388.88 15.4397ZM1399.43 12.8578C1402.55 12.8578 1405.22 13.3878 1407.46 14.4179L1408.19 12.8239C1405.67 11.6671 1402.75 11.1036 1399.43 11.1036V12.8578ZM1407.49 14.4292C1409.82 15.4134 1411.85 16.7937 1413.56 18.5717L1414.82 17.3532C1412.94 15.4006 1410.72 13.8866 1408.17 12.8125L1407.49 14.4292ZM1413.57 17.3422L1404.31 26.6043L1405.55 27.8446L1414.81 18.5826L1413.57 17.3422ZM1405.55 26.6043C1404.82 25.8757 1403.98 25.325 1403.03 24.9586L1402.4 26.5959C1403.12 26.8727 1403.75 27.2868 1404.31 27.8446L1405.55 26.6043ZM1403.1 24.9928C1402.18 24.5319 1401.11 24.3213 1399.91 24.3213V26.0755C1400.91 26.0755 1401.7 26.2508 1402.32 26.5617L1403.1 24.9928ZM1399.91 24.3213C1397.74 24.3213 1395.92 24.958 1394.57 26.3148L1395.81 27.5552C1396.77 26.5965 1398.1 26.0755 1399.91 26.0755V24.3213ZM1394.57 26.3148C1393.21 27.6716 1392.57 29.4899 1392.57 31.6625H1394.33C1394.33 29.8472 1394.85 28.5139 1395.81 27.5552L1394.57 26.3148ZM1392.57 31.6625V83.0859L1394.33 83.0859V31.6625H1392.57ZM1393.45 82.2089L1378.69 82.2089V83.963L1393.45 83.963V82.2089ZM1369.24 48.7393V36.197H1367.49V48.7393H1369.24ZM1368.37 37.0741L1406.96 37.0741V35.3199L1368.37 35.3199V37.0741ZM1406.08 36.197V48.7393H1407.83V36.197H1406.08ZM1406.96 47.8622L1368.37 47.8622V49.6164L1406.96 49.6164V47.8622ZM1430.19 83.2789L1429.38 83.6115L1429.6 84.156H1430.19V83.2789ZM1410.89 36.197V35.3199H1409.58L1410.08 36.5296L1410.89 36.197ZM1426.81 36.197L1427.64 35.9235L1427.45 35.3199H1426.81V36.197ZM1439.06 73.5345V74.4116H1440.27L1439.9 73.261L1439.06 73.5345ZM1433.18 73.5345L1432.35 73.2552L1431.96 74.4116H1433.18V73.5345ZM1445.72 36.197V35.3199H1445.09L1444.89 35.9177L1445.72 36.197ZM1461.64 36.197L1462.45 36.5409L1462.97 35.3199H1461.64V36.197ZM1441.57 83.2789V84.156H1442.15L1442.38 83.6228L1441.57 83.2789ZM1418.13 102.864L1417.33 102.495L1416.75 103.741H1418.13V102.864ZM1432.21 72.4732L1432.88 71.899L1431.99 70.8734L1431.42 72.1044L1432.21 72.4732ZM1441.57 83.2789L1442.38 83.621L1442.59 83.1178L1442.24 82.7047L1441.57 83.2789ZM1433.27 102.864V103.741H1433.86L1434.08 103.206L1433.27 102.864ZM1431 82.9463L1411.7 35.8644L1410.08 36.5296L1429.38 83.6115L1431 82.9463ZM1410.89 37.0741L1426.81 37.0741V35.3199L1410.89 35.3199V37.0741ZM1425.98 36.4705L1438.23 73.808L1439.9 73.261L1427.64 35.9235L1425.98 36.4705ZM1439.06 72.6574H1433.18V74.4116H1439.06V72.6574ZM1434.01 73.8138L1446.55 36.4763L1444.89 35.9177L1432.35 73.2552L1434.01 73.8138ZM1445.72 37.0741L1461.64 37.0741V35.3199L1445.72 35.3199V37.0741ZM1460.83 35.8531L1440.77 82.935L1442.38 83.6228L1462.45 36.5409L1460.83 35.8531ZM1441.57 82.4018H1430.19V84.156H1441.57V82.4018ZM1418.92 103.233L1433.01 72.842L1431.42 72.1044L1417.33 102.495L1418.92 103.233ZM1431.55 73.0474L1440.91 83.8531L1442.24 82.7047L1432.88 71.899L1431.55 73.0474ZM1440.76 82.9368L1432.47 102.522L1434.08 103.206L1442.38 83.621L1440.76 82.9368ZM1433.27 101.987H1418.13V103.741H1433.27V101.987Z" fill="white" fill-opacity="0.4"/>
</svg>
