<svg width="829" height="140" viewBox="0 0 829 140" fill="none" xmlns="http://www.w3.org/2000/svg">
<path d="M8.51047 136L8.51047 124.752H10.6385L10.6385 136H8.51047ZM5.72647 126.64V124.752H10.4145L10.4145 126.64H5.72647ZM5.72647 136V134.112H12.8945V136H5.72647ZM16.316 136.16C15.932 136.16 15.6173 136.032 15.372 135.776C15.1266 135.52 15.004 135.205 15.004 134.832C15.004 134.459 15.1266 134.144 15.372 133.888C15.6173 133.632 15.932 133.504 16.316 133.504C16.6893 133.504 16.9986 133.632 17.244 133.888C17.4893 134.144 17.612 134.459 17.612 134.832C17.612 135.205 17.4893 135.52 17.244 135.776C16.9986 136.032 16.6893 136.16 16.316 136.16ZM26.64 136V134.064H29.504C30.2293 134.064 30.864 133.915 31.408 133.616C31.952 133.307 32.3733 132.875 32.672 132.32C32.9813 131.765 33.136 131.109 33.136 130.352C33.136 129.616 32.9813 128.976 32.672 128.432C32.3627 127.877 31.936 127.451 31.392 127.152C30.848 126.843 30.2187 126.688 29.504 126.688H26.592V124.752H29.536C30.368 124.752 31.136 124.891 31.84 125.168C32.5547 125.445 33.1733 125.84 33.696 126.352C34.2293 126.853 34.64 127.445 34.928 128.128C35.2267 128.811 35.376 129.557 35.376 130.368C35.376 131.179 35.2267 131.931 34.928 132.624C34.64 133.307 34.2347 133.904 33.712 134.416C33.1893 134.917 32.5707 135.307 31.856 135.584C31.152 135.861 30.3893 136 29.568 136H26.64ZM25.152 136L25.152 124.752H27.328L27.328 136H25.152ZM36.8811 136V128.272H38.9931V136H36.8811ZM37.9371 127.024C37.5958 127.024 37.3131 126.912 37.0891 126.688C36.8651 126.453 36.7531 126.165 36.7531 125.824C36.7531 125.493 36.8651 125.211 37.0891 124.976C37.3131 124.741 37.5958 124.624 37.9371 124.624C38.2891 124.624 38.5718 124.741 38.7851 124.976C39.0091 125.211 39.1211 125.493 39.1211 125.824C39.1211 126.165 39.0091 126.453 38.7851 126.688C38.5718 126.912 38.2891 127.024 37.9371 127.024ZM43.5059 136.176C43.0685 136.176 42.6365 136.117 42.2099 136C41.7939 135.883 41.4099 135.723 41.0579 135.52C40.7059 135.307 40.4019 135.051 40.1459 134.752L41.3939 133.488C41.6605 133.787 41.9699 134.011 42.3219 134.16C42.6739 134.309 43.0632 134.384 43.4899 134.384C43.8312 134.384 44.0872 134.336 44.2579 134.24C44.4392 134.144 44.5299 134 44.5299 133.808C44.5299 133.595 44.4339 133.429 44.2419 133.312C44.0605 133.195 43.8205 133.099 43.5219 133.024C43.2232 132.939 42.9085 132.848 42.5779 132.752C42.2579 132.645 41.9485 132.512 41.6499 132.352C41.3512 132.181 41.1059 131.952 40.9139 131.664C40.7325 131.365 40.6419 130.981 40.6419 130.512C40.6419 130.021 40.7592 129.595 40.9939 129.232C41.2392 128.869 41.5859 128.587 42.0339 128.384C42.4819 128.181 43.0099 128.08 43.6179 128.08C44.2579 128.08 44.8339 128.192 45.3459 128.416C45.8685 128.64 46.3005 128.976 46.6419 129.424L45.3779 130.688C45.1432 130.4 44.8765 130.192 44.5779 130.064C44.2899 129.936 43.9752 129.872 43.6339 129.872C43.3245 129.872 43.0845 129.92 42.9139 130.016C42.7539 130.112 42.6739 130.245 42.6739 130.416C42.6739 130.608 42.7645 130.757 42.9459 130.864C43.1379 130.971 43.3832 131.067 43.6819 131.152C43.9805 131.227 44.2899 131.317 44.6099 131.424C44.9405 131.52 45.2499 131.659 45.5379 131.84C45.8365 132.021 46.0765 132.261 46.2579 132.56C46.4499 132.859 46.5459 133.243 46.5459 133.712C46.5459 134.469 46.2739 135.072 45.7299 135.52C45.1859 135.957 44.4445 136.176 43.5059 136.176ZM51.6073 136.16C50.8179 136.16 50.1086 135.984 49.4793 135.632C48.8499 135.28 48.3539 134.8 47.9913 134.192C47.6286 133.584 47.4473 132.901 47.4473 132.144C47.4473 131.376 47.6286 130.688 47.9913 130.08C48.3539 129.472 48.8499 128.992 49.4793 128.64C50.1193 128.277 50.8286 128.096 51.6073 128.096C52.2153 128.096 52.7753 128.208 53.2873 128.432C53.7993 128.656 54.2419 128.976 54.6153 129.392L53.2713 130.752C53.0686 130.528 52.8233 130.357 52.5353 130.24C52.2579 130.123 51.9486 130.064 51.6073 130.064C51.2233 130.064 50.8766 130.155 50.5673 130.336C50.2686 130.507 50.0286 130.747 49.8473 131.056C49.6766 131.355 49.5913 131.712 49.5913 132.128C49.5913 132.533 49.6766 132.896 49.8473 133.216C50.0286 133.525 50.2686 133.771 50.5673 133.952C50.8766 134.123 51.2233 134.208 51.6073 134.208C51.9593 134.208 52.2739 134.149 52.5513 134.032C52.8393 133.904 53.0846 133.723 53.2873 133.488L54.6473 134.848C54.2526 135.275 53.7993 135.6 53.2873 135.824C52.7753 136.048 52.2153 136.16 51.6073 136.16ZM59.1302 136.16C58.4476 136.16 57.8396 136.016 57.3063 135.728C56.7836 135.44 56.3729 135.04 56.0743 134.528C55.7756 134.016 55.6263 133.424 55.6263 132.752V128.272H57.7383V132.704C57.7383 133.024 57.7916 133.301 57.8983 133.536C58.0049 133.76 58.1649 133.931 58.3783 134.048C58.5916 134.165 58.8423 134.224 59.1302 134.224C59.5676 134.224 59.9089 134.091 60.1543 133.824C60.3996 133.557 60.5223 133.184 60.5223 132.704V128.272H62.6183V132.752C62.6183 133.435 62.4689 134.032 62.1703 134.544C61.8823 135.056 61.4716 135.456 60.9383 135.744C60.4156 136.021 59.8129 136.16 59.1302 136.16ZM66.9434 136.176C66.506 136.176 66.074 136.117 65.6474 136C65.2314 135.883 64.8474 135.723 64.4954 135.52C64.1434 135.307 63.8394 135.051 63.5834 134.752L64.8314 133.488C65.098 133.787 65.4074 134.011 65.7594 134.16C66.1114 134.309 66.5007 134.384 66.9274 134.384C67.2687 134.384 67.5247 134.336 67.6954 134.24C67.8767 134.144 67.9674 134 67.9674 133.808C67.9674 133.595 67.8714 133.429 67.6794 133.312C67.498 133.195 67.258 133.099 66.9594 133.024C66.6607 132.939 66.346 132.848 66.0154 132.752C65.6954 132.645 65.386 132.512 65.0874 132.352C64.7887 132.181 64.5434 131.952 64.3514 131.664C64.17 131.365 64.0794 130.981 64.0794 130.512C64.0794 130.021 64.1967 129.595 64.4314 129.232C64.6767 128.869 65.0234 128.587 65.4714 128.384C65.9194 128.181 66.4474 128.08 67.0554 128.08C67.6954 128.08 68.2714 128.192 68.7834 128.416C69.306 128.64 69.738 128.976 70.0794 129.424L68.8154 130.688C68.5807 130.4 68.314 130.192 68.0154 130.064C67.7274 129.936 67.4127 129.872 67.0714 129.872C66.762 129.872 66.522 129.92 66.3514 130.016C66.1914 130.112 66.1114 130.245 66.1114 130.416C66.1114 130.608 66.202 130.757 66.3834 130.864C66.5754 130.971 66.8207 131.067 67.1194 131.152C67.418 131.227 67.7274 131.317 68.0474 131.424C68.378 131.52 68.6874 131.659 68.9754 131.84C69.274 132.021 69.514 132.261 69.6954 132.56C69.8874 132.859 69.9834 133.243 69.9834 133.712C69.9834 134.469 69.7114 135.072 69.1674 135.52C68.6234 135.957 67.882 136.176 66.9434 136.176ZM74.0528 136.176C73.6154 136.176 73.1834 136.117 72.7568 136C72.3408 135.883 71.9568 135.723 71.6048 135.52C71.2528 135.307 70.9488 135.051 70.6928 134.752L71.9408 133.488C72.2074 133.787 72.5168 134.011 72.8688 134.16C73.2208 134.309 73.6101 134.384 74.0368 134.384C74.3781 134.384 74.6341 134.336 74.8048 134.24C74.9861 134.144 75.0768 134 75.0768 133.808C75.0768 133.595 74.9808 133.429 74.7888 133.312C74.6074 133.195 74.3674 133.099 74.0688 133.024C73.7701 132.939 73.4554 132.848 73.1248 132.752C72.8048 132.645 72.4954 132.512 72.1968 132.352C71.8981 132.181 71.6528 131.952 71.4608 131.664C71.2794 131.365 71.1888 130.981 71.1888 130.512C71.1888 130.021 71.3061 129.595 71.5408 129.232C71.7861 128.869 72.1328 128.587 72.5807 128.384C73.0288 128.181 73.5568 128.08 74.1648 128.08C74.8048 128.08 75.3808 128.192 75.8928 128.416C76.4154 128.64 76.8474 128.976 77.1888 129.424L75.9248 130.688C75.6901 130.4 75.4234 130.192 75.1248 130.064C74.8368 129.936 74.5221 129.872 74.1808 129.872C73.8714 129.872 73.6314 129.92 73.4608 130.016C73.3008 130.112 73.2208 130.245 73.2208 130.416C73.2208 130.608 73.3114 130.757 73.4928 130.864C73.6848 130.971 73.9301 131.067 74.2288 131.152C74.5274 131.227 74.8368 131.317 75.1568 131.424C75.4874 131.52 75.7968 131.659 76.0848 131.84C76.3834 132.021 76.6234 132.261 76.8048 132.56C76.9968 132.859 77.0928 133.243 77.0928 133.712C77.0928 134.469 76.8208 135.072 76.2768 135.52C75.7328 135.957 74.9914 136.176 74.0528 136.176ZM84.0631 136.064L80.8311 128.272H83.1031L85.2471 134.224H84.4791L86.7031 128.272H88.9911L85.5511 136.048L84.0631 136.064ZM81.9191 139.232L84.2711 134.256L85.5511 136.048L84.1431 139.232H81.9191ZM93.3413 136.16C92.5626 136.16 91.8586 135.984 91.2293 135.632C90.6106 135.269 90.1146 134.784 89.7413 134.176C89.3786 133.557 89.1973 132.869 89.1973 132.112C89.1973 131.355 89.3786 130.677 89.7413 130.08C90.1039 129.472 90.5999 128.992 91.2293 128.64C91.8586 128.277 92.5573 128.096 93.3253 128.096C94.1146 128.096 94.8186 128.277 95.4373 128.64C96.0666 128.992 96.5626 129.472 96.9253 130.08C97.2879 130.677 97.4693 131.355 97.4693 132.112C97.4693 132.869 97.2879 133.557 96.9253 134.176C96.5626 134.784 96.0666 135.269 95.4373 135.632C94.8186 135.984 94.1199 136.16 93.3413 136.16ZM93.3253 134.208C93.7199 134.208 94.0666 134.123 94.3653 133.952C94.6746 133.771 94.9093 133.525 95.0693 133.216C95.2399 132.896 95.3253 132.533 95.3253 132.128C95.3253 131.723 95.2399 131.365 95.0693 131.056C94.8986 130.747 94.6639 130.507 94.3653 130.336C94.0666 130.155 93.7199 130.064 93.3253 130.064C92.9413 130.064 92.5999 130.155 92.3013 130.336C92.0026 130.507 91.7679 130.747 91.5973 131.056C91.4266 131.365 91.3413 131.723 91.3413 132.128C91.3413 132.533 91.4266 132.896 91.5973 133.216C91.7679 133.525 92.0026 133.771 92.3013 133.952C92.5999 134.123 92.9413 134.208 93.3253 134.208ZM102.115 136.16C101.432 136.16 100.824 136.016 100.291 135.728C99.768 135.44 99.3573 135.04 99.0586 134.528C98.76 134.016 98.6106 133.424 98.6106 132.752V128.272H100.723V132.704C100.723 133.024 100.776 133.301 100.883 133.536C100.989 133.76 101.149 133.931 101.363 134.048C101.576 134.165 101.827 134.224 102.115 134.224C102.552 134.224 102.893 134.091 103.139 133.824C103.384 133.557 103.507 133.184 103.507 132.704V128.272H105.603V132.752C105.603 133.435 105.453 134.032 105.155 134.544C104.867 135.056 104.456 135.456 103.923 135.744C103.4 136.021 102.797 136.16 102.115 136.16ZM107.272 136V128.272H109.368V136H107.272ZM109.368 131.728L108.552 131.184C108.648 130.235 108.925 129.488 109.384 128.944C109.842 128.389 110.504 128.112 111.368 128.112C111.741 128.112 112.077 128.176 112.376 128.304C112.674 128.421 112.946 128.619 113.192 128.896L111.88 130.4C111.762 130.272 111.618 130.176 111.448 130.112C111.288 130.048 111.101 130.016 110.888 130.016C110.44 130.016 110.072 130.16 109.784 130.448C109.506 130.725 109.368 131.152 109.368 131.728ZM117.558 136V124.752H119.078L119.734 126.928V136H117.558ZM125.334 136L118.662 127.36L119.078 124.752L125.75 133.392L125.334 136ZM125.334 136L124.71 133.888V124.752H126.902V136H125.334ZM132.655 136.16C131.845 136.16 131.125 135.989 130.495 135.648C129.866 135.296 129.365 134.816 128.991 134.208C128.629 133.6 128.447 132.907 128.447 132.128C128.447 131.36 128.623 130.677 128.975 130.08C129.338 129.472 129.829 128.992 130.447 128.64C131.066 128.277 131.754 128.096 132.511 128.096C133.258 128.096 133.914 128.267 134.479 128.608C135.055 128.939 135.503 129.397 135.823 129.984C136.154 130.56 136.319 131.216 136.319 131.952C136.319 132.091 136.309 132.235 136.287 132.384C136.277 132.523 136.25 132.683 136.207 132.864L129.711 132.88V131.312L135.231 131.296L134.383 131.952C134.362 131.493 134.277 131.109 134.127 130.8C133.989 130.491 133.781 130.256 133.503 130.096C133.237 129.925 132.906 129.84 132.511 129.84C132.095 129.84 131.733 129.936 131.423 130.128C131.114 130.309 130.874 130.571 130.703 130.912C130.543 131.243 130.463 131.637 130.463 132.096C130.463 132.565 130.549 132.976 130.719 133.328C130.901 133.669 131.157 133.936 131.487 134.128C131.818 134.309 132.202 134.4 132.639 134.4C133.034 134.4 133.391 134.336 133.711 134.208C134.031 134.069 134.309 133.867 134.543 133.6L135.775 134.832C135.402 135.269 134.943 135.6 134.399 135.824C133.866 136.048 133.285 136.16 132.655 136.16ZM141.312 136.16C140.501 136.16 139.781 135.989 139.152 135.648C138.522 135.296 138.021 134.816 137.648 134.208C137.285 133.6 137.104 132.907 137.104 132.128C137.104 131.36 137.28 130.677 137.632 130.08C137.994 129.472 138.485 128.992 139.104 128.64C139.722 128.277 140.41 128.096 141.168 128.096C141.914 128.096 142.57 128.267 143.136 128.608C143.712 128.939 144.16 129.397 144.48 129.984C144.81 130.56 144.976 131.216 144.976 131.952C144.976 132.091 144.965 132.235 144.944 132.384C144.933 132.523 144.906 132.683 144.864 132.864L138.368 132.88V131.312L143.888 131.296L143.04 131.952C143.018 131.493 142.933 131.109 142.784 130.8C142.645 130.491 142.437 130.256 142.16 130.096C141.893 129.925 141.562 129.84 141.168 129.84C140.752 129.84 140.389 129.936 140.08 130.128C139.77 130.309 139.53 130.571 139.36 130.912C139.2 131.243 139.12 131.637 139.12 132.096C139.12 132.565 139.205 132.976 139.376 133.328C139.557 133.669 139.813 133.936 140.144 134.128C140.474 134.309 140.858 134.4 141.296 134.4C141.69 134.4 142.048 134.336 142.368 134.208C142.688 134.069 142.965 133.867 143.2 133.6L144.432 134.832C144.058 135.269 143.6 135.6 143.056 135.824C142.522 136.048 141.941 136.16 141.312 136.16ZM149.536 136.16C148.821 136.16 148.181 135.984 147.616 135.632C147.05 135.28 146.602 134.8 146.272 134.192C145.952 133.584 145.792 132.901 145.792 132.144C145.792 131.376 145.952 130.688 146.272 130.08C146.602 129.472 147.045 128.992 147.6 128.64C148.165 128.288 148.81 128.112 149.536 128.112C150.09 128.112 150.586 128.224 151.024 128.448C151.472 128.672 151.829 128.987 152.096 129.392C152.373 129.787 152.522 130.235 152.544 130.736V133.488C152.522 133.989 152.378 134.443 152.112 134.848C151.845 135.253 151.488 135.573 151.04 135.808C150.592 136.043 150.09 136.16 149.536 136.16ZM149.888 134.224C150.282 134.224 150.624 134.139 150.912 133.968C151.21 133.787 151.44 133.541 151.6 133.232C151.77 132.912 151.856 132.544 151.856 132.128C151.856 131.723 151.77 131.365 151.6 131.056C151.44 130.736 151.21 130.491 150.912 130.32C150.624 130.139 150.288 130.048 149.904 130.048C149.509 130.048 149.162 130.139 148.864 130.32C148.576 130.501 148.346 130.747 148.176 131.056C148.016 131.365 147.936 131.723 147.936 132.128C147.936 132.544 148.016 132.912 148.176 133.232C148.346 133.541 148.581 133.787 148.88 133.968C149.178 134.139 149.514 134.224 149.888 134.224ZM153.824 136H151.744V133.92L152.08 132.032L151.728 130.176V124.432H153.824V136Z" fill="white" fill-opacity="0.8"/>
<path d="M229.416 134.752L233.656 130.32C233.955 130 234.195 129.717 234.376 129.472C234.568 129.216 234.707 128.976 234.792 128.752C234.877 128.517 234.92 128.283 234.92 128.048C234.92 127.579 234.765 127.211 234.456 126.944C234.157 126.677 233.768 126.544 233.288 126.544C232.797 126.544 232.36 126.672 231.976 126.928C231.603 127.184 231.251 127.589 230.92 128.144L229.432 126.88C229.88 126.123 230.435 125.552 231.096 125.168C231.768 124.773 232.536 124.576 233.4 124.576C234.136 124.576 234.776 124.72 235.32 125.008C235.875 125.296 236.301 125.696 236.6 126.208C236.899 126.72 237.048 127.317 237.048 128C237.048 128.459 236.989 128.875 236.872 129.248C236.765 129.621 236.579 129.995 236.312 130.368C236.056 130.731 235.699 131.141 235.24 131.6L232.152 134.752H229.416ZM229.416 136V134.752L231.272 134.112H237.288V136H229.416ZM240.212 136.16C239.828 136.16 239.513 136.032 239.268 135.776C239.022 135.52 238.9 135.205 238.9 134.832C238.9 134.459 239.022 134.144 239.268 133.888C239.513 133.632 239.828 133.504 240.212 133.504C240.585 133.504 240.894 133.632 241.14 133.888C241.385 134.144 241.508 134.459 241.508 134.832C241.508 135.205 241.385 135.52 241.14 135.776C240.894 136.032 240.585 136.16 240.212 136.16ZM248.328 136V134.064H251.192C251.917 134.064 252.552 133.915 253.096 133.616C253.64 133.307 254.061 132.875 254.36 132.32C254.669 131.765 254.824 131.109 254.824 130.352C254.824 129.616 254.669 128.976 254.36 128.432C254.05 127.877 253.624 127.451 253.08 127.152C252.536 126.843 251.906 126.688 251.192 126.688H248.28V124.752H251.224C252.056 124.752 252.824 124.891 253.528 125.168C254.242 125.445 254.861 125.84 255.384 126.352C255.917 126.853 256.328 127.445 256.616 128.128C256.914 128.811 257.064 129.557 257.064 130.368C257.064 131.179 256.914 131.931 256.616 132.624C256.328 133.307 255.922 133.904 255.4 134.416C254.877 134.917 254.258 135.307 253.544 135.584C252.84 135.861 252.077 136 251.256 136H248.328ZM246.84 136V124.752H249.016V136H246.84ZM262.265 136.16C261.454 136.16 260.734 135.989 260.105 135.648C259.475 135.296 258.974 134.816 258.601 134.208C258.238 133.6 258.057 132.907 258.057 132.128C258.057 131.36 258.233 130.677 258.585 130.08C258.947 129.472 259.438 128.992 260.057 128.64C260.675 128.277 261.363 128.096 262.121 128.096C262.867 128.096 263.523 128.267 264.089 128.608C264.665 128.939 265.113 129.397 265.433 129.984C265.763 130.56 265.929 131.216 265.929 131.952C265.929 132.091 265.918 132.235 265.897 132.384C265.886 132.523 265.859 132.683 265.817 132.864L259.321 132.88V131.312L264.841 131.296L263.993 131.952C263.971 131.493 263.886 131.109 263.737 130.8C263.598 130.491 263.39 130.256 263.113 130.096C262.846 129.925 262.515 129.84 262.121 129.84C261.705 129.84 261.342 129.936 261.033 130.128C260.723 130.309 260.483 130.571 260.313 130.912C260.153 131.243 260.073 131.637 260.073 132.096C260.073 132.565 260.158 132.976 260.329 133.328C260.51 133.669 260.766 133.936 261.097 134.128C261.427 134.309 261.811 134.4 262.249 134.4C262.643 134.4 263.001 134.336 263.321 134.208C263.641 134.069 263.918 133.867 264.153 133.6L265.385 134.832C265.011 135.269 264.553 135.6 264.009 135.824C263.475 136.048 262.894 136.16 262.265 136.16ZM268.061 136V127.2C268.061 126.645 268.184 126.149 268.429 125.712C268.675 125.264 269.016 124.912 269.453 124.656C269.901 124.389 270.429 124.256 271.037 124.256C271.421 124.256 271.763 124.315 272.061 124.432C272.371 124.549 272.664 124.72 272.941 124.944L271.741 126.416C271.645 126.341 271.539 126.288 271.421 126.256C271.315 126.213 271.187 126.192 271.037 126.192C270.76 126.192 270.541 126.277 270.381 126.448C270.232 126.608 270.157 126.832 270.157 127.12V136H268.061ZM266.269 130.112V128.272H273.933V130.112H266.269ZM272.925 136V128.272H275.021V136H272.925ZM273.965 127.648C273.635 127.648 273.357 127.536 273.133 127.312C272.92 127.088 272.813 126.811 272.813 126.48C272.813 126.149 272.92 125.872 273.133 125.648C273.357 125.424 273.635 125.312 273.965 125.312C274.307 125.312 274.584 125.424 274.797 125.648C275.011 125.872 275.117 126.149 275.117 126.48C275.117 126.811 275.011 127.088 274.797 127.312C274.584 127.536 274.307 127.648 273.965 127.648ZM282.081 136V131.568C282.081 131.109 281.937 130.736 281.649 130.448C281.361 130.16 280.988 130.016 280.529 130.016C280.23 130.016 279.964 130.08 279.729 130.208C279.494 130.336 279.308 130.517 279.169 130.752C279.041 130.987 278.977 131.259 278.977 131.568L278.161 131.152C278.161 130.544 278.289 130.016 278.545 129.568C278.812 129.109 279.174 128.752 279.633 128.496C280.102 128.24 280.63 128.112 281.217 128.112C281.782 128.112 282.289 128.256 282.737 128.544C283.185 128.821 283.537 129.189 283.793 129.648C284.049 130.096 284.177 130.581 284.177 131.104V136H282.081ZM276.881 136V128.272H278.977V136H276.881ZM289.562 136.16C288.751 136.16 288.031 135.989 287.402 135.648C286.772 135.296 286.271 134.816 285.898 134.208C285.535 133.6 285.354 132.907 285.354 132.128C285.354 131.36 285.53 130.677 285.882 130.08C286.244 129.472 286.735 128.992 287.354 128.64C287.972 128.277 288.66 128.096 289.418 128.096C290.164 128.096 290.82 128.267 291.386 128.608C291.962 128.939 292.41 129.397 292.73 129.984C293.06 130.56 293.226 131.216 293.226 131.952C293.226 132.091 293.215 132.235 293.194 132.384C293.183 132.523 293.156 132.683 293.114 132.864L286.618 132.88V131.312L292.138 131.296L291.29 131.952C291.268 131.493 291.183 131.109 291.034 130.8C290.895 130.491 290.687 130.256 290.41 130.096C290.143 129.925 289.812 129.84 289.418 129.84C289.002 129.84 288.639 129.936 288.33 130.128C288.02 130.309 287.78 130.571 287.61 130.912C287.45 131.243 287.37 131.637 287.37 132.096C287.37 132.565 287.455 132.976 287.626 133.328C287.807 133.669 288.063 133.936 288.394 134.128C288.724 134.309 289.108 134.4 289.546 134.4C289.94 134.4 290.298 134.336 290.618 134.208C290.938 134.069 291.215 133.867 291.45 133.6L292.682 134.832C292.308 135.269 291.85 135.6 291.306 135.824C290.772 136.048 290.191 136.16 289.562 136.16ZM299.471 131.296V129.6H302.079C302.612 129.6 303.023 129.467 303.311 129.2C303.609 128.923 303.759 128.544 303.759 128.064C303.759 127.627 303.609 127.264 303.311 126.976C303.023 126.677 302.612 126.528 302.079 126.528H299.471V124.752H302.271C302.996 124.752 303.631 124.896 304.175 125.184C304.729 125.461 305.156 125.845 305.455 126.336C305.764 126.827 305.919 127.392 305.919 128.032C305.919 128.693 305.764 129.269 305.455 129.76C305.156 130.24 304.729 130.619 304.175 130.896C303.62 131.163 302.975 131.296 302.239 131.296H299.471ZM297.871 136V124.752H300.047V136H297.871ZM304.015 136L300.303 131.136L302.303 130.512L306.655 136H304.015ZM311.14 136.16C310.329 136.16 309.609 135.989 308.98 135.648C308.35 135.296 307.849 134.816 307.476 134.208C307.113 133.6 306.932 132.907 306.932 132.128C306.932 131.36 307.108 130.677 307.46 130.08C307.822 129.472 308.313 128.992 308.932 128.64C309.55 128.277 310.238 128.096 310.996 128.096C311.742 128.096 312.398 128.267 312.964 128.608C313.54 128.939 313.988 129.397 314.308 129.984C314.638 130.56 314.804 131.216 314.804 131.952C314.804 132.091 314.793 132.235 314.772 132.384C314.761 132.523 314.734 132.683 314.692 132.864L308.196 132.88V131.312L313.716 131.296L312.868 131.952C312.846 131.493 312.761 131.109 312.612 130.8C312.473 130.491 312.265 130.256 311.988 130.096C311.721 129.925 311.39 129.84 310.996 129.84C310.58 129.84 310.217 129.936 309.908 130.128C309.598 130.309 309.358 130.571 309.188 130.912C309.028 131.243 308.948 131.637 308.948 132.096C308.948 132.565 309.033 132.976 309.204 133.328C309.385 133.669 309.641 133.936 309.972 134.128C310.302 134.309 310.686 134.4 311.124 134.4C311.518 134.4 311.876 134.336 312.196 134.208C312.516 134.069 312.793 133.867 313.028 133.6L314.26 134.832C313.886 135.269 313.428 135.6 312.884 135.824C312.35 136.048 311.769 136.16 311.14 136.16ZM318.756 136.176C318.319 136.176 317.887 136.117 317.46 136C317.044 135.883 316.66 135.723 316.308 135.52C315.956 135.307 315.652 135.051 315.396 134.752L316.644 133.488C316.911 133.787 317.22 134.011 317.572 134.16C317.924 134.309 318.313 134.384 318.74 134.384C319.081 134.384 319.337 134.336 319.508 134.24C319.689 134.144 319.78 134 319.78 133.808C319.78 133.595 319.684 133.429 319.492 133.312C319.311 133.195 319.071 133.099 318.772 133.024C318.473 132.939 318.159 132.848 317.828 132.752C317.508 132.645 317.199 132.512 316.9 132.352C316.601 132.181 316.356 131.952 316.164 131.664C315.983 131.365 315.892 130.981 315.892 130.512C315.892 130.021 316.009 129.595 316.244 129.232C316.489 128.869 316.836 128.587 317.284 128.384C317.732 128.181 318.26 128.08 318.868 128.08C319.508 128.08 320.084 128.192 320.596 128.416C321.119 128.64 321.551 128.976 321.892 129.424L320.628 130.688C320.393 130.4 320.127 130.192 319.828 130.064C319.54 129.936 319.225 129.872 318.884 129.872C318.575 129.872 318.335 129.92 318.164 130.016C318.004 130.112 317.924 130.245 317.924 130.416C317.924 130.608 318.015 130.757 318.196 130.864C318.388 130.971 318.633 131.067 318.932 131.152C319.231 131.227 319.54 131.317 319.86 131.424C320.191 131.52 320.5 131.659 320.788 131.84C321.087 132.021 321.327 132.261 321.508 132.56C321.7 132.859 321.796 133.243 321.796 133.712C321.796 134.469 321.524 135.072 320.98 135.52C320.436 135.957 319.695 136.176 318.756 136.176ZM326.841 136.16C326.063 136.16 325.359 135.984 324.729 135.632C324.111 135.269 323.615 134.784 323.241 134.176C322.879 133.557 322.697 132.869 322.697 132.112C322.697 131.355 322.879 130.677 323.241 130.08C323.604 129.472 324.1 128.992 324.729 128.64C325.359 128.277 326.057 128.096 326.825 128.096C327.615 128.096 328.319 128.277 328.937 128.64C329.567 128.992 330.063 129.472 330.425 130.08C330.788 130.677 330.969 131.355 330.969 132.112C330.969 132.869 330.788 133.557 330.425 134.176C330.063 134.784 329.567 135.269 328.937 135.632C328.319 135.984 327.62 136.16 326.841 136.16ZM326.825 134.208C327.22 134.208 327.567 134.123 327.865 133.952C328.175 133.771 328.409 133.525 328.569 133.216C328.74 132.896 328.825 132.533 328.825 132.128C328.825 131.723 328.74 131.365 328.569 131.056C328.399 130.747 328.164 130.507 327.865 130.336C327.567 130.155 327.22 130.064 326.825 130.064C326.441 130.064 326.1 130.155 325.801 130.336C325.503 130.507 325.268 130.747 325.097 131.056C324.927 131.365 324.841 131.723 324.841 132.128C324.841 132.533 324.927 132.896 325.097 133.216C325.268 133.525 325.503 133.771 325.801 133.952C326.1 134.123 326.441 134.208 326.825 134.208ZM335.615 136.16C334.932 136.16 334.324 136.016 333.791 135.728C333.268 135.44 332.857 135.04 332.559 134.528C332.26 134.016 332.111 133.424 332.111 132.752V128.272H334.223V132.704C334.223 133.024 334.276 133.301 334.383 133.536C334.489 133.76 334.649 133.931 334.863 134.048C335.076 134.165 335.327 134.224 335.615 134.224C336.052 134.224 336.393 134.091 336.639 133.824C336.884 133.557 337.007 133.184 337.007 132.704V128.272H339.103V132.752C339.103 133.435 338.953 134.032 338.655 134.544C338.367 135.056 337.956 135.456 337.423 135.744C336.9 136.021 336.297 136.16 335.615 136.16ZM340.772 136V128.272H342.868V136H340.772ZM342.868 131.728L342.052 131.184C342.148 130.235 342.425 129.488 342.884 128.944C343.342 128.389 344.004 128.112 344.868 128.112C345.241 128.112 345.577 128.176 345.876 128.304C346.174 128.421 346.446 128.619 346.692 128.896L345.38 130.4C345.262 130.272 345.118 130.176 344.948 130.112C344.788 130.048 344.601 130.016 344.388 130.016C343.94 130.016 343.572 130.16 343.284 130.448C343.006 130.725 342.868 131.152 342.868 131.728ZM350.857 136.16C350.068 136.16 349.359 135.984 348.729 135.632C348.1 135.28 347.604 134.8 347.241 134.192C346.879 133.584 346.697 132.901 346.697 132.144C346.697 131.376 346.879 130.688 347.241 130.08C347.604 129.472 348.1 128.992 348.729 128.64C349.369 128.277 350.079 128.096 350.857 128.096C351.465 128.096 352.025 128.208 352.537 128.432C353.049 128.656 353.492 128.976 353.865 129.392L352.521 130.752C352.319 130.528 352.073 130.357 351.785 130.24C351.508 130.123 351.199 130.064 350.857 130.064C350.473 130.064 350.127 130.155 349.817 130.336C349.519 130.507 349.279 130.747 349.097 131.056C348.927 131.355 348.841 131.712 348.841 132.128C348.841 132.533 348.927 132.896 349.097 133.216C349.279 133.525 349.519 133.771 349.817 133.952C350.127 134.123 350.473 134.208 350.857 134.208C351.209 134.208 351.524 134.149 351.801 134.032C352.089 133.904 352.335 133.723 352.537 133.488L353.897 134.848C353.503 135.275 353.049 135.6 352.537 135.824C352.025 136.048 351.465 136.16 350.857 136.16ZM358.608 136.16C357.798 136.16 357.078 135.989 356.448 135.648C355.819 135.296 355.318 134.816 354.944 134.208C354.582 133.6 354.4 132.907 354.4 132.128C354.4 131.36 354.576 130.677 354.928 130.08C355.291 129.472 355.782 128.992 356.4 128.64C357.019 128.277 357.707 128.096 358.464 128.096C359.211 128.096 359.867 128.267 360.432 128.608C361.008 128.939 361.456 129.397 361.776 129.984C362.107 130.56 362.272 131.216 362.272 131.952C362.272 132.091 362.262 132.235 362.24 132.384C362.23 132.523 362.203 132.683 362.16 132.864L355.664 132.88V131.312L361.184 131.296L360.336 131.952C360.315 131.493 360.23 131.109 360.08 130.8C359.942 130.491 359.734 130.256 359.456 130.096C359.19 129.925 358.859 129.84 358.464 129.84C358.048 129.84 357.686 129.936 357.376 130.128C357.067 130.309 356.827 130.571 356.656 130.912C356.496 131.243 356.416 131.637 356.416 132.096C356.416 132.565 356.502 132.976 356.672 133.328C356.854 133.669 357.11 133.936 357.44 134.128C357.771 134.309 358.155 134.4 358.592 134.4C358.987 134.4 359.344 134.336 359.664 134.208C359.984 134.069 360.262 133.867 360.496 133.6L361.728 134.832C361.355 135.269 360.896 135.6 360.352 135.824C359.819 136.048 359.238 136.16 358.608 136.16ZM366.225 136.176C365.787 136.176 365.355 136.117 364.929 136C364.513 135.883 364.129 135.723 363.777 135.52C363.425 135.307 363.121 135.051 362.865 134.752L364.113 133.488C364.379 133.787 364.689 134.011 365.041 134.16C365.393 134.309 365.782 134.384 366.209 134.384C366.55 134.384 366.806 134.336 366.977 134.24C367.158 134.144 367.249 134 367.249 133.808C367.249 133.595 367.153 133.429 366.961 133.312C366.779 133.195 366.539 133.099 366.241 133.024C365.942 132.939 365.627 132.848 365.297 132.752C364.977 132.645 364.667 132.512 364.369 132.352C364.07 132.181 363.825 131.952 363.633 131.664C363.451 131.365 363.361 130.981 363.361 130.512C363.361 130.021 363.478 129.595 363.713 129.232C363.958 128.869 364.305 128.587 364.753 128.384C365.201 128.181 365.729 128.08 366.337 128.08C366.977 128.08 367.553 128.192 368.065 128.416C368.587 128.64 369.019 128.976 369.361 129.424L368.097 130.688C367.862 130.4 367.595 130.192 367.297 130.064C367.009 129.936 366.694 129.872 366.353 129.872C366.043 129.872 365.803 129.92 365.633 130.016C365.473 130.112 365.393 130.245 365.393 130.416C365.393 130.608 365.483 130.757 365.665 130.864C365.857 130.971 366.102 131.067 366.401 131.152C366.699 131.227 367.009 131.317 367.329 131.424C367.659 131.52 367.969 131.659 368.257 131.84C368.555 132.021 368.795 132.261 368.977 132.56C369.169 132.859 369.265 133.243 369.265 133.712C369.265 134.469 368.993 135.072 368.449 135.52C367.905 135.957 367.163 136.176 366.225 136.176Z" fill="white" fill-opacity="0.8"/>
<path d="M460.984 136.16C460.227 136.16 459.533 136.027 458.904 135.76C458.275 135.483 457.747 135.088 457.32 134.576L458.76 133.152C458.973 133.472 459.277 133.728 459.672 133.92C460.067 134.112 460.493 134.208 460.952 134.208C461.379 134.208 461.747 134.133 462.056 133.984C462.365 133.824 462.605 133.605 462.776 133.328C462.957 133.04 463.048 132.709 463.048 132.336C463.048 131.941 462.957 131.605 462.776 131.328C462.605 131.051 462.355 130.837 462.024 130.688C461.693 130.539 461.299 130.464 460.84 130.464C460.637 130.464 460.429 130.48 460.216 130.512C460.003 130.533 459.821 130.571 459.672 130.624L460.632 129.408C460.899 129.323 461.16 129.253 461.416 129.2C461.683 129.136 461.928 129.104 462.152 129.104C462.728 129.104 463.245 129.243 463.704 129.52C464.173 129.787 464.541 130.171 464.808 130.672C465.085 131.163 465.224 131.744 465.224 132.416C465.224 133.163 465.048 133.819 464.696 134.384C464.344 134.939 463.848 135.376 463.208 135.696C462.579 136.005 461.837 136.16 460.984 136.16ZM459.672 130.624V129.376L462.552 126.032L465.048 126L462.072 129.408L459.672 130.624ZM457.944 126.64V124.752H465.048V126L463.272 126.64H457.944ZM467.774 136.16C467.39 136.16 467.076 136.032 466.83 135.776C466.585 135.52 466.462 135.205 466.462 134.832C466.462 134.459 466.585 134.144 466.83 133.888C467.076 133.632 467.39 133.504 467.774 133.504C468.148 133.504 468.457 133.632 468.702 133.888C468.948 134.144 469.07 134.459 469.07 134.832C469.07 135.205 468.948 135.52 468.702 135.776C468.457 136.032 468.148 136.16 467.774 136.16ZM474.402 136V124.752H476.578V136H474.402ZM476.002 131.392V129.456H481.666V131.392H476.002ZM476.002 126.672V124.752H481.938V126.672H476.002ZM483.428 136V128.272H485.54V136H483.428ZM484.484 127.024C484.143 127.024 483.86 126.912 483.636 126.688C483.412 126.453 483.3 126.165 483.3 125.824C483.3 125.493 483.412 125.211 483.636 124.976C483.86 124.741 484.143 124.624 484.484 124.624C484.836 124.624 485.119 124.741 485.332 124.976C485.556 125.211 485.668 125.493 485.668 125.824C485.668 126.165 485.556 126.453 485.332 126.688C485.119 126.912 484.836 127.024 484.484 127.024ZM492.597 136V131.568C492.597 131.109 492.453 130.736 492.165 130.448C491.877 130.16 491.503 130.016 491.045 130.016C490.746 130.016 490.479 130.08 490.245 130.208C490.01 130.336 489.823 130.517 489.685 130.752C489.557 130.987 489.493 131.259 489.493 131.568L488.677 131.152C488.677 130.544 488.805 130.016 489.061 129.568C489.327 129.109 489.69 128.752 490.149 128.496C490.618 128.24 491.146 128.112 491.733 128.112C492.298 128.112 492.805 128.256 493.253 128.544C493.701 128.821 494.053 129.189 494.309 129.648C494.565 130.096 494.693 130.581 494.693 131.104V136H492.597ZM487.397 136V128.272H489.493V136H487.397ZM499.613 136.16C498.909 136.16 498.274 135.984 497.709 135.632C497.144 135.28 496.701 134.8 496.381 134.192C496.061 133.584 495.901 132.901 495.901 132.144C495.901 131.376 496.061 130.688 496.381 130.08C496.701 129.472 497.144 128.992 497.709 128.64C498.274 128.288 498.909 128.112 499.613 128.112C500.168 128.112 500.664 128.224 501.101 128.448C501.538 128.672 501.885 128.987 502.141 129.392C502.408 129.787 502.552 130.235 502.573 130.736V133.52C502.552 134.032 502.408 134.485 502.141 134.88C501.885 135.275 501.538 135.589 501.101 135.824C500.664 136.048 500.168 136.16 499.613 136.16ZM499.997 134.224C500.584 134.224 501.058 134.032 501.421 133.648C501.784 133.253 501.965 132.747 501.965 132.128C501.965 131.723 501.88 131.365 501.709 131.056C501.549 130.736 501.32 130.491 501.021 130.32C500.733 130.139 500.392 130.048 499.997 130.048C499.613 130.048 499.272 130.139 498.973 130.32C498.685 130.491 498.456 130.736 498.285 131.056C498.125 131.365 498.045 131.723 498.045 132.128C498.045 132.544 498.125 132.912 498.285 133.232C498.456 133.541 498.685 133.787 498.973 133.968C499.272 134.139 499.613 134.224 499.997 134.224ZM501.853 136V133.92L502.189 132.032L501.853 130.176V128.272H503.933V136H501.853ZM505.787 136V124.432H507.883V136H505.787ZM509.741 136V128.272H511.853V136H509.741ZM510.797 127.024C510.455 127.024 510.173 126.912 509.949 126.688C509.725 126.453 509.613 126.165 509.613 125.824C509.613 125.493 509.725 125.211 509.949 124.976C510.173 124.741 510.455 124.624 510.797 124.624C511.149 124.624 511.431 124.741 511.645 124.976C511.869 125.211 511.981 125.493 511.981 125.824C511.981 126.165 511.869 126.453 511.645 126.688C511.431 126.912 511.149 127.024 510.797 127.024ZM513.165 134.8L517.261 129.472H519.789L515.693 134.8H513.165ZM513.165 136V134.8L514.829 134.176H519.693V136H513.165ZM513.453 130.096V128.272H519.789V129.472L518.109 130.096H513.453ZM524.718 136.16C523.907 136.16 523.187 135.989 522.558 135.648C521.928 135.296 521.427 134.816 521.054 134.208C520.691 133.6 520.51 132.907 520.51 132.128C520.51 131.36 520.686 130.677 521.038 130.08C521.4 129.472 521.891 128.992 522.51 128.64C523.128 128.277 523.816 128.096 524.574 128.096C525.32 128.096 525.976 128.267 526.542 128.608C527.118 128.939 527.566 129.397 527.886 129.984C528.216 130.56 528.382 131.216 528.382 131.952C528.382 132.091 528.371 132.235 528.35 132.384C528.339 132.523 528.312 132.683 528.27 132.864L521.774 132.88V131.312L527.294 131.296L526.446 131.952C526.424 131.493 526.339 131.109 526.19 130.8C526.051 130.491 525.843 130.256 525.566 130.096C525.299 129.925 524.968 129.84 524.574 129.84C524.158 129.84 523.795 129.936 523.486 130.128C523.176 130.309 522.936 130.571 522.766 130.912C522.606 131.243 522.526 131.637 522.526 132.096C522.526 132.565 522.611 132.976 522.782 133.328C522.963 133.669 523.219 133.936 523.55 134.128C523.88 134.309 524.264 134.4 524.702 134.4C525.096 134.4 525.454 134.336 525.774 134.208C526.094 134.069 526.371 133.867 526.606 133.6L527.838 134.832C527.464 135.269 527.006 135.6 526.462 135.824C525.928 136.048 525.347 136.16 524.718 136.16ZM533.027 136V124.752H535.203V136H533.027ZM540.083 136V124.752H542.259V136H540.083ZM534.403 131.152V129.232H540.691V131.152H534.403ZM547.966 136.16C547.188 136.16 546.484 135.984 545.854 135.632C545.236 135.269 544.74 134.784 544.366 134.176C544.004 133.557 543.822 132.869 543.822 132.112C543.822 131.355 544.004 130.677 544.366 130.08C544.729 129.472 545.225 128.992 545.854 128.64C546.484 128.277 547.182 128.096 547.95 128.096C548.74 128.096 549.444 128.277 550.062 128.64C550.692 128.992 551.188 129.472 551.55 130.08C551.913 130.677 552.094 131.355 552.094 132.112C552.094 132.869 551.913 133.557 551.55 134.176C551.188 134.784 550.692 135.269 550.062 135.632C549.444 135.984 548.745 136.16 547.966 136.16ZM547.95 134.208C548.345 134.208 548.692 134.123 548.99 133.952C549.3 133.771 549.534 133.525 549.694 133.216C549.865 132.896 549.95 132.533 549.95 132.128C549.95 131.723 549.865 131.365 549.694 131.056C549.524 130.747 549.289 130.507 548.99 130.336C548.692 130.155 548.345 130.064 547.95 130.064C547.566 130.064 547.225 130.155 546.926 130.336C546.628 130.507 546.393 130.747 546.222 131.056C546.052 131.365 545.966 131.723 545.966 132.128C545.966 132.533 546.052 132.896 546.222 133.216C546.393 133.525 546.628 133.771 546.926 133.952C547.225 134.123 547.566 134.208 547.95 134.208ZM556.74 136.16C556.057 136.16 555.449 136.016 554.916 135.728C554.393 135.44 553.982 135.04 553.684 134.528C553.385 134.016 553.236 133.424 553.236 132.752V128.272H555.348V132.704C555.348 133.024 555.401 133.301 555.508 133.536C555.614 133.76 555.774 133.931 555.988 134.048C556.201 134.165 556.452 134.224 556.74 134.224C557.177 134.224 557.518 134.091 557.764 133.824C558.009 133.557 558.132 133.184 558.132 132.704V128.272H560.228V132.752C560.228 133.435 560.078 134.032 559.78 134.544C559.492 135.056 559.081 135.456 558.548 135.744C558.025 136.021 557.422 136.16 556.74 136.16ZM561.897 136V128.272H563.993V136H561.897ZM563.993 131.728L563.177 131.184C563.273 130.235 563.55 129.488 564.009 128.944C564.467 128.389 565.129 128.112 565.993 128.112C566.366 128.112 566.702 128.176 567.001 128.304C567.299 128.421 567.571 128.619 567.817 128.896L566.505 130.4C566.387 130.272 566.243 130.176 566.073 130.112C565.913 130.048 565.726 130.016 565.513 130.016C565.065 130.016 564.697 130.16 564.409 130.448C564.131 130.725 563.993 131.152 563.993 131.728ZM571.037 136.176C570.6 136.176 570.168 136.117 569.741 136C569.325 135.883 568.941 135.723 568.589 135.52C568.237 135.307 567.933 135.051 567.677 134.752L568.925 133.488C569.192 133.787 569.501 134.011 569.853 134.16C570.205 134.309 570.594 134.384 571.021 134.384C571.362 134.384 571.618 134.336 571.789 134.24C571.97 134.144 572.061 134 572.061 133.808C572.061 133.595 571.965 133.429 571.773 133.312C571.592 133.195 571.352 133.099 571.053 133.024C570.754 132.939 570.44 132.848 570.109 132.752C569.789 132.645 569.48 132.512 569.181 132.352C568.882 132.181 568.637 131.952 568.445 131.664C568.264 131.365 568.173 130.981 568.173 130.512C568.173 130.021 568.29 129.595 568.525 129.232C568.77 128.869 569.117 128.587 569.565 128.384C570.013 128.181 570.541 128.08 571.149 128.08C571.789 128.08 572.365 128.192 572.877 128.416C573.4 128.64 573.832 128.976 574.173 129.424L572.909 130.688C572.674 130.4 572.408 130.192 572.109 130.064C571.821 129.936 571.506 129.872 571.165 129.872C570.856 129.872 570.616 129.92 570.445 130.016C570.285 130.112 570.205 130.245 570.205 130.416C570.205 130.608 570.296 130.757 570.477 130.864C570.669 130.971 570.914 131.067 571.213 131.152C571.512 131.227 571.821 131.317 572.141 131.424C572.472 131.52 572.781 131.659 573.069 131.84C573.368 132.021 573.608 132.261 573.789 132.56C573.981 132.859 574.077 133.243 574.077 133.712C574.077 134.469 573.805 135.072 573.261 135.52C572.717 135.957 571.976 136.176 571.037 136.176ZM580.44 136V134.224H583.368C583.89 134.224 584.296 134.064 584.584 133.744C584.882 133.424 585.032 133.045 585.032 132.608C585.032 132.309 584.968 132.037 584.84 131.792C584.712 131.547 584.52 131.355 584.264 131.216C584.018 131.067 583.72 130.992 583.368 130.992H580.44V129.232H583.128C583.576 129.232 583.933 129.12 584.2 128.896C584.477 128.672 584.616 128.336 584.616 127.888C584.616 127.429 584.477 127.088 584.2 126.864C583.933 126.64 583.576 126.528 583.128 126.528H580.44V124.752H583.384C584.13 124.752 584.754 124.891 585.256 125.168C585.768 125.435 586.152 125.792 586.408 126.24C586.664 126.677 586.792 127.157 586.792 127.68C586.792 128.32 586.594 128.875 586.2 129.344C585.816 129.803 585.25 130.144 584.504 130.368L584.6 129.664C585.432 129.899 586.072 130.288 586.52 130.832C586.978 131.365 587.208 132.011 587.208 132.768C587.208 133.365 587.058 133.909 586.76 134.4C586.472 134.88 586.045 135.269 585.48 135.568C584.925 135.856 584.248 136 583.448 136H580.44ZM578.84 136V124.752H581V136H578.84ZM592.005 136.16C591.323 136.16 590.715 136.016 590.181 135.728C589.659 135.44 589.248 135.04 588.949 134.528C588.651 134.016 588.501 133.424 588.501 132.752V128.272H590.613V132.704C590.613 133.024 590.667 133.301 590.773 133.536C590.88 133.76 591.04 133.931 591.253 134.048C591.467 134.165 591.717 134.224 592.005 134.224C592.443 134.224 592.784 134.091 593.029 133.824C593.275 133.557 593.397 133.184 593.397 132.704V128.272H595.493V132.752C595.493 133.435 595.344 134.032 595.045 134.544C594.757 135.056 594.347 135.456 593.813 135.744C593.291 136.021 592.688 136.16 592.005 136.16ZM600.81 136.16C600.021 136.16 599.312 135.984 598.682 135.632C598.053 135.28 597.557 134.8 597.194 134.192C596.832 133.584 596.65 132.901 596.65 132.144C596.65 131.376 596.832 130.688 597.194 130.08C597.557 129.472 598.053 128.992 598.682 128.64C599.322 128.277 600.032 128.096 600.81 128.096C601.418 128.096 601.978 128.208 602.49 128.432C603.002 128.656 603.445 128.976 603.818 129.392L602.474 130.752C602.272 130.528 602.026 130.357 601.738 130.24C601.461 130.123 601.152 130.064 600.81 130.064C600.426 130.064 600.08 130.155 599.77 130.336C599.472 130.507 599.232 130.747 599.05 131.056C598.88 131.355 598.794 131.712 598.794 132.128C598.794 132.533 598.88 132.896 599.05 133.216C599.232 133.525 599.472 133.771 599.77 133.952C600.08 134.123 600.426 134.208 600.81 134.208C601.162 134.208 601.477 134.149 601.754 134.032C602.042 133.904 602.288 133.723 602.49 133.488L603.85 134.848C603.456 135.275 603.002 135.6 602.49 135.824C601.978 136.048 601.418 136.16 600.81 136.16ZM609.965 136L606.973 132.016L609.949 128.272H612.365L608.877 132.496L608.957 131.472L612.525 136H609.965ZM605.037 136V124.432H607.133V136H605.037ZM616.827 136.16C616.016 136.16 615.296 135.989 614.667 135.648C614.038 135.296 613.536 134.816 613.163 134.208C612.8 133.6 612.619 132.907 612.619 132.128C612.619 131.36 612.795 130.677 613.147 130.08C613.51 129.472 614 128.992 614.619 128.64C615.238 128.277 615.926 128.096 616.683 128.096C617.43 128.096 618.086 128.267 618.651 128.608C619.227 128.939 619.675 129.397 619.995 129.984C620.326 130.56 620.491 131.216 620.491 131.952C620.491 132.091 620.48 132.235 620.459 132.384C620.448 132.523 620.422 132.683 620.379 132.864L613.883 132.88V131.312L619.403 131.296L618.555 131.952C618.534 131.493 618.448 131.109 618.299 130.8C618.16 130.491 617.952 130.256 617.675 130.096C617.408 129.925 617.078 129.84 616.683 129.84C616.267 129.84 615.904 129.936 615.595 130.128C615.286 130.309 615.046 130.571 614.875 130.912C614.715 131.243 614.635 131.637 614.635 132.096C614.635 132.565 614.72 132.976 614.891 133.328C615.072 133.669 615.328 133.936 615.659 134.128C615.99 134.309 616.374 134.4 616.811 134.4C617.206 134.4 617.563 134.336 617.883 134.208C618.203 134.069 618.48 133.867 618.715 133.6L619.947 134.832C619.574 135.269 619.115 135.6 618.571 135.824C618.038 136.048 617.456 136.16 616.827 136.16ZM622.752 136V125.056H624.848V136H622.752ZM620.944 130.112V128.272H626.656V130.112H620.944Z" fill="white" fill-opacity="0.8"/>
<path d="M685.4 132.032L689.24 124.752H691.64L687.704 132.032H685.4ZM685.4 133.312V132.032L686.2 131.408H694.264V133.312H685.4ZM690.712 136V128.832H692.856V136H690.712ZM696.524 136.16C696.14 136.16 695.826 136.032 695.58 135.776C695.335 135.52 695.212 135.205 695.212 134.832C695.212 134.459 695.335 134.144 695.58 133.888C695.826 133.632 696.14 133.504 696.524 133.504C696.898 133.504 697.207 133.632 697.452 133.888C697.698 134.144 697.82 134.459 697.82 134.832C697.82 135.205 697.698 135.52 697.452 135.776C697.207 136.032 696.898 136.16 696.524 136.16ZM706.416 136.16C705.509 136.16 704.731 136.005 704.08 135.696C703.44 135.387 702.859 134.923 702.336 134.304L703.776 132.864C704.107 133.301 704.491 133.643 704.928 133.888C705.365 134.123 705.899 134.24 706.528 134.24C707.093 134.24 707.541 134.128 707.872 133.904C708.213 133.68 708.384 133.371 708.384 132.976C708.384 132.635 708.288 132.357 708.096 132.144C707.904 131.931 707.648 131.749 707.328 131.6C707.019 131.451 706.672 131.317 706.288 131.2C705.915 131.072 705.536 130.928 705.152 130.768C704.779 130.608 704.432 130.411 704.112 130.176C703.803 129.931 703.552 129.621 703.36 129.248C703.168 128.864 703.072 128.384 703.072 127.808C703.072 127.125 703.237 126.544 703.568 126.064C703.899 125.584 704.352 125.216 704.928 124.96C705.504 124.704 706.155 124.576 706.88 124.576C707.648 124.576 708.341 124.72 708.96 125.008C709.579 125.296 710.085 125.669 710.48 126.128L709.04 127.568C708.709 127.205 708.368 126.939 708.016 126.768C707.675 126.597 707.285 126.512 706.848 126.512C706.347 126.512 705.952 126.608 705.664 126.8C705.376 126.992 705.232 127.269 705.232 127.632C705.232 127.941 705.328 128.192 705.52 128.384C705.712 128.576 705.963 128.741 706.272 128.88C706.592 129.019 706.939 129.152 707.312 129.28C707.696 129.408 708.075 129.552 708.448 129.712C708.832 129.872 709.179 130.08 709.488 130.336C709.808 130.592 710.064 130.923 710.256 131.328C710.448 131.723 710.544 132.213 710.544 132.8C710.544 133.845 710.176 134.667 709.44 135.264C708.704 135.861 707.696 136.16 706.416 136.16ZM712.037 136V128.272H714.149V136H712.037ZM713.093 127.024C712.752 127.024 712.469 126.912 712.245 126.688C712.021 126.453 711.909 126.165 711.909 125.824C711.909 125.493 712.021 125.211 712.245 124.976C712.469 124.741 712.752 124.624 713.093 124.624C713.445 124.624 713.728 124.741 713.941 124.976C714.165 125.211 714.277 125.493 714.277 125.824C714.277 126.165 714.165 126.453 713.941 126.688C713.728 126.912 713.445 127.024 713.093 127.024ZM719.238 139.424C718.417 139.424 717.691 139.275 717.062 138.976C716.433 138.688 715.931 138.277 715.558 137.744L716.886 136.416C717.185 136.768 717.515 137.035 717.878 137.216C718.251 137.408 718.699 137.504 719.222 137.504C719.873 137.504 720.385 137.339 720.758 137.008C721.142 136.677 721.334 136.219 721.334 135.632V133.696L721.686 132L721.35 130.304V128.272H723.43V135.6C723.43 136.368 723.249 137.035 722.886 137.6C722.534 138.176 722.043 138.624 721.414 138.944C720.785 139.264 720.059 139.424 719.238 139.424ZM719.142 135.792C718.449 135.792 717.825 135.627 717.27 135.296C716.715 134.955 716.278 134.491 715.958 133.904C715.649 133.317 715.494 132.661 715.494 131.936C715.494 131.211 715.649 130.56 715.958 129.984C716.278 129.408 716.715 128.955 717.27 128.624C717.825 128.283 718.449 128.112 719.142 128.112C719.718 128.112 720.225 128.224 720.662 128.448C721.11 128.672 721.462 128.981 721.718 129.376C721.974 129.76 722.113 130.213 722.134 130.736V133.168C722.113 133.68 721.969 134.139 721.702 134.544C721.446 134.939 721.094 135.248 720.646 135.472C720.209 135.685 719.707 135.792 719.142 135.792ZM719.558 133.888C719.942 133.888 720.273 133.808 720.55 133.648C720.838 133.477 721.062 133.248 721.222 132.96C721.382 132.661 721.462 132.325 721.462 131.952C721.462 131.568 721.382 131.232 721.222 130.944C721.062 130.656 720.838 130.432 720.55 130.272C720.273 130.101 719.942 130.016 719.558 130.016C719.174 130.016 718.838 130.101 718.55 130.272C718.262 130.432 718.038 130.661 717.878 130.96C717.718 131.248 717.638 131.579 717.638 131.952C717.638 132.315 717.718 132.645 717.878 132.944C718.038 133.232 718.262 133.461 718.55 133.632C718.838 133.803 719.174 133.888 719.558 133.888ZM730.472 136V131.568C730.472 131.109 730.328 130.736 730.04 130.448C729.752 130.16 729.378 130.016 728.92 130.016C728.621 130.016 728.354 130.08 728.12 130.208C727.885 130.336 727.698 130.517 727.56 130.752C727.432 130.987 727.368 131.259 727.368 131.568L726.552 131.152C726.552 130.544 726.68 130.016 726.936 129.568C727.202 129.109 727.565 128.752 728.024 128.496C728.493 128.24 729.021 128.112 729.608 128.112C730.173 128.112 730.68 128.256 731.128 128.544C731.576 128.821 731.928 129.189 732.184 129.648C732.44 130.096 732.568 130.581 732.568 131.104V136H730.472ZM725.272 136V128.272H727.368V136H725.272ZM738.517 136V125.056H740.613V136H738.517ZM736.709 130.112V128.272H742.421V130.112H736.709ZM748.8 136V131.568C748.8 131.109 748.656 130.736 748.368 130.448C748.08 130.16 747.707 130.016 747.248 130.016C746.949 130.016 746.683 130.08 746.448 130.208C746.213 130.336 746.027 130.517 745.888 130.752C745.76 130.987 745.696 131.259 745.696 131.568L744.88 131.152C744.88 130.544 745.008 130.016 745.264 129.568C745.52 129.109 745.872 128.752 746.32 128.496C746.779 128.24 747.301 128.112 747.888 128.112C748.475 128.112 748.992 128.24 749.44 128.496C749.899 128.752 750.256 129.104 750.512 129.552C750.768 130 750.896 130.517 750.896 131.104V136H748.8ZM743.6 136V124.432H745.696V136H743.6ZM756.28 136.16C755.47 136.16 754.75 135.989 754.12 135.648C753.491 135.296 752.99 134.816 752.616 134.208C752.254 133.6 752.072 132.907 752.072 132.128C752.072 131.36 752.248 130.677 752.6 130.08C752.963 129.472 753.454 128.992 754.072 128.64C754.691 128.277 755.379 128.096 756.136 128.096C756.883 128.096 757.539 128.267 758.104 128.608C758.68 128.939 759.128 129.397 759.448 129.984C759.779 130.56 759.944 131.216 759.944 131.952C759.944 132.091 759.934 132.235 759.912 132.384C759.902 132.523 759.875 132.683 759.832 132.864L753.336 132.88V131.312L758.856 131.296L758.008 131.952C757.987 131.493 757.902 131.109 757.752 130.8C757.614 130.491 757.406 130.256 757.128 130.096C756.862 129.925 756.531 129.84 756.136 129.84C755.72 129.84 755.358 129.936 755.048 130.128C754.739 130.309 754.499 130.571 754.328 130.912C754.168 131.243 754.088 131.637 754.088 132.096C754.088 132.565 754.174 132.976 754.344 133.328C754.526 133.669 754.782 133.936 755.112 134.128C755.443 134.309 755.827 134.4 756.264 134.4C756.659 134.4 757.016 134.336 757.336 134.208C757.656 134.069 757.934 133.867 758.168 133.6L759.4 134.832C759.027 135.269 758.568 135.6 758.024 135.824C757.491 136.048 756.91 136.16 756.28 136.16ZM769.806 136.16C768.984 136.16 768.222 136.016 767.518 135.728C766.814 135.429 766.195 135.019 765.662 134.496C765.139 133.963 764.734 133.344 764.446 132.64C764.168 131.936 764.03 131.179 764.03 130.368C764.03 129.557 764.168 128.8 764.446 128.096C764.734 127.392 765.139 126.779 765.662 126.256C766.195 125.733 766.808 125.323 767.502 125.024C768.206 124.725 768.974 124.576 769.806 124.576C770.702 124.576 771.491 124.725 772.174 125.024C772.856 125.312 773.459 125.712 773.982 126.224L772.51 127.696C772.2 127.355 771.822 127.088 771.374 126.896C770.926 126.704 770.403 126.608 769.806 126.608C769.283 126.608 768.803 126.699 768.366 126.88C767.939 127.051 767.566 127.307 767.246 127.648C766.926 127.979 766.68 128.379 766.51 128.848C766.339 129.307 766.254 129.813 766.254 130.368C766.254 130.933 766.339 131.445 766.51 131.904C766.68 132.363 766.926 132.763 767.246 133.104C767.566 133.435 767.939 133.691 768.366 133.872C768.803 134.053 769.283 134.144 769.806 134.144C770.435 134.144 770.974 134.048 771.422 133.856C771.88 133.664 772.264 133.392 772.574 133.04L774.046 134.512C773.523 135.035 772.915 135.44 772.222 135.728C771.528 136.016 770.723 136.16 769.806 136.16ZM778.763 136.16C777.984 136.16 777.28 135.984 776.651 135.632C776.032 135.269 775.536 134.784 775.163 134.176C774.8 133.557 774.619 132.869 774.619 132.112C774.619 131.355 774.8 130.677 775.163 130.08C775.526 129.472 776.022 128.992 776.651 128.64C777.28 128.277 777.979 128.096 778.747 128.096C779.536 128.096 780.24 128.277 780.859 128.64C781.488 128.992 781.984 129.472 782.347 130.08C782.71 130.677 782.891 131.355 782.891 132.112C782.891 132.869 782.71 133.557 782.347 134.176C781.984 134.784 781.488 135.269 780.859 135.632C780.24 135.984 779.542 136.16 778.763 136.16ZM778.747 134.208C779.142 134.208 779.488 134.123 779.787 133.952C780.096 133.771 780.331 133.525 780.491 133.216C780.662 132.896 780.747 132.533 780.747 132.128C780.747 131.723 780.662 131.365 780.491 131.056C780.32 130.747 780.086 130.507 779.787 130.336C779.488 130.155 779.142 130.064 778.747 130.064C778.363 130.064 778.022 130.155 777.723 130.336C777.424 130.507 777.19 130.747 777.019 131.056C776.848 131.365 776.763 131.723 776.763 132.128C776.763 132.533 776.848 132.896 777.019 133.216C777.19 133.525 777.424 133.771 777.723 133.952C778.022 134.123 778.363 134.208 778.747 134.208ZM789.441 136V131.568C789.441 131.109 789.297 130.736 789.009 130.448C788.721 130.16 788.347 130.016 787.889 130.016C787.59 130.016 787.323 130.08 787.089 130.208C786.854 130.336 786.667 130.517 786.529 130.752C786.401 130.987 786.337 131.259 786.337 131.568L785.521 131.152C785.521 130.544 785.649 130.016 785.905 129.568C786.171 129.109 786.534 128.752 786.993 128.496C787.462 128.24 787.99 128.112 788.577 128.112C789.142 128.112 789.649 128.256 790.097 128.544C790.545 128.821 790.897 129.189 791.153 129.648C791.409 130.096 791.536 130.581 791.536 131.104V136H789.441ZM784.241 136V128.272H786.337V136L784.241 136ZM794.267 136V125.056H796.363V136H794.267ZM792.459 130.112V128.272H798.171V130.112H792.459ZM799.35 136V128.272H801.446V136H799.35ZM801.446 131.728L800.63 131.184C800.726 130.235 801.003 129.488 801.462 128.944C801.921 128.389 802.582 128.112 803.446 128.112C803.819 128.112 804.155 128.176 804.454 128.304C804.753 128.421 805.025 128.619 805.27 128.896L803.958 130.4C803.841 130.272 803.697 130.176 803.526 130.112C803.366 130.048 803.179 130.016 802.966 130.016C802.518 130.016 802.15 130.16 801.862 130.448C801.585 130.725 801.446 131.152 801.446 131.728ZM809.019 136.16C808.315 136.16 807.681 135.984 807.115 135.632C806.55 135.28 806.107 134.8 805.787 134.192C805.467 133.584 805.307 132.901 805.307 132.144C805.307 131.376 805.467 130.688 805.787 130.08C806.107 129.472 806.55 128.992 807.115 128.64C807.681 128.288 808.315 128.112 809.019 128.112C809.574 128.112 810.07 128.224 810.507 128.448C810.945 128.672 811.291 128.987 811.547 129.392C811.814 129.787 811.958 130.235 811.979 130.736V133.52C811.958 134.032 811.814 134.485 811.547 134.88C811.291 135.275 810.945 135.589 810.507 135.824C810.07 136.048 809.574 136.16 809.019 136.16ZM809.403 134.224C809.99 134.224 810.465 134.032 810.827 133.648C811.19 133.253 811.371 132.747 811.371 132.128C811.371 131.723 811.286 131.365 811.115 131.056C810.955 130.736 810.726 130.491 810.427 130.32C810.139 130.139 809.798 130.048 809.403 130.048C809.019 130.048 808.678 130.139 808.379 130.32C808.091 130.491 807.862 130.736 807.691 131.056C807.531 131.365 807.451 131.723 807.451 132.128C807.451 132.544 807.531 132.912 807.691 133.232C807.862 133.541 808.091 133.787 808.379 133.968C808.678 134.139 809.019 134.224 809.403 134.224ZM811.259 136V133.92L811.595 132.032L811.259 130.176V128.272H813.339V136H811.259ZM818.842 136.16C818.052 136.16 817.343 135.984 816.714 135.632C816.084 135.28 815.588 134.8 815.226 134.192C814.863 133.584 814.682 132.901 814.682 132.144C814.682 131.376 814.863 130.688 815.226 130.08C815.588 129.472 816.084 128.992 816.714 128.64C817.354 128.277 818.063 128.096 818.842 128.096C819.45 128.096 820.01 128.208 820.522 128.432C821.034 128.656 821.476 128.976 821.85 129.392L820.506 130.752C820.303 130.528 820.058 130.357 819.77 130.24C819.492 130.123 819.183 130.064 818.842 130.064C818.458 130.064 818.111 130.155 817.802 130.336C817.503 130.507 817.263 130.747 817.082 131.056C816.911 131.355 816.826 131.712 816.826 132.128C816.826 132.533 816.911 132.896 817.082 133.216C817.263 133.525 817.503 133.771 817.802 133.952C818.111 134.123 818.458 134.208 818.842 134.208C819.194 134.208 819.508 134.149 819.786 134.032C820.074 133.904 820.319 133.723 820.522 133.488L821.882 134.848C821.487 135.275 821.034 135.6 820.522 135.824C820.01 136.048 819.45 136.16 818.842 136.16ZM824.08 136V125.056H826.176V136H824.08ZM822.272 130.112V128.272H827.984V130.112H822.272Z" fill="white" fill-opacity="0.8"/>
<path d="M98 51H762" stroke="white" stroke-opacity="0.2" stroke-width="2" stroke-dasharray="4 4"/>
<circle cx="49.5" cy="48.5" r="48.5" fill="white" fill-opacity="0.08"/>
<circle cx="277.5" cy="48.5" r="48.5" fill="#2D2727"/>
<circle cx="505.5" cy="48.5" r="48.5" fill="#2D2727"/>
<circle cx="733.5" cy="48.5" r="48.5" fill="#2D2727"/>
<path fill-rule="evenodd" clip-rule="evenodd" d="M710.552 25.0839C710.451 25.1253 710.285 25.251 710.184 25.3634C710.001 25.5665 710 25.697 710 48.529V71.4905L710.255 71.7452L710.51 72H728.533H746.557L746.811 71.7452L747.067 71.4905V63.7297V55.9689L746.814 55.7162C746.437 55.3403 745.899 55.3594 745.54 55.7616L745.273 56.0596V63.1338V70.2081H728.533H711.794V48.5215V26.8349H723.061H734.328L734.329 31.6822C734.329 34.3483 734.355 36.6844 734.387 36.8735C734.418 37.0627 734.547 37.3212 734.674 37.4478L734.905 37.6782H740.089H745.273V43.014C745.273 46.7628 745.304 48.4095 745.376 48.5505C745.542 48.8745 745.848 49.0688 746.193 49.0688C746.538 49.0688 746.844 48.8745 747.01 48.5505C747.082 48.4089 747.113 46.6285 747.113 42.504C747.113 37.6013 747.091 36.6182 746.981 36.4101C746.821 36.1101 735.93 25.2426 735.645 25.0985C735.404 24.9772 710.848 24.9629 710.552 25.0839ZM752.703 25.1571C752.507 25.2781 752.114 26.0285 750.909 28.5776L749.366 31.843V51.1935V70.5441L749.644 70.994C749.817 71.2728 750.094 71.5495 750.373 71.7219L750.823 72H753.183H755.543L755.993 71.7219C756.272 71.5495 756.549 71.2728 756.722 70.994L757 70.5441V51.1935V31.843L755.455 28.5749C754.196 25.9119 753.861 25.2781 753.647 25.1519C753.317 24.957 753.023 24.9586 752.703 25.1571ZM740.122 32.0268L743.939 35.8403H740.099H736.259V32.0268C736.259 29.9293 736.27 28.2132 736.283 28.2132C736.296 28.2132 738.023 29.9293 740.122 32.0268ZM753.945 29.7065L754.642 31.1998L753.913 31.2264C753.511 31.2411 752.855 31.2411 752.453 31.2264L751.724 31.1998L752.421 29.7065C752.805 28.8853 753.147 28.2132 753.183 28.2132C753.218 28.2132 753.561 28.8853 753.945 29.7065ZM755.206 48.8431V64.6027H753.183H751.159V48.8431V33.0835H753.183H755.206V48.8431ZM717.174 34.8245C716.589 35.0639 716.433 35.8307 716.879 36.2768L717.132 36.5295L720.004 36.5565C721.584 36.5713 722.973 36.5594 723.091 36.5298C723.21 36.5003 723.406 36.3684 723.528 36.2367C723.924 35.8103 723.775 35.1201 723.228 34.8403C722.991 34.7191 717.467 34.7048 717.174 34.8245ZM726.05 34.8546C725.704 35.0265 725.468 35.5659 725.594 35.8976C725.819 36.4891 726.342 36.7144 726.864 36.4448C727.203 36.2696 727.338 36.0457 727.338 35.6565C727.338 35.2721 727.204 35.0438 726.88 34.8764C726.555 34.7088 726.354 34.7034 726.05 34.8546ZM717.174 40.338C716.589 40.5775 716.433 41.3443 716.879 41.7904L717.132 42.0431L728.487 42.0671L739.841 42.0911L740.141 41.8238C740.389 41.6023 740.44 41.4901 740.44 41.1701C740.44 40.8503 740.389 40.7378 740.142 40.5175L739.843 40.2512L728.601 40.2569C722.417 40.2602 717.275 40.2966 717.174 40.338ZM717.174 45.8515C716.589 46.091 716.433 46.8579 716.879 47.3039L717.132 47.5566L728.487 47.5807L739.841 47.6047L740.141 47.3374C740.389 47.1159 740.44 47.0037 740.44 46.6836C740.44 46.3638 740.389 46.2514 740.142 46.031L739.843 45.7647L728.601 45.7705C722.417 45.7737 717.275 45.8102 717.174 45.8515ZM717.174 51.3651C716.589 51.6046 716.433 52.3714 716.879 52.8175L717.132 53.0702L728.487 53.0942L739.841 53.1182L740.141 52.8509C740.389 52.6294 740.44 52.5172 740.44 52.1972C740.44 51.8774 740.389 51.7649 740.142 51.5446L739.843 51.2783L728.601 51.284C722.417 51.2873 717.275 51.3237 717.174 51.3651ZM745.861 51.3648C745.569 51.4878 745.273 51.9126 745.273 52.2081C745.273 52.3672 745.378 52.587 745.54 52.7679C746.093 53.3867 747.062 53.0234 747.062 52.1972C747.062 51.5868 746.408 51.1339 745.861 51.3648ZM717.174 56.8786C716.589 57.1181 716.433 57.885 716.879 58.331L717.132 58.5837L728.487 58.6078L739.841 58.6318L740.141 58.3644C740.389 58.143 740.44 58.0308 740.44 57.7107C740.44 57.3909 740.389 57.2785 740.142 57.0581L739.843 56.7918L728.601 56.7976C722.417 56.8008 717.275 56.8373 717.174 56.8786ZM717.174 62.3922C716.589 62.6317 716.433 63.3985 716.879 63.8445L717.132 64.0972L728.487 64.1213L739.841 64.1453L740.141 63.878C740.389 63.6565 740.44 63.5443 740.44 63.2243C740.44 62.9045 740.389 62.792 740.142 62.5717L739.843 62.3053L728.601 62.3111C722.417 62.3144 717.275 62.3508 717.174 62.3922ZM755.206 68.214C755.206 69.4709 755.174 70.0197 755.096 70.0978C754.94 70.2536 751.426 70.2536 751.27 70.0978C751.192 70.0197 751.159 69.4709 751.159 68.214V66.4405H753.183H755.206V68.214Z" fill="#E49B00"/>
<path fill-rule="evenodd" clip-rule="evenodd" d="M48.3592 30.0663C44.1597 30.5552 40.6263 33.8328 39.6736 38.1228C39.4445 39.1543 39.3929 39.991 39.3929 42.6685C39.3929 45.5061 39.4155 45.6966 39.8183 46.2503C39.9391 46.4165 40.1926 46.6473 40.3816 46.7633L40.7253 46.9743L40.7539 47.6425C40.7878 48.4373 40.9298 48.8239 41.3479 49.2601C41.7443 49.6737 42.1413 49.841 42.8175 49.8793L43.3769 49.9111L43.5512 50.2713C43.7843 50.7527 44.0636 51.1808 44.4611 51.6657L44.79 52.0669L44.2192 53.2564L43.6484 54.4457L41.706 55.1275C39.1542 56.0231 38.3968 56.4494 37.1561 57.6887C35.478 59.3651 34.4575 61.4482 34.1015 63.9243C34.0459 64.3111 34.0002 64.8249 34 65.0661C33.9997 65.4515 34.0234 65.5324 34.1963 65.7342L34.393 65.9639L49.4645 65.982L64.5359 66L64.7515 65.799C64.9386 65.6246 64.971 65.5426 64.9962 65.1789C65.0122 64.9484 64.9761 64.4097 64.9159 63.9818C64.5619 61.4637 63.5489 59.3814 61.8544 57.6887C60.6137 56.4494 59.8564 56.0231 57.3045 55.1275L55.3621 54.4457L54.7913 53.2564L54.2205 52.0669L54.5494 51.6657C55.3982 50.6302 55.9638 49.3894 56.2069 48.0293C56.2691 47.6812 56.3337 47.3283 56.3504 47.2452C56.3793 47.1018 56.4254 47.0926 57.2408 47.0672C57.9357 47.0456 58.1609 47.0118 58.4142 46.8914C58.8136 46.7015 59.2532 46.2437 59.4391 45.8243C59.5776 45.5116 59.5849 45.3839 59.6055 42.8951C59.6187 41.3172 59.5976 39.9883 59.552 39.5191C59.3122 37.0494 58.3621 34.9322 56.6994 33.1626C54.5131 30.8358 51.466 29.7045 48.3592 30.0663ZM51.155 31.5722C52.9749 31.9685 54.4 32.7643 55.6787 34.0985C57.0877 35.5683 57.9281 37.3408 58.1909 39.3961L58.247 39.8356H57.5973H56.9476L56.8619 39.1197C56.4799 35.9261 54.2388 33.4583 51.2221 32.9095C50.4376 32.7668 48.5729 32.7668 47.7884 32.9095C44.7717 33.4583 42.5306 35.9261 42.1486 39.1197L42.0629 39.8356H41.4083C40.8211 39.8356 40.7562 39.823 40.7768 39.7126C40.7895 39.6448 40.8351 39.3363 40.8783 39.0268C41.0414 37.8576 41.5157 36.6092 42.2305 35.4676C42.7241 34.6793 43.848 33.4883 44.5686 32.9898C45.6075 32.2712 46.9575 31.7059 48.0221 31.5437C48.3002 31.5012 48.6036 31.4528 48.6963 31.4358C49.0478 31.3718 50.6398 31.46 51.155 31.5722ZM51.0667 34.31C52.0629 34.5132 52.772 34.8559 53.5573 35.5137C54.7692 36.5288 55.4678 38.0112 55.5537 39.7503L55.593 40.544L55.2963 40.4995C54.4948 40.3792 53.3059 40.0977 52.7681 39.9008C51.4538 39.4198 50.024 38.5524 49.1008 37.6761C48.483 37.0898 48.3719 37.0224 48.0239 37.0224C47.3425 37.0226 46.1406 37.3307 45.4988 37.6696C44.9379 37.9658 44.3355 38.4171 43.9151 38.8561L43.4823 39.3082L43.5265 38.9721C43.6414 38.097 44.1357 37.0003 44.778 36.1955C45.5282 35.2555 46.7552 34.5271 47.9884 34.2897C48.5417 34.1832 50.5087 34.1962 51.0667 34.31ZM48.2057 38.7283C50.0024 40.3929 52.1987 41.4291 54.7879 41.8337C55.1535 41.8908 55.4684 41.954 55.4877 41.9742C55.539 42.0276 55.3864 44.0522 55.2334 45.3489C54.8688 48.4405 54.5637 49.4223 53.5708 50.6995C52.927 51.5277 51.842 52.2645 50.8536 52.5447C50.2441 52.7175 48.7666 52.7175 48.1569 52.5447C47.0945 52.2437 45.9749 51.4448 45.2796 50.4915C45.0824 50.2211 44.921 49.9759 44.921 49.9465C44.921 49.9171 45.2167 49.8941 45.5783 49.8954L46.2356 49.8978L46.4378 50.2623C46.6877 50.7127 47.106 51.0523 47.5925 51.1999C48.1648 51.3734 49.895 51.318 50.3243 51.1124C50.7252 50.9204 51.1644 50.4619 51.3477 50.0442C51.5471 49.59 51.5471 48.7895 51.3477 48.3353C51.1644 47.9176 50.7252 47.4592 50.3243 47.2672C49.895 47.0615 48.1648 47.0061 47.5925 47.1797C47.106 47.3272 46.6877 47.6668 46.4378 48.1173L46.2356 48.4817L45.2412 48.4841C44.6943 48.4854 44.2468 48.4628 44.2467 48.4337C44.2467 48.4047 44.2024 48.1593 44.1482 47.8884C43.9089 46.6915 43.6108 44.0828 43.5332 42.505L43.49 41.6291L44.0272 40.8886C44.3227 40.4813 44.7667 39.9547 45.0138 39.7184C45.7493 39.0154 46.7837 38.5398 47.8008 38.4373C47.8459 38.4327 48.0281 38.5637 48.2057 38.7283ZM42.1142 41.5764C42.1349 41.7601 42.1703 42.2902 42.1931 42.7544C42.216 43.2186 42.2775 44.0098 42.33 44.5127C42.3824 45.0156 42.4256 45.4855 42.4259 45.5569C42.4265 45.6758 42.3726 45.6847 41.7876 45.6624C41.1942 45.6398 41.1352 45.6241 40.9617 45.4431L40.7749 45.2482L40.7551 43.2453L40.7353 41.2423H41.406H42.0768L42.1142 41.5764ZM58.2554 43.2453L58.2356 45.2482L58.0488 45.4431C57.8753 45.6241 57.8163 45.6398 57.223 45.6624C56.6379 45.6847 56.584 45.6758 56.5846 45.5569C56.5849 45.4855 56.6283 45.0156 56.6809 44.5127C56.7336 44.0098 56.7951 43.2028 56.8175 42.7192C56.8399 42.2357 56.8742 41.7056 56.8938 41.5412L56.9293 41.2423H57.6022H58.2753L58.2554 43.2453ZM42.6597 47.2381C42.6781 47.3251 42.7259 47.5961 42.7659 47.8402C42.8058 48.0844 42.8571 48.3348 42.8798 48.3965C42.9444 48.5721 42.4983 48.4523 42.294 48.2393C42.1561 48.0956 42.1231 47.9818 42.101 47.5729L42.0743 47.0798H42.3503C42.5816 47.0798 42.6317 47.1054 42.6597 47.2381ZM49.9574 48.715C50.2354 49.0054 50.2191 49.4142 49.9183 49.6946L49.694 49.9037L48.7919 49.8809C47.9286 49.8589 47.8826 49.8503 47.718 49.6783C47.4712 49.4205 47.4313 49.066 47.6208 48.8146C47.8435 48.5194 47.9736 48.4883 48.914 48.5057C49.7513 48.5212 49.7767 48.5263 49.9574 48.715ZM53.7236 54.1231L54.1676 55.0474L53.9869 55.5783C53.7487 56.2782 53.2671 57.4505 52.9316 58.1466L52.662 58.7059L51.5226 57.5188L50.3832 56.3316L50.6728 56.0136C50.832 55.8386 51.4725 55.1337 52.096 54.4471C52.7196 53.7605 53.241 53.1987 53.2547 53.1987C53.2684 53.1987 53.4794 53.6146 53.7236 54.1231ZM47.4349 57.5363C46.8575 58.1678 46.372 58.6846 46.356 58.6846C46.2988 58.6846 45.4728 56.8039 45.1554 55.9513L44.8319 55.0818L45.2287 54.2446L45.6255 53.4074L47.0552 54.8976L48.4848 56.388L47.4349 57.5363ZM49.5827 54.0778H50.5702L50.0229 54.6757C49.7219 55.0045 49.459 55.2816 49.4389 55.2914C49.4186 55.3013 49.1144 55.0078 48.7627 54.6392C48.1516 53.9989 48.1337 53.9715 48.3592 54.0235C48.489 54.0534 49.0395 54.0778 49.5827 54.0778ZM44.0478 56.8559C44.7579 58.7148 45.7215 60.5658 46.9769 62.4825C47.319 63.0047 47.7549 63.693 47.9457 64.0122L48.2927 64.5924H41.8318H35.371L35.4308 64.1177C35.7852 61.3092 37.4712 58.6977 39.7637 57.4068C40.278 57.1172 43.4438 55.9334 43.6254 55.9628C43.673 55.9705 43.8631 56.3724 44.0478 56.8559ZM57.0155 56.5034C57.896 56.8124 58.8644 57.1997 59.1676 57.3642C61.4878 58.6226 63.2212 61.2757 63.5797 64.1177L63.6395 64.5924H57.1787H50.7178L51.0648 64.0122C51.2556 63.693 51.6916 63.0047 52.0336 62.4825C53.2626 60.6061 54.1501 58.9199 54.8472 57.1373C55.0513 56.6151 55.2365 56.1324 55.2586 56.0647C55.2807 55.9971 55.3249 55.9416 55.3567 55.9416C55.3886 55.9416 56.135 56.1945 57.0155 56.5034ZM50.7012 58.7015C51.3783 59.407 51.9322 60.0129 51.9322 60.0479C51.9322 60.0828 51.6061 60.6163 51.2075 61.2334C50.8089 61.8505 50.2774 62.6925 50.0262 63.1047C49.7752 63.5168 49.5407 63.854 49.5053 63.854C49.4698 63.854 49.2353 63.5168 48.9843 63.1047C48.7331 62.6925 48.1985 61.8456 47.7961 61.2225C47.3937 60.5995 47.079 60.0505 47.097 60.0025C47.1367 59.8958 49.3733 57.4186 49.4298 57.4186C49.4521 57.4186 50.0242 57.9959 50.7012 58.7015ZM56.6775 57.9095C56.4653 57.999 56.2468 58.325 56.2468 58.5523C56.2468 58.8338 56.5567 59.1717 56.8612 59.2221C57.0665 59.2562 57.1404 59.2293 57.3316 59.0511C57.5209 58.8745 57.5584 58.7908 57.5584 58.5439C57.5584 58.2992 57.5207 58.2131 57.3397 58.0444C57.1183 57.8379 56.9356 57.8007 56.6775 57.9095ZM59.0446 59.2434C58.7994 59.3481 58.6431 59.596 58.6431 59.8803C58.6431 60.1264 58.7004 60.212 59.286 60.8417C59.6509 61.2342 60.0552 61.7549 60.2211 62.0463C60.5492 62.6227 60.7865 62.8014 61.1334 62.7335C61.3905 62.6832 61.5539 62.5148 61.6362 62.2155C61.7476 61.8101 61.1601 60.7954 60.2876 59.8864C59.6454 59.2175 59.4012 59.0911 59.0446 59.2434Z" fill="#E49B00"/>
<path fill-rule="evenodd" clip-rule="evenodd" d="M277.699 27.062C277.604 27.1008 277.449 27.2185 277.354 27.3236C277.194 27.5018 277.182 27.6358 277.182 29.3051C277.182 31.0714 277.185 31.0984 277.387 31.3131C277.787 31.7396 278.484 31.6749 278.736 31.1877C278.899 30.8729 278.917 27.8 278.758 27.4514C278.586 27.0741 278.103 26.8966 277.699 27.062ZM270.935 30.2304C270.567 30.4137 270.389 30.7602 270.47 31.1341C270.537 31.4413 272.003 33.0065 272.435 33.2321C272.985 33.519 273.648 33.1076 273.648 32.4794C273.648 32.159 273.589 32.0803 272.659 31.1607C272.108 30.6151 271.574 30.1606 271.451 30.1327C271.321 30.103 271.11 30.1431 270.935 30.2304ZM284.501 30.1376C284.233 30.2006 282.414 32.0449 282.364 32.3047C282.257 32.8654 282.813 33.4171 283.366 33.2977C283.755 33.2138 285.375 31.6158 285.503 31.1911C285.626 30.7788 285.426 30.371 285.015 30.1995C284.854 30.1323 284.711 30.0818 284.697 30.0873C284.684 30.0928 284.596 30.1154 284.501 30.1376ZM277.699 32.8251C277.175 33.0392 277.009 33.7501 277.388 34.1538C278.07 34.8781 279.172 34.1221 278.758 33.2145C278.586 32.8372 278.103 32.6597 277.699 32.8251ZM276.816 36.1904C273.96 36.4663 271.315 37.6762 269.243 39.6547C267.814 41.0186 266.728 42.6373 266.076 44.3746L265.924 44.7803L265.453 44.4433C264.787 43.9669 264.241 43.7984 263.362 43.7984C262.482 43.7984 261.937 43.9669 261.269 44.445C260.267 45.1618 259.828 46.0551 259.766 47.5026C259.723 48.5074 259.83 49.0976 260.181 49.7844L260.342 50.1001L259.936 50.2021C258.73 50.5056 257.239 51.7288 256.63 52.9145C256.079 53.9877 256.004 54.3643 256.002 56.0828L256 57.6169L256.235 57.8191C256.565 58.1026 256.915 58.1342 259.374 58.103C261.405 58.0771 261.557 58.0642 261.779 57.8981C262.224 57.5658 262.257 57.0071 261.856 56.6057C261.648 56.3983 261.646 56.3981 259.663 56.3981H257.679L257.681 55.8175C257.685 54.2208 258.329 52.9911 259.561 52.2294C260.314 51.7639 260.547 51.729 263.154 51.6899L265.572 51.6535L265.73 52.2372C265.968 53.1183 266.338 54.0292 266.82 54.9253L267.255 55.7319L262.14 60.8603C258.271 64.7392 256.977 66.0875 256.831 66.3937C255.926 68.2875 257.057 70.5365 259.117 70.9376C259.817 71.0738 260.449 70.9887 261.131 70.6666C261.61 70.4399 262.034 70.0547 264.551 67.5532C266.131 65.9832 267.478 64.5941 267.545 64.4664C267.725 64.1252 267.695 63.8416 267.45 63.5503C267.194 63.2465 266.849 63.149 266.498 63.2812C266.359 63.3337 264.941 64.6751 263.319 66.2886C260.778 68.8168 260.349 69.209 260.068 69.2604C258.919 69.471 257.993 68.4987 258.285 67.3879C258.37 67.0617 258.93 66.4717 263.335 62.0651L268.288 57.109L269.033 57.8524C269.988 58.806 271.165 59.6473 272.36 60.23C274.189 61.1216 275.555 61.4601 277.613 61.5314C279.254 61.5884 280.549 61.4063 282.035 60.9095C286.009 59.581 289.187 56.2343 290.27 52.2372L290.428 51.6535L292.846 51.6899C295.453 51.729 295.686 51.7639 296.439 52.2294C297.671 52.9911 298.315 54.2208 298.319 55.8175L298.321 56.3981H294.098H289.875L289.667 56.6057C289.265 57.0072 289.298 57.5659 289.744 57.8981C289.975 58.0709 290.093 58.0761 294.388 58.1016C296.812 58.1162 298.96 58.104 299.162 58.0746C299.364 58.0454 299.636 57.9304 299.765 57.8191L300 57.6169L299.998 56.0828C299.996 54.3643 299.921 53.9877 299.37 52.9145C298.761 51.7288 297.27 50.5056 296.064 50.2021L295.658 50.1001L295.819 49.7844C296.17 49.0976 296.277 48.5074 296.234 47.5026C296.172 46.0551 295.733 45.1618 294.731 44.445C294.063 43.9669 293.518 43.7984 292.638 43.7984C291.759 43.7984 291.213 43.9669 290.547 44.4433L290.076 44.7803L289.924 44.3746C289.272 42.6373 288.186 41.0186 286.757 39.6547C284.645 37.6384 282.068 36.4745 279.076 36.1859C278.107 36.0924 277.826 36.0929 276.816 36.1904ZM280.173 38.0862C286.047 39.2442 289.951 45.0317 288.815 50.8972C287.961 55.3056 284.612 58.6853 280.153 59.6392C279.131 59.8577 276.869 59.8577 275.847 59.6392C267.758 57.909 264.304 48.5743 269.349 42.0754C271.881 38.8121 276.054 37.2743 280.173 38.0862ZM276.967 39.6377C273.434 40.0035 270.328 42.5191 269.183 45.9425C267.675 50.4493 269.937 55.4752 274.322 57.3641C275.638 57.9308 276.365 58.0703 278 58.0703C279.173 58.0703 279.55 58.0377 280.163 57.8837C285.449 56.5535 288.522 51.0392 286.817 45.9425C285.847 43.0436 283.487 40.783 280.538 39.9281C279.939 39.7545 278.236 39.5167 277.834 39.5505C277.76 39.5567 277.369 39.596 276.967 39.6377ZM279.791 41.5217C282.396 42.1286 284.467 44.1271 285.29 46.8256C285.495 47.497 285.52 47.7208 285.52 48.8287C285.519 50.2095 285.384 50.89 284.903 51.951C284.633 52.5451 284.051 53.4765 283.954 53.4695C283.924 53.4673 283.763 53.2721 283.597 53.0357C283.118 52.353 282.031 51.4492 281.16 51.009L280.66 50.7566L280.824 50.5452C281.3 49.936 281.528 49.1571 281.529 48.1372C281.532 46.4368 280.829 45.226 279.464 44.5784C278.949 44.3341 278.832 44.3129 278 44.3129C277.168 44.3129 277.051 44.3341 276.536 44.5784C275.171 45.226 274.468 46.4368 274.471 48.1372C274.472 49.1571 274.7 49.936 275.176 50.5452L275.34 50.7566L274.84 51.009C273.969 51.4492 272.882 52.353 272.403 53.0357C272.237 53.2721 272.076 53.4673 272.046 53.4695C271.949 53.4765 271.367 52.5451 271.097 51.951C270.616 50.89 270.481 50.2095 270.48 48.8287C270.48 47.7208 270.505 47.497 270.71 46.8256C271.93 42.8222 275.764 40.5833 279.791 41.5217ZM264.196 45.692C264.949 46.0668 265.256 46.6625 265.256 47.7493C265.256 48.3657 265.223 48.5289 265.016 48.9251C264.668 49.5897 264.137 49.9039 263.362 49.9039C262.582 49.9039 262.057 49.5906 261.701 48.9134C261.471 48.4731 261.456 48.3866 261.482 47.6174C261.508 46.8769 261.537 46.7506 261.77 46.374C262.287 45.5402 263.312 45.2518 264.196 45.692ZM293.639 45.7815C294.272 46.1721 294.532 46.735 294.532 47.7105C294.532 48.3694 294.502 48.5234 294.292 48.9251C293.944 49.5897 293.413 49.9039 292.638 49.9039C291.863 49.9039 291.332 49.5897 290.984 48.9251C290.777 48.5289 290.744 48.3657 290.744 47.7493C290.744 47.3557 290.785 46.9246 290.835 46.7914C291.282 45.6006 292.586 45.1309 293.639 45.7815ZM278.636 46.0723C279.003 46.212 279.533 46.7568 279.683 47.1501C279.788 47.4237 279.818 47.7205 279.796 48.2482C279.769 48.8722 279.73 49.029 279.506 49.39C279.327 49.6798 279.122 49.8725 278.842 50.0167C277.989 50.455 276.988 50.1877 276.494 49.39C276.27 49.029 276.231 48.8722 276.204 48.2482C276.158 47.169 276.476 46.5349 277.268 46.125C277.557 45.9755 278.305 45.9467 278.636 46.0723ZM279.137 52.107C279.653 52.2154 280.728 52.6854 281.08 52.9572C281.568 53.3331 282.245 54.0463 282.456 54.4062L282.675 54.7798L282.426 54.9852C282.028 55.3122 280.51 56.0268 279.851 56.1966C279.405 56.3117 278.925 56.3521 278 56.3521C277.075 56.3521 276.595 56.3117 276.149 56.1966C275.49 56.0268 273.972 55.3122 273.574 54.9852L273.325 54.7798L273.544 54.4062C273.755 54.0472 274.432 53.3331 274.916 52.9599C275.25 52.7028 276.241 52.2543 276.747 52.1314C277.304 51.9963 278.548 51.9836 279.137 52.107ZM268.897 60.9323C268.6 60.9881 268.27 61.4384 268.27 61.7873C268.27 62.4508 269.158 62.8562 269.637 62.4109C270.304 61.7902 269.791 60.7645 268.897 60.9323Z" fill="#E49B00"/>
<path fill-rule="evenodd" clip-rule="evenodd" d="M503.804 25.0993C497.358 25.7122 491.355 28.9339 487.311 33.9503C480.26 42.6985 480.226 55.2085 487.232 63.962C488.654 65.7397 490.8 67.7145 492.664 68.9616C497.879 72.4497 504.227 73.7429 510.465 72.588C516.803 71.4142 522.37 67.7112 526.039 62.2269C526.844 61.0242 528.054 58.6325 528.57 57.2228C530.377 52.2933 530.475 46.6416 528.842 41.5737C528.092 39.2453 526.238 35.6434 525.619 35.3125C525.299 35.1413 524.8 35.2004 524.518 35.4428C524.302 35.6285 524.256 35.7422 524.261 36.0758C524.266 36.4054 524.37 36.6427 524.809 37.3266C526.771 40.382 527.963 44.288 528.115 48.159C528.523 58.5491 521.546 67.8953 511.483 70.4403C509.502 70.9412 508.301 71.0823 506.008 71.0832C503.734 71.0842 502.562 70.9448 500.516 70.43C492.75 68.4767 486.556 62.2876 484.577 54.5029C484.064 52.4857 483.921 51.2909 483.921 49.003C483.921 46.7152 484.064 45.5204 484.577 43.5031C486.852 34.5572 494.496 27.9809 503.804 26.9633C505.856 26.7389 508.709 26.9112 510.82 27.3869C513.216 27.9267 515.99 29.0879 517.969 30.3794C519.032 31.0729 519.417 31.1561 519.844 30.785C520.163 30.5072 520.256 29.9624 520.039 29.6318C519.737 29.171 517.558 27.875 515.662 27.0294C512.066 25.4245 507.758 24.7234 503.804 25.0993ZM503.898 29.5581C497.11 30.3917 491.4 34.4091 488.458 40.4216C487.084 43.2276 486.495 45.8129 486.496 49.0297C486.497 51.612 486.891 53.7757 487.772 56.0326C490.369 62.686 496.315 67.3895 503.361 68.3642C504.736 68.5543 507.277 68.5546 508.655 68.3648C511.568 67.9639 514.282 66.9468 516.703 65.349C521.557 62.1458 524.719 57.059 525.427 51.3131C525.483 50.8557 525.529 49.8162 525.529 49.003C525.529 45.8778 524.933 43.249 523.603 40.5154C520.676 34.4978 514.976 30.4152 508.356 29.5941C507.622 29.5031 504.548 29.4783 503.898 29.5581ZM508.776 31.5565C510.687 31.871 512.202 32.3592 513.889 33.2031C518.417 35.4694 521.721 39.4974 523.08 44.4075C523.849 47.1862 523.849 50.8199 523.08 53.5986C521.191 60.4252 515.502 65.4649 508.529 66.4885C507.23 66.6793 504.787 66.6793 503.488 66.4885C495.736 65.3506 489.656 59.2722 488.518 51.5233C488.327 50.2239 488.327 47.7822 488.518 46.4828C489.652 38.7618 495.689 32.7031 503.429 31.5186C504.755 31.3156 507.427 31.3345 508.776 31.5565ZM521.967 32.0649C521.413 32.3715 521.34 33.0244 521.806 33.4908C522.275 33.9589 522.943 33.882 523.23 33.3271C523.668 32.4808 522.793 31.6069 521.967 32.0649ZM505.55 33.3779C505.199 33.5721 505.077 33.8916 505.074 34.6259C505.07 35.4091 505.192 35.7401 505.553 35.9269C506.039 36.1779 506.626 36.0039 506.834 35.5473C506.896 35.4121 506.947 35.0099 506.947 34.6537C506.947 33.8961 506.821 33.5652 506.464 33.3806C506.145 33.2159 505.844 33.215 505.55 33.3779ZM498.258 35.3048C497.975 35.4246 497.659 35.8591 497.659 36.1304C497.659 36.4525 498.197 37.4291 498.526 37.7066C498.676 37.8329 498.904 37.9362 499.031 37.9362C499.551 37.9362 500.004 37.4928 500.004 36.9837C500.004 36.7334 499.485 35.7584 499.217 35.5074C498.974 35.279 498.538 35.1869 498.258 35.3048ZM513.078 35.3059C512.721 35.4561 512.012 36.5765 512.012 36.9902C512.012 37.4929 512.468 37.9362 512.986 37.9362C513.321 37.9362 513.72 37.5587 514.061 36.9197C514.425 36.2361 514.433 35.9589 514.1 35.5928C513.822 35.288 513.401 35.1698 513.078 35.3059ZM505.55 38.2547C505.086 38.5118 505.077 38.5841 505.073 42.3442L505.07 45.8612L504.653 46.0325C504.011 46.2966 503.429 46.8671 503.08 47.5758C502.805 48.1355 502.772 48.2869 502.772 49.003C502.772 49.7179 502.805 49.8711 503.078 50.4251C503.804 51.8993 505.488 52.626 506.993 52.1142L507.556 51.9228L509.198 53.5441C510.212 54.5456 510.929 55.182 511.074 55.2086C511.632 55.3113 512.155 54.9782 512.203 54.4895C512.257 53.9389 512.188 53.8426 510.565 52.2025L508.929 50.5505L509.12 49.9878C509.636 48.474 508.817 46.6297 507.364 46.0325L506.947 45.8612L506.947 42.3721C506.947 39.8673 506.915 38.8135 506.834 38.637C506.629 38.1863 506.007 38.0012 505.55 38.2547ZM492.573 40.9278C492.185 41.2749 492.147 41.8281 492.486 42.1896C492.76 42.481 493.727 43.0007 493.995 43.0007C494.31 43.0007 494.703 42.7582 494.826 42.4875C495.099 41.8906 494.832 41.4379 493.922 40.9531C493.231 40.585 492.963 40.58 492.573 40.9278ZM518.11 40.9399C517.487 41.2788 517.078 41.7036 517.078 42.013C517.078 42.5437 517.515 43.0007 518.022 43.0007C518.29 43.0007 519.257 42.481 519.531 42.1896C519.87 41.8281 519.832 41.2749 519.443 40.9278C519.056 40.582 518.764 40.5846 518.11 40.9399ZM506.668 47.785C507.084 47.9974 507.416 48.5377 507.416 49.003C507.416 49.7198 506.722 50.4098 506.001 50.4098C505.328 50.4098 504.601 49.6833 504.601 49.01C504.601 48.5527 504.931 47.9999 505.329 47.7896C505.782 47.5508 506.205 47.5493 506.668 47.785ZM490.727 48.1961C490.283 48.442 490.136 48.9824 490.382 49.4584C490.566 49.8155 490.897 49.9409 491.655 49.9409C492.413 49.9409 492.744 49.8155 492.929 49.4584C493.178 48.977 493.026 48.4295 492.58 48.1988C492.25 48.0286 491.033 48.0268 490.727 48.1961ZM519.434 48.1961C518.99 48.442 518.842 48.9824 519.088 49.4584C519.273 49.8155 519.604 49.9409 520.362 49.9409C521.12 49.9409 521.45 49.8155 521.635 49.4584C521.884 48.977 521.732 48.4295 521.286 48.1988C520.957 48.0286 519.739 48.0268 519.434 48.1961ZM493.25 55.2921C492.486 55.7113 492.269 55.9615 492.269 56.4217C492.269 56.7372 492.324 56.8554 492.573 57.0782C492.963 57.4261 493.231 57.4211 493.922 57.053C494.555 56.7155 494.939 56.3137 494.939 55.9873C494.939 55.4556 494.497 55.003 493.982 55.007C493.863 55.008 493.534 55.1363 493.25 55.2921ZM517.558 55.1363C517.059 55.4123 516.942 56.0479 517.308 56.4832C517.59 56.8179 518.564 57.35 518.896 57.35C519.032 57.35 519.273 57.2301 519.443 57.0782C519.692 56.8566 519.748 56.7366 519.748 56.4271C519.748 55.958 519.521 55.6963 518.769 55.2954C518.178 54.9804 517.904 54.9444 517.558 55.1363ZM498.526 60.2995C498.191 60.5812 497.659 61.5555 497.659 61.8868C497.659 62.0228 497.779 62.2644 497.931 62.4343C498.278 62.8227 498.832 62.8609 499.193 62.5214C499.48 62.2519 500.004 61.283 500.004 61.0224C500.004 60.5132 499.551 60.0698 499.031 60.0698C498.904 60.0698 498.676 60.1732 498.526 60.2995ZM512.492 60.2007C512.224 60.3489 512.02 60.6891 512.016 60.9946C512.011 61.2753 512.52 62.2361 512.824 62.5214C513.185 62.8609 513.739 62.8227 514.086 62.4343C514.434 62.045 514.429 61.7769 514.061 61.0864C513.572 60.1697 513.065 59.8833 512.492 60.2007ZM505.55 62.0765C505.199 62.2707 505.077 62.5902 505.074 63.3245C505.07 64.1077 505.192 64.4388 505.553 64.6255C506.039 64.8766 506.626 64.7025 506.834 64.2459C506.896 64.1107 506.947 63.7085 506.947 63.3523C506.947 62.5947 506.821 62.2639 506.464 62.0792C506.145 61.9145 505.844 61.9136 505.55 62.0765Z" fill="#E49B00"/>
</svg>
