<svg width="71" height="71" viewBox="0 0 71 71" fill="none" xmlns="http://www.w3.org/2000/svg">
<path fill-rule="evenodd" clip-rule="evenodd" d="M29.4509 0.0403239C25.0332 0.505483 21.5054 1.47955 17.9096 3.22713C14.749 4.76317 10.8997 7.51732 10.8997 8.24249C10.8997 8.40014 11.0293 8.6939 11.1877 8.89516C11.6826 9.52394 12.1889 9.40324 13.6274 8.31305C22.91 1.27857 34.9563 0.0826867 45.2167 5.17722C48.4984 6.8066 50.9933 8.63098 53.5043 11.2375C57.8346 15.7324 60.542 21.1968 61.5745 27.5258C61.8361 29.1298 61.9384 34.6531 61.7197 35.3734C61.6559 35.5838 61.1986 36.0159 60.5592 36.4699L59.5042 37.2191L58.8777 36.9149L58.2511 36.6106L58.3489 35.8877C59.1673 29.8496 58.0578 23.8967 55.1709 18.8359C54.2255 17.1786 53.854 16.7615 53.3227 16.7615C52.8158 16.7615 52.3098 17.2676 52.3098 17.7747C52.3098 17.9783 52.5205 18.4743 52.7779 18.877C54.8138 22.0609 56.2186 26.4121 56.4672 30.3037C56.5654 31.839 56.4338 35.4647 56.2741 35.6241C56.2364 35.6619 55.8761 35.6048 55.4735 35.4976L54.7416 35.3024L54.5122 33.899C54.2487 32.288 54.0253 31.7753 53.3889 31.3217C52.9657 31.02 52.8043 30.9982 50.9897 30.9982C49.1752 30.9982 49.0137 31.02 48.5906 31.3217C47.9554 31.7745 47.7311 32.2872 47.4672 33.8895L47.2378 35.2833L46.2243 35.5918C45.6671 35.7615 44.5942 36.1961 43.8405 36.5575L42.4698 37.2145L41.2689 36.3424C40.2845 35.6275 39.9475 35.4587 39.3994 35.4061C38.4545 35.3154 37.9286 35.6118 36.6232 36.9709C34.9787 38.683 34.934 39.3678 36.3405 41.3027L37.1986 42.4832L36.5413 43.8532C36.1797 44.6066 35.7451 45.679 35.5755 46.236L35.267 47.2489L33.8591 47.4852C32.2388 47.757 31.7544 47.9684 31.3031 48.6011C31.0012 49.024 30.9794 49.1854 30.9794 50.9991C30.9794 52.8128 31.0012 52.9742 31.3031 53.3971C31.7552 54.0309 32.2397 54.2416 33.8687 54.513L35.2862 54.7493L35.4812 55.4808C35.5883 55.8832 35.6453 56.2434 35.6075 56.281C35.5698 56.3188 34.7319 56.4019 33.7456 56.4657C29.3703 56.7492 25.3043 55.9906 21.465 54.1741C19.6942 53.3364 17.1972 51.7284 16.0683 50.6991L15.3311 50.0268L22.4862 42.8833L29.6412 35.7398L30.2374 36.008C30.679 36.2068 31.1405 36.2754 32.0182 36.2729C33.0265 36.2701 33.3062 36.215 33.8976 35.9029C34.7293 35.4641 35.486 34.6985 35.9315 33.8456C36.2036 33.3244 36.2578 33.0128 36.2577 31.9705C36.2574 30.887 36.2082 30.6271 35.8889 30.0204C35.4274 29.1434 34.5093 28.2871 33.6529 27.935L32.9953 27.6647L32.9949 17.5396L32.9944 7.41454L34.2026 7.50732C39.5041 7.9147 44.9669 10.4273 49.1325 14.3744C50.4643 15.6364 50.8912 15.7864 51.4519 15.19C51.974 14.6344 51.8507 14.1993 50.8855 13.1917C47.9112 10.0863 43.3791 7.4326 39.0558 6.26477C35.7064 5.36 31.4996 5.10194 28.1156 5.59363C20.171 6.74784 13.1521 11.4717 8.94184 18.4977C7.32852 21.19 6.0366 24.8782 5.5608 28.1496C5.25689 30.239 5.25731 33.7049 5.56177 35.798C6.8045 44.3431 12.144 51.7761 19.8791 55.7288C24.7578 58.2217 30.2354 59.1213 35.8712 58.3553L36.5944 58.2571L36.8989 58.8834L37.2032 59.5096L36.4536 60.5641C35.9995 61.2032 35.5672 61.6603 35.3567 61.724C34.636 61.9427 29.1101 61.8404 27.5054 61.5789C21.1692 60.5462 15.8147 57.9016 11.2611 53.5562C8.64669 51.0613 6.80672 48.5543 5.1492 45.2289C1.0118 36.9279 0.974832 27.305 5.04831 18.9144C6.0637 16.823 7.73775 14.2285 9.07983 12.6664C9.53812 12.1329 9.95028 11.5482 9.99586 11.3669C10.1666 10.6868 9.30564 9.96785 8.62863 10.2251C8.44951 10.2931 7.89742 10.8386 7.40175 11.4371C4.78373 14.5982 2.96697 17.8172 1.68339 21.5693C0.417184 25.2703 -0.0037271 27.8879 2.48253e-05 32.0399C0.00322091 35.4319 0.200822 37.0597 0.977055 40.0872C3.80754 51.1259 12.7991 60.1058 23.8567 62.9373C26.9932 63.7404 28.3563 63.9011 32.1606 63.9162L35.5651 63.9298L36.6582 65.0608C37.9484 66.3958 38.4613 66.6823 39.3994 66.5922C39.9475 66.5395 40.2845 66.3708 41.2689 65.6559L42.4698 64.7838L43.8405 65.4407C44.5942 65.8021 45.6671 66.2367 46.2243 66.4065L47.2378 66.7149L47.4672 68.1088C47.7311 69.7111 47.9554 70.2237 48.5906 70.6765C49.0137 70.9782 49.1752 71 50.9897 71C52.8043 71 52.9657 70.9782 53.3889 70.6765C54.0241 70.2237 54.2483 69.7111 54.5122 68.1088L54.7416 66.7149L55.7551 66.4065C56.3123 66.2367 57.3852 65.8021 58.1389 65.4407L59.5096 64.7838L60.6907 65.6414C62.6265 67.0473 63.3116 67.0026 65.0246 65.3589C66.3843 64.0541 66.6808 63.5284 66.5901 62.5839C66.5374 62.0361 66.3686 61.6993 65.6534 60.7154L64.7808 59.515L65.4381 58.145C65.7997 57.3916 66.2345 56.3192 66.4043 55.7622L66.7129 54.7493L68.1074 54.52C69.7104 54.2562 70.2234 54.032 70.6764 53.3971C70.9782 52.9742 71 52.8128 71 50.9991C71 49.1854 70.9782 49.024 70.6764 48.6011C70.2234 47.9662 69.7104 47.742 68.1074 47.4783L66.7129 47.2489L66.4043 46.236C66.2345 45.679 65.7997 44.6066 65.4381 43.8532L64.7808 42.4832L65.6534 41.2828C66.3686 40.2989 66.5374 39.9621 66.5901 39.4143C66.6803 38.4766 66.3936 37.9639 65.0581 36.6743L63.9265 35.5818L63.9129 32.1788C63.8977 28.3763 63.737 27.0139 62.9335 23.8789C59.7952 11.6344 49.3703 2.25084 36.7463 0.307697C35.3447 0.0919929 30.6088 -0.0816259 29.4509 0.0403239ZM30.9094 17.5601L30.909 27.6647L30.2514 27.935C29.3937 28.2877 28.4758 29.1447 28.0173 30.0204C27.7062 30.615 27.6505 30.8986 27.6477 31.9045C27.6452 32.7818 27.7139 33.243 27.9127 33.6845L28.181 34.2803L21.0342 41.432L13.8873 48.5837L13.2147 47.8469C12.2201 46.7571 10.5945 44.2555 9.8027 42.596C8.53497 39.9388 7.68064 36.8614 7.47748 34.2199L7.38465 33.0122H9.44585C11.3709 33.0122 11.5283 32.9922 11.8287 32.7102C12.2833 32.2833 12.2627 31.593 11.7841 31.2167C11.4519 30.9554 11.2311 30.9288 9.40139 30.9288H7.38465L7.47748 29.7211C7.68064 27.0796 8.53497 24.0022 9.8027 21.345C10.5705 19.7359 12.1873 17.2371 13.2008 16.0931L13.8545 15.3552L15.344 16.8223C16.9672 18.4211 17.3149 18.577 17.943 17.9874C18.5793 17.3897 18.4125 17.009 16.7969 15.3702L15.329 13.8814L16.0673 13.2287C17.1002 12.3153 19.4735 10.7433 20.8915 10.0331C23.7849 8.58431 27.6565 7.51552 30.1804 7.46899L30.9099 7.45551L30.9094 17.5601ZM33.2347 30.0465C33.9648 30.5914 34.1755 31.0221 34.1755 31.9705C34.1755 33.4257 33.408 34.1928 31.9521 34.1928C30.998 34.1928 30.5728 33.9828 30.0153 33.2365C29.5649 32.6336 29.6098 31.2714 30.1012 30.6275C30.3059 30.3592 30.6811 30.0337 30.935 29.9044C31.5407 29.5958 32.7291 29.6691 33.2347 30.0465ZM52.5244 34.7712C52.8323 36.8965 52.9381 37.0497 54.3248 37.3821C55.6552 37.701 57.2085 38.3372 58.2584 38.9929C58.7405 39.2939 59.3058 39.5403 59.5146 39.5403C59.7691 39.5403 60.3601 39.1965 61.3058 38.4986C62.0822 37.9256 62.7695 37.4568 62.8332 37.4568C63.0704 37.4568 64.5747 39.1059 64.5017 39.286C64.4604 39.3876 63.9826 40.0597 63.4403 40.7796C62.7705 41.6684 62.4539 42.2121 62.4539 42.4732C62.4539 42.6846 62.7005 43.252 63.0016 43.7338C63.6576 44.7833 64.2941 46.3358 64.6131 47.6656C64.9456 49.0517 65.0989 49.1574 67.2253 49.4652L68.9851 49.72V50.9991V52.2782L67.2253 52.5331C65.0989 52.8409 64.9456 52.9466 64.6131 54.3326C64.2941 55.6624 63.6576 57.2149 63.0016 58.2644C62.7005 58.7463 62.4539 59.3113 62.4539 59.52C62.4539 59.7744 62.7979 60.3651 63.4961 61.3104C64.0694 62.0864 64.5383 62.7734 64.5383 62.837C64.5383 62.9823 62.9707 64.5414 62.8248 64.5414C62.7658 64.5414 62.0822 64.0726 61.3058 63.4997C60.3601 62.8017 59.7691 62.458 59.5146 62.458C59.3058 62.458 58.7405 62.7044 58.2584 63.0053C57.2085 63.6611 55.6552 64.2972 54.3248 64.6161C52.9381 64.9485 52.8323 65.1017 52.5244 67.2271L52.2694 68.986H50.9897H49.71L49.4566 67.2371C49.2041 65.4954 48.9349 64.8192 48.4938 64.8192C48.1238 64.8192 45.9195 64.1222 45.1317 63.7561C44.6851 63.5484 43.9901 63.1715 43.5874 62.9183C42.5286 62.2527 42.2882 62.2974 40.7654 63.4438C40.0452 63.9859 39.3728 64.4635 39.271 64.5047C39.091 64.5778 37.4411 63.0741 37.4411 62.837C37.4411 62.7734 37.9101 62.0864 38.4833 61.3104C39.1816 60.3651 39.5255 59.7744 39.5255 59.52C39.5255 59.3113 39.279 58.7463 38.9778 58.2644C38.3218 57.2149 37.6854 55.6624 37.3663 54.3326C37.0338 52.9466 36.8805 52.8409 34.7541 52.5331L32.9944 52.2782V50.9991V49.72L34.7541 49.4652C36.8805 49.1574 37.0338 49.0517 37.3663 47.6656C37.6854 46.3358 38.3218 44.7833 38.9778 43.7338C39.279 43.252 39.5255 42.6869 39.5255 42.4782C39.5255 42.2239 39.1816 41.6331 38.4833 40.6878C37.9101 39.9118 37.4411 39.2248 37.4411 39.1612C37.4411 39.0159 39.0087 37.4568 39.1546 37.4568C39.2137 37.4568 39.8972 37.9256 40.6736 38.4986C41.6193 39.1965 42.2103 39.5403 42.4648 39.5403C42.6736 39.5403 43.2389 39.2939 43.721 38.9929C44.771 38.3372 46.3243 37.701 47.6547 37.3821C49.0413 37.0497 49.1471 36.8965 49.455 34.7712L49.71 33.0122H50.9897H52.2694L52.5244 34.7712ZM48.372 40.6613C45.5626 41.3512 42.884 43.4607 41.5704 46.0176C40.7322 47.6491 40.3612 49.1775 40.3612 50.9991C40.3612 52.8207 40.7322 54.3491 41.5704 55.9806C42.0944 57.0008 42.4685 57.4956 43.4793 58.506C44.9823 60.0081 46.5352 60.8898 48.509 61.3614C50.7015 61.8853 54.3292 61.5349 55.2397 60.7112C55.5954 60.3894 55.5893 59.6245 55.228 59.2634C54.8759 58.9114 54.5183 58.9143 53.1857 59.2798C52.2893 59.5256 51.8609 59.5624 50.5787 59.5037C48.7172 59.4184 47.7057 59.0975 46.268 58.1364C44.6542 57.0574 43.4492 55.5124 42.8344 53.734C42.5629 52.9485 42.5131 52.5253 42.5131 50.9991C42.5131 49.4729 42.5629 49.0497 42.8344 48.2643C43.4497 46.4839 44.6541 44.9408 46.2724 43.8589C47.8602 42.7975 48.8194 42.5265 50.9897 42.5265C52.5166 42.5265 52.94 42.5762 53.7258 42.8476C55.5051 43.4621 57.0509 44.6666 58.1303 46.2796C59.0919 47.7166 59.4129 48.7276 59.4983 50.5883C59.5572 51.8729 59.5203 52.2972 59.2719 53.2027C58.9068 54.5327 58.6259 55.093 57.7333 56.2717C56.8116 57.489 56.7531 57.7534 57.2875 58.2876C57.5188 58.5187 57.8512 58.7078 58.0261 58.7078C58.5059 58.7078 59.68 57.3772 60.3704 56.0509C61.2693 54.324 61.4933 53.4767 61.5775 51.4852C61.6702 49.2946 61.3695 47.8872 60.41 46.0194C59.8869 45.0013 59.5074 44.498 58.5001 43.4866C57.4058 42.388 57.0538 42.1314 55.7838 41.5067C54.9163 41.0801 53.9126 40.7049 53.3083 40.5814C51.9045 40.2945 49.7214 40.3298 48.372 40.6613ZM51.9765 49.7523L49.9062 51.9089L48.8995 50.9331C48.1177 50.1753 47.8017 49.9574 47.4853 49.9574C46.7075 49.9574 46.1702 51.0316 46.6516 51.6241C46.7448 51.7387 47.425 52.4107 48.1633 53.1173C49.2248 54.1334 49.5897 54.402 49.9082 54.402C50.2463 54.402 50.7269 53.9824 52.9083 51.7828C55.3239 49.347 55.5059 49.1279 55.5059 48.6576C55.5059 48.0141 55.1093 47.5963 54.4985 47.5959C54.0971 47.5958 53.8163 47.8359 51.9765 49.7523Z" fill="#E49B00"/>
</svg>
