<svg width="55" height="54" viewBox="0 0 55 54" fill="none" xmlns="http://www.w3.org/2000/svg">
<path d="M4.04576 53.9999C3.59456 53.9999 3.1433 53.9999 2.69209 53.9999C2.26262 53.9821 1.85427 53.8089 1.54301 53.5124C1.23174 53.216 1.03879 52.8165 1.00008 52.3884C0.820417 47.7849 1.50361 43.1884 3.01441 38.8361C3.7109 36.8442 4.95674 35.0899 6.60798 33.7761C7.43616 33.1342 8.41063 32.7079 9.44411 32.5353C9.69682 32.4357 9.96862 32.3939 10.2396 32.4129C10.5105 32.432 10.7738 32.5114 11.01 32.6454C11.2463 32.7794 11.4496 32.9646 11.605 33.1873C11.7605 33.41 11.8642 33.6647 11.9084 33.9327C11.9527 34.2007 11.9364 34.4752 11.8608 34.7361C11.7852 34.997 11.6523 35.2377 11.4716 35.4405C11.291 35.6433 11.0672 35.8032 10.8168 35.9083C10.5663 36.0135 10.2956 36.0613 10.0243 36.0482C9.24901 36.2108 8.55744 36.6452 8.07441 37.273C6.85274 38.7459 6.00664 40.4933 5.60883 42.3652C5.01118 44.8587 4.67633 47.408 4.60974 49.9713C4.60974 50.2291 4.60977 50.4063 4.94818 50.3902C8.30108 50.3437 11.625 49.7616 14.7942 48.666C15.8108 48.2966 16.7545 47.7511 17.582 47.0545C18.3125 46.4619 18.8185 45.6375 19.0162 44.7179C19.1188 44.2542 19.4013 43.8502 19.8018 43.5948C20.2022 43.3395 20.6877 43.2537 21.1514 43.3562C21.6151 43.4588 22.0191 43.7414 22.2744 44.1418C22.5298 44.5422 22.6157 45.0277 22.5131 45.4914C22.145 47.3863 21.0523 49.0629 19.4674 50.1646C17.3698 51.6538 14.9717 52.6658 12.4415 53.1297C9.67548 53.6765 6.86509 53.9678 4.04576 53.9999Z" fill="#E49B00"/>
<path d="M11.7323 45.0241C11.394 45.0298 11.0615 44.9368 10.7753 44.7565C10.4891 44.5762 10.2617 44.3164 10.1208 44.0089C9.94236 43.7061 9.86781 43.3532 9.90854 43.0041C9.94927 42.655 10.103 42.3287 10.3464 42.0751C11.6033 40.7698 12.8764 39.4807 14.1978 38.2398C14.5373 37.9537 14.9719 37.8054 15.4155 37.8243C15.8592 37.8432 16.2795 38.0279 16.5935 38.3419C16.9075 38.6559 17.0922 39.0762 17.1111 39.5199C17.13 39.9635 16.9817 40.3981 16.6955 40.7376C15.4386 42.0751 14.1333 43.3482 12.828 44.6212C12.526 44.8878 12.135 45.0315 11.7323 45.0241Z" fill="#E49B00"/>
<path d="M54.8872 1.88526C54.8748 1.412 54.6802 0.961784 54.344 0.628524C54.0077 0.295263 53.5558 0.104686 53.0824 0.0965424H52.0672C46.7775 -0.207552 41.4733 0.336475 36.3554 1.708C33.2296 2.54768 30.3896 4.21828 28.137 6.54238C25.5264 9.28186 22.8031 11.8924 20.0797 14.5997C20.037 14.6615 19.9817 14.7137 19.9174 14.7526C19.853 14.7915 19.7812 14.8164 19.7066 14.8255C19.632 14.8347 19.5563 14.8279 19.4845 14.8056C19.4127 14.7833 19.3465 14.7461 19.2901 14.6964C17.5754 13.6908 15.5754 13.2829 13.6039 13.5367C11.6324 13.7904 9.80083 14.6914 8.39661 16.0983C6.3984 18.0965 4.41631 20.1109 2.40198 22.093C2.09229 22.3402 1.86921 22.6795 1.76493 23.0619C1.66066 23.4442 1.68061 23.8498 1.82188 24.2201C1.9702 24.5983 2.24177 24.9154 2.59269 25.1201C2.94362 25.3249 3.35336 25.4052 3.7556 25.3481C5.88273 25.3481 8.00986 25.3481 10.2014 25.3481C10.701 25.3481 10.9266 25.3481 10.8783 26.0088C10.8266 26.7127 10.9296 27.4193 11.1802 28.0791C11.4307 28.7389 11.8227 29.3358 12.3286 29.828C16.6258 34.1252 20.923 38.4224 25.2203 42.7196C25.7416 43.2458 26.3738 43.649 27.0707 43.8999C27.7677 44.1508 28.5118 44.2431 29.2489 44.17C29.6518 44.17 29.7001 44.2505 29.7001 44.605C29.7001 46.8289 29.7001 49.0527 29.7001 51.2765C29.6598 51.6664 29.7464 52.0588 29.947 52.3956C30.1476 52.7323 30.4514 52.9953 30.8134 53.1456C31.1755 53.2958 31.5763 53.3252 31.9563 53.2295C32.3364 53.1337 32.6754 52.9178 32.923 52.614L38.9499 46.5871C40.3455 45.1863 41.2396 43.3638 41.4931 41.4027C41.7466 39.4416 41.3454 37.4517 40.3519 35.742C40.2995 35.6816 40.2606 35.6107 40.2378 35.5341C40.2149 35.4575 40.2086 35.3769 40.2193 35.2976C40.23 35.2184 40.2574 35.1423 40.2997 35.0745C40.342 35.0066 40.3982 34.9485 40.4646 34.9041C43.1719 32.2129 45.8308 29.4734 48.5219 26.8468C50.6214 24.7788 52.1723 22.22 53.0341 19.4018C54.335 15.0037 54.9705 10.4357 54.9194 5.84945C55.0161 4.4636 54.9678 3.17443 54.8872 1.88526ZM12.7476 21.6579H8.00988C9.15401 20.4815 10.2015 19.2729 11.394 18.2416C12.1283 17.6231 13.0159 17.2144 13.9632 17.0584C14.9105 16.9024 15.8824 17.005 16.7762 17.3553C17.0663 17.452 17.1307 17.5486 16.8729 17.7904L13.1826 21.5451C13.1247 21.5977 13.0548 21.6355 12.979 21.6551C12.9032 21.6748 12.8238 21.6757 12.7476 21.6579ZM36.8389 43.477C35.7753 44.7178 34.4861 45.7492 33.3259 46.8772V42.2846C33.3241 42.185 33.3432 42.0863 33.3821 41.9946C33.421 41.903 33.4787 41.8206 33.5515 41.7528L37.1612 38.1431C37.4835 37.8047 37.564 37.9981 37.6607 38.2881C37.9848 39.1502 38.0794 40.0816 37.9353 40.9911C37.7913 41.9007 37.4134 42.7573 36.8389 43.477ZM50.5685 14.7125C50.1656 17.4434 49.1998 20.0609 47.7323 22.3991C47.3792 22.8828 46.9857 23.3356 46.556 23.7528L30.5542 39.7546C30.3792 39.9943 30.15 40.1893 29.8854 40.3238C29.6208 40.4582 29.3282 40.5283 29.0313 40.5283C28.7345 40.5283 28.4419 40.4582 28.1773 40.3238C27.9126 40.1893 27.6836 39.9943 27.5085 39.7546L15.2453 27.4914C15.0312 27.3136 14.8573 27.0923 14.735 26.8423C14.6128 26.5923 14.5451 26.3192 14.5363 26.041C14.5423 25.7663 14.6072 25.496 14.7268 25.2486C14.8463 25.0011 15.0177 24.7823 15.2292 24.6068L29.4745 10.3615C30.5495 9.12899 31.7543 8.01601 33.0681 7.04193C35.2883 5.75537 37.7234 4.88182 40.2551 4.4636C40.4646 4.4636 40.5613 4.54417 40.6741 4.65697L50.3429 14.3257C50.4718 14.4063 50.6008 14.503 50.5685 14.7125ZM51.197 9.95868L45.0734 3.83513C45.7766 3.71947 46.4879 3.6602 47.2006 3.65787C48.4736 3.56118 49.7305 3.65787 51.0036 3.65787C51.2453 3.65787 51.3903 3.65787 51.3903 3.96405C51.4366 5.96429 51.372 7.96557 51.197 9.95868Z" fill="white"/>
<path d="M35.3403 26.8468C33.9304 26.8436 32.5531 26.423 31.382 25.6381C30.2108 24.8532 29.2983 23.739 28.7595 22.4362C28.2208 21.1333 28.0798 19.7001 28.3545 18.3173C28.6291 16.9345 29.3071 15.6639 30.3029 14.6659C31.2987 13.6678 32.5677 12.987 33.95 12.7092C35.3322 12.4315 36.7657 12.5692 38.0697 13.105C39.3738 13.6409 40.49 14.5509 41.2776 15.7202C42.0651 16.8896 42.4888 18.266 42.4952 19.6758C42.5037 20.6186 42.3246 21.5536 41.9683 22.4264C41.612 23.2993 41.0856 24.0925 40.4197 24.7599C39.7538 25.4273 38.9617 25.9555 38.0897 26.3138C37.2176 26.6721 36.283 26.8533 35.3403 26.8468Z" fill="#E49B00"/>
</svg>
