<svg width="47" height="71" viewBox="0 0 47 71" fill="none" xmlns="http://www.w3.org/2000/svg">
<path fill-rule="evenodd" clip-rule="evenodd" d="M9.93426 0.20866C7.80299 0.485777 5.34988 1.7313 3.58285 3.43351C1.18457 5.74382 0.00201545 8.52723 0.00201545 11.8616C0.00201545 17.0226 3.12323 21.4052 7.99743 23.0875C8.70793 23.3327 9.55827 23.5366 9.88703 23.5403C10.7014 23.55 10.0978 23.8823 8.87173 24.0996C6.29606 24.5556 2.69334 27.3293 1.32925 29.9065C-0.443083 33.2548 -0.443083 37.8486 1.32925 41.1969C2.69334 43.7741 6.29606 46.5478 8.87173 47.0038C10.0978 47.2211 10.7014 47.5535 9.88703 47.5632C8.15755 47.5835 5.12779 49.1396 3.35938 50.9161C1.2106 53.0743 0.00201545 56.0717 0.00201545 59.2418C0.00201545 62.5762 1.18457 65.3596 3.58285 67.6699C10.1985 74.0431 21.0461 70.8143 23.1541 61.8442C23.4287 60.6764 23.4985 58.1479 23.5169 48.7257C23.5374 38.132 23.5697 37.1793 23.8664 38.4098C25.101 43.5261 29.9618 47.339 35.2505 47.339C38.474 47.339 41.3174 46.1554 43.5443 43.8867C45.9812 41.404 47 38.9469 47 35.5517C47 32.4327 46.0388 29.885 44.005 27.6129C42.2802 25.6858 40.3901 24.643 37.2088 23.8631L36.5176 23.6937L37.4391 23.5181C41.8374 22.6807 45.3099 19.4609 46.6291 14.9975C47.1051 13.3866 47.1069 10.3457 46.6325 8.72577C45.3138 4.22165 41.3764 0.785542 36.8606 0.197797C34.7865 -0.0723859 12.0245 -0.0629088 9.93426 0.20866ZM32.2813 24.1299C28.2478 25.218 24.8312 28.695 23.8664 32.6937C23.5519 33.9974 23.5386 33.852 23.5201 28.9069L23.501 23.7645L28.5118 23.7797C33.319 23.7943 33.4722 23.8086 32.2813 24.1299Z" fill="white"/>
</svg>
