<svg width="69" height="70" viewBox="0 0 69 70" fill="none" xmlns="http://www.w3.org/2000/svg">
<rect x="10" y="8" width="49" height="51" fill="#FF9A00"/>
<path fill-rule="evenodd" clip-rule="evenodd" d="M2.41696 0.444483C1.44032 0.938104 0.783557 1.635 0.317332 2.67241C0.0210756 3.33172 0.00730921 4.75534 0.00373986 35.0093L0 66.6564L0.438181 67.5483C0.924803 68.539 1.61182 69.2052 2.63452 69.6781C3.28448 69.9786 4.68792 69.9926 34.5129 69.9962L65.7113 70L66.5905 69.5555C67.5672 69.0619 68.2239 68.365 68.6901 67.3276C68.9864 66.6683 69 65.2495 69 35C69 4.75052 68.9864 3.33172 68.6901 2.67241C68.2239 1.635 67.5672 0.938104 66.5905 0.444483L65.7113 0H34.5037H3.29621L2.41696 0.444483ZM53.9115 16.7198C55.1145 17.0967 55.6663 17.5821 56.2679 18.7931C57.1474 20.5626 56.5249 22.745 54.8288 23.8393C54.0198 24.3614 53.8687 24.3966 52.4355 24.3959C51.0686 24.3953 50.832 24.3466 50.2118 23.9378C49.1971 23.269 48.6662 22.5407 48.4509 21.5228C47.9456 19.1321 49.0273 17.2662 51.2834 16.6367C52.4081 16.3229 52.6712 16.3312 53.9115 16.7198ZM33.9974 19.6983C34.2984 20.6702 34.7186 22.0086 34.931 22.6724C35.1433 23.3362 35.5615 24.694 35.8601 25.6897C36.4798 27.7559 37.0247 29.5433 37.7525 31.8966C38.73 35.0576 39.0608 36.1355 39.578 37.8448C39.8649 38.7931 40.4946 40.8491 40.9777 42.4138C41.4606 43.9785 41.9931 45.7241 42.161 46.2931C42.3289 46.8621 42.657 47.9483 42.89 48.7069C44.114 52.6898 44.3147 53.4774 44.1248 53.5514C44.0178 53.5931 42.0988 53.6062 39.8603 53.5809L35.7902 53.5345L35.425 52.2414C35.2241 51.5302 34.8155 50.1336 34.5168 49.1379C34.2182 48.1422 33.8009 46.7069 33.5896 45.9483L33.2055 44.569L28.1139 44.5234L23.0223 44.4778L22.6203 45.989C22.2083 47.5372 21.8074 48.9826 20.9684 51.9428L20.491 53.6267L16.4919 53.5807C12.6134 53.5359 12.4934 53.5241 12.5133 53.1897C12.5247 53 13.0496 51.1379 13.6796 49.0517C14.3097 46.9655 14.9284 44.9095 15.0543 44.4828C15.3175 43.5914 15.9999 41.3407 16.9104 38.3621C17.2583 37.2241 17.6916 35.7888 17.8731 35.1724C18.7019 32.3605 19.6384 29.2459 20.9837 24.8276C21.5178 23.0733 22.1317 21.0172 22.3477 20.2586C22.5637 19.5 22.8231 18.6659 22.9239 18.4052L23.1073 17.931H28.2788H33.4501L33.9974 19.6983ZM27.4483 25.9848C26.7786 28.879 25.1065 35.2435 24.4912 37.2402C24.0924 38.5341 23.8654 38.4603 28.0874 38.4085C31.7589 38.3635 31.8679 38.3521 31.8215 38.0172C31.7742 37.6757 31.0867 35.2522 30.3296 32.7586C29.8712 31.2488 29.4279 29.6002 28.6157 26.3857C28.2932 25.1091 28.0043 24.0393 27.9739 24.0084C27.9434 23.9776 27.707 24.8669 27.4483 25.9848ZM52.9604 27.7586H56.432L56.3883 40.6466L56.3448 53.5345H52.4355H48.5262L48.4827 40.6595C48.4415 28.5033 48.4557 27.78 48.7376 27.7057C48.9018 27.6626 49.1379 27.6567 49.2625 27.6929C49.3869 27.729 51.0511 27.7586 52.9604 27.7586Z" fill="#330000"/>
</svg>
