<svg width="71" height="71" viewBox="0 0 71 71" fill="none" xmlns="http://www.w3.org/2000/svg">
<path fill-rule="evenodd" clip-rule="evenodd" d="M2.60966 0.241696C1.72619 0.523031 0.524704 1.7737 0.248077 2.70014C-0.0826924 3.80774 -0.0826924 67.1699 0.248077 68.2775C0.541335 69.2596 1.73987 70.4585 2.72164 70.7518C3.82889 71.0827 67.1711 71.0827 68.2784 70.7518C69.2601 70.4585 70.4587 69.2596 70.7519 68.2775C71.0827 67.1699 71.0827 3.80774 70.7519 2.70014C70.4587 1.71806 69.2601 0.519149 68.2784 0.225799C67.2373 -0.0854811 3.58793 -0.0699543 2.60966 0.241696ZM23.5598 13.5321C25.1478 14.0014 26.6302 16.0347 26.6302 17.7436C26.6302 20.0341 24.485 22.1799 22.1953 22.1799C19.9056 22.1799 17.7604 20.0341 17.7604 17.7436C17.7604 16.5819 18.1832 15.6445 19.14 14.6854C20.4363 13.3859 21.8326 13.0216 23.5598 13.5321ZM50.5003 25.272C52.3713 26.1101 53.876 28.132 54.3594 30.4575C54.4969 31.118 54.5414 32.3121 54.4782 33.6404C54.3894 35.5079 54.2273 36.3164 53.1437 40.2948C52.4653 42.7856 51.8663 45.3781 51.8121 46.0559C51.7208 47.1997 51.7482 47.3226 52.1911 47.7657C53.2453 48.8203 54.532 47.9783 55.6993 45.4705C56.1016 44.6063 56.4508 43.8747 56.4756 43.8448C56.6092 43.6832 58.968 44.8086 58.968 45.0341C58.968 45.5714 57.8247 48.2393 57.1456 49.2865C55.3898 51.9941 52.8856 53.181 49.9676 52.6885C47.4713 52.2675 45.9638 50.922 45.3621 48.5783C44.9048 46.7966 45.1127 45.2668 46.5133 40.11C47.9076 34.9762 48.0598 33.5888 47.3754 32.254C46.8535 31.2364 46.3803 30.8557 45.2836 30.5712C43.6035 30.1351 41.996 30.6398 40.7818 31.9841C39.3658 33.5518 39.2806 33.8335 35.7195 48.7053L34.8342 52.4022L31.5638 52.4527C28.537 52.4994 28.2933 52.4787 28.2935 52.1754C28.2937 51.9952 28.5032 50.983 28.7591 49.9258C29.0153 48.8689 29.1938 47.9733 29.1561 47.9354C29.1182 47.8977 28.8538 48.204 28.5683 48.6162C27.7737 49.763 25.8517 51.4721 24.7524 52.0092C21.9451 53.3812 18.5162 52.9732 16.8394 51.0678C15.7935 49.8793 15.4472 48.7241 15.4663 46.4871C15.4803 44.8398 15.6562 43.9015 17.0831 37.8637C17.9638 34.1374 18.6843 30.9974 18.6843 30.8858C18.6843 30.7494 17.9337 30.6828 16.3932 30.6828H14.102L14.7763 28.0488L15.4506 25.4147L21.1171 25.3659L26.7834 25.3169L26.5324 26.3826C26.3942 26.9685 25.3204 31.4102 24.1459 36.2526C21.8634 45.6635 21.6766 46.8659 22.3642 47.7143C22.6696 48.0912 22.8786 48.1504 23.8987 48.1478C26.2298 48.1419 28.7294 46.3234 29.9795 43.7243C30.3247 43.0063 31.013 40.5264 31.9 36.8042C32.6604 33.6136 33.2826 30.9309 33.2826 30.8429C33.2826 30.7549 32.2341 30.6828 30.9527 30.6828H28.6228L28.7445 30.1745C28.8116 29.895 29.1222 28.6889 29.4351 27.4942L30.0039 25.3223H35.0617C37.8437 25.3223 40.1197 25.3737 40.1197 25.4365C40.1197 25.4992 39.8702 26.7506 39.5653 28.2172C39.2604 29.6839 39.011 30.9355 39.011 30.9987C39.011 31.0621 39.3515 30.6217 39.7677 30.0203C41.3361 27.754 43.4435 25.9621 45.4785 25.1639C46.8153 24.6397 49.2033 24.6911 50.5003 25.272Z" fill="#FF427A"/>
</svg>
