<svg width="72" height="53" viewBox="0 0 72 53" fill="none" xmlns="http://www.w3.org/2000/svg">
<path d="M35.5409 0.813834H52.9534C56.9765 0.813834 60.7261 1.80563 64.1603 3.91739C66.8615 5.57917 69.0704 7.76002 70.912 10.3263C71.0679 10.5427 71.0943 10.6472 70.8281 10.7999C69.5882 11.5017 68.3569 12.219 67.1341 12.9517C66.846 13.1253 66.7448 12.989 66.5962 12.7944C65.3573 11.169 63.9524 9.71452 62.2641 8.54091C59.603 6.68641 56.6209 5.80916 53.4037 5.8028C41.4794 5.77916 29.5547 5.77916 17.6297 5.8028C12.374 5.81916 8.20689 8.11456 4.94046 12.149C4.68793 12.4608 4.51654 12.9899 4.14459 13.0153C3.81731 13.0381 3.46085 12.6763 3.11989 12.479C2.14899 11.9172 1.18264 11.3472 0.207179 10.7927C-0.0107056 10.669 -0.0581118 10.5818 0.104162 10.3563C3.8319 5.18372 8.73565 1.88926 15.1382 0.99292C16.1777 0.859633 17.2253 0.798881 18.2733 0.811107L35.5409 0.813834Z" fill="white"/>
<path d="M35.5034 52.307H18.0954C14.54 52.307 11.1751 51.5361 8.03083 49.8652C4.80542 48.1498 2.22089 45.7199 0.0994847 42.77C-0.0928733 42.5027 0.0165219 42.4336 0.233494 42.3091C1.43049 41.6236 2.62658 40.9355 3.80808 40.2246C4.09981 40.0491 4.24657 40.0628 4.4599 40.3464C5.6888 41.9827 7.10369 43.4263 8.79388 44.5972C11.444 46.4362 14.4133 47.3098 17.6141 47.3162C29.5385 47.3417 41.4628 47.3417 53.3872 47.3162C58.6438 47.3007 62.8127 45.0126 66.0819 40.9791C66.3363 40.6655 66.5159 40.1409 66.8751 40.1028C67.1941 40.0691 67.5588 40.4355 67.8997 40.6318C68.8707 41.1936 69.8343 41.7691 70.817 42.3172C71.0741 42.4609 71.0805 42.5581 70.9146 42.7872C67.4585 47.5771 62.9531 50.787 57.0803 51.9379C55.6761 52.1977 54.25 52.321 52.822 52.3061L35.5034 52.307Z" fill="white"/>
<path d="M8.03454 26.56C8.03454 25.2273 8.03454 23.8955 8.03454 22.5601C8.03454 21.3228 8.90699 20.441 10.1514 20.431C11.61 20.4201 13.0687 20.4201 14.5273 20.431C15.7225 20.4383 16.615 21.2383 16.6241 22.4192C16.6563 25.207 16.6563 27.9924 16.6241 30.7753C16.6113 31.8944 15.7389 32.6962 14.6185 32.7062C13.0991 32.7201 11.5796 32.7201 10.0602 32.7062C8.89605 32.6962 8.03636 31.8162 8.03089 30.6453C8.02907 29.2854 8.03454 27.9227 8.03454 26.56Z" fill="white"/>
<path d="M31.4293 26.5847C31.4293 25.252 31.4247 23.9193 31.4293 22.5848C31.4357 21.2766 32.2853 20.4339 33.5999 20.4294C35.0118 20.4239 36.4239 20.4239 37.8363 20.4294C39.1683 20.4348 40.0243 21.293 40.0243 22.6202C40.0243 25.2705 40.0243 27.9201 40.0243 30.5691C40.0243 31.8545 39.1801 32.7036 37.892 32.7091C36.4333 32.7157 34.9747 32.7157 33.5161 32.7091C32.2735 32.7027 31.4357 31.8673 31.4265 30.6264C31.422 29.2792 31.4293 27.9319 31.4293 26.5847Z" fill="white"/>
</svg>
