<svg width="72" height="54" viewBox="0 0 72 54" fill="none" xmlns="http://www.w3.org/2000/svg">
<path d="M36.0267 0.859302H53.6772C57.7553 0.859302 61.5562 1.86466 65.0373 4.00529C67.7755 5.68979 70.0146 7.90045 71.8813 10.5018C72.0393 10.7212 72.0661 10.8271 71.7963 10.9819C70.5395 11.6933 69.2913 12.4204 68.0518 13.1631C67.7598 13.3391 67.6572 13.2009 67.5066 13.0037C66.2507 11.3561 64.8266 9.88167 63.1152 8.69202C60.4177 6.81217 57.3949 5.92292 54.1337 5.91647C42.0463 5.89251 29.9586 5.89251 17.8706 5.91647C12.5431 5.93306 8.31899 8.25984 5.00789 12.3494C4.75191 12.6655 4.57818 13.2018 4.20115 13.2276C3.86939 13.2507 3.50806 12.8839 3.16244 12.6839C2.17826 12.1145 1.19871 11.5367 0.209908 10.9746C-0.0109555 10.8492 -0.0590097 10.7608 0.105482 10.5322C3.88418 5.28893 8.85497 1.94943 15.345 1.04084C16.3988 0.905727 17.4607 0.844145 18.523 0.856538L36.0267 0.859302Z" fill="#EA5648"/>
<path d="M35.9888 53.0564H18.3428C14.7388 53.0564 11.3279 52.275 8.14063 50.5812C4.87111 48.8424 2.25126 46.3792 0.100845 43.389C-0.094143 43.1181 0.0167478 43.048 0.236687 42.9218C1.45005 42.227 2.66249 41.5294 3.86014 40.8088C4.15586 40.6309 4.30463 40.6448 4.52087 40.9323C5.76658 42.591 7.2008 44.0543 8.91411 45.2412C11.6005 47.1054 14.6103 47.9909 17.8549 47.9974C29.9423 48.0232 42.0297 48.0232 54.1171 47.9974C59.4455 47.9817 63.6715 45.6623 66.9854 41.5736C67.2432 41.2557 67.4252 40.724 67.7893 40.6853C68.1128 40.6512 68.4824 41.0226 68.828 41.2216C69.8122 41.7911 70.789 42.3744 71.7852 42.9301C72.0458 43.0757 72.0523 43.1743 71.8841 43.4065C68.3808 48.2618 63.8138 51.5156 57.8607 52.6823C56.4373 52.9456 54.9917 53.0706 53.5441 53.0555L35.9888 53.0564Z" fill="#EA5648"/>
<path d="M8.14421 26.9569C8.14421 25.6059 8.14421 24.256 8.14421 22.9023C8.14421 21.6481 9.02859 20.7543 10.29 20.7441C11.7686 20.7331 13.2472 20.7331 14.7257 20.7441C15.9373 20.7515 16.842 21.5624 16.8512 22.7594C16.8839 25.5854 16.8839 28.4088 16.8512 31.2298C16.8383 32.3642 15.9539 33.177 14.8182 33.1871C13.278 33.2012 11.7378 33.2012 10.1976 33.1871C9.0175 33.177 8.14606 32.285 8.14051 31.0981C8.13867 29.7195 8.14421 28.3382 8.14421 26.9569Z" fill="#EA5648"/>
<path d="M31.8588 26.9828C31.8588 25.6319 31.8542 24.281 31.8588 22.9283C31.8653 21.6022 32.7265 20.748 34.0591 20.7434C35.4902 20.7379 36.9217 20.7379 38.3534 20.7434C39.7036 20.7489 40.5713 21.6188 40.5713 22.9642C40.5713 25.6507 40.5713 28.3365 40.5713 31.0218C40.5713 32.3248 39.7156 33.1854 38.4098 33.191C36.9312 33.1977 35.4527 33.1977 33.9741 33.191C32.7145 33.1845 31.8653 32.3377 31.856 31.0798C31.8514 29.7142 31.8588 28.3485 31.8588 26.9828Z" fill="#EA5648"/>
</svg>
