<svg width="74" height="72" viewBox="0 0 74 72" fill="none" xmlns="http://www.w3.org/2000/svg">
<path fill-rule="evenodd" clip-rule="evenodd" d="M12.0924 0.0195631C11.1882 0.107988 10.6239 0.198144 9.9595 0.360201C4.89371 1.59605 1.02797 5.74587 0.166399 10.8728C-0.00864083 11.9145 7.14083e-05 10.5956 7.14083e-05 36.0004C7.14083e-05 61.4051 -0.00864083 60.0862 0.166399 61.1279C0.859763 65.2541 3.49617 68.7904 7.26629 70.6513C8.58441 71.3019 9.84721 71.6875 11.4236 71.9208C11.8356 71.9818 13.106 71.9856 36.6927 71.9968C54.4051 72.0052 61.6628 71.9973 61.9979 71.9693C63.7564 71.8221 65.4432 71.3351 66.9897 70.5281C70.5859 68.6516 73.1428 65.1599 73.8164 61.2059C74.0116 60.06 73.9999 61.6755 73.9999 36.0004C73.9999 10.3224 74.0117 11.9409 73.8162 10.7937C73.4999 8.93701 72.7094 7.0368 71.6203 5.51541C69.3434 2.33465 65.9444 0.390433 62.0341 0.0321539C61.6694 -0.00128933 12.4322 -0.0136637 12.0924 0.0195631ZM60.6242 3.09955C65.3618 3.49939 69.3356 6.83474 70.53 11.414C70.67 11.9508 70.7414 12.3147 70.8274 12.9292C70.8833 13.3295 70.8888 15.0388 70.9001 35.5855C70.9085 51.0211 70.9005 57.9957 70.8738 58.4206C70.7246 60.7916 69.9143 62.9107 68.4519 64.7536C68.0647 65.2416 67.1287 66.1682 66.642 66.5452C64.9487 67.857 63.1371 68.6001 60.9677 68.8728C60.6564 68.9119 56.3377 68.9205 36.9638 68.9205C14.489 68.9205 13.3176 68.9174 12.8877 68.8562C10.7266 68.5485 8.94584 67.798 7.28863 66.4965C6.73806 66.0641 5.76634 65.0656 5.33098 64.4849C4.34365 63.1679 3.67743 61.7309 3.33144 60.1719C3.20303 59.5934 3.13532 59.0975 3.09006 58.4041C3.0628 57.9867 3.05489 51.1695 3.06353 35.5855C3.07502 14.8246 3.0799 13.3327 3.13789 12.9144C3.54241 9.99504 4.84917 7.58153 7.03522 5.71632C8.83204 4.1832 11.0222 3.29 13.4842 3.08628C13.884 3.0532 60.2295 3.06622 60.6242 3.09955ZM32.062 17.5281C31.8388 17.6181 31.7876 17.7208 29.2725 23.1209C28.3589 25.0825 27.104 27.831 26.4258 29.3555C26.1174 30.049 26.0267 30.2228 25.9929 30.1853C25.9694 30.1592 25.7253 29.6427 25.4505 29.0375C24.3504 26.615 22.2542 22.1306 20.7794 19.0448C20.2251 17.8849 20.1158 17.6808 20.0116 17.6107L19.8901 17.529H17.0798C14.4214 17.529 14.265 17.5325 14.1886 17.5943C14.1432 17.631 14.1086 17.6982 14.1097 17.7476C14.1108 17.796 15.9613 21.5128 18.2219 26.0071C20.4825 30.5014 22.3323 34.1947 22.3326 34.2146C22.3328 34.2344 20.4329 37.8628 18.1105 42.2777C15.7881 46.6927 13.8653 50.3489 13.8377 50.4027C13.7806 50.514 13.8173 50.6202 13.9345 50.6828C13.9798 50.707 14.9141 50.7197 16.6461 50.7197C19.551 50.7197 19.4435 50.7277 19.6269 50.498C19.8533 50.2144 23.9111 41.6153 25.4342 38.1914C25.5204 37.9977 25.6041 37.8435 25.6202 37.8488C25.6364 37.8542 25.9316 38.4511 26.2763 39.1753C28.1471 43.1052 31.7499 50.4707 31.8562 50.5825C31.914 50.6433 32.0154 50.694 32.1264 50.7178C32.401 50.7766 37.7132 50.7688 37.8308 50.7094C38.0099 50.619 38.0087 50.4999 37.825 50.1321C37.7337 49.9493 35.7701 46.1807 33.4614 41.7574C31.1527 37.3341 29.2638 33.7045 29.2638 33.6915C29.2638 33.6786 31.1183 30.0938 33.3849 25.7254C35.6516 21.357 37.5061 17.7429 37.5061 17.694C37.5061 17.4872 37.583 17.4927 34.7415 17.4952C33.3094 17.4965 32.1037 17.5113 32.062 17.5281ZM53.4817 17.6345L53.3761 17.7399V21.8742V26.0084L53.2767 25.9807C53.1094 25.934 50.7595 25.9488 50.3214 25.9994C47.8009 26.2899 45.7485 27.0983 43.9711 28.5005C43.4902 28.8799 42.553 29.8155 42.1719 30.2965C40.6354 32.2361 39.7342 34.5758 39.4745 37.2991C39.4 38.0806 39.4189 39.9432 39.5096 40.7625C39.9465 44.7104 41.5089 47.5906 44.1758 49.3644C46.6575 51.015 50.0702 51.5573 53.9364 50.9154C55.3541 50.68 56.8382 50.2415 58.2022 49.655C58.8137 49.392 58.9727 49.2977 59.0023 49.1803C59.0152 49.1287 59.0068 48.906 58.9836 48.6855C58.8788 47.6911 58.8724 46.7652 58.8717 32.4378C58.8709 17.7219 58.8707 17.6731 58.7986 17.6012C58.7277 17.5304 58.6781 17.529 56.1569 17.529H53.5874L53.4817 17.6345ZM52.5265 30.5878C52.6458 30.6097 52.8858 30.6702 53.0598 30.7221L53.3763 30.8167L53.3671 38.4479L53.358 46.0791L53.1592 46.148C52.3902 46.4146 50.821 46.4708 49.8586 46.2662C48.0607 45.8839 46.7683 44.8881 45.9482 43.2532C45.3583 42.0771 45.0592 40.7025 45.0021 38.9046C44.9192 36.2931 45.567 34.1158 46.8841 32.5789C47.4817 31.8815 48.3275 31.2893 49.2369 30.9315C49.5948 30.7906 50.2529 30.6303 50.719 30.5704C51.1661 30.513 52.172 30.5227 52.5265 30.5878Z" fill="white"/>
</svg>
