<svg width="72" height="72" viewBox="0 0 72 72" fill="none" xmlns="http://www.w3.org/2000/svg">
<path fill-rule="evenodd" clip-rule="evenodd" d="M3.55457 0.116245C2.15095 0.355129 0.983409 1.29096 0.353349 2.68245C0.00600136 3.44948 0.00411486 3.62531 0.00205752 36.0131L0 68.5727L0.399981 69.4295C0.871969 70.4406 1.91487 71.4364 2.84582 71.7651C3.40044 71.9609 8.93434 72 36.0857 72C65.7882 72 68.7143 71.9755 69.2728 71.7215C70.231 71.2859 71.1637 70.3681 71.6004 69.4307L72 68.5727V36.0131V3.4536L71.6004 2.59557C71.1637 1.6582 70.231 0.740359 69.2728 0.304747C68.715 0.0511254 65.7887 0.0240498 36.5143 0.00211493C18.8341 -0.0112516 4.00221 0.0401582 3.55457 0.116245ZM29.5634 14.2301C31.6066 14.6561 32.5144 14.9569 34.0508 15.7176C37.7083 17.5281 39.9993 21.1079 40.2309 25.3735C40.4521 29.4503 39.3235 32.7646 36.8684 35.2475C33.8211 38.3293 29.7256 39.6953 23.5274 39.6968L20.7414 39.6975V46.7235V53.7495H16.2838H11.8263V34.153V14.5562L14.4408 14.2719C18.2529 13.8574 18.1766 13.8605 23.3988 13.9049C27.0816 13.9362 28.5169 14.012 29.5634 14.2301ZM23.1416 20.6111C22.8116 20.6466 22.1365 20.7198 21.6415 20.7737L20.7414 20.8719V26.7484V32.6249L21.5369 32.7339C24.0035 33.0718 26.8109 32.6333 28.5506 31.6385C31.5903 29.9002 32.3385 24.9881 29.9501 22.4497C29.3575 21.8201 27.9635 21.099 26.8932 20.8685C25.947 20.6647 23.9298 20.5263 23.1416 20.6111ZM57.6304 24.7945C59.7484 25.2258 61.2029 25.7742 61.201 26.1406C61.2003 26.2924 60.9627 27.342 60.673 28.473C60.3834 29.604 60.0664 30.8764 59.9685 31.3006C59.8708 31.7247 59.7719 32.0931 59.7489 32.1194C59.7257 32.1456 59.3297 31.98 58.8687 31.7514C56.5691 30.6107 52.6435 30.2004 51.2922 30.9596C49.7859 31.8058 49.7093 33.5533 51.1355 34.5274C51.5333 34.799 52.9773 35.4649 54.3446 36.0073C57.7432 37.3554 58.8428 37.991 60.2727 39.4341C61.3162 40.4873 61.5561 40.8493 61.9871 42.0202C62.432 43.2292 62.4857 43.5836 62.4648 45.1812C62.43 47.8508 61.7572 49.4213 59.8888 51.1955C58.7271 52.2986 58.2244 52.6108 56.6586 53.2024C54.575 53.9894 52.7377 54.288 49.9815 54.2873C46.7289 54.2864 43.9576 53.7865 41.7005 52.7935C41.2056 52.5757 40.8005 52.3431 40.8005 52.2768C40.8005 51.9872 42.2305 46.2824 42.3318 46.1676C42.3937 46.0975 43.0831 46.3093 43.8637 46.6383C46.1633 47.6078 47.8242 47.9748 49.9728 47.9887C52.7579 48.0067 53.653 47.4876 53.7953 45.7724C53.8716 44.8524 53.8551 44.809 53.1898 44.1765C52.5254 43.5447 52.0779 43.3281 48.7171 42.0116C47.8378 41.6672 46.6805 41.1274 46.1454 40.8119C45.0784 40.1828 43.3744 38.7887 43.1343 38.3485C43.0508 38.195 42.8348 37.9062 42.6543 37.7066C42.4738 37.5069 42.1388 36.8129 41.9099 36.1643C40.6834 32.6905 42.1564 28.7148 45.5341 26.3817C46.8826 25.4501 49.343 24.6367 51.6015 24.3757C52.7819 24.2393 56.0023 24.4629 57.6304 24.7945Z" fill="white"/>
</svg>
