<svg width="68" height="77" viewBox="0 0 68 77" fill="none" xmlns="http://www.w3.org/2000/svg">
<path fill-rule="evenodd" clip-rule="evenodd" d="M25.6587 0.0276035C24.5385 0.146052 22.0816 0.710599 21.0122 1.09529C18.9399 1.8406 16.9452 2.98941 15.2141 4.43426C14.1605 5.31352 14.0225 5.49141 14.0167 5.97634C14.0052 6.92408 15.0661 7.38432 15.8477 6.77071C18.7077 4.52487 20.5556 3.50052 22.8638 2.88194C29.0371 1.22744 35.2469 2.75733 39.5051 6.98187C40.1689 7.64048 40.9175 8.2857 41.1685 8.41574C41.8573 8.77244 42.9494 10.073 43.4386 11.119C44.2109 12.7702 44.3689 14.0565 44.3689 18.6926V22.8447L43.9556 22.7305C43.7284 22.6677 43.2718 22.5756 42.9412 22.5261L42.3401 22.4358L42.2649 20.2273C42.1941 18.1449 42.1689 17.9966 41.8231 17.6286C41.6214 17.4139 41.1818 17.1649 40.8462 17.0752C38.9713 16.5744 38.335 16.1555 37.2834 14.7298C36.602 13.8063 36.0589 13.4807 35.1992 13.4807C34.4587 13.4807 34.2392 13.5874 32.8622 14.6179C29.2517 17.3198 24.8409 18.477 19.9461 18.0067C17.7548 17.7962 17.0325 17.8613 15.8716 18.3747C14.477 18.9913 13.417 20.2008 12.875 21.7943C12.652 22.4495 12.6178 22.4773 11.9377 22.5568C11.5493 22.6021 11.0701 22.6885 10.8726 22.7487L10.5136 22.8581L10.5999 19.7874C10.7115 15.8029 11.1176 13.9939 12.5018 11.3148C13.1458 10.0683 13.0706 9.4157 12.2468 9.10205C11.2963 8.74008 10.5806 9.65184 9.48957 12.6152C8.56083 15.1378 8.4128 16.1788 8.34938 20.6297C8.3058 23.6889 8.23321 24.9137 8.05573 25.5848C7.49968 27.6886 8.66617 29.833 10.8018 30.6334C11.251 30.8017 11.8516 30.9394 12.136 30.9394C12.5803 30.9394 12.6655 30.9981 12.737 31.3533C13.5233 35.2506 14.9299 37.9576 17.3206 40.1738C17.8436 40.6586 18.7331 41.3628 19.2976 41.7386L20.3237 42.4219V43.736C20.3237 44.6267 20.2612 45.1021 20.1294 45.2115C20.0227 45.3003 17.1992 46.3301 13.8551 47.4998C10.5112 48.6697 7.43702 49.8069 7.02374 50.027C6.61046 50.247 5.86086 50.8341 5.35786 51.3315C3.77073 52.9015 3.71933 53.0664 1.73982 62.9557C0.494429 69.1772 -0.000600582 71.955 5.46755e-07 72.719C0.00150337 74.5463 0.810472 75.8738 2.34726 76.5703L3.1164 76.9189L17.4347 76.9595L31.753 77L32.1248 76.6276C32.5976 76.154 32.5988 75.5777 32.1276 75.106C31.7694 74.7471 31.6954 74.7365 29.5353 74.7359C27.6252 74.7355 27.2466 74.6956 26.849 74.4528C26.289 74.1107 25.9106 73.3112 26.138 72.9503C26.2795 72.7255 27.958 72.7014 45.9201 72.6665C65.3504 72.6287 65.549 72.6313 65.7068 72.9264C65.8245 73.1466 65.8093 73.3606 65.6491 73.7449C65.212 74.7927 66.0764 74.7365 50.3808 74.7365H36.2399L35.8712 75.106C35.4009 75.5768 35.4009 76.1539 35.8712 76.6246L36.2399 76.9941H50.4968C66.1571 76.9941 65.4994 77.0312 66.647 76.0839C67.7804 75.1482 68.3488 73.0564 67.7716 71.9448C67.2958 71.0287 66.2169 70.3719 65.1878 70.3719H64.657V64.2874V58.2027L64.261 57.8909C64.0432 57.7193 63.7759 57.5789 63.6669 57.5789C63.2225 57.5789 62.7088 57.9482 62.5605 58.3746C62.4613 58.6597 62.4027 60.9031 62.4027 64.4192C62.4027 68.5675 62.3561 70.0573 62.2224 70.1913C61.995 70.419 30.0001 70.4518 29.6412 70.2245C29.4449 70.1004 29.4105 68.7249 29.3752 59.6119C29.3476 52.4796 29.3851 49.0475 29.4932 48.8453C29.6495 48.5528 29.8832 48.5485 45.8469 48.5485C58.2428 48.5485 62.0844 48.591 62.2224 48.7292C62.3464 48.8533 62.4027 49.6033 62.4027 51.1275C62.4027 52.3472 62.4731 53.5303 62.5589 53.7565C62.8817 54.6069 63.7581 54.8302 64.3396 54.2106C64.6667 53.8617 64.6742 53.7774 64.6287 51.0007C64.5823 48.1771 64.5778 48.1429 64.1684 47.5241C63.941 47.1801 63.4872 46.7622 63.16 46.595C62.5775 46.2973 62.3082 46.291 50.3391 46.291H38.1134L36.7898 45.8429C36.0617 45.5964 35.3728 45.3172 35.2588 45.2224C35.1085 45.0974 35.0514 44.647 35.0514 43.5847V42.1194L35.9155 41.5467C37.0521 40.7933 38.6745 39.2173 39.4866 38.0777C40.719 36.3484 41.7582 33.926 42.0324 32.1434C42.2102 30.9877 42.2407 30.9394 42.7954 30.9394C43.5548 30.9394 44.8352 30.4066 45.5514 29.7925C46.7053 28.8034 47.3021 27.0923 46.9119 25.8922C46.7744 25.4692 46.6886 23.5411 46.6177 19.2752C46.5045 12.4655 46.4719 12.2274 45.3389 9.92938C44.6517 8.53554 43.5186 7.21109 42.3895 6.48219C42.1143 6.3046 41.382 5.66434 40.7621 5.05931C37.5178 1.89327 33.2519 0.1605 28.3638 0.0230883C27.2066 -0.00942092 25.9894 -0.00731383 25.6587 0.0276035ZM35.8947 16.6231C36.6205 17.6431 38.0176 18.6409 39.2034 18.9862L40.0107 19.2213V25.0114C40.0107 29.7188 39.966 31.0182 39.7716 31.9606C38.9785 35.806 36.3336 39.1419 32.7731 40.7876C29.2502 42.416 25.0011 42.2681 21.4508 40.3934C18.5711 38.8728 16.5764 36.5165 15.4863 33.3475L14.9944 31.9177L14.9421 27.3423C14.8827 22.1361 14.9287 21.8545 15.9837 20.9502C16.921 20.1466 17.5585 20.0348 19.9131 20.2611C25.2034 20.7696 30.4511 19.3568 34.2523 16.4005C34.7207 16.0363 35.1427 15.7419 35.1904 15.7464C35.2379 15.7509 35.555 16.1454 35.8947 16.6231ZM12.6593 26.7451V28.7214L12.0526 28.6399C10.7778 28.4687 9.89668 27.2849 10.2488 26.2167C10.5074 25.4318 11.4189 24.7713 12.246 24.7695L12.6593 24.7686V26.7451ZM43.8558 25.1395C44.3468 25.4617 44.8185 26.2456 44.8191 26.7406C44.8203 27.6013 43.6299 28.6818 42.6806 28.6818H42.2649V26.7053V24.7291L42.8717 24.8105C43.2055 24.8553 43.6484 25.0034 43.8558 25.1395ZM32.7971 44.774V46.267L30.8568 46.3167C28.9496 46.3653 28.9069 46.374 28.3503 46.8257C27.5856 47.4461 27.2167 48.2165 27.1228 49.3882L27.0443 50.3668L26.3515 50.2712C24.4521 50.0097 23.5913 49.6338 22.963 48.7922C22.6846 48.4194 22.6483 48.124 22.6053 45.8908C22.5601 43.545 22.5728 43.4092 22.8307 43.4882C25.0824 44.1786 27.995 44.3729 30.1105 43.9741C30.8233 43.8397 31.6687 43.6335 31.9891 43.5159C32.3096 43.3982 32.6225 43.2972 32.6844 43.2914C32.7463 43.2857 32.7971 43.9527 32.7971 44.774ZM20.4423 48.5109C20.6591 49.561 21.4152 50.7345 22.2469 51.3117C22.9981 51.833 24.4049 52.2824 25.8711 52.4691C26.4838 52.5472 27.0057 52.6318 27.0311 52.6571C27.0564 52.6825 27.096 56.6716 27.1193 61.522L27.1616 70.3409L26.4853 70.4063C24.9145 70.5582 23.8886 71.5652 23.8672 72.9758C23.8606 73.4061 23.9114 73.9783 23.9799 74.2474L24.1047 74.7365H18.3068H12.509V69.2634C12.509 63.9542 12.4997 63.7784 12.1975 63.3937C11.7668 62.8452 10.997 62.8452 10.5663 63.3937C10.3316 63.6924 10.2548 64.0077 10.2548 64.673V65.5557H6.8936H3.53223L4.61622 60.1626C5.80375 54.2541 6.00332 53.6675 7.16921 52.6555C7.99952 51.9348 8.31241 51.8049 13.7864 49.9069C16.4314 48.9898 18.9336 48.1103 19.3469 47.9522C19.7602 47.7944 20.1354 47.6607 20.1809 47.6553C20.2263 47.6499 20.344 48.0349 20.4423 48.5109ZM44.2438 56.1646C42.961 56.8048 42.2625 57.9816 42.2682 59.493C42.2832 63.4712 47.7514 64.5274 49.3282 60.8566C49.7133 59.96 49.6941 58.5798 49.2858 57.7979C48.3327 55.9733 46.0858 55.2454 44.2438 56.1646ZM46.9352 58.4703C47.2604 58.796 47.3745 59.0531 47.3745 59.4602C47.3745 60.2249 46.7104 60.89 45.9468 60.89C44.6968 60.89 44.0346 59.3092 44.9153 58.4271C45.4847 57.857 46.341 57.8752 46.9352 58.4703ZM10.2548 71.2749V74.7365L7.13645 74.7356C5.42143 74.7352 3.77464 74.6672 3.47708 74.5844C2.16286 74.2188 1.99996 73.3833 2.61912 70.1837L3.07778 67.8133H6.66622H10.2548V71.2749Z" fill="#E49B00"/>
</svg>
