<svg width="86" height="76" viewBox="0 0 86 76" fill="none" xmlns="http://www.w3.org/2000/svg">
<path fill-rule="evenodd" clip-rule="evenodd" d="M2.53192 0.221919C1.71702 0.481668 0.470735 1.78278 0.218355 2.63735C-0.0558538 3.56624 -0.0802018 59.0191 0.193168 60.0094C0.420864 60.8338 1.41628 61.9467 2.28004 62.3423C2.91528 62.6333 3.86032 62.6501 19.7015 62.6537L36.4512 62.6574V65.4441V68.2307L32.883 68.2317C30.9205 68.2322 29.0503 68.3065 28.727 68.3971C27.9239 68.6218 26.9434 69.471 26.5119 70.316C26.2385 70.851 26.1351 71.4247 26.0754 72.7355C25.9876 74.6691 26.0711 75.186 26.5483 75.666C26.8705 75.9901 27.1437 75.9995 36.1915 75.9995C42.7935 75.9995 45.6251 75.9436 45.9223 75.8074C46.4923 75.5461 46.7158 74.8533 46.4416 74.1973C46.3241 73.916 46.0999 73.6363 45.9434 73.576C45.7871 73.5155 41.8026 73.4662 37.089 73.4662H28.5188L28.5934 72.4277C28.7245 70.6054 27.3518 70.764 43 70.764C58.6482 70.764 57.2755 70.6054 57.4066 72.4277L57.4812 73.4662H53.9534C50.7568 73.4662 50.3892 73.496 50.0376 73.7822C49.4984 74.2213 49.4984 75.2444 50.0376 75.6836C50.3944 75.974 50.7756 75.9995 54.7729 75.9995C60.2577 75.9995 60.0779 76.1135 59.9246 72.7355C59.8649 71.4247 59.7615 70.851 59.4881 70.316C59.0566 69.471 58.0761 68.6218 57.273 68.3971C56.9497 68.3065 55.0796 68.2322 53.117 68.2317L49.5488 68.2307V65.4441V62.6574L66.2985 62.6537C82.1397 62.6501 83.0847 62.6333 83.72 62.3423C84.5837 61.9467 85.5791 60.8338 85.8068 60.0094C86.0802 59.0191 86.0559 3.56624 85.7816 2.63735C85.5116 1.72333 84.2734 0.477953 83.3646 0.206381C82.8342 0.0479642 77.1279 0 58.8294 0H34.9853L34.5428 0.350105C33.9645 0.807622 33.9397 1.64699 34.4889 2.16616L34.8777 2.53332H58.7607H82.6438L83.0558 2.94794L83.4681 3.36239V31.3287V59.295L83.0558 59.7095L82.6438 60.1241H43H3.35623L2.94416 59.7095L2.53192 59.295V31.3287V3.36239L2.94416 2.94794L3.35623 2.53332H16.8049H30.2536L30.6656 2.1187C30.8923 1.8907 31.0779 1.50732 31.0779 1.26666C31.0779 1.02599 30.8923 0.642619 30.6656 0.41462L30.2536 0L16.6865 0.0172264C7.2603 0.0292175 2.9403 0.091706 2.53192 0.221919ZM5.63084 5.65014L5.2186 6.06459V28.605C5.2186 41.0023 5.26561 51.2684 5.32287 51.4188C5.62932 52.2222 3.87341 52.1864 43.0027 52.1864C70.5258 52.1864 79.7192 52.1375 79.9949 51.9899C80.7651 51.5772 80.7705 51.5355 80.776 45.8336C80.7812 40.5979 80.7693 40.3943 80.4333 39.9648C79.9784 39.3831 79.1439 39.3581 78.6277 39.9106C78.271 40.2926 78.2626 40.409 78.2626 44.9772V49.653H43H7.73736V28.7109V7.76884H43H78.2626V21.7097V35.6507L78.6749 36.0652C79.2001 36.5936 79.8439 36.5936 80.3692 36.0652L80.7814 35.6507V20.8577V6.06459L80.3692 5.65014L79.9571 5.23552H43H6.0429L5.63084 5.65014ZM10.8363 10.8857L10.424 11.3001V28.9339C10.424 46.5176 10.425 46.5688 10.7721 47.0125L11.1201 47.4575H19.5038C27.6636 47.4575 27.8963 47.4485 28.2233 47.1197C28.5549 46.7862 28.5591 46.5568 28.5591 28.9766V11.1711L28.1166 10.8212C27.6827 10.4778 27.5158 10.471 19.4613 10.471H11.2483L10.8363 10.8857ZM31.7537 10.8046C31.5714 10.988 31.3793 11.3109 31.3267 11.5224C31.2743 11.7337 31.2535 14.3644 31.2805 17.3683L31.3297 22.8301L31.7262 23.1527C32.0988 23.456 32.4605 23.4754 37.7403 23.4754C41.2078 23.4754 43.4794 23.4101 43.6754 23.3045C43.85 23.2106 44.0713 22.8495 44.1672 22.5023C44.389 21.6989 44.4014 12.2771 44.1818 11.5065C43.8858 10.4683 43.9724 10.4824 37.7526 10.4765C32.3299 10.4712 32.0711 10.4854 31.7537 10.8046ZM47.3976 10.8154C47.0332 11.1567 47.03 11.2101 47.03 16.9798C47.03 22.5747 47.0429 22.8129 47.3658 23.1376C47.6884 23.4621 47.9255 23.4754 53.3922 23.4754C58.7449 23.4754 59.1065 23.4563 59.4792 23.1525L59.8757 22.8298V16.9732V11.1167L59.4792 10.794C59.1065 10.4903 58.7454 10.471 53.424 10.471C47.9611 10.471 47.7522 10.483 47.3976 10.8154ZM63.0888 10.8212L62.6463 11.1711V16.956V22.7409L63.0349 23.1083C63.4181 23.4702 63.5034 23.4754 69.0876 23.4754H74.7517L75.1637 23.0608L75.576 22.6463V16.9732V11.3001L75.1637 10.8857L74.7517 10.471H69.1414C63.72 10.471 63.5163 10.4829 63.0888 10.8212ZM26.0403 28.9643V44.9242H19.4916H12.9428V28.9643V13.0044H19.4916H26.0403V28.9643ZM41.6567 16.9732V20.9421H37.7106H33.7645V16.9732V13.0044H37.7106H41.6567V16.9732ZM57.4409 16.9732V20.9421H53.4948H49.5488V16.9732V13.0044H53.4948H57.4409V16.9732ZM73.0572 16.9732V20.9421H69.1111H65.1651V16.9732V13.0044H69.1111H73.0572V16.9732ZM31.9714 26.3784C31.1638 26.7711 31.1185 28.1119 31.8983 28.5317C32.1141 28.6478 34.2157 28.7109 37.8674 28.7109C43.2799 28.7109 43.517 28.6976 43.8396 28.3732C44.3396 27.8702 44.2874 26.9663 43.733 26.5277C43.3053 26.1893 43.1091 26.178 37.8139 26.1891C34.3449 26.1964 32.2031 26.2658 31.9714 26.3784ZM47.4725 26.5277C46.918 26.9663 46.8658 27.8702 47.3658 28.3732C47.6884 28.6976 47.9255 28.7109 53.338 28.7109C56.9897 28.7109 59.0914 28.6478 59.3071 28.5317C60.1125 28.0982 60.0367 26.7588 59.1847 26.3685C58.9028 26.2393 57.0172 26.1776 53.3417 26.1776C48.1059 26.1776 47.8993 26.19 47.4725 26.5277ZM63.0967 26.5213C62.5103 26.9852 62.4821 27.8212 63.0349 28.3438C63.4181 28.7057 63.5034 28.7109 69.0876 28.7109H74.7517L75.1637 28.2963C75.6581 27.7991 75.6915 27.2029 75.2551 26.6608L74.9343 26.2621L69.2406 26.2136C63.6656 26.1661 63.5378 26.1724 63.0967 26.5213ZM31.8149 31.8087C31.2219 32.3216 31.1867 33.1843 31.7401 33.635C32.0949 33.924 32.533 33.9465 37.8132 33.9465C43.2799 33.9465 43.517 33.9331 43.8396 33.6087C44.3396 33.1057 44.2874 32.2019 43.733 31.7633C43.3058 31.4251 43.1006 31.4131 37.7813 31.4131H32.2721L31.8149 31.8087ZM47.4725 31.7633C46.918 32.2019 46.8658 33.1057 47.3658 33.6087C47.6884 33.9331 47.9255 33.9465 53.338 33.9465C56.9897 33.9465 59.0914 33.8833 59.3071 33.7673C60.1125 33.3337 60.0367 31.9943 59.1847 31.604C58.9028 31.4748 57.0172 31.4131 53.3417 31.4131C48.1059 31.4131 47.8993 31.4255 47.4725 31.7633ZM63.0586 31.8278C62.533 32.3562 62.5145 33.1343 63.0161 33.6043C63.3761 33.9416 63.5381 33.9497 69.1691 33.9064L74.9521 33.862L75.2818 33.4178C75.5273 33.0872 75.5818 32.8382 75.4959 32.4437C75.2791 31.4517 75.0348 31.4131 68.9439 31.4131H63.4706L63.0586 31.8278ZM47.4725 36.9988C46.918 37.4374 46.8658 38.3413 47.3658 38.8442C47.6884 39.1686 47.9255 39.182 53.3922 39.182C58.5676 39.182 59.1144 39.1553 59.4302 38.8864C59.6211 38.724 59.8262 38.3838 59.8856 38.1307C59.9724 37.7618 59.8932 37.5691 59.486 37.1596L58.978 36.6487H53.4465C48.1045 36.6487 47.8997 36.6607 47.4725 36.9988ZM63.3709 36.8187C62.622 37.1222 62.4032 38.2619 62.9822 38.8442C63.3051 39.169 63.5418 39.182 69.0989 39.182H74.8799L75.2279 38.737C75.4193 38.4922 75.576 38.1918 75.576 38.0694C75.576 37.6228 75.1931 37.0192 74.794 36.8361C74.2971 36.6085 63.9289 36.5926 63.3709 36.8187ZM63.3709 42.0543C62.622 42.3578 62.4032 43.4974 62.9822 44.0797C63.3051 44.4045 63.5418 44.4175 69.0989 44.4175H74.8799L75.2279 43.9725C75.4193 43.7278 75.576 43.4273 75.576 43.3049C75.576 42.8583 75.1931 42.2547 74.794 42.0717C74.2971 41.844 63.9289 41.8281 63.3709 42.0543ZM37.022 55.4515C36.445 55.9507 36.4165 56.8483 36.9635 57.2939C37.2952 57.5641 37.8396 57.5908 43.0186 57.5908C48.4854 57.5908 48.7225 57.5774 49.045 57.253C49.5908 56.7041 49.5505 55.9863 48.9431 55.4374C48.525 55.0596 48.4906 55.0574 43 55.0574H37.4775L37.022 55.4515ZM46.9461 65.4441V68.1463H43H39.0539L39.0073 65.6204C38.9816 64.2311 38.9987 62.9947 39.0452 62.8727C39.1124 62.6968 39.9348 62.6604 43.0379 62.6966L46.9461 62.7418V65.4441Z" fill="#E49B00"/>
</svg>
