<svg width="93" height="55" viewBox="0 0 93 55" fill="none" xmlns="http://www.w3.org/2000/svg">
<path fill-rule="evenodd" clip-rule="evenodd" d="M88.1035 0.530635C87.4699 0.828405 84.0179 2.46405 80.4323 4.16552L73.9132 7.25906L71.045 6.32149C66.7849 4.92905 64.1834 4.25811 60.1536 3.51271C51.7304 1.9545 44.3174 1.80064 35.683 3.00493C28.1661 4.0534 21.5618 5.96692 15.2279 8.93143C6.47431 13.0286 1.39246 17.956 0.172744 23.5291C-0.0593114 24.5894 -0.0572225 26.88 0.176921 27.9628C1.10714 32.2661 4.12546 36.2606 8.92 39.5335C14.6799 43.4655 21.7258 46.0181 31.7597 47.8079C32.7727 47.9886 33.6344 48.1364 33.6748 48.1364C33.7151 48.1364 33.761 49.4925 33.7768 51.15L33.8053 54.1636L34.0947 54.5665L34.384 54.9695L45.3462 54.9938C56.6459 55.0189 58.501 54.9772 58.8244 54.6906C59.1109 54.4367 59.1938 53.76 59.2959 50.8415C59.3485 49.338 59.4074 48.0924 59.4269 48.0733C59.4464 48.0543 60.3121 47.8959 61.3509 47.7213C65.0879 47.0935 67.7764 46.4556 71.5203 45.3083C72.7848 44.9207 73.8596 44.6037 73.9087 44.6037C73.9579 44.6037 76.8756 45.947 80.3925 47.5888C88.8163 51.5213 89.1486 51.6692 89.5625 51.6692C89.9918 51.6692 90.6933 51.3457 90.8422 51.0791C90.9243 50.932 90.9719 48.535 91.022 42.0472C91.0594 37.1897 91.1197 33.0271 91.156 32.797C91.1922 32.5669 91.4291 31.8976 91.6824 31.3096C92.3129 29.8459 92.7929 28.4044 92.9069 27.6321C93.0334 26.7752 93.0305 24.9572 92.9011 23.9188C92.7593 22.7805 92.4363 21.8265 91.6897 20.3396L91.0595 19.0845L91.012 10.0203C90.9592 -0.0649987 91.0063 0.585206 90.2999 0.193633C89.7241 -0.125613 89.3913 -0.0744814 88.1035 0.530635ZM88.2183 7.23135C88.2854 10.5558 88.1994 15.5053 88.0749 15.5053C88.0378 15.5053 87.6475 15.207 87.2073 14.8424C84.7497 12.8068 82.745 11.5137 79.1188 9.62486L77.4326 8.74652L78.2685 8.36638C78.7281 8.1572 80.9823 7.09971 83.2779 6.01638C88.0922 3.7441 88.0004 3.7851 88.0865 3.86803C88.1224 3.9027 88.1818 5.41619 88.2183 7.23135ZM50.6588 5.28622C53.7517 5.4332 56.5357 5.78564 60.1735 6.49069C74.0484 9.18011 85.4537 15.0865 88.9176 21.3763C89.5522 22.5286 90.0386 23.9653 89.7941 23.9653C89.751 23.9653 89.1207 23.7094 88.3936 23.3967C76.3294 18.2076 64.5722 15.463 50.9436 14.6544C48.5635 14.5132 42.129 14.5155 39.7396 14.6584C31.7129 15.1385 24.492 16.3145 17.1599 18.3358C13.6046 19.3159 10.4478 20.3712 6.04467 22.0515C4.61502 22.597 3.42322 23.0216 3.39607 22.9951C3.30928 22.9101 3.96994 21.536 4.47991 20.7406C5.83768 18.6231 8.24662 16.3302 10.9701 14.5632C16.9854 10.6603 25.568 7.61307 34.9922 6.03414C37.4449 5.62323 40.4377 5.26958 42.1608 5.18703C43.8892 5.10429 47.7848 5.14975 50.6588 5.28622ZM51.3074 17.5506C61.9153 18.1271 73.6132 20.6242 83.2262 24.3642C86.1197 25.4899 89.6827 27.1205 89.6827 27.3191C89.6827 27.5908 83.9541 29.7437 81.0602 30.5594C75.9229 32.0076 70.7536 32.8455 64.094 33.3096C59.4537 33.633 43.5169 33.6615 39.0275 33.3545C32.1459 32.8837 23.6842 31.3935 16.5462 29.3953C12.0343 28.1323 5.03109 25.7412 5.24615 25.5373C5.36597 25.4238 8.7584 24.0956 10.6773 23.4109C19.629 20.217 29.0254 18.2839 39.1225 17.5589C40.6252 17.4509 49.3646 17.445 51.3074 17.5506ZM5.44411 28.8374C13.1114 31.7461 20.8813 33.7973 29.2353 35.1178C36.7677 36.3085 41.3803 36.5788 52.5577 36.4846C60.3048 36.4194 63.4537 36.2917 68.0344 35.8576C74.9471 35.2023 80.4882 33.9613 87.297 31.5438C88.4817 31.1231 88.4399 31.4582 87.1133 33.0126C81.7539 39.2923 70.768 43.7417 56.2133 45.5275C51.5766 46.0964 41.9972 46.1447 37.3184 45.6229C24.4953 44.1928 14.6903 40.7694 8.55606 35.5807C7.28574 34.5062 5.63211 32.7426 4.94373 31.7279C3.96728 30.2888 2.98693 28.0558 3.3315 28.0558C3.36027 28.0558 4.3109 28.4075 5.44411 28.8374ZM88.1958 38.5295C88.3275 42.96 88.2305 47.8575 88.0111 47.8575C87.8818 47.8575 86.5369 47.249 81.802 45.0479C80.2092 44.3075 78.639 43.5852 78.3126 43.4428C77.9863 43.3003 77.7197 43.1582 77.7203 43.1268C77.721 43.0954 78.1796 42.8397 78.7394 42.5585C81.9723 40.9344 85.006 38.9687 87.1191 37.1285C87.563 36.742 87.9728 36.4249 88.0297 36.4242C88.0997 36.4232 88.1536 37.1064 88.1958 38.5295ZM56.4506 50.2747V52.134H46.481H36.5114V50.3125V48.4911L37.0573 48.5381C37.3577 48.564 39.4574 48.6384 41.7234 48.7035C45.0587 48.7995 46.7316 48.7995 50.5062 48.7038C54.3775 48.6057 56.2794 48.5176 56.4269 48.4295C56.44 48.4218 56.4506 49.252 56.4506 50.2747Z" fill="white"/>
</svg>
