<svg width="78" height="70" viewBox="0 0 78 70" fill="none" xmlns="http://www.w3.org/2000/svg">
<path fill-rule="evenodd" clip-rule="evenodd" d="M22.471 0.247889C21.6824 0.477923 15.2664 3.80979 14.8615 4.19952C14.7777 4.28027 11.9723 4.33884 8.19169 4.33884C0.97771 4.33884 0.876708 4.35076 0.309236 5.27316C0.00348664 5.77006 0.00165853 5.94485 0.0012015 37.1457C0.000592137 71.6044 -0.0667428 69.1733 0.902453 69.7406C1.29397 69.9697 1.91232 69.9981 6.50283 69.9981C12.3451 69.9981 12.3402 69.999 12.3402 68.9563C12.3402 68.5669 12.238 68.2928 12.0199 68.097C11.7216 67.8294 11.3721 67.8064 6.99261 67.7655L2.28571 67.7216V37.1623V6.60295H8.40542C13.4528 6.60295 14.5673 6.64023 14.7657 6.81547C15.3693 7.34905 21.8185 10.693 22.6516 10.9045C23.4449 11.1058 25.9801 11.1297 42.9222 11.0951C62.2109 11.0559 62.2875 11.0545 62.7066 10.7445C63.5984 10.0847 63.7514 9.71761 63.8079 8.10179L63.8601 6.60295H65.4456C66.8278 6.60295 67.0698 6.56431 67.3355 6.30107C67.7892 5.85157 67.7418 5.04373 67.2388 4.65174C66.8949 4.38367 66.6241 4.33884 65.3493 4.33884H63.8611L63.8083 2.91562C63.7514 1.38296 63.5868 0.999423 62.7066 0.348265C62.2874 0.0380813 62.2209 0.0368739 42.8355 0.00910075C24.6406 -0.0168611 23.326 -0.00146529 22.471 0.247889ZM54.0504 3.31999L54.0056 4.41431L39.9521 4.4528L25.8986 4.49129V3.35848V2.22567H39.9969H54.0952L54.0504 3.31999ZM61.5465 5.54636V8.86706H58.9567H56.3669V5.54636V2.22567H58.9567H61.5465V5.54636ZM23.6135 5.54636C23.6135 9.22283 23.7113 9.05876 22.013 8.22903L21.0159 7.74195L21.058 5.54984L21.0999 3.35772L22.0756 2.86716C23.7086 2.0462 23.6135 1.88077 23.6135 5.54636ZM71.2408 4.65174C70.7377 5.04373 70.6904 5.85157 71.144 6.30107C71.4198 6.57427 71.6518 6.60295 73.5815 6.60295H75.7143V37.1674V67.7317L46.0237 67.7707C17.0697 67.8085 16.3252 67.8165 16.0124 68.097C15.794 68.2929 15.6918 68.5667 15.6918 68.9563C15.6918 70.0926 12.8943 69.9981 46.5132 69.9981C74.6528 69.9981 76.6867 69.981 77.0975 69.7406C78.0667 69.1733 77.9994 71.6044 77.9988 37.1457C77.9983 5.94485 77.9965 5.77006 77.6908 5.27316C77.2011 4.4774 76.6519 4.33884 73.9878 4.33884C71.8454 4.33884 71.6073 4.36601 71.2408 4.65174ZM18.5862 5.54636C18.5862 5.96145 18.5492 6.30107 18.504 6.30107C18.3126 6.30107 17.2152 5.681 17.2152 5.57293C17.2152 5.45187 18.2662 4.80132 18.472 4.79513C18.5348 4.79317 18.5862 5.13128 18.5862 5.54636ZM54.0818 7.81048V8.86706H39.9902H25.8986V7.81048V6.75389H39.9902H54.0818V7.81048ZM8.03904 15.4959L7.54149 15.9361L7.50036 20.3638C7.46106 24.5814 7.4737 24.8147 7.76696 25.2856C7.93636 25.5575 8.25064 25.8462 8.4656 25.9271C8.68619 26.0103 10.748 26.0743 13.2033 26.0743H17.5503L18.0683 25.5611L18.5862 25.0479V21.5452V18.0426L18.9671 17.5942C19.4033 17.0805 19.4768 16.2552 19.1132 15.9561C18.9842 15.85 18.5317 15.604 18.1079 15.4094C17.3558 15.0641 17.2315 15.0556 12.9368 15.0556H8.53659L8.03904 15.4959ZM41.76 15.3018C41.0498 15.7946 40.9804 16.2629 40.9804 20.565C40.9804 25.0004 41.0508 25.4156 41.875 25.8379C42.5272 26.1721 50.671 26.1905 51.3176 25.8592C52.0611 25.4782 52.1014 25.1981 52.1014 20.3953V15.938L51.6561 15.4968L51.2108 15.0556H46.6626C42.7045 15.0556 42.0686 15.0876 41.76 15.3018ZM14.6717 18.7058L13.2727 20.0919L12.5814 19.4605C11.7703 18.7199 11.2824 18.656 10.7167 19.2165C10.1088 19.8189 10.3016 20.3598 11.5607 21.5838C12.5214 22.5177 12.6626 22.6027 13.2537 22.6027C13.8516 22.6027 13.9861 22.5183 15.0999 21.4445L16.3011 20.2862V22.0483V23.8102H13.0258H9.75044V20.565V17.3197H12.9105H16.0705L14.6717 18.7058ZM49.8162 20.565V23.8102H46.5409H43.2656V20.565V17.3197H46.5409H49.8162V20.565ZM21.3395 18.0194C20.9283 18.5371 20.941 18.8679 21.3913 19.3867L21.7591 19.8103H29.0043H36.2493L36.5837 19.4791C36.9941 19.0723 37.0209 18.3419 36.6405 17.9255C36.3697 17.629 36.1852 17.6216 29.0091 17.6216H21.6552L21.3395 18.0194ZM54.9179 17.9255C54.5375 18.3419 54.5643 19.0723 54.9747 19.4791L55.3091 19.8103H62.5541H69.7993L70.1671 19.3867C70.6174 18.8679 70.63 18.5371 70.2189 18.0194L69.9032 17.6216H62.5492C55.3732 17.6216 55.1887 17.629 54.9179 17.9255ZM21.682 21.4237C20.9494 21.7746 20.9082 22.9729 21.6157 23.3482C21.808 23.4501 23.463 23.5083 26.1668 23.5083C30.4113 23.5083 30.4162 23.508 30.7471 23.159C31.1864 22.6955 31.1692 22.0754 30.7042 21.6148L30.3304 21.2442L26.1721 21.2545C23.5929 21.2608 21.8879 21.325 21.682 21.4237ZM55.1944 21.4249C54.6991 21.6619 54.4913 22.3757 54.7649 22.8999C54.8857 23.1314 55.0955 23.363 55.2312 23.4146C55.3668 23.4661 57.3797 23.5083 59.7043 23.5083C63.9253 23.5083 63.9313 23.5079 64.2622 23.159C64.7308 22.6647 64.6997 21.9527 64.1919 21.5571C63.8074 21.2573 63.6164 21.2447 59.6598 21.2545C57.0796 21.2608 55.4034 21.3248 55.1944 21.4249ZM8.41837 29.5503C8.23038 29.6252 7.93773 29.9096 7.76787 30.1822C7.47355 30.6549 7.46106 30.8839 7.50036 35.1056L7.54149 39.5332L8.03904 39.9734L8.53659 40.4137H12.9595C17.7601 40.4137 18.0442 40.3705 18.4042 39.5877C18.532 39.3099 18.5862 37.8851 18.5862 34.8067V30.4214L18.0683 29.9082L17.5503 29.395L13.1553 29.4045C10.7381 29.4098 8.60636 29.4755 8.41837 29.5503ZM41.8002 29.6833C41.5388 29.8412 41.2475 30.1906 41.1527 30.4599C40.8851 31.2206 40.9189 38.768 41.1928 39.4176C41.6125 40.4126 41.6181 40.4137 46.6626 40.4137H51.2108L51.6561 39.9725L52.1014 39.5313L52.098 34.9537C52.095 30.8445 52.0677 30.3432 51.8314 30.0542C51.318 29.4263 51.0686 29.395 46.589 29.3956C42.6181 29.3961 42.2376 29.419 41.8002 29.6833ZM16.3011 34.9044V38.1496H13.0258H9.75044V34.9044V31.6591H13.0258H16.3011V34.9044ZM49.8162 34.9044V38.1496H46.5409H43.2656V34.9044V31.6591H46.5409H49.8162V34.9044ZM21.5866 32.1287C20.8834 32.534 20.9692 33.7125 21.7268 34.0546C22.2571 34.2941 35.7862 34.2941 36.3165 34.0546C37.0895 33.7057 37.1582 32.5086 36.4276 32.1212C36.0124 31.9009 21.9691 31.9082 21.5866 32.1287ZM54.9873 32.2393C54.4852 32.6422 54.5172 33.4132 55.0551 33.8716L55.4699 34.2251H62.462C67.2618 34.2251 69.5704 34.1726 69.8252 34.0576C70.1971 33.8896 70.5347 33.3522 70.5347 32.9281C70.5347 32.8037 70.3663 32.5353 70.1607 32.3316L69.7868 31.961H62.5605C55.7649 31.961 55.3136 31.9776 54.9873 32.2393ZM21.8398 35.7297C21.4536 35.8883 21.0237 36.4545 21.0237 36.8044C21.0237 36.9407 21.1658 37.2313 21.3395 37.45L21.6552 37.8477H26.0621C30.2658 37.8477 30.4829 37.8338 30.7736 37.5458C31.1585 37.1644 31.1646 36.4775 30.7873 36.0154L30.4962 35.6591L26.3313 35.6274C24.0405 35.61 22.0194 35.656 21.8398 35.7297ZM55.3714 35.7237C54.6302 36.0298 54.3955 36.9719 54.9179 37.5438C55.1838 37.835 55.3794 37.8477 59.5897 37.8477C63.7809 37.8477 63.998 37.8338 64.2887 37.5458C64.6736 37.1644 64.6797 36.4775 64.3024 36.0154L64.0113 35.6591L59.8464 35.6274C57.5556 35.61 55.5418 35.6533 55.3714 35.7237ZM15.9203 44.655C12.2877 45.1682 9.20978 47.7521 8.00095 51.3038C7.64478 52.3501 7.56952 52.8339 7.5581 54.1493C7.54165 56.0329 7.74883 56.9686 8.55334 58.6434C9.63954 60.9045 11.701 62.7164 14.1322 63.5467C16.6488 64.4062 19.1127 64.2418 21.6271 63.047C24.0407 61.9 26.0664 59.4013 26.7603 56.7153C27.0956 55.4174 27.0887 53.1612 26.7455 51.8852C25.7103 48.0357 22.4857 45.1975 18.5277 44.652C17.2207 44.4719 17.2167 44.4719 15.9203 44.655ZM37.7051 44.6455C35.5286 44.9338 33.8652 45.7873 32.1407 47.5005C30.002 49.6253 29.1383 51.8328 29.289 54.7887C29.424 57.4329 30.3027 59.4134 32.1512 61.2399C36.0079 65.0505 42.0372 65.0584 45.8535 61.2577C47.165 59.9516 48.3538 57.8881 48.3538 56.9174C48.3538 56.0777 47.5444 55.5823 46.6978 55.9043C46.561 55.9564 46.1465 56.6401 45.7769 57.424C44.7113 59.6832 43.1257 61.0019 40.732 61.6197C37.6 62.4279 34.0332 60.8532 32.4921 57.9817C29.752 52.8758 33.2689 46.8717 39 46.8717C41.9665 46.8717 44.5297 48.5195 45.8112 51.2503C46.4193 52.5462 46.8305 52.8109 47.6407 52.4281C48.31 52.1119 48.4078 51.6206 48.0076 50.5845C46.499 46.6783 41.9883 44.0781 37.7051 44.6455ZM59.2926 44.6568C56.2767 45.103 53.5376 47.0515 52.1174 49.7613C51.3043 51.3124 50.9928 52.5611 50.985 54.3002C50.9727 57.0551 51.8655 59.2064 53.8384 61.1762C54.8162 62.1525 55.3404 62.5381 56.3669 63.0361C58.8502 64.2407 61.3392 64.4103 63.8678 63.5467C65.4876 62.9935 66.6166 62.2479 67.8769 60.8992C69.8781 58.7575 70.8325 55.7509 70.396 52.9635C69.5574 47.6083 64.5691 43.8764 59.2926 44.6568ZM19.6309 47.2371C23.0052 48.3038 25.1826 51.8183 24.6778 55.3831C24.2419 58.4603 21.8101 61.0521 18.7692 61.6805C13.7901 62.7093 9.15205 58.348 9.87689 53.3191C10.549 48.6572 15.1155 45.8098 19.6309 47.2371ZM62.6129 47.0756C64.4986 47.4976 66.4835 49.1326 67.3986 51.0179C68.4912 53.2687 68.4677 55.4972 67.3274 57.7489C65.0419 62.2621 59.0961 63.215 55.4894 59.6461C52.2138 56.4047 52.5919 51.0173 56.2853 48.3059C58.1115 46.9654 60.257 46.5482 62.6129 47.0756ZM13.1499 51.1315C12.674 51.3216 12.4926 51.7486 12.4926 52.6791C12.4926 53.3347 12.5611 53.5567 12.8451 53.8212C13.6572 54.5771 14.7777 53.944 14.7777 52.7294C14.7777 51.8788 14.5463 51.3629 14.0683 51.1471C13.6399 50.9537 13.5971 50.9531 13.1499 51.1315ZM20.4905 51.1503C19.962 51.4429 19.805 51.7688 19.805 52.5729C19.805 53.5793 20.2125 54.1493 20.932 54.1493C21.7062 54.1493 22.0901 53.6387 22.0901 52.6091C22.0901 52.0274 22.0078 51.6713 21.8235 51.4555C21.4908 51.0659 20.8907 50.9285 20.4905 51.1503ZM34.5676 51.4235C34.1196 51.8674 34.0931 51.9536 34.1595 52.7469C34.2404 53.7129 34.6141 54.1493 35.3607 54.1493C36.102 54.1493 36.4102 53.6907 36.4102 52.5878C36.4102 51.5404 36.2248 51.2401 35.4619 51.0514C35.1238 50.9678 34.9579 51.0368 34.5676 51.4235ZM42.3515 51.0866C41.7492 51.306 41.5898 51.6201 41.5898 52.5878C41.5898 53.3443 41.6538 53.6089 41.8945 53.8474C42.2795 54.2288 42.9729 54.2349 43.4391 53.8607C43.7468 53.6139 43.7988 53.4376 43.7988 52.6402C43.7988 51.8061 43.7538 51.6698 43.3713 51.3438C42.9408 50.9768 42.7706 50.934 42.3515 51.0866ZM56.5673 51.1315C56.0913 51.3216 55.9099 51.7486 55.9099 52.6791C55.9099 53.6458 56.3138 54.1493 57.0893 54.1493C57.7682 54.1493 58.195 53.5635 58.195 52.6319C58.195 51.6945 58.0968 51.4678 57.5747 51.2004C57.0877 50.9509 57.0299 50.9469 56.5673 51.1315ZM63.8871 51.1528C63.4505 51.3667 63.2223 51.9078 63.2223 52.7294C63.2223 53.9582 64.4093 54.6086 65.1762 53.8C65.6086 53.344 65.6474 51.9317 65.2408 51.4555C64.9134 51.0722 64.3217 50.9398 63.8871 51.1528ZM59.8499 54.8515C59.6289 54.8897 59.083 55.1378 58.6367 55.403C56.6311 56.5945 56.1591 59.4322 57.9665 59.4322C58.575 59.4322 59.1091 58.9578 59.1091 58.4173C59.1091 57.8754 59.5327 57.3533 60.1313 57.1577C61.1404 56.8277 62.3082 57.4478 62.3082 58.3135C62.3082 58.8808 62.8768 59.4322 63.4619 59.4322C64.1689 59.4322 64.5943 58.991 64.59 58.2624C64.5862 57.6126 64.1191 56.5019 63.6318 55.9834C62.8672 55.1701 61.0892 54.6379 59.8499 54.8515ZM14.0488 55.4401C12.8562 55.9369 13.461 58.2949 15.0346 59.2837C16.4539 60.1755 18.1272 60.1765 19.5442 59.2863C21.1215 58.295 21.7283 55.9376 20.5339 55.4401C19.7101 55.0969 18.8909 55.5713 18.8909 56.392C18.8909 56.557 18.7203 56.8931 18.5118 57.1387C17.8856 57.8759 16.7825 57.9058 16.0747 57.2045C15.8641 56.9959 15.6918 56.7017 15.6918 56.5509C15.6918 55.6355 14.8865 55.091 14.0488 55.4401ZM36.0012 56.1079C35.2954 56.3995 35.1301 57.3693 35.6963 57.8966C36.0335 58.2104 36.1792 58.2247 39.0213 58.2247C41.9314 58.2247 42.0007 58.2173 42.325 57.8754C42.7337 57.4443 42.7494 56.8631 42.3652 56.3924C42.08 56.043 42.018 56.0355 39.2041 56.0032C37.6256 55.9852 36.1843 56.0323 36.0012 56.1079Z" fill="#E49B00"/>
</svg>
