<svg width="262" height="36" viewBox="0 0 262 36" fill="none" xmlns="http://www.w3.org/2000/svg">
<path fill-rule="evenodd" clip-rule="evenodd" d="M21.6122 21.897V2.08057H10.2522V22.3759C10.2092 23.1481 10.3193 23.9212 10.5762 24.6507C10.8331 25.3802 11.2316 26.0517 11.7489 26.6266C12.9225 27.6068 14.4031 28.1438 15.9322 28.1438C17.4614 28.1438 18.9419 27.6068 20.1155 26.6266C20.6375 26.0517 21.0389 25.378 21.296 24.6454C21.5531 23.9127 21.6606 23.1359 21.6122 22.3609V21.882V21.897Z" fill="white"/>
<path fill-rule="evenodd" clip-rule="evenodd" d="M44.3325 20.4751V2.08057H31.8799V2.17037L44.3325 20.4751Z" fill="#E49B00"/>
<path fill-rule="evenodd" clip-rule="evenodd" d="M44.3323 35.3225L31.8647 17.0776V21.897C31.8939 23.7888 31.6003 25.6717 30.9966 27.4648C30.3691 29.2037 29.344 30.772 28.0032 32.0447C26.8494 33.2566 25.4446 34.2016 23.8872 34.8136C23.3253 35.0208 22.7503 35.1908 22.166 35.3225H44.3323Z" fill="#E49B00"/>
<path fill-rule="evenodd" clip-rule="evenodd" d="M6.67531 34.275C5.32492 33.5519 4.12583 32.5763 3.14308 31.4013C2.14789 30.2934 1.39811 28.9877 0.942921 27.5697C0.362004 25.7484 0.0444873 23.8534 0 21.9421V35.4125H9.89323C8.77295 35.1847 7.68989 34.8018 6.67531 34.275Z" fill="white"/>
<path d="M69.2978 34.8731L68.6991 31.5804H68.4148C68.0643 32.2075 67.6144 32.7736 67.0827 33.2567C66.5767 33.7194 66.0072 34.1075 65.3914 34.4092C64.7766 34.7248 64.1222 34.9564 63.4457 35.0977C62.7572 35.2471 62.0548 35.3224 61.3503 35.3221C60.1334 35.3458 58.9206 35.174 57.7582 34.8133C56.7775 34.5001 55.892 33.944 55.1839 33.1968C54.485 32.3854 53.974 31.4297 53.6872 30.398C53.3157 29.0787 53.1392 27.7122 53.1633 26.3419V10.3271H57.2493V26.1024C57.1324 27.6562 57.5496 29.2034 58.4317 30.4878C58.8894 31.0031 59.4596 31.4062 60.098 31.6657C60.7365 31.9253 61.4262 32.0343 62.1136 31.9845C63.1417 32.0069 64.1626 31.8078 65.107 31.4008C65.9092 31.0233 66.5925 30.4332 67.0827 29.6945C67.6441 28.8113 68.0208 27.8236 68.1902 26.7909C68.4134 25.5313 68.5186 24.2535 68.5045 22.9743V10.3271H72.5906V34.8731H69.2978Z" fill="white"/>
<path d="M81.2859 34.8733H77.2148V0H81.2859V34.8733Z" fill="white"/>
<path d="M95.7588 31.9846H96.6568L97.6446 31.8798C97.9589 31.8798 98.2433 31.775 98.4978 31.7152L99.0964 31.5655V34.6487C98.8533 34.7552 98.6033 34.8452 98.3481 34.9181C98.0488 35.0079 97.7344 35.0827 97.3603 35.1576C96.9947 35.2315 96.6247 35.2815 96.2527 35.3073C95.8689 35.3292 95.4841 35.3292 95.1002 35.3073C94.2291 35.3149 93.3616 35.1939 92.5259 34.948C91.75 34.7182 91.0446 34.296 90.4754 33.7207C89.8542 33.0438 89.3938 32.2355 89.1284 31.3559C88.7674 30.1374 88.6007 28.8696 88.6345 27.5992V13.3206H85.1621V11.5246L88.6345 9.77343L90.3706 4.62476H92.7354V10.3272H98.9168V13.3206H92.7354V27.5992C92.6643 28.7357 92.9077 29.8698 93.4389 30.877C93.6953 31.2471 94.0448 31.543 94.4521 31.7348C94.8595 31.9266 95.3102 32.0076 95.7588 31.9696V31.9846Z" fill="white"/>
<path d="M113.989 9.8186C114.423 9.8186 114.902 9.8186 115.486 9.8186C115.953 9.84235 116.418 9.89734 116.878 9.98323L116.309 13.8148C115.884 13.7269 115.454 13.662 115.022 13.6202C114.608 13.5916 114.193 13.5916 113.779 13.6202C112.897 13.6045 112.024 13.7952 111.229 14.1772C110.433 14.5593 109.738 15.122 109.199 15.8204C108.604 16.5815 108.162 17.4506 107.897 18.3798C107.574 19.452 107.417 20.5676 107.433 21.6875V34.8735H103.362V10.3275H106.67L107.164 14.8176H107.329C107.703 14.174 108.107 13.5604 108.526 12.9617C108.964 12.3786 109.466 11.8464 110.023 11.3752C110.556 10.9211 111.157 10.5526 111.804 10.2826C112.515 9.9905 113.28 9.84785 114.049 9.8635L113.989 9.8186Z" fill="white"/>
<path d="M139.552 22.5253C139.578 24.3734 139.326 26.215 138.804 27.9882C138.365 29.4575 137.632 30.8222 136.649 31.9994C135.725 33.0704 134.568 33.9152 133.266 34.469C131.843 35.0554 130.315 35.3457 128.776 35.3221C127.31 35.3393 125.857 35.0486 124.511 34.469C123.22 33.9035 122.07 33.0603 121.143 31.9994C120.147 30.822 119.394 29.4587 118.928 27.9882C118.376 26.2207 118.108 24.3768 118.135 22.5253C118.109 20.6918 118.362 18.8651 118.883 17.1072C119.323 15.6504 120.051 14.2967 121.023 13.1259C121.945 12.0458 123.109 11.1994 124.421 10.6564C125.847 10.0821 127.373 9.79724 128.911 9.81822C130.375 9.80535 131.826 10.0905 133.176 10.6564C134.47 11.2166 135.621 12.0606 136.544 13.1259C137.535 14.2958 138.288 15.6483 138.759 17.1072C139.311 18.8592 139.579 20.6885 139.552 22.5253ZM122.34 22.5253C122.17 24.9688 122.689 27.4111 123.837 29.5747C124.385 30.3734 125.135 31.0129 126.011 31.4282C126.886 31.8435 127.856 32.0199 128.821 31.9395C129.782 32.0207 130.748 31.8445 131.619 31.4289C132.489 31.0132 133.234 30.3733 133.775 29.5747C134.923 27.4108 135.441 24.9688 135.272 22.5253C135.445 20.0959 134.926 17.6672 133.775 15.5207C133.165 14.7939 132.404 14.2094 131.544 13.8084C130.684 13.4075 129.747 13.1997 128.799 13.1997C127.85 13.1997 126.913 13.4075 126.053 13.8084C125.193 14.2094 124.432 14.7939 123.822 15.5207C122.68 17.6703 122.161 20.0965 122.325 22.5253H122.34Z" fill="white"/>
<path d="M170.745 34.8735H161.944L149.057 10.088H148.848C148.938 11.2405 149.013 12.378 149.072 13.5155C149.132 14.653 149.177 15.5061 149.222 16.5838C149.267 17.6614 149.222 18.6043 149.222 19.4574V34.8735H143.011V2.1106H151.781L164.638 26.6566H164.773C164.773 25.5191 164.668 24.3966 164.608 23.289V21.7923C164.608 21.2834 164.608 20.7895 164.608 20.2956C164.608 19.8017 164.608 19.3078 164.608 18.7989V2.1106H170.835V34.8735H170.745Z" fill="#E49B00"/>
<path d="M185.353 35.3228C183.817 35.3352 182.294 35.0558 180.862 34.4996C179.528 33.9645 178.331 33.1358 177.36 32.0749C176.326 30.9371 175.55 29.5892 175.085 28.1236C174.512 26.3916 174.239 24.5744 174.277 22.7504C174.248 20.908 174.495 19.0716 175.01 17.3024C175.44 15.826 176.146 14.4446 177.091 13.2314C177.952 12.1494 179.054 11.2833 180.309 10.7019C181.586 10.1355 182.966 9.8354 184.363 9.81996C185.76 9.80452 187.146 10.0741 188.436 10.6121C189.589 11.1271 190.612 11.8943 191.429 12.8572C192.284 13.8714 192.925 15.0472 193.315 16.3146C193.768 17.7677 193.99 19.2828 193.974 20.8047V23.3491H178.468C178.341 25.6381 178.984 27.9037 180.294 29.785C180.934 30.4894 181.727 31.0388 182.611 31.3914C183.495 31.7441 184.448 31.8908 185.398 31.8205C186.103 31.8288 186.808 31.7888 187.508 31.7007C188.142 31.63 188.771 31.5251 189.394 31.3864C189.994 31.2454 190.583 31.0655 191.16 30.8476C191.714 30.6231 192.297 30.3836 192.881 30.1142V33.7512C192.282 34.0356 191.699 34.2751 191.13 34.4846C190.547 34.6955 189.953 34.8705 189.349 35.0085C188.726 35.1369 188.096 35.2318 187.463 35.2928C186.824 35.3527 186.121 35.3826 185.353 35.3826V35.3228ZM184.335 13.2014C183.573 13.1676 182.813 13.3077 182.112 13.6111C181.412 13.9145 180.79 14.3732 180.294 14.9526C179.193 16.4233 178.585 18.2045 178.558 20.0414H189.648C189.657 19.1041 189.552 18.1692 189.334 17.2575C189.17 16.4776 188.849 15.7392 188.391 15.0873C187.978 14.4943 187.422 14.0155 186.774 13.6954C186.031 13.3459 185.216 13.1767 184.395 13.2014H184.335Z" fill="white"/>
<path d="M218.908 22.5253C218.933 24.3734 218.681 26.215 218.16 27.9882C217.72 29.4575 216.987 30.8222 216.004 31.9994C215.08 33.0704 213.923 33.9152 212.622 34.469C211.199 35.0554 209.671 35.3457 208.132 35.3221C206.666 35.3393 205.213 35.0486 203.866 34.469C202.576 33.9035 201.426 33.0603 200.498 31.9994C199.502 30.822 198.749 29.4587 198.283 27.9882C197.731 26.2207 197.464 24.3768 197.49 22.5253C197.465 20.6918 197.717 18.8651 198.238 17.1072C198.679 15.6504 199.406 14.2967 200.379 13.1259C201.3 12.0458 202.464 11.1994 203.776 10.6564C205.203 10.0821 206.729 9.79724 208.266 9.81822C209.73 9.80535 211.182 10.0905 212.532 10.6564C213.825 11.2166 214.976 12.0606 215.9 13.1259C216.88 14.2983 217.622 15.6506 218.085 17.1072C218.637 18.8592 218.905 20.6885 218.878 22.5253H218.908ZM201.696 22.5253C201.526 24.9688 202.044 27.4111 203.192 29.5747C203.741 30.3734 204.491 31.0129 205.366 31.4282C206.241 31.8435 207.211 32.0199 208.177 31.9395C209.138 32.0207 210.104 31.8445 210.974 31.4289C211.845 31.0132 212.589 30.3733 213.131 29.5747C214.278 27.4108 214.797 24.9688 214.627 22.5253C214.8 20.0959 214.281 17.6672 213.131 15.5207C212.521 14.7939 211.759 14.2094 210.9 13.8084C210.04 13.4075 209.103 13.1997 208.154 13.1997C207.205 13.1997 206.268 13.4075 205.408 13.8084C204.549 14.2094 203.787 14.7939 203.178 15.5207C202.035 17.6703 201.517 20.0965 201.681 22.5253H201.696Z" fill="white"/>
<path d="M238.59 34.8731L237.976 31.5804H237.752C237.396 32.2041 236.947 32.7695 236.42 33.2567C235.914 33.7194 235.344 34.1075 234.729 34.4092C234.113 34.7226 233.459 34.954 232.783 35.0977C232.09 35.2478 231.382 35.3231 230.673 35.3221C229.461 35.346 228.253 35.1742 227.095 34.8133C226.11 34.5006 225.22 33.9446 224.506 33.1968C223.806 32.386 223.295 31.4301 223.009 30.398C222.638 29.0787 222.461 27.7122 222.486 26.3419V10.3271H226.572V26.1024C226.455 27.6562 226.872 29.2034 227.754 30.4878C228.21 31.001 228.778 31.4028 229.414 31.6623C230.049 31.9218 230.736 32.032 231.421 31.9845C232.449 32.0097 233.471 31.8105 234.414 31.4008C235.221 31.0237 235.909 30.4337 236.405 29.6945C236.97 28.8102 237.356 27.8238 237.542 26.7909C237.766 25.5313 237.871 24.2535 237.857 22.9743V10.3271H241.943V34.8731H238.59Z" fill="white"/>
<path d="M261.999 28.1228C262.021 29.2069 261.795 30.2818 261.34 31.2659C260.906 32.1582 260.265 32.9332 259.469 33.5259C258.568 34.1652 257.552 34.6227 256.476 34.873C255.208 35.1864 253.905 35.3373 252.599 35.322C251.192 35.3485 249.787 35.218 248.408 34.9328C247.36 34.6958 246.352 34.3076 245.415 33.7804V30.0536C245.879 30.2931 246.403 30.5325 246.912 30.757C247.497 31.0024 248.097 31.2123 248.708 31.3856C249.336 31.5503 249.98 31.7 250.654 31.8197C251.307 31.9265 251.967 31.9815 252.629 31.9843C253.464 31.9931 254.296 31.9128 255.114 31.7449C255.7 31.6095 256.257 31.3713 256.76 31.0414C257.173 30.7597 257.495 30.3647 257.688 29.9039C257.895 29.4325 257.997 28.9219 257.987 28.4072C257.991 27.9779 257.915 27.5516 257.763 27.15C257.574 26.7241 257.293 26.3457 256.94 26.0424C256.448 25.6093 255.905 25.2374 255.323 24.9348C254.635 24.5607 253.827 24.1566 252.674 23.6776C251.522 23.1987 250.639 22.7646 249.77 22.3156C248.98 21.914 248.245 21.4109 247.585 20.8189C247.004 20.278 246.536 19.6267 246.208 18.9031C245.874 18.0818 245.711 17.2006 245.729 16.3138C245.696 15.3752 245.893 14.4427 246.302 13.5975C246.712 12.7524 247.322 12.0201 248.079 11.4645C248.891 10.8809 249.805 10.4545 250.773 10.2072C251.917 9.91257 253.095 9.77164 254.276 9.78817C255.612 9.77305 256.945 9.92897 258.242 10.2521C259.421 10.5581 260.568 10.974 261.669 11.4944L260.247 14.7872C259.272 14.3526 258.272 13.9728 257.254 13.6497C256.241 13.3339 255.187 13.1725 254.126 13.1707C252.95 13.091 251.776 13.3507 250.743 13.9191C250.393 14.1523 250.109 14.4716 249.917 14.8464C249.726 15.2212 249.634 15.6389 249.651 16.0594C249.635 16.5313 249.722 17.001 249.905 17.4363C250.109 17.8654 250.411 18.2399 250.788 18.5289C251.308 18.9328 251.87 19.2791 252.465 19.5617C253.168 19.9209 254.051 20.325 255.099 20.7441C256.146 21.1631 257.134 21.6421 257.972 22.0911C258.758 22.4931 259.488 22.9963 260.143 23.5878C260.717 24.1317 261.18 24.7824 261.505 25.5036C261.841 26.3193 262.004 27.1959 261.984 28.0779L261.999 28.1228Z" fill="white"/>
</svg>
