<svg width="50" height="50" viewBox="0 0 50 50" fill="none" xmlns="http://www.w3.org/2000/svg">
<path fill-rule="evenodd" clip-rule="evenodd" d="M17.6429 0.831404C17.4805 0.880324 16.9039 1.37822 16.2669 2.01944L15.1704 3.12321L13.5644 2.44568C12.6811 2.07295 11.7258 1.70662 11.4415 1.63161C10.2647 1.3208 8.96137 1.59273 7.98554 2.35252C7.70703 2.56941 6.97053 3.27446 6.34876 3.91931C5.05012 5.26624 4.8569 5.62225 4.92327 6.54715C4.9528 6.95982 5.03545 7.2241 5.22544 7.51399C5.47489 7.89437 8.01811 9.84803 19.1777 18.2318L21.5691 20.0284L18.9193 23.1113C17.4619 24.8068 16.2301 26.3069 16.182 26.4449C16.0167 26.9189 16.5161 27.4544 17.0036 27.3258C17.1259 27.2935 20.5559 23.3763 25.3455 17.7988C29.8194 12.5892 33.7708 8.03215 34.1264 7.67212C35.7098 6.06931 37.9217 4.72085 40.0744 4.04591C41.4639 3.6104 43.8149 3.24264 44.6228 3.33456C45.2151 3.40201 45.7328 3.77532 45.9967 4.32529C46.2104 4.77092 46.2123 4.80207 46.0972 5.97979C45.8346 8.66868 45.084 10.9674 43.7966 13.0248C43.3503 13.738 43.3355 14.1216 43.7426 14.4269C43.9508 14.5832 44.0542 14.6038 44.2609 14.5304C44.5915 14.4131 45.1751 13.57 45.777 12.3396C46.8118 10.2249 47.2649 8.56549 47.5125 5.98504C47.6134 4.93392 47.6086 4.72525 47.4724 4.25267C47.1646 3.18378 46.3354 2.33121 45.3024 2.02164C44.6969 1.84019 44.3575 1.84086 42.8235 2.02718C40.7575 2.27799 39.2038 2.73127 37.4238 3.60238C35.2892 4.647 33.6622 5.97052 31.6162 8.32672C31.0686 8.95733 30.5905 9.486 30.5537 9.50157C30.517 9.51714 29.6285 9.16906 28.5792 8.72811C26.8799 8.0139 26.6892 7.91176 26.8323 7.79213C27.0654 7.5975 27.3373 6.94443 27.3397 6.57352C27.343 6.06167 27.1022 5.68216 26.2239 4.81468C24.8068 3.41501 24.3626 3.43393 22.825 4.96001L21.8582 5.9195L20.979 5.55298C20.4954 5.35137 20.0814 5.17212 20.0589 5.15473C20.0364 5.13725 20.1514 4.9839 20.3145 4.81392C20.8387 4.26719 21.0264 3.55689 20.8048 2.95839C20.6626 2.57438 19.224 1.1255 18.7744 0.913479C18.3649 0.720378 18.0798 0.699644 17.6429 0.831404ZM18.8431 2.80627C19.1958 3.15961 19.4844 3.49441 19.4844 3.5504C19.4844 3.60629 19.2815 3.85376 19.0336 4.10027L18.5828 4.54839L17.6373 4.15731C17.1173 3.94214 16.6727 3.74828 16.6494 3.72649C16.6056 3.6855 18.071 2.16391 18.1544 2.16391C18.1805 2.16391 18.4903 2.45294 18.8431 2.80627ZM20.2891 6.78955C25.2875 8.88118 29.4128 10.626 29.4563 10.667C29.5534 10.7584 22.6353 18.8369 22.4599 18.8369C22.3585 18.8369 8.40501 8.39828 6.77939 7.10629C6.36788 6.77923 6.32575 6.70891 6.32575 6.34927C6.32575 5.96794 6.37375 5.9043 7.58141 4.6855C9.1098 3.14289 9.52066 2.9022 10.5384 2.95342C11.164 2.98485 11.7102 3.19974 20.2891 6.78955ZM25.2804 5.86379C25.6331 6.21713 25.9218 6.55269 25.9218 6.60944C25.9218 6.6662 25.7769 6.85443 25.5998 7.02766L25.2778 7.34267L24.2728 6.93106L23.2679 6.51944L23.9059 5.87038C24.2568 5.51352 24.5654 5.22143 24.5915 5.22143C24.6176 5.22143 24.9277 5.51046 25.2804 5.86379ZM37.7282 6.6554C37.4092 6.9087 37.376 7.39809 37.6603 7.65779C37.7644 7.75286 38.1584 7.88959 38.5358 7.96163C40.2378 8.2864 41.2006 9.2756 41.5766 11.0858C41.6499 11.4389 41.7851 11.8116 41.8772 11.9142C42.1128 12.1771 42.5411 12.1519 42.8323 11.8579C43.051 11.6372 43.0669 11.5694 43.0061 11.1174C42.7133 8.94157 41.4762 7.38338 39.5538 6.76872C38.5435 6.44577 38.0323 6.41405 37.7282 6.6554ZM41.6143 15.8619C41.4758 15.9216 36.6636 20.0799 30.9204 25.1026C25.1773 30.1251 20.095 34.5542 19.6264 34.9448C17.1819 36.9826 14.2166 38.9365 11.4851 40.3091C10.3657 40.8716 10.1968 40.9072 9.69948 40.6852C9.28693 40.501 8.97642 40.0519 8.97642 39.6392C8.97642 39.3832 10.1253 37.054 10.919 35.7011C12.0233 33.8187 13.3102 31.9583 14.6665 30.2834C15.388 29.3927 15.4975 29.0017 15.1298 28.6305C14.6628 28.1592 14.2756 28.4431 12.8583 30.2961C12.4336 30.8515 12.0466 31.3059 11.9984 31.3059C11.9503 31.3059 10.4518 30.6411 8.66866 29.8285C6.88542 29.0161 5.20622 28.3038 4.93709 28.2458C4.3494 28.1191 3.57228 28.2383 2.92542 28.5544C2.40135 28.8105 1.00388 30.1432 0.796177 30.5848C0.713439 30.7608 0.645752 31.0208 0.645752 31.1626C0.645752 31.8217 0.826471 31.9903 4.56675 34.8187C6.54954 36.3179 8.18851 37.5589 8.20905 37.5762C8.22959 37.5935 8.10558 37.9203 7.93348 38.3025C7.38517 39.5201 7.53767 40.6442 8.36421 41.4785C9.15913 42.2808 10.2923 42.4443 11.4075 41.9177C11.7483 41.7567 12.0755 41.6267 12.1347 41.6289C12.1939 41.6311 13.4352 43.2467 14.8931 45.2192C16.351 47.1918 17.6517 48.8846 17.7836 48.9812C18.1096 49.2199 18.6225 49.3039 18.9647 49.1747C19.3628 49.0244 20.8742 47.493 21.1407 46.97C21.2627 46.7305 21.3991 46.322 21.4437 46.0623C21.6064 45.1153 21.486 44.7182 20.0995 41.625C19.3809 40.0222 18.6962 38.491 18.5778 38.2225L18.3624 37.734L18.9933 37.267C19.946 36.5616 20.9625 35.6965 25.437 31.7836C27.6904 29.8129 29.5627 28.1913 29.5977 28.1801C29.6325 28.1689 32.281 31.7091 35.4831 36.0474C38.6852 40.3857 41.4481 44.1048 41.6229 44.3122C42.063 44.8341 42.6034 45.0949 43.2458 45.0954C44.1081 45.096 44.4667 44.8608 46.0095 43.2829C47.1713 42.0947 47.4522 41.7504 47.7135 41.1932C48.0087 40.564 48.0264 40.4667 48.0261 39.4752L48.0258 38.4242L47.3461 36.7999L46.6662 35.1755L47.7463 34.0704C49.545 32.2296 49.5708 31.7615 47.9603 30.1943C47.2138 29.4677 46.9979 29.3103 46.6714 29.2546C46.0941 29.1562 45.7525 29.268 45.1707 29.7464C44.8841 29.982 44.636 30.1605 44.6196 30.1432C44.5538 30.0737 43.8138 28.2193 43.8138 28.1238C43.8138 28.0675 44.1928 27.6313 44.656 27.1545C45.5787 26.2049 45.7663 25.8196 45.6204 25.1742C45.5169 24.7167 45.3005 24.4216 44.4934 23.6365C43.4992 22.6693 42.9753 22.5112 42.1797 22.9382L41.7482 23.1698L41.5587 22.7232C41.3303 22.1847 40.2271 19.4922 40.1189 19.2089C40.0524 19.0345 40.2002 18.8699 41.2253 17.9773C41.8761 17.4106 42.4468 16.8455 42.4934 16.7215C42.6998 16.1738 42.146 15.6325 41.6143 15.8619ZM42.7997 29.4512C46.4695 38.4012 46.6611 38.898 46.6655 39.4736C46.6728 40.4329 46.4532 40.8066 45.0282 42.2591C43.668 43.6454 43.4101 43.8179 42.9985 43.6162C42.7192 43.4794 30.7174 27.3432 30.7719 27.178C30.8026 27.0851 38.8076 20.0461 38.8911 20.0386C38.9171 20.0363 40.6759 24.272 42.7997 29.4512ZM43.6709 24.8148L44.3165 25.4897L43.7629 26.0544C43.4584 26.3649 43.189 26.5985 43.1642 26.5735C43.09 26.4988 42.3938 24.7881 42.3938 24.6809C42.3938 24.5427 42.7823 24.1398 42.9154 24.1398C42.9759 24.1398 43.3159 24.4436 43.6709 24.8148ZM7.99757 31.082C9.68547 31.8524 11.0871 32.5164 11.1122 32.5574C11.1373 32.5983 10.8652 33.0967 10.5076 33.6648C10.1499 34.233 9.65385 35.0552 9.40526 35.4918C9.11586 36.0002 8.90845 36.2684 8.82845 36.2375C8.60665 36.1516 2.16042 31.2031 2.16042 31.1187C2.16042 30.9566 3.48367 29.805 3.78869 29.7016C4.39597 29.4957 4.84592 29.6434 7.99757 31.082ZM47.0537 31.2794C47.4064 31.6327 47.6951 31.9669 47.6951 32.022C47.6951 32.0771 47.3343 32.4845 46.8934 32.9272L46.0916 33.7322L45.9081 33.3073C45.8071 33.0736 45.617 32.6244 45.4855 32.3091L45.2464 31.7358L45.7814 31.1864C46.0757 30.8842 46.338 30.637 46.3645 30.637C46.3908 30.637 46.701 30.9261 47.0537 31.2794ZM18.7306 42.0072C20.1495 45.1733 20.2126 45.3842 19.9658 46.1389C19.9087 46.3135 19.5691 46.7497 19.2111 47.1083L18.5603 47.7601L16.5309 45.0509C15.4148 43.5608 14.2619 42.0197 13.9691 41.6263L13.4368 40.9111L13.6917 40.7565C13.8318 40.6714 14.4576 40.2956 15.0824 39.9211C15.7072 39.5467 16.4314 39.0939 16.6918 38.915C17.1622 38.5916 17.1657 38.5908 17.2734 38.7935C17.3329 38.9057 17.9887 40.3518 18.7306 42.0072Z" fill="black"/>
</svg>
