<svg width="49" height="55" viewBox="0 0 49 55" fill="none" xmlns="http://www.w3.org/2000/svg">
<path fill-rule="evenodd" clip-rule="evenodd" d="M29.9354 0.497656C29.1355 0.878096 28.7159 1.58489 28.7154 2.55354L28.715 3.11375L27.7874 3.29448C22.4823 4.32772 18.1256 8.10423 16.2525 13.2929L15.9071 14.2501L15.1704 14.3032C13.8294 14.3997 13.0738 15.1637 13.0725 16.4244C13.0715 17.284 13.3374 17.8369 13.9651 18.2805L14.4152 18.5986L17.1219 18.6303L19.8287 18.662L19.7525 18.8955C19.5371 19.5567 19.5684 19.8922 19.8762 20.2215C20.1504 20.5147 26.8887 24.9208 27.3894 25.1342C27.5064 25.1841 29.7976 25.3948 32.4809 25.6026C35.1642 25.8103 37.9086 26.0381 38.5794 26.1087L39.7991 26.2371L39.8265 26.5543C39.9124 27.551 39.9816 27.78 40.2907 28.0892C40.6079 28.4063 40.6217 28.4093 41.772 28.4093C42.8916 28.4093 42.9365 28.4182 43.0275 28.6573C43.0793 28.7937 43.2727 29.0324 43.4572 29.1876C43.7924 29.4697 43.7939 29.4699 45.6458 29.4699C47.7295 29.4699 47.9803 29.4054 48.2696 28.7956C48.4202 28.4784 48.443 27.9252 48.443 24.5982C48.443 20.3805 48.4176 20.1872 47.8203 19.8784C47.5457 19.7363 46.9301 19.7123 43.581 19.7123H39.6629L38.7765 19.2085L37.89 18.7047L42.5646 18.6517L47.2391 18.5986L47.6689 18.3141C48.2752 17.9127 48.5644 17.3947 48.6241 16.6034C48.6885 15.7497 48.3881 15.1429 47.6561 14.6479C47.197 14.3374 47.0698 14.3032 46.3761 14.3032H45.606L45.2658 13.3289C44.7071 11.7289 43.4668 9.44389 43.0301 9.21023C42.4997 8.92631 41.8673 9.26602 41.8673 9.83493C41.8673 10.02 42.1143 10.5445 42.4974 11.1729C43.0492 12.0779 43.8824 13.8977 43.8824 14.1979C43.8824 14.267 39.3848 14.3032 30.7839 14.3032C19.3015 14.3032 17.6854 14.2839 17.6854 14.1465C17.6854 13.8774 18.2073 12.5878 18.6437 11.7787C20.6032 8.14528 24.1343 5.59409 28.2915 4.8085C29.6244 4.5566 31.9303 4.55119 33.1989 4.79715C35.2739 5.19933 37.1674 6.01918 38.9075 7.26869C39.9414 8.01111 40.2484 8.08323 40.6523 7.67914C41.1618 7.16973 40.9502 6.77296 39.6849 5.86529C37.9766 4.63997 35.5761 3.61012 33.6344 3.26998L32.8788 3.13762L32.8265 2.48619C32.7596 1.65213 32.4341 1.01682 31.8891 0.656111C31.3235 0.281822 30.5254 0.217125 29.9354 0.497656ZM31.0946 2.06067C31.1862 2.15242 31.2612 2.39105 31.2612 2.59098C31.2612 2.95127 31.2567 2.95466 30.7839 2.95466H30.3066V2.55163C30.3066 1.93669 30.7156 1.68183 31.0946 2.06067ZM27.4404 16.1661C27.3835 16.3158 27.3369 16.5783 27.3369 16.7495V17.0608H21.1673C15.5751 17.0608 14.9794 17.0443 14.8036 16.8852C14.5655 16.6698 14.5528 16.2843 14.7763 16.0607C14.9241 15.913 15.6572 15.8941 21.2434 15.8941H27.5438L27.4404 16.1661ZM46.8976 16.0607C46.9893 16.1524 47.0643 16.34 47.0643 16.4774C47.0643 17.0783 47.251 17.0608 40.8358 17.0608H34.9407L34.2464 16.6725C33.8646 16.459 33.2395 16.2008 32.8574 16.0988C32.1766 15.9169 32.3079 15.9131 39.4469 15.9036C45.9357 15.8951 46.7491 15.9123 46.8976 16.0607ZM31.1296 17.3399L32.7991 17.7207L36.037 19.5119C37.9992 20.5975 39.3886 21.3032 39.5635 21.3032H39.8521V22.9471V24.5911H39.5476C39.3801 24.5911 38.5569 24.5195 37.7181 24.432C36.8793 24.3444 34.3373 24.1302 32.0691 23.956L27.9452 23.6391L24.6836 21.5431C22.8897 20.3903 21.4431 19.4113 21.469 19.3676C21.5838 19.1737 22.1518 19.3537 24.5585 20.3465C25.9695 20.9287 27.2316 21.4312 27.363 21.4633C27.829 21.5769 31.84 21.2323 32.1962 21.0481C32.612 20.8331 32.8521 20.3842 32.8521 19.822C32.8521 19.129 32.4263 18.7758 30.6779 18.0183C29.3146 17.4277 28.9279 17.1856 28.9279 16.9229C28.9279 16.8694 29.0476 16.8557 29.194 16.8924C29.3403 16.9291 30.2113 17.1305 31.1296 17.3399ZM29.2718 19.1462C29.8985 19.4195 30.3895 19.6649 30.3627 19.6915C30.3361 19.7181 29.7187 19.7786 28.9909 19.8258L27.6673 19.9116L26.362 19.3764C25.644 19.082 25.0112 18.7985 24.9559 18.7464C24.8965 18.6905 25.5274 18.6512 26.4938 18.6506L28.1324 18.6494L29.2718 19.1462ZM1.78381 20.1102C1.58378 20.2121 1.32128 20.4303 1.20048 20.595C0.981356 20.8937 0.98072 20.9291 0.953144 34.3552C0.925568 47.7185 0.926947 47.8175 1.13875 48.0293C1.45577 48.3464 2.02298 48.314 2.29884 47.9632C2.5186 47.6839 2.51871 47.6758 2.51871 34.5995V21.5153H3.68538H4.85205V37.2653V53.0154H3.68538H2.51871V52.0221C2.51871 51.1779 2.48572 50.9869 2.29884 50.7494C2.0234 50.3992 1.45577 50.3662 1.13992 50.682C0.950705 50.8712 0.927795 51.0355 0.927795 52.2042C0.927795 53.3897 0.950705 53.5485 1.16855 53.8747C1.58961 54.5051 1.94121 54.606 3.7172 54.6061C5.40558 54.6063 5.63212 54.5516 6.12478 54.0246L6.38993 53.741L6.42132 50.8858L6.45272 48.0305H11.2736H16.0945L16.0951 48.6404C16.0962 49.8025 16.4688 50.5539 17.2653 51.0002L17.7384 51.2654L30.2681 51.294L42.798 51.3226L42.8381 52.408C42.871 53.2982 42.9206 53.5618 43.1134 53.8738C43.5137 54.5214 43.9112 54.6271 45.7995 54.5875C47.2914 54.5562 47.4646 54.5325 47.7671 54.3167C48.482 53.8068 48.4431 54.462 48.4424 42.9236C48.4421 35.8455 48.4054 32.3613 48.3284 32.0842C48.1662 31.4998 47.4402 30.809 46.8257 30.6544C46.4629 30.5629 42.5779 30.5305 32.0097 30.5305H17.6854V29.5034C17.6854 28.6833 17.6414 28.3853 17.4671 28.0252C17.1818 27.436 16.5338 26.8592 15.9937 26.7137C15.7042 26.6357 14.067 26.6077 11.0074 26.6285L6.45208 26.6593L6.421 23.7244L6.38993 20.7896L6.12478 20.5024C5.66818 20.008 5.31224 19.9244 3.66226 19.9246C2.42972 19.9247 2.07972 19.9593 1.78381 20.1102ZM42.9279 24.0608V26.8183H42.1855H41.443V24.0608V21.3032H42.1855H42.9279V24.0608ZM46.8521 24.5911V27.879H45.6855H44.5188V24.5911V21.3032H45.6855H46.8521V24.5911ZM15.8341 28.4575C16.0941 28.7174 16.0945 28.7214 16.0945 30.951V33.1841L11.2952 33.1565L6.49599 33.129V30.9366C6.49599 28.7621 6.49811 28.7419 6.75308 28.4707L7.01028 28.1971H11.2921H15.5738L15.8341 28.4575ZM46.64 32.3335C46.8485 32.542 46.8521 32.687 46.8521 40.9042C46.8521 47.9556 46.8286 49.2949 46.7016 49.4686C46.5539 49.6706 46.2843 49.6745 32.2688 49.6745C18.2533 49.6745 17.9837 49.6706 17.8359 49.4686C17.7088 49.2948 17.6854 47.9267 17.6854 40.6921V32.1214H32.0566C46.2865 32.1214 46.43 32.1235 46.64 32.3335ZM16.0945 38.5911V42.4093H11.2687H6.44296V38.5911V34.7729H11.2687H16.0945V38.5911ZM16.0945 45.274V46.4417L11.2952 46.4141L6.49599 46.3866L6.46587 45.2464L6.43575 44.1063H11.2651H16.0945V45.274ZM46.8521 52.1139V53.0154H45.6324H44.4127V52.1706V51.3258L45.4999 51.2915C46.0977 51.2726 46.6467 51.247 46.7196 51.2347C46.817 51.2183 46.8521 51.4514 46.8521 52.1139Z" fill="#3C3C3C"/>
</svg>
