<svg width="63" height="55" viewBox="0 0 63 55" fill="none" xmlns="http://www.w3.org/2000/svg">
<path fill-rule="evenodd" clip-rule="evenodd" d="M3.24969 0.423303C2.09882 0.700669 0.906099 1.8743 0.558679 3.07114C0.284356 4.01571 0.283379 42.4879 0.557459 43.4196C0.846548 44.4021 1.53333 45.2139 2.50408 45.7204L3.34121 46.1573L13.0245 46.1922C21.8214 46.2237 22.7079 46.2453 22.7079 46.4275C22.7079 46.6961 22.1055 51.6989 22.0303 52.0554C21.9724 52.3302 21.9343 52.3363 20.292 52.3363C18.4656 52.3363 18.167 52.4263 18.0211 53.021C17.9319 53.3846 18.2053 54.0142 18.5033 54.1312C18.7615 54.2325 44.4706 54.2325 44.7288 54.1312C45.0268 54.0142 45.3003 53.3846 45.2111 53.021C45.0651 52.4263 44.7665 52.3363 42.9401 52.3363C41.2978 52.3363 41.2597 52.3302 41.2018 52.0554C41.1266 51.6989 40.5242 46.6961 40.5242 46.4275C40.5242 46.2453 41.4107 46.2237 50.2076 46.1922L59.8909 46.1573L60.728 45.7204C61.3304 45.4061 61.691 45.1131 62.0135 44.6761C62.9187 43.4496 62.8557 45.0494 62.8557 23.2599C62.8557 5.99111 62.8337 3.62288 62.6674 3.05017C62.4025 2.13781 61.6046 1.18238 60.7218 0.720516L60.0054 0.34566L31.8688 0.326312C14.8408 0.314578 3.5417 0.3529 3.24969 0.423303ZM59.9384 2.44201C60.3204 2.64548 60.5556 2.88789 60.7507 3.27985L61.0253 3.83134V23.2385C61.0253 42.6122 61.0248 42.6467 60.7726 43.1798C60.6242 43.4933 60.3345 43.8317 60.0709 43.9993L59.6219 44.2849H31.6161H3.61016L3.16121 43.9993C2.89763 43.8317 2.60793 43.4933 2.45954 43.1798C2.2073 42.6467 2.20682 42.6122 2.20682 23.2385V3.83134L2.48138 3.27985C2.67651 2.88789 2.91166 2.64548 3.29374 2.44201L3.83165 2.15566H31.6161H59.4005L59.9384 2.44201ZM4.58091 4.58418L4.28133 4.8905V23.2459C4.28133 41.3558 4.2845 41.6044 4.52234 41.8477C4.85975 42.1928 5.20961 42.2567 6.48495 42.2067C7.4801 42.1675 7.62251 42.1316 7.83106 41.8681C8.14687 41.4691 8.12649 40.9555 7.78188 40.6242C7.56027 40.4113 7.35002 40.3529 6.80564 40.3529H6.11178V23.2515V6.15014H29.303H52.4943L52.8074 5.82983C53.06 5.57144 53.1062 5.43263 53.0456 5.11207C53.0044 4.8935 52.8548 4.61638 52.7133 4.49617C52.4704 4.28983 51.144 4.27772 28.6683 4.27772H4.88037L4.58091 4.58418ZM55.4674 4.58418C55.083 4.97726 55.0758 5.51888 55.4502 5.87876C55.6718 6.09172 55.8821 6.15014 56.4265 6.15014H57.1203V23.2515V40.3529H33.8825H10.6446L10.3917 40.6818C10.2526 40.8627 10.1388 41.0847 10.1388 41.1752C10.1388 41.5053 10.417 41.9514 10.7071 42.0867C10.9217 42.1867 17.5556 42.2253 34.5566 42.2253C59.703 42.2253 58.653 42.2497 58.875 41.6579C58.9166 41.5468 58.9508 33.2287 58.9508 23.1732V4.8905L58.6512 4.58418C58.3709 4.29732 58.2688 4.27772 57.0593 4.27772C55.8499 4.27772 55.7477 4.29732 55.4674 4.58418ZM17.4997 10.4179C17.3535 10.4901 17.1726 10.7007 17.0977 10.8857C16.852 11.4923 17.0963 11.8049 18.6455 12.8666L20.0849 13.8531L21.7793 19.9566C22.7113 23.3135 23.5754 26.2449 23.6996 26.4707L23.9255 26.8811L23.2354 28.2807C22.4144 29.9455 22.3407 30.5372 22.855 31.3323C23.1635 31.8089 23.1671 31.8377 22.9989 32.4982C22.865 33.0242 22.8556 33.3195 22.957 33.8215C23.4991 36.5053 26.963 37.0298 28.2429 34.6219C28.552 34.0405 28.5863 33.8673 28.5439 33.1024L28.4964 32.2391H32.5941H36.6919L36.6414 33.0507C36.5984 33.7404 36.6397 33.9643 36.9161 34.5423C38.0628 36.9398 41.4462 36.6092 42.1842 34.0273C42.3706 33.3757 42.3741 33.2285 42.2181 32.6119C42.0768 32.0535 42.0728 31.8652 42.1967 31.6133C42.3649 31.2712 42.3032 30.9194 42.0163 30.5851C41.841 30.3809 41.2614 30.3667 33.1225 30.3667C27.2861 30.3667 24.4163 30.3247 24.4163 30.2393C24.4163 30.1693 24.658 29.6196 24.9535 29.0178L25.4908 27.9237L25.9602 27.9646C26.702 28.0295 39.6465 26.4126 40.3412 26.1683C41.1806 25.8731 42.2445 24.7813 42.5155 23.9368C42.6254 23.5943 43.073 21.4636 43.5101 19.2021C44.2475 15.3872 44.2913 15.0692 44.1166 14.7963C44.013 14.6345 43.8076 14.4514 43.66 14.3894C43.5126 14.3273 38.8616 14.0761 33.3245 13.831C22.167 13.3373 21.7335 13.31 21.7276 13.0993C21.7253 13.019 21.6274 12.8356 21.5098 12.6918C21.2119 12.3272 18.174 10.2676 17.9494 10.2779C17.8484 10.2825 17.6461 10.3455 17.4997 10.4179ZM25.9717 15.4389C26.0324 15.5011 26.6027 18.8252 26.6106 19.1634C26.6118 19.2148 25.9097 19.257 25.0502 19.257H23.4876L22.927 17.2419L22.3663 15.2268L24.1315 15.2944C25.1022 15.3316 25.9303 15.3966 25.9717 15.4389ZM30.7313 15.5938L31.7381 15.674V17.4655V19.257H30.1158H28.4935L28.2229 17.5406C28.074 16.5967 27.9528 15.7541 27.9537 15.6682C27.9554 15.4911 29.0667 15.4613 30.7313 15.5938ZM37.0652 15.9267C37.0882 15.9503 37.0429 16.7093 36.9643 17.6133L36.8214 19.257H35.195H33.5685V17.49V15.723L35.2959 15.8034C36.2459 15.8476 37.0421 15.9032 37.0652 15.9267ZM42.19 16.1759C42.2279 16.2147 41.8981 18.0335 41.6822 18.9762C41.6198 19.2483 41.5722 19.257 40.1401 19.257H38.6623L38.7446 18.2272C38.7897 17.6608 38.8599 16.9222 38.9004 16.5861L38.9741 15.9747L40.5595 16.0523C41.4315 16.095 42.1653 16.1506 42.19 16.1759ZM26.9053 21.2334C26.9827 21.3616 27.734 25.8925 27.6852 25.9374C27.6659 25.9551 27.2606 26.0089 26.7844 26.0569C25.4886 26.1872 25.4058 26.0853 24.6568 23.4387C24.3265 22.2716 24.0548 21.2745 24.0532 21.2231C24.0491 21.0941 26.8272 21.1041 26.9053 21.2334ZM31.6771 23.3139V25.436L30.644 25.5859C30.0757 25.6683 29.5928 25.7172 29.5707 25.6946C29.5324 25.6555 28.8138 21.4226 28.8108 21.2191C28.81 21.1654 29.4545 21.1373 30.2432 21.1566L31.6771 21.1918V23.3139ZM36.5766 21.9096C36.5345 22.3388 36.4639 23.1801 36.4199 23.7794C36.3301 24.9991 36.393 24.9323 35.2159 25.0549C34.8132 25.0968 34.2779 25.1626 34.0261 25.2009L33.5685 25.2707V23.2001V21.1294H35.1107H36.653L36.5766 21.9096ZM41.2174 21.4103C41.1814 21.5648 41.0852 22.0458 41.0037 22.4793C40.7471 23.8442 40.1312 24.4562 38.8818 24.5881C38.2672 24.6531 38.2057 24.6372 38.2057 24.4141C38.2057 24.0147 38.4569 21.4551 38.5127 21.2855C38.5497 21.1731 38.9447 21.1294 39.9235 21.1294C41.2713 21.1294 41.2823 21.1318 41.2174 21.4103ZM26.4525 32.5104C26.9982 33.035 26.7373 34.0003 25.9756 34.2749C25.5901 34.4138 25.0114 34.1052 24.8314 33.6647C24.4109 32.6349 25.6579 31.747 26.4525 32.5104ZM40.0671 32.4132C40.4392 32.7022 40.5682 33.288 40.3533 33.713C40.153 34.1094 39.5589 34.401 39.209 34.2749C38.0886 33.8709 38.2562 32.2325 39.4167 32.2431C39.6567 32.2452 39.9494 32.3218 40.0671 32.4132ZM28.2024 47.0935C28.573 48.5861 29.0583 49.2613 30.1986 49.8703C30.9238 50.2578 32.3224 50.2483 33.0804 49.8506C34.1616 49.2835 34.6616 48.5764 35.0297 47.0935L35.2312 46.2822L36.9356 46.2477L38.6401 46.2133L39.0081 49.2748L39.3761 52.3363H31.6161H23.856L24.224 49.2748L24.592 46.2133L26.2965 46.2477L28.0009 46.2822L28.2024 47.0935ZM33.2761 46.6228C33.0822 47.6146 32.38 48.3418 31.6161 48.3418C30.8521 48.3418 30.1499 47.6146 29.956 46.6228L29.8771 46.2197H31.6161H33.355L33.2761 46.6228Z" fill="#3C3C3C"/>
</svg>
