<svg width="62" height="57" viewBox="0 0 62 57" fill="none" xmlns="http://www.w3.org/2000/svg">
<path fill-rule="evenodd" clip-rule="evenodd" d="M29.7834 0.81148C29.483 0.947971 28.1436 2.11306 26.3694 3.78148C24.7636 5.29151 23.1201 6.83171 22.7173 7.20406L21.9849 7.88113L21.924 7.12408C21.8573 6.29257 21.6384 5.85903 21.1548 5.60029C20.6948 5.35425 15.3037 5.35425 14.8437 5.60029C14.0954 6.00067 14.1026 5.94727 14.1409 10.8218L14.1756 15.255L10.3486 18.8667C6.74387 22.2685 6.50644 22.5186 6.25907 23.1737C5.25606 25.8293 8.04864 28.3329 10.5396 27.0114C10.8182 26.8636 11.6943 26.1322 12.4862 25.3859L13.9263 24.0291V27.8831C13.9263 31.4917 13.9132 31.732 13.7185 31.6573C13.6042 31.6135 12.6943 31.5457 11.6964 31.5068L9.88218 31.4359L9.80443 30.775C9.69602 29.8528 9.38276 29.2208 8.7432 28.6344C7.91651 27.8765 7.26856 27.7302 4.96532 27.7813C3.37305 27.8167 3.00241 27.8612 2.54481 28.0717C1.89446 28.3709 1.31311 28.9294 0.954211 29.6001C0.69019 30.0934 0.689232 30.1196 0.65593 37.4897C0.634127 42.2952 0.664674 44.9633 0.743258 45.1099C0.919951 45.4398 1.4916 45.6102 1.83995 45.4366C2.42418 45.1454 2.42274 45.1657 2.42454 37.6039C2.42645 29.7967 2.39615 30.123 3.15694 29.7298C3.67768 29.4607 6.87912 29.4841 7.34738 29.7606C8.08698 30.1973 8.05667 29.7005 8.05475 41.3677C8.05343 49.5723 8.01917 52.0714 7.90501 52.2934C7.82367 52.4517 7.60493 52.6941 7.4189 52.8322C7.11007 53.0612 6.92128 53.0831 5.25078 53.0831C2.65933 53.0831 2.52744 52.9861 2.42537 51.0052C2.36799 49.8904 2.33325 49.7425 2.08121 49.5385C1.67548 49.2102 1.17702 49.2469 0.877784 49.6271C0.666831 49.8951 0.629456 50.1108 0.629456 51.0593C0.629456 52.9214 1.21069 53.9635 2.60602 54.603C3.15551 54.8549 3.37317 54.8776 5.24144 54.8783C7.22843 54.8791 7.29443 54.8709 7.95856 54.545C9.00003 54.0338 9.42781 53.4423 9.81246 51.982L9.91332 51.5992L16.335 54.0308C19.8668 55.3682 22.9599 56.5004 23.2084 56.547C23.4569 56.5936 24.0171 56.6296 24.4534 56.627C25.3475 56.6217 43.8989 53.9652 45.0123 53.683C46.0537 53.419 47.7847 52.5271 48.5457 51.8622C52.9453 48.0191 61.0861 40.5709 61.3614 40.137C62.2933 38.6683 62.0807 36.7382 60.8518 35.5099C59.7495 34.4081 58.0495 34.0938 56.6592 34.7345C56.2788 34.9098 54.2486 36.2099 52.1477 37.6236C50.0469 39.0371 48.2963 40.1619 48.2574 40.1231C48.1646 40.0305 48.1654 24.0488 48.2581 24.0488C48.2973 24.0488 49.0003 24.672 49.8203 25.4337C50.6403 26.1954 51.5381 26.9216 51.8154 27.0474C52.9508 27.5626 54.5236 27.2139 55.3602 26.2615C55.9112 25.6343 56.1216 25.0777 56.1284 24.2284C56.1384 23.0141 55.9062 22.6718 53.5703 20.4569C49.5154 16.6119 49.6986 16.7556 49.1446 16.985C48.6857 17.1749 48.4724 17.6967 48.6865 18.1052C48.7745 18.2729 50.0053 19.4913 51.4216 20.8126C52.8379 22.1339 54.0969 23.4037 54.2193 23.6342C54.7907 24.7103 53.6964 25.9162 52.5817 25.4386C52.3717 25.3487 47.5639 20.9304 41.8977 15.6203C36.2316 10.3102 31.4667 5.93182 31.3093 5.89051C31.1518 5.84933 30.8994 5.8637 30.7485 5.92248C30.5975 5.98139 25.9584 10.2859 20.4392 15.4881C14.9201 20.6904 10.2192 25.0948 9.99263 25.276C9.38696 25.7603 8.75913 25.7328 8.22426 25.1982C7.90166 24.8757 7.81709 24.6953 7.8178 24.3301C7.81816 24.0766 7.91256 23.7293 8.02744 23.5585C8.41521 22.9816 30.1487 2.5976 30.5717 2.41406C31.3833 2.06181 31.4019 2.07654 37.9593 8.21206C45.6155 15.3758 44.9987 14.8296 45.432 14.8296C45.89 14.8296 46.2701 14.4522 46.2701 13.9973C46.2701 13.5711 46.9242 14.2208 39.2284 7.00256C35.2804 3.29945 32.8676 1.12266 32.4765 0.911095C31.7176 0.500543 30.5626 0.457919 29.7834 0.81148ZM20.1555 8.40124V9.63553L18.6282 11.0692C17.7882 11.8577 16.8178 12.7643 16.4719 13.084L15.843 13.6651V10.416V7.16695H17.9993H20.1555V8.40124ZM39.8475 16.0868L46.504 22.3127L46.5069 31.8585L46.5097 41.4041L45.2609 42.2416L44.0119 43.0791L42.7187 42.9926L41.4254 42.9061L41.2784 42.0271C40.9121 39.8368 39.4547 38.1267 37.3944 37.4698L36.964 37.3325L36.8853 35.1613C36.842 33.9671 36.8066 31.2663 36.8066 29.1594V25.3287L36.3224 24.8683L35.8382 24.408H31.1555C26.7013 24.408 26.4542 24.4195 26.09 24.6444C25.3679 25.0905 25.3721 25.0582 25.3066 30.7149L25.2467 35.8844L23.9889 35.4774C23.2932 35.2523 21.6869 34.5444 20.3951 33.8934C18.9555 33.1681 17.611 32.5826 16.8912 32.3677L15.7232 32.0189L15.7269 27.1658L15.7307 22.3127L23.402 15.0969L31.0734 7.88101L32.1322 8.87094C32.7145 9.41534 36.1864 12.6625 39.8475 16.0868ZM35.1295 31.5917C35.1295 35.9222 35.0975 37.0976 34.9798 37.0914C34.8975 37.087 33.105 36.8828 30.9967 36.6376L27.1633 36.1918L27.1321 31.1379L27.1008 26.0842H31.1152H35.1295V31.5917ZM13.7467 33.4494C15.9829 33.7858 17.7027 34.386 19.9558 35.6163C21.7692 36.6063 23.4211 37.2355 25.2467 37.6315C25.7079 37.7314 28.4301 38.0848 31.2962 38.4168C34.1622 38.7487 36.6958 39.0779 36.9264 39.1485C37.6045 39.3562 38.5143 40.0416 38.9337 40.6611C39.3162 41.2261 39.693 42.5156 39.5247 42.6839C39.4778 42.7306 35.285 42.4058 30.2071 41.9621C21.6853 41.2175 20.9524 41.1698 20.6867 41.3438C20.1081 41.7227 20.2087 42.5832 20.8604 42.8289C21.0328 42.8939 25.648 43.3289 31.1165 43.7955C42.1778 44.7393 42.363 44.7539 43.6501 44.7854L44.5639 44.8077L50.995 40.5045L57.4259 36.2013H58.1882C59.0404 36.2013 59.4223 36.4018 59.8965 37.0981C60.2647 37.6389 60.2645 38.5553 59.8959 39.1479C59.5606 39.6871 47.5444 50.5063 46.6354 51.0875C45.9153 51.5478 45.1266 51.879 44.3236 52.0582C44.0436 52.1207 39.475 52.7983 34.1712 53.5639C27.0389 54.5935 24.372 54.9365 23.929 54.8812C23.5981 54.8399 20.3158 53.6707 16.5946 52.2686L9.85918 49.7307L9.8563 41.4993L9.85343 33.2679L11.2011 33.2686C11.9424 33.269 13.0878 33.3504 13.7467 33.4494Z" fill="#3C3C3C"/>
</svg>
