<svg width="63" height="61" viewBox="0 0 63 61" fill="none" xmlns="http://www.w3.org/2000/svg">
<path fill-rule="evenodd" clip-rule="evenodd" d="M29.8124 0.280828C29.2043 0.43234 29.0596 0.507129 19.1344 5.80157C14.5812 8.23047 10.6623 10.3698 10.4257 10.5556C9.46314 11.3117 8.93416 12.9956 9.26758 14.242L9.43314 14.8609L7.9849 14.9217C6.89359 14.9677 6.36689 15.048 5.84726 15.2478C4.94084 15.5964 3.94719 16.515 3.51263 17.4061L3.17741 18.0936L3.11742 34.9483L3.05743 51.8031L2.09942 51.8388C0.674566 51.8921 0.5979 51.9923 0.5979 53.8012C0.5979 55.575 0.729995 56.2942 1.25298 57.3683C1.80391 58.4998 2.7936 59.4524 4.04185 60.0526L4.97707 60.5023L30.9521 60.5349C48.3616 60.5568 57.1181 60.5267 57.506 60.4437C58.4832 60.2346 59.3995 59.708 60.2398 58.8726C61.5787 57.5417 62.0215 56.309 62.0245 53.9036C62.026 52.672 61.9963 52.4618 61.7814 52.1867C61.5583 51.9012 61.4483 51.87 60.5516 51.8381L59.5667 51.8031L59.5067 34.9483L59.4467 18.0936L59.1151 17.4138C58.7498 16.665 57.8798 15.772 57.1504 15.3973C56.5152 15.071 55.4777 14.8918 54.2233 14.8918H53.1831L53.3527 14.2575C53.6728 13.0604 53.2559 11.592 52.3483 10.7201C52.051 10.4345 49.7318 9.12782 45.7933 7.02708C39.4575 3.64767 39.1438 3.51344 38.7093 3.99709C38.4453 4.29081 38.4519 5.01671 38.7207 5.24978C38.8361 5.34994 41.5761 6.83666 44.8095 8.55367C51.0186 11.8509 51.4963 12.1614 51.6525 13.0001C51.747 13.5063 51.4811 14.3709 51.134 14.687C50.8979 14.9019 39.4047 21.0582 39.2636 21.0452C39.2125 21.0404 37.7129 19.3532 35.9312 17.2955C31.5283 12.2106 31.7809 12.4753 31.3312 12.4753C30.8328 12.4753 30.4722 12.8457 30.4722 13.3573C30.4722 13.7077 30.9043 14.2526 34.0252 17.8382C35.9794 20.0833 37.5317 21.9643 37.4746 22.0181C37.4176 22.072 36.3451 22.6615 35.0914 23.3281C32.4336 24.7412 31.7684 24.9417 30.5622 24.6929C29.9635 24.5694 27.9865 23.5642 20.7541 19.7058C15.772 17.048 11.6033 14.7893 11.4902 14.6865C11.377 14.5838 11.1951 14.2641 11.086 13.9761C10.8256 13.2896 10.9393 12.6962 11.433 12.1648C11.7023 11.8752 14.3773 10.385 20.4541 7.1392C25.2052 4.60168 29.4106 2.39377 29.7993 2.23296C30.3952 1.98636 30.662 1.94697 31.4991 1.98225C32.4696 2.02321 32.5344 2.0458 34.3451 2.97517C36.1154 3.88376 36.2133 3.9188 36.5416 3.76028C36.9604 3.55814 37.1622 3.05673 37.0042 2.61113C36.9195 2.37203 36.5593 2.11057 35.5713 1.57073C33.3795 0.373016 32.9937 0.241319 31.552 0.198548C30.8592 0.178008 30.0763 0.21498 29.8124 0.280828ZM13.4826 17.8821L15.6884 19.0602L11.7317 19.1206L7.77506 19.181L7.54578 19.4662C7.32311 19.7434 7.31663 20.1587 7.31663 34.2838C7.31663 48.4122 7.32299 48.8241 7.54602 49.1014C7.77494 49.3861 7.77962 49.3866 10.5329 49.3866C13.0761 49.3866 13.31 49.3687 13.5428 49.1565C13.8724 48.8561 13.8788 48.202 13.5554 47.8763C13.3337 47.6531 13.1556 47.6347 11.2159 47.6347H9.11629V34.2838V20.9329H13.1355H17.1548V23.0524C17.1548 25.6809 17.3239 26.6245 18.0744 28.1823C18.5411 29.1509 18.7887 29.4908 19.6607 30.3592C21.112 31.8048 22.7019 32.5817 25.7331 33.3264C29.5754 34.2705 34.3974 34.167 37.9408 33.0642C38.1181 33.009 38.1508 33.0792 38.1508 33.5165C38.1508 33.9469 37.9754 34.3396 37.1082 35.8504C36.1937 37.4437 36.0592 37.7527 36.0137 38.3657C35.9505 39.2159 36.1953 39.9372 36.7358 40.494C37.4021 41.1804 37.7247 41.2915 39.0506 41.2915C40.1053 41.2915 40.3127 41.2556 40.7656 40.9944C41.3448 40.6605 41.947 39.8334 42.0624 39.2134C42.2396 38.2621 42.0737 37.7414 40.9908 35.8504L39.9504 34.0341L39.9578 33.1923L39.965 32.3506L40.9443 31.8771C41.7215 31.5015 42.1376 31.1898 42.9602 30.3669C43.833 29.4938 44.084 29.1488 44.5498 28.1823C45.3002 26.6245 45.4694 25.6809 45.4694 23.0524V20.9329H49.4886H53.5079V34.2838V47.6347H34.81C16.2246 47.6347 16.1108 47.6361 15.8936 47.8779C15.594 48.2113 15.6151 48.7959 15.9383 49.1215L16.2017 49.3866H35.5252H54.8489L55.0781 49.1014C55.3012 48.8241 55.3075 48.4122 55.3075 34.2838C55.3075 20.1587 55.301 19.7434 55.0784 19.4662L54.8491 19.181L50.8925 19.1206L46.9358 19.0602L49.1415 17.8821L51.3472 16.7041H53.3343C54.4271 16.7041 55.5546 16.7633 55.8397 16.8356C56.5077 17.005 57.1987 17.5824 57.48 18.2058C57.6923 18.6765 57.7019 19.4105 57.7044 35.2806L57.7071 51.8635H31.3121H4.91708L4.91972 35.2806C4.92224 19.3359 4.931 18.6785 5.14696 18.1995C5.40995 17.6164 6.04535 17.0645 6.68411 16.8645C6.9507 16.781 7.98742 16.7189 9.20675 16.7134L11.277 16.7041L13.4826 17.8821ZM23.5136 23.2306C28.6584 25.982 29.1545 26.2246 30.0837 26.4448C31.0611 26.6763 32.1679 26.6114 33.1792 26.2634C33.571 26.1285 34.8094 25.5275 35.9312 24.9279C37.053 24.3284 38.0121 23.8366 38.0626 23.8352C38.113 23.8337 38.14 25.4755 38.1226 27.4833L38.0908 31.134L37.131 31.4044C35.4345 31.8821 34.0656 32.0737 31.912 32.135C29.5729 32.2014 27.9279 32.0291 25.8763 31.5028C22.067 30.5257 20.2425 29.1501 19.2959 26.5415C19.0695 25.9177 19.0294 25.5046 18.9831 23.3096L18.9298 20.7931L19.3321 21.0013C19.5532 21.1158 21.4349 22.119 23.5136 23.2306ZM43.639 23.6514C43.5933 25.4843 43.5442 25.9387 43.3268 26.5415C42.8079 27.9795 41.9251 29.1302 40.7254 29.9321C40.3758 30.1658 40.0584 30.3571 40.0201 30.3571C39.9818 30.3571 39.9504 28.6553 39.9504 26.5752V22.7933L41.7801 21.8126L43.6097 20.8318L43.6515 21.1541C43.6744 21.3315 43.6688 22.4553 43.639 23.6514ZM39.7015 37.2281C40.4067 38.4691 40.4697 38.9125 39.9942 39.2891C39.7659 39.47 39.5038 39.5396 39.0506 39.5396C38.258 39.5396 37.7908 39.2167 37.7908 38.6692C37.7908 38.3625 38.8969 36.1566 39.0506 36.1566C39.0736 36.1566 39.3666 36.6388 39.7015 37.2281ZM12.0503 39.8362C11.8884 39.9993 11.7558 40.2736 11.7558 40.4458C11.7558 40.6179 11.8884 40.8922 12.0503 41.0553L12.3448 41.3519H18.7091C24.9133 41.3519 25.0793 41.3459 25.3132 41.1103C25.6705 40.7505 25.6332 40.1038 25.237 39.7901C24.9264 39.5439 24.8127 39.5396 18.6329 39.5396H12.3448L12.0503 39.8362ZM12.0045 43.7243C11.8677 43.8993 11.7558 44.1143 11.7558 44.2019C11.7558 44.5351 12.0391 44.9654 12.3414 45.0915C12.5608 45.183 15.4458 45.2129 21.8747 45.1902L31.0934 45.1578L31.3228 44.8726C31.6201 44.5027 31.6153 43.9529 31.3121 43.6476C31.0762 43.41 30.9122 43.4059 21.6627 43.4059H12.2531L12.0045 43.7243ZM23.9467 53.8873C24.3269 55.112 25.1287 56.1038 26.1982 56.6719L26.8129 56.9984H31.3121H35.8112L36.4488 56.6603C37.4944 56.1056 38.3 55.1031 38.6775 53.8873C38.7394 53.6879 39.3604 53.6758 49.5015 53.6758H60.2598L60.1998 54.7368C60.1522 55.5768 60.0686 55.944 59.7982 56.5002C59.3732 57.3743 58.5112 58.1728 57.6368 58.5022C56.98 58.7496 56.9084 58.7504 31.3121 58.7504C5.71577 58.7504 5.64414 58.7496 4.98739 58.5022C4.11299 58.1728 3.25096 57.3743 2.826 56.5002C2.55557 55.944 2.47195 55.5768 2.42431 54.7368L2.36433 53.6758H13.1227C23.2638 53.6758 23.8848 53.6879 23.9467 53.8873ZM36.831 53.7749C36.831 53.9955 35.9198 54.9265 35.5524 55.081C35.2471 55.2095 34.2965 55.2465 31.304 55.2465C26.988 55.2465 26.9857 55.2462 26.2158 54.388C25.9834 54.1288 25.7931 53.8626 25.7931 53.7963C25.7931 53.718 27.7234 53.6758 31.3121 53.6758C34.3475 53.6758 36.831 53.7204 36.831 53.7749Z" fill="#3C3C3C"/>
</svg>
