<svg width="55" height="54" viewBox="0 0 55 54" fill="none" xmlns="http://www.w3.org/2000/svg">
<path fill-rule="evenodd" clip-rule="evenodd" d="M23.1503 0.301672C19.0538 0.901598 15.5923 3.85437 14.3604 7.79989C13.4028 10.8669 13.9035 14.3892 15.6713 17.0211C16.2449 17.8751 17.438 19.1332 18.2476 19.7378C18.6173 20.0138 18.8101 20.2195 18.7248 20.2468C18.6461 20.272 18.3192 20.3742 17.9984 20.4739C17.0571 20.7665 16.7354 21.2207 17.0506 21.812C17.2603 22.2056 17.5986 22.2369 18.5741 21.9528C22.5195 20.8042 26.666 20.784 30.4928 21.8946C31.0952 22.0696 31.6678 22.1844 31.7653 22.1498C32.1383 22.0174 32.3135 21.7662 32.3135 21.3635C32.3135 20.8777 32.0997 20.6951 31.2531 20.458C30.9323 20.3681 30.6017 20.272 30.5185 20.2447C30.4176 20.2114 30.5063 20.1016 30.7836 19.9157C31.5578 19.3972 32.5007 18.504 33.0712 17.7488C33.6954 16.9226 33.6502 16.9366 34.7594 17.2264L35.1377 17.3253L34.9906 18.1516C34.8969 18.6783 34.8603 19.4223 34.8899 20.2026C34.9668 22.2292 35.5471 23.588 36.8531 24.8001C38.0187 25.8818 39.4749 26.4173 41.2206 26.4064C42.7095 26.3971 43.5178 26.1138 44.2904 25.3304C44.6844 24.931 44.9907 24.4871 45.1998 24.0123C45.3732 23.6185 45.5496 23.2951 45.5916 23.2935C45.7344 23.2882 46.8332 24.9372 47.2569 25.793C47.4889 26.2615 47.7947 26.969 47.9364 27.3652C48.2448 28.228 48.5598 28.713 49.015 29.0261C49.2008 29.154 49.997 29.4748 50.7845 29.7392C51.8713 30.104 52.2904 30.2975 52.524 30.5423L52.8317 30.8649V33.3V35.7352L52.5161 36.0659C52.2552 36.3395 51.8353 36.5154 50.0909 37.0817C48.825 37.4927 47.8393 37.8755 47.6259 38.0389C47.4304 38.1887 46.9602 38.7836 46.5811 39.361C45.3721 41.2024 43.6606 42.825 41.6651 44.0219C40.2759 44.8551 39.9513 45.0973 39.8441 45.3804C39.7904 45.5226 39.4837 47.0326 39.1626 48.7361C38.8415 50.4396 38.5502 51.8801 38.5151 51.9372C38.4771 51.9989 37.6137 52.041 36.3874 52.041C34.3479 52.041 34.3224 52.0383 34.2225 51.8015C34.1667 51.6696 33.9774 50.7953 33.8016 49.8584C33.3476 47.4389 33.1649 47.2455 31.5313 47.4561C29.5508 47.7113 27.2357 47.7852 25.1335 47.6602C22.3548 47.4949 22.4097 47.4536 21.918 50.0738C21.7445 50.998 21.5493 51.8188 21.4842 51.8977C21.3192 52.0973 17.4398 52.1067 17.2834 51.9079C17.2258 51.8348 16.9271 50.4571 16.6196 48.8466C16.3121 47.236 15.9922 45.7823 15.9086 45.6162C15.825 45.45 15.6116 45.2343 15.4344 45.137C12.7131 43.6414 10.4502 41.3602 9.20327 38.8554C8.73448 37.9138 8.1834 36.2008 7.96412 35.0038C7.73603 33.7587 7.70507 30.5536 7.90961 29.3602C8.64223 25.0852 10.5951 22.0277 14.0521 19.7436C15.0889 19.0586 15.2532 18.8248 15.0686 18.2978C15.0152 18.1451 14.8305 17.9523 14.658 17.8694C14.3675 17.7295 14.3058 17.7401 13.8122 18.0142C12.2457 18.884 10.3892 20.5227 9.26774 22.0255C7.79329 24.0015 6.96694 25.9695 6.37833 28.9076C6.29573 29.3195 6.15448 29.1704 6.08726 28.6004C5.85981 26.6712 4.11878 25.1223 2.63033 25.5248C1.72159 25.7705 0.820384 26.9303 0.820384 27.8541C0.820384 28.9683 1.86114 29.8902 3.61203 30.3268L4.12376 30.4544L3.61203 30.9808C2.9739 31.6373 2.289 31.9954 1.31473 32.1817C0.225939 32.3901 -0.107019 32.8995 0.41214 33.5624C0.630789 33.8414 0.673946 33.852 1.45162 33.8164C2.13503 33.7851 2.39228 33.715 3.08343 33.372C3.97616 32.9289 5.1554 31.8553 5.53661 31.1386C5.67339 30.8815 5.82163 30.7444 5.96288 30.7444C6.16477 30.7444 6.17675 30.7971 6.14006 31.527C6.09245 32.4743 6.27781 34.627 6.50271 35.7371C6.89176 37.6583 7.73349 39.6774 8.86045 41.3927C9.91446 42.9972 12.1468 45.0466 14.0893 46.1933L14.5551 46.4683L15.0638 49.1748C15.3436 50.6634 15.6443 52.0828 15.732 52.3289C15.9216 52.8612 16.4627 53.3696 17.0158 53.5354C17.2744 53.6129 18.2001 53.6428 19.642 53.6201C21.7495 53.587 21.8898 53.572 22.2611 53.3401C22.864 52.9636 23.0433 52.5604 23.3829 50.8165L23.694 49.2192L24.1598 49.233C27.2598 49.3246 30.2473 49.2449 31.8855 49.0269C32.0013 49.0115 32.0883 49.2628 32.229 50.0179C32.6317 52.1822 32.744 52.5732 33.0693 52.9454C33.6286 53.5852 33.9899 53.6546 36.5676 53.6177L38.851 53.5851L39.3029 53.2845C39.5934 53.0913 39.8242 52.825 39.9489 52.5391C40.0556 52.2945 40.394 50.7478 40.701 49.1022L41.2591 46.1102L41.7965 45.8107C44.3384 44.3945 46.6723 42.2164 48.1367 39.8937C48.5615 39.2201 48.426 39.2883 50.976 38.4629C53.3143 37.7061 53.8172 37.3592 54.2604 36.1976C54.4526 35.6941 54.4753 35.3885 54.4753 33.3C54.4753 31.2139 54.4525 30.9054 54.261 30.4024C53.8507 29.3245 53.277 28.8943 51.4532 28.2966C50.6666 28.0389 49.9784 27.7473 49.8504 27.6176C49.7271 27.4925 49.4535 26.935 49.2425 26.3786C48.6447 24.8025 47.8267 23.4714 46.4184 21.7832L46.0938 21.3939L46.2665 20.4522C46.489 19.2399 46.5847 16.2077 46.4275 15.3576C46.2588 14.4454 45.8092 13.5969 45.3561 13.3355C44.374 12.7691 41.9107 13.3261 38.0015 14.9988C37.1768 15.3516 36.3999 15.7062 36.2751 15.7865C36.1118 15.8918 35.9486 15.9062 35.6919 15.8383C35.496 15.7864 35.1384 15.6926 34.8975 15.6299L34.4594 15.516L34.7243 14.8573C35.0512 14.0445 35.3853 12.4587 35.3872 11.7106C35.3889 11.0319 35.1471 10.7256 34.6097 10.7256C34.0862 10.7256 33.897 11.0046 33.7939 11.9289C33.4375 15.1193 31.5699 17.8528 28.7862 19.2584L27.9621 19.6745L26.27 19.5474C24.9498 19.4483 24.2263 19.4488 22.9783 19.5501C21.38 19.6797 21.3782 19.6796 20.8163 19.4212C18.3934 18.3074 16.5096 16.0821 15.7535 13.4409C15.5454 12.714 15.5107 12.3549 15.5169 10.9918C15.5234 9.57667 15.5566 9.28767 15.8083 8.45678C16.2923 6.8589 17.0196 5.63509 18.1745 4.47538C22.3708 0.261422 29.4793 1.15897 32.5255 6.2873C33.1423 7.32561 33.5114 7.52197 34.0488 7.09742C34.4827 6.75476 34.4212 6.34363 33.7785 5.29051C32.7206 3.55718 30.76 1.86708 28.8887 1.07527C27.0784 0.309339 25.0056 0.0299273 23.1503 0.301672ZM24.7 5.42276C24.63 5.49304 24.5727 5.65543 24.5727 5.78363C24.5727 5.96913 24.4916 6.03131 24.1751 6.0886C23.0741 6.28794 22.237 7.03066 22.021 7.99944C21.7167 9.36487 22.3776 10.4816 23.8365 11.0674L24.5197 11.3418L24.549 13.0064L24.5781 14.6709L24.2839 14.6007C23.7722 14.4789 23.3661 14.2771 22.941 13.9337C22.4556 13.5415 22.1033 13.5096 21.8748 13.8374C21.3103 14.6466 22.4117 15.7372 23.9895 15.9314C24.4702 15.9905 24.5229 16.0239 24.5532 16.2894C24.6242 16.9083 25.421 16.8921 25.421 16.2717C25.421 16.0041 25.4738 15.9551 25.8717 15.8539C27.3707 15.4727 28.2029 14.0355 27.8667 12.4088C27.7997 12.0847 27.629 11.6618 27.4874 11.4691C27.158 11.0209 26.411 10.4872 25.8549 10.3029L25.421 10.1591V8.73864C25.421 7.11137 25.3957 7.14332 26.3754 7.53113C26.6713 7.64826 26.9997 7.74409 27.1051 7.74409C27.4162 7.74409 27.6668 7.38013 27.6287 6.98338C27.6007 6.69034 27.5156 6.58492 27.1396 6.37728C26.8724 6.22969 26.4234 6.10202 26.0527 6.06826C25.4937 6.01736 25.421 5.98435 25.421 5.78065C25.421 5.5088 25.2343 5.29498 24.9969 5.29498C24.9036 5.29498 24.77 5.35248 24.7 5.42276ZM24.6788 8.59777V9.87737L24.1524 9.60946C23.5585 9.30726 23.3828 9.05405 23.3677 8.47893C23.356 8.0267 23.6004 7.68702 24.0956 7.46756C24.677 7.20976 24.6788 7.21327 24.6788 8.59777ZM25.8364 11.9446C26.3951 12.2988 26.6739 12.9976 26.4952 13.5963C26.3603 14.0486 25.8426 14.559 25.5189 14.559C25.3278 14.559 25.315 14.4689 25.315 13.1215C25.315 12.3309 25.3398 11.684 25.3701 11.684C25.4005 11.684 25.6103 11.8012 25.8364 11.9446ZM44.7381 15.0648C44.8373 15.3462 44.8769 16.0615 44.872 17.4873C44.8664 19.1534 44.8239 19.7031 44.6314 20.6019C44.3334 21.9937 43.8369 23.3726 43.4315 23.9346C42.8589 24.7285 41.6071 25.0438 40.2065 24.7469C38.3186 24.3467 37.0704 23.1929 36.6115 21.4234C36.3007 20.2254 36.4787 17.824 36.9141 17.3409C37.1202 17.1122 39.2593 16.1474 40.8592 15.5615C42.1609 15.0849 43.6919 14.6776 44.2079 14.6707C44.564 14.6659 44.6094 14.6998 44.7381 15.0648ZM3.63684 27.2345C3.98613 27.4512 4.53169 28.3665 4.53169 28.7354C4.53169 28.9112 4.49712 28.9111 3.85708 28.7329C3.0039 28.4953 2.47298 28.187 2.43204 27.9053C2.39451 27.6482 2.88588 27.0175 3.12362 27.0175C3.21365 27.0175 3.4446 27.1152 3.63684 27.2345ZM40.7938 28.8011C40.2312 29.5172 41.0427 31.1603 42.1981 31.6441C42.7324 31.8679 43.7156 31.8515 44.245 31.61C45.3984 31.0839 46.1362 29.5206 45.5708 28.8011C45.1228 28.2311 44.1896 28.577 44.1896 29.3131C44.1896 29.4472 44.0661 29.7042 43.9151 29.8844C43.6866 30.1572 43.5639 30.212 43.1823 30.212C42.8007 30.212 42.678 30.1572 42.4495 29.8844C42.2912 29.6955 42.1749 29.425 42.1749 29.2455C42.1749 28.5313 41.2417 28.2311 40.7938 28.8011Z" fill="#3C3C3C"/>
</svg>
