<svg width="56" height="55" viewBox="0 0 56 55" fill="none" xmlns="http://www.w3.org/2000/svg">
<path fill-rule="evenodd" clip-rule="evenodd" d="M44.242 0.469558C42.7207 0.74651 41.0971 1.46659 40.1334 2.29167C39.5668 2.77671 39.5034 3.26314 39.9599 3.6205C40.3532 3.92857 40.5155 3.90312 41.2753 3.41434C42.9785 2.3184 44.0633 1.97708 45.8532 1.97355C47.4261 1.97055 47.9958 2.10069 49.4455 2.79457C50.4201 3.261 50.6898 3.45348 51.5013 4.26124C52.3087 5.06504 52.5089 5.34221 52.9791 6.30769C53.6768 7.74025 53.9102 8.8333 53.8222 10.2559C53.6092 13.7009 51.1988 16.6189 47.8404 17.497C46.8821 17.7476 44.9132 17.7423 43.9735 17.4865C39.2397 16.1983 36.7783 11.3014 38.5947 6.78546C38.882 6.07137 38.916 5.89675 38.815 5.65402C38.7005 5.37878 38.32 5.12535 38.0213 5.12535C37.3459 5.12535 36.5338 7.18506 36.3848 9.27675L36.3161 10.239L35.6065 10.5345C33.9854 11.2094 32.5681 12.1426 30.9766 13.5827L29.9557 14.5064L29.0964 13.7123C26.9253 11.7061 24.8354 10.507 22.422 9.88273C18.7604 8.93564 15.3187 9.54718 12.5278 11.6407C11.3833 12.4992 10.9968 12.9455 10.9968 13.4085C10.9968 13.7988 11.387 14.2145 11.7533 14.2145C11.858 14.2145 12.3227 13.8936 12.7861 13.5014C13.8379 12.611 14.6105 12.1139 15.5124 11.7473C18.1467 10.6764 21.2788 10.8514 24.175 12.2314C25.5786 12.9002 26.5926 13.6157 27.9871 14.9214C29.3592 16.2062 29.7355 16.4245 30.2741 16.2475C30.4723 16.1824 31.1845 15.6136 31.8944 14.9537C33.1809 13.7576 34.3744 12.8939 35.5454 12.3114C36.5546 11.8094 36.5434 11.8063 36.8194 12.6666C37.3293 14.2558 38.0455 15.3975 39.2995 16.6205C41.9801 19.2346 45.7668 20.0068 49.3445 18.6691L50.2908 18.3152L50.5128 19.0718C50.8504 20.2228 50.9442 20.7269 51.0557 21.9914C51.3177 24.9635 50.534 28.0582 48.8932 30.5314C48.231 31.5296 47.5274 32.2965 43.6608 36.2349C41.2037 38.7376 38.4774 41.5148 37.6022 42.4064L36.0111 44.0277L34.7557 44.2703C34.0459 44.4074 33.1504 44.5068 32.6948 44.4991C32.218 44.4909 30.3611 44.2031 28.1453 43.7939C25.0118 43.2152 24.3605 43.0641 24.1497 42.8669C23.8098 42.5491 23.7322 42.1223 23.9287 41.6538C24.1998 41.0079 24.3336 40.993 26.9657 41.317C30.2724 41.724 31.0937 41.7616 31.9394 41.5453C35.3608 40.67 35.5235 36.5903 32.202 34.9625C31.1827 34.463 27.0059 33.679 24.9609 33.6033C23.3505 33.5438 22.7569 33.6165 17.8177 34.4783L15.0249 34.9657L13.4545 33.3744C11.7334 31.6302 11.0116 30.6927 10.2817 29.2532C9.19612 27.1126 8.79138 25.1724 8.87667 22.5177C8.94058 20.529 9.18441 19.3972 9.91602 17.6925C10.4072 16.5481 10.4467 16.2332 10.1375 15.9254C9.86757 15.6567 9.26551 15.6421 9.03876 15.8987C8.62692 16.3651 7.90434 18.2388 7.54396 19.775C7.24008 21.0706 7.15565 24.0593 7.38391 25.4436C7.93613 28.7923 9.26089 31.3639 11.7594 33.9369L13.0516 35.2677L12.6955 35.3272C10.8662 35.6328 9.71719 35.8147 9.61536 35.8147C9.54812 35.8147 9.49302 35.7009 9.49302 35.5619C9.49302 35.2747 9.03392 34.7687 8.69739 34.6852C8.57375 34.6546 6.81804 34.6434 4.79594 34.6607L1.11921 34.6919L0.82156 34.9883L0.523804 35.2848L0.494801 42.6481C0.476326 47.346 0.504469 50.1127 0.572678 50.2912C0.631434 50.4451 0.837887 50.6682 1.03134 50.7869C1.36895 50.9939 1.5333 51.0014 5.10895 50.974L8.83467 50.9454L9.16389 50.6314C9.34532 50.4583 9.49302 50.2063 9.49302 50.07C9.49302 49.934 9.55188 49.8227 9.62385 49.8227C9.69592 49.8227 13.2124 50.7582 17.4383 51.9016C21.6644 53.0451 25.5288 54.0382 26.0261 54.1087C27.9522 54.3814 29.3513 54.1348 33.5952 52.7744C34.961 52.3366 38.4469 51.2229 41.3418 50.2996C44.2366 49.3761 46.8411 48.5021 47.1297 48.3572C47.8751 47.9828 48.6487 47.2211 48.9912 46.5244C49.231 46.0362 49.2856 45.778 49.2879 45.1209C49.2901 44.4287 49.2466 44.2369 48.9779 43.7539C48.4866 42.8714 47.7781 42.4179 46.568 42.2113C45.7277 42.0678 45.8252 42.054 41.6103 42.9119C40.281 43.1824 39.129 43.4044 39.0503 43.4053C38.898 43.4069 40.0592 42.1896 45.7995 36.3304C48.4513 33.6237 49.5769 32.3965 50.0781 31.6654C52.731 27.7964 53.4255 22.881 51.9654 18.3092L51.6851 17.4318L52.3574 16.8122C55.7242 13.7097 56.418 8.858 54.0636 4.88112C53.464 3.86848 51.8958 2.30739 50.8786 1.7105C48.8322 0.509871 46.4588 0.0661057 44.242 0.469558ZM45.3699 6.08773C45.1779 6.27882 45.155 6.44413 45.155 7.63824V8.97488H43.9895C42.7426 8.97488 42.206 9.09357 42.0377 9.40678C41.8633 9.73131 41.9184 10.1007 42.1775 10.3429C42.3964 10.5476 42.5643 10.5751 43.7619 10.6021L45.1013 10.6323L45.1317 11.9657C45.1588 13.1579 45.1864 13.3251 45.3921 13.543C45.6354 13.8009 46.0064 13.8558 46.3324 13.6821C46.647 13.5145 46.7663 12.9804 46.7663 11.7392V10.5788H48.109C49.3085 10.5788 49.4745 10.5561 49.6665 10.365C49.9378 10.0949 49.9422 9.60813 49.6763 9.28081C49.4837 9.04385 49.3887 9.02621 48.1272 8.99306L46.7835 8.95777L46.748 7.62006C46.7147 6.36426 46.697 6.26973 46.459 6.078C46.1302 5.81324 45.6412 5.81762 45.3699 6.08773ZM29.667 20.6353C29.5672 20.6932 28.7696 21.9905 27.8946 23.518C27.0195 25.0456 26.2794 26.2956 26.2499 26.2959C26.2203 26.2962 25.7684 25.6224 25.2455 24.7986C24.2818 23.2802 24.0129 22.9802 23.6211 22.9863C23.2537 22.992 23.0808 23.203 22.0633 24.8858L21.0804 26.5116H18.6353C16.2184 26.5116 16.1876 26.5145 15.9566 26.7591C15.6262 27.1093 15.6482 27.6137 16.0062 27.8939C16.2752 28.1047 16.4207 28.1156 18.9551 28.1156C20.6341 28.1156 21.7151 28.0728 21.8754 28.0002C22.0283 27.9308 22.4218 27.3963 22.8621 26.6596C23.2649 25.9857 23.6378 25.4488 23.6909 25.4665C23.7439 25.484 24.2134 26.1715 24.7342 26.9941C25.7759 28.6396 26.0301 28.8737 26.5444 28.6617C26.8134 28.5508 27.1388 28.0576 28.4604 25.759C29.336 24.2361 30.079 23.0165 30.1115 23.0488C30.144 23.0811 31.1171 24.8237 32.2741 26.9214C35.0647 31.9815 34.8147 31.8957 36.8526 28.4922L38.2267 26.1974L41.4615 26.194C44.5689 26.1909 44.7075 26.1821 44.9794 25.9692C45.3493 25.6795 45.3652 25.148 45.0139 24.8193C44.7688 24.5902 44.7134 24.5869 41.1708 24.5869C38.1764 24.5869 37.5385 24.6132 37.3501 24.7446C37.2257 24.8313 36.6501 25.6982 36.071 26.671C35.4919 27.6436 34.9824 28.4027 34.9389 28.3578C34.8953 28.3128 33.9328 26.5918 32.7999 24.5334C31.667 22.475 30.6631 20.7307 30.5691 20.6571C30.3661 20.4986 29.921 20.4878 29.667 20.6353ZM28.2213 35.6482C29.6801 35.9105 31.0936 36.2243 31.3766 36.3488C31.9963 36.6212 32.5306 37.1122 32.8235 37.678C33.4467 38.8824 32.4188 40.0861 30.7613 40.0927C30.4955 40.0936 28.9936 39.9409 27.4238 39.7532C24.8959 39.4509 24.5127 39.4277 24.0716 39.5506C22.1714 40.0803 21.5819 42.6404 23.0448 44.0097C23.242 44.1942 23.5556 44.4215 23.7416 44.5147C24.3041 44.7967 31.7422 46.1073 32.8022 46.1113C33.528 46.1141 34.7396 45.9137 38.7101 45.1343C41.4572 44.595 43.9708 44.0833 44.2957 43.9973C45.7335 43.6162 46.7552 43.6969 47.3289 44.2368C48.1296 44.9905 47.5486 46.4694 46.2375 47.0148C45.2433 47.4283 30.0458 52.2057 29.1332 52.3916C27.9272 52.6372 26.9489 52.6542 25.8202 52.4489C25.3771 52.3684 21.5423 51.3595 17.2983 50.2071C13.0544 49.0547 9.56155 48.1118 9.53652 48.1118C9.51149 48.1118 9.50354 45.7207 9.5189 42.7982L9.54672 37.4847L15.4546 36.4893C23.1722 35.1888 23.1096 35.1979 24.4372 35.1845C25.3551 35.1753 26.0957 35.2661 28.2213 35.6482ZM7.88178 42.8187V49.3949H4.98156H2.08133V42.8187V36.2424H4.98156H7.88178V42.8187Z" fill="#3C3C3C"/>
</svg>
