<svg width="72" height="102" viewBox="0 0 72 102" fill="none" xmlns="http://www.w3.org/2000/svg">
<path d="M30.4015 101.016L30.4015 0.181396L55.5746 0.181396L55.5746 101.016L30.4015 101.016ZM11.2017 21.3723L11.2017 0.181396L54.1524 0.181396V21.3723L11.2017 21.3723Z" fill="#E49B00" fill-opacity="0.06"/>
<path fill-rule="evenodd" clip-rule="evenodd" d="M30.1406 13.3052C24.7673 14.0761 20.2269 17.8705 18.6109 22.9406C17.3548 26.8818 18.0116 31.408 20.3305 34.7901C21.0828 35.8875 22.6479 37.5042 23.7098 38.2811C24.1947 38.6358 24.4477 38.9002 24.3357 38.9352C24.2325 38.9676 23.8037 39.0988 23.3829 39.2271C22.1482 39.6031 21.7262 40.1867 22.1396 40.9465C22.4147 41.4522 22.8584 41.4925 24.1381 41.1274C29.3133 39.6515 34.7523 39.6255 39.7719 41.0527C40.5621 41.2775 41.3132 41.425 41.441 41.3805C41.9303 41.2105 42.1601 40.8877 42.1601 40.3702C42.1601 39.7459 41.8797 39.5113 40.7692 39.2065C40.3485 39.091 39.9148 38.9676 39.8056 38.9325C39.6733 38.8898 39.7896 38.7486 40.1533 38.5098C41.169 37.8434 42.4058 36.6956 43.1541 35.7252C43.9729 34.6635 43.9135 34.6815 45.3685 35.0539L45.8647 35.181L45.6717 36.2429C45.5488 36.9196 45.5008 37.8757 45.5396 38.8784C45.6406 41.4826 46.4017 43.2288 48.1149 44.7863C49.6437 46.1763 51.5539 46.8644 53.8437 46.8505C55.7967 46.8384 56.857 46.4744 57.8704 45.4678C58.3872 44.9545 58.7889 44.384 59.0632 43.7739C59.2908 43.2679 59.5221 42.8523 59.5771 42.8503C59.7645 42.8434 61.2057 44.9624 61.7616 46.0622C62.0659 46.6642 62.467 47.5734 62.6528 48.0825C63.0575 49.1913 63.4706 49.8144 64.0677 50.2168C64.3114 50.3812 65.3558 50.7935 66.3888 51.1332C67.8143 51.602 68.364 51.8506 68.6704 52.1652L69.0741 52.5797V55.7089V58.8382L68.6601 59.2632C68.3178 59.6147 67.7671 59.8407 65.479 60.5684C63.8184 61.0966 62.5256 61.5885 62.2456 61.7985C61.9891 61.9909 61.3724 62.7554 60.8751 63.4975C59.2892 65.8636 57.0443 67.9488 54.4268 69.4868C52.6045 70.5575 52.1788 70.8687 52.0382 71.2325C51.9677 71.4152 51.5654 73.3556 51.1442 75.5447C50.7231 77.7338 50.3409 79.5848 50.2948 79.6582C50.245 79.7374 49.1126 79.7916 47.504 79.7916C44.8287 79.7916 44.7953 79.788 44.6642 79.4837C44.591 79.3143 44.3427 78.1908 44.1121 76.9868C43.5167 73.8777 43.277 73.6292 41.1342 73.8998C38.5363 74.2278 35.4995 74.3228 32.7421 74.1621C29.0972 73.9496 29.1692 73.8967 28.5243 77.2636C28.2967 78.4513 28.0407 79.506 27.9553 79.6074C27.7388 79.8638 22.6502 79.876 22.4451 79.6206C22.3695 79.5265 21.9777 77.7562 21.5744 75.6866C21.171 73.617 20.7514 71.7489 20.6418 71.5355C20.532 71.3219 20.2522 71.0448 20.0197 70.9197C16.4501 68.9979 13.4818 66.0664 11.8463 62.8477C11.2313 61.6378 10.5085 59.4365 10.2208 57.8983C9.92166 56.2983 9.88105 52.1797 10.1494 50.6461C11.1103 45.1526 13.6719 41.2237 18.2066 38.2885C19.5665 37.4083 19.782 37.1079 19.5399 36.4307C19.4698 36.2345 19.2275 35.9867 19.0013 35.8801C18.6202 35.7005 18.5393 35.714 17.8918 36.0662C15.837 37.184 13.4018 39.2897 11.9308 41.2209C9.99677 43.7601 8.91284 46.289 8.14075 50.0645C8.0324 50.5938 7.84713 50.4022 7.75895 49.6698C7.4606 47.1908 5.17688 45.2004 3.22447 45.7176C2.03246 46.0333 0.850335 47.5237 0.850335 48.7107C0.850335 50.1425 2.21551 51.3272 4.51216 51.8883L5.18341 52.0522L4.51216 52.7287C3.67512 53.5723 2.77673 54.0324 1.49877 54.2719C0.0705954 54.5397 -0.366148 55.1943 0.314838 56.0461C0.601642 56.4046 0.658252 56.4183 1.67834 56.3724C2.57478 56.3322 2.91221 56.2422 3.8188 55.8014C4.9898 55.2321 6.53662 53.8524 7.03665 52.9315C7.21608 52.601 7.41053 52.4249 7.59579 52.4249C7.86062 52.4249 7.87634 52.4926 7.82821 53.4305C7.76576 54.6478 8.00889 57.4141 8.3039 58.8406C8.81422 61.3094 9.91832 63.904 11.3966 66.1083C12.7791 68.1701 15.7073 70.8036 18.2553 72.2771L18.8663 72.6304L19.5336 76.1085C19.9005 78.0212 20.295 79.8452 20.41 80.1615C20.6587 80.8455 21.3685 81.4989 22.094 81.7119C22.4332 81.8115 23.6475 81.8498 25.5388 81.8207C28.3033 81.7781 28.4873 81.7589 28.9744 81.461C29.7651 80.9771 30.0003 80.4589 30.4458 78.218L30.8539 76.1655L31.4649 76.1832C35.5312 76.3008 39.45 76.1985 41.5988 75.9184C41.7506 75.8985 41.8648 76.2215 42.0493 77.1918C42.5775 79.973 42.7248 80.4755 43.1516 80.9537C43.8853 81.7758 44.3591 81.865 47.7403 81.8177L50.7355 81.7757L51.3283 81.3894C51.7092 81.1412 52.012 80.799 52.1756 80.4316C52.3155 80.1173 52.7595 78.1298 53.1622 76.0151L53.8942 72.1702L54.5991 71.7855C57.9334 69.9656 60.9947 67.1667 62.9156 64.1819C63.4728 63.3163 63.2952 63.404 66.64 62.3433C69.7071 61.3708 70.3668 60.925 70.9482 59.4324C71.2002 58.7853 71.23 58.3926 71.23 55.7089C71.23 53.0282 71.2001 52.6318 70.9489 51.9854C70.4107 50.6002 69.6583 50.0474 67.2659 49.2794C66.2341 48.9483 65.3314 48.5735 65.1636 48.4068C65.0018 48.2462 64.6429 47.5297 64.3662 46.8147C63.582 44.7893 62.509 43.0789 60.6618 40.9096L60.2359 40.4093L60.4625 39.1991C60.7543 37.6413 60.8799 33.7448 60.6736 32.6525C60.4523 31.4802 59.8626 30.3899 59.2682 30.054C57.9801 29.3262 54.7489 30.042 49.6212 32.1914C48.5394 32.6447 47.5204 33.1003 47.3567 33.2037C47.1425 33.3388 46.9284 33.3575 46.5917 33.2702C46.3346 33.2035 45.8656 33.083 45.5496 33.0024L44.975 32.856L45.3225 32.0095C45.7513 30.9651 46.1894 28.9273 46.1919 27.9659C46.1942 27.0938 45.877 26.7002 45.1721 26.7002C44.4854 26.7002 44.2373 27.0587 44.102 28.2465C43.6345 32.3463 41.1848 35.8589 37.5334 37.6651L36.4524 38.1997L34.2328 38.0365C32.5011 37.9091 31.5521 37.9098 29.915 38.0399C27.8185 38.2064 27.8162 38.2063 27.0791 37.8743C23.9011 36.443 21.43 33.5835 20.4383 30.1895C20.1652 29.2553 20.1198 28.7939 20.128 27.0423C20.1364 25.2238 20.18 24.8524 20.5102 23.7847C21.145 21.7314 22.099 20.1588 23.6138 18.6685C29.1182 13.2535 38.4425 14.4069 42.4383 20.9969C43.2473 22.3311 43.7314 22.5835 44.4363 22.0379C45.0055 21.5976 44.9248 21.0693 44.0818 19.716C42.6942 17.4886 40.1225 15.3168 37.6678 14.2993C35.2932 13.3151 32.5743 12.956 30.1406 13.3052ZM32.1735 19.8859C32.0817 19.9762 32.0065 20.1849 32.0065 20.3497C32.0065 20.588 31.9001 20.6679 31.485 20.7416C30.0408 20.9977 28.9427 21.9521 28.6593 23.197C28.2603 24.9516 29.1271 26.3866 31.0408 27.1395L31.937 27.4921L31.9754 29.6311L32.0136 31.77L31.6277 31.6799C30.9564 31.5233 30.4238 31.264 29.8662 30.8228C29.2295 30.3187 28.7674 30.2777 28.4677 30.6989C27.7272 31.7389 29.1719 33.1403 31.2415 33.3897C31.872 33.4657 31.9412 33.5087 31.9809 33.8498C32.074 34.6452 33.1193 34.6243 33.1193 33.8271C33.1193 33.4832 33.1885 33.4203 33.7104 33.2903C35.6767 32.8004 36.7683 30.9536 36.3272 28.8632C36.2393 28.4466 36.0154 27.9033 35.8297 27.6556C35.3977 27.0797 34.4178 26.3939 33.6884 26.157L33.1193 25.9723V24.1469C33.1193 22.0558 33.086 22.0969 34.3711 22.5952C34.7593 22.7458 35.19 22.8689 35.3283 22.8689C35.7364 22.8689 36.0651 22.4012 36.0151 21.8914C35.9784 21.5148 35.8667 21.3793 35.3735 21.1125C35.023 20.9229 34.4341 20.7588 33.9478 20.7154C33.2145 20.65 33.1193 20.6076 33.1193 20.3458C33.1193 19.9965 32.8743 19.7217 32.5629 19.7217C32.4405 19.7217 32.2653 19.7956 32.1735 19.8859ZM32.1456 23.9659V25.6102L31.4552 25.2659C30.6761 24.8776 30.4457 24.5522 30.4259 23.8132C30.4105 23.2321 30.7311 22.7956 31.3806 22.5135C32.1433 22.1823 32.1456 22.1868 32.1456 23.9659ZM33.6641 28.2667C34.3969 28.7218 34.7626 29.6199 34.5282 30.3891C34.3513 30.9704 33.6723 31.6262 33.2476 31.6262C32.997 31.6262 32.9802 31.5105 32.9802 29.779C32.9802 28.763 33.0127 27.9317 33.0525 27.9317C33.0923 27.9317 33.3675 28.0824 33.6641 28.2667ZM58.4576 32.2762C58.5878 32.6378 58.6397 33.557 58.6333 35.3892C58.6259 37.5302 58.5701 38.2365 58.3177 39.3915C57.9268 41.1799 57.2755 42.9519 56.7437 43.6741C55.9927 44.6942 54.3507 45.0994 52.5134 44.7179C50.0371 44.2037 48.3999 42.721 47.7979 40.4472C47.3902 38.9077 47.6237 35.8218 48.1948 35.201C48.4652 34.9071 51.2711 33.6674 53.3697 32.9145C55.0772 32.3021 57.0853 31.7787 57.7622 31.7698C58.2292 31.7636 58.2889 31.8071 58.4576 32.2762ZM4.54471 47.9146C5.00287 48.1931 5.71849 49.3692 5.71849 49.8433C5.71849 50.0692 5.67315 50.0691 4.8336 49.84C3.71448 49.5347 3.01806 49.1386 2.96437 48.7765C2.91513 48.4462 3.55967 47.6357 3.87151 47.6357C3.9896 47.6357 4.29254 47.7612 4.54471 47.9146ZM53.2839 49.9277C52.5459 50.8479 53.6103 52.9593 55.1258 53.581C55.8267 53.8686 57.1164 53.8476 57.8108 53.5372C59.3237 52.8611 60.2915 50.8523 59.5499 49.9277C58.9622 49.1952 57.7382 49.6397 57.7382 50.5856C57.7382 50.7579 57.5762 51.0882 57.3781 51.3197C57.0784 51.6703 56.9175 51.7407 56.4169 51.7407C55.9163 51.7407 55.7554 51.6703 55.4556 51.3197C55.248 51.077 55.0955 50.7294 55.0955 50.4987C55.0955 49.581 53.8714 49.1952 53.2839 49.9277Z" fill="#E49B00"/>
</svg>
