<svg width="77" height="105" viewBox="0 0 77 105" fill="none" xmlns="http://www.w3.org/2000/svg">
<path d="M0.67193 90.2568L40.6518 49.5579C42.5693 47.4486 44.1512 45.5791 45.3976 43.9492C46.644 42.2234 47.5069 40.6415 47.9862 39.2034C48.5615 37.6694 48.8491 36.0874 48.8491 34.4576C48.8491 30.8143 47.6507 27.9381 45.2538 25.8288C42.9528 23.7196 39.8848 22.6649 36.0498 22.6649C32.4065 22.6649 29.0989 23.7196 26.1267 25.8288C23.1546 27.8422 20.0866 31.2457 16.9227 36.0395L0.0966797 21.083C4.2193 14.3718 9.49243 9.29038 15.9161 5.83888C22.3397 2.29151 29.722 0.517822 38.0632 0.517822C45.4455 0.517822 51.8212 1.86007 57.1902 4.54457C62.5592 7.22907 66.6818 11.0641 69.5581 16.0496C72.5302 20.9392 74.0163 26.7396 74.0163 33.4509C74.0163 37.4776 73.489 41.2167 72.4343 44.6682C71.3797 48.0239 69.7019 51.3795 67.4009 54.7351C65.0999 57.9949 62.0319 61.4464 58.1969 65.0896L31.7354 90.832L0.67193 90.2568ZM0.67193 104.207L0.67193 90.2568L22.1 82.7785L76.1735 82.7785V104.207L0.67193 104.207Z" fill="#E49B00" fill-opacity="0.06"/>
<path fill-rule="evenodd" clip-rule="evenodd" d="M59.4698 15.1188C57.5058 15.4763 55.4098 16.4059 54.1657 17.4711C53.4343 18.0972 53.3524 18.7252 53.9417 19.1866C54.4496 19.5843 54.6591 19.5514 55.6399 18.9204C57.8387 17.5056 59.2391 17.0649 61.5499 17.0604C63.5805 17.0565 64.3158 17.2245 66.1875 18.1203C67.4456 18.7225 67.7938 18.9709 68.8413 20.0137C69.8837 21.0514 70.1422 21.4092 70.7492 22.6556C71.6498 24.505 71.9512 25.9161 71.8376 27.7527C71.5626 32.2001 68.4508 35.9671 64.1153 37.1007C62.8781 37.4243 60.3364 37.4174 59.1232 37.0872C53.012 35.4241 49.8345 29.1024 52.1794 23.2724C52.5502 22.3506 52.5941 22.1251 52.4638 21.8118C52.316 21.4564 51.8247 21.1293 51.4392 21.1293C50.5672 21.1293 49.5188 23.7883 49.3264 26.4886L49.2378 27.7309L48.3217 28.1123C46.2289 28.9836 44.3991 30.1884 42.3446 32.0474L41.0267 33.24L39.9173 32.2147C37.1145 29.6249 34.4165 28.0768 31.3009 27.2709C26.5739 26.0482 22.1307 26.8377 18.5278 29.5404C17.0502 30.6487 16.5513 31.2248 16.5513 31.8225C16.5513 32.3264 17.055 32.8631 17.5278 32.8631C17.663 32.8631 18.2629 32.4488 18.8611 31.9425C20.219 30.793 21.2165 30.1512 22.3807 29.678C25.7816 28.2955 29.825 28.5215 33.564 30.3029C35.376 31.1664 36.685 32.0901 38.4852 33.7757C40.2566 35.4344 40.7424 35.7161 41.4377 35.4876C41.6935 35.4036 42.613 34.6693 43.5294 33.8174C45.1902 32.2733 46.731 31.1583 48.2428 30.4062C49.5456 29.7582 49.5312 29.7542 49.8874 30.8648C50.5457 32.9164 51.4704 34.3903 53.0892 35.9691C56.5499 39.3439 61.4383 40.3408 66.057 38.6138L67.2787 38.157L67.5653 39.1337C68.0011 40.6196 68.1222 41.2704 68.2661 42.9029C68.6043 46.7397 67.5926 50.7349 65.4744 53.9277C64.6195 55.2164 63.7112 56.2064 58.7195 61.2908C55.5475 64.5217 52.0279 68.1071 50.8981 69.2581L48.8439 71.3511L47.2233 71.6642C46.307 71.8413 45.1509 71.9696 44.5628 71.9596C43.9472 71.949 41.55 71.5775 38.6895 71.0492C34.6442 70.3021 33.8034 70.1071 33.5312 69.8525C33.0925 69.4422 32.9922 68.8913 33.246 68.2864C33.596 67.4526 33.7686 67.4334 37.1666 67.8517C41.4355 68.3771 42.4957 68.4257 43.5875 68.1464C48.0044 67.0164 48.2145 61.7497 43.9265 59.6482C42.6107 59.0034 37.2185 57.9912 34.5785 57.8935C32.4995 57.8166 31.7332 57.9105 25.3569 59.0231L21.7515 59.6523L19.7241 57.5979C17.5022 55.3463 16.5703 54.136 15.628 52.2777C14.2266 49.5141 13.7041 47.0095 13.8142 43.5823C13.8967 41.015 14.2115 39.5538 15.156 37.353C15.7901 35.8757 15.841 35.4691 15.4419 35.0718C15.0935 34.7249 14.3162 34.706 14.0235 35.0373C13.4918 35.6395 12.559 38.0583 12.0937 40.0415C11.7014 41.7142 11.5924 45.5724 11.8871 47.3595C12.6 51.6826 14.3103 55.0024 17.5357 58.3242L19.2039 60.0422L18.7442 60.1189C16.3827 60.5135 14.8993 60.7483 14.7679 60.7483C14.6811 60.7483 14.6099 60.6014 14.6099 60.4219C14.6099 60.0511 14.0172 59.3979 13.5828 59.2902C13.4232 59.2506 11.1566 59.2363 8.54613 59.2585L3.79958 59.2988L3.41532 59.6815L3.03093 60.0643L2.99348 69.5701C2.96963 75.6349 3.00597 79.2066 3.09402 79.4371C3.16987 79.6358 3.4364 79.9237 3.68614 80.077C4.12199 80.3442 4.33415 80.3539 8.95022 80.3185L13.76 80.2817L14.185 79.8762C14.4192 79.6527 14.6099 79.3275 14.6099 79.1515C14.6099 78.9759 14.6859 78.8322 14.7788 78.8322C14.8719 78.8322 19.4115 80.04 24.8671 81.5161C30.3228 82.9923 35.3116 84.2744 35.9537 84.3653C38.4402 84.7174 40.2464 84.399 45.7251 82.6428C47.4883 82.0777 51.9886 80.6399 55.7257 79.4479C59.4629 78.2557 62.8253 77.1273 63.1977 76.9403C64.1601 76.457 65.1588 75.4737 65.6009 74.5742C65.9105 73.944 65.981 73.6106 65.9839 72.7624C65.9868 71.8688 65.9306 71.6211 65.5837 70.9976C64.9495 69.8583 64.0349 69.2728 62.4726 69.0061C61.3878 68.8209 61.5137 68.8031 56.0724 69.9106C54.3564 70.2599 52.8691 70.5465 52.7675 70.5476C52.5708 70.5496 54.07 68.9781 61.4806 61.4141C64.9039 57.9199 66.3571 56.3355 67.0041 55.3917C70.4288 50.3969 71.3255 44.0513 69.4405 38.1493L69.0786 37.0165L69.9465 36.2167C74.293 32.2114 75.1887 25.948 72.1492 20.814C71.3751 19.5067 69.3507 17.4914 68.0375 16.7208C65.3957 15.1708 62.3317 14.5979 59.4698 15.1188ZM60.9259 22.3717C60.6781 22.6184 60.6485 22.8318 60.6485 24.3733V26.0989H59.1438C57.5341 26.0989 56.8415 26.2521 56.6242 26.6565C56.399 27.0754 56.4701 27.5522 56.8046 27.8649C57.0872 28.1293 57.3039 28.1648 58.85 28.1995L60.5792 28.2386L60.6184 29.96C60.6534 31.4991 60.689 31.7149 60.9546 31.9962C61.2687 32.3292 61.7476 32.4 62.1685 32.1758C62.5747 31.9595 62.7286 31.2699 62.7286 29.6675V28.1696H64.462C66.0105 28.1696 66.2249 28.1402 66.4727 27.8935C66.823 27.5448 66.8287 26.9164 66.4853 26.4939C66.2367 26.1879 66.1141 26.1652 64.4856 26.1224L62.7508 26.0768L62.705 24.3499C62.662 22.7287 62.6392 22.6066 62.3319 22.3591C61.9074 22.0173 61.2762 22.023 60.9259 22.3717ZM40.6539 41.1522C40.5251 41.2269 39.4955 42.9016 38.3658 44.8736C37.2361 46.8457 36.2807 48.4595 36.2425 48.4599C36.2044 48.4602 35.621 47.5903 34.946 46.5268C33.7018 44.5666 33.3547 44.1794 32.8488 44.1873C32.3746 44.1946 32.1513 44.4669 30.8378 46.6395L29.5689 48.7383H26.4123C23.2922 48.7383 23.2524 48.7421 22.9543 49.0578C22.5277 49.5099 22.556 50.161 23.0182 50.5228C23.3656 50.7949 23.5533 50.809 26.8251 50.809C28.9927 50.809 30.3883 50.7538 30.5952 50.6601C30.7926 50.5705 31.3006 49.8804 31.869 48.9294C32.389 48.0594 32.8705 47.3663 32.939 47.3891C33.0073 47.4117 33.6135 48.2992 34.2859 49.3612C35.6307 51.4854 35.9588 51.7878 36.6228 51.514C36.97 51.3709 37.3902 50.7342 39.0962 47.7668C40.2267 45.8007 41.1859 44.2262 41.2277 44.2679C41.2698 44.3096 42.526 46.5593 44.0196 49.2673C47.6222 55.7998 47.2994 55.689 49.9303 51.2952L51.7043 48.3326L55.8804 48.3283C59.8918 48.3243 60.0708 48.3129 60.4218 48.038C60.8994 47.6641 60.9199 46.978 60.4663 46.5536C60.1499 46.2578 60.0785 46.2535 55.505 46.2535C51.6394 46.2535 50.8158 46.2875 50.5726 46.4571C50.412 46.5691 49.6689 47.6882 48.9213 48.944C48.1737 50.1997 47.516 51.1797 47.4599 51.1217C47.4036 51.0636 46.1609 48.8419 44.6984 46.1845C43.2358 43.5271 41.9399 41.2753 41.8185 41.1804C41.5565 40.9756 40.9819 40.9617 40.6539 41.1522ZM38.7875 60.5333C40.6708 60.872 42.4956 61.2771 42.861 61.4378C43.661 61.7895 44.3507 62.4233 44.7289 63.1538C45.5334 64.7087 44.2064 66.2626 42.0667 66.2711C41.7235 66.2723 39.7846 66.0752 37.7581 65.8328C34.4946 65.4425 33.9999 65.4125 33.4304 65.5713C30.9773 66.255 30.2163 69.5601 32.1049 71.3278C32.3595 71.5661 32.7643 71.8594 33.0044 71.9798C33.7306 72.3438 43.333 74.0358 44.7014 74.0409C45.6384 74.0445 47.2025 73.7858 52.3283 72.7796C55.8748 72.0834 59.1197 71.4229 59.5392 71.3118C61.3953 70.8198 62.7143 70.924 63.455 71.621C64.4886 72.5941 63.7385 74.5032 62.0459 75.2073C60.7625 75.7411 41.143 81.9087 39.9649 82.1486C38.4079 82.4657 37.145 82.4876 35.6878 82.2226C35.1158 82.1186 30.1651 80.8162 24.6863 79.3285C19.2075 77.8408 14.6984 76.6235 14.6661 76.6235C14.6338 76.6235 14.6235 73.5367 14.6433 69.7639L14.6793 62.9043L22.3061 61.6192C32.2693 59.9403 32.1885 59.952 33.9025 59.9348C35.0874 59.9229 36.0435 60.0401 38.7875 60.5333ZM12.5299 69.7902V78.28H8.78575H5.04165V69.7902V61.3005H8.78575H12.5299V69.7902Z" fill="#E49B00"/>
</svg>
