<svg width="78" height="104" viewBox="0 0 78 104" fill="none" xmlns="http://www.w3.org/2000/svg">
<path d="M36.1225 103.789C28.9319 103.789 22.3165 102.59 16.2764 100.193C10.2362 97.7006 5.10693 94.2011 0.888428 89.695L17.283 73.588C19.0088 76.0808 21.5495 78.1421 24.9051 79.7719C28.3566 81.3059 31.9519 82.0729 35.691 82.0729C38.8549 82.0729 41.6353 81.5456 44.0322 80.491C46.5249 79.3405 48.4424 77.7586 49.7847 75.7452C51.2228 73.6359 51.9419 71.1432 51.9419 68.2669C51.9419 65.3907 51.2228 62.9459 49.7847 60.9325C48.3465 58.8233 46.2852 57.2413 43.6007 56.1867C41.0121 55.1321 37.8962 54.6048 34.2529 54.6048C32.3354 54.6048 30.322 54.7486 28.2128 55.0362C26.1994 55.228 24.5695 55.5635 23.3232 56.0429L34.5405 41.9493C37.6085 41.1823 40.3889 40.5591 42.8817 40.0797C45.4703 39.5045 47.7713 39.2168 49.7847 39.2168C54.9619 39.2168 59.6119 40.4632 63.7345 42.956C67.8571 45.3528 71.1169 48.8043 73.5137 53.3105C75.9106 57.7207 77.109 62.9459 77.109 68.986C77.109 75.889 75.4312 81.9771 72.0756 87.2502C68.72 92.4274 63.9262 96.5021 57.6944 99.4743C51.5584 102.351 44.3677 103.789 36.1225 103.789ZM23.3232 56.0429L23.3232 41.9493L47.0522 14.1935L74.9518 14.1935L50.5037 41.9493L23.3232 56.0429ZM7.93524 21.6717L7.93524 0.243652L74.9518 0.243652V14.1935L55.5372 21.6717L7.93524 21.6717Z" fill="#E49B00" fill-opacity="0.06"/>
<path fill-rule="evenodd" clip-rule="evenodd" d="M38.5889 12.9791C37.8845 13.1534 37.7169 13.2394 26.2191 19.33C20.9445 22.1241 16.4047 24.5851 16.1306 24.7989C15.0155 25.6687 14.4027 27.6058 14.7889 29.0396L14.9807 29.7515L13.303 29.8216C12.0388 29.8744 11.4286 29.9668 10.8267 30.1967C9.77665 30.5977 8.62556 31.6545 8.12215 32.6795L7.73382 33.4704L7.66433 52.8596L7.59484 72.2488L6.48503 72.2899C4.83442 72.3512 4.74561 72.4664 4.74561 74.5474C4.74561 76.5879 4.89863 77.4152 5.50447 78.6508C6.1427 79.9525 7.2892 81.0483 8.73522 81.7388L9.81862 82.2561L39.9093 82.2936C60.0771 82.3188 70.221 82.2842 70.6704 82.1887C71.8024 81.9481 72.8639 81.3424 73.8373 80.3814C75.3884 78.8503 75.9013 77.4323 75.9048 74.6651C75.9066 73.2484 75.8721 73.0066 75.6232 72.6901C75.3648 72.3616 75.2374 72.3258 74.1986 72.2891L73.0576 72.2488L72.9881 52.8596L72.9186 33.4704L72.5345 32.6884C72.1113 31.8269 71.1035 30.7997 70.2584 30.3687C69.5226 29.9932 68.3207 29.7871 66.8676 29.7871H65.6626L65.8591 29.0574C66.2299 27.6803 65.7469 25.9911 64.6955 24.9882C64.3511 24.6596 61.6645 23.1564 57.1019 20.7398C49.7622 16.8522 49.3989 16.6978 48.8955 17.2542C48.5897 17.5921 48.5973 18.4271 48.9087 18.6952C49.0424 18.8105 52.2166 20.5207 55.9623 22.4959C63.1551 26.289 63.7085 26.6462 63.8895 27.6109C63.9989 28.1933 63.6909 29.1879 63.2888 29.5515C63.0153 29.7988 49.701 36.8808 49.5376 36.8658C49.4784 36.8604 47.7412 34.9194 45.6772 32.5523C40.5767 26.7028 40.8694 27.0073 40.3483 27.0073C39.771 27.0073 39.3533 27.4333 39.3533 28.0219C39.3533 28.425 39.8538 29.0519 43.4693 33.1765C45.7331 35.7593 47.5313 37.9231 47.4652 37.9851C47.3991 38.0471 46.1567 38.7252 44.7043 39.492C41.6255 41.1176 40.8548 41.3482 39.4576 41.062C38.764 40.92 36.4738 39.7636 28.0954 35.3251C22.324 32.2675 17.4947 29.6693 17.3637 29.551C17.2326 29.4328 17.0219 29.0651 16.8954 28.7337C16.5938 27.944 16.7256 27.2614 17.2975 26.6501C17.6094 26.3169 20.7082 24.6026 27.7479 20.8688C33.2518 17.9497 38.1234 15.4098 38.5737 15.2248C39.2641 14.9411 39.5732 14.8958 40.5429 14.9364C41.6672 14.9835 41.7422 15.0095 43.8398 16.0786C45.8906 17.1238 46.004 17.1641 46.3844 16.9818C46.8695 16.7492 47.1032 16.1724 46.9202 15.6598C46.8221 15.3848 46.4048 15.084 45.2603 14.463C42.7213 13.0852 42.2743 12.9337 40.6042 12.8845C39.8016 12.8608 38.8947 12.9034 38.5889 12.9791ZM19.6718 33.2271L22.2271 34.5823L17.6434 34.6518L13.0599 34.7213L12.7943 35.0494C12.5364 35.3683 12.5289 35.846 12.5289 52.0951C12.5289 68.348 12.5362 68.8218 12.7946 69.1408C13.0598 69.4684 13.0652 69.469 16.2547 69.469C19.2009 69.469 19.4718 69.4484 19.7416 69.2042C20.1234 68.8587 20.1308 68.1062 19.7562 67.7316C19.4993 67.4747 19.2929 67.4536 17.0459 67.4536H14.6137V52.0951V36.7367H19.2697H23.9258V39.1748C23.9258 42.1986 24.1218 43.2841 24.9911 45.0761C25.5318 46.1904 25.8186 46.5814 26.8288 47.5804C28.51 49.2433 30.3518 50.137 33.8633 50.9938C38.3144 52.0798 43.9004 51.9607 48.0053 50.6922C48.2107 50.6286 48.2485 50.7094 48.2485 51.2124C48.2485 51.7076 48.0453 52.1593 47.0407 53.8973C45.9813 55.7302 45.8255 56.0857 45.7728 56.7908C45.6996 57.7689 45.9831 58.5986 46.6093 59.2391C47.3812 60.0287 47.7549 60.1566 49.2909 60.1566C50.5127 60.1566 50.7529 60.1153 51.2776 59.8148C51.9486 59.4306 52.6462 58.4793 52.7799 57.7659C52.9852 56.6717 52.7929 56.0726 51.5384 53.8973L50.3333 51.8078L50.3418 50.8395L50.3501 49.8713L51.4847 49.3266C52.385 48.8945 52.867 48.5359 53.8199 47.5892C54.831 46.5848 55.1218 46.188 55.6613 45.0761C56.5307 43.2841 56.7267 42.1986 56.7267 39.1748V36.7367H61.3827H66.0388V52.0951V67.4536H44.3784C22.8482 67.4536 22.7165 67.4553 22.4648 67.7334C22.1177 68.1169 22.1422 68.7894 22.5166 69.164L22.8217 69.469H45.2069H67.5923L67.8579 69.1408C68.1162 68.8218 68.1236 68.348 68.1236 52.0951C68.1236 35.846 68.1161 35.3683 67.8581 35.0494L67.5925 34.7213L63.009 34.6518L58.4254 34.5823L60.9806 33.2271L63.5358 31.872H65.8377C67.1037 31.872 68.4098 31.9401 68.7401 32.0232C69.5139 32.2181 70.3144 32.8823 70.6402 33.5995C70.8862 34.141 70.8974 34.9854 70.9003 53.2418L70.9033 72.3183H40.3262H9.74913L9.75219 53.2418C9.75511 34.8995 9.76525 34.1432 10.0154 33.5923C10.3201 32.9215 11.0562 32.2866 11.7961 32.0564C12.105 31.9604 13.3059 31.8889 14.7185 31.8827L17.1167 31.872L19.6718 33.2271ZM31.2921 39.3798C37.2521 42.5449 37.8268 42.824 38.9033 43.0774C40.0355 43.3437 41.3176 43.2691 42.4891 42.8686C42.9431 42.7135 44.3777 42.0222 45.6772 41.3324C46.9768 40.6427 48.0878 40.077 48.1463 40.0754C48.2047 40.0737 48.236 41.9623 48.2158 44.272L48.179 48.4716L47.0671 48.7827C45.1018 49.3323 43.516 49.5527 41.0212 49.6232C38.3115 49.6996 36.4058 49.5014 34.0292 48.896C29.6163 47.772 27.5028 46.1894 26.4061 43.1886C26.1439 42.471 26.0975 41.9958 26.0438 39.4707L25.9821 36.5758L26.4481 36.8153C26.7043 36.9471 28.8841 38.1011 31.2921 39.3798ZM54.6063 39.8639C54.5533 41.9724 54.4965 42.4952 54.2447 43.1886C53.6435 44.8429 52.6209 46.1666 51.231 47.0891C50.826 47.3579 50.4584 47.5779 50.414 47.5779C50.3696 47.5779 50.3333 45.6202 50.3333 43.2274V38.8768L52.4528 37.7486L54.5724 36.6203L54.6207 36.9911C54.6473 37.1952 54.6408 38.4879 54.6063 39.8639ZM50.0449 55.4822C50.8618 56.9098 50.9348 57.4199 50.384 57.8531C50.1195 58.0612 49.8158 58.1412 49.2909 58.1412C48.3727 58.1412 47.8315 57.7698 47.8315 57.1399C47.8315 56.7872 49.1128 54.2495 49.2909 54.2495C49.3176 54.2495 49.657 54.8042 50.0449 55.4822ZM18.0126 58.4824C17.825 58.6701 17.6714 58.9856 17.6714 59.1837C17.6714 59.3817 17.825 59.6972 18.0126 59.8849L18.3537 60.2261H25.7264C32.9136 60.2261 33.1059 60.2191 33.3769 59.9481C33.7908 59.5342 33.7476 58.7903 33.2886 58.4294C32.9288 58.1462 32.797 58.1412 25.6381 58.1412H18.3537L18.0126 58.4824ZM17.9595 62.9552C17.8011 63.1566 17.6714 63.4038 17.6714 63.5046C17.6714 63.8879 17.9995 64.3829 18.3498 64.528C18.604 64.6332 21.9461 64.6677 29.3935 64.6415L40.0729 64.6043L40.3386 64.2761C40.683 63.8507 40.6775 63.2181 40.3262 62.8669C40.053 62.5937 39.863 62.5889 29.1479 62.5889H18.2475L17.9595 62.9552ZM31.7938 74.6464C32.2343 76.0553 33.1631 77.1962 34.4021 77.8497L35.1142 78.2254H40.3262H45.5382L46.2768 77.8363C47.4881 77.1982 48.4214 76.045 48.8586 74.6464C48.9304 74.417 49.6497 74.4031 61.3976 74.4031H73.8606L73.7911 75.6236C73.7359 76.59 73.639 77.0124 73.3257 77.6522C72.8334 78.6578 71.8348 79.5764 70.8219 79.9553C70.0611 80.2399 69.9781 80.2408 40.3262 80.2408C10.6744 80.2408 10.5914 80.2399 9.83058 79.9553C8.81764 79.5764 7.81902 78.6578 7.32673 77.6522C7.01345 77.0124 6.91658 76.59 6.8614 75.6236L6.79191 74.4031H19.2549C31.0027 74.4031 31.7221 74.417 31.7938 74.6464ZM46.7196 74.5171C46.7196 74.7709 45.664 75.8418 45.2384 76.0196C44.8847 76.1675 43.7835 76.21 40.3169 76.21C35.317 76.21 35.3144 76.2096 34.4225 75.2224C34.1533 74.9242 33.9328 74.618 33.9328 74.5417C33.9328 74.4516 36.169 74.4031 40.3262 74.4031C43.8426 74.4031 46.7196 74.4544 46.7196 74.5171Z" fill="#E49B00"/>
</svg>
