<svg width="85" height="103" viewBox="0 0 85 103" fill="none" xmlns="http://www.w3.org/2000/svg">
<path d="M0.963623 67.7393L33.177 0.120117L61.0373 0.120117L27.9533 67.7393H0.963623ZM0.963623 81.9596L0.963623 67.7393L8.50911 60.3389L84.5444 60.3389V81.9596L0.963623 81.9596ZM49.2838 103L49.2838 41.0399L74.6772 41.0399L74.6772 103H49.2838Z" fill="#E49B00" fill-opacity="0.06"/>
<path fill-rule="evenodd" clip-rule="evenodd" d="M49.5785 13.3864C48.5361 13.8773 47.9893 14.7894 47.9886 16.0394L47.9881 16.7623L46.7792 16.9956C39.8658 18.3289 34.1882 23.2023 31.7473 29.898L31.2972 31.1333L30.3371 31.2017C28.5895 31.3262 27.6049 32.3122 27.6032 33.939C27.602 35.0483 27.9485 35.7618 28.7665 36.3342L29.353 36.7448L32.8803 36.7857L36.4077 36.8265L36.3085 37.1278C36.0277 37.9811 36.0685 38.414 36.4696 38.8389C36.8269 39.2174 45.6081 44.9032 46.2607 45.1786C46.4131 45.2429 49.3988 45.5148 52.8957 45.783C56.3925 46.0511 59.9689 46.3449 60.8431 46.4361L62.4325 46.6018L62.4682 47.0111C62.5802 48.2973 62.6704 48.5928 63.0732 48.9918C63.4866 49.401 63.5045 49.4048 65.0036 49.4048C66.4626 49.4048 66.5211 49.4163 66.6397 49.725C66.7073 49.901 66.9592 50.2089 67.1997 50.4093C67.6365 50.7732 67.6384 50.7735 70.0518 50.7735C72.7672 50.7735 73.0941 50.6903 73.4711 49.9035C73.6674 49.4941 73.6971 48.7802 73.6971 44.4868C73.6971 39.0441 73.6639 38.7947 72.8855 38.3962C72.5277 38.2129 71.7255 38.1818 67.361 38.1818H62.2551L61.0999 37.5317L59.9447 36.8816L66.0365 36.8132L72.1282 36.7448L72.6883 36.3775C73.4783 35.8596 73.8552 35.1912 73.933 34.17C74.0169 33.0684 73.6255 32.2853 72.6715 31.6465C72.0733 31.2459 71.9075 31.2017 71.0036 31.2017H70L69.5566 29.9444C68.8285 27.8797 67.2122 24.931 66.6431 24.6295C65.9519 24.2631 65.1277 24.7015 65.1277 25.4357C65.1277 25.6745 65.4496 26.3513 65.9489 27.1622C66.668 28.3301 67.7538 30.6785 67.7538 31.0658C67.7538 31.155 61.8927 31.2017 50.6842 31.2017C35.7206 31.2017 33.6146 31.1768 33.6146 30.9995C33.6146 30.6523 34.2948 28.9882 34.8634 27.944C37.4171 23.2553 42.0187 19.9631 47.4362 18.9493C49.1731 18.6243 52.1782 18.6173 53.8314 18.9347C56.5354 19.4537 59.003 20.5116 61.2707 22.1241C62.618 23.0821 63.018 23.1752 63.5445 22.6537C64.2083 21.9964 63.9326 21.4844 62.2837 20.3131C60.0576 18.7318 56.9292 17.4029 54.3989 16.9639L53.4143 16.7931L53.3461 15.9525C53.2589 14.8762 52.8347 14.0564 52.1244 13.5909C51.3873 13.1079 50.3474 13.0244 49.5785 13.3864ZM51.0891 15.4034C51.2085 15.5218 51.3062 15.8297 51.3062 16.0877C51.3062 16.5527 51.3004 16.557 50.6842 16.557H50.0623V16.037C50.0623 15.2434 50.5952 14.9145 51.0891 15.4034ZM46.327 33.6057C46.2529 33.7989 46.1922 34.1376 46.1922 34.3585V34.7602H38.1521C30.8646 34.7602 30.0882 34.739 29.8592 34.5337C29.5489 34.2557 29.5323 33.7582 29.8235 33.4697C30.0162 33.279 30.9715 33.2547 38.2513 33.2547H46.4618L46.327 33.6057ZM71.6832 33.4697C71.8026 33.5881 71.9003 33.8301 71.9003 34.0074C71.9003 34.7828 72.1437 34.7602 63.7836 34.7602H56.1012L55.1964 34.2591C54.6988 33.9836 53.8843 33.6505 53.3863 33.5188C52.4991 33.2841 52.6703 33.2792 61.9735 33.267C70.4295 33.256 71.4897 33.2782 71.6832 33.4697ZM51.1347 35.1204L53.3103 35.6118L57.5299 37.9233C60.087 39.3241 61.8976 40.2348 62.1256 40.2348H62.5016V42.3563V44.4777H62.1048C61.8866 44.4777 60.8138 44.3853 59.7206 44.2724C58.6276 44.1593 55.3149 43.883 52.359 43.6581L46.9849 43.2492L42.7345 40.5444C40.3967 39.0568 38.5116 37.7934 38.5453 37.737C38.6949 37.4868 39.4352 37.7191 42.5714 39.0003C44.4102 39.7516 46.055 40.4 46.2262 40.4415C46.8334 40.5881 52.0604 40.1434 52.5247 39.9057C53.0665 39.6282 53.3794 39.0489 53.3794 38.3235C53.3794 37.4292 52.8245 36.9733 50.546 35.9958C48.7694 35.2338 48.2655 34.9213 48.2655 34.5823C48.2655 34.5133 48.4215 34.4956 48.6122 34.543C48.803 34.5904 49.938 34.8503 51.1347 35.1204ZM48.7137 37.4514C49.5304 37.8041 50.1702 38.1207 50.1354 38.155C50.1007 38.1894 49.2961 38.2674 48.3476 38.3283L46.6228 38.439L44.9218 37.7484C43.986 37.3685 43.1614 37.0026 43.0893 36.9354C43.0119 36.8633 43.8341 36.8126 45.0934 36.8118L47.2289 36.8103L48.7137 37.4514ZM12.8921 38.6954C12.6315 38.8269 12.2894 39.1084 12.132 39.321C11.8464 39.7064 11.8456 39.7521 11.8096 57.0778C11.7737 74.3224 11.7755 74.4502 12.0515 74.7235C12.4646 75.1326 13.2038 75.0909 13.5633 74.6381C13.8497 74.2778 13.8498 74.2674 13.8498 57.393V40.5086H15.3702H16.8906V60.8331V81.1577H15.3702H13.8498V79.876C13.8498 78.7865 13.8069 78.54 13.5633 78.2336C13.2044 77.7817 12.4646 77.7391 12.053 78.1467C11.8065 78.3908 11.7766 78.6029 11.7766 80.111C11.7766 81.6407 11.8065 81.8458 12.0904 82.2666C12.6391 83.0801 13.0973 83.2103 15.4117 83.2104C17.6119 83.2107 17.9072 83.1401 18.5492 82.4601L18.8947 82.0942L18.9356 78.4096L18.9765 74.725H25.259H31.5414L31.5422 75.512C31.5436 77.0117 32.0292 77.9813 33.0672 78.5573L33.6837 78.8994L50.0121 78.9364L66.3406 78.9733L66.3928 80.3739C66.4358 81.5228 66.5004 81.8629 66.7516 82.2655C67.2733 83.1012 67.7913 83.2375 70.2521 83.1865C72.1964 83.1461 72.4221 83.1155 72.8162 82.8371C73.7478 82.179 73.6972 83.0246 73.6963 68.1348C73.6958 59.0009 73.648 54.5047 73.5477 54.1471C73.3364 53.393 72.3903 52.5016 71.5894 52.302C71.1166 52.184 66.0538 52.1422 52.2816 52.1422H33.6146V50.8168C33.6146 49.7585 33.5573 49.3739 33.3302 48.9093C32.9584 48.149 32.1139 47.4046 31.4101 47.2168C31.0328 47.1162 28.8993 47.08 24.912 47.1069L18.9757 47.1466L18.9352 43.3593L18.8947 39.5721L18.5492 39.2015C17.9541 38.5634 17.4903 38.4556 15.3401 38.4559C13.7339 38.456 13.2778 38.5006 12.8921 38.6954ZM66.5099 43.7933V47.3519H65.5424H64.5749V43.7933V40.2348H65.5424H66.5099V43.7933ZM71.6239 44.4777V48.7205H70.1035H68.5831V44.4777V40.2348H70.1035H71.6239V44.4777ZM31.2021 49.4671C31.5409 49.8024 31.5414 49.8076 31.5414 52.6848V55.5665L25.2872 55.531L19.0329 55.4954V52.6662C19.0329 49.8602 19.0357 49.8341 19.368 49.4841L19.7031 49.1311H25.283H30.8629L31.2021 49.4671ZM71.3474 54.4689C71.6192 54.738 71.6239 54.9251 71.6239 65.5289C71.6239 74.6284 71.5932 76.3566 71.4277 76.5808C71.2352 76.8415 70.8839 76.8465 52.6193 76.8465C34.3546 76.8465 34.0033 76.8415 33.8108 76.5808C33.6452 76.3565 33.6146 74.591 33.6146 65.2551V54.1952H52.3428C70.8868 54.1952 71.0738 54.1979 71.3474 54.4689ZM31.5414 62.544V67.4711H25.2526H18.9638V62.544V57.6168H25.2526H31.5414V62.544ZM31.5414 71.1679V72.6748L25.2872 72.6392L19.0329 72.6036L18.9937 71.1323L18.9544 69.661H25.2479H31.5414V71.1679ZM71.6239 79.9944V81.1577H70.0344H68.4449V80.0676V78.9775L69.8616 78.9331C70.6407 78.9087 71.3561 78.8758 71.4511 78.8599C71.5781 78.8387 71.6239 79.1395 71.6239 79.9944Z" fill="#E49B00"/>
</svg>
