<svg width="77" height="103" viewBox="0 0 77 103" fill="none" xmlns="http://www.w3.org/2000/svg">
<path d="M36.1273 102.553C29.2547 102.553 22.6645 101.377 16.3567 99.023C10.1431 96.5752 5.01214 93.1389 0.963867 88.714L17.0628 72.8975C18.7574 75.3453 21.2523 77.3695 24.5474 78.9699C27.9366 80.4763 31.4671 81.2294 35.1388 81.2294C38.4339 81.2294 41.2583 80.6646 43.6119 79.5348C46.0597 78.3109 47.9426 76.6634 49.2607 74.5922C50.6729 72.4268 51.379 69.8849 51.379 66.9664C51.379 64.0478 50.6729 61.5059 49.2607 59.3405C47.9426 57.1752 46.0126 55.4806 43.4707 54.2567C40.9288 53.0328 37.869 52.4208 34.2915 52.4208C31.0905 52.4208 28.1249 52.8915 25.3947 53.833C22.7586 54.6803 20.3579 55.9042 18.1926 57.5047L20.5933 41.4058C23.1352 39.8994 25.3947 38.6285 27.3718 37.5928C29.3488 36.5572 31.42 35.8041 33.5854 35.3333C35.8449 34.8626 38.481 34.6273 41.4936 34.6273C49.1195 34.6273 55.4743 36.1807 60.5582 39.2875C65.7362 42.3001 69.6432 46.3484 72.2793 51.4323C74.9154 56.422 76.2335 61.9295 76.2335 67.9549C76.2335 74.7334 74.5859 80.7587 71.2908 86.0309C67.9957 91.2089 63.3355 95.2572 57.3101 98.1757C51.379 101.094 44.318 102.553 36.1273 102.553ZM18.1926 57.5047L8.30724 48.4667L13.2499 0.875977L35.8449 0.875977L30.6198 46.9133L18.1926 57.5047ZM16.3567 21.9176L13.2499 0.875977L70.7259 0.875977V21.9176L16.3567 21.9176Z" fill="#E49B00" fill-opacity="0.06"/>
<path fill-rule="evenodd" clip-rule="evenodd" d="M5.74676 18.9141C4.38172 19.2387 2.96703 20.6121 2.55495 22.0128C2.22957 23.1182 2.22842 68.1418 2.5535 69.2322C2.89639 70.382 3.71099 71.332 4.8624 71.9248L5.85532 72.4361L17.3408 72.4769C27.7748 72.5138 28.8262 72.5391 28.8262 72.7522C28.8262 73.0666 28.1118 78.9214 28.0226 79.3386C27.9538 79.6601 27.9087 79.6673 25.9608 79.6673C23.7944 79.6673 23.4403 79.7726 23.2671 80.4686C23.1613 80.8941 23.4857 81.6309 23.8392 81.7678C24.1454 81.8864 54.639 81.8864 54.9453 81.7678C55.2988 81.6309 55.6231 80.8941 55.5173 80.4686C55.3442 79.7726 54.99 79.6673 52.8237 79.6673C50.8758 79.6673 50.8306 79.6601 50.7619 79.3386C50.6727 78.9214 49.9583 73.0666 49.9583 72.7522C49.9583 72.5391 51.0097 72.5138 61.4437 72.4769L72.9291 72.4361L73.9221 71.9248C74.6365 71.557 75.0642 71.2141 75.4468 70.7027C76.5204 69.2673 76.4458 71.1395 76.4458 45.6394C76.4458 25.43 76.4196 22.6585 76.2224 21.9882C75.9082 20.9205 74.9617 19.8024 73.9147 19.2619L73.0649 18.8232L39.692 18.8005C19.4951 18.7868 6.09313 18.8317 5.74676 18.9141ZM72.9854 21.2765C73.4386 21.5146 73.7175 21.7983 73.949 22.257L74.2747 22.9024V45.6145C74.2747 68.2873 74.2741 68.3276 73.9749 68.9516C73.7989 69.3184 73.4553 69.7144 73.1426 69.9106L72.6101 70.2448H39.3922H6.17433L5.64183 69.9106C5.32919 69.7144 4.98558 69.3184 4.80957 68.9516C4.51039 68.3276 4.50981 68.2873 4.50981 45.6145V22.9024L4.83548 22.257C5.06692 21.7983 5.34583 21.5146 5.79902 21.2765L6.43703 20.9414H39.3922H72.3474L72.9854 21.2765ZM7.32574 23.7835L6.9704 24.142V45.6231C6.9704 66.817 6.97416 67.1078 7.25626 67.3926C7.65647 67.7965 8.07144 67.8713 9.58412 67.8127C10.7645 67.7668 10.9334 67.7249 11.1808 67.4165C11.5553 66.9495 11.5312 66.3485 11.1224 65.9608C10.8596 65.7116 10.6102 65.6432 9.9645 65.6432H9.1415V45.6297V25.6161H36.6487H64.156L64.5274 25.2413C64.827 24.9389 64.8817 24.7764 64.8099 24.4013C64.761 24.1455 64.5836 23.8212 64.4158 23.6805C64.1276 23.439 62.5544 23.4248 35.8959 23.4248H7.68093L7.32574 23.7835ZM67.6825 23.7835C67.2265 24.2435 67.218 24.8774 67.662 25.2985C67.9249 25.5477 68.1743 25.6161 68.82 25.6161H69.643V45.6297V65.6432H42.0805H14.5179L14.218 66.0281C14.053 66.2398 13.9179 66.4997 13.9179 66.6056C13.9179 66.9918 14.2479 67.5139 14.592 67.6723C14.8466 67.7893 22.7151 67.8345 42.88 67.8345C72.7062 67.8345 71.4609 67.8631 71.7242 67.1705C71.7735 67.0405 71.8141 57.3059 71.8141 45.5381V24.142L71.4587 23.7835C71.1263 23.4478 71.0051 23.4248 69.5706 23.4248C68.1361 23.4248 68.0149 23.4478 67.6825 23.7835ZM22.6488 30.6106C22.4754 30.6952 22.2608 30.9416 22.1719 31.1581C21.8805 31.8679 22.1703 32.2339 24.0078 33.4763L25.7151 34.6308L27.7249 41.7736C28.8302 45.7023 29.8551 49.1328 30.0025 49.397L30.2704 49.8773L29.4519 51.5152C28.4781 53.4636 28.3907 54.156 29.0007 55.0866C29.3666 55.6443 29.3708 55.6781 29.1714 56.451C29.0126 57.0666 29.0015 57.4121 29.1218 57.9996C29.7647 61.1404 33.8733 61.7543 35.3913 58.9363C35.7579 58.2559 35.7986 58.0532 35.7484 57.158L35.6919 56.1477H40.5523H45.4127L45.3528 57.0976C45.3018 57.9047 45.3508 58.1667 45.6786 58.8431C47.0387 61.649 51.0518 61.262 51.9272 58.2405C52.1482 57.478 52.1524 57.3056 51.9674 56.5841C51.7998 55.9305 51.795 55.7102 51.9419 55.4154C52.1415 55.015 52.0683 54.6033 51.728 54.2121C51.52 53.9731 50.8327 53.9565 41.1791 53.9565C34.2564 53.9565 30.8526 53.9074 30.8526 53.8074C30.8526 53.7255 31.1393 53.0821 31.4897 52.3779L32.127 51.0974L32.6838 51.1454C33.5637 51.2213 48.9172 49.3291 49.7412 49.0432C50.7368 48.6977 51.9987 47.4199 52.3201 46.4317C52.4504 46.0308 52.9813 43.5373 53.4998 40.8907C54.3744 36.4262 54.4264 36.054 54.2191 35.7346C54.0963 35.5453 53.8527 35.331 53.6777 35.2584C53.5028 35.1858 47.9862 34.8917 41.4186 34.605C28.1847 34.0272 27.6704 33.9952 27.6635 33.7486C27.6607 33.6547 27.5447 33.4401 27.4051 33.2718C27.0518 32.8451 23.4485 30.4347 23.1822 30.4468C23.0623 30.4522 22.8224 30.5259 22.6488 30.6106ZM32.6974 36.4867C32.7695 36.5594 33.4459 40.4496 33.4553 40.8454C33.4567 40.9056 32.6239 40.955 31.6045 40.955H29.7511L29.0861 38.5967L28.4211 36.2385L30.5147 36.3175C31.6661 36.361 32.6483 36.4372 32.6974 36.4867ZM38.3429 36.668L39.537 36.7618V38.8584V40.955H37.6128H35.6886L35.3676 38.9463C35.191 37.8416 35.0473 36.8555 35.0483 36.755C35.0503 36.5477 36.3685 36.5128 38.3429 36.668ZM45.8555 37.0576C45.8828 37.0852 45.829 37.9734 45.7358 39.0313L45.5663 40.955H43.6372H41.7081V38.887V36.8192L43.7569 36.9132C44.8837 36.965 45.8281 37.03 45.8555 37.0576ZM51.934 37.3492C51.979 37.3946 51.5878 39.523 51.3317 40.6263C51.2578 40.9447 51.2013 40.955 49.5026 40.955H47.7498L47.8474 39.7498C47.9009 39.087 47.9842 38.2226 48.0322 37.8292L48.1196 37.1137L50.0001 37.2045C51.0344 37.2545 51.9047 37.3195 51.934 37.3492ZM33.8048 43.2679C33.8966 43.4179 34.7878 48.7204 34.7299 48.7729C34.707 48.7937 34.2262 48.8567 33.6614 48.9127C32.1244 49.0653 32.0263 48.9461 31.1378 45.8488C30.746 44.4829 30.4238 43.316 30.422 43.2558C30.417 43.1049 33.7122 43.1166 33.8048 43.2679ZM39.4646 45.7027V48.1861L38.2392 48.3616C37.5652 48.458 36.9924 48.5153 36.9662 48.4888C36.9208 48.4431 36.0684 43.4894 36.0649 43.2511C36.0639 43.1883 36.8284 43.1554 37.7639 43.1781L39.4646 43.2193V45.7027ZM45.2759 44.0592C45.226 44.5615 45.1423 45.5461 45.0901 46.2474C44.9836 47.6748 45.0582 47.5967 43.6621 47.7401C43.1844 47.7892 42.5495 47.8662 42.2509 47.911L41.7081 47.9927V45.5695V43.1462H43.5373H45.3665L45.2759 44.0592ZM50.7804 43.4749C50.7377 43.6558 50.6236 44.2186 50.527 44.726C50.2226 46.3233 49.4921 47.0395 48.0102 47.1939C47.2812 47.2699 47.2082 47.2513 47.2082 46.9903C47.2082 46.5228 47.5062 43.5274 47.5724 43.3288C47.6162 43.1973 48.0848 43.1462 49.2457 43.1462C50.8444 43.1462 50.8574 43.149 50.7804 43.4749ZM33.2677 56.4653C33.915 57.0792 33.6055 58.2088 32.702 58.5302C32.2448 58.6928 31.5585 58.3317 31.345 57.8161C30.8462 56.6109 32.3253 55.5719 33.2677 56.4653ZM49.4161 56.3515C49.8574 56.6897 50.0104 57.3753 49.7555 57.8727C49.518 58.3365 48.8132 58.6777 48.3983 58.5302C47.0694 58.0575 47.2681 56.14 48.6446 56.1524C48.9293 56.1549 49.2764 56.2446 49.4161 56.3515ZM35.3433 73.5317C35.7828 75.2785 36.3585 76.0686 37.7109 76.7814C38.5711 77.2348 40.23 77.2237 41.1291 76.7583C42.4115 76.0946 43.0045 75.2671 43.4412 73.5317L43.6802 72.5822L45.7018 72.5419L47.7235 72.5016L48.16 76.0844L48.5964 79.6673H39.3922H30.1881L30.6244 76.0844L31.061 72.5016L33.0827 72.5419L35.1043 72.5822L35.3433 73.5317ZM41.3613 72.9809C41.1313 74.1415 40.2983 74.9926 39.3922 74.9926C38.4862 74.9926 37.6532 74.1415 37.4232 72.9809L37.3297 72.5092H39.3922H41.4548L41.3613 72.9809Z" fill="#E49B00"/>
</svg>
