<svg width="82" height="104" viewBox="0 0 82 104" fill="none" xmlns="http://www.w3.org/2000/svg">
<path d="M39.3213 103.582C32.0348 103.582 25.4673 102.048 19.619 98.9798C13.8665 95.816 9.26448 91.5495 5.81298 86.1805C2.45735 80.7157 0.779541 74.6276 0.779541 67.9163C0.779541 59.5752 3.65579 51.1862 9.40829 42.7492L38.6022 0.0368652L67.3647 0.0368652L34.144 45.913L24.6524 45.0502C26.0905 42.7492 27.5287 40.7837 28.9668 39.1539C30.5008 37.4281 32.3703 36.0859 34.5755 35.1271C36.7806 34.1684 39.7048 33.689 43.348 33.689C49.7716 33.689 55.5721 35.223 60.7493 38.291C66.0225 41.2631 70.193 45.3378 73.261 50.515C76.4249 55.5964 78.0068 61.3489 78.0068 67.7725C78.0068 74.5797 76.2811 80.6677 72.8296 86.0367C69.474 91.4057 64.872 95.6721 59.0236 98.836C53.2711 102 46.7037 103.582 39.3213 103.582ZM39.3213 81.8662C42.1017 81.8662 44.5465 81.243 46.6557 79.9966C48.765 78.7502 50.3948 77.0245 51.5453 74.8193C52.7917 72.5183 53.4149 69.9777 53.4149 67.1973C53.4149 64.4169 52.7917 61.9242 51.5453 59.719C50.3948 57.418 48.765 55.6443 46.6557 54.398C44.5465 53.1516 42.1017 52.5284 39.3213 52.5284C36.6368 52.5284 34.2399 53.1995 32.1307 54.5418C30.0214 55.7882 28.3436 57.5139 27.0972 59.719C25.9467 61.9242 25.3715 64.4169 25.3715 67.1973C25.3715 69.9777 25.9467 72.5183 27.0972 74.8193C28.3436 77.0245 30.0214 78.7502 32.1307 79.9966C34.2399 81.243 36.6368 81.8662 39.3213 81.8662Z" fill="#E49B00" fill-opacity="0.06"/>
<path fill-rule="evenodd" clip-rule="evenodd" d="M42.2725 12.9672C41.9026 13.1362 40.2532 14.5792 38.0684 16.6455C36.091 18.5157 34.0672 20.4232 33.5712 20.8843L32.6693 21.7229L32.5943 20.7853C32.5122 19.7555 32.2426 19.2185 31.6471 18.8981C31.0807 18.5934 24.442 18.5934 23.8755 18.8981C22.954 19.3939 22.9628 19.3278 23.0101 25.3649L23.0528 30.8554L18.3402 35.3284C13.9012 39.5416 13.6089 39.8514 13.3042 40.6626C12.0691 43.9516 15.5079 47.0523 18.5753 45.4156C18.9185 45.2326 19.9972 44.3267 20.9724 43.4025L22.7459 41.7221V46.4952C22.7459 50.9645 22.7296 51.2621 22.4899 51.1696C22.3492 51.1153 21.2287 51.0314 19.9999 50.9832L17.7658 50.8954L17.6701 50.0769C17.5366 48.9346 17.1508 48.152 16.3632 47.4257C15.3452 46.4871 14.5473 46.3059 11.7111 46.3692C9.75033 46.4129 9.29393 46.4681 8.73042 46.7288C7.92957 47.0993 7.21369 47.7911 6.77174 48.6218C6.44662 49.2327 6.44544 49.2652 6.40443 58.3929C6.37758 64.3445 6.4152 67.649 6.51196 67.8305C6.72955 68.2392 7.43348 68.4502 7.86245 68.2352C8.58188 67.8745 8.58011 67.8996 8.58232 58.5344C8.58468 48.8653 8.54736 49.2693 9.48422 48.7824C10.1255 48.449 14.0678 48.4781 14.6444 48.8205C15.5551 49.3614 15.5178 48.746 15.5155 63.1959C15.5138 73.3572 15.4717 76.4523 15.3311 76.7272C15.2309 76.9233 14.9616 77.2235 14.7325 77.3945C14.3522 77.6782 14.1197 77.7053 12.0626 77.7053C8.87145 77.7053 8.70903 77.5852 8.58335 75.1318C8.51269 73.7512 8.46991 73.568 8.15955 73.3154C7.65992 72.9088 7.04611 72.9541 6.67762 73.4251C6.41785 73.757 6.37183 74.0242 6.37183 75.1989C6.37183 77.505 7.08756 78.7956 8.8058 79.5876C9.48245 79.8996 9.75048 79.9278 12.0511 79.9287C14.4979 79.9296 14.5792 79.9195 15.397 79.5159C16.6795 78.8827 17.2063 78.1502 17.6799 76.3415L17.8041 75.8675L25.7119 78.879C30.0611 80.5353 33.8699 81.9376 34.176 81.9953C34.4819 82.053 35.1718 82.0976 35.7091 82.0944C36.8101 82.0879 59.6545 78.7977 61.0257 78.4482C62.308 78.1213 64.4396 77.0167 65.3767 76.1933C70.7945 71.4335 80.8192 62.209 81.1582 61.6717C82.3057 59.8527 82.044 57.4622 80.5307 55.9409C79.1733 54.5764 77.0799 54.1872 75.3679 54.9806C74.8994 55.1977 72.3994 56.8079 69.8123 58.5587C67.2254 60.3094 65.0696 61.7025 65.0217 61.6545C64.9075 61.5397 64.9084 41.7464 65.0226 41.7464C65.0708 41.7464 65.9366 42.5182 66.9463 43.4616C67.956 44.405 69.0616 45.3044 69.4031 45.4602C70.8013 46.0983 72.738 45.6665 73.7682 44.4869C74.4468 43.7102 74.7058 43.0208 74.7142 41.9689C74.7265 40.465 74.4406 40.041 71.5641 37.2979C66.5709 32.5359 66.7964 32.7139 66.1142 32.998C65.5492 33.2331 65.2865 33.8794 65.5501 34.3853C65.6585 34.5931 67.1741 36.102 68.9181 37.7385C70.6622 39.3749 72.2125 40.9475 72.3633 41.2329C73.0669 42.5657 71.7194 44.0592 70.3468 43.4677C70.0882 43.3564 64.1677 37.8844 57.1903 31.3078C50.2129 24.7313 44.3454 19.3087 44.1516 19.2575C43.9576 19.2065 43.6468 19.2243 43.4609 19.2971C43.2751 19.3701 37.5623 24.7012 30.7659 31.1441C23.9696 37.5871 18.1807 43.042 17.9018 43.2663C17.156 43.8662 16.3828 43.832 15.7242 43.17C15.3269 42.7706 15.2228 42.5472 15.2237 42.0949C15.2241 41.7808 15.3404 41.3508 15.4818 41.1392C15.9593 40.4248 42.7223 15.1793 43.2432 14.9519C44.2426 14.5157 44.2656 14.5339 52.3405 22.1327C61.7684 31.005 61.0089 30.3286 61.5424 30.3286C62.1065 30.3286 62.5746 29.8612 62.5746 29.2977C62.5746 28.7699 63.38 29.5745 53.9033 20.6348C49.0417 16.0485 46.0704 13.3526 45.5888 13.0905C44.6543 12.5821 43.232 12.5293 42.2725 12.9672ZM30.4166 22.367V23.8957L28.5358 25.6713C27.5014 26.6479 26.3064 27.7707 25.8805 28.1666L25.1061 28.8863V24.8624V20.8384H27.7613H30.4166V22.367ZM54.6656 31.8855L62.8625 39.5963L62.8661 51.4187L62.8696 63.2409L61.3318 64.2782L59.7938 65.3154L58.2012 65.2082L56.6087 65.1012L56.4277 64.0125C55.9766 61.2998 54.1819 59.1818 51.6448 58.3683L51.1148 58.1983L51.0179 55.5093C50.9647 54.0303 50.921 50.6853 50.921 48.0759V43.3316L50.3247 42.7614L49.7285 42.1913H43.9622C38.4772 42.1913 38.1728 42.2055 37.7244 42.4841C36.8352 43.0367 36.8404 42.9966 36.7597 50.0024L36.6859 56.4048L35.137 55.9007C34.2804 55.622 32.3024 54.7452 30.7116 53.9389C28.9388 53.0406 27.2832 52.3155 26.3968 52.0494L24.9586 51.6174L24.9631 45.6069L24.9677 39.5963L34.4143 30.6595L43.861 21.7227L45.1649 22.9488C45.8819 23.623 50.1573 27.6446 54.6656 31.8855ZM48.8558 51.0883C48.8558 56.4516 48.8164 57.9073 48.6714 57.8996C48.5701 57.8943 46.3628 57.6413 43.7666 57.3376L39.0461 56.7855L39.0076 50.5263L38.9691 44.2673H43.9125H48.8558V51.0883ZM22.5246 53.3891C25.2784 53.8056 27.3961 54.549 30.1707 56.0727C32.4037 57.2989 34.4378 58.0781 36.6859 58.5685C37.2538 58.6923 40.6061 59.1299 44.1354 59.5411C47.6646 59.9522 50.7845 60.3599 51.0685 60.4474C51.9036 60.7045 53.0239 61.5535 53.5404 62.3207C54.0114 63.0204 54.4753 64.6175 54.2681 64.826C54.2104 64.8838 49.0473 64.4815 42.7943 63.9319C32.3003 63.0098 31.3978 62.9508 31.0706 63.1662C30.3582 63.6355 30.4821 64.7013 31.2845 65.0055C31.4968 65.086 37.1801 65.6248 43.9141 66.2026C57.5352 67.3715 57.7633 67.3896 59.3482 67.4286L60.4735 67.4562L68.3928 62.1267L76.3119 56.7973H77.2507C78.3001 56.7973 78.7704 57.0456 79.3543 57.9079C79.8077 58.5777 79.8074 59.7127 79.3535 60.4467C78.9406 61.1144 64.1437 74.5139 63.0243 75.2337C62.1376 75.8039 61.1664 76.214 60.1776 76.436C59.8327 76.5134 54.2069 77.3525 47.6757 78.3008C38.8929 79.5759 35.6088 80.0008 35.0633 79.9322C34.6558 79.8811 30.6139 78.4331 26.0316 76.6965L17.7375 73.5534L17.7339 63.3588L17.7304 53.1643L19.3899 53.1652C20.3027 53.1656 21.7133 53.2665 22.5246 53.3891Z" fill="#E49B00"/>
</svg>
