<svg width="78" height="102" viewBox="0 0 78 102" fill="none" xmlns="http://www.w3.org/2000/svg">
<path d="M13.919 101.963L47.2835 14.0936L72.163 14.0936L40.2367 101.963H13.919ZM0.688232 21.4281L0.688232 0L72.163 0V14.0936L64.3972 21.4281L0.688232 21.4281Z" fill="#E49B00" fill-opacity="0.06"/>
<path fill-rule="evenodd" clip-rule="evenodd" d="M37.5567 12.7089C36.7877 12.8372 35.3101 13.3734 34.5651 13.7944C34.1341 14.038 33.2673 14.7591 32.6388 15.397C30.9468 17.1142 30.0594 19.1066 29.9718 21.3849C29.9258 22.5835 30.1779 22.9433 31.0639 22.9433H31.6497L31.6631 24.2708C31.6846 26.4119 32.3658 28.0469 33.8657 29.558C34.632 30.33 36.436 31.4077 36.9703 31.4128C37.4768 31.4176 37.5877 31.6223 37.4215 32.2444C37.335 32.5679 37.2082 33.5943 37.1397 34.5254L37.0152 36.2183L36.2532 36.9139C35.8339 37.2966 35.234 37.8244 34.9199 38.0869L34.3488 38.5642L31.0736 38.8151L27.7983 39.0661L23.6533 37.678C21.3735 36.9147 19.367 36.2901 19.1945 36.2901C18.6556 36.2901 18.0268 36.7176 17.8151 37.2278C17.6605 37.6005 17.6126 38.4775 17.6126 40.9338C17.6126 44.7857 17.6067 44.7689 19.016 44.8716C19.4978 44.9067 19.8912 44.9761 19.8902 45.0258C19.8894 45.0756 19.4727 46.5648 18.9643 48.3352C18.456 50.1057 18.04 51.764 18.04 52.0204C18.04 52.3529 18.1476 52.5716 18.4154 52.7837C18.8979 53.1662 19.2198 53.1596 19.6625 52.7583C19.9459 52.5013 20.2105 51.7623 20.9598 49.1346C21.4776 47.3191 21.967 45.6238 22.0473 45.3673L22.1934 44.9009H23.6782C24.4948 44.9009 25.1629 44.928 25.1629 44.9612C25.1629 44.9944 24.9369 45.8125 24.6607 46.7792C22.832 53.1798 22.7865 59.3502 24.5237 65.4297C25.0089 67.1282 26.282 70.7087 26.6749 71.4797C26.7835 71.693 26.8724 71.9028 26.8724 71.9461C26.8724 71.9896 26.439 72.0251 25.9092 72.0251H24.9462L21.1013 67.6958C18.9866 65.3148 17.2046 63.2793 17.1412 63.1727C17.0717 63.0559 17.3695 61.7644 17.8891 59.928C18.3638 58.2502 18.7523 56.7952 18.7523 56.6949C18.7523 56.3569 18.0662 55.808 17.644 55.808C16.9419 55.808 16.6968 56.2725 15.9016 59.1088C15.4923 60.5691 15.0984 61.8768 15.0266 62.015C14.9272 62.206 14.7152 62.2661 14.1402 62.2661C13.0376 62.2661 11.3036 62.7496 9.91994 63.4429C8.93926 63.9343 8.44963 64.3099 7.34431 65.4182C6.20137 66.5645 5.87358 67.0008 5.32697 68.1035C4.96798 68.8277 4.59374 69.7827 4.4953 70.2257C4.33019 70.9689 4.3386 71.0612 4.60471 71.4204C4.81754 71.7079 5.12211 71.8633 5.76816 72.0142L6.64342 72.2185L6.64584 72.947C6.65852 76.6716 9.28059 80.0802 12.8346 80.9921C16.4448 81.9183 20.4643 80.094 22.0784 76.7968C22.4522 76.0328 22.5714 75.8985 22.811 75.9707C22.9685 76.018 23.4498 76.093 23.8808 76.137C24.5765 76.2081 24.6988 76.1792 24.9718 75.8791C25.1409 75.6933 25.3353 75.2505 25.4036 74.8953L25.528 74.2495H36.6902H47.8523L48.0474 75.0389C48.6701 77.5584 50.5427 79.9235 52.8045 81.0466C55.4992 82.385 58.1997 82.3949 60.8556 81.0763C63.2905 79.8674 65.0576 77.603 65.7637 74.7877L65.9167 74.1778H66.7465C67.4532 74.1778 67.6321 74.1217 67.9519 73.7995C68.2766 73.4724 68.3272 73.302 68.325 72.5437C68.3236 72.0611 68.2343 71.2465 68.1266 70.7334C67.9961 70.1124 67.9686 69.5596 68.0441 69.0799C68.5641 65.7766 68.192 62.215 67.0622 59.6829L66.774 59.037L67.1874 58.6065C67.8876 57.8773 68.0425 57.2945 68.0425 55.3918V53.6747L71.2835 53.6292L74.5244 53.5835L75.304 53.138C76.1673 52.6446 76.9179 51.69 77.1628 50.7739C77.2605 50.408 77.2984 47.7639 77.2718 43.1443C77.2316 36.1631 77.2271 36.0674 76.9161 35.4815C76.5151 34.7261 75.8632 34.0694 75.1133 33.6654C74.5276 33.3498 74.4833 33.3481 67.259 33.3481H59.9937L59.2189 33.7786C58.4255 34.2193 57.7181 35.0485 57.4047 35.9049C57.285 36.2317 57.2343 38.5173 57.2266 43.9322L57.2158 51.5026H54.8752H52.5346L52.6671 51.0371C52.7399 50.7811 52.7996 49.5374 52.7996 48.2735C52.7996 40.296 50.5333 33.658 46.5399 29.9396C45.5213 28.9911 45.5045 28.9641 45.7347 28.648C47.1205 26.7453 47.7036 25.3298 47.9639 23.2363C48.1469 21.764 48.0326 20.5001 47.5864 19.0684C46.6261 15.9862 43.9272 13.4734 40.8781 12.8225C39.9692 12.6285 38.3665 12.5737 37.5567 12.7089ZM40.592 14.9771C43.3765 15.7078 45.4378 18.0773 45.8363 21.0059C46.032 22.4439 45.7584 24.2409 45.1414 25.5692C44.6616 26.602 43.4091 28.0334 42.5699 28.508L41.9925 28.8345L41.9471 25.6378C41.8961 22.0524 41.8183 21.7404 40.8282 21.1544C40.3682 20.8823 40.0558 20.8592 36.2387 20.8166L32.1427 20.7709L32.2343 20.386C33.1735 16.4359 36.9175 14.0129 40.592 14.9771ZM39.7648 26.2441V29.4732L38.763 29.4654C36.4773 29.4479 34.5309 27.8137 33.916 25.3957C33.7049 24.5657 33.7206 23.4202 33.9481 23.0481C33.9853 22.9872 35.3093 22.9549 36.8903 22.9763L39.7648 23.015V26.2441ZM45.4618 31.9129C48.3358 34.7843 50.1629 39.6941 50.6029 45.728L50.6998 47.0575L45.8064 47.0196L40.913 46.9819L40.5285 45.5767C40.3171 44.8039 40.1055 43.9321 40.0584 43.6393L39.9727 43.107L41.6716 41.9916C44.4339 40.1777 45.1855 39.1985 45.1667 37.4382C45.1391 34.8506 42.6643 33.1239 40.1934 33.968C39.7242 34.1285 39.3167 34.2363 39.2884 34.2076C39.2344 34.1533 39.6824 31.8046 39.7621 31.7243C39.7871 31.6991 40.2233 31.5909 40.7313 31.4837C41.2393 31.3766 42.0952 31.1008 42.6331 30.8706C43.5651 30.4719 43.6309 30.463 44.0338 30.6803C44.2661 30.8057 44.9088 31.3604 45.4618 31.9129ZM74.6285 35.9696C75.0832 36.4276 75.0953 36.4722 75.1432 37.8712L75.1921 39.3039H67.2724H59.3526V37.9985C59.3526 37.028 59.4148 36.5873 59.5947 36.2805C60.0974 35.4231 60.0528 35.4277 67.4344 35.4659L74.1629 35.5008L74.6285 35.9696ZM42.5517 36.3705C43.3139 37.1063 43.197 38.0743 42.2391 38.9567C41.9751 39.1998 40.6014 40.1525 39.1865 41.0736L36.6137 42.7482H34.521H32.4282V41.8154C32.4282 41.3023 32.4764 40.8808 32.535 40.8787C32.5937 40.8765 33.2369 40.8168 33.9642 40.7459L35.2865 40.617L37.6709 38.5433C38.9824 37.4028 40.2785 36.3288 40.5511 36.1571C41.2019 35.7467 41.9929 35.8313 42.5517 36.3705ZM22.6588 39.5872C24.058 40.0586 25.2268 40.4685 25.256 40.4979C25.2852 40.5273 25.212 40.7854 25.0935 41.0711C24.975 41.357 24.878 41.8513 24.878 42.1696V42.7482H22.3137H19.7495V40.739C19.7495 39.2013 19.7924 38.7298 19.932 38.7298C20.0324 38.7298 21.2594 39.1156 22.6588 39.5872ZM30.2201 41.8871V42.6765H28.7398C27.117 42.6765 26.8869 42.5635 27.0638 41.8534C27.1774 41.3975 27.4042 41.2997 28.6531 41.1683C30.2648 40.9985 30.2201 40.978 30.2201 41.8871ZM75.1654 42.6047V43.7528H67.259H59.3526V42.6047V41.4566H67.259H75.1654V42.6047ZM38.4185 45.8969L38.7794 47.3233L37.6148 47.9048C35.5935 48.9137 34.2081 50.789 33.5506 53.4056C33.2973 54.4139 33.2428 55.1721 33.1799 58.5514L33.1063 62.5145L32.3588 62.8267C30.8679 63.4492 29.9382 64.6395 29.5697 66.3979L29.4105 67.1572L28.3374 67.1154L27.2641 67.0738L26.7859 65.4991C25.8292 62.3493 25.4467 59.745 25.4506 56.4076C25.4546 52.9231 25.9468 49.7527 27.0214 46.2896L27.4522 44.9009L32.3263 44.8959C36.2835 44.8917 37.2675 44.8521 37.5567 44.6857C37.7525 44.5729 37.9454 44.4783 37.9853 44.4754C38.0251 44.4727 38.2201 45.1123 38.4185 45.8969ZM75.1396 48.1993L75.0942 50.4932L74.6285 50.9619L74.1629 51.4308L66.7577 51.4704L59.3526 51.51V48.7078V45.9055H67.2689H75.1851L75.1396 48.1993ZM50.6627 49.7543C50.6627 50.5956 50.2699 51.7401 49.7933 52.2869C48.9739 53.227 48.1988 53.401 44.3946 53.498C41.2319 53.5788 41.018 53.6016 40.5228 53.9119C40.2017 54.1129 39.8706 54.502 39.668 54.9165C39.3549 55.5567 39.335 55.7741 39.2925 59.0012L39.2475 62.4096H37.2625H35.2774V59.3344C35.2774 57.6431 35.346 55.7623 35.4298 55.1551C35.8589 52.0478 37.1266 50.2012 39.309 49.5044C40.1181 49.2461 40.6315 49.2218 45.4274 49.2144L50.6627 49.2063V49.7543ZM65.9057 55.277C65.9057 56.347 65.8476 56.9572 65.7347 57.0709C65.6078 57.1988 64.1634 57.2431 60.1169 57.2431C56.6931 57.2431 54.5255 57.2985 54.2807 57.3922C53.4984 57.6919 53.3009 58.3694 53.8072 59.0177L54.1024 59.3958H59.2938H64.4852L64.7693 59.8623C65.4531 60.9857 65.9514 62.8506 66.1209 64.9211L66.215 66.0692L65.4173 65.183C63.9195 63.5187 61.7771 62.1853 59.7088 61.6302C58.4482 61.2918 56.2938 61.1867 54.9809 61.3999C49.8641 62.2302 46.0769 66.1295 45.1837 71.4869L45.0939 72.0251H37.1472H29.2007L28.6776 70.7366C28.3898 70.0281 28.1545 69.4145 28.1545 69.3732C28.1545 69.332 30.7848 69.2983 33.9998 69.2983C40.3695 69.2983 40.5605 69.2765 41.0714 68.4917C41.3064 68.1307 41.3361 67.6691 41.3751 63.7437L41.4184 59.3958H45.89C50.3493 59.3958 50.3623 59.395 50.5834 59.0768C50.9011 58.6201 50.8642 57.9155 50.5056 57.5883C50.2268 57.334 49.8986 57.3119 45.8045 57.2714L41.403 57.2278V56.6889C41.403 55.7001 41.4077 55.6986 44.822 55.6175C46.5066 55.5776 48.1659 55.4726 48.5095 55.3843C49.4148 55.1517 50.5858 54.5412 51.0371 54.0667L51.4283 53.6553H58.667H65.9057V55.277ZM58.7116 63.6316C59.9419 63.8938 61.7437 64.7559 62.7286 65.5537C63.5945 66.2549 64.6224 67.5847 65.2186 68.7745C65.5702 69.4761 66.1906 71.474 66.1906 71.9045C66.1906 71.9708 61.9363 72.0251 56.7367 72.0251H47.2827L47.417 71.2804C47.9321 68.4254 49.9523 65.733 52.5527 64.4355C54.505 63.4616 56.6185 63.1857 58.7116 63.6316ZM19.3532 68.9488C21.5691 71.4404 23.4047 73.5808 23.4322 73.7053C23.4673 73.8649 23.4042 73.9113 23.2185 73.8625C23.0735 73.8244 19.3649 72.9648 14.9772 71.9523C10.5895 70.9398 6.95013 70.0691 6.88987 70.0176C6.64484 69.8083 7.74176 68.0481 8.78028 66.9843C10.396 65.3291 12.3209 64.4485 14.3672 64.4283L15.3242 64.4188L19.3532 68.9488ZM39.2662 65.854V67.1456H35.4348H31.6035L31.7084 66.6792C31.9535 65.5885 32.5524 64.9231 33.4936 64.6957C33.7304 64.6385 35.1261 64.5852 36.5951 64.577L39.2662 64.5623V65.854ZM14.8347 74.1192C17.8121 74.8066 20.2773 75.3943 20.3131 75.4249C20.3488 75.4556 20.2527 75.7204 20.0994 76.0132C19.6318 76.9068 18.416 78.0242 17.3668 78.5249C16.4626 78.9565 16.303 78.9855 14.8347 78.9855C13.368 78.9855 13.2063 78.9562 12.3074 78.5272C11.133 77.9667 10.0896 76.9492 9.52148 75.8102C9.10351 74.9723 8.78028 73.7812 8.78028 73.0787C8.78028 72.7702 8.83156 72.7241 9.10081 72.7904C9.27703 72.8338 11.8574 73.4318 14.8347 74.1192ZM63.572 74.6442C63.3862 75.6062 62.5897 76.9685 61.6917 77.86C58.938 80.5941 54.7402 80.587 52.0172 77.8438C51.1247 76.9447 50.3284 75.5822 50.1473 74.6442L50.0573 74.1778H56.8596H63.662L63.572 74.6442Z" fill="#E49B00"/>
</svg>
