<svg width="74" height="104" viewBox="0 0 74 104" fill="none" xmlns="http://www.w3.org/2000/svg">
<path d="M37.0123 103.547C29.6056 103.547 23.1364 102.281 17.6048 99.7499C12.1669 97.2185 7.94788 93.7496 4.94769 89.343C1.94749 84.9365 0.447388 79.8736 0.447388 74.1545C0.447388 69.3729 1.33807 65.0602 3.11944 61.2162C4.99456 57.3722 7.57286 54.2313 10.8543 51.7937C14.2295 49.2622 18.0736 47.5746 22.3863 46.7308L21.9644 51.3718C18.2142 50.6217 15.0265 49.1216 12.4013 46.8715C9.77613 44.5276 7.76037 41.7149 6.35403 38.4334C4.94768 35.0582 4.24451 31.5892 4.24451 28.0265C4.24451 22.6824 5.60398 17.9477 8.32291 13.8224C11.1356 9.69713 14.9796 6.46255 19.8549 4.11864C24.824 1.77473 30.5431 0.602783 37.0123 0.602783C43.4815 0.602783 49.1537 1.77473 54.029 4.11864C58.9044 6.46255 62.7015 9.69713 65.4204 13.8224C68.2331 17.9477 69.6395 22.6824 69.6395 28.0265C69.6395 31.5892 68.9363 35.0582 67.5299 38.4334C66.1236 41.7149 64.1078 44.5276 61.4827 46.8715C58.8575 49.1216 55.6698 50.6217 51.9195 51.3718L51.357 46.7308C55.7635 47.5746 59.6075 49.2622 62.889 51.7937C66.2642 54.2313 68.8425 57.3722 70.6239 61.2162C72.499 65.0602 73.4366 69.3729 73.4366 74.1545C73.4366 79.8736 71.9365 84.9365 68.9363 89.343C65.9361 93.7496 61.6702 97.2185 56.1386 99.7499C50.7007 102.281 44.3253 103.547 37.0123 103.547ZM37.0123 82.5926C39.45 82.5926 41.6064 82.0769 43.4815 81.0456C45.4504 80.0143 46.9505 78.6079 47.9818 76.8266C49.1068 74.9514 49.6694 72.8419 49.6694 70.498C49.6694 68.1541 49.1068 66.0915 47.9818 64.3101C46.9505 62.5287 45.4504 61.1224 43.4815 60.0911C41.6064 58.966 39.45 58.4035 37.0123 58.4035C34.4809 58.4035 32.2776 58.966 30.4025 60.0911C28.5274 61.1224 27.0273 62.5287 25.9022 64.3101C24.7771 66.0915 24.2146 68.1541 24.2146 70.498C24.2146 72.8419 24.7771 74.9514 25.9022 76.8266C27.0273 78.6079 28.5274 80.0143 30.4025 81.0456C32.2776 82.0769 34.4809 82.5926 37.0123 82.5926ZM37.0123 40.5429C39.825 40.5429 42.122 39.6522 43.9034 37.8709C45.7785 36.0895 46.7161 33.7925 46.7161 30.9798C46.7161 28.0733 45.7785 25.6826 43.9034 23.8074C42.122 21.9323 39.825 20.9948 37.0123 20.9948C34.1059 20.9948 31.7151 21.9323 29.84 23.8074C28.0586 25.5888 27.1679 27.8858 27.1679 30.6985C27.1679 33.5112 28.0586 35.8551 29.84 37.7302C31.7151 39.6054 34.1059 40.5429 37.0123 40.5429Z" fill="#E49B00" fill-opacity="0.06"/>
<path fill-rule="evenodd" clip-rule="evenodd" d="M27.252 19.6633C27.0417 19.7266 26.2949 20.3715 25.4699 21.2019L24.0498 22.6315L21.9699 21.754C20.8259 21.2712 19.5887 20.7968 19.2205 20.6997C17.6964 20.2971 16.0083 20.6493 14.7445 21.6333C14.3838 21.9142 13.4299 22.8273 12.6247 23.6625C10.9428 25.407 10.6925 25.868 10.7785 27.0659C10.8167 27.6004 10.9237 27.9427 11.1698 28.3181C11.4929 28.8107 14.7867 31.341 29.2398 42.1991L32.3369 44.5259L28.9051 48.5186C27.0176 50.7146 25.4222 52.6574 25.36 52.8361C25.1459 53.45 25.7927 54.1435 26.424 53.9769C26.5825 53.9351 31.0247 48.8619 37.2279 41.6383C43.0222 34.8911 48.1397 28.9892 48.6003 28.5229C50.651 26.4471 53.5157 24.7006 56.3038 23.8265C58.1034 23.2624 61.1482 22.7861 62.1945 22.9052C62.9616 22.9926 63.6322 23.476 63.9739 24.1883C64.2507 24.7655 64.2532 24.8058 64.1041 26.3311C63.764 29.8136 62.7918 32.7907 61.1245 35.4553C60.5464 36.3789 60.5273 36.8758 61.0545 37.2713C61.3242 37.4736 61.4581 37.5003 61.7258 37.4053C62.154 37.2533 62.9098 36.1614 63.6894 34.5679C65.0295 31.829 65.6164 29.6799 65.937 26.3379C66.0677 24.9766 66.0615 24.7063 65.8852 24.0943C65.4864 22.7099 64.4125 21.6057 63.0747 21.2048C62.2905 20.9698 61.8509 20.9707 59.8642 21.212C57.1885 21.5368 55.1762 22.1239 52.8708 23.252C50.1063 24.605 47.9991 26.3191 45.3493 29.3707C44.6401 30.1874 44.0209 30.8721 43.9732 30.8923C43.9256 30.9124 42.775 30.4616 41.416 29.8905C39.2151 28.9655 38.9682 28.8333 39.1536 28.6783C39.4554 28.4263 39.8076 27.5804 39.8106 27.1001C39.8149 26.4372 39.5031 25.9456 38.3656 24.8221C36.5302 23.0094 35.9549 23.0339 33.9636 25.0104L32.7114 26.253L31.5727 25.7783C30.9464 25.5172 30.4102 25.2851 30.381 25.2626C30.352 25.2399 30.5009 25.0413 30.7121 24.8212C31.391 24.1131 31.6342 23.1931 31.3472 22.418C31.163 21.9207 29.2998 20.0442 28.7175 19.7696C28.1871 19.5195 27.8179 19.4926 27.252 19.6633ZM28.8064 22.221C29.2632 22.6786 29.637 23.1122 29.637 23.1847C29.637 23.2571 29.3743 23.5776 29.0532 23.8969L28.4694 24.4773L27.2448 23.9708C26.5713 23.6921 25.9955 23.441 25.9654 23.4128C25.9086 23.3597 27.8065 21.389 27.9146 21.389C27.9483 21.389 28.3496 21.7634 28.8064 22.221ZM30.6792 27.3799C37.1528 30.0888 42.4956 32.3485 42.552 32.4016C42.6778 32.52 33.7179 42.9828 33.4907 42.9828C33.3594 42.9828 15.2878 29.4634 13.1824 27.7901C12.6494 27.3665 12.5949 27.2754 12.5949 26.8096C12.5949 26.3158 12.657 26.2333 14.2211 24.6548C16.2006 22.657 16.7327 22.3452 18.0508 22.4116C18.861 22.4523 19.5684 22.7306 30.6792 27.3799ZM37.1436 26.1809C37.6004 26.6385 37.9742 27.0731 37.9742 27.1466C37.9742 27.2201 37.7866 27.4639 37.5573 27.6882L37.1403 28.0962L35.8387 27.5631L34.5371 27.03L35.3635 26.1894C35.818 25.7272 36.2175 25.3489 36.2514 25.3489C36.2852 25.3489 36.6868 25.7233 37.1436 26.1809ZM53.2651 27.2061C52.8519 27.5342 52.809 28.168 53.1772 28.5043C53.312 28.6275 53.8222 28.8045 54.3111 28.8979C56.5154 29.3185 57.7623 30.5996 58.2493 32.9441C58.3442 33.4014 58.5194 33.8841 58.6386 34.017C58.9437 34.3574 59.4985 34.3247 59.8756 33.944C60.1589 33.6582 60.1795 33.5704 60.1007 32.9849C59.7215 30.167 58.1193 28.1489 55.6294 27.3529C54.321 26.9346 53.6589 26.8935 53.2651 27.2061ZM58.2981 39.1297C58.1187 39.207 51.8863 44.5926 44.4482 51.0976C37.0101 57.6024 30.4279 63.3387 29.821 63.8446C26.655 66.4838 22.8145 69.0143 19.2769 70.7921C17.8271 71.5205 17.6083 71.5667 16.9643 71.2791C16.43 71.0405 16.0278 70.4589 16.0278 69.9245C16.0278 69.5928 17.5158 66.5763 18.5437 64.824C19.9739 62.3861 21.6406 59.9766 23.3973 57.8075C24.3317 56.6539 24.4735 56.1475 23.9972 55.6668C23.3924 55.0563 22.8909 55.424 21.0554 57.8239C20.5053 58.5431 20.004 59.1317 19.9416 59.1317C19.8794 59.1317 17.9386 58.2707 15.6292 57.2183C13.3197 56.1661 11.1449 55.2436 10.7964 55.1685C10.0352 55.0044 9.02876 55.1588 8.19099 55.5682C7.51225 55.8998 5.70234 57.6258 5.43335 58.1978C5.32619 58.4257 5.23853 58.7624 5.23853 58.9461C5.23853 59.7998 5.47258 60.0181 10.3167 63.6812C12.8847 65.6229 15.0074 67.2301 15.034 67.2525C15.0606 67.2749 14.9 67.6983 14.6771 68.1933C13.9669 69.7702 14.1645 71.226 15.2349 72.3066C16.2645 73.3457 17.732 73.5574 19.1763 72.8753C19.6177 72.6668 20.0416 72.4985 20.1182 72.5014C20.1949 72.5042 21.8025 74.5966 23.6907 77.1513C25.5788 79.706 27.2634 81.8984 27.4343 82.0235C27.8564 82.3326 28.5207 82.4414 28.9639 82.2741C29.4795 82.0795 31.437 80.0962 31.7822 79.4188C31.9402 79.1086 32.1167 78.5795 32.1746 78.2432C32.3853 77.0166 32.2294 76.5023 30.4336 72.4963C29.503 70.4204 28.6162 68.4374 28.4629 68.0896L28.1839 67.457L29.001 66.8521C30.2349 65.9385 31.5514 64.8181 37.3464 59.7504C40.2649 57.1981 42.6898 55.0979 42.735 55.0834C42.7801 55.0688 46.2103 59.6539 50.3574 65.2726C54.5045 70.8912 58.0829 75.708 58.3092 75.9765C58.8792 76.6524 59.5792 76.9903 60.4111 76.9909C61.5279 76.9917 61.9923 76.6871 63.9904 74.6435C65.4952 73.1046 65.8589 72.6586 66.1973 71.9371C66.5797 71.1222 66.6027 70.9961 66.6023 69.712L66.6019 68.3508L65.7215 66.2471L64.8411 64.1434L66.2399 62.712C68.5694 60.3281 68.6028 59.7218 66.5171 57.692C65.5502 56.7511 65.2705 56.5471 64.8477 56.475C64.1 56.3475 63.6577 56.4924 62.9041 57.1119C62.5329 57.4171 62.2117 57.6483 62.1903 57.6258C62.1051 57.5358 61.1467 55.1342 61.1467 55.0104C61.1467 54.9375 61.6376 54.3726 62.2375 53.7552C63.4326 52.5252 63.6754 52.0263 63.4865 51.1904C63.3525 50.5979 63.0722 50.2156 62.0269 49.1988C60.7393 47.9463 60.0608 47.7415 59.0304 48.2945L58.4716 48.5944L58.2261 48.016C57.9303 47.3186 56.5015 43.8314 56.3614 43.4645C56.2752 43.2387 56.4667 43.0255 57.7943 41.8694C58.6372 41.1355 59.3763 40.4037 59.4367 40.243C59.704 39.5337 58.9868 38.8326 58.2981 39.1297ZM59.8333 56.7296C64.5863 68.3211 64.8344 68.9644 64.8401 69.7099C64.8495 70.9524 64.5651 71.4364 62.7196 73.3175C60.9579 75.113 60.6239 75.3364 60.0908 75.0752C59.7291 74.898 44.1852 53.9996 44.2558 53.7856C44.2955 53.6652 54.6631 44.5488 54.7712 44.5391C54.8049 44.5362 57.0828 50.0218 59.8333 56.7296ZM60.9617 50.7249L61.7979 51.599L61.0809 52.3303C60.6864 52.7325 60.3375 53.0351 60.3054 53.0027C60.2094 52.9059 59.3076 50.6903 59.3076 50.5515C59.3076 50.3725 59.8108 49.8507 59.9832 49.8507C60.0615 49.8507 60.5019 50.2441 60.9617 50.7249ZM14.7601 58.8417C16.9461 59.8395 18.7614 60.6994 18.7939 60.7525C18.8264 60.8056 18.4741 61.4511 18.0108 62.1869C17.5476 62.9227 16.9052 63.9875 16.5832 64.553C16.2084 65.2115 15.9398 65.5588 15.8362 65.5187C15.5489 65.4075 7.20022 58.9985 7.20022 58.8893C7.20022 58.6794 8.914 57.1879 9.30903 57.054C10.0955 56.7873 10.6783 56.9785 14.7601 58.8417ZM65.3429 59.0974C65.7997 59.555 66.1735 59.9878 66.1735 60.0592C66.1735 60.1306 65.7063 60.6581 65.1352 61.2315L64.0968 62.2741L63.8591 61.7238C63.7283 61.4211 63.4821 60.8394 63.3118 60.431L63.0022 59.6885L63.6951 58.977C64.0762 58.5856 64.416 58.2655 64.4502 58.2655C64.4843 58.2655 64.886 58.6398 65.3429 59.0974ZM28.6607 72.9913C30.4985 77.0919 30.5801 77.365 30.2605 78.3423C30.1866 78.5685 29.7468 79.1334 29.2831 79.5978L28.4402 80.442L25.8119 76.9332C24.3664 75.0034 22.8733 73.0075 22.494 72.498L21.8046 71.5717L22.1347 71.3714C22.3161 71.2613 23.1267 70.7745 23.9359 70.2895C24.7451 69.8047 25.683 69.2182 26.0202 68.9865C26.6295 68.5676 26.6341 68.5666 26.7735 68.8292C26.8506 68.9745 27.6999 70.8474 28.6607 72.9913Z" fill="#E49B00"/>
</svg>
