<svg width="1160" height="85" viewBox="0 0 1160 85" fill="none" xmlns="http://www.w3.org/2000/svg">
<path d="M83.6926 1.53922L84.6351 1.87352L85.1084 0.539222H83.6926V1.53922ZM54.4437 84V85H55.1501L55.3862 84.3343L54.4437 84ZM29.3061 84L28.3636 84.3343L28.5998 85H29.3061V84ZM0.0571895 1.53922L0.0571895 0.539222H-1.35855L-0.885279 1.87352L0.0571895 1.53922ZM21.4359 1.53922L22.386 1.2273L22.1601 0.539222H21.4359V1.53922ZM41.8749 63.7959L40.9248 64.1079L41.8722 66.9936L42.8245 64.1095L41.8749 63.7959ZM62.4314 1.53922V0.539222H61.7085L61.4818 1.22568L62.4314 1.53922ZM82.7502 1.20493L53.5012 83.6657L55.3862 84.3343L84.6351 1.87352L82.7502 1.20493ZM54.4437 83H29.3061V85H54.4437V83ZM30.2486 83.6657L0.999658 1.20493L-0.885279 1.87352L28.3636 84.3343L30.2486 83.6657ZM0.0571895 2.53922L21.4359 2.53922V0.539222L0.0571895 0.539222L0.0571895 2.53922ZM20.4858 1.85114L40.9248 64.1079L42.825 63.484L22.386 1.2273L20.4858 1.85114ZM42.8245 64.1095L63.3809 1.85276L61.4818 1.22568L40.9253 63.4824L42.8245 64.1095ZM62.4314 2.53922L83.6926 2.53922V0.539222L62.4314 0.539222V2.53922ZM159.161 18.4543H160.161V17.4543H159.161V18.4543ZM159.161 84V85H160.161V84H159.161ZM139.074 84H138.074V85H139.074V84ZM139.074 75.0726H140.074V71.9103L138.256 74.4977L139.074 75.0726ZM130.734 82.1206L131.181 83.015L131.189 83.011L130.734 82.1206ZM105.949 81.4158L105.439 82.2763L105.446 82.2802L105.453 82.284L105.949 81.4158ZM97.0213 71.6661L96.1269 72.1133L96.1269 72.1133L97.0213 71.6661ZM93.8497 18.4543V17.4543H92.8497V18.4543H93.8497ZM113.819 18.4543H114.819V17.4543H113.819V18.4543ZM117.225 64.2658L116.495 64.949L116.495 64.949L117.225 64.2658ZM139.074 18.4543V17.4543H138.074V18.4543H139.074ZM158.161 18.4543L158.161 84H160.161L160.161 18.4543H158.161ZM159.161 83H139.074V85H159.161V83ZM140.074 84V75.0726H138.074V84H140.074ZM138.256 74.4977C136.324 77.247 133.675 79.4942 130.279 81.2301L131.189 83.011C134.841 81.1446 137.752 78.6932 139.892 75.6476L138.256 74.4977ZM130.287 81.2261C126.993 82.8729 123.311 83.7048 119.222 83.7048V85.7048C123.591 85.7048 127.583 84.8138 131.181 83.015L130.287 81.2261ZM119.222 83.7048C114.361 83.7048 110.112 82.6428 106.445 80.5475L105.453 82.284C109.46 84.5741 114.06 85.7048 119.222 85.7048V83.7048ZM106.458 80.5552C102.796 78.3881 99.9496 75.2866 97.9157 71.2189L96.1269 72.1133C98.3218 76.5032 101.427 79.9014 105.439 82.2763L106.458 80.5552ZM97.9157 71.2189C95.8838 67.1551 94.8497 62.3415 94.8497 56.748H92.8497C92.8497 62.5878 93.93 67.7196 96.1269 72.1133L97.9157 71.2189ZM94.8497 56.748V18.4543H92.8497V56.748H94.8497ZM93.8497 19.4543H113.819V17.4543L93.8497 17.4543V19.4543ZM112.819 18.4543V54.0463H114.819V18.4543H112.819ZM112.819 54.0463C112.819 58.6022 114.001 62.2832 116.495 64.949L117.956 63.5826C115.907 61.3932 114.819 58.2611 114.819 54.0463H112.819ZM116.495 64.949C118.985 67.6105 122.32 68.9072 126.388 68.9072V66.9072C122.78 66.9072 120.008 65.7763 117.956 63.5826L116.495 64.949ZM126.388 68.9072C130.526 68.9072 133.904 67.6147 136.398 64.949L134.937 63.5826C132.889 65.7721 130.08 66.9072 126.388 66.9072V68.9072ZM136.398 64.949C138.891 62.2832 140.074 58.6022 140.074 54.0463H138.074C138.074 58.2611 136.985 61.3932 134.937 63.5826L136.398 64.949ZM140.074 54.0463L140.074 18.4543H138.074L138.074 54.0463H140.074ZM139.074 19.4543H159.161V17.4543L139.074 17.4543V19.4543ZM237.372 56.0432V57.0432H238.264L238.366 56.1578L237.372 56.0432ZM191.913 56.0432V55.0432H190.833L190.916 56.1199L191.913 56.0432ZM195.79 65.4405L195.095 66.1599L195.108 66.172L195.121 66.1837L195.79 65.4405ZM214.819 62.2689V61.2689H214.18L213.912 61.8488L214.819 62.2689ZM236.198 62.2689L237.167 62.5156L237.484 61.2689H236.198V62.2689ZM230.207 73.898L229.442 73.2543L229.433 73.2647L230.207 73.898ZM219.518 82.0031L219.931 82.9135L219.518 82.0031ZM187.919 80.8284L187.44 81.7058L187.44 81.7058L187.919 80.8284ZM176.173 69.0819L177.048 68.5974L177.048 68.5974L176.173 69.0819ZM176.055 33.3724L175.181 32.8878L175.175 32.8983L176.055 33.3724ZM187.802 21.6258L188.282 22.5032L188.282 22.5032L187.802 21.6258ZM221.984 21.5084L221.509 22.3884L221.509 22.3884L221.984 21.5084ZM233.496 32.9025L232.622 33.3882L232.628 33.3986L233.496 32.9025ZM217.168 44.884V45.884H218.168V44.884H217.168ZM213.644 36.6614L214.299 35.9057L214.299 35.9057L213.644 36.6614ZM196.259 36.5439L195.619 35.7757L195.613 35.7811L195.606 35.7865L196.259 36.5439ZM192.031 44.884L191.042 44.7335L190.867 45.884H192.031V44.884ZM236.725 50.1699C236.725 52.0078 236.61 53.9272 236.379 55.9286L238.366 56.1578C238.605 54.0871 238.725 52.0909 238.725 50.1699H236.725ZM237.372 55.0432L191.913 55.0432V57.0432L237.372 57.0432V55.0432ZM190.916 56.1199C191.243 60.3625 192.601 63.7521 195.095 66.1599L196.484 64.721C194.436 62.7434 193.21 59.8682 192.91 55.9665L190.916 56.1199ZM195.121 66.1837C197.666 68.4748 200.768 69.612 204.365 69.612V67.612C201.227 67.612 198.612 66.6349 196.459 64.6972L195.121 66.1837ZM204.365 69.612C207.012 69.612 209.325 69.0529 211.256 67.8812C213.192 66.7067 214.676 64.9571 215.726 62.689L213.912 61.8488C213.004 63.8094 211.767 65.2314 210.218 66.1713C208.665 67.114 206.729 67.612 204.365 67.612V69.612ZM214.819 63.2689L236.198 63.2689V61.2689L214.819 61.2689V63.2689ZM235.229 62.0222C234.17 66.1814 232.243 69.9224 229.442 73.2544L230.972 74.5416C233.965 70.9822 236.033 66.9705 237.167 62.5156L235.229 62.0222ZM229.433 73.2647C226.717 76.5842 223.28 79.1944 219.104 81.0927L219.931 82.9135C224.369 80.8963 228.059 78.1031 230.981 74.5312L229.433 73.2647ZM219.104 81.0927C214.942 82.9844 210.27 83.9397 205.069 83.9397V85.9397C210.519 85.9397 215.479 84.9373 219.931 82.9135L219.104 81.0927ZM205.069 83.9397C198.794 83.9397 193.246 82.6019 188.399 79.9511L187.44 81.7058C192.616 84.5367 198.501 85.9397 205.069 85.9397V83.9397ZM188.399 79.9511C183.557 77.3029 179.777 73.5251 177.048 68.5974L175.298 69.5664C178.207 74.819 182.258 78.8723 187.44 81.7058L188.399 79.9511ZM177.048 68.5974C174.324 63.679 172.944 57.8997 172.944 51.2271H170.944C170.944 58.1805 172.384 64.3044 175.298 69.5664L177.048 68.5974ZM172.944 51.2271C172.944 44.5501 174.286 38.767 176.936 33.8465L175.175 32.8983C172.343 38.1581 170.944 44.2782 170.944 51.2271H172.944ZM176.93 33.8569C179.659 28.9292 183.439 25.1514 188.282 22.5032L187.322 20.7485C182.141 23.582 178.09 27.6352 175.181 32.8879L176.93 33.8569ZM188.282 22.5032C193.127 19.8533 198.714 18.5145 205.069 18.5145V16.5145C198.425 16.5145 192.5 17.9166 187.322 20.7485L188.282 22.5032ZM205.069 18.5145C211.269 18.5145 216.74 19.8144 221.509 22.3884L222.459 20.6283C217.362 17.8772 211.556 16.5145 205.069 16.5145V18.5145ZM221.509 22.3884C226.274 24.9596 229.973 28.6203 232.622 33.3882L234.37 32.4169C231.537 27.3176 227.562 23.3822 222.459 20.6283L221.509 22.3884ZM232.628 33.3986C235.348 38.1587 236.725 43.7382 236.725 50.1699H238.725C238.725 43.4456 237.283 37.5134 234.364 32.4064L232.628 33.3986ZM218.168 44.884C218.168 41.1836 216.893 38.1537 214.299 35.9057L212.989 37.4171C215.094 39.2413 216.168 41.6931 216.168 44.884H218.168ZM214.299 35.9057C211.744 33.691 208.565 32.6073 204.834 32.6073V34.6073C208.152 34.6073 210.846 35.5597 212.989 37.4171L214.299 35.9057ZM204.834 32.6073C201.258 32.6073 198.167 33.6528 195.619 35.7757L196.9 37.3122C199.051 35.5196 201.676 34.6073 204.834 34.6073V32.6073ZM195.606 35.7865C193.118 37.9318 191.618 40.9483 191.042 44.7335L193.019 45.0344C193.54 41.6151 194.859 39.0716 196.912 37.3013L195.606 35.7865ZM192.031 45.884H217.168V43.884H192.031V45.884ZM302.356 1.53922H303.356V0.539222H302.356V1.53922ZM294.955 77.7743L294.266 77.0502L294.26 77.0557L294.955 77.7743ZM254.312 77.4219L253.627 78.1505L253.627 78.1505L254.312 77.4219ZM246.442 56.3956V55.3956H245.442V56.3956H246.442ZM266.411 56.3956H267.411V55.3956H266.411V56.3956ZM268.525 64.2658L267.738 64.8821L267.745 64.8906L267.752 64.899L268.525 64.2658ZM280.272 64.5007L279.51 63.8531L279.51 63.8531L280.272 64.5007ZM282.269 1.53922V0.539222H281.269V1.53922H282.269ZM301.356 1.53922V57.6877H303.356V1.53922H301.356ZM301.356 57.6877C301.356 66.1863 298.95 72.5891 294.266 77.0502L295.645 78.4985C300.828 73.5623 303.356 66.574 303.356 57.6877H301.356ZM294.26 77.0557C289.632 81.5345 283.325 83.8223 275.221 83.8223V85.8223C283.719 85.8223 290.568 83.4114 295.651 78.4929L294.26 77.0557ZM275.221 83.8223C266.727 83.8223 260.022 81.4178 254.997 76.6934L253.627 78.1505C259.096 83.2932 266.33 85.8223 275.221 85.8223V83.8223ZM254.997 76.6934C250.001 71.9956 247.442 65.2804 247.442 56.3956H245.442C245.442 65.6788 248.13 72.9811 253.627 78.1505L254.997 76.6934ZM246.442 57.3956H266.411V55.3956H246.442V57.3956ZM265.411 56.3956C265.411 59.9567 266.136 62.8356 267.738 64.8821L269.313 63.6495C268.095 62.0937 267.411 59.7258 267.411 56.3956H265.411ZM267.752 64.899C269.389 66.9001 271.736 67.85 274.634 67.85V65.85C272.206 65.85 270.481 65.0771 269.299 63.6326L267.752 64.899ZM274.634 67.85C277.296 67.85 279.478 66.9793 281.034 65.1484L279.51 63.8531C278.404 65.1546 276.827 65.85 274.634 65.85V67.85ZM281.034 65.1484C282.575 63.3354 283.269 60.7968 283.269 57.6877H281.269C281.269 60.5302 280.632 62.5336 279.51 63.8531L281.034 65.1484ZM283.269 57.6877V1.53922H281.269V57.6877H283.269ZM282.269 2.53922L302.356 2.53922V0.539222L282.269 0.539222V2.53922ZM334.556 81.8856L334.177 82.8109L334.177 82.8109L334.556 81.8856ZM323.044 73.1932L322.238 73.7853L322.246 73.7958L323.044 73.1932ZM318.58 59.3322V58.3322H317.551L317.581 59.3612L318.58 59.3322ZM339.959 59.3322L340.954 59.2302L340.862 58.3322H339.959V59.3322ZM343.131 66.3802L342.456 67.1187L342.465 67.1268L342.475 67.1348L343.131 66.3802ZM357.227 66.7326L357.838 67.5239L357.849 67.5153L357.86 67.5065L357.227 66.7326ZM357.696 55.9257L356.989 56.6329L356.999 56.643L357.01 56.6528L357.696 55.9257ZM352.645 52.6367L352.243 53.552L352.249 53.5549L352.256 53.5577L352.645 52.6367ZM344.188 49.7001L343.893 50.6556L343.902 50.6585L344.188 49.7001ZM331.149 44.7665L330.71 45.6651L330.71 45.6651L331.149 44.7665ZM322.457 37.4837L323.254 36.8806L323.254 36.8806L322.457 37.4837ZM327.155 6.94263L327.768 7.73321L327.775 7.7278L327.155 6.94263ZM370.853 6.94263L370.233 7.72783L370.24 7.73318L370.853 6.94263ZM379.78 25.0323V26.0323H380.832L380.779 24.9819L379.78 25.0323ZM358.049 25.0323L357.051 25.091L357.106 26.0323H358.049V25.0323ZM355.112 18.8067L354.456 19.5613L354.466 19.5696L354.475 19.5776L355.112 18.8067ZM342.308 18.4543L342.953 19.2192L342.964 19.2095L342.975 19.1995L342.308 18.4543ZM343.836 30.2008L344.346 29.3409L344.346 29.3409L343.836 30.2008ZM355.582 35.0169L355.903 34.0695L355.89 34.0654L355.582 35.0169ZM368.503 40.1854L368.056 41.0798L368.064 41.0839L368.503 40.1854ZM377.196 47.3508L376.405 47.9633L376.405 47.9633L377.196 47.3508ZM377.196 72.2535L376.351 71.7188L376.347 71.725L376.343 71.7313L377.196 72.2535ZM366.859 81.4158L366.412 80.5213L366.412 80.5213L366.859 81.4158ZM350.766 83.8223C344.845 83.8223 339.573 82.8612 334.935 80.9603L334.177 82.8109C339.092 84.8256 344.628 85.8223 350.766 85.8223V83.8223ZM334.935 80.9603C330.311 79.0654 326.624 76.274 323.842 72.5906L322.246 73.7958C325.26 77.7867 329.246 80.7903 334.177 82.8109L334.935 80.9603ZM323.85 72.6011C321.167 68.9491 319.732 64.5321 319.58 59.3033L317.581 59.3612C317.743 64.9392 319.283 69.7628 322.238 73.7853L323.85 72.6011ZM318.58 60.3322H339.959V58.3322H318.58V60.3322ZM338.964 59.4343C339.296 62.6672 340.431 65.269 342.456 67.1187L343.805 65.6417C342.229 64.2024 341.249 62.1055 340.954 59.2302L338.964 59.4343ZM342.475 67.1348C344.495 68.8913 347.094 69.7295 350.179 69.7295V67.7295C347.468 67.7295 345.369 67.0014 343.787 65.6256L342.475 67.1348ZM350.179 69.7295C353.296 69.7295 355.886 69.0324 357.838 67.5239L356.615 65.9413C355.122 67.0953 353.013 67.7295 350.179 67.7295V69.7295ZM357.86 67.5065C359.838 65.8883 360.811 63.6734 360.811 60.9768H358.811C358.811 63.1354 358.061 64.7577 356.593 65.9586L357.86 67.5065ZM360.811 60.9768C360.811 58.6811 360.004 56.7293 358.383 55.1987L357.01 56.6528C358.208 57.7847 358.811 59.2003 358.811 60.9768H360.811ZM358.404 55.2186C356.967 53.7819 355.169 52.6187 353.035 51.7157L352.256 53.5577C354.194 54.3775 355.764 55.4071 356.989 56.6329L358.404 55.2186ZM353.048 51.7214C351.034 50.835 348.168 49.8422 344.473 48.7417L343.902 50.6585C347.569 51.7507 350.342 52.7156 352.243 53.552L353.048 51.7214ZM344.483 48.7446C339.186 47.1087 334.893 45.4818 331.588 43.868L330.71 45.6651C334.141 47.3403 338.54 49.0024 343.893 50.6555L344.483 48.7446ZM331.588 43.868C328.372 42.2974 325.595 39.9755 323.254 36.8806L321.659 38.0868C324.174 41.4133 327.192 43.9466 330.71 45.6651L331.588 43.868ZM323.254 36.8806C320.991 33.8873 319.815 29.9279 319.815 24.9149H317.815C317.815 30.2388 319.067 34.6585 321.659 38.0868L323.254 36.8806ZM319.815 24.9149C319.815 17.5173 322.477 11.8318 327.768 7.73318L326.543 6.15209C320.714 10.6676 317.815 16.9636 317.815 24.9149H319.815ZM327.775 7.7278C333.117 3.5145 340.124 1.36457 348.887 1.36457V-0.635432C339.794 -0.635432 332.314 1.60002 326.536 6.15747L327.775 7.7278ZM348.887 1.36457C357.81 1.36457 364.894 3.51678 370.233 7.7278L371.472 6.15747C365.691 1.59773 358.131 -0.635432 348.887 -0.635432V1.36457ZM370.24 7.73318C375.544 11.8418 378.403 17.5873 378.781 25.0828L380.779 24.9819C380.374 16.9719 377.281 10.6576 371.465 6.15209L370.24 7.73318ZM379.78 24.0323H358.049V26.0323H379.78V24.0323ZM359.047 24.9736C358.877 22.0769 357.796 19.7263 355.749 18.0357L354.475 19.5776C356.031 20.8628 356.908 22.6626 357.051 25.091L359.047 24.9736ZM355.768 18.052C353.753 16.2998 351.196 15.4573 348.182 15.4573V17.4573C350.806 17.4573 352.869 18.1811 354.456 19.5613L355.768 18.052ZM348.182 15.4573C345.564 15.4573 343.351 16.18 341.642 17.709L342.975 19.1995C344.242 18.066 345.944 17.4573 348.182 17.4573V15.4573ZM341.664 17.6893C339.896 19.1782 339.077 21.3321 339.077 23.9751H341.077C341.077 21.7629 341.745 20.2362 342.953 19.2192L341.664 17.6893ZM339.077 23.9751C339.077 27.0291 340.55 29.4132 343.325 31.0607L344.346 29.3409C342.109 28.0126 341.077 26.2462 341.077 23.9751H339.077ZM343.325 31.0607C345.929 32.6069 349.93 34.2395 355.274 35.9683L355.89 34.0654C350.583 32.3487 346.754 30.7705 344.346 29.3409L343.325 31.0607ZM355.262 35.9642C360.563 37.7574 364.823 39.4635 368.056 41.0798L368.951 39.2909C365.605 37.6182 361.251 35.8786 355.902 34.0696L355.262 35.9642ZM368.064 41.0839C371.286 42.6574 374.066 44.9448 376.405 47.9633L377.986 46.7382C375.47 43.4919 372.455 41.0023 368.942 39.2868L368.064 41.0839ZM376.405 47.9633C378.667 50.8812 379.837 54.6825 379.837 59.4497H381.837C381.837 54.3498 380.58 50.0852 377.986 46.7382L376.405 47.9633ZM379.837 59.4497C379.837 63.966 378.673 68.0473 376.351 71.7188L378.041 72.7881C380.573 68.7852 381.837 64.3307 381.837 59.4497H379.837ZM376.343 71.7313C374.103 75.3891 370.808 78.323 366.412 80.5213L367.306 82.3102C371.993 79.9666 375.589 76.7923 378.049 72.7756L376.343 71.7313ZM366.412 80.5213C362.035 82.7094 356.831 83.8223 350.766 83.8223V85.8223C357.074 85.8223 362.598 84.6641 367.306 82.3102L366.412 80.5213ZM472.958 1.53922L473.9 1.87352L474.373 0.539222H472.958V1.53922ZM443.709 84V85H444.415L444.651 84.3343L443.709 84ZM418.571 84L417.629 84.3343L417.865 85H418.571V84ZM389.322 1.53922V0.539222H387.906L388.38 1.87352L389.322 1.53922ZM410.701 1.53922L411.651 1.2273L411.425 0.539222H410.701V1.53922ZM431.14 63.7959L430.19 64.1079L431.137 66.9936L432.09 64.1095L431.14 63.7959ZM451.696 1.53922V0.539222H450.973L450.747 1.22568L451.696 1.53922ZM472.015 1.20493L442.766 83.6657L444.651 84.3343L473.9 1.87352L472.015 1.20493ZM443.709 83L418.571 83V85L443.709 85V83ZM419.514 83.6657L390.265 1.20493L388.38 1.87352L417.629 84.3343L419.514 83.6657ZM389.322 2.53922H410.701V0.539222H389.322V2.53922ZM409.751 1.85114L430.19 64.1079L432.09 63.484L411.651 1.2273L409.751 1.85114ZM432.09 64.1095L452.646 1.85276L450.747 1.22568L430.19 63.4824L432.09 64.1095ZM451.696 2.53922L472.958 2.53922V0.539222L451.696 0.539222V2.53922ZM548.426 18.4543H549.426V17.4543H548.426V18.4543ZM548.426 84V85H549.426V84H548.426ZM528.339 84H527.339V85H528.339V84ZM528.339 75.0726H529.339V71.9103L527.521 74.4977L528.339 75.0726ZM519.999 82.1206L520.446 83.015L520.454 83.011L519.999 82.1206ZM495.214 81.4158L494.704 82.2763L494.711 82.2802L494.718 82.284L495.214 81.4158ZM486.286 71.6661L485.392 72.1133L485.392 72.1133L486.286 71.6661ZM483.115 18.4543V17.4543H482.115V18.4543H483.115ZM503.084 18.4543H504.084V17.4543H503.084V18.4543ZM506.49 64.2658L505.76 64.949L505.76 64.949L506.49 64.2658ZM528.339 18.4543V17.4543H527.339V18.4543H528.339ZM547.426 18.4543V84H549.426V18.4543H547.426ZM548.426 83H528.339V85H548.426V83ZM529.339 84V75.0726H527.339V84H529.339ZM527.521 74.4977C525.589 77.247 522.94 79.4942 519.544 81.2301L520.454 83.011C524.106 81.1446 527.017 78.6932 529.157 75.6476L527.521 74.4977ZM519.552 81.2261C516.258 82.8729 512.576 83.7048 508.487 83.7048V85.7048C512.856 85.7048 516.848 84.8138 520.446 83.015L519.552 81.2261ZM508.487 83.7048C503.626 83.7048 499.377 82.6428 495.71 80.5475L494.718 82.284C498.725 84.5741 503.325 85.7048 508.487 85.7048V83.7048ZM495.723 80.5552C492.061 78.3881 489.215 75.2866 487.181 71.2189L485.392 72.1133C487.587 76.5032 490.692 79.9014 494.704 82.2763L495.723 80.5552ZM487.181 71.2189C485.149 67.1551 484.115 62.3415 484.115 56.748H482.115C482.115 62.5878 483.195 67.7196 485.392 72.1133L487.181 71.2189ZM484.115 56.748V18.4543H482.115V56.748H484.115ZM483.115 19.4543L503.084 19.4543V17.4543H483.115V19.4543ZM502.084 18.4543V54.0463H504.084V18.4543H502.084ZM502.084 54.0463C502.084 58.6022 503.266 62.2832 505.76 64.949L507.221 63.5826C505.172 61.3932 504.084 58.2611 504.084 54.0463H502.084ZM505.76 64.949C508.25 67.6105 511.585 68.9072 515.653 68.9072V66.9072C512.046 66.9072 509.273 65.7763 507.221 63.5826L505.76 64.949ZM515.653 68.9072C519.791 68.9072 523.169 67.6147 525.663 64.949L524.202 63.5826C522.154 65.7721 519.345 66.9072 515.653 66.9072V68.9072ZM525.663 64.949C528.157 62.2832 529.339 58.6022 529.339 54.0463H527.339C527.339 58.2611 526.25 61.3932 524.202 63.5826L525.663 64.949ZM529.339 54.0463V18.4543H527.339V54.0463H529.339ZM528.339 19.4543H548.426V17.4543H528.339V19.4543ZM626.637 56.0432V57.0432H627.529L627.631 56.1578L626.637 56.0432ZM581.178 56.0432V55.0432H580.098L580.181 56.1199L581.178 56.0432ZM585.055 65.4405L584.36 66.1599L584.373 66.172L584.386 66.1837L585.055 65.4405ZM604.084 62.2689V61.2689H603.445L603.177 61.8488L604.084 62.2689ZM625.463 62.2689L626.432 62.5156L626.749 61.2689H625.463V62.2689ZM619.472 73.898L618.707 73.2543L618.698 73.2647L619.472 73.898ZM608.783 82.0031L609.196 82.9135L608.783 82.0031ZM577.184 80.8284L576.705 81.7058L576.705 81.7058L577.184 80.8284ZM565.438 69.0819L566.313 68.5974L566.313 68.5974L565.438 69.0819ZM565.32 33.3724L564.446 32.8878L564.44 32.8983L565.32 33.3724ZM577.067 21.6258L577.547 22.5032L577.547 22.5032L577.067 21.6258ZM611.249 21.5084L610.775 22.3884L610.775 22.3884L611.249 21.5084ZM622.761 32.9025L621.887 33.3882L621.893 33.3986L622.761 32.9025ZM606.433 44.884V45.884H607.433V44.884H606.433ZM602.909 36.6614L603.564 35.9057L603.564 35.9057L602.909 36.6614ZM585.524 36.5439L584.884 35.7757L584.878 35.7811L584.872 35.7865L585.524 36.5439ZM581.296 44.884L580.307 44.7335L580.132 45.884H581.296V44.884ZM625.99 50.1699C625.99 52.0078 625.875 53.9272 625.644 55.9286L627.631 56.1578C627.87 54.0871 627.99 52.0909 627.99 50.1699H625.99ZM626.637 55.0432H581.178V57.0432H626.637V55.0432ZM580.181 56.1199C580.508 60.3625 581.866 63.7521 584.36 66.1599L585.749 64.721C583.701 62.7434 582.475 59.8682 582.175 55.9665L580.181 56.1199ZM584.386 66.1837C586.931 68.4748 590.033 69.612 593.63 69.612V67.612C590.492 67.612 587.877 66.6349 585.724 64.6972L584.386 66.1837ZM593.63 69.612C596.277 69.612 598.59 69.0529 600.521 67.8812C602.457 66.7067 603.941 64.9571 604.992 62.689L603.177 61.8488C602.269 63.8094 601.032 65.2314 599.483 66.1713C597.93 67.114 595.995 67.612 593.63 67.612V69.612ZM604.084 63.2689H625.463V61.2689H604.084V63.2689ZM624.494 62.0222C623.435 66.1814 621.509 69.9224 618.707 73.2544L620.237 74.5416C623.231 70.9822 625.298 66.9705 626.432 62.5156L624.494 62.0222ZM618.698 73.2647C615.982 76.5842 612.545 79.1944 608.369 81.0927L609.196 82.9135C613.634 80.8963 617.324 78.1031 620.246 74.5312L618.698 73.2647ZM608.369 81.0927C604.207 82.9844 599.535 83.9397 594.334 83.9397V85.9397C599.784 85.9397 604.744 84.9373 609.196 82.9135L608.369 81.0927ZM594.334 83.9397C588.059 83.9397 582.511 82.6019 577.664 79.9511L576.705 81.7058C581.881 84.5367 587.766 85.9397 594.334 85.9397V83.9397ZM577.664 79.9511C572.822 77.3029 569.042 73.5251 566.313 68.5974L564.563 69.5664C567.472 74.819 571.523 78.8723 576.705 81.7058L577.664 79.9511ZM566.313 68.5974C563.589 63.679 562.209 57.8997 562.209 51.2271H560.209C560.209 58.1805 561.649 64.3044 564.563 69.5664L566.313 68.5974ZM562.209 51.2271C562.209 44.5501 563.551 38.767 566.201 33.8465L564.44 32.8983C561.608 38.1581 560.209 44.2782 560.209 51.2271H562.209ZM566.195 33.8569C568.924 28.9292 572.704 25.1514 577.547 22.5032L576.587 20.7485C571.406 23.582 567.355 27.6352 564.446 32.8879L566.195 33.8569ZM577.547 22.5032C582.392 19.8533 587.979 18.5145 594.334 18.5145V16.5145C587.69 16.5145 581.765 17.9166 576.587 20.7485L577.547 22.5032ZM594.334 18.5145C600.534 18.5145 606.005 19.8144 610.775 22.3884L611.724 20.6283C606.627 17.8772 600.821 16.5145 594.334 16.5145V18.5145ZM610.775 22.3884C615.539 24.9596 619.238 28.6203 621.887 33.3882L623.635 32.4169C620.802 27.3176 616.827 23.3822 611.724 20.6283L610.775 22.3884ZM621.893 33.3986C624.613 38.1587 625.99 43.7382 625.99 50.1699H627.99C627.99 43.4456 626.548 37.5134 623.629 32.4064L621.893 33.3986ZM607.433 44.884C607.433 41.1836 606.158 38.1537 603.564 35.9057L602.254 37.4171C604.359 39.2413 605.433 41.6931 605.433 44.884H607.433ZM603.564 35.9057C601.009 33.691 597.83 32.6073 594.099 32.6073V34.6073C597.417 34.6073 600.111 35.5597 602.254 37.4171L603.564 35.9057ZM594.099 32.6073C590.523 32.6073 587.432 33.6528 584.884 35.7757L586.165 37.3122C588.316 35.5196 590.941 34.6073 594.099 34.6073V32.6073ZM584.872 35.7865C582.383 37.9318 580.883 40.9483 580.307 44.7335L582.284 45.0344C582.805 41.6151 584.124 39.0716 586.177 37.3013L584.872 35.7865ZM581.296 45.884H606.433V43.884H581.296V45.884ZM691.621 1.53922H692.621V0.539222H691.621V1.53922ZM684.22 77.7743L683.531 77.0502L683.525 77.0557L684.22 77.7743ZM643.577 77.4219L642.892 78.1505L642.892 78.1505L643.577 77.4219ZM635.707 56.3956V55.3956H634.707V56.3956H635.707ZM655.676 56.3956H656.676V55.3956H655.676V56.3956ZM657.791 64.2658L657.003 64.8821L657.01 64.8906L657.017 64.899L657.791 64.2658ZM669.537 64.5007L668.775 63.8531L668.775 63.8531L669.537 64.5007ZM671.534 1.53922V0.539222H670.534V1.53922H671.534ZM690.621 1.53922V57.6877H692.621V1.53922H690.621ZM690.621 57.6877C690.621 66.1863 688.215 72.5891 683.531 77.0502L684.91 78.4985C690.093 73.5623 692.621 66.574 692.621 57.6877H690.621ZM683.525 77.0557C678.897 81.5345 672.59 83.8223 664.486 83.8223V85.8223C672.984 85.8223 679.833 83.4114 684.916 78.4929L683.525 77.0557ZM664.486 83.8223C655.992 83.8223 649.287 81.4178 644.262 76.6934L642.892 78.1505C648.361 83.2932 655.595 85.8223 664.486 85.8223V83.8223ZM644.262 76.6934C639.266 71.9956 636.707 65.2804 636.707 56.3956H634.707C634.707 65.6788 637.395 72.9811 642.892 78.1505L644.262 76.6934ZM635.707 57.3956H655.676V55.3956H635.707V57.3956ZM654.676 56.3956C654.676 59.9567 655.401 62.8356 657.003 64.8821L658.578 63.6495C657.36 62.0937 656.676 59.7258 656.676 56.3956H654.676ZM657.017 64.899C658.654 66.9001 661.001 67.85 663.899 67.85V65.85C661.471 65.85 659.746 65.0771 658.564 63.6326L657.017 64.899ZM663.899 67.85C666.561 67.85 668.743 66.9793 670.299 65.1484L668.775 63.8531C667.669 65.1546 666.092 65.85 663.899 65.85V67.85ZM670.299 65.1484C671.84 63.3354 672.534 60.7968 672.534 57.6877H670.534C670.534 60.5302 669.897 62.5336 668.775 63.8531L670.299 65.1484ZM672.534 57.6877V1.53922H670.534V57.6877H672.534ZM671.534 2.53922L691.621 2.53922V0.539222L671.534 0.539222V2.53922ZM723.821 81.8856L723.442 82.8109L723.442 82.8109L723.821 81.8856ZM712.309 73.1932L711.503 73.7853L711.511 73.7958L712.309 73.1932ZM707.845 59.3322V58.3322H706.816L706.846 59.3612L707.845 59.3322ZM729.224 59.3322L730.219 59.2302L730.127 58.3322H729.224V59.3322ZM732.396 66.3802L731.721 67.1187L731.73 67.1268L731.74 67.1348L732.396 66.3802ZM746.492 66.7326L747.103 67.5239L747.114 67.5153L747.125 67.5065L746.492 66.7326ZM746.961 55.9257L746.254 56.6329L746.264 56.643L746.275 56.6528L746.961 55.9257ZM741.91 52.6367L741.508 53.552L741.514 53.5549L741.521 53.5577L741.91 52.6367ZM733.453 49.7001L733.158 50.6556L733.167 50.6585L733.453 49.7001ZM720.414 44.7665L719.975 45.6651L719.975 45.6651L720.414 44.7665ZM711.722 37.4837L712.519 36.8806L712.519 36.8806L711.722 37.4837ZM716.42 6.94263L717.033 7.73321L717.04 7.7278L716.42 6.94263ZM760.118 6.94263L759.498 7.72783L759.505 7.73318L760.118 6.94263ZM769.045 25.0323V26.0323H770.097L770.044 24.9819L769.045 25.0323ZM747.314 25.0323L746.316 25.091L746.371 26.0323H747.314V25.0323ZM744.377 18.8067L743.721 19.5613L743.731 19.5696L743.74 19.5776L744.377 18.8067ZM731.574 18.4543L732.218 19.2192L732.229 19.2095L732.24 19.1995L731.574 18.4543ZM733.101 30.2008L733.611 29.3409L733.611 29.3409L733.101 30.2008ZM744.847 35.0169L745.168 34.0695L745.155 34.0654L744.847 35.0169ZM757.768 40.1854L757.321 41.0798L757.329 41.0839L757.768 40.1854ZM766.461 47.3508L765.67 47.9633L765.67 47.9633L766.461 47.3508ZM766.461 72.2535L765.616 71.7188L765.612 71.725L765.608 71.7313L766.461 72.2535ZM756.124 81.4158L755.677 80.5213L755.677 80.5213L756.124 81.4158ZM740.031 83.8223C734.11 83.8223 728.838 82.8612 724.2 80.9603L723.442 82.8109C728.357 84.8256 733.893 85.8223 740.031 85.8223V83.8223ZM724.2 80.9603C719.576 79.0654 715.889 76.274 713.107 72.5906L711.511 73.7958C714.525 77.7867 718.511 80.7903 723.442 82.8109L724.2 80.9603ZM713.115 72.6011C710.432 68.9491 708.997 64.5321 708.845 59.3033L706.846 59.3612C707.008 64.9392 708.548 69.7628 711.503 73.7853L713.115 72.6011ZM707.845 60.3322H729.224V58.3322H707.845V60.3322ZM728.229 59.4343C728.561 62.6672 729.696 65.269 731.721 67.1187L733.07 65.6417C731.494 64.2024 730.514 62.1055 730.219 59.2302L728.229 59.4343ZM731.74 67.1348C733.76 68.8913 736.359 69.7295 739.444 69.7295V67.7295C736.733 67.7295 734.634 67.0014 733.052 65.6256L731.74 67.1348ZM739.444 69.7295C742.561 69.7295 745.151 69.0324 747.103 67.5239L745.88 65.9413C744.387 67.0953 742.278 67.7295 739.444 67.7295V69.7295ZM747.125 67.5065C749.103 65.8883 750.076 63.6734 750.076 60.9768H748.076C748.076 63.1354 747.326 64.7577 745.858 65.9586L747.125 67.5065ZM750.076 60.9768C750.076 58.6811 749.269 56.7293 747.648 55.1987L746.275 56.6528C747.473 57.7847 748.076 59.2003 748.076 60.9768H750.076ZM747.669 55.2186C746.232 53.7819 744.434 52.6187 742.3 51.7157L741.521 53.5577C743.459 54.3775 745.029 55.4071 746.254 56.6329L747.669 55.2186ZM742.313 51.7214C740.299 50.835 737.433 49.8422 733.738 48.7417L733.167 50.6585C736.834 51.7507 739.607 52.7156 741.508 53.552L742.313 51.7214ZM733.748 48.7446C728.451 47.1087 724.158 45.4818 720.853 43.868L719.975 45.6651C723.406 47.3403 727.805 49.0024 733.158 50.6555L733.748 48.7446ZM720.853 43.868C717.637 42.2974 714.86 39.9755 712.519 36.8806L710.924 38.0868C713.439 41.4133 716.457 43.9466 719.975 45.6651L720.853 43.868ZM712.519 36.8806C710.256 33.8873 709.08 29.9279 709.08 24.9149H707.08C707.08 30.2388 708.332 34.6585 710.924 38.0868L712.519 36.8806ZM709.08 24.9149C709.08 17.5173 711.742 11.8318 717.033 7.73318L715.808 6.15209C709.979 10.6676 707.08 16.9636 707.08 24.9149H709.08ZM717.04 7.7278C722.382 3.5145 729.389 1.36457 738.152 1.36457V-0.635432C729.059 -0.635432 721.579 1.60002 715.801 6.15747L717.04 7.7278ZM738.152 1.36457C747.075 1.36457 754.159 3.51678 759.498 7.7278L760.737 6.15747C754.956 1.59773 747.396 -0.635432 738.152 -0.635432V1.36457ZM759.505 7.73318C764.809 11.8418 767.668 17.5873 768.046 25.0828L770.044 24.9819C769.639 16.9719 766.546 10.6576 760.73 6.15209L759.505 7.73318ZM769.045 24.0323L747.314 24.0323V26.0323L769.045 26.0323V24.0323ZM748.312 24.9736C748.142 22.0769 747.061 19.7263 745.014 18.0357L743.74 19.5776C745.296 20.8628 746.173 22.6626 746.316 25.091L748.312 24.9736ZM745.033 18.052C743.018 16.2998 740.461 15.4573 737.447 15.4573V17.4573C740.071 17.4573 742.134 18.1811 743.721 19.5613L745.033 18.052ZM737.447 15.4573C734.829 15.4573 732.616 16.18 730.907 17.709L732.24 19.1995C733.507 18.066 735.21 17.4573 737.447 17.4573V15.4573ZM730.929 17.6893C729.161 19.1782 728.342 21.3321 728.342 23.9751H730.342C730.342 21.7629 731.01 20.2362 732.218 19.2192L730.929 17.6893ZM728.342 23.9751C728.342 27.0291 729.815 29.4132 732.59 31.0607L733.611 29.3409C731.374 28.0126 730.342 26.2462 730.342 23.9751H728.342ZM732.59 31.0607C735.194 32.6069 739.196 34.2395 744.539 35.9683L745.155 34.0654C739.849 32.3487 736.019 30.7705 733.611 29.3409L732.59 31.0607ZM744.527 35.9642C749.829 37.7574 754.088 39.4635 757.321 41.0798L758.216 39.2909C754.87 37.6182 750.516 35.8786 745.168 34.0696L744.527 35.9642ZM757.329 41.0839C760.551 42.6574 763.331 44.9448 765.67 47.9633L767.251 46.7382C764.735 43.4919 761.72 41.0023 758.207 39.2868L757.329 41.0839ZM765.67 47.9633C767.932 50.8812 769.102 54.6825 769.102 59.4497H771.102C771.102 54.3498 769.845 50.0852 767.251 46.7382L765.67 47.9633ZM769.102 59.4497C769.102 63.966 767.938 68.0473 765.616 71.7188L767.306 72.7881C769.838 68.7852 771.102 64.3307 771.102 59.4497H769.102ZM765.608 71.7313C763.368 75.3891 760.073 78.323 755.677 80.5213L756.571 82.3102C761.258 79.9666 764.854 76.7923 767.314 72.7756L765.608 71.7313ZM755.677 80.5213C751.3 82.7094 746.096 83.8223 740.031 83.8223V85.8223C746.339 85.8223 751.863 84.6641 756.571 82.3102L755.677 80.5213ZM862.223 1.53922L863.165 1.87352L863.638 0.539222H862.223V1.53922ZM832.974 84V85H833.68L833.916 84.3343L832.974 84ZM807.836 84L806.894 84.3343L807.13 85H807.836V84ZM778.587 1.53922V0.539222H777.172L777.645 1.87352L778.587 1.53922ZM799.966 1.53922L800.916 1.2273L800.69 0.539222H799.966V1.53922ZM820.405 63.7959L819.455 64.1079L820.402 66.9936L821.355 64.1095L820.405 63.7959ZM840.961 1.53922V0.539222H840.239L840.012 1.22568L840.961 1.53922ZM861.28 1.20493L832.031 83.6657L833.916 84.3343L863.165 1.87352L861.28 1.20493ZM832.974 83H807.836V85H832.974V83ZM808.779 83.6657L779.53 1.20493L777.645 1.87352L806.894 84.3343L808.779 83.6657ZM778.587 2.53922H799.966V0.539222H778.587V2.53922ZM799.016 1.85114L819.455 64.1079L821.355 63.484L800.916 1.2273L799.016 1.85114ZM821.355 64.1095L841.911 1.85276L840.012 1.22568L819.455 63.4824L821.355 64.1095ZM840.961 2.53922L862.223 2.53922V0.539222L840.961 0.539222V2.53922ZM937.691 18.4543H938.691V17.4543H937.691V18.4543ZM937.691 84V85H938.691V84H937.691ZM917.604 84H916.604V85H917.604V84ZM917.604 75.0726H918.604V71.9103L916.786 74.4977L917.604 75.0726ZM909.264 82.1206L909.711 83.015L909.719 83.011L909.264 82.1206ZM884.479 81.4158L883.969 82.2763L883.976 82.2802L883.983 82.284L884.479 81.4158ZM875.551 71.6661L874.657 72.1133L874.657 72.1133L875.551 71.6661ZM872.38 18.4543V17.4543H871.38V18.4543H872.38ZM892.349 18.4543H893.349V17.4543H892.349V18.4543ZM895.755 64.2658L895.025 64.949L895.025 64.949L895.755 64.2658ZM917.604 18.4543V17.4543H916.604V18.4543H917.604ZM936.691 18.4543V84H938.691V18.4543H936.691ZM937.691 83H917.604V85H937.691V83ZM918.604 84V75.0726H916.604V84H918.604ZM916.786 74.4977C914.854 77.247 912.205 79.4942 908.809 81.2301L909.719 83.011C913.371 81.1446 916.282 78.6932 918.422 75.6476L916.786 74.4977ZM908.817 81.2261C905.523 82.8729 901.841 83.7048 897.752 83.7048V85.7048C902.121 85.7048 906.114 84.8138 909.711 83.015L908.817 81.2261ZM897.752 83.7048C892.891 83.7048 888.642 82.6428 884.975 80.5475L883.983 82.284C887.99 84.5741 892.59 85.7048 897.752 85.7048V83.7048ZM884.988 80.5552C881.326 78.3881 878.48 75.2866 876.446 71.2189L874.657 72.1133C876.852 76.5032 879.957 79.9014 883.969 82.2763L884.988 80.5552ZM876.446 71.2189C874.414 67.1551 873.38 62.3415 873.38 56.748H871.38C871.38 62.5878 872.46 67.7196 874.657 72.1133L876.446 71.2189ZM873.38 56.748V18.4543H871.38V56.748H873.38ZM872.38 19.4543H892.349V17.4543H872.38V19.4543ZM891.349 18.4543V54.0463H893.349V18.4543H891.349ZM891.349 54.0463C891.349 58.6022 892.531 62.2832 895.025 64.949L896.486 63.5826C894.437 61.3932 893.349 58.2611 893.349 54.0463H891.349ZM895.025 64.949C897.515 67.6105 900.851 68.9072 904.918 68.9072V66.9072C901.311 66.9072 898.538 65.7763 896.486 63.5826L895.025 64.949ZM904.918 68.9072C909.056 68.9072 912.434 67.6147 914.928 64.949L913.467 63.5826C911.419 65.7721 908.61 66.9072 904.918 66.9072V68.9072ZM914.928 64.949C917.422 62.2832 918.604 58.6022 918.604 54.0463H916.604C916.604 58.2611 915.515 61.3932 913.467 63.5826L914.928 64.949ZM918.604 54.0463V18.4543H916.604V54.0463H918.604ZM917.604 19.4543L937.691 19.4543V17.4543H917.604V19.4543ZM1015.9 56.0432V57.0432H1016.79L1016.9 56.1578L1015.9 56.0432ZM970.443 56.0432V55.0432H969.363L969.446 56.1199L970.443 56.0432ZM974.32 65.4405L973.625 66.1599L973.638 66.172L973.651 66.1837L974.32 65.4405ZM993.349 62.2689V61.2689H992.71L992.442 61.8488L993.349 62.2689ZM1014.73 62.2689L1015.7 62.5156L1016.01 61.2689L1014.73 61.2689V62.2689ZM1008.74 73.898L1007.97 73.2543L1007.96 73.2647L1008.74 73.898ZM998.048 82.0031L998.461 82.9135L998.048 82.0031ZM966.449 80.8284L965.97 81.7058L965.97 81.7058L966.449 80.8284ZM954.703 69.0819L955.578 68.5974L955.578 68.5974L954.703 69.0819ZM954.585 33.3724L953.711 32.8878L953.705 32.8983L954.585 33.3724ZM966.332 21.6258L966.812 22.5032L966.812 22.5032L966.332 21.6258ZM1000.51 21.5084L1000.04 22.3884L1000.04 22.3884L1000.51 21.5084ZM1012.03 32.9025L1011.15 33.3882L1011.16 33.3986L1012.03 32.9025ZM995.698 44.884V45.884H996.698V44.884H995.698ZM992.174 36.6614L992.829 35.9057L992.829 35.9057L992.174 36.6614ZM974.79 36.5439L974.149 35.7757L974.143 35.7811L974.137 35.7865L974.79 36.5439ZM970.561 44.884L969.572 44.7335L969.397 45.884H970.561V44.884ZM1015.25 50.1699C1015.25 52.0078 1015.14 53.9272 1014.91 55.9286L1016.9 56.1578C1017.13 54.0871 1017.25 52.0909 1017.25 50.1699H1015.25ZM1015.9 55.0432L970.443 55.0432V57.0432L1015.9 57.0432V55.0432ZM969.446 56.1199C969.773 60.3625 971.131 63.7521 973.625 66.1599L975.014 64.721C972.966 62.7434 971.74 59.8682 971.44 55.9665L969.446 56.1199ZM973.651 66.1837C976.196 68.4748 979.298 69.612 982.895 69.612V67.612C979.757 67.612 977.142 66.6349 974.989 64.6972L973.651 66.1837ZM982.895 69.612C985.542 69.612 987.855 69.0529 989.786 67.8812C991.722 66.7067 993.206 64.9571 994.257 62.689L992.442 61.8488C991.534 63.8094 990.297 65.2314 988.748 66.1713C987.195 67.114 985.26 67.612 982.895 67.612V69.612ZM993.349 63.2689H1014.73V61.2689H993.349V63.2689ZM1013.76 62.0222C1012.7 66.1814 1010.77 69.9224 1007.97 73.2544L1009.5 74.5416C1012.5 70.9822 1014.56 66.9705 1015.7 62.5156L1013.76 62.0222ZM1007.96 73.2647C1005.25 76.5842 1001.81 79.1944 997.634 81.0927L998.461 82.9135C1002.9 80.8963 1006.59 78.1031 1009.51 74.5312L1007.96 73.2647ZM997.634 81.0927C993.472 82.9844 988.8 83.9397 983.599 83.9397V85.9397C989.049 85.9397 994.009 84.9373 998.461 82.9135L997.634 81.0927ZM983.599 83.9397C977.325 83.9397 971.777 82.6019 966.929 79.9511L965.97 81.7058C971.146 84.5367 977.031 85.9397 983.599 85.9397V83.9397ZM966.929 79.9511C962.087 77.3029 958.307 73.5251 955.578 68.5974L953.828 69.5664C956.737 74.819 960.788 78.8723 965.97 81.7058L966.929 79.9511ZM955.578 68.5974C952.854 63.679 951.474 57.8997 951.474 51.2271H949.474C949.474 58.1805 950.914 64.3044 953.828 69.5664L955.578 68.5974ZM951.474 51.2271C951.474 44.5501 952.816 38.767 955.466 33.8465L953.705 32.8983C950.873 38.1581 949.474 44.2782 949.474 51.2271H951.474ZM955.46 33.8569C958.189 28.9292 961.969 25.1514 966.812 22.5032L965.852 20.7485C960.671 23.582 956.62 27.6352 953.711 32.8879L955.46 33.8569ZM966.812 22.5032C971.657 19.8533 977.244 18.5145 983.599 18.5145V16.5145C976.955 16.5145 971.03 17.9166 965.852 20.7485L966.812 22.5032ZM983.599 18.5145C989.799 18.5145 995.27 19.8144 1000.04 22.3884L1000.99 20.6283C995.892 17.8772 990.086 16.5145 983.599 16.5145V18.5145ZM1000.04 22.3884C1004.8 24.9596 1008.5 28.6203 1011.15 33.3882L1012.9 32.4169C1010.07 27.3176 1006.09 23.3822 1000.99 20.6283L1000.04 22.3884ZM1011.16 33.3986C1013.88 38.1587 1015.25 43.7382 1015.25 50.1699H1017.25C1017.25 43.4456 1015.81 37.5134 1012.89 32.4064L1011.16 33.3986ZM996.698 44.884C996.698 41.1836 995.423 38.1537 992.829 35.9057L991.519 37.4171C993.624 39.2413 994.698 41.6931 994.698 44.884H996.698ZM992.829 35.9057C990.274 33.691 987.095 32.6073 983.364 32.6073V34.6073C986.682 34.6073 989.376 35.5597 991.519 37.4171L992.829 35.9057ZM983.364 32.6073C979.789 32.6073 976.697 33.6528 974.149 35.7757L975.43 37.3122C977.581 35.5196 980.206 34.6073 983.364 34.6073V32.6073ZM974.137 35.7865C971.648 37.9318 970.148 40.9483 969.572 44.7335L971.549 45.0344C972.07 41.6151 973.389 39.0716 975.442 37.3013L974.137 35.7865ZM970.561 45.884H995.698V43.884H970.561V45.884ZM1080.89 1.53922L1081.89 1.53922V0.539222L1080.89 0.539222V1.53922ZM1073.49 77.7743L1072.8 77.0502L1072.79 77.0557L1073.49 77.7743ZM1032.84 77.4219L1032.16 78.1505L1032.16 78.1505L1032.84 77.4219ZM1024.97 56.3956V55.3956H1023.97V56.3956H1024.97ZM1044.94 56.3956H1045.94V55.3956H1044.94V56.3956ZM1047.06 64.2658L1046.27 64.8821L1046.27 64.8906L1046.28 64.899L1047.06 64.2658ZM1058.8 64.5007L1058.04 63.8531L1058.04 63.8531L1058.8 64.5007ZM1060.8 1.53922V0.539222H1059.8V1.53922H1060.8ZM1079.89 1.53922V57.6877H1081.89V1.53922L1079.89 1.53922ZM1079.89 57.6877C1079.89 66.1863 1077.48 72.5891 1072.8 77.0502L1074.17 78.4985C1079.36 73.5623 1081.89 66.574 1081.89 57.6877H1079.89ZM1072.79 77.0557C1068.16 81.5345 1061.86 83.8223 1053.75 83.8223V85.8223C1062.25 85.8223 1069.1 83.4114 1074.18 78.4929L1072.79 77.0557ZM1053.75 83.8223C1045.26 83.8223 1038.55 81.4178 1033.53 76.6934L1032.16 78.1505C1037.63 83.2932 1044.86 85.8223 1053.75 85.8223V83.8223ZM1033.53 76.6934C1028.53 71.9956 1025.97 65.2804 1025.97 56.3956H1023.97C1023.97 65.6788 1026.66 72.9811 1032.16 78.1505L1033.53 76.6934ZM1024.97 57.3956H1044.94V55.3956H1024.97V57.3956ZM1043.94 56.3956C1043.94 59.9567 1044.67 62.8356 1046.27 64.8821L1047.84 63.6495C1046.63 62.0937 1045.94 59.7258 1045.94 56.3956H1043.94ZM1046.28 64.899C1047.92 66.9001 1050.27 67.85 1053.16 67.85V65.85C1050.74 65.85 1049.01 65.0771 1047.83 63.6326L1046.28 64.899ZM1053.16 67.85C1055.83 67.85 1058.01 66.9793 1059.56 65.1484L1058.04 63.8531C1056.93 65.1546 1055.36 65.85 1053.16 65.85V67.85ZM1059.56 65.1484C1061.11 63.3354 1061.8 60.7968 1061.8 57.6877H1059.8C1059.8 60.5302 1059.16 62.5336 1058.04 63.8531L1059.56 65.1484ZM1061.8 57.6877V1.53922H1059.8V57.6877H1061.8ZM1060.8 2.53922H1080.89V0.539222H1060.8V2.53922ZM1113.09 81.8856L1112.71 82.8109L1112.71 82.8109L1113.09 81.8856ZM1101.57 73.1932L1100.77 73.7853L1100.78 73.7958L1101.57 73.1932ZM1097.11 59.3322V58.3322H1096.08L1096.11 59.3612L1097.11 59.3322ZM1118.49 59.3322L1119.48 59.2302L1119.39 58.3322H1118.49V59.3322ZM1121.66 66.3802L1120.99 67.1187L1121 67.1268L1121 67.1348L1121.66 66.3802ZM1135.76 66.7326L1136.37 67.5239L1136.38 67.5153L1136.39 67.5065L1135.76 66.7326ZM1136.23 55.9257L1135.52 56.6329L1135.53 56.643L1135.54 56.6528L1136.23 55.9257ZM1131.18 52.6367L1130.77 53.552L1130.78 53.5549L1130.79 53.5577L1131.18 52.6367ZM1122.72 49.7001L1122.42 50.6556L1122.43 50.6585L1122.72 49.7001ZM1109.68 44.7665L1109.24 45.6651L1109.24 45.6651L1109.68 44.7665ZM1100.99 37.4837L1101.78 36.8806L1101.78 36.8806L1100.99 37.4837ZM1105.69 6.94263L1106.3 7.73321L1106.3 7.7278L1105.69 6.94263ZM1149.38 6.94263L1148.76 7.72783L1148.77 7.73318L1149.38 6.94263ZM1158.31 25.0323V26.0323H1159.36L1159.31 24.9819L1158.31 25.0323ZM1136.58 25.0323L1135.58 25.091L1135.64 26.0323H1136.58V25.0323ZM1133.64 18.8067L1132.99 19.5613L1133 19.5696L1133.01 19.5776L1133.64 18.8067ZM1120.84 18.4543L1121.48 19.2192L1121.49 19.2095L1121.51 19.1995L1120.84 18.4543ZM1122.37 30.2008L1122.88 29.3409L1122.88 29.3409L1122.37 30.2008ZM1134.11 35.0169L1134.43 34.0695L1134.42 34.0654L1134.11 35.0169ZM1147.03 40.1854L1146.59 41.0798L1146.59 41.0839L1147.03 40.1854ZM1155.73 47.3508L1154.94 47.9633L1154.94 47.9633L1155.73 47.3508ZM1155.73 72.2535L1154.88 71.7188L1154.88 71.725L1154.87 71.7313L1155.73 72.2535ZM1145.39 81.4158L1144.94 80.5213L1144.94 80.5213L1145.39 81.4158ZM1129.3 83.8223C1123.37 83.8223 1118.1 82.8612 1113.47 80.9603L1112.71 82.8109C1117.62 84.8256 1123.16 85.8223 1129.3 85.8223V83.8223ZM1113.47 80.9603C1108.84 79.0654 1105.15 76.274 1102.37 72.5906L1100.78 73.7958C1103.79 77.7867 1107.78 80.7903 1112.71 82.8109L1113.47 80.9603ZM1102.38 72.6011C1099.7 68.9491 1098.26 64.5321 1098.11 59.3033L1096.11 59.3612C1096.27 64.9392 1097.81 69.7628 1100.77 73.7853L1102.38 72.6011ZM1097.11 60.3322L1118.49 60.3322V58.3322L1097.11 58.3322V60.3322ZM1117.49 59.4343C1117.83 62.6672 1118.96 65.269 1120.99 67.1187L1122.34 65.6417C1120.76 64.2024 1119.78 62.1055 1119.48 59.2302L1117.49 59.4343ZM1121 67.1348C1123.02 68.8913 1125.62 69.7295 1128.71 69.7295V67.7295C1126 67.7295 1123.9 67.0014 1122.32 65.6256L1121 67.1348ZM1128.71 69.7295C1131.83 69.7295 1134.42 69.0324 1136.37 67.5239L1135.15 65.9413C1133.65 67.0953 1131.54 67.7295 1128.71 67.7295V69.7295ZM1136.39 67.5065C1138.37 65.8883 1139.34 63.6734 1139.34 60.9768H1137.34C1137.34 63.1354 1136.59 64.7577 1135.12 65.9586L1136.39 67.5065ZM1139.34 60.9768C1139.34 58.6811 1138.53 56.7293 1136.91 55.1987L1135.54 56.6528C1136.74 57.7847 1137.34 59.2003 1137.34 60.9768H1139.34ZM1136.93 55.2186C1135.5 53.7819 1133.7 52.6187 1131.57 51.7157L1130.79 53.5577C1132.72 54.3775 1134.29 55.4071 1135.52 56.6329L1136.93 55.2186ZM1131.58 51.7214C1129.56 50.835 1126.7 49.8422 1123 48.7417L1122.43 50.6585C1126.1 51.7507 1128.87 52.7156 1130.77 53.552L1131.58 51.7214ZM1123.01 48.7446C1117.72 47.1087 1113.42 45.4818 1110.12 43.868L1109.24 45.6651C1112.67 47.3403 1117.07 49.0024 1122.42 50.6555L1123.01 48.7446ZM1110.12 43.868C1106.9 42.2974 1104.12 39.9755 1101.78 36.8806L1100.19 38.0868C1102.7 41.4133 1105.72 43.9466 1109.24 45.6651L1110.12 43.868ZM1101.78 36.8806C1099.52 33.8873 1098.35 29.9279 1098.35 24.9149H1096.35C1096.35 30.2388 1097.6 34.6585 1100.19 38.0868L1101.78 36.8806ZM1098.35 24.9149C1098.35 17.5173 1101.01 11.8318 1106.3 7.73318L1105.07 6.15209C1099.24 10.6676 1096.35 16.9636 1096.35 24.9149H1098.35ZM1106.3 7.7278C1111.65 3.5145 1118.65 1.36457 1127.42 1.36457V-0.635432C1118.32 -0.635432 1110.84 1.60002 1105.07 6.15747L1106.3 7.7278ZM1127.42 1.36457C1136.34 1.36457 1143.42 3.51678 1148.76 7.7278L1150 6.15747C1144.22 1.59773 1136.66 -0.635432 1127.42 -0.635432V1.36457ZM1148.77 7.73318C1154.07 11.8418 1156.93 17.5873 1157.31 25.0828L1159.31 24.9819C1158.9 16.9719 1155.81 10.6576 1150 6.15209L1148.77 7.73318ZM1158.31 24.0323H1136.58V26.0323H1158.31V24.0323ZM1137.58 24.9736C1137.41 22.0769 1136.33 19.7263 1134.28 18.0357L1133.01 19.5776C1134.56 20.8628 1135.44 22.6626 1135.58 25.091L1137.58 24.9736ZM1134.3 18.052C1132.28 16.2998 1129.73 15.4573 1126.71 15.4573V17.4573C1129.34 17.4573 1131.4 18.1811 1132.99 19.5613L1134.3 18.052ZM1126.71 15.4573C1124.09 15.4573 1121.88 16.18 1120.17 17.709L1121.51 19.1995C1122.77 18.066 1124.47 17.4573 1126.71 17.4573V15.4573ZM1120.19 17.6893C1118.43 19.1782 1117.61 21.3321 1117.61 23.9751H1119.61C1119.61 21.7629 1120.27 20.2362 1121.48 19.2192L1120.19 17.6893ZM1117.61 23.9751C1117.61 27.0291 1119.08 29.4132 1121.86 31.0607L1122.88 29.3409C1120.64 28.0126 1119.61 26.2462 1119.61 23.9751H1117.61ZM1121.86 31.0607C1124.46 32.6069 1128.46 34.2395 1133.8 35.9683L1134.42 34.0654C1129.11 32.3487 1125.28 30.7705 1122.88 29.3409L1121.86 31.0607ZM1133.79 35.9642C1139.09 37.7574 1143.35 39.4635 1146.59 41.0798L1147.48 39.2909C1144.14 37.6182 1139.78 35.8786 1134.43 34.0696L1133.79 35.9642ZM1146.59 41.0839C1149.82 42.6574 1152.6 44.9448 1154.94 47.9633L1156.52 46.7382C1154 43.4919 1150.98 41.0023 1147.47 39.2868L1146.59 41.0839ZM1154.94 47.9633C1157.2 50.8812 1158.37 54.6825 1158.37 59.4497H1160.37C1160.37 54.3498 1159.11 50.0852 1156.52 46.7382L1154.94 47.9633ZM1158.37 59.4497C1158.37 63.966 1157.2 68.0473 1154.88 71.7188L1156.57 72.7881C1159.1 68.7852 1160.37 64.3307 1160.37 59.4497H1158.37ZM1154.87 71.7313C1152.63 75.3891 1149.34 78.323 1144.94 80.5213L1145.84 82.3102C1150.52 79.9666 1154.12 76.7923 1156.58 72.7756L1154.87 71.7313ZM1144.94 80.5213C1140.57 82.7094 1135.36 83.8223 1129.3 83.8223V85.8223C1135.6 85.8223 1141.13 84.6641 1145.84 82.3102L1144.94 80.5213Z" fill="#F2B125"/>
</svg>
