<svg width="71" height="64" viewBox="0 0 71 64" fill="none" xmlns="http://www.w3.org/2000/svg">
<path fill-rule="evenodd" clip-rule="evenodd" d="M15.0344 0.143826C14.5142 0.376536 14.2192 0.773155 13.4747 2.24054C13.1583 2.86398 12.797 3.39107 12.6598 3.42903C12.5243 3.46658 11.8748 3.56909 11.2168 3.6568C10.5461 3.74616 9.82912 3.93104 9.58554 4.07741C8.70625 4.60573 8.34143 5.79216 8.79669 6.64338C8.90544 6.84689 9.45973 7.46704 10.0283 8.0214C10.6789 8.65567 11.0415 9.11286 11.0065 9.25485C10.7688 10.2216 10.5897 12.1107 10.6987 12.5011C10.8724 13.1222 11.6321 13.747 12.362 13.8689C12.906 13.9597 13.0837 13.9035 14.4239 13.2176L15.8905 12.4671L17.3495 13.2173C18.682 13.9026 18.8598 13.9591 19.402 13.8686C20.1558 13.7428 20.8954 13.1146 21.0778 12.4452C21.1806 12.0679 21.1517 11.5715 20.9634 10.4794L20.7115 9.0183L21.7396 8.01579C22.305 7.46457 22.8568 6.84689 22.9655 6.64338C23.2177 6.17165 23.2191 5.39239 22.9686 4.91656C22.5617 4.14401 22.1568 3.91953 20.7846 3.70532C20.0712 3.59404 19.349 3.47494 19.1798 3.44068C18.9536 3.39504 18.6777 3.00842 18.1395 1.98275C17.7365 1.215 17.2424 0.468907 17.0413 0.324594C16.5681 -0.0148765 15.5868 -0.103273 15.0344 0.143826ZM54.3765 0.101067C53.7874 0.345837 53.5318 0.666668 52.8363 2.03483C52.4484 2.79792 52.0575 3.38956 51.9155 3.42903C51.7798 3.46658 51.1303 3.56909 50.4722 3.6568C49.8015 3.74616 49.0845 3.93104 48.841 4.07741C47.9617 4.60573 47.5969 5.79216 48.0521 6.64338C48.1609 6.84689 48.7127 7.46457 49.278 8.01579L50.3062 9.0183L50.0543 10.4794C49.8659 11.5715 49.837 12.0679 49.9398 12.4452C50.1222 13.1146 50.8619 13.7428 51.6156 13.8686C52.1578 13.9591 52.3357 13.9026 53.6681 13.2173L55.1271 12.4671L56.5937 13.2176C57.9339 13.9035 58.1116 13.9597 58.6556 13.8689C59.3855 13.747 60.1453 13.1222 60.3189 12.5011C60.428 12.1107 60.2489 10.2216 60.0111 9.25485C59.9762 9.11286 60.3388 8.65567 60.9893 8.0214C61.5579 7.46704 62.1122 6.84689 62.221 6.64338C62.6762 5.79216 62.3114 4.60573 61.4321 4.07741C61.1863 3.92967 60.4778 3.74835 59.8008 3.65982C59.1428 3.57375 58.4911 3.45945 58.3527 3.40573C58.2143 3.35201 57.7773 2.69815 57.3817 1.95274C56.9861 1.20733 56.4978 0.476992 56.2967 0.329802C55.8684 0.0163707 54.8673 -0.102999 54.3765 0.101067ZM16.6197 3.57677C17.4401 5.2733 17.5237 5.33113 19.5223 5.57919C20.3042 5.67636 20.9441 5.79079 20.9441 5.83369C20.9441 5.87659 20.4008 6.45082 19.7367 7.11003L18.5294 8.30838L18.7099 9.51113C18.809 10.1725 18.925 10.9547 18.9674 11.2492L19.0446 11.7848L17.6709 11.0688C16.9153 10.6751 16.1325 10.3479 15.931 10.3416C15.7295 10.3353 14.9337 10.6506 14.1625 11.042C13.2943 11.4826 12.7602 11.6861 12.7602 11.5763C12.7604 11.4787 12.854 10.8748 12.9682 10.2341C13.309 8.3225 13.3306 8.39253 11.9972 7.08193C11.3487 6.44452 10.8181 5.88536 10.8181 5.83945C10.8181 5.7934 11.4579 5.67636 12.2399 5.57919C13.022 5.48216 13.835 5.31564 14.0466 5.20916C14.325 5.06923 14.6316 4.61848 15.1533 3.58184C15.5503 2.79339 15.8872 2.14817 15.9021 2.14817C15.9169 2.14817 16.2398 2.79107 16.6197 3.57677ZM56.9738 5.21053C57.1839 5.31619 57.9958 5.48216 58.7777 5.57919C59.5596 5.67636 60.1995 5.7934 60.1995 5.83945C60.1995 5.88536 59.6689 6.44452 59.0205 7.08193C57.687 8.39253 57.7087 8.3225 58.0495 10.2341C58.1636 10.8748 58.2573 11.4787 58.2574 11.5763C58.2574 11.6861 57.7234 11.4826 56.8552 11.042C56.0839 10.6506 55.2881 10.3353 55.0866 10.3416C54.8852 10.3479 54.1023 10.6751 53.3467 11.0688L51.9731 11.7848L52.0502 11.2492C52.0926 10.9547 52.2086 10.1725 52.3078 9.51113L52.4882 8.30838L51.2809 7.11003C50.6169 6.45082 50.0736 5.87659 50.0736 5.83369C50.0736 5.79079 50.7134 5.67636 51.4953 5.57919C52.2773 5.48216 53.089 5.31633 53.2992 5.21067C53.5792 5.06992 53.8719 4.62807 54.3946 3.55744L55.1078 2.09636L55.8496 3.55744C56.3829 4.60751 56.699 5.07238 56.9738 5.21053ZM34.8153 3.95297C34.032 4.17156 33.5971 4.70728 32.5813 6.70505C32.0542 7.74155 31.6078 8.59303 31.5892 8.59728C31.5707 8.60153 30.6076 8.74776 29.4491 8.92209C28.1122 9.12342 27.1749 9.33598 26.8834 9.50428C26 10.014 25.5295 11.0775 25.7269 12.1185C25.8058 12.5354 26.1402 12.9483 27.4981 14.3056L29.1719 15.9789L28.8679 17.8004C28.4467 20.3229 28.4523 20.7983 28.9116 21.484C29.1411 21.8266 29.509 22.1423 29.8655 22.3022C30.8803 22.7573 31.3002 22.6699 33.5037 21.5443L35.5088 20.5201L37.5139 21.5443C39.7175 22.6699 40.1374 22.7573 41.1522 22.3022C41.5087 22.1423 41.8765 21.8266 42.1061 21.484C42.5654 20.7983 42.5709 20.3229 42.1498 17.8004L41.8457 15.9789L43.5196 14.3056C44.8774 12.9483 45.2118 12.5354 45.2908 12.1185C45.4882 11.0775 45.0176 10.014 44.1342 9.50428C43.8428 9.33598 42.9055 9.12342 41.5686 8.92209C40.4101 8.74776 39.447 8.60153 39.4284 8.59728C39.4098 8.59303 38.9634 7.74155 38.4363 6.70505C37.3993 4.66548 36.9887 4.1732 36.133 3.94337C35.4938 3.77165 35.4643 3.77192 34.8153 3.95297ZM36.8441 8.10857C37.7535 9.86814 38.0482 10.3222 38.3699 10.4595C38.5892 10.553 39.7576 10.7666 40.9664 10.9342C42.5031 11.1474 43.1868 11.2969 43.2391 11.4313C43.2856 11.551 42.626 12.3098 41.492 13.4413C40.4049 14.526 39.672 15.365 39.6746 15.5218C39.677 15.6663 39.8533 16.7729 40.0663 17.981C40.2794 19.1891 40.4282 20.2529 40.3972 20.3451C40.297 20.642 39.9943 20.5317 37.9765 19.4628C36.5879 18.7271 35.8489 18.4127 35.5088 18.4127C35.1687 18.4127 34.4298 18.7271 33.0411 19.4628C31.0233 20.5317 30.7206 20.642 30.6205 20.3451C30.5894 20.2529 30.7382 19.1891 30.9513 17.981C31.1644 16.7729 31.3407 15.6663 31.343 15.5218C31.3457 15.365 30.6127 14.526 29.5256 13.4413C28.3917 12.3098 27.7321 11.551 27.7786 11.4313C27.8307 11.297 28.5166 11.1463 30.0512 10.9318C31.2601 10.7627 32.425 10.5582 32.6401 10.4772C32.9607 10.3566 33.2194 9.95749 34.0773 8.26055C35.2149 6.01062 35.3358 5.81738 35.5643 5.88344C35.6482 5.90783 36.2242 6.90898 36.8441 8.10857ZM14.1021 19.6301C12.3366 20.0216 10.9831 20.7672 9.69928 22.0558C7.15961 24.6049 6.55094 28.6351 8.22617 31.8083C8.46822 32.2666 8.68475 32.6802 8.70763 32.7275C8.73052 32.7747 8.32521 32.9802 7.80698 33.1842C5.81868 33.9668 3.57017 35.3601 1.73251 36.9482C0.602153 37.9251 -0.00207532 38.902 5.35561e-06 39.7495C0.00277959 40.8996 0.444854 41.4718 4.13514 45.1017C7.18957 48.106 7.65897 48.5164 8.04112 48.5164C8.60624 48.5164 9.06107 48.0681 9.06107 47.5111C9.06107 47.1366 8.63495 46.6622 5.57025 43.6258C2.81211 40.893 2.07929 40.0925 2.07929 39.8128C2.07929 39.5527 2.32898 39.2269 3.01976 38.5855C4.69956 37.026 7.12618 35.5709 9.3894 34.7658L10.2496 34.4599L11.0693 34.9898C11.5203 35.2811 11.9902 35.5813 12.1137 35.6567C12.3177 35.7811 12.2858 36.14 11.7666 39.5749C11.3706 42.195 11.2262 43.5204 11.2967 43.8914C11.3802 44.3308 11.6761 44.7055 12.9462 45.9803C14.5842 47.6245 14.7728 47.7684 15.5033 47.931C16.3948 48.1298 16.8886 47.855 18.5631 46.2287C19.428 45.389 20.2238 44.5354 20.3317 44.3319C20.6156 43.7964 20.5815 43.3125 19.9806 39.357C19.4993 36.1876 19.4631 35.7785 19.6538 35.6567C19.7717 35.5813 20.2417 35.2855 20.698 34.9994L21.5279 34.4793L22.2416 34.7112C23.2604 35.0421 25.0358 35.8921 26.0071 36.5136L26.8393 37.0463L27.0172 37.9961C27.1571 38.744 27.6692 40.016 28.2593 41.0821C28.2839 41.1264 27.8808 41.3358 27.3635 41.5477C24.3922 42.7643 20.6657 45.4007 19.8691 46.8497C19.5034 47.515 19.4506 48.6392 19.7517 49.3513L19.9465 49.8118L18.1103 51.6082C16.6338 53.0527 16.1982 53.4045 15.8857 53.4045C15.574 53.4045 15.1335 53.0515 13.6617 51.6229C12.6523 50.643 11.7272 49.8412 11.6062 49.8412C10.8611 49.8412 10.272 50.5903 10.5213 51.2208C10.7221 51.7289 14.1569 55.0098 14.7399 55.2505C15.3903 55.519 16.3717 55.5185 17.0299 55.2495C17.3398 55.1227 18.3059 54.2902 19.4507 53.1634L21.3556 51.2885L23.2764 53.1688C24.885 54.7437 25.2645 55.0491 25.6126 55.0491C26.1359 55.0491 26.6313 54.5508 26.6313 54.0242C26.6313 53.7015 26.1972 53.2007 24.1345 51.1432C21.1332 48.1495 21.1709 48.2483 22.5441 46.9791C24.2421 45.4097 26.6949 43.9347 28.9478 43.1279L29.8079 42.8199L30.6277 43.3498C31.0786 43.6411 31.556 43.9421 31.6886 44.0184C31.9144 44.1486 31.8929 44.4031 31.348 48.0563C30.6359 52.83 30.5891 52.5419 32.3689 54.3473C34.1784 56.1826 34.5376 56.4196 35.5088 56.4196C36.4801 56.4196 36.8392 56.1826 38.6487 54.3473C40.4285 52.5419 40.3818 52.83 39.6696 48.0563C39.1248 44.4031 39.1033 44.1486 39.3291 44.0184C39.4617 43.9421 39.939 43.6411 40.3899 43.3498L41.2097 42.8199L42.0699 43.1279C44.3227 43.9347 46.7755 45.4097 48.4735 46.9791C49.2137 47.6632 49.38 47.8951 49.38 48.2432C49.38 48.6227 48.6602 49.3821 42.8259 55.1579C39.221 58.7265 36.0995 61.7365 35.889 61.8466C35.5896 62.0034 35.4388 62.0128 35.1955 61.8899C35.0244 61.8036 33.6638 60.5375 32.1718 59.0763C29.7858 56.7397 29.4056 56.4196 29.0161 56.4196C28.4417 56.4196 28.0184 56.838 28.0184 57.4055C28.0184 57.7916 28.3509 58.1741 30.8273 60.637C32.3721 62.1734 33.8859 63.5589 34.1911 63.7157C34.8927 64.0761 36.0796 64.0969 36.7572 63.7606C37.0242 63.6281 40.0357 60.7664 43.4494 57.4011L49.6562 51.2827L51.564 53.1606C52.7109 54.2894 53.6777 55.1227 53.9877 55.2495C54.648 55.5193 55.6278 55.5188 56.2835 55.2481C56.8738 55.0044 61.8115 50.2415 62.0213 49.7132C62.2726 49.0813 61.6828 48.3337 60.9329 48.3337C60.8093 48.3337 59.543 49.4746 58.1188 50.8691C55.9836 52.9596 55.4604 53.4045 55.1364 53.4045C54.8182 53.4045 54.3937 53.0623 52.9073 51.6082L51.0712 49.8118L51.2659 49.3513C51.5671 48.6392 51.5142 47.515 51.1486 46.8497C50.3519 45.4007 46.6255 42.7643 43.6541 41.5477C43.1369 41.3358 42.7338 41.1264 42.7583 41.0821C43.3484 40.016 43.8605 38.744 44.0005 37.9961L44.1783 37.0463L45.0106 36.5136C45.9886 35.8877 47.7589 35.0416 48.7953 34.7048L49.5284 34.4665L49.9744 34.802C50.2196 34.9865 50.6889 35.2726 51.0171 35.4378C51.4449 35.653 51.5955 35.8041 51.5489 35.9715C51.513 36.0999 51.2504 37.8094 50.9652 39.7705C50.6063 42.2382 50.4786 43.5041 50.5503 43.8815C50.636 44.3331 50.9196 44.6937 52.2017 45.9808C53.9155 47.7015 54.3151 47.9689 55.1532 47.9564C55.9961 47.9438 56.365 47.6941 58.0714 45.9808C59.3414 44.7057 59.6374 44.3308 59.721 43.8914C59.7914 43.5204 59.647 42.195 59.251 39.5749C58.7318 36.14 58.6999 35.7811 58.9039 35.6567C59.0274 35.5813 59.4973 35.2811 59.9483 34.9898L60.7681 34.4599L61.6282 34.7658C63.8915 35.5709 66.3181 37.026 67.9979 38.5855C68.6864 39.2249 68.9383 39.5531 68.9383 39.8112C68.9383 40.0861 68.3377 40.7598 66.2103 42.8712C63.8392 45.2247 63.4824 45.6345 63.4824 46.0045C63.4824 46.5604 63.9378 47.0088 64.5021 47.0088C64.8813 47.0088 65.2857 46.664 67.7002 44.2806C69.2205 42.7799 70.5685 41.3358 70.6957 41.0713C71.102 40.227 71.1014 39.3885 70.6942 38.5713C69.9367 37.0514 66.076 34.2908 63.0778 33.1254C62.639 32.9549 62.2802 32.7904 62.2802 32.76C62.2802 32.7296 62.4339 32.4641 62.6218 32.17C63.3816 30.9808 63.8956 28.651 63.7272 27.1596C63.1113 21.7053 57.6202 18.1525 52.4679 19.8748C47.3542 21.584 45.055 27.1518 47.5028 31.8974L47.9712 32.8056L47.1845 33.1181C46.7517 33.29 45.8735 33.7014 45.2328 34.0322C44.5921 34.3632 44.0558 34.6173 44.0411 34.5971C44.0264 34.5768 43.9321 34.2519 43.8317 33.875C43.4854 32.5766 42.511 30.9956 41.4541 30.0171C40.6541 29.2763 39.3292 28.5227 38.1238 28.1227C37.147 27.7984 36.737 27.7381 35.5088 27.7381C34.2807 27.7381 33.8706 27.7984 32.8938 28.1227C31.6884 28.5227 30.3636 29.2763 29.5635 30.0171C28.5067 30.9956 27.5322 32.5766 27.186 33.875C27.0855 34.2519 26.9912 34.5768 26.9765 34.5971C26.9618 34.6173 26.4256 34.3632 25.7848 34.0322C25.1441 33.7014 24.266 33.29 23.8332 33.1181L23.0464 32.8056L23.5148 31.8974C25.0527 28.916 24.7673 25.4592 22.7672 22.8426C22.133 22.0127 21.0879 21.099 20.1559 20.5593C18.4781 19.5879 16.0051 19.2083 14.1021 19.6301ZM17.2363 21.6734C21.5479 22.5761 23.7286 27.3995 21.5367 31.1854C20.3668 33.2059 18.2973 34.372 15.8811 34.372C12.1951 34.372 9.40688 31.62 9.40688 27.9819C9.40688 24.389 12.1765 21.6119 15.8811 21.4904C16.11 21.483 16.7198 21.5653 17.2363 21.6734ZM56.1769 21.6163C58.534 21.9877 60.4983 23.6376 61.3207 25.9373C61.7148 27.0391 61.7217 28.9058 61.3357 29.9836C60.3579 32.7135 58.0151 34.372 55.1365 34.372C49.3887 34.372 46.4593 27.6424 50.4209 23.5389C51.3232 22.6044 52.4991 21.9409 53.7165 21.6796C54.8003 21.447 55.0601 21.4403 56.1769 21.6163ZM37.3222 30.037C39.1132 30.5371 40.6278 31.8027 41.4282 33.4677C43.1452 37.0399 41.421 41.1172 37.624 42.4643C37.0301 42.6749 36.4902 42.7472 35.5088 42.7472C33.9801 42.7472 33.0452 42.4758 31.8314 41.6798C28.4058 39.4333 27.9284 34.5867 30.8482 31.7017C32.5645 30.0061 34.9841 29.3839 37.3222 30.037ZM17.4744 36.5343C17.4734 36.5793 17.7005 38.1481 17.979 40.0206L18.4854 43.4253L17.2555 44.646C16.5791 45.3175 15.9606 45.8668 15.8811 45.8668C15.8016 45.8668 15.1848 45.319 14.5104 44.6495L13.284 43.4324L13.807 39.9424L14.3299 36.4526H15.9032C16.7683 36.4526 17.4755 36.4894 17.4744 36.5343ZM57.2107 39.9424L57.7336 43.4324L56.5073 44.6495C55.8329 45.319 55.216 45.8668 55.1365 45.8668C55.057 45.8668 54.4385 45.3175 53.7622 44.646L52.5322 43.4253L53.0387 40.0206C53.3172 38.1481 53.5443 36.5793 53.5433 36.5343C53.5422 36.4894 54.2493 36.4526 55.1145 36.4526H56.6877L57.2107 39.9424ZM37.1111 45.113C37.1466 45.2638 37.3954 46.8641 37.6643 48.6693L38.1531 51.9514L36.9378 53.1577C36.2695 53.821 35.6264 54.3638 35.5088 54.3638C35.3912 54.3638 34.7485 53.8214 34.0806 53.1585L32.8662 51.953L33.3666 48.5331C33.6416 46.6521 33.8849 45.0514 33.9073 44.976C33.9311 44.8951 34.5836 44.8389 35.4972 44.8389C36.9328 44.8389 37.0516 44.8591 37.1111 45.113Z" fill="#E49B00"/>
</svg>
