<svg width="71" height="55" viewBox="0 0 71 55" fill="none" xmlns="http://www.w3.org/2000/svg">
<path fill-rule="evenodd" clip-rule="evenodd" d="M56.5573 0.253061C55.3989 0.789255 51.1268 3.34601 50.6733 3.77441C50.4127 4.02046 50.1139 4.42758 50.0089 4.67905L49.8182 5.13611H42.3502C34.2152 5.13611 34.0116 5.1528 32.5428 5.94047C32.1552 6.14827 31.297 6.83815 30.6355 7.47352L29.4332 8.62853L27.9792 8.41238C27.0601 8.27565 25.5581 8.19609 23.8965 8.19609H21.2678L21.0361 7.67033C20.6857 6.87488 20.0854 6.385 17.8814 5.09619C14.4184 3.07131 14.0725 2.91066 13.1754 2.91066C12.2126 2.91066 11.094 3.4157 10.6024 4.07248C10.0452 4.81675 0.344565 21.7236 0.135978 22.3138C-0.23606 23.3668 0.185972 24.9882 1.02865 25.744C1.51581 26.1809 6.69644 29.1061 7.31123 29.2914C7.64966 29.3935 8.15196 29.4769 8.42721 29.4769C8.8859 29.4769 9.08671 29.6372 10.8244 31.3894L12.721 33.3019L12.7668 34.4875C12.8056 35.4927 12.8821 35.8144 13.2697 36.6028C13.9618 38.0104 15.3747 39.07 16.8562 39.2925L17.4299 39.3786L17.4942 40.3815C17.639 42.6433 19.2449 44.3668 21.6306 44.8209C22.2258 44.9342 22.4641 45.0417 22.4641 45.1968C22.4641 45.7776 22.9428 47.1489 23.3735 47.8015C24.1575 48.9898 25.4329 49.7467 27.0661 49.9929C27.5588 50.0672 27.5735 50.0872 27.663 50.8038C27.8631 52.4087 28.98 53.919 30.4915 54.6286C31.1748 54.9494 31.4622 55 32.6018 55C34.511 55 35.1308 54.6795 37.122 52.6627C38.0624 51.7101 38.7823 50.849 38.9759 50.4448C39.1501 50.0813 39.3106 49.7841 39.3327 49.7841C39.3549 49.7841 39.7398 49.9563 40.1883 50.1666C40.8985 50.4997 41.1737 50.5491 42.3229 50.549C43.5055 50.5488 43.7252 50.5067 44.4446 50.142C45.3843 49.6655 46.3967 48.6376 46.7791 47.7716L47.0497 47.1592L47.7763 47.4876C50.3809 48.6651 53.5749 47.2912 54.4818 44.6031C54.6904 43.9849 54.7285 43.9493 55.0755 44.0468C55.2795 44.1041 55.8896 44.1458 56.4315 44.1394C58.2282 44.1185 59.9291 43.0042 60.7644 41.3006C61.0927 40.6313 61.1401 40.3678 61.1401 39.2132C61.1401 37.2622 60.8676 36.7629 58.4744 34.3276L56.5689 32.3886L59.4782 29.4723C61.7154 27.2296 62.468 26.5559 62.7358 26.5552C63.4705 26.5537 64.2754 26.2004 66.6255 24.8479C69.8394 22.9984 70.1622 22.7678 70.6149 21.9964C70.9367 21.4479 71 21.1802 71 20.3665C71 19.4022 70.9889 19.3733 69.8344 17.3314C69.1934 16.1977 68.5135 15.168 68.3235 15.0434C67.7429 14.6624 67.0671 14.7492 66.6079 15.2641C65.9911 15.9554 66.0681 16.323 67.275 18.449C68.1055 19.9121 68.31 20.3775 68.2009 20.5554C68.1238 20.681 66.8974 21.4616 65.4757 22.29C63.4981 23.4423 62.8364 23.7659 62.6593 23.6666C62.4063 23.5248 52.5993 6.63634 52.4996 6.1708C52.4658 6.01321 52.5214 5.81542 52.623 5.73127C53.1352 5.3076 57.7038 2.77157 57.955 2.77157C58.1803 2.77157 58.4464 3.12444 59.1348 4.33634C60.235 6.27303 60.5965 6.6661 61.2774 6.6661C61.5556 6.6661 61.9034 6.6017 62.0504 6.52284C62.3564 6.35885 62.7371 5.68829 62.7371 5.31345C62.7371 5.03082 60.9973 1.88403 60.427 1.13503C59.6473 0.111189 57.782 -0.313871 56.5573 0.253061ZM15.9371 7.19297C18.1988 8.51113 18.505 8.73145 18.4956 9.03425C18.4835 9.418 8.72398 26.4071 8.3968 26.6139C8.24348 26.7107 7.50648 26.352 5.57102 25.2388C4.13092 24.4104 2.90495 23.6639 2.84663 23.5796C2.7883 23.4953 2.76552 23.322 2.79594 23.1943C2.86315 22.912 12.4252 6.27929 12.7177 5.93588C12.8317 5.80193 13.0247 5.69316 13.1465 5.69414C13.2683 5.69497 14.5241 6.36942 15.9371 7.19297ZM55.1066 16.4024C57.7753 21.0307 59.959 24.8805 59.9592 24.9579C59.9595 25.0351 58.7562 26.3023 57.2854 27.774L54.611 30.45L49.5781 25.4077L44.5451 20.3654L45.4831 19.388C46.8801 17.9323 47.7313 15.9519 47.7368 14.1444C47.7385 13.6127 47.6614 13.399 47.3364 13.0349C47.0034 12.6616 46.8334 12.5837 46.3502 12.5837C45.4785 12.5837 45.0338 13.1357 44.9198 14.3599C44.804 15.601 44.2638 16.7068 43.3221 17.63L42.5666 18.3708L39.6883 15.5089C35.8836 11.7258 36.5158 11.7412 32.8875 15.3433C31.3938 16.8262 30.035 18.1093 29.8683 18.1946C29.3393 18.465 28.2501 18.3842 27.7346 18.0363C26.8185 17.4179 26.4653 16.1323 26.9555 15.2008C27.2581 14.626 33.2748 8.69112 33.8508 8.39958C34.1176 8.26439 34.4926 8.10596 34.6841 8.04727C34.8754 7.98857 38.4571 7.95116 42.6433 7.96409L50.2543 7.98746L55.1066 16.4024ZM63.8918 9.51578C63.2483 9.79118 62.94 10.4573 63.1426 11.1345C63.3386 11.7895 63.7486 12.0906 64.4451 12.0906C64.8516 12.0906 65.0781 11.9928 65.3864 11.6841C65.9325 11.137 65.9417 10.4457 65.4104 9.88076C64.9402 9.38087 64.4706 9.26806 63.8918 9.51578ZM26.9081 11.068C26.9081 11.1175 26.3855 11.701 25.7469 12.3645C24.3525 13.8133 23.9763 14.6268 23.9763 16.1938C23.9763 18.1035 25.0488 19.8402 26.7428 20.6733C27.4478 21.0201 27.6825 21.062 28.9217 21.062C30.9067 21.062 31.185 20.9014 33.9585 18.1571L36.2176 15.9215L46.9232 26.6285C52.8111 32.5173 57.8094 37.6138 58.0303 37.9539C59.1896 39.7383 57.626 41.8998 55.6066 41.3047C55.1144 41.1597 53.9988 40.1051 48.0108 34.1235C41.3255 27.4455 40.968 27.1124 40.4877 27.1124C40.1477 27.1124 39.8441 27.2298 39.5561 27.4725C39.1924 27.779 39.1288 27.9283 39.1288 28.4759V29.1192L45.4354 35.4528C50.7245 40.7647 51.7685 41.8771 51.9062 42.3483C52.3771 43.9598 50.813 45.527 49.2026 45.0568C48.7293 44.9187 47.48 43.7326 41.2119 37.47C36.9824 33.2443 33.6091 29.9824 33.3803 29.8968C32.8753 29.7082 32.1366 29.9267 31.8384 30.3531C31.7236 30.5172 31.6297 30.902 31.6297 31.2083C31.6297 31.7568 31.7233 31.859 37.9366 38.097C43.6174 43.8007 44.2597 44.4907 44.4073 45.0495C44.8937 46.8903 42.9835 48.4682 41.3091 47.6087C41.0647 47.4833 40.0766 46.6074 39.1133 45.6626C37.2304 43.8156 36.4932 43.353 35.1546 43.1791L34.4438 43.0868L34.3644 42.3161C34.1452 40.1892 31.9738 38.1005 29.982 38.1005H29.4558L29.286 37.1771C29.0735 36.0222 28.7227 35.3264 27.9196 34.4664C27.1039 33.593 26.0084 33.0718 24.8068 32.9853L23.8858 32.9191L23.8027 32.3116C23.613 30.9258 22.4686 29.3886 21.1157 28.7025C20.3859 28.3323 20.1833 28.2947 18.9229 28.2947C17.1814 28.2947 16.5733 28.5478 15.2564 29.8213C14.7402 30.3204 14.2593 30.7287 14.1878 30.7287C14.1162 30.7287 13.3891 30.056 12.572 29.2335L11.0862 27.7383L15.9073 19.3616L20.7282 10.985L23.8181 10.9814C25.5177 10.9794 26.9081 11.0185 26.9081 11.068ZM20.1207 31.3462C20.9882 31.9366 21.3484 33.2845 20.8775 34.1782C20.5926 34.719 18.9922 36.2513 18.532 36.4239C17.516 36.805 16.1778 36.3163 15.7469 35.4068C15.4678 34.8176 15.4547 33.8997 15.7184 33.3993C15.9377 32.9831 17.5149 31.4065 17.9508 31.1676C18.4685 30.884 19.5753 30.9749 20.1207 31.3462ZM25.5335 36.0491C26.2195 36.5043 26.6834 37.5111 26.5571 38.2705C26.4714 38.7862 26.262 39.0653 24.9866 40.3642C23.4029 41.977 22.9205 42.2508 21.9763 42.0735C21.6646 42.0149 21.2389 41.7686 20.897 41.4491C20.3787 40.965 20.3272 40.8519 20.2711 40.0752C20.2216 39.3903 20.2645 39.1411 20.4965 38.769C20.8831 38.1485 22.8487 36.22 23.3668 35.9527C23.989 35.6317 24.9704 35.6753 25.5335 36.0491ZM30.7368 41.2237C31.2916 41.5878 31.6286 42.2625 31.6292 43.0104C31.6298 43.9256 31.435 44.2361 29.9395 45.7014C28.4766 47.1347 27.9025 47.4096 26.923 47.1454C26.2562 46.9656 25.4307 46.0907 25.3075 45.4332C25.1288 44.4791 25.4138 43.9601 26.9444 42.4514C27.8659 41.5433 28.5211 41.0093 28.7869 40.9501C29.0138 40.8994 29.2619 40.8424 29.3383 40.8235C29.5868 40.7616 30.3776 40.9879 30.7368 41.2237ZM35.4597 46.1533C36.4609 46.6088 36.9123 47.5101 36.7017 48.6338C36.6254 49.0414 36.3166 49.447 35.2629 50.5239C33.665 52.1569 33.3634 52.3393 32.3959 52.2589C31.5307 52.187 31.0351 51.8552 30.6597 51.0963C30.0699 49.9044 30.3647 49.1449 32.0708 47.4603C33.6607 45.8904 34.3215 45.6356 35.4597 46.1533Z" fill="#E49B00"/>
</svg>
