<svg width="71" height="71" viewBox="0 0 71 71" fill="none" xmlns="http://www.w3.org/2000/svg">
<path fill-rule="evenodd" clip-rule="evenodd" d="M44.829 0.0311073C38.3278 0.759877 33.6529 2.92314 29.4061 7.16789C25.6822 10.89 23.3848 15.4137 22.5294 20.7089C22.2609 22.371 22.2209 25.9276 22.4528 27.5121C23.144 32.234 25.0814 36.6547 27.9073 39.9571C28.2755 40.3874 28.5768 40.7945 28.5768 40.8615C28.5768 40.9286 27.7676 41.7905 26.7788 42.7767L24.9809 44.5698L24.3397 43.979C23.987 43.654 23.4365 43.2694 23.1163 43.1241C22.3594 42.7806 21.1795 42.7789 20.4507 43.1202C20.0715 43.2978 16.8698 46.4147 10.364 52.94C2.96982 60.3566 0.763821 62.6476 0.523788 63.1595C-0.181864 64.6648 -0.174085 66.4829 0.544485 67.9533C0.957597 68.7989 2.20832 70.0459 3.0608 70.4622C4.5235 71.1765 6.34222 71.1794 7.85812 70.4699C8.72019 70.0666 27.4961 51.4078 27.8936 50.5595C28.2351 49.831 28.2334 48.6517 27.8897 47.8952C27.7443 47.5751 27.3595 47.0249 27.0344 46.6724L26.4433 46.0315L28.2373 44.2345C29.224 43.2461 30.0863 42.4374 30.1534 42.4374C30.2205 42.4374 30.6278 42.7385 31.0582 43.1066C34.3623 45.931 38.7851 47.8675 43.5094 48.5584C45.0946 48.7901 48.653 48.7501 50.3159 48.4818C55.6137 47.6268 60.1396 45.3305 63.8636 41.6085C67.5961 37.8777 69.8912 33.4193 70.7626 28.2063C71.0513 26.4781 71.0833 22.5794 70.8221 20.9172C70.2075 17.0041 68.7442 13.3603 66.5291 10.2265C65.3329 8.53435 62.4964 5.69924 60.8034 4.50369C57.7536 2.35001 54.2118 0.897606 50.5242 0.288655C49.3368 0.0924745 45.7345 -0.0703846 44.829 0.0311073ZM50.3184 2.36723C56.7783 3.52001 61.9394 6.94588 65.5047 12.448C69.5835 18.7423 70.0891 27.1383 66.7988 33.9388C63.4906 40.7766 57.3545 45.2734 49.6908 46.4766C48.2267 46.7064 44.7539 46.6666 43.1332 46.4012C38.3312 45.6151 34.1362 43.4241 30.7157 39.916C26.5168 35.6096 24.4073 30.4617 24.3811 24.4576C24.368 21.4792 24.8049 19.0329 25.8193 16.4049C28.8374 8.58572 35.9179 3.13723 44.3223 2.16716C45.6598 2.01277 48.9464 2.12245 50.3184 2.36723ZM44.829 4.4787C37.663 5.34839 31.7726 9.41959 28.7785 15.5719C27.5033 18.1922 26.948 20.31 26.7875 23.1643C26.5879 26.7167 27.1898 29.8685 28.6519 32.9268C29.2291 34.1342 30.5657 36.2716 31.0666 36.7882C31.4083 37.1408 32.1392 37.1334 32.4989 36.7741C32.972 36.3012 32.862 35.8122 31.9975 34.5464C29.832 31.3753 28.8195 28.0969 28.8388 24.3188C28.8499 22.1383 29.1174 20.4993 29.7789 18.5569C30.3683 16.8263 30.7286 16.0872 31.7107 14.5946C33.8974 11.2713 37.201 8.70554 40.8701 7.48097C43.0792 6.74373 44.2539 6.55977 46.7043 6.56727C48.2641 6.57199 49.2582 6.64543 50.0381 6.81357C52.6084 7.36754 55.0729 8.43133 56.9834 9.81154C58.1225 10.6344 58.7022 10.7015 59.1756 10.0651C59.7001 9.35989 59.3997 8.91644 57.5628 7.68368C55.6015 6.36734 53.0568 5.32757 50.5435 4.81567C49.1825 4.53854 45.9211 4.34611 44.829 4.4787ZM60.8916 11.9027C60.3133 12.3573 60.3978 12.9031 61.2235 14.0484C62.6024 15.9612 63.6651 18.4232 64.218 20.9866C64.5589 22.5666 64.56 26.1262 64.22 27.713C63.4177 31.4585 61.8349 34.396 59.1853 37.0573C58.52 37.7256 57.9275 38.2722 57.8686 38.2722C57.8097 38.2722 57.7427 36.2259 57.7198 33.7252C57.6796 29.3532 57.6663 29.1562 57.3736 28.6096C56.8722 27.6729 56.2652 27.2779 53.3289 25.9772L50.5252 24.7353L50.5248 23.6094C50.5242 22.5308 50.5447 22.4579 51.0107 21.8739C51.6636 21.0559 52.0094 20.0854 52.1217 18.757C52.2938 16.7181 51.7872 15.0019 50.6488 13.7675C47.8243 10.7047 42.7993 11.8364 41.4483 15.8395C41.2871 16.3172 41.2174 16.9968 41.2174 18.0906C41.2174 19.9235 41.4609 20.7529 42.3424 21.9224C42.8825 22.6389 42.8921 22.6723 42.8539 23.689L42.8148 24.7253L39.9672 25.9897C36.9629 27.3237 36.4833 27.6473 35.907 28.7292C35.604 29.2978 35.5922 29.4621 35.5465 33.7806L35.4991 38.244L35.0213 38.2305C34.4179 38.2134 33.9479 38.6506 33.9479 39.2289C33.9479 39.7902 34.1035 39.9499 35.6591 40.9851C38.9306 43.1618 42.6263 44.2663 46.628 44.2632C49.3795 44.261 51.2875 43.9211 53.7129 43.0013C60.2176 40.5341 64.9056 34.9216 66.3026 27.9286C66.6753 26.063 66.6423 22.4429 66.2348 20.5164C65.5781 17.4097 64.4039 14.8212 62.4703 12.2172C62.2353 11.9008 61.7541 11.6149 61.4564 11.6149C61.3471 11.6149 61.0929 11.7445 60.8916 11.9027ZM48.1717 14.4959C49.1365 14.985 49.755 15.793 49.975 16.8521C50.1831 17.8537 50.0543 19.372 49.7029 20.0604C48.6106 22.2004 45.9037 22.6244 44.248 20.9148C43.87 20.5246 43.5358 20.021 43.4501 19.7125C43.2257 18.9051 43.2637 16.8324 43.5137 16.2344C44.302 14.3485 46.3632 13.5792 48.1717 14.4959ZM46.6348 24.0411C46.9786 24.0411 47.5256 23.9935 47.8503 23.9353L48.4406 23.8295V24.5755C48.4406 25.1367 48.5242 25.4446 48.7787 25.8194L49.117 26.3174L47.9536 27.2966C47.3138 27.835 46.7375 28.2757 46.6731 28.2757C46.5292 28.2757 44.3608 26.4897 44.297 26.3186C44.2717 26.2511 44.3787 26.0337 44.5345 25.8357C44.7075 25.6158 44.8541 25.1546 44.9111 24.6514L45.0044 23.8271L45.5072 23.934C45.7836 23.9929 46.291 24.0411 46.6348 24.0411ZM44.1345 28.9798C46.1672 30.6725 46.4076 30.827 46.8384 30.719C47.0279 30.6715 48.085 29.8843 49.1878 28.9698L51.1927 27.307L53.0257 28.1219C54.0339 28.5702 55.0243 29.0604 55.2265 29.2112L55.5944 29.4857V34.6772V39.8688L54.5526 40.3893C53.9796 40.6758 53.4639 40.91 53.4066 40.91C53.3492 40.9101 53.3024 39.1264 53.3024 36.9463C53.3024 33.7389 53.2636 32.9075 53.0992 32.5897C52.7697 31.9529 52.18 31.8442 51.5866 32.3107L51.2225 32.597L51.186 37.1353L51.1493 41.6737L49.9686 41.9192C48.353 42.2552 45.1959 42.2713 43.4747 41.9524L42.1898 41.7143V37.4337C42.1898 34.8081 42.1339 33.0064 42.0454 32.7737C41.753 32.0052 40.9933 31.795 40.4276 32.3262L40.1061 32.6282V36.7691C40.1061 39.3908 40.056 40.9101 39.9696 40.9101C39.8944 40.9101 39.3631 40.6777 38.7889 40.3938L37.7447 39.8773V34.7279C37.7447 30.8249 37.7868 29.5219 37.9183 29.3455C38.0139 29.2175 38.9963 28.7092 40.1014 28.2161C41.7291 27.4899 42.1513 27.3509 42.3239 27.4845C42.4412 27.5753 43.2559 28.2481 44.1345 28.9798ZM24.2252 46.7868C25.9421 48.503 26.0764 48.6749 26.0764 49.1575C26.0764 49.5889 25.9639 49.7952 25.4166 50.3659L24.7568 51.0542L22.3533 48.646L19.9498 46.2378L20.6457 45.5871C21.2163 45.0537 21.4347 44.9365 21.8578 44.9365C22.335 44.9365 22.5137 45.0763 24.2252 46.7868ZM20.868 50.2129L23.2269 52.5738L15.3796 60.427C10.8781 64.9318 7.29541 68.4076 6.97661 68.5791C6.20248 68.9958 4.70047 68.9974 3.92064 68.5826C3.26986 68.2364 2.73437 67.6913 2.37751 67.012C2.02858 66.3478 2.02719 64.7649 2.37501 64.0964C2.5924 63.6785 18.2418 47.8521 18.4376 47.8521C18.4769 47.8521 19.5706 48.9145 20.868 50.2129Z" fill="#E49B00"/>
</svg>
