<svg width="71" height="58" viewBox="0 0 71 58" fill="none" xmlns="http://www.w3.org/2000/svg">
<path fill-rule="evenodd" clip-rule="evenodd" d="M53.4423 0.0565503C46.6435 0.617747 40.7745 5.57846 38.9841 12.2768C38.6693 13.455 38.6231 13.909 38.6132 15.9193C38.6039 17.8466 38.6544 18.4509 38.927 19.6773C39.7042 23.1718 41.1616 25.8293 43.5459 28.0991C45.7331 30.1813 48.3963 31.533 51.5417 32.1569C53.0018 32.4467 56.3347 32.4825 57.687 32.223C64.8946 30.84 69.7036 25.7622 70.7966 18.3805C71.0646 16.5702 71.0666 15.5293 70.8051 13.7893C70.3293 10.6242 68.8677 7.58259 66.7313 5.31164C65.9783 4.51119 65.7716 4.36685 65.379 4.36685C64.812 4.36685 64.3494 4.81517 64.3494 5.36467C64.3494 5.64597 64.5855 6.01328 65.2047 6.69543C69.7115 11.6605 70.1397 18.6917 66.2845 24.4282C65.524 25.5599 63.8355 27.2545 62.7124 28.0135C61.5073 28.8279 59.773 29.6373 58.4504 30.0025C57.4923 30.2672 56.988 30.3094 54.7722 30.3106C52.3667 30.3119 52.1255 30.2878 50.9552 29.9301C48.2957 29.1174 46.3058 27.8956 44.4643 25.9448C41.7771 23.0983 40.4976 19.6408 40.6508 15.6409C40.792 11.9551 42.085 8.99463 44.6983 6.37405C46.018 5.05067 47.1193 4.27721 48.8562 3.45379C52.5717 1.69254 56.9408 1.64563 60.5721 3.32811C61.7851 3.89014 61.9662 3.90865 62.4568 3.52158C62.9007 3.17152 62.9571 2.44428 62.5677 2.09103C62.1751 1.73457 60.7785 1.09418 59.5555 0.709748C57.6438 0.108745 55.5367 -0.116318 53.4423 0.0565503ZM14.8738 0.329632C13.2627 0.764866 11.94 1.52607 10.7619 2.69593C8.97709 4.46832 8.2731 6.09874 8.16789 8.70276C8.13 9.64338 8.17136 10.7248 8.26644 11.2777C8.49768 12.6211 9.36032 15.1578 9.6865 15.454C9.87512 15.6252 10.2492 15.7188 10.8871 15.755L11.8139 15.8075V18.7515C11.8139 22.1278 12.0178 23.2811 12.9565 25.2162C13.6072 26.5575 15.0454 28.0761 16.2554 28.6994C16.7135 28.9355 16.9946 29.1321 16.88 29.1366C16.7655 29.1411 15.9223 29.208 15.0063 29.2854C7.38507 29.9287 3.43276 31.6765 1.67612 35.1803C1.12772 36.2743 1.06512 36.9445 1.47333 37.3538C1.78646 37.6678 2.41842 37.7193 2.75473 37.4582C2.87798 37.3626 3.17834 36.8556 3.42207 36.3317C4.47639 34.0659 7.04598 32.6062 11.2917 31.8614C13.0313 31.5563 12.9524 31.5334 13.0654 32.378C13.6495 36.7435 16.6374 39.1694 21.4199 39.1609C24.9087 39.1546 27.4764 37.7969 28.7335 35.2936C29.252 34.2611 29.6439 32.8917 29.6475 32.0996C29.6501 31.5299 29.7739 31.5246 32.082 31.9932C36.763 32.9436 38.9029 34.5241 39.7379 37.6479C39.9986 38.6229 40.0329 40.4943 39.9263 47.9319C39.867 52.0656 39.9693 53.5749 40.4819 56.1357C40.7746 57.598 41.0404 57.9997 41.7157 57.9997C42.2806 57.9997 42.6972 57.6005 42.6946 57.0618C42.6934 56.8249 42.5732 55.9731 42.4274 55.169C41.958 52.5803 41.8317 49.6647 42.0144 45.6389C42.2137 41.2492 42.1325 38.8113 41.7365 37.2842C40.7477 33.4717 38.3903 31.3824 33.7344 30.1922C32.5087 29.8789 29.2558 29.4289 26.5376 29.1967L25.5768 29.1146L26.2565 28.7691C26.6301 28.5792 27.2314 28.2063 27.5924 27.9406C28.2537 27.4537 29.4385 26.0073 29.6661 25.4091C29.9334 24.706 29.4229 23.992 28.653 23.992C28.3784 23.992 28.1661 24.1337 27.8858 24.5039C26.4246 26.4336 25.2757 27.1915 23.2547 27.5592C20.3091 28.0952 17.1987 27.3144 15.7395 25.6724C15.1061 24.9596 14.3747 23.4772 14.0867 22.3218C13.8548 21.3913 13.836 16.4546 14.0624 15.9193C14.1854 15.6286 14.3639 15.5419 15.1453 15.3934C17.0025 15.0403 19.2908 13.9321 20.6591 12.723L21.3151 12.1433L22.1859 12.8572C23.351 13.8125 25.5195 14.8637 27.2141 15.2947C27.9704 15.4871 28.6036 15.6594 28.6212 15.6775C28.7253 15.7841 28.9572 19.0882 28.9249 20.002C28.8894 21.0036 28.9128 21.1138 29.2139 21.359C29.6329 21.7003 30.2689 21.7007 30.6088 21.3599C31.0649 20.9025 31.1372 19.158 30.8128 16.4412L30.7339 15.7801H31.5013C32.9338 15.7801 33.1616 15.567 33.8285 13.6024C35.4034 8.96346 34.4951 4.70326 31.3808 2.12262C28.8792 0.0497299 24.8796 -0.561991 22.0393 0.693742L21.2997 1.02083L20.7596 0.744544C19.3326 0.0145159 16.7215 -0.169627 14.8738 0.329632ZM20.0644 2.73309C20.6107 3.01925 21.1864 3.25337 21.3437 3.25337C21.5011 3.25337 22.0971 3.0219 22.668 2.73894C23.5788 2.28742 23.86 2.21699 24.9616 2.16424C27.1615 2.05873 28.8742 2.66586 30.3908 4.08834C31.8655 5.47171 32.478 6.99189 32.4658 9.23835C32.4587 10.5234 32.225 11.9296 31.8294 13.066C31.6427 13.6026 31.6111 13.6244 30.955 13.6675C29.1788 13.7843 26.2469 12.9941 24.567 11.9458C24.0238 11.6067 23.1645 10.9215 22.6574 10.4231C21.4703 9.25574 21.3127 9.25393 20.1016 10.3922C17.867 12.4925 15.6167 13.454 12.4851 13.6465L11.0744 13.7331L10.7852 12.7596C9.67123 9.00855 10.2257 5.92796 12.3635 3.99091C13.8084 2.68159 15.4089 2.12694 17.5939 2.17816C18.9991 2.21114 19.1197 2.23828 20.0644 2.73309ZM52.135 5.90443C49.1182 6.68554 46.5561 8.76595 45.201 11.5349C44.3548 13.2639 44.1584 14.1668 44.1716 16.2672C44.1813 17.8136 44.2376 18.2587 44.5594 19.3293C45.1465 21.2822 45.7796 22.3494 47.2121 23.8002C48.2874 24.8892 48.6526 25.1602 49.7799 25.7053C51.4311 26.5039 52.3949 26.7599 54.1476 26.8654C58.5176 27.1284 62.3927 24.924 64.2146 21.1387C65.0654 19.3708 65.3883 17.9632 65.3797 16.0584C65.3715 14.2724 65.1168 13.2185 64.2865 11.5349C62.8763 8.67576 60.428 6.68986 57.3356 5.89678C55.8882 5.52557 53.5852 5.52891 52.135 5.90443ZM56.646 7.91594C59.0625 8.423 61.3106 10.1103 62.3157 12.1715C63.0415 13.6597 63.2988 14.7703 63.2973 16.4064C63.2951 18.7895 62.5444 20.5344 60.7502 22.3279C59.0091 24.0682 57.1921 24.821 54.7228 24.825C53.2092 24.8276 52.1123 24.5545 50.7161 23.8272C47.4238 22.1126 45.6126 18.2772 46.3572 14.597C46.6378 13.2103 47.4872 11.4471 48.3246 10.5131C50.3139 8.29453 53.5847 7.27374 56.646 7.91594ZM57.2706 12.9035C56.311 13.6615 54.4399 15.6416 53.8006 16.5759L53.3148 17.2858L52.4673 16.471C52.0012 16.0229 51.4492 15.6133 51.2408 15.5609C50.6822 15.4203 50.1348 15.8721 50.0797 16.519C50.0408 16.9753 50.1137 17.0938 50.8699 17.8056C51.3279 18.237 51.9364 18.9301 52.2222 19.3461C53.1208 20.6546 53.8121 20.5571 54.7336 18.9918C55.7635 17.2426 56.8323 16.0249 58.9091 14.2341C59.5779 13.6576 59.6782 13.1108 59.2084 12.6051C58.7512 12.1128 58.1556 12.2047 57.2706 12.9035ZM18.4506 17.1729C17.8287 17.4241 17.6594 18.3045 18.1346 18.8158C18.5449 19.2575 19.2743 19.2276 19.6459 18.7538C19.8041 18.5521 19.9336 18.3045 19.9336 18.2036C19.9336 17.8356 19.6172 17.3381 19.2872 17.1872C18.8969 17.0089 18.8579 17.0084 18.4506 17.1729ZM23.5424 17.1328C22.8291 17.3911 22.6033 18.318 23.126 18.8422C23.4805 19.1976 24.2511 19.2103 24.5619 18.866C24.867 18.528 24.8593 17.6923 24.5487 17.4187C24.2492 17.1551 23.8189 17.0327 23.5424 17.1328ZM23.4036 30.6451C23.4036 32.1814 22.8624 32.6932 21.2426 32.6889C19.901 32.6851 19.2396 32.0248 19.2396 30.6888C19.2396 29.7416 19.1773 29.7682 21.3925 29.7682H23.4036V30.6451ZM17.2953 31.921C17.5586 33.0214 18.1562 33.7964 19.1097 34.2742C20.2071 34.8241 21.3964 34.9522 22.583 34.6481C24.1771 34.2398 25.0371 33.407 25.3818 31.9383L25.555 31.1999L26.249 31.2831C26.6307 31.3289 27.1044 31.367 27.3016 31.3676C27.6593 31.3689 27.6602 31.3712 27.5488 32.1875C27.099 35.4857 25.0468 37.0803 21.2614 37.0734C17.921 37.0673 15.9455 35.6776 15.2854 32.8694C14.9578 31.4766 14.9784 31.3936 15.6656 31.3316C17.209 31.1922 17.1127 31.1573 17.2953 31.921ZM48.1604 38.3518C47.8563 38.4993 47.5547 39.0139 47.5547 39.385C47.5547 39.751 48.2055 40.2767 48.6588 40.2767C49.5691 40.2767 49.9624 39.1989 49.2959 38.5307C48.9328 38.1664 48.6377 38.1199 48.1604 38.3518ZM52.0881 38.4744C51.6261 38.839 51.5814 39.5823 51.9962 39.9984C52.2682 40.271 52.4589 40.2767 61.3551 40.2767H70.4364L70.724 39.91C71.0827 39.4528 71.0902 39.0128 70.7465 38.5872L70.4811 38.2585L61.4693 38.2208C52.5051 38.1832 52.4555 38.1846 52.0881 38.4744ZM1.19573 40.4578C0.578771 40.769 0.526721 41.1016 0.647615 43.9652C0.889959 49.7057 0.787247 52.429 0.212618 55.5074C0.0564693 56.3439 -0.033889 57.1776 0.0119148 57.3604C0.187635 58.0626 1.53968 58.1917 1.88765 57.5397C2.13124 57.0831 2.5815 54.1652 2.7489 51.9586C2.87479 50.2977 2.87895 48.6891 2.76583 45.3533C2.62995 41.3439 2.59289 40.921 2.3572 40.6943C1.98508 40.3366 1.59409 40.257 1.19573 40.4578ZM8.1933 43.9086C7.94873 44.1796 7.92958 44.4787 7.91847 48.1886C7.9064 52.2649 7.793 53.4626 7.23142 55.448C6.84944 56.7979 6.82654 57.2913 7.12815 57.6649C7.46682 58.0844 8.17456 58.1153 8.56111 57.7277C9.27537 57.0114 9.93897 53.2931 10.0361 49.463C10.1247 45.9717 9.9641 44.2252 9.52119 43.8655C9.1109 43.5324 8.51545 43.5518 8.1933 43.9086ZM33.1316 43.9522C32.8499 44.253 32.8032 44.5053 32.6747 46.4228C32.4379 49.9596 32.8639 54.3268 33.6881 56.8106C33.9326 57.5472 34.0581 57.733 34.4122 57.8823C34.9266 58.0992 35.3059 57.983 35.6669 57.498C35.9305 57.1441 35.9297 57.1304 35.567 55.8421C34.8656 53.3517 34.6007 49.9227 34.7851 45.7275C34.8525 44.1968 34.8447 44.1414 34.5268 43.8833C34.0773 43.5181 33.5122 43.5461 33.1316 43.9522ZM48.2982 45.9835C47.9479 46.1236 47.5547 46.6453 47.5547 46.9699C47.5547 47.0956 47.6842 47.3635 47.8424 47.5652C48.4136 48.2933 49.6367 47.8896 49.6367 46.9731C49.6367 46.2499 48.9328 45.7295 48.2982 45.9835ZM52.4126 45.9412C51.6969 46.2112 51.4735 47.1294 51.9962 47.6536C52.2672 47.9253 52.4589 47.9319 60.0412 47.9319H67.8085L68.0915 47.6273C68.4469 47.2449 68.4542 46.6695 68.1093 46.2424L67.8441 45.9138L60.2324 45.8881C56.046 45.8741 52.5271 45.8979 52.4126 45.9412ZM47.8424 54.0053C47.6842 54.207 47.5547 54.4804 47.5547 54.6129C47.5547 54.7454 47.6842 55.0187 47.8424 55.2204C48.4192 55.9559 49.6367 55.5436 49.6367 54.6129C49.6367 53.6821 48.4192 53.2699 47.8424 54.0053ZM51.9348 53.948C51.6426 54.3662 51.6627 54.9302 51.9839 55.3281L52.2491 55.6567L60.9017 55.6981C65.6607 55.7208 69.7575 55.7023 70.006 55.6569C70.9148 55.4908 71.3056 54.5641 70.7287 53.9432L70.4457 53.6386H61.2983H52.1507L51.9348 53.948Z" fill="#E49B00"/>
</svg>
