<svg width="71" height="62" viewBox="0 0 71 62" fill="none" xmlns="http://www.w3.org/2000/svg">
<path fill-rule="evenodd" clip-rule="evenodd" d="M10.7681 0.126202C8.83762 0.71076 7.84487 2.09705 7.73872 4.35674L7.67953 5.61571L5.92399 5.67896C3.58265 5.76357 2.84764 6.03614 1.5852 7.28835C0.920916 7.94705 0.577309 8.42371 0.334714 9.02342L0 9.85024V34.1724V58.4945L0.361391 59.2588C0.877149 60.3492 1.48725 60.9726 2.54419 61.4889L3.46677 61.9396L8.24753 61.9808C13.0245 62.0222 13.0284 62.0219 13.357 61.7157C13.7791 61.3224 13.7966 60.6349 13.3937 60.2729C13.1219 60.0287 12.7735 60.0056 8.41593 59.9415L3.73035 59.8726L3.16721 59.5027C2.82833 59.2802 2.48681 58.8924 2.30938 58.529L2.01468 57.9253V39.1586V20.3921H12.3666H22.7186L22.0995 21.529C20.8911 23.7476 20.3021 26.1541 20.3205 28.7981C20.3395 31.5667 21.0293 34.0183 22.4749 36.4558C23.4514 38.1021 25.7822 40.451 27.4309 41.45C33.7043 45.2513 41.4544 44.2681 46.4929 39.0317C49.281 36.1343 50.6722 32.6865 50.6779 28.6603C50.6816 26.108 50.1798 24.0432 48.9946 21.7346L48.3054 20.3921H51.8913C55.1691 20.3921 55.5042 20.3704 55.7935 20.138C56.2515 19.7702 56.2223 19.0663 55.7317 18.6478L55.3533 18.3251H50.9719H46.5903L45.5623 17.3856C42.8671 14.9226 39.3996 13.6275 35.5 13.6275C31.6004 13.6275 28.133 14.9226 25.4377 17.3856L24.4097 18.3251H13.2123H2.01468L2.01773 14.3633C2.02051 10.676 2.04038 10.3585 2.30382 9.78134C2.65423 9.0135 3.16624 8.46656 3.89041 8.08623C4.33975 7.85017 4.75492 7.78403 6.05876 7.74035L7.6712 7.68646L7.74261 8.92889C7.82445 10.3513 8.11929 11.0998 8.92002 11.9174C10.4685 13.4988 13.1271 13.4958 14.7251 11.9109C15.499 11.1435 15.8101 10.3392 15.8819 8.92007L15.943 7.7143H17.9241H19.9051L19.9617 8.99504C20.0109 10.1099 20.0733 10.3732 20.4436 11.0276C20.9176 11.8656 21.9018 12.6923 22.7119 12.9329C23.6166 13.2017 24.9249 13.1258 25.7045 12.7593C27.1862 12.0625 27.9832 10.7676 28.1029 8.86247L28.1752 7.7143H35.0168H41.8582L41.9147 8.99504C41.9639 10.1099 42.0263 10.3732 42.3966 11.0276C42.8707 11.8656 43.8548 12.6923 44.665 12.9329C45.5696 13.2017 46.8779 13.1258 47.6575 12.7593C49.1392 12.0625 49.9362 10.7676 50.056 8.86247L50.1282 7.7143H52.1233H54.1184V8.79219C54.1184 9.40555 54.2115 10.141 54.3343 10.4986C54.609 11.2979 55.3492 12.1576 56.1795 12.6417C56.7635 12.9822 56.9588 13.0197 58.1478 13.0197C59.3367 13.0197 59.532 12.9822 60.116 12.6417C60.9463 12.1576 61.6865 11.2979 61.9612 10.4986C62.0849 10.1387 62.1771 9.40431 62.1771 8.78007V7.69005L64.3655 7.73855C66.2805 7.781 66.6233 7.82399 67.1096 8.08251C67.836 8.46877 68.3467 9.01557 68.6962 9.78134C68.9596 10.3585 68.9795 10.676 68.9823 14.3633L68.9853 18.3251H64.3495C59.8698 18.3251 59.7013 18.3347 59.3475 18.6108C58.8887 18.9686 58.8455 19.7062 59.2593 20.1165C59.5263 20.3814 59.7224 20.3921 64.2626 20.3921H68.9882L68.952 39.3156L68.9159 58.2392L68.581 58.7239C68.3969 58.9904 68.0263 59.3579 67.7576 59.5405L67.269 59.8726L42.1794 59.9415C28.3803 59.9794 17.02 60.0556 16.9344 60.1108C16.8488 60.166 16.7032 60.3922 16.6108 60.6134C16.4721 60.9454 16.4816 61.0899 16.6647 61.4412C16.7868 61.6752 17.0262 61.9003 17.1967 61.9414C17.3674 61.9825 28.7626 61.9989 42.5196 61.9779L67.5323 61.9396L68.4554 61.4889C69.5126 60.9726 70.1229 60.3494 70.6386 59.2588L71 58.4945V34.1724V9.85024L70.6653 9.02342C70.199 7.87139 68.8137 6.50178 67.6654 6.05736C66.9402 5.7768 66.5289 5.72733 64.5044 5.67717L62.1771 5.61943V4.34627C62.1771 3.20182 62.1342 2.98767 61.7519 2.22921C60.2625 -0.727072 56.033 -0.727072 54.5436 2.22921C54.1604 2.98974 54.1184 3.20016 54.1184 4.36019V5.64726H52.1226H50.127L50.0582 4.34503C50.0033 3.30338 49.9151 2.89176 49.6169 2.2875C48.7278 0.485177 46.7244 -0.374159 44.7433 0.197032C44.0971 0.383341 43.7738 0.588943 43.1452 1.21305C42.1658 2.18539 41.8914 2.90485 41.8914 4.50047V5.64726H35.0341H28.1769L28.0974 4.32615C28.035 3.28974 27.9397 2.84642 27.6546 2.26862C26.7751 0.485591 24.7623 -0.371541 22.7903 0.197032C22.1441 0.383341 21.8208 0.588943 21.1922 1.21305C20.2128 2.18539 19.9384 2.90485 19.9384 4.50047V5.64726H17.9423H15.9461L15.8797 4.30369C15.8001 2.69567 15.4391 1.85425 14.4637 1.00263C13.5004 0.161617 11.9026 -0.217202 10.7681 0.126202ZM12.9723 2.43798C13.7445 2.99911 13.8244 3.3811 13.8246 6.51294C13.8249 9.68005 13.7579 10.0162 12.9994 10.6491C12.6352 10.9531 12.4153 11.0216 11.8043 11.0216C11.1656 11.0216 10.9837 10.959 10.5662 10.5953C9.84371 9.96613 9.77021 9.53757 9.82051 6.24257C9.86164 3.54632 9.88692 3.29442 10.1527 2.93531C10.7959 2.06674 12.1361 1.83041 12.9723 2.43798ZM25.1896 2.45768C25.9667 3.00641 26.0781 3.58891 26.0274 6.83733C25.9884 9.34092 25.949 9.77596 25.7317 10.1045C24.8967 11.3668 22.8708 11.3057 22.2456 9.99948C22.0618 9.61515 22.0226 9.00248 22.0231 6.52217C22.0235 3.76088 22.0464 3.47412 22.2997 3.06222C22.9167 2.05847 24.2342 1.78286 25.1896 2.45768ZM47.1478 2.46127C47.919 3.00586 48.031 3.59442 47.9804 6.83733C47.9414 9.34092 47.9021 9.77596 47.6848 10.1045C46.8497 11.3668 44.8238 11.3057 44.1987 9.99948C44.0149 9.61515 43.9755 9.00055 43.9755 6.50811C43.9755 3.59263 43.9869 3.46626 44.2909 3.01496C44.933 2.06164 46.2268 1.81084 47.1478 2.46127ZM58.9536 2.25801C59.16 2.36453 59.4851 2.6174 59.6761 2.81997C60.0233 3.18831 60.0235 3.18969 60.0653 6.40917C60.1009 9.14786 60.0739 9.69383 59.8848 10.0563C59.2161 11.3389 57.0794 11.3389 56.4107 10.0563C56.2217 9.69383 56.1946 9.14814 56.2302 6.41262C56.2691 3.42285 56.2917 3.17329 56.5499 2.8857C57.2473 2.10891 58.1885 1.8632 58.9536 2.25801ZM37.887 15.8598C39.5728 16.1402 41.8573 17.1098 43.2208 18.1234C50.4021 23.4616 50.4021 33.859 43.2208 39.1972C41.5771 40.4191 39.0335 41.3753 36.8327 41.5986C32.1224 42.0766 27.3363 39.8871 24.6609 36.0305C24.0672 35.1748 23.0846 33.0567 22.8075 32.0359C22.2655 30.0382 22.2655 27.2824 22.8075 25.2847C23.0846 24.2638 24.0672 22.1458 24.6609 21.2901C25.9156 19.4815 27.8713 17.8597 29.9608 16.8954C32.5787 15.6871 34.9709 15.3746 37.887 15.8598ZM41.8219 24.1332C41.6691 24.2155 39.873 25.9325 37.8305 27.9488L34.1171 31.6148L32.4684 29.9997C31.0645 28.6245 30.7545 28.3847 30.3809 28.3847C29.8047 28.3847 29.3865 28.8072 29.3865 29.3894C29.3865 29.7918 29.634 30.0865 31.5847 32.0077C32.7937 33.1983 33.8909 34.1724 34.023 34.1724C34.5464 34.1724 35.1657 33.6275 39.1473 29.664C43.0486 25.7802 43.2808 25.521 43.2808 25.0477C43.2808 24.2474 42.5084 23.7632 41.8219 24.1332ZM7.85029 25.9042C7.43652 26.3146 7.47973 27.0521 7.93852 27.41C8.28602 27.6812 8.47554 27.6957 11.6835 27.6957C15.2676 27.6957 15.6238 27.6414 15.8937 27.0539C16.1106 26.5817 16.0885 26.406 15.7599 25.9917L15.472 25.6286H11.8C8.31339 25.6286 8.11415 25.6426 7.85029 25.9042ZM55.2401 25.9917C54.9115 26.406 54.8894 26.5817 55.1063 27.0539C55.3762 27.6414 55.7324 27.6957 59.3165 27.6957C62.5245 27.6957 62.714 27.6812 63.0615 27.41C63.5203 27.0521 63.5635 26.3146 63.1497 25.9042C62.8859 25.6426 62.6866 25.6286 59.2 25.6286H55.528L55.2401 25.9917ZM7.80236 30.2904C7.47237 30.652 7.50613 31.4519 7.86488 31.7739C8.13666 32.0179 8.41232 32.0365 11.7674 32.0365H15.3773L15.7127 31.6498C16.1234 31.1762 16.1349 30.8741 15.7599 30.4014L15.472 30.0383H11.7521C8.32492 30.0383 8.01425 30.0582 7.80236 30.2904ZM55.2401 30.4014C54.8651 30.8741 54.8766 31.1762 55.2873 31.6498L55.6227 32.0365H59.2596H62.8964L63.1619 31.7111C63.5004 31.2967 63.5062 30.565 63.1735 30.2664C62.9505 30.0662 62.4676 30.0383 59.2237 30.0383H55.528L55.2401 30.4014ZM12.0186 46.5589C10.7174 46.9781 9.43244 48.1566 9.0441 49.2871C8.92238 49.6413 8.8229 50.3696 8.82304 50.9055C8.82317 52.6222 9.83274 54.1561 11.4459 54.8907C12.3737 55.3132 14.0448 55.2985 15.0356 54.8589C15.8993 54.4758 16.9215 53.4411 17.3361 52.53C17.779 51.5572 17.7521 50.0619 17.273 49.0347C16.5249 47.4309 15.1652 46.5316 13.408 46.4786C12.8349 46.4612 12.2096 46.4975 12.0186 46.5589ZM20.6963 46.7751L20.3552 47.1133V50.8465V54.5797L20.6963 54.9179C21.1052 55.3236 21.5957 55.351 22.0418 54.9933C22.3518 54.7447 22.3738 54.6226 22.4393 52.776L22.5088 50.8218L23.815 52.7152C25.3698 54.9691 25.5093 55.1184 26.061 55.1184C27.2229 55.1184 27.2971 54.8222 27.2043 50.5476C27.1334 47.2789 27.1105 47.0372 26.844 46.7469C26.4373 46.3041 25.7406 46.3291 25.3673 46.7999C25.108 47.1268 25.0793 47.3498 25.0793 49.0341V50.9053L24.0382 49.3945C22.2243 46.7622 21.9408 46.4368 21.4612 46.4368C21.1964 46.4368 20.9093 46.5637 20.6963 46.7751ZM32.999 46.7124C32.2929 47.4127 32.8966 48.5039 33.9904 48.5039H34.5274V51.5417V54.5797L34.8685 54.9179C35.0561 55.1039 35.3715 55.2562 35.5695 55.2562C35.7675 55.2562 36.0829 55.1039 36.2704 54.9179L36.6115 54.5797V51.5417V48.5039H37.0913C37.7357 48.5039 38.2155 48.269 38.4025 47.8621C38.6194 47.3899 38.5973 47.2142 38.2687 46.7999L37.9808 46.4368H35.6288C33.4621 46.4368 33.255 46.4586 32.999 46.7124ZM41.0819 46.7557C40.7871 47.0671 40.7798 47.1641 40.7798 50.8272V54.5797L41.1209 54.9179C41.3085 55.1039 41.6239 55.2562 41.8219 55.2562C42.0199 55.2562 42.3353 55.1039 42.5229 54.9179L42.864 54.5797V50.8713C42.864 47.3284 42.8512 47.1468 42.576 46.7999C42.1996 46.3253 41.509 46.3049 41.0819 46.7557ZM47.0491 46.7635C46.7941 47.0327 46.6306 47.6816 46.1218 50.4426C45.7819 52.2864 45.5039 53.9901 45.5039 54.2286C45.5039 55.0488 46.5406 55.4778 47.166 54.9165C47.4943 54.6217 47.4997 54.6041 47.8087 52.8446L48.0507 51.4666L48.2986 52.2245C48.4349 52.6414 48.6508 53.3491 48.7785 53.7974C49.0511 54.7554 49.4924 55.2562 50.064 55.2562C50.8264 55.2562 51.1181 54.8556 51.6163 53.1244C51.8686 52.2474 52.0954 51.5503 52.1203 51.5749C52.1451 51.5996 52.2963 52.2984 52.4562 53.128C52.778 54.7968 53.0028 55.1643 53.7016 55.1643C54.2883 55.1643 54.7345 54.7043 54.7118 54.1225C54.7022 53.8744 54.4066 52.1832 54.0549 50.3642C53.4854 47.4185 53.377 47.023 53.0645 46.7469C52.8485 46.5562 52.5342 46.4368 52.2472 46.4368C51.5259 46.4368 51.2045 46.9435 50.6475 48.9589C50.3814 49.9213 50.1307 50.7087 50.0904 50.7087C50.0501 50.7087 49.7728 49.868 49.4742 48.8404C49.0563 47.4019 48.8526 46.9106 48.5885 46.7044C48.1115 46.3324 47.4329 46.3584 47.0491 46.7635ZM57.6552 46.7751L57.3141 47.1133V50.8465V54.5797L57.6552 54.9179C57.9806 55.2408 58.0749 55.2562 59.7206 55.2562C61.2547 55.2562 61.4853 55.2246 61.811 54.9705C62.2698 54.6126 62.313 53.8751 61.8992 53.4648C61.6676 53.235 61.4361 53.1891 60.5098 53.1891H59.3982V52.5001V51.8111H60.4302C61.3796 51.8111 61.4853 51.782 61.7501 51.448C62.4935 50.511 61.8132 49.7441 60.2388 49.7441H59.3982V49.124V48.5039H60.4835C61.7729 48.5039 62.1771 48.2572 62.1771 47.4703C62.1771 47.1626 62.0714 46.9011 61.873 46.7178C61.5997 46.4652 61.3883 46.4368 59.7826 46.4368C58.0712 46.4368 57.9819 46.451 57.6552 46.7751ZM14.2279 48.7035C14.442 48.8134 14.8098 49.1208 15.0453 49.3868C16.4432 50.9657 14.9197 53.5292 12.8175 53.1351C11.6396 52.9144 10.9084 52.0488 10.9076 50.8741C10.9068 49.8244 11.4204 49.0052 12.2966 48.6586C12.8133 48.4543 13.7859 48.4769 14.2279 48.7035Z" fill="#E49B00"/>
</svg>
