<svg width="83" height="82" viewBox="0 0 83 82" fill="none" xmlns="http://www.w3.org/2000/svg">
<path fill-rule="evenodd" clip-rule="evenodd" d="M0 38.4375V76.875H23.0625H46.125V71.7537V66.6324L62.1807 66.5886L78.2363 66.5449L79.2455 65.9977C80.3664 65.3899 80.8491 64.8911 81.4883 63.6792L81.9199 62.8613L81.9628 41.6743L82.0058 20.4873L74.996 20.5336L67.9863 20.5801L67.1055 20.9978C66.3034 21.3781 64.8633 22.6218 64.8633 22.9339C64.8633 23.0047 60.6472 23.0625 55.4941 23.0625H46.125V11.5312V0H23.0625H0V38.4375ZM43.5625 3.84375V5.125H42.2812H41V6.40625V7.6875H42.2812H43.5625V10.25V12.8125H23.0625H2.5625V10.25V7.6875H3.84375H5.125V6.40625V5.125H3.84375H2.5625V3.84375V2.5625H23.0625H43.5625V3.84375ZM7.6875 6.40625V7.6875H23.0625H38.4375V6.40625V5.125H23.0625H7.6875V6.40625ZM43.5625 19.2188V23.0625H23.0625H2.5625V19.2188V15.375H23.0625H43.5625V19.2188ZM5.125 19.2188V20.5H6.40625H7.6875V19.2188V17.9375H6.40625H5.125V19.2188ZM10.25 19.2188V20.5H11.5312H12.8125V19.2188V17.9375H11.5312H10.25V19.2188ZM15.375 19.2188V20.5H16.6562H17.9375V19.2188V17.9375H16.6562H15.375V19.2188ZM20.5 19.2188V20.5H21.7812H23.0625V19.2188V17.9375H21.7812H20.5V19.2188ZM25.625 19.2188V20.5H32.0312H38.4375V19.2188V17.9375H32.0312H25.625V19.2188ZM79.3994 42.75C79.3576 62.3519 79.356 62.4395 79.0272 62.8797C78.8456 63.123 78.498 63.4706 78.2547 63.6522C77.8134 63.9818 77.7688 63.9824 53.961 64.0241C40.8426 64.047 30.1094 64.0253 30.1094 63.976C30.1094 63.9267 30.2354 63.6559 30.3896 63.3738C30.6504 62.8969 30.673 61.7458 30.7136 46.8057L30.7574 30.75H48.6912H66.625V27.9577C66.625 25.0633 66.714 24.5388 67.3164 23.883C68.032 23.1037 68.265 23.0755 74.0341 23.0687L79.4412 23.0625L79.3994 42.75ZM20.5 29.4688V33.3125H11.5312H2.5625V29.4688V25.625H11.5312H20.5V29.4688ZM64.0625 26.9062V28.1875H46.1271H28.1918L28.1495 45.3125C28.1077 62.3259 28.1053 62.4404 27.7772 62.8797C27.1497 63.7202 26.6378 63.9824 25.625 63.9824C24.6122 63.9824 24.1003 63.7202 23.4728 62.8797C23.1443 62.44 23.1424 62.3389 23.1006 44.0313L23.0585 25.625H43.5606H64.0625V26.9062ZM5.125 29.4688V30.75H6.40625H7.6875V29.4688V28.1875H6.40625H5.125V29.4688ZM10.25 29.4688V30.75H11.5312H12.8125V29.4688V28.1875H11.5312H10.25V29.4688ZM15.375 29.4688V30.75H16.6562H17.9375V29.4688V28.1875H16.6562H15.375V29.4688ZM20.5 39.7188V43.5625H11.5312H2.5625V39.7188V35.875H11.5312H20.5V39.7188ZM5.125 39.7188V41H6.40625H7.6875V39.7188V38.4375H6.40625H5.125V39.7188ZM10.25 39.7188V41H11.5312H12.8125V39.7188V38.4375H11.5312H10.25V39.7188ZM15.375 39.7188V41H16.6562H17.9375V39.7188V38.4375H16.6562H15.375V39.7188ZM40.7787 41.1781C39.7852 41.4113 38.331 42.2673 37.6226 43.0357C37.2631 43.4259 36.7406 44.2267 36.462 44.8149C36.003 45.7837 35.9551 46.0292 35.9551 47.4146C35.9551 48.8584 35.9887 49.0123 36.5533 50.1545C37.2738 51.6128 38.2016 52.5208 39.6899 53.2247C40.7361 53.7196 40.819 53.7319 43.4424 53.7878L46.125 53.8449V52.5474V51.25H43.9414C42.6951 51.25 41.4749 51.1664 41.0987 51.0552C40.2189 50.7953 38.8922 49.4686 38.6323 48.5888C38.1886 47.0872 38.5014 45.8901 39.6332 44.7582C40.6773 43.7142 41.2237 43.5625 43.9414 43.5625H46.125V42.2812V41L43.7627 41.016C42.4633 41.025 41.1206 41.0979 40.7787 41.1781ZM51.25 41.2093C50.464 41.4571 49.1233 42.8453 48.8823 43.6612C48.7485 44.1138 48.6875 45.8082 48.6875 49.0664V53.8125H49.9688H51.25V49.0807V44.3487L51.6432 43.9557C51.8909 43.7078 52.2193 43.5625 52.5312 43.5625C52.8432 43.5625 53.1716 43.7078 53.4193 43.9557L53.8125 44.3487V49.0807V53.8125H55.0938H56.375V49.0807V44.3487L56.7682 43.9557C57.0159 43.7078 57.3443 43.5625 57.6562 43.5625C57.9682 43.5625 58.2966 43.7078 58.5443 43.9557L58.9375 44.3487V49.0807V53.8125H60.2188H61.5V49.0664C61.5 45.863 61.4382 44.1138 61.3096 43.6849C61.2048 43.3354 60.8076 42.7029 60.4268 42.2793C59.1274 40.8341 57.0978 40.5868 55.5255 41.6821C55.1149 41.9683 55.0527 41.9734 54.797 41.742C54.0763 41.0898 52.419 40.841 51.25 41.2093ZM66.625 41.2093C65.839 41.4571 64.4983 42.8453 64.2572 43.6612C63.8136 45.1628 64.1264 46.3599 65.2582 47.4918C66.2703 48.5038 66.8718 48.6875 69.1732 48.6875C70.8608 48.6875 70.9864 48.7101 71.3568 49.0807C71.6047 49.3284 71.75 49.6568 71.75 49.9688C71.75 50.2807 71.6047 50.6091 71.3568 50.8568C70.9638 51.25 70.9633 51.25 67.5131 51.25H64.0625V52.5312V53.8125H67.5574C71.7266 53.8125 72.1811 53.7102 73.2393 52.5332C74.7286 50.8767 74.6818 48.8858 73.1168 47.3207C72.1047 46.3087 71.5032 46.125 69.2018 46.125C67.5142 46.125 67.3886 46.1024 67.0182 45.7318C66.7703 45.4841 66.625 45.1557 66.625 44.8438C66.625 44.5318 66.7703 44.2034 67.0182 43.9557C67.4112 43.5625 67.4117 43.5625 70.8619 43.5625H74.3125V42.2812V41L70.749 41.0163C68.6451 41.0259 66.9559 41.1051 66.625 41.2093ZM20.5 49.9688V53.8125H11.5312H2.5625V49.9688V46.125H11.5312H20.5V49.9688ZM5.125 49.9688V51.25H6.40625H7.6875V49.9688V48.6875H6.40625H5.125V49.9688ZM10.25 49.9688V51.25H11.5312H12.8125V49.9688V48.6875H11.5312H10.25V49.9688ZM15.375 49.9688V51.25H16.6562H17.9375V49.9688V48.6875H16.6562H15.375V49.9688ZM20.5 59.2323C20.5 61.9375 20.5873 62.6483 21.0585 63.7822C21.1685 64.0473 20.6693 64.0625 11.8687 64.0625H2.5625V60.2188V56.375H11.5312H20.5V59.2323ZM5.125 60.2188V61.5H6.40625H7.6875V60.2188V58.9375H6.40625H5.125V60.2188ZM10.25 60.2188V61.5H11.5312H12.8125V60.2188V58.9375H11.5312H10.25V60.2188ZM15.375 60.2188V61.5H16.6562H17.9375V60.2188V58.9375H16.6562H15.375V60.2188ZM43.5625 70.4688V74.3125H23.0625H2.5625V70.4688V66.625H23.0625H43.5625V70.4688ZM5.125 70.4688V71.75H6.40625H7.6875V70.4688V69.1875H6.40625H5.125V70.4688ZM10.25 70.4688V71.75H11.5312H12.8125V70.4688V69.1875H11.5312H10.25V70.4688ZM15.375 70.4688V71.75H16.6562H17.9375V70.4688V69.1875H16.6562H15.375V70.4688ZM20.5 70.4688V71.75H21.7812H23.0625V70.4688V69.1875H21.7812H20.5V70.4688ZM25.625 70.4688V71.75H33.3125H41V70.4688V69.1875H33.3125H25.625V70.4688ZM2.5625 80.7188V82H6.40625H10.25V80.7188V79.4375H6.40625H2.5625V80.7188ZM35.875 80.7188V82H39.7188H43.5625V80.7188V79.4375H39.7188H35.875V80.7188Z" fill="#E49B00"/>
</svg>
