<svg width="89" height="76" viewBox="0 0 89 76" fill="none" xmlns="http://www.w3.org/2000/svg">
<path fill-rule="evenodd" clip-rule="evenodd" d="M6.65231 0.259344C3.3752 1.13583 0.780539 3.85699 0.173906 7.05352C0.0596734 7.65597 -0.00170275 16.6894 3.59504e-05 32.6955C0.00281787 59.9323 -0.0514297 58.5355 1.08846 60.6699C1.80463 62.0109 3.27314 63.4693 4.62342 64.1805C6.62883 65.237 6.89155 65.2587 17.6887 65.2615C25.0107 65.2634 27.4689 65.3147 27.4689 65.465C27.4689 65.5756 26.9603 67.553 26.3387 69.8594C25.7172 72.1656 25.2086 74.1695 25.2086 74.3125C25.2086 74.8163 25.6297 75.4806 26.1032 75.7237C26.8235 76.0936 55.2427 76.0914 55.9633 75.7213C56.3851 75.5046 56.5588 75.5051 57.3156 75.7255C58.0507 75.9396 60.1834 75.971 71.2108 75.9309L84.2375 75.8835L85.2348 75.4193C86.5089 74.8262 87.867 73.4774 88.4644 72.2119L88.932 71.2213L88.9788 49.4254C89.0254 27.6451 89.0252 27.6287 88.6585 26.5478C87.814 24.0582 85.8129 22.4686 83.1508 22.1721L82.0641 22.0512L82.0615 14.9507C82.0587 7.09824 81.9979 6.51685 80.9785 4.5855C80.2832 3.26835 78.6131 1.6074 77.3651 0.991996C75.2124 -0.0695987 77.5066 -0.00743633 40.9508 0.00499614C12.8195 0.0144932 7.41768 0.0545533 6.65231 0.259344ZM75.5292 3.9511C76.5823 4.46583 77.5668 5.45128 78.0978 6.52185C78.4961 7.32496 78.5003 7.39903 78.5502 14.7088L78.6008 22.0854L68.2049 22.1747C62.4874 22.2239 54.1055 22.3234 49.5786 22.3957L41.3481 22.5275L40.9285 23.012C40.313 23.723 40.3506 24.7275 41.0174 25.3899L41.5256 25.8946H47.356H53.1862L52.9332 26.607C52.7771 27.0461 52.6801 27.9734 52.6801 29.0245V30.7294H32.0982C20.7782 30.7294 11.2729 30.7778 10.9754 30.8368C9.59436 31.1112 9.0578 32.7768 10.0473 33.7182L10.5341 34.1815L31.5637 34.2254L52.5931 34.2692L52.6413 36.7298L52.6896 39.1904H31.6333H10.5767L10.0685 39.6951C9.52586 40.2341 9.38485 41.1321 9.73937 41.79C10.2179 42.6781 9.33617 42.6439 31.807 42.6439H52.6801V45.3203V47.9967H28.0774H3.47483L3.47587 28.0098C3.47639 14.1889 3.53499 7.80982 3.66539 7.33221C4.09798 5.74759 5.46251 4.30128 7.0849 3.7078C7.62946 3.50853 13.1568 3.47521 41.2046 3.50163L74.6746 3.5334L75.5292 3.9511ZM23.6438 12.5516C22.5656 12.8508 22.6499 12.6873 20.0121 19.6008C18.4383 23.7261 18.2632 24.4034 18.6067 25.0407C18.8324 25.4596 19.6654 25.8946 20.242 25.8946C21.231 25.8946 21.6064 25.2313 23.6137 19.9374C24.6581 17.1832 25.5649 14.7608 25.629 14.5539C25.7526 14.1552 25.3779 13.0684 25.0467 12.8652C24.7007 12.6528 23.9134 12.4768 23.6438 12.5516ZM13.3764 12.9061C12.5661 13.3079 9.56028 18.1854 9.56028 19.0983C9.56028 19.9127 12.5733 25.1269 13.2463 25.4774C14.4368 26.0973 15.8219 25.2806 15.8187 23.9606C15.8182 23.7422 15.2411 22.5608 14.5363 21.3353L13.255 19.1071L14.5373 16.9941C15.9886 14.6026 16.0971 14.1055 15.3415 13.3088C14.7209 12.6547 14.1284 12.5331 13.3764 12.9061ZM29.2446 12.859C28.5925 13.1402 28.078 14.1219 28.2658 14.7266C28.3299 14.9335 28.9275 16.0109 29.5936 17.1211L30.8048 19.1398L29.5376 21.3258C28.055 23.8831 27.9549 24.4512 28.8465 25.2424C29.5294 25.8483 30.3958 25.8847 31.0169 25.3334C31.5938 24.8211 34.435 19.9185 34.5421 19.2501C34.6656 18.4802 31.5036 13.2549 30.6791 12.8664C29.9989 12.5457 29.9707 12.5456 29.2446 12.859ZM83.4627 25.7212C84.1619 25.9141 85.0825 26.78 85.357 27.503C85.4584 27.7703 85.5415 28.3338 85.5415 28.7549V29.5207H70.8495H56.1575V28.6403C56.1575 27.1729 56.9034 26.1104 58.2076 25.7198C58.8989 25.513 82.7125 25.5142 83.4627 25.7212ZM85.5415 48.6011V64.228H70.8495H56.1575V48.6011V32.9742H70.8495H85.5415V48.6011ZM71.3029 43.2914C70.9123 43.6563 70.4259 44.7455 69.2017 47.9967C68.3256 50.3235 67.5729 52.3362 67.5291 52.4695C67.3933 52.8829 67.8038 53.826 68.244 54.1125C68.8556 54.5103 69.7894 54.4585 70.323 53.9971C70.8704 53.524 74.0661 45.3447 74.0661 44.4174C74.0661 43.994 73.9218 43.6827 73.5579 43.3213C72.8742 42.6423 72.0101 42.6308 71.3029 43.2914ZM63.2462 43.3287C62.6611 43.7858 60.1565 47.9948 60.1565 48.521C60.1565 48.751 60.7932 50.0443 61.5713 51.3949C62.7249 53.3974 63.0954 53.9022 63.5774 54.1294C64.703 54.6599 65.9637 53.8419 65.9637 52.5812C65.9637 52.2227 65.6174 51.4428 64.9727 50.3491C64.4276 49.4244 63.9816 48.6249 63.9816 48.5723C63.9816 48.5194 64.3753 47.8291 64.8564 47.0381C65.9495 45.2411 66.1338 44.7375 65.9116 44.1572C65.4823 43.0358 64.151 42.6219 63.2462 43.3287ZM76.2433 43.3777C75.9729 43.611 75.7518 44.0244 75.6895 44.412C75.5984 44.9807 75.7064 45.2583 76.5936 46.7348C77.1479 47.6573 77.6014 48.4959 77.6014 48.5987C77.6014 48.7012 77.1872 49.4819 76.6807 50.3332C75.5165 52.2908 75.4075 52.9231 76.1011 53.6941C76.5236 54.1636 76.7348 54.2601 77.3413 54.2601C77.8036 54.2601 78.2005 54.1448 78.4212 53.9465C79.0391 53.3911 81.4043 49.1613 81.4208 48.5819C81.4384 47.9674 78.968 43.6711 78.3499 43.2412C77.7975 42.857 76.7696 42.9236 76.2433 43.3777ZM52.6801 56.6304V61.8106H50.5095C48.3603 61.8106 48.3331 61.8156 47.775 62.311C47.3083 62.7251 47.211 62.9364 47.211 63.5373C47.211 64.1382 47.3083 64.3496 47.775 64.7636C48.2883 65.2193 48.4528 65.2641 49.6135 65.2641H50.8882L51.845 68.847L52.8016 72.43L46.9161 72.4754C43.6792 72.5005 38.3824 72.5005 35.1454 72.4754L29.2599 72.43L30.2166 68.847L31.1734 65.2641H32.448C33.6088 65.2641 33.7733 65.2193 34.2865 64.7636C35.0476 64.0885 35.0837 63.0784 34.3724 62.3718L33.8944 61.8969L20.6407 61.8106L7.38691 61.7243L6.60449 61.3174C5.53815 60.763 4.57977 59.8233 4.0253 58.7888C3.57933 57.9567 3.56055 57.8084 3.50508 54.6878L3.44771 51.4502H28.0639H52.6801V56.6304ZM38.6534 54.5058C37.4313 54.7422 36.9537 56.4291 37.8467 57.3548L38.3139 57.8391H40.9897H43.6656L44.1738 57.3344C45.1628 56.3522 44.6575 54.7693 43.2669 54.4931C42.682 54.3768 39.271 54.3863 38.6534 54.5058ZM39.9509 62.311C39.4842 62.7251 39.3868 62.9364 39.3868 63.5373C39.3868 65.263 41.7329 65.8905 42.5217 64.3757C43.0153 63.4275 42.771 62.5168 41.9036 62.0713C41.1474 61.6832 40.5799 61.7528 39.9509 62.311ZM85.5415 68.9494C85.5415 70.5368 85.066 71.5502 84.0506 72.1268L83.3681 72.5143L70.6621 72.4721L57.9558 72.43L57.2991 71.9324C56.4339 71.2771 56.1575 70.5624 56.1575 68.9821V67.6815H70.8495H85.5415V68.9494Z" fill="#E49B00"/>
</svg>
