<svg width="73" height="78" viewBox="0 0 73 78" fill="none" xmlns="http://www.w3.org/2000/svg">
<path fill-rule="evenodd" clip-rule="evenodd" d="M15.0545 0.342889C14.813 0.589769 14.6385 1.10334 14.4318 2.17605C14.2526 3.10536 14.0821 3.64209 13.9789 3.60171C13.8879 3.5662 13.2861 3.18704 12.6419 2.75911C11.9976 2.33119 11.3006 1.98114 11.0928 1.98114C10.8141 1.98114 10.2898 2.40769 9.08991 3.61055C7.20982 5.49537 7.14496 5.68632 7.9603 6.93596C8.23293 7.35398 8.60352 7.94375 8.78373 8.24656L9.11133 8.79716L7.57637 9.12923C6.73213 9.3118 5.9451 9.55884 5.82751 9.67801C5.70992 9.79718 5.57511 10.1876 5.52792 10.5457L5.44224 11.1971L4.64607 11.3135C2.84433 11.5772 1.09323 12.9912 0.397276 14.7447L0.0496003 15.6205L0.00750775 33.7403C-0.0178077 44.6355 0.0221878 52.2775 0.108021 52.9072C0.374806 54.8656 1.39866 56.3344 3.08685 57.1807L4.08614 57.6816L6.88387 57.7314L9.6816 57.7811L9.85536 58.4934C10.508 61.1685 12.546 63.4502 15.0781 64.3403C16.3487 64.787 18.9728 64.8249 20.0332 64.4121C20.3962 64.2707 20.7271 64.1896 20.7684 64.2317C20.8098 64.2737 20.2515 66.6688 19.5278 69.5539C18.057 75.417 18.033 75.6758 18.8684 76.7067C20.2336 78.3919 23.0718 78.3828 24.1559 76.6898C24.4183 76.2799 25.1537 73.5925 26.7921 67.0539C28.0417 62.0667 29.0954 57.935 29.1334 57.8721C29.1713 57.8093 30.0073 57.7578 30.9912 57.7578H32.7799V66.6555V75.5533L33.1969 76.3654C33.5364 77.0263 33.7666 77.2595 34.4328 77.6165C35.1366 77.9937 35.366 78.0437 36.0672 77.9725C37.0924 77.8686 37.9443 77.2871 38.4232 76.3642L38.7717 75.6924V66.7252V57.7578H40.6442C41.674 57.7578 42.5166 57.7948 42.5166 57.8401C42.5166 58.3201 47.1251 76.1202 47.3621 76.5554C48.7367 79.0803 53.2979 77.9933 53.3011 75.1398C53.3017 74.6427 49.7727 60.0285 49.1693 58.029C49.0952 57.7832 49.668 57.7642 58.2739 57.7242L67.4576 57.6816L68.3914 57.2427C69.5207 56.7122 70.5384 55.6587 71.1006 54.4383L71.502 53.5669L71.5435 40.4486L71.5849 27.3301L71.2705 26.9235C70.8774 26.4151 70.0778 26.3656 69.6296 26.8216C69.3348 27.1215 69.33 27.3295 69.33 39.8718C69.33 48.9809 69.2812 52.7828 69.1591 53.1978C68.9245 53.9941 68.1995 54.8455 67.4682 55.1834C66.8846 55.4531 65.9728 55.4653 46.2299 55.4685L25.6013 55.4718L25.4387 54.8242C25.0187 53.1512 24.2531 51.8354 23.0279 50.6815C22.0701 49.7793 21.2566 49.298 19.8975 48.8292C18.7748 48.442 16.5361 48.4402 15.4036 48.8254C12.7082 49.7425 10.615 51.9085 9.92756 54.4926L9.66198 55.4906L7.01629 55.443C4.42213 55.3966 4.35847 55.3876 3.75374 54.9799C3.41446 54.7513 2.94784 54.237 2.71671 53.8369L2.29653 53.1097V36.1177V19.1256L4.84306 19.0843L7.38958 19.043L7.58177 19.4859C7.68737 19.7294 8.40909 20.5537 9.18533 21.3178C10.9472 23.0518 11.0564 23.0679 12.8343 21.857C13.5207 21.3894 14.1004 21.0295 14.1224 21.0569C14.1446 21.0843 14.2821 21.7431 14.4282 22.521C14.5816 23.3387 14.8163 24.0941 14.9847 24.3116C15.2721 24.6834 15.3042 24.688 17.6383 24.688C19.7416 24.688 20.0283 24.6572 20.2501 24.4078C20.3872 24.2537 20.6358 23.4821 20.8026 22.6933C20.9693 21.9045 21.1203 21.2107 21.1383 21.1512C21.1561 21.0919 21.7437 21.4164 22.444 21.8721C24.2661 23.0578 24.2802 23.055 26.2289 21.0662C27.1131 20.1637 27.8367 19.3408 27.8367 19.2375C27.8367 19.0895 31.1543 19.0494 43.3772 19.0494H58.9176L53.6783 24.3812L48.4391 29.7129L45.5154 26.7556C41.4913 22.6851 41.5991 22.6971 38.3598 25.9559C36.4725 27.8545 36.2252 28.1616 36.2252 28.6053C36.2252 29.2574 36.675 29.7171 37.3135 29.7171C37.7401 29.7171 38.0415 29.4734 39.671 27.8117L41.5394 25.9063L44.3873 28.7861C45.9537 30.3699 47.3824 31.7416 47.5623 31.8344C47.9824 32.0508 48.8841 32.051 49.3048 31.8347C49.4847 31.7422 53.2213 28.0221 57.6085 23.5678C66.1377 14.9082 65.9548 15.1284 65.2989 14.304C65.0409 13.9797 64.8721 13.939 63.5867 13.8917C62.4128 13.8486 62.1148 13.7876 61.9006 13.5469C61.5218 13.1209 61.5661 12.3579 61.9902 12.0084C62.3164 11.7396 62.6019 11.7235 66.2791 11.7655C69.824 11.8061 70.2454 11.8379 70.4858 12.0825C70.7246 12.3254 70.7583 12.7466 70.8018 16.0448C70.8569 20.2169 70.7808 20.7347 70.0688 21.0348C69.6656 21.2047 69.5622 21.1913 69.2081 20.9231C68.8322 20.6383 68.8 20.52 68.7188 19.1247C68.6425 17.8121 68.5905 17.5969 68.2903 17.3497C68.1024 17.1949 67.7383 17.0683 67.4812 17.0683C67.0629 17.0683 66.0399 18.0585 57.7221 26.5168L48.4304 35.9651L45.5859 33.0658C42.544 29.9653 42.1997 29.7267 41.0705 29.9377C40.5643 30.0322 39.8843 30.6636 35.469 35.1388C32.1163 38.5369 30.3406 40.2323 30.1341 40.2323C29.6053 40.2323 29.035 39.6579 29.035 39.1255C29.035 38.7131 29.3995 38.2772 31.7965 35.822C33.5142 34.0626 34.5957 32.8366 34.6579 32.5783C34.7389 32.2416 34.6693 32.0729 34.2894 31.6865C33.9104 31.3009 33.7431 31.2291 33.4128 31.3104C32.8497 31.4487 27.4464 36.9118 27.0754 37.7178C26.3967 39.1916 26.9737 41.1132 28.3559 41.9826C29.284 42.5663 30.5637 42.615 31.5067 42.1027C31.8368 41.9232 34.2227 39.6183 36.8215 36.9682L41.5373 32.1593L44.4611 35.1179C46.3401 37.0192 47.5354 38.1145 47.8059 38.1826C48.0375 38.2411 48.5042 38.251 48.8432 38.2047C49.4249 38.1253 49.9384 37.6337 57.9595 29.4743L66.4593 20.828L66.6795 21.3644C67.2637 22.7869 68.9374 23.6682 70.384 23.3151C71.3958 23.0682 72.2148 22.4245 72.643 21.5395C72.9943 20.8138 73 20.7306 73 16.3825C73 12.36 72.9748 11.9152 72.7203 11.4296C72.3274 10.6803 71.8968 10.2329 71.2025 9.85281C70.6278 9.53811 70.4223 9.5247 66.1843 9.5247C61.8898 9.5247 61.7477 9.5343 61.1355 9.86728C60.789 10.0556 60.3171 10.4499 60.0869 10.7436L59.6682 11.2772H44.7261H29.784V10.7338C29.784 9.68349 29.5303 9.50016 27.4622 9.05624C26.8031 8.91481 26.2434 8.78147 26.2186 8.76013C26.1937 8.7388 26.5475 8.13729 27.005 7.42332C27.5116 6.63254 27.8367 5.95865 27.8367 5.69912C27.8367 5.09335 24.794 1.98114 24.2019 1.98114C23.9725 1.98114 23.2589 2.33805 22.5255 2.81931C21.8231 3.28031 21.2238 3.65748 21.1938 3.65748C21.1637 3.65748 21.024 3.09179 20.8832 2.40022C20.5623 0.82461 20.3773 0.332069 20.0367 0.146604C19.8885 0.0659871 18.7824 0 17.5787 0C15.5082 0 15.3719 0.0185922 15.0545 0.342889ZM18.6013 2.55262C18.641 2.69922 18.7854 3.3533 18.9225 4.00586C19.153 5.10524 19.2144 5.22152 19.7564 5.58635C20.0782 5.80306 20.6312 6.01351 20.9856 6.05405C21.5634 6.12034 21.7524 6.04796 22.8221 5.35075L24.0145 4.57353L24.6646 5.23477L25.3146 5.89602L24.5395 7.1007C23.8439 8.1821 23.7717 8.37229 23.8352 8.95596C23.874 9.31378 24.0799 9.87429 24.293 10.2016C24.6516 10.753 24.7659 10.8155 25.8465 11.05C27.7122 11.4552 27.5567 11.3292 27.5065 12.3945L27.4622 13.3344L26.1927 13.6069C24.8195 13.9016 24.3464 14.2113 23.9976 15.0441C23.637 15.905 23.7493 16.4471 24.5433 17.6778L25.2806 18.8208L24.6297 19.4859L23.9787 20.1509L22.7845 19.3716C21.4798 18.5201 21.1699 18.4593 20.272 18.8789C19.4276 19.2733 19.1598 19.6421 18.9139 20.7488C18.7956 21.2809 18.6632 21.8739 18.6194 22.0664C18.5457 22.3917 18.4744 22.4132 17.6086 22.3712L16.677 22.3259L16.4134 21.0305C16.1161 19.5695 15.7196 19.0428 14.7 18.7548C13.8291 18.5089 13.7283 18.5366 12.4786 19.3665L11.3126 20.141L10.6496 19.4665L9.98658 18.792L10.7478 17.6058C11.5794 16.3099 11.6474 15.9418 11.2272 15.0109C10.8229 14.1151 10.5092 13.9074 9.10609 13.6063L7.83897 13.3344L7.79448 12.3867C7.74474 11.328 7.60573 11.4542 9.18713 11.1224C10.4718 10.853 10.7222 10.6901 11.1289 9.85951C11.338 9.43296 11.509 8.91558 11.509 8.70999C11.509 8.50426 11.1643 7.78922 10.7429 7.12097L9.97685 5.90608L10.6312 5.24026L11.2855 4.5746L12.4083 5.33475C13.6928 6.20446 14.1851 6.28051 15.2231 5.76922C15.9625 5.40515 16.1658 5.04108 16.4449 3.58129C16.7045 2.22329 16.6469 2.28593 17.6357 2.28593C18.3593 2.28593 18.5429 2.33668 18.6013 2.55262ZM16.8614 7.63546C15.8339 7.79684 14.9207 8.29563 14.2041 9.08641C13.2825 10.1035 12.9473 10.9709 12.9447 12.344C12.9411 14.3009 13.9392 15.8938 15.7032 16.7462C16.8893 17.3194 18.4421 17.3066 19.6328 16.7138C20.7124 16.1766 21.7391 15.0309 22.0851 13.9777C23.2306 10.491 20.4182 7.07647 16.8614 7.63546ZM19.032 10.3036C20.7762 11.4385 20.3271 14.1671 18.2942 14.7868C17.3649 15.0701 16.6477 14.8689 15.9096 14.118C15.0624 13.2561 14.9087 12.3713 15.4243 11.3251C16.1624 9.82766 17.6524 9.40583 19.032 10.3036ZM5.51714 14.1616C5.51714 14.9846 5.94136 15.2846 7.56903 15.613C8.29419 15.7595 8.93727 15.9102 8.99823 15.9483C9.05905 15.9863 9.00078 16.1853 8.86866 16.3904L8.62839 16.7635H5.44508H2.26193L2.36634 16.192C2.63387 14.727 3.8237 13.5877 5.1052 13.5691C5.48568 13.5636 5.51714 13.6089 5.51714 14.1616ZM59.4435 13.7657C59.4435 14.1961 60.3553 15.343 60.9723 15.6886C61.3261 15.8869 61.6433 16.0724 61.6771 16.1005C61.7108 16.1289 61.6161 16.2895 61.4667 16.4578C61.1973 16.7604 61.0221 16.7635 43.9199 16.7635H26.6452L26.3968 16.3778C26.2601 16.1656 26.1744 15.9696 26.2061 15.9422C26.2379 15.9148 26.9015 15.7685 27.6809 15.617C29.334 15.2958 29.784 14.9719 29.784 14.1034V13.5632H44.6138C56.8453 13.5632 59.4435 13.5987 59.4435 13.7657ZM8.97337 28.8995C8.6889 29.2672 8.66284 29.5036 8.66284 31.7116C8.66284 34.2889 8.76096 34.7562 9.36044 35.0341C9.6082 35.1489 11.621 35.2033 15.627 35.2033H21.5285L21.9488 34.8356L22.3691 34.4677V31.7741C22.3691 29.1271 22.363 29.0755 22.0155 28.7893C21.6801 28.5128 21.3433 28.4979 15.4728 28.4979H9.28374L8.97337 28.8995ZM20.1665 31.8125L20.1222 32.8412L15.516 32.8814L10.9098 32.9218V31.8527V30.7838H15.5603H20.2107L20.1665 31.8125ZM9.31655 37.3627C8.98835 37.5243 8.66284 38.0877 8.66284 38.494C8.66284 38.6195 8.82837 38.8905 9.03059 39.0962L9.39819 39.4703H13.7491C17.9003 39.4703 18.1137 39.4563 18.3995 39.1656C18.8456 38.7117 18.7991 37.8961 18.3044 37.5003C17.926 37.1974 17.7392 37.1849 13.7731 37.1948C11.2519 37.201 9.51158 37.2666 9.31655 37.3627ZM50.2243 43.1972C50.0221 43.4029 49.8566 43.7488 49.8566 43.966C49.8566 44.1832 50.0221 44.5291 50.2243 44.7348L50.5919 45.109H57.3134H64.0349L64.3607 44.7563C64.8215 44.2572 64.7909 43.5384 64.2916 43.139C63.9058 42.8301 63.7477 42.823 57.2445 42.823H50.5919L50.2243 43.1972ZM41.5362 48.2262C41.334 48.4319 41.1685 48.7779 41.1685 48.995C41.1685 49.2122 41.334 49.5582 41.5362 49.7639L41.9038 50.138H52.9004C63.7985 50.138 63.9005 50.1351 64.2916 49.8221C64.8375 49.3853 64.8375 48.6048 64.2916 48.168C63.9005 47.855 63.7985 47.8521 52.9004 47.8521H41.9038L41.5362 48.2262ZM18.8176 50.9059C20.5451 51.3113 22.0072 52.4793 22.7764 54.0686C23.2328 55.0112 23.2679 55.1928 23.2679 56.6112C23.2679 57.972 23.2209 58.2422 22.8374 59.087C22.3091 60.2506 21.1386 61.4224 19.9354 61.9922C19.1933 62.3436 18.8759 62.4006 17.6506 62.4031C16.4146 62.4055 16.1141 62.3517 15.3657 61.995C14.2599 61.4677 12.9611 60.2162 12.488 59.2221C11.7678 57.7085 11.7351 55.6876 12.4062 54.1443C12.7521 53.349 13.916 52.0628 14.7281 51.5786C15.9246 50.8652 17.5235 50.6022 18.8176 50.9059ZM16.9053 54.2489C16.482 54.6795 16.4188 55.0849 16.4762 56.9985C16.5232 58.5706 16.5539 58.7217 16.8808 58.9906C17.3393 59.3681 18.0212 59.3619 18.3995 58.9769C18.6693 58.7025 18.6991 58.469 18.6991 56.6259C18.6991 54.5968 18.6958 54.577 18.3044 54.2638C17.8077 53.8662 17.2869 53.8607 16.9053 54.2489ZM26.7327 58.0245C26.6912 58.1711 25.7037 62.0972 24.5386 66.7491C23.3584 71.4611 22.3157 75.3251 22.1841 75.4737C21.8762 75.8218 21.2181 75.8137 20.7846 75.4566L20.4402 75.1729L22.0984 68.5608C23.5652 62.7118 23.8178 61.8546 24.2859 61.1338C24.7888 60.3595 25.3125 59.0906 25.5064 58.1769C25.5857 57.8036 25.6618 57.7578 26.2018 57.7578C26.7084 57.7578 26.7959 57.8017 26.7327 58.0245ZM36.4885 66.6311L36.4499 75.5045L36.0425 75.6502C35.7197 75.7657 35.572 75.7378 35.3309 75.5159C35.0321 75.2409 35.0268 75.0859 35.0268 66.4969V57.7578H35.777H36.5272L36.4885 66.6311ZM48.9238 66.2538C50.0964 70.9267 51.0557 74.8474 51.0554 74.9664C51.0539 75.7066 49.7498 76.0359 49.3483 75.3975C49.2297 75.2088 48.1811 71.2486 47.0181 66.5967C45.8551 61.9448 44.8743 58.0531 44.8383 57.9483C44.7902 57.8082 45.0399 57.7578 45.7823 57.7578H46.7916L48.9238 66.2538Z" fill="#E49B00"/>
</svg>
