<svg width="90" height="76" viewBox="0 0 90 76" fill="none" xmlns="http://www.w3.org/2000/svg">
<path fill-rule="evenodd" clip-rule="evenodd" d="M4.17178 0.139754C2.51465 0.53097 0.797247 2.18633 0.296997 3.87444C-0.0980017 5.20672 -0.0994075 59.4703 0.29524 60.7845C0.7115 62.1703 1.7004 63.3153 3.09819 64.0297L4.30357 64.6459L18.2466 64.6951C30.9133 64.7396 32.1896 64.7701 32.1896 65.0269C32.1896 65.4058 31.3223 72.4622 31.2141 72.965C31.1306 73.3525 31.0758 73.3611 28.7111 73.3611C26.0812 73.3611 25.6513 73.4881 25.4411 74.3269C25.3127 74.8397 25.7064 75.7278 26.1355 75.8928C26.5073 76.0357 63.5258 76.0357 63.8976 75.8928C64.3267 75.7278 64.7205 74.8397 64.592 74.3269C64.3819 73.4881 63.9519 73.3611 61.322 73.3611C58.9573 73.3611 58.9025 73.3525 58.819 72.965C58.7108 72.4622 57.8435 65.4058 57.8435 65.0269C57.8435 64.7701 59.1199 64.7396 71.7865 64.6951L85.7296 64.6459L86.9349 64.0297C87.8023 63.5864 88.3215 63.1732 88.7859 62.5568C90.0893 60.8268 89.9986 63.0832 89.9986 32.3499C89.9986 7.99294 89.9668 4.65264 89.7275 3.84486C89.3461 2.558 88.1971 1.2104 86.926 0.558963L85.8944 0.0302416L45.3805 0.00295184C20.8619 -0.0135982 4.59226 0.0404537 4.17178 0.139754ZM85.7979 2.98707C86.3481 3.27406 86.6867 3.61597 86.9676 4.16882L87.363 4.94667V32.3198C87.363 59.6457 87.3623 59.6943 86.9991 60.4463C86.7854 60.8884 86.3683 61.3657 85.9887 61.6021L85.3423 62.005H45.0166H4.69083L4.04439 61.6021C3.66485 61.3657 3.24772 60.8884 3.03405 60.4463C2.67086 59.6943 2.67015 59.6457 2.67015 32.3198V4.94667L3.0655 4.16882C3.34647 3.61597 3.68506 3.27406 4.23521 2.98707L5.00975 2.58318H45.0166H85.0234L85.7979 2.98707ZM6.08862 6.00852L5.65724 6.44058V32.3302C5.65724 57.8736 5.66181 58.2242 6.00427 58.5673C6.49012 59.0541 6.99388 59.1443 8.83024 59.0737C10.2632 59.0184 10.4682 58.9679 10.7685 58.5962C11.2232 58.0333 11.1939 57.309 10.6977 56.8417C10.3786 56.5413 10.0759 56.4589 9.29201 56.4589H8.29291V32.3381V8.21725H41.686H75.0792L75.5301 7.76546C75.8938 7.40101 75.9602 7.20523 75.873 6.75309C75.8137 6.4448 75.5982 6.05394 75.3946 5.88439C75.0447 5.59335 73.1349 5.57628 40.7721 5.57628H6.51981L6.08862 6.00852ZM79.3602 6.00852C78.8067 6.56294 78.7963 7.32689 79.3354 7.83448C79.6545 8.13485 79.9573 8.21725 80.7411 8.21725H81.7402V32.3381V56.4589H48.28H14.8197L14.4556 56.9229C14.2553 57.178 14.0914 57.4912 14.0914 57.6189C14.0914 58.0844 14.492 58.7136 14.9097 58.9045C15.2187 59.0455 24.7709 59.0999 49.2507 59.0999C85.459 59.0999 83.9471 59.1344 84.2668 58.2997C84.3267 58.143 84.3759 46.4106 84.3759 32.2277V6.44058L83.9445 6.00852C83.5409 5.60392 83.3938 5.57628 81.6524 5.57628C79.9109 5.57628 79.7638 5.60392 79.3602 6.00852ZM24.6905 14.2367C24.48 14.3387 24.2194 14.6357 24.1115 14.8966C23.7578 15.7521 24.1096 16.1931 26.3402 17.6906L28.4129 19.082L30.8527 27.6907C32.1946 32.4256 33.4388 36.5601 33.6176 36.8786L33.9429 37.4575L32.9492 39.4316C31.7671 41.7797 31.6609 42.6143 32.4016 43.7358C32.8457 44.408 32.8508 44.4487 32.6087 45.3803C32.416 46.1222 32.4024 46.5386 32.5484 47.2467C33.329 51.0321 38.3167 51.7719 40.1596 48.3756C40.6046 47.5555 40.654 47.3113 40.593 46.2324L40.5245 45.0147H46.4249H52.3253L52.2525 46.1595C52.1907 47.1323 52.2501 47.4481 52.6481 48.2633C54.2992 51.645 59.171 51.1786 60.2337 47.537C60.502 46.618 60.5071 46.4102 60.2825 45.5406C60.0791 44.7529 60.0733 44.4874 60.2516 44.1321C60.4939 43.6495 60.405 43.1534 59.9919 42.6819C59.7394 42.3938 58.905 42.3738 47.1857 42.3738C38.7818 42.3738 34.6496 42.3146 34.6496 42.1942C34.6496 42.0954 34.9977 41.32 35.4231 40.4712L36.1967 38.928L36.8727 38.9858C37.9408 39.0773 56.5796 36.7968 57.5799 36.4522C58.7886 36.0358 60.3205 34.4958 60.7107 33.3047C60.8689 32.8216 61.5134 29.8163 62.1428 26.6266C63.2046 21.2458 63.2677 20.7972 63.0161 20.4124C62.8669 20.1842 62.5712 19.9259 62.3587 19.8384C62.1465 19.7509 55.4494 19.3965 47.4765 19.0509C31.4109 18.3545 30.7866 18.316 30.7782 18.0188C30.7748 17.9056 30.6339 17.6469 30.4645 17.4441C30.0356 16.9298 25.6613 14.0247 25.338 14.0394C25.1925 14.0459 24.9011 14.1346 24.6905 14.2367ZM36.8892 21.3187C36.9767 21.4064 37.7978 26.095 37.8092 26.572C37.811 26.6445 36.8 26.704 35.5624 26.704H33.3124L32.5052 23.8618L31.6978 21.0196L34.2395 21.1149C35.6373 21.1673 36.8297 21.2591 36.8892 21.3187ZM43.7427 21.5372L45.1923 21.6503V24.1771V26.704H42.8564H40.5205L40.1307 24.2831C39.9164 22.9517 39.7419 21.7633 39.7431 21.6422C39.7456 21.3923 41.3458 21.3503 43.7427 21.5372ZM52.8628 22.0068C52.896 22.0401 52.8306 23.1105 52.7175 24.3856L52.5117 26.704H50.1698H47.8279V24.2117V21.7195L50.3151 21.8328C51.683 21.8952 52.8296 21.9735 52.8628 22.0068ZM60.2419 22.3582C60.2966 22.413 59.8216 24.9782 59.5108 26.3079C59.421 26.6917 59.3525 26.704 57.2903 26.704H55.1625L55.2809 25.2515C55.3459 24.4527 55.447 23.4109 55.5053 22.9368L55.6114 22.0744L57.8943 22.1839C59.1499 22.2441 60.2064 22.3225 60.2419 22.3582ZM38.2336 29.4917C38.345 29.6725 39.4268 36.0631 39.3566 36.1265C39.3288 36.1515 38.7451 36.2274 38.0595 36.295C36.1936 36.4788 36.0744 36.3351 34.9959 32.6022C34.5203 30.956 34.1291 29.5496 34.1269 29.477C34.1209 29.2952 38.1211 29.3093 38.2336 29.4917ZM45.1044 32.4261V35.4192L43.6168 35.6307C42.7986 35.7469 42.1033 35.8159 42.0715 35.784C42.0163 35.7289 40.9815 29.7586 40.9773 29.4714C40.9761 29.3957 41.9042 29.3561 43.0398 29.3834L45.1044 29.433V32.4261ZM52.1592 30.4454C52.0986 31.0507 51.997 32.2374 51.9336 33.0827C51.8043 34.803 51.895 34.7088 50.2 34.8817C49.6202 34.9409 48.8494 35.0336 48.4869 35.0877L47.8279 35.1861V32.2656V29.345H50.0486H52.2692L52.1592 30.4454ZM58.8415 29.7411C58.7897 29.9591 58.6512 30.6375 58.5339 31.249C58.1643 33.174 57.2775 34.0373 55.4786 34.2234C54.5935 34.3149 54.505 34.2926 54.505 33.978C54.505 33.4146 54.8668 29.8043 54.9471 29.5651C55.0003 29.4066 55.5691 29.345 56.9785 29.345C58.9192 29.345 58.935 29.3483 58.8415 29.7411ZM37.5815 45.3975C38.3673 46.1373 37.9916 47.4988 36.8948 47.8862C36.3398 48.0821 35.5065 47.6469 35.2474 47.0256C34.6419 45.573 36.4375 44.3207 37.5815 45.3975ZM57.1853 45.2604C57.721 45.6679 57.9067 46.4942 57.5973 47.0937C57.309 47.6527 56.4534 48.064 55.9497 47.8862C54.3365 47.3164 54.5777 45.0054 56.2487 45.0204C56.5944 45.0234 57.0157 45.1315 57.1853 45.2604ZM40.1012 65.9664C40.6349 68.0716 41.3337 69.024 42.9755 69.883C44.0198 70.4295 46.0336 70.4161 47.1251 69.8552C48.6819 69.0553 49.4018 68.0579 49.9319 65.9664L50.222 64.822L52.6762 64.7734L55.1305 64.7248L55.6604 69.043L56.1902 73.3611H45.0166H33.8429L34.3727 69.043L34.9026 64.7248L37.357 64.7734L39.8111 64.822L40.1012 65.9664ZM47.4069 65.3025C47.1277 66.7013 46.1165 67.7271 45.0166 67.7271C43.9166 67.7271 42.9054 66.7013 42.6262 65.3025L42.5127 64.734H45.0166H47.5204L47.4069 65.3025Z" fill="#E49B00"/>
</svg>
