<svg width="52" height="71" viewBox="0 0 52 71" fill="none" xmlns="http://www.w3.org/2000/svg">
<path fill-rule="evenodd" clip-rule="evenodd" d="M32.3189 0.20866C32.1958 0.35873 32.1747 0.732936 32.2423 1.56096C32.4877 4.56154 31.4361 8.03439 29.7214 9.88698C29.2819 10.3619 28.0746 11.3745 27.0385 12.1373C22.5596 15.4354 21.7513 16.0845 20.3129 17.5377C18.7732 19.0936 17.7654 20.4495 16.983 22.0186C15.345 25.3027 16.0867 29.0969 19.2046 33.3825C20.0641 34.5639 23.8203 38.375 24.3113 38.5639C24.7482 38.7319 25.0531 38.5358 25.0531 38.0868C25.0531 37.9221 24.705 37.009 24.2798 36.0581C22.6718 32.4626 21.4896 28.0841 21.4892 25.7222C21.4888 23.6763 22.1415 22.8512 26.9998 18.7557C31.2399 15.1813 33.0508 13.2086 34.0934 11.0278C35.4477 8.19542 35.3764 4.76474 33.8978 1.612C33.1903 0.103804 32.7362 -0.299944 32.3189 0.20866ZM37.1827 15.439C31.4197 17.9952 27.3156 21.0452 25.9344 23.7983C25.4677 24.7284 25.3892 25.0199 25.346 25.9806C25.2535 28.0429 25.8047 30.2716 26.8291 31.9778C27.1078 32.4418 27.777 33.3993 28.3166 34.1055C29.544 35.7125 29.6797 36.156 29.3906 37.6148C29.2734 38.206 29.0164 39.0972 28.8192 39.5956C28.3669 40.7397 28.4017 41.1106 28.9669 41.1666C29.3252 41.202 29.5547 41.0475 30.568 40.0882C33.1322 37.6608 34.2638 35.2051 33.8348 32.9986C33.571 31.6424 33.2135 30.8142 32.1552 29.1077C31.6182 28.2415 31.0569 27.2558 30.9082 26.9172C30.5844 26.1803 30.5692 25.1414 30.8698 24.2914C31.3986 22.7958 33.533 20.5198 37.433 17.2927C38.6159 16.3139 39.5837 15.4289 39.5837 15.3261C39.5837 15.0944 39.2092 14.7023 38.9913 14.7059C38.9024 14.7074 38.0885 15.0374 37.1827 15.439ZM44.9984 37.5312C43.8217 37.8154 43.3591 37.9559 42.4274 38.3121C41.3033 38.7419 40.9809 39.0619 41.2189 39.5117C41.3205 39.7038 41.5779 39.7942 42.2175 39.8626C43.7382 40.025 44.5641 40.2373 45.5853 40.7289C47.1433 41.4785 47.7729 42.5877 47.413 43.9489C47.0133 45.4611 44.4714 48.283 41.6056 50.396C40.179 51.4477 39.9834 51.6996 40.2556 52.1343C40.4223 52.4006 40.8526 52.373 42.1118 52.0153C45.6034 51.0234 48.6391 49.3922 50.2636 47.6352C51.7698 46.0062 52.2805 44.3131 51.8564 42.3557C51.3722 40.121 50.3799 38.682 48.7978 37.9204C48.1352 37.6014 47.8025 37.5372 46.6433 37.504C45.8894 37.4825 45.1492 37.4947 44.9984 37.5312ZM12.9899 38.5699C9.27737 38.9254 6.52533 39.8482 5.85363 40.9627C5.53985 41.4834 5.50531 42.436 5.78098 42.9698C6.5633 44.4849 9.20814 45.4916 13.9495 46.0787C15.8457 46.3135 24.4114 46.3117 26.561 46.0761C31.2419 45.563 34.8021 44.6361 37.8701 43.132C40.0189 42.0784 40.612 41.5164 40.0623 41.0548C39.8303 40.86 39.4449 40.8955 37.2533 41.3134C31.035 42.4991 17.5287 42.8055 12.4759 41.8755C12.0047 41.7888 11.6191 41.6586 11.6191 41.5862C11.6191 41.3002 14.8488 40.0612 16.417 39.7455C17.7364 39.48 18.0663 39.2244 17.7824 38.6879C17.6533 38.4438 17.4896 38.4222 15.8981 38.4394C14.9395 38.4498 13.6308 38.5085 12.9899 38.5699ZM13.4697 46.9425C11.2565 47.6604 10.3914 48.4761 10.5193 49.7244C10.6328 50.833 12.7446 51.9409 15.9372 52.567C20.8746 53.5352 26.3671 53.247 34.6487 51.5854C37.8392 50.9452 38.1443 50.8376 38.1443 50.3524C38.1443 49.9967 37.7102 49.6122 35.8738 48.3417L34.9742 47.7192L32.9951 48.1316C28.3035 49.1094 23.5478 49.4939 19.2725 49.2412C17.0061 49.1072 15.3917 48.8926 14.4636 48.6019C14.0682 48.4781 14.1901 48.1543 14.772 47.7826C15.3265 47.4285 15.4596 47.0775 15.1558 46.7701C14.9316 46.5432 14.5942 46.5776 13.4697 46.9425ZM14.772 54.316C12.8375 54.8401 12.0109 56.1569 12.7052 57.6081C13.5535 59.3811 16.7694 60.3741 22.8352 60.7363C27.3924 61.0083 31.9998 60.3643 35.8341 58.9196C36.8907 58.5214 37.0529 58.4166 37.0884 58.1084C37.1396 57.6629 37.0404 57.5794 34.8862 56.2551L33.1359 55.1792L31.4591 55.4648C30.5369 55.6218 29.1347 55.8612 28.343 55.9967C25.8481 56.4239 20.7898 56.2684 17.9631 55.6777C16.6734 55.4081 16.6526 55.3963 16.8394 55.0429C16.9216 54.8878 16.9513 54.6108 16.9058 54.4272C16.8325 54.1316 16.7487 54.0945 16.1745 54.1025C15.8178 54.1075 15.1867 54.2035 14.772 54.316ZM7.51793 59.3026C1.69624 59.8858 -0.676361 61.2248 0.164494 63.4527C1.08349 65.8874 5.78509 67.0391 16.3484 67.4174C29.3477 67.8827 41.2012 66.4558 46.4377 63.7954C48.1057 62.948 48.7345 62.0172 48.4403 60.8312C48.295 60.2454 47.5588 59.5026 47.1235 59.5026C46.6736 59.5026 46.5346 59.7693 46.6528 60.4062C46.7625 60.9981 46.4868 61.1933 44.7927 61.7226C41.3417 62.8011 35.0805 63.7229 28.6933 64.0926C25.18 64.2961 17.5301 64.1806 14.4978 63.8782C10.2091 63.4506 6.53164 62.7792 5.50887 62.237L5.12998 62.0362L5.46514 61.814C5.93711 61.5012 8.44309 60.699 9.88532 60.3991C10.8872 60.1908 11.1238 60.0913 11.242 59.8288C11.5946 59.046 10.9662 58.9572 7.51793 59.3026ZM49.9305 63.8782C47.8143 65.5068 43.6018 67.0768 39.7207 67.6836C35.9111 68.2792 26.2309 68.5158 16.5105 68.2509C9.97662 68.0728 9.91178 68.0774 10.0018 68.7125C10.0641 69.1516 10.5132 69.2942 13.2641 69.7479C22.7693 71.3156 31.9414 71.4109 40.9508 70.0354C43.1644 69.6975 43.6847 69.5859 45.204 69.1233C46.9445 68.5935 48.6643 67.6412 49.747 66.6078C51.1236 65.2939 51.7754 63.7527 51.1075 63.391C50.7607 63.2032 50.8627 63.161 49.9305 63.8782Z" fill="white"/>
</svg>
