<svg width="1634" height="96" viewBox="0 0 1634 96" fill="none" xmlns="http://www.w3.org/2000/svg">
<path d="M55.793 95L54.9604 95.5538L55.2571 96H55.793V95ZM38.9955 69.7449L39.8281 69.1911L38.9418 67.8586L38.1327 69.2393L38.9955 69.7449ZM24.1948 95V96H24.7678L25.0576 95.5056L24.1948 95ZM1.4065 95L0.560504 94.4668L-0.405792 96H1.4065V95ZM27.8362 53.0648L28.6822 53.598L29.0279 53.0495L28.6683 52.5101L27.8362 53.0648ZM0.819172 12.5392L0.819172 11.5392H-1.04935L-0.0128784 13.0939L0.819172 12.5392ZM24.1948 12.5392L25.0275 11.9854L24.7307 11.5392H24.1948V12.5392ZM40.7574 37.4419L39.9248 37.9957L40.8119 39.3295L41.6206 37.9468L40.7574 37.4419ZM55.3232 12.5392V11.5392H54.7496L54.46 12.0343L55.3232 12.5392ZM78.1115 12.5392L78.9576 13.0722L79.9233 11.5392H78.1115V12.5392ZM51.9167 54.122L51.0706 53.589L50.7251 54.1374L51.0846 54.6767L51.9167 54.122ZM79.1687 95V96H81.0372L80.0007 94.4453L79.1687 95ZM56.6257 94.4462L39.8281 69.1911L38.1628 70.2987L54.9604 95.5538L56.6257 94.4462ZM38.1327 69.2393L23.332 94.4944L25.0576 95.5056L39.8582 70.2505L38.1327 69.2393ZM24.1948 94H1.4065L1.4065 96H24.1948V94ZM2.25249 95.5332L28.6822 53.598L26.9902 52.5316L0.560504 94.4668L2.25249 95.5332ZM28.6683 52.5101L1.65122 11.9845L-0.0128784 13.0939L27.0042 53.6195L28.6683 52.5101ZM0.819172 13.5392L24.1948 13.5392V11.5392L0.819172 11.5392L0.819172 13.5392ZM23.3622 13.093L39.9248 37.9957L41.5901 36.8881L25.0275 11.9854L23.3622 13.093ZM41.6206 37.9468L56.1864 13.0441L54.46 12.0343L39.8943 36.937L41.6206 37.9468ZM55.3232 13.5392L78.1115 13.5392V11.5392L55.3232 11.5392V13.5392ZM77.2654 12.0062L51.0706 53.589L52.7628 54.655L78.9576 13.0722L77.2654 12.0062ZM51.0846 54.6767L78.3366 95.5547L80.0007 94.4453L52.7487 53.5673L51.0846 54.6767ZM79.1687 94H55.793V96H79.1687V94ZM91.3667 44.3724L90.475 43.9196L90.4695 43.9307L91.3667 44.3724ZM101.821 32.6258L102.351 33.4738L102.351 33.4738L101.821 32.6258ZM128.603 31.3337L128.124 32.2116L128.133 32.216L128.603 31.3337ZM136.708 38.734L135.857 39.2581L137.708 42.2671V38.734H136.708ZM136.708 29.4543V28.4543H135.708V29.4543H136.708ZM156.795 29.4543H157.795V28.4543H156.795V29.4543ZM156.795 95V96H157.795V95H156.795ZM136.708 95H135.708V96H136.708V95ZM136.708 85.7202H137.708V82.3072L135.867 85.1806L136.708 85.7202ZM128.486 93.1206L128.015 92.2382L128.007 92.2427L128.486 93.1206ZM101.821 91.8284L101.28 92.6697L101.291 92.6764L101.821 91.8284ZM91.3667 79.9644L90.4669 80.4007L90.4709 80.4089L90.475 80.4171L91.3667 79.9644ZM132.48 50.3631L131.753 51.0504L131.763 51.0605L132.48 50.3631ZM112.158 50.3631L111.441 49.6658L111.441 49.666L112.158 50.3631ZM112.158 74.0911L111.423 74.7686L111.432 74.7787L111.441 74.7885L112.158 74.0911ZM132.48 74.0911L131.763 73.3937L131.753 73.4039L132.48 74.0911ZM88.6078 62.1097C88.6078 55.4997 89.8371 49.7434 92.2639 44.8141L90.4695 43.9307C87.8844 49.1817 86.6078 55.2502 86.6078 62.1097H88.6078ZM92.2584 44.8251C94.7691 39.8797 98.1357 36.1084 102.351 33.4738L101.291 31.7778C96.7358 34.6249 93.1328 38.6847 90.475 43.9197L92.2584 44.8251ZM102.351 33.4738C106.57 30.8369 111.28 29.5145 116.504 29.5145V27.5145C110.922 27.5145 105.843 28.9331 101.291 31.7778L102.351 33.4738ZM116.504 29.5145C120.987 29.5145 124.85 30.4254 128.124 32.2116L129.082 30.4558C125.466 28.4831 121.262 27.5145 116.504 27.5145V29.5145ZM128.133 32.216C131.518 34.0217 134.081 36.3718 135.857 39.2581L137.56 38.2099C135.577 34.988 132.736 32.4046 129.074 30.4513L128.133 32.216ZM137.708 38.734V29.4543H135.708V38.734H137.708ZM136.708 30.4543H156.795V28.4543L136.708 28.4543V30.4543ZM155.795 29.4543L155.795 95H157.795L157.795 29.4543H155.795ZM156.795 94H136.708V96H156.795V94ZM137.708 95V85.7202H135.708V95H137.708ZM135.867 85.1806C134.01 88.0763 131.404 90.431 128.015 92.2382L128.956 94.0029C132.616 92.0512 135.491 89.4723 137.55 86.2599L135.867 85.1806ZM128.007 92.2427C124.732 94.0289 120.87 94.9397 116.387 94.9397V96.9397C121.145 96.9397 125.348 95.9711 128.965 93.9984L128.007 92.2427ZM116.387 94.9397C111.243 94.9397 106.573 93.6189 102.351 90.9804L101.291 92.6764C105.84 95.5197 110.88 96.9397 116.387 96.9397V94.9397ZM102.362 90.9873C98.1399 88.2731 94.7701 84.459 92.2584 79.5117L90.475 80.4171C93.1318 85.6501 96.7317 89.7454 101.28 92.6696L102.362 90.9873ZM92.2665 79.5281C89.837 74.5172 88.6078 68.7192 88.6078 62.1097H86.6078C86.6078 68.9695 87.8846 75.0747 90.4669 80.4007L92.2665 79.5281ZM137.708 62.2271C137.708 57.0207 136.238 52.7923 133.196 49.6658L131.763 51.0605C134.359 53.7288 135.708 57.4099 135.708 62.2271H137.708ZM133.206 49.6759C130.276 46.5784 126.646 45.0169 122.378 45.0169V47.0169C126.097 47.0169 129.201 48.3528 131.753 51.0503L133.206 49.6759ZM122.378 45.0169C118.11 45.0169 114.446 46.5775 111.441 49.6658L112.875 51.0605C115.508 48.3538 118.657 47.0169 122.378 47.0169V45.0169ZM111.441 49.666C108.473 52.7193 107.047 56.9122 107.047 62.1097H109.047C109.047 57.2834 110.362 53.6452 112.875 51.0602L111.441 49.666ZM107.047 62.1097C107.047 67.3098 108.473 71.5667 111.423 74.7686L112.894 73.4137C110.361 70.664 109.047 66.9332 109.047 62.1097H107.047ZM111.441 74.7885C114.446 77.8768 118.11 79.4374 122.378 79.4374V77.4374C118.657 77.4374 115.508 76.1004 112.875 73.3938L111.441 74.7885ZM122.378 79.4374C126.646 79.4374 130.276 77.8758 133.206 74.7783L131.753 73.4039C129.201 76.1014 126.097 77.4374 122.378 77.4374V79.4374ZM133.196 74.7885C136.238 71.6619 137.708 67.4336 137.708 62.2271H135.708C135.708 67.0444 134.359 70.7254 131.763 73.3938L133.196 74.7885ZM276.693 36.1498L275.975 36.8454L275.981 36.8512L276.693 36.1498ZM283.976 95V96H284.976V95H283.976ZM264.007 95L263.007 95V96L264.007 96V95ZM260.601 49.6583L259.869 50.3406L259.881 50.3532L259.893 50.3654L260.601 49.6583ZM242.158 49.6583L241.439 48.9633L241.439 48.9637L242.158 49.6583ZM238.869 95V96H239.869V95H238.869ZM218.9 95H217.9V96H218.9V95ZM215.494 49.6583L214.763 50.3406L214.774 50.3532L214.787 50.3654L215.494 49.6583ZM197.052 49.6583L196.333 48.9633L196.332 48.9637L197.052 49.6583ZM193.763 95V96H194.763V95H193.763ZM173.676 95H172.676V96H173.676V95ZM173.676 29.4543V28.4543H172.676V29.4543H173.676ZM193.763 29.4543H194.763V28.4543H193.763V29.4543ZM193.763 37.6768H192.763V40.6999L194.565 38.2732L193.763 37.6768ZM201.75 31.2162L202.18 32.1191L202.189 32.115L202.198 32.1107L201.75 31.2162ZM226.066 31.921L225.583 32.7969L225.591 32.8009L226.066 31.921ZM235.228 40.9659L234.355 41.4545L235.177 42.9217L236.074 41.4992L235.228 40.9659ZM244.508 32.156L245.009 33.021L244.508 32.156ZM257.312 29.7495C265.239 29.7495 271.421 32.1423 275.975 36.8454L277.412 35.4542C272.412 30.2902 265.672 27.7495 257.312 27.7495V29.7495ZM275.981 36.8512C280.606 41.5511 282.976 48.1244 282.976 56.7062H284.976C284.976 47.7466 282.491 40.6155 277.406 35.4484L275.981 36.8512ZM282.976 56.7062V95H284.976V56.7062H282.976ZM283.976 94H264.007V96H283.976V94ZM265.007 95V59.408H263.007V95L265.007 95ZM265.007 59.408C265.007 55.0011 263.82 51.4635 261.308 48.9512L259.893 50.3654C261.923 52.3951 263.007 55.3573 263.007 59.408H265.007ZM261.332 48.976C258.909 46.3809 255.566 45.1344 251.438 45.1344V47.1344C255.142 47.1344 257.906 48.2372 259.869 50.3406L261.332 48.976ZM251.438 45.1344C247.309 45.1344 243.936 46.3811 241.439 48.9633L242.877 50.3533C244.923 48.237 247.736 47.1344 251.438 47.1344V45.1344ZM241.439 48.9637C239.012 51.4773 237.869 55.0103 237.869 59.408H239.869C239.869 55.3481 240.919 52.3813 242.878 50.3529L241.439 48.9637ZM237.869 59.408V95H239.869V59.408H237.869ZM238.869 94H218.9V96H238.869V94ZM219.9 95V59.408L217.9 59.408V95H219.9ZM219.9 59.408C219.9 55.0011 218.713 51.4635 216.201 48.9512L214.787 50.3654C216.816 52.3951 217.9 55.3573 217.9 59.408L219.9 59.408ZM216.225 48.976C213.803 46.3809 210.459 45.1344 206.331 45.1344V47.1344C210.035 47.1344 212.799 48.2372 214.763 50.3406L216.225 48.976ZM206.331 45.1344C202.203 45.1344 198.829 46.3811 196.333 48.9633L197.771 50.3533C199.817 48.237 202.629 47.1344 206.331 47.1344V45.1344ZM196.332 48.9637C193.905 51.4773 192.763 55.0103 192.763 59.408H194.763C194.763 55.3481 195.813 52.3813 197.771 50.3529L196.332 48.9637ZM192.763 59.408V95H194.763V59.408H192.763ZM193.763 94H173.676V96H193.763V94ZM174.676 95L174.676 29.4543H172.676L172.676 95H174.676ZM173.676 30.4543H193.763V28.4543H173.676V30.4543ZM192.763 29.4543V37.6768H194.763V29.4543H192.763ZM194.565 38.2732C196.498 35.6721 199.029 33.6199 202.18 32.1191L201.32 30.3134C197.894 31.945 195.1 34.1998 192.96 37.0805L194.565 38.2732ZM202.198 32.1107C205.331 30.5441 208.894 29.7495 212.91 29.7495V27.7495C208.624 27.7495 204.748 28.5994 201.303 30.3218L202.198 32.1107ZM212.91 29.7495C217.696 29.7495 221.912 30.7738 225.583 32.7969L226.548 31.0452C222.545 28.8395 217.99 27.7495 212.91 27.7495V29.7495ZM225.591 32.8009C229.338 34.8244 232.255 37.7029 234.355 41.4545L236.1 40.4773C233.816 36.3978 230.625 33.2464 226.541 31.0411L225.591 32.8009ZM236.074 41.4992C238.253 38.0423 241.225 35.2161 245.009 33.021L244.006 31.2909C239.96 33.6378 236.745 36.6849 234.382 40.4326L236.074 41.4992ZM245.009 33.021C248.769 30.8403 252.864 29.7495 257.312 29.7495V27.7495C252.519 27.7495 248.077 28.9296 244.006 31.2909L245.009 33.021ZM300.139 44.3724L299.247 43.9196L299.242 43.9307L300.139 44.3724ZM310.593 32.6258L311.123 33.4738L311.123 33.4738L310.593 32.6258ZM337.375 31.3337L336.896 32.2116L336.905 32.216L337.375 31.3337ZM345.48 38.734L344.629 39.2581L346.48 42.2671V38.734H345.48ZM345.48 29.4543V28.4543H344.48V29.4543H345.48ZM365.567 29.4543H366.567V28.4543H365.567V29.4543ZM365.567 95V96H366.567V95H365.567ZM345.48 95H344.48V96H345.48V95ZM345.48 85.7202H346.48V82.3072L344.638 85.1806L345.48 85.7202ZM337.258 93.1206L336.787 92.2382L336.779 92.2427L337.258 93.1206ZM310.593 91.8284L310.052 92.6697L310.063 92.6764L310.593 91.8284ZM300.139 79.9644L299.239 80.4007L299.243 80.4089L299.247 80.4171L300.139 79.9644ZM341.252 50.3631L340.525 51.0504L340.535 51.0605L341.252 50.3631ZM320.93 50.3631L320.213 49.6658L320.213 49.666L320.93 50.3631ZM320.93 74.0911L320.195 74.7686L320.204 74.7787L320.213 74.7885L320.93 74.0911ZM341.252 74.0911L340.535 73.3937L340.525 73.4039L341.252 74.0911ZM297.38 62.1097C297.38 55.4997 298.609 49.7434 301.036 44.8141L299.242 43.9307C296.656 49.1817 295.38 55.2502 295.38 62.1097H297.38ZM301.03 44.8251C303.541 39.8797 306.908 36.1084 311.123 33.4738L310.063 31.7778C305.508 34.6249 301.905 38.6847 299.247 43.9197L301.03 44.8251ZM311.123 33.4738C315.342 30.8369 320.051 29.5145 325.276 29.5145V27.5145C319.694 27.5145 314.615 28.9331 310.063 31.7778L311.123 33.4738ZM325.276 29.5145C329.759 29.5145 333.622 30.4254 336.896 32.2116L337.854 30.4558C334.238 28.4831 330.034 27.5145 325.276 27.5145V29.5145ZM336.905 32.216C340.29 34.0217 342.853 36.3718 344.629 39.2581L346.332 38.2099C344.349 34.988 341.508 32.4046 337.846 30.4513L336.905 32.216ZM346.48 38.734V29.4543H344.48V38.734H346.48ZM345.48 30.4543H365.567V28.4543H345.48V30.4543ZM364.567 29.4543V95H366.567V29.4543H364.567ZM365.567 94H345.48V96H365.567V94ZM346.48 95V85.7202H344.48V95H346.48ZM344.638 85.1806C342.782 88.0763 340.176 90.431 336.787 92.2382L337.728 94.0029C341.388 92.0512 344.263 89.4723 346.322 86.2599L344.638 85.1806ZM336.779 92.2427C333.504 94.0289 329.642 94.9397 325.159 94.9397V96.9397C329.917 96.9397 334.12 95.9711 337.737 93.9984L336.779 92.2427ZM325.159 94.9397C320.015 94.9397 315.345 93.6189 311.123 90.9804L310.063 92.6764C314.612 95.5197 319.652 96.9397 325.159 96.9397V94.9397ZM311.134 90.9873C306.912 88.2731 303.542 84.459 301.03 79.5117L299.247 80.4171C301.904 85.6501 305.504 89.7454 310.052 92.6696L311.134 90.9873ZM301.039 79.5281C298.609 74.5172 297.38 68.7192 297.38 62.1097H295.38C295.38 68.9695 296.657 75.0747 299.239 80.4007L301.039 79.5281ZM346.48 62.2271C346.48 57.0207 345.01 52.7923 341.968 49.6658L340.535 51.0605C343.131 53.7288 344.48 57.4099 344.48 62.2271H346.48ZM341.978 49.6759C339.048 46.5784 335.418 45.0169 331.15 45.0169V47.0169C334.869 47.0169 337.973 48.3528 340.525 51.0503L341.978 49.6759ZM331.15 45.0169C326.882 45.0169 323.218 46.5775 320.213 49.6658L321.647 51.0605C324.28 48.3538 327.429 47.0169 331.15 47.0169V45.0169ZM320.213 49.666C317.245 52.7193 315.819 56.9122 315.819 62.1097H317.819C317.819 57.2834 319.134 53.6452 321.647 51.0602L320.213 49.666ZM315.819 62.1097C315.819 67.3098 317.245 71.5667 320.195 74.7686L321.666 73.4137C319.133 70.664 317.819 66.9332 317.819 62.1097H315.819ZM320.213 74.7885C323.218 77.8768 326.882 79.4374 331.15 79.4374V77.4374C327.429 77.4374 324.28 76.1004 321.647 73.3938L320.213 74.7885ZM331.15 79.4374C335.418 79.4374 339.048 77.8758 341.978 74.7783L340.525 73.4039C337.973 76.1014 334.869 77.4374 331.15 77.4374V79.4374ZM341.968 74.7885C345.01 71.6619 346.48 67.4336 346.48 62.2271H344.48C344.48 67.0444 343.131 70.7254 340.535 73.3938L341.968 74.7885ZM402.535 40.3785H401.535V43.7425L403.372 40.9248L402.535 40.3785ZM411.345 31.921L411.845 32.7869L411.852 32.7828L411.859 32.7785L411.345 31.921ZM423.091 28.7495H424.091V27.7495H423.091V28.7495ZM423.091 50.0107V51.0107H424.091V50.0107H423.091ZM406.294 53.2997L406.938 54.064L406.945 54.0582L406.952 54.0523L406.294 53.2997ZM402.535 95V96H403.535V95H402.535ZM382.448 95H381.448V96H382.448V95ZM382.448 29.4543V28.4543H381.448V29.4543H382.448ZM402.535 29.4543H403.535V28.4543H402.535V29.4543ZM403.372 40.9248C405.641 37.4464 408.465 34.7399 411.845 32.7869L410.844 31.0552C407.177 33.1743 404.127 36.1061 401.697 39.8323L403.372 40.9248ZM411.859 32.7785C415.22 30.762 418.956 29.7495 423.091 29.7495V27.7495C418.612 27.7495 414.517 28.8513 410.83 31.0635L411.859 32.7785ZM422.091 28.7495V50.0107H424.091V28.7495H422.091ZM423.091 49.0107H417.57V51.0107H423.091V49.0107ZM417.57 49.0107C412.435 49.0107 408.396 50.1313 405.635 52.5472L406.952 54.0523C409.203 52.0829 412.682 51.0107 417.57 51.0107V49.0107ZM405.649 52.5355C402.806 54.9339 401.535 59.0647 401.535 64.5764H403.535C403.535 59.2813 404.769 55.8944 406.938 54.064L405.649 52.5355ZM401.535 64.5764V95H403.535V64.5764H401.535ZM402.535 94H382.448V96H402.535V94ZM383.448 95V29.4543H381.448V95H383.448ZM382.448 30.4543L402.535 30.4543V28.4543H382.448V30.4543ZM401.535 29.4543V40.3785H403.535V29.4543H401.535ZM436.451 19.5872L435.757 20.307L435.77 20.3196L435.783 20.3317L436.451 19.5872ZM436.451 4.0817L437.131 4.8145L437.132 4.8136L436.451 4.0817ZM453.601 4.0817L452.907 4.80155L452.92 4.81415L452.933 4.82627L453.601 4.0817ZM453.601 19.5872L454.281 20.3199L454.282 20.319L453.601 19.5872ZM455.128 29.4543H456.128V28.4543H455.128V29.4543ZM455.128 95V96H456.128V95H455.128ZM435.041 95H434.041V96H435.041V95ZM435.041 29.4543V28.4543H434.041V29.4543H435.041ZM445.143 21.6413C441.825 21.6413 439.178 20.6888 437.119 18.8426L435.783 20.3317C438.266 22.5576 441.414 23.6413 445.143 23.6413V21.6413ZM437.145 18.8673C435.148 16.942 434.162 14.6178 434.162 11.8344H432.162C432.162 15.1592 433.368 18.0036 435.757 20.307L437.145 18.8673ZM434.162 11.8344C434.162 8.9654 435.153 6.65159 437.131 4.8145L435.771 3.34891C433.364 5.58396 432.162 8.43863 432.162 11.8344H434.162ZM437.132 4.8136C439.193 2.89515 441.835 1.91013 445.143 1.91013V-0.0898662C441.404 -0.0898662 438.251 1.0395 435.77 3.34981L437.132 4.8136ZM445.143 1.91013C448.367 1.91013 450.925 2.89092 452.907 4.80155L454.295 3.36186C451.891 1.04373 448.811 -0.0898662 445.143 -0.0898662V1.91013ZM452.933 4.82627C454.986 6.6669 456.007 8.97743 456.007 11.8344H458.007C458.007 8.4266 456.757 5.56865 454.268 3.33713L452.933 4.82627ZM456.007 11.8344C456.007 14.6059 454.991 16.9266 452.92 18.8553L454.282 20.319C456.753 18.0189 458.007 15.1711 458.007 11.8344H456.007ZM452.92 18.8544C450.941 20.6927 448.378 21.6413 445.143 21.6413V23.6413C448.8 23.6413 451.876 22.5538 454.281 20.3199L452.92 18.8544ZM454.128 29.4543V95H456.128V29.4543H454.128ZM455.128 94L435.041 94V96L455.128 96V94ZM436.041 95V29.4543H434.041V95H436.041ZM435.041 30.4543H455.128V28.4543H435.041V30.4543ZM530.297 36.2673L529.556 36.9388L529.561 36.9448L529.567 36.9508L530.297 36.2673ZM537.227 95V96H538.227V95H537.227ZM517.258 95H516.258V96H517.258V95ZM513.852 49.1885L513.121 49.8716L513.121 49.8716L513.852 49.1885ZM495.527 49.1885L496.257 49.8716L496.257 49.8716L495.527 49.1885ZM492.12 95V96H493.12V95H492.12ZM472.034 95H471.034V96H472.034V95ZM472.034 29.4543V28.4543H471.034V29.4543H472.034ZM492.12 29.4543H493.12V28.4543H492.12V29.4543ZM492.12 38.1467H491.12V41.3091L492.939 38.7216L492.12 38.1467ZM500.343 31.3337L500.774 32.2362L500.782 32.2322L500.79 32.2281L500.343 31.3337ZM511.972 29.7495C519.406 29.7495 525.23 32.1653 529.556 36.9388L531.038 35.5957C526.28 30.3454 519.887 27.7495 511.972 27.7495V29.7495ZM529.567 36.9508C533.968 41.6506 536.227 48.1925 536.227 56.7062H538.227C538.227 47.8351 535.866 40.751 531.027 35.5837L529.567 36.9508ZM536.227 56.7062V95H538.227V56.7062H536.227ZM537.227 94H517.258V96H537.227V94ZM518.258 95V59.408H516.258V95H518.258ZM518.258 59.408C518.258 54.852 517.076 51.1711 514.582 48.5053L513.121 49.8716C515.169 52.0611 516.258 55.1931 516.258 59.408H518.258ZM514.582 48.5053C512.092 45.8438 508.756 44.547 504.689 44.547V46.547C508.296 46.547 511.069 47.6779 513.121 49.8716L514.582 48.5053ZM504.689 44.547C500.622 44.547 497.286 45.8438 494.797 48.5053L496.257 49.8716C498.309 47.6779 501.082 46.547 504.689 46.547V44.547ZM494.797 48.5053C492.303 51.1711 491.12 54.852 491.12 59.408H493.12C493.12 55.1931 494.209 52.0611 496.257 49.8716L494.797 48.5053ZM491.12 59.408V95H493.12V59.408H491.12ZM492.12 94H472.034V96H492.12V94ZM473.034 95V29.4543H471.034V95H473.034ZM472.034 30.4543L492.12 30.4543V28.4543H472.034V30.4543ZM491.12 29.4543V38.1467H493.12V29.4543H491.12ZM492.939 38.7216C494.868 35.9757 497.471 33.8126 500.774 32.2362L499.912 30.4312C496.324 32.1438 493.445 34.5227 491.302 37.5718L492.939 38.7216ZM500.79 32.2281C504.081 30.5826 507.802 29.7495 511.972 29.7495V27.7495C507.528 27.7495 503.496 28.6392 499.896 30.4393L500.79 32.2281ZM604.045 95L603.212 95.5538L603.509 96H604.045V95ZM587.247 69.7449L588.08 69.1911L587.194 67.8586L586.385 69.2393L587.247 69.7449ZM572.447 95V96H573.02L573.309 95.5056L572.447 95ZM549.658 95L548.812 94.4668L547.846 96H549.658V95ZM576.088 53.0648L576.934 53.598L577.28 53.0495L576.92 52.5101L576.088 53.0648ZM549.071 12.5392V11.5392H547.202L548.239 13.0939L549.071 12.5392ZM572.447 12.5392L573.279 11.9854L572.983 11.5392H572.447V12.5392ZM589.009 37.4419L588.177 37.9957L589.064 39.3295L589.872 37.9468L589.009 37.4419ZM603.575 12.5392V11.5392H603.001L602.712 12.0343L603.575 12.5392ZM626.363 12.5392L627.209 13.0722L628.175 11.5392H626.363V12.5392ZM600.168 54.122L599.322 53.589L598.977 54.1374L599.336 54.6767L600.168 54.122ZM627.42 95V96H629.289L628.253 94.4453L627.42 95ZM604.878 94.4462L588.08 69.1911L586.415 70.2987L603.212 95.5538L604.878 94.4462ZM586.385 69.2393L571.584 94.4944L573.309 95.5056L588.11 70.2505L586.385 69.2393ZM572.447 94H549.658V96H572.447V94ZM550.504 95.5332L576.934 53.598L575.242 52.5316L548.812 94.4668L550.504 95.5332ZM576.92 52.5101L549.903 11.9845L548.239 13.0939L575.256 53.6195L576.92 52.5101ZM549.071 13.5392L572.447 13.5392V11.5392L549.071 11.5392V13.5392ZM571.614 13.093L588.177 37.9957L589.842 36.8881L573.279 11.9854L571.614 13.093ZM589.872 37.9468L604.438 13.0441L602.712 12.0343L588.146 36.937L589.872 37.9468ZM603.575 13.5392H626.363V11.5392H603.575V13.5392ZM625.517 12.0062L599.322 53.589L601.015 54.655L627.209 13.0722L625.517 12.0062ZM599.336 54.6767L626.588 95.5547L628.253 94.4453L601.001 53.5673L599.336 54.6767ZM627.42 94L604.045 94V96L627.42 96V94ZM639.619 44.3724L638.727 43.9196L638.721 43.9307L639.619 44.3724ZM650.073 32.6258L650.603 33.4738L650.603 33.4738L650.073 32.6258ZM676.855 31.3337L676.376 32.2116L676.385 32.216L676.855 31.3337ZM684.96 38.734L684.109 39.2581L685.96 42.2671V38.734H684.96ZM684.96 29.4543V28.4543H683.96V29.4543H684.96ZM705.047 29.4543H706.047V28.4543H705.047V29.4543ZM705.047 95V96H706.047V95H705.047ZM684.96 95H683.96V96H684.96V95ZM684.96 85.7202H685.96V82.3072L684.118 85.1806L684.96 85.7202ZM676.738 93.1206L676.267 92.2382L676.259 92.2427L676.738 93.1206ZM650.073 91.8284L649.532 92.6697L649.543 92.6764L650.073 91.8284ZM639.619 79.9644L638.719 80.4007L638.723 80.4089L638.727 80.4171L639.619 79.9644ZM680.731 50.3631L680.005 51.0504L680.015 51.0605L680.731 50.3631ZM660.41 50.3631L659.693 49.6658L659.693 49.666L660.41 50.3631ZM660.41 74.0911L659.674 74.7686L659.684 74.7787L659.693 74.7885L660.41 74.0911ZM680.731 74.0911L680.015 73.3937L680.005 73.4039L680.731 74.0911ZM636.86 62.1097C636.86 55.4997 638.089 49.7434 640.516 44.8141L638.721 43.9307C636.136 49.1817 634.86 55.2502 634.86 62.1097H636.86ZM640.51 44.8251C643.021 39.8797 646.388 36.1084 650.603 33.4738L649.543 31.7778C644.988 34.6249 641.385 38.6847 638.727 43.9197L640.51 44.8251ZM650.603 33.4738C654.822 30.8369 659.531 29.5145 664.756 29.5145V27.5145C659.174 27.5145 654.095 28.9331 649.543 31.7778L650.603 33.4738ZM664.756 29.5145C669.239 29.5145 673.102 30.4254 676.376 32.2116L677.334 30.4558C673.717 28.4831 669.514 27.5145 664.756 27.5145V29.5145ZM676.385 32.216C679.77 34.0217 682.332 36.3718 684.109 39.2581L685.812 38.2099C683.829 34.988 680.988 32.4046 677.326 30.4513L676.385 32.216ZM685.96 38.734V29.4543H683.96V38.734H685.96ZM684.96 30.4543H705.047V28.4543H684.96V30.4543ZM704.047 29.4543V95H706.047V29.4543H704.047ZM705.047 94H684.96V96H705.047V94ZM685.96 95V85.7202H683.96V95H685.96ZM684.118 85.1806C682.262 88.0763 679.656 90.431 676.267 92.2382L677.208 94.0029C680.868 92.0512 683.743 89.4723 685.802 86.2599L684.118 85.1806ZM676.259 92.2427C672.984 94.0289 669.121 94.9397 664.639 94.9397V96.9397C669.397 96.9397 673.6 95.9711 677.216 93.9984L676.259 92.2427ZM664.639 94.9397C659.495 94.9397 654.825 93.6189 650.603 90.9804L649.543 92.6764C654.092 95.5197 659.132 96.9397 664.639 96.9397V94.9397ZM650.614 90.9873C646.392 88.2731 643.022 84.459 640.51 79.5117L638.727 80.4171C641.384 85.6501 644.983 89.7454 649.532 92.6696L650.614 90.9873ZM640.518 79.5281C638.089 74.5172 636.86 68.7192 636.86 62.1097H634.86C634.86 68.9695 636.136 75.0747 638.719 80.4007L640.518 79.5281ZM685.96 62.2271C685.96 57.0207 684.49 52.7923 681.448 49.6658L680.015 51.0605C682.611 53.7288 683.96 57.4099 683.96 62.2271H685.96ZM681.458 49.6759C678.528 46.5784 674.898 45.0169 670.629 45.0169V47.0169C674.349 47.0169 677.453 48.3528 680.005 51.0503L681.458 49.6759ZM670.629 45.0169C666.362 45.0169 662.698 46.5775 659.693 49.6658L661.127 51.0605C663.76 48.3538 666.909 47.0169 670.629 47.0169V45.0169ZM659.693 49.666C656.724 52.7193 655.299 56.9122 655.299 62.1097H657.299C657.299 57.2834 658.614 53.6452 661.127 51.0602L659.693 49.666ZM655.299 62.1097C655.299 67.3098 656.725 71.5667 659.674 74.7686L661.145 73.4137C658.613 70.664 657.299 66.9332 657.299 62.1097H655.299ZM659.693 74.7885C662.698 77.8768 666.362 79.4374 670.629 79.4374V77.4374C666.909 77.4374 663.76 76.1004 661.127 73.3938L659.693 74.7885ZM670.629 79.4374C674.898 79.4374 678.528 77.8758 681.458 74.7783L680.005 73.4039C677.453 76.1014 674.349 77.4374 670.629 77.4374V79.4374ZM681.448 74.7885C684.49 71.6619 685.96 67.4336 685.96 62.2271H683.96C683.96 67.0444 682.611 70.7254 680.015 73.3938L681.448 74.7885ZM824.945 36.1498L824.227 36.8454L824.232 36.8512L824.945 36.1498ZM832.228 95V96H833.228V95H832.228ZM812.259 95H811.259V96H812.259V95ZM808.852 49.6583L808.121 50.3406L808.133 50.3532L808.145 50.3654L808.852 49.6583ZM790.41 49.6583L789.691 48.9633L789.691 48.9637L790.41 49.6583ZM787.121 95V96H788.121V95H787.121ZM767.152 95H766.152V96H767.152V95ZM763.746 49.6583L763.015 50.3406L763.026 50.3532L763.038 50.3654L763.746 49.6583ZM745.304 49.6583L744.585 48.9633L744.584 48.9637L745.304 49.6583ZM742.014 95V96H743.014V95H742.014ZM721.928 95H720.928V96H721.928V95ZM721.928 29.4543V28.4543H720.928V29.4543H721.928ZM742.014 29.4543H743.014V28.4543H742.014V29.4543ZM742.014 37.6768H741.014V40.6999L742.817 38.2732L742.014 37.6768ZM750.002 31.2162L750.432 32.1191L750.441 32.115L750.449 32.1107L750.002 31.2162ZM774.317 31.921L773.835 32.7969L773.842 32.8009L774.317 31.921ZM783.48 40.9659L782.607 41.4545L783.429 42.9217L784.326 41.4992L783.48 40.9659ZM792.76 32.156L793.261 33.021L792.76 32.156ZM805.563 29.7495C813.491 29.7495 819.673 32.1423 824.227 36.8454L825.664 35.4542C820.663 30.2902 813.924 27.7495 805.563 27.7495V29.7495ZM824.232 36.8512C828.858 41.5511 831.228 48.1244 831.228 56.7062H833.228C833.228 47.7466 830.743 40.6155 825.658 35.4484L824.232 36.8512ZM831.228 56.7062V95H833.228V56.7062H831.228ZM832.228 94H812.259V96H832.228V94ZM813.259 95V59.408H811.259V95H813.259ZM813.259 59.408C813.259 55.0011 812.072 51.4635 809.559 48.9512L808.145 50.3654C810.175 52.3951 811.259 55.3573 811.259 59.408H813.259ZM809.583 48.976C807.161 46.3809 803.818 45.1344 799.69 45.1344V47.1344C803.394 47.1344 806.158 48.2372 808.121 50.3406L809.583 48.976ZM799.69 45.1344C795.561 45.1344 792.187 46.3811 789.691 48.9633L791.129 50.3533C793.175 48.237 795.988 47.1344 799.69 47.1344V45.1344ZM789.691 48.9637C787.264 51.4773 786.121 55.0103 786.121 59.408H788.121C788.121 55.3481 789.171 52.3813 791.13 50.3529L789.691 48.9637ZM786.121 59.408V95H788.121V59.408H786.121ZM787.121 94H767.152V96H787.121V94ZM768.152 95V59.408H766.152V95H768.152ZM768.152 59.408C768.152 55.0011 766.965 51.4635 764.453 48.9512L763.038 50.3654C765.068 52.3951 766.152 55.3573 766.152 59.408H768.152ZM764.477 48.976C762.055 46.3809 758.711 45.1344 754.583 45.1344V47.1344C758.287 47.1344 761.051 48.2372 763.015 50.3406L764.477 48.976ZM754.583 45.1344C750.455 45.1344 747.081 46.3811 744.585 48.9633L746.023 50.3533C748.068 48.237 750.881 47.1344 754.583 47.1344V45.1344ZM744.584 48.9637C742.157 51.4773 741.014 55.0103 741.014 59.408H743.014C743.014 55.3481 744.064 52.3813 746.023 50.3529L744.584 48.9637ZM741.014 59.408V95H743.014V59.408H741.014ZM742.014 94H721.928V96H742.014V94ZM722.928 95V29.4543H720.928V95H722.928ZM721.928 30.4543H742.014V28.4543L721.928 28.4543V30.4543ZM741.014 29.4543V37.6768H743.014V29.4543H741.014ZM742.817 38.2732C744.749 35.6721 747.28 33.6199 750.432 32.1191L749.572 30.3134C746.146 31.945 743.352 34.1998 741.212 37.0805L742.817 38.2732ZM750.449 32.1107C753.583 30.5441 757.146 29.7495 761.161 29.7495V27.7495C756.876 27.7495 753 28.5994 749.555 30.3218L750.449 32.1107ZM761.161 29.7495C765.948 29.7495 770.163 30.7738 773.835 32.7969L774.8 31.0452C770.797 28.8395 766.242 27.7495 761.161 27.7495V29.7495ZM773.842 32.8009C777.589 34.8244 780.506 37.7029 782.607 41.4545L784.352 40.4773C782.068 36.3978 778.877 33.2464 774.793 31.0411L773.842 32.8009ZM784.326 41.4992C786.505 38.0423 789.477 35.2161 793.261 33.021L792.258 31.2909C788.212 33.6378 784.997 36.6849 782.634 40.4326L784.326 41.4992ZM793.261 33.021C797.021 30.8403 801.115 29.7495 805.563 29.7495V27.7495C800.771 27.7495 796.329 28.9296 792.258 31.2909L793.261 33.021ZM848.391 44.3724L847.499 43.9196L847.493 43.9307L848.391 44.3724ZM858.845 32.6258L859.375 33.4738L859.375 33.4738L858.845 32.6258ZM885.627 31.3337L885.148 32.2116L885.156 32.216L885.627 31.3337ZM893.732 38.734L892.881 39.2581L894.732 42.2671V38.734H893.732ZM893.732 29.4543V28.4543H892.732V29.4543H893.732ZM913.819 29.4543H914.819V28.4543H913.819V29.4543ZM913.819 95V96H914.819V95H913.819ZM893.732 95H892.732V96H893.732V95ZM893.732 85.7202H894.732V82.3072L892.89 85.1806L893.732 85.7202ZM885.51 93.1206L885.039 92.2382L885.031 92.2427L885.51 93.1206ZM858.845 91.8284L858.304 92.6697L858.315 92.6764L858.845 91.8284ZM848.391 79.9644L847.491 80.4007L847.495 80.4089L847.499 80.4171L848.391 79.9644ZM889.503 50.3631L888.777 51.0504L888.787 51.0605L889.503 50.3631ZM869.182 50.3631L868.465 49.6658L868.465 49.666L869.182 50.3631ZM869.182 74.0911L868.446 74.7686L868.456 74.7787L868.465 74.7885L869.182 74.0911ZM889.503 74.0911L888.787 73.3937L888.777 73.4039L889.503 74.0911ZM845.632 62.1097C845.632 55.4997 846.861 49.7434 849.288 44.8141L847.493 43.9307C844.908 49.1817 843.632 55.2502 843.632 62.1097H845.632ZM849.282 44.8251C851.793 39.8797 855.16 36.1084 859.375 33.4738L858.315 31.7778C853.76 34.6249 850.157 38.6847 847.499 43.9197L849.282 44.8251ZM859.375 33.4738C863.594 30.8369 868.303 29.5145 873.528 29.5145V27.5145C867.946 27.5145 862.867 28.9331 858.315 31.7778L859.375 33.4738ZM873.528 29.5145C878.011 29.5145 881.874 30.4254 885.148 32.2116L886.106 30.4558C882.489 28.4831 878.286 27.5145 873.528 27.5145V29.5145ZM885.156 32.216C888.542 34.0217 891.104 36.3718 892.881 39.2581L894.584 38.2099C892.601 34.988 889.76 32.4046 886.098 30.4513L885.156 32.216ZM894.732 38.734V29.4543H892.732V38.734H894.732ZM893.732 30.4543H913.819V28.4543L893.732 28.4543V30.4543ZM912.819 29.4543V95H914.819V29.4543H912.819ZM913.819 94H893.732V96H913.819V94ZM894.732 95V85.7202H892.732V95H894.732ZM892.89 85.1806C891.034 88.0763 888.428 90.431 885.039 92.2382L885.98 94.0029C889.64 92.0512 892.515 89.4723 894.574 86.2599L892.89 85.1806ZM885.031 92.2427C881.756 94.0289 877.893 94.9397 873.411 94.9397V96.9397C878.169 96.9397 882.372 95.9711 885.988 93.9984L885.031 92.2427ZM873.411 94.9397C868.267 94.9397 863.596 93.6189 859.375 90.9804L858.315 92.6764C862.864 95.5197 867.904 96.9397 873.411 96.9397V94.9397ZM859.386 90.9873C855.164 88.2731 851.794 84.459 849.282 79.5117L847.499 80.4171C850.156 85.6501 853.755 89.7454 858.304 92.6696L859.386 90.9873ZM849.29 79.5281C846.861 74.5172 845.632 68.7192 845.632 62.1097H843.632C843.632 68.9695 844.908 75.0747 847.491 80.4007L849.29 79.5281ZM894.732 62.2271C894.732 57.0207 893.262 52.7923 890.22 49.6658L888.787 51.0605C891.383 53.7288 892.732 57.4099 892.732 62.2271H894.732ZM890.23 49.6759C887.3 46.5784 883.67 45.0169 879.401 45.0169V47.0169C883.121 47.0169 886.225 48.3528 888.777 51.0503L890.23 49.6759ZM879.401 45.0169C875.134 45.0169 871.47 46.5775 868.465 49.6658L869.899 51.0605C872.532 48.3538 875.681 47.0169 879.401 47.0169V45.0169ZM868.465 49.666C865.496 52.7193 864.071 56.9122 864.071 62.1097H866.071C866.071 57.2834 867.386 53.6452 869.899 51.0602L868.465 49.666ZM864.071 62.1097C864.071 67.3098 865.497 71.5667 868.446 74.7686L869.917 73.4137C867.385 70.664 866.071 66.9332 866.071 62.1097H864.071ZM868.465 74.7885C871.47 77.8768 875.134 79.4374 879.401 79.4374V77.4374C875.681 77.4374 872.532 76.1004 869.899 73.3938L868.465 74.7885ZM879.401 79.4374C883.67 79.4374 887.3 77.8758 890.23 74.7783L888.777 73.4039C886.225 76.1014 883.121 77.4374 879.401 77.4374V79.4374ZM890.22 74.7885C893.262 71.6619 894.732 67.4336 894.732 62.2271H892.732C892.732 67.0444 891.383 70.7254 888.787 73.3938L890.22 74.7885ZM950.786 40.3785H949.786V43.7425L951.624 40.9248L950.786 40.3785ZM959.596 31.921L960.097 32.7869L960.104 32.7828L960.111 32.7785L959.596 31.921ZM971.343 28.7495H972.343V27.7495H971.343V28.7495ZM971.343 50.0107V51.0107H972.343V50.0107H971.343ZM954.545 53.2997L955.19 54.064L955.197 54.0582L955.204 54.0523L954.545 53.2997ZM950.786 95V96H951.786V95H950.786ZM930.7 95H929.7V96H930.7V95ZM930.7 29.4543V28.4543H929.7V29.4543H930.7ZM950.786 29.4543H951.786V28.4543H950.786V29.4543ZM951.624 40.9248C953.893 37.4464 956.716 34.7399 960.097 32.7869L959.096 31.0552C955.428 33.1743 952.379 36.1061 949.949 39.8323L951.624 40.9248ZM960.111 32.7785C963.472 30.762 967.208 29.7495 971.343 29.7495V27.7495C966.864 27.7495 962.769 28.8513 959.082 31.0635L960.111 32.7785ZM970.343 28.7495V50.0107H972.343V28.7495H970.343ZM971.343 49.0107H965.822V51.0107H971.343V49.0107ZM965.822 49.0107C960.686 49.0107 956.648 50.1313 953.887 52.5472L955.204 54.0523C957.455 52.0829 960.934 51.0107 965.822 51.0107V49.0107ZM953.9 52.5355C951.058 54.9339 949.786 59.0647 949.786 64.5764H951.786C951.786 59.2813 953.021 55.8944 955.19 54.064L953.9 52.5355ZM949.786 64.5764V95H951.786V64.5764H949.786ZM950.786 94H930.7V96H950.786V94ZM931.7 95V29.4543H929.7V95H931.7ZM930.7 30.4543H950.786V28.4543L930.7 28.4543V30.4543ZM949.786 29.4543V40.3785H951.786V29.4543H949.786ZM984.703 19.5872L984.009 20.307L984.022 20.3196L984.035 20.3317L984.703 19.5872ZM984.703 4.0817L985.383 4.8145L985.384 4.8136L984.703 4.0817ZM1001.85 4.0817L1001.16 4.80155L1001.17 4.81415L1001.19 4.82627L1001.85 4.0817ZM1001.85 19.5872L1002.53 20.3199L1002.53 20.319L1001.85 19.5872ZM1003.38 29.4543H1004.38V28.4543H1003.38V29.4543ZM1003.38 95V96H1004.38V95H1003.38ZM983.293 95H982.293V96H983.293V95ZM983.293 29.4543V28.4543H982.293V29.4543H983.293ZM993.395 21.6413C990.077 21.6413 987.43 20.6888 985.37 18.8426L984.035 20.3317C986.518 22.5576 989.666 23.6413 993.395 23.6413V21.6413ZM985.397 18.8673C983.4 16.942 982.414 14.6178 982.414 11.8344H980.414C980.414 15.1592 981.62 18.0036 984.009 20.307L985.397 18.8673ZM982.414 11.8344C982.414 8.9654 983.405 6.65159 985.383 4.8145L984.022 3.34891C981.615 5.58396 980.414 8.43863 980.414 11.8344H982.414ZM985.384 4.8136C987.445 2.89515 990.087 1.91013 993.395 1.91013V-0.0898662C989.655 -0.0898662 986.503 1.0395 984.021 3.34981L985.384 4.8136ZM993.395 1.91013C996.619 1.91013 999.177 2.89092 1001.16 4.80155L1002.55 3.36186C1000.14 1.04373 997.063 -0.0898662 993.395 -0.0898662V1.91013ZM1001.19 4.82627C1003.24 6.6669 1004.26 8.97743 1004.26 11.8344H1006.26C1006.26 8.4266 1005.01 5.56865 1002.52 3.33713L1001.19 4.82627ZM1004.26 11.8344C1004.26 14.6059 1003.24 16.9266 1001.17 18.8553L1002.53 20.319C1005 18.0189 1006.26 15.1711 1006.26 11.8344H1004.26ZM1001.17 18.8544C999.193 20.6927 996.63 21.6413 993.395 21.6413V23.6413C997.052 23.6413 1000.13 22.5538 1002.53 20.3199L1001.17 18.8544ZM1002.38 29.4543V95H1004.38V29.4543H1002.38ZM1003.38 94H983.293V96H1003.38V94ZM984.293 95V29.4543H982.293V95H984.293ZM983.293 30.4543H1003.38V28.4543L983.293 28.4543V30.4543ZM1078.55 36.2673L1077.81 36.9388L1077.81 36.9448L1077.82 36.9508L1078.55 36.2673ZM1085.48 95V96H1086.48V95H1085.48ZM1065.51 95H1064.51V96H1065.51V95ZM1062.1 49.1885L1061.37 49.8716L1061.37 49.8716L1062.1 49.1885ZM1043.78 49.1885L1044.51 49.8716L1044.51 49.8716L1043.78 49.1885ZM1040.37 95V96H1041.37V95H1040.37ZM1020.29 95H1019.29V96H1020.29V95ZM1020.29 29.4543V28.4543H1019.29V29.4543H1020.29ZM1040.37 29.4543H1041.37V28.4543H1040.37V29.4543ZM1040.37 38.1467H1039.37V41.3091L1041.19 38.7216L1040.37 38.1467ZM1048.59 31.3337L1049.03 32.2362L1049.03 32.2322L1049.04 32.2281L1048.59 31.3337ZM1060.22 29.7495C1067.66 29.7495 1073.48 32.1653 1077.81 36.9388L1079.29 35.5957C1074.53 30.3454 1068.14 27.7495 1060.22 27.7495V29.7495ZM1077.82 36.9508C1082.22 41.6506 1084.48 48.1925 1084.48 56.7062H1086.48C1086.48 47.8351 1084.12 40.751 1079.28 35.5837L1077.82 36.9508ZM1084.48 56.7062V95H1086.48V56.7062H1084.48ZM1085.48 94H1065.51V96H1085.48V94ZM1066.51 95V59.408H1064.51V95H1066.51ZM1066.51 59.408C1066.51 54.852 1065.33 51.1711 1062.83 48.5053L1061.37 49.8716C1063.42 52.0611 1064.51 55.1931 1064.51 59.408H1066.51ZM1062.83 48.5053C1060.34 45.8438 1057.01 44.547 1052.94 44.547V46.547C1056.55 46.547 1059.32 47.6779 1061.37 49.8716L1062.83 48.5053ZM1052.94 44.547C1048.87 44.547 1045.54 45.8438 1043.05 48.5053L1044.51 49.8716C1046.56 47.6779 1049.33 46.547 1052.94 46.547V44.547ZM1043.05 48.5053C1040.55 51.1711 1039.37 54.852 1039.37 59.408H1041.37C1041.37 55.1931 1042.46 52.0611 1044.51 49.8716L1043.05 48.5053ZM1039.37 59.408V95H1041.37V59.408H1039.37ZM1040.37 94H1020.29V96H1040.37V94ZM1021.29 95V29.4543H1019.29V95H1021.29ZM1020.29 30.4543H1040.37V28.4543L1020.29 28.4543V30.4543ZM1039.37 29.4543V38.1467H1041.37V29.4543H1039.37ZM1041.19 38.7216C1043.12 35.9757 1045.72 33.8126 1049.03 32.2362L1048.16 30.4312C1044.58 32.1438 1041.7 34.5227 1039.55 37.5718L1041.19 38.7216ZM1049.04 32.2281C1052.33 30.5826 1056.05 29.7495 1060.22 29.7495V27.7495C1055.78 27.7495 1051.75 28.6392 1048.15 30.4393L1049.04 32.2281ZM1152.3 95L1151.46 95.5538L1151.76 96H1152.3V95ZM1135.5 69.7449L1136.33 69.1911L1135.45 67.8586L1134.64 69.2393L1135.5 69.7449ZM1120.7 95V96H1121.27L1121.56 95.5056L1120.7 95ZM1097.91 95L1097.06 94.4668L1096.1 96H1097.91V95ZM1124.34 53.0648L1125.19 53.598L1125.53 53.0495L1125.17 52.5101L1124.34 53.0648ZM1097.32 12.5392V11.5392H1095.45L1096.49 13.0939L1097.32 12.5392ZM1120.7 12.5392L1121.53 11.9854L1121.23 11.5392H1120.7V12.5392ZM1137.26 37.4419L1136.43 37.9957L1137.32 39.3295L1138.12 37.9468L1137.26 37.4419ZM1151.83 12.5392V11.5392H1151.25L1150.96 12.0343L1151.83 12.5392ZM1174.62 12.5392L1175.46 13.0722L1176.43 11.5392H1174.62V12.5392ZM1148.42 54.122L1147.57 53.589L1147.23 54.1374L1147.59 54.6767L1148.42 54.122ZM1175.67 95V96H1177.54L1176.5 94.4453L1175.67 95ZM1153.13 94.4462L1136.33 69.1911L1134.67 70.2987L1151.46 95.5538L1153.13 94.4462ZM1134.64 69.2393L1119.84 94.4944L1121.56 95.5056L1136.36 70.2505L1134.64 69.2393ZM1120.7 94H1097.91V96H1120.7V94ZM1098.76 95.5332L1125.19 53.598L1123.49 52.5316L1097.06 94.4668L1098.76 95.5332ZM1125.17 52.5101L1098.15 11.9845L1096.49 13.0939L1123.51 53.6195L1125.17 52.5101ZM1097.32 13.5392H1120.7V11.5392H1097.32V13.5392ZM1119.87 13.093L1136.43 37.9957L1138.09 36.8881L1121.53 11.9854L1119.87 13.093ZM1138.12 37.9468L1152.69 13.0441L1150.96 12.0343L1136.4 36.937L1138.12 37.9468ZM1151.83 13.5392L1174.62 13.5392V11.5392L1151.83 11.5392V13.5392ZM1173.77 12.0062L1147.57 53.589L1149.27 54.655L1175.46 13.0722L1173.77 12.0062ZM1147.59 54.6767L1174.84 95.5547L1176.5 94.4453L1149.25 53.5673L1147.59 54.6767ZM1175.67 94H1152.3V96H1175.67V94ZM1187.87 44.3724L1186.98 43.9196L1186.97 43.9307L1187.87 44.3724ZM1198.32 32.6258L1198.85 33.4738L1198.85 33.4738L1198.32 32.6258ZM1225.11 31.3337L1224.63 32.2116L1224.64 32.216L1225.11 31.3337ZM1233.21 38.734L1232.36 39.2581L1234.21 42.2671V38.734H1233.21ZM1233.21 29.4543V28.4543H1232.21V29.4543H1233.21ZM1253.3 29.4543H1254.3V28.4543H1253.3V29.4543ZM1253.3 95V96H1254.3V95H1253.3ZM1233.21 95H1232.21V96H1233.21V95ZM1233.21 85.7202H1234.21V82.3072L1232.37 85.1806L1233.21 85.7202ZM1224.99 93.1206L1224.52 92.2382L1224.51 92.2427L1224.99 93.1206ZM1198.32 91.8284L1197.78 92.6697L1197.79 92.6764L1198.32 91.8284ZM1187.87 79.9644L1186.97 80.4007L1186.97 80.4089L1186.98 80.4171L1187.87 79.9644ZM1228.98 50.3631L1228.26 51.0504L1228.27 51.0605L1228.98 50.3631ZM1208.66 50.3631L1207.94 49.6658L1207.94 49.666L1208.66 50.3631ZM1208.66 74.0911L1207.93 74.7686L1207.94 74.7787L1207.94 74.7885L1208.66 74.0911ZM1228.98 74.0911L1228.27 73.3937L1228.26 73.4039L1228.98 74.0911ZM1185.11 62.1097C1185.11 55.4997 1186.34 49.7434 1188.77 44.8141L1186.97 43.9307C1184.39 49.1817 1183.11 55.2502 1183.11 62.1097H1185.11ZM1188.76 44.8251C1191.27 39.8797 1194.64 36.1084 1198.85 33.4738L1197.79 31.7778C1193.24 34.6249 1189.64 38.6847 1186.98 43.9197L1188.76 44.8251ZM1198.85 33.4738C1203.07 30.8369 1207.78 29.5145 1213.01 29.5145V27.5145C1207.43 27.5145 1202.35 28.9331 1197.79 31.7778L1198.85 33.4738ZM1213.01 29.5145C1217.49 29.5145 1221.35 30.4254 1224.63 32.2116L1225.59 30.4558C1221.97 28.4831 1217.77 27.5145 1213.01 27.5145V29.5145ZM1224.64 32.216C1228.02 34.0217 1230.58 36.3718 1232.36 39.2581L1234.06 38.2099C1232.08 34.988 1229.24 32.4046 1225.58 30.4513L1224.64 32.216ZM1234.21 38.734V29.4543H1232.21V38.734H1234.21ZM1233.21 30.4543H1253.3V28.4543H1233.21V30.4543ZM1252.3 29.4543V95H1254.3V29.4543H1252.3ZM1253.3 94H1233.21V96H1253.3V94ZM1234.21 95V85.7202H1232.21V95H1234.21ZM1232.37 85.1806C1230.51 88.0763 1227.91 90.431 1224.52 92.2382L1225.46 94.0029C1229.12 92.0512 1231.99 89.4723 1234.05 86.2599L1232.37 85.1806ZM1224.51 92.2427C1221.24 94.0289 1217.37 94.9397 1212.89 94.9397V96.9397C1217.65 96.9397 1221.85 95.9711 1225.47 93.9984L1224.51 92.2427ZM1212.89 94.9397C1207.75 94.9397 1203.08 93.6189 1198.85 90.9804L1197.79 92.6764C1202.34 95.5197 1207.38 96.9397 1212.89 96.9397V94.9397ZM1198.87 90.9873C1194.64 88.2731 1191.27 84.459 1188.76 79.5117L1186.98 80.4171C1189.64 85.6501 1193.24 89.7454 1197.78 92.6696L1198.87 90.9873ZM1188.77 79.5281C1186.34 74.5172 1185.11 68.7192 1185.11 62.1097H1183.11C1183.11 68.9695 1184.39 75.0747 1186.97 80.4007L1188.77 79.5281ZM1234.21 62.2271C1234.21 57.0207 1232.74 52.7923 1229.7 49.6658L1228.27 51.0605C1230.86 53.7288 1232.21 57.4099 1232.21 62.2271H1234.21ZM1229.71 49.6759C1226.78 46.5784 1223.15 45.0169 1218.88 45.0169V47.0169C1222.6 47.0169 1225.71 48.3528 1228.26 51.0503L1229.71 49.6759ZM1218.88 45.0169C1214.61 45.0169 1210.95 46.5775 1207.94 49.6658L1209.38 51.0605C1212.01 48.3538 1215.16 47.0169 1218.88 47.0169V45.0169ZM1207.94 49.666C1204.98 52.7193 1203.55 56.9122 1203.55 62.1097H1205.55C1205.55 57.2834 1206.87 53.6452 1209.38 51.0602L1207.94 49.666ZM1203.55 62.1097C1203.55 67.3098 1204.98 71.5667 1207.93 74.7686L1209.4 73.4137C1206.86 70.664 1205.55 66.9332 1205.55 62.1097H1203.55ZM1207.94 74.7885C1210.95 77.8768 1214.61 79.4374 1218.88 79.4374V77.4374C1215.16 77.4374 1212.01 76.1004 1209.38 73.3938L1207.94 74.7885ZM1218.88 79.4374C1223.15 79.4374 1226.78 77.8758 1229.71 74.7783L1228.26 73.4039C1225.71 76.1014 1222.6 77.4374 1218.88 77.4374V79.4374ZM1229.7 74.7885C1232.74 71.6619 1234.21 67.4336 1234.21 62.2271H1232.21C1232.21 67.0444 1230.86 70.7254 1228.27 73.3938L1229.7 74.7885ZM1373.2 36.1498L1372.48 36.8454L1372.48 36.8512L1373.2 36.1498ZM1380.48 95V96H1381.48V95H1380.48ZM1360.51 95H1359.51V96H1360.51V95ZM1357.1 49.6583L1356.37 50.3406L1356.38 50.3532L1356.4 50.3654L1357.1 49.6583ZM1338.66 49.6583L1337.94 48.9633L1337.94 48.9637L1338.66 49.6583ZM1335.37 95V96H1336.37V95H1335.37ZM1315.4 95H1314.4V96H1315.4V95ZM1312 49.6583L1311.27 50.3406L1311.28 50.3532L1311.29 50.3654L1312 49.6583ZM1293.56 49.6583L1292.84 48.9633L1292.84 48.9637L1293.56 49.6583ZM1290.27 95V96H1291.27V95H1290.27ZM1270.18 95H1269.18V96H1270.18V95ZM1270.18 29.4543V28.4543H1269.18V29.4543H1270.18ZM1290.27 29.4543H1291.27V28.4543H1290.27V29.4543ZM1290.27 37.6768H1289.27V40.6999L1291.07 38.2732L1290.27 37.6768ZM1298.25 31.2162L1298.68 32.1191L1298.69 32.115L1298.7 32.1107L1298.25 31.2162ZM1322.57 31.921L1322.09 32.7969L1322.09 32.8009L1322.57 31.921ZM1331.73 40.9659L1330.86 41.4545L1331.68 42.9217L1332.58 41.4992L1331.73 40.9659ZM1341.01 32.156L1341.51 33.021L1341.01 32.156ZM1353.82 29.7495C1361.74 29.7495 1367.92 32.1423 1372.48 36.8454L1373.92 35.4542C1368.92 30.2902 1362.18 27.7495 1353.82 27.7495V29.7495ZM1372.48 36.8512C1377.11 41.5511 1379.48 48.1244 1379.48 56.7062H1381.48C1381.48 47.7466 1378.99 40.6155 1373.91 35.4484L1372.48 36.8512ZM1379.48 56.7062V95H1381.48V56.7062H1379.48ZM1380.48 94H1360.51V96H1380.48V94ZM1361.51 95V59.408H1359.51V95H1361.51ZM1361.51 59.408C1361.51 55.0011 1360.32 51.4635 1357.81 48.9512L1356.4 50.3654C1358.43 52.3951 1359.51 55.3573 1359.51 59.408H1361.51ZM1357.84 48.976C1355.41 46.3809 1352.07 45.1344 1347.94 45.1344V47.1344C1351.65 47.1344 1354.41 48.2372 1356.37 50.3406L1357.84 48.976ZM1347.94 45.1344C1343.81 45.1344 1340.44 46.3811 1337.94 48.9633L1339.38 50.3533C1341.43 48.237 1344.24 47.1344 1347.94 47.1344V45.1344ZM1337.94 48.9637C1335.52 51.4773 1334.37 55.0103 1334.37 59.408H1336.37C1336.37 55.3481 1337.42 52.3813 1339.38 50.3529L1337.94 48.9637ZM1334.37 59.408V95H1336.37V59.408H1334.37ZM1335.37 94L1315.4 94V96L1335.37 96V94ZM1316.4 95V59.408H1314.4V95H1316.4ZM1316.4 59.408C1316.4 55.0011 1315.22 51.4635 1312.7 48.9512L1311.29 50.3654C1313.32 52.3951 1314.4 55.3573 1314.4 59.408H1316.4ZM1312.73 48.976C1310.31 46.3809 1306.96 45.1344 1302.84 45.1344V47.1344C1306.54 47.1344 1309.3 48.2372 1311.27 50.3406L1312.73 48.976ZM1302.84 45.1344C1298.71 45.1344 1295.33 46.3811 1292.84 48.9633L1294.27 50.3533C1296.32 48.237 1299.13 47.1344 1302.84 47.1344V45.1344ZM1292.84 48.9637C1290.41 51.4773 1289.27 55.0103 1289.27 59.408H1291.27C1291.27 55.3481 1292.32 52.3813 1294.27 50.3529L1292.84 48.9637ZM1289.27 59.408V95H1291.27V59.408H1289.27ZM1290.27 94H1270.18V96H1290.27V94ZM1271.18 95V29.4543H1269.18V95H1271.18ZM1270.18 30.4543L1290.27 30.4543V28.4543H1270.18V30.4543ZM1289.27 29.4543V37.6768H1291.27V29.4543H1289.27ZM1291.07 38.2732C1293 35.6721 1295.53 33.6199 1298.68 32.1191L1297.82 30.3134C1294.4 31.945 1291.6 34.1998 1289.46 37.0805L1291.07 38.2732ZM1298.7 32.1107C1301.83 30.5441 1305.4 29.7495 1309.41 29.7495V27.7495C1305.13 27.7495 1301.25 28.5994 1297.81 30.3218L1298.7 32.1107ZM1309.41 29.7495C1314.2 29.7495 1318.42 30.7738 1322.09 32.7969L1323.05 31.0452C1319.05 28.8395 1314.49 27.7495 1309.41 27.7495V29.7495ZM1322.09 32.8009C1325.84 34.8244 1328.76 37.7029 1330.86 41.4545L1332.6 40.4773C1330.32 36.3978 1327.13 33.2464 1323.04 31.0411L1322.09 32.8009ZM1332.58 41.4992C1334.76 38.0423 1337.73 35.2161 1341.51 33.021L1340.51 31.2909C1336.46 33.6378 1333.25 36.6849 1330.89 40.4326L1332.58 41.4992ZM1341.51 33.021C1345.27 30.8403 1349.37 29.7495 1353.82 29.7495V27.7495C1349.02 27.7495 1344.58 28.9296 1340.51 31.2909L1341.51 33.021ZM1396.64 44.3724L1395.75 43.9196L1395.75 43.9307L1396.64 44.3724ZM1407.1 32.6258L1407.63 33.4738L1407.63 33.4738L1407.1 32.6258ZM1433.88 31.3337L1433.4 32.2116L1433.41 32.216L1433.88 31.3337ZM1441.98 38.734L1441.13 39.2581L1442.98 42.2671V38.734H1441.98ZM1441.98 29.4543V28.4543H1440.98V29.4543H1441.98ZM1462.07 29.4543H1463.07V28.4543H1462.07V29.4543ZM1462.07 95V96H1463.07V95H1462.07ZM1441.98 95H1440.98V96H1441.98V95ZM1441.98 85.7202H1442.98V82.3072L1441.14 85.1806L1441.98 85.7202ZM1433.76 93.1206L1433.29 92.2382L1433.28 92.2427L1433.76 93.1206ZM1407.1 91.8284L1406.56 92.6697L1406.57 92.6764L1407.1 91.8284ZM1396.64 79.9644L1395.74 80.4007L1395.75 80.4089L1395.75 80.4171L1396.64 79.9644ZM1437.76 50.3631L1437.03 51.0504L1437.04 51.0605L1437.76 50.3631ZM1417.43 50.3631L1416.72 49.6658L1416.72 49.666L1417.43 50.3631ZM1417.43 74.0911L1416.7 74.7686L1416.71 74.7787L1416.72 74.7885L1417.43 74.0911ZM1437.76 74.0911L1437.04 73.3937L1437.03 73.4039L1437.76 74.0911ZM1393.88 62.1097C1393.88 55.4997 1395.11 49.7434 1397.54 44.8141L1395.75 43.9307C1393.16 49.1817 1391.88 55.2502 1391.88 62.1097H1393.88ZM1397.53 44.8251C1400.04 39.8797 1403.41 36.1084 1407.63 33.4738L1406.57 31.7778C1402.01 34.6249 1398.41 38.6847 1395.75 43.9197L1397.53 44.8251ZM1407.63 33.4738C1411.85 30.8369 1416.56 29.5145 1421.78 29.5145V27.5145C1416.2 27.5145 1411.12 28.9331 1406.57 31.7778L1407.63 33.4738ZM1421.78 29.5145C1426.26 29.5145 1430.13 30.4254 1433.4 32.2116L1434.36 30.4558C1430.74 28.4831 1426.54 27.5145 1421.78 27.5145V29.5145ZM1433.41 32.216C1436.79 34.0217 1439.36 36.3718 1441.13 39.2581L1442.84 38.2099C1440.85 34.988 1438.01 32.4046 1434.35 30.4513L1433.41 32.216ZM1442.98 38.734V29.4543H1440.98V38.734H1442.98ZM1441.98 30.4543L1462.07 30.4543V28.4543H1441.98V30.4543ZM1461.07 29.4543V95H1463.07V29.4543H1461.07ZM1462.07 94H1441.98V96H1462.07V94ZM1442.98 95V85.7202H1440.98V95H1442.98ZM1441.14 85.1806C1439.29 88.0763 1436.68 90.431 1433.29 92.2382L1434.23 94.0029C1437.89 92.0512 1440.77 89.4723 1442.83 86.2599L1441.14 85.1806ZM1433.28 92.2427C1430.01 94.0289 1426.15 94.9397 1421.66 94.9397V96.9397C1426.42 96.9397 1430.62 95.9711 1434.24 93.9984L1433.28 92.2427ZM1421.66 94.9397C1416.52 94.9397 1411.85 93.6189 1407.63 90.9804L1406.57 92.6764C1411.12 95.5197 1416.16 96.9397 1421.66 96.9397V94.9397ZM1407.64 90.9873C1403.42 88.2731 1400.05 84.459 1397.53 79.5117L1395.75 80.4171C1398.41 85.6501 1402.01 89.7454 1406.56 92.6696L1407.64 90.9873ZM1397.54 79.5281C1395.11 74.5172 1393.88 68.7192 1393.88 62.1097H1391.88C1391.88 68.9695 1393.16 75.0747 1395.74 80.4007L1397.54 79.5281ZM1442.98 62.2271C1442.98 57.0207 1441.51 52.7923 1438.47 49.6658L1437.04 51.0605C1439.63 53.7288 1440.98 57.4099 1440.98 62.2271H1442.98ZM1438.48 49.6759C1435.55 46.5784 1431.92 45.0169 1427.65 45.0169V47.0169C1431.37 47.0169 1434.48 48.3528 1437.03 51.0503L1438.48 49.6759ZM1427.65 45.0169C1423.39 45.0169 1419.72 46.5775 1416.72 49.6658L1418.15 51.0605C1420.78 48.3538 1423.93 47.0169 1427.65 47.0169V45.0169ZM1416.72 49.666C1413.75 52.7193 1412.32 56.9122 1412.32 62.1097H1414.32C1414.32 57.2834 1415.64 53.6452 1418.15 51.0602L1416.72 49.666ZM1412.32 62.1097C1412.32 67.3098 1413.75 71.5667 1416.7 74.7686L1418.17 73.4137C1415.64 70.664 1414.32 66.9332 1414.32 62.1097H1412.32ZM1416.72 74.7885C1419.72 77.8768 1423.39 79.4374 1427.65 79.4374V77.4374C1423.93 77.4374 1420.78 76.1004 1418.15 73.3938L1416.72 74.7885ZM1427.65 79.4374C1431.92 79.4374 1435.55 77.8758 1438.48 74.7783L1437.03 73.4039C1434.48 76.1014 1431.37 77.4374 1427.65 77.4374V79.4374ZM1438.47 74.7885C1441.51 71.6619 1442.98 67.4336 1442.98 62.2271H1440.98C1440.98 67.0444 1439.63 70.7254 1437.04 73.3938L1438.47 74.7885ZM1499.04 40.3785H1498.04V43.7425L1499.88 40.9248L1499.04 40.3785ZM1507.85 31.921L1508.35 32.7869L1508.36 32.7828L1508.36 32.7785L1507.85 31.921ZM1519.59 28.7495H1520.59V27.7495H1519.59V28.7495ZM1519.59 50.0107V51.0107H1520.59V50.0107H1519.59ZM1502.8 53.2997L1503.44 54.064L1503.45 54.0582L1503.46 54.0523L1502.8 53.2997ZM1499.04 95V96H1500.04V95H1499.04ZM1478.95 95H1477.95V96H1478.95V95ZM1478.95 29.4543V28.4543L1477.95 28.4543V29.4543L1478.95 29.4543ZM1499.04 29.4543H1500.04V28.4543H1499.04V29.4543ZM1499.88 40.9248C1502.14 37.4464 1504.97 34.7399 1508.35 32.7869L1507.35 31.0552C1503.68 33.1743 1500.63 36.1061 1498.2 39.8323L1499.88 40.9248ZM1508.36 32.7785C1511.72 30.762 1515.46 29.7495 1519.59 29.7495V27.7495C1515.12 27.7495 1511.02 28.8513 1507.33 31.0635L1508.36 32.7785ZM1518.59 28.7495V50.0107H1520.59V28.7495H1518.59ZM1519.59 49.0107H1514.07V51.0107H1519.59V49.0107ZM1514.07 49.0107C1508.94 49.0107 1504.9 50.1313 1502.14 52.5472L1503.46 54.0523C1505.71 52.0829 1509.19 51.0107 1514.07 51.0107V49.0107ZM1502.15 52.5355C1499.31 54.9339 1498.04 59.0647 1498.04 64.5764H1500.04C1500.04 59.2813 1501.27 55.8944 1503.44 54.064L1502.15 52.5355ZM1498.04 64.5764V95H1500.04V64.5764H1498.04ZM1499.04 94H1478.95V96H1499.04V94ZM1479.95 95V29.4543L1477.95 29.4543V95H1479.95ZM1478.95 30.4543H1499.04V28.4543H1478.95V30.4543ZM1498.04 29.4543V40.3785H1500.04V29.4543H1498.04ZM1532.95 19.5872L1532.26 20.307L1532.27 20.3196L1532.29 20.3317L1532.95 19.5872ZM1532.95 4.0817L1533.64 4.8145L1533.64 4.8136L1532.95 4.0817ZM1550.1 4.0817L1549.41 4.80155L1549.42 4.81415L1549.44 4.82627L1550.1 4.0817ZM1550.1 19.5872L1550.79 20.3199L1550.79 20.319L1550.1 19.5872ZM1551.63 29.4543H1552.63V28.4543H1551.63V29.4543ZM1551.63 95V96H1552.63V95H1551.63ZM1531.55 95H1530.55V96H1531.55V95ZM1531.55 29.4543V28.4543H1530.55V29.4543H1531.55ZM1541.65 21.6413C1538.33 21.6413 1535.68 20.6888 1533.62 18.8426L1532.29 20.3317C1534.77 22.5576 1537.92 23.6413 1541.65 23.6413V21.6413ZM1533.65 18.8673C1531.65 16.942 1530.67 14.6178 1530.67 11.8344H1528.67C1528.67 15.1592 1529.87 18.0036 1532.26 20.307L1533.65 18.8673ZM1530.67 11.8344C1530.67 8.9654 1531.66 6.65159 1533.64 4.8145L1532.27 3.34891C1529.87 5.58396 1528.67 8.43863 1528.67 11.8344H1530.67ZM1533.64 4.8136C1535.7 2.89515 1538.34 1.91013 1541.65 1.91013V-0.0898662C1537.91 -0.0898662 1534.75 1.0395 1532.27 3.34981L1533.64 4.8136ZM1541.65 1.91013C1544.87 1.91013 1547.43 2.89092 1549.41 4.80155L1550.8 3.36186C1548.39 1.04373 1545.31 -0.0898662 1541.65 -0.0898662V1.91013ZM1549.44 4.82627C1551.49 6.6669 1552.51 8.97743 1552.51 11.8344H1554.51C1554.51 8.4266 1553.26 5.56865 1550.77 3.33713L1549.44 4.82627ZM1552.51 11.8344C1552.51 14.6059 1551.49 16.9266 1549.42 18.8553L1550.79 20.319C1553.26 18.0189 1554.51 15.1711 1554.51 11.8344H1552.51ZM1549.42 18.8544C1547.44 20.6927 1544.88 21.6413 1541.65 21.6413V23.6413C1545.3 23.6413 1548.38 22.5538 1550.79 20.3199L1549.42 18.8544ZM1550.63 29.4543V95H1552.63V29.4543H1550.63ZM1551.63 94H1531.55V96H1551.63V94ZM1532.55 95V29.4543H1530.55V95H1532.55ZM1531.55 30.4543L1551.63 30.4543V28.4543H1531.55V30.4543ZM1626.8 36.2673L1626.06 36.9388L1626.06 36.9448L1626.07 36.9508L1626.8 36.2673ZM1633.73 95V96H1634.73V95H1633.73ZM1613.76 95H1612.76V96H1613.76V95ZM1610.36 49.1885L1609.62 49.8716L1609.62 49.8716L1610.36 49.1885ZM1592.03 49.1885L1592.76 49.8716L1592.76 49.8716L1592.03 49.1885ZM1588.62 95V96H1589.62V95H1588.62ZM1568.54 95H1567.54V96H1568.54V95ZM1568.54 29.4543V28.4543H1567.54V29.4543H1568.54ZM1588.62 29.4543H1589.62V28.4543H1588.62V29.4543ZM1588.62 38.1467H1587.62V41.3091L1589.44 38.7216L1588.62 38.1467ZM1596.85 31.3337L1597.28 32.2362L1597.29 32.2322L1597.29 32.2281L1596.85 31.3337ZM1608.48 29.7495C1615.91 29.7495 1621.73 32.1653 1626.06 36.9388L1627.54 35.5957C1622.78 30.3454 1616.39 27.7495 1608.48 27.7495V29.7495ZM1626.07 36.9508C1630.47 41.6506 1632.73 48.1925 1632.73 56.7062L1634.73 56.7062C1634.73 47.8351 1632.37 40.751 1627.53 35.5837L1626.07 36.9508ZM1632.73 56.7062V95H1634.73V56.7062L1632.73 56.7062ZM1633.73 94H1613.76V96H1633.73V94ZM1614.76 95V59.408H1612.76V95H1614.76ZM1614.76 59.408C1614.76 54.852 1613.58 51.1711 1611.09 48.5053L1609.62 49.8716C1611.67 52.0611 1612.76 55.1931 1612.76 59.408H1614.76ZM1611.09 48.5053C1608.6 45.8438 1605.26 44.547 1601.19 44.547V46.547C1604.8 46.547 1607.57 47.6779 1609.62 49.8716L1611.09 48.5053ZM1601.19 44.547C1597.13 44.547 1593.79 45.8438 1591.3 48.5053L1592.76 49.8716C1594.81 47.6779 1597.59 46.547 1601.19 46.547V44.547ZM1591.3 48.5053C1588.81 51.1711 1587.62 54.852 1587.62 59.408H1589.62C1589.62 55.1931 1590.71 52.0611 1592.76 49.8716L1591.3 48.5053ZM1587.62 59.408V95H1589.62V59.408H1587.62ZM1588.62 94H1568.54V96H1588.62V94ZM1569.54 95V29.4543H1567.54V95H1569.54ZM1568.54 30.4543H1588.62V28.4543H1568.54V30.4543ZM1587.62 29.4543V38.1467H1589.62V29.4543H1587.62ZM1589.44 38.7216C1591.37 35.9757 1593.97 33.8126 1597.28 32.2362L1596.42 30.4312C1592.83 32.1438 1589.95 34.5227 1587.81 37.5718L1589.44 38.7216ZM1597.29 32.2281C1600.59 30.5826 1604.31 29.7495 1608.48 29.7495V27.7495C1604.03 27.7495 1600 28.6392 1596.4 30.4393L1597.29 32.2281Z" fill="#F2B125"/>
</svg>
