<svg width="83" height="71" viewBox="0 0 83 71" fill="none" xmlns="http://www.w3.org/2000/svg">
<path fill-rule="evenodd" clip-rule="evenodd" d="M19.8718 0.103415C16.6653 0.812679 14.1673 3.01614 13.1202 6.05917C12.5711 7.65457 12.594 10.0925 13.1732 11.6935C13.4034 12.3302 13.8201 13.1887 14.0992 13.6013C14.3782 14.0139 14.6065 14.3843 14.6065 14.4242C14.6065 14.4643 11.6138 14.4969 7.95599 14.4969C0.742691 14.4969 0.616486 14.5113 0.219239 15.3816C-0.0882545 16.055 -0.0539086 30.8503 0.256501 31.4493C0.587486 32.0881 1.1529 32.2811 2.69312 32.2811H4.04946L4.91313 31.534C6.30333 30.3316 7.29872 29.9368 8.93955 29.9368C10.1705 29.9368 10.4362 29.9939 11.3927 30.4639C12.6413 31.0771 13.498 31.9537 14.0986 33.2317C14.4548 33.9902 14.5255 34.3677 14.5255 35.5146C14.5255 36.6615 14.4548 37.039 14.0986 37.7974C13.498 39.0755 12.6413 39.952 11.3927 40.5653C10.4362 41.0353 10.1705 41.0923 8.93955 41.0923C7.29872 41.0923 6.30333 40.6975 4.91313 39.4952L4.04946 38.7481H2.69312C1.1529 38.7481 0.587486 38.9411 0.256501 39.5799C-0.0855004 40.24 -0.0855004 55.0403 0.256501 55.7004C0.678373 56.5146 0.841354 56.5322 7.9717 56.5322C11.6208 56.5322 14.6065 56.5649 14.6065 56.605C14.6065 56.6449 14.3782 57.0153 14.0992 57.4279C13.8201 57.8405 13.4034 58.699 13.1732 59.3356C12.594 60.9367 12.5711 63.3746 13.1202 64.97C14.0313 67.6177 16.0381 69.6327 18.7507 70.6233C19.5268 70.9067 20.0652 70.9736 21.5729 70.9736C23.0805 70.9736 23.6189 70.9067 24.3951 70.6233C27.1076 69.6327 29.1144 67.6177 30.0255 64.97C30.5746 63.3746 30.5517 60.9367 29.9726 59.3356C29.7423 58.699 29.3257 57.8405 29.0465 57.4279C28.7675 57.0153 28.5393 56.6449 28.5393 56.605C28.5393 56.5649 34.3716 56.5322 41.5 56.5322C48.6284 56.5322 54.4607 56.5649 54.4607 56.605C54.4607 56.6449 54.2325 57.0153 53.9535 57.4279C53.6743 57.8405 53.2577 58.699 53.0274 59.3356C52.4483 60.9367 52.4254 63.3746 52.9745 64.97C53.8856 67.6177 55.8924 69.6327 58.6049 70.6233C59.9806 71.1256 62.8737 71.1256 64.2493 70.6233C66.9619 69.6327 68.9687 67.6177 69.8798 64.97C70.4289 63.3746 70.406 60.9367 69.8268 59.3356C69.5966 58.699 69.1799 57.8405 68.9008 57.4279C68.6218 57.0153 68.3935 56.6449 68.3935 56.605C68.3935 56.5649 71.3792 56.5322 75.0283 56.5322C82.1586 56.5322 82.3216 56.5146 82.7435 55.7004C83.0855 55.0403 83.0855 40.24 82.7435 39.5799C82.4125 38.9411 81.8471 38.7481 80.3069 38.7481H78.9505L78.0869 39.4952C76.6976 40.6966 75.701 41.0923 74.0639 41.0923C72.9116 41.0923 72.5413 41.023 71.7957 40.6679C70.4742 40.0384 69.6164 39.2105 69.0079 37.9767C68.5309 37.0099 68.4745 36.7496 68.4745 35.5146C68.4745 34.2823 68.5314 34.0181 69.0027 33.0631C69.6172 31.8171 70.4956 30.9622 71.7763 30.3628C72.5363 30.0073 72.9146 29.9368 74.0639 29.9368C75.701 29.9368 76.6976 30.3326 78.0869 31.534L78.9505 32.2811H80.3069C81.8471 32.2811 82.4125 32.0881 82.7435 31.4493C83.0855 30.7892 83.0855 15.9889 82.7435 15.3288C82.3216 14.5146 82.1586 14.4969 75.0283 14.4969C71.3792 14.4969 68.3935 14.4643 68.3935 14.4242C68.3935 14.3843 68.6218 14.0139 68.9008 13.6013C69.1799 13.1887 69.5966 12.3302 69.8268 11.6935C70.406 10.0925 70.4289 7.65457 69.8798 6.05917C68.9687 3.41143 66.9619 1.39648 64.2493 0.405907C62.8737 -0.096415 59.9806 -0.096415 58.6049 0.405907C55.8924 1.39648 53.8856 3.41143 52.9745 6.05917C52.4254 7.65457 52.4483 10.0925 53.0274 11.6935C53.2577 12.3302 53.6743 13.1887 53.9535 13.6013C54.2325 14.0139 54.4607 14.3843 54.4607 14.4242C54.4607 14.4643 48.6284 14.4969 41.5 14.4969C34.3716 14.4969 28.5393 14.4643 28.5393 14.4242C28.5393 14.3843 28.7675 14.0139 29.0465 13.6013C29.3257 13.1887 29.7423 12.3302 29.9726 11.6935C30.5517 10.0925 30.5746 7.65457 30.0255 6.05917C29.1115 3.4027 27.0642 1.35283 24.3951 0.421427C23.3143 0.0444033 20.9047 -0.125031 19.8718 0.103415ZM24.0616 3.80349C25.2787 4.4012 26.1394 5.28733 26.7353 6.55551C27.0915 7.31392 27.1622 7.69143 27.1622 8.83835C27.1622 10.4721 26.7656 11.4667 25.5617 12.853L24.813 13.7149V15.084C24.813 16.6188 25.036 17.2355 25.6996 17.5372C26.0075 17.6774 28.0148 17.7304 33.0021 17.7304H39.8799V24.3671C39.8799 31.5655 39.8943 31.6915 40.7664 32.0879C41 32.1941 41.8015 32.2811 42.5474 32.2811H43.9037L44.7674 31.534C47.0141 29.5908 49.7058 29.3404 51.958 30.865C52.9557 31.5403 53.5682 32.3128 54.0546 33.5087C54.5912 34.828 54.975 35.1912 55.8328 35.1912C56.3687 35.1912 56.6216 35.0924 56.9667 34.7482C57.3617 34.3539 57.4028 34.2128 57.3409 33.4668C57.1943 31.7021 55.5428 29.3144 53.6005 28.0591C52.0674 27.0682 50.7796 26.7074 48.7904 26.7111C46.8643 26.7148 45.3944 27.129 44.0176 28.0564C43.6042 28.3348 43.233 28.5626 43.193 28.5626C43.1528 28.5626 43.1201 26.1254 43.1201 23.1465V17.7304H50.0136C57.4905 17.7304 57.5948 17.7189 57.9934 16.8457C58.0998 16.6126 58.187 15.8128 58.187 15.0685V13.7149L57.4383 12.853C56.2334 11.4657 55.8378 10.4724 55.8378 8.83495C55.8378 7.60655 55.895 7.3414 56.366 6.38688C56.9805 5.14086 57.8589 4.28592 59.1396 3.6866C59.8996 3.33108 60.2778 3.26059 61.4271 3.26059C62.5764 3.26059 62.9547 3.33108 63.7147 3.6866C64.9954 4.28592 65.8738 5.14086 66.4883 6.38688C66.9593 7.3414 67.0165 7.60655 67.0165 8.83495C67.0165 10.4724 66.6208 11.4657 65.416 12.853L64.6673 13.7149V15.0685C64.6673 15.8128 64.7545 16.6126 64.8609 16.8457C65.2595 17.7189 65.3638 17.7304 72.8407 17.7304H79.7342V23.1465C79.7342 26.1254 79.7015 28.5626 79.6613 28.5626C79.6213 28.5626 79.2501 28.3348 78.8366 28.0564C78.4232 27.7778 77.5629 27.362 76.9249 27.1323C75.3206 26.5543 72.8776 26.5315 71.2789 27.0794C68.6257 27.9887 66.6066 29.9913 65.6139 32.6982C65.1106 34.071 65.1106 36.9582 65.6139 38.3309C66.6066 41.0379 68.6257 43.0405 71.2789 43.9498C72.8776 44.4977 75.3206 44.4749 76.9249 43.8969C77.5629 43.6672 78.4232 43.2513 78.8366 42.9728C79.2501 42.6944 79.6213 42.4666 79.6613 42.4666C79.7015 42.4666 79.7342 44.9038 79.7342 47.8827V53.2987H72.8564C67.8691 53.2987 65.8618 53.3518 65.5538 53.4919C64.8902 53.7936 64.6673 54.4104 64.6673 55.9452V57.3142L65.416 58.1761C66.6199 59.5625 67.0165 60.5571 67.0165 62.1908C67.0165 63.3377 66.9458 63.7152 66.5896 64.4737C65.989 65.7517 65.1323 66.6283 63.8837 67.2415C62.9272 67.7115 62.6615 67.7686 61.4305 67.7686C60.2748 67.7686 59.9051 67.6995 59.159 67.3442C57.8375 66.7146 56.9797 65.8867 56.3712 64.653C55.8945 63.6868 55.8378 63.4254 55.8378 62.1942C55.8378 60.5568 56.2334 59.5634 57.4383 58.1761L58.187 57.3142V55.9607C58.187 55.2164 58.0998 54.4165 57.9934 54.1834C57.5948 53.3102 57.4905 53.2987 50.0136 53.2987H43.1201V47.8827C43.1201 44.9038 43.1572 42.4666 43.2026 42.4666C43.2478 42.4666 43.5836 42.6824 43.9486 42.9464C44.7979 43.5603 46.1979 44.0833 46.9923 44.0833C48.3423 44.0833 49.007 42.4035 48.0393 41.4377C47.8044 41.2032 47.531 41.0109 47.4318 41.0099C47.0103 41.0062 45.5674 40.1855 44.7674 39.4944L43.9037 38.7481H42.5474C41.8015 38.7481 41 38.835 40.7664 38.9413C39.8943 39.3377 39.8799 39.4636 39.8799 46.662V53.2987H33.0021C28.0148 53.2987 26.0075 53.3518 25.6996 53.4919C25.036 53.7936 24.813 54.4104 24.813 55.9452V57.3142L25.5617 58.1761C26.7656 59.5625 27.1622 60.5571 27.1622 62.1908C27.1622 63.3377 27.0915 63.7152 26.7353 64.4737C26.1347 65.7517 25.278 66.6283 24.0294 67.2415C23.0729 67.7115 22.8072 67.7686 21.5763 67.7686C20.4205 67.7686 20.0508 67.6995 19.3047 67.3442C17.9832 66.7146 17.1254 65.8867 16.5169 64.653C16.0402 63.6868 15.9835 63.4254 15.9835 62.1942C15.9835 60.5568 16.3792 59.5634 17.584 58.1761L18.3327 57.3142V55.9452C18.3327 54.4104 18.1098 53.7936 17.4462 53.4919C17.1382 53.3518 15.1309 53.2987 10.1436 53.2987H3.26582V47.8827C3.26582 44.9038 3.29855 42.4666 3.33873 42.4666C3.37874 42.4666 3.74991 42.6944 4.16335 42.9728C4.5768 43.2513 5.43707 43.6672 6.07506 43.8969C7.67944 44.4749 10.1224 44.4977 11.7211 43.9498C14.3743 43.0405 16.3934 41.0379 17.3861 38.3309C17.8894 36.9582 17.8894 34.071 17.3861 32.6982C16.3934 29.9913 14.3743 27.9887 11.7211 27.0794C10.1224 26.5315 7.67944 26.5543 6.07506 27.1323C5.43707 27.362 4.5768 27.7778 4.16335 28.0564C3.74991 28.3348 3.37874 28.5626 3.33873 28.5626C3.29855 28.5626 3.26582 26.1254 3.26582 23.1465V17.7304H10.1436C15.1309 17.7304 17.1382 17.6774 17.4462 17.5372C18.1098 17.2355 18.3327 16.6188 18.3327 15.084V13.7149L17.584 12.853C16.3801 11.4667 15.9835 10.4721 15.9835 8.83835C15.9835 7.69579 16.0547 7.31295 16.4049 6.56747C17.8125 3.57294 21.1442 2.37009 24.0616 3.80349ZM53.1825 39.2971C51.778 40.074 52.3656 42.3049 53.9747 42.3049C54.7956 42.3049 55.5948 41.5151 55.5948 40.7038C55.5948 39.49 54.2506 38.7062 53.1825 39.2971Z" fill="#E49B00"/>
</svg>
