<svg width="71" height="71" viewBox="0 0 71 71" fill="none" xmlns="http://www.w3.org/2000/svg">
<path fill-rule="evenodd" clip-rule="evenodd" d="M54.2128 0.0321585C53.9073 0.0622747 52.9773 0.152901 52.1463 0.233396C44.4581 0.977974 36.5281 3.97752 30.1007 8.5717L28.6213 9.62924L27.4015 9.30365C23.1147 8.15951 18.942 8.7778 14.931 11.1516C13.9717 11.7193 13.0303 12.5872 8.49769 17.0818C2.90298 22.6297 2.78538 22.7734 3.18707 23.5642C3.27844 23.7439 5.82829 26.3718 8.85342 29.4038L14.3538 34.9167L13.7576 39.363L13.1615 43.8092L13.4399 44.259C13.5931 44.5063 13.912 44.8938 14.1486 45.12L14.5788 45.5314L11.6204 48.5202C6.09807 54.0998 5.96228 54.2509 5.96228 54.8183C5.96228 55.3879 6.53337 56.1276 7.00366 56.167C7.86342 56.2392 7.9334 56.182 12.2736 51.858L16.5903 47.5576L20.0237 50.9914L23.457 54.4252L17.6117 60.2534C14.3967 63.4589 11.6846 66.2688 11.5845 66.4978C11.1914 67.3983 11.8209 68.3714 12.7966 68.3714C13.3251 68.3714 13.4737 68.2465 16.9086 64.9125C18.8686 63.01 21.5931 60.3276 22.9633 58.9514L25.4544 56.4494L26.0538 57.0016C26.3834 57.3054 26.8133 57.6148 27.009 57.6892C27.2703 57.7884 28.5256 57.6686 31.7324 57.2384L36.0999 56.6526L41.6157 62.1505C44.6493 65.1744 47.2786 67.7232 47.4584 67.8145C48.2496 68.216 48.3933 68.0984 53.9439 62.5064C58.4407 57.9759 59.3089 57.035 59.8769 56.0761C62.2518 52.067 62.8704 47.8963 61.7257 43.6116L61.4 42.3924L62.458 40.9136C67.0455 34.5018 69.8674 27.0774 70.8268 18.8948C71.0577 16.9253 71.0577 11.1493 70.8268 9.17986C70.4026 5.56147 69.683 2.28574 69.208 1.81096C68.7571 1.36033 65.4366 0.630875 61.9884 0.22493C60.6925 0.0722672 55.1874 -0.0641579 54.2128 0.0321585ZM62.3399 3.07417C63.2967 3.19395 64.7642 3.43113 65.6008 3.60114L67.1219 3.91007L67.4322 5.43476C68.0311 8.37699 68.2267 10.4989 68.2185 13.9679C68.208 18.4826 67.7345 21.8792 66.5451 25.9722C64.3853 33.405 60.458 39.9291 54.8901 45.3342C50.6134 49.4858 46.2321 52.3408 40.8271 54.4982L38.6882 55.3521L27.1718 43.8411L15.6554 32.3302L16.5096 30.1924C18.1464 26.0957 20.2835 22.4556 23.1014 18.9642C24.2533 17.5369 27.1656 14.56 28.5949 13.3485C35.9419 7.12182 44.8428 3.50982 54.5599 2.81201C56.0485 2.70515 60.6246 2.85934 62.3399 3.07417ZM25.3775 11.7013L25.9784 11.7822L24.1886 13.6036C19.5092 18.366 16.2067 23.3857 13.8822 29.2689C13.7087 29.7077 13.5267 30.0669 13.4778 30.0669C13.4288 30.0669 11.8107 28.4887 9.88175 26.5596L6.3748 23.0523L10.716 18.7388C13.1035 16.3664 15.4319 14.1747 15.8901 13.8687C18.8583 11.8853 21.7812 11.2176 25.3775 11.7013ZM45.0288 17.631C40.1305 18.9496 35.9255 20.1101 35.6846 20.2098C35.4437 20.3095 35.1498 20.5784 35.0315 20.8071C34.6461 21.5517 34.8555 21.9539 36.4729 23.5762L37.9577 25.0658L35.101 27.948C33.2088 29.8572 32.2218 30.9535 32.1777 31.1955C31.9984 32.1774 32.8486 33.0624 33.8018 32.8858C34.3977 32.7754 41.1645 26.014 41.2688 25.4247C41.3823 24.7833 41.1552 24.3865 40.0169 23.2373C39.2843 22.4979 39.0185 22.1455 39.1563 22.0967C39.7556 21.8843 52.3883 18.5516 52.4312 18.5944C52.4737 18.6369 49.1453 31.2341 48.9257 31.8624C48.8776 31.9996 48.523 31.7322 47.7854 31.0022C46.6359 29.8646 46.2389 29.6375 45.597 29.7506C45.0548 29.8462 33.6572 41.1762 33.5166 41.7595C33.2592 42.8272 34.1617 43.7279 35.225 43.4645C35.4761 43.4023 37.3786 41.6039 40.78 38.2137L45.953 33.0573L47.4448 34.5379C48.3264 35.4128 49.0938 36.0564 49.321 36.1115C49.8428 36.2382 50.5024 35.9415 50.746 35.4708C51.0392 34.904 55.8096 17.0145 55.8096 16.4816C55.8096 15.8151 55.1673 15.2143 54.4665 15.2253C54.1742 15.2299 49.9273 16.3124 45.0288 17.631ZM28.2204 34.9517C27.8868 35.1128 27.4841 35.8434 27.4841 36.2878C27.4841 36.7016 28.1235 37.3883 28.6078 37.4947C29.1636 37.6168 29.7356 37.3667 30.0263 36.8747C30.7417 35.6645 29.4944 34.3365 28.2204 34.9517ZM33.5532 54.1598C33.5371 54.1739 32.2832 54.3571 30.7665 54.5667L28.009 54.9478L22.0352 48.9768L16.0616 43.0061L16.4485 40.2014L16.8354 37.3968L25.2089 45.7654C29.8143 50.3682 33.5692 54.1456 33.5532 54.1598ZM59.4421 47.6925C59.4664 50.4954 58.8 52.6619 57.1584 55.1175C56.8522 55.5755 54.6596 57.9028 52.2861 60.2892L47.9705 64.6283L44.4616 61.123C42.5316 59.195 40.9526 57.5776 40.9526 57.5286C40.9526 57.4798 41.3118 57.2978 41.751 57.1245C47.686 54.7818 53.2164 51.1098 57.8229 46.4533L59.2114 45.0498L59.3192 45.5038C59.3785 45.7534 59.4337 46.7384 59.4421 47.6925ZM2.97699 57.3998C2.46255 57.6104 2.15014 58.0947 2.15014 58.6818C2.15014 59.1362 2.234 59.3149 2.60057 59.6422C2.84814 59.8634 3.20304 60.0444 3.38924 60.0444C4.87577 60.0444 5.39979 58.1085 4.08224 57.4835C3.58155 57.246 3.38868 57.2315 2.97699 57.3998ZM11.7246 57.4782C11.2526 57.7267 1.01337 67.8718 0.394235 68.7045C-0.151725 69.4385 -0.132564 69.9404 0.463799 70.5365C1.05988 71.1323 1.56197 71.1516 2.29663 70.6068C3.25775 69.8942 13.4385 59.575 13.5971 59.1528C14.0306 57.9978 12.8105 56.9066 11.7246 57.4782Z" fill="#E49B00"/>
</svg>
