<svg width="71" height="71" viewBox="0 0 71 71" fill="none" xmlns="http://www.w3.org/2000/svg">
<path fill-rule="evenodd" clip-rule="evenodd" d="M32.8293 0.0412889C32.5621 0.072371 31.75 0.165478 31.0247 0.248318C23.4148 1.11695 15.9858 4.76105 10.359 10.3855C4.73188 16.0103 1.31167 22.9553 0.186547 31.0423C-0.0901185 33.0306 -0.0518046 38.3497 0.253457 40.3392C1.48825 48.3869 4.80296 55.0262 10.359 60.5797C19.8357 70.0525 33.6848 73.384 46.4452 69.2606L47.9164 68.7852L49.1531 69.4015C54.892 72.261 61.7477 71.1976 66.3434 66.7349C71.1301 62.0868 72.3495 55.0771 69.4002 49.163L68.7837 47.9268L69.2593 46.4563C73.3851 33.699 70.0532 19.8599 60.5747 10.3855C55.0509 4.86401 48.3661 1.51408 40.4643 0.307707C39.0804 0.0963764 33.9092 -0.0840106 32.8293 0.0412889ZM40.2561 3.07901C47.2661 4.15966 53.5648 7.35321 58.5865 12.3728C61.2032 14.9884 63.1095 17.6206 64.7634 20.9021C66.3047 23.96 67.36 27.3039 67.8982 30.8342C68.2472 33.1245 68.2505 37.9696 67.9046 40.1311C67.562 42.2706 66.8305 45.1958 66.638 45.1958C66.55 45.1958 66.2626 44.9725 65.9994 44.6996C65.7364 44.4268 65.1307 43.924 64.6534 43.5825C64.1763 43.2411 63.7858 42.9277 63.7858 42.8864C63.7858 42.8449 63.9078 42.208 64.0571 41.4711C64.2063 40.7341 64.3954 39.5857 64.4771 38.9193C64.6691 37.3556 64.6695 33.6126 64.4778 32.0517C63.696 25.6841 60.9038 19.7934 56.5152 15.2524C52.2576 10.847 46.752 7.88521 40.7011 6.74502C38.7481 6.37704 34.2166 6.23064 32.1863 6.47C29.2147 6.82037 26.2773 7.62004 23.5715 8.81573C21.6981 9.64357 19.4832 10.9351 19.0983 11.424C18.6979 11.9331 18.7252 12.6057 19.168 13.1317C19.7225 13.7904 20.3605 13.7289 21.7739 12.8804C24.122 11.4709 26.3758 10.5264 28.873 9.90499C31.4436 9.26545 32.1825 9.18746 35.6057 9.1944C38.5953 9.20065 39.0131 9.23201 40.606 9.57044C42.823 10.0414 45.2551 10.8748 47.197 11.8289C54.9936 15.6596 60.4061 23.1282 61.6316 31.7467C62.0095 34.404 61.8374 39.1289 61.2886 41.1661L61.1487 41.6853L60.0567 41.3692C54.7496 39.8326 49.127 41.2882 45.1975 45.216C41.301 49.1109 39.828 54.789 41.3508 60.0444C41.7088 61.2799 41.7724 61.1629 40.6031 61.4178C38.3822 61.9018 34.2862 62.0037 31.7741 61.6375C23.0545 60.3662 15.6388 55.0081 11.803 47.2078C10.8485 45.2667 10.0148 42.8356 9.54361 40.6196C9.20503 39.0274 9.17365 38.6097 9.16741 35.6214C9.16047 32.1997 9.23848 31.4611 9.8783 28.8916C10.4999 26.3954 11.4449 24.1427 12.855 21.7955C13.7039 20.3827 13.7654 19.745 13.1064 19.1908C12.5801 18.7481 11.9073 18.7208 11.3979 19.1211C10.5335 19.8009 8.54328 23.7695 7.64513 26.6045C6.58788 29.9417 6.2525 32.4735 6.35217 36.3647C6.43102 39.4418 6.68339 41.149 7.43273 43.6727C8.87617 48.534 11.2329 52.4859 14.8434 56.0995C19.4186 60.6788 25.0078 63.4692 31.4948 64.4128C34.4413 64.8414 38.8964 64.659 41.8264 63.9897C42.3084 63.8796 42.758 63.7895 42.8259 63.7895C42.8936 63.7895 43.2286 64.1798 43.5702 64.6567C43.9119 65.1338 44.4148 65.7392 44.6877 66.0022C44.9608 66.2652 45.1841 66.5525 45.1841 66.6404C45.1841 66.8375 42.198 67.5855 40.1173 67.9097C37.9368 68.2494 33.0772 68.2444 30.8164 67.9001C23.6907 66.8149 17.403 63.6462 12.3472 58.5924C8.10795 54.3551 5.20039 49.2869 3.74613 43.6C2.97402 40.5808 2.78689 38.9974 2.78689 35.4826C2.78689 33.1662 2.85117 31.9488 3.0358 30.7648C5.40737 15.564 17.4696 4.25111 32.8293 2.82216C34.0917 2.70463 38.9086 2.87128 40.2561 3.07901ZM34.6015 11.882C34.1583 12.2775 34.147 12.3166 34.1005 13.6029C34.0639 14.6121 34.106 15.0312 34.2806 15.3992C34.6978 16.2779 35.7679 16.4705 36.4493 15.7895C36.8468 15.3919 36.855 15.3543 36.855 13.9071C36.855 12.2848 36.7658 11.998 36.1637 11.6868C35.5592 11.3743 35.1068 11.4309 34.6015 11.882ZM14.7722 14.9356C14.0894 15.6183 14.2394 16.6726 15.0815 17.1078C16.2649 17.7196 17.5583 16.4293 16.9467 15.2471C16.5099 14.403 15.456 14.252 14.7722 14.9356ZM49.2793 19.7894C49.0502 19.934 46.433 22.4877 43.4632 25.4643L38.0636 30.8762L37.4246 30.5866C36.5078 30.1711 34.4103 30.1658 33.5234 30.5768L32.8987 30.8664L29.9702 27.971L27.0415 25.0757H26.4145C25.5372 25.0757 25.0555 25.5572 25.0555 26.4341V27.0609L27.952 29.9883L30.8486 32.9156L30.5607 33.54C30.1339 34.4659 30.1532 36.3643 30.6011 37.4946C31.495 39.7507 34.2198 41.1704 36.5957 40.6177C38.2535 40.2321 39.7409 38.9794 40.3453 37.4595C40.7776 36.3723 40.7864 34.4641 40.3633 33.5257L40.0752 32.887L45.554 27.4203C48.5672 24.4137 51.1222 21.785 51.2318 21.5789C51.6032 20.88 51.3768 20.0642 50.7168 19.723C50.1994 19.4556 49.7768 19.4751 49.2793 19.7894ZM36.5816 33.2972C38.4033 34.217 38.4033 36.7482 36.5816 37.6681C36.2415 37.8399 35.7399 37.9803 35.4669 37.9803C35.1938 37.9803 34.6922 37.8399 34.3521 37.6681C32.5304 36.7482 32.5304 34.217 34.3521 33.2972C34.6922 33.1254 35.1938 32.985 35.4669 32.985C35.7399 32.985 36.2415 33.1254 36.5816 33.2972ZM12.1106 34.2449C11.7918 34.4305 11.4513 35.1007 11.4513 35.543C11.4513 35.7363 11.6335 36.0984 11.8562 36.3476C12.2518 36.7906 12.291 36.8019 13.5778 36.8484C14.5874 36.8849 15.0067 36.8429 15.3748 36.6683C16.254 36.2513 16.4466 35.1816 15.7653 34.5006C15.3661 34.1017 15.3351 34.095 13.8566 34.0992C13.0299 34.1015 12.2442 34.167 12.1106 34.2449ZM55.5099 34.3082C54.6749 34.7326 54.5055 35.802 55.1684 36.4646C55.5673 36.8634 55.5993 36.8702 57.0771 36.8672C58.2912 36.8647 58.637 36.8179 58.8762 36.6243C59.5863 36.0494 59.664 35.2741 59.0777 34.6176C58.6783 34.1705 58.6544 34.1638 57.3077 34.1262C56.2769 34.0975 55.8367 34.1421 55.5099 34.3082ZM14.6128 42.7757C13.37 43.4499 13.9665 45.4733 15.4081 45.4733C15.9263 45.4733 16.7265 44.6602 16.7258 44.1343C16.7251 43.6052 16.2548 42.8618 15.8149 42.6946C15.3368 42.5129 15.0632 42.5313 14.6128 42.7757ZM58.0225 43.7423C59.4761 43.9956 60.9375 44.5425 62.2982 45.3422C63.5983 46.1062 65.6229 48.1327 66.4099 49.4579C68.8113 53.5011 68.8119 58.2511 66.4114 62.3026C65.635 63.6129 63.6091 65.6379 62.2982 66.414C58.3272 68.7648 53.6737 68.8116 49.6585 66.5412C48.2536 65.7467 46.1307 63.6684 45.3292 62.3026C42.9353 58.2232 42.9363 53.5209 45.332 49.4579C46.1069 48.1438 48.1335 46.1181 49.4481 45.3435C52.1312 43.7629 55.0325 43.2211 58.0225 43.7423ZM54.97 46.3408C54.7281 46.5488 54.581 46.8438 54.5301 47.2237C54.4575 47.7649 54.4133 47.8108 53.6711 48.1176C52.7239 48.5091 51.6278 49.5615 51.1504 50.538C50.6777 51.5047 50.6726 53.2818 51.1397 54.2451C51.95 55.916 53.4293 56.9086 55.4775 57.1561C56.7716 57.3125 57.5191 57.6296 57.8753 58.1729C58.7682 59.535 57.6903 61.1531 55.8901 61.1531C54.6413 61.1531 53.7474 60.4987 53.5674 59.4527C53.4295 58.6521 53.2049 58.2304 52.8065 58.0245C51.6321 57.4174 50.6058 58.2927 50.7789 59.7535C50.9611 61.2904 52.2054 62.8982 53.6868 63.5106C54.3985 63.8048 54.485 63.8841 54.485 64.242C54.485 64.5006 54.6294 64.7876 54.8907 65.049C55.6916 65.8495 57.0316 65.4473 57.2065 64.354C57.2833 63.8744 57.3559 63.8014 58.0365 63.5195C59.0491 63.0999 60.0699 62.1104 60.5494 61.0837C60.8665 60.4046 60.9384 60.0587 60.9391 59.2075C60.9399 58.3088 60.8772 58.0363 60.4875 57.2452C59.6839 55.6134 58.3093 54.7121 56.2437 54.4625C54.4483 54.2455 53.7014 53.7238 53.563 52.59C53.4212 51.4292 54.4482 50.4753 55.844 50.4708C57.1042 50.4669 57.9979 51.1169 58.1789 52.169C58.3168 52.9696 58.5414 53.3913 58.9398 53.5972C59.5775 53.9269 60.0158 53.8485 60.5563 53.3082C61.0303 52.8345 61.0444 52.7905 60.9666 52.0362C60.7921 50.3457 59.597 48.7488 58.0164 48.0939C57.4032 47.8398 57.2614 47.7195 57.2614 47.4528C57.2614 47.0134 56.9049 46.3476 56.5749 46.1712C56.1139 45.9245 55.3618 46.0039 54.97 46.3408ZM17.4357 47.6096C16.6456 48.0473 16.5389 48.8894 17.1557 49.8202C17.7629 50.7364 19.7697 52.7312 21.2221 53.8622C23.4783 55.6189 26.703 57.2682 27.4937 57.0698C28.3774 56.8482 28.8247 55.6746 28.3071 54.9358C28.1868 54.7642 27.4887 54.3435 26.7557 54.0011C24.41 52.9055 22.8471 51.7589 20.5868 49.4758C18.4208 47.288 18.2253 47.1721 17.4357 47.6096ZM34.4844 55.1757C34.0869 55.5733 34.0787 55.6109 34.0787 57.0582C34.0787 58.6804 34.1679 58.9672 34.77 59.2784C35.3745 59.5909 35.8269 59.5343 36.3322 59.0832C36.7754 58.6877 36.7867 58.6486 36.8332 57.3623C36.8697 56.3531 36.8277 55.9341 36.6531 55.5661C36.2359 54.6873 35.1658 54.4947 34.4844 55.1757Z" fill="#E49B00"/>
</svg>
