<svg width="69" height="71" viewBox="0 0 69 71" fill="none" xmlns="http://www.w3.org/2000/svg">
<path fill-rule="evenodd" clip-rule="evenodd" d="M36.5736 0.142368C36.204 0.247616 34.9614 1.40909 31.2833 5.08721C28.6394 7.73116 26.3822 10.0737 26.2673 10.2926C25.7051 11.3651 26.8159 12.6111 27.9519 12.1822C28.1832 12.0949 30.3675 10.0165 32.9865 7.39143L37.6125 2.75498L41.7389 6.90194L45.8651 11.049L45.2942 12.1516C44.5897 13.512 44.3077 14.6704 44.3077 16.2038C44.3077 17.73 44.5893 18.8949 45.2815 20.2315C46.2989 22.1963 48.1013 23.7234 50.2594 24.4496C51.2083 24.7688 51.6566 24.8384 52.7926 24.8426C54.4787 24.8487 55.5872 24.5779 56.9919 23.8167L58.0208 23.2592L62.1679 27.4253L66.3151 31.5915L61.6714 36.2736C57.5364 40.4428 57.0097 41.0234 56.8641 41.5739C56.6333 42.4463 56.7658 43.0232 57.5408 44.5207C58.3402 46.0651 58.5092 46.9794 58.2629 48.4303C58.0529 49.6683 57.4329 50.8224 56.5034 51.7055C54.4993 53.6096 51.727 53.8757 49.2727 52.3996C48.1867 51.7464 47.5482 51.6101 46.6791 51.8459C46.0905 52.0057 45.6271 52.4236 41.7832 56.2612L37.5372 60.5002L36.0906 59.0519L34.644 57.6035L38.488 53.717C42.7384 49.4196 42.7852 49.3531 42.7852 47.6118C42.7852 46.3753 42.4528 45.5392 41.6248 44.6937C41.2381 44.2987 40.7975 43.9084 40.6456 43.8262C40.382 43.6836 40.3925 43.6531 40.879 43.1484C42.1316 41.8491 42.4595 39.9263 41.7023 38.3211C41.3303 37.5324 40.5476 36.6659 39.8856 36.31L39.5844 36.1481L39.8667 35.8462C40.8433 34.8019 41.0866 32.7093 40.3965 31.292C39.9406 30.3557 39.1538 29.6079 38.129 29.1365C37.4673 28.8323 37.2326 28.7967 36.2363 28.8491C35.3016 28.8984 34.9795 28.9794 34.4294 29.3032L33.7601 29.6973L33.5449 29.3651C32.6873 28.0408 31.6186 27.401 30.131 27.3211C28.2281 27.2188 28.154 27.2677 24.1277 31.2849L20.5847 34.8195L20.2963 34.2514C19.152 31.9982 16.1124 31.193 14.0164 32.5878C13.676 32.8143 13.0713 33.4034 12.6728 33.897L11.948 34.7943L10.3891 33.2327L8.83033 31.6712L14.4026 26.0522C18.6777 21.7412 19.992 20.3364 20.0486 20.0171C20.2318 18.9857 19.2631 18.0979 18.3022 18.4165C18.0017 18.5161 16.0282 20.4092 12.1154 24.3513C6.00892 30.5034 6.06592 30.4339 6.072 31.7345C6.076 32.5953 6.53993 33.2784 8.33106 35.0604C9.28805 36.0126 10.0711 36.8397 10.0711 36.8984C10.0711 36.9572 8.81183 38.5182 7.27289 40.3671C5.73381 42.2162 4.17044 44.1954 3.79886 44.7654C1.72103 47.9515 1.09146 51.1458 2.00041 53.8907L2.38069 55.0391L1.32998 56.1238C0.752033 56.7203 0.215219 57.3776 0.136953 57.5844C-0.0470457 58.0705 -0.0453893 59.0653 0.140404 59.5627C0.357256 60.1435 10.5647 70.3921 11.2444 70.7115C12.531 71.3161 13.3168 71.0281 15.1067 69.2961L16.5399 67.9095L17.4811 68.2027C18.5584 68.5387 20.2336 68.5982 21.3209 68.3395C22.4318 68.075 24.6732 66.9076 26.014 65.8952C26.6973 65.3792 28.485 63.7405 29.9865 62.2534L32.7168 59.5495L34.3346 61.1586C35.2245 62.0437 36.1512 62.8677 36.3942 62.9897C36.9125 63.2501 38.0532 63.2808 38.6031 63.0491C38.8154 62.9595 40.8837 60.9957 43.1993 58.6851L47.4093 54.4838L48.0674 54.8976C49.0876 55.5389 50.692 56.0259 52.049 56.1059C56.2321 56.3527 60.0638 53.4027 60.9368 49.2636C61.3564 47.2734 61.0983 45.415 60.1355 43.4978L59.532 42.2958L64.0051 37.8125C66.4653 35.3466 68.5982 33.0975 68.7449 32.8147C69.0841 32.1604 69.0852 31.1428 68.7474 30.4171C68.5778 30.0523 66.9367 28.3133 63.9538 25.3371C60.3963 21.7878 59.3031 20.775 58.8845 20.641C58.0575 20.3764 57.1339 20.5302 56.2025 21.0876C54.2409 22.2615 52.3814 22.4082 50.4336 21.5429C49.5677 21.1581 48.4854 20.1856 47.9102 19.2756C46.7437 17.4295 46.7804 14.9823 48.005 12.9467C48.6457 11.8819 48.7681 10.7283 48.3305 9.88313C47.9243 9.09841 39.2656 0.463242 38.614 0.192843C38.0402 -0.045386 37.2976 -0.0636899 36.5736 0.142368ZM22.2594 14.1936C21.7902 14.5237 21.6112 15.249 21.8545 15.8341C22.0968 16.4164 22.4319 16.6198 23.1494 16.6198C23.5558 16.6198 23.7742 16.5261 24.0557 16.2309C24.8782 15.3685 24.3019 13.9852 23.1202 13.9852C22.8097 13.9852 22.4223 14.0789 22.2594 14.1936ZM30.6458 30.2133C30.9943 30.4006 31.3283 31.0637 31.3283 31.5681C31.3283 31.7949 31.1539 32.2059 30.9283 32.511C30.7083 32.8084 28.5653 35.017 26.1661 37.4189C21.8816 41.7086 21.804 41.7961 21.804 42.3455C21.804 42.653 21.8947 43.0348 22.0055 43.1938C22.2824 43.5909 22.9599 43.8499 23.4233 43.7356C23.6788 43.6725 25.7965 41.6461 29.8151 37.6186C35.7133 31.7076 35.8349 31.5958 36.3717 31.5963C37.4492 31.5973 38.264 32.5391 38.027 33.5098C37.9675 33.7536 35.8472 35.9868 31.9404 39.9209C26.1568 45.7449 25.945 45.9766 25.945 46.482C25.945 47.1506 26.1274 47.4865 26.6324 47.749C27.5475 48.2244 27.4533 48.2961 32.4242 43.3322C35.5874 40.1734 37.1815 38.6761 37.4503 38.6115C38.4247 38.3771 39.3343 39.146 39.3343 40.2039V40.796L34.7102 45.4603C30.2823 49.9268 30.086 50.1469 30.086 50.6454C30.086 51.3189 30.2695 51.6471 30.7994 51.9225C31.6306 52.3543 31.8639 52.1952 34.9927 49.0644L37.8996 46.1558H38.5586C39.1028 46.1558 39.2878 46.2263 39.621 46.5611C39.9549 46.8965 40.0245 47.0812 40.0245 47.6324V48.2983L33.5024 54.8629C26.5814 61.8291 24.9999 63.3103 23.2869 64.4307C21.1976 65.7973 19.3253 66.0569 17.4256 65.2433C15.9064 64.5928 15.7935 64.6332 13.9111 66.501L12.273 68.1262L7.515 63.3479L2.75697 58.5696L4.05932 57.2507C4.82472 56.4755 5.40046 55.7706 5.45609 55.541C5.52745 55.246 5.42683 54.885 5.04627 54.0701C4.41725 52.7238 4.23076 51.6614 4.41752 50.4873C4.68324 48.8165 5.28755 47.4431 6.50639 45.7398C7.47967 44.3796 14.9415 35.4479 15.4963 34.9791C16.3064 34.2942 17.6147 34.7582 17.9234 35.8398C18.1023 36.4663 17.8513 37.0307 16.6967 38.5984C14.8106 41.1592 14.6262 41.4587 14.6262 41.9601C14.6262 42.6289 15.2536 43.2438 15.936 43.2438C16.6661 43.2438 16.8631 43.0921 17.7816 41.8227C18.3094 41.0932 20.5283 38.756 23.9034 35.3744L29.1971 30.0705H29.7887C30.1141 30.0705 30.4997 30.1347 30.6458 30.2133Z" fill="#E49B00"/>
</svg>
