<svg width="71" height="71" viewBox="0 0 71 71" fill="none" xmlns="http://www.w3.org/2000/svg">
<path fill-rule="evenodd" clip-rule="evenodd" d="M0.704049 0.207018C-0.03553 0.616716 0.00565787 -1.11718 0.000249361 29.9197C-0.00349499 52.0136 0.0342259 58.8714 0.161118 59.1497C0.526123 59.9508 -0.630743 59.9083 20.8456 59.9083H40.6002L43.68 65.2502C46.8487 70.7464 47.0329 71 47.8557 71C48.2074 71 57.0396 65.9691 57.5128 65.4992C58.0947 64.9215 57.9541 64.3702 56.646 62.103C55.9977 60.9791 55.4673 60.0256 55.4673 59.9841C55.4673 59.9423 58.7154 59.9083 62.6855 59.9083C70.5162 59.9083 70.4867 59.9111 70.8337 59.1497C70.9604 58.8716 70.9994 52.011 70.9994 29.9475C70.9994 -1.42609 71.0497 0.54767 70.2405 0.179151C69.6775 -0.0773437 1.16765 -0.0498919 0.704049 0.207018ZM68.2258 6.94575V11.1051H35.4974H2.76899V6.94575V2.78638H35.4974H68.2258V6.94575ZM8.19275 5.75284C6.99054 6.41903 7.49353 8.3322 8.87089 8.3322C9.57358 8.3322 10.2577 7.65492 10.2577 6.9592C10.2577 5.91825 9.10707 5.24609 8.19275 5.75284ZM14.8494 5.75284C13.6472 6.41903 14.1502 8.3322 15.5275 8.3322C16.2302 8.3322 16.9143 7.65492 16.9143 6.9592C16.9143 5.91825 15.7637 5.24609 14.8494 5.75284ZM21.506 5.75284C20.3038 6.41903 20.8068 8.3322 22.1841 8.3322C22.8868 8.3322 23.5709 7.65492 23.5709 6.9592C23.5709 5.91825 22.4203 5.24609 21.506 5.75284ZM34.8192 5.75173C33.8754 6.27789 33.926 7.77291 34.9015 8.17623C35.1883 8.29491 38.8609 8.32707 48.9961 8.29976L62.7027 8.26288L63.0374 7.87384C63.4913 7.34629 63.4913 6.5452 63.0374 6.01765L62.7027 5.62861L48.9267 5.5977C37.6647 5.5726 35.0902 5.60061 34.8192 5.75173ZM68.2258 35.508V57.1379L60.987 57.102L53.7482 57.0661L52.132 54.2932C51.2429 52.7681 50.5361 51.482 50.5611 51.4353C50.5859 51.3886 51.3776 50.9058 52.3203 50.3626C54.0806 49.3483 54.3578 49.0657 54.3578 48.2864C54.3578 47.7289 54.0368 47.3615 53.0713 46.8144L52.2083 46.3254L56.4662 46.3232C59.4678 46.3218 60.8313 46.2723 61.0877 46.1554C61.8647 45.8014 61.8465 46.0561 61.8465 35.5067C61.8465 24.9573 61.8647 25.212 61.0877 24.8581C60.8168 24.7347 58.2629 24.6924 51.0854 24.6924C40.6234 24.6924 40.8707 24.6746 40.5169 25.451C40.3074 25.9108 40.3074 26.2469 40.5169 26.7066C40.8687 27.4787 40.6957 27.4653 50.2598 27.4653H59.0729V35.5067V43.5482H53.2415H47.41L42.0431 40.45C35.8578 36.8796 35.8831 36.8932 35.4974 36.8932C35.0389 36.8932 34.4574 37.2545 34.2763 37.6519C34.1655 37.8949 34.1106 38.9323 34.1106 40.7818V43.5482H23.0162H11.9218V35.5067V27.4653H20.7349C30.2991 27.4653 30.126 27.4787 30.4779 26.7066C30.6874 26.2469 30.6874 25.9108 30.4779 25.451C30.1241 24.6745 30.3725 24.6924 19.8959 24.6924C9.41937 24.6924 9.66775 24.6745 9.31398 25.451C9.19055 25.7218 9.14825 28.2906 9.14825 35.5202C9.14825 46.055 9.13023 45.8016 9.90711 46.1554C10.18 46.2798 13.2444 46.3211 22.1907 46.3211H34.1106V51.7283V57.1354H18.4398H2.76899V35.5067V13.878H35.4974H68.2258V35.508ZM34.8192 24.8859C33.617 25.5521 34.12 27.4653 35.4974 27.4653C36.2001 27.4653 36.8842 26.788 36.8842 26.0923C36.8842 25.0513 35.7336 24.3792 34.8192 24.8859ZM43.6803 44.5916C49.3544 47.8578 50.1478 48.3543 49.9446 48.5127C49.8168 48.6122 49.2573 48.9454 48.7016 49.2529C47.5883 49.8692 47.2248 50.292 47.2436 50.9495C47.252 51.2524 48.3569 53.2907 50.8761 57.6513C52.8673 61.0979 54.4965 63.9686 54.4965 64.0304C54.4965 64.2197 48.3713 67.7054 48.2577 67.5809C48.1993 67.5169 46.6058 64.7817 44.7164 61.5028C42.8272 58.2238 41.1647 55.3739 41.022 55.1697C40.8793 54.9655 40.5431 54.7261 40.2749 54.6376C39.7364 54.4599 39.6503 54.4909 37.8203 55.5224L36.8842 56.0501V48.4012C36.8842 42.9917 36.928 40.7668 37.0338 40.802C37.1161 40.8295 40.107 42.5348 43.6803 44.5916Z" fill="#E49B00"/>
</svg>
