<svg width="74" height="71" viewBox="0 0 74 71" fill="none" xmlns="http://www.w3.org/2000/svg">
<path fill-rule="evenodd" clip-rule="evenodd" d="M55.178 0.0902749C51.0964 0.725785 47.2269 3.01905 44.7976 6.24254C43.2555 8.28889 42.0969 10.9809 41.7228 13.3866L41.5599 14.4335L29.8723 14.4726L18.1846 14.5118L17.7495 14.9987C17.375 15.4179 17.3251 15.5655 17.3916 16.0606C17.434 16.3767 17.6045 16.7713 17.7706 16.9374C18.0714 17.2381 18.1191 17.2396 29.8013 17.3111L41.5299 17.3828L41.7044 18.4243C41.8003 18.9971 41.9196 19.5946 41.9696 19.7522C42.0601 20.0373 41.9816 20.0386 24.3771 20.0386H6.69378L6.20564 20.5267L5.71749 21.0147V35.1691V49.3235H4.28177H2.84606V34.3503V19.3771L3.26055 18.7236C3.74467 17.9602 4.51838 17.5306 5.75411 17.3389C6.70929 17.1908 7.11172 16.8887 7.23591 16.227C7.35752 15.579 7.04597 14.9953 6.41367 14.6862C5.95755 14.4633 5.76372 14.4501 4.91981 14.5849C2.94569 14.9002 1.34056 16.0403 0.517462 17.7122L0.046403 18.6687L0.00806929 36.1135C-0.0179172 47.8842 0.0186936 53.7947 0.120343 54.2854C0.516457 56.1962 1.71729 57.7645 3.39149 58.5577L4.35356 59.0133L14.6971 59.0536L25.0407 59.094L24.4921 63.432C24.1905 65.818 23.9151 67.8509 23.8801 67.9495C23.8321 68.0852 23.0996 68.1289 20.8798 68.1289H17.9431L17.5014 68.5006C17.1445 68.8009 17.0597 68.9819 17.0597 69.4432C17.0597 69.7571 17.1295 70.1444 17.2147 70.3038C17.5907 71.0062 17.4677 71 30.9958 71C42.1206 71 43.7055 70.9732 44.1172 70.7778C44.9993 70.3592 45.1876 69.2431 44.493 68.5485C44.074 68.1297 44.0703 68.1289 42.2835 68.1289H40.4939L40.4098 67.6624C40.3636 67.4057 40.1301 65.6132 39.8911 63.6788C39.652 61.7444 39.4189 59.9213 39.3729 59.6274L39.2895 59.0931L48.5977 59.0495C55.5703 59.0167 58.0383 58.9608 58.4337 58.8263C59.4411 58.4836 60.6619 57.5359 61.2715 56.6231C62.4105 54.9177 62.3486 55.682 62.3964 42.72L62.439 31.164L63.4028 30.7711C68.2922 28.7775 71.7774 24.7242 73.0827 19.5132C73.3491 18.4496 73.3993 17.8607 73.3927 15.8755C73.3858 13.8056 73.3386 13.3336 73.0181 12.1325C72.2242 9.1571 70.8531 6.74842 68.7641 4.65986C65.7983 1.69434 62.1645 0.128173 57.9777 0.0106029C56.9117 -0.0193997 55.6518 0.0164885 55.178 0.0902749ZM60.734 3.2249C65.424 4.45358 69.0929 8.19371 70.2811 12.9572C70.6631 14.4888 70.6264 17.6069 70.2079 19.1773C68.0524 27.2638 59.0075 31.3896 51.6605 27.638C51.0683 27.3355 50.3899 26.9558 50.153 26.7942C49.7407 26.513 49.5214 26.5003 45.0203 26.4995C42.4343 26.4989 40.3183 26.4431 40.3183 26.3755C40.3183 26.3078 41.3228 25.2975 42.5503 24.1304C43.778 22.9633 44.8763 21.8268 44.991 21.6049C45.2668 21.0717 45.2525 20.7209 44.9105 19.6302C44.4457 18.1476 44.276 16.2099 44.4654 14.5452C45.1277 8.72228 49.3977 4.12513 55.178 3.01202C56.5618 2.74558 59.3059 2.85066 60.734 3.2249ZM57.99 10.9346C57.6017 11.2613 57.3797 11.8275 56.1125 15.7208C55.3222 18.1494 54.6755 20.3672 54.6755 20.649C54.6755 21.311 55.3246 21.9048 56.0482 21.9048C57.0519 21.9048 57.2364 21.5602 58.8286 16.7113C59.624 14.2891 60.2748 12.1766 60.2748 12.0167C60.2748 11.2428 59.5791 10.5641 58.7854 10.5641C58.5902 10.5641 58.2322 10.7307 57.99 10.9346ZM49.0643 12.7798C46.8085 15.0917 46.4919 15.5009 46.4919 16.1052C46.4919 16.6661 46.888 17.1641 49.2491 19.572C50.8578 21.2126 51.0101 21.3306 51.5212 21.3306C51.9013 21.3306 52.2047 21.2167 52.5109 20.9589C52.8825 20.6462 52.9527 20.4856 52.9527 19.9476C52.9527 19.3398 52.8902 19.2423 51.6954 17.9865C49.6268 15.8125 49.6623 16.2827 51.4285 14.4506C52.8751 12.9501 52.9527 12.8388 52.9527 12.263C52.9527 11.3988 52.4138 10.8512 51.5636 10.8512C50.9602 10.8512 50.9037 10.8947 49.0643 12.7798ZM62.4716 11.1055C62.0616 11.4278 61.829 12.0649 61.9482 12.5396C62.0001 12.7468 62.7137 13.6246 63.5339 14.4904L65.025 16.0645L64.5547 16.5801C64.296 16.8638 63.6505 17.5479 63.1204 18.1006C62.5902 18.6533 62.095 19.2703 62.0198 19.4717C61.6856 20.3663 62.3601 21.3306 63.3201 21.3306C63.8119 21.3306 63.9987 21.223 64.7551 20.5051C65.2335 20.0512 66.2624 18.9872 67.0417 18.1408C68.2803 16.7954 68.4584 16.5377 68.4584 16.092C68.4584 15.5055 68.2122 15.1995 65.5975 12.5379C64.0233 10.9357 63.9115 10.8513 63.3639 10.8543C63.0394 10.8562 62.6492 10.966 62.4716 11.1055ZM11.9319 14.5406C11.436 14.6367 10.8861 15.3879 10.8861 15.9694C10.8861 16.6901 11.5307 17.3111 12.2789 17.3111C12.9989 17.3111 13.4229 17.0003 13.6254 16.3243C13.8398 15.6092 13.5165 14.9353 12.8194 14.644C12.5508 14.5319 12.3128 14.4488 12.2905 14.4595C12.2683 14.4703 12.1069 14.5068 11.9319 14.5406ZM37.4768 25.1093C35.5071 27.0935 35.2933 27.3575 35.2933 27.8048C35.2933 28.0776 35.3987 28.4512 35.5275 28.635C36.0237 29.3434 36.2798 29.3695 42.7382 29.3695H48.7566L49.9573 30.0069C50.6177 30.3575 51.7395 30.8391 52.4502 31.0773L53.7423 31.5104V40.3811V49.2517H31.2015H8.66072L8.62411 36.0807L8.5875 22.9096H24.1238H39.6602L37.4768 25.1093ZM14.5196 26.3542C14.0596 26.5426 13.6995 27.1763 13.7163 27.7681C13.7272 28.1545 13.8437 28.3858 14.1772 28.6838L14.6235 29.0824H21.7391H28.8547L29.2743 28.6628C29.8251 28.1122 29.856 27.277 29.3476 26.686L29.0011 26.2832L21.9177 26.2543C17.9905 26.2384 14.694 26.2829 14.5196 26.3542ZM59.5222 40.5308L59.4852 49.2517L58.0854 49.2927L56.6855 49.3338V40.6503V31.9666L57.6546 31.9165C58.1876 31.8888 58.8342 31.8536 59.0915 31.8381L59.5591 31.81L59.5222 40.5308ZM18.1134 32.23C17.3066 32.7241 17.2096 33.7995 17.9146 34.4298L18.3564 34.8246H31.5604H44.7645L45.2301 34.4086C45.8585 33.8473 45.8883 33.0075 45.301 32.4201L44.9062 32.0253L31.7366 31.9887C18.9298 31.9531 18.5547 31.9597 18.1134 32.23ZM18.7244 37.9148C18.1356 38.2219 17.9309 38.5456 17.9257 39.1781C17.9223 39.5976 18.0203 39.8267 18.3408 40.1471L18.7604 40.5667H24.5652H30.3699L30.7441 40.22C31.2568 39.7449 31.3659 39.2139 31.0759 38.6056C30.6532 37.7195 30.4802 37.6955 24.4941 37.6965C19.993 37.6972 19.0751 37.732 18.7244 37.9148ZM34.8044 37.9101C34.2139 38.2248 34.0109 38.5471 34.0058 39.1781C34.0023 39.5976 34.1004 39.8267 34.4208 40.1471L34.8405 40.5667H37.5905H40.3404L40.7601 40.1471C41.333 39.5743 41.3332 38.8769 40.7611 38.2363L40.3426 37.7674L37.782 37.7275C35.6896 37.6951 35.1453 37.7284 34.8044 37.9101ZM14.619 43.6253C13.9157 43.8651 13.5224 44.6634 13.7571 45.3744C14.0793 46.3506 13.6899 46.3088 22.4821 46.3088H30.4249L30.7715 45.9623C31.2825 45.4514 31.3706 44.9167 31.0443 44.3077C30.8614 43.9663 30.6035 43.7398 30.2681 43.6253C29.5547 43.3819 15.3326 43.3819 14.619 43.6253ZM59.5119 53.1216C59.3748 54.5891 58.7685 55.5275 57.6572 55.9918C57.184 56.1896 54.2781 56.214 31.2275 56.214C12.325 56.214 5.19776 56.1701 4.84156 56.0514C3.6759 55.6631 2.84606 54.3171 2.84606 52.8144V52.1945H31.2223H59.5985L59.5119 53.1216ZM36.4482 59.2645C36.4516 59.3633 36.6982 61.3669 36.9961 63.7171C37.294 66.0672 37.5066 68.0214 37.4684 68.0596C37.3194 68.2085 26.8226 68.1294 26.8226 67.9794C26.8226 67.7393 27.8326 59.7638 27.9081 59.4081L27.9766 59.0851H32.2092C35.4963 59.0851 36.4433 59.1251 36.4482 59.2645ZM48.9216 68.5485C48.6176 68.8524 48.5019 69.1067 48.5019 69.4706C48.5019 70.0616 49.0362 70.7792 49.5771 70.915C50.1356 71.0551 50.9049 70.6582 51.176 70.09C51.853 68.6701 50.04 67.4304 48.9216 68.5485Z" fill="#E49B00"/>
</svg>
