<svg width="78" height="71" viewBox="0 0 78 71" fill="none" xmlns="http://www.w3.org/2000/svg">
<path fill-rule="evenodd" clip-rule="evenodd" d="M32.1371 0.1532C31.2336 0.474785 31.0317 1.0819 31.1338 3.16937C31.1812 4.13565 31.2649 5.12592 31.3197 5.37005C31.4126 5.78253 31.3938 5.80621 31.0544 5.70523C29.4267 5.22125 27.4534 5.53901 26.0409 6.51278C24.3027 7.71097 23.5005 9.46983 23.6483 11.7577C23.7269 12.9738 23.7097 13.0995 23.4645 13.0995C22.9573 13.0995 21.3942 14.0006 20.7601 14.6586C19.5014 15.9643 18.8654 17.9186 19.1636 19.5638C19.3197 20.4243 19.2837 20.5853 18.9356 20.5853C18.4383 20.5853 17.0152 21.4071 16.3394 22.0846C14.8968 23.5308 14.2809 25.7868 14.8206 27.6478C15.1174 28.6712 15.1179 28.6818 14.8773 28.6838C14.3981 28.6874 13.0254 29.4974 12.3934 30.1493C10.6249 31.9734 10.2239 34.5837 11.3654 36.8416C11.6004 37.3064 12.4682 38.3408 13.5577 39.4546L15.3613 41.2984L8.11232 48.5488C4.12541 52.5366 0.664608 56.0673 0.421522 56.395C-0.121953 57.128 -0.13887 57.6968 0.364828 58.297C0.817317 58.8362 1.42709 59.0097 2.04875 58.7764C2.30463 58.6805 5.74304 55.3571 10.1218 50.9736L17.7492 43.3381L18.4278 43.6361C19.3811 44.0547 20.3507 44.1653 21.3859 43.9736C24.0164 43.4861 25.9318 41.514 26.1532 39.0648C26.2337 38.1761 26.2442 38.1587 26.7476 38.0808C27.0295 38.0371 27.4831 37.9663 27.7555 37.9236C28.6127 37.789 29.7533 37.1586 30.5076 36.4024C31.5192 35.3883 31.9932 34.3806 32.2072 32.7895L32.302 32.0845L33.2189 32.0012C34.9479 31.844 36.7338 30.5972 37.554 28.9748C37.7593 28.5687 38.0102 27.7523 38.1114 27.1608L38.2953 26.0851L38.8359 26.0828C40.6797 26.0749 42.7164 24.6475 43.6284 22.7241C44.0475 21.8404 44.0995 21.5779 44.1001 20.3379C44.1009 19.0257 44.0673 18.8792 43.5251 17.8196L42.9493 16.6947L48.2496 11.3963C53.9342 5.71378 54.0911 5.59065 55.3471 5.82683C56.5302 6.04927 57.5887 7.30078 57.5887 8.47727C57.5887 9.52865 57.1776 10.0546 53.3143 13.947C49.6002 17.6888 49.5112 17.793 49.5112 18.3972C49.5112 19.4363 50.527 20.1571 51.4847 19.7975C51.6985 19.7173 53.2451 18.2889 54.9216 16.6235C58.224 13.3426 58.5377 13.1312 59.8164 13.3233C60.5635 13.4356 61.4139 14.0707 61.7876 14.7951C62.047 15.2979 62.0764 16.4128 61.8464 17.0235C61.7572 17.26 60.2827 18.8696 58.5697 20.6005C55.2397 23.9648 55.1706 24.0701 55.6286 25.0776C55.8542 25.5741 56.725 25.9907 57.2587 25.8576C57.4963 25.7984 58.6218 24.8101 59.9712 23.4761C61.2942 22.1681 62.5106 21.0982 62.8239 20.967C64.369 20.3198 66.2096 21.3248 66.5203 22.9851C66.7287 24.0982 66.4035 24.6184 63.9051 27.1678C62.5522 28.5486 61.526 29.7228 61.4672 29.9574C61.1825 31.0948 62.182 32.11 63.3078 31.8267C63.5197 31.7734 64.334 31.1176 65.1176 30.3693C66.6423 28.9132 67.0602 28.7159 68.2724 28.8789C70.0436 29.117 70.985 31.2375 70.0348 32.8483C69.5684 33.6388 54.2172 48.9807 52.9403 49.9325C49.589 52.4304 46.0594 53.8115 42.0475 54.1947C40.9622 54.2984 40.3982 54.4238 40.1656 54.6131C39.983 54.7619 36.696 58.0526 32.861 61.9258C26.1694 68.6843 25.8885 68.9909 25.8885 69.5374C25.8885 70.372 26.5521 71 27.4337 71H28.0882L33.2917 65.7919L38.4954 60.5839L39.9265 61.2772C41.7906 62.18 43.3989 62.5925 45.4725 62.6995L47.149 62.7859L51.2703 66.8929C55.3675 70.976 55.3954 71 56.0398 71C57.1129 71 57.8388 69.9879 57.4465 69.0387C57.3492 68.8034 55.2669 66.6125 52.819 64.17L48.3682 59.7291L46.2345 59.6504C44.032 59.5693 42.7335 59.2873 41.3777 58.596L40.7882 58.2954L41.2753 57.7915C41.7076 57.3445 41.8857 57.2759 42.8554 57.1827C46.1885 56.8624 50.1391 55.4627 53.1039 53.5516C55.0344 52.3073 56.7863 50.6704 64.7057 42.7114C73.1565 34.2181 73.1705 34.2013 73.4182 32.3045C73.7535 29.7376 72.3175 27.1832 69.9976 26.2194C69.2257 25.8987 69.1565 25.8314 69.2364 25.4794C69.2848 25.2664 69.3984 24.7076 69.4886 24.2375C69.9877 21.6401 68.184 18.7492 65.5899 17.9888L64.9803 17.8101V16.1041C64.9803 14.5437 64.9437 14.3235 64.5523 13.5245C64.317 13.0442 63.8193 12.3364 63.4463 11.9516C62.7997 11.2848 61.1475 10.3499 60.6147 10.3498C60.4031 10.3496 60.3847 10.2604 60.4967 9.77675C60.8053 8.44504 60.5383 6.78884 59.8158 5.55292C59.2612 4.60451 58.0247 3.54779 57.0098 3.15516C55.8034 2.68829 53.8322 2.66813 52.8597 3.11254L52.1695 3.42786L51.2611 2.60045C50.7548 2.13923 49.8125 1.50798 49.1319 1.17417C46.8949 0.0769672 46.8618 0.0729951 39.3763 0.0150946C34.3084 -0.0240149 32.5402 0.00974754 32.1371 0.1532ZM46.5812 3.38035C47.5387 3.6917 48.9962 4.52537 49.4689 5.03212L49.8075 5.3951L45.2762 9.93532L40.7449 14.4757L38.7287 12.4509L36.7126 10.426L39.5257 10.4737C41.8655 10.5133 42.4258 10.4798 42.8559 10.2752C43.7554 9.84733 44.0033 8.71483 43.3518 8.01009C42.8661 7.48471 42.7172 7.46088 39.6049 7.41123C36.5811 7.3628 36.1848 7.24563 35.1453 6.0922C34.4222 5.29 33.8672 3.47339 34.2327 3.10505C34.2954 3.04165 36.9188 3.01889 40.0621 3.05433C44.9202 3.10933 45.8979 3.15822 46.5812 3.38035ZM30.3512 8.72934C30.9779 9.00158 40.7524 18.8363 40.9679 19.4113C41.7954 21.6201 39.3652 23.8385 37.2731 22.7839C36.6347 22.462 27.6607 13.5308 27.0902 12.6495C25.6631 10.4448 27.9557 7.68882 30.3512 8.72934ZM25.9647 16.2943C26.3599 16.4795 28.0284 18.0496 30.7094 20.7595C35.1756 25.2741 35.313 25.4621 35.1143 26.7905C35.0023 27.5394 34.3688 28.3918 33.646 28.7664C33.1047 29.0471 31.9687 29.0512 31.3321 28.775C31.0623 28.658 28.9442 26.647 26.6251 24.3064C22.9795 20.6269 22.3853 19.9623 22.237 19.3991C21.6486 17.1646 23.8707 15.314 25.9647 16.2943ZM21.4346 23.725C21.9801 23.9533 27.4593 29.2472 28.5088 30.5597C29.9699 32.387 28.7901 34.9812 26.4981 34.9812C26.1081 34.9812 25.5884 34.8747 25.3433 34.7445C24.6918 34.3985 18.0061 27.6124 17.8184 27.1064C16.9986 24.8982 19.2376 22.8048 21.4346 23.725ZM17.2776 31.6588C17.7903 31.7736 22.5394 36.3735 22.9462 37.1493C23.075 37.395 23.1804 37.9159 23.1804 38.3069C23.1804 40.4117 20.8927 41.6975 19.1065 40.5966C18.855 40.4415 17.61 39.2592 16.3399 37.9691C14.4121 36.0109 14.0008 35.513 13.851 34.9547C13.434 33.4027 14.3126 31.9513 15.8955 31.5773C16.3652 31.4662 16.4359 31.4705 17.2776 31.6588ZM68.3332 43.0674C67.4467 43.5561 67.2176 44.6842 67.863 45.3823C68.845 46.4444 70.4762 45.7623 70.435 44.3068C70.4059 43.2768 69.2208 42.5781 68.3332 43.0674ZM71.7506 47.1559C71.4003 47.5069 71.3051 47.739 71.3051 48.2407C71.3051 48.8539 71.3837 48.9592 73.3037 50.9168C74.403 52.0377 75.5378 53.0666 75.8256 53.2035C76.5067 53.5275 77.1311 53.3867 77.6258 52.7973C78.3908 51.8858 78.0687 51.2072 75.8557 49.0679C73.6698 46.9547 73.3456 46.7093 72.7407 46.7093C72.3419 46.7093 72.0767 46.8289 71.7506 47.1559Z" fill="#E49B00"/>
</svg>
