<svg width="71" height="71" viewBox="0 0 71 71" fill="none" xmlns="http://www.w3.org/2000/svg">
<path fill-rule="evenodd" clip-rule="evenodd" d="M31.4001 0.220479C30.54 0.523045 29.8119 1.06667 29.3233 1.77122C28.6427 2.75279 28.5528 3.34584 28.5528 6.8532V10.0766L27.1981 10.52C26.453 10.7638 25.0663 11.3359 24.1165 11.7913L22.3895 12.6195L20.2956 10.5495C19.1439 9.41107 17.9983 8.37645 17.7499 8.25065C16.6765 7.70647 14.9804 7.71494 13.8971 8.26967C13.3456 8.5521 8.91641 12.9277 8.41107 13.6892C7.68648 14.7813 7.59867 16.5769 8.21113 17.7834C8.33701 18.0317 9.37228 19.1765 10.5115 20.3275L12.5827 22.42L11.754 24.146C11.2983 25.0952 10.7271 26.4773 10.4848 27.2171L10.0439 28.5625L6.55034 28.6057C2.57698 28.655 2.2909 28.7201 1.18102 29.8293C0.0437671 30.9658 0 31.1766 0 35.5223C0 39.8681 0.0437671 40.0789 1.18102 41.2154C2.2909 42.3246 2.57698 42.3897 6.55034 42.439L10.0439 42.4822L10.4848 43.8276C10.7271 44.5674 11.2983 45.9494 11.754 46.8987L12.5827 48.6246L10.5115 50.7172C9.37228 51.8682 8.33701 53.013 8.21113 53.2613C7.59867 54.4678 7.68648 56.2634 8.41107 57.3555C8.91641 58.117 13.3456 62.4926 13.8971 62.775C14.9804 63.3297 16.6765 63.3382 17.7499 62.794C17.9983 62.6682 19.1439 61.6336 20.2956 60.4951L22.3895 58.4252L24.1165 59.2534C25.0663 59.7088 26.4492 60.2796 27.1895 60.5218L28.5357 60.9624L28.579 64.4538C28.6283 68.4246 28.6934 68.7105 29.8033 69.8197C30.9406 70.9563 31.1515 71 35.5 71C39.8485 71 40.0594 70.9563 41.1967 69.8197C42.3066 68.7105 42.3717 68.4246 42.421 64.4538L42.4643 60.9624L43.8105 60.5218C44.5508 60.2796 45.9337 59.7088 46.8835 59.2534L48.6105 58.4252L50.7044 60.4951C51.8561 61.6336 53.0017 62.6682 53.2501 62.794C54.4335 63.3939 56.0826 63.3418 57.2446 62.6681C57.917 62.2782 62.4688 57.7007 62.7671 57.1144C63.3387 55.9912 63.3478 54.3626 62.7889 53.2613C62.663 53.013 61.6277 51.8682 60.4885 50.7172L58.4173 48.6246L59.246 46.8987C59.7017 45.9494 60.2729 44.5674 60.5152 43.8276L60.9561 42.4822L64.4497 42.439C68.423 42.3897 68.7091 42.3246 69.819 41.2154C70.9562 40.0789 71 39.8681 71 35.5223C71 31.1766 70.9562 30.9658 69.819 29.8293C68.7091 28.7201 68.423 28.655 64.4497 28.6057L60.9561 28.5625L60.5152 27.2171C60.2729 26.4773 59.7017 25.0952 59.246 24.146L58.4173 22.42L60.4885 20.3275C61.6277 19.1765 62.663 18.0317 62.7889 17.7834C63.4129 16.5541 63.3253 14.7989 62.5844 13.6823C62.0823 12.9256 57.6506 8.54974 57.1057 8.27259C55.9823 7.7012 54.3522 7.69203 53.2501 8.25065C53.0017 8.37645 51.8561 9.41107 50.7044 10.5495L48.6105 12.6195L46.8835 11.7913C45.9337 11.3359 44.5508 10.765 43.8105 10.5229L42.4643 10.0823L42.421 6.59091C42.3717 2.62005 42.3066 2.33414 41.1967 1.22496C40.0783 0.107311 39.8167 0.0494082 35.7084 0.0102508C32.5557 -0.0198809 32.0074 0.00691832 31.4001 0.220479ZM39.2138 3.20657L39.5988 3.59134L39.6683 7.69689L39.7378 11.8026L40.1221 12.1326C40.3334 12.3143 40.7711 12.5296 41.0947 12.6116C43.1046 13.1196 45.4707 14.1056 47.9407 15.4646C48.4813 15.7621 48.7343 15.8265 49.0522 15.7473C49.3265 15.6793 50.2749 14.8406 51.8953 13.2335C53.2326 11.9071 54.4863 10.7621 54.6813 10.6891C55.445 10.4028 55.7671 10.6152 58.095 12.9416C60.4228 15.268 60.6354 15.5899 60.3489 16.3532C60.2758 16.548 59.1301 17.8009 57.8029 19.1374C56.1948 20.7567 55.3555 21.7045 55.2875 21.9786C55.2083 22.2963 55.2727 22.5492 55.5704 23.0895C56.9302 25.5579 57.9168 27.9225 58.4252 29.9312C58.5072 30.2546 58.7227 30.692 58.9044 30.9032L59.2347 31.2872L63.343 31.3567L67.4511 31.4261L67.8361 31.8111L68.2211 32.1961V35.5223V38.8486L67.8361 39.2335L67.4511 39.6186L63.343 39.688L59.2347 39.7574L58.9044 40.1415C58.7227 40.3527 58.5072 40.7901 58.4252 41.1135C57.9168 43.1222 56.9302 45.4868 55.5704 47.9552C55.2727 48.4955 55.2083 48.7484 55.2875 49.0661C55.3555 49.3402 56.1948 50.288 57.8029 51.9073C59.1301 53.2438 60.2758 54.4967 60.3489 54.6915C60.6354 55.4548 60.4228 55.7767 58.095 58.1031C55.7671 60.4295 55.445 60.6419 54.6813 60.3556C54.4863 60.2826 53.2326 59.1376 51.8953 57.8112C50.2749 56.2041 49.3265 55.3654 49.0522 55.2974C48.7343 55.2182 48.4813 55.2826 47.9407 55.5801C45.4707 56.939 43.1046 57.9251 41.0947 58.4331C40.7711 58.5151 40.3334 58.7304 40.1221 58.9121L39.7378 59.2421L39.6683 63.3622L39.5988 67.4825L39.1371 67.8945L38.6756 68.3065L35.4233 68.2647L32.1712 68.2229L31.7862 67.8381L31.4012 67.4533L31.3317 63.3478L31.2622 59.2421L30.8779 58.9121C30.6666 58.7304 30.2289 58.5151 29.9053 58.4331C27.9055 57.9276 26.1277 57.1889 22.9687 55.5506C21.9678 55.0316 21.7498 55.1596 19.1033 57.8226C17.8432 59.0908 16.6246 60.2099 16.3953 60.3096C15.5765 60.6661 15.2856 60.4821 12.905 58.1031C10.5772 55.7767 10.3646 55.4548 10.6511 54.6915C10.7242 54.4967 11.8699 53.2438 13.1971 51.9073C14.8052 50.288 15.6445 49.3402 15.7125 49.0661C15.7917 48.7484 15.7273 48.4955 15.4296 47.9552C14.0517 45.4537 13.1503 43.2895 12.5799 41.1135C12.4953 40.7901 12.2773 40.3527 12.0956 40.1415L11.7653 39.7574L7.65702 39.688L3.54889 39.6186L3.16388 39.2335L2.77887 38.8486V35.5223V32.1961L3.16388 31.8111L3.54889 31.4261L7.65702 31.3567L11.7653 31.2872L12.0956 30.9032C12.2773 30.692 12.4928 30.2546 12.5748 29.9312C13.0832 27.9225 14.0698 25.5579 15.4296 23.0895C15.7273 22.5492 15.7917 22.2963 15.7125 21.9786C15.6445 21.7045 14.8052 20.7567 13.1971 19.1374C11.8699 17.8009 10.7242 16.548 10.6511 16.3532C10.3646 15.5899 10.5772 15.268 12.905 12.9416C15.2329 10.6152 15.555 10.4028 16.3187 10.6891C16.5137 10.7621 17.7674 11.9071 19.1047 13.2335C20.7251 14.8406 21.6735 15.6793 21.9478 15.7473C22.2657 15.8265 22.5187 15.7621 23.0593 15.4646C25.5624 14.0876 27.7279 13.1867 29.9053 12.6167C30.2289 12.5321 30.6666 12.3143 30.8779 12.1326L31.2622 11.8026L31.3317 7.70828C31.397 3.86294 31.4181 3.59537 31.6791 3.30572C31.8319 3.13603 32.082 2.94441 32.2348 2.87998C32.3877 2.81542 33.9338 2.77584 35.6708 2.79223L38.8288 2.8218L39.2138 3.20657ZM34.9981 14.8301C34.5607 15.0067 34.1106 15.6503 34.1106 16.0991C34.1106 16.3364 34.2666 16.6692 34.5004 16.9308C34.872 17.3463 34.9584 17.3726 36.3414 17.4907C39.0689 17.7233 41.3658 18.3188 43.3503 19.3076C48.5705 21.9089 52.0059 26.3909 53.2376 32.2072C53.5754 33.8023 53.5782 37.2174 53.2432 38.884C52.9411 40.3863 52.4369 41.9062 51.7379 43.4219C51.4424 44.0625 51.2006 44.7071 51.2006 44.8543C51.2006 45.5122 51.8614 46.2062 52.4928 46.2112C53.2818 46.2174 53.6157 45.8913 54.2918 44.4534C56.3414 40.0956 56.8435 35.4035 55.76 30.7318C54.0097 23.1846 47.8387 17.0177 40.2935 15.2761C38.1999 14.7927 35.6271 14.5761 34.9981 14.8301ZM20.6887 20.7203C20.0477 21.3609 20.0477 21.9127 20.6887 22.5532C21.0291 22.8934 21.2853 23.0253 21.6057 23.0253C22.2234 23.0253 22.9951 22.2541 22.9951 21.6368C22.9951 21.0194 22.2234 20.2482 21.6057 20.2482C21.2853 20.2482 21.0291 20.3801 20.6887 20.7203ZM33.0011 20.465C26.7898 21.5508 21.8447 26.2947 20.5618 32.3981C18.841 40.5843 24.17 48.7289 32.3738 50.4511C40.5652 52.1709 48.7149 46.8452 50.4382 38.6466C52.1592 30.4595 46.8422 22.3323 38.6262 20.5913C37.0942 20.2667 34.4724 20.2078 33.0011 20.465ZM38.6262 23.4359C42.0542 24.3303 45.129 26.8469 46.6917 30.0375C47.6598 32.014 47.9103 33.1415 47.9103 35.5223C47.9103 37.16 47.8537 37.7431 47.6071 38.6466C46.6574 42.1255 44.1792 45.1432 40.9883 46.7062C39.0122 47.6742 37.8833 47.9248 35.5 47.9248C33.1167 47.9248 31.9878 47.6742 30.0117 46.7062C26.8208 45.1432 24.3426 42.1255 23.3929 38.6466C23.1463 37.7431 23.0897 37.16 23.0897 35.5223C23.0897 33.1411 23.3402 32.0135 24.3085 30.0375C26.0282 26.5281 29.3947 23.9644 33.2399 23.2357C34.6918 22.9606 37.1551 23.0521 38.6262 23.4359ZM17.7399 25.0044C17.3537 25.1901 16.2315 27.4237 15.7039 29.0565C13.299 36.501 15.1875 44.493 20.673 50.0854C24.0944 53.5736 28.431 55.6739 33.3062 56.2041C35.4869 56.4411 35.8447 56.4113 36.363 55.9483C36.7359 55.6153 36.8137 55.4454 36.8137 54.9622C36.8137 54.486 36.7351 54.3081 36.3881 53.9984C36.0031 53.6546 35.8265 53.6094 34.5367 53.525C29.1078 53.1694 24.0265 50.4305 20.9982 46.2272C18.6246 42.9325 17.5171 39.5292 17.5149 35.5223C17.5132 32.4758 17.9641 30.4372 19.2621 27.6228C19.5577 26.9822 19.7994 26.3445 19.7994 26.2061C19.7994 25.2022 18.6831 24.5509 17.7399 25.0044ZM40.3593 31.5838C40.1703 31.7088 38.6872 33.1296 37.0637 34.7411L34.1117 37.6711L32.548 36.1301C30.7569 34.3648 30.4501 34.1338 29.8974 34.1338C29.3454 34.1338 28.5528 34.9318 28.5528 35.4876C28.5528 36.0686 29.066 36.7018 31.3587 38.9503C33.3872 40.9398 33.7707 41.192 34.4921 41.011C34.8905 40.9111 41.2903 34.6852 42.0469 33.6617C42.5903 32.9266 42.5704 32.4241 41.9748 31.8288C41.4423 31.2967 40.9143 31.2167 40.3593 31.5838ZM48.4773 48.4915C48.1369 48.8317 48.0049 49.0877 48.0049 49.4079C48.0049 49.7281 48.1369 49.9842 48.4773 50.3244C48.8177 50.6646 49.0739 50.7965 49.3943 50.7965C49.7147 50.7965 49.9709 50.6646 50.3114 50.3244C50.6518 49.9842 50.7838 49.7281 50.7838 49.4079C50.7838 49.0877 50.6518 48.8317 50.3114 48.4915C49.9709 48.1513 49.7147 48.0194 49.3943 48.0194C49.0739 48.0194 48.8177 48.1513 48.4773 48.4915Z" fill="#E49B00"/>
</svg>
