<svg width="64" height="49" viewBox="0 0 64 49" fill="none" xmlns="http://www.w3.org/2000/svg">
<path fill-rule="evenodd" clip-rule="evenodd" d="M31.2006 28.6076V0H14.8009V29.2991C14.7389 30.4138 14.8978 31.5299 15.2686 32.583C15.6395 33.6361 16.2148 34.6055 16.9616 35.4354C18.6559 36.8506 20.7933 37.6258 23.0008 37.6258C25.2083 37.6258 27.3457 36.8506 29.0399 35.4354C29.7935 34.6056 30.373 33.633 30.7441 32.5753C31.1152 31.5176 31.2705 30.3962 31.2006 29.2774V28.586V28.6076Z" fill="#414042"/>
<path fill-rule="evenodd" clip-rule="evenodd" d="M63.9999 26.555V0H46.0229V0.129642L63.9999 26.555Z" fill="#E49B00"/>
<path fill-rule="evenodd" clip-rule="evenodd" d="M64 47.9887L46.0014 21.6498V28.6073C46.0435 31.3383 45.6197 34.0565 44.7482 36.6451C43.8423 39.1555 42.3625 41.4195 40.4268 43.2568C38.7611 45.0064 36.7332 46.3706 34.4849 47.2541C33.6736 47.5532 32.8435 47.7986 32.0001 47.9887H64Z" fill="#E49B00"/>
<path fill-rule="evenodd" clip-rule="evenodd" d="M9.63671 46.4761C7.68724 45.4322 5.95619 44.0239 4.53746 42.3276C3.10076 40.7282 2.01836 38.8432 1.36123 36.7962C0.522602 34.1669 0.0642234 31.4311 0 28.672V48.1183H14.2822C12.6649 47.7894 11.1014 47.2367 9.63671 46.4761V46.4761Z" fill="#414042"/>
</svg>
