<svg width="71" height="71" viewBox="0 0 71 71" fill="none" xmlns="http://www.w3.org/2000/svg">
<path opacity="0.71" fill-rule="evenodd" clip-rule="evenodd" d="M46.9823 0.10802C46.126 0.314697 44.8816 1.05568 44.2761 1.71913C43.9678 2.05703 43.5198 2.75057 43.2809 3.26005L42.8462 4.18663L42.8027 8.31144L42.7592 12.4362L22.8902 12.4727L3.02121 12.5092L2.24091 12.8962C1.35693 13.3347 0.711906 14.0067 0.289212 14.9295L0 15.5608V37.1301V58.6995L0.289212 59.3307C0.711906 60.2536 1.35693 60.9256 2.24091 61.3641L3.02121 61.7511L12.1878 61.7895L21.3544 61.828V65.0145V68.2011H17.7771C14.9495 68.2011 14.1204 68.2425 13.8213 68.3987C12.9074 68.8762 12.9074 70.3001 13.8213 70.7776C14.3891 71.0741 47.5457 71.0741 48.1134 70.7776C49.0273 70.3001 49.0273 68.8762 48.1134 68.3987C47.8143 68.2425 46.9853 68.2011 44.1577 68.2011H40.5803V65.0145V61.828L49.7469 61.7895L58.9136 61.7511L59.6939 61.3641C60.5778 60.9256 61.2229 60.2536 61.6456 59.3307C61.9252 58.7204 61.936 58.476 61.974 51.9524L62.0133 45.2052L64.034 45.1531C65.9616 45.1034 66.0967 45.0808 66.9719 44.6646C68.2468 44.0578 69.0431 43.2711 69.6615 42.0072L70.1744 40.9591V22.5656V4.17221L69.6615 3.12412C69.0438 1.86158 68.2487 1.07524 66.9719 0.464364L66.0546 0.0253489L56.785 0.00232314C51.4687 -0.010993 47.2879 0.0340876 46.9823 0.10802ZM66.2195 3.1717C66.5256 3.37629 66.9228 3.78202 67.102 4.07331L67.4279 4.60276L67.4647 19.3406L67.5013 34.0785H56.5128H45.5241L45.5249 19.6181C45.5253 9.8654 45.573 4.98532 45.6712 4.62842C45.8486 3.98259 46.725 3.06614 47.3383 2.88484C47.6112 2.80412 51.3285 2.76084 56.7265 2.7754L65.6629 2.79954L66.2195 3.1717ZM53.7789 8.4722C52.8585 8.98737 52.8887 10.4545 53.8286 10.887C54.3208 11.1135 58.6999 11.1135 59.1921 10.887C59.5856 10.7058 59.9435 10.1242 59.9435 9.66566C59.9435 9.20708 59.5856 8.62548 59.1921 8.44432C58.6691 8.20352 54.2176 8.22655 53.7789 8.4722ZM42.8085 28.0793L42.8462 40.9446L43.2809 41.8712C43.8855 43.1604 44.6642 43.9639 45.9137 44.5878L46.9511 45.1059L53.104 45.1473L59.2569 45.1886V47.9561V50.7237H48.0578C35.8977 50.7237 36.2914 50.699 35.938 51.4827C35.7305 51.9426 35.7305 52.2789 35.938 52.7388C36.2914 53.5225 35.8977 53.4978 48.0578 53.4978H59.2569V55.7241C59.2569 58.1565 59.1558 58.5813 58.5054 58.8805C57.9832 59.1209 3.9516 59.1209 3.42935 58.8805C2.77896 58.5813 2.67789 58.1565 2.67789 55.7241V53.4978H13.8636C22.2435 53.4978 25.1397 53.4562 25.4095 53.3321C25.803 53.1509 26.1609 52.5693 26.1609 52.1108C26.1609 51.6522 25.803 51.0706 25.4095 50.8894C25.1397 50.7653 22.2435 50.7237 13.8636 50.7237H2.67789L2.6827 33.489C2.68791 14.9804 2.65592 15.8128 3.37963 15.4077C3.6477 15.2576 7.29086 15.2229 23.2393 15.2189L42.7707 15.214L42.8085 28.0793ZM67.4757 38.6906C67.4328 40.336 67.3937 40.584 67.102 41.058C66.9228 41.3493 66.5255 41.755 66.2194 41.9596L65.6627 42.3317H56.5103H47.358L46.8013 41.9596C46.4952 41.755 46.0979 41.3493 45.9187 41.058C45.627 40.584 45.5878 40.336 45.545 38.6906L45.4972 36.8527H56.5103H67.5235L67.4757 38.6906ZM30.2959 50.9173C29.1054 51.5838 29.6034 53.4978 30.9674 53.4978C31.6632 53.4978 32.3407 52.8203 32.3407 52.1242C32.3407 51.0828 31.2013 50.4103 30.2959 50.9173ZM37.8338 65.0107V68.2011H30.9674H24.101V65.0107V61.8204H30.9674H37.8338V65.0107Z" fill="#E49B00"/>
</svg>
