<svg width="71" height="71" viewBox="0 0 71 71" fill="none" xmlns="http://www.w3.org/2000/svg">
<path fill-rule="evenodd" clip-rule="evenodd" d="M28.3406 0.275018C28.0926 0.426264 27.8774 0.566548 27.8626 0.586668C27.8476 0.606927 27.8008 1.84104 27.7585 3.32922L27.6815 6.03499L26.2939 6.40131C23.6191 7.10731 21.3696 8.05003 18.9668 9.47161L18.0227 10.0302L16.2605 8.28662C14.4733 6.51829 14.079 6.26838 13.3548 6.44475C12.8323 6.57213 6.57251 12.8319 6.44513 13.3545C6.26877 14.0786 6.51867 14.473 8.28699 16.2602L10.0306 18.0224L9.47198 18.9665C8.05041 21.3693 7.1077 23.6188 6.4017 26.2936L6.03538 27.6812L3.53776 27.7156C1.91041 27.7381 0.927181 27.8089 0.716132 27.9189C0.0313659 28.2757 -0.000548259 28.5165 6.76931e-06 33.3287C0.00042304 37.5229 0.0177677 37.839 0.270305 38.253C0.648141 38.8729 1.20733 38.9883 3.83442 38.9891L6.07368 38.99L6.38893 40.2735C6.96894 42.6351 8.07539 45.2899 9.42813 47.5659L10.0306 48.5794L8.28699 50.3416C6.51923 52.1283 6.26933 52.5223 6.4443 53.2473C6.50396 53.4947 7.69519 54.7874 9.83274 56.9244C14.0004 61.091 13.5419 60.9977 16.3213 58.2464L18.0044 56.5804L19.0271 57.1822C21.3583 58.5541 23.5852 59.484 26.2939 60.2163L27.6815 60.5915L27.7585 63.2849C27.8008 64.7663 27.8476 65.9949 27.8626 66.0151C27.8774 66.0353 28.0925 66.1755 28.3406 66.3268C28.7657 66.586 29.0498 66.6018 33.3011 66.6018C37.5234 66.6018 37.8389 66.5846 38.2532 66.3319C38.8728 65.9542 38.9885 65.3949 38.9893 62.7743L38.9902 60.5416L39.788 60.3656C42.0674 59.863 45.3022 58.5458 47.5674 57.1976L48.86 56.4285L55.8235 63.3721C62.3606 69.8905 62.836 70.3337 63.5878 70.6091C65.7564 71.4037 67.8987 70.9742 69.4364 69.4364C70.9742 67.8986 71.4037 65.7564 70.6091 63.5877C70.3337 62.8359 69.8905 62.3605 63.3721 55.8234L56.4286 48.8598L57.1926 47.5673C58.5729 45.2317 59.8624 42.0704 60.3657 39.7878L60.5416 38.99L62.7744 38.9891C65.3949 38.9883 65.9543 38.8726 66.332 38.253C66.5846 37.8387 66.6018 37.5232 66.6018 33.3009C66.6018 29.0495 66.586 28.7655 66.3268 28.3403C66.1756 28.0924 66.0353 27.8771 66.0152 27.8623C65.9949 27.8473 64.7664 27.8005 63.285 27.7582L60.5916 27.6812L60.2164 26.2936C59.4778 23.5622 58.5549 21.3607 57.1734 19.0352L56.5717 18.0224L58.3153 16.2602C60.0836 14.473 60.3335 14.0786 60.1571 13.3545C60.0298 12.8319 53.77 6.57213 53.2475 6.44475C52.5233 6.26838 52.1289 6.51829 50.3417 8.28662L48.5795 10.0302L47.566 9.42776C45.29 8.07501 42.6353 6.96856 40.2737 6.38855L38.9902 6.07329L38.9893 3.83402C38.9885 1.20692 38.8731 0.647722 38.2532 0.269884C37.8389 0.017206 37.5234 0 33.3011 0C29.0498 0 28.7657 0.0158184 28.3406 0.275018ZM36.1022 5.26905C36.157 8.41955 36.0829 8.31187 38.5912 8.88175C41.6557 9.57804 44.3255 10.6903 47.0381 12.4009C47.8394 12.9063 48.6084 13.3198 48.747 13.3198C49.2096 13.3198 49.5941 13.023 51.2363 11.3981L52.8674 9.78423L54.8426 11.7593L56.8177 13.7345L55.1956 15.3656C53.5631 17.0073 53.199 17.5495 53.3655 18.0906C53.4152 18.2522 53.8456 19.0089 54.3221 19.772C56.14 22.684 57.3678 25.7614 57.876 28.6793C57.9895 29.3313 58.1439 29.7114 58.4217 30.0225L58.809 30.4564L61.3184 30.4998L63.8277 30.5432V33.3009V36.0586L61.3328 36.102C58.1818 36.1568 58.2892 36.0829 57.7217 38.591C56.8242 42.557 55.2303 45.9083 52.7933 48.9531L51.9824 49.9661L50.3506 48.3385L48.7187 46.7109L49.3846 45.8683C53.0064 41.2859 54.4537 35.1644 53.2787 29.3983C51.2398 19.3936 42.0746 12.4235 31.9603 13.1856C21.8261 13.949 13.9494 21.8258 13.1859 31.9601C12.6155 39.5299 16.3599 46.7372 22.9666 50.787C29.8504 55.0065 39.0632 54.5481 45.4937 49.6659L46.7241 48.7318L48.3466 50.3584L49.969 51.9852L49.1627 52.6496C47.1173 54.3348 43.9742 56.0817 41.4184 56.9541C40.8079 57.1625 39.5356 57.5079 38.5912 57.7216C36.0831 58.2891 36.157 58.1817 36.1022 61.3328L36.0588 63.8276H33.3011H30.5435L30.5 61.3183L30.4566 58.8089L30.0227 58.4216C29.7116 58.1438 29.3316 57.9894 28.6796 57.8759C25.7616 57.3678 22.6843 56.1399 19.7723 54.322C19.0092 53.8455 18.2525 53.4151 18.0909 53.3654C17.5499 53.1989 17.0076 53.563 15.366 55.1955L13.7349 56.8176L11.7597 54.8425L9.78459 52.8673L11.3985 51.2362C13.0233 49.594 13.3201 49.2095 13.3201 48.7469C13.3201 48.6083 12.9068 47.8393 12.4018 47.0379C10.6718 44.2932 9.58506 41.6849 8.88212 38.591C8.31224 36.0827 8.41992 36.1568 5.26944 36.102L2.77459 36.0586V33.2922V30.5257H5.04341C6.29125 30.5257 7.49635 30.4615 7.72156 30.383C8.28741 30.1858 8.51941 29.7153 8.87199 28.0498C9.45061 25.3164 10.8486 21.9217 12.2807 19.772C13.6917 17.654 13.6992 17.6941 11.4691 15.4325L9.78959 13.7295L11.7597 11.7593L13.7299 9.78922L15.4328 11.4676C16.3696 12.3908 17.2809 13.1909 17.4581 13.2455C17.9417 13.3946 18.2719 13.264 19.5642 12.4126C21.9627 10.8321 25.2309 9.46842 28.05 8.87162C29.7155 8.51904 30.186 8.28703 30.3832 7.72118C30.4617 7.49598 30.526 6.29086 30.526 5.04301V2.77418H33.2924H36.0588L36.1022 5.26905ZM36.1695 16.1638C41.7099 17.0624 46.4993 20.6041 49.066 25.7009C50.2152 27.9829 50.7978 30.5457 50.8098 33.3703C50.8295 38.0983 49.0713 42.3587 45.715 45.7149C42.7175 48.7125 39.0586 50.4075 34.7765 50.7823C25.762 51.5713 17.5791 45.0919 16.1437 36.0285C15.7369 33.4599 16.0213 30.2924 16.8871 27.7506C18.8554 21.9723 24.0098 17.4445 29.9016 16.3185C30.5121 16.2018 31.1365 16.0798 31.2892 16.0473C31.9671 15.9033 35.0115 15.9759 36.1695 16.1638ZM28.0284 19.5961C25.1696 20.8502 23.259 22.3014 21.6428 24.4464C20.7417 25.6423 19.8417 27.2882 19.8417 27.7406C19.8417 28.5861 20.6823 29.2456 21.552 29.0825C22.1091 28.9779 22.2065 28.8676 23.1189 27.3078C24.3387 25.2223 26.3479 23.4533 28.7015 22.3926C29.5965 21.9892 29.8586 21.8005 30.0323 21.4346C30.2919 20.8874 30.3009 20.6634 30.0827 20.1844C29.7803 19.5209 28.8241 19.247 28.0284 19.5961ZM19.1154 31.3469C18.6752 31.7403 18.6623 31.7836 18.6623 32.862C18.6623 33.8358 18.7022 34.015 18.9877 34.3187C19.1665 34.5092 19.4694 34.7043 19.6608 34.7523C20.1327 34.8707 20.8856 34.6027 21.1267 34.2304C21.3961 33.8147 21.5207 32.5996 21.3553 32.0007C21.0633 30.9436 19.9355 30.6143 19.1154 31.3469ZM67.6593 64.1307C68.8951 65.9041 67.7618 68.1612 65.6355 68.1612C65.2782 68.1612 64.7721 68.0538 64.5108 67.9225C64.2496 67.7912 61.1791 64.8346 57.6875 61.3521L51.3394 55.0204L53.1767 53.1792L55.0141 51.338L61.1585 57.4788C64.538 60.8561 67.4634 63.8496 67.6593 64.1307Z" fill="#E49B00"/>
</svg>
