<svg width="71" height="71" viewBox="0 0 71 71" fill="none" xmlns="http://www.w3.org/2000/svg">
<path fill-rule="evenodd" clip-rule="evenodd" d="M2.80351 0.229187C1.41065 0.711642 0.42189 1.81218 0.120824 3.21502C0.0123788 3.72036 -0.019378 11.0261 0.0108534 28.5403L0.0532883 53.1554L0.34534 53.7865C0.772186 54.7091 1.42355 55.381 2.31621 55.8193L3.10416 56.2062L15.8277 56.2437L28.5512 56.2813V59.4679V62.6547H26.1312C24.8002 62.6547 23.3806 62.7236 22.9763 62.8079C20.3775 63.3499 18.1523 65.5751 17.6104 68.1739C17.3081 69.6234 17.4795 70.4203 18.1706 70.7776C18.7439 71.0741 52.2262 71.0741 52.7995 70.7776C53.4906 70.4203 53.662 69.6234 53.3597 68.1739C52.8178 65.5751 50.5926 63.3499 47.9938 62.8079C47.5895 62.7236 46.1699 62.6547 44.8389 62.6547H42.4189V59.4679V56.2813L55.1424 56.2437C67.7468 56.2066 67.8719 56.2035 68.497 55.9142C69.4197 55.4873 70.0915 54.836 70.5299 53.9433L70.9168 53.1554V28.1243V3.09327L70.5299 2.30531C70.0915 1.41265 69.4197 0.761288 68.497 0.334442L67.8659 0.0423905L35.6931 0.0116044C5.09112 -0.0176562 3.48525 -0.00697817 2.80351 0.229187ZM34.0983 22.5773V42.408H18.4279H2.75747L2.76233 23.0973C2.76635 7.33481 2.80102 3.72577 2.95107 3.45521C3.35447 2.7273 2.68384 2.7567 18.9479 2.75143L34.0983 2.74658V22.5773ZM67.4991 2.94419C67.7094 3.05291 67.9558 3.30544 68.0469 3.50541C68.1728 3.78179 68.2126 8.49415 68.2126 23.1385V42.408H52.5422H36.8718V22.5773V2.74658H51.9944C64.8117 2.74658 67.1752 2.77667 67.4991 2.94419ZM6.23963 9.31927C5.54695 9.70313 5.54112 9.75804 5.53585 16.0183C5.53058 22.3088 5.54362 22.4333 6.24449 22.7957C6.81583 23.0911 30.0399 23.0911 30.6113 22.7957C31.3112 22.4337 31.3248 22.305 31.3248 16.046C31.3248 9.72823 31.3139 9.63212 30.5659 9.2914C30.008 9.0372 6.70045 9.06383 6.23963 9.31927ZM28.5512 16.0595V20.2198H18.4279H8.30452V16.0595V11.8992H18.4279H28.5512V16.0595ZM40.354 25.9604C39.6978 26.324 39.4791 27.1231 39.8429 27.8269C40.1975 28.5126 40.4137 28.5403 45.4138 28.5403C50.454 28.5403 50.6566 28.5127 50.9897 27.7815C51.314 27.07 51.0802 26.2945 50.442 25.9644C49.9028 25.6857 40.8563 25.6819 40.354 25.9604ZM54.6376 25.9604C53.9814 26.324 53.7627 27.1231 54.1266 27.8269C54.4812 28.5126 54.6974 28.5403 59.6975 28.5403C64.7377 28.5403 64.9403 28.5127 65.2734 27.7815C65.5976 27.07 65.3638 26.2945 64.7256 25.9644C64.1864 25.6857 55.1399 25.6819 54.6376 25.9604ZM6.23963 27.3472C5.31022 27.8622 5.34073 29.329 6.28983 29.7614C6.81347 30 30.0423 30 30.5659 29.7614C30.9634 29.5803 31.3248 28.9988 31.3248 28.5403C31.3248 28.0819 30.9634 27.5004 30.5659 27.3193C30.008 27.0651 6.70045 27.0917 6.23963 27.3472ZM6.23963 34.281C5.31022 34.796 5.34073 36.2628 6.28983 36.6952C6.81347 36.9339 30.0423 36.9339 30.5659 36.6952C30.9634 36.5141 31.3248 35.9326 31.3248 35.4741C31.3248 35.0157 30.9634 34.4342 30.5659 34.2531C30.008 33.9989 6.70045 34.0255 6.23963 34.281ZM40.354 34.281C39.6978 34.6446 39.4791 35.4436 39.8429 36.1474C40.1975 36.8332 40.4137 36.8609 45.4138 36.8609C50.454 36.8609 50.6566 36.8333 50.9897 36.1021C51.314 35.3905 51.0802 34.615 50.442 34.285C49.9028 34.0063 40.8563 34.0025 40.354 34.281ZM54.6376 34.281C53.9814 34.6446 53.7627 35.4436 54.1266 36.1474C54.4812 36.8332 54.6974 36.8609 59.6975 36.8609C64.7377 36.8609 64.9403 36.8333 65.2734 36.1021C65.5976 35.3905 65.3638 34.615 64.7256 34.285C64.1864 34.0063 55.1399 34.0025 54.6376 34.281ZM68.2126 48.794C68.2126 52.7167 68.1631 53.0132 67.4538 53.3363C66.926 53.5768 4.04411 53.5768 3.51631 53.3363C2.80698 53.0132 2.75747 52.7167 2.75747 48.794V45.1815H35.4851H68.2126V48.794ZM29.2599 48.1486C28.0577 48.8149 28.5607 50.7285 29.938 50.7285C30.6407 50.7285 31.3248 50.0511 31.3248 49.3552C31.3248 48.314 30.1742 47.6417 29.2599 48.1486ZM34.8069 48.1486C34.1507 48.5122 33.932 49.3113 34.2959 50.015C34.6336 50.6681 34.9703 50.7285 38.272 50.7285C41.5899 50.7285 41.9377 50.6622 42.2531 49.9697C42.5774 49.2581 42.3436 48.4827 41.7054 48.1526C41.1737 47.8778 35.3019 47.8742 34.8069 48.1486ZM39.6453 59.4651V62.6547H35.4851H31.3248V59.4651V56.2756H35.4851H39.6453V59.4651ZM47.7794 65.6348C48.7037 65.9094 49.5514 66.5426 50.0527 67.3332C50.2779 67.6882 50.4621 68.0288 50.4621 68.0902C50.4621 68.1515 43.7224 68.2017 35.4851 68.2017C27.2477 68.2017 20.508 68.1515 20.508 68.0902C20.508 67.8193 21.3569 66.6777 21.8223 66.3227C22.1035 66.1081 22.6561 65.8211 23.0502 65.6849C23.7157 65.455 24.6001 65.4369 35.4251 65.4328C45.3595 65.4289 47.1864 65.4587 47.7794 65.6348Z" fill="#E49B00"/>
</svg>
