<svg width="79" height="71" viewBox="0 0 79 71" fill="none" xmlns="http://www.w3.org/2000/svg">
<path fill-rule="evenodd" clip-rule="evenodd" d="M19.2114 0.128154C19.0416 0.198092 18.7638 0.41023 18.594 0.599728C18.299 0.929101 18.2834 1.19567 18.2414 6.65669L18.1974 12.3691L12.8399 12.419C7.6619 12.4672 7.45263 12.4809 6.59472 12.8272C4.9306 13.4985 3.74613 14.7012 3.03807 16.4382L2.69824 17.2721L2.65704 38.3818L2.61568 59.4913L1.74372 59.564C1.00588 59.6254 0.804326 59.7122 0.434556 60.1282C0.0289815 60.5842 -0.00234715 60.7118 0.000122095 61.8966C0.00768417 65.4857 1.686 68.438 4.58768 69.9664C6.67805 71.0674 4.37039 70.9992 39.5055 70.9992C74.6406 70.9992 72.3329 71.0674 74.4233 69.9664C77.421 68.3874 79.1677 65.1827 78.9873 61.5931C78.9328 60.5076 78.8944 60.3966 78.4286 59.9784C78.0185 59.6102 77.7897 59.5293 77.1591 59.5293H76.3899V40.9751V22.4208L77.1 21.5543C78.403 19.9639 78.9177 18.5343 78.9204 16.4968C78.9228 14.7925 78.57 13.4797 77.781 12.2577C77.1512 11.282 66.9438 0.798841 66.1339 0.295942C65.6238 -0.0208697 65.5334 -0.0222655 48.7086 0.0183634L31.796 0.0591474L31.3857 0.471484C30.8103 1.04959 30.8103 2.01507 31.3857 2.59318L31.796 3.00552L48.197 3.0463L64.5979 3.08724L69.9328 8.47382C75.8547 14.4531 75.8498 14.4464 75.8498 16.4192C75.8498 18.3967 75.8584 18.3851 69.9304 24.3667L64.5897 29.7554H42.9445H21.2994L21.2585 15.321L21.2176 0.886611L20.7136 0.434111C20.2071 -0.0207148 19.7833 -0.106935 19.2114 0.128154ZM25.3845 0.153741C24.235 0.817915 24.2648 2.31839 25.4393 2.92395C26.5615 3.50268 27.9067 2.20612 27.4136 1.0209C27.3 0.747822 27.0983 0.433801 26.9654 0.32308C26.6222 0.036972 25.7484 -0.0565362 25.3845 0.153741ZM28.7488 8.94493C26.6023 9.71548 25.4616 11.2594 25.4616 13.3938C25.4616 15.667 27.3137 17.6237 29.7302 17.9034C30.9386 18.0435 31.1236 18.1043 31.6229 18.5265C32.2893 19.0899 32.2948 19.9468 31.6355 20.5042C31.0425 21.0057 30.6534 21.1246 30.0054 21.0024C29.2465 20.8594 28.6027 20.252 28.4769 19.5604C28.3346 18.7774 28.049 18.3669 27.4829 18.1312C26.8992 17.8884 26.3222 18.0216 25.8342 18.5119C24.9945 19.3557 25.6561 21.8587 27.0018 22.9298C28.0775 23.7858 28.9512 24.0903 30.3386 24.093C31.4652 24.0952 31.6934 24.0417 32.6476 23.5526C35.2658 22.2106 36.0217 19.1944 34.3273 16.8496C33.4895 15.6898 32.353 15.1415 30.0574 14.7893C29.1757 14.6539 28.5482 14.0421 28.5482 13.3178C28.5482 12.8482 28.6454 12.6429 29.0157 12.3298C30.2149 11.3158 31.9309 11.8668 32.1795 13.3454C32.3606 14.4216 33.2838 15.0658 34.2037 14.7576C35.5223 14.316 35.555 12.2889 34.2712 10.5802C33.0958 9.0158 30.6054 8.27843 28.7488 8.94493ZM37.6536 8.85964C37.4414 8.9685 37.1463 9.30097 36.998 9.59825C36.7543 10.0863 36.7281 10.7495 36.7281 16.4192C36.7281 22.089 36.7543 22.7522 36.998 23.2402C37.4489 24.1437 37.6429 24.1814 41.6243 24.1361L45.2092 24.0953L45.6194 23.683C46.1941 23.1049 46.1942 22.1394 45.6194 21.5613C45.2112 21.1506 45.1981 21.1488 42.5118 21.1003L39.8142 21.0514V19.5108V17.97H41.5045C43.3773 17.97 43.891 17.8192 44.2241 17.1721C44.6372 16.3693 44.3508 15.3978 43.5995 15.0538C43.3645 14.9462 42.4864 14.8685 41.5045 14.8685H39.8142V13.3277V11.7871L42.5118 11.7382C45.1981 11.6897 45.2112 11.6878 45.6194 11.2772C46.1942 10.6991 46.1941 9.73363 45.6194 9.15552L45.2092 8.74318L41.6243 8.7024C38.9527 8.672 37.9411 8.71217 37.6536 8.85964ZM51.2344 8.91267C48.5201 9.63717 46.3856 11.7243 45.6563 14.367C44.4994 18.5592 47.02 22.8287 51.3054 23.9353C55.9882 25.1445 60.7151 21.3688 60.7151 16.4192C60.7151 11.4498 55.9283 7.65969 51.2344 8.91267ZM55.0082 12.2452C58.5011 13.9981 58.4885 18.8165 54.9862 20.6124C53.9957 21.1204 52.2692 21.1441 51.2266 20.6642C47.8469 19.1082 47.4827 14.4442 50.59 12.5119C51.9115 11.69 53.6883 11.5829 55.0082 12.2452ZM66.1271 11.9747C65.0908 12.3196 64.5695 12.6558 63.9187 13.3988C63.1705 14.2529 62.8091 15.2365 62.8091 16.4192C62.8091 17.6293 63.1805 18.6095 63.9762 19.4987C66.0961 21.8679 69.9705 21.3603 71.5027 18.5127C71.778 18.001 71.8363 17.6347 71.8363 16.4192C71.8363 14.7362 71.6027 14.126 70.5772 13.1316C69.4413 12.0302 67.4867 11.5221 66.1271 11.9747ZM68.0593 15.1027C68.6104 15.3891 68.8279 15.7709 68.8279 16.4521C68.8279 17.0975 68.5164 17.5592 67.911 17.811C66.9677 18.2037 65.8956 17.5029 65.8956 16.4937C65.8956 15.7848 66.1004 15.4004 66.6325 15.1103C67.1739 14.815 67.5023 14.8133 68.0593 15.1027ZM18.2428 23.7042L18.2854 31.9196L18.7133 32.3495L19.1411 32.7793L42.2484 32.8223C54.9573 32.846 65.5285 32.8229 65.7401 32.7711C65.9611 32.717 67.6499 31.1533 69.714 29.0913L73.3034 25.5055V42.5174V59.5293H71.9945H70.6855L70.6441 47.8247L70.6026 36.1204L70.1782 35.6939C69.5859 35.0989 68.6871 35.0989 68.0948 35.6939L67.6704 36.1204L67.6289 47.8247L67.5875 59.5293H39.5026H11.4178V40.4554V21.3815H13.1231C14.9267 21.3815 15.5762 21.2015 15.8887 20.6147C16.1182 20.1841 16.0839 19.3317 15.8223 18.9562C15.3982 18.3479 14.8579 18.2568 11.9817 18.3086L9.26336 18.3576L8.83587 18.7877L8.40838 19.2175L8.3681 39.3735L8.32782 59.5293H7.01557H5.70332L5.74406 38.5558L5.7848 17.5823L6.22618 16.9287C6.50999 16.5083 6.94782 16.1345 7.45247 15.8819L8.23754 15.4888H13.2189H18.2003L18.2428 23.7042ZM17.6526 40.6725C16.9407 41.3879 16.9407 42.0041 17.6526 42.7195L18.1774 43.2467H39.3435C62.1484 43.2467 61.1429 43.2814 61.5698 42.4799C61.7738 42.0968 61.7738 41.2951 61.5698 40.9121C61.1429 40.1105 62.1484 40.1453 39.3435 40.1453H18.1774L17.6526 40.6725ZM18.1311 48.0454C17.1486 48.4495 16.8875 49.7436 17.6364 50.4963L18.0607 50.9228L25.8123 50.9615C31.7953 50.9915 33.6518 50.9558 33.9497 50.8052C34.1619 50.6979 34.4628 50.349 34.6182 50.0299C34.8925 49.4673 34.8925 49.4319 34.6182 48.8693C34.4628 48.5502 34.1619 48.2022 33.9497 48.0963C33.6574 47.9502 31.7321 47.9052 26.0018 47.911C21.8426 47.9151 18.3008 47.9756 18.1311 48.0454ZM38.9654 48.0397C37.9818 48.4627 37.7218 49.7438 38.4673 50.4928C38.7853 50.8124 39.0391 50.9158 39.5055 50.9158C41.3002 50.9158 41.5082 48.28 39.737 47.9841C39.4824 47.9415 39.1351 47.9665 38.9654 48.0397ZM44.7527 48.0963C44.5405 48.2022 44.2395 48.5502 44.0841 48.8693C43.8099 49.4319 43.8099 49.4673 44.0841 50.0299C44.2395 50.349 44.5405 50.697 44.7527 50.8029C45.0445 50.9487 47.0119 50.9963 52.824 50.998C61.0354 51.0005 61.1675 50.9888 61.5698 50.2335C61.7738 49.8504 61.7738 49.0487 61.5698 48.6657C61.1675 47.9103 61.0354 47.8987 52.824 47.9012C47.0119 47.9029 45.0445 47.9505 44.7527 48.0963ZM75.9269 62.7532C75.9269 62.8205 75.8237 63.2741 75.6975 63.761C75.2805 65.3697 74.1932 66.6475 72.6089 67.3911L71.6829 67.8256H39.5055H7.32808L6.40212 67.3911C4.81778 66.6475 3.73054 65.3697 3.31355 63.761C3.18731 63.2741 3.08406 62.8205 3.08406 62.7532C3.08406 62.6858 19.4737 62.6307 39.5055 62.6307C59.5373 62.6307 75.9269 62.6858 75.9269 62.7532ZM32.1749 63.8604C31.2139 64.263 30.9562 65.5861 31.6943 66.3278L32.1047 66.7401H39.5055H46.9063L47.3167 66.3278C47.892 65.7497 47.892 64.7843 47.3167 64.2061L46.9065 63.7937L39.695 63.7624C35.7288 63.7454 32.3447 63.7894 32.1749 63.8604Z" fill="#E49B00"/>
</svg>
