<svg width="70" height="71" viewBox="0 0 70 71" fill="none" xmlns="http://www.w3.org/2000/svg">
<path fill-rule="evenodd" clip-rule="evenodd" d="M27.1679 0.252305C26.6117 0.404055 25.8056 0.728501 25.3765 0.973049C23.7137 1.92128 22.1651 4.00389 21.7671 5.82726C21.5301 6.91295 21.6636 9.09433 22.0401 10.2857C22.3941 11.4062 22.8899 11.8321 23.7008 11.7122C24.7119 11.5627 25.0342 10.6473 24.5836 9.20405C24.2354 8.08825 24.2856 6.54245 24.699 5.64984C25.1866 4.59702 25.8835 3.85062 26.8941 3.2991C27.7142 2.85148 27.8432 2.82346 29.0748 2.82554C30.5686 2.8279 31.1342 3.03583 32.3119 4.01555C33.3904 4.91273 33.9751 5.162 35 5.162C36.0249 5.162 36.6096 4.91273 37.6881 4.01555C38.7035 3.17079 39.4548 2.85952 40.6496 2.78837C42.3623 2.68641 43.8925 3.44489 44.8728 4.88138C45.9985 6.53149 45.9265 8.47831 44.6411 11.146C43.0817 14.3824 39.2739 18.3235 35.9301 20.1618L35 20.6733L34.0744 20.161C33.5654 19.8794 32.8111 19.4054 32.3984 19.108C31.3076 18.3217 30.4106 18.4159 29.9639 19.3636C29.6021 20.1309 29.8943 20.6988 31.0778 21.5293C32.4276 22.4764 34.3857 23.422 34.9972 23.422C36.3842 23.422 39.9511 21.0622 42.6501 18.359C47.8812 13.12 49.6602 7.68641 47.4184 3.7943C45.7818 0.953213 42.5054 -0.526699 39.397 0.171297C38.0527 0.473133 37.1897 0.891209 36.1142 1.76135C35.6281 2.15473 35.1203 2.47654 34.9858 2.47654C34.8513 2.47654 34.456 2.22811 34.1075 1.92447C32.1682 0.234827 29.5462 -0.397004 27.1679 0.252305ZM26.0585 14.4537C24.8267 15.1667 25.3678 17.0412 26.8055 17.0412C26.9902 17.0412 27.3424 16.8604 27.5881 16.6393C28.4576 15.8573 28.0295 14.4948 26.8626 14.3301C26.591 14.2917 26.2468 14.3447 26.0585 14.4537ZM16.7104 26.4856C14.9144 27.0584 13.2259 28.6593 12.5277 30.4513C12.2534 31.155 12.2054 31.572 12.1552 33.6863C12.0959 36.1787 12.2059 37.1482 12.6559 38.0982C12.8661 38.5415 12.8635 38.5725 12.6048 38.7163C12.0794 39.0088 10.5722 40.5613 10.014 41.3851C9.34114 42.3779 8.58285 44.0796 8.46669 44.8572C8.38898 45.3776 8.32242 45.4481 7.50213 45.8762C5.9387 46.6922 4.53222 48.5059 4.14226 50.2088C4.06551 50.5435 4.00295 51.8786 4.00295 53.1756C4.00323 55.3076 4.03506 55.6267 4.33587 56.5047L4.6685 57.4756L4.29783 57.7418C3.49476 58.3183 2.08994 59.8831 1.54372 60.8097C0.378799 62.7852 0 64.5216 0 67.8848V70.0568L0.468504 70.5284L0.937008 71H35H69.063L69.5315 70.5284L70 70.0568V67.8848C70 64.5369 69.6198 62.7822 68.4741 60.8405C67.9362 59.9293 66.4686 58.2878 65.7022 57.7404L65.3315 57.4756L65.6641 56.5047C65.9649 55.6267 65.9968 55.3076 65.997 53.1756C65.997 51.8786 65.9345 50.5435 65.8577 50.2088C65.4678 48.5059 64.0613 46.6922 62.4979 45.8762C61.6776 45.4481 61.611 45.3776 61.5333 44.8572C61.4169 44.078 60.6591 42.3788 59.978 41.37C59.6633 40.9039 58.9018 40.0511 58.2856 39.4749C57.1662 38.4281 57.1655 38.4269 57.3658 38.0336C57.7876 37.2049 57.9035 36.1537 57.8448 33.6863C57.778 30.8706 57.6063 30.2381 56.5167 28.794C54.5432 26.1782 50.85 25.4162 48.0095 27.0387C46.4655 27.9208 45.1492 29.7633 44.7784 31.5616C44.6735 32.0699 44.6373 33.1748 44.6772 34.6497C44.7301 36.6089 44.7851 37.0652 45.0512 37.7556L45.363 38.5647L45.0388 38.7894C44.8605 38.913 44.3581 39.3542 43.9222 39.7699L43.1299 40.5256L42.3376 39.7699C41.9017 39.3542 41.3993 38.913 41.221 38.7894L40.8968 38.5647L41.2113 37.7556C41.4809 37.0619 41.5341 36.622 41.5845 34.6748C41.6219 33.2294 41.583 32.0943 41.4779 31.5538C40.8654 28.4074 38.1919 26.1962 35 26.1962C31.8213 26.1962 29.1222 28.4279 28.5203 31.5538C28.4172 32.0891 28.3785 33.2439 28.4155 34.6748C28.4659 36.622 28.5191 37.0619 28.7887 37.7556L29.1032 38.5647L28.779 38.7894C28.6006 38.913 28.0984 39.3541 27.663 39.7694L26.8712 40.5247L26.1472 39.8422C25.749 39.4667 25.2474 39.023 25.0324 38.8558L24.6417 38.5522L24.9511 37.7492C25.2145 37.0663 25.27 36.6033 25.3228 34.6497C25.3944 31.9999 25.2736 31.2031 24.5922 29.832C23.7777 28.1928 22.3912 26.9981 20.6893 26.4686C19.5326 26.1088 17.8696 26.1159 16.7104 26.4856ZM20.4184 29.2979C21.0909 29.6292 21.8404 30.3767 22.2187 31.0935C22.4908 31.6091 22.5312 31.9232 22.574 33.8571C22.6345 36.5803 22.485 37.1479 21.4265 38.2135C20.3445 39.3026 18.8938 39.6459 17.4565 39.153C16.5726 38.8497 15.5415 37.8836 15.1673 37.0078C14.888 36.3542 14.8674 36.1161 14.9074 33.9868C14.956 31.3998 15.0646 31.0059 15.9856 30.0787C16.8444 29.2143 17.539 28.9495 18.8091 29.0023C19.5091 29.0315 20.0965 29.1394 20.4184 29.2979ZM36.3344 29.1544C37.2516 29.4948 37.9791 30.1566 38.4261 31.0571C38.8534 31.9179 38.8583 31.9512 38.8583 34.0309C38.8583 36.6301 38.702 37.191 37.696 38.2038C35.8404 40.0716 32.9526 39.6519 31.5886 37.3161C31.2234 36.6908 31.2091 36.5897 31.1643 34.3311L31.118 31.9932L31.5587 31.0923C32.2508 29.6767 33.3733 28.9915 35 28.9915C35.4926 28.9915 36.0931 29.0648 36.3344 29.1544ZM52.8667 29.2386C53.5751 29.5623 54.4185 30.3947 54.7782 31.125C55.0083 31.5921 55.0558 32.0247 55.0926 33.9868C55.1326 36.1161 55.112 36.3542 54.8327 37.0078C54.4585 37.8836 53.4274 38.8497 52.5435 39.153C51.108 39.6454 49.6552 39.3025 48.5767 38.2168C47.5705 37.2038 47.4014 36.6229 47.4024 34.1821C47.4028 33.1085 47.4654 32.0046 47.5414 31.729C47.8355 30.6631 48.9091 29.5093 49.9508 29.1392C50.6504 28.8907 52.2228 28.9442 52.8667 29.2386ZM15.4628 41.24C16.4037 41.7605 17.7748 42.1427 18.713 42.1459C19.6927 42.1494 21.1456 41.7453 21.9865 41.2356C22.5134 40.9163 22.8703 40.785 23.0534 40.8436C23.6356 41.0296 25.166 42.7692 25.6945 43.8458C25.979 44.4251 26.1753 44.9583 26.1308 45.0306C26.0864 45.103 25.8006 45.1959 25.4958 45.2371C23.87 45.4566 21.8561 47.0103 21.022 48.6885C20.3375 50.0659 20.2208 50.8405 20.2857 53.5742C20.3346 55.6391 20.3824 56.0483 20.6512 56.703L20.9605 57.4564L20.5049 57.8097C20.2543 58.004 19.7382 58.456 19.3582 58.8142L18.6671 59.4656L18.1869 58.9494C17.9228 58.6655 17.4351 58.2118 17.1033 57.941L16.4999 57.4487L16.8149 56.6299C17.0828 55.9334 17.1394 55.4757 17.1931 53.5666C17.2693 50.861 17.0717 49.7297 16.2904 48.3979C15.3785 46.8434 13.4656 45.437 11.9925 45.2381C11.6739 45.1951 11.3823 45.0789 11.3445 44.9797C11.1966 44.5917 12.3124 42.7787 13.322 41.7666C13.8738 41.2134 14.3864 40.7609 14.4611 40.7609C14.5357 40.7609 14.9865 40.9765 15.4628 41.24ZM31.2646 40.9509C31.5412 41.2865 32.9885 41.8573 34.0091 42.0334C35.398 42.2731 36.6518 42.0486 38.1242 41.2961L39.2503 40.7207L39.7778 41.1447C40.3702 41.6209 41.0568 42.3397 41.3635 42.8045C41.5479 43.0839 41.5367 43.2061 41.2501 44.0529C41.0753 44.5692 40.9307 45.0879 40.9288 45.2055C40.9267 45.3256 40.5855 45.587 40.1495 45.8022C39.0374 46.3514 37.8491 47.5474 37.2819 48.6885C36.6005 50.0597 36.4801 50.8472 36.545 53.506C36.5922 55.4405 36.6498 55.9443 36.9034 56.6396L37.2054 57.468L36.7573 57.8112C36.5108 57.9998 36.0096 58.4501 35.6438 58.8117L34.9784 59.4691L34.4036 58.8804C34.0874 58.5565 33.5895 58.0986 33.297 57.8625L32.7654 57.4336L33.0811 56.6223C33.3532 55.9228 33.4046 55.4939 33.4539 53.506C33.5201 50.847 33.4001 50.0608 32.7181 48.6885C32.1509 47.5474 30.9626 46.3514 29.8505 45.8022C29.4145 45.587 29.0733 45.3256 29.0712 45.2055C29.0693 45.0879 28.9238 44.5665 28.7478 44.0468L28.428 43.1019L28.8016 42.5829C29.2922 41.9011 30.5937 40.7609 30.8813 40.7609C31.006 40.7609 31.1785 40.8463 31.2646 40.9509ZM47.7925 41.1092C49.7128 42.3884 52.3512 42.4317 54.5789 41.2205L55.5053 40.7168L56.0646 41.1626C56.3722 41.4079 56.8665 41.886 57.163 42.225C57.7974 42.9505 58.7545 44.7199 58.6545 44.9822C58.6162 45.0826 58.3122 45.2061 57.9789 45.2564C55.7382 45.5946 53.515 47.832 52.9703 50.297C52.6261 51.8544 52.7497 55.4982 53.1851 56.6299L53.5001 57.4487L52.8967 57.941C52.5649 58.2118 52.0772 58.6655 51.8131 58.9494L51.3329 59.4656L50.6418 58.8142C50.2618 58.456 49.7457 58.004 49.4951 57.8097L49.0395 57.4564L49.3488 56.703C49.6176 56.0483 49.6654 55.6391 49.7143 53.5742C49.7792 50.8405 49.6625 50.0659 48.978 48.6885C48.1439 47.0103 46.13 45.4566 44.5042 45.2371C44.1993 45.1959 43.9163 45.1074 43.8751 45.0404C43.7581 44.8498 44.4628 43.4124 45.0702 42.6024C45.6003 41.8957 46.8766 40.7609 47.1413 40.7609C47.212 40.7609 47.5049 40.9176 47.7925 41.1092ZM11.928 48.0677C12.8387 48.38 13.9272 49.4759 14.2376 50.3926C14.4112 50.9057 14.4685 51.5664 14.4685 53.0564C14.4685 55.4994 14.2563 56.2168 13.2545 57.1601C12.3689 57.994 11.57 58.2864 10.3763 58.2133C9.28726 58.1466 8.55061 57.8298 7.85433 57.1289C6.93785 56.2063 6.8261 55.8047 6.77677 53.2555C6.72592 50.6201 6.84512 50.1206 7.76531 49.1158C8.87346 47.9055 10.3623 47.5307 11.928 48.0677ZM28.1878 48.0677C29.1266 48.3898 30.1954 49.4818 30.5127 50.4434C30.71 51.0416 30.7439 51.5561 30.704 53.3519C30.6612 55.2764 30.6199 55.6014 30.3529 56.1071C29.6381 57.4609 28.3548 58.2419 26.8701 58.2266C25.2321 58.2098 24.1183 57.527 23.4288 56.1167L22.9881 55.2157L23.0356 52.8779C23.0778 50.8019 23.1165 50.4779 23.3803 49.9852C24.3189 48.2323 26.3296 47.4303 28.1878 48.0677ZM44.4067 48.0537C45.1934 48.3235 46.2106 49.2055 46.6138 49.9675C46.8844 50.4789 46.9219 50.7896 46.9643 52.8779L47.0119 55.2157L46.5712 56.1167C45.8817 57.527 44.7679 58.2098 43.1299 58.2266C41.6452 58.2419 40.3619 57.4609 39.6471 56.1071C39.3801 55.6014 39.3388 55.2764 39.296 53.3519C39.2357 50.6352 39.3863 50.0598 40.4333 49.0059C41.5274 47.9045 42.9665 47.5597 44.4067 48.0537ZM61.1184 48.2178C61.861 48.6009 62.7363 49.578 63.0295 50.3507C63.3851 51.2884 63.3005 55.2872 62.9081 56.0839C62.5596 56.7915 61.8015 57.5518 61.1077 57.8897C60.3232 58.2716 58.8553 58.3356 58.043 58.0233C57.1109 57.665 56.1512 56.7048 55.8115 55.791C55.4348 54.7777 55.4046 51.4497 55.7624 50.3926C56.0564 49.5243 57.1633 48.3821 58.0155 48.0677C58.8533 47.7586 60.371 47.832 61.1184 48.2178ZM7.12608 60.0476C9.17675 61.3598 12.1427 61.3218 14.1914 59.957L14.7413 59.5906L15.2322 59.9674C15.8849 60.4687 16.9335 61.578 17.0231 61.8622C17.0626 61.9874 16.9338 62.6432 16.7369 63.3198C16.4658 64.2511 16.3593 64.9964 16.2987 66.3878L16.2185 68.2258H9.4872H2.75591L2.75797 66.804C2.76114 64.5499 3.21531 63.0991 4.4297 61.4628C4.87217 60.8666 6.21319 59.6257 6.41506 59.6257C6.44358 59.6257 6.76354 59.8156 7.12608 60.0476ZM23.3859 60.0468C25.4001 61.3332 28.2462 61.3364 30.3159 60.0544L31.0232 59.6162L31.7086 60.1228C32.0856 60.4013 32.6273 60.9372 32.9125 61.3136L33.4309 61.998L33.1234 62.9271C32.749 64.058 32.5197 65.6534 32.5197 67.1261V68.2258H25.7494H18.9792L19.0517 66.4572C19.1454 64.1737 19.514 63.0504 20.6904 61.4628C21.132 60.8667 22.4728 59.6257 22.6749 59.6257C22.7034 59.6257 23.0234 59.8151 23.3859 60.0468ZM39.6917 60.059C41.758 61.3389 44.6028 61.3314 46.6239 60.0404C47.2762 59.6239 47.3022 59.6191 47.6573 59.8512C48.3599 60.3105 49.5417 61.6527 49.9887 62.4988C50.6442 63.74 50.9842 65.23 50.9842 66.8608V68.2258H43.1299H35.2756L35.2779 66.9427C35.2834 64.0042 36.3084 61.6539 38.2327 60.1669C38.6146 59.8717 38.9418 59.6291 38.9595 59.6279C38.9773 59.6266 39.3068 59.8207 39.6917 60.059ZM55.8337 59.9704C56.7515 60.5983 57.7293 60.9033 59.0647 60.9782C60.5344 61.0608 61.7611 60.7596 62.8855 60.0401L63.5564 59.6108L64.1057 59.9939C65.3828 60.8849 66.6396 62.8178 67.0323 64.4949C67.1465 64.9828 67.2409 66.0221 67.242 66.804L67.2441 68.2258H60.5128H53.7815L53.7013 66.3878C53.6409 65.0031 53.5339 64.2502 53.2672 63.3341C53.0727 62.6654 52.9134 62.0653 52.9134 62.0007C52.9134 61.6783 54.9392 59.6257 55.2574 59.6257C55.2972 59.6257 55.5564 59.7807 55.8337 59.9704Z" fill="#E49B00"/>
</svg>
