<svg width="74" height="72" viewBox="0 0 74 72" fill="none" xmlns="http://www.w3.org/2000/svg">
<path fill-rule="evenodd" clip-rule="evenodd" d="M38.2735 0.400236C37.2752 0.673311 36.7145 1.0234 35.9546 1.84768C33.9808 3.98894 34.3025 7.33563 36.6483 9.06655C37.0192 9.34035 37.5665 9.63986 37.8644 9.73233L38.4062 9.90066V11.7365V13.5724L37.3587 13.8263C34.0034 14.6395 29.9425 16.6277 26.9197 18.9374C25.815 19.7816 23.4109 22.0947 22.469 23.2197L21.7433 24.0866L16.2158 24.1588L10.6882 24.231L10.3178 24.5792C9.58885 25.2642 9.75168 26.4944 10.6236 26.8917C10.8466 26.9933 12.4915 27.0485 15.2955 27.0485C17.6758 27.0485 19.6233 27.0725 19.6233 27.1017C19.6233 27.131 19.2748 27.8299 18.849 28.6549C18.4231 29.4799 17.8593 30.7239 17.596 31.4191L17.1173 32.6834H8.98693H0.856508L0.482293 33.0085C-0.0114096 33.4374 -0.152571 34.2757 0.182922 34.7876C0.692084 35.5648 0.783254 35.5731 8.87148 35.5731H16.3338L16.2465 35.8981C16.1447 36.2777 15.7595 39.0285 15.6396 40.2327L15.5569 41.0635H12.237C8.62846 41.0635 8.2791 41.1279 7.94823 41.8541C7.72991 42.3332 7.72991 42.6834 7.94823 43.1625C8.27997 43.8907 8.62369 43.9531 12.2989 43.9531H15.6806L15.7773 45.1112C15.8693 46.2155 16.3852 49.086 16.5351 49.3285C16.5742 49.3918 14.4872 49.4436 11.8973 49.4436C6.78918 49.4436 6.44733 49.4888 5.96229 50.229C5.6268 50.7409 5.76796 51.5792 6.26167 52.0081C6.6353 52.3328 6.64238 52.3332 12.0535 52.3332H17.471L17.6311 52.7923C17.923 53.6297 19.2953 56.3209 20.0546 57.5452C22.8641 62.0751 27.0894 65.8629 31.9767 68.233C39.0703 71.6729 46.6832 72.136 54.3718 69.5948C55.6278 69.1797 59.1509 67.4993 60.2696 66.7818C61.442 66.0299 61.6496 64.9892 60.7744 64.2528C60.1906 63.7614 59.5777 63.7875 58.7048 64.341C57.3428 65.2049 54.8717 66.3601 53.184 66.922C45.3892 69.5169 36.8711 68.3721 30.0984 63.8194C19.2885 56.5529 15.4523 42.5151 21.0563 30.7328C24.63 23.2195 31.3093 18.0318 39.7036 16.2499C41.3557 15.8991 41.7945 15.8658 44.7636 15.8658C47.7349 15.8658 48.1705 15.8989 49.829 16.251C52.4806 16.8138 54.1046 17.381 56.539 18.5951C58.9705 19.8077 60.67 20.9702 62.561 22.7141C71.633 31.0805 73.6679 44.8439 67.3962 55.4162C66.5915 56.7724 66.4912 57.1144 66.7292 57.6888C67.0256 58.4042 68.0642 58.7674 68.7556 58.3975C69.1246 58.2 69.8771 57.005 70.8256 55.1104C75.7703 45.2331 74.7388 33.4584 68.1521 24.5923C67.0393 23.0942 64.5799 20.536 63.1131 19.3508C60.015 16.8473 56.1457 14.8729 52.3848 13.8767L51.1209 13.5418L51.1233 11.7345L51.1258 9.9271L51.9274 9.58005C52.963 9.13157 53.9312 8.18202 54.4138 7.14144C54.9568 5.97054 54.9595 4.35347 54.4205 3.19124C53.8922 2.0527 53.1272 1.267 52.0117 0.717668L51.0556 0.246649L45.056 0.216307C40.1324 0.191456 38.916 0.224398 38.2735 0.400236ZM50.397 3.15772C51.0157 3.2814 51.8051 4.08675 51.9229 4.7141C52.047 5.37555 51.7918 6.09942 51.2526 6.61624L50.8133 7.03741L44.8872 7.07816C39.1298 7.11789 38.9476 7.11052 38.4824 6.82314C37.5594 6.25272 37.2703 4.95438 37.8673 4.06075C38.5273 3.07276 38.5822 3.06453 44.5649 3.06438C47.5151 3.06424 50.1395 3.10628 50.397 3.15772ZM48.2312 11.4803V12.9613H44.7636H41.2959V11.4803V9.99934H44.7636H48.2312V11.4803ZM42.0184 19.777C39.034 20.2557 36.8299 20.9521 34.5052 22.1509C28.4547 25.2709 24.2482 30.827 22.7733 37.6467C22.3082 39.7968 22.3129 44.2252 22.7821 46.4094C24.0938 52.5121 27.5761 57.5982 32.6991 60.8934C40.0214 65.6031 49.5057 65.6031 56.828 60.8934C61.951 57.5982 65.4333 52.5121 66.745 46.4094C67.2142 44.2252 67.2189 39.7968 66.7538 37.6467C64.7639 28.4458 57.6264 21.5131 48.545 19.9607C47.0123 19.6986 43.1796 19.5908 42.0184 19.777ZM47.87 22.784C56.3041 24.168 62.7582 30.7298 64.0734 39.2574C64.3433 41.008 64.2681 44.2131 63.9188 45.8314C63.0683 49.7738 61.3154 52.9987 58.4988 55.8037C55.6432 58.6473 52.5279 60.3397 48.6262 61.1667C46.667 61.582 43.1312 61.6195 41.2569 61.245C38.548 60.7038 35.876 59.5877 33.6383 58.0623C33.0423 57.656 31.8677 56.6397 31.0283 55.8037C28.2117 52.9987 26.4588 49.7738 25.6083 45.8314C25.259 44.2131 25.1838 41.008 25.4537 39.2574C26.7594 30.7914 33.2177 24.1913 41.5735 22.7836C43.0979 22.5267 46.3036 22.527 47.87 22.784ZM44.057 25.3719C43.5243 25.6671 43.3294 26.1645 43.3238 27.243C43.3181 28.3409 43.5695 28.9417 44.144 29.2035C44.6081 29.4148 44.9885 29.4007 45.465 29.1543C46.0246 28.8649 46.2084 28.3578 46.2084 27.1028C46.2084 26.093 46.1781 25.9845 45.7861 25.5925C45.3169 25.1234 44.6571 25.0391 44.057 25.3719ZM54.3718 30.5792C54.1334 30.6876 52.3196 32.4021 50.3411 34.389L46.744 38.0016L46.1691 37.7987C45.4617 37.5492 43.9984 37.5531 43.3187 37.8062L42.813 37.9948L40.9945 36.2059C39.3233 34.562 39.1324 34.4172 38.6371 34.4172C37.9475 34.4172 37.5968 34.6093 37.3241 35.1367C36.8718 36.0114 36.9771 36.2128 38.9079 38.1641L40.7098 39.9852L40.4972 40.6919C40.0389 42.2146 40.3907 43.81 41.4504 45.0138C43.1921 46.9927 46.335 46.9927 48.0767 45.0138C49.1369 43.8092 49.4882 42.2146 49.0292 40.6892L48.8158 39.9803L52.569 36.2172C56.246 32.5307 56.3223 32.4421 56.3223 31.866C56.3223 31.4233 56.2281 31.1838 55.9414 30.897C55.7319 30.6875 55.4771 30.5161 55.3752 30.5161C55.2733 30.5161 55.1034 30.4859 54.9977 30.4491C54.8918 30.4124 54.6102 30.4709 54.3718 30.5792ZM45.8616 40.9768C46.439 41.5541 46.5085 42.179 46.0746 42.8908C45.258 44.2298 43.1765 43.5561 43.1748 41.952C43.1739 41.2113 43.9601 40.4855 44.7636 40.4855C45.261 40.4855 45.459 40.5741 45.8616 40.9768ZM28.3639 40.9788C27.6976 41.645 27.7447 42.5914 28.4714 43.1338C28.8888 43.4454 30.027 43.606 30.7965 43.4616C32.0082 43.2342 32.4695 41.8953 31.6266 41.0523C31.2251 40.6508 31.1427 40.63 29.9584 40.63C28.8342 40.63 28.6787 40.664 28.3639 40.9788ZM57.9005 41.0523C57.5883 41.3646 57.4782 41.6119 57.4782 42.001C57.4782 43.1494 58.1292 43.5768 59.7539 43.4947C60.7557 43.4441 60.8608 43.4074 61.2498 42.9721C61.6994 42.4689 61.7701 42.023 61.4956 41.4206C61.2336 40.8456 60.6691 40.63 59.4248 40.63C58.3995 40.63 58.2935 40.6593 57.9005 41.0523ZM0.887283 49.6555C-0.545424 50.2751 -0.146069 52.3332 1.40685 52.3332C2.79101 52.3332 3.39611 50.5471 2.25569 49.8274C1.71807 49.4882 1.37434 49.445 0.887283 49.6555ZM44.3711 54.7481C44.195 54.7812 43.8862 55.004 43.6848 55.2434C43.3606 55.6288 43.3187 55.8091 43.3187 56.8211C43.3187 57.8752 43.3508 57.9995 43.7338 58.4282C44.2187 58.9708 44.9163 59.0522 45.5459 58.6397C46.0444 58.313 46.2084 57.8608 46.2084 56.8123C46.2084 56.3459 46.1463 55.8007 46.0704 55.601C45.8492 55.0196 45.0531 54.6198 44.3711 54.7481ZM63.3909 60.7022C62.8374 61.2557 62.8193 61.9586 63.3426 62.5805C63.6507 62.9466 63.8235 63.0251 64.3218 63.0251C65.0396 63.0251 65.4631 62.7633 65.7102 62.1667C66.294 60.7572 64.4807 59.6124 63.3909 60.7022Z" fill="#E49B00"/>
</svg>
