<svg width="71" height="71" viewBox="0 0 71 71" fill="none" xmlns="http://www.w3.org/2000/svg">
<path fill-rule="evenodd" clip-rule="evenodd" d="M0.888621 0.135899C0.72747 0.200937 0.461522 0.424478 0.297734 0.632349L0 1.01051L0.0356725 30.0395L0.0713451 59.0684L0.455831 59.4528L0.840456 59.8374L3.66178 59.8798L6.48324 59.9222L6.98807 60.4545C7.2747 60.7566 9.60868 62.2916 12.3879 64.0056C15.0802 65.6659 17.6578 67.2723 18.1158 67.5753C19.045 68.1898 19.9893 69.0387 19.9905 69.2606C19.9934 69.8175 20.3293 70.4877 20.7269 70.7299C21.1542 70.9901 21.5076 70.9996 30.9296 71C37.8455 71.0004 40.778 70.9553 40.9929 70.8457C41.6665 70.5015 41.7755 70.1933 41.7788 68.6231L41.7818 67.1471L42.4995 65.5723L43.2171 63.9976L43.2756 61.9542L43.3341 59.9107L56.7822 59.8741L70.2303 59.8374L70.6151 59.4528L71 59.0684V29.9388V0.809295L70.5467 0.404648L70.0933 0L35.6376 0.0087364C16.6868 0.0135899 1.04991 0.0708619 0.888621 0.135899ZM23.4577 4.15603L24.1521 5.5386L18.0486 5.57743L11.9452 5.61625L11.5636 5.9976C11.031 6.52983 11.031 7.33746 11.5636 7.86969L11.9452 8.25104L18.744 8.28945L25.5429 8.328L26.1842 9.60379C26.9493 11.1257 28.2357 12.5025 29.4283 13.0759C31.1521 13.9046 30.181 13.8673 50.0698 13.8673H68.2933V35.5003V57.1333H55.8092H43.3251L43.2822 52.3144C43.2397 47.5369 43.2364 47.4897 42.903 46.8128C42.4972 45.9894 41.7271 45.193 40.92 44.7624C40.4132 44.4921 40.1174 44.4447 38.9364 44.4447C37.9084 44.4447 37.4413 44.5038 37.1359 44.6727C36.7238 44.9004 36.723 44.9001 36.0255 44.2723C35.0131 43.3611 34.3046 43.0926 33.0719 43.1528C32.5184 43.1798 32.0656 43.1861 32.0656 43.1668C32.0656 43.1474 32.226 42.5845 32.4222 41.916C34.135 36.0765 30.8015 29.9853 24.9172 28.2022C23.8218 27.8703 23.4373 27.8238 21.7941 27.8238C20.151 27.8238 19.7665 27.8703 18.671 28.2022C13.5361 29.7581 10.2222 34.6709 10.7895 39.8859C11.0904 42.6516 12.0659 44.6625 14.0805 46.6702C15.0285 47.615 15.6054 48.0604 16.4149 48.473L17.49 49.0209L17.4906 52.3235C17.4909 54.2428 17.4336 55.7338 17.3535 55.883C17.2779 56.0244 17.0301 56.1807 16.803 56.2306C16.4481 56.3084 16.0914 56.1373 14.2655 55.0128C13.0971 54.2931 11.8633 53.5627 11.5236 53.3896C10.7866 53.014 9.46391 52.8795 8.65538 53.0982C7.20016 53.4916 5.97466 54.8141 5.6804 56.3086L5.518 57.1333H4.14801H2.77802V29.9534V2.77346H12.7706H22.7632L23.4577 4.15603ZM68.2933 6.93559V11.0979L49.9366 11.0611L31.5798 11.0245L30.7853 10.6347C30.3482 10.4203 29.7659 9.98348 29.4912 9.66398C29.2165 9.34448 28.2765 7.66348 27.4025 5.92827L25.813 2.77346H47.0532H68.2933V6.93559ZM6.45631 5.67283C5.57172 6.05113 5.33783 7.19671 6.00839 7.8665C6.85121 8.70866 8.25451 8.12582 8.25451 6.93365C8.25451 6.02049 7.26512 5.32671 6.45631 5.67283ZM52.5236 5.68282C52.3624 5.74785 52.0912 5.97791 51.9212 6.19397C51.3251 6.95098 51.8731 8.10238 52.9092 8.27045C53.3243 8.33771 53.4778 8.28391 53.8702 7.93362C54.2601 7.58555 54.3373 7.42053 54.3373 6.93365C54.3373 6.45107 54.2596 6.28133 53.887 5.94879C53.4311 5.54165 53.0551 5.46829 52.5236 5.68282ZM58.0757 5.68282C57.9146 5.74785 57.6433 5.97791 57.4733 6.19397C56.8773 6.95098 57.4253 8.10238 58.4613 8.27045C58.8765 8.33771 59.03 8.28391 59.4224 7.93362C59.8123 7.58555 59.8895 7.42053 59.8895 6.93365C59.8895 6.45107 59.8117 6.28133 59.4392 5.94879C58.9832 5.54165 58.6072 5.46829 58.0757 5.68282ZM63.6279 5.68282C63.4667 5.74785 63.1955 5.97791 63.0255 6.19397C62.4294 6.95098 62.9774 8.10238 64.0135 8.27045C64.4286 8.33771 64.5821 8.28391 64.9745 7.93362C65.3644 7.58555 65.4416 7.42053 65.4416 6.93365C65.4416 6.45107 65.3639 6.28133 64.9913 5.94879C64.5354 5.54165 64.1593 5.46829 63.6279 5.68282ZM8.67717 16.7718C8.52449 16.8343 8.27464 17.024 8.12196 17.1936C7.86073 17.4837 7.84435 17.6972 7.84435 20.8123V24.1229L8.22925 24.5073L8.61401 24.8918L35.466 24.9276L62.3181 24.9632L62.7726 24.5576L63.227 24.1518V20.8009V17.45L62.7737 17.0454L62.3203 16.6408L35.6376 16.6495C20.962 16.6543 8.82985 16.7094 8.67717 16.7718ZM60.5203 20.8009V22.1877H35.5357H10.551V20.8009V19.4142H35.5357H60.5203V20.8009ZM41.9745 27.8687C41.8133 27.9347 41.5421 28.1656 41.3721 28.3816C40.9818 28.8774 41.0639 29.5766 41.5725 30.0845L41.9269 30.4387H49.416H56.9052L57.2869 30.0574C57.8195 29.5251 57.8195 28.7175 57.2869 28.1853L56.9053 27.8039L49.5865 27.7762C45.5612 27.7609 42.1358 27.8025 41.9745 27.8687ZM61.407 27.8652C60.8659 28.0933 60.487 28.7236 60.5729 29.2525C60.8412 30.9047 63.2208 30.7868 63.2208 29.1213C63.2208 28.2003 62.2337 27.5167 61.407 27.8652ZM23.5292 30.7166C27.2748 31.5023 30.1175 35.0023 30.1175 38.8284C30.1175 39.6065 29.8486 41.0887 29.5827 41.7755L29.435 42.157L28.8705 41.9314C28.4547 41.7651 28.0188 41.7223 27.2176 41.7686L26.1294 41.8315L26.072 39.2553C26.0186 36.8503 25.9913 36.6278 25.6602 35.9099C25.173 34.8536 24.5555 34.1948 23.6238 33.7377C22.5746 33.223 21.1058 33.1961 20.0591 33.6724C19.1538 34.0843 18.2813 34.9499 17.881 35.8332C17.5718 36.5155 17.5581 36.7048 17.4912 41.2308L17.4218 45.9213L16.8666 45.5186C16.0249 44.9081 14.9707 43.6897 14.4663 42.744C12.7312 39.492 13.321 35.6198 15.9517 32.9915C18.0148 30.9304 20.7021 30.1236 23.5292 30.7166ZM41.9745 33.4174C41.8133 33.4824 41.5421 33.7125 41.3721 33.9286C40.9818 34.4243 41.0639 35.1235 41.5725 35.6315L41.9269 35.9856H52.1921H62.4573L62.839 35.6043C63.4069 35.0368 63.378 34.2256 62.7705 33.6834L62.3203 33.2815L52.294 33.2902C46.7795 33.2951 42.1358 33.3524 41.9745 33.4174ZM22.399 36.263C23.2745 36.6779 23.2449 36.4304 23.321 43.9904L23.3904 50.8856L23.7066 51.2014C24.1173 51.6114 25.0994 51.6397 25.5264 51.2535C25.9872 50.8368 26.0954 50.1545 26.0962 47.6581L26.097 45.3247L26.5028 44.9194C26.8284 44.594 27.027 44.5149 27.5091 44.5185C27.8394 44.5208 28.2034 44.5989 28.3179 44.6918C28.9171 45.178 28.9404 45.2988 29.0119 48.2913L29.0813 51.195L29.4708 51.5293C29.8883 51.8878 30.6272 51.9746 31.1016 51.7208C31.6488 51.4284 31.788 50.8701 31.788 48.9675C31.788 47.9771 31.8466 47.0128 31.9183 46.8244C32.3528 45.6829 33.8496 45.5718 34.4588 46.6359C34.5709 46.8314 34.6583 47.7705 34.7029 49.2536C34.7645 51.3093 34.804 51.6089 35.0583 51.949C35.5687 52.6315 36.3868 52.7151 37.0797 52.1555C37.3933 51.9022 37.413 51.7884 37.4789 49.8533C37.5479 47.8315 37.551 47.8154 37.9378 47.4833C38.5151 46.9875 39.4098 47.0178 40.0099 47.5533L40.4632 47.958L40.5014 55.5068L40.5395 63.0556L39.8316 64.7052C39.3032 65.937 39.1038 66.5921 39.0446 67.291L38.9655 68.2271H30.8147H22.6639L22.3155 67.7071C21.4385 66.3983 20.748 65.9025 14.1599 61.8531C11.5261 60.2343 9.20268 58.7312 8.99684 58.5129C8.19177 57.6594 8.18317 56.4723 8.97851 55.9518C9.65185 55.5111 9.97804 55.6323 12.8477 57.3901C15.4369 58.9761 15.6401 59.0747 16.3204 59.0747C17.9161 59.0747 19.3297 58.2378 19.9378 56.933L20.2645 56.2319L20.2659 46.7605C20.2674 36.4116 20.244 36.7182 21.0672 36.272C21.555 36.0075 21.8562 36.0056 22.399 36.263ZM41.9745 38.9643C41.8133 39.0294 41.5421 39.2594 41.3721 39.4755C40.9818 39.9712 41.0639 40.6704 41.5725 41.1784L41.9269 41.5325H46.64H51.353L51.7347 41.1512C52.3026 40.5837 52.2737 39.7725 51.6662 39.2303L51.216 38.8284L46.7418 38.8372C44.281 38.842 42.1358 38.8993 41.9745 38.9643ZM55.8549 38.9643C55.6937 39.0294 55.4225 39.2594 55.2525 39.4755C54.8621 39.9712 54.9443 40.6704 55.4529 41.1784L55.8073 41.5325H59.1323H62.4573L62.839 41.1512C63.4069 40.5837 63.378 39.7725 62.7705 39.2303L62.3203 38.8284L59.2342 38.8372C57.5367 38.842 56.0161 38.8993 55.8549 38.9643Z" fill="#E49B00"/>
</svg>
