<svg width="71" height="71" viewBox="0 0 71 71" fill="none" xmlns="http://www.w3.org/2000/svg">
<path fill-rule="evenodd" clip-rule="evenodd" d="M10.2789 0.221896C9.38131 0.53267 8.76093 0.978654 8.25337 1.67786C7.51461 2.69575 7.43346 3.25586 7.43346 7.33573V11.0426L5.24511 11.0911C3.38452 11.1323 2.96199 11.183 2.42442 11.4299C1.50156 11.8538 0.827407 12.5056 0.387652 13.3992L0 14.1872V35.1967V56.2062L0.292614 56.8373C0.720282 57.7599 1.3729 58.4318 2.26728 58.8702L3.05675 59.2571L15.8048 59.2945L28.5528 59.3321V60.9797V62.6275L26.7118 62.6757C25.0277 62.7198 24.803 62.7573 24.0755 63.1138C23.1209 63.5817 22.402 64.3784 22.0236 65.3877C21.7952 65.9972 21.7446 66.4691 21.7446 67.9923C21.7446 70.0339 21.8555 70.4659 22.4595 70.7776C23.0387 71.0766 47.9684 71.0729 48.548 70.7738C49.1801 70.4474 49.2876 69.973 49.2311 67.7598C49.189 66.1139 49.1308 65.6671 48.8905 65.1438C48.4681 64.2238 47.8147 63.5501 46.9186 63.1109C46.1979 62.7577 45.9687 62.7198 44.2882 62.6757L42.4472 62.6275V60.9797V59.3321L55.1952 59.2945L67.9433 59.2571L68.7327 58.8702C69.6271 58.4318 70.2797 57.7599 70.7074 56.8373L71 56.2062V35.1967V14.1872L70.6124 13.3992C70.1726 12.5056 69.4984 11.8538 68.5756 11.4299C68.0383 11.1832 67.6155 11.1323 65.7627 11.0912L63.5821 11.0428L63.5396 7.06794L63.4971 3.09306L63.1094 2.3051C62.6702 1.41243 61.997 0.76107 61.0726 0.334224L60.4403 0.0421709L35.7084 0.0112461C12.511 -0.0177373 10.9332 -0.00470173 10.2789 0.221896ZM60.0728 2.94398C60.7411 3.28887 60.7877 3.58369 60.7877 7.46789V11.067H35.5H10.2123L10.2172 7.4267C10.2225 3.53904 10.259 3.3069 10.9223 2.93996C11.4371 2.65512 59.5209 2.65914 60.0728 2.94398ZM15.6464 5.71349C14.4419 6.37983 14.9458 8.29343 16.3258 8.29343C17.0299 8.29343 17.7153 7.61599 17.7153 6.92011C17.7153 5.87893 16.5625 5.20663 15.6464 5.71349ZM21.7599 5.71349C20.5554 6.37983 21.0594 8.29343 22.4393 8.29343C23.1434 8.29343 23.8288 7.61599 23.8288 6.92011C23.8288 5.87893 22.676 5.20663 21.7599 5.71349ZM27.8734 5.71349C26.6689 6.37983 27.1729 8.29343 28.5528 8.29343C29.2569 8.29343 29.9423 7.61599 29.9423 6.92011C29.9423 5.87893 28.7895 5.20663 27.8734 5.71349ZM38.9889 5.71349C38.0577 6.22853 38.0882 7.69532 39.0392 8.12771C39.5603 8.36471 54.7821 8.36471 55.3033 8.12771C55.7015 7.9466 56.0636 7.36513 56.0636 6.90666C56.0636 6.4482 55.7015 5.86673 55.3033 5.68562C54.7482 5.43322 39.4482 5.45929 38.9889 5.71349ZM7.43346 19.1865C7.43346 24.985 7.45028 25.1242 8.19376 25.4623C8.67284 25.6803 9.03034 25.6714 9.49747 25.4304C10.1934 25.0712 10.2123 24.9061 10.2123 19.173V13.8405H35.5H60.7877V30.4817V47.1229H57.2446H53.7016V44.6891C53.7016 41.3613 53.6664 41.3012 51.6409 41.1671L50.4834 41.0904L50.2276 40.3641C50.087 39.9644 49.81 39.2847 49.6123 38.8535L49.2526 38.0692L49.9491 37.3343C50.7317 36.5084 50.972 36.0138 50.8532 35.4738C50.8018 35.2405 49.868 34.2083 48.3029 32.655C45.9787 30.3483 45.8029 30.2043 45.3094 30.2043C44.8571 30.2043 44.6647 30.3197 43.9075 31.0455L43.0298 31.8868L42.2909 31.513C41.8846 31.3075 41.1751 30.9981 40.7144 30.8255L39.8767 30.5115L39.8368 29.3315C39.801 28.2735 39.7596 28.1143 39.4357 27.7912L39.0746 27.4308H35.5H31.9254L31.5643 27.7912C31.2404 28.1143 31.199 28.2735 31.1632 29.3315L31.1233 30.5115L30.2856 30.8255C29.8249 30.9981 29.1154 31.3075 28.7092 31.513L27.9703 31.8868L27.0925 31.0455C26.3353 30.3197 26.1429 30.2043 25.6906 30.2043C25.1971 30.2043 25.0213 30.3483 22.6971 32.655C21.132 34.2083 20.1982 35.2405 20.1468 35.4738C20.0277 36.0149 20.2686 36.5087 21.0584 37.3422L21.7624 38.0852L21.4963 38.617C21.3499 38.9096 21.0546 39.6013 20.8402 40.1544L20.4502 41.1598H19.4366C17.4349 41.1598 17.2984 41.385 17.2984 44.6891V47.1229H13.7554H10.2123V41.7903C10.2123 36.0573 10.1934 35.8922 9.49747 35.533C8.77816 35.1617 7.90768 35.4191 7.5995 36.0942C7.48001 36.356 7.43346 37.9514 7.43346 41.7903V47.1229H5.07143H2.70939L2.71426 31.0017C2.71829 17.8867 2.75358 14.8187 2.90336 14.5491C3.23488 13.952 3.62197 13.8506 5.59247 13.8453L7.43346 13.8405V19.1865ZM67.5303 14.0062C68.3276 14.3687 68.2906 13.5411 68.2906 31.0295V47.1229H65.9286H63.5665V30.4817V13.8405H65.3663C66.4657 13.8405 67.3077 13.905 67.5303 14.0062ZM14.8127 17.917C14.1553 18.2806 13.9361 19.0797 14.3007 19.7835C14.6174 20.3945 15.0382 20.497 17.2333 20.497H19.2392L19.6898 20.0951C20.0627 19.7625 20.1405 19.5928 20.1405 19.1102C20.1405 18.6276 20.0627 18.4579 19.6898 18.1253L19.2392 17.7234L17.192 17.7283C15.7606 17.7318 15.0449 17.7885 14.8127 17.917ZM24.2143 17.9396C23.7428 18.1951 23.5509 18.5422 23.5509 19.1396C23.5509 19.7075 23.8299 20.1291 24.3477 20.343C24.6319 20.4605 26.5936 20.4942 31.5209 20.4662L38.303 20.4276L38.6383 20.0385C39.1303 19.4676 39.1004 18.6608 38.5675 18.1288L38.1613 17.7234L31.3771 17.729C25.661 17.7337 24.5333 17.7668 24.2143 17.9396ZM43.1915 17.861C42.417 18.1729 42.1947 19.3564 42.7824 20.0385L43.1177 20.4276L49.4128 20.4665C53.9851 20.4947 55.8154 20.4609 56.1007 20.3429C56.5207 20.1693 56.8973 19.5866 56.8973 19.1102C56.8973 18.6517 56.5352 18.0703 56.137 17.8892C55.703 17.6918 43.6764 17.6656 43.1915 17.861ZM14.8127 24.5735C13.8815 25.0886 13.9121 26.5553 14.863 26.9877C15.434 27.2473 23.7153 27.2192 24.2255 26.9558C25.1501 26.4785 25.1501 25.0549 24.2255 24.5775C23.6865 24.2993 15.3149 24.2957 14.8127 24.5735ZM45.4146 24.5175C44.6401 24.8294 44.4178 26.0128 45.0055 26.695L45.3407 27.0841L50.5224 27.1238C56.1229 27.1666 56.3348 27.1433 56.6954 26.4474C56.9408 25.974 56.9505 25.6189 56.7312 25.1388C56.3939 24.3997 56.2296 24.3792 50.756 24.3887C47.982 24.3935 45.5784 24.4515 45.4146 24.5175ZM8.14346 29.2885C6.93897 29.9549 7.44291 31.8685 8.8229 31.8685C9.52692 31.8685 10.2123 31.191 10.2123 30.4951C10.2123 29.454 9.05952 28.7816 8.14346 29.2885ZM37.061 31.1816C37.1558 32.5025 37.3481 32.6851 39.3127 33.3189C40.1734 33.5966 41.3 34.0702 41.8166 34.3716C43.1583 35.1541 43.63 35.1301 44.5826 34.2309L45.3119 33.5424L46.4107 34.6456L47.5096 35.7488L46.9398 36.3395C46.2978 37.0049 46.0597 37.4054 46.0597 37.8191C46.0597 37.9747 46.3673 38.6808 46.7433 39.3882C47.1193 40.0956 47.5951 41.2361 47.8008 41.9225C48.3139 43.635 48.6331 43.9333 49.9523 43.9333H50.9227V45.5281V47.1229H46.6198H42.317L42.3966 46.0481C42.6363 42.8168 40.5484 39.7905 37.4547 38.8845C37.021 38.7576 36.1896 38.6636 35.5 38.6636C34.8104 38.6636 33.979 38.7576 33.5453 38.8845C30.4516 39.7905 28.3637 42.8168 28.6034 46.0481L28.683 47.1229H24.3802H20.0773V45.5281V43.9333H21.0477C22.3669 43.9333 22.6861 43.635 23.1992 41.9225C23.4049 41.2361 23.8807 40.0956 24.2567 39.3882C24.6327 38.6808 24.9403 37.9747 24.9403 37.8191C24.9403 37.4054 24.7022 37.0049 24.0602 36.3395L23.4904 35.7488L24.5893 34.6456L25.6881 33.5424L26.4174 34.2309C27.3715 35.1315 27.842 35.1544 29.2103 34.367C29.7383 34.0633 30.8536 33.5922 31.6888 33.3203C33.6373 32.6857 33.8452 32.4888 33.9384 31.1891L34.009 30.2043H35.5H36.991L37.061 31.1816ZM37.2396 41.764C39.0187 42.5909 40.0375 44.7505 39.522 46.6028L39.3774 47.1229H35.5H31.6227L31.478 46.6028C30.9625 44.7505 31.9813 42.5909 33.7604 41.764C34.7386 41.3094 36.2614 41.3094 37.2396 41.764ZM68.2906 52.6769C68.2906 55.7034 68.2142 56.0763 67.5303 56.3872C67.2513 56.5141 59.7549 56.5529 35.5 56.5529C11.2451 56.5529 3.74869 56.5141 3.46969 56.3872C2.78581 56.0763 2.70939 55.7034 2.70939 52.6769V49.8964H35.5H68.2906V52.6769ZM39.6683 60.9905V62.6547H35.5H31.3317V60.9905V59.3264H35.5H39.6683V60.9905ZM45.7162 65.5939C46.2336 65.8291 46.4765 66.3942 46.4765 67.3627V68.2017H35.5H24.5235L24.5283 67.335C24.5339 66.3785 24.7309 65.8997 25.2335 65.6218C25.6942 65.3668 45.1588 65.3404 45.7162 65.5939Z" fill="#E49B00"/>
</svg>
