<svg width="71" height="71" viewBox="0 0 71 71" fill="none" xmlns="http://www.w3.org/2000/svg">
<path fill-rule="evenodd" clip-rule="evenodd" d="M6.25923 0.206159C5.60548 0.568319 5.56083 0.829995 5.55556 4.32852L5.55071 7.60473L5.10008 7.68956C4.15432 7.86724 2.89534 8.60112 1.9995 9.49662C1.01963 10.4761 0.382373 11.642 0.146107 12.8873C-0.0487023 13.9138 -0.0487023 53.4709 0.146107 54.4973C0.490108 56.3106 1.96372 58.2916 3.57613 59.1084C5.1041 59.8823 5.1206 59.8833 16.6777 59.8855C22.5307 59.8866 27.3193 59.9033 27.319 59.9223C27.3187 59.9413 26.7694 61.7968 26.098 64.0456L24.8776 68.1343L22.8055 68.2064C21.6658 68.246 20.6219 68.3315 20.4856 68.3964C20.1915 68.5364 19.8321 69.1853 19.8321 69.5761C19.8321 70.0447 20.1442 70.5706 20.5455 70.7781C21.118 71.074 49.882 71.074 50.4545 70.7781C50.8558 70.5706 51.1679 70.0447 51.1679 69.5761C51.1679 69.1853 50.8085 68.5364 50.5144 68.3964C50.3781 68.3315 49.3342 68.246 48.1945 68.2064L46.1224 68.1343L44.902 64.0456C44.2306 61.7968 43.6813 59.9413 43.681 59.9223C43.6807 59.9033 48.4453 59.8876 54.2688 59.8876C60.8908 59.8876 65.1364 59.8347 65.6031 59.7461C68.1453 59.2642 70.3718 57.0386 70.8539 54.4973C71.0487 53.4709 71.0487 13.9138 70.8539 12.8873C70.4952 10.9967 69.0834 9.12489 67.3695 8.26779C66.8365 8.00127 66.1864 7.74306 65.9249 7.69399L65.4493 7.60473V4.35624C65.4493 0.796593 65.3876 0.470191 64.6581 0.168183C64.3703 0.0489874 60.733 0.0169709 50.6127 0.0446908L36.9559 0.081974L36.2279 0.48516L35.5 0.888345L34.7721 0.48516L34.0441 0.081974L30.5237 0.0385924C26.6856 -0.00880859 26.3454 0.0421961 25.9957 0.718284C25.7418 1.20906 25.7407 1.58619 25.9918 2.07157C26.3314 2.72784 26.6573 2.78425 30.1337 2.7891C33.5055 2.79367 33.6215 2.81321 33.9522 3.43386C34.0724 3.65964 34.1135 8.3443 34.1135 21.8478C34.1135 38.3059 34.0935 39.9513 33.8941 39.8748C33.7735 39.8285 27.9708 39.7907 20.9993 39.7907H8.32379V21.2877V2.78466H11.6584C15.2815 2.78466 15.6031 2.72742 15.9227 2.02625C16.2469 1.31509 16.0131 0.540045 15.375 0.210178C14.8376 -0.0675747 6.75977 -0.0711783 6.25923 0.206159ZM20.2633 0.206159C19.0613 0.872129 19.5642 2.78466 20.9413 2.78466C21.6439 2.78466 22.3279 2.1076 22.3279 1.41211C22.3279 0.371508 21.1774 -0.300422 20.2633 0.206159ZM62.6762 21.2877V39.7907H50.0007C43.0292 39.7907 37.2265 39.8285 37.1059 39.8748C36.9065 39.9513 36.8865 38.2962 36.8865 21.7372V3.5155L37.252 3.15001L37.6177 2.78466H50.1469H62.6762V21.2877ZM14.1923 7.28346C13.2434 7.69607 13.0398 8.87805 13.8037 9.54138L14.1628 9.85323H21.9119H29.661L30.0201 9.54138C30.7962 8.86737 30.5774 7.6854 29.6008 7.2775C28.9166 6.99171 14.8508 6.99711 14.1923 7.28346ZM41.3685 7.28346C40.4196 7.69607 40.216 8.87805 40.9799 9.54138L41.339 9.85323H49.0881H56.8372L57.1963 9.54138C57.9724 8.86737 57.7536 7.6854 56.777 7.2775C56.0928 6.99171 42.027 6.99711 41.3685 7.28346ZM5.55071 28.2177V46.0277H4.16195H2.77319L2.81007 29.569L2.84695 13.1103L3.21535 12.4173C3.64241 11.6139 4.14669 11.1098 4.92676 10.7066C5.2318 10.5489 5.49691 10.4172 5.51604 10.4137C5.53518 10.4104 5.55071 18.4221 5.55071 28.2177ZM67.1326 11.4689C67.3339 11.6857 67.6459 12.1436 67.8258 12.4866L68.1531 13.1103L68.1899 29.569L68.2268 46.0277H66.8381H65.4493V28.2153V10.4029L66.1079 10.7389C66.4702 10.9236 66.9312 11.2521 67.1326 11.4689ZM14.1923 13.659C13.2434 14.0716 13.0398 15.2536 13.8037 15.917L14.1628 16.2288H21.9119H29.661L30.0201 15.917C30.7962 15.2429 30.5774 14.061 29.6008 13.6531C28.9166 13.3673 14.8508 13.3727 14.1923 13.659ZM41.3685 13.659C40.4196 14.0716 40.216 15.2536 40.9799 15.917L41.339 16.2288H49.0881H56.8372L57.1963 15.917C57.9724 15.2429 57.7536 14.061 56.777 13.6531C56.0928 13.3673 42.027 13.3727 41.3685 13.659ZM14.1923 20.0346C13.2434 20.4472 13.0398 21.6292 13.8037 22.2925L14.1628 22.6044H21.9119H29.661L30.0201 22.2925C30.7962 21.6185 30.5774 20.4365 29.6008 20.0286C28.9166 19.7429 14.8508 19.7483 14.1923 20.0346ZM41.3685 20.0346C40.4196 20.4472 40.216 21.6292 40.9799 22.2925L41.339 22.6044H49.0881H56.8372L57.1963 22.2925C57.9724 21.6185 57.7536 20.4365 56.777 20.0286C56.0928 19.7429 42.027 19.7483 41.3685 20.0346ZM14.1923 26.4102C13.2434 26.8228 13.0398 28.0048 13.8037 28.6681L14.1628 28.9799H21.9119H29.661L30.0201 28.6681C30.7962 27.9941 30.5774 26.8121 29.6008 26.4042C28.9166 26.1184 14.8508 26.1238 14.1923 26.4102ZM41.3685 26.4102C40.4196 26.8228 40.216 28.0048 40.9799 28.6681L41.339 28.9799H49.0881H56.8372L57.1963 28.6681C57.9724 27.9941 57.7536 26.8121 56.777 26.4042C56.0928 26.1184 42.027 26.1238 41.3685 26.4102ZM14.1923 32.7858C13.2434 33.1984 13.0398 34.3803 13.8037 35.0437L14.1628 35.3555H21.9119H29.661L30.0201 35.0437C30.7962 34.3697 30.5774 33.1877 29.6008 32.7798C28.9166 32.494 14.8508 32.4994 14.1923 32.7858ZM41.3685 32.7858C40.4196 33.1984 40.216 34.3803 40.9799 35.0437L41.339 35.3555H49.0881H56.8372L57.1963 35.0437C57.9724 34.3697 57.7536 33.1877 56.777 32.7798C56.0928 32.494 42.027 32.4994 41.3685 32.7858ZM33.7731 42.903C34.0893 43.219 34.1135 43.3419 34.1135 44.6354V46.0277H21.2186H8.32379V44.2952V42.5627H20.8782H33.4328L33.7731 42.903ZM62.6762 44.2952V46.0277H49.7814H36.8865V44.6354C36.8865 43.3419 36.9107 43.219 37.2269 42.903L37.5672 42.5627H50.1218H62.6762V44.2952ZM68.1981 51.537C68.1531 54.2724 68.1528 54.2749 67.7435 55.0135C67.296 55.8208 66.8278 56.2721 65.9507 56.7411L65.38 57.0463H35.5H5.62003L5.04933 56.7411C4.17221 56.2721 3.70397 55.8208 3.25654 55.0135C2.84723 54.2749 2.84695 54.2724 2.80189 51.537L2.75683 48.7997H35.5H68.2432L68.1981 51.537ZM41.1069 61.0311C41.2977 61.66 41.8524 63.5155 42.3397 65.1544L43.2255 68.1343L39.3628 68.1712C37.2383 68.1914 33.7617 68.1914 31.6372 68.1712L27.7745 68.1343L28.6603 65.1544C29.1476 63.5155 29.7023 61.66 29.8931 61.0311L30.24 59.8876H35.5H40.76L41.1069 61.0311Z" fill="#E49B00"/>
</svg>
