<svg width="71" height="71" viewBox="0 0 71 71" fill="none" xmlns="http://www.w3.org/2000/svg">
<path fill-rule="evenodd" clip-rule="evenodd" d="M27.5706 0.204649C27.3699 0.313652 27.1521 0.514046 27.0865 0.649815C27.0209 0.785584 26.9355 2.06894 26.8968 3.50179L26.8263 6.10692L25.5785 6.53267C24.8923 6.7669 23.5206 7.32634 22.5303 7.77595L20.7298 8.59333L18.9258 6.79866C17.8691 5.74732 16.9686 4.96682 16.7522 4.9144C16.5272 4.8599 16.2004 4.91135 15.9169 5.04601C15.2932 5.34209 5.18932 15.4789 4.99093 16.0075C4.90622 16.2333 4.87517 16.5765 4.92203 16.7703C4.96903 16.9652 5.81305 17.933 6.81359 18.9394L8.62017 20.7565L8.19733 21.5944C7.61394 22.7505 6.81082 24.6974 6.43802 25.8593L6.12665 26.83L3.51389 26.9006C2.07692 26.9393 0.789676 27.0249 0.653396 27.0908C0.0102591 27.4013 0 27.5326 0 35.4976C0 43.4626 0.0102591 43.594 0.653396 43.9045C0.789676 43.9703 2.07373 44.0559 3.50682 44.0946L6.11264 44.1652L6.52952 45.4069C6.75883 46.09 7.3174 47.4621 7.77088 48.4561L8.59536 50.2636L6.80125 52.0682C5.75025 53.1252 4.97 54.026 4.91759 54.2425C4.86311 54.4675 4.91454 54.7944 5.04916 55.078C5.34515 55.7019 15.4787 65.809 16.0072 66.0075C16.2329 66.0922 16.576 66.1233 16.7697 66.0764C16.9645 66.0294 17.9276 65.1897 18.9258 64.1966L20.7298 62.4019L22.5303 63.2193C23.5206 63.6689 24.8923 64.2283 25.5785 64.4626L26.8263 64.8883L26.8968 67.4934C26.9355 68.9263 27.021 70.2101 27.0869 70.3464C27.3973 70.9897 27.5286 71 35.4911 71C43.4535 71 43.5848 70.9897 43.8952 70.3464C43.9611 70.2101 44.0466 68.9224 44.0853 67.485L44.1559 64.8714L45.1263 64.5599C46.3699 64.1607 48.3661 63.3298 49.3982 62.7818L50.2041 62.3538L52.0323 64.1726C53.0458 65.1809 54.0173 66.0293 54.2125 66.0764C54.4061 66.1233 54.7493 66.0922 54.975 66.0075C55.5035 65.809 65.637 55.7019 65.933 55.078C66.0676 54.7944 66.119 54.4675 66.0645 54.2425C66.0121 54.0258 65.228 53.1214 64.169 52.0563L62.3629 50.2397L63.0502 48.7973C63.6044 47.6339 64.5779 45.1501 64.8249 44.2692C64.8615 44.1387 65.4931 44.0959 67.3801 44.0959C70.1129 44.0959 70.5109 44.0079 70.8165 43.337C71.0804 42.7574 71.0508 28.1278 70.7846 27.6129C70.4567 26.9787 70.0766 26.8994 67.3668 26.8994C65.4904 26.8994 64.8615 26.8565 64.8249 26.726C64.5779 25.8451 63.6044 23.3614 63.0502 22.198L62.3629 20.7555L64.169 18.9389C65.1694 17.9328 66.0131 16.9652 66.0601 16.7703C66.107 16.5765 66.0759 16.2333 65.9912 16.0075C65.7928 15.4789 55.689 5.34209 55.0652 5.04601C54.7817 4.91135 54.4549 4.8599 54.2299 4.9144C54.0134 4.96682 53.1091 5.75134 52.0441 6.811L50.2275 8.61816L49.3898 8.19518C48.2342 7.61161 46.2878 6.80823 45.1263 6.43532L44.1559 6.12384L44.0853 3.51025C44.0466 2.07282 43.9611 0.785168 43.8952 0.648844C43.5844 0.00467038 43.4578 -0.00503729 35.4633 0.000787319C29.2064 0.0053638 27.8738 0.0397567 27.5706 0.204649ZM41.3397 5.25431C41.3815 7.64129 41.396 7.75348 41.7082 8.08562C41.8869 8.27575 42.1989 8.46991 42.4014 8.51692C43.7817 8.83783 46.1513 9.74758 48.0797 10.6968C49.8747 11.5805 50.4166 11.7902 50.7126 11.7159C50.9261 11.6623 51.8129 10.9028 52.7882 9.93826L54.4911 8.25426L58.6085 12.3728L62.7258 16.4915L61.0423 18.1949C60.027 19.2221 59.3199 20.0534 59.2608 20.2889C59.1814 20.6055 59.323 20.9892 60.0096 22.3168C60.9534 24.1416 61.7532 26.1132 62.2481 27.8356C62.7574 29.6069 62.7341 29.5948 65.7247 29.6471L68.2094 29.6905V35.4976V41.3048L65.7247 41.3482C62.7341 41.4004 62.7574 41.3884 62.2481 43.1596C61.7532 44.882 60.9534 46.8537 60.0096 48.6784C59.323 50.006 59.1814 50.3898 59.2608 50.7064C59.3199 50.9418 60.027 51.7731 61.0423 52.8003L62.7258 54.5037L58.6085 58.6224L54.4911 62.741L52.7882 61.057C51.7614 60.0414 50.9304 59.334 50.695 59.2749C50.3785 59.1955 49.9949 59.3372 48.6677 60.0239C46.8435 60.9681 44.8725 61.7681 43.1506 62.2632C41.38 62.7726 41.392 62.7493 41.3397 65.7409L41.2964 68.2264H35.4911H29.6858L29.6424 65.7409C29.5901 62.7483 29.602 62.7714 27.8315 62.2654C26.2172 61.8043 23.9975 60.896 22.2157 59.9676C20.9718 59.3194 20.6182 59.1917 20.2941 59.2731C20.0501 59.3344 19.2396 60.0228 18.1939 61.057L16.491 62.741L12.3736 58.6224L8.25639 54.5037L9.93986 52.8003C10.9551 51.7731 11.6623 50.9418 11.7213 50.7064C11.8008 50.3898 11.6591 50.006 10.9726 48.6784C10.0287 46.8537 9.22893 44.882 8.73399 43.1596C8.22478 41.3884 8.24807 41.4004 5.25739 41.3482L2.77274 41.3048V35.4976V29.6905L5.25739 29.6471C8.24807 29.5948 8.22478 29.6069 8.73399 27.8356C9.22893 26.1132 10.0287 24.1416 10.9726 22.3168C11.6591 20.9892 11.8008 20.6055 11.7213 20.2889C11.6623 20.0534 10.9551 19.2221 9.93986 18.1949L8.25639 16.4915L12.3736 12.3728L16.491 8.25426L18.1939 9.93826C19.2396 10.9724 20.0501 11.6608 20.2941 11.7221C20.6182 11.8035 20.9718 11.6758 22.2157 11.0276C23.9975 10.0993 26.2172 9.19091 27.8315 8.7298C29.602 8.22389 29.5901 8.24691 29.6424 5.25431L29.6858 2.76886H35.4911H41.2964L41.3397 5.25431ZM34.8131 13.2249C33.5608 13.9191 34.1219 15.8049 35.5808 15.8049C36.1061 15.8049 36.8774 14.9799 36.8774 14.4181C36.8774 14.0983 36.7457 13.8426 36.4061 13.5028C35.8933 12.9898 35.394 12.9027 34.8131 13.2249ZM27.5856 14.4751C21.0587 17.0319 16.2649 22.0468 14.1494 28.5308C13.3001 31.1339 13.0998 32.5045 13.1103 35.6363C13.118 37.8872 13.1716 38.5847 13.4302 39.7967C14.7126 45.809 18.0778 50.8489 23.0176 54.1552C29.7245 58.6441 38.3753 59.1824 45.5691 55.5584C49.7371 53.4588 53.618 49.5127 55.6591 45.299C58.9996 38.4027 58.6013 30.2861 54.6009 23.742C52.0768 19.6129 48.0276 16.2703 43.3701 14.4711C41.8904 13.8994 41.3457 13.8764 40.77 14.3611C40.4112 14.6631 40.3434 14.8183 40.3434 15.3381C40.3434 16.1685 40.6991 16.5012 42.0845 16.9658C46.6893 18.5103 51.0898 22.453 53.2227 26.9452C53.8815 28.3328 54.5216 30.3104 54.8478 31.9662C55.1752 33.6283 55.1814 37.1528 54.8599 38.9131C54.1326 42.8967 52.2399 46.4942 49.3602 49.3673C46.5257 52.195 43.2965 53.944 39.3297 54.8C37.3334 55.2307 33.5493 55.2293 31.5689 54.7972C29.7426 54.3986 28.3489 53.9078 26.6876 53.0782C24.69 52.0807 23.2932 51.0553 21.5511 49.3078C18.6842 46.4317 16.9341 43.1532 16.1235 39.1408C15.7505 37.2955 15.7869 33.4067 16.1945 31.5191C17.1738 26.9838 19.5091 23.1005 22.9278 20.3223C24.9251 18.699 26.4923 17.8385 29.4595 16.7356C30.6029 16.3107 30.9305 15.1341 30.1097 14.4005C29.5269 13.8796 29.0718 13.893 27.5856 14.4751ZM29.1831 22.2667C23.8661 23.9305 23.1794 24.1782 22.8306 24.5582L22.4395 24.9842L22.4914 31.3157L22.5433 37.6472L22.9253 39.034C23.6832 41.7858 25.08 44.2178 27.0331 46.1859C29.1942 48.3636 32.0344 49.9424 34.7542 50.4777C35.4969 50.6239 35.7225 50.6086 36.7542 50.3426C42.1445 48.9532 46.5496 44.5538 47.9676 39.1435C48.4538 37.2887 48.541 35.8124 48.4963 30.1961L48.4536 24.8253L48.107 24.4845C47.8415 24.2235 46.3511 23.7035 41.7382 22.2626C38.426 21.2279 35.5874 20.3858 35.4302 20.3914C35.273 20.3968 32.4619 21.2406 29.1831 22.2667ZM40.7593 24.8634L45.6809 26.4151L45.6794 31.6844C45.6781 36.6775 45.6618 37.0178 45.3684 38.1743C44.3844 42.0542 41.7241 45.2588 38.0986 46.9315C37.5414 47.1886 36.7267 47.4923 36.2882 47.6064C35.2663 47.8724 34.4697 47.688 32.5104 46.7318C29.1601 45.0967 26.8228 42.3138 25.6958 38.6179L25.3151 37.3698L25.2667 31.8919L25.2182 26.414L30.1813 24.8627C32.911 24.0094 35.3004 23.3114 35.4911 23.3114C35.6817 23.3116 38.0524 24.01 40.7593 24.8634ZM39.5115 31.3488C39.3209 31.4251 38.0579 32.5917 36.7048 33.9411L34.2447 36.3947L33.0275 35.1827C31.4835 33.6453 30.8071 33.4256 30.0256 34.2073C29.757 34.4758 29.6683 34.7069 29.6683 35.1369C29.6683 35.689 29.7381 35.7785 31.6439 37.6699C32.7305 38.7483 33.7552 39.6707 33.9213 39.7198C34.521 39.8971 35.183 39.3721 38.2291 36.3031C41.129 33.3815 41.3138 33.1647 41.3138 32.6845C41.3138 31.7534 40.3274 31.0222 39.5115 31.3488Z" fill="#E49B00"/>
</svg>
