<svg width="64" height="71" viewBox="0 0 64 71" fill="none" xmlns="http://www.w3.org/2000/svg">
<path fill-rule="evenodd" clip-rule="evenodd" d="M15.0752 0.404506L14.6266 0.808873L14.586 4.56466L14.5453 8.32031H9.75698C5.48409 8.32031 4.88076 8.34791 4.15245 8.57686C2.21487 9.18576 0.71018 10.7564 0.21109 12.691C0.0256825 13.4098 0 16.0593 0 34.4745C0 55.1434 0.00398282 55.4524 0.278524 56.3499C0.55279 57.2467 1.18345 58.2332 1.90036 58.8873C2.51234 59.4454 3.76803 60.0262 4.68944 60.1772C5.22603 60.2651 9.09679 60.3206 14.7388 60.3212C23.4126 60.3223 23.9118 60.3356 23.8477 60.5649C23.8103 60.6983 23.423 62.4769 22.987 64.5171L22.1944 68.2266H20.0104H17.8266L17.3597 68.698C16.7261 69.3377 16.7261 69.8888 17.3597 70.5285L17.8266 71H32H46.1734L46.6403 70.5285C47.2419 69.9211 47.2624 69.377 46.707 68.7488L46.3065 68.2959L43.795 68.2266L41.2833 68.1572L40.5793 64.6904C40.1921 62.7837 39.8355 61.0208 39.7866 60.7729L39.6979 60.3223L49.0678 60.3212C54.9476 60.3206 58.7686 60.266 59.3261 60.1746C61.4149 59.8325 63.1072 58.3584 63.7231 56.3445C63.9879 55.4791 64 55.0695 64 46.9973V38.5552L63.6186 38.1241C63.3335 37.802 63.1122 37.6895 62.7425 37.679C62.1531 37.662 61.5658 38.0161 61.3844 38.4977C61.3083 38.6997 61.2532 41.3771 61.2532 44.8694V50.8926H59.6067H57.9601L57.9243 33.0764L57.8884 15.2601L57.5077 14.8757L57.127 14.4912L50.7711 14.4527L44.4152 14.414L44.042 12.8579C43.8367 12.0021 43.67 11.2549 43.6713 11.1978C43.6727 11.1406 47.044 11.0938 51.1632 11.0938C59.3 11.0938 59.083 11.0748 60.1276 11.8792C60.3852 12.0776 60.7433 12.5594 60.9233 12.9496L61.2505 13.6592L61.2518 20.2206C61.2528 24.7773 61.3001 26.8745 61.4066 27.0848C61.8262 27.913 62.8617 28.1326 63.546 27.5384L63.9313 27.2038L63.9731 20.4315C64.0098 14.4529 63.9878 13.5571 63.7851 12.7885C63.3493 11.1365 61.9873 9.49819 60.4292 8.75158L59.6738 8.38965L51.2817 8.35096L42.8896 8.31213L42.0127 4.81483C41.0289 0.891383 40.8619 0.554688 39.8997 0.554688C39.3667 0.554688 31.5876 2.53035 31.0791 2.79479C30.9127 2.88132 30.6788 3.15992 30.5595 3.41382C30.3419 3.87685 30.3898 4.28233 30.8491 5.85889C30.9147 6.08423 30.7271 6.10156 28.2324 6.10156H25.5451V3.61199C25.5451 1.97718 25.4888 0.997606 25.3809 0.758813C25.052 0.0299531 24.8394 0 19.9918 0H15.5237L15.0752 0.404506ZM22.7983 16.2939V29.8145H20.0515H17.3047V16.2939V2.77344H20.0515H22.7983V16.2939ZM38.9551 3.98682C39.0065 4.19649 39.2444 5.13544 39.4837 6.07327C39.7231 7.01111 39.8793 7.80321 39.8308 7.83344C39.7171 7.90444 34.7981 9.15234 34.632 9.15234C34.4805 9.15234 33.4642 5.13211 33.5846 5.00897C33.671 4.92077 38.3874 3.63431 38.6927 3.61573C38.7856 3.61004 38.9038 3.77714 38.9551 3.98682ZM31.3133 19.3447V29.8145H28.4292H25.5451V19.4372C25.5451 13.7296 25.5863 9.01825 25.6367 8.96749C25.6869 8.9166 26.9848 8.875 28.5208 8.875H31.3133V19.3447ZM40.6524 10.6151C40.6524 10.6568 42.0505 16.2134 43.7592 22.963C45.468 29.7127 46.8432 35.2573 46.815 35.2845C46.7869 35.3118 45.5751 35.6466 44.1221 36.0283L41.4802 36.7227L41.3496 36.2154C39.3866 28.5905 35.2931 12.1428 35.3303 12.0302C35.3582 11.9458 36.4897 11.5823 37.845 11.2224C40.4076 10.542 40.6524 10.489 40.6524 10.6151ZM14.5579 12.7516V14.4095L10.7153 14.4503L6.87272 14.4912L6.49216 14.8757L6.11159 15.2601L6.07574 33.0764L6.0399 50.8926H4.39334H2.74678L2.74761 32.3452C2.74802 19.6974 2.79471 13.6294 2.89401 13.268C3.08024 12.5911 3.89439 11.6773 4.60086 11.3525C5.09761 11.124 5.60014 11.0996 9.85408 11.0968L14.5579 11.0938V12.7516ZM14.5579 27.1104V37.0254H13.727C13.2691 37.0254 12.7231 37.1158 12.5104 37.2269C11.85 37.5716 11.7926 37.9323 11.8382 41.4524L11.8798 44.6769L12.2549 45.0023C12.4612 45.1814 12.8938 45.3659 13.2163 45.4124C13.5387 45.4589 22.2077 45.4784 32.4807 45.4559C48.1998 45.4216 51.2045 45.3844 51.4475 45.2212C52.0716 44.8021 52.118 44.5772 52.1654 41.7433C52.2203 38.4658 52.1564 37.942 51.6382 37.4188C51.3038 37.0811 51.1405 37.0254 50.4861 37.0254C49.7327 37.0254 49.7251 37.0214 49.852 36.684C49.9435 36.4413 49.9057 36.0507 49.7215 35.3319C48.746 31.5265 45.1845 17.3613 45.1845 17.287C45.1845 17.2365 47.4406 17.1953 50.198 17.1953H55.2114L55.1765 34.0093L55.1416 50.8232H32H8.85837L8.82349 34.0093L8.7886 17.1953H11.6733H14.5579V27.1104ZM36.394 27.8037C37.6071 32.6087 38.6331 36.6493 38.674 36.7827C38.7425 37.0072 38.5732 37.0254 36.404 37.0254H34.0601L34.0709 27.9077C34.0768 22.8929 34.1057 18.8524 34.1349 18.9287C34.1642 19.005 35.1808 22.9987 36.394 27.8037ZM61.955 31.5334C61.5437 31.7635 61.2645 32.2612 61.258 32.7751C61.2512 33.341 62.0409 34.1133 62.6266 34.1133C63.183 34.1133 64 33.3417 64 32.8163C64 31.7009 62.8947 31.0074 61.955 31.5334ZM22.7983 34.8066V37.0254H20.0515H17.3047V34.8066V32.5879H20.0515H22.7983V34.8066ZM31.3133 34.8066V37.0254H28.4292H25.5451V34.8066V32.5879H28.4292H31.3133V34.8066ZM49.3047 41.2549V42.7109H31.9313H14.5579V41.2549V39.7988H31.9313H49.3047V41.2549ZM61.2532 54.4332C61.2532 55.8641 60.4961 56.9785 59.275 57.3446C58.2474 57.6527 5.75258 57.6527 4.72501 57.3446C3.50393 56.9785 2.74678 55.8641 2.74678 54.4332V53.666H32H61.2532V54.4332ZM37.6207 63.9624C38.015 65.9645 38.3706 67.7429 38.4111 67.9146L38.4847 68.2266H31.7255C26.3771 68.2266 24.9791 68.1904 25.0276 68.0532C25.0614 67.958 25.454 66.1795 25.9004 64.1011L26.7116 60.3223H31.8079H36.9041L37.6207 63.9624Z" fill="#E49B00"/>
</svg>
