<svg width="71" height="71" viewBox="0 0 71 71" fill="none" xmlns="http://www.w3.org/2000/svg">
<path fill-rule="evenodd" clip-rule="evenodd" d="M34.4374 0.466554L33.9631 0.938587V4.43025C33.9631 8.22262 34.0163 8.53083 34.7264 8.85278C35.3971 9.15697 36.0266 9.0012 36.5058 8.41241C36.7196 8.14959 36.7471 7.72282 36.7499 4.61726C36.7532 0.83835 36.7046 0.536803 36.0353 0.192358C35.4088 -0.130013 34.9592 -0.0528219 34.4374 0.466554ZM11.634 0.81683C11.3105 1.13892 11.2262 1.34523 11.2262 1.81643C11.2262 2.40397 11.2566 2.44049 14.1276 5.29796L17.029 8.18569H17.6657C18.3659 8.18569 18.9532 7.76211 19.0659 7.17568C19.2102 6.42389 18.9173 6.0378 16.0636 3.2192C13.2671 0.456835 13.211 0.41102 12.6312 0.41102C12.1657 0.41102 11.956 0.496403 11.634 0.81683ZM57.1743 0.810028C56.8751 1.02952 55.5161 2.33303 54.1544 3.70665C51.7649 6.11707 51.6784 6.22397 51.6784 6.76778C51.6784 7.17151 51.7808 7.45251 52.0396 7.7585C52.3471 8.12238 52.4965 8.18569 53.0471 8.18569H53.6936L56.5918 5.30129C59.4643 2.44215 59.4899 2.41147 59.4899 1.81976C59.4899 1.34495 59.4063 1.13962 59.0821 0.81683C58.5381 0.27538 57.9062 0.273159 57.1743 0.810028ZM29.8259 11.5688C29.5067 11.6732 29.0569 11.8924 28.8264 12.0558C28.446 12.3253 28.3403 12.3385 27.6847 12.1985C25.5021 11.7327 23.0462 13.1041 22.2414 15.2381C22.0042 15.8672 21.9525 16.2626 21.9899 17.1636L22.0367 18.2975L21.5418 18.4449C20.8008 18.6659 19.7551 19.4072 19.2844 20.0453C18.4907 21.1214 18.2889 21.744 18.2842 23.1319L18.2797 24.4031L17.5432 24.7069C16.5446 25.1189 15.5549 26.0391 15.0566 27.0191C14.6857 27.7486 14.644 27.9639 14.6439 29.1495C14.6437 30.3052 14.6896 30.5569 15.0139 31.1822L15.3842 31.8961L14.8047 32.1511C13.9368 32.5332 12.8431 33.7098 12.4709 34.6616C12.0058 35.8516 12.0301 37.2874 12.5339 38.3847C12.7436 38.8414 13.1138 39.4193 13.3564 39.6692L13.7976 40.1233L11.5006 42.418C9.50254 44.414 9.15828 44.7028 8.85489 44.637C7.26275 44.2922 6.99953 44.2714 6.23219 44.429C4.94428 44.6935 4.42007 45.0503 2.49706 46.9717C0.243734 49.2229 0.00395023 49.6512 4.45008e-05 51.4323C-0.00400072 53.2666 0.262984 53.7272 2.75637 56.1873C4.70422 58.1092 4.77843 58.1657 5.35424 58.1657C6.1524 58.1657 6.76254 57.5921 6.76254 56.8415C6.76254 56.3699 6.6077 56.1716 4.82013 54.3535C2.04693 51.5331 2.04232 51.4306 4.58133 48.8986L6.28659 47.1979H7.00023C7.62082 47.1979 7.80188 47.2683 8.38899 47.7381C8.76032 48.0352 12.3765 51.5854 16.425 55.6274C21.9753 61.1688 23.819 63.0915 23.9207 63.4443C24.1766 64.3326 23.9207 64.776 22.1441 66.5224C20.3462 68.2896 19.9066 68.5171 19.0004 68.1491C18.7524 68.0484 17.6933 67.1353 16.6468 66.1202C14.9024 64.4278 14.7015 64.2744 14.2299 64.2744C13.4724 64.2744 12.9001 64.8815 12.9001 65.6852C12.9001 66.273 12.9393 66.323 14.9576 68.3092C17.4356 70.7476 17.8499 70.9878 19.5982 70.9997C21.3782 71.0118 22.1133 70.606 24.2987 68.405C26.3851 66.3036 26.773 65.6097 26.7631 63.9967C26.7586 63.2685 26.666 62.7261 26.4547 62.1927L26.1527 61.43L28.8363 58.7562C30.5928 57.0065 31.6772 56.0309 31.9746 55.9331C32.2764 55.834 33.542 55.8105 35.7404 55.8632L39.0518 55.9424L41.8823 58.7596L44.7127 61.5767L44.4788 62.1967C44.3421 62.5585 44.2394 63.2528 44.232 63.8645C44.2122 65.5007 44.6653 66.2811 46.8952 68.452C49.0888 70.5877 49.5767 70.8574 51.2599 70.8643C53.4321 70.873 52.801 71.3796 62.0409 62.2091C71.3793 52.9404 70.9978 53.4054 70.9978 51.2935C70.9978 50.1371 70.9627 49.9794 70.5264 49.1787C70.1902 48.5618 69.5468 47.8205 68.2835 46.5945C66.7923 45.1474 66.3813 44.8265 65.686 44.5666C64.6591 44.1826 63.1659 44.154 62.2929 44.5016L61.6942 44.74L59.385 42.4416L57.0757 40.1432L57.602 39.4296C57.8915 39.0372 58.2518 38.3285 58.4028 37.8548C59.1138 35.624 57.9717 33.0986 55.7902 32.0781C55.4484 31.9181 55.0697 31.7874 54.9486 31.7874C54.7864 31.7874 54.7536 31.7084 54.8242 31.4871C55 30.9356 54.9073 29.3456 54.6628 28.7207C54.1333 27.3672 52.9097 26.1682 51.6851 25.8031L51.1902 25.6555V24.3135C51.1902 23.1253 51.1456 22.8809 50.8005 22.1815C50.3176 21.2027 49.1433 20.1055 48.2283 19.778L47.5542 19.5368L47.5573 18.2693C47.56 17.1879 47.5065 16.8869 47.1944 16.2214C46.3474 14.416 44.9812 13.5399 42.6792 13.3259C41.9131 13.2546 39.3091 12.8172 36.8924 12.3539C32.0453 11.4245 30.7176 11.277 29.8259 11.5688ZM35.2186 14.8716C36.9448 15.1921 38.3854 15.4767 38.42 15.5039C38.4546 15.5311 37.6736 16.3608 36.6845 17.3474L34.886 19.1413L34.32 18.835C33.45 18.3644 31.4405 16.2883 30.998 15.4031C30.7875 14.982 30.6154 14.5204 30.6154 14.3771C30.6154 14.1448 30.6939 14.1261 31.3477 14.2029C31.7504 14.2502 33.4924 14.5511 35.2186 14.8716ZM27.6836 15.1261C27.8 15.1882 28.0044 15.5325 28.1379 15.8909C28.9331 18.029 31.592 20.6999 34.0124 21.7922C34.8231 22.158 34.9415 22.2623 35.0692 22.7222C35.36 23.7706 34.6289 25.0126 33.609 25.2029C32.4318 25.4228 32.335 25.3544 28.6173 21.6767C26.7129 19.7926 25.0652 18.0824 24.9557 17.8763C24.6685 17.3349 24.7074 16.3899 25.0391 15.8482C25.5456 15.0213 26.8295 14.6707 27.6836 15.1261ZM43.4045 16.2469C44 16.4707 44.5524 17.0664 44.7121 17.6566C44.972 18.6171 44.7365 19.0361 42.8954 20.8896C41.2533 22.5429 41.2166 22.5933 41.2166 23.2008C41.2166 24.0473 41.7382 24.568 42.5859 24.568C43.1253 24.568 43.2602 24.4847 44.2607 23.5333C45.3714 22.4772 45.8283 22.2061 46.4915 22.2101C47.0538 22.2136 47.9197 22.7704 48.2115 23.3163C48.8106 24.437 48.4153 25.3204 46.5018 27.1364C45.8582 27.7473 45.2221 28.4033 45.0885 28.5942C44.4608 29.49 45.1158 30.6767 46.2377 30.6767C46.7706 30.6767 46.9081 30.5895 47.9639 29.5832C48.7215 28.8612 49.2665 28.4558 49.5686 28.3897C50.5155 28.1828 51.4619 28.6079 51.8904 29.4326C52.135 29.9033 52.1605 30.8494 51.9402 31.2759C51.8542 31.4426 51.1009 32.2723 50.2664 33.1196C48.835 34.5731 48.7491 34.6925 48.7491 35.2292C48.7491 36.0051 49.1866 36.4994 49.9651 36.6034C50.5364 36.6796 50.5795 36.6564 51.4993 35.779C52.9794 34.3669 53.7013 34.1345 54.7631 34.7284C55.5005 35.1409 55.9251 36.0067 55.7888 36.8198C55.701 37.3439 55.4646 37.6378 53.6842 39.4378C51.7768 41.3659 51.6784 41.4927 51.6784 42.0206C51.6784 42.9285 52.5346 43.614 53.3988 43.3981C53.5779 43.3534 54.0226 43.0555 54.3872 42.736L55.05 42.1553L57.3045 44.3991L59.5589 46.6428L53.1081 53.0634L46.657 59.4839L44.3514 57.189L42.0456 54.8941L43.305 53.6407C44.6515 52.3006 44.7725 52.0272 44.3656 51.2442C44.1359 50.802 43.6189 50.5299 43.0085 50.5299C42.6693 50.5299 42.3765 50.728 41.5803 51.4964C39.9437 53.0759 39.1308 53.2831 35.4878 53.0491C33.0438 52.8923 31.6518 53.0068 30.6417 53.4479C30.1562 53.6597 29.2443 54.4716 27.1029 56.5981L24.2181 59.463L17.7919 53.0973C14.2575 49.5962 11.3657 46.6639 11.3657 46.5813C11.3657 46.4987 12.365 45.4379 13.5863 44.2241L15.8069 42.0172L16.4807 42.3043C17.8816 42.9011 19.3842 42.8246 20.7611 42.0864C21.9906 41.4273 22.9939 39.9876 23.1776 38.6191C23.2748 37.8946 23.3935 37.7625 23.9494 37.7593C24.6324 37.7555 25.8463 37.1984 26.5564 36.5631C27.3724 35.833 27.9574 34.7366 28.0846 33.6994L28.1743 32.9674L28.9097 32.8782C29.9518 32.7516 31.0534 32.1693 31.787 31.3571C32.4253 30.6505 32.985 29.4422 32.9888 28.7625C32.992 28.2045 33.1248 28.0909 33.8934 27.9893C35.4373 27.7852 36.841 26.6984 37.5635 25.1477C38.0653 24.071 38.0788 22.4872 37.5955 21.3985L37.267 20.6585L39.2767 18.6541C41.7138 16.2236 42.3524 15.8512 43.4045 16.2469ZM23.6131 21.0893C24.1069 21.2302 28.8637 25.6534 29.7271 26.7746C30.8351 28.2132 29.9522 30.1214 28.1789 30.1214C27.8978 30.1214 27.5307 30.0522 27.363 29.9678C27.1955 29.8833 25.7546 28.5245 24.1609 26.9482C21.0117 23.8332 20.8352 23.5754 21.1225 22.5136C21.2872 21.9044 21.8872 21.276 22.4697 21.1025C23.0171 20.9395 23.0857 20.9388 23.6131 21.0893ZM20.0173 27.2045C20.6477 27.3787 25.102 31.7881 25.2516 32.3857C25.391 32.943 25.2478 33.7906 24.9459 34.1943C24.2764 35.0898 22.9535 35.2646 22.0228 34.5807C21.2015 33.9772 17.8495 30.5311 17.5907 30.0242C17.0919 29.0475 17.502 27.8581 18.5085 27.3623C19.1855 27.0287 19.328 27.0139 20.0173 27.2045ZM17.7199 34.5668C18.2459 34.7659 20.0122 36.4869 20.2416 37.0239C20.924 38.6207 19.4891 40.2666 17.8103 39.8129C17.0977 39.6202 15.213 37.7444 15.0194 37.0351C14.5819 35.432 16.1702 33.9804 17.7199 34.5668ZM46.9044 46.2967C46.1072 46.7417 45.9811 47.7962 46.646 48.4581C47.6304 49.4378 49.321 48.4325 48.8875 47.1253C48.8056 46.8783 48.6232 46.5722 48.4821 46.4451C48.1163 46.1155 47.3569 46.0442 46.9044 46.2967ZM66.4138 48.7598C68.1957 50.537 68.379 50.8411 68.213 51.7456C68.1292 52.2028 67.1837 53.1964 60.3556 60.0039C56.0865 64.2602 52.3939 67.8368 52.1498 67.9521C51.6166 68.2039 51.0239 68.2142 50.5986 67.979C50.4266 67.8839 49.595 67.1263 48.7507 66.2952C47.1414 64.7116 46.8698 64.253 47.0302 63.3904C47.0942 63.046 48.711 61.3561 54.7999 55.2701C59.0289 51.043 62.6772 47.4665 62.9074 47.3223C63.1714 47.1568 63.5808 47.0599 64.0172 47.0596L64.7085 47.059L66.4138 48.7598ZM9.0485 59.8237C8.88655 59.8917 8.61371 60.1244 8.44242 60.3408C8.02701 60.8653 8.12089 61.7085 8.64482 62.1569C9.50687 62.8949 10.9472 62.2735 10.9472 61.1635C10.9472 60.2439 9.8655 59.4806 9.0485 59.8237Z" fill="#E49B00"/>
</svg>
