<svg width="60" height="71" viewBox="0 0 60 71" fill="none" xmlns="http://www.w3.org/2000/svg">
<path fill-rule="evenodd" clip-rule="evenodd" d="M28.6141 0.0665456C27.3323 0.402246 26.2068 1.32247 25.621 2.51345C25.1293 3.51306 25.1258 5.26886 25.6136 6.25681C26.0357 7.11195 26.9081 7.99762 27.6766 8.3515L28.2588 8.61961L28.2624 12.0478C28.2663 15.7488 28.3175 16.0589 28.9823 16.4015C29.4679 16.6519 29.8485 16.6519 30.3341 16.4015C30.9989 16.0589 31.0501 15.7488 31.054 12.0478L31.0577 8.61961L31.6399 8.3515C32.4183 7.99318 33.2804 7.11028 33.6821 6.26041C34.9981 3.476 33.0553 0.196995 29.9809 0.0136718C29.4589 -0.0174141 28.8438 0.00631664 28.6141 0.0665456ZM30.8286 3.26909C31.1942 3.63365 31.2593 3.80227 31.2593 4.38693C31.2593 4.97951 31.1959 5.13868 30.8041 5.5292C30.4124 5.91972 30.2527 5.98286 29.6582 5.98286C29.0638 5.98286 28.9041 5.91972 28.5123 5.5292C28.1221 5.14021 28.0572 4.9784 28.0572 4.3954C28.0572 3.68209 28.4121 3.11824 29.0317 2.84693C29.5523 2.61906 30.3689 2.81085 30.8286 3.26909ZM48.3574 7.82775C46.8875 8.35191 46.0245 9.16043 45.519 10.4864C45.1924 11.3435 45.1755 12.6999 45.4821 13.4768C45.6025 13.7821 45.7084 14.1568 45.7175 14.3094C45.7275 14.4796 44.3329 16.3299 42.1163 19.0879L38.4987 23.5889L38.4591 28.837L38.4195 34.0851H34.735H31.0504V30.7475C31.0504 27.1213 30.9929 26.7993 30.2886 26.4794C29.8086 26.2613 29.4504 26.2702 28.9823 26.5114C28.3194 26.8532 28.266 27.1693 28.266 30.761V34.0851H24.5071H20.7482V23.6152V13.1454L20.4124 12.756L20.0764 12.3666L15.6789 12.3263L11.2812 12.2859V11.3133C11.2812 10.1811 11.0511 9.63282 10.4764 9.39551C10.1932 9.27852 9.05275 9.24244 6.57534 9.27186C3.14567 9.31266 3.06812 9.31988 2.75766 9.62935C2.4472 9.93882 2.43996 10.0161 2.39903 13.4349C2.36952 15.9044 2.40571 17.0413 2.52308 17.3235C2.8334 18.0704 3.13564 18.1258 6.90279 18.1258H10.3345L10.8079 17.654C11.2631 17.2002 11.2812 17.1419 11.2812 16.1274V15.0727H14.6225H17.9638V24.5789V34.0851H14.3615H10.7592L6.70746 29.7286C4.47911 27.3325 2.46168 25.2092 2.22431 25.0102C1.29279 24.2288 0.00445479 24.8222 0.00445479 26.0327C0.00445479 26.6696 -0.381184 26.2183 6.02361 33.0763L8.77529 36.0225V52.9495C8.77529 65.7774 8.81552 69.9645 8.94166 70.2402C9.30808 71.0421 8.15117 70.9996 29.6582 70.9996C51.1653 70.9996 50.0084 71.0421 50.3748 70.2402C50.5009 69.9645 50.5412 65.7774 50.5412 52.9495V36.0225L53.2928 33.0763C59.6976 26.2183 59.312 26.6696 59.312 26.0327C59.312 24.8327 58.0241 24.2285 57.1065 24.998C56.8772 25.1905 54.8593 27.3138 52.6224 29.7164L48.5553 34.0851H44.8844H41.2135V29.3829V24.6809L44.6184 20.4414L48.0231 16.2019L48.5513 16.3474C49.3376 16.5639 50.8185 16.4141 51.5944 16.0397C53.7482 15.0004 54.7288 12.2836 53.7037 10.1951C53.2585 9.28782 52.315 8.36399 51.4394 7.97791C50.5291 7.57643 49.2382 7.51356 48.3574 7.82775ZM50.6371 10.7057C51.1702 11.0539 51.4384 11.8212 51.2484 12.4537C50.6922 14.3042 48.0352 13.9399 48.0352 12.0133C48.0352 10.7054 49.5055 9.96658 50.6371 10.7057ZM8.49685 13.685V15.3503H6.82621H5.15558V13.685V12.0196H6.82621H8.49685V13.685ZM28.7394 20.5405C28.2186 21.0597 28.1412 21.5069 28.4644 22.1302C28.6705 22.5275 29.2001 22.8442 29.6582 22.8442C30.3727 22.8442 31.0504 22.1654 31.0504 21.45C31.0504 21.0254 30.6436 20.3956 30.2552 20.2192C29.6678 19.9525 29.2378 20.0437 28.7394 20.5405ZM47.7568 52.5423V68.2241H29.6582H11.5597V52.5423V36.8606H29.6582H47.7568V52.5423ZM20.9999 46.55C20.8704 46.6019 19.3734 47.7669 17.6732 49.1389C15.6135 50.8011 14.5234 51.7735 14.4062 52.0532C14.1728 52.6098 14.2892 53.1331 14.7407 53.5576C15.7009 54.4607 20.8544 58.5243 21.131 58.5966C21.9474 58.8102 22.8365 58.1484 22.8365 57.3274C22.8365 57.0517 22.7766 56.7147 22.7034 56.5782C22.6301 56.442 21.5338 55.4966 20.267 54.4776C19.0003 53.4585 17.9638 52.5897 17.9638 52.5465C17.9638 52.5035 18.9689 51.664 20.1976 50.6811C21.4262 49.6981 22.5225 48.7642 22.6339 48.6055C22.8693 48.2705 22.8998 47.5074 22.6931 47.1224C22.4177 46.6095 21.5683 46.3224 20.9999 46.55ZM31.6073 46.6117C31.3694 46.729 30.3889 48.2285 28.5097 51.349C25.6777 56.0516 25.5164 56.4089 25.9035 57.1296C26.2678 57.8084 27.5261 57.9845 28.0317 57.4277C28.1535 57.2935 29.4465 55.1935 30.9048 52.7612C33.6342 48.2089 33.7983 47.84 33.413 47.1224C33.2488 46.8166 32.576 46.4352 32.2059 46.4383C32.0681 46.4394 31.7987 46.5175 31.6073 46.6117ZM37.1448 46.6456C36.6652 46.9139 36.48 47.258 36.48 47.882C36.48 48.5145 36.721 48.7676 39.2644 50.8064C40.3747 51.6964 41.2999 52.4702 41.3205 52.5258C41.341 52.5816 40.3198 53.4612 39.0511 54.4805C37.7824 55.4998 36.6849 56.4445 36.6123 56.5799C36.4379 56.9046 36.4437 57.6278 36.6234 57.9623C36.8045 58.2996 37.4715 58.6485 37.9354 58.6485C38.1878 58.6485 39.1889 57.9291 41.3879 56.1673C43.0914 54.8026 44.6008 53.5576 44.7423 53.4005C45.0636 53.044 45.0963 52.2658 44.8084 51.8278C44.6884 51.6452 43.2079 50.3853 41.5185 49.0281C38.2589 46.4093 37.9087 46.2186 37.1448 46.6456Z" fill="#E49B00"/>
</svg>
