<svg width="79" height="71" viewBox="0 0 79 71" fill="none" xmlns="http://www.w3.org/2000/svg">
<path fill-rule="evenodd" clip-rule="evenodd" d="M35.3901 0.523L34.8651 1.04551V14.8919V28.7384L19.5399 28.7392C2.08618 28.7401 3.87997 28.585 2.66059 30.1983C1.74741 31.4062 0.825734 33.2959 0.407746 34.817C0.13444 35.8119 0.0726756 36.4509 0.0745286 38.2665C0.0766903 40.2326 0.125175 40.6537 0.486958 41.8453C0.881631 43.1451 1.63562 44.7852 2.25542 45.6917L2.55142 46.1247L1.8223 47.332C-0.762375 51.6121 -0.584957 57.1645 2.27426 61.4845C2.68931 62.1115 3.24488 62.8289 3.50876 63.0786C3.95764 63.5032 4.08363 63.5368 5.45279 63.5964L6.91691 63.6602V65.7785V67.8968L5.43642 67.9499C4.03623 68.0003 3.93586 68.0266 3.5835 68.4345C3.07842 69.0192 3.07842 69.9072 3.5835 70.4919L3.95594 70.9232L8.24391 70.9686C12.7558 71.0166 13.1931 70.9648 13.6399 70.33C13.7639 70.1537 13.8654 69.7784 13.8654 69.4958C13.8654 68.3242 13.2215 67.9264 11.3253 67.9264H10.0051V65.7749V63.6234H26.913H43.8209V65.7749V67.9264H42.5779C41.1799 67.9264 40.5839 68.1465 40.2996 68.7673C39.9386 69.5559 40.1989 70.4153 40.9095 70.781C41.2474 70.9548 42.2046 71 45.5547 71C50.2391 71 50.2867 70.9906 50.7106 69.9809C50.8974 69.5357 50.8974 69.3907 50.7106 68.9455C50.3528 68.0933 49.9649 67.9264 48.3416 67.9264H46.9091V65.7923V63.6583L48.5544 63.5976L50.1995 63.5371L51.1182 62.5429C52.5711 60.9708 53.6082 58.6456 54.0812 55.9011L54.1805 55.3248H66.1317H78.0827L78.516 54.954L78.9492 54.583L78.9899 27.9449C79.0201 8.09167 78.9851 1.19734 78.8523 0.876922C78.4681 -0.0502209 79.7418 0.000493147 56.8609 0.000493147H35.9151L35.3901 0.523ZM75.9382 27.6626V52.2512H56.9458H37.9534V27.6626V3.07406H56.9458H75.9382V27.6626ZM45.5625 11.7182C42.8971 14.3555 42.5534 14.8239 42.7052 15.6139C42.7391 15.7913 44.0109 17.1727 45.531 18.684C48.2171 21.3543 48.3129 21.4317 48.9304 21.4317C50.0301 21.4317 50.7762 20.2701 50.2895 19.3154C50.1953 19.1309 49.2769 18.1338 48.2483 17.0997L46.3784 15.2197L48.4404 13.1471L50.5024 11.0746L50.4139 10.4171C50.2966 9.54685 49.7515 9.06753 48.8793 9.06753C48.2602 9.06753 48.1636 9.14483 45.5625 11.7182ZM58.9663 9.28406C58.7109 9.42483 57.7501 11.0564 55.9167 14.4627C52.9949 19.8911 52.8714 20.2406 53.6127 20.9784C54.1616 21.5247 54.739 21.6205 55.3765 21.2705C55.8381 21.0173 56.2644 20.3229 58.5283 16.1367C61.4827 10.6742 61.6113 10.3063 60.8372 9.53594C60.3152 9.01635 59.6211 8.92292 58.9663 9.28406ZM64.3445 9.49537C63.9749 9.82409 63.8634 10.0512 63.8634 10.4757C63.8634 10.7795 63.9352 11.1576 64.023 11.3157C64.1107 11.4738 65.0211 12.432 66.046 13.4451L67.9092 15.2871L65.8863 17.3045C64.0298 19.1561 63.8634 19.3683 63.8634 19.8845C63.8634 20.1937 63.9691 20.6074 64.0985 20.804C64.4089 21.2754 65.1675 21.5777 65.7056 21.4442C66.1794 21.3266 71.0283 16.6463 71.3953 15.9523C71.8925 15.0118 71.8061 14.8764 68.7921 11.8768C66.1476 9.24472 65.9334 9.06753 65.3976 9.06753C64.9901 9.06753 64.6873 9.19047 64.3445 9.49537ZM45.0891 29.5825C44.5048 29.8375 44.0709 30.6797 44.2196 31.2696C44.272 31.4771 44.4911 31.8223 44.7065 32.0368L45.0984 32.4267H53.6589H62.2195L62.6709 31.9775C63.287 31.3641 63.2874 30.6177 62.6718 29.9319L62.2212 29.4299L53.909 29.3955C46.9519 29.3666 45.5139 29.3972 45.0891 29.5825ZM67.7584 29.6223C66.9968 30.0036 66.7013 30.808 67.0523 31.5443C67.5167 32.5184 68.7066 32.732 69.4649 31.9775C70.2119 31.234 70.0095 30.0391 69.0608 29.591C68.433 29.2945 68.4118 29.295 67.7584 29.6223ZM34.8651 38.1896V44.5673H20.0492H5.23322L4.74683 43.8637C3.76323 42.4408 3.05356 40.0327 3.05928 38.1377C3.06468 36.3913 3.7515 34.137 4.75022 32.588L5.25051 31.812H20.0578H34.8651V38.1896ZM9.54188 36.8999C8.06695 37.4759 8.48124 39.8032 10.0585 39.8032C10.6942 39.8032 11.4661 39.2314 11.6122 38.6523C11.768 38.0346 11.3316 37.213 10.7105 36.9547C10.0919 36.6974 10.0638 36.6962 9.54188 36.8999ZM17.7656 36.9548C17.1545 37.2233 16.7118 38.0527 16.8618 38.6476C17.1515 39.7965 18.5939 40.1922 19.436 39.354C20.0427 38.7502 20.0527 37.9888 19.4627 37.3522C18.9401 36.7885 18.4205 36.6668 17.7656 36.9548ZM44.7355 40.3837C44.3768 40.7027 44.2516 40.9503 44.2399 41.364C44.221 42.0236 44.6152 42.6807 45.1515 42.8837C45.7318 43.1032 68.6052 43.0794 69.0386 42.8588C70.0135 42.3626 70.2225 41.1602 69.4649 40.4061L69.0136 39.9569H57.1146H45.2156L44.7355 40.3837ZM34.8658 50.9065C34.8662 53.891 34.8926 54.2152 35.1723 54.6716C35.3406 54.9464 35.4967 55.1868 35.5191 55.206C35.5416 55.225 39.0342 55.277 43.2805 55.3212L51.001 55.4016L50.9513 55.8627C50.8573 56.7329 50.0557 58.7967 49.4713 59.673L48.8865 60.5499H27.1408H5.39519L5.06105 60.1272C4.42395 59.3215 3.53872 57.2468 3.27715 55.9466C2.75833 53.3663 3.31714 50.5996 4.80766 48.3711L5.2956 47.6415L20.0804 47.6412L34.8651 47.6409L34.8658 50.9065ZM9.06676 53.0078C7.85232 54.2165 9.18272 56.1526 10.7248 55.4208C11.7402 54.9389 11.9113 53.6575 11.0559 52.9411C10.41 52.4001 9.65166 52.4256 9.06676 53.0078ZM17.3842 53.0039C16.9696 53.3725 16.8833 53.5606 16.8833 54.096C16.8833 54.6123 16.9698 54.8166 17.3118 55.1095C17.8786 55.5946 18.4007 55.7094 18.9712 55.4742C19.9389 55.0752 20.1877 53.7559 19.436 53.0078C18.821 52.3957 18.0696 52.3943 17.3842 53.0039Z" fill="#E49B00"/>
</svg>
