<svg width="71" height="71" viewBox="0 0 71 71" fill="none" xmlns="http://www.w3.org/2000/svg">
<path fill-rule="evenodd" clip-rule="evenodd" d="M19.6162 0.154632C18.0505 0.548111 16.8367 1.52791 16.1353 2.9643L15.7314 3.79166L15.6864 7.30412L15.6411 10.8167L9.78979 10.8571C4.04266 10.897 3.92611 10.9033 3.25571 11.2138C2.31753 11.6484 1.43999 12.4003 0.880437 13.2494C-0.0695331 14.6909 -0.0236093 13.5055 0.0170423 35.5008L0.0535316 55.3451L0.375553 56.1459C1.03736 57.792 2.76595 59.153 4.56738 59.4466C5.54552 59.606 8.9837 59.6473 9.67686 59.5081C10.7865 59.2852 11.1897 58.0079 10.4005 57.2154L9.99499 56.8081L7.66037 56.8073C6.37631 56.8069 5.07601 56.7381 4.77078 56.6543C3.98328 56.4383 3.32356 55.8898 3.0186 55.1976C2.7647 54.6212 2.75735 53.966 2.79231 34.9688L2.82838 15.336L3.21006 14.7568C3.41998 14.4381 3.83898 14.0509 4.14103 13.8961C4.66478 13.6278 4.94629 13.6147 10.1762 13.6147H15.6621V15.217V16.8194H11.7186H7.77497L7.3482 17.1801L6.92129 17.5408V34.9262V52.3114L7.2866 52.6783L7.65191 53.0452L26.7452 53.0804L45.8386 53.1158V54.9271V56.7385L33.4437 56.8081L21.0489 56.8778L20.7141 57.2688C20.242 57.8201 20.2679 58.4898 20.7839 59.0701L21.1886 59.5251L24.8121 59.5686L28.4357 59.6119L28.3506 60.0563C28.3037 60.3005 27.8775 62.2247 27.4033 64.3322L26.5413 68.1638L24.5041 68.2335C22.1827 68.3129 21.9474 68.419 21.81 69.4472C21.7458 69.9278 21.7939 70.071 22.1559 70.4779L22.5764 70.9505L35.2481 70.9909C42.2174 71.0131 48.1294 70.9933 48.3858 70.9469C49.4913 70.7468 49.9025 69.4369 49.1097 68.6408L48.7042 68.2335H46.6844C44.704 68.2335 44.6632 68.2274 44.5914 67.92C44.5512 67.7475 44.1418 65.9136 43.6814 63.8445C43.2211 61.7754 42.8116 59.9727 42.7714 59.8386C42.7047 59.6163 42.8393 59.5948 44.3031 59.5948H45.908V60.9757C45.908 62.3468 45.911 62.3593 46.3349 62.7174L46.7616 63.0782H50.4385H54.1151L54.5207 62.6709C54.9125 62.2774 54.9262 62.2183 54.9262 60.9292V59.5948L60.2331 59.5937C63.2685 59.5931 65.9241 59.5302 66.4371 59.4466C68.2386 59.153 69.9672 57.792 70.629 56.1459L70.951 55.3451L70.9875 35.5008C71.0198 17.9613 70.9991 15.5587 70.8093 14.8143C70.4146 13.267 69.3241 11.9609 67.8459 11.2648L67.0662 10.8977L61.794 10.828L56.5218 10.7583L56.4524 7.275L56.383 3.79166L55.978 2.96318C55.443 1.86913 54.5683 1.01446 53.4279 0.471895L52.4982 0.0296499L36.4041 0.00498786C23.9148 -0.0142402 20.1546 0.0193393 19.6162 0.154632ZM52.0337 2.88947C52.5859 3.04358 53.4821 3.93085 53.6097 4.45001C53.6524 4.62432 53.6696 7.97585 53.6479 11.8978C53.6091 18.8504 53.6011 19.0381 53.3221 19.4132C53.1647 19.6247 52.8637 19.9271 52.6529 20.0851C52.2731 20.37 52.1489 20.3729 37.2976 20.442L22.3253 20.5117L20.3811 22.4606L18.4369 24.4093V14.5488C18.4369 6.48596 18.4717 4.60662 18.628 4.24004C18.8699 3.67183 19.5267 3.04762 20.0469 2.89129C20.6331 2.71517 51.4023 2.7135 52.0337 2.88947ZM66.8635 13.8961C67.1655 14.0509 67.5845 14.4381 67.7945 14.7568L68.1761 15.336L68.2122 34.9688C68.2472 53.966 68.2398 54.6212 67.9859 55.1976C67.6677 55.9203 67.0021 56.4558 66.1644 56.663C65.7475 56.7661 63.7887 56.8044 60.2678 56.7779L54.9956 56.7385V54.9271V53.1158L59.4354 53.0412C61.8772 53.0001 63.8916 52.9532 63.9119 52.9368C63.932 52.9203 64.0723 52.7031 64.2235 52.454C64.4936 52.0091 64.4985 51.7025 64.4989 34.9584C64.4993 22.6797 64.4562 17.8306 64.3445 17.6113C63.9506 16.8378 63.8851 16.8258 60.025 16.8224L56.4524 16.8194V15.217V13.6147H61.3833C66.0564 13.6147 66.3429 13.6295 66.8635 13.8961ZM15.6621 23.9928V28.3796L16.0641 28.8315C16.3989 29.2078 16.5654 29.2835 17.06 29.2835C17.6514 29.2835 17.6665 29.2704 20.5804 26.256L23.5069 23.2287H37.9627C52.2747 23.2287 52.4261 23.2258 53.1915 22.9382C54.2139 22.5541 55.4922 21.3671 55.9655 20.3623L56.3218 19.606H59.0232H61.7246V34.9327V50.2595H58.3254H54.9262V43.4321V36.6048H56.2512C58.0875 36.6048 58.6723 36.2348 58.6723 35.0736C58.6723 34.6131 58.7516 34.709 54.2465 29.732C51.5692 26.7743 51.0707 26.2861 50.6473 26.2063C50.3239 26.1454 50.0343 26.182 49.8008 26.3136C49.2228 26.639 42.3321 34.4713 42.2357 34.9124C42.1236 35.4252 42.3302 35.9408 42.7946 36.3078C43.1205 36.5653 43.3525 36.6048 44.5393 36.6048H45.908V43.4321V50.2595H27.802H9.69614V34.9327V19.606H12.6791H15.6621V23.9928ZM23.5704 29.7629C18.0498 30.9829 13.8309 35.2938 12.6473 40.9241C12.5111 41.5724 12.4227 42.7267 12.4147 43.9649L12.4016 45.9607L12.8548 46.3684L13.3079 46.7761H26.5663H39.8246L40.2183 46.3808C40.7438 45.8529 40.8297 45.1711 40.6506 42.9429C40.4708 40.7034 40.1277 39.3297 39.3218 37.621C37.868 34.539 35.6169 32.2783 32.5479 30.8182C30.5313 29.8589 29.4313 29.6126 26.9002 29.5529C25.1727 29.5122 24.5177 29.5535 23.5704 29.7629ZM52.3582 31.7977L54.1171 33.7484L53.5434 33.8284C53.1806 33.879 52.8319 34.0467 52.5952 34.2844L52.2207 34.6603L52.184 47.476L52.1471 60.2915H50.415H48.6828L48.682 47.8559C48.6816 39.995 48.6302 35.2359 48.5425 34.9188C48.3618 34.2653 47.9705 33.9237 47.2918 33.8267L46.7432 33.7484L48.5656 31.6856C49.568 30.5511 50.4355 29.6733 50.4937 29.7349C50.5518 29.7966 51.3909 30.7249 52.3582 31.7977ZM29.1895 32.5558C31.2588 33.0565 32.866 33.9504 34.4394 35.4757C36.5313 37.5039 37.7259 40.1438 37.8977 43.1186L37.948 43.9894H33.6086H29.2691L31.137 41.3142C32.7557 38.9959 33.0049 38.567 33.0049 38.0988C33.0049 36.9867 31.7389 36.3489 30.8792 37.028C30.6815 37.1842 29.4774 38.8144 28.2032 40.6507L25.8864 43.9894H20.4849H15.0834L15.1817 42.9096C15.4566 39.8918 16.584 37.4846 18.6638 35.4757C20.2334 33.9596 21.8304 33.0612 23.8368 32.5655C25.3002 32.2039 27.7164 32.1996 29.1895 32.5558ZM14.7258 57.0222C14.5585 57.1399 14.3504 57.4746 14.2635 57.7659C13.8505 59.1499 15.5677 60.1246 16.5245 59.0492C17.0585 58.4489 17.0513 57.7638 16.5052 57.2154C16.0389 56.7471 15.2402 56.6603 14.7258 57.0222ZM40.8248 63.8097C41.3349 66.1278 41.7508 68.0715 41.749 68.129C41.7472 68.1865 38.9606 68.2335 35.5567 68.2335H29.3675L29.4449 67.92C29.4876 67.7475 29.9016 65.8822 30.3652 63.7748C30.8287 61.6674 31.2357 59.8648 31.2696 59.769C31.3171 59.6348 32.3133 59.5948 35.6142 59.5948H39.8972L40.8248 63.8097Z" fill="#E49B00"/>
</svg>
