<svg width="71" height="71" viewBox="0 0 71 71" fill="none" xmlns="http://www.w3.org/2000/svg">
<path fill-rule="evenodd" clip-rule="evenodd" d="M3.33464 0.0835749C2.12875 0.380593 1.01845 1.28707 0.382094 2.4939L0 3.21866V30.1003V56.982L0.296922 57.6241C0.729035 58.5583 1.50323 59.3442 2.46527 59.8249L3.30949 60.2467H9.38464H15.4598L16.335 61.451C18.0255 63.7776 20.7459 66.2154 23.4392 67.8172C25.6803 69.1501 28.8195 70.2829 31.6096 70.7655C33.2438 71.0482 37.4459 71.0831 39.0431 70.8274C45.4828 69.7959 51.2121 66.3 54.8759 61.1664L55.5323 60.2467H61.6113H67.6905L68.5347 59.8249C69.4968 59.3442 70.271 58.5583 70.7031 57.6241L71 56.982V30.1003V3.21866L70.6179 2.4939C70.1327 1.57353 69.4497 0.890581 68.5292 0.40546L67.8043 0.0234211L35.7779 0.00216581C18.1634 -0.00950375 3.56389 0.027172 3.33464 0.0835749ZM67.7669 3.25589L68.2211 3.71003L68.2606 9.1254L68.2999 14.5409H35.5H2.70008L2.73941 9.13401L2.77887 3.72698L3.12622 3.35341C3.31727 3.14795 3.59863 2.92789 3.75147 2.86454C3.90431 2.80105 18.2681 2.76091 35.671 2.77549L67.3127 2.80189L67.7669 3.25589ZM8.78941 7.64309C8.31089 8.08639 8.19015 8.71016 8.47596 9.26266C8.91793 10.1173 8.61031 10.0954 20.1468 10.0954C31.3609 10.0954 31.3773 10.0944 31.7374 9.42158C32.0286 8.87756 31.9203 8.09501 31.4977 7.69018L31.1081 7.3169H20.1247H9.14135L8.78941 7.64309ZM45.3543 7.72297C45.0601 8.01707 44.9481 8.2631 44.9481 8.61527C44.9481 9.18722 45.4652 9.8817 45.9887 10.0131C46.5292 10.1487 47.2736 9.76459 47.536 9.21473C48.1976 7.8273 46.4471 6.63034 45.3543 7.72297ZM52.8572 7.72297C52.175 8.40522 52.3681 9.47576 53.2489 9.89364C53.6703 10.0936 53.793 10.0983 54.2314 9.93143C54.5309 9.81752 54.8399 9.55662 55 9.28252C55.2302 8.8884 55.2455 8.75003 55.1089 8.29422C54.8028 7.27272 53.6101 6.97014 52.8572 7.72297ZM60.3601 7.72297C59.2979 8.78518 60.4332 10.4793 61.8193 9.90031C63.2254 9.31281 62.7996 7.3169 61.2681 7.3169C60.8987 7.3169 60.6592 7.42401 60.3601 7.72297ZM68.2906 36.7756C68.2906 57.9115 68.3345 56.7176 67.5384 57.2393C67.23 57.4413 66.599 57.4682 62.182 57.4682C59.411 57.4682 57.1751 57.4139 57.1751 57.3465C57.1751 57.2797 57.3237 56.8889 57.5051 56.4783C58.5235 54.1739 59.2323 50.9842 59.3564 48.1474C59.8581 36.68 52.055 26.4465 40.8493 23.8764C36.6812 22.9203 31.7132 23.1769 27.7731 24.5519C25.9885 25.1745 23.7683 26.2598 23.5023 26.6397C22.9516 27.4256 23.4058 28.6191 24.3208 28.7908C24.7165 28.865 25.0387 28.7655 26.1558 28.2244C27.7629 27.4459 29.8614 26.7357 31.5615 26.3947C33.4488 26.0161 37.7338 26.0492 39.5988 26.4568C41.6446 26.9038 43.0114 27.3777 44.8787 28.2877C50.7347 31.1411 54.7789 36.4133 56.2331 43.0897C56.6708 45.0992 56.667 49.2702 56.2259 51.2861C55.2568 55.7139 53.5125 58.9277 50.3769 62.0627C47.1479 65.2914 43.634 67.1476 39.182 67.9761C37.3134 68.324 33.5984 68.3259 31.818 67.9801C27.2923 67.101 23.8363 65.2739 20.6239 62.0619C17.4714 58.91 15.7405 55.6979 14.7791 51.2167C14.3269 49.1084 14.3266 45.131 14.7786 43.0202C15.1805 41.1425 15.7877 39.3714 16.5515 37.8481C16.8859 37.181 17.1595 36.4604 17.1595 36.2466C17.1595 35.7214 16.8059 35.2527 16.2275 35.0111C15.797 34.8312 15.6973 34.8362 15.2383 35.0604C14.6414 35.3523 14.1315 36.2141 13.2785 38.3732C11.0345 44.0529 11.0617 50.621 13.3523 56.1848C13.6123 56.8161 13.8249 57.3631 13.8249 57.4004C13.8249 57.4377 11.5717 57.4682 8.81803 57.4682C4.40103 57.4682 3.76995 57.4413 3.46163 57.2393C2.66549 56.7176 2.70939 57.9115 2.70939 36.7756V17.3194H35.5H68.2906V36.7756ZM18.8759 30.09C18.0283 30.6068 17.9748 31.6828 18.7657 32.3049C19.6277 32.9827 20.911 32.3713 20.911 31.2827C20.911 30.6316 20.7238 30.2933 20.219 30.0323C19.6849 29.7562 19.4037 29.7683 18.8759 30.09ZM32.1654 31.4327C29.5967 32.1144 27.4991 34.2386 26.8199 36.8453C26.6706 37.4189 26.6076 38.3468 26.6076 39.9757V42.2908L26.2255 42.3677C25.685 42.4764 24.7333 43.1481 24.3127 43.7176C23.5981 44.6852 23.5124 45.3479 23.5865 49.3274C23.6448 52.4571 23.6948 53.1053 23.952 54.0646C24.3046 55.3799 24.9845 56.8629 25.7473 57.981C26.3763 58.9029 27.889 60.3953 28.8759 61.0679C32.1484 63.2977 36.8051 63.6721 40.4315 61.997C43.6852 60.4938 46.1026 57.5952 47.0473 54.0646C47.3014 53.1152 47.3546 52.4466 47.4131 49.476C47.4893 45.6036 47.3948 44.7841 46.7641 43.8451C46.333 43.2033 45.3687 42.4873 44.7745 42.3677L44.3924 42.2908L44.3903 40.0507C44.3889 38.5464 44.3194 37.5187 44.1788 36.9219C43.5529 34.267 41.4275 32.1064 38.7707 31.4243C37.649 31.1363 33.2612 31.142 32.1654 31.4327ZM38.6143 34.2755C39.6226 34.6527 40.6677 35.6096 41.155 36.6015C41.5279 37.361 41.546 37.493 41.5903 39.7902L41.6364 42.1866H35.5H29.3636L29.4097 39.7902C29.454 37.493 29.4721 37.361 29.845 36.6015C30.3231 35.6281 31.3696 34.6577 32.3463 34.2823C32.9641 34.0448 33.4142 34.0037 35.46 33.9974C37.5436 33.9911 37.9498 34.027 38.6143 34.2755ZM44.3292 45.3062C44.6691 45.646 44.6703 45.6568 44.6703 48.4913C44.6703 50.0555 44.6027 51.8206 44.5203 52.4136C44.0978 55.4502 42.2254 58.0147 39.4599 59.3442C37.9597 60.0654 37.1513 60.2474 35.4585 60.2446C33.8324 60.242 32.6845 59.9695 31.3282 59.2639C29.4193 58.2709 27.8478 56.5674 27.0609 54.6384C26.4941 53.2488 26.3399 51.9821 26.3346 48.6751L26.3297 45.6471L26.6709 45.3062L27.0118 44.9651H35.5H43.9882L44.3292 45.3062ZM34.5699 49.4678L34.18 49.8027L34.1357 52.039L34.0914 54.2752L34.5071 54.6909C35.05 55.2336 35.8535 55.2671 36.4301 54.7713L36.82 54.4359V52.1197V49.8034L36.4301 49.468C35.9016 49.0135 35.0987 49.0133 34.5699 49.4678Z" fill="#E49B00"/>
</svg>
