<svg width="71" height="71" viewBox="0 0 71 71" fill="none" xmlns="http://www.w3.org/2000/svg">
<path fill-rule="evenodd" clip-rule="evenodd" d="M4.18469 0.14517C3.32283 0.347029 2.06122 1.08806 1.44668 1.75325C1.13475 2.09098 0.681517 2.78418 0.439755 3.2934L0 4.21952V27.7262V51.2329L0.518953 52.2804C1.14392 53.5423 1.9484 54.3283 3.24016 54.9389L4.1683 55.3776L16.3606 55.4159L28.5528 55.4543V58.2066V60.9589L26.434 61.0312C25.1219 61.076 24.0771 61.1821 23.6898 61.3096C20.1632 62.4716 17.8228 65.2925 17.4878 68.785C17.3815 69.8921 17.5756 70.4796 18.1447 70.7732C18.7258 71.0731 52.267 71.0768 52.8478 70.7771C53.5772 70.4007 53.7387 69.4493 53.3512 67.8092C52.6289 64.7526 50.5873 62.4559 47.6945 61.4459C46.8362 61.1462 46.3674 61.0834 44.566 61.0261L42.4472 60.9589V58.2066V55.4543L54.6468 55.4159L66.8464 55.3776L67.8961 54.8598C69.1607 54.2362 69.9483 53.4334 70.5602 52.1446L71 51.2184V27.719V4.21952L70.5602 3.2934C69.9483 2.00461 69.1607 1.20174 67.8961 0.578142L66.8463 0.060322L54.1979 0.0220574C44.8016 -0.00622511 41.4487 0.0255234 41.158 0.145586C40.7394 0.318608 40.363 0.901728 40.363 1.3774C40.363 1.7789 40.7183 2.42801 41.0179 2.57372C41.1544 2.64013 46.9246 2.72567 53.8405 2.7638L66.4149 2.83312L66.9452 3.16211C67.237 3.34304 67.6434 3.74398 67.8484 4.05315L68.2211 4.6152L68.2577 24.7628L68.2942 44.9103H35.5H2.70578L2.74232 24.7729L2.77887 4.63544L3.10858 4.10625C3.2899 3.81511 3.69172 3.40958 4.00143 3.20509L4.5647 2.83312L17.1492 2.7638C24.0708 2.72567 29.8456 2.64013 29.9821 2.57372C30.2775 2.43009 30.637 1.7807 30.637 1.39085C30.637 1.23807 30.5622 0.949558 30.4709 0.74964C30.1112 -0.0381123 30.6117 -0.0102457 17.1317 0.00486608C10.2075 0.0127686 4.48564 0.0747406 4.18469 0.14517ZM34.8206 0.184543C33.6161 0.850708 34.12 2.7638 35.5 2.7638C36.204 2.7638 36.8894 2.08654 36.8894 1.39085C36.8894 0.349941 35.7366 -0.322185 34.8206 0.184543ZM17.8695 5.73014C17.1373 6.13511 17.1696 5.30271 17.1644 23.8093C17.1591 42.5406 17.1203 41.6085 17.9198 41.9719C18.196 42.0975 22.4514 42.1375 35.5135 42.1375C54.239 42.1375 53.3104 42.1764 53.6745 41.3789C53.7977 41.109 53.8405 38.6982 53.8405 32.0168C53.8405 25.3355 53.7977 22.9247 53.6745 22.6547C53.3663 21.9798 52.4958 21.7225 51.7765 22.0937C51.1967 22.3929 51.0616 22.8544 51.0616 24.5368V26.0553H47.2338C43.0784 26.0553 42.8004 26.0997 42.4743 26.8139C42.2558 27.292 42.2647 27.6487 42.5062 28.1148C42.8541 28.7861 43.1337 28.8281 47.2472 28.8281H51.0616V34.0964V39.3647H35.5H19.9384V34.0964V28.8281H27.0245H34.1106V32.1693V35.5105L34.583 35.9819C35.0885 36.4863 35.5092 36.5695 36.1291 36.2876C36.8515 35.9593 36.8894 35.7077 36.8894 31.2543C36.8894 26.8009 36.8515 26.5493 36.1291 26.221C35.8603 26.0987 33.6908 26.0553 27.8516 26.0553H19.9384V23.8371V21.6188H22.061C24.4311 21.6188 24.6727 21.544 25.0263 20.6995C25.1944 20.2979 25.1944 20.167 25.0263 19.7654C24.6727 18.9209 24.4311 18.846 22.061 18.846H19.9384V13.5777V8.3094H27.0245H34.1106V13.5777V18.846H32.0574C29.7635 18.846 29.5132 18.9255 29.1615 19.7654C28.9934 20.167 28.9934 20.2979 29.1615 20.6995C29.5311 21.5822 29.6798 21.6188 32.8979 21.6188C36.0465 21.6188 36.4099 21.5467 36.7234 20.8602C36.8441 20.5959 36.8894 18.8322 36.8894 14.403V8.3094H43.9755H51.0616V11.8516C51.0616 14.6447 51.1035 15.4729 51.2591 15.7682C51.3677 15.9741 52.4818 17.1564 53.7349 18.3955L56.0132 20.6483H56.6513C57.1932 20.6483 57.3436 20.584 57.6491 20.2218C57.8847 19.9424 58.0088 19.6295 58.0088 19.3144C58.0088 18.8847 57.7871 18.5999 55.9247 16.6368L53.8405 14.4401V10.5494C53.8405 6.35471 53.8001 6.08215 53.1256 5.73416C52.5749 5.44995 18.3832 5.44593 17.8695 5.73014ZM68.2706 49.2532C68.2253 50.68 68.1867 50.8748 67.8482 51.3851C67.6433 51.6941 67.237 52.0949 66.9452 52.2759L66.4149 52.6048H35.4899H4.56484L4.00157 52.2329C3.01882 51.5839 2.78804 51.0415 2.72982 49.2428L2.67938 47.6831H35.5H68.3206L68.2706 49.2532ZM39.6683 58.2198V60.9926H35.5H31.3317V58.2198V55.447H35.5H39.6683V58.2198ZM47.0323 64.1457C48.5659 64.7697 49.9291 66.1555 50.4182 67.5878L50.628 68.2018H35.4978H20.3676L20.5737 67.6186C21.1957 65.8598 22.6951 64.4817 24.5268 63.9855C25.1732 63.8104 26.8665 63.7835 35.7779 63.8069L46.2681 63.8347L47.0323 64.1457Z" fill="#E49B00"/>
</svg>
