<svg width="64" height="71" viewBox="0 0 64 71" fill="none" xmlns="http://www.w3.org/2000/svg">
<path opacity="0.7" fill-rule="evenodd" clip-rule="evenodd" d="M29.8514 0.0412053C26.8818 0.465367 24.7912 1.07018 22.7069 2.10846C19.4052 3.75307 16.6469 6.16915 14.6207 9.1917C13.8905 10.2809 12.3405 13.3154 12.338 13.6607C12.337 13.7966 11.121 13.8342 6.72236 13.8342C0.632811 13.8342 0.518724 13.8474 0.179646 14.5934C-0.059882 15.1201 -0.059882 55.0061 0.179646 55.5328C0.537 56.3188 0.0841115 56.292 13.0221 56.292H24.9362V59.4833V62.6745H23.8576C21.9447 62.6745 20.2579 63.2867 18.9657 64.4499C18.0781 65.2489 17.3113 66.4092 16.9859 67.4461L16.7416 68.2246H14.463C11.9748 68.2246 11.5561 68.3237 11.2561 68.9838C11.0469 69.4439 11.0469 69.7803 11.2561 70.2404C11.6205 71.0421 10.4699 70.9996 31.859 70.9996C53.248 70.9996 52.0974 71.0421 52.4619 70.2404C52.7856 69.5284 52.5521 68.7525 51.915 68.4223C51.63 68.2747 50.9562 68.2246 49.2547 68.2246H46.9761L46.6895 67.3745C45.9255 65.1073 43.9111 63.3153 41.5787 62.8279C41.1751 62.7435 40.3808 62.6745 39.8134 62.6745H38.7818V59.4833V56.292H50.6959C63.6338 56.292 63.181 56.3188 63.5383 55.5328C63.7778 55.0061 63.7778 15.1201 63.5383 14.5934C63.1992 13.8474 63.0851 13.8342 56.9956 13.8342C52.597 13.8342 51.3809 13.7966 51.38 13.6607C51.3775 13.3154 49.8275 10.2809 49.0973 9.1917C46.0044 4.57795 41.024 1.28761 35.6455 0.304277C34.4676 0.0889356 30.7112 -0.0815894 29.8514 0.0412053ZM34.4719 2.95068C43.5265 4.28338 50.2474 12.4243 49.8145 21.5349C49.5917 26.2224 47.8027 30.2458 44.4773 33.5378C41.8474 36.1413 39.0756 37.6379 35.3204 38.4822C33.8205 38.8194 29.9783 38.8202 28.4297 38.4839C24.7321 37.6803 21.8513 36.1197 19.1716 33.4683C16.5879 30.9117 14.9908 27.9508 14.1911 24.235C13.8382 22.5953 13.838 18.949 14.1907 17.3103C15.5751 10.8775 19.9339 5.88568 26.0438 3.73559C28.7369 2.78792 31.572 2.52388 34.4719 2.95068ZM29.7244 5.6627C24.8868 6.36978 20.4353 9.56896 18.2578 13.9035C16.475 17.4525 16.163 21.7553 17.4132 25.5488C17.8491 26.8714 18.2359 27.293 19.0135 27.293C19.4304 27.293 19.6525 27.1981 19.9625 26.8875C20.4601 26.3888 20.471 26.0344 20.0318 24.6566C17.8017 17.6602 21.8777 10.3998 29.0443 8.60312C30.4723 8.24514 33.5145 8.28538 34.9742 8.68165C39.4577 9.89864 42.8648 13.397 44.0017 17.9511C44.3589 19.3821 44.3187 22.4308 43.9233 23.8936C42.0328 30.8883 34.8496 34.8223 27.9824 32.6241C26.6075 32.184 26.2539 32.195 25.7563 32.6936C25.2317 33.2194 25.1954 34.0212 25.6729 34.5375C26.4362 35.3629 29.9005 36.1101 32.4128 35.9912C36.5561 35.7951 39.8558 34.3206 42.7277 31.382C48.2655 25.7157 48.545 16.9171 43.3804 10.8334C40.0643 6.92728 34.775 4.92455 29.7244 5.6627ZM31.3589 11.0511C30.7256 11.3189 30.4744 11.8575 30.4744 12.9482V13.9672L29.9243 14.2485C29.1782 14.63 28.5041 15.3324 28.1057 16.1433C27.617 17.1381 27.6357 18.7615 28.1473 19.7398C28.5697 20.5479 29.4479 21.3974 30.1781 21.7041C30.4553 21.8207 31.0868 21.9665 31.5815 22.0284C32.3378 22.1229 32.5416 22.2089 32.8622 22.5684C33.2909 23.0493 33.3424 23.5079 33.0345 24.1045C32.5363 25.0698 31.2665 25.0358 30.336 24.0324C29.3333 22.9511 28.1342 23.0866 27.7016 24.3303C27.6016 24.6176 27.6004 24.8657 27.6976 25.122C27.9047 25.6678 28.9946 26.6724 29.7803 27.0416L30.4631 27.3624L30.4687 28.3059C30.4773 29.7362 30.8927 30.3455 31.859 30.3455C32.8334 30.3455 33.2435 29.7356 33.2435 28.2862C33.2435 27.3929 33.2669 27.3172 33.5665 27.2418C34.0902 27.1101 35.166 26.0647 35.5665 25.2982C36.0744 24.3265 36.1024 22.6908 35.6277 21.7254C34.9687 20.3847 33.6824 19.4909 32.1436 19.304C31.1855 19.1877 30.9472 19.0654 30.6835 18.5545C30.3722 17.9511 30.428 17.4982 30.8757 16.9962C31.4518 16.3499 32.1331 16.3701 33.1376 17.0633C34.3084 17.8714 35.2892 17.6942 35.6115 16.6164C35.7373 16.1954 35.7254 16.0203 35.5474 15.6754C35.2891 15.1748 34.4383 14.4695 33.7403 14.1772L33.2435 13.9692V12.9326C33.2435 11.9959 33.2068 11.8557 32.8628 11.4772C32.4541 11.0278 31.8314 10.8513 31.3589 11.0511ZM11.4584 16.9214C10.9979 18.7719 11.0188 22.4082 11.5037 24.7955C12.9876 32.1026 18.1909 38.074 25.1439 40.4494C27.5396 41.2679 29.0148 41.4984 31.859 41.4984C33.9899 41.4984 34.6648 41.4459 35.8742 41.1867C45.4386 39.1368 52.1657 31.2539 52.5856 21.6042C52.6522 20.0734 52.5001 17.8879 52.2596 16.9214L52.1819 16.6092H56.5583H60.9347V32.2881V47.9669H31.859H2.7833V32.2881V16.6092H7.15961H11.5361L11.4584 16.9214ZM21.1564 29.5925C20.4448 30.3056 20.6006 31.3494 21.4873 31.8088C22.3579 32.26 23.4132 31.594 23.4132 30.5935C23.4132 29.408 21.9763 28.7707 21.1564 29.5925ZM60.9347 52.1295V53.517H31.859H2.7833V52.1295V50.742H31.859H60.9347V52.1295ZM36.0126 59.4833V62.6745H31.859H27.7053V59.4833V56.292H31.859H36.0126V59.4833ZM41.3646 65.6563C42.2875 65.931 43.1338 66.5646 43.6343 67.3556C43.8592 67.7108 44.0431 68.0516 44.0431 68.113C44.0431 68.1744 38.5602 68.2246 31.859 68.2246C25.1577 68.2246 19.6749 68.1744 19.6749 68.113C19.6749 67.8419 20.5224 66.6997 20.987 66.3445C22.1614 65.4468 22.0127 65.4591 31.7992 65.4541C39.2645 65.4503 40.7799 65.4823 41.3646 65.6563Z" fill="#E49B00"/>
</svg>
