<svg width="76" height="71" viewBox="0 0 76 71" fill="none" xmlns="http://www.w3.org/2000/svg">
<path fill-rule="evenodd" clip-rule="evenodd" d="M3.39543 0.212539C1.99858 0.65507 1.00121 1.51795 0.38575 2.81581L0 3.62929V28.4773V53.3253L0.386783 54.1515C0.857714 55.1578 1.60146 55.9275 2.62525 56.4683L3.39543 56.875L16.1342 56.916L28.8731 56.9568L28.7911 57.4336C28.7461 57.6959 28.5163 59.5859 28.2806 61.634C27.819 65.6434 27.6957 66.0935 26.8191 66.9717C26.0324 67.7599 25.4689 67.9321 23.3462 68.0328C21.5029 68.1203 21.4378 68.1348 21.0949 68.5343C20.7159 68.9757 20.6244 69.7644 20.8937 70.2685C21.2979 71.0255 20.7109 70.9999 37.7188 70.9999C54.7266 70.9999 54.1396 71.0255 54.5438 70.2685C54.8131 69.7644 54.7216 68.9757 54.3426 68.5343C53.9997 68.1348 53.9346 68.1203 52.0913 68.0328C49.9686 67.9321 49.4051 67.7599 48.6184 66.9717C47.7437 66.0955 47.6161 65.6344 47.1608 61.7059C46.9285 59.6997 46.7013 57.8105 46.6562 57.5076L46.5742 56.9568L59.308 56.916L72.0421 56.875L72.8122 56.4683C73.836 55.9275 74.5798 55.1578 75.0507 54.1515L75.4375 53.3253V28.4773V3.62929L75.0518 2.81581C74.5612 1.78107 73.7392 0.957535 72.7064 0.466048L71.8944 0.0795728L57.3955 0.0397865L42.8966 0L42.4148 0.431438C42.0153 0.788924 41.9328 0.96922 41.9328 1.48467C41.9328 1.99938 42.0154 2.18041 42.4117 2.53509L42.8904 2.96372L57.0234 2.96431C70.7802 2.96475 71.1689 2.97244 71.6289 3.25361C72.6252 3.86209 72.5588 2.36692 72.5588 24.1806V43.9333H37.7188H2.87873L2.87932 24.1511C2.87976 4.82391 2.88641 4.35801 3.1666 3.89759C3.32442 3.63831 3.60653 3.3388 3.79343 3.23201C4.06477 3.07701 6.85876 3.02273 17.6174 2.96372L31.1012 2.88976L31.4574 2.47474C31.8394 2.02984 31.9319 1.24284 31.6616 0.737009C31.2604 -0.0143468 31.6423 0.00488079 17.3167 0.0155299C6.99989 0.023221 3.85248 0.0677404 3.39543 0.212539ZM36.2587 0.212095C35.5365 0.613065 35.2786 1.71496 35.7659 2.31782C36.3765 3.07302 37.2026 3.15717 37.8975 2.53509C39.1637 1.40169 37.743 -0.612178 36.2587 0.212095ZM52.1588 10.2122C48.0822 10.8617 44.487 13.1453 42.3322 16.4541C38.687 22.0511 39.3581 29.2131 43.9768 34.0029C46.6099 36.7336 49.6729 38.1211 53.4075 38.2748C56.2254 38.3909 58.1179 38.0121 60.3795 36.8796C65.1768 34.4775 68.1525 29.6911 68.1781 24.3359C68.197 20.3816 66.8297 17.0218 64.0808 14.2678C62.2621 12.4454 59.8869 11.0911 57.485 10.5069C56.0667 10.1619 53.4004 10.0143 52.1588 10.2122ZM10.4542 11.7587C9.48387 12.1814 9.52195 11.6775 9.52195 24.1067V35.3549H8.85025C7.41886 35.3549 6.65858 36.3381 7.18871 37.5036C7.57106 38.3446 6.99546 38.3129 21.913 38.3129H35.6472L36.126 37.8843C36.5222 37.5296 36.6049 37.3486 36.6049 36.8339C36.6049 36.3192 36.5222 36.1382 36.126 35.7835C35.7336 35.4321 35.5147 35.3549 34.9115 35.3549H34.1757V29.5012V23.6476L33.7442 23.2153L33.3127 22.7829H29.0826H24.8524L24.4209 23.2153L23.9894 23.6476V29.5012V35.3549H21.9226H19.8559V24.1833C19.8559 11.7593 19.8872 12.1693 18.9063 11.7587C18.1776 11.4537 11.1543 11.4536 10.4542 11.7587ZM52.6291 18.9685V24.7677L56.7842 28.9401L60.9393 33.1123L60.1024 33.6486C58.2578 34.831 56.4143 35.3559 54.1187 35.3526C51.6996 35.3492 49.8536 34.7968 47.8768 33.4849C46.7246 32.7202 45.2404 31.1618 44.521 29.9612C42.6152 26.7811 42.4511 22.5948 44.1029 19.3072C45.5917 16.3442 48.1525 14.2598 51.3743 13.3883C52.7637 13.0125 52.6291 12.4139 52.6291 18.9685ZM57.6038 13.6229C60.4811 14.6148 63.0334 16.9471 64.2973 19.7397C65.4371 22.2583 65.5623 25.0948 64.6539 27.8305C64.3222 28.83 63.4891 30.4406 63.0976 30.8395C63.0073 30.9316 61.6341 29.6587 59.2692 27.2909L55.5816 23.5986V18.371V13.1431L56.2008 13.248C56.5414 13.3057 57.1728 13.4743 57.6038 13.6229ZM16.8674 24.9645L16.9054 35.3549H14.6899H12.4745V25.0262C12.4745 19.3453 12.5206 14.6514 12.5768 14.5949C12.6331 14.5386 13.613 14.5109 14.7543 14.5334L16.8295 14.5742L16.8674 24.9645ZM31.2232 30.5479V35.3549H29.0826H26.942V30.5479V25.741H29.0826H31.2232V30.5479ZM72.5303 49.921L72.485 52.9505L72.0024 53.4337L71.5198 53.9169L37.8868 53.9548L4.25388 53.9928L3.75298 53.6545C2.93365 53.1014 2.88331 52.8755 2.88094 49.7386L2.87873 46.8914H37.7272H72.5756L72.5303 49.921ZM43.682 57.5036C43.7284 57.8087 43.9714 59.822 44.2223 61.9777C44.669 65.8167 44.7392 66.1411 45.4934 67.8569C45.5578 68.0035 43.9483 68.0418 37.7188 68.0418C31.4892 68.0418 29.8797 68.0035 29.9441 67.8569C30.7047 66.1269 30.7695 65.8266 31.2139 61.9777C31.4628 59.822 31.7055 57.8087 31.753 57.5036L31.8396 56.9489H37.7188H43.5979L43.682 57.5036Z" fill="#E49B00"/>
</svg>
