<svg width="69" height="71" viewBox="0 0 69 71" fill="none" xmlns="http://www.w3.org/2000/svg">
<path fill-rule="evenodd" clip-rule="evenodd" d="M45.5283 0.232464C44.2778 0.683229 43.8122 1.1254 41.427 4.12722L39.0994 7.05677L21.9815 7.05788C10.8741 7.05844 4.55667 7.1092 3.98921 7.20199C3.50821 7.28077 2.82115 7.49533 2.46236 7.67883C1.59811 8.12058 0.61674 9.24361 0.264275 10.1941C-0.0187681 10.9575 -0.0197304 11.0349 0.0162858 31.4428L0.0524395 51.9253L0.437346 52.7163C0.919441 53.7066 1.95346 54.6619 2.95106 55.0385C3.6898 55.3174 3.94329 55.3233 15.0415 55.3233H26.3773V58.4966V61.67L24.6933 61.73C22.8107 61.7972 22.1572 62.0034 21.2334 62.8217C19.9487 63.9599 19.6029 65.1246 19.666 68.1025L19.7101 70.1874L20.1612 70.5936L20.6122 71L34.779 70.9634L48.9456 70.9268L49.2774 70.5376C49.6006 70.1584 49.6091 70.0865 49.6091 67.7305C49.6091 65.7094 49.5672 65.2011 49.3536 64.6339C48.5974 62.6259 47.0256 61.7034 44.3604 61.7034H43.0107V58.5134V55.3233H54.1403C65.0305 55.3233 65.2862 55.3172 66.0245 55.0385C67.0221 54.6619 68.0562 53.7066 68.5383 52.7163L68.9232 51.9253L68.9616 43.4236L69 34.9217L68.5941 34.5123C68.1572 34.0714 67.4473 33.9619 66.9093 34.2525C66.2864 34.5888 66.2426 35.0076 66.2426 40.617V45.8919H34.4878H2.73304L2.73359 28.5895C2.734 11.6733 2.74005 11.2772 3.00247 10.8431C3.14997 10.5988 3.47453 10.2868 3.72362 10.1496C4.15114 9.91393 5.08303 9.89798 20.4318 9.86262C29.9436 9.8407 36.6873 9.87676 36.6873 9.94944C36.6873 10.0178 36.0006 10.9396 35.1614 11.998L33.6355 13.9223L25.1607 13.9916C16.6908 14.061 16.6855 14.0611 15.8959 14.3829C14.8511 14.8086 13.6901 15.8936 13.1369 16.9614C12.7225 17.7613 12.6994 17.8861 12.6994 19.3315C12.6994 20.7768 12.7225 20.9017 13.1369 21.7015C13.6857 22.7609 14.8614 23.8667 15.8238 24.229C16.2181 24.3774 16.5887 24.5843 16.6474 24.6891C16.7061 24.7938 17.4373 27.5631 18.2724 30.8433C19.1074 34.1235 19.9169 37.1983 20.0715 37.6762C20.6195 39.3707 22.0662 40.8037 23.7499 41.3197C24.6418 41.593 24.9553 41.6 34.7671 41.562L44.8665 41.523L45.7907 41.0812C46.9983 40.5041 47.9929 39.554 48.5073 38.4862C48.7677 37.9459 49.522 35.2702 50.5917 31.0914L52.268 24.5434L52.9144 24.3089C55.4391 23.3929 56.8869 20.4889 56.1267 17.8657C55.677 16.3142 54.7324 15.2288 53.1897 14.4914L52.2897 14.061L49.0087 13.9916L45.7276 13.9223L47.3591 11.8755L48.9905 9.82877L57.101 9.86442C64.6672 9.89771 65.2362 9.91685 65.578 10.1511C65.7796 10.2891 65.9961 10.5076 66.0592 10.6365C66.1223 10.7654 66.2048 13.7316 66.2426 17.2278L66.3113 23.5847L66.7603 23.9893C67.0249 24.2277 67.3635 24.3936 67.5851 24.3934C68.0937 24.3927 68.8293 23.9196 68.9252 23.5313C68.9682 23.3573 68.9853 20.2815 68.9633 16.6962L68.9232 10.1775L68.5182 9.43973C68.0249 8.54153 67.3945 7.96399 66.3864 7.48687L65.624 7.12612L58.3968 7.08271L51.1698 7.0393L51.4351 6.25053C51.9874 4.60836 51.5048 2.57339 50.2757 1.36215C49.0399 0.144252 47.0719 -0.323989 45.5283 0.232464ZM48.0401 3.09892C48.7981 3.60017 49.1555 4.82028 48.7651 5.57494C48.6789 5.74151 46.6621 8.32557 44.2832 11.3171L39.958 16.7564L39.3008 16.031C38.9394 15.632 38.2669 15.0879 37.8062 14.822C37.3218 14.5421 36.9946 14.2653 37.0301 14.1647C37.0636 14.0693 38.9953 11.592 41.3225 8.65983C45.8758 2.92291 46.1219 2.67686 47.1743 2.80668C47.4608 2.84191 47.8504 2.97353 48.0401 3.09892ZM29.509 16.8696C28.7207 18.4217 28.4371 19.8505 28.6654 21.1209L28.8048 21.8974L23.0891 21.8943C17.826 21.8915 17.3296 21.871 16.8234 21.6352C15.8374 21.1761 15.38 20.4459 15.38 19.3315C15.38 18.217 15.8374 17.4868 16.8234 17.0277C17.3314 16.7911 17.8365 16.7714 23.4675 16.7686C26.8195 16.767 29.5382 16.8124 29.509 16.8696ZM36.2911 17.1529C38.6475 18.395 38.781 21.603 36.5384 23.1003C35.8665 23.549 34.6671 23.6872 33.7337 23.4236C32.9792 23.2104 32.1006 22.4685 31.7034 21.7091C31.2869 20.9125 31.283 19.4201 31.6956 18.638C32.5943 16.9342 34.6287 16.2768 36.2911 17.1529ZM52.4552 17.2072C54.0524 18.2743 53.9003 20.7661 52.1866 21.6032C51.6038 21.8878 51.4075 21.8974 46.1143 21.8974C41.1782 21.8974 40.6525 21.8759 40.728 21.6775C40.774 21.5566 40.8526 21.1055 40.9028 20.6753C40.9871 19.9512 41.0869 19.7757 42.2401 18.322L43.4864 16.7511L47.6921 16.793L51.8981 16.8349L52.4552 17.2072ZM25.5525 29.2294V33.7874L25.8994 34.1376C26.5743 34.8184 27.646 34.6635 28.061 33.8253C28.2745 33.3942 28.3014 32.8541 28.3015 29.0056L28.3018 24.6713H29.3343C30.3146 24.6713 30.4081 24.6997 31.1793 25.2308C31.626 25.5384 32.2749 25.8875 32.6211 26.0067L33.2506 26.223V29.7512C33.2506 33.5318 33.3281 34.0508 33.9429 34.3829C34.5219 34.6955 35.1988 34.5869 35.6172 34.1143L35.9999 33.6822V30.0046C35.9999 26.6254 36.0195 26.3204 36.2405 26.2459C36.9304 26.0136 38.2762 25.3241 38.6357 25.019C38.9975 24.7119 39.1724 24.6713 40.1345 24.6713H41.2237V29.148C41.2237 34.1229 41.216 34.0784 42.1458 34.4704C42.5717 34.65 42.6704 34.645 43.1233 34.4211C43.4004 34.2841 43.7041 34.016 43.798 33.8253C43.9234 33.5711 43.9694 32.303 43.9709 29.0749L43.973 24.6713H46.6536C48.1279 24.6713 49.3353 24.7182 49.3365 24.7753C49.3379 24.8325 48.6433 27.593 47.793 30.9098C46.1006 37.5121 45.9521 37.8952 44.8665 38.4619C44.3282 38.7429 44.1143 38.7499 34.694 38.7907C28.0108 38.8196 24.9131 38.7859 24.5535 38.6804C23.9517 38.5038 23.1518 37.8386 22.8625 37.2744C22.6967 36.9511 21.882 33.8761 19.7161 25.3995L19.5301 24.6713H22.5413H25.5525V29.2294ZM66.7634 28.2633C66.3945 28.5959 66.3175 28.7656 66.3175 29.2483C66.3175 29.7354 66.3939 29.9003 66.7807 30.249C67.1824 30.6111 67.3186 30.6564 67.8083 30.5901C68.524 30.4932 68.9919 29.9835 68.9919 29.3007C68.9919 28.6688 68.803 28.3294 68.3073 28.0708C67.7095 27.759 67.2608 27.8149 66.7634 28.2633ZM66.2426 49.9211C66.2426 51.357 66.0584 51.8583 65.3767 52.2776C64.9438 52.544 64.4451 52.5484 34.5153 52.5489C0.900746 52.5494 3.57516 52.6236 3.00247 51.6758C2.78747 51.3201 2.734 50.9766 2.73359 49.9488L2.73304 48.6659H34.4878H66.2426V49.9211ZM40.2296 58.5481L40.2666 61.7034H34.6966H29.1266V58.5119V55.3202L34.6596 55.3565L40.1927 55.3927L40.2296 58.5481ZM46.3892 65.0647C46.8561 65.5787 46.8598 65.5933 46.8598 66.9025V68.2222H34.6253H22.3907L22.391 67.0779C22.3912 65.7026 22.6463 65.0771 23.353 64.719C23.802 64.4915 24.5732 64.4775 34.8764 64.5109L45.9187 64.5467L46.3892 65.0647Z" fill="#E49B00"/>
</svg>
