<svg width="67" height="71" viewBox="0 0 67 71" fill="none" xmlns="http://www.w3.org/2000/svg">
<path fill-rule="evenodd" clip-rule="evenodd" d="M36.6008 0.0471043C36.4109 0.0798449 35.8205 0.176402 35.2888 0.261583C33.0779 0.615764 30.333 1.74504 28.2479 3.15829C26.0984 4.61525 23.8223 7.16527 22.6428 9.43797L22.0848 10.5131H14.11C5.42684 10.5131 5.34604 10.5194 3.73271 11.3181C2.76093 11.799 1.28047 13.2861 0.801628 14.2622C-0.0388036 15.9753 0.000283066 14.9654 0.000283066 34.9298C0.000283066 50.6488 0.028873 53.2943 0.205937 53.9772C0.871515 56.5441 2.79035 58.4714 5.34576 59.14C6.0072 59.313 7.64386 59.3466 15.4291 59.3466H24.7229V61.0113C24.7229 62.6539 24.7186 62.6761 24.4066 62.6761C23.8719 62.6761 22.4834 63.0872 21.6877 63.481C20.7159 63.962 19.2355 65.4491 18.7566 66.4252C18.3127 67.33 17.9553 68.6381 17.9553 69.3578C17.9553 70.0469 18.1706 70.4878 18.6445 70.769C19 70.98 20.1292 71 31.6824 71H44.3309L44.7611 70.614C46.2767 69.2538 44.3 64.8413 41.5658 63.481C40.7752 63.0876 39.3871 62.6761 38.8507 62.6761C38.5387 62.6761 38.5345 62.6539 38.5345 61.0113V59.3466H47.8282C57.9564 59.3466 57.8894 59.3511 59.5247 58.5416C60.4965 58.0607 61.9769 56.5736 62.4558 55.5975C63.1755 54.1305 63.2571 53.5065 63.2571 49.4703V45.7566L63.7821 45.4874C65.5737 44.5695 66.6158 42.3054 66.1597 40.3219C65.9171 39.2671 65.4996 38.6169 64.3031 37.4305L63.2571 36.3935V26.5345C63.2571 15.7871 63.2653 15.9121 62.4558 14.2622C62.25 13.8425 61.6798 13.0976 61.1821 12.5974C59.754 11.1631 58.1321 10.5166 55.9425 10.5091L54.763 10.5049L54.1415 9.37373C51.6227 4.78908 47.3024 1.54429 42.1629 0.377285C41.0023 0.113834 37.4399 -0.0977312 36.6008 0.0471043ZM40.7326 2.95713C44.111 3.50748 47.3406 5.2308 49.5337 7.65333C56.0732 14.8771 54.4458 26.0571 46.1185 31.1136C43.3685 32.7835 39.7024 33.5579 36.5698 33.1308C33.0641 32.6527 30.1282 31.207 27.6905 28.7582C21.7463 22.7875 21.7463 13.2217 27.6905 7.25101C31.158 3.76788 35.9748 2.18204 40.7326 2.95713ZM36.8771 5.87909C31.6384 6.85049 28.1802 9.87428 26.7061 14.7727C26.2233 16.3774 26.1618 19.1444 26.5728 20.7793C27.7185 25.3363 31.0819 28.7139 35.634 29.8786C37.0387 30.238 39.8576 30.237 41.2161 29.8767C43.5667 29.2532 45.4199 28.1757 47.0976 26.4571C51.7303 21.7113 51.6701 14.1297 46.9621 9.40065C44.7212 7.14987 41.9977 5.96899 38.8107 5.86633C37.9371 5.83817 37.067 5.84399 36.8771 5.87909ZM41.2277 9.04009C42.7073 9.51691 43.9062 10.2529 45.01 11.3615C46.1039 12.4604 46.8369 13.6587 47.3337 15.1606C47.6526 16.1247 47.7008 16.4983 47.7008 18.0046C47.7008 19.511 47.6526 19.8846 47.3337 20.8486C46.8369 22.3505 46.1039 23.5489 45.01 24.6478C43.9149 25.7476 42.7212 26.4839 41.2277 26.9804C39.6792 27.4951 37.3029 27.5235 35.7722 27.0455C28.9154 24.9044 26.7579 16.4164 31.7866 11.3654C34.2744 8.86639 37.9106 7.97074 41.2277 9.04009ZM37.9129 11.8928C36.654 12.4104 36.8934 14.2623 38.2458 14.4692C40.5515 14.8217 41.5651 15.8399 41.9161 18.1558C42.0101 18.7765 42.4854 19.2393 43.1378 19.3456C43.5775 19.4173 43.6958 19.3684 44.1244 18.9379C44.6607 18.3992 44.7063 18.1281 44.4705 16.8797C44.0001 14.388 41.9969 12.3759 39.5163 11.9034C38.6506 11.7384 38.2943 11.7361 37.9129 11.8928ZM20.9358 13.7386C20.5491 15.6247 20.4194 17.0843 20.4954 18.6983C20.5663 20.2064 20.6734 20.951 21.0785 22.7562L21.1641 23.1377H14.5826C7.27813 23.1377 7.4871 23.1119 7.17828 24.0516C6.95632 24.7273 7.34015 25.5013 8.01097 25.7311C8.35875 25.8502 10.4238 25.8989 15.3721 25.9045L22.2497 25.9123L22.485 26.3503C25.0674 31.1575 29.5941 34.5503 34.9755 35.712C36.5509 36.0522 40.0769 36.0572 41.7363 35.7217C43.3452 35.3965 44.8495 34.8909 46.243 34.2071L47.3958 33.6413L53.2893 39.5392C58.2999 44.5535 59.281 45.4737 59.8388 45.6822C60.4839 45.9232 60.4948 45.9373 60.4948 46.5328V47.1382H31.6287H2.76259V32.0385C2.76259 15.6313 2.73552 16.2316 3.52844 15.0821C4.01599 14.3756 4.74082 13.833 5.59285 13.5371C6.21451 13.3212 7.03104 13.2964 13.6564 13.2923L21.0283 13.2878L20.9358 13.7386ZM58.0451 13.6751C58.8434 14.0298 59.7482 14.9369 60.1289 15.7643C60.4211 16.3989 60.4263 16.5445 60.4632 24.9412L60.5006 33.4732L57.252 30.2127L54.0035 26.9522L54.5463 25.8427C55.1814 24.5447 55.6989 23.011 56.0369 21.4256C56.3646 19.8883 56.3609 16.0238 56.0304 14.5363C55.9032 13.9641 55.799 13.4404 55.799 13.3725C55.7987 13.1661 57.3782 13.3788 58.0451 13.6751ZM57.8977 34.8952C62.6801 39.7094 63.3876 40.4756 63.4697 40.929C63.6005 41.6512 63.4541 42.1125 62.9256 42.6433C62.3973 43.174 61.938 43.3212 61.2189 43.1901C60.7674 43.1076 60.0052 42.3972 55.2031 37.5834L49.7043 32.0712L50.9905 30.7446C51.6981 30.0152 52.3091 29.4097 52.3483 29.3993C52.3876 29.3891 54.8848 31.8621 57.8977 34.8952ZM7.63488 30.0426C7.46597 30.1746 7.25824 30.4841 7.1733 30.7306C6.95094 31.3762 7.34816 32.1631 8.01097 32.3902C8.69091 32.623 18.6565 32.623 19.3363 32.3902C19.6589 32.2795 19.907 32.0606 20.0829 31.7307C20.3969 31.1422 20.3121 30.6254 19.8205 30.1317L19.4871 29.7968L13.7144 29.7998C8.45847 29.8026 7.91443 29.8244 7.63488 30.0426ZM7.63488 36.7017C7.46597 36.8337 7.25824 37.1432 7.1733 37.3897C6.95094 38.0353 7.34816 38.8222 8.01097 39.0493C8.52794 39.2264 19.1794 39.3106 20.0078 39.1442C21.1391 38.917 21.5587 37.616 20.7596 36.8134L20.4036 36.4559L14.1729 36.4589C8.48264 36.4619 7.91526 36.4828 7.63488 36.7017ZM24.6271 36.7907C24.3053 37.0687 24.2395 37.2356 24.2395 37.7738C24.2395 38.3121 24.3053 38.479 24.6271 38.757C25.3515 39.3828 26.4321 39.1385 26.7912 38.2676C27.3276 36.967 25.7048 35.8595 24.6271 36.7907ZM60.4699 51.6817C60.4275 53.1107 60.3612 53.5744 60.1248 54.0954C59.7519 54.9173 58.8529 55.822 58.0293 56.2044L57.3872 56.5026H31.6287H5.87019L5.22809 56.2044C4.40451 55.822 3.50551 54.9173 3.1326 54.0954C2.89615 53.5744 2.82985 53.1107 2.78745 51.6817L2.73483 49.9128H31.6287H60.5226L60.4699 51.6817ZM35.7722 61.0113V62.6761H31.6287H27.4852V61.0113V59.3466H31.6287H35.7722V61.0113ZM39.5917 65.6575C40.5123 65.9321 41.3566 66.5656 41.8559 67.3565C42.0802 67.7116 42.2636 68.0524 42.2636 68.1138C42.2636 68.1752 37.4779 68.2254 31.6287 68.2254C25.7795 68.2254 20.9938 68.1752 20.9938 68.1138C20.9938 67.8428 21.8392 66.7007 22.3027 66.3456C23.4534 65.4639 23.4922 65.4603 31.569 65.4553C37.6703 65.4514 39.0148 65.4854 39.5917 65.6575Z" fill="#E49B00"/>
</svg>
