<svg width="71" height="71" viewBox="0 0 71 71" fill="none" xmlns="http://www.w3.org/2000/svg">
<path fill-rule="evenodd" clip-rule="evenodd" d="M2.53894 1.35932C0.349869 2.72892 0 3.05599 0 3.73302C0 4.45057 0.685316 5.10721 1.43428 5.10721C1.60582 5.10721 2.19573 4.82982 2.74515 4.49082L3.74414 3.87456V6.91919V9.96396H2.70632C1.75725 9.96396 1.62995 9.99837 1.21879 10.3661C0.846592 10.6989 0.768936 10.8687 0.768936 11.3516C0.768936 11.8345 0.846592 12.0043 1.21879 12.3371C1.62995 12.7048 1.75725 12.7392 2.70632 12.7392H3.74414V16.9022V21.0651H2.70632C1.75725 21.0651 1.62995 21.0995 1.21879 21.4672C0.846592 21.8 0.768936 21.9698 0.768936 22.4527C0.768936 22.9356 0.846592 23.1055 1.21879 23.4383C1.62995 23.806 1.75725 23.8404 2.70632 23.8404H3.74414V28.0033V32.1662H2.70632C1.75725 32.1662 1.62995 32.2007 1.21879 32.5684C0.57535 33.1436 0.57535 33.9642 1.21879 34.5394C1.62995 34.9071 1.75725 34.9415 2.70632 34.9415H3.74414V39.1045V43.2674H2.70632C1.75725 43.2674 1.62995 43.3018 1.21879 43.6695C0.846592 44.0023 0.768936 44.1721 0.768936 44.655C0.768936 45.1379 0.846592 45.3078 1.21879 45.6405C1.62995 46.0083 1.75725 46.0427 2.70632 46.0427H3.74414V50.2056V54.3685H2.70632C1.75725 54.3685 1.62995 54.403 1.21879 54.7707C0.846592 55.1034 0.768936 55.2733 0.768936 55.7562C0.768936 56.2391 0.846592 56.4089 1.21879 56.7417C1.62995 57.1094 1.75725 57.1438 2.70632 57.1438H3.74414V60.8211V64.4983H2.41982C0.945881 64.4983 0.432656 64.6712 0.165713 65.2577C-0.158502 65.9697 0.0752988 66.7456 0.713467 67.0759C0.965988 67.2065 1.54494 67.2736 2.41982 67.2736H3.74414V68.5854C3.74414 70.0517 3.89751 70.5326 4.45761 70.8225C5.17551 71.194 6.04429 70.9364 6.35187 70.2609C6.44297 70.0608 6.51758 69.3068 6.51758 68.5854V67.2736H10.1924H13.8672V68.3121C13.8672 69.2618 13.9016 69.3892 14.2691 69.8007C14.6016 70.1731 14.7713 70.2508 15.2539 70.2508C15.7365 70.2508 15.9062 70.1731 16.2388 69.8007C16.6062 69.3892 16.6406 69.2618 16.6406 68.3121V67.2736H20.8008H24.9609V68.3121C24.9609 69.2618 24.9953 69.3892 25.3628 69.8007C25.6953 70.1731 25.8651 70.2508 26.3477 70.2508C26.8302 70.2508 27 70.1731 27.3325 69.8007C27.7 69.3892 27.7344 69.2618 27.7344 68.3121V67.2736H31.8945H36.0547V68.3121C36.0547 69.2618 36.0891 69.3892 36.4566 69.8007C36.7891 70.1731 36.9588 70.2508 37.4414 70.2508C37.924 70.2508 38.0937 70.1731 38.4263 69.8007C38.7937 69.3892 38.8281 69.2618 38.8281 68.3121V67.2736H42.9883H47.1484V68.3121C47.1484 69.2618 47.1828 69.3892 47.5503 69.8007C47.8828 70.1731 48.0526 70.2508 48.5352 70.2508C49.0177 70.2508 49.1875 70.1731 49.52 69.8007C49.8875 69.3892 49.9219 69.2618 49.9219 68.3121V67.2736H54.082H58.2422V68.3121C58.2422 69.2618 58.2766 69.3892 58.6441 69.8007C58.9766 70.1731 59.1463 70.2508 59.6289 70.2508C60.1115 70.2508 60.2812 70.1731 60.6138 69.8007C60.9812 69.3892 61.0156 69.2618 61.0156 68.3121V67.2736H64.0584H67.101L66.4851 68.2733C65.8275 69.3405 65.7535 69.7002 66.0667 70.3063C66.3965 70.9444 67.1722 71.1789 67.8821 70.8553C68.3532 70.6405 71 66.4219 71 65.886C71 65.3501 68.3532 61.1315 67.8821 60.9167C66.9097 60.4733 65.8691 61.1301 65.8691 62.1869C65.8691 62.3586 66.1463 62.9489 66.4851 63.4987L67.101 64.4983H58.5195H49.9381L49.8953 61.7107L49.8525 58.9232L49.4634 58.5885C48.9358 58.1347 48.1345 58.1347 47.6069 58.5885L47.2178 58.9232L47.1751 61.7107L47.1322 64.4983H37.4334H27.7344L27.7358 55.444L27.737 46.3896L32.832 44.2847L37.9268 42.1799L41.8789 41.9564C44.0526 41.8335 46.1274 41.6977 46.4897 41.6545L47.1484 41.5761V44.5833V47.5905L47.5538 47.9961C48.0839 48.5266 48.8927 48.5582 49.4591 48.0704C49.8119 47.7668 49.8502 47.6371 49.9176 46.5145L49.9912 45.2899L53.5273 51.2387C55.4722 54.5106 57.085 57.2422 57.1112 57.309C57.1374 57.3756 56.6275 57.4177 55.9781 57.4026C54.6061 57.3706 54.1975 57.5525 53.9489 58.3065C53.8231 58.6879 53.8323 58.8842 53.9941 59.2716C54.3199 60.0518 54.5577 60.113 57.4899 60.1719C60.1066 60.2247 60.1389 60.2218 60.5012 59.8987C60.9764 59.4751 63.0957 55.3611 63.0957 54.8623C63.0957 54.3616 62.2884 53.536 61.7987 53.536C61.1027 53.536 60.7284 53.8444 60.1542 54.8915C59.8455 55.4542 59.5464 55.8633 59.4894 55.8007C59.4324 55.738 57.2193 52.0338 54.5715 47.5691C51.9237 43.1043 49.6038 39.3109 49.4159 39.1392C48.9766 38.7374 48.5736 38.7387 42.0869 39.1601L37.0947 39.4845L31.7272 41.7206L26.3597 43.9565L22.8522 42.4254C20.9231 41.5831 18.6704 40.6053 17.8462 40.2526C16.8552 39.8283 16.2644 39.4901 16.1015 39.2536C15.9661 39.0571 13.7543 35.1142 11.1865 30.4915L6.51758 22.0868V12.9807V3.87456L7.51657 4.49082C8.5831 5.14884 8.94253 5.22294 9.54825 4.90947C10.1825 4.58129 10.4202 3.8031 10.1007 3.10137C9.96441 2.80219 7.01181 0.795244 5.72937 0.130008C5.14487 -0.173192 4.73745 -0.0161108 2.53894 1.35932ZM13.8425 40.9671C14.2734 41.7596 14.0556 41.647 20.8354 44.585L24.9609 46.3727V55.4355V64.4983H15.7393H6.51758V46.1477V27.7973L9.99436 34.0405C11.9066 37.4744 13.6384 40.5913 13.8425 40.9671ZM47.633 52.322C47.3886 52.5323 47.2444 52.8249 47.1918 53.2172C47.1226 53.734 47.1618 53.8482 47.5364 54.2231C48.0861 54.7732 48.8843 54.8097 49.4634 54.3112C49.7865 54.0331 49.8525 53.8662 49.8525 53.3278C49.8525 52.7894 49.7865 52.6225 49.4634 52.3444C48.9477 51.9005 48.1341 51.8906 47.633 52.322Z" fill="#E49B00"/>
</svg>
