<svg width="74" height="71" viewBox="0 0 74 71" fill="none" xmlns="http://www.w3.org/2000/svg">
<path fill-rule="evenodd" clip-rule="evenodd" d="M6.71713 0.117403C6.11525 0.381279 2.32049 3.61408 2.13412 4.02178C1.90945 4.51322 2.11461 5.32661 2.54921 5.66744C3.21948 6.19289 3.899 6.06837 4.90237 5.2361L5.77736 4.51019V33.1945V61.8787H3.45687C0.921541 61.8787 0.478841 61.9848 0.166984 62.6674C-0.126944 63.3104 -0.0401971 63.7468 0.485781 64.2711L0.977349 64.7611H3.37736H5.77736V67.2737C5.77736 68.6556 5.83953 69.9494 5.91544 70.1485C6.10643 70.6491 6.72465 71.017 7.34518 70.9994C7.73438 70.9884 7.9673 70.8716 8.26745 70.5368L8.66894 70.0887V67.4249V64.7611H39.0426H69.4163L68.9343 65.348C68.6691 65.671 68.3388 66.1087 68.2 66.3208C67.383 67.5705 68.8204 69.0528 70.0927 68.2727C70.586 67.9702 73.7248 64.263 73.9168 63.756C74.1601 63.1135 73.9322 62.6793 72.39 60.8453C70.1593 58.1924 70.0941 58.1317 69.4739 58.1317C68.7884 58.1317 68.437 58.3243 68.1646 58.8494C67.7532 59.6424 67.8179 59.8228 69.1081 61.4824L69.4162 61.8787H62.392H55.3679V42.6765V23.4742L58.581 20.2691L61.7941 17.064L63.7613 19.0069C65.8689 21.0885 66.0524 21.1883 66.9371 20.7323C67.1693 20.6125 67.4263 20.3899 67.5082 20.2372C67.6052 20.0565 67.6571 17.1428 67.6571 11.869V3.77794L67.2345 3.35669L66.8119 2.93544H58.6932H50.5745L50.1519 3.35669C49.8175 3.69003 49.7293 3.90563 49.7293 4.39C49.7293 4.98332 49.7902 5.06316 51.7134 6.99792L53.6973 8.99378L50.5255 12.1578L47.3537 15.3219L39.9506 15.3617L32.5476 15.4014L32.1767 15.7488C31.4904 16.3917 31.5965 17.6497 32.3719 18.0633C32.5496 18.1581 34.7802 18.2117 38.5506 18.2117H44.4513L35.922 26.7145L27.3928 35.2174H18.0309H8.66894V26.7145V18.2117H14.7508C18.6456 18.2117 20.9325 18.1584 21.1107 18.0633C21.4614 17.8762 21.8256 17.1857 21.8256 16.7079C21.8256 16.5071 21.6358 16.131 21.4039 15.8721L20.9821 15.4014L14.8255 15.361L8.66894 15.3205V9.90805V4.49578L9.54899 5.22875C10.2842 5.8411 10.5242 5.96187 11.0059 5.96187C12.0609 5.96187 12.7647 4.84079 12.2785 3.93517C12.1576 3.71006 8.93164 0.873578 8.09063 0.252872C7.71371 -0.0252717 7.16576 -0.079315 6.71713 0.117403ZM64.7655 10.8945V15.9711L63.6374 14.8532C62.383 13.6102 61.8353 13.3841 61.065 13.7917C60.834 13.9139 49.8451 24.7835 36.6451 37.9463L12.6451 61.8787H10.657H8.66894V59.9702V58.0617L32.8696 33.9213C51.7543 15.0837 57.0865 9.68755 57.1443 9.35594C57.2617 8.68177 57.0225 8.27536 55.7611 7.00671L54.5791 5.81775H59.6723H64.7655V10.8945ZM26.4521 15.4859C25.5135 15.8612 25.2808 17.0663 26.0073 17.7905C27.0464 18.8262 28.7864 17.7835 28.3282 16.3997C28.0703 15.6208 27.1888 15.1915 26.4521 15.4859ZM52.4763 44.1525V61.8787H43.9462H35.416V52.6198V43.3608L43.9096 34.8935C48.5811 30.2366 52.4196 26.4263 52.4397 26.4263C52.4598 26.4263 52.4763 34.4031 52.4763 44.1525ZM24.428 38.1361C24.428 38.1563 20.8822 41.7067 16.5485 46.026L8.66894 53.8793V45.9896V38.0997H16.5485C20.8822 38.0997 24.428 38.1161 24.428 38.1361ZM32.5244 54.0965V61.8787H24.6815H16.8387L24.6449 54.0965C28.9383 49.8163 32.4676 46.3143 32.4879 46.3143C32.508 46.3143 32.5244 49.8163 32.5244 54.0965Z" fill="#E49B00"/>
</svg>
