<svg width="71" height="71" viewBox="0 0 71 71" fill="none" xmlns="http://www.w3.org/2000/svg">
<path fill-rule="evenodd" clip-rule="evenodd" d="M17.4203 0.131067C17.2676 0.193618 17.0178 0.383353 16.8651 0.552977C16.59 0.858522 16.5875 1.05658 16.5875 22.1332V43.4053L16.9724 43.7897L17.3572 44.1743L39.0775 44.2103L60.7977 44.2463V45.7012V47.1563H31.7869H2.77615V30.8596V14.563H6.0359H9.29566L9.71916 14.1816C9.99025 13.9373 10.1721 13.6144 10.2247 13.2838C10.2977 12.8247 10.2518 12.7122 9.8116 12.2724L9.31634 11.7776L5.063 11.8179L0.809664 11.8584L0.404901 12.3114L0 12.7644V34.8818V56.9992L0.40504 57.4521L0.809941 57.9051L12.8283 57.942L24.8465 57.979V60.3269V62.6748L21.8651 62.7171L18.8835 62.7594L18.499 63.1441L18.1144 63.5285V66.8509V70.1734L18.4993 70.5578L18.8841 70.9424L31.6166 70.9839C43.2095 71.0218 44.3878 71.0051 44.7837 70.7975C45.0229 70.6721 45.2884 70.4165 45.3736 70.2294C45.5816 69.7735 45.5855 63.9368 45.3782 63.4823C45.0518 62.7665 44.686 62.6901 41.5862 62.6901H38.7273V60.3323V57.9745H50.6625H62.5977L63.0511 57.5699L63.5044 57.1652L63.5431 50.7045L63.5819 44.2437H66.8376H70.0933L70.5467 43.839L71 43.4343V22.1218V0.809424L70.5467 0.404712L70.0933 0L43.8956 0.00873778C29.4869 0.0135921 17.573 0.068654 17.4203 0.131067ZM68.2933 6.37997V9.98603H43.7937H19.2942V6.37997V2.7739H43.7937H68.2933V6.37997ZM25.3324 5.11895C24.4477 5.49731 24.2138 6.64307 24.8844 7.31297C25.7273 8.15526 27.1306 7.57233 27.1306 6.37997C27.1306 5.46666 26.1412 4.77277 25.3324 5.11895ZM30.3294 5.14697C28.9643 5.93143 29.629 7.9941 31.1546 7.70811C32.6517 7.42753 32.5953 5.2693 31.0854 5.05529C30.8223 5.01798 30.4821 5.05931 30.3294 5.14697ZM35.3647 5.20924C34.8861 5.46874 34.7019 5.81256 34.7019 6.44654C34.7019 7.34917 35.6662 7.97593 36.5145 7.62475C37.0591 7.39951 37.3392 6.98662 37.3392 6.40937C37.3392 5.80008 37.1436 5.45862 36.6479 5.20245C36.147 4.94364 35.8516 4.94517 35.3647 5.20924ZM41.1409 5.12894C40.7039 5.30536 40.2542 5.94821 40.2542 6.39647C40.2542 6.63711 40.4125 6.96873 40.6592 7.24459L41.0641 7.69757L52.0066 7.73474C63.4894 7.77371 63.4979 7.77329 63.9264 7.16221C64.1617 6.82642 64.1925 6.06402 63.9861 5.67886C63.6118 4.98012 63.8242 4.99232 52.2332 5.00175C46.2937 5.00661 41.3022 5.06389 41.1409 5.12894ZM68.2933 27.1149V41.4698H43.7937H19.2942V27.1149V12.7599H43.7937H68.2933V27.1149ZM42.4057 15.4861C38.9129 15.9005 35.4524 17.4908 31.983 20.2759C29.726 22.0877 26.386 25.7705 26.1509 26.7063C26.0188 27.2322 26.1776 27.6352 26.8927 28.5904C27.7526 29.739 30.4591 32.5259 31.8009 33.6447C34.4405 35.8457 37.3203 37.4197 40.1153 38.1892C45.0312 39.5426 50.2784 38.0675 55.587 33.8396C57.7965 32.0799 61.2008 28.3233 61.4366 27.3848C61.5687 26.8587 61.4099 26.4556 60.6948 25.5011C59.8124 24.3235 57.246 21.6802 55.87 20.5317C51.4412 16.8351 46.5344 14.9962 42.4057 15.4861ZM45.8049 18.385C49.4753 19.0807 53.2547 21.4353 56.7656 25.2136C58.7043 27.3 58.6971 26.8839 56.8279 28.8333C52.5876 33.2557 48.4123 35.6352 44.4592 35.8822C40.4961 36.1297 36.2701 34.1693 32.0155 30.1093C30.8261 28.9741 29.2884 27.2126 29.2884 26.9852C29.2884 26.8767 29.9599 26.0874 30.7805 25.2311C34.4163 21.4377 37.9773 19.1815 41.5034 18.4375C42.9859 18.1247 44.3441 18.1081 45.8049 18.385ZM8.20491 20.3044C7.53933 20.6729 7.50573 20.8933 7.50046 24.9373C7.49532 28.9567 7.55029 29.3388 8.182 29.6765C8.52486 29.8599 9.24249 29.8599 9.58535 29.6765C10.2151 29.3399 10.2717 28.952 10.2717 24.9785C10.2717 22.3702 10.2214 21.123 10.1059 20.8697C9.80203 20.2031 8.88173 19.9295 8.20491 20.3044ZM42.0968 20.3242C40.3298 20.7998 38.6561 22.0707 37.7871 23.5966C35.5068 27.6013 37.6536 32.6019 42.1562 33.7737C44.387 34.3543 46.9744 33.6393 48.6302 31.985C50.0231 30.5932 50.7105 28.9609 50.7105 27.0455C50.7105 25.1131 50.0172 23.4823 48.6054 22.094C46.9158 20.4325 44.3184 19.7263 42.0968 20.3242ZM45.5427 23.2713C47.5933 24.2713 48.5049 26.7158 47.5799 28.7345C46.0795 32.0091 41.5079 32.0088 40.0074 28.734C39.021 26.5813 40.1426 23.9586 42.4183 23.0958C43.2108 22.7953 44.743 22.8815 45.5427 23.2713ZM43.1379 25.8748C42.6593 26.1343 42.4751 26.4781 42.4751 27.1121C42.4751 28.0147 43.4394 28.6415 44.2878 28.2903C44.8323 28.0651 45.1124 27.6522 45.1124 27.0749C45.1124 26.4656 44.9168 26.1242 44.4212 25.868C43.9202 25.6092 43.6248 25.6107 43.1379 25.8748ZM8.47017 32.3333C7.38108 32.7633 7.1937 33.9703 8.10177 34.7053C8.78235 35.2561 9.98844 34.8119 10.2103 33.9287C10.4544 32.9568 9.38158 31.9733 8.47017 32.3333ZM8.39785 37.4349C7.87954 37.6566 7.57125 38.1362 7.57125 38.7211C7.57125 39.1752 7.65509 39.3538 8.02154 39.6809C8.30388 39.933 8.62522 40.0828 8.88368 40.0828C9.14213 40.0828 9.46347 39.933 9.74581 39.6809C10.115 39.3514 10.1961 39.1766 10.1961 38.71C10.1961 37.7824 9.21362 37.0858 8.39785 37.4349ZM60.7977 52.5654V55.2006H31.7869H2.77615V52.5654V49.9302H31.7869H60.7977V52.5654ZM35.9511 60.3323V62.6901H31.7869H27.6227V60.3323V57.9745H31.7869H35.9511V60.3323ZM42.7527 66.8509V68.2379H31.7869H20.8211V66.8509V65.464H31.7869H42.7527V66.8509Z" fill="#E49B00"/>
</svg>
