<svg width="81" height="71" viewBox="0 0 81 71" fill="none" xmlns="http://www.w3.org/2000/svg">
<path fill-rule="evenodd" clip-rule="evenodd" d="M39.6578 0.211159C39.443 0.332497 36.4124 3.97498 32.9229 8.30552C26.9591 15.7062 26.5781 16.2224 26.5781 16.9021C26.5781 17.4589 26.6996 17.7469 27.1066 18.156L27.6351 18.6869H30.2707H32.9062V24.1533V29.6195L32.4994 29.725C31.5678 29.9668 28.1278 31.8462 26.781 32.8496C24.3611 34.6521 22.9584 36.1846 20.5664 39.6394C20.3411 39.9649 20.2731 39.9655 18.4385 39.657C7.85736 37.8784 -0.971096 48.3633 2.46038 58.6334L2.91058 59.9807L2.38281 60.7223C0.834409 62.8978 0 65.5258 0 68.2276C0 69.876 0.0191653 69.9574 0.528489 70.4691L1.05698 71H17.0619H33.0668L33.5351 70.5913C34.1529 70.052 34.3295 68.9981 33.9097 68.3546C33.2519 67.3461 33.592 67.3671 17.9798 67.3671H3.58425L3.71099 66.5952C3.98545 64.9235 4.80287 63.3568 6.27027 61.6903C7.02838 60.8295 7.04573 60.1806 6.35217 58.628C5.61974 56.9879 5.36173 55.717 5.37927 53.8348C5.42338 49.0977 8.55002 44.9848 13.1987 43.5487C15.1528 42.9449 17.643 42.98 19.5758 43.6383C21.842 44.4103 22.1721 44.294 23.243 42.347C25.7079 37.8657 29.4204 34.7211 34.325 32.96C36.676 32.116 36.5382 32.7121 36.48 23.6407L36.4319 16.1519L35.9331 15.6508C35.4825 15.1983 35.2782 15.1407 33.8238 15.0566L32.2136 14.9633L36.2838 9.91342C38.5225 7.13592 40.44 4.89227 40.5448 4.92733C40.6497 4.96257 42.5454 7.23491 44.7576 9.97717L48.7797 14.9633L47.1727 15.0566C45.7221 15.1407 45.5173 15.1985 45.0669 15.6508L44.5681 16.1519L44.52 23.6407C44.4618 32.7121 44.324 32.116 46.6752 32.9602C49.6928 34.0435 51.7351 35.2787 53.8581 37.3037C55.4635 38.8349 56.4284 40.071 57.5905 42.085C58.8895 44.3365 59.111 44.4262 61.4242 43.6383C63.357 42.98 65.8472 42.9449 67.8013 43.5487C72.45 44.9848 75.5766 49.0977 75.6207 53.8348C75.6383 55.717 75.3803 56.9879 74.6478 58.628C73.9543 60.1806 73.9716 60.8295 74.7297 61.6903C76.1971 63.3568 77.0145 64.9235 77.289 66.5952L77.4157 67.3671H63.0202C47.5343 67.3671 47.781 67.3528 47.123 68.2966C46.6511 68.9734 46.746 69.8557 47.3566 70.4691L47.8851 71H63.9141H79.943L80.4715 70.4691C80.9808 69.9574 81 69.876 81 68.2276C81 65.5258 80.1656 62.8978 78.6172 60.7223L78.0894 59.9807L78.5396 58.6334C80.6639 52.2756 78.1191 45.2324 72.4042 41.654C70.6342 40.5458 68.494 39.814 66.2499 39.5497C64.7071 39.368 64.1916 39.3829 62.5615 39.657C60.7269 39.9655 60.6589 39.9649 60.4336 39.6394C58.0768 36.2356 56.6074 34.6304 54.206 32.8367C52.8413 31.8173 49.4693 29.9809 48.4901 29.7235L48.0938 29.6195V24.1533V18.6869H50.7293H53.3649L53.8934 18.156C54.3004 17.7469 54.4219 17.4589 54.4219 16.9021C54.4219 16.2224 54.0409 15.7062 48.0771 8.30552C44.5876 3.97498 41.557 0.332497 41.3422 0.211159C40.8441 -0.0703865 40.1559 -0.0703865 39.6578 0.211159ZM28.2958 46.1947C27.1003 46.5867 25.9222 47.1503 24.8247 47.8557C22.7556 49.1855 20.3807 51.8532 19.5143 53.821C19.195 54.5459 19.172 54.7584 19.353 55.3092C19.5698 55.9696 20.4178 56.6482 21.0275 56.6495C21.748 56.6511 22.4068 56.0893 22.996 54.9711C24.1854 52.714 26.8822 50.4873 29.4234 49.6637C30.4978 49.3157 31.0982 48.6825 31.0982 47.8978C31.0982 47.1618 30.6713 46.4078 30.1089 46.1504C29.5263 45.8837 29.2217 45.8912 28.2958 46.1947ZM52.4529 50.183C51.5818 50.668 51.2562 52.0004 51.8136 52.7998C51.9702 53.0243 52.6455 53.4849 53.3143 53.8233C55.7869 55.0743 57.7167 57.1623 58.8279 59.789C59.2349 60.751 59.4553 61.0405 59.9662 61.2841C60.7012 61.6345 61.3685 61.529 61.9677 60.9672C62.6338 60.3425 62.6595 59.5845 62.0628 58.1577C60.6883 54.8711 57.9584 51.9973 54.7723 50.4829C53.4918 49.8744 53.0984 49.8236 52.4529 50.183ZM39.1979 68.1024C38.7093 68.5932 38.6583 68.7427 38.7486 69.4192C38.8814 70.4138 39.5307 71 40.5 71C41.4693 71 42.1186 70.4138 42.2514 69.4192C42.3417 68.7427 42.2907 68.5932 41.8021 68.1024C41.3648 67.663 41.0961 67.5488 40.5 67.5488C39.9039 67.5488 39.6352 67.663 39.1979 68.1024Z" fill="#E49B00"/>
</svg>
