<svg width="77" height="71" viewBox="0 0 77 71" fill="none" xmlns="http://www.w3.org/2000/svg">
<path fill-rule="evenodd" clip-rule="evenodd" d="M58.3593 0.123523C56.1308 0.22316 55.6156 0.437334 55.0845 1.48473C54.4352 2.76541 54.6399 3.47701 56.2261 5.44988L57.2945 6.77903L56.1412 7.69533C44.3709 17.0452 26.2914 25.5443 5.01998 31.7269C2.66307 32.4121 2.18292 32.6146 1.41249 33.2495C0.0417585 34.3789 -0.422579 36.831 0.426749 38.4554C1.21149 39.9565 2.74844 40.9203 4.35736 40.9203C5.48417 40.9203 12.5326 39.0074 18.2342 37.154C24.2517 35.198 29.3406 33.2998 34.5703 31.0606C38.4999 29.3781 43.3109 27.0425 43.6622 26.647C44.1011 26.1528 44.0437 25.1869 43.5458 24.6893C42.8632 24.007 42.2672 24.1399 39.0779 25.6858C30.1141 30.0305 18.9025 34.1214 7.87346 37.0718C6.14996 37.533 4.53547 37.9101 4.28599 37.9101C3.70135 37.9101 2.952 37.19 2.952 36.628C2.952 36.0756 3.38246 35.395 3.84649 35.2136C4.05834 35.1307 5.85787 34.588 7.84531 34.0076C26.4336 28.5786 43.9641 20.4704 55.4986 11.9672C59.7053 8.86598 60.3059 8.22196 60.3133 6.80221C60.318 5.91842 60.1194 5.48676 59.1645 4.30541C58.7054 3.73739 58.3756 3.22672 58.4316 3.17073C58.5603 3.04204 69.3504 2.9254 69.3504 3.05273C69.3504 3.19074 67.0885 13.413 67.0003 13.6735C66.9462 13.8337 66.814 13.7506 66.5218 13.3725C65.1187 11.5574 64.3001 10.969 63.1773 10.969C62.2612 10.969 61.7507 11.2467 60.0155 12.6891C58.1964 14.2012 55.634 16.1377 53.9773 17.2522C52.7361 18.0874 52.0356 18.8075 52.0356 19.2488C52.0356 20.1498 52.9423 20.9842 53.7557 20.8317C54.4671 20.6982 58.2949 17.9963 61.4692 15.3868L63.1591 13.9974L64.3142 15.433C65.5255 16.9385 66.2311 17.4308 67.1865 17.4376C68.1093 17.4441 69.0324 16.8554 69.49 15.9688C69.5874 15.7799 70.2773 12.9014 71.023 9.57217C72.561 2.70596 72.6073 2.21966 71.8165 1.22585C71.5685 0.914146 71.0672 0.506869 70.7025 0.320539C70.0513 -0.0120859 69.9524 -0.0176547 65.1404 0.010641C62.4459 0.0264444 59.3944 0.0773164 58.3593 0.123523ZM47.276 21.5C46.8254 21.6844 46.3142 22.3827 46.3142 22.8142C46.3142 24.4188 48.4217 24.9436 49.1028 23.5087C49.3958 22.8913 49.2931 22.2673 48.8283 21.8409C48.4325 21.4777 47.7154 21.3201 47.276 21.5ZM63.102 23.0644C62.7708 23.172 62.2925 23.3683 62.0391 23.5003C61.445 23.81 60.3621 24.8935 60.0563 25.4841C59.4259 26.7023 59.4169 26.9075 59.4151 40.104L59.4132 52.758L59.0183 53.123C57.977 54.0852 56.819 56.0484 56.3174 57.7021C55.93 58.9793 55.9276 61.8573 56.3127 63.1956C56.7822 64.8264 57.8658 66.7291 58.9676 67.8571C61.2135 70.1564 63.8487 71.1619 67.1487 70.9789C72.4567 70.6845 76.6276 66.5192 76.9807 61.16C77.1532 58.5401 76.1583 55.5758 74.4711 53.6836L73.7168 52.8375V39.8859C73.7168 27.232 73.7097 26.9155 73.4107 26.1163C72.9801 24.9658 72.0956 24.0231 70.8898 23.4292L69.8854 22.9345L66.7948 22.9015C64.5866 22.8779 63.5324 22.9244 63.102 23.0644ZM69.5778 26.0862C69.8632 26.2054 70.2333 26.527 70.4005 26.8011C70.6984 27.2895 70.7044 27.5294 70.7049 39.0927C70.7055 50.2669 70.6916 50.8802 70.442 50.7743C68.5616 49.9758 65.7292 49.8055 63.7403 50.3711C63.0975 50.5538 62.5386 50.7034 62.4981 50.7034C62.4576 50.7034 62.4248 45.4714 62.4251 39.0766C62.4256 27.7403 62.4331 27.4376 62.7249 26.9593C63.3216 25.981 63.7072 25.8706 66.5322 25.87C68.3918 25.8696 69.196 25.9266 69.5778 26.0862ZM43.8628 34.1546C42.1516 34.5771 40.6522 36.0169 40.1684 37.7018C40.0373 38.1588 39.9906 42.0824 39.9906 52.6514V66.9815L40.4307 67.4215L40.8708 67.8614H47.0973C53.88 67.8614 53.7634 67.8757 54.1258 67.0013C54.2546 66.6903 54.2894 62.8334 54.2595 52.2077L54.2188 37.8349L53.8201 36.9848C53.3124 35.9024 52.388 34.9782 51.3051 34.4707C50.4826 34.0853 50.3558 34.0713 47.4435 34.0431C45.7873 34.0272 44.1759 34.0773 43.8628 34.1546ZM50.0482 37.2186C50.2718 37.3349 50.6241 37.6112 50.8311 37.8326L51.2075 38.2354L51.2476 51.5432L51.2876 64.8512H47.1447H43.0018V51.6618C43.0018 38.7215 43.0076 38.4633 43.3039 37.9839C43.8331 37.1281 44.2779 37.0143 47.1122 37.0106C48.9967 37.008 49.7453 37.061 50.0482 37.2186ZM24.8296 42.2672C23.7595 42.4359 22.7955 42.9316 22.0102 43.7166C21.1653 44.5611 20.7311 45.4679 20.5516 46.7619C20.4697 47.3526 20.4265 51.8942 20.4506 57.3884L20.4926 66.9832L20.9844 67.4224L21.4761 67.8614H27.7014H33.9269L34.3202 67.4683C34.5366 67.252 34.7526 66.8626 34.8004 66.6029C34.8481 66.3431 34.8668 61.6266 34.8416 56.1217L34.7961 46.1129L34.3735 45.2098C33.8327 44.0545 32.722 42.9987 31.5873 42.5618C30.8493 42.2775 30.3774 42.2258 28.1714 42.1878C26.7636 42.1637 25.2598 42.1993 24.8296 42.2672ZM30.7892 45.5108C31.0697 45.6764 31.4253 46.0479 31.5797 46.3362C31.8443 46.8311 31.8602 47.369 31.8602 55.8559V64.8512H27.6388H23.4175L23.4607 55.7831C23.5013 47.2405 23.5202 46.688 23.7848 46.251C24.3695 45.286 24.9214 45.1441 27.9455 45.1812C29.9769 45.2061 30.3453 45.2488 30.7892 45.5108ZM5.30831 48.2929C3.58647 48.6047 2.22854 49.6631 1.46669 51.2874L1.06996 52.1332L1.02328 59.1319C0.997535 62.9812 1.01891 66.358 1.07086 66.6361C1.12265 66.9141 1.33992 67.3035 1.55356 67.5016L1.94202 67.8614H8.16601H14.39L14.8817 67.4221L15.3735 66.9829V59.7085C15.3735 51.7252 15.3902 51.8905 14.4403 50.4487C13.9132 49.6488 12.8098 48.8034 11.8352 48.4528C11.192 48.2215 6.35699 48.1031 5.30831 48.2929ZM10.706 51.3011C11.0874 51.3891 11.4877 51.6354 11.7976 51.9725L12.2869 52.5051V58.6781V64.8512H8.14643H4.00594V58.8912C4.00594 51.8611 3.99917 51.8956 5.47258 51.37C6.13506 51.1337 9.77297 51.0858 10.706 51.3011ZM67.6942 53.1212C69.8943 53.4762 72.1377 55.0903 73.1115 57.0189C74.6582 60.0818 74.1544 63.3457 71.7608 65.7709C70.2518 67.2996 68.5765 68.0119 66.4897 68.0119C64.525 68.0119 62.8875 67.3619 61.4212 65.9996C58.4302 63.2214 58.1563 58.7887 60.782 55.6539C61.5577 54.7277 62.9169 53.8227 64.1159 53.4338C65.6514 52.9359 66.2315 52.8852 67.6942 53.1212ZM69.6455 56.3956C68.6884 56.8178 67.2954 58.4444 66.316 60.2831C65.9697 60.933 65.6693 61.4877 65.6484 61.5155C65.6274 61.5435 64.9781 61.3456 64.2055 61.0756C62.8199 60.5915 62.7935 60.5884 62.2572 60.8439C61.2911 61.3042 61.0696 62.4241 61.8019 63.1464C62.4052 63.7415 65.6832 64.9233 66.3703 64.7934C67.3868 64.6015 67.7349 64.2343 68.6428 62.3963C69.3093 61.047 69.744 60.3929 70.557 59.5164C71.4515 58.552 71.6089 58.3018 71.6089 57.8441C71.6089 57.1486 71.404 56.7813 70.8591 56.4995C70.3938 56.259 70.0265 56.2277 69.6455 56.3956Z" fill="#E49B00"/>
</svg>
