<svg width="65" height="71" viewBox="0 0 65 71" fill="none" xmlns="http://www.w3.org/2000/svg">
<path fill-rule="evenodd" clip-rule="evenodd" d="M19.0698 0.230785C17.7054 0.704463 16.8303 1.50646 16.2067 2.85453L15.9031 3.51102L15.8655 18.7729L15.8278 34.0349L14.6472 34.1957C11.8026 34.5829 9.51463 36.5666 8.69392 39.3569C8.22697 40.9447 8.45767 43.2433 9.23782 44.7758C9.74033 45.7633 10.2096 46.2734 13.0726 48.9454L15.7642 51.4574L15.8336 59.4557L15.9031 67.4541L16.2709 68.2375C16.7392 69.2351 17.592 70.0868 18.5909 70.5545L19.3754 70.9218L27.1114 70.9609L34.8475 71L35.306 70.591L35.7646 70.1819L35.834 64.1714C35.9142 57.232 35.7796 57.8595 37.4539 56.6228C38.013 56.21 38.5021 55.8722 38.541 55.8722C38.5801 55.8722 38.6119 57.8446 38.6119 60.2553V64.6384L39.0841 65.11C39.6037 65.6289 40.0513 65.706 40.6751 65.384C40.8857 65.2752 41.1325 65.0226 41.2237 64.8226C41.3479 64.5505 41.3897 61.723 41.3897 53.5976V42.7363L41.704 42.265C42.3438 41.306 43.5234 41.0793 44.3787 41.7512C45.1366 42.3467 45.1398 42.3811 45.1398 49.897C45.1398 57.341 45.1441 57.3883 45.8544 57.7552C46.4781 58.0772 46.9258 58.0001 47.4454 57.4812C47.89 57.0372 47.9178 56.9539 47.9197 56.0595C47.9221 54.9457 48.0926 54.5436 48.7531 54.096C49.4054 53.6537 50.1568 53.7448 50.752 54.3383L51.1816 54.7669L51.251 56.9038C51.3167 58.9235 51.3388 59.0604 51.6552 59.3963C52.093 59.8613 52.7594 59.9836 53.3087 59.7C53.8708 59.4097 53.9351 59.284 54.0411 58.2685C54.1526 57.1997 54.4279 56.7625 55.1194 56.5555C55.5629 56.4229 55.7374 56.4339 56.1282 56.6192C56.8742 56.9726 56.9917 57.2839 57.0771 59.1318C57.1193 60.0473 57.2047 60.8748 57.2668 60.9706C57.329 61.0666 57.571 61.2438 57.8046 61.3644C58.6956 61.8245 59.6348 61.2597 59.8113 60.1577C59.8577 59.8675 60.0198 59.518 60.1713 59.3809C60.5501 59.0386 61.5451 59.0472 61.9311 59.3961C62.218 59.6554 62.2235 59.7534 62.2237 64.6669C62.2239 69.1555 62.249 69.7236 62.4668 70.1588C62.9207 71.066 64.1215 71.2383 64.7175 70.4818C64.9924 70.1328 65.0013 69.9508 64.9999 64.696C64.9986 59.3042 64.9966 59.2662 64.6745 58.577C64.3072 57.7912 63.4535 56.9568 62.6779 56.626C62.1128 56.3848 60.5819 56.2924 59.9734 56.4627C59.6406 56.5558 59.5731 56.5145 59.3742 56.0958C58.6971 54.6709 57.2703 53.7498 55.7135 53.7324C55.2071 53.7269 54.6208 53.7703 54.4108 53.829L54.0288 53.9356V49.4159C54.0288 46.5814 53.9755 44.7968 53.8858 44.6295C53.4873 43.8856 52.2749 43.7838 51.6552 44.4421C51.3239 44.7939 51.32 44.8313 51.2787 48.0414L51.2368 51.2853L50.7925 51.1861C50.1953 51.0528 48.9237 51.0606 48.3743 51.2008L47.928 51.3147L47.8882 43.0865L47.8482 34.8584L47.4359 34.1151C46.9244 33.1928 46.1408 32.509 45.2613 32.2172C44.7121 32.0351 44.0838 32.0023 41.8432 32.0392C39.3262 32.0806 39.0504 32.1098 38.5247 32.3906C37.7609 32.7986 36.8782 33.8224 36.6084 34.6135C36.2959 35.5293 36.2975 39.6018 36.6107 40.5198C36.8471 41.2126 37.8916 42.4857 38.3403 42.6278C38.603 42.7111 38.6119 42.8728 38.6119 47.5444V52.3749L36.7511 53.7096C33.7443 55.8661 33.1764 56.7103 33.0804 59.1665L33.0247 60.5882L26.4779 60.5877C20.1562 60.5873 19.9151 60.5775 19.4712 60.3072C18.7168 59.848 18.6115 59.3901 18.6115 56.5702C18.6115 55.1945 18.6272 54.0699 18.6462 54.0709C18.6652 54.0719 19.0772 54.1967 19.5614 54.3483C21.2668 54.8822 22.5929 54.6307 24.1505 53.4782C25.0887 52.784 30.1863 48.1699 31.818 46.5381C33.219 45.137 33.9837 43.0304 33.8437 40.9577C33.588 37.1715 30.5807 34.2427 26.945 34.2388C24.9123 34.2366 23.4409 34.8186 22.01 36.1907L21.1642 37.0018L20.478 36.304C20.1008 35.9201 19.5265 35.4378 19.202 35.2322L18.612 34.8584L18.6118 22.8213C18.6115 9.56246 18.5772 10.0926 19.4712 9.54831C19.9248 9.27201 20.1305 9.26826 35.0375 9.26785L50.1439 9.26729L50.6628 9.74208L51.1816 10.2167L51.251 22.0758L51.3205 33.9346L51.6552 34.2904C52.2748 34.9488 53.4872 34.8472 53.8858 34.1032C53.9813 33.9249 54.0288 28.8422 54.0288 18.7829C54.0288 3.93782 54.025 3.71894 53.7436 2.96813C53.3665 1.96155 52.4096 0.918069 51.418 0.431769L50.626 0.0433938L35.209 0.011769C20.65 -0.0181913 19.7519 -0.00598526 19.0698 0.230785ZM50.2107 2.94788C51.0131 3.28258 51.2499 3.84752 51.2505 5.42752C51.251 6.781 51.2491 6.78863 50.9385 6.67586C50.542 6.53203 19.5079 6.52551 18.9934 6.6692L18.6115 6.77587L18.612 5.49021C18.6126 4.03089 18.8265 3.50617 19.6172 3.02486C20.0614 2.75439 20.3468 2.74912 34.901 2.7487C47.4954 2.74828 49.8043 2.77824 50.2107 2.94788ZM25.4104 13.3376C24.0634 13.7054 22.8736 14.8026 22.3667 16.1444C21.9472 17.2548 22.0161 18.7311 22.5347 19.7451C22.9663 20.5891 23.9535 21.5287 24.8372 21.9365C25.4829 22.2346 25.5416 22.2362 35.0731 22.2362H44.6594L45.5905 21.7785C46.9529 21.1087 47.7294 20.082 48.0505 18.5259C48.4585 16.549 47.3704 14.4925 45.4381 13.5877L44.6537 13.2204L35.3479 13.1927C28.2851 13.1717 25.8898 13.2067 25.4104 13.3376ZM33.6118 17.7283V19.5315H29.9242C25.8438 19.5315 25.6451 19.4953 25.1338 18.6578C24.7852 18.0869 24.7885 17.3641 25.1426 16.7841C25.6287 15.988 25.9188 15.9367 29.9659 15.9306L33.6118 15.9251V17.7283ZM44.2789 16.1191C45.4784 16.7385 45.6847 18.1258 44.715 19.0539L44.2887 19.4621L40.3391 19.5029L36.3896 19.5437V17.7344V15.9251H40.1466C43.0921 15.9251 43.9846 15.967 44.2789 16.1191ZM23.3339 26.0931C23.0095 26.2038 22.76 26.4226 22.5831 26.7525C22.2674 27.3409 22.3527 27.8575 22.847 28.3512C23.176 28.6798 23.2275 28.686 25.6298 28.686H28.0775L28.4835 28.2806C29.2418 27.5233 28.8865 26.3556 27.8068 26.0562C27.1064 25.8618 23.9358 25.8881 23.3339 26.0931ZM32.8138 26.0596C31.8724 26.3463 31.5822 27.6699 32.3126 28.3459C32.674 28.6803 32.7209 28.686 35.1475 28.686H37.6149L37.9745 28.2592C38.471 27.67 38.4549 27.0223 37.9291 26.4346L37.5241 25.982L35.3943 25.9521C34.2229 25.9358 33.0618 25.9842 32.8138 26.0596ZM42.4711 26.0047C42.2638 26.0395 41.9357 26.2562 41.7419 26.4862C41.2737 27.0417 41.2765 27.6982 41.7493 28.2592L42.1089 28.686H44.6028C47.0543 28.686 47.1026 28.6803 47.4322 28.3512C48.0803 27.704 48.0269 26.8031 47.3087 26.2671C46.9659 26.0114 46.7111 25.9792 44.8869 25.9613C43.7656 25.9503 42.6785 25.9699 42.4711 26.0047ZM2.97228 31.0995C2.08143 31.9892 2.34268 32.5538 4.69481 34.8237C6.02859 36.1109 6.12526 36.1761 6.69777 36.1761C7.43598 36.1761 7.87446 35.8889 8.03058 35.303C8.23627 34.5309 7.98863 34.1029 6.42429 32.5282C4.33564 30.4257 3.84883 30.2241 2.97228 31.0995ZM44.5085 34.8752C44.977 35.0548 45.1398 35.6872 45.1398 37.3279V38.9096L44.4106 38.713C43.0109 38.3356 41.4203 38.7146 40.1945 39.7175L39.6024 40.2022L39.3849 39.8922C39.2113 39.6446 39.1674 39.1674 39.1674 37.526C39.1674 35.5279 39.177 35.4604 39.5084 35.1296C39.8419 34.7964 39.8976 34.7891 42.0665 34.7891C43.286 34.7891 44.3849 34.8279 44.5085 34.8752ZM17.1585 37.2738C18.4638 37.8506 19.5376 39.3842 19.685 40.8828C19.7804 41.8518 20.0305 42.3546 20.5514 42.6235C21.0604 42.8864 21.1686 42.8857 21.7375 42.6162C22.2474 42.3746 22.4384 41.9934 22.5664 40.9614C22.7713 39.3118 24.0239 37.6786 25.4462 37.2068C26.4621 36.8698 27.9646 36.9859 28.7822 37.4644C31.112 38.8279 31.774 41.7146 30.2749 43.9745C29.8024 44.6871 22.7638 51.2165 22.0472 51.6071C21.8024 51.7405 21.3813 51.8498 21.1115 51.8498C20.8418 51.8498 20.4219 51.7405 20.1786 51.6071C19.6566 51.3208 12.9544 45.109 12.3779 44.3772C11.6886 43.5022 11.3516 42.6835 11.2819 41.7139C11.0405 38.3549 14.2007 35.9672 17.1585 37.2738ZM51.8428 38.1914C51.4002 38.5011 51.2157 39.291 51.4537 39.8594C51.6859 40.4147 52.0313 40.6147 52.7573 40.6147C53.2036 40.6147 53.3787 40.5327 53.6693 40.1879C53.8994 39.9149 54.0288 39.5939 54.0288 39.297C54.0288 39 53.8994 38.679 53.6693 38.4061C53.3731 38.0546 53.207 37.9793 52.728 37.9793C52.408 37.9793 52.0096 38.0747 51.8428 38.1914ZM0.40598 40.3266C0.105835 40.6263 0 40.8638 0 41.2373C0 42.4633 0.487232 42.6953 3.06256 42.6953H5.02788L5.50011 42.2237C6.0197 41.7048 6.09693 41.2577 5.77442 40.6348C5.45761 40.0228 5.03788 39.9211 2.83006 39.9211H0.811961L0.40598 40.3266ZM6.40096 46.274C6.02262 46.3336 3.20701 49.0063 2.75769 49.7325C2.37866 50.3448 2.49741 51.0127 3.07103 51.4947C3.54535 51.8934 4.00133 51.9427 4.55565 51.6555C5.14371 51.3506 8.00196 48.3551 8.07655 47.9654C8.16127 47.523 7.97502 46.7998 7.72251 46.5907C7.45195 46.3664 6.80236 46.2107 6.40096 46.274ZM26.0422 63.3623L32.9868 63.4317L33.0248 65.8243L33.0627 68.217L26.5664 68.2165C20.3289 68.216 20.0518 68.2049 19.6172 67.9403C18.7547 67.4152 18.6126 66.9866 18.612 64.9079C18.6115 63.1906 18.6293 63.064 18.8545 63.1741C18.9883 63.2394 22.2227 63.3242 26.0422 63.3623Z" fill="#E49B00"/>
</svg>
