<svg width="71" height="71" viewBox="0 0 71 71" fill="none" xmlns="http://www.w3.org/2000/svg">
<path fill-rule="evenodd" clip-rule="evenodd" d="M62.3608 0.13864C61.5427 0.3023 60.3977 0.782324 59.7297 1.24182C58.9305 1.79147 57.7679 3.08716 57.3703 3.8712C56.2889 6.00461 56.2928 8.70084 57.3803 10.666L57.7197 11.2795L56.1314 12.8869C55.2126 13.8168 54.5027 14.6545 54.4476 14.874C54.1818 15.933 55.0903 16.8411 56.1497 16.5754C56.3694 16.5203 57.2074 15.8108 58.1377 14.8923L59.7458 13.3047L60.3595 13.6439C61.8256 14.4546 64.0552 14.6929 65.7089 14.2158C69.2063 13.2066 71.4439 9.77934 70.9256 6.22514C70.3287 2.13141 66.39 -0.667595 62.3608 0.13864ZM65.6345 3.21739C66.588 3.65955 67.3642 4.43486 67.8257 5.40628C68.3544 6.51875 68.3448 8.06978 67.8027 9.17338C66.443 11.9409 62.7824 12.5545 60.6064 10.3793C58.6096 8.38337 59.0211 4.93375 61.4344 3.43778C62.6484 2.68522 64.3 2.59868 65.6345 3.21739ZM8.31615 7.21847C4.87533 7.67214 2.34974 10.5745 2.34974 14.0747C2.34974 16.7986 3.81914 19.1367 6.27661 20.3231C8.1774 21.2408 10.2135 21.2547 12.2075 20.3634L13.1943 19.9224L16.7557 23.4823C19.4811 26.2065 20.2848 27.0868 20.179 27.232C19.3157 28.4175 18.5304 29.6523 18.113 30.4808C15.3354 35.9944 15.9322 42.8186 19.6314 47.8414L20.2771 48.7183L16.8449 52.1511L13.4126 55.5841L12.7722 55.178C11.6966 54.496 10.1082 54.0701 8.59366 54.0573C6.14007 54.0367 4.25233 54.8168 2.4846 56.582C-0.123967 59.1868 -0.730738 62.9358 0.912662 66.2934C1.61989 67.7384 3.26301 69.3808 4.70855 70.0877C8.06764 71.7304 11.8182 71.1239 14.4241 68.5165C16.1886 66.751 16.9706 64.8625 16.953 62.41C16.9422 60.8985 16.5165 59.3171 15.8287 58.2332L15.4224 57.5931L18.8533 54.1658L22.2841 50.7385L23.3142 51.4772C25.1967 52.827 27.0053 53.6453 29.4067 54.2335C30.4957 54.5002 31.1109 54.5579 32.945 54.5651C35.3565 54.5744 36.3583 54.4317 38.3083 53.8003C40.1306 53.2105 41.638 52.393 43.7863 50.8296C43.9311 50.7242 44.5247 51.2398 46.2877 53.002L48.5992 55.3125L48.1705 55.9833C47.3495 57.2686 46.751 59.3351 46.751 60.8843C46.751 62.1642 47.1367 63.6784 47.8103 65.0421C49.0146 67.4807 51.3568 69.3526 53.9662 69.9621C55.2452 70.261 57.16 70.2359 58.4605 69.9034C61.5048 69.1252 64.0118 66.7536 65.0107 63.7075C65.3606 62.6399 65.4133 62.2707 65.4129 60.8843C65.4122 58.1602 64.6123 56.2479 62.6505 54.2804C61.7161 53.3433 61.3076 53.0493 60.2101 52.5238C59.4851 52.1765 58.5485 51.822 58.1288 51.7357C57.0422 51.5126 54.8779 51.5463 53.8968 51.8017C52.9843 52.0393 51.5302 52.6786 50.9297 53.106L50.5471 53.3783L48.2043 51.0334L45.8614 48.6885L46.1475 48.3717C47.1017 47.3159 48.3468 45.0159 48.9688 43.1601C50.6433 38.1644 49.7314 32.2295 46.663 28.1524L45.9014 27.1405L47.9803 25.0458C49.2453 23.7713 50.0966 22.8018 50.1546 22.5698C50.42 21.5075 49.5134 20.6013 48.4507 20.8666C48.2186 20.9246 47.2487 21.7755 45.9737 23.04L43.8781 25.118L42.8657 24.3568C38.8237 21.3174 33.068 20.4027 27.9955 21.9937C26.5327 22.4525 24.4244 23.5268 23.2183 24.428L22.2855 25.125L18.6872 21.5282L15.0889 17.9313L15.4499 17.2192C16.4557 15.2352 16.4591 13.1276 15.4596 11.0234C14.2068 8.38601 11.281 6.82749 8.31615 7.21847ZM10.9 10.2619C11.701 10.6049 12.5742 11.4355 13.0034 12.263C13.3075 12.8495 13.3676 13.148 13.3676 14.0747C13.3676 15.0023 13.308 15.298 13.0045 15.8778C11.9013 17.9852 9.44755 18.8417 7.43257 17.8225C5.33891 16.7637 4.51124 14.3061 5.54912 12.2301C5.7825 11.7632 6.16547 11.2198 6.40024 11.0223C7.7134 9.91776 9.4223 9.62899 10.9 10.2619ZM51.5918 17.5421C51.3924 17.6503 51.1513 17.9275 51.0558 18.1579C50.5672 19.3368 51.8887 20.531 52.9732 19.8906C54.5792 18.9424 53.2315 16.6513 51.5918 17.5421ZM36.5075 24.383C39.0507 25.0642 41.1117 26.2473 42.9416 28.0766C44.7726 29.9066 45.9581 31.9707 46.6357 34.508C47.0695 36.1327 47.1349 38.9322 46.7791 40.6514C46.2437 43.2386 44.9645 45.6695 43.1021 47.639L42.184 48.6098L42.178 47.4215C42.1675 45.3201 41.5972 44.1853 40.2025 43.4906L39.4812 43.1314H33.1214C26.2634 43.1314 26.3072 43.1272 25.3174 43.8818C25.0825 44.061 24.7116 44.5355 24.4933 44.9362C24.1602 45.5483 24.0822 45.8893 24.0064 47.0679L23.9162 48.4711L23.1929 47.7437C19.1116 43.6394 17.9927 37.268 20.4446 32.0941C21.2443 30.4071 22.0361 29.266 23.2502 28.0519C25.0923 26.2099 27.6565 24.8139 30.2261 24.2543C31.8414 23.9024 34.9512 23.9662 36.5075 24.383ZM31.532 27.1125C27.9479 27.8913 25.4657 30.9556 25.4657 34.6016C25.4657 38.8957 28.8376 42.2376 33.1531 42.2206C36.9579 42.2056 40.1241 39.4493 40.6748 35.6728C41.2538 31.7018 38.595 27.949 34.61 27.1126C33.4349 26.866 32.6665 26.866 31.532 27.1125ZM35.1073 30.1797C35.6752 30.4345 36.1749 30.8089 36.691 31.366C38.4332 33.247 38.4332 35.9562 36.691 37.8372C35.6337 38.9788 34.5867 39.4457 33.0837 39.4457C31.6548 39.4457 30.5413 38.9754 29.6074 37.9773C28.6423 36.946 28.2427 35.9575 28.2427 34.6016C28.2427 33.2646 28.6336 32.2778 29.5621 31.2708C30.9827 29.7305 33.1535 29.3033 35.1073 30.1797ZM39.179 46.1232C39.3572 46.3012 39.397 46.7089 39.397 48.351V50.3608L38.4918 50.7712C36.5084 51.6701 33.4843 52.0711 31.2033 51.7378C29.9436 51.5536 28.1253 51.0259 27.2907 50.602L26.7704 50.3378V48.4298C26.7704 46.9273 26.8163 46.4563 26.9864 46.2136L27.2023 45.9053H33.0816C38.2415 45.9053 38.9875 45.9319 39.179 46.1232ZM58.4003 54.7085C61.2566 55.7242 63.1 58.8864 62.5932 61.901C61.7983 66.6278 56.5269 68.923 52.4761 66.3059C50.3869 64.9563 49.2267 62.3282 49.6387 59.8788C50.1328 56.9404 52.4245 54.7107 55.2843 54.3859C56.2754 54.2733 57.5467 54.4049 58.4003 54.7085ZM10.3235 57.0957C12.9224 57.9998 14.5628 60.7135 14.1309 63.3942C13.5208 67.1812 9.43575 69.3087 6.01714 67.6198C2.41023 65.838 1.6833 61.1411 4.58575 58.3709C6.08263 56.9421 8.40079 56.427 10.3235 57.0957Z" fill="#E49B00"/>
</svg>
