<svg width="77" height="71" viewBox="0 0 77 71" fill="none" xmlns="http://www.w3.org/2000/svg">
<path fill-rule="evenodd" clip-rule="evenodd" d="M4.93031 0.149446C2.68489 0.593264 0.585372 2.76105 0.151415 5.08319C0.0534055 5.6081 0 13.5891 0 27.7314C0 46.5864 0.030283 49.6868 0.222125 50.4294C0.94101 53.213 3.01353 55.3032 5.77361 56.0282C6.49399 56.2174 8.45194 56.2522 18.3801 56.2522H30.1338V59.1107V61.9691H28.8861C26.4651 61.9691 25.0224 62.4928 23.6609 63.8661C22.3441 65.1941 21.7799 66.7063 21.7799 68.9079C21.7799 69.8336 21.824 69.9879 22.2152 70.4294L22.6505 70.9207L38.0979 70.9604L53.5454 71L54.029 70.5643C54.4696 70.1673 54.5177 70.0365 54.5704 69.0953C54.6894 66.9655 54.0771 65.2367 52.7179 63.8661C51.3564 62.4928 49.9137 61.9691 47.4927 61.9691H46.245V59.1107V56.2522H57.9986C67.9268 56.2522 69.8848 56.2174 70.6052 56.0282C73.3653 55.3032 75.4378 53.213 76.1567 50.4294C76.3485 49.6868 76.3788 46.5864 76.3788 27.7314C76.3788 13.5891 76.3254 5.6081 76.2274 5.08319C75.781 2.695 73.6918 0.587998 71.3238 0.137862C70.3177 -0.0533557 5.89892 -0.0420723 4.93031 0.149446ZM36.6976 22.0982V41.2024L24.2446 41.2426L11.7917 41.2827L11.3815 41.6965C10.8091 42.2739 10.8091 43.1501 11.3815 43.7275L11.7917 44.1412L42.605 44.1799L73.4185 44.2186L73.3696 47.0384C73.3262 49.5435 73.2848 49.9363 73.0001 50.5576C72.5903 51.4517 71.6188 52.4314 70.7323 52.8447L70.0387 53.168H38.1894H6.34004L5.64651 52.8447C4.75995 52.4314 3.78851 51.4517 3.37872 50.5576L3.05813 49.8582L3.01696 27.8178C2.97146 3.46213 2.90955 5.09643 3.91844 4.05053C4.18368 3.77551 4.66925 3.42677 4.99744 3.27558C5.56297 3.015 6.40612 3.00056 21.1459 2.9974L36.6976 2.99409V22.0982ZM71.3813 3.27678C72.141 3.62822 72.7665 4.25904 73.1149 5.02512C73.3755 5.59787 73.3888 6.48325 73.392 23.4172L73.3952 41.2075H56.5382H39.6812V22.1008V2.99409L55.2329 2.9974C69.998 3.00056 70.8148 3.0147 71.3813 3.27678ZM43.6344 6.14519C43.4703 6.21304 43.2017 6.41886 43.0377 6.60285C42.7499 6.92541 42.7393 7.14912 42.7393 12.9359V18.9347L43.1528 19.3517L43.5665 19.7689L55.6091 19.8092C64.4773 19.8388 67.7619 19.8035 68.0692 19.6752C68.9016 19.3275 68.9199 19.1817 68.9199 12.9236C68.9199 6.70636 68.9008 6.54914 68.1036 6.1828C67.6453 5.97218 44.141 5.93622 43.6344 6.14519ZM21.6635 6.5502C21.4122 6.78715 19.9842 9.07965 18.4905 11.6448C15.4202 16.9175 15.2978 17.2417 16.081 18.0315C16.6867 18.6423 17.4191 18.6592 18.0364 18.0764C18.2775 17.8489 19.6969 15.5639 21.1906 12.9988C24.1711 7.88059 24.3414 7.45257 23.698 6.69824C23.4583 6.4172 23.1501 6.25878 22.7331 6.20251C22.2044 6.1309 22.058 6.17859 21.6635 6.5502ZM12.3071 7.05299C11.8335 7.25654 7.78855 11.4495 7.6164 11.9153C7.50004 12.23 7.51317 12.4576 7.66831 12.8179C7.92072 13.4041 12.0226 17.5171 12.496 17.6586C12.9741 17.8015 13.8065 17.4872 14.085 17.0586C14.2148 16.8588 14.321 16.4512 14.321 16.1529C14.321 15.6667 14.156 15.4399 12.7311 13.9662L11.141 12.3218L12.7311 10.6774C14.156 9.20362 14.321 8.9769 14.321 8.49066C14.321 7.7986 13.9787 7.27294 13.3939 7.06743C12.8606 6.87997 12.7142 6.87802 12.3071 7.05299ZM26.2552 7.06668C25.6991 7.29521 25.3672 7.81319 25.3634 8.45831C25.3604 8.98728 25.4871 9.16435 26.9501 10.6774L28.5402 12.3218L26.9501 13.9662C25.5251 15.4399 25.3601 15.6667 25.3601 16.1529C25.3601 16.4512 25.4664 16.8588 25.5961 17.0586C25.8747 17.4872 26.7071 17.8015 27.1852 17.6586C27.6619 17.5161 31.7613 13.4021 32.0158 12.8107C32.3455 12.045 32.0439 11.5823 29.6644 9.20317C27.4315 6.97069 27.0581 6.73675 26.2552 7.06668ZM65.9364 12.9236V16.8352H55.7923H45.6483V12.9236V9.01195H55.7923H65.9364V12.9236ZM8.35393 22.7407C8.14881 22.8452 7.85791 23.184 7.70769 23.4936C7.44261 24.0395 7.44261 24.0738 7.70769 24.6196C8.1688 25.5693 8.15015 25.5666 14.0731 25.5242L19.4192 25.4859L19.7791 25.0637C20.2672 24.4912 20.2672 23.622 19.7791 23.0495L19.4192 22.6274L14.0731 22.589C10.0005 22.5598 8.63796 22.5959 8.35393 22.7407ZM23.3295 22.6961C23.1563 22.7686 22.8649 23.0197 22.6821 23.2541C22.2626 23.792 22.3509 24.5505 22.8975 25.1016L23.2784 25.4859H27.5978H31.9172L32.3139 25.0858C32.8699 24.5249 32.87 23.5884 32.314 23.0274L31.9177 22.6274L27.7811 22.5958C25.506 22.5785 23.5029 22.6236 23.3295 22.6961ZM43.5262 22.7867C43.0268 23.0601 42.8139 23.4396 42.8139 24.0566C42.8139 24.6861 43.0312 25.0598 43.5568 25.3339C43.9347 25.531 45.5659 25.5611 55.8524 25.5611C64.7298 25.5611 67.8108 25.5159 68.1036 25.3813C68.5312 25.1848 68.9199 24.554 68.9199 24.0566C68.9199 23.5592 68.5312 22.9284 68.1036 22.7319C67.8105 22.5971 64.7342 22.5536 55.8226 22.5582C45.6205 22.5633 43.875 22.5958 43.5262 22.7867ZM8.35393 28.7567C8.14881 28.8622 7.85791 29.2019 7.70769 29.5115C7.44261 30.0573 7.44261 30.0916 7.70769 30.6374C8.14419 31.5365 8.36944 31.589 11.5956 31.5439L14.4641 31.5037L14.874 31.09C15.446 30.5127 15.446 29.6362 14.874 29.059L14.4641 28.6452L11.5956 28.6051C9.49752 28.5757 8.62663 28.6165 8.35393 28.7567ZM20.4952 28.7147C20.322 28.7868 20.0305 29.0376 19.8477 29.272C19.4283 29.8098 19.5166 30.5684 20.0632 31.1195L20.444 31.5037H26.1806H31.9172L32.3139 31.1037C32.8699 30.5428 32.87 29.6063 32.314 29.0453L31.9175 28.6452L26.3638 28.6144C23.3094 28.5975 20.6685 28.6427 20.4952 28.7147ZM43.5262 28.8046C43.0268 29.0779 42.8139 29.4575 42.8139 30.0745C42.8139 30.7039 43.0312 31.0777 43.5568 31.3518C43.9347 31.5488 45.5659 31.5789 55.8524 31.5789C64.7298 31.5789 67.8108 31.5338 68.1036 31.3992C68.5312 31.2027 68.9199 30.5718 68.9199 30.0745C68.9199 29.5771 68.5312 28.9463 68.1036 28.7498C67.8105 28.615 64.7342 28.5715 55.8226 28.576C45.6205 28.5811 43.875 28.6136 43.5262 28.8046ZM8.35393 34.7794C8.14881 34.8821 7.85791 35.2197 7.70769 35.5294C7.44261 36.0752 7.44261 36.1095 7.70769 36.6553C7.85791 36.9649 8.14881 37.3025 8.35393 37.4053C8.85934 37.6588 22.6812 37.6806 23.1696 37.4288C23.6956 37.1575 24.011 36.6567 24.011 36.0923C24.011 35.528 23.6956 35.0272 23.1696 34.7559C22.6812 34.5041 8.85934 34.5259 8.35393 34.7794ZM27.9707 34.724C27.0175 35.137 26.7687 36.3777 27.4926 37.1078C27.8996 37.5181 27.9194 37.5216 29.9101 37.5216C31.8841 37.5216 31.9236 37.515 32.3139 37.1215C32.8697 36.5608 32.87 35.6241 32.3142 35.0631C31.933 34.6783 31.8489 34.6617 30.0935 34.6289C29.0902 34.6101 28.1348 34.6529 27.9707 34.724ZM43.5262 34.8224C43.0268 35.0958 42.8139 35.4754 42.8139 36.0923C42.8139 36.7218 43.0312 37.0955 43.5568 37.3696C44.2115 37.711 61.406 37.711 62.0607 37.3696C62.5863 37.0955 62.8036 36.7218 62.8036 36.0923C62.8036 35.4629 62.5863 35.0892 62.0607 34.815C61.4144 34.4779 44.1432 34.4848 43.5262 34.8224ZM66.906 34.73C65.9986 35.1047 65.7111 36.3479 66.3687 37.054C67.5488 38.3209 69.4589 36.9986 68.7417 35.4111C68.4436 34.7513 67.6069 34.4407 66.906 34.73ZM6.48921 41.3441C5.53851 41.7545 5.28714 42.9974 6.00782 43.724C6.91362 44.6377 8.42181 44.0054 8.42181 42.712C8.42181 41.7213 7.35847 40.9686 6.48921 41.3441ZM37.5667 47.4753C36.6127 48.0906 36.6254 49.4085 37.5912 49.9838C38.2049 50.3494 38.7164 50.2928 39.2651 49.7983C39.6619 49.4409 39.749 49.2513 39.749 48.7452C39.749 47.6146 38.4883 46.8809 37.5667 47.4753ZM43.2614 59.1107V61.9691H38.1894H33.1174V59.1107V56.2522H38.1894H43.2614V59.1107ZM49.7538 65.3026C50.6385 65.7921 51.3015 66.6431 51.5227 67.5733L51.621 67.987H38.1894H24.7578L24.8561 67.5733C25.1183 66.4702 25.909 65.5735 26.954 65.1941C27.4204 65.0247 29.4897 64.9933 38.4132 65.0203C48.2325 65.05 49.3474 65.0778 49.7538 65.3026Z" fill="#E49B00"/>
</svg>
