<svg width="71" height="71" viewBox="0 0 71 71" fill="none" xmlns="http://www.w3.org/2000/svg">
<path fill-rule="evenodd" clip-rule="evenodd" d="M33.1403 0.0615999C32.7198 0.0853519 31.6253 0.20564 30.7079 0.328845C15.888 2.31887 3.6799 13.6536 0.699537 28.1905C0.13482 30.9448 0 32.3579 0 35.5256C0 38.697 0.133986 40.098 0.703568 42.8873C2.65666 52.4508 8.80502 60.9972 17.4328 66.1416C21.497 68.565 26.2201 70.1746 31.1944 70.8313C32.8974 71.0562 38.1087 71.0562 39.8118 70.8313C48.45 69.6907 55.9346 65.8177 61.7369 59.4861C66.6092 54.1694 69.6514 47.6801 70.7559 40.2482C71.0762 38.0922 71.0825 33.1719 70.7677 30.9275C70.3663 28.0661 69.5893 25.0829 68.5444 22.3909C67.5003 19.7009 65.2497 15.6963 64.6212 15.4101C63.7103 14.9954 62.8034 15.4471 62.653 16.3906C62.5802 16.8477 62.6663 17.071 63.3714 18.2518C65.9579 22.5834 67.4142 26.7319 68.0453 31.5669C68.3043 33.5517 68.2629 37.997 67.9669 39.9704C67.5272 42.9022 66.8519 45.4118 65.8364 47.8877C61.877 57.5406 53.6601 64.7158 43.6539 67.258C40.6643 68.0175 38.8936 68.2282 35.5031 68.2282C32.1126 68.2282 30.3418 68.0175 27.3523 67.258C15.8047 64.3243 6.68584 55.2113 3.75023 43.6711C2.99023 40.6835 2.77939 38.9139 2.77939 35.5256C2.77939 32.1372 2.99023 30.3676 3.75023 27.38C7.6029 12.2349 21.762 1.94662 37.4563 2.88837C42.8186 3.21006 47.4706 4.60018 52.0364 7.24485C53.7447 8.23451 54.3065 8.32452 54.9238 7.70752C55.4254 7.20623 55.4487 6.38839 54.9759 5.88529C54.3201 5.18773 50.8404 3.35229 48.3622 2.39694C43.5804 0.553308 38.4274 -0.237314 33.1403 0.0615999ZM32.1673 7.66808C25.772 8.50509 20.1187 11.2892 15.605 15.8249C10.9965 20.4555 8.25532 26.2869 7.55203 32.9559C7.14632 36.8028 7.85697 41.894 9.32582 45.6628C10.3325 48.2461 12.2692 51.5447 13.222 52.2988C14.6783 53.4514 16.3869 53.8939 17.987 53.5329C19.9098 53.099 21.2312 52.082 22.0609 50.3975C22.4818 49.543 22.5075 49.4029 22.5075 47.9601C22.5075 46.2756 22.3998 45.9576 21.0598 43.6871C18.3771 39.1416 18.2059 32.9922 20.6277 28.1638C22.1514 25.1261 24.8417 22.3783 27.7941 20.8445C30.3599 19.5116 32.5978 18.9663 35.5031 18.9663C39.193 18.9663 42.2878 19.967 45.3493 22.1503L46.2373 22.7835L42.3474 26.6709L38.4575 30.5585L37.6601 30.2603C35.4501 29.4339 33.197 29.895 31.5348 31.5137C29.2776 33.7118 29.2776 37.3393 31.5348 39.5374C34.8648 42.7802 40.3908 40.9403 41.1015 36.3523C41.2715 35.2546 41.108 34.0334 40.6734 33.1555L40.4135 32.6306L44.3337 28.7147L48.2538 24.799L48.8873 25.6861C51.8946 29.8977 52.8221 34.7895 51.5578 39.7705C51.2325 41.0523 50.5914 42.4859 49.0845 45.3017L48.4987 46.3966V47.9441C48.4987 49.404 48.5238 49.5427 48.9427 50.3927C49.7921 52.1161 51.3848 53.2847 53.3111 53.5975C55.3795 53.9334 57.597 52.9322 58.8406 51.1008C60.9277 48.0273 62.5232 44.0048 63.1946 40.1232C63.5924 37.824 63.6183 33.5971 63.2486 31.2891C62.4933 26.5741 60.666 22.2576 57.8448 18.5237C57.3774 17.9052 56.2404 16.6431 55.3181 15.7193C51.0147 11.4084 45.9255 8.81637 39.8098 7.82031C37.9164 7.51195 33.962 7.4332 32.1673 7.66808ZM59.1853 10.104C58.771 10.2712 58.2975 10.9161 58.2975 11.3131C58.2975 12.0989 58.9755 12.7806 59.7569 12.7806C61.2235 12.7806 61.6393 10.8146 60.3064 10.1825C59.8029 9.94369 59.615 9.93049 59.1853 10.104ZM34.1132 11.0882C34.1132 12.3685 34.5807 13.0176 35.5031 13.0176C36.421 13.0176 36.893 12.3681 36.893 11.1053V10.2798L37.5532 10.3423C39.8867 10.5636 42.8632 11.261 44.8154 12.044C46.2455 12.6174 48.773 14.0017 50.0276 14.8985C53.5389 17.4088 56.1264 20.4279 58.0633 24.2746C59.4546 27.038 60.3248 29.91 60.5883 32.6087C60.6368 33.1052 60.7053 33.6521 60.7405 33.824C60.8014 34.1209 60.7622 34.1366 59.9588 34.1366C58.675 34.1366 58.0256 34.6031 58.0256 35.5256C58.0256 36.4477 58.6751 36.9146 59.9578 36.9146H60.8026L60.7359 37.4355C60.6992 37.722 60.6011 38.4876 60.518 39.137C60.0888 42.4864 58.621 46.3875 56.7083 49.263C55.444 51.1634 53.5144 51.455 52.0285 49.97C50.9175 48.8598 50.8536 47.5355 51.8369 45.9994C56.2824 39.0545 55.807 29.7937 50.6807 23.475L50.201 22.8837L51.261 21.775C52.251 20.7395 52.3209 20.6261 52.3209 20.0586C52.3209 19.2103 51.8289 18.7186 50.9801 18.7186C50.4121 18.7186 50.2987 18.7885 49.2626 19.7779L48.1531 20.8371L47.5615 20.3578C41.1469 15.1605 31.8593 14.7478 24.8703 19.3495C17.4826 24.2138 14.3327 33.3753 17.1542 41.7915C17.551 42.9752 18.3208 44.5809 19.3112 46.2904C19.711 46.9807 19.7941 47.2632 19.7955 47.9362C19.7983 49.2962 19.0853 50.2974 17.8117 50.7219C16.9984 50.993 16.9578 50.9934 16.0996 50.7387C15.208 50.4741 14.6758 49.9405 13.7393 48.3721C11.8727 45.246 10.7542 41.7487 10.2861 37.5744L10.2122 36.9146H11.0526C12.3311 36.9146 12.9806 36.4466 12.9806 35.5256C12.9806 34.6031 12.3312 34.1366 11.0474 34.1366C10.244 34.1366 10.2048 34.1209 10.2657 33.824C10.3008 33.6522 10.368 33.1052 10.4149 32.6087C10.8314 28.2 12.8577 23.3786 15.8604 19.6519L16.6195 18.71L17.3098 19.3303C18.2484 20.1736 18.9198 20.2521 19.577 19.5952C20.2208 18.9518 20.1347 18.2748 19.2895 17.3353L18.6767 16.6541L19.6192 15.8956C23.4011 12.8523 28.1017 10.8992 32.8617 10.3934C33.4353 10.3325 33.9517 10.2743 34.0089 10.2641C34.0662 10.254 34.1132 10.6249 34.1132 11.0882ZM34.9866 22.1532C34.5741 22.2282 33.9742 22.9619 33.9742 23.3915C33.9742 24.8833 35.9212 25.3647 36.5987 24.0407C37.1008 23.0597 36.1463 21.9422 34.9866 22.1532ZM29.6516 23.4458C29.4528 23.5004 28.9216 23.7806 28.4712 24.0686C25.1385 26.1991 22.9639 29.3119 22.2501 32.9737C21.7385 35.5984 21.8518 36.5216 22.7386 36.955C23.3441 37.2507 23.8132 37.1692 24.2991 36.6836C24.5714 36.4116 24.6578 36.1508 24.7205 35.4125C25.0685 31.3108 26.7502 28.4555 30.0515 26.3609C31.2521 25.5992 31.5658 25.1544 31.408 24.4371C31.249 23.7136 30.4073 23.2386 29.6516 23.4458ZM36.1144 32.7245C36.1537 32.7883 35.8999 33.1165 35.5501 33.4537C34.0939 34.8584 33.8246 35.5782 34.469 36.3436C35.2289 37.246 36.0199 37.0503 37.4378 35.6095C37.8522 35.1883 38.2431 34.8759 38.3065 34.9151C38.5128 35.0425 38.4223 36.1366 38.1584 36.7062C38.0169 37.0118 37.7211 37.4305 37.5012 37.6364C36.0344 39.0109 33.6993 38.5442 32.8478 36.7062C32.1855 35.2768 32.8478 33.5539 34.3217 32.872C34.8925 32.6078 35.9865 32.518 36.1144 32.7245ZM28.1013 53.4557C26.5934 53.8107 25.3068 54.8751 24.6149 56.3397C24.2324 57.1495 24.1784 57.4094 24.1784 58.4442C24.1784 59.479 24.2324 59.7389 24.6149 60.5487C25.1685 61.7203 25.9686 62.5205 27.1427 63.0764L28.0671 63.514H35.5031H42.9391L43.8635 63.0764C46.7803 61.6953 47.7542 58.1842 45.9519 55.5471C45.651 55.1068 45.0983 54.5541 44.6593 54.2545C43.2963 53.324 43.09 53.3032 35.4391 53.3187C31.6903 53.3265 28.3883 53.3881 28.1013 53.4557ZM42.633 56.2705C43.6375 56.69 44.262 57.8554 44.0596 58.9332C43.9476 59.5301 43.2415 60.3636 42.633 60.6178C41.9756 60.8923 29.0306 60.8923 28.3732 60.6178C27.3687 60.1984 26.7442 59.033 26.9466 57.9551C27.0557 57.3737 27.7558 56.5319 28.3425 56.2765C28.9637 56.0059 41.9863 56.0005 42.633 56.2705Z" fill="#E49B00"/>
</svg>
