<svg width="81" height="71" viewBox="0 0 81 71" fill="none" xmlns="http://www.w3.org/2000/svg">
<path fill-rule="evenodd" clip-rule="evenodd" d="M3.56638 0.0988431C2.24254 0.509849 1.0463 1.53376 0.373439 2.83195L0 3.55245V29.3304C0 54.3549 0.00887633 55.1316 0.303855 55.9044C0.703131 56.9503 1.78984 58.1034 2.81918 58.5735C3.64071 58.9488 3.68589 58.9514 10.501 58.9975C14.2715 59.0231 17.3564 59.0841 17.3564 59.1333C17.3564 59.1824 16.7047 60.1701 15.9083 61.3284C14.0671 64.0058 13.9295 64.492 14.7721 65.3432L15.1806 65.7558H31.4589H47.7374L48.7363 66.5655C52.1829 69.3596 55.9365 70.7812 60.3906 70.9796C66.0371 71.231 71.25 69.1559 75.2933 65.0471C78.0358 62.2604 79.8759 58.7897 80.7096 54.8306C81.1255 52.8562 81.0891 48.8943 80.6362 46.826C79.4877 41.5823 76.0904 36.6499 71.8233 34.0314L70.9465 33.4933L70.8989 18.683C70.8545 4.79844 70.8334 3.82576 70.5624 3.12095C70.1554 2.06245 69.1767 1.00732 68.1121 0.479268L67.2064 0.0299951L35.5845 0.00293648C18.1925 -0.0119539 3.78432 0.0312761 3.56638 0.0988431ZM66.8304 3.40291C67.7898 3.90405 67.7611 3.44197 67.7611 18.3764V32.0096L67.4045 31.9031C67.2083 31.8443 66.4416 31.6479 65.7006 31.4663C64.9595 31.2847 64.2642 31.1104 64.1551 31.0788C63.999 31.0337 63.957 28.5689 63.957 19.4442C63.957 6.81104 64.0007 7.41114 63.0505 7.01342C62.7257 6.87765 59.8305 6.83954 52.2528 6.8714L41.8986 6.91479L41.4362 7.43772C41.1818 7.72528 40.9737 8.14317 40.9737 8.3662C40.9737 8.89713 41.373 9.66423 41.7575 9.87205C41.9567 9.97981 45.3066 10.037 51.4246 10.037H60.7869V20.4345V30.8318L60.034 30.9226C56.7318 31.3206 54.9842 31.7819 52.7687 32.8402C48.8429 34.7156 45.4919 37.9875 43.5516 41.8396L42.7965 43.3387L26.3515 43.3394L9.9066 43.3402V26.6886V10.037H19.3255H28.7445L29.2148 9.63717C29.8092 9.13186 29.946 8.58924 29.6558 7.88747C29.2054 6.79903 29.5901 6.83474 18.3074 6.83474C9.53585 6.83474 8.08378 6.86788 7.68229 7.07762C6.68101 7.60071 6.73649 6.45063 6.73649 26.6857C6.73649 46.4165 6.7181 45.9439 7.50524 46.3695C7.72873 46.4902 12.9474 46.5424 24.8134 46.5424H41.8016L41.7088 47.0628C41.1923 49.9621 41.2565 53.4643 41.8643 55.5487C41.9418 55.8145 40.98 55.8289 23.2239 55.8289C2.65655 55.8289 3.84978 55.8864 3.32988 54.8706C3.11543 54.4518 3.0926 51.5385 3.12906 29.2723C3.16964 4.40152 3.17328 4.14278 3.48712 3.79053C3.66148 3.59472 3.94679 3.37569 4.12114 3.30348C4.2955 3.23143 18.3684 3.16786 35.3943 3.16226C63.1968 3.15313 66.3992 3.17779 66.8304 3.40291ZM34.8535 6.98556C34.3778 7.18842 33.8409 7.93054 33.8409 8.38542C33.8409 8.89937 34.2458 9.66727 34.6247 9.87205C35.0163 10.0837 35.8357 10.0837 36.2272 9.87205C36.6118 9.66423 37.011 8.89713 37.011 8.3662C37.011 7.46926 35.6948 6.62707 34.8535 6.98556ZM64.585 34.473C66.2762 34.824 68.3373 35.6394 69.8406 36.5527C71.4656 37.5398 73.798 39.7524 74.8796 41.333C79.1093 47.5135 78.8338 55.67 74.1977 61.5232C70.1309 66.6575 63.4166 68.9257 57.1086 67.2961C49.147 65.2391 43.7065 57.4064 44.6095 49.301C45.7285 39.2556 54.8833 32.4598 64.585 34.473ZM60.1272 38.2457C59.2021 38.4946 58.3448 39.3793 57.1603 41.3077L56.0568 43.1043L55.3344 43.0464C54.703 42.9956 54.5519 43.0491 54.1331 43.4721C53.5601 44.0509 53.5354 44.469 53.965 46.3005C54.4454 48.348 55.0187 48.6263 57.4459 47.9895C58.1782 47.7974 58.7672 47.5345 59.0064 47.293C59.5134 46.7806 59.5437 45.9109 59.0766 45.2727L58.7301 44.7993L59.7866 43.0931C60.3676 42.1547 60.9433 41.3481 61.066 41.3007C61.3875 41.1759 61.6986 41.573 63.0713 43.8593C63.7449 44.9813 64.4496 46.0081 64.6373 46.1408C65.0304 46.419 65.8985 46.4579 66.3433 46.2174C66.6974 46.026 67.1271 45.2548 67.1271 44.8108C67.1271 44.3114 64.0955 39.3383 63.5217 38.8963C62.5227 38.1265 61.3827 37.9079 60.1272 38.2457ZM67.894 48.548C67.4593 48.7864 67.2054 49.3391 66.7313 51.0784C66.2804 52.7323 66.9079 53.708 68.3194 53.5473L69.0298 53.4664L69.5843 54.3883C70.2251 55.454 70.2148 55.4089 69.8897 55.7374C69.6854 55.9438 69.213 55.989 67.2621 55.989H64.8836L64.4203 56.457C63.7876 57.0962 63.7874 57.8738 64.4198 58.5882L64.8827 59.1112H67.6296C70.1893 59.1112 70.4278 59.0855 71.1295 58.7365C72.0888 58.2594 72.778 57.4183 73.0888 56.3454C73.4114 55.2325 73.196 54.1885 72.3719 52.8705C71.765 51.8999 71.7632 51.8919 72.0596 51.5222C72.247 51.2883 72.3578 50.8973 72.3578 50.4693C72.3578 49.4872 71.8867 49.0778 70.2609 48.6467C68.7428 48.2444 68.4682 48.2329 67.894 48.548ZM32.5372 49.8284C31.6317 50.3369 31.4881 51.5553 32.2437 52.3187L32.707 52.7868H35.2478C38.0184 52.7868 38.4779 52.6816 38.8457 51.963C39.1892 51.2921 39.1189 50.7639 38.6094 50.1875L38.1474 49.6646L35.5582 49.6252C33.487 49.5936 32.8828 49.6343 32.5372 49.8284ZM51.7578 50.6616C51.3542 50.8702 50.9553 51.365 50.254 52.5269C49.3537 54.0182 49.2965 54.1733 49.2504 55.2488C49.2063 56.2789 49.2485 56.4704 49.6874 57.2297C50.5672 58.7517 51.6912 59.1912 54.703 59.1912C56.3226 59.1912 56.344 59.1962 56.4427 59.5941C56.5917 60.1937 57.239 60.6322 57.9752 60.6322C58.5483 60.6322 58.7214 60.52 59.8162 59.4389C60.975 58.2946 61.0246 58.2153 61.0246 57.51C61.0246 56.8047 60.975 56.7255 59.8162 55.5812C58.7214 54.5001 58.5483 54.3879 57.9752 54.3879C57.2024 54.3879 56.5722 54.845 56.4275 55.5106L56.3235 55.989H54.6614C52.9264 55.989 52.3837 55.8442 52.3896 55.383C52.3915 55.232 52.7481 54.5331 53.1821 53.83C54.1154 52.3181 54.1873 51.7476 53.5353 51.0337C52.9699 50.4149 52.4468 50.3053 51.7578 50.6616ZM43.3267 59.7116C43.4957 60.0858 43.919 60.8604 44.2676 61.4328L44.9011 62.4735L38.42 62.5153C34.8554 62.5383 29.0243 62.5383 25.4622 62.5153L18.9853 62.4735L20.1643 60.7523L21.3434 59.0311H32.1814H43.0194L43.3267 59.7116Z" fill="#E49B00"/>
</svg>
