<svg width="77" height="71" viewBox="0 0 77 71" fill="none" xmlns="http://www.w3.org/2000/svg">
<path fill-rule="evenodd" clip-rule="evenodd" d="M5.74566 0.0405328C3.59122 0.314366 1.65287 1.61315 0.759571 3.38154C-0.0376188 4.95974 0.00028583 3.35607 0.00028583 35.5081C0.00028583 67.6601 -0.0376188 66.0564 0.759571 67.6346C1.20323 68.5128 2.30142 69.6482 3.19337 70.1508C4.79223 71.0519 2.81313 70.9994 35.2187 70.9994C63.0884 70.9994 65.0415 70.9827 65.7949 70.7375C66.8901 70.3809 67.7198 69.8673 68.4794 69.0758C69.8874 67.6085 70.2879 66.3301 70.2879 63.3033V61.2267L72.2874 63.212C74.1128 65.0244 74.3343 65.1972 74.8296 65.1972C75.8245 65.1972 76.5578 64.3391 76.3404 63.4293C76.2735 63.1494 74.2667 61.0156 70.2439 56.9468L64.247 50.8816L66.1091 48.9966L67.9712 47.1116L70.9576 50.1189C72.6002 51.7729 74.1288 53.1957 74.3544 53.2804C75.4992 53.7107 76.6359 52.348 76.0586 51.2375C75.9349 50.9995 74.194 49.1601 72.19 47.1501C67.7368 42.6837 68.0121 42.7828 65.8789 44.8763L64.9766 45.7617L64.5648 45.3275L64.153 44.8933L64.9447 43.7788C70.4522 36.0251 68.8154 25.1728 61.2842 19.5088C58.7172 17.5781 56.2184 16.5388 53.0231 16.0728C48.2149 15.3714 42.8551 17.0637 39.2145 20.4326L38.2369 21.3373L23.5832 21.3771L8.92965 21.417L8.49419 21.9092L8.05874 22.4014V33.3982V44.3949L8.49419 44.8871L8.92965 45.3793L23.4347 45.4193L37.9398 45.4591L38.9795 46.4311C41.3818 48.6774 44.6893 50.3288 47.9033 50.8869C49.6159 51.1843 52.6335 51.1247 54.3202 50.7602C56.9661 50.1884 59.4902 49.0145 61.4208 47.4582L62.0296 46.9673L62.4515 47.4119L62.8732 47.8565L61.8268 48.969C60.048 50.8602 60.0284 50.8078 64.035 54.8811L67.3033 58.2037V61.7807C67.3033 65.6729 67.239 66.0534 66.4373 66.9065C66.216 67.1419 65.7662 67.481 65.4379 67.6601L64.841 67.9853H35.1441H5.4472L4.8361 67.6551C4.04623 67.2282 3.34066 66.4098 3.14308 65.6911C3.03668 65.3042 2.98624 56.9031 2.98579 39.4641L2.9849 13.8064H35.1441H67.3033V17.2628C67.3033 19.1638 67.3663 20.8867 67.4434 21.0914C67.9186 22.3534 69.5122 22.4411 70.1212 21.2386C70.2375 21.0089 70.2879 18.6003 70.2879 13.2729C70.2879 6.96926 70.2488 5.4839 70.0638 4.76292C69.5247 2.66222 68.0111 1.04454 65.8731 0.283773C65.1876 0.0400804 63.205 0.0215436 35.6664 0.00330809C19.4562 -0.00754277 5.99189 0.00918588 5.74566 0.0405328ZM65.4379 3.35607C65.7662 3.53511 66.216 3.8742 66.4373 4.1096C67.1957 4.91664 67.3033 5.42814 67.3033 8.2254V10.7922H35.1441H2.9849L2.98579 8.34325C2.98624 6.99639 3.05698 5.63807 3.14308 5.32505C3.43199 4.27433 4.49392 3.33784 5.67105 3.0955C5.95832 3.03627 19.3891 2.99754 35.5172 3.00945L64.841 3.03085L65.4379 3.35607ZM8.55523 5.48586C7.95681 5.57733 7.46182 6.243 7.46182 6.9563C7.46182 7.4907 7.54016 7.66718 7.921 7.99075C8.21468 8.24047 8.56 8.38093 8.87951 8.38093C9.19901 8.38093 9.54433 8.24047 9.83801 7.99075C10.2189 7.66718 10.2972 7.4907 10.2972 6.9563C10.2972 5.96857 9.54627 5.3347 8.55523 5.48586ZM13.859 5.57944C13.2549 5.77672 12.7682 6.63107 12.9174 7.23194C13.2014 8.37444 14.5647 8.76628 15.3825 7.94041C15.9478 7.36954 15.9726 6.62942 15.4473 5.99901C15.0103 5.47455 14.5516 5.35338 13.859 5.57944ZM19.2957 5.59527C18.2927 6.02116 18.0529 7.11755 18.7886 7.91283C19.8968 9.1108 21.765 7.89053 21.139 6.37774C20.9018 5.8046 20.786 5.70272 20.167 5.52353C19.9024 5.44682 19.5832 5.4732 19.2957 5.59527ZM30.1937 5.47033C29.583 5.59301 29.1003 6.24903 29.1003 6.9563C29.1003 7.4907 29.1786 7.66718 29.5594 7.99075L30.0185 8.38093H46.0215H62.0244L62.4348 7.94825C62.8873 7.47141 62.9892 6.78449 62.691 6.22175C62.2566 5.40221 63.1144 5.44366 46.1872 5.42361C37.5691 5.41352 30.372 5.43446 30.1937 5.47033ZM54.3202 19.3747C55.8809 19.766 58.2484 20.914 59.5433 21.9073C62.052 23.8316 63.8516 26.5587 64.794 29.864C65.0883 30.8962 65.1357 31.4069 65.1357 33.5489C65.1357 35.6936 65.0886 36.201 64.7928 37.2385C63.2545 42.6347 59.0799 46.645 53.7979 47.801C51.9293 48.2101 49.1139 48.1489 47.2509 47.6588C41.2548 46.0815 36.7786 40.7257 36.4664 34.7545L36.3915 33.3228L37.7488 35.9602C38.4952 37.4107 39.2758 38.7501 39.4837 38.9366C39.9495 39.3547 40.8675 39.3924 41.3179 39.012C41.8134 38.5936 45.0679 31.6305 45.0679 30.989C45.0679 29.8992 44.0852 29.2607 43.0682 29.6899C42.5846 29.894 42.4352 30.1241 41.4492 32.1845L40.3631 34.4543L39.1753 32.1678C38.0951 30.0885 37.9375 29.8614 37.4367 29.6628L36.8859 29.4443L37.0778 28.8969C38.8619 23.808 43.043 20.1663 48.2764 19.143C49.7494 18.8549 52.6987 18.968 54.3202 19.3747ZM35.8156 24.4229C35.8156 24.4598 35.586 24.952 35.3054 25.5167C34.145 27.8517 33.5921 29.8805 33.4453 32.3432L33.3509 33.9257L32.4221 32.1083C31.3211 29.9541 30.9668 29.562 30.1205 29.562C29.6451 29.562 29.4404 29.6512 29.1601 29.9802C28.4356 30.8309 28.4535 30.8996 30.432 34.8233C31.4799 36.9014 32.4457 38.6236 32.6967 38.8613C33.0238 39.1713 33.2853 39.2757 33.7334 39.2757C34.1702 39.2757 34.3572 39.3473 34.4232 39.5395C34.473 39.6845 34.7731 40.3721 35.0901 41.0673C35.407 41.7627 35.6664 42.3562 35.6664 42.386C35.6664 42.416 30.1262 42.4406 23.3549 42.4406H11.0434V33.3982V24.3558H23.4295C30.2419 24.3558 35.8156 24.3859 35.8156 24.4229ZM12.5936 29.6243C12.0166 29.8656 11.6045 30.5541 11.6825 31.1457C11.7679 31.792 15.2594 38.6384 15.6941 39.012C16.0827 39.346 16.9865 39.3527 17.4494 39.0253C17.658 38.8777 18.2297 37.8778 18.8411 36.5907L19.8787 34.4066L20.3961 35.3717C20.6807 35.9026 21.1764 36.8589 21.4976 37.4968C21.8188 38.1347 22.2297 38.796 22.4107 38.9662C22.8641 39.3928 23.7429 39.3787 24.2485 38.9366C24.7157 38.5284 27.9028 31.9122 28.0133 31.1213C28.1197 30.3601 27.4387 29.5702 26.6762 29.5702C25.7526 29.5702 25.4308 29.9371 24.3693 32.2008C23.8275 33.3567 23.3438 34.3012 23.2949 34.2999C23.2458 34.2985 22.7226 33.3631 22.1322 32.221C21.5417 31.0791 20.9153 30.0136 20.7399 29.8534C20.2846 29.4373 19.3698 29.4653 18.9014 29.9098C18.6998 30.101 18.1109 31.1676 17.5929 32.2799C17.0748 33.3923 16.6065 34.3024 16.552 34.3024C16.4976 34.3024 15.9702 33.3516 15.38 32.1895C14.7898 31.0274 14.1602 29.9809 13.981 29.8638C13.5245 29.5657 12.9645 29.4691 12.5936 29.6243ZM46.6093 29.6961C46.0503 29.9457 45.8141 30.3336 45.8141 31.0017C45.8141 31.5986 49.2356 38.43 49.7884 38.9366C50.2447 39.3549 51.1627 39.3927 51.618 39.012C51.7915 38.867 52.4092 37.7651 52.9909 36.5633L54.0483 34.3784L55.1459 36.5626C55.7496 37.764 56.389 38.8658 56.5669 39.0112C57.0319 39.3916 57.9467 39.3546 58.4112 38.9366C58.8003 38.5866 62.0168 31.949 62.1674 31.1857C62.2787 30.6207 61.7109 29.7678 61.1171 29.6081C60.0593 29.3235 59.6697 29.725 58.4241 32.3823C57.9316 33.4327 57.4726 34.2757 57.4041 34.2554C57.3356 34.2351 56.7983 33.2735 56.2102 32.1187C55.3532 30.4356 55.0407 29.9601 54.6356 29.7234C54.172 29.4524 54.0794 29.4458 53.5163 29.6423C52.9206 29.8503 52.8697 29.9239 51.7833 32.1505L50.6641 34.4444L49.5448 32.2463C48.9293 31.0375 48.2913 29.9589 48.1272 29.8497C47.6392 29.5247 47.1124 29.4714 46.6093 29.6961ZM8.82131 49.8849C7.98576 50.3525 7.83594 51.377 8.49404 52.121L8.9295 52.6132L15.8008 52.6553C23.5208 52.7025 23.5519 52.699 23.9597 51.7132C24.2395 51.0369 24.1149 50.5299 23.551 50.0508L23.1082 49.6745L16.143 49.6798C10.6485 49.684 9.10261 49.7274 8.82131 49.8849ZM28.3426 50.115C27.578 50.8872 27.8407 52.177 28.8339 52.5266C29.4574 52.7462 37.9954 52.7462 38.6189 52.5266C39.6121 52.177 39.8749 50.8872 39.1102 50.115L38.674 49.6745H33.7264H28.7788L28.3426 50.115ZM8.71043 57.1754C7.97711 57.7754 7.86608 58.6132 8.43017 59.2903C8.87622 59.8256 9.45703 59.9662 10.1007 59.6946C11.0736 59.2841 11.2693 58.0819 10.4912 57.2961C10.0331 56.8335 9.19782 56.7768 8.71043 57.1754ZM13.69 57.2907C13.1845 57.8013 13.0814 58.3014 13.3485 58.9471C13.7717 59.9698 13.0036 59.9225 29.1604 59.9225C37.8631 59.9225 43.8535 59.8657 44.0739 59.781C45.1321 59.3747 45.4153 58.1403 44.6317 57.3489L44.1955 56.9084H29.132H14.0687L13.69 57.2907Z" fill="#E49B00"/>
</svg>
