<svg width="45" height="71" viewBox="0 0 45 71" fill="none" xmlns="http://www.w3.org/2000/svg">
<path fill-rule="evenodd" clip-rule="evenodd" d="M5.33452 0.198338C2.81436 0.808688 0.690512 2.99413 0.162986 5.5197C-0.0543286 6.56042 -0.0543286 64.4327 0.162986 65.4735C0.705647 68.0718 2.93378 70.2966 5.536 70.8385C6.57008 71.0538 38.4394 71.0538 39.4734 70.8385C42.0757 70.2966 44.3038 68.0718 44.8465 65.4735C44.9514 64.9706 44.9999 61.0384 44.9999 53.0155V41.2923L44.5278 40.8209C44.1876 40.4812 43.9315 40.3494 43.6113 40.3494C43.2911 40.3494 43.035 40.4812 42.6948 40.8209L42.2227 41.2923V49.2094V57.1264H22.5047H2.78673V35.4966V13.8667H22.5047H42.2227V21.7076C42.2227 30.2147 42.2154 30.1291 42.9826 30.478C43.443 30.6875 43.7796 30.6875 44.2401 30.478C45.0257 30.1206 44.9999 30.5486 44.9999 17.9014C44.9999 9.93413 44.9514 6.02231 44.8465 5.5197C44.3038 2.92134 42.0757 0.696518 39.4734 0.154663C38.359 -0.0774422 6.30361 -0.036401 5.33452 0.198338ZM39.8874 3.23068C40.7812 3.66896 41.4334 4.34073 41.8609 5.26319C42.1187 5.8196 42.1587 6.20173 42.1988 8.49394L42.2444 11.0937H22.5156H2.78673V8.76182C2.78673 6.16305 2.93073 5.41016 3.60614 4.47925C4.11311 3.78043 4.73312 3.33439 5.63043 3.02311C6.28043 2.79766 7.43837 2.78338 22.713 2.8125L39.0984 2.84384L39.8874 3.23068ZM16.9211 5.94938C16.5484 6.28187 16.4706 6.45158 16.4706 6.93409C16.4706 7.41661 16.5484 7.58632 16.9211 7.91881L17.3714 8.32062H22.4443C27.9472 8.32062 28.1119 8.29982 28.4486 7.56191C28.7732 6.85049 28.5391 6.07514 27.9001 5.74515C27.5893 5.58472 26.5636 5.54757 22.4443 5.54757H17.3714L16.9211 5.94938ZM11.7233 16.7773C10.9493 17.0892 10.7271 18.2723 11.3143 18.9545C11.6352 19.3273 11.7093 19.3455 13.0917 19.39L14.5345 19.4366L15.6698 25.6987C16.7936 31.8973 16.8094 31.9648 17.2271 32.3422L17.6491 32.7235H24.6405C31.4827 32.7235 31.6397 32.7174 31.9945 32.4387C32.1939 32.2822 32.4211 31.9234 32.4992 31.6415C32.7056 30.8976 34.03 22.0003 34.03 21.358C34.03 20.9838 33.9259 20.6939 33.695 20.4258L33.3599 20.0368L25.401 19.9675L17.4421 19.8981L17.2147 18.6591C17.0181 17.5875 16.9283 17.3673 16.5502 17.03L16.1128 16.6398L14.0668 16.6485C12.9415 16.6534 11.887 16.7113 11.7233 16.7773ZM31.0498 23.0525C31.0115 23.2241 30.7899 24.6435 30.5572 26.2068C30.3244 27.7702 30.0974 29.2528 30.0528 29.5015L29.9716 29.9537L24.6089 29.9175L19.2461 29.8811L18.6786 26.7615C18.3664 25.0456 18.0703 23.4389 18.0203 23.1911L17.9293 22.7405H24.5243H31.1193L31.0498 23.0525ZM42.6948 34.5815C42.1754 35.1002 42.0982 35.5471 42.4206 36.1697C43.0724 37.4283 44.9999 36.8683 44.9999 35.4203C44.9999 34.8814 44.1826 34.1101 43.6113 34.1101C43.2911 34.1101 43.035 34.2418 42.6948 34.5815ZM21.1657 35.6276C20.3893 35.9573 20.1698 37.1298 20.7569 37.8113C21.0352 38.1343 21.2022 38.2003 21.741 38.2003C22.571 38.2003 23.0602 37.7118 23.0602 36.8831C23.0602 35.9138 22.057 35.2491 21.1657 35.6276ZM27.6578 35.6901C26.454 36.3564 26.9577 38.2696 28.3368 38.2696C29.0404 38.2696 29.7254 37.5923 29.7254 36.8966C29.7254 35.8556 28.5733 35.1834 27.6578 35.6901ZM13.8764 43.0602C11.2545 43.8751 9.85757 46.9311 10.9647 49.4304C11.3504 50.301 12.4062 51.3715 13.3225 51.821L14.1037 52.2043H22.5047H30.9057L31.6869 51.821C32.6126 51.3669 33.6551 50.3037 34.0686 49.392C34.5256 48.3842 34.4984 46.6391 34.0095 45.5977C33.5412 44.6005 32.6887 43.7492 31.69 43.2817L30.9057 42.9145L22.713 42.8873C15.9074 42.8647 14.4113 42.894 13.8764 43.0602ZM30.6639 45.8949C32.0142 46.7168 31.9516 48.5434 30.5487 49.2576C30.1127 49.4797 29.4355 49.5001 22.5047 49.5001C15.574 49.5001 14.8968 49.4797 14.4608 49.2576C13.0579 48.5434 12.9952 46.7168 14.3455 45.8949C14.7828 45.6286 15.0591 45.6192 22.5047 45.6192C29.9503 45.6192 30.2267 45.6286 30.6639 45.8949ZM42.1988 62.4992C42.1587 64.7914 42.1187 65.1736 41.8609 65.73C41.4334 66.6524 40.7812 67.3242 39.8874 67.7625L39.0984 68.1493H22.5047H5.91106L5.12206 67.7625C4.22822 67.3242 3.576 66.6524 3.1486 65.73C2.89073 65.1736 2.85074 64.7914 2.81061 62.4992L2.76507 59.8995H22.5047H42.2444L42.1988 62.4992ZM21.8257 62.8661C20.6219 63.5323 21.1256 65.4456 22.5047 65.4456C23.2083 65.4456 23.8933 64.7683 23.8933 64.0725C23.8933 63.0315 22.7412 62.3593 21.8257 62.8661Z" fill="#E49B00"/>
</svg>
