<svg width="70" height="71" viewBox="0 0 70 71" fill="none" xmlns="http://www.w3.org/2000/svg">
<path fill-rule="evenodd" clip-rule="evenodd" d="M13.6645 70.7758C12.4795 70.3465 11.6836 69.5944 11.2174 68.4635C11.0329 68.016 10.9769 67.9782 10.6394 68.074C10.4338 68.1322 9.86524 68.1765 9.37591 68.1723C7.8321 68.1589 6.54767 67.3442 5.87562 65.9519C5.53986 65.2563 5.48539 65.2073 5.15155 65.3024C4.95308 65.359 4.39025 65.4017 3.90093 65.3975C2.34275 65.384 1.07447 64.5708 0.38188 63.1412L0 62.3529L0.00123187 53.0574C0.00246374 43.9715 0.00930745 43.7313 0.304957 42.4079C0.726531 40.5202 1.32549 38.7727 2.01411 37.4211L2.60062 36.2699L2.66906 28.015C2.7067 23.4747 2.7869 19.6597 2.84727 19.537C2.93377 19.3614 2.79785 19.2351 2.20656 18.9418C0.766909 18.2279 0.00561186 16.9513 0.00561186 15.251C0.00561186 13.5543 0.767045 12.2739 2.19807 11.5642C2.88436 11.2239 2.93268 11.1687 2.83892 10.8303C2.78307 10.6291 2.74091 10.0586 2.74502 9.56265C2.7583 7.99781 3.56203 6.69588 4.93556 6.01467C5.62185 5.67435 5.67017 5.61913 5.57641 5.28074C5.52056 5.07957 5.47841 4.50908 5.48251 4.01308C5.49593 2.43368 6.29815 1.14812 7.70851 0.4461C8.44681 0.0785802 8.59942 0.0566574 10.7217 0.0122609C13.197 -0.0396276 13.64 0.0536064 13.9676 0.695969C14.2094 1.16962 14.2189 1.52494 14.003 2.00525C13.715 2.64595 13.2705 2.76443 11.1553 2.76443C9.04002 2.76443 8.59559 2.88291 8.30761 3.52361C8.10079 3.98367 8.10079 4.31998 8.30761 4.78004C8.58642 5.4002 9.05754 5.53922 10.8815 5.53922C12.7055 5.53922 13.1766 5.67823 13.4555 6.29839C13.6623 6.75845 13.6623 7.09476 13.4555 7.55482C13.1438 8.2481 12.8017 8.314 9.51279 8.314C6.22383 8.314 5.88178 8.3799 5.57011 9.07318C5.3633 9.53324 5.3633 9.86955 5.57011 10.3296C5.88178 11.0229 6.22383 11.0888 9.51279 11.0888C12.8017 11.0888 13.1438 11.1547 13.4555 11.848C13.6623 12.308 13.6623 12.6443 13.4555 13.1044C13.1282 13.8325 12.911 13.8636 8.14404 13.8636C3.37711 13.8636 3.15989 13.8946 2.83262 14.6227C2.6258 15.0828 2.6258 15.4191 2.83262 15.8792C3.15989 16.6073 3.37711 16.6384 8.14404 16.6384C12.911 16.6384 13.1282 16.6694 13.4555 17.3975C13.6623 17.8576 13.6623 18.1939 13.4555 18.654C13.1438 19.3472 12.8017 19.4131 9.51279 19.4131C6.22383 19.4131 5.88178 19.479 5.57011 20.1723C5.24736 20.8903 5.51139 21.7247 6.15553 22.0221C6.41901 22.1439 8.40232 22.1879 13.619 22.1879C18.8357 22.1879 20.819 22.2319 21.0825 22.3537C21.5922 22.589 21.8315 23.1544 21.8315 24.1233V24.9627L23.9873 24.9603C26.5834 24.9574 27.6429 24.7594 29.1836 23.9897C30.5515 23.3063 31.8036 22.1129 32.6276 20.707C32.9512 20.155 33.3488 19.6627 33.5443 19.5725C33.7865 19.4606 35.5989 19.4131 39.6316 19.4131H45.3739V12.9261C45.3739 9.34109 45.4309 6.23791 45.5012 5.98915L45.6285 5.53922H41.1414H36.6542L35.0942 4.7964C32.0848 3.36337 30.2493 2.90747 27.1012 2.81119C25.8967 2.77442 24.7389 2.67758 24.5283 2.59614C24.1202 2.43811 23.7477 1.85638 23.7477 1.37704C23.7477 0.886041 24.1235 0.315407 24.5702 0.127832C24.8879 -0.00549666 25.5717 -0.0295002 27.2799 0.0325163C30.6699 0.155578 32.9902 0.713173 35.6558 2.04521L36.9562 2.69506L43.7314 2.76457C47.4579 2.80272 50.6095 2.88555 50.7353 2.94854C50.9175 3.03983 51.0174 2.94007 51.2288 2.45574C51.3745 2.12179 51.6917 1.62011 51.9335 1.34083C53.0471 0.0552727 55.1798 -0.340135 56.7594 0.4461C57.638 0.883406 58.2938 1.56739 58.6773 2.44616C58.9166 2.99432 58.9687 3.03511 59.3078 2.93882C59.511 2.88097 60.0796 2.83533 60.5711 2.83727C62.134 2.84337 63.5163 3.76349 64.1523 5.22095C64.3916 5.76911 64.4437 5.80989 64.7828 5.71361C64.986 5.65575 65.5546 5.61011 66.0461 5.61205C67.6187 5.6183 68.9661 6.52093 69.6547 8.02945C69.9368 8.64725 69.9438 8.85009 69.9832 17.4708C70.0222 26.0109 70.0144 26.3318 69.7256 27.9456C69.3527 30.0288 68.8143 31.7249 67.9862 33.4233L67.3423 34.7438L67.2739 42.9988C67.2362 47.539 67.1545 51.358 67.0924 51.4855C67.0022 51.6701 67.1005 51.7714 67.5784 51.9856C67.9079 52.1334 68.4028 52.4548 68.6783 52.7C69.9466 53.8288 70.3367 55.9905 69.5611 57.5917C69.1296 58.4822 68.4548 59.1469 67.5879 59.5357C67.0471 59.7782 67.0068 59.8311 67.1018 60.1747C67.1589 60.3807 67.2039 60.9571 67.202 61.4553C67.196 63.0394 66.2882 64.4405 64.8504 65.0852C64.3096 65.3278 64.2693 65.3806 64.3643 65.7243C64.4214 65.9303 64.4664 66.5066 64.4645 67.0048C64.4584 68.5988 63.5679 69.9646 62.0796 70.6626C61.466 70.9504 61.3209 70.9547 52.3545 70.9543C43.3609 70.9541 43.2353 70.9502 41.8152 70.6344C39.9436 70.2183 38.1813 69.6034 36.8193 68.8913L35.7243 68.3187L27.5802 68.2493C23.101 68.2112 19.3334 68.1284 19.2076 68.0654C19.0254 67.9739 18.9255 68.0735 18.7142 68.558C17.8766 70.4772 15.6 71.4771 13.6645 70.7758ZM15.6523 68.0516C16.3261 67.6984 16.3565 67.4667 16.3565 62.6863C16.3565 57.869 16.3875 57.6476 17.1055 57.316C17.5594 57.1064 17.8912 57.1064 18.345 57.316C19.029 57.6319 19.094 57.9786 19.094 61.3124C19.094 64.6461 19.159 64.9928 19.843 65.3088C20.5513 65.6359 21.3745 65.3683 21.6679 64.7154C21.7881 64.4483 21.8315 62.438 21.8315 57.1502C21.8315 51.8624 21.8749 49.8521 21.9951 49.585C22.2282 49.0663 22.7858 48.8258 23.7557 48.8258H24.5986L24.5415 46.2245C24.4895 43.852 24.4529 43.5336 24.1258 42.6055C23.411 40.5775 22.079 38.9115 20.3305 37.8586C19.8162 37.5488 19.339 37.1487 19.2513 36.9535C19.1408 36.7079 19.094 34.8709 19.094 30.7832V24.9627H12.6942C9.15732 24.9627 6.09585 24.905 5.85043 24.8337L5.40655 24.7047V30.6405V36.5763L4.66838 38.1574C3.89135 39.8221 3.36438 41.3158 2.9851 42.9294C2.78773 43.7694 2.74995 45.0889 2.70546 52.6981C2.66673 59.3102 2.69465 61.595 2.8177 61.896C3.10705 62.6043 3.97498 62.8833 4.70233 62.5021C5.2835 62.1974 5.40655 61.7473 5.40655 59.925C5.40655 58.1026 5.5296 57.6526 6.11077 57.3479C6.58819 57.0976 6.9624 57.0976 7.43982 57.3479C8.08395 57.6856 8.14404 58.0234 8.14404 61.3124C8.14404 64.6013 8.20413 64.9392 8.84826 65.2768C9.30843 65.518 9.66061 65.5269 10.1326 65.3088C10.8165 64.9928 10.8815 64.6461 10.8815 61.3124C10.8815 57.9786 10.9465 57.6319 11.6305 57.316C12.0844 57.1064 12.4162 57.1064 12.87 57.316C13.588 57.6476 13.6186 57.8672 13.6238 62.7275C13.629 67.5161 13.6505 67.6805 14.3185 68.0557C14.7473 68.2966 15.1873 68.2953 15.6523 68.0516ZM61.0499 68.0835C61.4422 67.9023 61.7989 67.3206 61.7989 66.8619C61.7989 66.4033 61.4422 65.8215 61.0499 65.6403C60.8358 65.5414 60.0334 65.4745 59.0614 65.4745C57.2636 65.4745 56.8195 65.3498 56.519 64.7607C56.2811 64.2943 56.2723 63.9373 56.4875 63.4589C56.7989 62.7661 57.1421 62.6998 60.4169 62.6998C63.6757 62.6998 64.0081 62.6393 64.3413 61.986C64.5883 61.502 64.5883 61.1227 64.3413 60.6388C64.0082 59.9859 63.6749 59.925 60.4301 59.925C57.1854 59.925 56.8521 59.8641 56.519 59.2112C56.2811 58.7447 56.2723 58.3877 56.4875 57.9094C56.8146 57.1816 57.0331 57.1502 61.7856 57.1502C66.5018 57.1502 66.7304 57.1194 67.0788 56.4364C67.3167 55.9699 67.3255 55.613 67.1103 55.1346C66.783 54.4065 66.5658 54.3754 61.7989 54.3754C57.032 54.3754 56.8147 54.3443 56.4875 53.6162C56.2807 53.1562 56.2807 52.8199 56.4875 52.3598C56.7991 51.6665 57.1412 51.6006 60.4301 51.6006C63.7191 51.6006 64.0612 51.5347 64.3728 50.8414C64.5796 50.3814 64.5796 50.0451 64.3728 49.585C64.0304 48.8231 64.0601 48.8258 56.3239 48.8258C48.5878 48.8258 48.6175 48.8286 48.275 48.0667C48.1851 47.8666 48.1114 47.3245 48.1114 46.862V46.0211L45.545 46.0807C43.3382 46.1319 42.8539 46.184 42.0889 46.4519C40.0872 47.1531 38.3239 48.5858 37.2881 50.3532C36.9852 50.8702 36.5908 51.3526 36.3987 51.4412C36.1564 51.5532 34.344 51.6006 30.3113 51.6006H24.569V58.0877C24.569 61.6727 24.5121 64.7759 24.4417 65.0246L24.3144 65.4745H30.1934H36.0725L37.1303 66.0099C39.23 67.0727 41.2067 67.746 43.1155 68.0484C44.6489 68.2914 60.5325 68.3226 61.0499 68.0835ZM35.6365 47.868C37.158 45.7941 39.1067 44.4506 41.7201 43.674C42.5238 43.4353 43.202 43.3688 45.4082 43.3126L48.1114 43.2438V39.3945V35.545L47.1613 34.8289C44.817 33.0619 43.2372 30.4054 42.7788 27.46C42.7016 26.964 42.6381 25.575 42.6375 24.3731L42.6364 22.1879H38.8227H35.0091L34.3179 23.1244C32.7525 25.2457 30.981 26.4954 28.4421 27.2698C27.3656 27.5981 26.9516 27.644 24.5348 27.7035L21.8315 27.77V31.6193V35.4687L22.7765 36.181C24.8225 37.7232 26.148 39.6985 26.9141 42.3474C27.1496 43.1621 27.2152 43.8495 27.2706 46.0857L27.3385 48.8258H31.1361H34.9338L35.6365 47.868ZM65.3227 32.693C66.0645 31.148 66.5526 29.7656 66.95 28.0843C67.1489 27.2427 67.187 25.9394 67.2351 18.3178C67.277 11.675 67.2503 9.42378 67.1261 9.1198C66.7202 8.12643 65.2206 8.06885 64.7314 9.02781C64.5941 9.29696 64.5364 9.90728 64.5364 11.0888C64.5364 12.9376 64.3992 13.4152 63.7874 13.6978C63.3335 13.9074 63.0017 13.9074 62.5479 13.6978C61.8639 13.3819 61.7989 13.0352 61.7989 9.70139C61.7989 6.36763 61.7339 6.02092 61.0499 5.70501C60.596 5.49537 60.2643 5.49537 59.8104 5.70501C59.1264 6.02092 59.0614 6.36763 59.0614 9.70139C59.0614 13.0352 58.9964 13.3819 58.3124 13.6978C57.8586 13.9074 57.5268 13.9074 57.0729 13.6978C56.3546 13.366 56.3239 13.1459 56.3239 8.314C56.3239 3.48213 56.2933 3.26195 55.5749 2.93023C55.1211 2.72059 54.7893 2.72059 54.3354 2.93023C53.6171 3.26195 53.5864 3.48213 53.5864 8.314C53.5864 11.8971 53.5484 12.8422 53.3914 13.1498C52.9203 14.0731 51.5151 14.0731 51.044 13.1498C50.8924 12.8527 50.8489 12.0837 50.8489 9.70139C50.8489 6.36763 50.7839 6.02092 50.0999 5.70501C49.6461 5.49537 49.3143 5.49537 48.8604 5.70501C48.1087 6.05213 48.1114 6.02203 48.1114 13.8636C48.1114 21.7051 48.1142 21.675 47.3625 22.0221C47.1651 22.1133 46.6369 22.1879 46.1888 22.1879H45.3739L45.3763 24.3731C45.3791 27.0045 45.5745 28.0785 46.3338 29.6402C47.0104 31.0317 48.1959 32.307 49.5674 33.1189C50.1344 33.4547 50.5891 33.8319 50.6859 34.0472C50.8038 34.3096 50.8489 36.0224 50.8489 40.2305V46.0511L57.3163 46.0649C60.8733 46.0726 63.9376 46.1222 64.1258 46.1752L64.468 46.2718L64.5364 40.2304L64.6048 34.1889L65.3227 32.693ZM18.4247 2.98697C17.2381 2.32033 17.7346 0.405865 19.094 0.405865C19.7876 0.405865 20.4628 1.08361 20.4628 1.7798C20.4628 2.82146 19.3271 3.49406 18.4247 2.98697Z" fill="#E49B00"/>
</svg>
