<svg width="70" height="71" viewBox="0 0 70 71" fill="none" xmlns="http://www.w3.org/2000/svg">
<path fill-rule="evenodd" clip-rule="evenodd" d="M34.2895 0.190594C33.6828 0.531323 33.6003 0.888416 33.5951 3.19753L33.5903 5.35797L26.9885 7.14496C21.2642 8.69454 20.3367 8.98188 20.0105 9.30749C19.7683 9.54934 19.6342 9.82919 19.6342 10.0934C19.6342 10.3191 21.1482 16.2307 22.9985 23.2302L26.3628 35.9567L23.4597 38.9015L20.5567 41.8462L20.1544 41.3821C19.9333 41.1268 19.4025 40.7437 18.975 40.5309L18.1976 40.144H10.6039C3.17144 40.144 2.99686 40.1502 2.38744 40.436C1.47715 40.8629 0.81424 41.5142 0.381739 42.4069L0 43.1948V55.5371C0 67.7935 0.00205234 67.8838 0.288151 68.5105C0.709296 69.4331 1.35196 70.105 2.23269 70.5433L3.01013 70.9302H10.6039H18.1976L18.975 70.5433C19.853 70.1063 20.5088 69.4225 20.8918 68.5451C21.0349 68.217 21.1812 67.9487 21.2167 67.9487C21.2523 67.9487 21.7777 68.3834 22.3843 68.9147C22.9909 69.446 23.8056 70.0369 24.1946 70.2278C25.8474 71.0392 24.6394 70.9996 47.7187 70.9996C70.7547 70.9996 69.4609 71.0439 69.822 70.2407C70.0594 69.7126 70.0594 1.28392 69.822 0.755841C69.4632 -0.0423831 70.3955 -0.00341484 51.7605 0.00185488C37.7928 0.00587651 34.5559 0.0408231 34.2895 0.190594ZM67.249 35.4983V68.226H62.3771C57.7929 68.226 57.5107 68.2117 57.5982 67.9833C57.956 67.0498 57.9595 65.5278 57.6059 64.6063C57.5356 64.4228 57.6616 64.3691 58.3271 64.2986C60.0173 64.1195 61.4285 63.0928 62.1285 61.5326C62.4459 60.8254 62.5158 60.479 62.5132 59.6281C62.5112 58.9827 62.4262 58.3929 62.2893 58.0738L62.0684 57.5596L62.7977 57.2212C63.7359 56.7859 64.5823 55.9222 65.0396 54.9336C65.3426 54.2785 65.4019 53.957 65.4019 52.9687C65.4019 51.9157 65.3534 51.6873 64.9572 50.8714L64.5125 49.956V41.0014V32.0469L64.2044 31.6838C63.4977 30.8511 62.2185 31.1849 61.9183 32.2803C61.8295 32.6042 61.7773 35.6673 61.7769 40.5668L61.776 48.3395L61.2971 48.2829C61.0338 48.2517 60.8189 48.2174 60.8198 48.2068C60.8206 48.196 60.9129 47.8809 61.025 47.5065C61.2991 46.5908 61.2815 45.9631 60.9519 44.8813C60.6018 43.7322 59.6412 42.6152 58.5289 42.0637C57.8559 41.7299 57.5618 41.6756 56.1474 41.6245L54.5337 41.5662L55.3168 41.0531C57.4782 39.6372 58.663 36.9867 58.2432 34.5058C57.7567 31.63 55.6044 29.4486 52.7671 28.9555C48.5393 28.2207 44.6178 32.2015 45.3314 36.5037C45.6445 38.3916 46.7094 40.038 48.2848 41.07L49.0938 41.6001H45.4468H41.7997V28.4215C41.7997 15.9937 41.8134 15.2381 42.0392 15.1617C44.2199 14.424 45.8949 12.7897 46.4602 10.8485L46.6319 10.2591H51.7879H56.9438L57.1155 10.8485C57.6809 12.7897 59.3559 14.424 61.5366 15.1617C61.7502 15.234 61.7762 15.4641 61.7769 17.2926C61.7779 20.276 62.02 20.8679 63.2389 20.8679C63.7411 20.8679 63.9119 20.7974 64.1824 20.4787C64.5116 20.0909 64.5125 20.0799 64.5125 16.7585V13.4273L64.1126 13.0219C63.8276 12.7331 63.5791 12.6166 63.248 12.6166C61.3022 12.6166 59.7992 11.1487 59.518 8.9737C59.4669 8.57819 59.3033 8.16022 59.1111 7.93362L58.7896 7.55489H51.7879H44.7862L44.4646 7.93362C44.2724 8.16022 44.1089 8.57819 44.0577 8.9737C43.7766 11.1487 42.2735 12.6166 40.3278 12.6166C39.9967 12.6166 39.7482 12.7331 39.4632 13.0219L39.0632 13.4273V27.5137V41.6001H37.695H36.3268V22.1853V2.77054H51.7879H67.249V35.4983ZM33.5903 10.8016V13.4243L33.0351 13.5194C32.7297 13.5717 32.3141 13.759 32.1115 13.9357C31.7519 14.2494 31.7432 14.2943 31.7432 15.829C31.7432 17.2822 31.7157 17.4481 31.3791 18.025C30.8717 18.8948 30.3708 19.3379 29.4172 19.7607C28.4839 20.1744 28.1247 20.5529 28.1203 21.1273C28.1181 21.414 32.7139 39.0218 33.4005 41.3574C33.4652 41.5772 33.3425 41.6001 32.0997 41.6001H30.7275L30.5955 41.08C30.5227 40.7941 30.2111 39.5615 29.9029 38.3412C29.5946 37.1208 29.2813 35.9771 29.2069 35.7995C29.071 35.476 22.8363 11.9462 22.7557 11.4527C22.7176 11.2194 23.1859 11.0612 26.9543 10.0344C30.5331 9.05926 33.4193 8.25479 33.5561 8.19405C33.5748 8.18573 33.5903 9.35908 33.5903 10.8016ZM33.5806 25.5482L33.5709 31.2686L32.3385 26.6933L31.1062 22.118L31.4248 21.9178C31.5999 21.8077 32.1434 21.299 32.6325 20.7876C33.1217 20.2761 33.5373 19.851 33.5561 19.8426C33.5748 19.8345 33.5859 22.4021 33.5806 25.5482ZM62.597 25.1293C61.7532 25.5735 61.6585 26.7662 62.414 27.4352C62.7155 27.7021 62.8854 27.7483 63.3398 27.6865C64.867 27.4789 64.9326 25.2384 63.4179 25.0187C63.1538 24.9803 62.7857 25.03 62.597 25.1293ZM53.4132 32.0228C54.2288 32.4446 54.7063 32.9128 55.1423 33.7186C55.484 34.3505 55.5423 34.6096 55.5423 35.4983C55.5423 36.3869 55.484 36.6461 55.1423 37.2779C54.3977 38.6542 53.3293 39.2973 51.7879 39.2973C50.2464 39.2973 49.1781 38.6542 48.4335 37.2779C48.0905 36.644 48.0338 36.3898 48.036 35.4983C48.0388 34.413 48.1957 33.9488 48.867 33.0398C49.233 32.5442 50.2066 31.9142 50.8755 31.7403C51.526 31.5711 52.8176 31.7149 53.4132 32.0228ZM27.8374 41.392C28.3226 43.2875 28.4645 43.6665 28.8109 43.9922L29.2163 44.3736L43.0675 44.3739C55.9841 44.374 56.9504 44.3904 57.3879 44.6166C58.0934 44.9811 58.4238 45.5228 58.4238 46.3151C58.4238 47.1073 58.0934 47.649 57.3879 48.0136C56.9586 48.2355 56.2984 48.2561 49.6192 48.2563L42.3197 48.2566L41.8545 48.7281C41.5192 49.0678 41.3893 49.3235 41.3893 49.6433C41.3893 49.9631 41.5192 50.2188 41.8545 50.5586L42.3197 51.0301L51.8084 51.0306C61.0354 51.0311 61.3095 51.0387 61.7431 51.3068C63.0339 52.1044 63.0339 53.8387 61.7431 54.6364C61.3095 54.9044 61.0354 54.9121 51.8084 54.9125L42.3197 54.913L41.8545 55.3845C41.2233 56.0243 41.2233 56.5754 41.8545 57.2151L42.3197 57.6866L50.3033 57.6869C59.1143 57.687 58.8566 57.6625 59.5087 58.5634C59.8952 59.0976 59.8952 60.1585 59.5087 60.6927C58.8566 61.5937 59.1143 61.5691 50.3033 61.5693L42.3197 61.5695L41.8545 62.041C41.5192 62.3808 41.3893 62.6365 41.3893 62.9563C41.3893 63.2761 41.5192 63.5318 41.8545 63.8716L42.3197 64.3431H47.9475C54.1456 64.3431 54.2198 64.3522 54.804 65.1836C55.5148 66.1955 55.0147 67.7529 53.8709 68.0898C53.5162 68.1943 49.2419 68.2273 39.8158 68.1983C26.4098 68.1571 26.2639 68.1536 25.6545 67.867C25.3159 67.7078 24.1923 66.8365 23.1575 65.9309L21.2761 64.2844V54.7115V45.1387L24.2458 42.1265C25.879 40.4697 27.2276 39.1275 27.2423 39.1437C27.2573 39.1599 27.5249 40.1717 27.8374 41.392ZM9.23562 50.9677C9.23562 59.6565 9.23685 59.6737 9.91221 60.0399C10.2502 60.2233 10.9575 60.2233 11.2955 60.0399C11.9709 59.6737 11.9721 59.6565 11.9721 50.9677V42.8482H14.7021C17.6621 42.8482 18.016 42.9175 18.3447 43.5616C18.6361 44.1329 18.6361 66.9413 18.3447 67.5125C17.9829 68.2216 17.9354 68.226 10.6039 68.226C3.27228 68.226 3.2248 68.2216 2.86304 67.5125C2.58351 66.9648 2.57968 44.0675 2.85907 43.5568C3.20921 42.9162 3.50639 42.8583 6.46493 42.853L9.23562 42.8482V50.9677ZM9.93479 62.8725C8.74866 63.5389 9.24492 65.4525 10.6039 65.4525C11.2971 65.4525 11.9721 64.775 11.9721 64.0792C11.9721 63.038 10.8369 62.3657 9.93479 62.8725Z" fill="#E49B00"/>
</svg>
