<svg width="71" height="71" viewBox="0 0 71 71" fill="none" xmlns="http://www.w3.org/2000/svg">
<path fill-rule="evenodd" clip-rule="evenodd" d="M38.8641 0.167824C37.7864 0.469815 37.0734 0.927104 36.1849 1.88609C34.9912 3.17427 34.771 3.86722 34.7701 6.33824C34.7692 8.40999 34.753 8.32284 35.4468 9.9602C35.5205 10.1344 35.3526 10.2534 34.6659 10.5139C34.1846 10.6966 33.753 10.8644 33.7067 10.887C33.6604 10.9095 33.5835 10.5985 33.5357 10.1956C33.335 8.50228 32.0521 6.85563 30.28 6.01696C29.4276 5.61338 29.2314 5.57563 28.0267 5.58354C26.1609 5.59576 25.3531 5.93008 24.0549 7.22715C22.7473 8.53365 22.4551 9.26864 22.3651 11.4768C22.2952 13.1922 22.5077 14.4425 23.0153 15.3021L23.271 15.7352L22.5257 15.97C20.8057 16.5117 18.9096 18.1903 18.0131 19.9645C17.2896 21.3967 17.197 22.1209 17.1948 26.3646C17.1925 30.5848 17.2368 30.8544 17.9848 31.1626C18.2741 31.282 24.039 31.3135 40.559 31.2863L62.7449 31.2498L63.1299 30.8652L63.5151 30.4806L63.5565 26.7765C63.6039 22.5348 63.4715 21.506 62.6752 19.9261C61.8007 18.191 60.0064 16.5983 58.2217 15.9728L57.5119 15.7241L57.8592 14.9662C58.5984 13.3529 58.5942 10.4107 57.8503 8.79859C57.3246 7.65918 56.3634 6.70033 55.1428 6.0976C54.1357 5.60034 54.02 5.57536 52.7577 5.58354C50.9992 5.59506 50.1358 5.92662 48.9299 7.05367C47.9462 7.97311 47.4193 8.88768 47.1836 10.0852L47.0282 10.8739L46.0922 10.5169L45.156 10.1599L45.5002 9.4084C46.2366 7.80143 46.2309 4.85646 45.4884 3.24727C44.6367 1.40146 42.745 0.118001 40.7199 0.0119705C39.9953 -0.026056 39.3673 0.0266815 38.8641 0.167824ZM41.9727 3.24533C42.2855 3.46475 42.6978 3.92259 42.8888 4.26261C43.1978 4.81302 43.236 5.04132 43.236 6.33824C43.236 7.63517 43.1978 7.86347 42.8888 8.41388C41.7116 10.5101 38.7223 10.3938 37.7308 8.21306C37.4404 7.57424 37.3776 5.64183 37.619 4.77319C37.8073 4.09552 38.5021 3.31098 39.2067 2.97998C40.0176 2.59916 41.2155 2.71407 41.9727 3.24533ZM29.6108 8.79664C29.9236 9.01606 30.3359 9.4739 30.5269 9.81392C30.8359 10.3643 30.8741 10.5926 30.8741 11.8896C30.8741 13.1865 30.8359 13.4148 30.5269 13.9652C29.3497 16.0614 26.3604 15.9451 25.3689 13.7644C25.0785 13.1256 25.0157 11.1931 25.2571 10.3245C25.4454 9.64683 26.1402 8.86229 26.8448 8.53129C27.6557 8.15047 28.8536 8.26538 29.6108 8.79664ZM54.3346 8.79664C54.6474 9.01606 55.0597 9.4739 55.2507 9.81392C55.5603 10.3654 55.5976 10.5901 55.5956 11.8896C55.5929 13.4591 55.3886 14.0948 54.672 14.7626C53.2747 16.065 50.9258 15.5519 50.097 13.7631C49.8021 13.1267 49.7371 11.2017 49.9809 10.3245C50.1692 9.64683 50.864 8.86229 51.5686 8.53129C52.3795 8.15047 53.5774 8.26538 54.3346 8.79664ZM45.1221 13.1068C45.5484 13.2782 46.1661 13.6483 46.4947 13.9295C47.0735 14.4246 47.8891 15.4287 47.8891 15.6464C47.8891 15.7051 47.572 15.8583 47.1846 15.987C45.4809 16.5524 43.6201 18.2165 42.737 19.9645C42.0466 21.3311 41.9208 22.1854 41.9186 25.525L41.9165 28.5435H40.3886H38.8607V25.762C38.8607 22.5393 38.6778 21.3672 37.9489 19.9212C37.0908 18.2185 35.3365 16.6488 33.5479 15.9832C33.185 15.8482 32.8881 15.6765 32.8881 15.6017C32.8881 15.3733 33.8099 14.1977 34.2336 13.8855C34.8162 13.4567 35.7248 13.0148 36.3236 12.8692C36.6114 12.7993 38.5343 12.754 40.597 12.7686C44.1272 12.7936 44.3926 12.8134 45.1221 13.1068ZM32.8187 18.6817C33.9635 19.1362 35.2213 20.394 35.6722 21.535C35.9762 22.3042 36.0053 22.603 36.0536 25.4556L36.1058 28.5435H28.0289H19.9519L19.9959 25.3862L20.0401 22.2289L20.4718 21.3268C21.1613 19.8864 22.4894 18.7803 23.9634 18.4193C24.2502 18.3491 26.1724 18.3049 28.2351 18.3212C31.8247 18.3496 32.021 18.365 32.8187 18.6817ZM57.5425 18.6817C58.6873 19.1362 59.9451 20.394 60.396 21.535C60.7001 22.3042 60.7291 22.603 60.7774 25.4556L60.8296 28.5435H52.7527H44.6757L44.7197 25.3862L44.7639 22.2289L45.1956 21.3268C45.8851 19.8864 47.2132 18.7803 48.6872 18.4193C48.974 18.3491 50.8962 18.3049 52.9589 18.3212C56.5485 18.3496 56.7448 18.365 57.5425 18.6817ZM24.971 36.3783C21.2175 37.187 18.3459 39.4395 16.704 42.863C16.438 43.4174 16.2204 43.9478 16.2204 44.0415C16.2204 44.1352 15.8784 44.3195 15.4605 44.4511L14.7006 44.6904L14.1383 44.0523C13.4229 43.24 12.6332 42.9217 11.5316 43.0013C10.7767 43.0559 10.411 43.2392 6.07516 45.7356C3.51916 47.2073 1.19221 48.6388 0.904272 48.9168C0.201311 49.5957 -0.13635 50.6395 0.051162 51.5542C0.146307 52.0179 1.68085 54.8015 5.23261 60.9527C8.0082 65.7596 10.4356 69.8598 10.627 70.0641C10.8184 70.2685 11.2933 70.5726 11.6823 70.7398C12.7621 71.2039 13.5772 71.0683 15.1592 70.1613C21.2025 66.696 23.4185 65.3927 23.6849 65.1462C24.2337 64.6389 24.5772 63.7378 24.5727 62.8165L24.5687 61.9725L25.9852 62.0483C29.3746 62.2297 38.8362 62.2806 40.3886 62.1257C43.8436 61.7811 48.1916 60.5603 48.9906 59.7105C49.6564 59.0023 49.2583 57.7419 48.2925 57.5001C47.9095 57.4043 47.6196 57.4615 46.7665 57.8017C45.4901 58.3106 43.5552 58.8437 41.7776 59.1759C40.6286 59.3907 39.704 59.4192 34.6244 59.3957C31.4158 59.3809 27.4781 59.3269 25.8738 59.2758L22.9569 59.1828L19.5539 53.2882C17.6823 50.0461 16.1332 47.3459 16.1116 47.2878C16.09 47.2296 16.5104 47.0438 17.0459 46.8749C18.1311 46.5327 18.4904 46.1937 18.7331 45.2833C19.2335 43.4063 20.9593 41.2064 22.751 40.1621C24.2358 39.2967 25.3258 39.0213 27.2628 39.023C29.9485 39.0251 31.5054 39.6775 33.5826 41.671L34.7633 42.8041L39.7207 44.4191C43.0971 45.5191 44.8076 46.1432 45.0849 46.3762C45.6369 46.8403 45.8538 47.4238 45.7758 48.2345C45.6966 49.0577 45.2912 49.6601 44.5931 49.9918C44.0734 50.2386 44.0252 50.2343 38.3479 49.4336C33.3412 48.7275 32.5726 48.649 32.1952 48.8052C31.7415 48.9929 31.3603 49.5637 31.3603 50.0548C31.3603 50.5329 31.7375 51.1157 32.1524 51.2785C32.366 51.3623 34.9473 51.7843 37.8885 52.2164C42.1004 52.8349 43.4573 52.9863 44.2778 52.9296C45.3873 52.8525 46.6335 52.4533 47.5419 51.8834C47.8474 51.6918 51.7332 48.8277 56.177 45.5188C60.6206 42.2098 64.4334 39.4103 64.6498 39.2976C65.2128 39.0042 66.2706 39.0385 66.9235 39.3713C68.104 39.9731 68.6086 41.5272 68.0041 42.6993C67.7248 43.241 67.001 43.8331 62.5527 47.1591C59.7315 49.2685 57.3407 51.1072 57.2398 51.245C56.5441 52.1957 57.7089 53.7165 58.8149 53.3015C59.4162 53.0758 69.1074 45.7606 69.7477 45.0491C70.6335 44.0647 70.9954 43.0641 70.9999 41.5875C71.0029 40.551 70.9503 40.293 70.57 39.4808C69.9918 38.2462 69.1755 37.3898 68.0493 36.8358C67.1989 36.4175 67.031 36.3849 65.7404 36.3857C64.5878 36.3865 64.2269 36.4415 63.6418 36.7054C63.253 36.8807 59.7215 39.4188 55.794 42.3456L48.653 47.6669L48.5018 47.022C48.1649 45.5862 47.332 44.4233 46.1404 43.7255C45.819 43.5374 43.444 42.7009 40.8623 41.8666C36.3318 40.4028 36.1511 40.3307 35.6741 39.8018C34.4317 38.4239 32.3188 37.1448 30.3623 36.5864C29.0361 36.2078 26.2597 36.1006 24.971 36.3783ZM16.9511 54.3224C21.6024 62.3708 21.8892 62.9062 21.6663 63.1225C21.3921 63.3887 13.2295 68.1056 12.8893 68.1944C12.7156 68.2399 11.517 66.2702 7.75555 59.7577C5.05648 55.0849 2.8412 51.1647 2.83259 51.0461C2.81592 50.8198 11.3681 45.7662 11.783 45.7573C11.9241 45.7542 13.7119 48.7172 16.9511 54.3224ZM52.462 54.7628C51.44 55.7841 52.4574 57.4826 53.821 57.0316C54.0344 56.9609 54.3541 56.6895 54.5315 56.4281C54.9398 55.8269 54.855 55.2654 54.2766 54.7387C53.6945 54.2087 53.0073 54.2179 52.462 54.7628Z" fill="#E49B00"/>
</svg>
