<svg width="72" height="71" viewBox="0 0 72 71" fill="none" xmlns="http://www.w3.org/2000/svg">
<path fill-rule="evenodd" clip-rule="evenodd" d="M36.9946 0.023648C25.0012 0.80145 15.7404 10.672 15.7572 22.6597C15.7587 23.763 15.823 25.1058 15.9002 25.6438C15.9773 26.1816 16.0107 26.6518 15.9741 26.6886C15.9376 26.7255 15.6245 26.5883 15.2785 26.3839C14.2246 25.7616 13.402 25.9698 12.9902 26.9632C12.808 27.4024 12.8131 27.5041 13.0401 27.9715C13.2518 28.4071 13.6534 28.7061 15.5196 29.8176C17.7858 31.1673 18.3016 31.3447 18.9472 30.9967C19.0972 30.9156 19.8971 29.8408 20.7243 28.6081C22.386 26.1321 22.496 25.7918 21.8748 25.0477C21.1597 24.1914 20.1542 24.4098 19.3631 25.5936L18.8687 26.3334L18.7533 25.783C18.6899 25.4803 18.6384 24.0526 18.639 22.6102C18.6397 20.5883 18.6994 19.7136 18.9 18.7904C19.7074 15.0735 21.411 11.7539 23.8365 9.17186C26.5772 6.254 29.8804 4.31595 33.6806 3.39597C40.526 1.73901 47.6515 3.86744 52.546 9.0311C55.0937 11.7189 56.791 14.9891 57.6293 18.8261C57.8278 19.7339 57.8828 20.6073 57.881 22.8229C57.8789 25.4455 57.8496 25.7743 57.4902 27.2096C56.6018 30.758 55.2511 33.3357 52.7841 36.1912C51.9395 37.169 51.7643 37.4561 51.7643 37.8632C51.7643 38.5191 52.1025 39.0038 52.6985 39.2019C53.3492 39.4184 53.7899 39.2269 54.6073 38.3724C58.5117 34.2909 60.7668 28.5965 60.7668 22.819C60.7668 20.4939 60.6131 19.1578 60.116 17.1649C57.933 8.41107 50.7396 1.74865 41.9179 0.309849C40.4704 0.0738288 38.2296 -0.0564428 36.9946 0.023648ZM33.478 8.21219C31.5139 8.90635 29.6072 10.071 28.2384 11.4124C27.1955 12.4345 27.1474 12.9089 27.9873 13.8869C29.0368 15.1089 29.0571 16.3583 28.0428 17.3224C27.4517 17.8842 26.7824 18.0252 25.8165 17.7918C24.4534 17.4622 23.9071 18.011 23.5708 20.0482C23.1095 22.8421 23.4553 26.2729 24.2823 27.1062C24.6197 27.4462 24.676 27.4552 25.8739 27.3597C26.7485 27.29 27.214 27.3116 27.4483 27.4334C28.0505 27.7463 28.5569 28.329 28.7036 28.8782C28.9243 29.7037 28.7345 30.3528 28.0437 31.1367C27.058 32.2553 27.2147 32.9634 28.7165 34.1752C31.0734 36.077 33.6515 37.3074 35.1117 37.2272C35.5589 37.2026 36.0996 36.5727 36.2746 35.8727C36.465 35.1102 37.1001 34.4403 37.8461 34.215C38.9967 33.8676 40.3098 34.6956 40.6281 35.9694C41.0237 37.5525 42.3321 37.6059 45.1595 36.1544C46.8366 35.2934 48.6953 33.9087 49.185 33.1556C49.5663 32.5691 49.4629 31.8594 48.9114 31.2778C48.2474 30.5772 48.1069 30.2595 48.1076 29.4592C48.1082 28.6477 48.4662 27.9803 49.1256 27.5611C49.5334 27.3019 49.7258 27.2795 50.8689 27.3571C52.0755 27.4392 52.1769 27.4245 52.534 27.1149C53.0994 26.6247 53.3327 25.5583 53.4145 23.0901C53.4699 21.417 53.4334 20.6888 53.2481 19.7664C52.9604 18.3358 52.8645 18.1416 52.3014 17.8482C51.9205 17.6497 51.7522 17.6428 51.0337 17.7964C49.9875 18.0203 49.3368 17.8462 48.6849 17.1686C48.3365 16.8063 48.1975 16.516 48.1441 16.0393C48.046 15.1626 48.1718 14.7575 48.7378 14.1263C49.7998 12.9415 49.6999 12.277 48.2773 11.0651C46.505 9.55544 43.8814 8.15747 42.3936 7.92981C41.6347 7.81386 41.0287 8.12529 40.8037 8.74717C40.2044 10.402 39.5771 10.9864 38.3998 10.9864C37.3301 10.9864 36.6338 10.3962 36.2189 9.13741C35.9496 8.3202 35.446 7.86361 34.8305 7.87836C34.5895 7.88417 33.9809 8.03443 33.478 8.21219ZM34.1058 11.3953C34.2418 11.8269 35.6724 13.1027 36.3967 13.4381C36.9338 13.687 37.3274 13.7479 38.4034 13.7491C39.6322 13.7505 39.8184 13.7127 40.6772 13.287C41.5631 12.8478 42.0083 12.4544 42.7203 11.4813L43.0305 11.0573L44.0941 11.616C44.6791 11.9232 45.3475 12.3378 45.5796 12.5374L46.0016 12.9001L45.6318 13.812C45.307 14.6125 45.269 14.8722 45.3202 15.9383C45.3704 16.9828 45.4451 17.2783 45.8538 18.0495C46.6617 19.5739 48.0796 20.5382 49.776 20.717L50.6472 20.8087L50.6079 22.5954L50.5687 24.3822L49.7247 24.4648C49.2605 24.5103 48.5821 24.6811 48.2172 24.8446C47.2971 25.2566 46.215 26.3218 45.7526 27.2704C45.407 27.9799 45.3641 28.2241 45.3643 29.4853C45.3645 30.6738 45.4156 31.0045 45.6808 31.5319C45.8548 31.878 45.9971 32.2082 45.9971 32.2661C45.9971 32.404 44.1045 33.5902 43.4338 33.8724C42.9121 34.092 42.9093 34.0913 42.7061 33.6954C42.3954 33.0899 41.279 32.1212 40.4655 31.7512C38.3488 30.7886 35.7279 31.4912 34.3793 33.3829L33.8788 34.0851L32.9398 33.6059C32.4236 33.3425 31.7348 32.931 31.4094 32.6918L30.8176 32.2567L31.158 31.5075C31.3451 31.0956 31.5394 30.406 31.5896 29.9751C31.7711 28.4203 30.9424 26.442 29.7146 25.4982C28.9828 24.9359 27.7392 24.4603 26.9899 24.4564C26.3748 24.4532 26.3345 24.4289 26.2514 24.0101C26.1421 23.4596 26.1394 21.5102 26.2473 21.105C26.3126 20.86 26.4677 20.7901 27.0898 20.7253C28.7704 20.5506 30.3366 19.4185 31.1219 17.811C31.5257 16.9843 31.5782 16.7425 31.5719 15.7382C31.5664 14.8489 31.4854 14.4072 31.2001 13.7117L30.8352 12.8222L31.4212 12.4159C32.1302 11.9244 33.6252 11.1353 33.8554 11.1312C33.9468 11.1296 34.0595 11.2484 34.1058 11.3953ZM37.4578 16.5163C35.8135 16.7584 34.0312 17.9935 33.1574 19.4963C31.7633 21.8941 32.2461 25.105 34.2902 27.0318C37.0393 29.6232 41.3771 29.1298 43.4585 25.9887C45.922 22.2709 43.7504 17.2383 39.3738 16.5228C38.8775 16.4415 38.4083 16.3827 38.3309 16.3918C38.2536 16.401 37.8607 16.457 37.4578 16.5163ZM39.3251 19.4167C40.7658 19.8499 41.6647 21.0695 41.6647 22.5912C41.6647 23.5937 41.3244 24.3337 40.5313 25.0558C38.9593 26.4871 36.4118 25.9386 35.5039 23.9735C34.5985 22.0142 35.6516 19.8601 37.7683 19.3407C38.4105 19.1831 38.575 19.1911 39.3251 19.4167ZM0.898561 36.4993C0.73525 36.5657 0.46616 36.7937 0.300739 37.0056L0 37.3909V50.1938C0 59.3254 0.0450125 63.0963 0.157262 63.3444C0.24363 63.5356 0.51272 63.7976 0.755084 63.9265C1.1481 64.1355 1.81358 64.1561 6.9246 64.117L12.6536 64.0732L13.0388 63.6849C13.3698 63.3512 13.4319 63.1564 13.4798 62.3028L13.5355 61.309H16.5547H19.574L19.9851 60.8946C20.5464 60.329 20.5466 59.6404 19.9861 59.0077L19.5759 58.5448L16.5398 58.4993L13.5037 58.4538V50.5256V42.5975H20.0827H26.6619L33.8326 45.5874C37.7767 47.2318 41.2078 48.733 41.4576 48.9234C42.1751 49.4704 42.6433 50.4067 42.7274 51.4628C42.7932 52.2882 42.7555 52.4706 42.346 53.3085C41.6227 54.7893 40.5128 55.4408 38.9148 55.3226C38.2332 55.2723 36.9928 54.8478 33.0685 53.3224C30.3291 52.2576 27.9997 51.3862 27.8923 51.3862C27.554 51.3862 26.8817 51.8021 26.7163 52.1136C26.4396 52.6345 26.5233 53.3725 26.9021 53.7544C27.1367 53.9908 29.5737 55.0028 34.5229 56.9189C38.5246 58.4682 42.1263 59.8318 42.5265 59.9488C44.748 60.5988 47.7634 60.7787 49.9524 60.392C50.6009 60.2774 54.3216 59.4482 58.2208 58.5492C62.1201 57.6502 65.6016 56.9152 65.9573 56.916C66.8166 56.9179 67.9422 57.4585 68.4308 58.1039C69.6924 59.7709 69.3666 61.7704 67.6281 63.0297C67.269 63.29 51.0375 67.5572 48.8104 67.9769C47.5506 68.2144 44.8714 68.1843 43.6762 67.9194C42.3463 67.6245 41.5158 67.324 35.8344 65.0812C33.1462 64.02 30.8484 63.1518 30.7285 63.1518C30.3824 63.1518 29.702 63.5542 29.5436 63.8527C29.2926 64.3253 29.3736 65.0919 29.7153 65.4784C30.1083 65.9228 40.5739 70.0915 42.3847 70.5248C44.1643 70.9508 46.0885 71.0956 47.8708 70.938C49.0769 70.8314 50.9677 70.4045 56.6694 68.9516C69.2909 65.7352 68.9684 65.8407 70.2552 64.5101C73.2308 61.4333 72.2706 56.4086 68.3627 54.6056C67.6478 54.2759 67.1874 54.1694 66.2527 54.1182C65.1159 54.0559 64.6937 54.1365 57.6722 55.7566C53.6105 56.6939 49.9118 57.5291 49.4527 57.6129C47.78 57.9179 44.5767 57.7049 43.2615 57.201C42.9464 57.0802 42.9583 57.0549 43.6854 56.2984C46.1144 53.7712 46.1915 49.9168 43.8645 47.3489C43.504 46.951 42.8791 46.4445 42.4761 46.2234C42.073 46.0024 38.4768 44.4582 34.4846 42.792L27.2259 39.7624H20.3649H13.5037L13.5032 38.6638C13.5026 37.4242 13.211 36.7402 12.5801 36.4985C12.1335 36.3275 1.31901 36.328 0.898561 36.4993ZM10.6905 50.2522V61.309H6.75187H2.81328V50.2522V39.1954H6.75187H10.6905V50.2522ZM47.3147 40.0136C46.2419 40.8895 46.7717 42.5202 48.1294 42.5202C48.598 42.5202 48.7733 42.4359 49.122 42.0425C49.4892 41.6283 49.5351 41.4878 49.4679 40.9829C49.3269 39.9237 48.1009 39.3719 47.3147 40.0136ZM24.2363 60.9569C23.2858 61.3597 23.0516 62.4474 23.7614 63.1627C24.4534 63.86 25.5222 63.7067 25.9635 62.8469C26.55 61.7039 25.4121 60.4587 24.2363 60.9569Z" fill="#E49B00"/>
</svg>
