<svg width="74" height="71" viewBox="0 0 74 71" fill="none" xmlns="http://www.w3.org/2000/svg">
<path fill-rule="evenodd" clip-rule="evenodd" d="M2.09014 0.100078C1.35471 0.320083 0.714313 0.864924 0.354303 1.57679L0 2.2776V8.03867C0 11.3648 0.0615 14.122 0.145688 14.5622C0.331615 15.5358 1.0124 16.9819 1.64637 17.75L2.14037 18.3486V37.1837C2.14037 57.676 2.0987 56.5951 2.93131 57.6789C3.13693 57.9465 3.63364 58.328 4.03503 58.5266L4.76489 58.8877H16.2387C25.362 58.8877 27.6975 58.924 27.639 59.0648C27.5985 59.1622 26.7569 61.1298 25.7688 63.4374C24.4881 66.4281 23.9721 67.7931 23.9721 68.1908C23.9721 69.0839 24.5937 70.1553 25.3772 70.6126C26.0275 70.9921 26.0893 71 28.3715 71H30.7018L31.1183 70.5373C31.6492 69.9477 31.6762 69.2667 31.1909 68.7059C30.851 68.3129 30.8239 68.3075 28.8426 68.2375L26.8382 68.1667L28.8167 63.5626L30.7951 58.9585H36.529H42.2629L44.2413 63.5626L46.2197 68.1667L44.2153 68.2375C42.2341 68.3075 42.207 68.3129 41.8671 68.7059C41.3818 69.2667 41.4087 69.9477 41.9397 70.5373L42.3562 71H44.6865C46.9687 71 47.0305 70.9921 47.6807 70.6126C48.4643 70.1553 49.0858 69.0839 49.0858 68.1908C49.0858 67.7931 48.5699 66.4281 47.2892 63.4374C46.3011 61.1298 45.4595 59.1622 45.4189 59.0648C45.3604 58.924 47.696 58.8877 56.8193 58.8877H68.2931L69.0229 58.5266C69.4243 58.328 69.921 57.9465 70.1267 57.6789C70.9593 56.5951 70.9176 57.676 70.9176 37.1837V18.3486L71.4116 17.75C72.0456 16.9819 72.7264 15.5358 72.9123 14.5622C72.9965 14.122 73.058 11.3648 73.058 8.03867V2.2776L72.6874 1.53939C72.4123 0.991289 72.1459 0.701302 71.6529 0.413582L70.9889 0.0261297L36.743 0.00233003C17.9078 -0.0108448 2.31403 0.0332129 2.09014 0.100078ZM11.7007 8.28772C11.7007 14.4871 11.6689 14.732 10.7053 15.9423C8.98099 18.1079 5.49818 18.0827 3.82013 15.8925C2.88108 14.667 2.85383 14.4522 2.85383 8.28772V2.78859H7.27726H11.7007V8.28772ZM23.4014 8.28772C23.4014 14.4871 23.3696 14.732 22.406 15.9423C20.6817 18.1079 17.1989 18.0827 15.5208 15.8925C14.5818 14.667 14.5545 14.4522 14.5545 8.28772V2.78859H18.9779H23.4014V8.28772ZM35.1021 8.28772C35.1021 14.4522 35.0748 14.667 34.1358 15.8925C33.3308 16.9431 32.073 17.5466 30.6885 17.5466C29.3008 17.5466 28.0712 16.9729 27.2506 15.9423C26.287 14.732 26.2552 14.4871 26.2552 8.28772V2.78859H30.6786H35.1021V8.28772ZM46.8028 8.28772C46.8028 14.4522 46.7755 14.667 45.8365 15.8925C45.0315 16.9431 43.7737 17.5466 42.3892 17.5466C41.0015 17.5466 39.7719 16.9729 38.9513 15.9423C37.9877 14.732 37.9559 14.4871 37.9559 8.28772V2.78859H42.3793H46.8028V8.28772ZM58.5035 8.28772C58.5035 14.4522 58.4762 14.667 57.5371 15.8925C56.7322 16.9431 55.4744 17.5466 54.0899 17.5466C52.7022 17.5466 51.4726 16.9729 50.652 15.9423C49.6884 14.732 49.6566 14.4871 49.6566 8.28772V2.78859H54.08H58.5035V8.28772ZM70.2041 8.28772C70.2041 14.4522 70.1769 14.667 69.2378 15.8925C68.4329 16.9431 67.1751 17.5466 65.7906 17.5466C64.4029 17.5466 63.1733 16.9729 62.3527 15.9423C61.3891 14.732 61.3573 14.4871 61.3573 8.28772V2.78859H65.7807H70.2041V8.28772ZM15.0437 19.2477C17.2223 20.6508 20.0283 20.7703 22.4294 19.5624C22.8041 19.3738 23.5077 18.8491 23.993 18.3962L24.8755 17.5727L25.3869 18.1379C26.6228 19.5034 28.635 20.37 30.6074 20.3861C32.5801 20.4024 34.1985 19.7749 35.6684 18.4238L36.5447 17.6184L37.2146 18.2651C38.6682 19.6682 40.354 20.3701 42.3081 20.3861C44.3024 20.4026 45.9923 19.7387 47.3891 18.3901L48.2287 17.5796L48.7643 18.1354C51.5651 21.0422 56.2237 21.1574 59.0895 18.3904L59.9288 17.5802L60.5359 18.1956C62.1466 19.8278 64.5082 20.6542 66.6874 20.3477C67.1859 20.2778 67.6996 20.18 67.8289 20.1309C68.0459 20.0481 68.0638 21.0589 68.0638 33.4438V46.8462H36.529H4.9942V33.4438C4.9942 21.0589 5.01203 20.0481 5.22907 20.1309C5.81924 20.3557 7.3409 20.4663 8.19362 20.3465C9.9316 20.1021 11.3337 19.4036 12.5356 18.1831L13.1564 17.5526L13.6771 18.1279C13.9635 18.4442 14.5785 18.9482 15.0437 19.2477ZM29.8169 23.2473C28.9936 23.7063 28.9967 23.5662 29.6381 31.0254C29.963 34.8038 30.3035 38.0234 30.4004 38.2344C30.4967 38.4444 30.7954 38.7196 31.0639 38.8461C31.6344 39.1149 32.0202 39.0221 33.1162 38.3526L33.8056 37.9316L34.9246 39.7327C35.5401 40.7233 36.1834 41.7619 36.3542 42.0407C36.8547 42.8579 37.5913 43.0741 38.4222 42.6474C39.63 42.0275 43.6784 39.4335 43.805 39.1986C44.1567 38.5462 43.9682 38.034 42.5276 35.727L41.1132 33.4616L41.7819 33.0542C43.1226 32.2375 43.4833 31.5805 43.0476 30.749C42.7782 30.2351 31.2747 23.1487 30.6073 23.0858C30.3719 23.0636 30.0161 23.1363 29.8169 23.2473ZM35.6364 29.2851C37.4222 30.3787 38.8989 31.3189 38.9181 31.3746C38.9372 31.4302 38.758 31.5857 38.5198 31.7203C38.0211 32.0022 37.613 32.8394 37.7537 33.2922C37.8064 33.4619 38.4513 34.5724 39.1869 35.7601C39.9225 36.9478 40.5243 37.9473 40.5243 37.9813C40.5243 38.0637 38.504 39.306 38.2762 39.3635C38.1751 39.3891 37.4834 38.4213 36.6885 37.1422C35.4009 35.0701 35.2312 34.8583 34.7111 34.6741C34.1827 34.487 34.099 34.4951 33.5347 34.7869C33.2007 34.9599 32.9105 35.0824 32.8898 35.0593C32.8404 35.0039 32.2468 28.1894 32.2475 27.6861C32.248 27.4719 32.2801 27.2965 32.3189 27.2965C32.3577 27.2965 33.8505 28.1913 35.6364 29.2851ZM68.0638 52.697C68.0638 54.8549 68.015 55.7629 67.8925 55.8844C67.6433 56.1319 5.41471 56.1319 5.16543 55.8844C5.043 55.7629 4.9942 54.8549 4.9942 52.697V49.6795H36.529H68.0638V52.697ZM35.8312 51.5772C34.5942 52.2579 35.1118 54.2128 36.529 54.2128C37.252 54.2128 37.9559 53.5207 37.9559 52.8099C37.9559 51.7462 36.772 51.0595 35.8312 51.5772ZM35.7799 68.3905C35.4521 68.5801 35.1021 69.2643 35.1021 69.7158C35.1021 69.9132 35.2881 70.2815 35.5156 70.5341C35.8578 70.9143 36.0324 70.9936 36.529 70.9936C37.0255 70.9936 37.2002 70.9143 37.5424 70.5341C37.7698 70.2815 37.9559 69.9132 37.9559 69.7158C37.9559 69.2461 37.5965 68.5673 37.2503 68.3835C36.9021 68.1984 36.1055 68.2023 35.7799 68.3905Z" fill="#E49B00"/>
</svg>
