<svg width="71" height="71" viewBox="0 0 71 71" fill="none" xmlns="http://www.w3.org/2000/svg">
<path fill-rule="evenodd" clip-rule="evenodd" d="M6.03448 0.131067C5.88188 0.193618 5.63218 0.383214 5.47959 0.552699C5.22239 0.838272 5.19909 1.08889 5.15983 3.99552C5.111 7.62475 5.25874 8.61906 6.04017 9.91641C6.36478 10.4554 6.52001 10.8846 6.52001 11.2432V11.7733L3.66452 11.8158L0.809036 11.8584L0.404518 12.3114L0 12.7644V34.8818V56.9992L0.404796 57.4521L0.809453 57.9051L12.8206 57.942L24.8315 57.979V60.3269V62.6748L21.8519 62.7171L18.8721 62.7594L18.4878 63.1441L18.1034 63.5285V66.8509V70.1734L18.4881 70.5578L18.8727 70.9424L31.5975 70.9839C43.1834 71.0218 44.3611 71.0051 44.7567 70.7975C44.9957 70.6721 45.2611 70.4165 45.3463 70.2294C45.5541 69.7735 45.558 63.9368 45.3509 63.4823C45.0246 62.7665 44.659 62.6901 41.5611 62.6901H38.7039V60.3323V57.9745H50.6319H62.5599L63.013 57.5699L63.4661 57.1655L63.5106 53.4437L63.5553 49.7221L64.5498 48.9593C66.5358 47.436 69.587 44.2761 70.6767 42.6143C71.2317 41.7678 71.1177 41.3186 69.9776 39.8588C68.7537 38.2916 66.2596 35.793 64.7518 34.6234L63.5406 33.6839L63.5033 23.1411L63.4661 12.5984L63.013 12.1938L62.5599 11.7891H59.7877H57.0154V11.2511C57.0154 10.8835 57.1673 10.4608 57.4953 9.91641C58.278 8.61698 58.4244 7.62697 58.3756 3.96959L58.3333 0.808869L57.8802 0.404434L57.4272 0L31.8695 0.00873778C17.8128 0.0135921 6.18708 0.068654 6.03448 0.131067ZM15.2323 5.16639C15.1707 7.85679 15.0593 8.28328 14.1777 9.2056C12.8052 10.6416 10.4309 10.6848 9.04478 9.29894C8.08537 8.33972 7.98285 7.96608 7.93125 5.23573L7.88478 2.7739H11.5859H15.2871L15.2323 5.16639ZM25.3864 4.62076C25.3864 7.99354 24.9388 9.09076 23.1952 9.99047C21.8713 10.6737 19.8149 10.2124 18.8706 9.0203C18.1495 8.11005 18.0341 7.56179 18.0341 5.04489V2.7739H21.7103H25.3864V4.62076ZM35.3715 5.16639C35.3682 7.81171 35.2737 8.21102 34.4228 9.18008C33.1328 10.649 30.4027 10.649 29.1127 9.18008C28.2618 8.21102 28.1673 7.81171 28.164 5.16639L28.1609 2.7739H31.7677H35.3745L35.3715 5.16639ZM45.5014 5.04489C45.5014 6.70063 45.4455 7.47441 45.2949 7.90076C44.4426 10.316 41.3083 11.1065 39.4156 9.38368C38.4353 8.49146 38.149 7.41477 38.149 4.62076V2.7739H41.8252H45.5014V5.04489ZM55.6042 5.23573C55.5622 7.45721 55.5278 7.7536 55.2514 8.27093C54.5507 9.58354 53.3904 10.2984 51.9621 10.2977C50.936 10.2971 50.1872 10.0031 49.4726 9.32044C48.5032 8.39423 48.3599 7.88647 48.3005 5.16639L48.2484 2.7739H51.9495H55.6507L55.6042 5.23573ZM18.9358 12.4993C20.0676 13.0262 21.3844 13.2208 22.5773 13.0373C23.7947 12.8499 25.2911 12.1124 26.0706 11.3156L26.6854 10.687L27.4219 11.3834C29.8313 13.6616 33.7042 13.6616 36.1135 11.3834L36.85 10.687L37.4648 11.3156C38.2443 12.1124 39.7407 12.8499 40.9582 13.0373C42.8194 13.3236 44.7725 12.7196 46.1847 11.4207L46.9376 10.7285L47.4632 11.254C49.105 12.8954 51.3964 13.4592 53.8595 12.8276L54.241 12.7298V21.2747V29.8194H53.0106C48.7956 29.8194 44.3694 31.7453 40.0762 35.4472C38.6401 36.6856 36.7258 38.7007 35.6291 40.1287C34.7815 41.2325 34.6579 41.7996 35.1071 42.5261C35.5606 43.2598 36.6328 44.5294 37.9923 45.9427L39.1596 47.1563H24.2271H9.29449V29.9431V12.7298L9.67598 12.8276C12.1392 13.4592 14.4556 12.8889 16.062 11.2554L16.5775 10.7312L17.3405 11.4215C17.7601 11.8013 18.478 12.2863 18.9358 12.4993ZM6.52001 30.8596V47.1563H4.64724H2.77447V30.8596V14.563H4.64724H6.52001V30.8596ZM60.761 23.2314C60.761 27.999 60.7277 31.8998 60.687 31.8998C60.6462 31.8998 60.2874 31.7342 59.8894 31.5319C59.4914 31.3295 58.6975 30.9926 58.1252 30.7835L57.0848 30.403L57.049 22.483L57.0132 14.563H58.8871H60.761V23.2314ZM13.4581 16.609C13.1922 16.7423 12.8966 17.0075 12.8013 17.1982C12.5666 17.6678 12.5455 31.2102 12.7788 31.6663C13.1951 32.48 12.8767 32.4485 20.6698 32.4485C28.4629 32.4485 28.1445 32.48 28.5608 31.6663C28.7942 31.2102 28.7731 17.6678 28.5384 17.1982C28.4431 17.0075 28.1474 16.7423 27.8815 16.609C27.4411 16.3881 26.7984 16.3664 20.6698 16.3664C14.5413 16.3664 13.8986 16.3881 13.4581 16.609ZM34.4064 16.518C33.3162 16.9616 33.1307 18.159 34.0382 18.8941C34.3061 19.111 34.803 19.1341 39.2732 19.1368L44.2123 19.1399L44.5739 18.805C45.2489 18.1794 45.2064 17.266 44.4769 16.7212C44.1101 16.4473 43.9004 16.4341 39.4222 16.4068C36.5307 16.389 34.6192 16.4315 34.4064 16.518ZM49.1111 16.522C48.0227 16.9521 47.8354 18.159 48.7429 18.8941C49.4231 19.4449 50.6285 19.0006 50.8501 18.1174C51.0941 17.1456 50.022 16.1621 49.1111 16.522ZM25.9413 24.4103V29.6807H20.6698H15.3983V24.4103V19.1399H20.6698H25.9413V24.4103ZM34.4064 22.0668C33.3166 22.5073 33.1307 23.7068 34.0382 24.4419C34.3107 24.6626 34.956 24.6817 42.1864 24.6846L50.0387 24.6877L50.4003 24.3527C51.0753 23.7272 51.0328 22.8138 50.3031 22.269C49.9286 21.9894 49.7566 21.9826 42.3353 21.9554C37.5223 21.9379 34.6246 21.9786 34.4064 22.0668ZM34.4064 27.6164C33.3174 28.0508 33.1307 29.2546 34.0382 29.9897C34.3 30.2018 34.7193 30.2297 37.6793 30.2324L41.0243 30.2355L41.3746 29.8854C41.841 29.419 41.9299 28.891 41.6426 28.2938C41.4813 27.9587 41.2586 27.757 40.9235 27.6427C40.3236 27.4383 34.9077 27.4164 34.4064 27.6164ZM56.2518 33.0729C59.6459 34.0822 62.6196 36.0801 66.0934 39.6852C67.0518 40.6798 67.8359 41.5802 67.8359 41.6861C67.8359 42.1749 64.8131 45.2455 62.8418 46.7589C61.1608 48.0496 60.5267 48.461 59.141 49.1597C55.5846 50.9529 52.3601 51.2589 48.9699 50.1248C45.7296 49.0409 42.2434 46.5635 39.2441 43.2134L37.8871 41.6978L38.4689 40.9954C40.0011 39.1458 42.947 36.5253 44.9465 35.2332C46.6711 34.1188 48.7589 33.2276 50.6498 32.7988C52.0558 32.48 54.6915 32.609 56.2518 33.0729ZM50.949 34.8789C47.0888 36.1404 44.9461 40.2594 46.2161 43.9768C47.2951 47.1349 50.743 49.2307 53.984 48.6984C57.439 48.1309 59.9766 45.158 59.9766 41.6778C59.9766 38.936 58.4824 36.5977 55.9162 35.3234C54.7646 34.7515 54.7243 34.7427 53.1417 34.7151C52.0791 34.6965 51.3373 34.752 50.949 34.8789ZM13.5978 36.4941C12.5094 36.9242 12.3221 38.1311 13.2297 38.8662C13.9098 39.417 15.1152 38.9727 15.3369 38.0895C15.5809 37.1177 14.5087 36.1342 13.5978 36.4941ZM19.1468 36.4902C18.6103 36.7084 18.3243 37.0302 18.2326 37.5192C18.1358 38.0356 18.4428 38.7465 18.8588 38.9691C19.0278 39.0595 20.9781 39.112 24.1779 39.112H29.2302L29.5917 38.777C30.2667 38.1515 30.2243 37.2381 29.4947 36.6933C29.1274 36.4188 28.9196 36.4063 24.3013 36.3788C21.3182 36.3612 19.36 36.4034 19.1468 36.4902ZM54.4166 37.6661C55.1927 37.9304 56.2058 38.7931 56.6602 39.5765C57.3332 40.7372 57.37 42.4502 56.7478 43.6695C55.7361 45.6523 53.1939 46.538 51.1797 45.6093C49.655 44.9062 48.6822 43.4559 48.6586 41.8508C48.6297 39.8955 49.6765 38.3607 51.5358 37.6318C52.1403 37.3949 53.6743 37.4132 54.4166 37.6661ZM52.0107 40.7656C51.4695 41.3067 51.4457 42.1047 51.9553 42.6143C52.5395 43.1982 53.3037 43.2011 53.8835 42.6215C54.6885 41.8167 54.0699 40.3602 52.9231 40.3602C52.5478 40.3602 52.3109 40.4655 52.0107 40.7656ZM13.5978 42.0388C12.508 42.4793 12.3221 43.6789 13.2297 44.414C13.5021 44.6347 14.1475 44.6538 21.3779 44.6567L29.2302 44.6598L29.5917 44.3248C30.2667 43.6993 30.2243 42.7859 29.4946 42.2411C29.12 41.9615 28.948 41.9547 21.5267 41.9275C16.7137 41.91 13.816 41.9506 13.5978 42.0388ZM43.5203 50.5368C45.5893 51.8712 48.107 52.9165 50.2438 53.3285C51.6044 53.5906 54.1022 53.6238 55.3602 53.3962C56.6276 53.1669 58.728 52.4737 59.8246 51.9228L60.761 51.4523V53.3264V55.2006H31.7677H2.77447V52.5654V49.9302H22.677H42.5796L43.5203 50.5368ZM35.9294 60.3323V62.6901H31.7677H27.606V60.3323V57.9745H31.7677H35.9294V60.3323ZM42.7269 66.8509V68.2379H31.7677H20.8086V66.8509V65.464H31.7677H42.7269V66.8509Z" fill="#E49B00"/>
</svg>
