<svg width="71" height="71" viewBox="0 0 71 71" fill="none" xmlns="http://www.w3.org/2000/svg">
<path fill-rule="evenodd" clip-rule="evenodd" d="M34.7793 0.190594C34.164 0.531323 34.0803 0.888416 34.075 3.19753L34.0701 5.35797L27.3741 7.14496C21.568 8.69454 20.6272 8.98188 20.2964 9.30749C20.0507 9.54934 19.9147 9.82919 19.9147 10.0934C19.9147 10.3191 21.4503 16.2307 23.327 23.2302L26.7394 35.9567L23.7948 38.9015L20.8504 41.8462L20.4424 41.3821C20.2181 41.1268 19.6796 40.7437 19.2461 40.5309L18.4576 40.144H10.7553C3.21675 40.144 3.03967 40.1502 2.42155 40.436C1.49825 40.8629 0.825872 41.5142 0.387192 42.4069L0 43.1948V55.5371C0 67.7935 0.00208166 67.8838 0.292268 68.5105C0.719428 69.4331 1.37127 70.105 2.26459 70.5433L3.05313 70.9302H10.7553H18.4576L19.2461 70.5433C20.1366 70.1063 20.8018 69.4225 21.1902 68.5451C21.3354 68.217 21.4838 67.9487 21.5198 67.9487C21.5559 67.9487 22.0888 68.3834 22.704 68.9147C23.3194 69.446 24.1457 70.0369 24.5402 70.2278C26.2167 71.0392 24.9914 70.9996 48.4004 70.9996C71.7655 70.9996 70.4532 71.0439 70.8194 70.2407C71.0602 69.7126 71.0602 1.28392 70.8194 0.755841C70.4555 -0.0423831 71.4012 -0.00341484 52.4999 0.00185488C38.3327 0.00587651 35.0495 0.0408231 34.7793 0.190594ZM68.2097 35.4983V68.226H63.2682C58.6186 68.226 58.3323 68.2117 58.4211 67.9833C58.784 67.0498 58.7875 65.5278 58.4288 64.6063C58.3575 64.4228 58.4853 64.3691 59.1604 64.2986C60.8747 64.1195 62.306 63.0928 63.016 61.5326C63.338 60.8254 63.4089 60.479 63.4063 59.6281C63.4042 58.9827 63.318 58.3929 63.1791 58.0738L62.9551 57.5596L63.6948 57.2212C64.6464 56.7859 65.5049 55.9222 65.9687 54.9336C66.2761 54.2785 66.3362 53.957 66.3362 52.9687C66.3362 51.9157 66.287 51.6873 65.8851 50.8714L65.4341 49.956V41.0014V32.0469L65.1216 31.6838C64.4048 30.8511 63.1074 31.1849 62.8029 32.2803C62.7128 32.6042 62.6598 35.6673 62.6594 40.5668L62.6585 48.3395L62.1728 48.2829C61.9057 48.2517 61.6878 48.2174 61.6886 48.2068C61.6895 48.196 61.7831 47.8809 61.8968 47.5065C62.1748 46.5908 62.157 45.9631 61.8227 44.8813C61.4675 43.7322 60.4932 42.6152 59.3651 42.0637C58.6824 41.7299 58.3842 41.6756 56.9495 41.6245L55.3127 41.5662L56.1071 41.0531C58.2994 39.6372 59.5011 36.9867 59.0753 34.5058C58.5818 31.63 56.3988 29.4486 53.5209 28.9555C49.2327 28.2207 45.2552 32.2015 45.979 36.5037C46.2965 38.3916 47.3767 40.038 48.9746 41.07L49.7952 41.6001H46.096H42.3969V28.4215C42.3969 15.9937 42.4107 15.2381 42.6397 15.1617C44.8516 14.424 46.5505 12.7897 47.1239 10.8485L47.2981 10.2591H52.5277H57.7573L57.9315 10.8485C58.5049 12.7897 60.2038 14.424 62.4157 15.1617C62.6323 15.234 62.6587 15.4641 62.6594 17.2926C62.6605 20.276 62.906 20.8679 64.1424 20.8679C64.6517 20.8679 64.8249 20.7974 65.0992 20.4787C65.4331 20.0909 65.4341 20.0799 65.4341 16.7585V13.4273L65.0285 13.0219C64.7394 12.7331 64.4874 12.6166 64.1515 12.6166C62.178 12.6166 60.6535 11.1487 60.3683 8.9737C60.3164 8.57819 60.1505 8.16022 59.9556 7.93362L59.6294 7.55489H52.5277H45.426L45.0999 7.93362C44.9049 8.16022 44.739 8.57819 44.6871 8.9737C44.4019 11.1487 42.8775 12.6166 40.9039 12.6166C40.568 12.6166 40.316 12.7331 40.0269 13.0219L39.6213 13.4273V27.5137V41.6001H38.2335H36.8457V22.1853V2.77054H52.5277H68.2097V35.4983ZM34.0701 10.8016V13.4243L33.507 13.5194C33.1972 13.5717 32.7758 13.759 32.5702 13.9357C32.2055 14.2494 32.1966 14.2943 32.1966 15.829C32.1966 17.2822 32.1687 17.4481 31.8273 18.025C31.3128 18.8948 30.8047 19.3379 29.8374 19.7607C28.8908 20.1744 28.5265 20.5529 28.5221 21.1273C28.5198 21.414 33.1813 39.0218 33.8777 41.3574C33.9433 41.5772 33.8188 41.6001 32.5583 41.6001H31.1665L31.0326 41.08C30.9587 40.7941 30.6427 39.5615 30.3301 38.3412C30.0174 37.1208 29.6996 35.9771 29.6241 35.7995C29.4863 35.476 23.1626 11.9462 23.0808 11.4527C23.0421 11.2194 23.5171 11.0612 27.3394 10.0344C30.9693 9.05926 33.8967 8.25479 34.0355 8.19405C34.0545 8.18573 34.0701 9.35908 34.0701 10.8016ZM34.0603 25.5482L34.0504 31.2686L32.8005 26.6933L31.5506 22.118L31.8737 21.9178C32.0513 21.8077 32.6026 21.299 33.0987 20.7876C33.5948 20.2761 34.0164 19.851 34.0355 19.8426C34.0545 19.8345 34.0657 22.4021 34.0603 25.5482ZM63.4912 25.1293C62.6354 25.5735 62.5393 26.7662 63.3057 27.4352C63.6114 27.7021 63.7838 27.7483 64.2446 27.6865C65.7937 27.4789 65.8602 25.2384 64.3239 25.0187C64.056 24.9803 63.6826 25.03 63.4912 25.1293ZM54.1763 32.0228C55.0035 32.4446 55.4879 32.9128 55.93 33.7186C56.2767 34.3505 56.3358 34.6096 56.3358 35.4983C56.3358 36.3869 56.2767 36.6461 55.93 37.2779C55.1748 38.6542 54.0912 39.2973 52.5277 39.2973C50.9642 39.2973 49.8806 38.6542 49.1254 37.2779C48.7775 36.644 48.72 36.3898 48.7223 35.4983C48.725 34.413 48.8842 33.9488 49.5651 33.0398C49.9363 32.5442 50.9238 31.9142 51.6023 31.7403C52.2621 31.5711 53.5722 31.7149 54.1763 32.0228ZM28.2351 41.392C28.7272 43.2875 28.8711 43.6665 29.2225 43.9922L29.6337 44.3736L43.6828 44.3739C56.7839 44.374 57.764 44.3904 58.2078 44.6166C58.9233 44.9811 59.2585 45.5228 59.2585 46.3151C59.2585 47.1073 58.9233 47.649 58.2078 48.0136C57.7723 48.2355 57.1027 48.2561 50.3281 48.2563L42.9242 48.2566L42.4524 48.7281C42.1124 49.0678 41.9805 49.3235 41.9805 49.6433C41.9805 49.9631 42.1124 50.2188 42.4524 50.5586L42.9242 51.0301L52.5485 51.0306C61.9073 51.0311 62.1853 51.0387 62.6251 51.3068C63.9343 52.1044 63.9343 53.8387 62.6251 54.6364C62.1853 54.9044 61.9073 54.9121 52.5485 54.9125L42.9242 54.913L42.4524 55.3845C41.8122 56.0243 41.8122 56.5754 42.4524 57.2151L42.9242 57.6866L51.022 57.6869C59.9587 57.687 59.6974 57.6625 60.3588 58.5634C60.7509 59.0976 60.7509 60.1585 60.3588 60.6927C59.6974 61.5937 59.9587 61.5691 51.022 61.5693L42.9242 61.5695L42.4524 62.041C42.1124 62.3808 41.9805 62.6365 41.9805 62.9563C41.9805 63.2761 42.1124 63.5318 42.4524 63.8716L42.9242 64.3431H48.6325C54.9191 64.3431 54.9944 64.3522 55.5869 65.1836C56.3079 66.1955 55.8007 67.7529 54.6405 68.0898C54.2808 68.1943 49.9453 68.2273 40.3846 68.1983C26.787 68.1571 26.6391 68.1536 26.021 67.867C25.6775 67.7078 24.5379 66.8365 23.4883 65.9309L21.5801 64.2844V54.7115V45.1387L24.5921 42.1265C26.2487 40.4697 27.6165 39.1275 27.6315 39.1437C27.6466 39.1599 27.9181 40.1717 28.2351 41.392ZM9.36756 50.9677C9.36756 59.6565 9.36881 59.6737 10.0538 60.0399C10.3966 60.2233 11.1141 60.2233 11.4569 60.0399C12.1419 59.6737 12.1431 59.6565 12.1431 50.9677V42.8482H14.9122C17.9144 42.8482 18.2734 42.9175 18.6067 43.5616C18.9023 44.1329 18.9023 66.9413 18.6067 67.5125C18.2398 68.2216 18.1917 68.226 10.7553 68.226C3.31903 68.226 3.27087 68.2216 2.90394 67.5125C2.62042 66.9648 2.61653 44.0675 2.89992 43.5568C3.25505 42.9162 3.55648 42.8583 6.55729 42.853L9.36756 42.8482V50.9677ZM10.0767 62.8725C8.87364 63.5389 9.37699 65.4525 10.7553 65.4525C11.4585 65.4525 12.1431 64.775 12.1431 64.0792C12.1431 63.038 10.9917 62.3657 10.0767 62.8725Z" fill="#E49B00"/>
</svg>
