<svg width="71" height="71" viewBox="0 0 71 71" fill="none" xmlns="http://www.w3.org/2000/svg">
<path fill-rule="evenodd" clip-rule="evenodd" d="M4.19615 0.177588C3.7957 0.285807 3.20967 0.506269 2.89384 0.667349C2.15898 1.04237 1.07943 2.12123 0.70562 2.85407C-0.0293807 4.29518 0.000163584 3.27501 0.000163584 27.2491C0.000163584 43.1817 0.0444107 49.6896 0.156069 50.2165C0.515316 51.91 1.67198 53.3467 3.29567 54.116L4.23068 54.559L15.7779 54.5976L27.3252 54.636V58.0982V61.5602L26.9437 61.6404C26.7339 61.6844 26.1636 61.8441 25.6764 61.9952C22.4842 62.9847 20.1133 66.1153 20.1176 69.3351C20.1187 70.1419 20.3327 70.5544 20.9009 70.845C21.1182 70.9562 25.2463 71 35.5088 71C45.7714 71 49.8994 70.9562 50.1167 70.845C50.6948 70.5492 50.8987 70.1444 50.9021 69.2857C50.9143 66.0752 48.3889 62.8131 45.2122 61.936C44.796 61.8209 44.2213 61.6878 43.9352 61.6399L43.415 61.5529V58.0945V54.636L55.101 54.5975L66.7869 54.559L67.7219 54.116C69.3901 53.3255 70.5374 51.8685 70.8724 50.1147C70.9879 49.5105 71.0194 43.2152 70.9893 26.8106L70.9481 4.33431L70.6427 3.58815C70.0067 2.03521 68.9442 0.96065 67.446 0.355595L66.6482 0.0332965L35.7862 0.00693543C9.51038 -0.0154021 4.81602 0.00984902 4.19615 0.177588ZM66.9034 3.155C67.1851 3.34577 67.5863 3.74632 67.7948 4.04503L68.174 4.58807V27.307V50.026L67.7579 50.6169C67.529 50.942 67.0667 51.3533 66.7305 51.5307L66.119 51.8536H35.5088H4.89855L4.28714 51.5307C3.95092 51.3533 3.48861 50.942 3.25975 50.6169L2.84363 50.026L2.80729 27.6174C2.78315 12.6884 2.81825 5.03301 2.91257 4.68241C3.08359 4.04725 4.0229 3.06565 4.62877 2.88903C4.88551 2.81425 17.5976 2.77193 35.727 2.78539L66.3912 2.80814L66.9034 3.155ZM6.44997 5.64431C6.2974 5.70703 6.04773 5.8971 5.89515 6.06678C5.62093 6.3716 5.61732 6.59664 5.58112 25.4724C5.55394 39.6667 5.5857 44.6692 5.70471 44.9576C6.05425 45.8045 3.95868 45.7489 35.5088 45.7489C67.0589 45.7489 64.9634 45.8045 65.3129 44.9576C65.4319 44.6692 65.4637 39.6639 65.4365 25.461L65.3999 6.35232L65.0152 5.96772L64.6307 5.58299L35.679 5.55663C19.7556 5.54206 6.60255 5.58146 6.44997 5.64431ZM62.6951 10.6471V13.0057H59.7731C57.8944 13.0057 56.7431 13.0611 56.5482 13.1607C55.5047 13.6946 55.5047 15.0917 56.5482 15.6256C56.7431 15.7252 57.8944 15.7806 59.7731 15.7806H62.6951V18.7635V21.7465H58.2893H53.8834L53.5512 21.0465C53.3633 20.6504 52.8929 20.0484 52.4679 19.6599C50.15 17.5411 46.4518 18.309 45.0925 21.1915C44.576 22.2871 44.576 23.9806 45.0925 25.0763C46.4518 27.9588 50.15 28.7267 52.4679 26.6079C52.8929 26.2194 53.3633 25.6174 53.5512 25.2213L53.8834 24.5213H58.2893H62.6951V30.4179V36.3144H59.7753C56.6851 36.3144 56.2262 36.3957 55.9027 37.0005C55.6932 37.3918 55.7283 38.0799 55.977 38.4594C56.3331 39.003 56.867 39.0893 59.8723 39.0893H62.6951V41.0317V42.974H35.5088H8.3225V35.9676V28.9611H14.2845H20.2465L20.6004 29.6598C21.1045 30.6548 21.7769 31.3429 22.7052 31.8132C23.4286 32.1799 23.645 32.2215 24.8285 32.2215C25.9462 32.2215 26.2509 32.1699 26.8361 31.8819C27.7635 31.4254 28.6558 30.5037 29.0999 29.5432C29.6342 28.3879 29.6285 26.8611 29.0858 25.7006C28.0291 23.4418 25.441 22.4065 23.0695 23.294C22.1248 23.6475 20.9902 24.7042 20.5964 25.5971L20.3365 26.1862H14.3296H8.3225V22.2321V18.2779H16.6511H24.9797L26.27 17.0292L27.5604 15.7806H31.3259H35.0913L35.3772 16.3891C35.84 17.3739 36.549 18.0876 37.5576 18.5843C38.3729 18.9858 38.6198 19.041 39.5977 19.0409C40.5097 19.0409 40.8508 18.9748 41.4898 18.6753C42.9968 17.9687 43.9421 16.767 44.2305 15.1909C44.6148 13.0908 43.521 11.0633 41.4898 10.111C40.8508 9.81144 40.5097 9.7454 39.5977 9.7454C38.6198 9.74526 38.3729 9.80048 37.5576 10.202C36.549 10.6987 35.84 11.4124 35.3772 12.3972L35.0913 13.0057H30.8129H26.5345L25.9936 13.4063C25.6961 13.6264 25.0801 14.1883 24.6247 14.6549L23.7969 15.5031H16.0596H8.3225V11.8958V8.28846H35.5088H62.6951V10.6471ZM40.7608 12.8313C40.9619 12.9811 41.2472 13.3938 41.3948 13.7484C41.6601 14.3859 41.6601 14.4003 41.3948 15.0379C41.0734 15.81 40.6044 16.1908 39.8507 16.292C38.2742 16.5035 37.1582 14.724 38.0063 13.3512C38.5584 12.4577 39.9153 12.2016 40.7608 12.8313ZM50.1234 21.3828C51.8407 22.1005 51.5573 24.6724 49.7229 25.0166C49.0467 25.1436 48.6123 25.0011 48.0202 24.4583C47.538 24.0163 47.5068 23.9374 47.5068 23.1591C47.5068 22.2582 47.6894 21.9368 48.4778 21.4497C48.9734 21.1435 49.4995 21.1221 50.1234 21.3828ZM25.8799 26.0317C26.3558 26.3219 26.7703 27.0721 26.7703 27.643C26.7703 28.66 25.8829 29.516 24.8285 29.516C23.3704 29.516 22.4892 28.1064 23.1182 26.7805C23.4228 26.1385 24.0453 25.771 24.8285 25.771C25.1951 25.771 25.6289 25.8786 25.8799 26.0317ZM37.9221 27.495C35.9642 28.1417 34.6699 29.8801 34.6308 31.9161C34.6175 32.6074 34.6925 33.1211 34.8744 33.5833L35.1372 34.2513L34.1129 35.2829L33.0884 36.3144H26.3854C19.0392 36.3144 19.0716 36.3109 18.7319 37.1312C18.5099 37.6673 18.65 38.2762 19.0905 38.6902L19.4411 39.0199L26.4 39.061C30.2273 39.0834 33.5765 39.0622 33.8424 39.0138C34.2107 38.9466 34.657 38.5999 35.7149 37.5596L37.1039 36.1936L37.8668 36.4576C38.7556 36.7652 39.2419 36.7891 40.2527 36.5748C41.2482 36.3637 41.859 36.0339 42.5768 35.3198C43.5235 34.3778 43.9005 33.4363 43.9005 32.0134C43.9005 30.5971 43.5105 29.6115 42.5828 28.6836C41.4358 27.5363 39.3823 27.0126 37.9221 27.495ZM40.2162 30.3245C41.2563 30.8825 41.5105 32.4267 40.7011 33.2717C39.459 34.5685 37.3973 33.7851 37.3973 32.0163C37.3973 30.5094 38.8904 29.6133 40.2162 30.3245ZM13.3004 36.5225C12.8471 36.7689 12.5684 37.4176 12.6859 37.9527C12.9046 38.9491 14.1698 39.3695 14.896 38.6872C16.0976 37.558 14.7525 35.7331 13.3004 36.5225ZM49.9187 36.5225C49.4654 36.7689 49.1867 37.4176 49.3042 37.9527C49.5229 38.9491 50.7881 39.3695 51.5143 38.6872C52.7159 37.558 51.3708 35.7331 49.9187 36.5225ZM34.954 47.5066C33.8361 47.9431 33.7221 49.5581 34.7753 50.0381C36.1671 50.6723 37.4056 48.8956 36.2976 47.8543C35.9638 47.5407 35.3041 47.37 34.954 47.5066ZM40.6409 58.097V61.5655H35.3701H30.0993V58.097V54.6284H35.3701H40.6409V58.097ZM44.9651 64.7788C46.2553 65.3839 47.4229 66.6076 47.8232 67.7742L47.9779 68.2252H35.5088H23.0397L23.1944 67.7742C23.6976 66.3075 25.3138 64.8637 26.8722 64.4888C27.1602 64.4194 31.1587 64.3735 35.7862 64.3864L44.1779 64.4097L44.9651 64.7788Z" fill="#E49B00"/>
</svg>
