<svg width="71" height="71" viewBox="0 0 71 71" fill="none" xmlns="http://www.w3.org/2000/svg">
<path fill-rule="evenodd" clip-rule="evenodd" d="M22.4932 0.135921C22.3319 0.200969 22.0661 0.42399 21.9027 0.631339L21.6057 1.00831V16.5905V32.1728L22.0111 32.6258L22.4165 33.0787L41.6021 33.1148L60.7877 33.151V40.1536V47.1563H31.7469H2.70592L2.74246 31.2789L2.77887 15.4014L3.16388 15.0169L3.54875 14.6323L7.83223 14.563C12.5324 14.4868 12.4385 14.5047 12.8106 13.6161C12.9822 13.2064 12.9759 13.0977 12.7544 12.6463C12.3334 11.7888 12.2861 11.7814 7.43346 11.8219C3.29045 11.8565 3.02229 11.8744 2.4108 12.1565C1.58506 12.5375 0.680266 13.4406 0.298589 14.2649L0 14.9097V34.8818V54.8538L0.298589 55.4986C0.680266 56.3229 1.58506 57.2261 2.4108 57.6071C3.05189 57.9029 3.13803 57.9054 13.9291 57.9431L24.8014 57.981V60.3356V62.6901H24.4832C23.9437 62.6901 22.5472 63.1015 21.7518 63.4948C20.7075 64.011 19.3812 65.3372 18.8422 66.4037C17.9135 68.2414 17.7667 69.8778 18.4674 70.5774L18.8331 70.9424L31.578 70.9839C43.1823 71.0218 44.3618 71.0051 44.7581 70.7975C45.272 70.5284 45.5039 70.0845 45.5039 69.3701C45.5039 68.6505 45.1443 67.3428 44.6978 66.4382C44.2161 65.4623 42.7267 63.9757 41.7491 63.4948C40.9487 63.1011 39.5519 62.6901 39.0139 62.6901H38.6957V60.3356V57.981L49.568 57.9431C60.359 57.9054 60.4452 57.9029 61.0863 57.6071C61.912 57.2261 62.8168 56.3229 63.1985 55.4986C63.4948 54.8587 63.4973 54.7727 63.5351 44.001L63.5731 33.1481H66.8328H70.0924L70.5462 32.7434L71 32.3387V16.574V0.809424L70.5462 0.404712L70.0924 0L59.7781 0.00166434C49.0253 0.00332868 48.7651 0.0160886 47.6395 0.597498C47.4002 0.721075 47.0095 0.985982 46.7711 1.18626L46.3376 1.55033L45.9041 1.18626C45.6656 0.985982 45.2749 0.721075 45.0357 0.597498C43.9088 0.0155338 43.6511 0.00305129 32.999 0.0104021C27.3822 0.0144243 22.6547 0.0708731 22.4932 0.135921ZM43.7643 3.09109C44.0743 3.2664 44.4548 3.64615 44.6304 3.95558L44.9436 4.50758L44.9459 15.0155L44.9481 25.5236L44.4271 25.279C43.9475 25.0538 43.1308 25.0314 34.1453 24.9953L24.3845 24.9562V13.8651V2.7739L33.7979 2.77612L43.2114 2.77848L43.7643 3.09109ZM68.2906 13.8651V24.9562L58.5298 24.9953C49.5444 25.0314 48.7277 25.0538 48.248 25.279L47.727 25.5236L47.7292 15.0155L47.7316 4.50758L48.0448 3.95558C48.2204 3.64615 48.6008 3.2664 48.9108 3.09109L49.4638 2.77848L58.8772 2.77612L68.2906 2.7739V13.8651ZM30.5133 6.57358C29.8558 6.93724 29.6367 7.7364 30.0013 8.44028C30.3485 9.11045 30.6328 9.15386 34.6798 9.15386C38.7531 9.15386 39.0381 9.10768 39.3633 8.39493C39.6882 7.68328 39.4539 6.9077 38.8145 6.57761C38.2778 6.30049 31.0131 6.29703 30.5133 6.57358ZM53.8558 6.57358C53.1983 6.93724 52.9792 7.7364 53.3438 8.44028C53.691 9.11045 53.9753 9.15386 58.0223 9.15386C62.0955 9.15386 62.3805 9.10768 62.7058 8.39493C63.0306 7.68328 62.7964 6.9077 62.157 6.57761C61.6202 6.30049 54.3556 6.29703 53.8558 6.57358ZM16.2564 11.943C15.2215 12.537 15.2483 13.8791 16.3057 14.4207C17.3161 14.9383 18.5271 13.7786 18.0832 12.7186C17.9809 12.4744 17.7993 12.1935 17.6797 12.0945C17.3707 11.8386 16.584 11.7549 16.2564 11.943ZM30.5133 12.6762C29.8558 13.0398 29.6367 13.839 30.0013 14.5429C30.3485 15.213 30.6328 15.2564 34.6798 15.2564C38.7531 15.2564 39.0381 15.2103 39.3633 14.4975C39.6882 13.7859 39.4539 13.0103 38.8145 12.6802C38.2778 12.4031 31.0131 12.3996 30.5133 12.6762ZM53.8558 12.6762C53.1983 13.0398 52.9792 13.839 53.3438 14.5429C53.691 15.213 53.9753 15.2564 58.0223 15.2564C62.0955 15.2564 62.3805 15.2103 62.7058 14.4975C63.0306 13.7859 62.7964 13.0103 62.157 12.6802C61.6202 12.4031 54.3556 12.3996 53.8558 12.6762ZM30.5133 18.7787C29.8558 19.1424 29.6367 19.9416 30.0013 20.6454C30.3485 21.3156 30.6328 21.359 34.6798 21.359C38.7531 21.359 39.0381 21.3128 39.3633 20.6001C39.6882 19.8884 39.4539 19.1129 38.8145 18.7828C38.2778 18.5056 31.0131 18.5022 30.5133 18.7787ZM53.8558 18.7787C53.1983 19.1424 52.9792 19.9416 53.3438 20.6454C53.691 21.3156 53.9753 21.359 58.0223 21.359C62.0955 21.359 62.3805 21.3128 62.7058 20.6001C63.0306 19.8884 62.7964 19.1129 62.157 18.7828C61.6202 18.5056 54.3556 18.5022 53.8558 18.7787ZM8.3366 22.0414C8.18376 22.1057 7.93366 22.2971 7.78082 22.4668C7.51808 22.7583 7.50294 22.9704 7.50294 26.3634V29.9519L7.88823 30.3363L8.27338 30.7209H11.8796H15.4859L15.8711 30.3363L16.2564 29.9519V26.352V22.7522L15.8713 22.3677L15.4863 21.9831L12.0504 21.9537C10.1606 21.9377 8.48943 21.977 8.3366 22.0414ZM13.547 26.352V28.0164H11.8796H10.2123V26.352V24.6877H11.8796H13.547V26.352ZM43.7643 28.0562C44.4039 28.4178 44.9426 29.2689 44.9459 29.9234L44.9481 30.3742H34.6663H24.3845V29.0566V27.739L33.7979 27.7412L43.2114 27.7436L43.7643 28.0562ZM68.2906 29.0566V30.3742H58.0088H47.727L47.7292 29.9234C47.7326 29.2689 48.2712 28.4178 48.9108 28.0562L49.4638 27.7436L58.8772 27.7412L68.2906 27.739V29.0566ZM8.3366 34.2465C8.18376 34.3109 7.93366 34.5023 7.78082 34.6719C7.51808 34.9635 7.50294 35.1755 7.50294 38.5686V42.157L7.88823 42.5415L8.27338 42.9261H11.8796H15.4859L15.8711 42.5415L16.2564 42.157V38.5572V34.9574L15.8713 34.5729L15.4863 34.1883L12.0504 34.1589C10.1606 34.1428 8.48943 34.1822 8.3366 34.2465ZM13.547 38.5572V40.2215H11.8796H10.2123V38.5572V36.8928H11.8796H13.547V38.5572ZM20.185 40.4377C19.7198 40.6898 19.5215 41.0397 19.5215 41.6085C19.5215 42.1888 19.724 42.5333 20.2135 42.786C20.5672 42.9685 22.3405 42.9954 34.0321 42.9954H47.4447L47.8953 42.5935C48.2682 42.2609 48.346 42.0911 48.346 41.6085C48.346 41.1258 48.2682 40.9561 47.8953 40.6235L47.4447 40.2215L34.0041 40.2271C22.4136 40.2319 20.5115 40.2609 20.185 40.4377ZM52.7984 40.3475C51.913 40.7258 51.6788 41.8716 52.3501 42.5415C52.6363 42.8273 52.8649 42.9198 53.2847 42.9198C54.9005 42.9198 55.0878 40.5624 53.4932 40.2978C53.2639 40.2597 52.9513 40.282 52.7984 40.3475ZM60.7625 52.1465C60.7183 54.3584 60.7175 54.3636 60.3329 54.747L59.9478 55.1312H31.7485H3.54931L3.16415 54.747C2.77956 54.3636 2.77873 54.3584 2.73454 52.1465L2.69022 49.9302H31.7485H60.8068L60.7625 52.1465ZM30.7759 51.2163C30.2529 51.4758 29.8971 52.2899 30.0877 52.7905C30.3099 53.374 30.6173 53.6587 31.1277 53.7543C32.6693 54.0429 33.338 51.9128 31.9314 51.1947C31.5405 50.9952 31.2087 51.0014 30.7759 51.2163ZM35.9168 60.3323V62.6901H31.7485H27.5802V60.3323V57.9745H31.7485H35.9168V60.3323ZM39.7593 65.6707C40.6854 65.9453 41.5347 66.5786 42.037 67.3693C42.2626 67.7243 42.4472 68.0649 42.4472 68.1264C42.4472 68.1877 37.6328 68.2379 31.7485 68.2379C25.8643 68.2379 21.0499 68.1877 21.0499 68.1264C21.0499 67.8554 21.9004 66.7136 22.3667 66.3586C23.5242 65.4772 23.5632 65.4736 31.6885 65.4686C37.8263 65.4647 39.1789 65.4987 39.7593 65.6707Z" fill="#E49B00"/>
</svg>
